<?xml version="1.0" encoding="utf-8"?>
<!-- Generator: Adobe Illustrator 26.0.1, SVG Export Plug-In . SVG Version: 6.00 Build 0)  -->
<svg version="1.1" id="Layer_1" xmlns="http://www.w3.org/2000/svg" xmlns:xlink="http://www.w3.org/1999/xlink" x="0px" y="0px"
	 viewBox="0 0 24 24" style="enable-background:new 0 0 24 24;" xml:space="preserve">
<style type="text/css">
	.st0{fill:none;}
	.st1{fill:#A3C9A8;stroke:#A3C9A8;stroke-width:0.14;stroke-miterlimit:10;}
</style>
<rect class="st0" width="24" height="24"/>
<path class="st1" d="M12.1,0.3c6.4,0.1,11.6,5.3,11.6,11.7c-0.1,6.4-5.3,11.5-11.7,11.6C5.5,23.6,0.3,18.3,0.3,11.9
	C0.4,5.5,5.6,0.4,12.1,0.3z M12,21.7c5.4,0,9.7-4.3,9.8-9.7c0-5.4-4.3-9.7-9.7-9.8c-5.3,0-9.7,4.3-9.8,9.6
	C2.3,17.3,6.6,21.7,12,21.7C12,21.7,12,21.7,12,21.7z"/>
<path class="st1" d="M6.4,8.1c3.6,1.4,7.5,1.4,11.1,0L18,10l-2.9,0.7c-1.2,0.3-1.1,0.3-1.2,1.4c0,2.3,0.3,4.7,0.9,6.9
	c0,0.1,0,0.2,0.1,0.3c0,0.1,0,0.1-0.1,0.2L13,19.9l-1-4.7h-0.1L11,19.9c-0.1,0-0.1,0-0.2,0c-0.5-0.1-1.3-0.1-1.5-0.5s0.1-1,0.2-1.6
	c0.5-2.1,0.7-4.2,0.6-6.3c0-0.4-0.1-0.6-0.6-0.7C8.4,10.6,7.2,10.3,6,10L6.4,8.1z"/>
<path class="st1" d="M13.9,6.2c0,1-0.8,1.9-1.8,1.9c0,0,0,0-0.1,0c-1,0-1.9-0.7-1.9-1.8c0-0.1,0-0.1,0-0.2c0-1,0.9-1.9,1.9-1.9
	C13.1,4.3,13.9,5.2,13.9,6.2C13.9,6.2,13.9,6.2,13.9,6.2z"/>
</svg>
