<?xml version="1.0" encoding="utf-8"?>
<!-- Generator: Adobe Illustrator 26.0.1, SVG Export Plug-In . SVG Version: 6.00 Build 0)  -->
<svg version="1.1" id="Layer_1" xmlns="http://www.w3.org/2000/svg" xmlns:xlink="http://www.w3.org/1999/xlink" x="0px" y="0px"
	 viewBox="0 0 43.3 43.2" style="enable-background:new 0 0 43.3 43.2;" xml:space="preserve">
<style type="text/css">
	.st0{fill:none;}
	.st1{fill:#313159;}
	.st2{fill:#FC0053;}
</style>
<g id="AdobeCC">
	<g id="AdobeCC-2">
		<g id="Group_125">
			<g id="Path_134">
				<path class="st0" d="M35.3,33.3c-2.1,1.5-4.5,2.4-7,2.6c-1.6,0.2-3.3,0-4.9,0.1c-0.9,0-1.9,0-2.8,0c-2.1,0-4.3,0-6.4,0
					c-3.2,0-6.2-1.2-8.5-3.4c-2.2-2-3.5-4.7-3.8-7.7c-0.6-6.8,4.4-12.8,11.2-13.4c0.9-0.1,1.8-0.1,2.7,0c0.3,0,0.6,0,0.7-0.2
					C19,9,22.1,7.6,25.4,7.3c4.2-0.5,8.4,0.9,11.5,3.8c2.7,2.4,4.3,5.8,4.5,9.4C41.9,25.5,39.6,30.5,35.3,33.3z"/>
				<path class="st1" d="M26.2,35.1c0.7,0,1.4,0,2.1-0.1c2.4-0.2,4.6-1,6.5-2.4c1.9-1.3,3.5-3.2,4.5-5.3c1-2.1,1.4-4.5,1.2-6.8
					c-0.2-3.3-1.7-6.5-4.2-8.7c-1.2-1.2-2.7-2.1-4.3-2.7c-1.6-0.6-3.2-0.9-4.9-0.9c-0.5,0-1,0-1.5,0.1c-1.5,0.1-3,0.5-4.4,1.2
					c-1.4,0.7-2.7,1.5-3.8,2.6c-0.3,0.3-0.8,0.5-1.3,0.5h-0.3c-0.5-0.1-1-0.1-1.5-0.1c-1.6,0-3.2,0.3-4.7,1c-2.2,1-4,2.6-5.2,4.7
					c-1.2,2-1.6,4.4-1.4,6.7c0.1,1.3,0.4,2.6,1,3.9c0.6,1.2,1.4,2.3,2.4,3.2c1,1,2.3,1.8,3.6,2.3c1.3,0.5,2.8,0.8,4.2,0.8L26.2,35.1
					 M26.2,36.1c-0.9,0-1.9,0-2.8,0s-1.9,0-2.8,0c-2.1,0-4.3,0-6.4,0c-3.2,0-6.2-1.2-8.5-3.4c-2.2-2-3.5-4.7-3.8-7.7
					c-0.6-6.8,4.4-12.8,11.2-13.4c0.9-0.1,1.8-0.1,2.7,0c0.3,0,0.6,0,0.7-0.2C19,9,22.1,7.6,25.4,7.3c4.2-0.5,8.4,0.9,11.5,3.8
					c2.7,2.4,4.3,5.8,4.5,9.4c0.5,5.1-1.8,10-6,12.9c-2,1.5-4.5,2.4-7,2.6C27.6,36,26.9,36.1,26.2,36.1L26.2,36.1z"/>
			</g>
			<path id="Path_135" class="st2" d="M38.8,21.5c0,6.6-5.4,11.9-11.9,11.9c0,0,0,0,0,0h-0.5c-2.9,0-5.6-1.2-7.6-3.2
				c-1.8-1.9-3.7-3.7-5.6-5.5c-0.6-0.4-0.8-1.3-0.4-1.9c0.1-0.1,0.1-0.2,0.2-0.3c0.5-0.5,1.4-0.5,1.9,0l0.1,0.1
				c0.8,0.8,1.6,1.6,2.4,2.4c1.2,1.2,2.4,2.5,3.6,3.6c1.4,1.2,3.1,2,5,2.1c1.5,0.2,3,0,4.4-0.6c4.6-1.9,6.8-7.1,4.9-11.7
				c-1.2-2.9-3.9-5-7-5.5c-2.2-0.3-4.4,0.1-6.2,1.2c-0.2,0.2-0.5,0.2-0.6,0c-0.6-0.4-1.2-0.8-1.9-1.1c-0.2-0.1-0.3-0.2,0-0.4
				c1.7-1.4,3.8-2.2,6-2.4c2.5-0.3,5.1,0.2,7.2,1.5C36.5,13.5,38.7,17.4,38.8,21.5z"/>
			<path id="Path_136" class="st2" d="M25,22.8c-0.5,0.6-1.4,0.6-2,0c0,0,0,0,0,0c-1.3-1.3-2.5-2.5-3.8-3.8
				c-2.5-2.5-6.5-2.7-9.2-0.5C7,20.9,6.6,25.1,8.9,28c0.5,0.6,1,1.1,1.6,1.5c1.3,0.8,2.7,1.2,4.2,1.1c0.5,0,1,0.1,1.3,0.5
				c0.7,0.7,1.4,1.3,2.1,2c0.1,0.1,0.2,0.1,0.1,0.2s-0.2,0.1-0.3,0.1h-2.3c-1.3,0.1-2.6,0-3.9-0.3c-3.7-1-6.4-4.1-7-7.8
				c-0.6-3.6,0.9-7.1,3.8-9.2c3.7-2.7,8.8-2.5,12.1,0.7c1.5,1.3,2.8,2.7,4.2,4.1C25.5,21.4,25.5,22.2,25,22.8
				C25,22.7,25,22.7,25,22.8C25,22.8,25,22.8,25,22.8z"/>
		</g>
	</g>
</g>
</svg>
