<?xml version="1.0" encoding="utf-8"?>
<!-- Generator: Adobe Illustrator 26.0.1, SVG Export Plug-In . SVG Version: 6.00 Build 0)  -->
<svg version="1.1" xmlns="http://www.w3.org/2000/svg" xmlns:xlink="http://www.w3.org/1999/xlink" x="0px" y="0px"
	 viewBox="0 0 800 215" style="enable-background:new 0 0 800 215;" xml:space="preserve">
<style type="text/css">
	.st0{fill:#EADEDA;}
	.st1{fill:#EFECEE;}
	.st2{fill:#FC0053;}
	.st3{fill:#313159;}
	.st4{fill:#313159;stroke:#313159;stroke-width:0.1124;stroke-miterlimit:10;}
	.st5{fill:#FC0053;stroke:#FC0053;stroke-width:0.1124;stroke-miterlimit:10;}
	.st6{fill:none;stroke:#FC0053;stroke-width:3.7544;stroke-linecap:round;stroke-miterlimit:10;}
	.st7{fill:none;stroke:#313159;stroke-width:0.5363;stroke-miterlimit:10;}
	.st8{fill:none;stroke:#313159;stroke-width:1.0727;stroke-miterlimit:10;}
	.st9{fill:none;stroke:#313159;stroke-width:0.5836;stroke-miterlimit:10;}
	.st10{fill:none;stroke:#313159;stroke-width:1.1671;stroke-miterlimit:10;}
</style>
<g id="Layer_2">
</g>
<g id="Layer_1">
	<g>
		<g>
			<g>
				<g>
					<line class="st9" x1="341.2" y1="166.8" x2="10.8" y2="129.4"/>
					<g>
						<path class="st3" d="M341.3,165.1c1,0.1,1.7,1,1.5,1.9c-0.1,1-1,1.7-1.9,1.5c-1-0.1-1.7-1-1.5-1.9
							C339.5,165.6,340.3,165,341.3,165.1z"/>
					</g>
					<g>
						<path class="st3" d="M11.1,127.7c-1-0.1-1.8,0.6-1.9,1.5c-0.1,1,0.6,1.8,1.5,1.9c1,0.1,1.8-0.6,1.9-1.5
							C12.8,128.6,12.1,127.8,11.1,127.7z"/>
					</g>
				</g>
			</g>
		</g>
		<g>
			<g>
				<g>
					<line class="st9" x1="625.5" y1="89.9" x2="382.7" y2="115.6"/>
					<g>
						<path class="st3" d="M625.2,88.1c1-0.1,1.8,0.6,1.9,1.6c0.1,1-0.6,1.8-1.6,1.9s-1.8-0.6-1.9-1.6S624.3,88.2,625.2,88.1z"/>
					</g>
					<g>
						<path class="st3" d="M382.6,113.8c-1,0.1-1.7,1-1.6,1.9s1,1.7,1.9,1.6c1-0.1,1.7-1,1.6-1.9
							C384.5,114.4,383.6,113.7,382.6,113.8z"/>
					</g>
				</g>
			</g>
		</g>
		<g>
			<g>
				<g>
					<line class="st9" x1="793.1" y1="204.8" x2="741.5" y2="113.4"/>
					<g>
						<path class="st3" d="M743.1,112.6c-0.5-0.8-1.5-1.1-2.4-0.7c-0.8,0.5-1.1,1.5-0.7,2.4s1.5,1.1,2.4,0.7
							S743.5,113.5,743.1,112.6z"/>
					</g>
				</g>
			</g>
		</g>
		<rect x="15.1" y="3.3" transform="matrix(-1 -4.467772e-11 4.467772e-11 -1 35.2137 11.6161)" class="st3" width="5" height="5"/>
		<g>
			<g>
				<path class="st10" d="M17.6,5.8c0,0-6.1,122.2,157.1,142.6s207.8-32.8,333.4-46.4c115.3-12.5,232.5,10.8,284.5,102.3"/>
				<g>
					<polygon class="st3" points="780.4,202.6 781.1,200.3 792.1,203.7 794.6,192.4 796.9,192.9 793.9,206.6 					"/>
				</g>
			</g>
		</g>
		
			<rect x="172.2" y="146" transform="matrix(-1 -4.504098e-11 4.504098e-11 -1 349.4924 296.9089)" class="st2" width="5" height="5"/>
		
			<rect x="505.6" y="99.6" transform="matrix(-1 -4.504098e-11 4.504098e-11 -1 1016.2303 204.1756)" class="st2" width="5" height="5"/>
	</g>
</g>
</svg>
