<?xml version="1.0" encoding="utf-8"?>
<!-- Generator: Adobe Illustrator 26.0.1, SVG Export Plug-In . SVG Version: 6.00 Build 0)  -->
<svg version="1.1" xmlns="http://www.w3.org/2000/svg" xmlns:xlink="http://www.w3.org/1999/xlink" x="0px" y="0px"
	 viewBox="0 0 800 215" style="enable-background:new 0 0 800 215;" xml:space="preserve">
<style type="text/css">
	.st0{fill:#EADEDA;}
	.st1{fill:#EFECEE;}
	.st2{fill:#FC0053;}
	.st3{fill:#313159;}
	.st4{fill:#313159;stroke:#313159;stroke-width:0.1124;stroke-miterlimit:10;}
	.st5{fill:#FC0053;stroke:#FC0053;stroke-width:0.1124;stroke-miterlimit:10;}
	.st6{fill:none;stroke:#FC0053;stroke-width:3.7544;stroke-linecap:round;stroke-miterlimit:10;}
	.st7{fill:none;stroke:#313159;stroke-width:0.5363;stroke-miterlimit:10;}
	.st8{fill:none;stroke:#313159;stroke-width:1.0727;stroke-miterlimit:10;}
	.st9{fill:none;stroke:#313159;stroke-width:0.5836;stroke-miterlimit:10;}
	.st10{fill:none;stroke:#313159;stroke-width:1.1671;stroke-miterlimit:10;}
</style>
<g id="Layer_2">
</g>
<g id="Layer_1">
	<g>
		<g>
			<g>
				<g>
					<line class="st9" x1="461.9" y1="166.8" x2="792.2" y2="129.4"/>
					<g>
						<path class="st3" d="M462.1,168.5c-1,0.1-1.8-0.6-1.9-1.5c-0.1-1,0.6-1.8,1.5-1.9c1-0.1,1.8,0.6,1.9,1.5
							C463.8,167.6,463.1,168.4,462.1,168.5z"/>
					</g>
					<g>
						<circle class="st3" cx="792.1" cy="129.4" r="1.8"/>
					</g>
				</g>
			</g>
		</g>
		<g>
			<g>
				<g>
					<line class="st9" x1="177.5" y1="89.9" x2="420.3" y2="115.6"/>
					<g>
						<path class="st3" d="M177.4,91.6c-1-0.1-1.7-1-1.6-1.9c0.1-1,1-1.7,1.9-1.6c1,0.1,1.7,1,1.6,1.9S178.4,91.7,177.4,91.6z"/>
					</g>
					<g>
						<path class="st3" d="M420,117.3c1,0.1,1.8-0.6,1.9-1.6c0.1-1-0.6-1.8-1.6-1.9c-1-0.1-1.8,0.6-1.9,1.6
							C418.4,116.3,419.1,117.2,420,117.3z"/>
					</g>
				</g>
			</g>
		</g>
		<g>
			<g>
				<g>
					<line class="st9" x1="9.9" y1="204.8" x2="61.6" y2="113.4"/>
					<g>
						<path class="st3" d="M63,114.4c0.5-0.8,0.2-1.9-0.7-2.4c-0.8-0.5-1.9-0.2-2.4,0.7c-0.5,0.8-0.2,1.9,0.7,2.4
							S62.6,115.2,63,114.4z"/>
					</g>
				</g>
			</g>
		</g>
		<rect x="782.9" y="3.3" class="st3" width="5" height="5"/>
		<g>
			<g>
				<path class="st10" d="M785.4,5.8c0,0,6.1,122.2-157.1,142.6s-207.8-32.8-333.4-46.4C179.6,89.6,62.4,112.8,10.4,204.4"/>
				<g>
					<polygon class="st3" points="6.1,192.9 8.4,192.4 10.9,203.7 21.9,200.3 22.6,202.6 9.2,206.6 					"/>
				</g>
			</g>
		</g>
		<rect x="625.8" y="146" class="st2" width="5" height="5"/>
		<rect x="292.4" y="99.6" class="st2" width="5" height="5"/>
	</g>
</g>
</svg>
