<svg id="Layer_1" data-name="Layer 1" xmlns="http://www.w3.org/2000/svg" viewBox="0 0 156.56 95.14"><defs><style>.cls-1{fill:#fff;}.cls-2{fill:#a3c9a8;}.cls-3{fill:#2e86ab;}.cls-4{fill:#1a1a1a;}.cls-5{fill:#b5b5b5;}</style></defs><path class="cls-1" d="M133.85,36.91s-.47,1.72.06,2c0,0,.67.78.61,1.31s-.07,1.24-.67,1.48-1.28.64-2,.22l.17,1.44.31,4.56,2.91,2.22-1.36,7.27-1.63,6.12s-2.13,2.78-2.22,2.88-2.41,1.33-2.41,1.33-4.2-4.72-4.37-5-1.38-3.79-1.38-3.92,1.79-8.73,1.79-8.73l2-1.74s.53-.35.6-.75a20.21,20.21,0,0,0,0-2.08,2.17,2.17,0,0,1-1.66-.69C124,44.09,124,42,124,42l.13-5.49,2,0,1.38-.46,1.07-.68.32-.27.85-.52,2.38.52Z"/><path class="cls-2" d="M126.38,45.54s3.56.17,4.33-.72.56-3,.43-3.58a11.35,11.35,0,0,1-.15-1.7,2,2,0,0,1,2.59-1,8.22,8.22,0,0,0,.13-3.43,2.57,2.57,0,0,0-3.6-2.09,6.2,6.2,0,0,0-3.33-.76,4.54,4.54,0,0,0-3.73,4.19s.92,2.3.91,2.24.07-2.27.07-2.27a5.16,5.16,0,0,0,2.35-.06A10,10,0,0,0,129,34.87s.15,2.5,1.48,3.48c0,0-.14.46-.15.56s-.09,2-.54,2.15-1.93-.19-2.56.18-.71.68-1.14.56a7.74,7.74,0,0,0-1.29-.24,1.28,1.28,0,0,0-.83.26S123.66,45.72,126.38,45.54Z"/><path class="cls-3" d="M112.59,54.76s4.75-4.91,11-4.76l1.84,9,.53-.93,1.59,7.59,1.12,1.13,4.2-9.79.41.18,1.52-7.39a22.84,22.84,0,0,1,6.31,1.24c2.62,1.07,4.38,3,6.37,8.59s4.06,11.21,4.79,13.13.85,8.52-3.12,10.73-5.43.71-5.43.71v5.63H118.31Z"/><path class="cls-1" d="M14.57,36.68V59.05a43.66,43.66,0,0,1,12.56-6c7.5-2.24,10.69-2.38,10.69-2.38V28.33A61,61,0,0,0,25.59,31.2,48.74,48.74,0,0,0,14.57,36.68Z"/><path class="cls-3" d="M53,60.09s-5.09-.56-8-3.54l-3.49,7.52s-1-4.91-1.31-6.1-.31-3.55-6.79-3.51H28.24s-6.1-.23-8.18,3.2-2.17,5.17-2.17,5.17L12.79,83l-1.42,6.9H43.15l-.34-9.6a5.36,5.36,0,0,0,4.53-2.38,27.5,27.5,0,0,0,3.81-7.54c.56-1.77,1.77-6.28,1.77-6.28Z"/><polygon class="cls-1" points="106.87 42.82 106.22 40.62 105.17 39.45 104.14 39.11 70.53 39.11 69.61 39.38 68.5 40.49 68.16 41.52 68.42 42.82 74.18 63.64 74.61 64.62 75.35 65.31 76.15 65.71 97.13 65.64 110.54 57.76 106.87 42.82"/><path class="cls-1" d="M104.14,42.3l-.61-.75-.85-.25H72.07l-.79.4-.3.91,5.45,19.63L77,63l1.1.51H98.56s10.59-7.85,10.59-7.94S104.14,42.3,104.14,42.3Z"/><path class="cls-2" d="M104.17,57a7.25,7.25,0,0,0-4.71,3.5c-1.43,2.85-3,6.46-3.55,7.48s-2.68,1.38-3.29.37-4-11.49-4-11.49-1.08-1.28-5-1-4.38,2.47-4.38,2.47,1.24,8,2.48,11.17,3.62,10.13,10.54,10.12a13.5,13.5,0,0,0,4.06-.35s-.55,9-1.19,10.69h23.11s-.29-8-.28-10.45.37-6.63.15-9.15a25,25,0,0,1,0-4.56l-9.92-9.77Z"/><path class="cls-4" d="M95.66,25.71A.67.67,0,1,0,95,25,.67.67,0,0,0,95.66,25.71Z"/><path class="cls-4" d="M100.83,25.74a.7.7,0,1,0-.7-.7A.7.7,0,0,0,100.83,25.74Z"/><path class="cls-4" d="M106,25.69a.65.65,0,1,0-.64-.65A.65.65,0,0,0,106,25.69Z"/><path class="cls-4" d="M95.66,30.92a.7.7,0,1,0-.7-.7A.7.7,0,0,0,95.66,30.92Z"/><path class="cls-4" d="M100.83,31a.74.74,0,1,0-.73-.73A.74.74,0,0,0,100.83,31Z"/><path class="cls-4" d="M106,30.9a.69.69,0,1,0-.68-.68A.69.69,0,0,0,106,30.9Z"/><circle class="cls-4" cx="95.66" cy="35.39" r="0.65"/><circle class="cls-4" cx="100.83" cy="35.39" r="0.68"/><path class="cls-4" d="M106,36a.64.64,0,1,0-.63-.64A.64.64,0,0,0,106,36Z"/><path class="cls-1" d="M87.29,55.91,88,53.43s.6-1.64-.25-1.91-1.36.68-1.52,1.19-.35,1.36-1.39.92c0,0-.56-.4-1-2.16a27,27,0,0,0-1.41-4s-.42-1.13-1.23-.83-.62,1.29-.38,2,.88,2.78.88,2.78-1.3-.12-1.38,1c0,0-1.12.35-1.18,1.17a7.57,7.57,0,0,0,.52,2.78c.23.45.42.78.42.78a6.12,6.12,0,0,1,3.12-1.37A18,18,0,0,1,87.29,55.91Z"/><path class="cls-1" d="M28.42,54.45l-.05-4.3s-1.33.42-1.92-1.24,2.2-2,2.48-1.82c0,0,1.76-.82,2.48-1.27a8.52,8.52,0,0,0,2.41-3.17l.82,1.17.73,4.3s.25,2.86-.4,3.54a2.47,2.47,0,0,1-1.9.79l.15,2s.51,1.65.58,1.93.46,1.62-.75,2a2.73,2.73,0,0,1-2.84-1.1A30.6,30.6,0,0,1,28.42,54.45Z"/><path class="cls-1" d="M46.29,57.55l1-1.74a21.36,21.36,0,0,1,.84-3.36A2,2,0,0,1,50,51.57a2.33,2.33,0,0,0,.29-.19l2.44-2.77a1,1,0,0,1,1,.13,1.14,1.14,0,0,1,.09,1.38c-.22.38-1.44,2-1.44,2s1.24,0,1.37.57l-.52.54-.15,4.91s-1.21,1.47-1.81,1.58C51.25,59.72,47.35,58.59,46.29,57.55Z"/><path class="cls-2" d="M34.55,43.79a3.47,3.47,0,0,0-.81-3c-1.25-1.48-5.18-.06-5.18-.06a4.13,4.13,0,0,0-.27-3.08,3.19,3.19,0,0,0-4.24-1.08,4.06,4.06,0,0,0-1.9,4.34,2.72,2.72,0,0,0,2.22,2.34,8.48,8.48,0,0,0,.08,3.82c.53,2.05,1.82,3.66,3.92,3.81v-.71s-1.59.24-1.84-1.11a1.68,1.68,0,0,1,1.13-2,4.61,4.61,0,0,1,1,.05,8.72,8.72,0,0,0,1.87-.73,8.85,8.85,0,0,0,2.12-1.81c.26-.35,1.15-1.83,1.15-1.83A3.38,3.38,0,0,1,34.55,43.79Z"/><path class="cls-1" d="M102.21,46.07s-.25-2.37.75-3.33a5.34,5.34,0,0,1,3.51.18,18.7,18.7,0,0,1,3.14-.31,4.24,4.24,0,0,1,3,3,10.08,10.08,0,0,1-.12,4,10.75,10.75,0,0,0-.57,3.63,3.93,3.93,0,0,0,2.39,2.9,8.65,8.65,0,0,1,3.5,2.66,11.83,11.83,0,0,1,1.82,4.58c.11,1.6-.48,4.18-1.92,5a6.3,6.3,0,0,1-5.76.48c-2.33-.94-2.8-2.14-2.85-2.92s.7-4.66.56-5.51a2.67,2.67,0,0,0-2.34-2.08c-1.38-.16-3.49-.65-3.87-2.47s-.52-2.79-.52-2.79Z"/><path class="cls-1" d="M104.58,48.56a2.15,2.15,0,0,1,1.5,0,1.76,1.76,0,0,1,.87,2.1,1.71,1.71,0,0,1-2,1s-1.74,1.17-1.83,2.42a1.87,1.87,0,0,1-1.95-1,3.59,3.59,0,0,1-.28-2.1c.1-.48.16-1.09.16-1.09l-.56-.12-.22-.4.89-3,.3-.29.53.27.15-.24S103.24,48.34,104.58,48.56Z"/><path class="cls-1" d="M53.21,53.23,52.6,76s8.76-5.34,10-13v-22a9,9,0,0,0-1.27-6.14c-1.93-3.08-6.4-4.83-6.4-4.83l-.1,22Z"/><path class="cls-1" d="M38.11,60.25l-.29,22.39s-8.6,2.49-15.78,2S10,82.36,7.32,79.76a9.49,9.49,0,0,1-2.86-5.57l0-23.2s-.59,6.22,7.37,9.27,16.87,1.87,17.68,1.79C31,61.89,38.11,60.25,38.11,60.25Z"/><path class="cls-2" d="M30.39,72.14s10.5-.94,13.67-3.06v7.75a39.08,39.08,0,0,1-13.67,3Z"/><path class="cls-4" d="M46.29,57.55l.61-1s-1.74-.44-1.9-.1S46.29,57.55,46.29,57.55Z"/><path class="cls-4" d="M53,58.23s-1.13,1.39-1.6,1.49A7.81,7.81,0,0,0,53,60Z"/><path class="cls-1" d="M142.51,72.15l3.92-9.31-13.51-5.79-8.37,19.49,13.38,5.84.37-.42s-4.94-3-6.1-4.45a17.61,17.61,0,0,0-2.55-2.57,16.42,16.42,0,0,1,2.41-4.24,29.86,29.86,0,0,1,2.61-3Z"/><path class="cls-2" d="M131.17,55.9c-.07.05-.65,1.77-.65,1.77l.44,3.82-2.33,5.28-1-1.06L127.23,64l1-6.14-.88-2.08,1.9-3.36Z"/><path class="cls-4" d="M128,44.09a1.66,1.66,0,0,1,.41-1.23,2.22,2.22,0,0,1,.83-.47s-.18-.43-.55-.4-.34.68-.83.81-.82-.24-1.19,0-.5.27-.33.57a1.45,1.45,0,0,0,1,.77C127.85,44.17,128,44.09,128,44.09Z"/><circle class="cls-2" cx="75.98" cy="19.84" r="15.74"/><path class="cls-1" d="M70.94,20.15a1.66,1.66,0,0,0-2.35,0l-.64.64a1.65,1.65,0,0,0,0,2.36l4.69,4.69a1.66,1.66,0,0,0,2.35,0l9.66-9.43a1.66,1.66,0,0,0,0-2.35L84,15.42a1.67,1.67,0,0,0-2.36,0L73.81,23Z"/><polygon class="cls-2" points="14.66 46.62 14.66 53.3 10.94 55.11 10.94 48.42 14.66 46.62"/><path class="cls-3" d="M54.9,32.11v5.66a15.85,15.85,0,0,0-4.14-1.35c-2-.28-3.47-.39-3.47-.39V30.37a16.22,16.22,0,0,1,4.45.6A27.28,27.28,0,0,1,54.9,32.11Z"/><path class="cls-2" d="M55,29.94l-.1,22A21.8,21.8,0,0,0,60,46.82a19.08,19.08,0,0,0,2.66-5.91c.09-.81.33-3.88-1-5.67S59.77,32.29,55,29.94Z"/><path class="cls-3" d="M106.34,69.37s-2.3,8.8-10,12.5l.07-2.69a18.27,18.27,0,0,0,5.54-3A17.07,17.07,0,0,0,106.34,69.37Z"/><path class="cls-5" d="M129,69.85s-.82.14-1.65.31l-1.29,3s4.67,5.66,9.22,8.07l2.7,1.17.37-.42s-4.94-3-6.1-4.45a17.61,17.61,0,0,0-2.55-2.57A15.42,15.42,0,0,1,131,72.27Z"/><path class="cls-1" d="M134.2,68.08s-.55-1.3-.71-1.8-.48-2-1.19-1.93-1,.77-.8,1.48.82,2.36.1,2.51-1.85-.59-2.65-1.3-2.81-2.28-2.81-2.28-.64.24-.79.59a1,1,0,0,0,.13.82.8.8,0,0,0-.81.18c-.29.35-.4,1-.22,1.16,0,0-1,.68-.34,1.54a16.27,16.27,0,0,0,2.63,3A7.82,7.82,0,0,0,130,74.07s1.17-2.29,1.76-3.12S134.2,68.08,134.2,68.08Z"/><polygon class="cls-3" points="71.75 54.84 74.18 63.64 74.61 64.62 75.65 65.46 76.15 65.71 80.65 65.7 82.37 71.03 69.32 71.03 64.85 54.92 71.75 54.84"/><path class="cls-1" d="M27.18,38.63c.44,2.17.12,2.25.12,2.25h.9l.37-.19a4.09,4.09,0,0,0-.28-3.06,3.19,3.19,0,0,0-4.24-1.08,2.8,2.8,0,0,0-.41.25C24.21,36.77,26.8,36.73,27.18,38.63Z"/><path class="cls-1" d="M29.86,40.34c.67.06,3.25.35,3.16,1.88-.1,1.74-3.22,4.5-3.23,4.51a7.66,7.66,0,0,0,.78-.36,8.85,8.85,0,0,0,2.12-1.81c.26-.35,1.15-1.83,1.15-1.83a3.38,3.38,0,0,1,.71,1.06,3.47,3.47,0,0,0-.81-3C33,39.84,31.12,40.06,29.86,40.34Z"/><path class="cls-1" d="M129.2,42.39s-1.8.67-1.17,1.63a1.6,1.6,0,0,0,.86-.51A1.86,1.86,0,0,0,129.2,42.39Z"/><path class="cls-1" d="M124,36.44a5.16,5.16,0,0,0,2.35-.06,6.3,6.3,0,0,0,.91-.38c-1.11.35-3-.63-3-.63.12-1.57,2.47-2.94,2.78-3.11l-.31,0a4.54,4.54,0,0,0-3.73,4.19s.92,2.3.91,2.24S124,36.44,124,36.44Z"/><path class="cls-1" d="M128,45.39c-3.86.24-3.26-3.83-3.26-3.83l-.41.07a1.47,1.47,0,0,0-.35.19s-.35,3.9,2.37,3.72a16.08,16.08,0,0,0,2.71-.12A3.26,3.26,0,0,0,128,45.39Z"/><polygon class="cls-1" points="129.77 53.4 128.43 55.73 129.2 57.65 128.05 66.17 127.76 65.9 127.31 63.96 128.22 57.76 127.46 55.73 129.28 52.38 129.77 53.4"/><path class="cls-3" d="M98.24,78.58a5.1,5.1,0,0,0-5.12-3.65,5.75,5.75,0,0,0-5.24,3.2,9.29,9.29,0,0,0,5.32,1.42A10.56,10.56,0,0,0,98.24,78.58Z"/><path class="cls-4" d="M46.29,57.84a13.13,13.13,0,0,1,.92-2.16l.51-2c0-.1.05-.2.07-.3a2.78,2.78,0,0,1,1-1.76,1.94,1.94,0,0,1,1-.22,7,7,0,0,1,1.37.15,2.81,2.81,0,0,1,.64.21,1.09,1.09,0,0,1,.56,1.37,1.29,1.29,0,0,1-.78.67,3.75,3.75,0,0,1-1.22.19,3.62,3.62,0,0,1-1.79-.4c.61,0,1.14.1,1.7.1a4.11,4.11,0,0,0,1.21-.17,1.1,1.1,0,0,0,.6-.51.78.78,0,0,0-.42-1,2.06,2.06,0,0,0-.56-.19,6.58,6.58,0,0,0-1.32-.14,1.47,1.47,0,0,0-.87.16,2.53,2.53,0,0,0-.85,1.59c0,.1-.05.19-.07.29l-.52,2c0,.09-.8,1.52-1.08,2A.17.17,0,0,1,46.29,57.84Z"/><path class="cls-4" d="M53.11,57.36a1,1,0,0,1-.85-.78,1.49,1.49,0,0,1,.09-1,3.78,3.78,0,0,1,.7-1,3.36,3.36,0,0,1-.42,1.17,1.26,1.26,0,0,0-.08.82c.11.36.29.53.57.56C53.25,57.3,53.18,57.36,53.11,57.36Z"/><path class="cls-4" d="M52.25,52.36A3.48,3.48,0,0,1,53,51c.52-.65.93-1.16.75-1.84-.07-.28-.28-.58-.63-.5a1.32,1.32,0,0,0-.52.31,14.21,14.21,0,0,0-2.27,2.65,6.87,6.87,0,0,1,2.08-2.88,1.42,1.42,0,0,1,.65-.38.84.84,0,0,1,1,.72,2.29,2.29,0,0,1-.72,2l-1,1.21A.14.14,0,0,1,52.25,52.36Z"/><path class="cls-4" d="M53.75,52.92a1.09,1.09,0,0,0-.69-.62.66.66,0,0,0-.71.19c0-.48.34-.59.79-.48a1,1,0,0,1,.76.71C53.78,52.91,53.77,52.92,53.75,52.92Z"/><path class="cls-4" d="M51.65,55.82a1.37,1.37,0,0,1-1.18-.63,1.33,1.33,0,0,1,.18-1.43A2.59,2.59,0,0,0,50.74,55a1,1,0,0,0,.9.47,1.13,1.13,0,0,0,.78-.39,5.15,5.15,0,0,0,.4-.44c.07-.1.15-.19.24-.3.15.31.07.4,0,.49s-.25.3-.42.47a1.44,1.44,0,0,1-1,.48Z"/><path class="cls-4" d="M50.38,57.46a4.12,4.12,0,0,0,.45-2c.31,0,.39,1-.33,1.9A.14.14,0,0,1,50.38,57.46Z"/><path class="cls-4" d="M145.85,84.64c-5.35,0-12.44-5.41-16.31-9.62a14.11,14.11,0,0,1,2.26-4.31,26.77,26.77,0,0,1,2.68-3.13,62.44,62.44,0,0,1,12.66,7.73,90.15,90.15,0,0,0-12.53-7.43,29.54,29.54,0,0,0-2.56,3,18.75,18.75,0,0,0-2.23,4c5.84,6.29,14.46,11.45,19.05,8.67,6.52-4,2.68-13.38-.4-21-.54-1.32-1.05-2.57-1.48-3.73l-.14-.41c-.63-1.73-1.78-4.95-4.52-6.62A14.8,14.8,0,0,0,134.85,50a12.45,12.45,0,0,1,7.64,1.59c2.83,1.73,4,5,4.64,6.78.06.15.11.28.15.41.43,1.15.94,2.39,1.47,3.71,3.13,7.68,7,17.23.28,21.33A6.06,6.06,0,0,1,145.85,84.64Z"/><path class="cls-4" d="M130,74.22c-2.14-.33-5.8-4.14-6.17-5.44a1.11,1.11,0,0,1,.46-1.31.89.89,0,0,1,.15-1.12,1,1,0,0,1,.39-.28.92.92,0,0,1,.82.11,5.81,5.81,0,0,1-.7.17.79.79,0,0,0-.29.21.59.59,0,0,0,0,.85c-.08.26-.73.56-.51,1.29.35,1.21,3.92,4.91,5.9,5.22C130.15,74.17,130.08,74.22,130,74.22Z"/><path class="cls-4" d="M128.87,69.28A23.56,23.56,0,0,1,126.11,67c-.53-.49-1-.93-1-1.43a.94.94,0,0,1,.34-.69c.78-.72,1.52,0,2,.41l.38.37a19.47,19.47,0,0,0,1.66,1.56c.4.3,1.6,1.22,2.08,1s.45-.47,0-1.66a2.68,2.68,0,0,1-.08-2.09.72.72,0,0,1,.48-.34c.93-.14,1.17.57,1.36,1.14a3.18,3.18,0,0,0,.14.37,5.62,5.62,0,0,1,.27.85,3.86,3.86,0,0,0,.61,1.46,1.85,1.85,0,0,1-.91-1.38,4.8,4.8,0,0,0-.25-.81,3.53,3.53,0,0,1-.15-.39c-.22-.65-.41-1-1-.93a.37.37,0,0,0-.27.19,2.53,2.53,0,0,0,.11,1.83c.37,1.06.46,1.73-.19,2s-1.53-.37-2.4-1a21.8,21.8,0,0,1-1.69-1.58l-.37-.37c-.64-.62-1-.85-1.53-.41a.65.65,0,0,0-.25.47c0,.37.42.75.72,1A29.15,29.15,0,0,0,129,69C129,69.26,128.92,69.28,128.87,69.28Z"/><path class="cls-4" d="M127.83,70.73c-.09,0-.89-.67-1.77-1.4a14.85,14.85,0,0,1-1.58-1.63c.17-.27,1,.8,1.77,1.39l1.68,1.37C127.92,70.71,127.88,70.73,127.83,70.73Z"/><path class="cls-4" d="M53,60.24a13,13,0,0,1-4.06-1.1c-1.54-.62-4.38-2-4.06-2.79.13-.33.54-.32.77-.31a3.88,3.88,0,0,1,1.28.26,3.66,3.66,0,0,1-1.27.05c-.24,0-.45,0-.5.12s1.19,1.3,3.9,2.39A12.9,12.9,0,0,0,53,59.93C53.13,60.17,53.06,60.24,53,60.24Z"/><path class="cls-4" d="M87.25,56.14a7.18,7.18,0,0,1,.29-1.59c.09-.35.18-.68.26-.91a2.72,2.72,0,0,0,.25-1.56.64.64,0,0,0-.32-.42.74.74,0,0,0-.67.07,1.47,1.47,0,0,0-.5.6,2.23,2.23,0,0,0-.14.4c-.11.45-.27,1.07-.81,1.2-.77.18-1.34-.45-1.71-1.86-.15-.58-.29-1.09-.42-1.54a19.91,19.91,0,0,0-1.13-3,1.73,1.73,0,0,0-.45-.67.59.59,0,0,0-.4-.11A.62.62,0,0,0,81,47a1.22,1.22,0,0,0-.14,1C81,48.78,82,51.39,82,51.41c-.18.2-.69.08-1.07.33a1,1,0,0,0-.39.73c-.15.14-.62.17-.93.54a1.36,1.36,0,0,0-.25,1.07,1,1,0,0,1,0-1.27,1.49,1.49,0,0,1,.88-.49,1.2,1.2,0,0,1,.5-.83,1.44,1.44,0,0,1,.87-.21c-.24-.67-.91-2.54-1.07-3.17a1.55,1.55,0,0,1,.19-1.25,1,1,0,0,1,.74-.4.94.94,0,0,1,.6.17,1.68,1.68,0,0,1,.5.7,20,20,0,0,1,1.19,3.11c.13.46.28,1,.43,1.56.31,1.22.76,1.77,1.34,1.63.36-.09.48-.58.59-1a1.92,1.92,0,0,1,.16-.48,1.79,1.79,0,0,1,.61-.7,1,1,0,0,1,1-.1,1,1,0,0,1,.49.61,3,3,0,0,1-.26,1.74c-.08.23-.16.55-.25.9a9.64,9.64,0,0,1-.45,1.42A.15.15,0,0,1,87.25,56.14Z"/><path class="cls-4" d="M81.16,54.61a4,4,0,0,1-.93-2.21c.31,0,.31.83,1.06,2C81.22,54.6,81.19,54.61,81.16,54.61Z"/><path class="cls-4" d="M82.54,53.42a8.34,8.34,0,0,1-.84-1.93c.3,0,.38.38,1,1.71C82.58,53.41,82.56,53.42,82.54,53.42Z"/><path class="cls-4" d="M80.14,57.34A6.65,6.65,0,0,1,79,53.85c.3,0,.3,1.79,1.24,3.25C80.2,57.33,80.17,57.34,80.14,57.34Z"/><path class="cls-4" d="M127.61,44.28a1.68,1.68,0,0,1-.9-.26,1.07,1.07,0,0,1-.58-.76.58.58,0,0,1,.23-.55.86.86,0,0,1,.83-.06c.39.16.43.14.53.1s.14-.06.31-.43a.88.88,0,0,1,.65-.52.6.6,0,0,1,.55.25,1,1,0,0,1,.07.91,1.81,1.81,0,0,1-1,1.2A1.92,1.92,0,0,1,127.61,44.28Zm-.8-1.4a.45.45,0,0,0-.27.07.29.29,0,0,0-.1.28.82.82,0,0,0,.43.53,1.4,1.4,0,0,0,1.28.11,1.48,1.48,0,0,0,.86-1,.8.8,0,0,0,0-.64.29.29,0,0,0-.27-.13.59.59,0,0,0-.4.35c-.21.44-.3.51-.48.58s-.3.09-.75-.1A.91.91,0,0,0,126.81,42.88Z"/><path class="cls-4" d="M128,44.23a1.48,1.48,0,0,1,1.15-2c0,.31-1.29.67-1,1.79C128,44.23,128,44.23,128,44.23Z"/><path class="cls-4" d="M124.8,40c-.26,0-.51-.2-.55-.83a5.39,5.39,0,0,1,0-.67c.24.49.26,1.16.5,1.19.31-.18.43-.77.46-1.1.29.13.2,1-.16,1.31A.44.44,0,0,1,124.8,40Z"/><path class="cls-4" d="M128.42,40.05c-.71-.12-.52-1.37-.49-1.51.22.49.22,1.16.47,1.2.31-.18.45-.79.49-1.14.29.14.17,1.07-.21,1.36A.43.43,0,0,1,128.42,40.05Z"/><path class="cls-4" d="M32.14,52.6l-.91,0a3,3,0,0,1,1.42-.28,2.8,2.8,0,0,0,2-.5,1.6,1.6,0,0,0,.38-.54,3,3,0,0,0,.21-.89,7,7,0,0,0,.06-1.14,18.8,18.8,0,0,0-.22-2.12c-.15-1-.6-3-.61-3,.32,0,.76,1.92.89,2.78a21.73,21.73,0,0,1,.25,2.32,7.52,7.52,0,0,1-.06,1.19,3.6,3.6,0,0,1-.24,1,1.91,1.91,0,0,1-.45.63,2.83,2.83,0,0,1-2,.58Z"/><path class="cls-4" d="M31.08,46.22c.12,0,.2,0,.3.44s0,.58-.13.59-.24-.12-.28-.47S30.92,46.27,31.08,46.22Z"/><path class="cls-4" d="M34.18,45.56c.12,0,.21,0,.32.43s0,.58-.11.6-.24-.12-.29-.47S34,45.61,34.18,45.56Z"/><path class="cls-4" d="M34.74,44.79a.89.89,0,0,0-.94,0c.47-.52.78-.4,1-.24C34.84,44.76,34.79,44.79,34.74,44.79Z"/><path class="cls-4" d="M28,50.34A1.76,1.76,0,0,1,26.33,49a1.79,1.79,0,0,1,.24-1.32,1.73,1.73,0,0,1,1.1-.76,1.68,1.68,0,0,1,1,.08c.1,0,.32.06.59.39-.46-.08-.62-.09-.62-.09a1.58,1.58,0,0,0-.9-.08,1.45,1.45,0,0,0-1.1,1.71A1.44,1.44,0,0,0,28.35,50a1.41,1.41,0,0,0,.68-.36.67.67,0,0,1-.62.66A1.55,1.55,0,0,1,28,50.34Z"/><path class="cls-4" d="M27.76,49.57c-.11-.27.73-1.06.73-1.06l-1.09-.65c.16-.27,1.42.49,1.42.49,0,.24-1,1.17-1,1.17A.12.12,0,0,1,27.76,49.57Z"/><path class="cls-4" d="M32.55,58.73a2.06,2.06,0,0,1-.63-.1A4.73,4.73,0,0,1,30,57.27a9.73,9.73,0,0,1-1.65-2.6c.72.86,1.26,1.71,1.88,2.4A4.47,4.47,0,0,0,32,58.34a1.37,1.37,0,0,0,1.13-.06c1-.58.64-1.54.26-2.55a5.23,5.23,0,0,1-.35-1.26s0-.08-.15-2c.31,0,.46,1.95.46,2a4.76,4.76,0,0,0,.33,1.17c.36,1,.81,2.21-.39,2.92A1.48,1.48,0,0,1,32.55,58.73Z"/><path class="cls-4" d="M28.42,54.6c-.15-.15-.19-4.45-.19-4.45.3,0,.34,4.3.34,4.3Z"/><path class="cls-4" d="M43.15,90c-.24-2-.3-3.86-.36-5.65-.08-2.59-.16-5.28-.33-8a56.43,56.43,0,0,1,.64,8c.06,1.79.12,3.64.2,5.5Z"/><path class="cls-4" d="M42.05,69a87.36,87.36,0,0,0-1.87-10.3,8.54,8.54,0,0,0-.78-2.14c-1.12-1.91-3.44-1.92-5.49-1.93h-.7a.74.74,0,0,1,.7-.3c2.13,0,4.55,0,5.75,2.08a8.62,8.62,0,0,1,.81,2.23,65.56,65.56,0,0,1,1.74,10.2C42.06,69,42.06,69,42.05,69Z"/><path class="cls-4" d="M34.15,48.78a5,5,0,0,0-.09-1.32,1.77,1.77,0,0,0-.73.24,9.46,9.46,0,0,1-.61-2.21c.3-.05.65,1.85.65,1.85.3-.14.68-.27.87-.12s.14,1.09.06,1.45A.15.15,0,0,1,34.15,48.78Z"/><path class="cls-4" d="M18.1,62c-.13,0-.18-.12-.15-.2,1-3,2.23-5,3.63-5.89a11.44,11.44,0,0,1,6.66-1.62,13.73,13.73,0,0,0-6.5,1.88c-1.33.82-2.51,2.74-3.5,5.73A.15.15,0,0,1,18.1,62Z"/><path class="cls-4" d="M11.37,90c.34-2.55.81-4.83,1.27-7a54,54,0,0,1-1.12,6.84A.15.15,0,0,1,11.37,90Z"/><path class="cls-4" d="M23.76,90c.2-1.86.5-3.51.79-5.37a24.18,24.18,0,0,1-.64,5.25A.15.15,0,0,1,23.76,90Z"/><path class="cls-4" d="M28.24,51c-2.58-.24-4.35-3-4.21-6.54a3.85,3.85,0,0,1,1.22-2.92,4.19,4.19,0,0,1,3-.86c.46-.2,4.51-1.83,5.89.28a4.13,4.13,0,0,1,.67,3.15,11.13,11.13,0,0,0-.9-1.2,7.87,7.87,0,0,1-5,4.34,8.44,8.44,0,0,0,4.79-4.66c.26-.05.61.22.87.76a4.18,4.18,0,0,0-.7-2.22c-1.29-2-5.5-.17-5.54-.16a4.25,4.25,0,0,0-2.85.81,3.55,3.55,0,0,0-1.12,2.7c-.13,3.37,1.52,6,3.92,6.22C28.38,51,28.31,51,28.24,51Z"/><path class="cls-4" d="M112.83,54.92a1.85,1.85,0,0,1,.74-1.11c3.4-2.93,6.55-3.42,9.34-3.85l.71-.12a.79.79,0,0,1-.67.42c-2.74.43-5.85.91-9.18,3.78a5.3,5.3,0,0,0-.82.82A.16.16,0,0,1,112.83,54.92Z"/><path class="cls-4" d="M125.48,59.2c-.15-.12-2-9.07-2-9.07s2.64-2.39,2.64-2.39c.23,0,3.15,4.36,3.15,4.36l2.82-4.32a25.09,25.09,0,0,1,2.84,1.94c.06.15-1.46,7.54-1.46,7.54-.29-.06,1.2-7.35,1.2-7.35l-2.42-1.83-2.8,4.3L132.58,58c-.27.15-3.3-5.35-3.3-5.35l-3.66,6.43A.16.16,0,0,1,125.48,59.2Zm-1.67-9,1.74,8.46,3.55-6.24-2.9-4.29Z"/><path class="cls-4" d="M128.22,57.92a20.63,20.63,0,0,1-1-2.13c.28-.12,1.09,1.82,1.09,1.82h2.09l.62-1.85c.29.09-.37,2.05-.37,2.05a19.18,19.18,0,0,1-2.44.11Z"/><path class="cls-4" d="M132.23,48c-.16-.14-.45-6-.45-6,.3,0,.6,5.86.6,5.86Z"/><path class="cls-4" d="M126.23,48a14.41,14.41,0,0,1-.12-2.48c.3,0,.27,2.33.27,2.33A.15.15,0,0,1,126.23,48Z"/><path class="cls-4" d="M127.3,64.11c-.15-.17.77-6.36.77-6.36.3,0-.61,6.23-.61,6.23A.16.16,0,0,1,127.3,64.11Z"/><path class="cls-4" d="M131,61.73c-.15-.13-.61-3.95-.61-3.95.3,0,.76,3.78.76,3.78C131,61.73,131,61.73,131,61.73Z"/><path class="cls-4" d="M127.6,65.87c-.15-.13-1.74-7.72-1.74-7.72.3-.06,1.89,7.53,1.89,7.53C127.62,65.87,127.61,65.87,127.6,65.87Z"/><path class="cls-4" d="M129.36,90.15c-.15-.15-.21-11.55-.21-11.55.3,0,.36,11.39.36,11.39Z"/><path class="cls-4" d="M95.2,90c-.13,0-.17-.12-.14-.2.7-2.09,1-7.49,1.2-10.39.13,2.93-.2,8.36-.91,10.48A.15.15,0,0,1,95.2,90Z"/><path class="cls-4" d="M33.16,50.3a1,1,0,0,1-.48-.11A1.43,1.43,0,0,1,32,49.3c.3-.07.42.43.79.62a1,1,0,0,0,.84,0C33.56,50.26,33.35,50.3,33.16,50.3Z"/><path class="cls-4" d="M126.61,45.69a2.35,2.35,0,0,1-2.19-.9,5.17,5.17,0,0,1-.55-2.84c0-.21,0-.42,0-.61,0-.65.08-4.59.08-4.75.31,0,.21,4.1.23,4.74,0,.2,0,.4,0,.61a4.87,4.87,0,0,0,.49,2.68c.52.79,1.44.78,2.33.76h.34a8.55,8.55,0,0,0,1.94-.19,2,2,0,0,0,1.36-.69,3.25,3.25,0,0,0,.43-1.69,6.88,6.88,0,0,0,0-1c-.1-.84-.25-2.13-.25-2.13a1.93,1.93,0,0,1,.61-.91,2,2,0,1,1,.05,3.13,2.45,2.45,0,0,0,2.29-.28A1.69,1.69,0,1,0,131.6,39a1.62,1.62,0,0,0-.49.67c0,.22.15,1.34.24,2.09a6.31,6.31,0,0,1,0,1.08,3.64,3.64,0,0,1-.49,1.85,2.31,2.31,0,0,1-1.55.82,9.65,9.65,0,0,1-2,.2h-.73Z"/><path class="cls-4" d="M124.13,38c-.14-.22.23-1,1.32-.7a1.36,1.36,0,0,0-1.18.61A.15.15,0,0,1,124.13,38Z"/><path class="cls-4" d="M129.4,38.08c-.83-1-1.54-.54-1.57-.52-.16-.26.8-.86,1.69.27C129.46,38.07,129.43,38.08,129.4,38.08Z"/><path class="cls-4" d="M133.26,41.39c-.07,0-1.5-.73-1.5-.73,0-.24,1.26-1.57,1.26-1.57.22.21-.94,1.39-.94,1.39l1.25.62C133.37,41.36,133.32,41.39,133.26,41.39Z"/><path class="cls-4" d="M129.34,34.06c-.12-.25.63-1.18.63-1.18.24.19-.51,1.12-.51,1.12A.16.16,0,0,1,129.34,34.06Z"/><path class="cls-4" d="M127.23,41.49c.34-.69,1.16-.61,1.82-.55a2.45,2.45,0,0,0,.66,0,4.27,4.27,0,0,0,.51-2.09l.11-.46a6,6,0,0,1-1.45-3.19,5.78,5.78,0,0,1-5.17,1.32,6.21,6.21,0,0,0,5.18-1.76c.27.12.35,2,1.72,3.48a2.42,2.42,0,0,1-.09.66c-.05.64-.23,2.21-.73,2.34a2.49,2.49,0,0,1-.77,0c-.57-.05-1.34-.12-1.68.21A.15.15,0,0,1,127.23,41.49Z"/><path class="cls-4" d="M124,41.9a1,1,0,0,1,1.12-.42c-.11.28-.6.12-1,.4Z"/><path class="cls-4" d="M151.41,90H1.5c0-.31,149.91-.31,149.91-.31C151.56,90,151.49,90,151.41,90Z"/><path class="cls-4" d="M105.39,51.87a1.76,1.76,0,0,1-.64-.11,1.91,1.91,0,0,1-.86-.67,4.56,4.56,0,0,1,1,.38,1.51,1.51,0,0,0,1.91-2,1.53,1.53,0,0,0-.85-.79,1.49,1.49,0,0,0-1.45.22,1.16,1.16,0,0,1,1.56-.5,1.8,1.8,0,0,1,1.06,2.34A1.82,1.82,0,0,1,105.39,51.87Z"/><path class="cls-4" d="M105.51,51.06a13.12,13.12,0,0,1-.93-1.17c.08-.24,1.46-.64,1.46-.64.09.3-1.08.63-1.08.63l.68.94C105.58,51.05,105.55,51.06,105.51,51.06Z"/><path class="cls-4" d="M118.31,90A55.15,55.15,0,0,1,118,78.71c.18-2.71.2-6.22.08-10.76a66.69,66.69,0,0,1,.22,10.78,78.19,78.19,0,0,0,.14,11.12C118.32,90,118.32,90,118.31,90Z"/><path class="cls-4" d="M103.08,54.36a2.55,2.55,0,0,1-2-1,3.43,3.43,0,0,1-.26-2.6l1.2-4.91c.3.08-.91,5-.91,5a3.19,3.19,0,0,0,.23,2.35,2.17,2.17,0,0,0,1.73.87C103.23,54.3,103.16,54.36,103.08,54.36Z"/><path class="cls-4" d="M100.84,50.09c-.59-.14-.78-.47-.69-.79l.79-2.82a.6.6,0,0,1,.74-.42.73.73,0,0,1,.48.32.57.57,0,0,1,0,.46l-.79,2.81A.59.59,0,0,1,100.84,50.09Zm-.08-.32a.3.3,0,0,0,.37-.2l.79-2.82c-.47-.44-.64-.34-.68-.19l-.79,2.82a.28.28,0,0,0,.2.36Z"/><path class="cls-4" d="M114.77,69.52a9.38,9.38,0,0,1-2.76-.47,4.77,4.77,0,0,1-2.25-1.25,4.53,4.53,0,0,1-.75-3.71c0-.41.13-.81.21-1.2a15.7,15.7,0,0,0,.28-2.06,2.32,2.32,0,0,0-.23-1.24,3,3,0,0,0-2-1.07l-.47-.09a7,7,0,0,1-1.41-.38,4.28,4.28,0,0,1-2.5-3.79,3.3,3.3,0,0,1,1.91-2.67c-.71.75-1.63,1.63-1.61,2.67a4,4,0,0,0,2.31,3.51,7,7,0,0,0,1.36.36l.47.09a3.26,3.26,0,0,1,2.16,1.22,2.58,2.58,0,0,1,.26,1.41,14.4,14.4,0,0,1-.28,2.09c-.08.39-.15.79-.21,1.19A4.28,4.28,0,0,0,110,67.6a4.54,4.54,0,0,0,2.11,1.16,9.13,9.13,0,0,0,2.67.45,4.71,4.71,0,0,0,4.74-4.89,8.73,8.73,0,0,0-3.67-7.21c-.34-.21-.71-.4-1.06-.59a6.06,6.06,0,0,1-2.42-1.81c-1-1.41-.56-3-.16-4.47.14-.54.27-1.05.35-1.56.64-4.47-1.53-5.62-2.87-5.9a19.37,19.37,0,0,0-3.19.29c-2.17-.88-3.26-.31-3.42-.22a4.54,4.54,0,0,0-.68,3.31,3.7,3.7,0,0,0,2.29,2.28,3.14,3.14,0,0,1-2.59-2.2,4.82,4.82,0,0,1,.75-3.59c.08-.07,1.25-.87,3.65.11a20.35,20.35,0,0,1,3.25-.28c1.45.31,3.78,1.53,3.11,6.24a15.33,15.33,0,0,1-.36,1.6c-.37,1.44-.76,2.92.12,4.22a5.85,5.85,0,0,0,2.31,1.71c.36.19.73.39,1.08.6a9,9,0,0,1,3.81,7.47,5,5,0,0,1-5,5.2Z"/><path class="cls-4" d="M80.76,65.87h-4a2.77,2.77,0,0,1-2.66-2L68.16,42.43a2.69,2.69,0,0,1,.46-2.4,2.76,2.76,0,0,1,2.2-1.09h33a2.76,2.76,0,0,1,2.66,2l.51,1.82c-.29.09-.81-1.74-.81-1.74a2.45,2.45,0,0,0-2.36-1.8h-33a2.46,2.46,0,0,0-2,1,2.42,2.42,0,0,0-.41,2.14l5.92,21.41a2.47,2.47,0,0,0,2.37,1.8h4C80.91,65.8,80.84,65.87,80.76,65.87Z"/><path class="cls-4" d="M97.05,65.87H91.56c0-.31,5.49-.31,5.49-.31C97.2,65.8,97.13,65.87,97.05,65.87Z"/><path class="cls-4" d="M104.14,42.55a1.63,1.63,0,0,0-1.56-1.1h-1.72c0-.3,1.72-.3,1.72-.3a1.65,1.65,0,0,1,1.7,1.2C104.16,42.54,104.15,42.55,104.14,42.55Z"/><path class="cls-4" d="M80.26,63.66H78.39A2.32,2.32,0,0,1,76.16,62L70.88,42.86a1.34,1.34,0,0,1,1.3-1.71h23.4c0,.3-23.4.3-23.4.3a1.06,1.06,0,0,0-1,1.33l5.29,19.11a2,2,0,0,0,1.93,1.46h1.87C80.41,63.59,80.34,63.66,80.26,63.66Z"/><path class="cls-4" d="M98,63.66h-7.2c0-.31,7.2-.31,7.2-.31C98.1,63.59,98,63.66,98,63.66Z"/><path class="cls-4" d="M85.32,45.35H76.45c0-.3,8.87-.3,8.87-.3C85.47,45.28,85.4,45.35,85.32,45.35Z"/><path class="cls-4" d="M85.89,47.28H82.37c0-.3,3.52-.3,3.52-.3C86,47.21,86,47.28,85.89,47.28Z"/><path class="cls-4" d="M80.65,47.28H77c0-.3,3.63-.3,3.63-.3C80.8,47.21,80.74,47.28,80.65,47.28Z"/><path class="cls-4" d="M100.87,45.35H92c0-.3,8.86-.3,8.86-.3C101,45.28,101,45.35,100.87,45.35Z"/><path class="cls-4" d="M100.92,47.28H92.58c0-.3,8.34-.3,8.34-.3C101.07,47.21,101,47.28,100.92,47.28Z"/><path class="cls-4" d="M87.38,51.16H83.77c0-.31,3.61-.31,3.61-.31C87.53,51.09,87.47,51.16,87.38,51.16Z"/><path class="cls-4" d="M81.68,51.16H78.52c0-.31,3.16-.31,3.16-.31C81.84,51.09,81.77,51.16,81.68,51.16Z"/><path class="cls-4" d="M86.21,53.09H84.47c0-.31,1.74-.31,1.74-.31C86.36,53,86.29,53.09,86.21,53.09Z"/><path class="cls-4" d="M79.39,53.09h-.3a.3.3,0,0,1,.3-.31C79.54,53,79.48,53.09,79.39,53.09Z"/><path class="cls-4" d="M100.87,51.16h-6.8c0-.31,6.8-.31,6.8-.31C101,51.09,101,51.16,100.87,51.16Z"/><path class="cls-4" d="M101,53.09H94.64c0-.31,6.39-.31,6.39-.31C101.19,53,101.12,53.09,101,53.09Z"/><path class="cls-4" d="M89.41,57h-.77c0-.31.77-.31.77-.31C89.56,56.9,89.5,57,89.41,57Z"/><path class="cls-4" d="M90,58.9h-.7c0-.31.7-.31.7-.31C90.13,58.83,90.06,58.9,90,58.9Z"/><path class="cls-4" d="M104,57H96.1c0-.31,7.92-.31,7.92-.31C104.17,56.9,104.1,57,104,57Z"/><path class="cls-4" d="M100.82,58.9H96.67c0-.31,4.15-.31,4.15-.31C101,58.83,100.91,58.9,100.82,58.9Z"/><path class="cls-4" d="M24.17,43.38c-1.79-.45-2.41-2.33-2.23-3.88a3.62,3.62,0,0,1,3.52-3.43,3.13,3.13,0,0,1,2.64,1,4.84,4.84,0,0,1,.68,3.66c-.3-.08.13-2.23-.91-3.47a2.8,2.8,0,0,0-2.4-.88,3.32,3.32,0,0,0-3.23,3.16c-.16,1.42.39,3.13,2,3.54C24.3,43.34,24.24,43.38,24.17,43.38Z"/><path class="cls-4" d="M14.49,59.2A42.31,42.31,0,0,1,28.3,52.48a61.42,61.42,0,0,0-13.72,6.69Z"/><path class="cls-4" d="M35.37,51.12a6.64,6.64,0,0,1,2.43-.66,7.6,7.6,0,0,1-2.4.66Z"/><path class="cls-4" d="M14.57,36.84a42.94,42.94,0,0,1,14.71-7l.58-.16a.61.61,0,0,1-.5.46,49.76,49.76,0,0,0-14.71,6.64A.11.11,0,0,1,14.57,36.84Z"/><path class="cls-4" d="M34.54,29a10.1,10.1,0,0,1,3.26-.79,16,16,0,0,1-3.23.78Z"/><path class="cls-4" d="M53.06,59.21c-.16-.16,0-6,0-6,.62-.51,1.16-.91,1.67-1.32l.1-22c.21-.14,1.24.31,1.57.47,3.24,1.51,5.37,3.81,6.16,6.63,1.32,4.69-1.49,10.22-7.55,15-.57.45-1.1.84-1.65,1.23l-.15,5.75A.15.15,0,0,1,53.06,59.21Zm2.07-29L55,51.66c5.81-4.7,8.49-10,7.23-14.53-.77-2.74-2.84-5-6-6.45C56,30.57,55.45,30.31,55.13,30.18Z"/><path class="cls-4" d="M52.6,76.11c-.15-.15.3-17.06.3-17.06.31,0-.15,16.92-.15,16.92A.15.15,0,0,1,52.6,76.11Z"/><path class="cls-4" d="M52.6,76.11c6-4.41,9.68-9.36,10-13.85,0-.19,0-6.27,0-6.27.31,0,.31,6.08.31,6.08-.29,4.79-4,9.83-10.19,14A.11.11,0,0,1,52.6,76.11Z"/><path class="cls-4" d="M62.72,52.59c-.16-.15-.16-13.72-.16-13.72.3,0,.31,13.57.31,13.57A.15.15,0,0,1,62.72,52.59Z"/><path class="cls-4" d="M37.82,82.8c-.15-.16-.09-5-.09-5,.31,0,.24,4.87.24,4.87A.15.15,0,0,1,37.82,82.8Z"/><path class="cls-4" d="M38,70c-.15-.15,0-9.73,0-9.73.31,0,.19,9.58.19,9.58A.16.16,0,0,1,38,70Z"/><path class="cls-4" d="M23.75,62.5A30.25,30.25,0,0,1,10.87,60c6.57,2.82,16.83,3,26.91.17l.28-.08a.28.28,0,0,1-.2.37A52.77,52.77,0,0,1,23.75,62.5Z"/><path class="cls-4" d="M6.7,57a8.45,8.45,0,0,1-2.12-3.65A8.6,8.6,0,0,1,4.26,51a20.29,20.29,0,0,1,.61,2.24A8.7,8.7,0,0,0,6.81,56.7C6.77,56.94,6.73,57,6.7,57Z"/><path class="cls-4" d="M23.75,69a40.24,40.24,0,0,1-5.24-.34,65.63,65.63,0,0,0,10.83-.31A20.46,20.46,0,0,1,23.75,69Z"/><path class="cls-4" d="M23.75,71.56a39.33,39.33,0,0,1-5.52-.38,64.58,64.58,0,0,0,11.11-.27A20.46,20.46,0,0,1,23.75,71.56Z"/><path class="cls-4" d="M23.76,84.83a36.85,36.85,0,0,1-7.61-.75C9.84,82.73,5.73,79.73,4.58,75.62a8.67,8.67,0,0,1-.32-2.1V58.23c.3,0,.3,15.28.3,15.28a8.67,8.67,0,0,0,.31,2c1.12,4,5.15,6.92,11.34,8.24s13.89.87,21.57-1.28A43,43,0,0,1,23.76,84.83Z"/><path class="cls-4" d="M4.41,58.38c-.15-.15-.15-7.12-.15-7.12.3,0,.3,7,.3,7A.15.15,0,0,1,4.41,58.38Z"/><path class="cls-4" d="M14.57,59.2c-.16-.16-.16-22.52-.16-22.52.31,0,.31,22.36.31,22.36A.16.16,0,0,1,14.57,59.2Z"/><path class="cls-4" d="M37.82,50.77c-.15-.15-.15-22.44-.15-22.44.3,0,.3,22.29.3,22.29A.15.15,0,0,1,37.82,50.77Z"/><path class="cls-4" d="M55.4,62.11c1.17-1.26,3-2.81,4.64-4.66a21.06,21.06,0,0,1-4.55,4.63A.14.14,0,0,1,55.4,62.11Z"/><path class="cls-4" d="M43,80.42c5.44-.3,8.43-10.57,9.74-16.73C51.75,70,48.69,80.42,43,80.42Z"/><path class="cls-4" d="M41.45,64.22c-.14-.21,3.4-7.84,3.4-7.84.27.13-3.26,7.76-3.26,7.76A.16.16,0,0,1,41.45,64.22Z"/><path class="cls-4" d="M51.38,59.87a11.1,11.1,0,0,0,1.56-2,2.8,2.8,0,0,1-1.48,2A.11.11,0,0,1,51.38,59.87Z"/><path class="cls-4" d="M30.39,71.18c.08-.32,9.56-1.12,13.59-3.35C40,70.36,30.5,71.17,30.4,71.18Z"/><path class="cls-4" d="M30.39,78.91C30.47,78.6,40,77.79,44,75.57,40,78.09,30.5,78.9,30.4,78.91Z"/><path class="cls-4" d="M30.39,78.94c-.15-.16-.15-7.92-.15-7.92.3,0,.3,7.76.3,7.76A.16.16,0,0,1,30.39,78.94Z"/><path class="cls-4" d="M44.06,75.87C43.9,75.71,43.9,68,43.9,68c.31,0,.31,7.75.31,7.75A.16.16,0,0,1,44.06,75.87Z"/><path class="cls-4" d="M124,39a8.45,8.45,0,0,1-1.11-2.66c0-.12.21-3.06,2.82-4a5,5,0,0,1,4.3.46c.44-.13,2.65-.68,3.51,1.22a7.5,7.5,0,0,1,.24,4.5c-.29-.1.34-2.46-.52-4.38s-3.11-1.06-3.2-1a5.26,5.26,0,0,0-4.23-.48,4.37,4.37,0,0,0-2.62,3.73,10.59,10.59,0,0,0,1,2.42C124.06,39,124,39,124,39Z"/><path class="cls-4" d="M10.77,53.84c-.15-.15-.15-6.84-.15-6.84a25.32,25.32,0,0,1,3.81-1.94c.09.29-2.34,1.3-3.51,2v6.33a35.13,35.13,0,0,1,3.51-1.68c.09.29-2.44,1.35-3.57,2.08Z"/><path class="cls-4" d="M47.29,37.69c-.15-.15-.15-5.81-.15-5.81,5.45.12,7.74,1.55,7.84,1.61-.19.24-2.45-1.16-7.54-1.45v5.5A.15.15,0,0,1,47.29,37.69Z"/><path class="cls-4" d="M54.9,39.43c-.11,0-2.42-1.47-7.62-1.74,5.31,0,7.6,1.4,7.7,1.46C55,39.4,55,39.43,54.9,39.43Z"/><path class="cls-4" d="M126.38,42a1.53,1.53,0,0,1-.86-.21.86.86,0,0,1-.37-.59,1.47,1.47,0,0,1,.35-1,3.81,3.81,0,0,0,.62-1,1.38,1.38,0,0,0-.13-1.31c.26-.16.77.52.42,1.42a4.37,4.37,0,0,1-.67,1.08,1.17,1.17,0,0,0-.29.8.56.56,0,0,0,.25.39,1.29,1.29,0,0,0,.68.16C126.53,41.91,126.46,42,126.38,42Z"/><path class="cls-4" d="M76.13,34.22a14.26,14.26,0,0,1-13.83-11A14.59,14.59,0,0,0,76.13,33.92a13.87,13.87,0,1,0-11.88-21,13.19,13.19,0,0,1,11.88-7,14.17,14.17,0,1,1,0,28.34Z"/><path class="cls-4" d="M73.5,26.69a1.83,1.83,0,0,1-1.29-.53l-4.69-4.69a1.83,1.83,0,0,1,0-2.58l.64-.64a1.83,1.83,0,0,1,1.29-.53,1.79,1.79,0,0,1,1.28.53L73.5,21l7.73-7.5a1.82,1.82,0,0,1,2.57,0l.65.64a1.84,1.84,0,0,1,0,2.57l-9.67,9.43A1.81,1.81,0,0,1,73.5,26.69Zm-4-8.66a1.48,1.48,0,0,0-1.07.44l-.64.64a1.51,1.51,0,0,0-.45,1.07,1.49,1.49,0,0,0,.45,1.07l4.69,4.69a1.5,1.5,0,0,0,2.14,0l9.66-9.42a1.51,1.51,0,0,0,0-2.14l-.64-.64a1.51,1.51,0,0,0-1.07-.45,1.47,1.47,0,0,0-1.07.45l-7.84,7.6a39.59,39.59,0,0,1-3.09-2.87A1.5,1.5,0,0,0,69.45,18Z"/><path class="cls-4" d="M24.7,29.07a4,4,0,0,1-.37-1.89c.36,1.05.52,1.7.52,1.7C24.73,29.07,24.72,29.07,24.7,29.07Zm-.2-3.5a5.45,5.45,0,0,1,.07-1.92,4.49,4.49,0,0,1,.08,1.78A.15.15,0,0,1,24.5,25.57Zm.64-3.45c-.13,0-.18-.12-.15-.2a17.55,17.55,0,0,1,.6-1.67A4.41,4.41,0,0,1,25.28,22,.16.16,0,0,1,25.14,22.12Zm1.37-3.23a4.31,4.31,0,0,1,.8-1.74,4.4,4.4,0,0,1-.67,1.66A.16.16,0,0,1,26.51,18.89Zm2-2.89a4.11,4.11,0,0,1,1.09-1.55,4.25,4.25,0,0,1-1,1.5A.16.16,0,0,1,28.51,16ZM31,13.53a4,4,0,0,1,1.3-1.36,4.26,4.26,0,0,1-1.2,1.32A.13.13,0,0,1,31,13.53Zm2.84-2.07a3.88,3.88,0,0,1,1.44-1.18,4.24,4.24,0,0,1-1.36,1.16ZM62,11.26c-.54-.34-1-.65-1.57-.95a3.23,3.23,0,0,1,1.66.67C62.13,11.24,62.08,11.26,62,11.26ZM36.91,9.76a3.7,3.7,0,0,1,1.55-1,4,4,0,0,1-1.48,1ZM59,9.51c-.58-.26-1.12-.5-1.67-.71a3.17,3.17,0,0,1,1.74.42C59.09,9.48,59,9.51,59,9.51ZM40.16,8.41a3.54,3.54,0,0,1,1.65-.81,4.33,4.33,0,0,1-1.6.81Zm15.55-.2c-.6-.18-1.16-.34-1.73-.48a3.14,3.14,0,0,1,1.78.19C55.84,8.17,55.78,8.21,55.71,8.21ZM43.56,7.5a3.31,3.31,0,0,1,1.71-.58,4.21,4.21,0,0,1-1.69.58Zm8.74-.12c-.6-.1-1.18-.18-1.76-.23a3.1,3.1,0,0,1,1.78-.07C52.44,7.33,52.37,7.38,52.3,7.38ZM47,7.07a3.17,3.17,0,0,1,1.76-.33,4.18,4.18,0,0,1-1.75.33Z"/><path class="cls-4" d="M143.84,48.78c-.12-.24.21-.7.68-1.5a4,4,0,0,1-.56,1.44A.16.16,0,0,1,143.84,48.78ZM145.47,46a7.77,7.77,0,0,1,.56-1.83,3.19,3.19,0,0,1-.42,1.74A.17.17,0,0,1,145.47,46Zm1.28-3.28c-.12,0-.17-.11-.14-.19.17-.56.32-1.13.45-1.69a3.16,3.16,0,0,1-.16,1.78A.15.15,0,0,1,146.75,42.67Zm.78-3.42a10.84,10.84,0,0,1,0-1.92,3,3,0,0,1,.12,1.78A.15.15,0,0,1,147.53,39.25Zm.21-3.51a17.84,17.84,0,0,1-.27-1.89,3.1,3.1,0,0,1,.43,1.73Zm-.38-3.49a18.28,18.28,0,0,1-.57-1.82,3.09,3.09,0,0,1,.71,1.63C147.38,32.25,147.37,32.25,147.36,32.25Zm-29.63-2.79a1.87,1.87,0,0,1-1.09-.36,3.32,3.32,0,0,0,1.7-.07A.56.56,0,0,1,117.73,29.46Zm28.63-.58c-.34-.63-.58-1.17-.84-1.7a3.14,3.14,0,0,1,1,1.49C146.4,28.87,146.38,28.88,146.36,28.88Zm-26.62-.66a14.91,14.91,0,0,1,.76-1.72,2.43,2.43,0,0,1-.64,1.66A.16.16,0,0,1,119.74,28.22Zm-4.09-.46A4.52,4.52,0,0,1,115,26a9.43,9.43,0,0,1,.79,1.6C115.69,27.76,115.67,27.76,115.65,27.76Zm29.18-2c-.41-.57-.73-1.07-1.06-1.56A3.14,3.14,0,0,1,145,25.49C144.89,25.71,144.86,25.72,144.83,25.72ZM121.18,25c0-.73,0-1.31.06-1.9a2.68,2.68,0,0,1,.09,1.78A.15.15,0,0,1,121.18,25Zm-6.09-.71a3.9,3.9,0,0,1,.23-1.92,7,7,0,0,1-.08,1.78A.15.15,0,0,1,115.09,24.33Zm27.76-1.51c-.49-.52-.87-1-1.27-1.38A3.09,3.09,0,0,1,143,22.57C142.92,22.81,142.88,22.82,142.85,22.82Zm-21.53-1.28c-.22-.7-.33-1.27-.48-1.84a2.86,2.86,0,0,1,.63,1.67A1.08,1.08,0,0,1,121.32,21.54Zm-5-.48a3,3,0,0,1,1.11-1.55,8.21,8.21,0,0,1-1,1.49A.14.14,0,0,1,116.27,21.06Zm24.15-.78c-.54-.42-1-.78-1.47-1.11a2.94,2.94,0,0,1,1.57.84C140.51,20.26,140.46,20.28,140.42,20.28ZM119,18.87a2.72,2.72,0,0,1,1.27-.93c-.21-.49-.45-1-.71-1.45a2.61,2.61,0,0,1,1,1.33,4.32,4.32,0,0,1-1.48,1Zm18.58-.6c-.58-.3-1.11-.56-1.65-.78a2.87,2.87,0,0,1,1.72.49C137.65,18.24,137.6,18.27,137.55,18.27ZM122.2,17.5a3.54,3.54,0,0,1,1.65-.81,4.16,4.16,0,0,1-1.6.8Zm12.1-.58c-.59-.17-1.16-.3-1.73-.41a3,3,0,0,1,1.78.11C134.43,16.87,134.37,16.92,134.3,16.92Zm-8.7-.32a3.3,3.3,0,0,1,1.72-.56,4.07,4.07,0,0,1-1.69.56Zm5.25-.31c-.58,0-1.18-.06-1.75-.05a3,3,0,0,1,1.76-.25C131,16.23,130.93,16.29,130.85,16.29Zm-12.13-1.2c-.46-.53-.82-1-1.21-1.43a3,3,0,0,1,1.33,1.19C118.78,15.08,118.75,15.09,118.72,15.09Zm-2.33-2.63c-.52-.43-1-.81-1.43-1.17a3.06,3.06,0,0,1,1.54.9C116.48,12.44,116.43,12.46,116.39,12.46Zm-2.76-2.16c-.56-.34-1.07-.64-1.58-.93a3.17,3.17,0,0,1,1.66.64C113.72,10.27,113.67,10.3,113.63,10.3ZM92,8.67c-.07-.29.47-.69,1.47-1.15-.84.73-1.38,1.11-1.38,1.12A.16.16,0,0,1,92,8.67Zm18.54-.08c-.59-.26-1.13-.5-1.67-.71a3.21,3.21,0,0,1,1.74.42C110.67,8.56,110.61,8.59,110.55,8.59ZM107.28,7.3c-.6-.18-1.17-.34-1.73-.47a3.15,3.15,0,0,1,1.78.17C107.41,7.26,107.35,7.3,107.28,7.3Zm-12.1-.14a3.24,3.24,0,0,1,1.66-.77,4.64,4.64,0,0,1-1.61.76Zm8.68-.66c-.6-.09-1.18-.16-1.75-.2a3.11,3.11,0,0,1,1.78-.11C104,6.44,103.94,6.5,103.86,6.5Zm-5.25-.11A3.16,3.16,0,0,1,100.36,6a4.5,4.5,0,0,1-1.74.43Z"/><path class="cls-4" d="M130,32.94c-.12,0-.17-.11-.15-.19a1.27,1.27,0,0,0-.55-1.17c1,.48.85,1.22.84,1.25A.14.14,0,0,1,130,32.94Z"/><path class="cls-4" d="M130.37,33.05a1.17,1.17,0,0,1,.19-1.16c0,.52,0,1,0,1A.15.15,0,0,1,130.37,33.05Z"/><path class="cls-4" d="M138.12,82.54,124.49,76.7c-.08-.2,1.91-4.84,1.91-4.84.28.12-1.65,4.62-1.65,4.62L138,82.18l.12-.28c.28.12.1.54.1.54A.16.16,0,0,1,138.12,82.54Z"/><path class="cls-4" d="M142.51,72.3c-.14-.21,3.78-9.35,3.78-9.35L133,57.25l-4.14,9.65c-.28-.12,3.93-9.91,3.93-9.91.2-.08,13.76,5.74,13.76,5.74.08.2-3.9,9.48-3.9,9.48A.16.16,0,0,1,142.51,72.3Z"/><path class="cls-4" d="M143.77,90c0-2.33-.16-5.74-.16-5.77.31,0,.47,3.45.31,5.63A.15.15,0,0,1,143.77,90Z"/><path class="cls-4" d="M82.52,82.64h-5c-.14-.11-2-6.72-2-6.72.15-.2,7.22-.2,7.22-.2s1.42,4.7,1.42,4.7C83.84,80.5,82.6,76,82.6,76H75.85l1.75,6.3h4.92C82.67,82.57,82.6,82.64,82.52,82.64Z"/><path class="cls-3" d="M16.29,66.88v5.06a9.26,9.26,0,0,1-5.35-1.74V65S12.47,66.46,16.29,66.88Z"/><path class="cls-4" d="M55.51,65.19a37.91,37.91,0,0,1,2.8-2.6,10.57,10.57,0,0,1-2.71,2.57A.16.16,0,0,1,55.51,65.19Z"/><path class="cls-4" d="M98.24,78.59A5.16,5.16,0,0,0,93,75.08a5.26,5.26,0,0,0-5,3.18c.43-2.13,2.56-3.49,5-3.49,2.71,0,4.87,1.46,5.39,3.63C98.27,78.58,98.25,78.59,98.24,78.59Z"/></svg>