<svg id="Layer_1" data-name="Layer 1" xmlns="http://www.w3.org/2000/svg" viewBox="0 0 100 100"><defs><style>.cls-1{fill:none;stroke:#a3c9a8;stroke-linecap:round;stroke-miterlimit:10;stroke-width:5px;}.cls-2{fill:#ba727b;}</style></defs><path class="cls-1" d="M4.1,61.1c8.4.2,8.3,4.2,16.7,4.3s8.5-3.8,16.8-3.7,8.3,4.2,16.7,4.3,8.5-3.8,16.8-3.7,8.3,4.2,16.7,4.3"/><path class="cls-1" d="M4.1,46.1c8.4.2,8.3,4.2,16.7,4.3s8.5-3.8,16.8-3.7,8.3,4.2,16.7,4.3,8.5-3.8,16.8-3.7,8.3,4.2,16.7,4.3"/><path class="cls-1" d="M4.1,31.1c8.4.2,8.3,4.2,16.7,4.3s8.5-3.8,16.8-3.7,8.3,4.2,16.7,4.3,8.5-3.8,16.8-3.7,8.3,4.2,16.7,4.3"/><path class="cls-1" d="M4.1,16.1c8.4.2,8.3,4.2,16.7,4.3s8.5-3.8,16.8-3.7,8.3,4.2,16.7,4.3,8.5-3.8,16.8-3.7,8.3,4.2,16.7,4.3"/><path class="cls-2" d="M21.64,31.87V88.71H42.21v6.94H23.86c-5.6,0-9.17-3.58-9.17-9.17V33.9c0-4.64,2.68-8.13,7-8.86a28,28,0,0,1,4.84-.18H80c5.34,0,8.91,3.61,9,9V38.7H82V31.87Z"/><path class="cls-2" d="M97,96c-2.5,2.78-5.28,3.47-8.45,0-2-2.2-4.2-4.27-6.36-6.35-.82-.79-1.65-1.58-2.46-2.38h-.06l.78-5a22.64,22.64,0,0,0,1.79-1.74l5.33-1,.88.93c2.87,3,5.67,6,8.52,8.93C99.1,91.68,99,93.7,97,96Z"/><path class="cls-2" d="M26.81,42.22H49.15v3.33H26.81Z"/><path class="cls-2" d="M38.77,74.9h-12V71.56h12Z"/><path class="cls-2" d="M38.75,59.37H28.54V56H38.75Z"/><path class="cls-2" d="M66.85,91A24.58,24.58,0,1,1,91.43,66.42v0A24.6,24.6,0,0,1,66.85,91Zm0-45.11A20.54,20.54,0,1,0,87.39,66.44,20.55,20.55,0,0,0,66.85,45.89Z"/></svg>