<svg id="Layer_1" data-name="Layer 1" xmlns="http://www.w3.org/2000/svg" viewBox="0 0 500 500"><defs><style>.cls-1{fill:#fc0053;}.cls-2{fill:#c39594;}.cls-3{fill:#f0b8b4;}.cls-4{fill:#313159;}.cls-5,.cls-8,.cls-9{fill:#fff;}.cls-5,.cls-6{opacity:0.2;}.cls-6{fill:#606fb4;}.cls-7{fill:none;stroke:#687faf;stroke-width:3.03px;}.cls-7,.cls-8{stroke-miterlimit:10;}.cls-8{stroke:#fff;stroke-width:1.01px;}</style></defs><path class="cls-1" d="M469.76,348,328.14,396.62,309,403.18l-16.07,5.52-96.08,33-13.69,4.7-18.55,6.36L60.39,488.55a220.83,220.83,0,0,1,83-304.18l.05,0c1.38-.78,2.78-1.54,4.18-2.29q5.49-2.9,11.14-5.5c1.7-.79,3.4-1.55,5.13-2.29A216.8,216.8,0,0,1,190,165h0c1-.3,2-.59,3.07-.86a221.6,221.6,0,0,1,152.1,13.37c1.52.71,3,1.45,4.54,2.2l2.87,1.47h0c1.11.58,2.23,1.17,3.33,1.77s2.14,1.17,3.2,1.77A220.8,220.8,0,0,1,469.76,348Z"/><path class="cls-2" d="M275.35,342.88a7.19,7.19,0,0,1-7.24,7.15H224.62a7.19,7.19,0,0,1-7.24-7.15V279.73a7.19,7.19,0,0,1,7.24-7.15h43.49a7.19,7.19,0,0,1,7.24,7.15Z"/><path class="cls-3" d="M356,179.22q0,3.1-.15,6.15c-3,60.48-49.37,108.54-106.19,108.54S148.23,246.08,145.29,185.59c-.1-2,0-3.62,0-5.67s-.09-3.79,0-5.67C148,113.55,192.68,87.7,249.65,87.7c56.72,0,103.07,24.74,106.17,85.07Q356,176,356,179.22Z"/><path class="cls-4" d="M312.7,11.45s-12.71,50-51.63,50-80.95,12.32-105.25,50.39c-7.95,14.3-23.49,42.12-13,85.05,5.67,18.63,11.95,22.95,6.48-2.43-2.43-9.72.52-30.05,9.75-17.54,3,8,12.51,11.92,8.34,4.77S157,157,162.37,155.22s9.23,2.68,16.68,6.25,20.26,8.64,13.7-9.23c-1.78-5.66-.89-16.38,7.45-9.53s72.68,16.68,97.7-14.9c4.47-4.76,33.36-19.36,31,31.88.6,3.57,7.15,2.08,17.87-10.13,2.39-.3,11.62,3.87-1.78,28.3-1.79,2.08-5.07,6.85,3,2.68,3-1.49,6.89-5,6,21.2,1.79,5.07,1.79,5.07,5.93-21.8,3.88-25.16-6-53-29.19-73.27-9.24-9.24-16.09-12.81-16.09-12.81s-5.66-2.09,1.19-8.34,8.94-22.94,8.94-25c-3.87,5.65-15.79,22.63-18.47,17.87s-2.68-4.77,2.09-18.17S314.09,47.89,312.7,11.45Z"/><polygon class="cls-5" points="334.84 197.52 338.12 203.47 283.9 242.79 276.95 241.14 334.84 197.52"/><polygon class="cls-5" points="303.56 197.52 330.97 197.52 274.37 238.62 274.37 218.07 303.56 197.52"/><polygon class="cls-5" points="221.65 197.52 224.92 203.47 170.71 242.79 163.76 241.14 221.65 197.52"/><polygon class="cls-5" points="190.37 197.52 217.77 197.52 161.18 238.62 161.18 218.07 190.37 197.52"/><rect class="cls-6" x="274.37" y="197.52" width="63.74" height="45.28" rx="7.15"/><rect class="cls-6" x="161.18" y="197.52" width="63.74" height="45.28" rx="7.15"/><rect class="cls-7" x="161.18" y="197.52" width="63.74" height="45.28" rx="5.96"/><rect class="cls-7" x="274.37" y="197.52" width="63.74" height="45.28" rx="5.96"/><line class="cls-7" x1="224.92" y1="220.15" x2="274.37" y2="220.15"/><path class="cls-8" d="M208.24,219.76h0Z"/><path class="cls-8" d="M319.94,219.76h0Z"/><circle class="cls-9" cx="194.54" cy="219.76" r="13.7"/><circle class="cls-9" cx="306.24" cy="219.76" r="13.7"/><circle cx="194.54" cy="219.76" r="5.82"/><circle cx="306.24" cy="219.76" r="5.82"/><path class="cls-4" d="M325.81,332v0c0,1.49-21.91,19.92-28.6,30.15a14.71,14.71,0,0,0-1.58,4.67c-1.72,8.28-2.35,24.68-2.65,41.89l-96.09,33c-.14-15.56-.18-33.57-1.36-49-1-13.31-1.67-20.1-3.52-25.18-3.19-8.7-9.93-12.36-28.25-35.2,11.12-25.41,53.62-25.41,53.62-25.41,5.16,22.63,30.69,40.53,30.69,40.53S265,334,275.35,307v0c42.5,4.77,50.05,23.83,50.45,25h0Z"/><path class="cls-4" d="M192,367.55h0c-15.16,1.53-12,48.48-8.8,78.85l-18.54,6.36c-6.75-41.47-.9-120.41-.9-120.41C187.59,312.1,214.19,365.31,192,367.55Z"/><path class="cls-4" d="M328.17,396.62l-19.12,6.56c-.08-19.18-2.74-35.13-11.48-36a12.17,12.17,0,0,1-1.94-.36c-18.59-5.12,7.09-54.46,30.18-34.85h0v0C325.88,332.84,328.13,363.62,328.17,396.62Z"/></svg>