<?xml version="1.0" encoding="utf-8"?>
<!-- Generator: Adobe Illustrator 26.0.1, SVG Export Plug-In . SVG Version: 6.00 Build 0)  -->
<svg version="1.1" id="Layer_1" xmlns="http://www.w3.org/2000/svg" xmlns:xlink="http://www.w3.org/1999/xlink" x="0px" y="0px"
	 viewBox="0 0 1400 415" style="enable-background:new 0 0 1400 415;" xml:space="preserve">
<style type="text/css">
	.st0{fill:#022E47;}
	.st1{fill:none;stroke:#F2B840;stroke-width:40;}
	.st2{fill:none;stroke:#F2B840;stroke-width:29.2425;}
	.st3{fill:#F2B840;}
	.st4{font-family:'Avenir-Black';}
	.st5{font-size:60px;}
	.st6{fill:none;stroke:#F2B840;stroke-width:0.6965;}
</style>
<rect class="st0" width="1400" height="415"/>
<path class="st1" d="M1306.7-39.6c-29.6-32.8-80.1-35.5-113-5.9L980.9,146.1c-32.8,29.6-35.5,80.1-5.9,113l176.1,195.6
	c29.6,32.8,80.1,35.5,113,5.9l212.8-191.6c32.8-29.6,35.5-80.1,5.9-113L1306.7-39.6z"/>
<path class="st2" d="M97.3,155.4c-21.6-24-58.6-25.9-82.6-4.3l-155.6,140.1c-24,21.6-25.9,58.6-4.3,82.6l128.7,143
	c21.6,24,58.6,25.9,82.6,4.3l155.6-140.1c24-21.6,25.9-58.6,4.3-82.6L97.3,155.4z"/>
<text transform="matrix(1 0 0 1 286.8516 169.2588)"><tspan x="0" y="0" class="st3 st4 st5">Budget Facilitation</tspan><tspan x="0" y="72" class="st3 st4 st5">Presentation</tspan></text>
<path class="st6" d="M107.2-107.2c-14-14.3-36.6-14.3-50.6,0L-83.1,36.1c-14,14.3-14,37.5,0,51.9L56.6,231.2
	c14,14.3,36.6,14.3,50.6,0L246.9,88c14-14.3,14-37.5,0-51.9L107.2-107.2z"/>
</svg>
