<?xml version="1.0" encoding="utf-8"?>
<!-- Generator: Adobe Illustrator 26.0.1, SVG Export Plug-In . SVG Version: 6.00 Build 0)  -->
<svg version="1.1" xmlns="http://www.w3.org/2000/svg" xmlns:xlink="http://www.w3.org/1999/xlink" x="0px" y="0px"
	 viewBox="0 0 1400 415" style="enable-background:new 0 0 1400 415;" xml:space="preserve">
<style type="text/css">
	.st0{fill:#F37677;}
	.st1{fill:none;}
	.st2{fill:#1E4F5C;}
	.st3{font-family:'Poppins-Bold';}
	.st4{font-size:67.0893px;}
	.st5{fill:#1A4F5B;}
</style>
<g id="Layer_1">
	<rect class="st0" width="1400" height="415"/>
	<rect x="116.1" y="97.4" class="st1" width="505.4" height="150.3"/>
	<text transform="matrix(1 0 0 1 116.1499 154.5446)"><tspan x="0" y="0" class="st2 st3 st4">ACT COVID-19 </tspan><tspan x="0" y="80.5" class="st2 st3 st4">UPDATE</tspan></text>
	<g>
		<rect x="732.7" y="404.4" class="st5" width="23.3" height="12.2"/>
		<rect x="758.5" y="367.9" class="st5" width="23.3" height="48.6"/>
		<rect x="784.4" y="404.4" class="st5" width="23.3" height="12.2"/>
		<rect x="810.2" y="380" class="st5" width="23.3" height="36.5"/>
		<rect x="836" y="185.5" class="st5" width="23.3" height="231"/>
		<rect x="861.9" y="209.9" class="st5" width="23.3" height="206.7"/>
		<rect x="887.7" y="149.1" class="st5" width="23.3" height="267.4"/>
		<rect x="913.5" y="222" class="st5" width="23.3" height="194.5"/>
		<rect x="939.4" y="282.8" class="st5" width="23.3" height="133.7"/>
		<rect x="965.2" y="319.3" class="st5" width="23.3" height="97.2"/>
		<rect x="991.1" y="185.5" class="st5" width="23.3" height="231"/>
		<rect x="1016.9" y="222" class="st5" width="23.3" height="194.5"/>
		<rect x="1042.7" y="51.8" class="st5" width="23.3" height="364.7"/>
		<rect x="1068.6" y="307.1" class="st5" width="23.3" height="109.4"/>
		<rect x="1094.4" y="246.3" class="st5" width="23.3" height="170.2"/>
		<rect x="1120.2" y="161.2" class="st5" width="23.3" height="255.3"/>
		<rect x="1146.1" y="100.5" class="st5" width="23.3" height="316.1"/>
		<rect x="1171.9" y="258.5" class="st5" width="23.3" height="158"/>
		<rect x="1197.8" y="270.6" class="st5" width="23.3" height="145.9"/>
		<rect x="1223.6" y="258.5" class="st5" width="23.3" height="158"/>
		<rect x="1249.4" y="136.9" class="st5" width="23.3" height="279.6"/>
		<rect x="1275.3" y="270.6" class="st5" width="23.3" height="145.9"/>
		<rect x="1301.1" y="197.7" class="st5" width="23.3" height="218.8"/>
		<rect x="1326.9" y="27.5" class="st5" width="23.3" height="389"/>
		<rect x="1352.8" y="234.2" class="st5" width="23.3" height="182.3"/>
		<rect x="1378.6" y="282.8" class="st5" width="23.3" height="133.7"/>
	</g>
</g>
<g id="Layer_2">
</g>
</svg>
