<?xml version="1.0" encoding="utf-8"?>
<!-- Generator: Adobe Illustrator 26.0.1, SVG Export Plug-In . SVG Version: 6.00 Build 0)  -->
<svg version="1.1" id="Layer_1" xmlns="http://www.w3.org/2000/svg" xmlns:xlink="http://www.w3.org/1999/xlink" x="0px" y="0px"
	 viewBox="0 0 1400 415" style="enable-background:new 0 0 1400 415;" xml:space="preserve">
<style type="text/css">
	.st0{opacity:0.98;fill:#01AED0;enable-background:new    ;}
	.st1{opacity:0.9;fill:#F16D6B;enable-background:new    ;}
	.st2{opacity:0.8;fill:#FFD13F;enable-background:new    ;}
	.st3{fill:#01AED0;}
	.st4{fill:#F16D6B;}
	.st5{fill:#FFD13F;}
	.st6{fill:#FFF0CE;stroke:#000000;stroke-width:0.8194;stroke-miterlimit:10;}
	.st7{stroke:#FFFFFF;stroke-width:0.4097;stroke-miterlimit:10;}
	.st8{fill:#273C8E;stroke:#E8F0F5;stroke-width:0.8194;stroke-miterlimit:10;}
	.st9{fill:#FFFFFF;}
	.st10{fill:#DB1E36;}
	.st11{fill:url(#SVGID_1_);}
	.st12{fill:url(#SVGID_00000008111931438095715000000014044018942007698089_);}
	.st13{fill:url(#SVGID_00000049921975385808344600000000457817391135472283_);}
	.st14{fill:none;stroke:#FFFFFF;stroke-width:2.4579;stroke-miterlimit:10;}
	.st15{fill:#71767C;}
	.st16{fill:none;stroke:#FFFFFF;stroke-width:1.7196;stroke-linecap:round;stroke-linejoin:round;stroke-miterlimit:10;}
	.st17{fill:none;stroke:#FFF0CE;stroke-width:4.0969;stroke-miterlimit:10;}
	.st18{fill:#FFF0CE;}
	.st19{fill:none;stroke:#000000;stroke-width:0.8194;stroke-miterlimit:10;}
	.st20{fill:none;stroke:#000000;stroke-width:0.4171;stroke-miterlimit:10;}
	.st21{fill:none;stroke:#FFFFFF;stroke-width:1.7967;stroke-miterlimit:10;}
	.st22{enable-background:new    ;}
	.st23{fill:#EC1C24;}
	.st24{fill:none;stroke:#FFFFFF;stroke-width:0.4492;stroke-miterlimit:10;}
	.st25{fill:#64676C;}
</style>
<path class="st0" d="M1412.4,335.3c0,0-1511.6,160.9-1320.9-397c-605-23.1-580-22.2-580-22.2s-15.9,419.5-22.9,598.2
	c1693.5,19.1,1894.7,580.3,1894.7,580.3L1412.4,335.3z"/>
<path class="st1" d="M1041.4,641.2c2.1-21.5,8.7-89.4,11.8-121.8C952.2,511.1-128.1,371.8,39.9-28.9
	c-219-21.2-379.6-36.8-379.6-36.8l-71.9,741.6C-411.6,675.9-87.8,364.4,1041.4,641.2z"/>
<path class="st2" d="M1400-273.7c0,0-255.2,711-914.5,745.1c89.8,0,914.5,0,914.5,0V13.7V-273.7z"/>
<g>
	<g>
		<path class="st3" d="M980.7,237.3L958,260c-2.4,2.4-5.6,3.7-9,3.7s-6.6-1.3-9-3.7l-67.7-67.7c-5-5-5-13,0-18l26.9-26.9
			c-1.7,6.1-2.6,12.5-2.6,19.1c0,39.6,32.1,71.8,71.8,71.8C972.6,238.4,976.7,238,980.7,237.3z"/>
		<path class="st4" d="M1005.6,212.4l-8.9,8.9l-16.1,16.1c-4,0.7-8.1,1.1-12.3,1.1c-39.6,0-71.8-32.1-71.8-71.8
			c0-6.6,0.9-13,2.6-19.1l9.8-9.8l27.9-27.9c-4.1,7.6-6.9,16-8,24.9c-0.3,2.8-0.5,5.7-0.5,8.6c0,38.4,31.1,69.6,69.6,69.6
			c0.2,0,0.3,0,0.5,0C1000.8,212.8,1003.2,212.6,1005.6,212.4z"/>
		<path class="st5" d="M1025.7,192.3l-20,20c-2.4,0.3-4.8,0.4-7.3,0.4c-0.2,0-0.3,0-0.5,0c-38.4,0-69.6-31.1-69.6-69.6
			c0-2.9,0.2-5.8,0.5-8.6c1.1-8.9,3.9-17.3,8-24.9l3.1-3.1c2.5-2.5,5.7-3.7,9-3.7s6.5,1.2,9,3.7l67.7,67.7
			C1030.6,179.3,1030.6,187.4,1025.7,192.3z"/>
		<path class="st6" d="M949,269c-4.6,0-9.2-1.8-12.8-5.3L868.5,196c-7-7-7-18.5,0-25.5l67.7-67.7c7-7,18.5-7,25.5,0l67.7,67.7
			c7,7,7,18.5,0,25.5l-67.7,67.7C958.2,267.3,953.6,269,949,269z M949,102.9c-3.3,0-6.5,1.2-9,3.7l-67.7,67.7c-5,5-5,13,0,18
			L940,260c2.4,2.4,5.6,3.7,9,3.7s6.6-1.3,9-3.7l67.7-67.7c5-5,5-13,0-18L958,106.7C955.5,104.2,952.2,102.9,949,102.9z"/>
		<polygon class="st7" points="1016.8,205.4 988.2,183 988.2,154.5 991.3,154.5 991.3,182 1018.5,203.2 		"/>
		<polygon class="st7" points="937.5,205.4 966.1,183 966.1,154.5 963,154.5 963,182 933.1,205.4 		"/>
		<path class="st8" d="M976.8,114.7v12.9c-5.2-2.8-7.2-1-12.8,2.8c-6.3,4.2-8.1,6-14.9,1.5V119c6.8,4.5,8.6,2.7,14.9-1.5
			C969.6,113.8,971.6,111.9,976.8,114.7z"/>
		<path class="st7" d="M984.6,186.3v-38.8h-3.1v7.6h-3.3v-41.6h-2V155h-3.3v-7.6h-3.1v38.8L946,205.3h4l22.9-19.1V182h3.3v4.3h2V182
			h3.3v4.3l22.9,19.1h4L984.6,186.3z M976.1,178.8h-3.3v-20.7h3.3V178.8z M981.5,178.8h-3.3v-20.7h3.3V178.8z"/>
		<path class="st9" d="M1012.4,207.9c-13.3,0.2-24.5,1-37.8,1.6c-6.6,0.3-21.4,2.3-21.8,2.4c0,0-15.3,4.5-16.1,4.8c-3,1.3-5.4,3-8,5
			s-5.1,3.8-7.7,5.9c-2.6,2.1-5.3,4.3-8.1,6.3c-2.7,1.9-5.8,3.3-8.8,4.8c-3.1,1.5-13,3.2-16.3,3.9c0,0-4.2,0-4.6,0
			c-3.5-0.2-6.7-0.9-9.7-2.6c-0.8-0.4-1.7-1-2.4-1.6s-1.2-0.8-1.8-1.5c-0.1-1.5-0.4-1.9-0.2-4.6c0.4,0.6,5,3.6,5.3,3.8
			c2.8,1.4,9.6,2.6,10,2.6l7.7-1.3c3.2-0.6,6.2-1.8,9.2-3.2c2.9-1.4,6-2.7,8.7-4.6c2.7-1.9,5.3-3.7,7.9-5.8c2.6-2,4.8-4.1,7.5-6.1
			s5.8-4.3,9-5.6c0.8-0.3,6.7-2.6,7.6-2.9c0,0,15.5-1.9,17.2-1.9c1.7-0.1,3.6-0.3,5.2-0.4c3.3-0.1,6.7-0.2,10-0.3
			c6.6-0.2,13.1-0.6,19.7-0.6c6.6-0.1,14.1-0.5,20.8-0.4L1012.4,207.9z"/>
		<g>
			<path class="st10" d="M1022.7,197.8l-7.9,8.7c-0.3,0.1-28,0.7-28.2,0.7c-13.8,1.1-31.5-0.5-46,2.9c-18.9,5.8-31.1,21.7-42.1,25.4
				c-4,1.1-14.2,4-18.3,2.9c0,0-11.1-5.2-11.1-6c-0.2-4.2,1.1-6.4,3.5-11.8c1.2-2.7,2.7-5.7,4.7-9.2c8.6-13.1,15.6-20.1,20.4-23.9
				c0.1-0.1,0.1-0.1,0.2-0.2l0,0l0,0c4.3-3.3,6.7-3.9,6.7-3.9c8.1-3.9,89.8,10,99.7,11.5c5.2,0.8,11.7,1.7,15.4,2.3L1022.7,197.8z"
				/>
		</g>
		<path class="st9" d="M1013.5,207.2c-13.3,0.2-26.5,0.7-39.8,1.3c-6.6,0.3-13.3,0.6-19.8,1.2c0,0-9.4,0.7-12.8,1.6
			c-3.4,0.9-5.1,1.5-5.8,1.9c-3,1.3-5.7,3-8.3,5s-5.1,4.1-7.7,6.2c-2.6,2.1-5.2,4.1-8,6.1c-2.7,1.9-5.6,3.7-8.7,5.2
			c-3.1,1.5-6.3,2.6-9.7,3.3l-1.2,0.3l-1.2,0.2c-0.8,0.2-1.7,0.3-2.5,0.4c-0.4,0.1-0.8,0.1-1.3,0.1c-0.4,0-0.9,0.1-1.3,0.1h-1.3
			c-0.4,0-0.9,0-1.3-0.1c-3.5-0.2-6.9-1.2-9.9-3c-0.8-0.4-1.5-0.9-2.2-1.5s-1.2-1-1.8-1.7c-0.1-1.5,0-2.1,0.1-2.9
			c0.4,0.6,0.7,0.9,1.2,1.4s1.2,1,1.8,1.4c0.3,0.2,0.6,0.4,1,0.6c0.3,0.2,0.7,0.4,1,0.6c2.8,1.4,5.8,2.4,9,2.6
			c0.4,0,0.8,0.1,1.2,0.1h1.2c0.4,0,0.8-0.1,1.2-0.1s0.8-0.1,1.2-0.1c0.8-0.1,1.6-0.2,2.4-0.4l1.2-0.2l1.2-0.2
			c3.2-0.6,6.3-1.7,9.2-3c2.9-1.4,5.7-3.1,8.4-5s5.3-3.9,7.9-5.9c2.6-2,5.1-4.2,7.8-6.2s5.6-3.8,8.8-5.1c0.8-0.3,1.6-0.7,2.4-0.9
			c0,0,3.1-1.1,6.9-1.6c3.8-0.5,10-0.8,10-0.8c1.7-0.1,3.3-0.3,5-0.4c1.7-0.1,3.3-0.2,5-0.2c3.3-0.1,6.6-0.2,10-0.3
			c6.6-0.2,13.3-0.3,19.9-0.4c6.6-0.1,13.3-0.1,19.9,0v0.4L1013.5,207.2L1013.5,207.2z"/>
		
			<radialGradient id="SVGID_1_" cx="894.2164" cy="-201.2297" r="41.4452" gradientTransform="matrix(1 0 0 1 0 396)" gradientUnits="userSpaceOnUse">
			<stop  offset="0" style="stop-color:#FFFFFF"/>
			<stop  offset="0.8589" style="stop-color:#2E2E2E"/>
		</radialGradient>
		<path class="st11" d="M920,190.5c-4.4,11.6-8.5,25.4-17.8,31.1c-9.2,5.7-22.7,9.7-29.2,0.2c1.2-2.8,2.7-5.9,4.7-9.4
			c8.6-13.5,15.6-20.7,20.4-24.6c0.1-0.1,0.2-0.1,0.2-0.2l0,0l0,0C898.9,187.4,914.2,184.3,920,190.5z"/>
		<g>
			
				<linearGradient id="SVGID_00000044159450035228168550000003012300932027617973_" gradientUnits="userSpaceOnUse" x1="903.1117" y1="-200.8815" x2="948.3344" y2="-182.931" gradientTransform="matrix(1 0 0 1 0 396)">
				<stop  offset="0" style="stop-color:#FFFFFF"/>
				<stop  offset="0.145" style="stop-color:#C1C1C1"/>
				<stop  offset="0.4792" style="stop-color:#262626"/>
				<stop  offset="0.4892" style="stop-color:#212121"/>
				<stop  offset="0.6758" style="stop-color:#000000"/>
			</linearGradient>
			<path style="fill:url(#SVGID_00000044159450035228168550000003012300932027617973_);" d="M926.5,191.9
				c-1.4-0.1-10.5,19.7-9.5,22.7c0.6,1.6,6.3-5.3,14.3-6.8c0.9-4.2,1.8-7.4,2-14.8C932,192.4,927.8,192,926.5,191.9z"/>
		</g>
		<g>
			
				<linearGradient id="SVGID_00000000197229860640528050000004515520120400559266_" gradientUnits="userSpaceOnUse" x1="955.3" y1="-196.1" x2="1008.063" y2="-196.1" gradientTransform="matrix(1 0 0 1 0 396)">
				<stop  offset="0" style="stop-color:#212121"/>
				<stop  offset="2.392767e-02" style="stop-color:#1E1E1E"/>
				<stop  offset="0.1673" style="stop-color:#0D0D0D"/>
				<stop  offset="0.3257" style="stop-color:#030303"/>
				<stop  offset="0.5272" style="stop-color:#000000"/>
			</linearGradient>
			<path style="fill:url(#SVGID_00000000197229860640528050000004515520120400559266_);" d="M955.3,196.6c0.2,1.7,0.4,4.4,0.4,6.3
				c0,0.7,0.5,1.2,1.2,1.2c7.6-0.3,47.1,0.1,50.9,0.1c0.1,0,0.3-0.1,0.3-0.3c0.1-1-0.1-1.9-0.5-2.9c-0.1-0.4-0.5-0.6-0.9-0.7
				c-5.8-0.6-43.8-4-50.5-4.7C955.7,195.7,955.3,196.1,955.3,196.6z"/>
		</g>
		<g>
			<path class="st14" d="M962.7,209.8c16.7-1.5,39.7-2.2,53.1-2.6l-14.6,12.9c-29,8-74.2,20.2-90.5,23.7c-24.3,6.4-35.9,1-37.4-0.2
				c-0.8-0.7-4-2.1-3.9-7.9c1.6,2.3,8.8,7.5,18.4,6.3c11.8-1.5,18-4.6,30.4-14.4C930.5,217.9,934,212.4,962.7,209.8z"/>
			<path class="st15" d="M962.7,209.8c16.7-1.5,39.7-2.2,53.1-2.6l-14.6,12.9c-29,8-74.2,20.2-90.5,23.7c-24.3,6.4-35.9,1-37.4-0.2
				c-0.8-0.7-4-2.1-3.9-7.9c1.6,2.3,8.8,7.5,18.4,6.3c11.8-1.5,18-4.6,30.4-14.4C930.5,217.9,934,212.4,962.7,209.8z"/>
		</g>
		<g>
			<path class="st16" d="M935.1,233.6c0,0,3.3-41.1,4.5-41.3s10.9,0.1,12.1,1.2c1.2,1.2-1.1,36.4-1.1,36.4L935.1,233.6z"/>
			<path d="M935.1,233.6c0,0,3.3-41.1,4.5-41.3s10.9,0.1,12.1,1.2c1.2,1.2-1.1,36.4-1.1,36.4L935.1,233.6z"/>
		</g>
		<path class="st17" d="M1027.5,172.5c6,6,6,15.7,0,21.7l-67.7,67.7c-6,6-15.7,6-21.7,0"/>
		<polygon class="st18" points="993.7,227.1 993.7,224.2 1021.3,196.7 1027.2,198.3 994.4,231.1 		"/>
		<line class="st19" x1="990.9" y1="227.1" x2="1021.8" y2="196.2"/>
		<line class="st20" x1="994.3" y1="231" x2="1027.9" y2="197.4"/>
	</g>
	<g>
		<path class="st9" d="M884.6,296.4c-0.7,0.8-1.5,1.4-2.4,2c-1.7,1-3.5,1.6-5.5,1.6s-3.8-0.5-5.5-1.6s-3-2.5-4-4.2
			c-1-1.8-1.5-3.7-1.5-5.9c0-2.2,0.5-4.1,1.5-5.9s2.3-3.2,4-4.2s3.5-1.6,5.5-1.6s3.8,0.5,5.5,1.6c0.9,0.5,1.7,1.2,2.4,1.9l-3.6,3.7
			c-0.5-0.6-0.9-1-1.3-1.2c-0.9-0.6-1.9-0.9-3-0.9c-1,0-2,0.3-3,0.9c-0.9,0.6-1.6,1.4-2.2,2.5c-0.5,1-0.8,2.1-0.8,3.2
			s0.3,2.2,0.8,3.2s1.3,1.8,2.2,2.5c0.9,0.6,1.9,0.9,2.9,0.9s2-0.3,2.9-0.9c0.5-0.3,0.9-0.7,1.4-1.3L884.6,296.4z"/>
		<path class="st9" d="M902.1,295.5h-8.9l-2.2,4h-5.6l9.5-17.2l2.8-5.1l2.8,5.1l9.5,17.2h-5.6L902.1,295.5z M899.8,291.4l-2.2-4
			l-2.2,4H899.8z"/>
		<path class="st9" d="M931.6,299.5l-14.1-11.6v11.5H912l0.1-22.3l14.2,10.3v-10.3h5.5L931.6,299.5z"/>
		<path class="st9" d="M933.8,277.1h6.6c1.6,0,3.1,0.2,4.5,0.6s2.5,1,3.3,1.9s1.2,2,1.2,3.4c0,1.1-0.3,2-0.8,2.8
			c-0.6,0.8-1.3,1.4-2.2,1.8v0.1c0.6,0.2,1,0.5,1.5,0.8c0.5,0.4,0.8,0.8,1.2,1.2c0.3,0.4,0.6,1,0.8,1.6s0.3,1.2,0.3,1.9
			c0,1.9-0.7,3.4-2.1,4.5c-1.4,1.1-3.5,1.7-6.3,1.7h-7.9L933.8,277.1L933.8,277.1z M939.6,281.5v4.5h1.4c0.9,0,1.6-0.2,2-0.6
			c0.5-0.4,0.7-1,0.7-1.7c0-0.8-0.3-1.4-0.8-1.7c-0.6-0.3-1.3-0.5-2-0.5L939.6,281.5L939.6,281.5z M939.6,290.4v4.7h1.5
			c2.2,0,3.3-0.8,3.3-2.3c0-1-0.3-1.6-0.9-1.9c-0.6-0.3-1.4-0.5-2.5-0.5L939.6,290.4L939.6,290.4z"/>
		<path class="st9" d="M966.4,299.5h-14.2v-22.3h13.5v4.7h-8v3.9h4.4l1.3,4.7h-5.7v4.3h8.7V299.5z"/>
		<path class="st9" d="M968.4,299.4v-22.3h6.2c1.7,0,3.3,0.2,4.7,0.7c1.3,0.5,2.4,1.2,3.1,2.2c0.7,1,1.1,2.4,1.1,4
			c0,1.2-0.3,2.3-1,3.4c-0.6,1.1-1.5,1.8-2.6,2.2l5.5,9.7H979l-5.2-10h-0.1v10L968.4,299.4L968.4,299.4z M973.9,288.1
			c0.9,0,1.7-0.1,2.3-0.3c0.6-0.2,1.1-0.6,1.4-1.1c0.3-0.5,0.5-1.1,0.5-1.9c0-1.1-0.3-1.9-1-2.4c-0.7-0.4-1.7-0.6-3.1-0.6v6.3H973.9
			z"/>
		<path class="st9" d="M987.6,299.4v-22.3h6.2c1.7,0,3.3,0.2,4.7,0.7c1.3,0.5,2.4,1.2,3.1,2.2c0.7,1,1.1,2.4,1.1,4
			c0,1.2-0.3,2.3-1,3.4c-0.6,1.1-1.5,1.8-2.6,2.2l5.5,9.7h-6.4l-5.2-10h-0.1v10L987.6,299.4L987.6,299.4z M993.1,288.1
			c0.9,0,1.7-0.1,2.3-0.3c0.6-0.2,1.1-0.6,1.4-1.1c0.3-0.5,0.5-1.1,0.5-1.9c0-1.1-0.3-1.9-1-2.4c-0.7-0.4-1.7-0.6-3.1-0.6v6.3H993.1
			z"/>
		<path class="st9" d="M1023.5,295.5h-8.9l-2.2,4h-5.6l9.5-17.2l2.8-5.1l2.8,5.1l9.5,17.2h-5.6L1023.5,295.5z M1021.2,291.4l-2.2-4
			l-2.2,4H1021.2z"/>
	</g>
	<g>
		<path class="st9" d="M872.8,317.5h-7v-12.2h3v9.4h4.8L872.8,317.5z"/>
		<path class="st9" d="M883.5,305.3h3v12.2h-3V305.3z"/>
		<path class="st9" d="M905.7,308.9c-0.4-0.4-0.8-0.6-1.3-0.8c-0.5-0.2-1-0.3-1.5-0.3s-1,0.1-1.4,0.3c-0.4,0.2-0.8,0.4-1.1,0.7
			c-0.3,0.3-0.6,0.7-0.7,1.1c-0.2,0.4-0.3,0.9-0.3,1.4c0,0.7,0.2,1.4,0.5,1.9s0.8,1,1.4,1.2c0.6,0.3,1.2,0.4,1.9,0.4
			c0.3,0,0.6,0,1-0.1c0.3-0.1,0.6-0.2,0.8-0.4v-1.8h-1.2l-1.1-2.6h5.3v6.3c-0.2,0.1-0.6,0.3-1,0.5c-0.5,0.2-0.9,0.3-1.3,0.4
			c-0.4,0.1-0.8,0.2-1.4,0.3c-0.5,0.1-1,0.1-1.4,0.1c-1.2,0-2.2-0.3-3.2-0.8c-1-0.6-1.8-1.3-2.4-2.3c-0.6-1-0.9-2-0.9-3.2
			c0-1.1,0.3-2.2,0.9-3.2c0.6-1,1.4-1.7,2.4-2.3c1-0.6,2.1-0.8,3.2-0.8c0.5,0,1.1,0.1,1.7,0.2c0.6,0.1,1.1,0.3,1.6,0.6
			c0.5,0.3,1,0.6,1.4,0.9L905.7,308.9z"/>
		<path class="st9" d="M920.7,317.5h-3v-12.2h3v4.4h3.9v-4.4h3v12.2h-3v-5h-3.9V317.5z"/>
		<path class="st9" d="M940.5,308.1h-2.3l-0.7-2.8h8.2l0.7,2.8h-2.9v9.4h-3V308.1z"/>
		<path class="st9" d="M969,317.4v-12.1h3.4c1,0,1.8,0.1,2.5,0.4c0.7,0.2,1.3,0.7,1.7,1.2c0.4,0.6,0.6,1.3,0.6,2.2
			c0,0.7-0.2,1.3-0.5,1.9c-0.4,0.6-0.8,1-1.4,1.2l3,5.3h-3.5L972,312l0,0v5.4H969z M972,311.3c0.5,0,0.9-0.1,1.3-0.2
			c0.3-0.1,0.6-0.3,0.8-0.6c0.2-0.3,0.3-0.6,0.3-1c0-0.6-0.2-1.1-0.6-1.3c-0.4-0.2-1-0.3-1.7-0.3L972,311.3L972,311.3z"/>
		<path class="st9" d="M997.3,315.3h-4.9l-1.2,2.2h-3.1l5.2-9.4l1.5-2.8l1.5,2.8l5.2,9.4h-3.1L997.3,315.3z M996.1,313l-1.2-2.2
			l-1.2,2.2H996.1z"/>
		<path class="st9" d="M1011.5,305.3h3v12.2h-3V305.3z"/>
		<path class="st9" d="M1031.4,317.5h-7v-12.2h3v9.4h4.8L1031.4,317.5z"/>
	</g>
</g>
<g>
	<path class="st5" d="M268.9,163.3c0.5,0.3,0.7,0.7,0.4,1.2c-0.3,0.5-0.7,0.7-1.2,0.4c-1.1-0.5-2.9-0.8-5.5-0.8s-4.9,0.1-7,0.4
		c-2.1,0.2-5.1,0.6-9,1.1l-1.2,0.2c0,0,0,0.1-0.1,0.2c-0.6,0.7-1.5,1.9-2.7,3.6c-1.2,1.7-2.6,3.9-4.3,6.7s-3.3,5.6-4.8,8.5
		c-1.5,2.8-2.8,5.8-3.8,9c-1.1,3.1-1.6,5.9-1.6,8.1c0,1.8,0.3,3.1,0.9,4c0.2,0.3,0.2,0.6,0,0.9c-0.2,0.3-0.4,0.4-0.8,0.4
		s-0.7-0.1-1.1-0.2s-0.7-0.4-1.1-0.8c-0.4-0.4-0.8-1-1-1.9c-0.3-0.9-0.4-2-0.4-3.4c0-2.7,0.6-5.9,1.8-9.4s2.6-6.9,4.4-10.1
		c1.7-3.2,3.4-6.1,5-8.6s3.1-4.6,4.4-6.2c-4.9,0.6-8.9,0.9-11.9,0.9c-4.1,0-7.2-0.5-9.2-1.6c-0.5-0.3-0.6-0.7-0.4-1.2
		c0.3-0.5,0.7-0.6,1.2-0.4c1.4,0.7,3.5,1.1,6.4,1.2c2.8,0.1,5.5,0.1,8-0.2c2.5-0.2,5.7-0.6,9.6-1.1c0.3,0,0.8-0.1,1.3-0.2
		c0.6-0.1,1-0.1,1.1-0.2c3.1-0.4,5.5-0.7,7.2-0.9c1.6-0.2,3.6-0.4,6-0.6c2.3-0.2,4.2-0.2,5.7,0S268,162.9,268.9,163.3z"/>
	<path class="st5" d="M274.5,181c0.2-0.1,0.4-0.1,0.7,0c0.2,0.1,0.4,0.3,0.5,0.5s0.1,0.4,0,0.7s-0.3,0.7-0.6,1.2
		c-0.3,0.5-0.7,1.1-1.1,1.8c-0.5,0.7-1,1.4-1.6,2.2s-1.3,1.6-1.9,2.3c-2.1,2.4-4.1,4.1-6,5.2c0,0-0.1,0-0.1,0.1
		c-2.2,1.2-4.2,1.8-6,1.8c-1.2,0-2.1-0.4-2.7-1.1c-0.4-0.4-0.6-0.9-0.8-1.5s-0.2-1.3-0.2-2.2s0.1-1.6,0.2-2.2
		c0.1-0.6,0.2-1.4,0.4-2.5c0.5-3.1,0.6-4.8,0.2-5.2c-0.1-0.1-0.2-0.1-0.4-0.1c-0.9,0-1.9,0.6-3.1,1.7c-1.5,1.4-2.8,3.2-4.1,5.2
		c-1.2,2.1-2,4.1-2.5,6.1c0,0.2-0.1,0.4-0.1,0.5l-0.1,0.1c0,0,0,0.1-0.1,0.2H245c-0.2,0.4-0.6,0.6-1.1,0.6c-0.4,0-0.7-0.1-1.1-0.4
		c-0.3-0.3-0.5-0.7-0.7-1.1c-0.2-0.4-0.2-0.9-0.2-1.4c0-2.1,0.5-4.5,1.4-7.2c1.3-3.7,3-7.4,5.3-11s4.5-6.5,6.6-8.8
		c0.4-0.4,1.1-0.7,1.9-0.8c0.8-0.1,1.5,0,1.9,0.4c0.6,0.6,0.6,1.2-0.1,1.9c-5,6-8.8,12.1-11.4,18.1c0.3-0.5,0.7-0.9,1.1-1.4
		c0,0,0-0.1,0.1-0.1c0.6-0.7,1.2-1.4,1.8-2h0.1c2.3-2.2,4.4-3.4,6.4-3.4c0.9,0,1.7,0.3,2.2,0.9c0.4,0.5,0.6,1.1,0.7,2s0.1,1.6,0,2.3
		s-0.2,1.7-0.4,3c-0.2,1.2-0.4,2.1-0.5,2.7c-0.1,0.6-0.1,1.4-0.1,2.2s0.2,1.4,0.4,1.7c0.3,0.3,0.7,0.4,1.3,0.4
		c0.9,0,1.8-0.3,2.9-0.8v-0.1c2.1-1.1,4.3-3.1,6.6-6c2.3-2.8,3.6-4.8,4-5.8C274.1,181.3,274.2,181.1,274.5,181z"/>
	<path class="st5" d="M290.6,181.1c0.5,0.4,0.5,0.8,0.2,1.3c-1,1.3-2.5,2.9-4.4,4.8s-3.8,3.6-5.7,5c0,0-0.1,0-0.1,0.1
		c-0.2,0.2-0.5,0.4-0.8,0.6c-2.9,2.1-5.3,3.2-7,3.2c-1.4,0-2.4-0.4-3.2-1.2c-0.8-0.8-1.1-2-1.1-3.4c0-1.9,0.5-3.9,1.6-6.2
		c1.1-2.2,2.3-4.1,3.7-5.7c0.5-0.5,1.1-0.8,1.8-0.9c0.7-0.1,1.4,0,1.8,0.4c0.8,0.6,0.9,1.5,0.2,2.5c-0.1,0.2-0.4,0.6-0.8,1.1
		c-2.9,3.8-4.3,6.9-4.3,9.4c0,1.1,0.5,1.7,1.4,1.7c0.6,0,1.5-0.3,2.7-0.9c1.2-0.6,2.2-1.2,2.8-1.7c0.1,0,0.1-0.1,0.2-0.1
		c1.8-1.3,3.6-2.9,5.4-4.7s3.3-3.4,4.4-4.8C289.7,180.8,290.2,180.8,290.6,181.1z M280.2,175.4c-0.4,0.4-0.9,0.6-1.4,0.6
		c-0.6,0-1-0.2-1.4-0.6c-0.4-0.4-0.6-0.9-0.6-1.4s0.2-1,0.6-1.4s0.8-0.6,1.4-0.6c0.5,0,1,0.2,1.4,0.6c0.4,0.4,0.6,0.9,0.6,1.4
		C280.8,174.5,280.6,175,280.2,175.4z"/>
	<path class="st5" d="M319.1,181c0.5,0.3,0.7,0.7,0.4,1.2c-0.2,0.2-0.4,0.6-0.6,1s-0.7,1.2-1.5,2.4s-1.5,2.2-2.3,3.2
		s-1.7,2.1-2.8,3.2c-1.1,1.1-2.2,2-3.2,2.6c-0.1,0.1-0.2,0.2-0.2,0.2c-2.2,1.2-4.2,1.8-6,1.8c-2,0-3.4-1.1-4.1-3.3
		c-0.4-1.1-0.6-3.1-0.7-5.9c-0.1-1.9-0.2-3.3-0.4-4.2c-0.2-0.9-0.5-1.3-1-1.3c-0.7,0-1.7,0.7-3,2.1c-0.4,0.4-0.7,0.9-1.1,1.3
		c-0.2,0.3-0.5,0.6-0.8,1c-1.1,1.5-2,3.1-2.7,4.7c-0.8,1.6-1.2,2.8-1.3,3.7v0.1c0,0.1,0,0.2-0.1,0.3c-0.2,0.6-0.7,0.8-1.3,0.8
		c-0.6,0-1.1-0.3-1.4-0.9c-0.4-0.6-0.6-1.2-0.6-2c0-2.1,0.5-4.5,1.4-7.2c1-3,2.5-6.1,4.5-9.3c0.5-0.8,1.1-1.3,2-1.7
		c0.9-0.3,1.6-0.3,2.1,0.1c0.3,0.2,0.5,0.5,0.6,0.8c0.1,0.4,0,0.8-0.2,1.2c-1.3,2.2-2.3,3.9-2.9,5c-0.8,1.4-1.5,2.8-2,4
		c0.2-0.3,0.4-0.5,0.6-0.8c0.2-0.4,0.5-0.7,0.8-1.1v-0.1c0.3-0.4,0.6-0.7,0.9-1.1l0.1-0.1c2.3-2.7,4.4-4.1,6.1-4.1
		c0.6,0,1.1,0.1,1.5,0.3s0.8,0.5,1.1,1c0.3,0.5,0.5,0.9,0.7,1.3c0.2,0.4,0.3,1,0.4,1.7s0.1,1.3,0.2,1.8c0,0.5,0.1,1.1,0.1,1.9
		c0,1.3,0.1,2.3,0.2,3s0.2,1.5,0.4,2.2c0.2,0.7,0.5,1.2,0.9,1.5s0.9,0.5,1.5,0.5c0.8,0,1.7-0.3,2.7-0.8c1-0.6,2.1-1.4,3.2-2.6
		c1.1-1.1,2.2-2.3,3.1-3.6s1.7-2.4,2.3-3.4c0.6-1,1.1-1.8,1.5-2.5C318.2,180.9,318.6,180.7,319.1,181z"/>
	<path class="st5" d="M340.9,213.5c0.3,0,0.5,0.1,0.6,0.3c0.2,0.2,0.2,0.4,0.2,0.6s-0.1,0.4-0.2,0.6c-0.2,0.2-0.4,0.3-0.6,0.3h-0.1
		h-0.1c-0.2,0-0.5,0-0.7,0c-5.7-0.2-10.2-2.2-13.4-6.1c-0.9-1.1-1.7-2.4-2.5-3.9s-1.3-2.7-1.7-3.7c-0.4-1-0.9-2.3-1.4-4.1
		c-0.8-2.5-1.5-4.3-2.1-5.4c-0.6-1.1-1.3-1.7-2.2-1.9c-1.4,3.5-2.1,6.2-2.1,8.1v0.1c0,0.5,0,0.9-0.1,1.1c-0.2,0.6-0.7,0.8-1.3,0.8
		c-0.6,0-1.1-0.3-1.4-0.9c-0.4-0.6-0.6-1.3-0.6-2c0-2.4,0.6-5.3,1.9-8.6c1.2-3.4,2.7-6.5,4.4-9.5c1.7-3,3.4-5.7,5.1-8.1
		c1.7-2.4,3.1-4.1,4.1-5.1c0.5-0.5,1.3-0.8,2.4-0.8c0.7,0,1.2,0.2,1.5,0.5c0.5,0.6,0.5,1.2-0.2,1.9c-1.6,1.7-3.7,4.5-6.2,8.4
		s-4.6,7.7-6.3,11.3c0.1,0,0.2,0.1,0.3,0.1c3.1,0,7.7-3.1,14-9.1c0.1,0,0.2-0.1,0.4-0.3c0.2-0.2,0.3-0.3,0.4-0.4
		c0.4-0.4,0.8-0.4,1.2,0.1c0.4,0.4,0.4,0.8-0.1,1.2c-0.2,0.2-0.4,0.4-0.6,0.6c-5.3,5-9.5,8-12.7,9.1c0.7,0.6,1.4,1.5,2.1,2.6
		s1.2,2.1,1.6,3s0.9,2.2,1.5,3.9c0.5,1.3,0.9,2.3,1.2,3c0.3,0.7,0.7,1.6,1.3,2.9c0.6,1.2,1.1,2.2,1.5,2.9c0.5,0.7,1,1.5,1.8,2.4
		c0.7,0.9,1.5,1.6,2.2,2.1c0.8,0.5,1.7,0.9,2.7,1.3c1,0.4,2.1,0.6,3.3,0.7c0.2,0,0.3,0,0.4,0C340.6,213.5,340.7,213.5,340.9,213.5z"
		/>
	<path class="st5" d="M389.5,181.1c0.5,0.3,0.6,0.8,0.2,1.3c-4.9,6.6-9.4,11.7-13.6,15.3l-0.1,0.1c0,0-0.1,0-0.1,0.1
		c-2.9,2.4-5.2,3.6-6.9,3.6c-2.9,0-4.4-1.8-4.4-5.5c0-1.8,0.4-3.7,1.1-5.8c-1.4,0.9-2.7,1.4-3.8,1.4c-1,0-1.9-0.4-2.5-1.2
		c-0.7-0.8-1-1.9-1-3.2c0-1.5,0.5-3.1,1.4-4.8s2.3-3.2,4-4.4c1.7-1.3,3.5-1.9,5.4-1.9c0.7,0,1.5,0.2,2.1,0.5h0.1
		c0.5,0.3,1,0.7,1.4,1.2c0,0,0.1,0,0.1,0.1c0.6,0.8,1,1.8,1.2,2.9l0.1,0.1c0.9,0.7,1,1.6,0.3,2.7c-0.1,0.1-0.3,0.4-0.6,0.8
		c-3.5,4.9-5.2,8.9-5.2,12c0,0.8,0.1,1.4,0.3,1.8c0.2,0.4,0.4,0.6,0.5,0.7c0.2,0.1,0.4,0.1,0.6,0.1c1.1,0,2.6-0.9,4.7-2.6l0.1-0.1
		c2.2-1.8,4.5-4.2,7-7.1c2.5-2.9,4.6-5.5,6.3-7.8C388.6,180.8,389,180.8,389.5,181.1z M366.9,186.9c0.2-0.2,0.4-0.3,0.6-0.5
		c1.1-2,2.2-3.7,3.5-5.1c0.4-0.4,0.8-0.7,1.4-0.8c-0.2-0.6-0.4-1.2-0.7-1.6h-0.1l-0.1-0.1c0-0.1-0.1-0.1-0.2-0.2
		c-0.1-0.1-0.2-0.1-0.2-0.2c0,0,0-0.1-0.1-0.1c-0.4-0.2-0.7-0.4-1.2-0.4c-1.4,0-2.9,1.1-4.6,3.2c-1.6,2.1-2.4,4.1-2.4,6
		c0,0.5,0.1,0.9,0.2,1.2s0.3,0.5,0.6,0.5C364.4,188.7,365.5,188.1,366.9,186.9z"/>
	<path class="st5" d="M415.6,181.1c0.4,0.4,0.4,0.8,0,1.3c-1.3,1.4-3.1,2.8-5.3,4c-2.2,1.3-4.2,2.2-6,3c-1.8,0.7-4.2,1.6-7.1,2.6
		c-0.9,2.2-1.7,4.2-2.5,5.9s-1.7,3.4-2.8,5.3c-1.1,1.8-2.2,3.3-3.2,4.5c-1.1,1.2-2.3,2.2-3.6,2.9c-1.3,0.8-2.7,1.1-4.1,1.1
		c-1.1,0-2.1-0.2-2.9-0.6c-0.8-0.4-1.4-1-1.8-1.7c-0.4-0.8-0.6-1.7-0.6-2.7c0-4,2.1-7.4,6.4-10.2c2.4-1.5,6-3.1,11-4.9
		c0.5-1.1,1-2.4,1.5-3.7c-0.2,0.2-0.5,0.4-0.6,0.6c-2.2,1.9-4.1,2.8-5.8,2.8c-1,0-1.9-0.4-2.5-1.2c-0.7-0.8-1-1.9-1-3.2
		c0-1.5,0.5-3.1,1.4-4.8s2.3-3.2,4-4.4c1.7-1.3,3.5-1.9,5.3-1.9c0.8,0,1.5,0.2,2.2,0.5h0.1c0.5,0.2,0.9,0.6,1.3,1.1
		c0.3-0.6,0.5-1.1,0.8-1.4c0.7-1,1.4-1.7,2.2-2c0.7-0.4,1.3-0.4,1.9,0c0.9,0.6,0.9,1.6,0.1,3s-2.2,4.6-4.1,9.6
		c-0.5,1.2-0.9,2.3-1.3,3.2c3.8-1.4,7.1-2.7,9.7-4s4.8-2.9,6.4-4.6C414.7,180.7,415.2,180.7,415.6,181.1z M379.7,209.1
		c3.7,0,7.9-5.1,12.4-15.2c-2.3,0.8-4.2,1.6-5.7,2.4s-3.1,1.6-4.5,2.7c-1.5,1-2.6,2.2-3.3,3.5c-0.7,1.3-1.1,2.8-1.1,4.3
		S378.1,209.1,379.7,209.1z M396.9,181.9c0.4-1,0.7-1.9,1.1-2.6c-0.1-0.2-0.2-0.3-0.4-0.5h-0.1c-0.1-0.2-0.3-0.3-0.4-0.5
		c0,0-0.1-0.1-0.2-0.1l-0.1-0.1c0,0-0.1,0-0.1-0.1c-0.3-0.2-0.7-0.2-1.1-0.2c-1.4,0-2.9,1.1-4.6,3.2c-1.6,2.1-2.5,4.1-2.5,6
		c0,0.5,0.1,0.9,0.2,1.2c0.2,0.3,0.4,0.5,0.6,0.5c1,0,2.2-0.6,3.5-1.8h0.1C394.6,185.4,395.9,183.8,396.9,181.9z"/>
	<path class="st5" d="M441.4,181.1c0.5,0.3,0.6,0.8,0.2,1.3c-4.9,6.6-9.4,11.7-13.6,15.3l-0.1,0.1c0,0-0.1,0-0.1,0.1
		c-2.9,2.4-5.2,3.6-6.9,3.6c-2.9,0-4.4-1.8-4.4-5.5c0-1.8,0.4-3.7,1.1-5.8c-1.4,0.9-2.7,1.4-3.8,1.4c-1,0-1.9-0.4-2.5-1.2
		c-0.7-0.8-1-1.9-1-3.2c0-1.5,0.5-3.1,1.4-4.8s2.3-3.2,4-4.4c1.7-1.3,3.5-1.9,5.4-1.9c0.7,0,1.5,0.2,2.1,0.5h0.1
		c0.5,0.3,1,0.7,1.4,1.2c0,0,0.1,0,0.1,0.1c0.6,0.8,1,1.8,1.2,2.9l0.1,0.1c0.9,0.7,1,1.6,0.3,2.7c-0.1,0.1-0.3,0.4-0.6,0.8
		c-3.5,4.9-5.2,8.9-5.2,12c0,0.8,0.1,1.4,0.3,1.8c0.2,0.4,0.4,0.6,0.5,0.7c0.2,0.1,0.4,0.1,0.6,0.1c1.1,0,2.6-0.9,4.7-2.6l0.1-0.1
		c2.2-1.8,4.5-4.2,7-7.1c2.5-2.9,4.6-5.5,6.3-7.8C440.5,180.8,440.9,180.8,441.4,181.1z M418.8,186.9c0.2-0.2,0.4-0.3,0.6-0.5
		c1.1-2,2.2-3.7,3.5-5.1c0.4-0.4,0.8-0.7,1.4-0.8c-0.2-0.6-0.4-1.2-0.7-1.6h-0.1l-0.1-0.1c0-0.1-0.1-0.1-0.2-0.2
		c-0.1-0.1-0.2-0.1-0.2-0.2c0,0,0-0.1-0.1-0.1c-0.4-0.2-0.7-0.4-1.2-0.4c-1.4,0-2.9,1.1-4.6,3.2c-1.6,2.1-2.4,4.1-2.4,6
		c0,0.5,0.1,0.9,0.2,1.2s0.3,0.5,0.6,0.5C416.2,188.7,417.3,188.1,418.8,186.9z"/>
	<path class="st5" d="M456.7,181.1c0.5,0.4,0.5,0.8,0.2,1.3c-1,1.3-2.5,2.9-4.4,4.8s-3.8,3.6-5.7,5c0,0-0.1,0-0.1,0.1
		c-0.2,0.2-0.5,0.4-0.8,0.6c-2.9,2.1-5.3,3.2-7,3.2c-1.4,0-2.4-0.4-3.2-1.2c-0.8-0.8-1.1-2-1.1-3.4c0-1.9,0.5-3.9,1.6-6.2
		c1.1-2.2,2.3-4.1,3.7-5.7c0.5-0.5,1.1-0.8,1.8-0.9c0.7-0.1,1.4,0,1.8,0.4c0.8,0.6,0.9,1.5,0.2,2.5c-0.1,0.2-0.4,0.6-0.8,1.1
		c-2.9,3.8-4.3,6.9-4.3,9.4c0,1.1,0.5,1.7,1.4,1.7c0.6,0,1.5-0.3,2.7-0.9c1.2-0.6,2.2-1.2,2.8-1.7c0.1,0,0.1-0.1,0.2-0.1
		c1.8-1.3,3.6-2.9,5.4-4.7s3.3-3.4,4.4-4.8C455.8,180.8,456.2,180.8,456.7,181.1z M446.2,175.4c-0.4,0.4-0.9,0.6-1.4,0.6
		c-0.6,0-1-0.2-1.4-0.6c-0.4-0.4-0.6-0.9-0.6-1.4s0.2-1,0.6-1.4s0.8-0.6,1.4-0.6c0.5,0,1,0.2,1.4,0.6c0.4,0.4,0.6,0.9,0.6,1.4
		C446.8,174.5,446.6,175,446.2,175.4z"/>
	<path class="st5" d="M485.2,181c0.5,0.3,0.7,0.7,0.4,1.2c-0.2,0.2-0.4,0.6-0.6,1s-0.7,1.2-1.5,2.4s-1.5,2.2-2.3,3.2
		s-1.7,2.1-2.8,3.2c-1.1,1.1-2.2,2-3.2,2.6c-0.1,0.1-0.2,0.2-0.2,0.2c-2.2,1.2-4.2,1.8-6,1.8c-2,0-3.4-1.1-4.1-3.3
		c-0.4-1.1-0.6-3.1-0.7-5.9c-0.1-1.9-0.2-3.3-0.4-4.2c-0.2-0.9-0.5-1.3-1-1.3c-0.7,0-1.7,0.7-3,2.1c-0.4,0.4-0.7,0.9-1.1,1.3
		c-0.2,0.3-0.5,0.6-0.8,1c-1.1,1.5-2,3.1-2.7,4.7c-0.8,1.6-1.2,2.8-1.3,3.7v0.1c0,0.1,0,0.2-0.1,0.3c-0.2,0.6-0.7,0.8-1.3,0.8
		c-0.6,0-1.1-0.3-1.4-0.9c-0.4-0.6-0.6-1.2-0.6-2c0-2.1,0.5-4.5,1.4-7.2c1-3,2.5-6.1,4.5-9.3c0.5-0.8,1.1-1.3,2-1.7
		c0.9-0.3,1.6-0.3,2.1,0.1c0.3,0.2,0.5,0.5,0.6,0.8c0.1,0.4,0,0.8-0.2,1.2c-1.3,2.2-2.3,3.9-2.9,5c-0.8,1.4-1.5,2.8-2,4
		c0.2-0.3,0.4-0.5,0.6-0.8c0.2-0.4,0.5-0.7,0.8-1.1v-0.1c0.3-0.4,0.6-0.7,0.9-1.1l0.1-0.1c2.3-2.7,4.4-4.1,6.1-4.1
		c0.6,0,1.1,0.1,1.5,0.3s0.8,0.5,1.1,1c0.3,0.5,0.5,0.9,0.7,1.3c0.2,0.4,0.3,1,0.4,1.7s0.1,1.3,0.2,1.8c0,0.5,0.1,1.1,0.1,1.9
		c0,1.3,0.1,2.3,0.2,3s0.2,1.5,0.4,2.2c0.2,0.7,0.5,1.2,0.9,1.5s0.9,0.5,1.5,0.5c0.8,0,1.7-0.3,2.7-0.8c1-0.6,2.1-1.4,3.2-2.6
		c1.1-1.1,2.2-2.3,3.1-3.6s1.7-2.4,2.3-3.4c0.6-1,1.1-1.8,1.5-2.5C484.2,180.9,484.6,180.7,485.2,181z"/>
	<path class="st5" d="M486.2,192.9c0.4-0.3,0.9-0.5,1.4-0.4s1,0.3,1.3,0.6s0.5,0.8,0.4,1.4c-0.1,0.9-0.8,2-2,3.2
		c-0.4,0.4-0.7,0.5-1.1,0.5c-0.4-0.1-0.3-0.6,0.4-1.7c0.1-0.2,0.2-0.3,0.2-0.3c-0.4,0-0.7-0.3-1-0.7c-0.3-0.5-0.4-0.9-0.4-1.3
		C485.6,193.7,485.8,193.2,486.2,192.9z"/>
	<path class="st5" d="M548.1,163.7c0.4,0.5,0.3,0.9-0.1,1.2c-1.7,1.3-3.6,2.4-5.7,3.2c-2.1,0.8-4.9,1.1-8.2,1.1
		c-2.7,0-5.6-0.3-8.7-0.9c-10.7,15.2-16,26.4-16,33.5c0,1.8,0.3,3.1,0.9,4c0.2,0.3,0.2,0.6,0,0.9c-0.2,0.3-0.4,0.4-0.8,0.4
		s-0.7-0.1-1.1-0.2c-0.4-0.1-0.7-0.4-1.1-0.8c-0.4-0.4-0.8-1.1-1-2c-0.3-0.9-0.4-2.1-0.4-3.4c0-1.9,0.4-4.1,1.1-6.6s1.6-4.9,2.7-7.2
		s2.3-4.8,3.7-7.3c1.4-2.5,2.8-4.8,4-6.7s2.5-3.8,3.8-5.5c-1.7-0.4-4.3-1.2-7.7-2.2c-2.9-0.8-5.1-1.5-6.7-1.9s-3.5-0.9-6-1.3
		c-2.4-0.4-4.6-0.6-6.7-0.6c-7.8,0-13.8,2.2-17.9,6.7c-0.4,0.4-0.8,0.4-1.2,0c-0.4-0.4-0.5-0.8-0.1-1.3c0.9-0.9,1.8-1.7,2.7-2.4
		c0.9-0.7,2.2-1.5,3.7-2.3s3.4-1.4,5.6-1.8c2.2-0.4,4.6-0.6,7.2-0.6c2.1,0,4.4,0.2,7,0.6c2.5,0.4,4.6,0.9,6.2,1.3
		c1.6,0.4,3.8,1.1,6.6,1.9c3.7,1.1,6.5,1.8,8.3,2.3c0.8-1.1,1.5-2.1,2.1-2.8c0.5-0.6,1.2-1.2,2.2-1.6c0.9-0.5,1.7-0.5,2.2-0.1
		c0.7,0.6,0.6,1.4-0.2,2.5c-0.1,0.2-0.3,0.5-0.7,1c-0.6,0.8-1,1.4-1.3,1.8c2.7,0.5,5.2,0.7,7.6,0.7c1.8,0,3.5-0.1,5-0.4
		c1.5-0.3,2.8-0.6,3.8-1.1s1.8-0.9,2.3-1.2s1.1-0.7,1.6-1.2C547.3,163.2,547.7,163.3,548.1,163.7z"/>
	<path class="st5" d="M553.2,181.1c0.5,0.3,0.6,0.8,0.2,1.3c-4.9,6.6-9.4,11.7-13.6,15.3l-0.1,0.1c0,0-0.1,0-0.1,0.1
		c-2.9,2.4-5.2,3.6-6.9,3.6c-2.9,0-4.4-1.8-4.4-5.5c0-1.8,0.4-3.7,1.1-5.8c-1.4,0.9-2.7,1.4-3.8,1.4c-1,0-1.9-0.4-2.5-1.2
		c-0.7-0.8-1-1.9-1-3.2c0-1.5,0.5-3.1,1.4-4.8s2.3-3.2,4-4.4c1.7-1.3,3.5-1.9,5.4-1.9c0.7,0,1.5,0.2,2.1,0.5h0.1
		c0.5,0.3,1,0.7,1.4,1.2c0,0,0.1,0,0.1,0.1c0.6,0.8,1,1.8,1.2,2.9l0.1,0.1c0.9,0.7,1,1.6,0.3,2.7c-0.1,0.1-0.3,0.4-0.6,0.8
		c-3.5,4.9-5.2,8.9-5.2,12c0,0.8,0.1,1.4,0.3,1.8c0.2,0.4,0.4,0.6,0.5,0.7c0.2,0.1,0.4,0.1,0.6,0.1c1.1,0,2.6-0.9,4.7-2.6l0.1-0.1
		c2.2-1.8,4.5-4.2,7-7.1c2.5-2.9,4.6-5.5,6.3-7.8C552.3,180.8,552.7,180.8,553.2,181.1z M530.6,186.9c0.2-0.2,0.4-0.3,0.6-0.5
		c1.1-2,2.2-3.7,3.5-5.1c0.4-0.4,0.8-0.7,1.4-0.8c-0.2-0.6-0.4-1.2-0.7-1.6h-0.1l-0.1-0.1c0-0.1-0.1-0.1-0.2-0.2
		c-0.1-0.1-0.2-0.1-0.2-0.2c0,0,0-0.1-0.1-0.1c-0.4-0.2-0.7-0.4-1.2-0.4c-1.4,0-2.9,1.1-4.6,3.2c-1.6,2.1-2.4,4.1-2.4,6
		c0,0.5,0.1,0.9,0.2,1.2c0.1,0.3,0.3,0.5,0.6,0.5C528,188.7,529.1,188.1,530.6,186.9z"/>
	<path class="st5" d="M574.9,213.5c0.3,0,0.5,0.1,0.6,0.3c0.2,0.2,0.2,0.4,0.2,0.6s-0.1,0.4-0.2,0.6c-0.2,0.2-0.4,0.3-0.6,0.3h-0.1
		h-0.1c-0.2,0-0.5,0-0.7,0c-5.7-0.2-10.2-2.2-13.4-6.1c-0.9-1.1-1.7-2.4-2.5-3.9s-1.3-2.7-1.7-3.7s-0.9-2.3-1.4-4.1
		c-0.8-2.5-1.5-4.3-2.1-5.4c-0.6-1.1-1.3-1.7-2.2-1.9c-1.4,3.5-2.1,6.2-2.1,8.1v0.1c0,0.5,0,0.9-0.1,1.1c-0.2,0.6-0.7,0.8-1.3,0.8
		s-1.1-0.3-1.4-0.9c-0.4-0.6-0.6-1.3-0.6-2c0-2.4,0.6-5.3,1.9-8.6c1.2-3.4,2.7-6.5,4.4-9.5s3.4-5.7,5.1-8.1c1.7-2.4,3.1-4.1,4.1-5.1
		c0.5-0.5,1.3-0.8,2.4-0.8c0.7,0,1.2,0.2,1.5,0.5c0.5,0.6,0.5,1.2-0.2,1.9c-1.6,1.7-3.7,4.5-6.2,8.4s-4.6,7.7-6.3,11.3
		c0.1,0,0.2,0.1,0.3,0.1c3.1,0,7.7-3.1,14-9.1c0.1,0,0.2-0.1,0.4-0.3s0.3-0.3,0.4-0.4c0.4-0.4,0.8-0.4,1.2,0.1
		c0.4,0.4,0.4,0.8-0.1,1.2c-0.2,0.2-0.4,0.4-0.6,0.6c-5.3,5-9.5,8-12.7,9.1c0.7,0.6,1.4,1.5,2.1,2.6c0.7,1.1,1.2,2.1,1.6,3
		c0.4,0.9,0.9,2.2,1.5,3.9c0.5,1.3,0.9,2.3,1.2,3s0.7,1.6,1.3,2.9c0.6,1.2,1.1,2.2,1.5,2.9c0.5,0.7,1,1.5,1.8,2.4
		c0.7,0.9,1.5,1.6,2.2,2.1c0.8,0.5,1.7,0.9,2.7,1.3c1,0.4,2.1,0.6,3.3,0.7c0.2,0,0.3,0,0.4,0C574.5,213.5,574.7,213.5,574.9,213.5z"
		/>
	<path class="st5" d="M598.1,181.3c0.5,0.4,0.5,0.8,0.1,1.3c-1.5,1.8-3.3,3.7-5.5,5.6c-2.2,1.9-4.5,3.6-6.9,5c0,0-0.2,0.1-0.4,0.2
		c0,0,0,0.1-0.1,0.1c-3.7,2-6.9,3.1-9.8,3.1c-0.3,0-0.6,0-0.9-0.1c-0.3-0.1-0.7-0.2-1.2-0.3s-0.9-0.4-1.3-0.7
		c-0.4-0.3-0.8-0.7-1.1-1.1c-0.4-0.5-0.7-1.1-0.9-1.8c-0.2-0.8-0.3-1.6-0.3-2.6c0-3.4,1.4-6.6,4.1-9.5c1.3-1.4,2.6-2.5,4.1-3.3
		s2.9-1.2,4.3-1.2c1.1,0,1.8,0.5,2.1,1.4c0,0.1,0.1,0.2,0.1,0.4c0.2,1.2-0.5,2.6-2,4.1c-1.6,1.5-4.1,2.9-7.6,4.1
		c-0.6,1.3-0.8,2.6-0.8,3.9c0,1.5,0.3,2.6,0.9,3.3c0.6,0.7,1.6,1.1,2.9,1.1c1.8,0,4-0.6,6.4-1.9c1.6-0.9,3.3-2,4.9-3.2
		s3.1-2.5,4.4-3.7s2.4-2.4,3.4-3.6C597.2,181,597.6,181,598.1,181.3z M582.6,178.4c-1.1,0.2-2.2,0.7-3.4,1.6c-1.2,0.9-2.2,2-3.1,3.3
		c2.1-0.9,3.6-1.7,4.7-2.6C581.7,179.8,582.4,179,582.6,178.4z"/>
	<path class="st5" d="M645.5,181.1c0.5,0.3,0.6,0.8,0.2,1.3c-4.9,6.6-9.4,11.7-13.6,15.3H632c0,0-0.1,0-0.1,0.1
		c-2.9,2.4-5.2,3.6-6.9,3.6c-2.9,0-4.4-1.8-4.4-5.5c0-1.8,0.4-3.7,1.1-5.8c-1.4,0.9-2.7,1.4-3.8,1.4c-1,0-1.9-0.4-2.5-1.2
		c-0.7-0.8-1-1.9-1-3.2c0-1.5,0.5-3.1,1.4-4.8s2.3-3.2,4-4.4c1.7-1.3,3.5-1.9,5.4-1.9c0.7,0,1.5,0.2,2.1,0.5h0.1
		c0.5,0.3,1,0.7,1.4,1.2c0,0,0.1,0,0.1,0.1c0.6,0.8,1,1.8,1.2,2.9l0.1,0.1c0.9,0.7,1,1.6,0.3,2.7c-0.1,0.1-0.3,0.4-0.6,0.8
		c-3.5,4.9-5.2,8.9-5.2,12c0,0.8,0.1,1.4,0.3,1.8c0.2,0.4,0.4,0.6,0.5,0.7c0.2,0.1,0.4,0.1,0.6,0.1c1.1,0,2.6-0.9,4.7-2.6l0.1-0.1
		c2.2-1.8,4.5-4.2,7-7.1c2.5-2.9,4.6-5.5,6.3-7.8C644.6,180.8,645,180.8,645.5,181.1z M622.9,186.9c0.2-0.2,0.4-0.3,0.6-0.5
		c1.1-2,2.2-3.7,3.5-5.1c0.4-0.4,0.8-0.7,1.4-0.8c-0.2-0.6-0.4-1.2-0.7-1.6h-0.1l-0.1-0.1c0-0.1-0.1-0.1-0.2-0.2
		c-0.1-0.1-0.2-0.1-0.2-0.2c0,0,0-0.1-0.1-0.1c-0.4-0.2-0.7-0.4-1.2-0.4c-1.4,0-2.9,1.1-4.6,3.2c-1.6,2.1-2.4,4.1-2.4,6
		c0,0.5,0.1,0.9,0.2,1.2c0.1,0.3,0.3,0.5,0.6,0.5C620.3,188.7,621.4,188.1,622.9,186.9z"/>
	<path class="st5" d="M699.8,163.7c0.4,0.5,0.3,0.9-0.1,1.2c-1.7,1.3-3.6,2.4-5.7,3.2c-2.1,0.8-4.9,1.1-8.2,1.1
		c-2.7,0-5.6-0.3-8.7-0.9c-10.7,15.2-16,26.4-16,33.5c0,1.8,0.3,3.1,0.9,4c0.2,0.3,0.2,0.6,0,0.9c-0.2,0.3-0.4,0.4-0.8,0.4
		s-0.7-0.1-1.1-0.2c-0.4-0.1-0.7-0.4-1.1-0.8c-0.4-0.4-0.8-1.1-1-2c-0.3-0.9-0.4-2.1-0.4-3.4c0-1.9,0.4-4.1,1.1-6.6
		c0.7-2.5,1.6-4.9,2.7-7.2s2.3-4.8,3.7-7.3s2.8-4.8,4-6.7s2.5-3.8,3.8-5.5c-1.7-0.4-4.3-1.2-7.7-2.2c-2.9-0.8-5.1-1.5-6.7-1.9
		c-1.6-0.4-3.5-0.9-6-1.3c-2.4-0.4-4.6-0.6-6.7-0.6c-7.8,0-13.8,2.2-17.9,6.7c-0.4,0.4-0.8,0.4-1.2,0s-0.5-0.8-0.1-1.3
		c0.9-0.9,1.8-1.7,2.7-2.4s2.2-1.5,3.7-2.3s3.4-1.4,5.6-1.8c2.2-0.4,4.6-0.6,7.2-0.6c2.1,0,4.4,0.2,7,0.6c2.5,0.4,4.6,0.9,6.2,1.3
		c1.6,0.4,3.8,1.1,6.6,1.9c3.7,1.1,6.5,1.8,8.3,2.3c0.8-1.1,1.5-2.1,2.1-2.8c0.5-0.6,1.2-1.2,2.2-1.6c0.9-0.5,1.7-0.5,2.2-0.1
		c0.7,0.6,0.6,1.4-0.2,2.5c-0.1,0.2-0.3,0.5-0.7,1c-0.6,0.8-1,1.4-1.3,1.8c2.7,0.5,5.2,0.7,7.6,0.7c1.8,0,3.5-0.1,5-0.4
		c1.5-0.3,2.8-0.6,3.8-1.1s1.8-0.9,2.3-1.2s1.1-0.7,1.6-1.2C699,163.2,699.4,163.3,699.8,163.7z"/>
	<path class="st5" d="M695.1,178.9c0.2,0.6,0.1,0.9-0.5,1.2c-1.3,0.6-3.2,0.8-5.6,0.9c-2,0-3.4,0.2-4.2,0.6
		c-1.3,0.7-2.9,2.4-4.7,5.2s-3.1,5.6-4,8.4c0,0.1,0,0.1-0.1,0.2c-0.2,0.6-0.7,0.8-1.3,0.8s-1.1-0.3-1.4-0.9c-0.4-0.6-0.6-1.2-0.6-2
		c0-2.1,0.5-4.5,1.4-7.2c1-3,2.5-6.1,4.5-9.3c0.5-0.8,1.1-1.4,2-1.7s1.6-0.2,2.1,0.1c0.3,0.2,0.5,0.5,0.6,0.8s0,0.8-0.2,1.2
		c-1.3,2.2-2.3,3.8-2.9,5c-0.9,1.7-1.7,3.3-2.3,4.8c2.2-3.8,4.3-6.1,6.2-7.1c1.1-0.5,2.7-0.8,5-0.8c2.2,0,3.8-0.3,4.9-0.8
		c0.2-0.1,0.5-0.1,0.7,0C694.9,178.6,695.1,178.7,695.1,178.9z"/>
	<path class="st5" d="M725.4,181.1c0.5,0.3,0.6,0.8,0.2,1.3c-4.9,6.6-9.4,11.7-13.6,15.3l0,0c0,0-0.1,0-0.1,0.1
		c-2.9,2.4-5.2,3.6-6.9,3.6c-2.9,0-4.4-1.8-4.4-5.5c0-1.8,0.4-3.7,1.1-5.8c-1.4,0.9-2.7,1.4-3.8,1.4c-1,0-1.9-0.4-2.5-1.2
		c-0.7-0.8-1-1.9-1-3.2c0-1.5,0.5-3.1,1.4-4.8s2.3-3.2,4-4.4c1.7-1.3,3.5-1.9,5.4-1.9c0.7,0,1.5,0.2,2.1,0.5h0.1
		c0.5,0.3,1,0.7,1.4,1.2c0,0,0.1,0,0.1,0.1c0.6,0.8,1,1.8,1.2,2.9l0.1,0.1c0.9,0.7,1,1.6,0.3,2.7c-0.1,0.1-0.3,0.4-0.6,0.8
		c-3.5,4.9-5.2,8.9-5.2,12c0,0.8,0.1,1.4,0.3,1.8c0.2,0.4,0.4,0.6,0.5,0.7c0.2,0.1,0.4,0.1,0.6,0.1c1.1,0,2.6-0.9,4.7-2.6l0.1-0.1
		c2.2-1.8,4.5-4.2,7-7.1c2.5-2.9,4.6-5.5,6.3-7.8C724.6,180.8,725,180.8,725.4,181.1z M702.8,186.9c0.2-0.2,0.4-0.3,0.6-0.5
		c1.1-2,2.2-3.7,3.5-5.1c0.4-0.4,0.8-0.7,1.4-0.8c-0.2-0.6-0.4-1.2-0.7-1.6h-0.1l-0.1-0.1c0-0.1-0.1-0.1-0.2-0.2
		c-0.1-0.1-0.2-0.1-0.2-0.2c0,0,0-0.1-0.1-0.1c-0.4-0.2-0.7-0.4-1.2-0.4c-1.4,0-2.9,1.1-4.6,3.2c-1.6,2.1-2.4,4.1-2.4,6
		c0,0.5,0.1,0.9,0.2,1.2c0.1,0.3,0.3,0.5,0.6,0.5C700.3,188.7,701.4,188.1,702.8,186.9z"/>
	<path class="st5" d="M766,181c0.5,0.3,0.7,0.7,0.4,1.2c-0.4,0.7-0.9,1.7-1.5,2.7c-0.6,1.1-1.7,2.7-3.4,4.8
		c-1.6,2.1-3.1,3.7-4.5,4.8h-0.1l-0.1,0.1c-1.9,1.4-3.9,2.1-5.9,2.1s-3.4-1-4.3-3c-0.4-1.1-0.7-2.9-0.9-5.4c-0.2-1.7-0.3-3-0.6-3.8
		c-0.2-0.8-0.6-1.2-1.1-1.2c-0.3,0-0.7,0.1-1.2,0.4c-0.5,0.3-0.9,0.6-1.4,0.9s-0.8,0.7-1.1,1.1l-0.1,0.1c-2.1,2.5-3.5,5.6-4.2,9.2
		c0,0.4-0.1,0.8-0.4,1.1c-0.3,0.3-0.6,0.5-1.1,0.5c-0.6,0-1.1-0.3-1.7-0.9c-0.5-0.6-0.8-1.3-0.8-2.1c0-1.7,0.6-4.4,1.7-8.4
		c1.3-4.2,1.7-6.6,1.2-7.2c-0.1-0.2-0.4-0.2-0.7-0.2c-0.8,0-2.2,1.2-4.2,3.5c0,0-0.1,0-0.1,0.1c-0.6,0.7-1.1,1.4-1.6,2.1
		c-3.1,4.3-5,8.1-5.8,11.5c0,0.1,0,0.2-0.1,0.3c0,0.2-0.1,0.4-0.2,0.5c-0.2,0.3-0.6,0.5-1.1,0.5c-0.6,0-1.1-0.3-1.4-0.9
		c-0.4-0.6-0.6-1.3-0.6-2c0-2.1,0.5-4.5,1.4-7.2c1-3,2.5-6.1,4.5-9.3c0.5-0.8,1.1-1.4,2-1.7s1.6-0.3,2.1,0.1
		c0.3,0.2,0.5,0.5,0.6,0.8s0,0.8-0.2,1.3c-1.3,2.2-2.3,3.8-2.9,5c-0.4,0.7-0.7,1.4-1.1,2.1c0.4-0.6,0.9-1.3,1.3-1.9
		c0.8-1.1,1.6-2.1,2.4-3c0.8-0.9,1.9-1.9,3.2-2.9s2.5-1.5,3.6-1.5c1.2,0,2.1,0.4,2.7,1.2c0.5,0.6,0.7,1.4,0.7,2.6
		c0,1.1-0.1,2.2-0.4,3.1c-0.2,1-0.6,2.3-1.1,4.2c0.3-0.5,0.6-0.9,1-1.3c0,0,0-0.1,0.1-0.1c0-0.1,0.1-0.1,0.1-0.1
		c2-2.4,4.2-3.5,6.5-3.5c0.7,0,1.3,0.1,1.8,0.4c0.5,0.3,0.9,0.6,1.1,1c0.3,0.4,0.5,1,0.7,1.7s0.3,1.4,0.4,1.8
		c0.1,0.5,0.1,1.2,0.2,2.1c0.2,2.2,0.5,3.8,0.9,4.8c0.4,0.9,1.2,1.4,2.3,1.4c0.8,0,1.7-0.4,2.8-1.1c1.5-1.1,3.2-2.9,4.9-5.2
		s3.1-4.5,4.1-6.5C765,180.9,765.5,180.7,766,181z"/>
</g>
<g>
	<line class="st21" x1="1133.3" y1="251.7" x2="1337.2" y2="251.7"/>
	<g class="st22">
		<path class="st23" d="M1155.7,133.9v26.7h6.5v7.1h-21.4v-7.1h6.5v-26.7h-6.4c-0.1,3.8-0.3,6.7-0.6,9.7h-6.8
			c0.5-5.4,0.7-11.6,0.5-16.8h34.8c-0.2,5.2,0,11.4,0.5,16.8h-6.9c-0.3-3-0.5-5.9-0.5-9.7H1155.7z"/>
		<path class="st23" d="M1205.1,160.8v6.7c-1.6,0.3-2.9,0.4-4.5,0.4c-4.7,0-6.4-1.6-6.7-4.8c-2,3.2-5.6,5.1-10.8,5.1
			c-6.7,0-10.5-4-10.5-9.6c0-6.4,6.1-8.9,14.7-8.9c2,0,3.9,0.1,5.7,0.4v-1.4c0-3.7-1.5-5.9-5.6-5.9c-3.7,0-5.6,1.5-6.3,4.8l-7.5-1.3
			c0.9-6.7,6.1-10.2,13.8-10.2c10.3,0,13.4,5.2,13.4,12.9v7v4.7H1205.1z M1192.9,157.9V155c-1.5-0.2-3.1-0.3-4.6-0.3
			c-4.7,0-7.3,1-7.3,3.7c0,2.4,1.7,3.8,4.8,3.8C1189,162.2,1191.7,160.5,1192.9,157.9z"/>
		<path class="st23" d="M1242.1,152.1c0,9.7-5.3,16.1-13.7,16.1c-4.5,0-7.7-1.8-9.6-4.9v10h6v6.9h-18.7v-6.9h4.9v-29.5h-4.9v-7.1
			h11.7l0.1,5.8c1.8-4.2,5.2-6.4,10.4-6.4C1236.8,136.1,1242.1,142.5,1242.1,152.1z M1233.9,152.1c0-5.3-2.6-8.7-7.4-8.7
			c-4.7,0-7.9,3.5-7.9,8.7c0,5.3,3.1,8.9,7.9,8.9C1231.2,161,1233.9,157.5,1233.9,152.1z"/>
		<path class="st23" d="M1255.4,152.1c0-9.4,5.9-16,16-16c10.1,0,16,6.6,16,16c0,9.4-5.9,16.1-16,16.1
			C1261.3,168.2,1255.4,161.6,1255.4,152.1z M1279.4,152.1c0-5.4-3.2-8.7-8-8.7c-4.8,0-8,3.4-8,8.7c0,5.4,3.2,8.8,8,8.8
			C1276.2,161,1279.4,157.6,1279.4,152.1z"/>
		<path class="st23" d="M1329.8,160.8v6.9h-17.4v-6.9h4.4v-10.6c0-4.2-1.9-6.1-5.5-6.1c-4.3,0-7.1,2.9-7.1,8.9v7.8h4.6v6.9h-18.2
			v-6.9h5.8v-16.9h-5.8v-7.1h12.6l0,6.4c1.5-4.4,4.8-7,10.4-7c7.8,0,11,4.7,11,11.8v12.9H1329.8z"/>
	</g>
	<g class="st22">
		<path class="st24" d="M1155.7,133.9v26.7h6.5v7.1h-21.4v-7.1h6.5v-26.7h-6.4c-0.1,3.8-0.3,6.7-0.6,9.7h-6.8
			c0.5-5.4,0.7-11.6,0.5-16.8h34.8c-0.2,5.2,0,11.4,0.5,16.8h-6.9c-0.3-3-0.5-5.9-0.5-9.7H1155.7z"/>
		<path class="st24" d="M1205.1,160.8v6.7c-1.6,0.3-2.9,0.4-4.5,0.4c-4.7,0-6.4-1.6-6.7-4.8c-2,3.2-5.6,5.1-10.8,5.1
			c-6.7,0-10.5-4-10.5-9.6c0-6.4,6.1-8.9,14.7-8.9c2,0,3.9,0.1,5.7,0.4v-1.4c0-3.7-1.5-5.9-5.6-5.9c-3.7,0-5.6,1.5-6.3,4.8l-7.5-1.3
			c0.9-6.7,6.1-10.2,13.8-10.2c10.3,0,13.4,5.2,13.4,12.9v7v4.7H1205.1z M1192.9,157.9V155c-1.5-0.2-3.1-0.3-4.6-0.3
			c-4.7,0-7.3,1-7.3,3.7c0,2.4,1.7,3.8,4.8,3.8C1189,162.2,1191.7,160.5,1192.9,157.9z"/>
		<path class="st24" d="M1242.1,152.1c0,9.7-5.3,16.1-13.7,16.1c-4.5,0-7.7-1.8-9.6-4.9v10h6v6.9h-18.7v-6.9h4.9v-29.5h-4.9v-7.1
			h11.7l0.1,5.8c1.8-4.2,5.2-6.4,10.4-6.4C1236.8,136.1,1242.1,142.5,1242.1,152.1z M1233.9,152.1c0-5.3-2.6-8.7-7.4-8.7
			c-4.7,0-7.9,3.5-7.9,8.7c0,5.3,3.1,8.9,7.9,8.9C1231.2,161,1233.9,157.5,1233.9,152.1z"/>
		<path class="st24" d="M1255.4,152.1c0-9.4,5.9-16,16-16c10.1,0,16,6.6,16,16c0,9.4-5.9,16.1-16,16.1
			C1261.3,168.2,1255.4,161.6,1255.4,152.1z M1279.4,152.1c0-5.4-3.2-8.7-8-8.7c-4.8,0-8,3.4-8,8.7c0,5.4,3.2,8.8,8,8.8
			C1276.2,161,1279.4,157.6,1279.4,152.1z"/>
		<path class="st24" d="M1329.8,160.8v6.9h-17.4v-6.9h4.4v-10.6c0-4.2-1.9-6.1-5.5-6.1c-4.3,0-7.1,2.9-7.1,8.9v7.8h4.6v6.9h-18.2
			v-6.9h5.8v-16.9h-5.8v-7.1h12.6l0,6.4c1.5-4.4,4.8-7,10.4-7c7.8,0,11,4.7,11,11.8v12.9H1329.8z"/>
	</g>
	<g class="st22">
		<path class="st23" d="M1155.7,191.4V218h6.5v7.1h-21.4V218h6.5v-26.7h-6.4c-0.1,3.8-0.3,6.7-0.6,9.7h-6.8
			c0.5-5.4,0.7-11.6,0.5-16.8h34.8c-0.2,5.2,0,11.4,0.5,16.8h-6.9c-0.3-3-0.5-5.9-0.5-9.7H1155.7z"/>
		<path class="st23" d="M1205.1,218.3v6.7c-1.6,0.3-2.9,0.4-4.5,0.4c-4.7,0-6.4-1.6-6.7-4.8c-2,3.2-5.6,5.1-10.8,5.1
			c-6.7,0-10.5-4-10.5-9.6c0-6.4,6.1-8.9,14.7-8.9c2,0,3.9,0.1,5.7,0.4v-1.4c0-3.7-1.5-5.9-5.6-5.9c-3.7,0-5.6,1.5-6.3,4.8l-7.5-1.3
			c0.9-6.7,6.1-10.2,13.8-10.2c10.3,0,13.4,5.2,13.4,12.9v7v4.7H1205.1z M1192.9,215.4v-2.9c-1.5-0.2-3.1-0.3-4.6-0.3
			c-4.7,0-7.3,1-7.3,3.7c0,2.4,1.7,3.8,4.8,3.8C1189,219.7,1191.7,218,1192.9,215.4z"/>
		<path class="st23" d="M1242.1,209.6c0,9.7-5.3,16.1-13.7,16.1c-4.5,0-7.7-1.8-9.6-4.9v10h6v6.9h-18.7v-6.9h4.9v-29.5h-4.9v-7.1
			h11.7l0.1,5.8c1.8-4.2,5.2-6.4,10.4-6.4C1236.8,193.6,1242.1,200,1242.1,209.6z M1233.9,209.6c0-5.3-2.6-8.7-7.4-8.7
			c-4.7,0-7.9,3.5-7.9,8.7c0,5.3,3.1,8.9,7.9,8.9C1231.2,218.5,1233.9,215,1233.9,209.6z"/>
		<path class="st23" d="M1255.4,209.6c0-9.4,5.9-16,16-16c10.1,0,16,6.6,16,16c0,9.4-5.9,16.1-16,16.1
			C1261.3,225.7,1255.4,219.1,1255.4,209.6z M1279.4,209.6c0-5.4-3.2-8.7-8-8.7c-4.8,0-8,3.4-8,8.7c0,5.4,3.2,8.8,8,8.8
			C1276.2,218.5,1279.4,215.1,1279.4,209.6z"/>
		<path class="st23" d="M1303.3,194.2h5.8v7.1h-5.8v16.9h5.8v6.9h-18.5v-6.9h4.9v-16.9h-4.9v-7.1h4.9v-1.6c0-7.3,4.1-11.4,11.4-11.4
			c3.4,0,6,0.6,8.8,2.4l-2.7,6.3c-1.7-1.2-3.4-1.6-5.1-1.6c-3,0-4.6,1.5-4.6,4.4V194.2z M1325.3,192.1v2.2h8.4v7.1h-8.4v16.9h6.6
			v6.9h-19.3v-6.9h4.8v-16.9h-4.8v-7.1h4.8v-2.2c0-7.6,3.9-11.4,11.4-11.4c2.9,0,5.3,0.5,7.8,1.9l-2.2,6.7c-1.6-1.1-3.2-1.5-4.8-1.5
			C1326.7,187.7,1325.3,189.1,1325.3,192.1z"/>
	</g>
	<g class="st22">
		<path class="st24" d="M1155.7,191.4V218h6.5v7.1h-21.4V218h6.5v-26.7h-6.4c-0.1,3.8-0.3,6.7-0.6,9.7h-6.8
			c0.5-5.4,0.7-11.6,0.5-16.8h34.8c-0.2,5.2,0,11.4,0.5,16.8h-6.9c-0.3-3-0.5-5.9-0.5-9.7H1155.7z"/>
		<path class="st24" d="M1205.1,218.3v6.7c-1.6,0.3-2.9,0.4-4.5,0.4c-4.7,0-6.4-1.6-6.7-4.8c-2,3.2-5.6,5.1-10.8,5.1
			c-6.7,0-10.5-4-10.5-9.6c0-6.4,6.1-8.9,14.7-8.9c2,0,3.9,0.1,5.7,0.4v-1.4c0-3.7-1.5-5.9-5.6-5.9c-3.7,0-5.6,1.5-6.3,4.8l-7.5-1.3
			c0.9-6.7,6.1-10.2,13.8-10.2c10.3,0,13.4,5.2,13.4,12.9v7v4.7H1205.1z M1192.9,215.4v-2.9c-1.5-0.2-3.1-0.3-4.6-0.3
			c-4.7,0-7.3,1-7.3,3.7c0,2.4,1.7,3.8,4.8,3.8C1189,219.7,1191.7,218,1192.9,215.4z"/>
		<path class="st24" d="M1242.1,209.6c0,9.7-5.3,16.1-13.7,16.1c-4.5,0-7.7-1.8-9.6-4.9v10h6v6.9h-18.7v-6.9h4.9v-29.5h-4.9v-7.1
			h11.7l0.1,5.8c1.8-4.2,5.2-6.4,10.4-6.4C1236.8,193.6,1242.1,200,1242.1,209.6z M1233.9,209.6c0-5.3-2.6-8.7-7.4-8.7
			c-4.7,0-7.9,3.5-7.9,8.7c0,5.3,3.1,8.9,7.9,8.9C1231.2,218.5,1233.9,215,1233.9,209.6z"/>
		<path class="st24" d="M1255.4,209.6c0-9.4,5.9-16,16-16c10.1,0,16,6.6,16,16c0,9.4-5.9,16.1-16,16.1
			C1261.3,225.7,1255.4,219.1,1255.4,209.6z M1279.4,209.6c0-5.4-3.2-8.7-8-8.7c-4.8,0-8,3.4-8,8.7c0,5.4,3.2,8.8,8,8.8
			C1276.2,218.5,1279.4,215.1,1279.4,209.6z"/>
		<path class="st24" d="M1303.3,194.2h5.8v7.1h-5.8v16.9h5.8v6.9h-18.5v-6.9h4.9v-16.9h-4.9v-7.1h4.9v-1.6c0-7.3,4.1-11.4,11.4-11.4
			c3.4,0,6,0.6,8.8,2.4l-2.7,6.3c-1.7-1.2-3.4-1.6-5.1-1.6c-3,0-4.6,1.5-4.6,4.4V194.2z M1325.3,192.1v2.2h8.4v7.1h-8.4v16.9h6.6
			v6.9h-19.3v-6.9h4.8v-16.9h-4.8v-7.1h4.8v-2.2c0-7.6,3.9-11.4,11.4-11.4c2.9,0,5.3,0.5,7.8,1.9l-2.2,6.7c-1.6-1.1-3.2-1.5-4.8-1.5
			C1326.7,187.7,1325.3,189.1,1325.3,192.1z"/>
	</g>
	<g class="st22">
		<path class="st25" d="M1143.4,271.1V290h3.8v1.9h-9.8V290h3.8v-18.8h-5.9c0,1.9-0.2,3.6-0.3,5.4h-2c0.3-2.4,0.4-4.9,0.4-7.2h17.9
			c0,2.3,0.1,4.8,0.4,7.2h-2c-0.2-1.7-0.3-3.5-0.3-5.4H1143.4z"/>
		<path class="st25" d="M1167,275.1l-0.1,2.3c-3.4-0.9-7.2,1.4-7.2,6v6.6h4.2v1.8h-9.4V290h3.1v-12.9h-3.1v-1.9h5.1l-0.1,4
			C1160.7,275.9,1163.7,274.4,1167,275.1z"/>
		<path class="st25" d="M1185.3,290v1.8h-4.7c-0.1-1-0.1-1.8-0.1-2.5c-1.2,1.6-3.2,2.9-5.9,2.9c-3.3,0-5.6-1.8-5.6-4.8
			c0-3.6,3.4-4.7,7.8-4.7c1.2,0,2.4,0.1,3.6,0.2v-1.4c0-2.9-1.2-4.7-4.2-4.7c-2.6,0-4,1-4.8,3.2l-1.9-0.9c1.1-2.8,3.4-4.1,6.6-4.1
			c4.8,0,6.4,2.9,6.4,6.8v5.8c0,0.8,0,1.6,0,2.6H1185.3z M1180.3,287.4v-2.9c-1.2-0.1-2.4-0.2-3.5-0.2c-3.3,0-5.7,0.6-5.7,3
			c0,2,1.6,3,3.7,3C1177.3,290.3,1179.2,289.2,1180.3,287.4z"/>
		<path class="st25" d="M1204.1,277h-2.5l-5.4,14.8h-3.1l-5.4-14.8h-2.5v-1.8h7.9v1.8h-3.1l3,8.4c0.6,1.6,1.1,3.2,1.6,4.7
			c0.5-1.6,1.1-3.2,1.6-4.7l3-8.4h-3.1v-1.8h7.9V277z"/>
		<path class="st25" d="M1221.1,284.1h-13.3c0.2,3.6,2.5,6.1,6.3,6.1c2.5,0,4.2-0.9,5.4-2.3l1.4,1.3c-1.6,1.8-3.8,2.9-6.7,2.9
			c-5.2,0-8.5-3.8-8.5-8.7c0-4.8,3.1-8.6,7.9-8.6c4.8,0,7.6,3.3,7.6,8.3C1221.1,283.4,1221.1,283.8,1221.1,284.1z M1207.8,282.3
			h11.1c-0.3-3.5-2.1-5.6-5.4-5.6C1210.2,276.7,1208.2,279,1207.8,282.3z"/>
		<path class="st25" d="M1223.7,290h3.2v-20.5h-3.6v-1.9h5.7V290h3.2v1.8h-8.6V290z"/>
		<path class="st25" d="M1257.3,286c0,3.8-2.5,6.1-6.7,6.1c-3,0-5.2-1.3-6.6-3.5c0.1,1.1,0.2,2.1,0.2,3.2h-2c0-2.5-0.2-5-0.4-7.5h2
			c0.5,3.4,3,5.9,6.5,5.9c2.7,0,4.6-1.2,4.6-4.2c0-2.9-2.5-3.6-5.9-4.5c-3.8-1.1-6.9-2.4-6.9-6.5c0-4,3-6,6.6-6c2.8,0,5,1.2,6,3.5
			c0-1.1,0-2.1,0.1-3.2h2c-0.2,2.3-0.4,4.6-0.4,7h-2c-0.3-3.1-2.4-5.3-5.6-5.3c-2.8,0-4.4,1.6-4.4,3.9c0,2.9,2.4,3.6,5.5,4.6
			C1253.7,280.5,1257.3,281.5,1257.3,286z"/>
		<path class="st25" d="M1290.3,290v1.8h-7.9V290h2.8v-7.9c0-3.5-0.9-5.2-3.6-5.2c-3.2,0-5,2.3-5,6.2v6.9h2.6v1.8h-7.6V290h2.8v-7.9
			c0-3.5-0.9-5.2-3.6-5.2c-3.2,0-5,2.3-5,6.2v6.9h3.1v1.8h-8.4V290h3.1v-12.9h-3.1v-1.9h5.1l-0.1,3.2c0.9-2.2,2.7-3.6,5.6-3.6
			c2.8,0,4.3,1.3,5,3.7c0.9-2.2,2.8-3.7,5.7-3.7c3.8,0,5.4,2.5,5.4,6.9v8.3H1290.3z"/>
		<path class="st25" d="M1308.9,290v1.8h-4.7c-0.1-1-0.1-1.8-0.1-2.5c-1.2,1.6-3.2,2.9-5.9,2.9c-3.3,0-5.6-1.8-5.6-4.8
			c0-3.6,3.4-4.7,7.8-4.7c1.2,0,2.4,0.1,3.6,0.2v-1.4c0-2.9-1.2-4.7-4.2-4.7c-2.6,0-4,1-4.8,3.2l-1.9-0.9c1.1-2.8,3.4-4.1,6.6-4.1
			c4.8,0,6.4,2.9,6.4,6.8v5.8c0,0.8,0,1.6,0,2.6H1308.9z M1303.9,287.4v-2.9c-1.2-0.1-2.4-0.2-3.5-0.2c-3.3,0-5.7,0.6-5.7,3
			c0,2,1.6,3,3.7,3C1300.8,290.3,1302.8,289.2,1303.9,287.4z"/>
		<path class="st25" d="M1323.5,275.1l-0.1,2.3c-3.4-0.9-7.2,1.4-7.2,6v6.6h4.2v1.8h-9.4V290h3.1v-12.9h-3.1v-1.9h5.1l-0.1,4
			C1317.2,275.9,1320.2,274.4,1323.5,275.1z"/>
		<path class="st25" d="M1338.5,286v0.8c0,3.5-1.6,5.4-4.9,5.4c-3.1,0-4.8-1.9-4.8-5.7v-9.4h-3.5v-1.9h3.5v-4.9l2.1-0.3v5.2h7.5v1.9
			h-7.5v9.2c0,2.8,1,4,2.8,4c2.1,0,2.8-1.4,2.8-3.8v-0.8L1338.5,286z"/>
	</g>
</g>
</svg>
