<svg id="Layer_1" data-name="Layer 1" xmlns="http://www.w3.org/2000/svg" viewBox="0 0 70 70"><defs><style>.cls-1{fill:#005eff;}.cls-2{fill:#fff;}</style></defs><g id="Group_98" data-name="Group 98"><g id="Group_98-2" data-name="Group 98"><rect id="Rectangle_47" data-name="Rectangle 47" class="cls-1" x="5" y="5" width="60" height="60" rx="5"/><g id="Group_64" data-name="Group 64"><path id="Path_99" data-name="Path 99" class="cls-2" d="M17.08,23.55H28.9a7.63,7.63,0,0,1,2.8.47,5.33,5.33,0,0,1,3.56,4.59,6.32,6.32,0,0,1-.12,2.45,3.72,3.72,0,0,1-2.58,2.71.77.77,0,0,0-.31.16l.42.06a3.42,3.42,0,0,1,2.66,2,7.77,7.77,0,0,1,0,7.07A5.82,5.82,0,0,1,31.14,46a10.91,10.91,0,0,1-2.42.3c-3.77,0-7.55,0-11.33,0h-.3Zm5.21,18.69h6.05a5.72,5.72,0,0,0,.59,0,2.33,2.33,0,0,0,2.24-1.89,4.55,4.55,0,0,0,0-2.2,2.4,2.4,0,0,0-2.53-2H22.29Zm0-14.66v5.06c2.21,0,4.4,0,6.6,0a1.44,1.44,0,0,0,1.37-1.07,4.69,4.69,0,0,0,.1-2.65,1.67,1.67,0,0,0-1.77-1.33Z"/><path id="Path_100" data-name="Path 100" class="cls-2" d="M41.92,39.19A3.47,3.47,0,0,0,44.65,43a5.9,5.9,0,0,0,3-.1,2.43,2.43,0,0,0,1.91-2.19h4a5.4,5.4,0,0,1-1.44,3.9,6.24,6.24,0,0,1-2.9,1.67,11.92,11.92,0,0,1-6.8,0,7,7,0,0,1-5-5.1A10,10,0,0,1,38.51,33a7.45,7.45,0,0,1,6.06-3.6,10.62,10.62,0,0,1,3.64.22,6.67,6.67,0,0,1,4.95,4.71,12.39,12.39,0,0,1,.52,4.61c0,.3-.2.26-.38.26H41.92Zm7.39-3c0-.23,0-.43-.08-.62A3.24,3.24,0,0,0,47.52,33a4,4,0,0,0-4.77,1.06,4.71,4.71,0,0,0-.91,2.07Z"/><path id="Path_101" data-name="Path 101" class="cls-2" d="M40.87,27.67V24.9h9.34v2.77Z"/></g></g></g></svg>