<?xml version="1.0" encoding="utf-8"?>
<!-- Generator: Adobe Illustrator 26.0.1, SVG Export Plug-In . SVG Version: 6.00 Build 0)  -->
<svg version="1.1" id="Layer_1" xmlns="http://www.w3.org/2000/svg" xmlns:xlink="http://www.w3.org/1999/xlink" x="0px" y="0px"
	 viewBox="0 0 612 315.8" style="enable-background:new 0 0 612 315.8;" xml:space="preserve">
<style type="text/css">
	.st0{fill:#00B2AC;}
	.st1{fill:#F282B4;}
	.st2{enable-background:new    ;}
	.st3{fill:#4C2A11;}
	.st4{fill:none;stroke:#4C2A11;stroke-width:4.46;stroke-linecap:round;stroke-miterlimit:10;}
</style>
<path class="st0" d="M209.7,25.7L109.6,302.2c-9.2-3.3-16.5-10.6-19.7-19.9c-4.3-12.1-15.2-20.5-27.9-21.7c-2.8-0.3-5.5-0.9-8.2-1.8
	c-16.3-5.9-25.1-23.5-20.2-40.1c1.8-6,1.8-12.4,0.1-18.4c-1.7-6-5.2-11.4-9.9-15.5l0,0c-13.6-11.9-14.9-32.6-3-46.2
	c1.4-1.6,3-3.1,4.7-4.4c10.1-7.8,14.8-20.7,12-33.2c-4-17.6,7-35.2,24.7-39.2c2.1-0.5,4.3-0.8,6.5-0.8c12.8-0.3,24.2-8,29.2-19.8
	c7.1-16.6,26.4-24.3,43-17.1c2,0.9,3.9,1.9,5.6,3.1c2.3,1.6,4.8,2.8,7.4,3.8c9.2,3.3,19.4,2.4,27.9-2.6
	C190.3,23.3,200.5,22.4,209.7,25.7z"/>
<path class="st1" d="M281.8,227c4,17.6-7,35.2-24.7,39.2c-2.1,0.5-4.3,0.7-6.4,0.8l0,0c-12.8,0.3-24.2,8.1-29.2,19.8
	c-7.1,16.6-26.4,24.3-43,17.1c-2-0.9-3.9-1.9-5.7-3.1c-2.3-1.6-4.8-2.9-7.4-3.8c-9.2-3.3-19.4-2.4-27.9,2.6c-8.4,5-18.7,6-27.9,2.6
	L209.7,25.7c9.2,3.3,16.5,10.6,19.7,19.9c4.3,12,15.1,20.5,27.9,21.7c18,1.6,31.3,17.5,29.6,35.5c-0.2,2.2-0.6,4.3-1.2,6.5
	c-3.6,12.2,0.2,25.5,9.8,33.9l0,0c13.6,12,14.9,32.7,3,46.2c-1.4,1.6-3,3.1-4.7,4.4C283.7,201.5,279,214.5,281.8,227L281.8,227z"/>
<g class="st2">
	<path class="st3" d="M161.6,114.1c11.7,2.7,18.5,8.8,20.5,18.2c1.8,8.4-0.1,16.1-5.5,23c-7.2,9.2-18.5,15.4-33.6,18.6
		c-11.3,2.4-22.2,2.4-32.7,0.2c-10.3-2.2-18.7-6.6-25.2-13c-4.7-4.7-7.4-8.8-8.2-12.3c-0.3-1.3,1.2-2.8,4.4-4.5
		c4.5,4.2,11.6,7,21.2,8.6c1.9-4.2,4.5-10.1,7.7-17.7c3.2-7.6,5.7-13.5,7.5-17.8c1.8-4.3,3.6-8.4,5.5-12.3
		c4.1-8.8,7.8-15.6,11.2-20.4c1-1.6,3-2,5.8-1.4c0.8,0.2,1.4,0.4,1.9,0.7c-2.8,4.4-6.1,12.5-9.9,24.5c4.1,0.1,7.7-0.1,10.7-0.8
		c3-0.6,5.8-1.6,8.6-2.9c2.8-1.3,5.2-2.8,7.4-4.6c4.9-4,7-8.2,6.1-12.4c-1.7-8.2-9.2-12.5-22.3-13c-5.2-0.2-10.2,0.2-15,1.2
		c-4.9,1-9.4,2.3-13.5,3.9c-4.1,1.6-7.7,3.4-10.8,5.5c-6.7,4.7-9.5,9.9-8.3,15.6c1,4.8,3.7,8.5,8,11.1c-3,5-5.7,7.7-8,8.2
		c-2.7,0.6-5.5-0.4-8.4-2.7c-3-2.5-4.8-5.5-5.6-9c-0.7-3.5-0.7-6.8,0.3-9.7c0.9-3,2.4-5.8,4.5-8.4c2.1-2.6,4.6-5,7.6-7.3
		c3-2.2,6.3-4.3,9.8-6.1c6.8-3.5,13.1-5.9,18.9-7.1c5.8-1.2,10.7-2,14.7-2.3c4-0.3,7.8-0.3,11.6-0.1c3.7,0.3,7.3,0.9,10.6,1.8
		c3.3,0.9,6.3,2.2,9,3.8c5.6,3.5,9.1,8.3,10.4,14.5c1,5-0.1,9.9-3.4,14.7C172,107.2,167.6,110.9,161.6,114.1z M118.3,154.1
		c5.2-0.1,9.4-0.4,12.5-1.1c3.1-0.7,5.7-1.3,7.8-1.9c2.1-0.6,4.4-1.5,6.7-2.7c2.4-1.2,4.3-2.6,5.9-4.3c3.4-3.5,4.6-7.6,3.6-12.2
		c-0.9-4.5-4-7.7-9.2-9.6c-4.8-1.7-10.5-2-17.2-0.9c-0.9,3-1.7,5.9-2.6,8.9c-0.9,3-1.7,5.8-2.5,8.7
		C121.5,144.9,119.8,150,118.3,154.1z"/>
	<path class="st3" d="M229.3,60.5c4.8-1,8,2.5,9.7,10.5c2.2,10.6-1.8,23.1-12.2,37.7c-3.9,5.5-8.3,10.5-13,14.9
		c1.9,6.5,5.2,9.8,9.7,9.8c1.4,0,3.1-0.2,5-0.6c1.9-0.4,3.8-1.1,5.9-2c2.1-0.9,4-2.2,6-3.8c4.2-3.4,7.4-7.9,9.6-13.4
		c1.9-0.5,3,0.1,3.4,1.8c0.1,0.7,0,2.2-0.5,4.6c-0.5,2.4-1.6,5.6-3.3,9.6c-1.8,4-4.1,7.8-6.9,11.4c-6.6,8.2-14.8,13.3-24.5,15.4
		c-11.2,2.4-19-1-23.4-10.1c-1.4-2.8-2.5-6.1-3.3-9.8c-0.8-3.7-1-7.6-0.7-11.6c0.3-4,1-8.1,2.1-12.2c1.1-4.1,2.5-8.2,4.3-12.3
		c1.8-4.1,3.7-8,5.9-11.7c2.2-3.7,4.4-7.2,6.8-10.5c2.4-3.3,4.7-6.1,7.1-8.6C221.7,64.2,225.9,61.2,229.3,60.5z M212.1,115.8
		c6.3-6,11.2-12.7,14.8-20c3.7-7.4,5-13.6,4-18.5c-0.5-2.4-1.4-4.1-2.7-5c-0.4-0.3-1.1-0.4-1.9-0.2c-0.9,0.2-1.9,1-3.3,2.4
		c-1.3,1.4-2.6,3.2-3.8,5.5c-1.2,2.2-2.4,4.8-3.4,7.7c-1,2.9-1.9,5.9-2.6,9C211.8,103.8,211.4,110.1,212.1,115.8z"/>
	<path class="st3" d="M248.2,142.1c-1.3-1.7-2.3-4-2.8-6.8c-0.6-2.8-0.6-5.9,0-9.3c0.6-3.4,1.5-6.8,2.7-10.4c1.3-3.5,2.8-7,4.5-10.4
		c1.8-3.4,3.5-6.4,5.4-9.2c4.1-5.9,7.3-9.1,9.7-9.6c1-0.2,2.3,0,3.7,0.6s2.4,1.1,2.8,1.5c-5,8.3-7.7,15.9-8,22.7
		c-0.1,2.1,0,4.1,0.4,5.9c0.4,1.9,1.5,3.4,3.2,4.6c1.7,1.2,3.6,1.6,5.7,1.1c2.1-0.4,4-1.3,5.6-2.4c1.7-1.2,3.2-2.6,4.7-4.3
		c2.9-3.3,5.3-7.2,7.1-11.7c1.9-0.5,3,0.1,3.4,1.8c0.3,1.4-0.1,3.8-1.3,7.3c-1.1,3.4-2.4,6.4-3.6,9c-1.3,2.6-2.8,5.2-4.6,7.8
		c-1.8,2.6-3.9,5-6.2,7.3c-5.2,5-10.9,8.2-17.2,9.5C256.7,148.6,251.7,146.9,248.2,142.1z M284.4,68.2c-1.6,1.3-3.3,2.3-5.3,3.2
		c-1.9,0.9-3.7,1.5-5.2,1.8c-1.5,0.3-2.9,0.4-4.2,0.3c-1.3-0.1-2.5-0.4-3.5-0.9c-2.4-1.1-3.8-2.7-4.2-4.8c-0.4-2.1-0.4-4,0-5.6
		c0.4-1.6,1.3-3.1,2.5-4.4c2.6-2.9,6-4.8,10.3-5.7c4.3-0.9,7.6-0.7,9.9,0.7c2.3,1.3,3.7,3.2,4.2,5.4c0.5,2.3,0.3,4.2-0.7,5.7
		C287.2,65.5,285.9,66.9,284.4,68.2z"/>
	<path class="st3" d="M312.2,133.9c0.4,1.7-0.9,2.9-3.8,3.5c-7.1,1.5-12.8-0.3-17-5.3c-1.5-1.8-2.6-4.1-3.2-6.9
		c-0.6-2.8-0.8-5.7-0.5-8.6c0.2-2.9,0.8-5.9,1.6-8.9c0.8-3,1.8-5.9,3.1-8.9c1.3-2.9,2.7-5.6,4.2-8.2c3.3-5.4,6.6-9.5,10.1-12.1
		c0.9-0.7,1.8-1.1,2.6-1.3c0.8-0.2,1.5-0.3,2.1-0.4c1.4-0.2,2.6,0.1,3.5,0.9c-1.5,6.1-2.5,11.6-3.2,16.5c6.1-9.1,13.9-16.1,23.4-21
		c3.1-1.6,5.9-2.7,8.4-3.2s4-0.4,4.6,0.5c0.6,0.8,1,1.6,1.1,2.4c0.2,0.8,0.3,1.8,0.3,3.2c0.1,1.4-0.1,3.3-0.5,5.8
		c-0.4,2.5-0.8,5-1.3,7.6c-1.1,6.5-1.5,10.9-1,13c0.8,3.8,2.5,5.4,5.2,4.8c4.6-1,9.1-5.1,13.4-12.4c1.3-2.1,2.3-4.3,3.2-6.6
		c1.9-0.5,3,0.1,3.4,1.8c0.3,1.4-0.1,3.8-1.2,7.3c-1.1,3.5-2.2,6.6-3.3,9.2c-1.1,2.6-2.5,5.3-4,7.9c-1.6,2.6-3.3,5.1-5.4,7.3
		c-4.4,4.9-9.1,7.9-14.1,9c-5,1-9,0.5-12.2-1.5c-3.1-2.1-5.2-5.6-6.3-10.6c-1.6-7.4,0.4-17.1,6-29.1c1.7-3.6,2.4-5.4,2.1-5.3
		c-3.3,0.7-7.4,3.7-12.5,9.1c-5,5.4-8.6,10.7-10.7,16C310.2,117.9,310.8,126.1,312.2,133.9z"/>
	<path class="st3" d="M386.7,118.1c0.4,1.7-0.9,2.9-3.8,3.5c-2.9,0.6-5.4,0.8-7.5,0.7c-2.1-0.2-3.8-0.8-5.3-1.8
		c-2.7-1.9-4.7-5.8-5.9-11.6c-2-9.4,0.4-22,7-38c3.8-9,7.6-16.6,11.4-22.7c3.8-6.1,6.8-10.6,9.1-13.5c4.9-6.4,8.5-9.9,11-10.4
		c1.7-0.4,3.5,0.1,5.4,1.3c-6.5,9.8-12,21-16.3,33.5c-1.6,4.6-2.9,9.4-4,14.4c6.2-7.2,12.9-12.4,20.3-15.8c2.3-1.1,4.6-1.8,6.7-2.3
		c4.1-0.9,6.6,0.6,7.4,4.4c0.8,3.6-0.6,8.2-4,13.9c-3,4.9-6.5,9.2-10.6,12.7c1.5,2.5,3.1,4.4,4.6,5.6c1.6,1.2,3.3,1.6,5.3,1.2
		s3.8-1.2,5.5-2.4c1.7-1.2,3.2-2.6,4.7-4.3c2.9-3.3,5.3-7.2,7.1-11.7c1.9-0.5,3,0.1,3.4,1.8c0.3,1.4-0.1,3.8-1.3,7.2
		c-1.1,3.4-2.3,6.5-3.6,9c-1.2,2.6-2.7,5.2-4.4,7.8c-1.7,2.6-3.6,5-5.7,7.2c-4.7,5-9.7,8-14.9,9.1c-8.5,1.8-14.6-4.9-18.3-20
		c-0.5-2.1-0.9-4-1.3-5.8c4.8-3.1,8.9-6.3,12.4-9.6c3.4-3.3,5.8-5.8,7.2-7.4c3.1-3.8,4.4-6.7,3.9-8.8c-0.2-0.9-0.8-1.3-1.8-1.1
		s-2.2,0.7-3.5,1.4c-1.3,0.7-2.7,1.7-4.2,2.8c-1.5,1.2-3.2,2.5-4.8,4c-1.7,1.5-3.3,3.1-4.9,4.9c-3.5,4-6.1,7.7-7.7,11.2
		C384.4,98.5,384.9,108.4,386.7,118.1z"/>
</g>
<g class="st2">
	<path class="st3" d="M233.3,219.7c11.7,2.7,18.5,8.8,20.5,18.2c1.8,8.4-0.1,16.1-5.5,23c-7.2,9.2-18.5,15.4-33.6,18.6
		c-11.3,2.4-22.2,2.4-32.7,0.2c-10.3-2.2-18.7-6.6-25.2-13c-4.7-4.7-7.4-8.8-8.2-12.3c-0.3-1.3,1.2-2.8,4.4-4.5
		c4.5,4.2,11.6,7,21.2,8.6c1.9-4.2,4.5-10.1,7.7-17.7c3.2-7.6,5.7-13.5,7.5-17.8s3.6-8.4,5.5-12.3c4.1-8.8,7.8-15.6,11.2-20.4
		c1-1.6,3-2,5.8-1.4c0.8,0.2,1.4,0.4,1.9,0.7c-2.8,4.4-6.1,12.5-9.9,24.5c4.1,0.1,7.7-0.1,10.7-0.8c3-0.6,5.8-1.6,8.6-2.9
		c2.8-1.3,5.2-2.8,7.4-4.6c4.9-4,7-8.2,6.1-12.4c-1.7-8.2-9.2-12.5-22.3-13c-5.2-0.2-10.2,0.2-15,1.2c-4.9,1-9.4,2.3-13.5,3.9
		c-4.1,1.6-7.7,3.4-10.8,5.5c-6.7,4.7-9.5,9.9-8.3,15.6c1,4.8,3.7,8.5,8,11.1c-3,5-5.7,7.7-8,8.2c-2.7,0.6-5.5-0.4-8.4-2.7
		c-3-2.5-4.8-5.5-5.6-9c-0.7-3.5-0.7-6.8,0.3-9.7c0.9-3,2.4-5.8,4.5-8.4c2.1-2.6,4.6-5,7.6-7.3c3-2.2,6.3-4.3,9.8-6.1
		c6.8-3.5,13.1-5.9,18.9-7.1s10.7-2,14.7-2.3c4-0.3,7.8-0.3,11.6-0.1c3.7,0.3,7.3,0.9,10.6,1.8c3.3,0.9,6.3,2.2,9,3.8
		c5.6,3.5,9.1,8.3,10.4,14.5c1,5-0.1,9.9-3.4,14.7C243.7,212.8,239.3,216.6,233.3,219.7z M190,259.8c5.2-0.1,9.4-0.4,12.5-1.1
		s5.7-1.3,7.8-1.9c2.1-0.6,4.4-1.5,6.7-2.7c2.4-1.2,4.3-2.6,5.9-4.3c3.4-3.5,4.6-7.6,3.6-12.2c-0.9-4.5-4-7.7-9.2-9.6
		c-4.8-1.7-10.5-2-17.2-0.9c-0.9,3-1.7,5.9-2.6,8.9c-0.9,3-1.7,5.8-2.5,8.7C193.2,250.6,191.5,255.6,190,259.8z"/>
	<path class="st3" d="M304.2,248.1c-4.4,8.1-10.9,13-19.3,14.8c-5.4,1.1-10,0.4-13.9-2.1c-3.8-2.5-6.3-6.4-7.4-11.5
		c-1.4-6.6-0.1-13.5,3.7-20.7c3.7-7.1,9.2-13.3,16.5-18.8c7.5-5.7,15.8-9.4,24.7-11.3c3.4-0.7,5.9-0.7,7.6,0.1
		c0.9-1.6,1.7-2.6,2.6-3.1c0.9-0.4,1.6-0.7,2.1-0.8c1.6-0.3,3.4-0.5,5.4-0.4c-0.1,0.6-0.2,1.6-0.5,3.1c-0.3,1.5-0.6,3.2-0.9,5.2
		c-0.3,2-0.6,4.2-0.9,6.5c-1.1,8.4-1.3,14.5-0.5,18.4c0.8,3.9,2.4,5.6,4.9,5.1c3.2-0.7,6.4-2.9,9.7-6.5c2.9-3.3,5.3-7.2,7.1-11.7
		c1.9-0.5,3,0.1,3.4,1.8c0.3,1.5-0.1,3.9-1.3,7.3c-1.1,3.4-2.3,6.3-3.5,8.9c-1.2,2.5-2.6,5.1-4.2,7.6c-1.6,2.5-3.4,4.9-5.4,7
		c-4.4,4.8-9.1,7.7-14,8.7c-6.3,1.3-10.9,0.3-13.8-3c-0.9-1-1.5-2-1.7-2.8C304.4,248.8,304.3,248.3,304.2,248.1z M282.1,234.4
		c1,5,3.7,7,7.8,6.1c4.6-1,9.2-5.8,13.9-14.5c2.5-4.6,4.6-9,6.3-13.1c1.7-4.1,3-7.3,3.9-9.4c-10.7,2.3-19.1,6.7-25.2,13
		C283.1,222.4,280.9,228.4,282.1,234.4z"/>
	<path class="st3" d="M362.9,243.9c0.4,1.7-0.9,2.9-3.8,3.5c-2.9,0.6-5.4,0.8-7.5,0.7s-3.8-0.8-5.3-1.8c-2.7-1.9-4.7-5.8-5.9-11.6
		c-2-9.4,0.4-22,7-38c3.8-9,7.6-16.6,11.4-22.7c3.8-6.1,6.8-10.6,9.1-13.5c4.9-6.4,8.5-9.9,11-10.4c1.7-0.4,3.5,0.1,5.4,1.3
		c-6.5,9.8-12,21-16.3,33.5c-1.6,4.6-2.9,9.4-4,14.4c6.2-7.2,12.9-12.4,20.3-15.8c2.3-1.1,4.6-1.8,6.7-2.3c4.1-0.9,6.6,0.6,7.4,4.4
		c0.7,3.6-0.6,8.2-4,13.9c-3,4.9-6.5,9.2-10.6,12.7c1.5,2.5,3.1,4.4,4.6,5.6c1.6,1.2,3.3,1.6,5.3,1.2s3.8-1.2,5.5-2.4
		c1.7-1.2,3.2-2.6,4.7-4.3c2.9-3.3,5.3-7.2,7.1-11.7c1.9-0.5,3,0.1,3.4,1.8c0.3,1.4-0.1,3.8-1.3,7.2c-1.1,3.4-2.3,6.5-3.6,9
		c-1.2,2.6-2.7,5.2-4.4,7.8c-1.7,2.6-3.6,5-5.7,7.2c-4.7,5-9.7,8-14.9,9.1c-8.5,1.8-14.6-4.9-18.3-20c-0.5-2.1-0.9-4-1.3-5.8
		c4.8-3.1,8.9-6.3,12.4-9.6c3.4-3.3,5.8-5.8,7.2-7.4c3.1-3.8,4.4-6.7,3.9-8.8c-0.2-0.9-0.8-1.3-1.8-1.1c-1,0.2-2.2,0.7-3.5,1.4
		c-1.3,0.7-2.7,1.7-4.2,2.8c-1.5,1.2-3.2,2.5-4.8,4c-1.7,1.5-3.3,3.1-4.9,4.9c-3.5,4-6.1,7.7-7.7,11.2
		C360.6,224.3,361,234.2,362.9,243.9z"/>
	<path class="st3" d="M429.1,206.2c3.4,3.9,9.5,5,18.3,3.1c5.5-1.2,10.4-3.6,14.7-7.3c4.3-3.7,7.6-8.5,10-14.5
		c1.9-0.5,3,0.1,3.4,1.8c0.4,1.9-0.2,4.9-1.7,9.1c-1.5,4.1-3.1,7.5-4.6,10.1c-1.5,2.7-3.3,5.2-5.4,7.6c-2.1,2.4-4.4,4.6-6.9,6.6
		c-5.5,4.3-11.6,7.2-18.4,8.6c-13.6,2.9-23.3,1-29-5.7c-2-2.4-3.4-5.4-4.2-9c-0.7-3.5-0.8-6.9-0.2-10.1c0.6-3.2,1.7-6.4,3.3-9.5
		c1.6-3.1,3.6-6.1,6.1-9c2.5-2.9,5.3-5.5,8.4-7.9c6.6-5.1,13.8-8.5,21.5-10.1c5.5-1.2,9.7-0.2,12.5,2.8c1,1,1.7,2.6,2.1,4.6
		c0.4,2,0.3,4.1-0.3,6.2c-0.6,2.1-1.6,4.2-3,6.1c-1.4,1.9-3.1,3.7-5.1,5.4c-2,1.7-4.2,3.2-6.6,4.6
		C439.8,202.1,434.9,204.3,429.1,206.2z M427,200.4c5.4-1.8,9.8-4.3,13.2-7.5c3.6-3.4,5.1-6.9,4.3-10.4c-0.7-3.5-2.7-4.8-5.9-4.2
		c-4.1,0.9-7.3,3.6-9.5,8.2C427,190.9,426.3,195.5,427,200.4z"/>
	<path class="st3" d="M493.9,178.6c-5.2,0.8-9.7,1.2-13.5,1.2c-2.8,8.6-5.7,16.4-8.7,23.3c-0.4,1-1.6,1.5-3.6,1.5
		c-3.7,0-5.9-0.5-6.6-1.4c6.5-7,10.4-15,11.7-24c-4.9-1.1-7.8-3.6-8.6-7.3c-0.5-2.3,0.4-5.6,2.7-9.8c2.1-4.1,3.9-6.3,5.3-6.6
		c4.2-0.9,7.6-0.5,10.3,1.2c1,0.6,1.7,1.6,2,3c0.3,1.4,0,3.8-0.8,7.2c7.3,1.8,16,2,26.2,0.4c0.3,3-0.4,5.7-2.2,8
		c-0.5,0.7-1,1.1-1.6,1.2c-2.5,3.4-4,6.8-4.6,10.3c-0.2,1.1-0.2,2.1,0,3.1c0.8,4,3.6,5.5,8.4,4.5c3.2-0.7,6.5-2.9,9.8-6.6
		c2.9-3.3,5.3-7.2,7.1-11.7c1.9-0.5,3,0.1,3.4,1.8c0.3,1.5-0.1,3.9-1.3,7.3c-1.1,3.4-2.3,6.3-3.5,8.9c-1.2,2.5-2.6,5.1-4.2,7.6
		c-1.6,2.5-3.4,4.9-5.4,7c-4.4,4.8-9.1,7.7-14.1,8.7c-8.5,1.8-14.7,0.4-18.6-4.3c-1.4-1.5-2.3-3.5-2.8-5.8c-0.5-2.3-0.5-4.7,0-7.2
		c0.5-2.5,1.3-5,2.6-7.5C485.7,187.3,489.3,182.7,493.9,178.6z"/>
	<path class="st3" d="M562.4,191.7c-6.1,8.7-12.4,13.7-19.1,15.1c-4.4,0.9-8.3,0.4-11.8-1.7c-3.8-2.2-6.2-5.8-7.3-11
		c-1.3-6-0.5-12.7,2.3-20.1c2.4-6.3,5.6-12,9.8-17.3c3.9-4.9,7-7.6,9.4-8.1c1.5-0.3,2.9,0.1,4.1,1.2c-2.4,2.8-4.3,6.2-5.8,10.2
		c-2.7,7.6-3.7,13-3,16.4c1.5,7.1,4.2,10.2,8,9.4c4-0.8,8.1-4.6,12.5-11.4c4.4-6.9,7-14.1,7.7-21.5c-0.1-2.4-0.4-5.1-0.8-8.1
		c3.3-2.1,5.9-2.4,7.8-0.9c0.7,0.6,1.2,1.6,1.5,3.2c0.3,1.6,0.6,3.6,0.7,6.2c0.2,2.6,0.2,5.5,0,8.8c-0.2,7-1.1,14.4-2.6,22.3
		c5.8-3,11.1-8.2,15.9-15.9c1.5-2.3,2.7-4.6,3.6-6.9c1.9-0.5,3,0.1,3.4,1.8c0.1,0.7,0,2.4-0.5,5.1c-0.5,2.7-1.6,5.9-3.2,9.6
		c-1.7,3.7-3.6,7.1-6,10.2c-4.7,6.2-10.5,10.7-17.2,13.6c-5.1,16.9-11.6,28.7-19.6,35.4c-2.9,2.4-5.8,4-8.8,4.6
		c-3,0.6-5.8,0.8-8.5,0.4c-2.7-0.3-5.2-1-7.6-2.1c-5.3-2.5-8.4-6.2-9.4-11c-0.4-1.8-0.2-3.9,0.7-6.1c1.5-4.2,3.5-7.1,6-8.6
		c5.7,2.3,10.4,3.5,14.1,3.6c1.6,0,3.3-0.2,5-0.5c1.7-0.4,3.4-1.3,5.1-2.7c1.7-1.4,3.4-3.3,5-5.5C557,204.4,559.9,198.6,562.4,191.7
		z"/>
</g>
<path class="st4" d="M254.7,58.2c-4.6-6-9.5-9.2-16.4-12.1"/>
<path class="st4" d="M263,49c-3.3-6.6-7.4-12.7-12.4-18.2"/>
<path class="st4" d="M274.1,44.4c-1.8-8.1-4.1-16-6.7-23.8"/>
<path class="st4" d="M285.7,44.9c3.2-7.1,5.8-14.5,7.7-22.1"/>
<path class="st4" d="M294.7,51.4c8.3-1.6,16.3-4.4,23.8-8.1"/>
</svg>
