<svg id="Layer_1" data-name="Layer 1" xmlns="http://www.w3.org/2000/svg" viewBox="0 0 112.08 95.14"><defs><style>.cls-1{fill:#f8dc8c;}.cls-2{fill:#fff;}.cls-3{fill:#9a1c21;}.cls-4{fill:#fc1a3d;}</style></defs><path class="cls-1" d="M20.91,60c3.86,9,12.35,17.45,23,14.57,6.18-1.66,12.57-5.09,19.17-4.31,4,.48,7.86,2,11.76,3,12.51,3.34,23.74-4.69,27.72-16a21.81,21.81,0,0,0-.37-16.05c-5.13-11.41-17.83-9.29-27.58-13.49-5-2.16-8.92-6.23-13.28-9.35-10.1-7.24-24.13-4.18-32.93,3.67-9.3,8.3-11.94,21.54-9.11,33.17A29.83,29.83,0,0,0,20.91,60Z"/><path class="cls-1" d="M84.79,83.35a7,7,0,1,0,7-7A7,7,0,0,0,84.79,83.35Z"/><rect class="cls-2" x="9.05" y="46.08" width="61.85" height="45.48" transform="translate(79.95 137.64) rotate(180)"/><path class="cls-3" d="M70.9,91.56A166.8,166.8,0,0,0,59.4,72.14C55.45,66.49,47.64,64.47,41,64.49l-7.27,0C9.45,64.46,20.65,38.2,20.65,38.2L11,34.2C-13.53,77.59,20.09,82.86,24.3,83.31l.16,7.87,37.35.37H70.9Z"/><path d="M70.9,91.82H54.64a.27.27,0,0,1-.19-.08l-30-.3a.26.26,0,0,1-.26-.26L24,83.55a33.07,33.07,0,0,1-8.79-2.41c-5.16-2.25-8.9-5.56-11.1-9.85-4.56-8.86-2.33-21.38,6.63-37.21a.26.26,0,0,1,.33-.12l9.64,4a.26.26,0,0,1,.15.14.34.34,0,0,1,0,.2c-.06.13-5.4,12.88-.44,20.39,2.42,3.65,6.89,5.5,13.31,5.5h.07l7.2,0h.11c8.16,0,15.06,2.89,18.46,7.76A165.69,165.69,0,0,1,71.13,91.44a.27.27,0,0,1,0,.26A.25.25,0,0,1,70.9,91.82Zm-9-.52h8.59a166.93,166.93,0,0,0-11.29-19C55.86,67.55,49.07,64.73,41,64.76l-7.28,0H33.7C27.13,64.71,22.53,62.77,20,59c-2.68-4.06-2.43-9.53-1.74-13.4a39.53,39.53,0,0,1,2-7.24l-9.19-3.8C2.35,50.11.16,62.4,4.61,71.05c5.24,10.18,18.25,11.84,19.72,12a.27.27,0,0,1,.24.26l.15,7.61,37.09.37Z"/><path d="M29.71,58.2a6.47,6.47,0,1,0,4.46-8A6.47,6.47,0,0,0,29.71,58.2Z"/><path class="cls-2" d="M33.21,62.13c1.56-1,1.57-2.24,1.51-3.8l.54-.09a.28.28,0,0,0,.23-.28,13.61,13.61,0,0,0-1.12-3.31.39.39,0,0,1,.48-.51,6.35,6.35,0,0,0,3.31.18,4.88,4.88,0,0,0,1.65-.81,1,1,0,0,1,1.45.54,14.08,14.08,0,0,1,1.25,3.54c.6,3,1.26,4.77-1.84,5.65l.18.75S42,67.34,39.78,68.4s-5.67-2.52-5.67-2.52Z"/><path d="M38.87,68.86c-2.23,0-4.82-2.66-4.95-2.79a.34.34,0,0,1-.06-.12L33,62.19a.27.27,0,0,1,.2-.32.26.26,0,0,1,.31.2l.89,3.68c.42.42,3.43,3.32,5.31,2.41s1-4,.94-4.08-.19-.78-.19-.78A.26.26,0,0,1,40.6,63c2.61-.75,2.34-2.05,1.8-4.64,0-.23-.1-.46-.15-.71a35.92,35.92,0,0,0-1.14-4.18.26.26,0,0,1,.16-.34.28.28,0,0,1,.34.17,36.79,36.79,0,0,1,1.16,4.25c0,.24.1.47.14.7.52,2.47.89,4.28-1.93,5.18l.12.5c.09.27,1.14,3.59-1.21,4.72A2.4,2.4,0,0,1,38.87,68.86Z"/><path d="M40.72,58.83a.26.26,0,0,1-.24-.16l-1-2.52a.26.26,0,0,1,.14-.34.27.27,0,0,1,.35.14l1,2.52a.25.25,0,0,1-.14.34A.18.18,0,0,1,40.72,58.83Z"/><path d="M37.39,57.32a.4.4,0,1,0,.28-.49A.4.4,0,0,0,37.39,57.32Z"/><path d="M40.49,56.44a.4.4,0,0,0,.5.27.4.4,0,0,0,.27-.49.4.4,0,0,0-.49-.28A.41.41,0,0,0,40.49,56.44Z"/><path class="cls-2" d="M24.46,82.69a.26.26,0,0,1-.26-.25l-.37-9a.27.27,0,0,1,.26-.27.26.26,0,0,1,.27.25l.37,9a.27.27,0,0,1-.26.27Z"/><path class="cls-2" d="M53.55,82.47a.27.27,0,0,1-.26-.32A24.51,24.51,0,0,0,52.47,71a.27.27,0,0,1,.18-.33.25.25,0,0,1,.33.17,25.05,25.05,0,0,1,.82,11.44A.25.25,0,0,1,53.55,82.47Z"/><path d="M43.06,52.23a2.9,2.9,0,1,1-2.89-2.9A2.89,2.89,0,0,1,43.06,52.23Z"/><path d="M40,54.84a3.17,3.17,0,1,1,3.16-3.17A3.17,3.17,0,0,1,40,54.84ZM40,49a2.64,2.64,0,1,0,2.64,2.63A2.63,2.63,0,0,0,40,49Z"/><path d="M36.67,55.51a2.1,2.1,0,1,1-2.1-2.1A2.1,2.1,0,0,1,36.67,55.51Z"/><path class="cls-2" d="M32.83,59.4A1.71,1.71,0,1,0,34,57.29,1.71,1.71,0,0,0,32.83,59.4Z"/><path d="M34.87,59.41a.27.27,0,0,1-.17-.06l-.84-.67a.26.26,0,1,1,.33-.41l.84.67a.27.27,0,0,1,0,.37A.25.25,0,0,1,34.87,59.41Z"/><path d="M41.23,64.86a1.34,1.34,0,0,1-1.5.58c-.94-.31-1.51-1.71-1.51-1.71l2.53-.51Z"/><path d="M38.22,64.09a.26.26,0,0,1-.06-.52L40.69,63a.27.27,0,0,1,.32.19.26.26,0,0,1-.2.32l-2.52.61Z"/><rect class="cls-2" x="9.05" y="82.62" width="61.85" height="8.94" transform="translate(79.95 174.18) rotate(180)"/><path d="M70.9,82.88H9.05a.27.27,0,0,1-.27-.26.26.26,0,0,1,.27-.26H70.9a.26.26,0,0,1,.26.26A.26.26,0,0,1,70.9,82.88Z"/><path class="cls-1" d="M45.91,86.62a2.21,2.21,0,1,0,2.2-2.2A2.2,2.2,0,0,0,45.91,86.62Z"/><path d="M29.63,86.62a2.2,2.2,0,1,0,2.2-2.2A2.2,2.2,0,0,0,29.63,86.62Z"/><path class="cls-4" d="M37.77,86.62a2.2,2.2,0,1,0,2.2-2.2A2.2,2.2,0,0,0,37.77,86.62Z"/><path d="M70.9,91.82H9.05a.26.26,0,0,1-.27-.26V46.08a.27.27,0,0,1,.27-.27H70.9a.27.27,0,0,1,.26.27V91.56A.26.26,0,0,1,70.9,91.82ZM9.31,91.3H70.63v-45H9.31Z"/><rect class="cls-4" x="47.47" y="6.31" width="61.85" height="45.48" transform="translate(156.78 58.11) rotate(180)"/><path class="cls-3" d="M47.47,51.8h61.85l-.11-17.38c-3.73-5.57-8.58-11.06-17.49-11.26C83.14,23,79.15,24.4,79.15,24.4c-7.31,1-9.36,2.76-12.1,6.66-1.56,2.22-3.44,5.52-5.57,4.92-2.53-.71-5.64-13.92-5.64-13.92l-10.76,2.7c-.3-2.26.4,7.55,2.39,18.1Z"/><path class="cls-2" d="M86.22,28c4.93-1,6.84-3.17,7.58-4.72-.67-.08-1.36-.13-2.08-.15-8.58-.19-12,1.06-12,1.06A37,37,0,0,0,74,25.47S78,29.74,86.22,28Z"/><path d="M86.16,11.27Q86,11,85.8,10.85a6.11,6.11,0,0,0-10.52,3s-1.32,6.38.14,7.58c3,2.44,13.9.95,15.12-2.69C91,17.29,87.35,12.7,86.16,11.27Z"/><path d="M109.32,52.06H47.47a.27.27,0,0,1-.27-.26V42.88c-.94-5-1.57-9.7-1.92-12.73-.18-1.5-.33-3-.43-4.12-.15-1.68-.13-1.7,0-1.8a.29.29,0,0,1,.27-.05c.1,0,.14.11.18.25l10.47-2.62a.26.26,0,0,1,.21,0,.25.25,0,0,1,.12.16c.85,3.63,3.5,13.18,5.45,13.73,1.68.47,3.27-1.87,4.68-3.94.2-.31.41-.6.6-.88C69.57,27,72.19,25,79.7,24c.37-.13,3.81-1.25,12-1.06a18.12,18.12,0,0,1,10.85,3.67,30.84,30.84,0,0,1,6.86,7.71.24.24,0,0,1,0,.14l.1,17.37a.26.26,0,0,1-.08.19A.25.25,0,0,1,109.32,52.06Zm-61.59-.53h61.32l-.1-17c-3.79-5.64-8.51-10.88-17.24-11.08-8.4-.19-11.82,1-11.86,1-7.39,1-9.94,3-12.59,6.74l-.6.87c-1.5,2.22-3.2,4.73-5.25,4.16-2.48-.7-5.23-11.65-5.77-13.86L45.3,25a177,177,0,0,0,2.43,17.84Z"/><path class="cls-2" d="M86.81,24.42,86,21.8c-4.6.83-2.78-4.4-2.78-4.4-2.54-4.46-3.64-1.11-7.36-4.28l-.4,1.06c.06,4.51-.57,9.06,4.22,8.67l.45,2.68Z"/><path d="M86.48,23.67a.26.26,0,0,1-.25-.18l-.61-1.87a.27.27,0,0,1,.17-.34.26.26,0,0,1,.33.17l.61,1.87a.27.27,0,0,1-.17.34Z"/><path d="M80,25.15a.26.26,0,0,1-.26-.22l-.3-1.8a3.74,3.74,0,0,1-2.88-.85c-1.4-1.29-1.39-3.86-1.38-6.58V14.19a5,5,0,0,1,.45-1.54.25.25,0,0,1,.35-.12.26.26,0,0,1,.12.35,4.82,4.82,0,0,0-.39,1.32v1.5c0,2.6,0,5.06,1.21,6.2a3.43,3.43,0,0,0,2.72.69.27.27,0,0,1,.29.22l.33,2a.26.26,0,0,1-.22.3Z"/><path d="M79.64,23.11a.27.27,0,0,1-.26-.22.27.27,0,0,1,.22-.3,7.23,7.23,0,0,0,2.23-.75.26.26,0,0,1,.36.1.27.27,0,0,1-.09.36,8.18,8.18,0,0,1-2.41.81Z"/><path d="M79.92,24.54a1.36,1.36,0,0,0,1.61-.13c.71-.69.61-2.46.61-2.46l-2.5.9Z"/><path d="M77,19a.25.25,0,0,1-.26-.27l0-2.74a.26.26,0,0,1,.26-.26.25.25,0,0,1,.26.26l0,2.75A.26.26,0,0,1,77,19Z"/><path class="cls-2" d="M74.54,44.35l-.11,0a5.48,5.48,0,0,1-.52-9.6.27.27,0,0,1,.36.09.26.26,0,0,1-.08.36,4.95,4.95,0,0,0,.47,8.67.26.26,0,0,1,.12.35A.25.25,0,0,1,74.54,44.35Z"/><path class="cls-2" d="M74.05,35.22a.26.26,0,0,1-.26-.22l-.39-2.37a.25.25,0,0,1,.21-.3.26.26,0,0,1,.31.22l.39,2.37a.27.27,0,0,1-.22.3Z"/><path class="cls-2" d="M74.56,52.06a.26.26,0,0,1-.26-.26l0-7.71a.27.27,0,1,1,.53,0l0,7.71a.27.27,0,0,1-.27.26Z"/><path class="cls-2" d="M105.11,51.84a.26.26,0,0,1-.21-.11L95.74,38.88a.27.27,0,1,1,.43-.31l9.16,12.85a.27.27,0,0,1-.06.37A.24.24,0,0,1,105.11,51.84Z"/><path d="M75.71,16.6a.4.4,0,1,0,.4-.4A.4.4,0,0,0,75.71,16.6Z"/><path d="M78.75,16.2a.4.4,0,1,0,.39-.4A.39.39,0,0,0,78.75,16.2Z"/><path d="M77.64,20a.26.26,0,0,1-.25-.18.25.25,0,0,1,.17-.33c.22-.07.43-.48.51-.67a.27.27,0,0,1,.34-.15.27.27,0,0,1,.15.34c0,.09-.32.82-.84,1Z"/><path class="cls-2" d="M82,14.93a1.72,1.72,0,1,0,2.4.32A1.72,1.72,0,0,0,82,14.93Z"/><path d="M83,17H83a.27.27,0,0,1-.18-.33l.31-1a.27.27,0,1,1,.51.15l-.32,1A.25.25,0,0,1,83,17Z"/><rect class="cls-2" x="47.47" y="42.86" width="61.85" height="8.94" transform="translate(156.78 94.65) rotate(180)"/><path d="M109.32,43.12H47.47a.27.27,0,1,1,0-.53h61.85a.27.27,0,0,1,0,.53Z"/><path d="M109.32,52.06H47.47a.27.27,0,0,1-.27-.26V6.31a.27.27,0,0,1,.27-.26h61.85a.26.26,0,0,1,.26.26V51.8A.26.26,0,0,1,109.32,52.06Zm-61.59-.53h61.32V6.58H47.73Z"/><rect class="cls-2" x="31.38" y="2.11" width="26.63" height="17.04" transform="translate(89.37 21.28) rotate(-179.97)"/><path d="M58,19.42H31.37a.27.27,0,0,1-.19-.08.26.26,0,0,1-.07-.19V2.1a.26.26,0,0,1,.26-.26H58a.27.27,0,0,1,.19.08.32.32,0,0,1,.07.19v17A.26.26,0,0,1,58,19.42Zm-26.37-.54h26.1V2.38H31.64Z"/><path d="M44.69,13.39a.27.27,0,0,1-.17-.06L31.21,2.3a.26.26,0,1,1,.34-.4L44.69,12.78,57.84,1.91a.27.27,0,0,1,.34.41l-13.32,11A.27.27,0,0,1,44.69,13.39Z"/><path d="M31.37,19.41a.31.31,0,0,1-.2-.09.28.28,0,0,1,0-.38l9.88-8.68a.27.27,0,0,1,.37,0,.26.26,0,0,1,0,.37l-9.89,8.68A.28.28,0,0,1,31.37,19.41Z"/><path d="M58,19.42a.26.26,0,0,1-.18-.07L48,10.71a.28.28,0,0,1,0-.38.27.27,0,0,1,.38,0L58.17,19a.27.27,0,0,1,0,.37A.28.28,0,0,1,58,19.42Z"/><path class="cls-2" d="M51.54,29.94a5.49,5.49,0,0,0,4.53-6.15l-.23-1.73c-.26-1.63-.67-3.46-4.89-2.92,0,0-1-1.51-1.9-3.34-1.58-3-5.33-3.08-3.58.48l-.78-1.75c-1.09-2.91-2.63-2.31-3.44-1.9-1.25.62-.31,2.77-.31,2.77s-1.07-3.28-3.42-2.05c-1.26.66.07,2.4,1.63,5.81l-2.38,0s2.7,2.28,3.29,2.81,4.63.51,4.63.51l.51,3a5.49,5.49,0,0,0,6.34,4.5Z"/><path d="M50.61,30.29a5.77,5.77,0,0,1-5.67-4.8l-.47-2.77c-1,0-4-.06-4.59-.58s-3.25-2.77-3.28-2.8a.27.27,0,0,1-.08-.29.27.27,0,0,1,.25-.17h2c-.28-.61-.56-1.16-.81-1.66-1.07-2.17-1.73-3.48-.52-4.11A2.17,2.17,0,0,1,39.29,13a2.8,2.8,0,0,1,1.05.81,1.48,1.48,0,0,1,.79-1.38,2.41,2.41,0,0,1,2-.24,3.4,3.4,0,0,1,1.69,2,1.22,1.22,0,0,1,.6-.72c1-.51,2.84.28,3.85,2.23.77,1.48,1.55,2.76,1.8,3.18,4.43-.51,4.78,1.7,5,3.16l.23,1.74a5.74,5.74,0,0,1-4.74,6.44A5.5,5.5,0,0,1,50.61,30.29Zm.89-.61,0,.26,0-.26a5.21,5.21,0,0,0,4.31-5.85l-.23-1.73c-.24-1.51-.52-3.22-4.6-2.7a.23.23,0,0,1-.25-.12s-1-1.54-1.92-3.36-2.46-2.34-3.14-2c-.47.23-.52.9-.15,1.82l.19.43a.27.27,0,0,1-.48.23c-.08-.16-.14-.32-.2-.46l-.58-1.31a3.2,3.2,0,0,0-1.5-2,1.93,1.93,0,0,0-1.58.22c-.79.4-.46,1.65-.28,2.19a2.15,2.15,0,0,1,.1.27.25.25,0,0,1-.15.32.26.26,0,0,1-.34-.14,1.7,1.7,0,0,1-.1-.26,3.4,3.4,0,0,0-1.51-1.79,1.62,1.62,0,0,0-1.45.14c-.71.37-.28,1.31.76,3.4.3.61.64,1.29,1,2.06a.25.25,0,0,1,0,.25.26.26,0,0,1-.22.12H37.5c.82.7,2.31,2,2.73,2.34s2.45.45,4.37.45h.09a.26.26,0,0,1,.26.22l.51,3a5.23,5.23,0,0,0,6,4.28Z"/><path class="cls-1" d="M84.33,46.86a2.2,2.2,0,1,0,2.2-2.2A2.21,2.21,0,0,0,84.33,46.86Z"/><path d="M68.05,46.86a2.2,2.2,0,1,0,2.2-2.2A2.2,2.2,0,0,0,68.05,46.86Z"/><path class="cls-4" d="M76.19,46.86a2.2,2.2,0,1,0,2.2-2.2A2.21,2.21,0,0,0,76.19,46.86Z"/><path d="M48.38,22.73H44.69a.27.27,0,0,1,0-.53h3.69a.27.27,0,1,1,0,.53Z"/><path d="M46.91,19.88a.27.27,0,0,1-.25-.16l-2.87-6.67a.25.25,0,0,1,.14-.34.26.26,0,0,1,.35.14l2.87,6.66a.26.26,0,0,1-.14.35Z"/><path d="M43.24,21a.26.26,0,0,1-.24-.16L40.7,15.5a.25.25,0,0,1,.14-.34.25.25,0,0,1,.34.13l2.31,5.34a.28.28,0,0,1-.14.35Z"/><path d="M40.48,60.56a1.34,1.34,0,0,1-.93-.38,1.31,1.31,0,0,1-.39-.93.26.26,0,0,1,.26-.27h2.11a.27.27,0,0,1,.27.26,1.35,1.35,0,0,1-.38.94,1.32,1.32,0,0,1-.94.39Zm-.75-1.05a.7.7,0,0,0,.19.29.8.8,0,0,0,1.12,0,.8.8,0,0,0,.19-.3Z"/><path d="M82.08,61.34a.29.29,0,0,1-.19-.08.27.27,0,0,1,0-.37l3.66-3.67a.27.27,0,1,1,.38.38l-3.66,3.66A.27.27,0,0,1,82.08,61.34Z"/><path d="M85.74,61.34a.29.29,0,0,1-.19-.08L81.89,57.6a.27.27,0,1,1,.38-.38l3.66,3.67a.27.27,0,0,1,0,.37A.27.27,0,0,1,85.74,61.34Z"/><path d="M39.81,20.79a.28.28,0,0,1-.24-.15l-.66-1.37a.26.26,0,0,1,.12-.35.28.28,0,0,1,.36.12l.66,1.37a.27.27,0,0,1-.13.35A.2.2,0,0,1,39.81,20.79Z"/><path class="cls-2" d="M54.74,82.62s2.92-5.52,5.47-4a2.67,2.67,0,0,1,3.35-.27,2.86,2.86,0,0,1,3.36.14,2,2,0,0,1,2.45-.25c1.35.84,2.19,3.48,2.6,4.81s.19,3.23-1.07,3.27a1.86,1.86,0,0,1-1.73-.88A1.8,1.8,0,0,1,67.7,87a1.84,1.84,0,0,1-2-1.08s.51,1.42-1.25,1.7S62,85.81,62,85.81a1.41,1.41,0,0,1-1.68,1.47c-1.75-.12-2.84-4.71-2.84-4.71Z"/><path d="M64.15,87.94a2.47,2.47,0,0,1-2.05-1.31,1.49,1.49,0,0,1-.31.46,1.85,1.85,0,0,1-1.48.45c-1.72-.12-2.77-3.71-3-4.7l-2.54,0a.26.26,0,0,1-.23-.12.27.27,0,0,1,0-.26c.08-.16,2-3.72,4.15-4.33a2,2,0,0,1,1.52.11A2.89,2.89,0,0,1,63.57,78a3.1,3.1,0,0,1,3.35.1A2.25,2.25,0,0,1,69.51,78c1.32.81,2.14,3.08,2.71,5A3.77,3.77,0,0,1,72,86a1.33,1.33,0,0,1-1.08.58A2.22,2.22,0,0,1,69.3,86a2,2,0,0,1-1.55,1.29,1.93,1.93,0,0,1-1.75-.5,1.26,1.26,0,0,1-.15.34,1.81,1.81,0,0,1-1.35.78ZM62,85.55a.26.26,0,0,1,.25.18c0,.08.64,1.89,2.16,1.66a1.32,1.32,0,0,0,1-.53,1.07,1.07,0,0,0,.06-.82.27.27,0,0,1,.15-.34.26.26,0,0,1,.34.15,1.58,1.58,0,0,0,1.69.92,1.54,1.54,0,0,0,1.27-1.37.25.25,0,0,1,.21-.24.26.26,0,0,1,.29.14,1.55,1.55,0,0,0,1.48.73.8.8,0,0,0,.66-.36,3.29,3.29,0,0,0,.17-2.56c-.32-1-1.17-3.85-2.49-4.66a1.73,1.73,0,0,0-2.12.21.26.26,0,0,1-.36,0,2.6,2.6,0,0,0-3-.11.26.26,0,0,1-.29,0,2.39,2.39,0,0,0-3,.24.26.26,0,0,1-.31,0,1.58,1.58,0,0,0-1.28-.15c-1.55.44-3,2.74-3.6,3.68l2.29,0a.27.27,0,0,1,.26.2c.29,1.22,1.33,4.42,2.6,4.5a1.29,1.29,0,0,0,1.06-.29,1.3,1.3,0,0,0,.34-.9.26.26,0,0,1,.21-.27Z"/><path d="M69.17,85.68a.26.26,0,0,1-.25-.18l-2.25-7a.26.26,0,0,1,.17-.33.25.25,0,0,1,.33.17l2.25,6.94a.27.27,0,0,1-.17.34Z"/><path d="M65.74,86.32a.28.28,0,0,1-.26-.2L63.3,78.41a.27.27,0,0,1,.19-.33.26.26,0,0,1,.32.18L66,86a.27.27,0,0,1-.18.33Z"/><path d="M62.09,86.21a.27.27,0,0,1-.25-.19L60,78.66a.26.26,0,0,1,.19-.32.27.27,0,0,1,.32.19l1.88,7.35a.27.27,0,0,1-.19.33Z"/><path class="cls-2" d="M27.82,28.13a10.12,10.12,0,0,0-3.49,1.48s1-2.05,1.47-3.15,2.71-5.24,1.44-6-2.44,1.36-2.44,1.36,1-3.53-.7-4.09c-1.3-.43-1.89,1.55-2.18,2.48.52-2-.2-2.55-.83-2.72s-1.47.59-1.73,1.47-2.17,6.72-2.17,6.72c.82-4.7.47-5.28-.47-5.31S15.35,22,15.21,22.46s-1.34,4.21-1.37,4.3-1.52,4-2.83,7.44a5.26,5.26,0,0,0,9.6,4.25l.4-.8c1.83-.61,4.31-3.89,5-4.78s3.76-1.33,4.23-2.55S29.26,28,27.82,28.13Z"/><path d="M15.92,41.6A5.6,5.6,0,0,1,14,41.24a5.53,5.53,0,0,1-3.21-7.13c1.85-4.84,2.8-7.34,2.83-7.44l.06-.17c.78-2.49,1.22-3.87,1.31-4.12,0-.05,0-.1,0-.17.2-.64.67-2.14,1.69-2.14a1.12,1.12,0,0,1,.89.36c.26.33.4.88.29,2.26.52-1.61,1.09-3.39,1.23-3.84.29-1,1.18-1.86,2.05-1.64a1.47,1.47,0,0,1,1.15,1.24,2.25,2.25,0,0,1,.87-.93,1.2,1.2,0,0,1,1-.07c1.24.41,1.25,2.1,1.1,3.26a2.43,2.43,0,0,1,1-.67,1.34,1.34,0,0,1,1.07.17c1.2.74.08,3.38-1.07,5.78-.11.24-.21.43-.27.58-.29.65-.77,1.66-1.1,2.36a8.33,8.33,0,0,1,2.86-1.06,2.84,2.84,0,0,1,2.44,1,1.56,1.56,0,0,1,.24,1.55c-.3.8-1.44,1.26-2.54,1.7a5,5,0,0,0-1.73.93l0,.05c-.78,1-3.11,4.07-5,4.77l-.36.71A5.5,5.5,0,0,1,15.92,41.6Zm.78-21c-.63,0-1,1.29-1.19,1.77,0,.07,0,.13,0,.18s-.34,1-1.31,4.11l-.06.18s0,.07-2.84,7.46a5,5,0,0,0,9.12,4l.41-.8a.24.24,0,0,1,.15-.13c1.14-.38,2.76-1.94,4.82-4.63l.05-.06a5,5,0,0,1,1.95-1.09c.94-.38,2-.81,2.24-1.4a1.06,1.06,0,0,0-.17-1,2.3,2.3,0,0,0-2-.78,9.84,9.84,0,0,0-3.37,1.43.26.26,0,0,1-.32,0,.26.26,0,0,1-.06-.31s1-2.07,1.47-3.15c.06-.14.16-.34.27-.58.6-1.25,2.17-4.55,1.27-5.11a.8.8,0,0,0-.65-.11c-.77.21-1.41,1.35-1.42,1.36a.26.26,0,0,1-.33.12.27.27,0,0,1-.15-.32c.25-.91.65-3.37-.53-3.76a.77.77,0,0,0-.6,0c-.65.34-1,1.59-1.24,2.26a.27.27,0,1,1-.52-.12c.53-2.09-.32-2.32-.64-2.4-.48-.13-1.17.5-1.41,1.29s-2.09,6.48-2.17,6.72a.25.25,0,0,1-.31.17.26.26,0,0,1-.2-.3c.51-2.92.59-4.41.25-4.83a.59.59,0,0,0-.47-.17Z"/><path d="M16.72,31.41a.31.31,0,0,1-.13,0,.27.27,0,0,1-.1-.36,5.12,5.12,0,0,1,3.27-2.63,6.67,6.67,0,0,1,4.71,1,.26.26,0,0,1,.08.37.27.27,0,0,1-.37.07,6.27,6.27,0,0,0-4.31-.93A4.66,4.66,0,0,0,17,31.28.26.26,0,0,1,16.72,31.41Z"/><path d="M20,26.34h-.08a.27.27,0,0,1-.17-.34l1.92-5.89a.26.26,0,0,1,.33-.17.27.27,0,0,1,.17.34l-1.92,5.89A.27.27,0,0,1,20,26.34Z"/><path d="M22.55,27.38l-.11,0A.28.28,0,0,1,22.3,27l2.26-5.33a.26.26,0,0,1,.34-.14.26.26,0,0,1,.14.35l-2.25,5.33A.26.26,0,0,1,22.55,27.38Z"/></svg>