<?xml version="1.0" encoding="utf-8"?>
<!-- Generator: Adobe Illustrator 26.0.1, SVG Export Plug-In . SVG Version: 6.00 Build 0)  -->
<svg version="1.1" id="Layer_1" xmlns="http://www.w3.org/2000/svg" xmlns:xlink="http://www.w3.org/1999/xlink" x="0px" y="0px"
	 viewBox="0 0 1000 703.3" style="enable-background:new 0 0 1000 703.3;" xml:space="preserve">
<style type="text/css">
	.st0{fill:#313159;}
	.st1{fill:#EAEAEE;}
	.st2{fill:#C1C1CD;}
	.st3{fill:#9898AC;}
	.st4{fill:#6F6F8B;}
	.st5{fill:#46466A;}
	.st6{fill:#FFFFFF;}
	.st7{fill:#231F20;}
	.st8{fill:#FC0053;}
	.st9{fill:#FFE5EE;}
	.st10{fill:#FEB2CB;}
	.st11{fill:#FD80A9;}
	.st12{fill:#FD4C87;}
	.st13{fill:#FC1964;}
</style>
<g>
	<path d="M77.3,567.2c-0.1-0.1-0.2-0.3-0.2-0.5v-18.3c0-0.2,0.1-0.4,0.2-0.5c0.1-0.1,0.3-0.2,0.5-0.2h1.4c0.2,0,0.4,0.1,0.5,0.2
		c0.1,0.1,0.2,0.3,0.2,0.5v7.7h9.6v-7.7c0-0.2,0.1-0.4,0.2-0.5c0.1-0.1,0.3-0.2,0.5-0.2h1.4c0.2,0,0.4,0.1,0.5,0.2
		c0.1,0.1,0.2,0.3,0.2,0.5v18.3c0,0.2-0.1,0.3-0.2,0.5c-0.1,0.1-0.3,0.2-0.5,0.2h-1.4c-0.2,0-0.3-0.1-0.5-0.2
		c-0.1-0.1-0.2-0.3-0.2-0.5v-8h-9.6v8c0,0.2-0.1,0.3-0.2,0.5c-0.1,0.1-0.3,0.2-0.5,0.2h-1.4C77.6,567.3,77.4,567.3,77.3,567.2z"/>
	<path d="M97.3,567.2c-0.1-0.1-0.2-0.3-0.2-0.5v-18.3c0-0.2,0.1-0.4,0.2-0.5c0.1-0.1,0.3-0.2,0.5-0.2h11.6c0.2,0,0.3,0.1,0.5,0.2
		c0.1,0.1,0.2,0.3,0.2,0.5v1.1c0,0.2-0.1,0.3-0.2,0.5c-0.1,0.1-0.3,0.2-0.5,0.2h-9.5v6.1h8.9c0.2,0,0.3,0.1,0.5,0.2
		c0.1,0.1,0.2,0.3,0.2,0.5v1c0,0.2-0.1,0.3-0.2,0.5c-0.1,0.1-0.3,0.2-0.5,0.2h-8.9v6.4h9.7c0.2,0,0.4,0.1,0.5,0.2
		c0.1,0.1,0.2,0.3,0.2,0.5v1.1c0,0.2-0.1,0.3-0.2,0.5c-0.1,0.1-0.3,0.2-0.5,0.2H97.8C97.6,567.3,97.4,567.3,97.3,567.2z"/>
	<path d="M112.5,567.2c-0.1-0.1-0.2-0.2-0.2-0.4c0-0.1,0-0.3,0.1-0.4l6.4-9l-6.1-8.7c-0.1-0.1-0.1-0.2-0.1-0.4s0.1-0.3,0.2-0.4
		c0.1-0.1,0.2-0.2,0.4-0.2h1.7c0.3,0,0.5,0.2,0.8,0.5l4.9,7l4.9-7c0.2-0.3,0.4-0.5,0.7-0.5h1.6c0.1,0,0.3,0.1,0.4,0.2
		c0.1,0.1,0.2,0.2,0.2,0.4c0,0.2,0,0.3-0.1,0.4l-6,8.7l6.4,9c0.1,0.1,0.1,0.2,0.1,0.4c0,0.1-0.1,0.3-0.2,0.4s-0.3,0.2-0.4,0.2h-1.7
		c-0.3,0-0.5-0.2-0.8-0.5l-5.2-7.3l-5.2,7.3c-0.2,0.3-0.4,0.5-0.7,0.5h-1.7C112.8,567.3,112.6,567.3,112.5,567.2z"/>
</g>
<g>
	<path d="M78.5,606.9c-1.3-1.3-2-3.2-2.1-5.6c0-0.5,0-1.3,0-2.5c0-1.2,0-2,0-2.5c0.1-2.4,0.8-4.2,2.1-5.6s3.2-2,5.7-2
		c1.7,0,3.1,0.3,4.2,0.9s2,1.4,2.6,2.3c0.6,1,0.9,2,1,3.1v0.1c0,0.1-0.1,0.3-0.2,0.4c-0.1,0.1-0.3,0.2-0.4,0.2h-1.5
		c-0.4,0-0.6-0.2-0.7-0.6c-0.3-1.4-0.9-2.4-1.7-3c-0.8-0.6-1.9-0.9-3.3-0.9c-3.2,0-4.9,1.8-5,5.3c0,0.5,0,1.3,0,2.3c0,1,0,1.8,0,2.4
		c0.1,3.6,1.8,5.3,5,5.3c1.4,0,2.5-0.3,3.3-0.9c0.8-0.6,1.4-1.6,1.7-3c0.1-0.2,0.1-0.4,0.3-0.5c0.1-0.1,0.3-0.1,0.4-0.1h1.5
		c0.2,0,0.3,0.1,0.4,0.2c0.1,0.1,0.2,0.2,0.2,0.4c-0.1,1.1-0.4,2.1-1,3.1s-1.5,1.7-2.6,2.3c-1.2,0.6-2.6,0.9-4.2,0.9
		C81.7,608.9,79.8,608.3,78.5,606.9z"/>
	<path d="M96,608.5c-0.1-0.1-0.2-0.3-0.2-0.5v-18.3c0-0.2,0.1-0.4,0.2-0.5c0.1-0.1,0.3-0.2,0.5-0.2h1.4c0.3,0,0.5,0.1,0.7,0.4
		l5.9,11.3l6-11.3c0-0.1,0.1-0.2,0.2-0.3c0.1-0.1,0.3-0.1,0.5-0.1h1.4c0.2,0,0.4,0.1,0.5,0.2c0.1,0.1,0.2,0.3,0.2,0.5V608
		c0,0.2-0.1,0.3-0.2,0.5s-0.3,0.2-0.5,0.2h-1.4c-0.2,0-0.3-0.1-0.5-0.2c-0.1-0.1-0.2-0.3-0.2-0.5v-13.8l-4.7,9.1
		c-0.2,0.4-0.5,0.6-0.9,0.6H104c-0.4,0-0.7-0.2-0.9-0.6l-4.7-9.1V608c0,0.2-0.1,0.3-0.2,0.5c-0.1,0.1-0.3,0.2-0.5,0.2h-1.4
		C96.2,608.6,96.1,608.6,96,608.5z"/>
	<path d="M123.4,608.5c-0.1-0.1-0.2-0.3-0.2-0.5v-6.6l-6.7-11.4c0,0,0-0.1,0-0.2c0-0.1-0.1-0.1-0.1-0.2c0-0.1,0.1-0.3,0.2-0.4
		c0.1-0.1,0.2-0.2,0.4-0.2h1.5c0.3,0,0.6,0.2,0.7,0.5l5.5,9.1l5.5-9.1c0.2-0.3,0.5-0.5,0.8-0.5h1.4c0.2,0,0.3,0.1,0.4,0.2
		c0.1,0.1,0.2,0.2,0.2,0.4c0,0.1,0,0.2-0.1,0.4l-6.7,11.4v6.6c0,0.2-0.1,0.3-0.2,0.5c-0.1,0.1-0.3,0.2-0.5,0.2h-1.5
		C123.7,608.6,123.5,608.6,123.4,608.5z"/>
	<path d="M136.3,608.5c-0.1-0.1-0.2-0.3-0.2-0.5v-18.3c0-0.2,0.1-0.4,0.2-0.5c0.1-0.1,0.3-0.2,0.5-0.2h1.4c0.2,0,0.4,0.1,0.5,0.2
		c0.1,0.1,0.2,0.3,0.2,0.5v6.9l7.5-7.2c0.3-0.3,0.7-0.4,1.1-0.4h1.5c0.1,0,0.3,0.1,0.4,0.2c0.1,0.1,0.2,0.2,0.2,0.4s0,0.3-0.1,0.4
		l-8.7,8.5l9.2,9.3c0.1,0.1,0.1,0.2,0.1,0.4s-0.1,0.3-0.2,0.4s-0.2,0.2-0.4,0.2h-1.6c-0.4,0-0.8-0.2-1.1-0.5l-8-7.9v7.7
		c0,0.2-0.1,0.3-0.2,0.5c-0.1,0.1-0.3,0.2-0.5,0.2h-1.4C136.6,608.6,136.4,608.6,136.3,608.5z"/>
</g>
<g>
	<path d="M77.3,649.8c-0.1-0.1-0.2-0.3-0.2-0.5V631c0-0.2,0.1-0.4,0.2-0.5c0.1-0.1,0.3-0.2,0.5-0.2h6.8c2.1,0,3.8,0.5,5,1.5
		c1.2,1,1.8,2.5,1.8,4.4c0,1.4-0.4,2.6-1.1,3.5c-0.7,0.9-1.7,1.5-3,1.9l4.3,7.4c0.1,0.1,0.1,0.2,0.1,0.3c0,0.1-0.1,0.3-0.2,0.4
		c-0.1,0.1-0.3,0.2-0.4,0.2h-1.3c-0.3,0-0.5-0.1-0.7-0.2c-0.2-0.1-0.3-0.3-0.4-0.6l-4.1-7.1h-4.9v7.2c0,0.2-0.1,0.3-0.2,0.5
		c-0.1,0.1-0.3,0.2-0.5,0.2h-1.4C77.6,650,77.4,649.9,77.3,649.8z M84.5,639.7c2.8,0,4.2-1.2,4.2-3.5c0-2.3-1.4-3.5-4.2-3.5h-4.6v7
		H84.5z"/>
	<path d="M96.9,648.2c-1.4-1.3-2.1-3.2-2.2-5.5c0-0.6,0-1.4,0-2.6c0-1.2,0-2.1,0-2.6c0.1-2.3,0.8-4.1,2.2-5.4s3.3-2,5.7-2
		c1.6,0,3,0.3,4.2,0.9c1.1,0.6,2,1.3,2.6,2.1c0.6,0.8,0.9,1.6,0.9,2.4v0.1c0,0.1-0.1,0.3-0.2,0.4c-0.1,0.1-0.3,0.1-0.4,0.1H108
		c-0.2,0-0.3,0-0.4-0.1s-0.2-0.2-0.2-0.4c-0.3-0.8-0.8-1.6-1.6-2.2c-0.8-0.6-1.9-0.9-3.2-0.9c-1.5,0-2.8,0.4-3.6,1.3
		c-0.9,0.8-1.4,2.1-1.4,3.9c0,0.5,0,1.4,0,2.5c0,1.1,0,1.9,0,2.5c0.1,1.8,0.6,3.1,1.4,4c0.9,0.8,2.1,1.3,3.6,1.3
		c1.6,0,2.8-0.4,3.8-1.3c0.9-0.9,1.4-2.1,1.4-3.9v-1.2h-4.2c-0.2,0-0.3-0.1-0.5-0.2c-0.1-0.1-0.2-0.3-0.2-0.5V640
		c0-0.2,0.1-0.3,0.2-0.5c0.1-0.1,0.3-0.2,0.5-0.2h6.3c0.2,0,0.3,0.1,0.5,0.2c0.1,0.1,0.2,0.3,0.2,0.5v2.7c0,1.5-0.3,2.9-1,4
		s-1.5,2-2.7,2.6c-1.2,0.6-2.6,0.9-4.2,0.9C100.1,650.2,98.2,649.6,96.9,648.2z"/>
	<path d="M114.7,649.8c-0.1-0.1-0.2-0.3-0.2-0.5V631c0-0.2,0.1-0.4,0.2-0.5c0.1-0.1,0.3-0.2,0.5-0.2h7.7c2,0,3.5,0.5,4.5,1.4
		s1.5,2.2,1.5,3.8c0,1-0.2,1.9-0.7,2.6c-0.5,0.7-1,1.2-1.7,1.5c0.8,0.4,1.4,1,2,1.8c0.5,0.8,0.8,1.8,0.8,2.8c0,1-0.2,2-0.7,2.9
		c-0.5,0.9-1.2,1.5-2.1,2s-2.1,0.8-3.4,0.8h-7.9C115,650,114.8,649.9,114.7,649.8z M122.4,638.6c1.2,0,2.1-0.3,2.7-0.8
		c0.6-0.5,0.9-1.3,0.9-2.3c0-1-0.3-1.7-0.9-2.2s-1.5-0.8-2.7-0.8h-5.2v6H122.4z M122.7,647.7c1.2,0,2.1-0.3,2.8-1
		c0.7-0.6,1-1.4,1-2.4c0-1-0.3-1.9-1-2.5c-0.7-0.6-1.6-0.9-2.8-0.9h-5.4v6.8H122.7z"/>
</g>
<g>
	<path d="M79.6,690.5l-3.6-18c0-0.1,0-0.2,0-0.3c0-0.1,0.1-0.3,0.2-0.4c0.1-0.1,0.2-0.2,0.4-0.2h1.5c0.4,0,0.6,0.2,0.7,0.5l2.9,14.4
		l3-9.9c0.2-0.4,0.5-0.7,0.9-0.7h1c0.2,0,0.4,0.1,0.6,0.2c0.1,0.1,0.2,0.3,0.3,0.5l3.1,9.9l2.8-14.4c0.1-0.3,0.3-0.5,0.7-0.5h1.5
		c0.1,0,0.3,0.1,0.4,0.2c0.1,0.1,0.2,0.2,0.2,0.4l0,0.3l-3.6,18c-0.1,0.5-0.4,0.8-0.9,0.8h-1.1c-0.5,0-0.8-0.2-0.9-0.7l-3.5-10.7
		l-3.4,10.7c-0.1,0.5-0.5,0.7-0.9,0.7h-1.1C79.9,691.3,79.6,691,79.6,690.5z"/>
	<path d="M100.7,689.5c-1.3-1.3-2-3.2-2.1-5.6c0-0.5,0-1.3,0-2.5c0-1.2,0-2,0-2.5c0.1-2.4,0.8-4.2,2.1-5.6s3.2-2,5.7-2
		c1.7,0,3.1,0.3,4.2,0.9s2,1.4,2.6,2.3c0.6,1,0.9,2,1,3.1v0.1c0,0.1-0.1,0.3-0.2,0.4c-0.1,0.1-0.3,0.2-0.4,0.2h-1.5
		c-0.4,0-0.6-0.2-0.7-0.6c-0.3-1.4-0.9-2.4-1.7-3c-0.8-0.6-1.9-0.9-3.3-0.9c-3.2,0-4.9,1.8-5,5.3c0,0.5,0,1.3,0,2.3c0,1,0,1.8,0,2.4
		c0.1,3.6,1.8,5.3,5,5.3c1.4,0,2.5-0.3,3.3-0.9c0.8-0.6,1.4-1.6,1.7-3c0.1-0.2,0.1-0.4,0.3-0.5c0.1-0.1,0.3-0.1,0.4-0.1h1.5
		c0.2,0,0.3,0.1,0.4,0.2c0.1,0.1,0.2,0.2,0.2,0.4c-0.1,1.1-0.4,2.1-1,3.1s-1.5,1.7-2.6,2.3c-1.2,0.6-2.6,0.9-4.2,0.9
		C103.9,691.5,102,690.9,100.7,689.5z"/>
	<path d="M116,691.1c-0.1-0.1-0.2-0.2-0.2-0.4s0-0.3,0-0.3l6.9-18.1c0.1-0.4,0.4-0.6,0.9-0.6h1.9c0.4,0,0.7,0.2,0.9,0.6l6.9,18.1
		l0.1,0.3c0,0.1-0.1,0.3-0.2,0.4c-0.1,0.1-0.2,0.2-0.4,0.2h-1.4c-0.2,0-0.4-0.1-0.5-0.2c-0.1-0.1-0.2-0.2-0.2-0.3l-1.5-4h-9.2
		l-1.5,4c0,0.1-0.1,0.2-0.2,0.3c-0.1,0.1-0.3,0.2-0.5,0.2h-1.4C116.3,691.3,116.2,691.2,116,691.1z M128.5,684.4l-3.8-9.9l-3.8,9.9
		H128.5z"/>
	<path d="M137.6,689.5c-1.4-1.3-2.1-3.2-2.2-5.5c0-0.6,0-1.4,0-2.6c0-1.2,0-2.1,0-2.6c0.1-2.3,0.8-4.1,2.2-5.4s3.3-2,5.7-2
		c1.6,0,3,0.3,4.2,0.9c1.1,0.6,2,1.3,2.6,2.1c0.6,0.8,0.9,1.6,0.9,2.4v0.1c0,0.1-0.1,0.3-0.2,0.4c-0.1,0.1-0.3,0.1-0.4,0.1h-1.7
		c-0.2,0-0.3,0-0.4-0.1s-0.2-0.2-0.2-0.4c-0.3-0.8-0.8-1.6-1.6-2.2c-0.8-0.6-1.9-0.9-3.2-0.9c-1.5,0-2.8,0.4-3.6,1.3
		c-0.9,0.8-1.4,2.1-1.4,3.9c0,0.5,0,1.4,0,2.5c0,1.1,0,1.9,0,2.5c0.1,1.8,0.6,3.1,1.4,4c0.9,0.8,2.1,1.3,3.6,1.3
		c1.6,0,2.8-0.4,3.8-1.3c0.9-0.9,1.4-2.1,1.4-3.9v-1.2h-4.2c-0.2,0-0.3-0.1-0.5-0.2c-0.1-0.1-0.2-0.3-0.2-0.5v-0.9
		c0-0.2,0.1-0.3,0.2-0.5c0.1-0.1,0.3-0.2,0.5-0.2h6.3c0.2,0,0.3,0.1,0.5,0.2c0.1,0.1,0.2,0.3,0.2,0.5v2.7c0,1.5-0.3,2.9-1,4
		s-1.5,2-2.7,2.6c-1.2,0.6-2.6,0.9-4.2,0.9C140.8,691.5,138.9,690.9,137.6,689.5z"/>
</g>
<g>
	<path d="M195.7,561.5c0,3.3-2.5,6.2-7.8,6.2c-2.8,0-5.5-0.8-7.4-2.3l1.6-2.8c1.4,1.2,3.5,1.9,5.7,1.9c2.6,0,4.1-1.1,4.1-3
		c0-1.8-1.3-2.9-4.3-2.9H186v-2.5l4.5-5.3h-8.9v-3.1h13.4v2.4l-4.8,5.7C193.8,556.3,195.7,558.5,195.7,561.5z"/>
	<path d="M204.8,547.7v19.6h-3.6v-16.5H197v-3.1H204.8z"/>
	<path d="M222.6,561.5c0,3.3-2.5,6.2-7.8,6.2c-2.8,0-5.5-0.8-7.4-2.3l1.6-2.8c1.4,1.2,3.5,1.9,5.7,1.9c2.6,0,4.1-1.1,4.1-3
		c0-1.8-1.3-2.9-4.3-2.9h-1.8v-2.5l4.5-5.3h-8.9v-3.1h13.4v2.4l-4.8,5.7C220.8,556.3,222.6,558.5,222.6,561.5z"/>
	<path d="M231.8,547.7v19.6h-3.6v-16.5H224v-3.1H231.8z"/>
	<path d="M249.9,561.3c0,3.4-2.5,6.3-7.8,6.3c-2.8,0-5.6-0.8-7.4-2.3l1.5-2.8c1.4,1.2,3.6,1.9,5.8,1.9c2.6,0,4.1-1.1,4.1-3
		c0-1.9-1.2-3.1-5.3-3.1h-4.7l1-10.7h11.5v3.1h-8.4l-0.4,4.5h1.9C247.6,555.3,249.9,557.9,249.9,561.3z"/>
	<path d="M267.1,557.2c0,6.7-3.9,10.4-9.6,10.4c-2,0-3.8-0.4-5.2-1.3l1.3-2.7c1.1,0.7,2.4,1,3.7,1c3.7,0,6-2.3,6-6.7v0
		c-1.2,1.4-3.1,2-5.2,2c-3.9,0-6.7-2.4-6.7-6c0-3.9,3.2-6.4,7.2-6.4C264,547.5,267.1,550.9,267.1,557.2z M262.9,553.6
		c0-1.8-1.5-3.3-4.1-3.3c-2.3,0-3.8,1.3-3.8,3.3c0,2,1.5,3.3,3.9,3.3C261.3,557,262.9,555.6,262.9,553.6z"/>
</g>
<g>
	<path d="M197.7,603c0,3.6-3.2,5.9-8,5.9s-8-2.3-8-5.9c0-2.2,1.1-3.8,3.1-4.7c-1.6-0.9-2.4-2.3-2.4-4.1c0-3.4,2.9-5.5,7.3-5.5
		c4.4,0,7.3,2.1,7.3,5.5c0,1.8-0.9,3.2-2.5,4.1C196.5,599.3,197.7,600.9,197.7,603z M194,602.9c0-1.9-1.7-3.1-4.4-3.1
		c-2.7,0-4.3,1.2-4.3,3.1c0,2,1.6,3.2,4.3,3.2C192.3,606.1,194,604.9,194,602.9z M185.9,594.4c0,1.7,1.4,2.7,3.7,2.7
		c2.3,0,3.8-1.1,3.8-2.7c0-1.8-1.5-2.8-3.8-2.8C187.4,591.6,185.9,592.6,185.9,594.4z"/>
	<path d="M215.1,598.5c0,6.7-3.9,10.4-9.6,10.4c-2,0-3.8-0.4-5.2-1.3l1.3-2.7c1.1,0.7,2.4,1,3.7,1c3.7,0,6-2.3,6-6.7v0
		c-1.2,1.4-3.1,2-5.2,2c-3.9,0-6.7-2.4-6.7-6c0-3.9,3.2-6.4,7.2-6.4C212,588.8,215.1,592.2,215.1,598.5z M210.9,594.9
		c0-1.8-1.5-3.3-4.1-3.3c-2.3,0-3.8,1.3-3.8,3.3c0,2,1.5,3.3,3.9,3.3C209.3,598.3,210.9,596.9,210.9,594.9z"/>
	<path d="M241.2,603c0,3.6-3.2,5.9-8,5.9s-8-2.3-8-5.9c0-2.2,1.1-3.8,3.1-4.7c-1.6-0.9-2.4-2.3-2.4-4.1c0-3.4,2.9-5.5,7.3-5.5
		c4.4,0,7.3,2.1,7.3,5.5c0,1.8-0.9,3.2-2.5,4.1C240.1,599.3,241.2,600.9,241.2,603z M237.5,602.9c0-1.9-1.7-3.1-4.4-3.1
		c-2.7,0-4.3,1.2-4.3,3.1c0,2,1.6,3.2,4.3,3.2C235.9,606.1,237.5,604.9,237.5,602.9z M229.5,594.4c0,1.7,1.4,2.7,3.7,2.7
		c2.3,0,3.8-1.1,3.8-2.7c0-1.8-1.5-2.8-3.8-2.8C230.9,591.6,229.5,592.6,229.5,594.4z"/>
	<path d="M259.2,602.6c0,3.9-3.2,6.4-7.2,6.4c-5.3,0-8.5-3.4-8.5-9.7c0-6.7,3.9-10.4,9.6-10.4c2,0,3.8,0.4,5.2,1.3l-1.3,2.7
		c-1.1-0.7-2.4-1-3.7-1c-3.7,0-6,2.3-6,6.7v0c1.2-1.4,3.1-2,5.2-2C256.3,596.6,259.2,598.9,259.2,602.6z M255.7,602.7
		c0-2-1.5-3.3-3.9-3.3c-2.4,0-4,1.4-4,3.4c0,1.8,1.5,3.3,4.1,3.3C254.1,606.1,255.7,604.8,255.7,602.7z"/>
	<path d="M282.8,602.8c0,3.3-2.5,6.2-7.8,6.2c-2.8,0-5.5-0.8-7.4-2.3l1.6-2.8c1.4,1.2,3.5,1.9,5.7,1.9c2.6,0,4.1-1.1,4.1-3
		c0-1.8-1.3-2.9-4.3-2.9H273v-2.5l4.5-5.3h-8.9V589h13.4v2.4l-4.8,5.7C280.9,597.6,282.8,599.8,282.8,602.8z"/>
	<path d="M299.6,589v2.4l-7.6,17.2h-3.9l7.4-16.5h-7.7v3.3h-3.4V589H299.6z"/>
	<path d="M323.5,602.8c0,3.3-2.5,6.2-7.8,6.2c-2.8,0-5.5-0.8-7.4-2.3l1.6-2.8c1.4,1.2,3.5,1.9,5.7,1.9c2.6,0,4.1-1.1,4.1-3
		c0-1.8-1.3-2.9-4.3-2.9h-1.8v-2.5l4.5-5.3h-8.9V589h13.4v2.4l-4.8,5.7C321.6,597.6,323.5,599.8,323.5,602.8z"/>
	<path d="M325.9,598.8c0-6.4,3.5-10.1,8.2-10.1c4.7,0,8.2,3.6,8.2,10.1c0,6.4-3.5,10.1-8.2,10.1
		C329.4,608.9,325.9,605.3,325.9,598.8z M338.6,598.8c0-4.7-1.8-6.9-4.5-6.9c-2.7,0-4.5,2.2-4.5,6.9c0,4.7,1.8,6.9,4.5,6.9
		C336.8,605.8,338.6,603.6,338.6,598.8z"/>
</g>
<g>
	<path d="M199.2,645.5h-3.5v4.5h-3.5v-4.5h-10.8V643l9.7-12.6h3.9l-9.1,12.1h6.4v-3.9h3.4v3.9h3.5V645.5z"/>
	<path d="M215.7,639.8c0,6.7-3.9,10.4-9.6,10.4c-2,0-3.8-0.4-5.2-1.3l1.3-2.7c1.1,0.7,2.4,1,3.7,1c3.7,0,6-2.3,6-6.7v0
		c-1.2,1.4-3.1,2-5.2,2c-3.9,0-6.7-2.4-6.7-6c0-3.9,3.2-6.4,7.2-6.4C212.6,630.1,215.7,633.5,215.7,639.8z M211.5,636.2
		c0-1.8-1.5-3.3-4.1-3.3c-2.3,0-3.8,1.3-3.8,3.3c0,2,1.5,3.3,3.9,3.3C209.9,639.6,211.5,638.2,211.5,636.2z"/>
	<path d="M243.4,645.5h-3.5v4.5h-3.5v-4.5h-10.8V643l9.7-12.6h3.9l-9.1,12.1h6.4v-3.9h3.4v3.9h3.5V645.5z"/>
	<path d="M259.9,639.8c0,6.7-3.9,10.4-9.6,10.4c-2,0-3.8-0.4-5.2-1.3l1.3-2.7c1.1,0.7,2.4,1,3.7,1c3.7,0,6-2.3,6-6.7v0
		c-1.2,1.4-3.1,2-5.2,2c-3.9,0-6.7-2.4-6.7-6c0-3.9,3.2-6.4,7.2-6.4C256.7,630.1,259.9,633.5,259.9,639.8z M255.6,636.2
		c0-1.8-1.5-3.3-4.1-3.3c-2.3,0-3.8,1.3-3.8,3.3c0,2,1.5,3.3,3.9,3.3C254,639.6,255.6,638.2,255.6,636.2z"/>
	<path d="M286,644.3c0,3.6-3.2,5.9-8,5.9s-8-2.3-8-5.9c0-2.2,1.1-3.8,3.1-4.7c-1.6-0.9-2.4-2.3-2.4-4.1c0-3.4,2.9-5.5,7.3-5.5
		c4.4,0,7.3,2.1,7.3,5.5c0,1.8-0.9,3.2-2.5,4.1C284.8,640.6,286,642.2,286,644.3z M282.3,644.2c0-1.9-1.7-3.1-4.4-3.1
		c-2.7,0-4.3,1.2-4.3,3.1c0,2,1.6,3.2,4.3,3.2C280.6,647.4,282.3,646.2,282.3,644.2z M274.2,635.7c0,1.7,1.4,2.7,3.7,2.7
		c2.3,0,3.8-1.1,3.8-2.7c0-1.8-1.5-2.8-3.8-2.8C275.7,632.9,274.2,633.9,274.2,635.7z"/>
	<path d="M303.4,639.8c0,6.7-3.9,10.4-9.6,10.4c-2,0-3.8-0.4-5.2-1.3l1.3-2.7c1.1,0.7,2.4,1,3.7,1c3.7,0,6-2.3,6-6.7v0
		c-1.2,1.4-3.1,2-5.2,2c-3.9,0-6.7-2.4-6.7-6c0-3.9,3.2-6.4,7.2-6.4C300.3,630.1,303.4,633.5,303.4,639.8z M299.2,636.2
		c0-1.8-1.5-3.3-4.1-3.3c-2.3,0-3.8,1.3-3.8,3.3c0,2,1.5,3.3,3.9,3.3C297.6,639.6,299.2,638.2,299.2,636.2z"/>
</g>
<g>
	<path d="M188.5,671.7v19.6h-3.6v-16.5h-4.1v-3.1H188.5z"/>
	<path d="M206.6,688.2v3.1h-14.4v-2.4l7.8-7.4c1.9-1.8,2.2-3,2.2-4.1c0-1.8-1.2-2.8-3.6-2.8c-1.9,0-3.5,0.6-4.6,2l-2.5-2
		c1.5-2,4.2-3.2,7.4-3.2c4.3,0,7,2.2,7,5.6c0,1.9-0.5,3.6-3.2,6.2l-5.2,5H206.6z"/>
	<path d="M208.9,689.1c0-1.4,1-2.3,2.3-2.3s2.3,0.9,2.3,2.3c0,1.3-1,2.3-2.3,2.3S208.9,690.5,208.9,689.1z"/>
	<path d="M230.3,688.2v3.1h-14.4v-2.4l7.8-7.4c1.9-1.8,2.2-3,2.2-4.1c0-1.8-1.2-2.8-3.6-2.8c-1.9,0-3.5,0.6-4.6,2l-2.5-2
		c1.5-2,4.2-3.2,7.4-3.2c4.3,0,7,2.2,7,5.6c0,1.9-0.5,3.6-3.2,6.2l-5.2,5H230.3z"/>
	<path d="M246.7,685.2c0,3.4-2.5,6.3-7.8,6.3c-2.8,0-5.6-0.8-7.4-2.3l1.5-2.8c1.4,1.2,3.6,1.9,5.8,1.9c2.6,0,4.1-1.1,4.1-3
		c0-1.9-1.2-3.1-5.3-3.1H233l1-10.7h11.5v3.1h-8.4l-0.4,4.5h1.9C244.3,679.2,246.7,681.8,246.7,685.2z"/>
	<path d="M256.4,678.5c0-1.4,1-2.3,2.3-2.3s2.3,0.9,2.3,2.3c0,1.3-1,2.3-2.3,2.3S256.4,679.8,256.4,678.5z M256.4,689.1
		c0-1.4,1-2.3,2.3-2.3s2.3,0.9,2.3,2.3c0,1.3-1,2.3-2.3,2.3S256.4,690.5,256.4,689.1z"/>
	<path d="M277.8,671.7v19.6h-3.6v-16.5H270v-3.1H277.8z"/>
</g>
<g>
	<path d="M704.2,567.2c-0.1-0.1-0.2-0.3-0.2-0.5v-18.3c0-0.2,0.1-0.4,0.2-0.5c0.1-0.1,0.3-0.2,0.5-0.2h1.4c0.2,0,0.4,0.1,0.5,0.2
		c0.1,0.1,0.2,0.3,0.2,0.5v7.7h9.6v-7.7c0-0.2,0.1-0.4,0.2-0.5c0.1-0.1,0.3-0.2,0.5-0.2h1.4c0.2,0,0.4,0.1,0.5,0.2
		c0.1,0.1,0.2,0.3,0.2,0.5v18.3c0,0.2-0.1,0.3-0.2,0.5c-0.1,0.1-0.3,0.2-0.5,0.2H717c-0.2,0-0.3-0.1-0.5-0.2
		c-0.1-0.1-0.2-0.3-0.2-0.5v-8h-9.6v8c0,0.2-0.1,0.3-0.2,0.5c-0.1,0.1-0.3,0.2-0.5,0.2h-1.4C704.5,567.3,704.3,567.3,704.2,567.2z"
		/>
	<path d="M724.2,567.2c-0.1-0.1-0.2-0.3-0.2-0.5v-18.3c0-0.2,0.1-0.4,0.2-0.5c0.1-0.1,0.3-0.2,0.5-0.2h11.6c0.2,0,0.3,0.1,0.5,0.2
		c0.1,0.1,0.2,0.3,0.2,0.5v1.1c0,0.2-0.1,0.3-0.2,0.5c-0.1,0.1-0.3,0.2-0.5,0.2h-9.5v6.1h8.9c0.2,0,0.3,0.1,0.5,0.2
		c0.1,0.1,0.2,0.3,0.2,0.5v1c0,0.2-0.1,0.3-0.2,0.5c-0.1,0.1-0.3,0.2-0.5,0.2h-8.9v6.4h9.7c0.2,0,0.4,0.1,0.5,0.2
		c0.1,0.1,0.2,0.3,0.2,0.5v1.1c0,0.2-0.1,0.3-0.2,0.5c-0.1,0.1-0.3,0.2-0.5,0.2h-11.8C724.5,567.3,724.3,567.3,724.2,567.2z"/>
	<path d="M739.4,567.2c-0.1-0.1-0.2-0.2-0.2-0.4c0-0.1,0-0.3,0.1-0.4l6.4-9l-6.1-8.7c-0.1-0.1-0.1-0.2-0.1-0.4s0.1-0.3,0.2-0.4
		c0.1-0.1,0.2-0.2,0.4-0.2h1.7c0.3,0,0.5,0.2,0.8,0.5l4.9,7l4.9-7c0.2-0.3,0.4-0.5,0.7-0.5h1.6c0.1,0,0.3,0.1,0.4,0.2
		c0.1,0.1,0.2,0.2,0.2,0.4c0,0.2,0,0.3-0.1,0.4l-6,8.7l6.4,9c0.1,0.1,0.1,0.2,0.1,0.4c0,0.1-0.1,0.3-0.2,0.4s-0.3,0.2-0.4,0.2h-1.7
		c-0.3,0-0.5-0.2-0.8-0.5l-5.2-7.3l-5.2,7.3c-0.2,0.3-0.4,0.5-0.7,0.5h-1.7C739.7,567.3,739.5,567.3,739.4,567.2z"/>
</g>
<g>
	<path d="M705.4,606.9c-1.3-1.3-2-3.2-2.1-5.6c0-0.5,0-1.3,0-2.5c0-1.2,0-2,0-2.5c0.1-2.4,0.8-4.2,2.1-5.6s3.2-2,5.7-2
		c1.7,0,3.1,0.3,4.2,0.9s2,1.4,2.6,2.3c0.6,1,0.9,2,1,3.1v0.1c0,0.1-0.1,0.3-0.2,0.4c-0.1,0.1-0.3,0.2-0.4,0.2h-1.5
		c-0.4,0-0.6-0.2-0.7-0.6c-0.3-1.4-0.9-2.4-1.7-3c-0.8-0.6-1.9-0.9-3.3-0.9c-3.2,0-4.9,1.8-5,5.3c0,0.5,0,1.3,0,2.3c0,1,0,1.8,0,2.4
		c0.1,3.6,1.8,5.3,5,5.3c1.4,0,2.5-0.3,3.3-0.9c0.8-0.6,1.4-1.6,1.7-3c0.1-0.2,0.1-0.4,0.3-0.5c0.1-0.1,0.3-0.1,0.4-0.1h1.5
		c0.2,0,0.3,0.1,0.4,0.2c0.1,0.1,0.2,0.2,0.2,0.4c-0.1,1.1-0.4,2.1-1,3.1s-1.5,1.7-2.6,2.3c-1.2,0.6-2.6,0.9-4.2,0.9
		C708.6,608.9,706.7,608.3,705.4,606.9z"/>
	<path d="M722.9,608.5c-0.1-0.1-0.2-0.3-0.2-0.5v-18.3c0-0.2,0.1-0.4,0.2-0.5c0.1-0.1,0.3-0.2,0.5-0.2h1.4c0.3,0,0.5,0.1,0.7,0.4
		l5.9,11.3l6-11.3c0-0.1,0.1-0.2,0.2-0.3c0.1-0.1,0.3-0.1,0.5-0.1h1.4c0.2,0,0.4,0.1,0.5,0.2c0.1,0.1,0.2,0.3,0.2,0.5V608
		c0,0.2-0.1,0.3-0.2,0.5s-0.3,0.2-0.5,0.2H738c-0.2,0-0.3-0.1-0.5-0.2c-0.1-0.1-0.2-0.3-0.2-0.5v-13.8l-4.7,9.1
		c-0.2,0.4-0.5,0.6-0.9,0.6h-0.9c-0.4,0-0.7-0.2-0.9-0.6l-4.7-9.1V608c0,0.2-0.1,0.3-0.2,0.5c-0.1,0.1-0.3,0.2-0.5,0.2h-1.4
		C723.1,608.6,723,608.6,722.9,608.5z"/>
	<path d="M750.3,608.5c-0.1-0.1-0.2-0.3-0.2-0.5v-6.6l-6.7-11.4c0,0,0-0.1,0-0.2c0-0.1-0.1-0.1-0.1-0.2c0-0.1,0.1-0.3,0.2-0.4
		c0.1-0.1,0.2-0.2,0.4-0.2h1.5c0.3,0,0.6,0.2,0.7,0.5l5.5,9.1l5.5-9.1c0.2-0.3,0.5-0.5,0.8-0.5h1.4c0.2,0,0.3,0.1,0.4,0.2
		c0.1,0.1,0.2,0.2,0.2,0.4c0,0.1,0,0.2-0.1,0.4l-6.7,11.4v6.6c0,0.2-0.1,0.3-0.2,0.5c-0.1,0.1-0.3,0.2-0.5,0.2h-1.5
		C750.6,608.6,750.4,608.6,750.3,608.5z"/>
	<path d="M763.2,608.5c-0.1-0.1-0.2-0.3-0.2-0.5v-18.3c0-0.2,0.1-0.4,0.2-0.5c0.1-0.1,0.3-0.2,0.5-0.2h1.4c0.2,0,0.4,0.1,0.5,0.2
		c0.1,0.1,0.2,0.3,0.2,0.5v6.9l7.5-7.2c0.3-0.3,0.7-0.4,1.1-0.4h1.5c0.1,0,0.3,0.1,0.4,0.2c0.1,0.1,0.2,0.2,0.2,0.4s0,0.3-0.1,0.4
		l-8.7,8.5l9.2,9.3c0.1,0.1,0.1,0.2,0.1,0.4s-0.1,0.3-0.2,0.4s-0.2,0.2-0.4,0.2h-1.6c-0.4,0-0.8-0.2-1.1-0.5l-8-7.9v7.7
		c0,0.2-0.1,0.3-0.2,0.5c-0.1,0.1-0.3,0.2-0.5,0.2h-1.4C763.5,608.6,763.3,608.6,763.2,608.5z"/>
</g>
<g>
	<path d="M704.2,649.8c-0.1-0.1-0.2-0.3-0.2-0.5V631c0-0.2,0.1-0.4,0.2-0.5c0.1-0.1,0.3-0.2,0.5-0.2h6.8c2.1,0,3.8,0.5,5,1.5
		c1.2,1,1.8,2.5,1.8,4.4c0,1.4-0.4,2.6-1.1,3.5c-0.7,0.9-1.7,1.5-3,1.9l4.3,7.4c0.1,0.1,0.1,0.2,0.1,0.3c0,0.1-0.1,0.3-0.2,0.4
		c-0.1,0.1-0.3,0.2-0.4,0.2h-1.3c-0.3,0-0.5-0.1-0.7-0.2c-0.2-0.1-0.3-0.3-0.4-0.6l-4.1-7.1h-4.9v7.2c0,0.2-0.1,0.3-0.2,0.5
		c-0.1,0.1-0.3,0.2-0.5,0.2h-1.4C704.5,650,704.3,649.9,704.2,649.8z M711.4,639.7c2.8,0,4.2-1.2,4.2-3.5c0-2.3-1.4-3.5-4.2-3.5
		h-4.6v7H711.4z"/>
	<path d="M723.8,648.2c-1.4-1.3-2.1-3.2-2.2-5.5c0-0.6,0-1.4,0-2.6c0-1.2,0-2.1,0-2.6c0.1-2.3,0.8-4.1,2.2-5.4s3.3-2,5.7-2
		c1.6,0,3,0.3,4.2,0.9c1.1,0.6,2,1.3,2.6,2.1c0.6,0.8,0.9,1.6,0.9,2.4v0.1c0,0.1-0.1,0.3-0.2,0.4c-0.1,0.1-0.3,0.1-0.4,0.1h-1.7
		c-0.2,0-0.3,0-0.4-0.1s-0.2-0.2-0.2-0.4c-0.3-0.8-0.8-1.6-1.6-2.2c-0.8-0.6-1.9-0.9-3.2-0.9c-1.5,0-2.8,0.4-3.6,1.3
		c-0.9,0.8-1.4,2.1-1.4,3.9c0,0.5,0,1.4,0,2.5c0,1.1,0,1.9,0,2.5c0.1,1.8,0.6,3.1,1.4,4c0.9,0.8,2.1,1.3,3.6,1.3
		c1.6,0,2.8-0.4,3.8-1.3c0.9-0.9,1.4-2.1,1.4-3.9v-1.2h-4.2c-0.2,0-0.3-0.1-0.5-0.2c-0.1-0.1-0.2-0.3-0.2-0.5V640
		c0-0.2,0.1-0.3,0.2-0.5c0.1-0.1,0.3-0.2,0.5-0.2h6.3c0.2,0,0.3,0.1,0.5,0.2c0.1,0.1,0.2,0.3,0.2,0.5v2.7c0,1.5-0.3,2.9-1,4
		s-1.5,2-2.7,2.6c-1.2,0.6-2.6,0.9-4.2,0.9C727,650.2,725.1,649.6,723.8,648.2z"/>
	<path d="M741.6,649.8c-0.1-0.1-0.2-0.3-0.2-0.5V631c0-0.2,0.1-0.4,0.2-0.5c0.1-0.1,0.3-0.2,0.5-0.2h7.7c2,0,3.5,0.5,4.5,1.4
		s1.5,2.2,1.5,3.8c0,1-0.2,1.9-0.7,2.6c-0.5,0.7-1,1.2-1.7,1.5c0.8,0.4,1.4,1,2,1.8c0.5,0.8,0.8,1.8,0.8,2.8c0,1-0.2,2-0.7,2.9
		c-0.5,0.9-1.2,1.5-2.1,2s-2.1,0.8-3.4,0.8H742C741.9,650,741.7,649.9,741.6,649.8z M749.3,638.6c1.2,0,2.1-0.3,2.7-0.8
		c0.6-0.5,0.9-1.3,0.9-2.3c0-1-0.3-1.7-0.9-2.2s-1.5-0.8-2.7-0.8h-5.2v6H749.3z M749.6,647.7c1.2,0,2.1-0.3,2.8-1
		c0.7-0.6,1-1.4,1-2.4c0-1-0.3-1.9-1-2.5c-0.7-0.6-1.6-0.9-2.8-0.9h-5.4v6.8H749.6z"/>
</g>
<g>
	<path d="M706.5,690.5l-3.6-18c0-0.1,0-0.2,0-0.3c0-0.1,0.1-0.3,0.2-0.4c0.1-0.1,0.2-0.2,0.4-0.2h1.5c0.4,0,0.6,0.2,0.7,0.5
		l2.9,14.4l3-9.9c0.2-0.4,0.5-0.7,0.9-0.7h1c0.2,0,0.4,0.1,0.6,0.2c0.1,0.1,0.2,0.3,0.3,0.5l3.1,9.9l2.8-14.4
		c0.1-0.3,0.3-0.5,0.7-0.5h1.5c0.1,0,0.3,0.1,0.4,0.2c0.1,0.1,0.2,0.2,0.2,0.4l0,0.3l-3.6,18c-0.1,0.5-0.4,0.8-0.9,0.8h-1.1
		c-0.5,0-0.8-0.2-0.9-0.7l-3.5-10.7l-3.4,10.7c-0.1,0.5-0.5,0.7-0.9,0.7h-1.1C706.8,691.3,706.6,691,706.5,690.5z"/>
	<path d="M727.6,689.5c-1.3-1.3-2-3.2-2.1-5.6c0-0.5,0-1.3,0-2.5c0-1.2,0-2,0-2.5c0.1-2.4,0.8-4.2,2.1-5.6s3.2-2,5.7-2
		c1.7,0,3.1,0.3,4.2,0.9s2,1.4,2.6,2.3c0.6,1,0.9,2,1,3.1v0.1c0,0.1-0.1,0.3-0.2,0.4c-0.1,0.1-0.3,0.2-0.4,0.2H739
		c-0.4,0-0.6-0.2-0.7-0.6c-0.3-1.4-0.9-2.4-1.7-3c-0.8-0.6-1.9-0.9-3.3-0.9c-3.2,0-4.9,1.8-5,5.3c0,0.5,0,1.3,0,2.3c0,1,0,1.8,0,2.4
		c0.1,3.6,1.8,5.3,5,5.3c1.4,0,2.5-0.3,3.3-0.9c0.8-0.6,1.4-1.6,1.7-3c0.1-0.2,0.1-0.4,0.3-0.5c0.1-0.1,0.3-0.1,0.4-0.1h1.5
		c0.2,0,0.3,0.1,0.4,0.2c0.1,0.1,0.2,0.2,0.2,0.4c-0.1,1.1-0.4,2.1-1,3.1s-1.5,1.7-2.6,2.3c-1.2,0.6-2.6,0.9-4.2,0.9
		C730.8,691.5,728.9,690.9,727.6,689.5z"/>
	<path d="M742.9,691.1c-0.1-0.1-0.2-0.2-0.2-0.4s0-0.3,0-0.3l6.9-18.1c0.1-0.4,0.4-0.6,0.9-0.6h1.9c0.4,0,0.7,0.2,0.9,0.6l6.9,18.1
		l0.1,0.3c0,0.1-0.1,0.3-0.2,0.4c-0.1,0.1-0.2,0.2-0.4,0.2h-1.4c-0.2,0-0.4-0.1-0.5-0.2c-0.1-0.1-0.2-0.2-0.2-0.3l-1.5-4H747l-1.5,4
		c0,0.1-0.1,0.2-0.2,0.3c-0.1,0.1-0.3,0.2-0.5,0.2h-1.4C743.2,691.3,743.1,691.2,742.9,691.1z M755.4,684.4l-3.8-9.9l-3.8,9.9H755.4
		z"/>
	<path d="M764.5,689.5c-1.4-1.3-2.1-3.2-2.2-5.5c0-0.6,0-1.4,0-2.6c0-1.2,0-2.1,0-2.6c0.1-2.3,0.8-4.1,2.2-5.4s3.3-2,5.7-2
		c1.6,0,3,0.3,4.2,0.9c1.1,0.6,2,1.3,2.6,2.1c0.6,0.8,0.9,1.6,0.9,2.4v0.1c0,0.1-0.1,0.3-0.2,0.4c-0.1,0.1-0.3,0.1-0.4,0.1h-1.7
		c-0.2,0-0.3,0-0.4-0.1s-0.2-0.2-0.2-0.4c-0.3-0.8-0.8-1.6-1.6-2.2c-0.8-0.6-1.9-0.9-3.2-0.9c-1.5,0-2.8,0.4-3.6,1.3
		c-0.9,0.8-1.4,2.1-1.4,3.9c0,0.5,0,1.4,0,2.5c0,1.1,0,1.9,0,2.5c0.1,1.8,0.6,3.1,1.4,4c0.9,0.8,2.1,1.3,3.6,1.3
		c1.6,0,2.8-0.4,3.8-1.3c0.9-0.9,1.4-2.1,1.4-3.9v-1.2h-4.2c-0.2,0-0.3-0.1-0.5-0.2c-0.1-0.1-0.2-0.3-0.2-0.5v-0.9
		c0-0.2,0.1-0.3,0.2-0.5c0.1-0.1,0.3-0.2,0.5-0.2h6.3c0.2,0,0.3,0.1,0.5,0.2c0.1,0.1,0.2,0.3,0.2,0.5v2.7c0,1.5-0.3,2.9-1,4
		s-1.5,2-2.7,2.6c-1.2,0.6-2.6,0.9-4.2,0.9C767.7,691.5,765.8,690.9,764.5,689.5z"/>
</g>
<g>
	<path d="M813.6,551.6v0.9h4.1v2.8h-4v12h-3.5v-12h-2.5v-2.8h2.5v-1c0-3.1,1.9-5.2,5.3-5.2c1.2,0,2.4,0.3,3.2,0.8l-1,2.6
		c-0.5-0.4-1.2-0.6-1.9-0.6C814.3,549.2,813.6,550,813.6,551.6z"/>
	<path d="M818.6,559.9c0-4.5,3.4-7.6,8.1-7.6c2.9,0,5.2,1.2,6.4,3.5l-2.7,1.6c-0.9-1.4-2.2-2.1-3.7-2.1c-2.6,0-4.5,1.8-4.5,4.7
		c0,2.9,2,4.7,4.5,4.7c1.5,0,2.8-0.6,3.7-2.1l2.7,1.6c-1.1,2.2-3.5,3.5-6.4,3.5C822,567.5,818.6,564.4,818.6,559.9z"/>
	<path d="M834.9,557.5c0-6.4,3.5-10.1,8.2-10.1c4.7,0,8.2,3.6,8.2,10.1c0,6.4-3.5,10.1-8.2,10.1C838.4,567.6,834.9,564,834.9,557.5z
		 M847.6,557.5c0-4.7-1.8-6.9-4.5-6.9c-2.7,0-4.5,2.2-4.5,6.9c0,4.7,1.8,6.9,4.5,6.9C845.8,564.5,847.6,562.3,847.6,557.5z"/>
	<path d="M853.7,557.5c0-6.4,3.5-10.1,8.2-10.1c4.7,0,8.2,3.6,8.2,10.1c0,6.4-3.5,10.1-8.2,10.1C857.3,567.6,853.7,564,853.7,557.5z
		 M866.5,557.5c0-4.7-1.8-6.9-4.5-6.9c-2.7,0-4.5,2.2-4.5,6.9c0,4.7,1.8,6.9,4.5,6.9C864.6,564.5,866.5,562.3,866.5,557.5z"/>
	<path d="M886.8,561.3c0,3.4-2.5,6.3-7.8,6.3c-2.8,0-5.6-0.8-7.4-2.3l1.5-2.8c1.4,1.2,3.6,1.9,5.8,1.9c2.6,0,4.1-1.1,4.1-3
		c0-1.9-1.2-3.1-5.3-3.1h-4.7l1-10.7h11.5v3.1h-8.4l-0.4,4.5h1.9C884.5,555.3,886.8,557.9,886.8,561.3z"/>
	<path d="M902.7,561.5c0,3.3-2.5,6.2-7.8,6.2c-2.8,0-5.5-0.8-7.4-2.3l1.6-2.8c1.4,1.2,3.5,1.9,5.7,1.9c2.6,0,4.1-1.1,4.1-3
		c0-1.8-1.3-2.9-4.3-2.9H893v-2.5l4.5-5.3h-8.9v-3.1h13.4v2.4l-4.8,5.7C900.8,556.3,902.7,558.5,902.7,561.5z"/>
</g>
<g>
	<path d="M808.7,598.8c0-6.4,3.5-10.1,8.2-10.1c4.7,0,8.2,3.6,8.2,10.1c0,6.4-3.5,10.1-8.2,10.1
		C812.2,608.9,808.7,605.3,808.7,598.8z M821.4,598.8c0-4.7-1.8-6.9-4.5-6.9c-2.7,0-4.5,2.2-4.5,6.9c0,4.7,1.8,6.9,4.5,6.9
		C819.5,605.8,821.4,603.6,821.4,598.8z"/>
	<path d="M850.3,598.5c0,6.7-3.9,10.4-9.6,10.4c-2,0-3.8-0.4-5.2-1.3l1.3-2.7c1.1,0.7,2.4,1,3.7,1c3.7,0,6-2.3,6-6.7v0
		c-1.2,1.4-3.1,2-5.2,2c-3.9,0-6.7-2.4-6.7-6c0-3.9,3.2-6.4,7.2-6.4C847.2,588.8,850.3,592.2,850.3,598.5z M846.1,594.9
		c0-1.8-1.5-3.3-4.1-3.3c-2.3,0-3.8,1.3-3.8,3.3c0,2,1.5,3.3,3.9,3.3C844.5,598.3,846.1,596.9,846.1,594.9z"/>
	<path d="M867.9,598.5c0,6.7-3.9,10.4-9.6,10.4c-2,0-3.8-0.4-5.2-1.3l1.3-2.7c1.1,0.7,2.4,1,3.7,1c3.7,0,6-2.3,6-6.7v0
		c-1.2,1.4-3.1,2-5.2,2c-3.9,0-6.7-2.4-6.7-6c0-3.9,3.2-6.4,7.2-6.4C864.7,588.8,867.9,592.2,867.9,598.5z M863.7,594.9
		c0-1.8-1.5-3.3-4.1-3.3c-2.3,0-3.8,1.3-3.8,3.3c0,2,1.5,3.3,3.9,3.3C862,598.3,863.7,596.9,863.7,594.9z"/>
	<path d="M892.3,602.6c0,3.4-2.5,6.3-7.8,6.3c-2.8,0-5.6-0.8-7.4-2.3l1.5-2.8c1.4,1.2,3.6,1.9,5.8,1.9c2.6,0,4.1-1.1,4.1-3
		c0-1.9-1.2-3.1-5.3-3.1h-4.7l1-10.7h11.5v3.1h-8.4l-0.4,4.5h1.9C890,596.6,892.3,599.2,892.3,602.6z"/>
	<path d="M908.5,602.6c0,3.4-2.5,6.3-7.8,6.3c-2.8,0-5.6-0.8-7.4-2.3l1.5-2.8c1.4,1.2,3.6,1.9,5.8,1.9c2.6,0,4.1-1.1,4.1-3
		c0-1.9-1.2-3.1-5.3-3.1h-4.7l1-10.7h11.5v3.1H899l-0.4,4.5h1.9C906.2,596.6,908.5,599.2,908.5,602.6z"/>
	<path d="M918.4,598.8c0-6.4,3.5-10.1,8.2-10.1c4.7,0,8.2,3.6,8.2,10.1c0,6.4-3.5,10.1-8.2,10.1
		C921.9,608.9,918.4,605.3,918.4,598.8z M931.1,598.8c0-4.7-1.8-6.9-4.5-6.9c-2.7,0-4.5,2.2-4.5,6.9c0,4.7,1.8,6.9,4.5,6.9
		C929.2,605.8,931.1,603.6,931.1,598.8z"/>
</g>
<g>
	<path d="M822.9,646.9v3.1h-14.4v-2.4l7.8-7.4c1.9-1.8,2.2-3,2.2-4.1c0-1.8-1.2-2.8-3.6-2.8c-1.9,0-3.5,0.6-4.6,2l-2.5-2
		c1.5-2,4.2-3.2,7.4-3.2c4.3,0,7,2.2,7,5.6c0,1.9-0.5,3.6-3.2,6.2l-5.2,5H822.9z"/>
	<path d="M839.2,643.9c0,3.4-2.5,6.3-7.8,6.3c-2.8,0-5.6-0.8-7.4-2.3l1.5-2.8c1.4,1.2,3.6,1.9,5.8,1.9c2.6,0,4.1-1.1,4.1-3
		c0-1.9-1.2-3.1-5.3-3.1h-4.7l1-10.7h11.5v3.1h-8.4l-0.4,4.5h1.9C836.9,637.9,839.2,640.5,839.2,643.9z"/>
	<path d="M855.4,646.9v3.1h-14.4v-2.4l7.8-7.4c1.9-1.8,2.2-3,2.2-4.1c0-1.8-1.2-2.8-3.6-2.8c-1.9,0-3.5,0.6-4.6,2l-2.5-2
		c1.5-2,4.2-3.2,7.4-3.2c4.3,0,7,2.2,7,5.6c0,1.9-0.5,3.6-3.2,6.2l-5.2,5H855.4z"/>
	<path d="M865.2,640.2c0-6.4,3.5-10.1,8.2-10.1c4.7,0,8.2,3.6,8.2,10.1c0,6.4-3.5,10.1-8.2,10.1
		C868.7,650.2,865.2,646.6,865.2,640.2z M877.9,640.2c0-4.7-1.8-6.9-4.5-6.9c-2.7,0-4.5,2.2-4.5,6.9c0,4.7,1.8,6.9,4.5,6.9
		C876.1,647.1,877.9,644.9,877.9,640.2z"/>
	<path d="M907.7,644.3c0,3.6-3.2,5.9-8,5.9s-8-2.3-8-5.9c0-2.2,1.1-3.8,3.1-4.7c-1.6-0.9-2.4-2.3-2.4-4.1c0-3.4,2.9-5.5,7.3-5.5
		c4.4,0,7.3,2.1,7.3,5.5c0,1.8-0.9,3.2-2.5,4.1C906.5,640.6,907.7,642.2,907.7,644.3z M904,644.2c0-1.9-1.7-3.1-4.4-3.1
		c-2.7,0-4.3,1.2-4.3,3.1c0,2,1.6,3.2,4.3,3.2C902.3,647.4,904,646.2,904,644.2z M895.9,635.7c0,1.7,1.4,2.7,3.7,2.7
		c2.3,0,3.8-1.1,3.8-2.7c0-1.8-1.5-2.8-3.8-2.8C897.4,632.9,895.9,633.9,895.9,635.7z"/>
	<path d="M923.9,644.1c0,3.3-2.5,6.2-7.8,6.2c-2.8,0-5.5-0.8-7.4-2.3l1.6-2.8c1.4,1.2,3.5,1.9,5.7,1.9c2.6,0,4.1-1.1,4.1-3
		c0-1.8-1.3-2.9-4.3-2.9h-1.8v-2.5l4.5-5.3h-8.9v-3.1h13.4v2.4l-4.8,5.7C922.1,638.9,923.9,641.1,923.9,644.1z"/>
</g>
<g>
	<path d="M822.6,685.4c0,3.3-2.5,6.2-7.8,6.2c-2.8,0-5.5-0.8-7.4-2.3l1.6-2.8c1.4,1.2,3.5,1.9,5.7,1.9c2.6,0,4.1-1.1,4.1-3
		c0-1.8-1.3-2.9-4.3-2.9h-1.8V680l4.5-5.3h-8.9v-3.1h13.4v2.4l-4.8,5.7C820.7,680.2,822.6,682.4,822.6,685.4z"/>
	<path d="M824.8,689.1c0-1.4,1-2.3,2.3-2.3s2.3,0.9,2.3,2.3c0,1.3-1,2.3-2.3,2.3S824.8,690.5,824.8,689.1z"/>
	<path d="M846.9,681.1c0,6.7-3.9,10.4-9.6,10.4c-2,0-3.8-0.4-5.2-1.3l1.3-2.7c1.1,0.7,2.4,1,3.7,1c3.7,0,6-2.3,6-6.7v0
		c-1.2,1.4-3.1,2-5.2,2c-3.9,0-6.7-2.4-6.7-6c0-3.9,3.2-6.4,7.2-6.4C843.7,671.4,846.9,674.8,846.9,681.1z M842.7,677.5
		c0-1.8-1.5-3.3-4.1-3.3c-2.3,0-3.8,1.3-3.8,3.3c0,2,1.5,3.3,3.9,3.3C841,680.9,842.7,679.5,842.7,677.5z"/>
	<path d="M865.2,685.6c0,3.6-3.2,5.9-8,5.9s-8-2.3-8-5.9c0-2.2,1.1-3.8,3.1-4.7c-1.6-0.9-2.4-2.3-2.4-4.1c0-3.4,2.9-5.5,7.3-5.5
		c4.4,0,7.3,2.1,7.3,5.5c0,1.8-0.9,3.2-2.5,4.1C864.1,681.9,865.2,683.5,865.2,685.6z M861.6,685.5c0-1.9-1.7-3.1-4.4-3.1
		c-2.7,0-4.3,1.2-4.3,3.1c0,2,1.6,3.2,4.3,3.2C859.9,688.7,861.6,687.5,861.6,685.5z M853.5,677c0,1.7,1.4,2.7,3.7,2.7
		c2.3,0,3.8-1.1,3.8-2.7c0-1.8-1.5-2.8-3.8-2.8C855,674.2,853.5,675.2,853.5,677z"/>
	<path d="M875.2,678.5c0-1.4,1-2.3,2.3-2.3s2.3,0.9,2.3,2.3c0,1.3-1,2.3-2.3,2.3S875.2,679.8,875.2,678.5z M875.2,689.1
		c0-1.4,1-2.3,2.3-2.3s2.3,0.9,2.3,2.3c0,1.3-1,2.3-2.3,2.3S875.2,690.5,875.2,689.1z"/>
	<path d="M896.7,671.7v19.6H893v-16.5h-4.1v-3.1H896.7z"/>
</g>
<g>
	<g>
		<path d="M75.2,511.6c-0.2-0.2-0.2-0.4-0.2-0.6v-23.5c0-0.3,0.1-0.5,0.2-0.6c0.2-0.2,0.4-0.2,0.6-0.2H84c3.6,0,6.2,0.8,7.8,2.4
			c1.6,1.6,2.4,4.1,2.5,7.3c0,0.7,0,1.6,0,2.8s0,2.1,0,2.8c-0.1,2.3-0.5,4.1-1.1,5.6c-0.7,1.4-1.8,2.5-3.2,3.2s-3.4,1-5.8,1h-8.4
			C75.6,511.8,75.4,511.7,75.2,511.6z M84,508.7c1.7,0,3-0.2,3.9-0.7c1-0.5,1.7-1.2,2.1-2.2c0.4-1,0.7-2.3,0.7-4
			c0-1.4,0.1-2.3,0.1-2.7c0-0.4,0-1.3-0.1-2.7c0-2.4-0.6-4.1-1.7-5.2c-1.1-1.1-2.8-1.6-5.3-1.6h-5.3v19.1H84z"/>
		<path d="M101.3,511.4c-1-0.5-1.8-1.1-2.4-2s-0.9-1.7-0.9-2.8c0-1.6,0.7-2.9,2-3.9c1.3-1,3.1-1.7,5.3-2l5.4-0.8v-1
			c0-2.4-1.4-3.7-4.2-3.7c-1.1,0-1.9,0.2-2.6,0.7c-0.7,0.4-1.2,1-1.5,1.6c-0.1,0.2-0.2,0.4-0.3,0.5c-0.1,0.1-0.3,0.1-0.5,0.1h-1.5
			c-0.2,0-0.4-0.1-0.6-0.2c-0.2-0.2-0.2-0.3-0.2-0.6c0-0.6,0.3-1.2,0.8-2c0.5-0.7,1.3-1.4,2.4-1.9c1.1-0.5,2.4-0.8,4-0.8
			c2.7,0,4.6,0.6,5.8,1.9c1.2,1.3,1.8,2.8,1.8,4.7V511c0,0.2-0.1,0.4-0.2,0.6c-0.2,0.2-0.4,0.2-0.6,0.2h-1.7c-0.2,0-0.4-0.1-0.6-0.2
			c-0.2-0.2-0.2-0.4-0.2-0.6v-1.5c-0.5,0.8-1.3,1.4-2.3,1.9c-1,0.5-2.3,0.8-3.9,0.8C103.4,512.2,102.3,511.9,101.3,511.4z
			 M109.2,507.9c1-1,1.5-2.5,1.5-4.4v-1l-4.2,0.6c-1.7,0.2-3,0.6-3.9,1.2c-0.9,0.6-1.3,1.3-1.3,2.1c0,1,0.4,1.7,1.2,2.2
			c0.8,0.5,1.7,0.8,2.8,0.8C106.9,509.5,108.2,509,109.2,507.9z"/>
		<path d="M119.5,511.6c-0.2-0.2-0.2-0.4-0.2-0.6v-17c0-0.2,0.1-0.4,0.2-0.6c0.2-0.2,0.4-0.3,0.6-0.3h1.7c0.2,0,0.4,0.1,0.6,0.3
			s0.3,0.4,0.3,0.6v1.6c1-1.6,2.7-2.4,5-2.4h1.4c0.2,0,0.4,0.1,0.6,0.2c0.2,0.2,0.2,0.4,0.2,0.6v1.5c0,0.2-0.1,0.4-0.2,0.6
			c-0.2,0.1-0.4,0.2-0.6,0.2h-2.2c-1.3,0-2.3,0.4-3.1,1.1c-0.7,0.8-1.1,1.8-1.1,3.1V511c0,0.2-0.1,0.4-0.3,0.6
			c-0.2,0.2-0.4,0.2-0.6,0.2h-1.8C119.8,511.8,119.6,511.7,119.5,511.6z"/>
		<path d="M133.2,511.6c-0.2-0.2-0.2-0.4-0.2-0.6v-23.9c0-0.2,0.1-0.4,0.2-0.6c0.2-0.2,0.4-0.2,0.6-0.2h1.7c0.2,0,0.4,0.1,0.6,0.2
			c0.2,0.2,0.2,0.4,0.2,0.6v12.5l7.1-5.9c0.1,0,0.2-0.1,0.4-0.3c0.2-0.1,0.3-0.2,0.5-0.3c0.2,0,0.4-0.1,0.6-0.1h1.9
			c0.2,0,0.4,0.1,0.5,0.2c0.1,0.1,0.2,0.3,0.2,0.5c0,0.3-0.1,0.5-0.4,0.7l-8.3,6.9l9.2,9c0.3,0.2,0.4,0.5,0.4,0.6
			c0,0.2-0.1,0.4-0.2,0.5c-0.1,0.1-0.3,0.2-0.5,0.2h-1.9c-0.4,0-0.6,0-0.8-0.1c-0.2-0.1-0.4-0.2-0.7-0.5l-8-7.7v7.5
			c0,0.2-0.1,0.4-0.2,0.6c-0.2,0.2-0.4,0.2-0.6,0.2h-1.7C133.5,511.8,133.3,511.7,133.2,511.6z"/>
		<path d="M163.3,511.2c-1.5-0.6-2.6-1.4-3.3-2.5c-0.8-1-1.2-2.1-1.2-3.3c0-0.2,0.1-0.4,0.2-0.5c0.2-0.2,0.3-0.2,0.6-0.2h1.8
			c0.5,0,0.8,0.2,0.9,0.7c0.2,1,0.8,1.9,1.9,2.6c1,0.7,2.5,1.1,4.3,1.1c2,0,3.5-0.4,4.5-1.1c1-0.7,1.5-1.7,1.5-3
			c0-0.8-0.2-1.5-0.7-2s-1.2-0.9-2.2-1.3s-2.4-0.9-4.3-1.4c-1.9-0.5-3.4-1.1-4.5-1.7c-1.1-0.6-1.9-1.3-2.5-2.2
			c-0.6-0.9-0.8-2-0.8-3.3c0-1.3,0.4-2.5,1.1-3.5c0.7-1,1.7-1.8,3-2.4c1.3-0.6,2.9-0.9,4.7-0.9c1.9,0,3.5,0.3,4.8,1
			c1.3,0.7,2.4,1.5,3.1,2.5c0.7,1,1.1,2,1.1,3c0,0.2-0.1,0.4-0.2,0.5s-0.3,0.2-0.6,0.2h-1.9c-0.5,0-0.8-0.2-0.9-0.7
			c-0.1-1-0.7-1.8-1.7-2.5s-2.2-1-3.7-1c-1.6,0-2.9,0.3-3.9,0.9c-0.9,0.6-1.4,1.5-1.4,2.8c0,0.8,0.2,1.5,0.7,2c0.4,0.5,1.1,1,2,1.4
			c0.9,0.4,2.2,0.8,4,1.3c2,0.6,3.6,1.1,4.8,1.7c1.2,0.6,2.1,1.3,2.6,2.2c0.6,0.9,0.9,2,0.9,3.3c0,2.2-0.9,4-2.6,5.3
			c-1.7,1.3-4.1,1.9-7,1.9C166.5,512.2,164.8,511.9,163.3,511.2z"/>
		<path d="M182.6,511.6c-0.2-0.2-0.2-0.4-0.2-0.6v-23.9c0-0.2,0.1-0.4,0.2-0.6c0.2-0.2,0.4-0.2,0.6-0.2h1.7c0.2,0,0.4,0.1,0.6,0.2
			c0.2,0.2,0.2,0.4,0.2,0.6V511c0,0.2-0.1,0.4-0.2,0.6c-0.2,0.2-0.4,0.2-0.6,0.2h-1.7C183,511.8,182.8,511.7,182.6,511.6z"/>
		<path d="M193,511.4c-1-0.5-1.8-1.1-2.4-2s-0.9-1.7-0.9-2.8c0-1.6,0.7-2.9,2-3.9c1.3-1,3.1-1.7,5.3-2l5.4-0.8v-1
			c0-2.4-1.4-3.7-4.2-3.7c-1.1,0-1.9,0.2-2.6,0.7c-0.7,0.4-1.2,1-1.5,1.6c-0.1,0.2-0.2,0.4-0.3,0.5c-0.1,0.1-0.3,0.1-0.5,0.1h-1.5
			c-0.2,0-0.4-0.1-0.6-0.2c-0.2-0.2-0.2-0.3-0.2-0.6c0-0.6,0.3-1.2,0.8-2c0.5-0.7,1.3-1.4,2.4-1.9c1.1-0.5,2.4-0.8,4-0.8
			c2.7,0,4.6,0.6,5.8,1.9c1.2,1.3,1.8,2.8,1.8,4.7V511c0,0.2-0.1,0.4-0.2,0.6c-0.2,0.2-0.4,0.2-0.6,0.2h-1.7c-0.2,0-0.4-0.1-0.6-0.2
			c-0.2-0.2-0.2-0.4-0.2-0.6v-1.5c-0.5,0.8-1.3,1.4-2.3,1.9c-1,0.5-2.3,0.8-3.9,0.8C195.1,512.2,194,511.9,193,511.4z M200.9,507.9
			c1-1,1.5-2.5,1.5-4.4v-1l-4.2,0.6c-1.7,0.2-3,0.6-3.9,1.2c-0.9,0.6-1.3,1.3-1.3,2.1c0,1,0.4,1.7,1.2,2.2c0.8,0.5,1.7,0.8,2.8,0.8
			C198.6,509.5,199.9,509,200.9,507.9z"/>
		<path d="M212.4,505.5V496h-2.8c-0.2,0-0.4-0.1-0.6-0.2c-0.2-0.2-0.2-0.4-0.2-0.6v-1.2c0-0.2,0.1-0.4,0.2-0.6
			c0.2-0.2,0.4-0.2,0.6-0.2h2.8v-6c0-0.2,0.1-0.4,0.2-0.6c0.2-0.2,0.4-0.2,0.6-0.2h1.7c0.2,0,0.4,0.1,0.6,0.2
			c0.2,0.2,0.2,0.4,0.2,0.6v6h4.5c0.2,0,0.4,0.1,0.6,0.2c0.2,0.2,0.2,0.4,0.2,0.6v1.2c0,0.2-0.1,0.4-0.2,0.6
			c-0.2,0.2-0.4,0.2-0.6,0.2h-4.5v9.3c0,1.2,0.2,2.1,0.6,2.7c0.4,0.6,1.1,0.9,2,0.9h2.2c0.2,0,0.4,0.1,0.6,0.2s0.2,0.4,0.2,0.6v1.3
			c0,0.2-0.1,0.4-0.2,0.6c-0.2,0.2-0.4,0.2-0.6,0.2h-2.5C214.3,511.8,212.4,509.7,212.4,505.5z"/>
		<path d="M226.4,509.9c-1.5-1.5-2.3-3.6-2.4-6.2l0-1.2l0-1.2c0.2-2.6,1-4.7,2.5-6.2c1.5-1.5,3.4-2.3,5.9-2.3c2.7,0,4.7,0.8,6.2,2.5
			s2.2,4,2.2,6.9v0.6c0,0.2-0.1,0.4-0.2,0.6s-0.4,0.2-0.6,0.2h-12.5v0.3c0.1,1.6,0.5,2.9,1.4,4c0.9,1.1,2,1.6,3.5,1.6
			c1.1,0,2-0.2,2.7-0.7s1.2-0.9,1.6-1.4c0.2-0.3,0.4-0.5,0.5-0.5c0.1-0.1,0.3-0.1,0.6-0.1h1.8c0.2,0,0.4,0.1,0.5,0.2
			c0.1,0.1,0.2,0.3,0.2,0.5c0,0.5-0.3,1.2-1,1.9c-0.7,0.7-1.6,1.4-2.8,1.9c-1.2,0.5-2.6,0.8-4.1,0.8
			C229.9,512.2,227.9,511.4,226.4,509.9z M237.3,501.1V501c0-1.7-0.5-3-1.3-4c-0.9-1-2.1-1.6-3.6-1.6c-1.5,0-2.7,0.5-3.6,1.6
			c-0.9,1-1.3,2.4-1.3,4v0.1H237.3z"/>
		<path d="M254.5,511.6c-0.2-0.2-0.2-0.4-0.2-0.6v-23.5c0-0.3,0.1-0.5,0.2-0.6c0.2-0.2,0.4-0.2,0.6-0.2h9.9c2.6,0,4.5,0.6,5.8,1.8
			c1.3,1.2,1.9,2.8,1.9,4.8c0,1.3-0.3,2.5-0.9,3.3c-0.6,0.9-1.3,1.5-2.2,1.9c1,0.5,1.9,1.3,2.6,2.3c0.7,1.1,1,2.3,1,3.6
			c0,1.3-0.3,2.6-0.9,3.7c-0.6,1.1-1.5,2-2.7,2.6c-1.2,0.6-2.6,1-4.3,1h-10.2C254.9,511.8,254.7,511.7,254.5,511.6z M264.4,497.3
			c1.5,0,2.7-0.3,3.5-1s1.2-1.7,1.2-2.9c0-1.2-0.4-2.2-1.2-2.8c-0.8-0.6-2-1-3.5-1h-6.6v7.7H264.4z M264.8,508.9
			c1.5,0,2.7-0.4,3.5-1.2c0.9-0.8,1.3-1.9,1.3-3.1c0-1.3-0.4-2.4-1.3-3.2c-0.9-0.8-2-1.2-3.5-1.2h-7v8.7H264.8z"/>
		<path d="M278.1,511.6c-0.2-0.2-0.2-0.4-0.2-0.6v-23.9c0-0.2,0.1-0.4,0.2-0.6c0.2-0.2,0.4-0.2,0.6-0.2h1.7c0.2,0,0.4,0.1,0.6,0.2
			c0.2,0.2,0.2,0.4,0.2,0.6V511c0,0.2-0.1,0.4-0.2,0.6c-0.2,0.2-0.4,0.2-0.6,0.2h-1.7C278.5,511.8,278.3,511.7,278.1,511.6z"/>
		<path d="M288.3,510c-1.2-1.5-1.9-3.4-1.9-5.9v-10.2c0-0.2,0.1-0.4,0.2-0.6c0.2-0.2,0.4-0.2,0.6-0.2h1.8c0.2,0,0.4,0.1,0.6,0.2
			c0.2,0.2,0.2,0.4,0.2,0.6v10c0,3.6,1.6,5.4,4.7,5.4c1.5,0,2.7-0.5,3.6-1.4s1.3-2.3,1.3-3.9v-10c0-0.2,0.1-0.4,0.2-0.6
			c0.2-0.2,0.4-0.2,0.6-0.2h1.8c0.2,0,0.4,0.1,0.6,0.2c0.1,0.2,0.2,0.4,0.2,0.6V511c0,0.2-0.1,0.4-0.2,0.6c-0.1,0.2-0.3,0.2-0.6,0.2
			h-1.7c-0.2,0-0.4-0.1-0.6-0.2c-0.2-0.2-0.2-0.4-0.2-0.6v-1.6c-0.7,0.9-1.5,1.6-2.4,2.1s-2.1,0.7-3.6,0.7
			C291.3,512.2,289.6,511.4,288.3,510z"/>
		<path d="M309.9,509.9c-1.5-1.5-2.3-3.6-2.4-6.2l0-1.2l0-1.2c0.2-2.6,1-4.7,2.5-6.2c1.5-1.5,3.4-2.3,5.9-2.3c2.7,0,4.7,0.8,6.2,2.5
			s2.2,4,2.2,6.9v0.6c0,0.2-0.1,0.4-0.2,0.6s-0.4,0.2-0.6,0.2h-12.5v0.3c0.1,1.6,0.5,2.9,1.4,4c0.9,1.1,2,1.6,3.5,1.6
			c1.1,0,2-0.2,2.7-0.7s1.2-0.9,1.6-1.4c0.2-0.3,0.4-0.5,0.5-0.5c0.1-0.1,0.3-0.1,0.6-0.1h1.8c0.2,0,0.4,0.1,0.5,0.2
			c0.1,0.1,0.2,0.3,0.2,0.5c0,0.5-0.3,1.2-1,1.9c-0.7,0.7-1.6,1.4-2.8,1.9c-1.2,0.5-2.6,0.8-4.1,0.8
			C313.3,512.2,311.3,511.4,309.9,509.9z M320.7,501.1V501c0-1.7-0.5-3-1.3-4c-0.9-1-2.1-1.6-3.6-1.6c-1.5,0-2.7,0.5-3.6,1.6
			c-0.9,1-1.3,2.4-1.3,4v0.1H320.7z"/>
	</g>
</g>
<g>
	<path d="M11.7,46.7c-0.2-0.2-0.4-0.5-0.4-0.8V14.6c0-0.4,0.1-0.6,0.4-0.9c0.2-0.2,0.5-0.3,0.8-0.3H26c4.1,0,7.3,0.9,9.7,2.8
		c2.4,1.9,3.5,4.6,3.5,8.3c0,3.6-1.2,6.3-3.5,8.1c-2.3,1.8-5.6,2.7-9.7,2.7h-5.7v10.5c0,0.4-0.1,0.6-0.4,0.9
		C19.7,46.9,19.4,47,19,47h-6.5C12.2,47,11.9,46.9,11.7,46.7z M25.7,28.7c1.4,0,2.5-0.4,3.3-1.1c0.8-0.7,1.2-1.8,1.2-3.2
		c0-1.3-0.4-2.4-1.1-3.1s-1.9-1.2-3.4-1.2h-5.6v8.6H25.7z"/>
	<path d="M46,46.7c-0.2-0.2-0.3-0.5-0.3-0.9V23.3c0-0.4,0.1-0.6,0.3-0.9c0.2-0.2,0.5-0.3,0.9-0.3h5.5c0.4,0,0.6,0.1,0.9,0.4
		c0.2,0.2,0.4,0.5,0.4,0.8v1.9c1.8-2.1,4.1-3.1,7.1-3.1h2.1c0.4,0,0.6,0.1,0.9,0.3c0.2,0.2,0.3,0.5,0.3,0.9v4.9
		c0,0.3-0.1,0.6-0.3,0.8c-0.2,0.2-0.5,0.4-0.9,0.4h-4.7c-1.3,0-2.3,0.4-3,1.1c-0.7,0.7-1.1,1.7-1.1,3v12.3c0,0.4-0.1,0.6-0.4,0.9
		c-0.2,0.2-0.5,0.3-0.9,0.3h-6C46.5,47,46.2,46.9,46,46.7z"/>
	<path d="M70.1,18.1c-0.2-0.2-0.3-0.5-0.3-0.9v-4.3c0-0.4,0.1-0.6,0.3-0.9c0.2-0.2,0.5-0.3,0.9-0.3h5.8c0.4,0,0.6,0.1,0.9,0.3
		c0.2,0.2,0.3,0.5,0.3,0.9v4.3c0,0.4-0.1,0.6-0.3,0.9c-0.2,0.2-0.5,0.3-0.9,0.3H71C70.7,18.5,70.4,18.3,70.1,18.1z M70.2,46.7
		c-0.2-0.2-0.3-0.5-0.3-0.9V23.3c0-0.4,0.1-0.6,0.3-0.9c0.2-0.2,0.5-0.3,0.9-0.3h5.7c0.4,0,0.6,0.1,0.9,0.3c0.2,0.2,0.3,0.5,0.3,0.9
		v22.6c0,0.3-0.1,0.6-0.3,0.8c-0.2,0.2-0.5,0.4-0.9,0.4h-5.7C70.7,47,70.4,46.9,70.2,46.7z"/>
	<path d="M86.3,46.7c-0.2-0.2-0.3-0.5-0.3-0.9V23.3c0-0.4,0.1-0.6,0.3-0.9c0.2-0.2,0.5-0.3,0.9-0.3h5.2c0.4,0,0.6,0.1,0.9,0.3
		c0.2,0.2,0.3,0.5,0.3,0.9v1.6c0.7-1,1.7-1.8,3-2.4c1.2-0.6,2.6-0.9,4.2-0.9c3.5,0,6,1.4,7.3,4.1c0.8-1.2,1.8-2.2,3.2-3
		c1.4-0.8,2.8-1.2,4.4-1.2c2.6,0,4.8,0.9,6.4,2.7c1.6,1.8,2.5,4.4,2.5,7.9v13.6c0,0.3-0.1,0.6-0.3,0.8c-0.2,0.2-0.5,0.4-0.9,0.4
		h-5.6c-0.4,0-0.6-0.1-0.9-0.3c-0.2-0.2-0.4-0.5-0.4-0.9V32.5c0-1.6-0.3-2.8-1-3.5c-0.7-0.7-1.5-1.1-2.7-1.1c-1,0-1.9,0.4-2.5,1.1
		c-0.7,0.7-1,1.9-1,3.4v13.3c0,0.3-0.1,0.6-0.3,0.8c-0.2,0.2-0.5,0.4-0.9,0.4h-5.6c-0.4,0-0.6-0.1-0.9-0.3c-0.2-0.2-0.3-0.5-0.3-0.9
		V32.5c0-1.6-0.3-2.7-1-3.4c-0.7-0.7-1.6-1.1-2.6-1.1c-1,0-1.9,0.4-2.6,1.1c-0.7,0.7-1,1.8-1,3.4v13.3c0,0.3-0.1,0.6-0.3,0.8
		c-0.2,0.2-0.5,0.4-0.9,0.4h-5.7C86.8,47,86.5,46.9,86.3,46.7z"/>
	<path d="M135.2,46.5c-1.4-0.7-2.5-1.6-3.3-2.7c-0.8-1.1-1.2-2.4-1.2-3.8c0-2.2,0.9-4,2.7-5.3c1.8-1.3,4.3-2.3,7.5-2.8l6-0.9v-0.7
		c0-1.2-0.3-2.1-0.8-2.7c-0.5-0.6-1.4-0.9-2.6-0.9c-0.7,0-1.3,0.1-1.8,0.4c-0.5,0.3-1,0.6-1.5,1.1c-0.4,0.4-0.8,0.6-1,0.8
		c-0.1,0.3-0.3,0.4-0.5,0.4h-5.2c-0.3,0-0.6-0.1-0.8-0.3c-0.2-0.2-0.3-0.5-0.3-0.7c0-0.9,0.5-1.8,1.3-2.9c0.8-1.1,2.1-2,3.7-2.7
		c1.7-0.8,3.8-1.2,6.2-1.2c3.9,0,6.8,0.9,8.7,2.6c1.9,1.7,2.8,4.1,2.8,7v14.6c0,0.3-0.1,0.6-0.3,0.8c-0.2,0.2-0.5,0.4-0.9,0.4h-5.6
		c-0.3,0-0.6-0.1-0.8-0.4c-0.2-0.2-0.4-0.5-0.4-0.8v-1.7c-0.7,1-1.7,1.8-3,2.4s-2.8,0.9-4.5,0.9C138.1,47.5,136.6,47.2,135.2,46.5z
		 M145.7,40.6c0.9-1,1.4-2.4,1.4-4.2v-0.7l-4.1,0.7c-2.9,0.5-4.3,1.5-4.3,3c0,0.8,0.3,1.4,1,1.9c0.7,0.5,1.5,0.7,2.4,0.7
		C143.6,42,144.8,41.5,145.7,40.6z"/>
	<path d="M163.4,46.7c-0.2-0.2-0.3-0.5-0.3-0.9V23.3c0-0.4,0.1-0.6,0.3-0.9c0.2-0.2,0.5-0.3,0.9-0.3h5.5c0.4,0,0.6,0.1,0.9,0.4
		c0.2,0.2,0.4,0.5,0.4,0.8v1.9c1.8-2.1,4.1-3.1,7.1-3.1h2.1c0.4,0,0.6,0.1,0.9,0.3c0.2,0.2,0.3,0.5,0.3,0.9v4.9
		c0,0.3-0.1,0.6-0.3,0.8c-0.2,0.2-0.5,0.4-0.9,0.4h-4.7c-1.3,0-2.3,0.4-3,1.1c-0.7,0.7-1.1,1.7-1.1,3v12.3c0,0.4-0.1,0.6-0.4,0.9
		c-0.2,0.2-0.5,0.3-0.9,0.3h-6C163.9,47,163.6,46.9,163.4,46.7z"/>
	<path d="M191.2,55.8c-0.2-0.2-0.3-0.4-0.3-0.7c0-0.2,0-0.4,0.1-0.6l3.7-9l-9.2-21.8c-0.1-0.3-0.1-0.4-0.1-0.6
		c0.1-0.3,0.2-0.5,0.4-0.7c0.2-0.2,0.4-0.3,0.7-0.3h5.5c0.7,0,1.1,0.3,1.4,1l5.5,14l5.6-14c0.3-0.7,0.8-1,1.4-1h5.4
		c0.3,0,0.5,0.1,0.7,0.3c0.2,0.2,0.3,0.4,0.3,0.7c0,0.1,0,0.3-0.1,0.6l-13.6,31.4c-0.3,0.7-0.7,1-1.4,1h-5.3
		C191.6,56.1,191.4,56,191.2,55.8z"/>
	<path d="M232.4,44.6c-2.2-1.9-3.4-4.6-3.6-8.1l0-1.9l0-2c0.1-3.5,1.3-6.2,3.6-8.1s5.2-2.9,8.8-2.9c2.7,0,5,0.5,6.9,1.5
		s3.3,2.1,4.2,3.5s1.4,2.6,1.5,3.7c0,0.3-0.1,0.6-0.3,0.8c-0.2,0.2-0.5,0.4-0.9,0.4h-6.1c-0.4,0-0.6-0.1-0.8-0.2
		c-0.2-0.2-0.4-0.4-0.5-0.7c-0.4-1-0.9-1.7-1.5-2.1c-0.6-0.4-1.4-0.6-2.3-0.6c-2.6,0-4,1.7-4.1,5.1l0,1.8l0,1.6
		c0.1,1.7,0.4,3,1.1,3.8c0.7,0.8,1.7,1.2,3,1.2c1,0,1.8-0.2,2.4-0.6s1-1.1,1.4-2.1c0.2-0.3,0.3-0.6,0.5-0.7c0.2-0.2,0.5-0.2,0.8-0.2
		h6.1c0.3,0,0.6,0.1,0.8,0.3c0.2,0.2,0.4,0.5,0.4,0.8c0,1-0.4,2.2-1.3,3.6c-0.9,1.4-2.3,2.6-4.2,3.6c-1.9,1-4.2,1.6-7.1,1.6
		C237.6,47.5,234.7,46.5,232.4,44.6z"/>
	<path d="M263.1,44.7c-2.1-1.9-3.3-4.5-3.5-8c0-0.4,0-1.1,0-2.2c0-1,0-1.7,0-2.2c0.2-3.4,1.4-6,3.6-7.9c2.2-1.9,5.2-2.9,9.1-2.9
		c3.9,0,6.9,1,9.1,2.9c2.2,1.9,3.4,4.6,3.6,7.9c0,0.4,0,1.1,0,2.2c0,1,0,1.7,0,2.2c-0.2,3.4-1.4,6.1-3.5,8c-2.1,1.9-5.2,2.8-9.2,2.8
		C268.3,47.5,265.2,46.5,263.1,44.7z M275.4,40.4c0.7-0.8,1.1-2.2,1.2-3.9c0-0.3,0-1,0-1.9c0-1,0-1.6,0-1.9c-0.1-1.7-0.5-3-1.2-3.9
		c-0.7-0.9-1.7-1.3-3.1-1.3c-2.7,0-4.1,1.7-4.2,5.2l0,1.9l0,1.9c0.1,1.8,0.4,3.1,1.1,3.9c0.7,0.8,1.7,1.3,3.1,1.3
		C273.7,41.6,274.7,41.2,275.4,40.4z"/>
	<path d="M292.5,46.7c-0.2-0.2-0.4-0.5-0.4-0.8V14.1c0-0.4,0.1-0.6,0.4-0.9c0.2-0.2,0.5-0.3,0.8-0.3h5.7c0.4,0,0.6,0.1,0.9,0.3
		c0.2,0.2,0.3,0.5,0.3,0.9v31.7c0,0.4-0.1,0.6-0.3,0.9c-0.2,0.2-0.5,0.3-0.9,0.3h-5.7C293.1,47,292.8,46.9,292.5,46.7z"/>
	<path d="M311,44.7c-2.1-1.9-3.3-4.5-3.5-8c0-0.4,0-1.1,0-2.2c0-1,0-1.7,0-2.2c0.2-3.4,1.4-6,3.6-7.9c2.2-1.9,5.2-2.9,9.1-2.9
		c3.9,0,6.9,1,9.1,2.9c2.2,1.9,3.4,4.6,3.6,7.9c0,0.4,0,1.1,0,2.2c0,1,0,1.7,0,2.2c-0.2,3.4-1.4,6.1-3.5,8c-2.1,1.9-5.2,2.8-9.2,2.8
		C316.2,47.5,313.1,46.5,311,44.7z M323.2,40.4c0.7-0.8,1.1-2.2,1.2-3.9c0-0.3,0-1,0-1.9c0-1,0-1.6,0-1.9c-0.1-1.7-0.5-3-1.2-3.9
		c-0.7-0.9-1.7-1.3-3.1-1.3c-2.7,0-4.1,1.7-4.2,5.2l0,1.9l0,1.9c0.1,1.8,0.4,3.1,1.1,3.9c0.7,0.8,1.7,1.3,3.1,1.3
		C321.5,41.6,322.6,41.2,323.2,40.4z"/>
	<path d="M342.4,44.6c-1.7-1.9-2.6-4.6-2.6-8V23.3c0-0.4,0.1-0.6,0.3-0.9c0.2-0.2,0.5-0.3,0.9-0.3h6c0.4,0,0.6,0.1,0.9,0.3
		c0.2,0.2,0.4,0.5,0.4,0.9v13.1c0,3.1,1.4,4.7,4.2,4.7c1.3,0,2.4-0.4,3.2-1.2c0.8-0.8,1.2-2,1.2-3.5V23.3c0-0.4,0.1-0.6,0.4-0.9
		c0.2-0.2,0.5-0.3,0.8-0.3h6c0.4,0,0.6,0.1,0.9,0.3c0.2,0.2,0.3,0.5,0.3,0.9v22.6c0,0.3-0.1,0.6-0.3,0.8c-0.2,0.2-0.5,0.4-0.9,0.4
		h-5.6c-0.3,0-0.6-0.1-0.8-0.4c-0.2-0.2-0.4-0.5-0.4-0.8V44c-1.7,2.3-4.3,3.5-8,3.5C346.4,47.5,344.1,46.5,342.4,44.6z"/>
	<path d="M373.5,46.7c-0.2-0.2-0.3-0.5-0.3-0.9V23.3c0-0.4,0.1-0.6,0.3-0.9c0.2-0.2,0.5-0.3,0.9-0.3h5.5c0.4,0,0.6,0.1,0.9,0.4
		c0.2,0.2,0.4,0.5,0.4,0.8v1.9c1.8-2.1,4.1-3.1,7.1-3.1h2.1c0.4,0,0.6,0.1,0.9,0.3c0.2,0.2,0.3,0.5,0.3,0.9v4.9
		c0,0.3-0.1,0.6-0.3,0.8c-0.2,0.2-0.5,0.4-0.9,0.4h-4.7c-1.3,0-2.3,0.4-3,1.1c-0.7,0.7-1.1,1.7-1.1,3v12.3c0,0.4-0.1,0.6-0.4,0.9
		c-0.2,0.2-0.5,0.3-0.9,0.3h-6C374.1,47,373.8,46.9,373.5,46.7z"/>
	<path d="M409.4,55.8c-0.2-0.2-0.4-0.5-0.4-0.9V23.3c0-0.4,0.1-0.6,0.4-0.9c0.2-0.2,0.5-0.3,0.8-0.3h5.4c0.4,0,0.6,0.1,0.9,0.3
		c0.2,0.2,0.3,0.5,0.3,0.9V25c1.7-2.3,4.2-3.4,7.4-3.4c3.1,0,5.6,1,7.3,2.9c1.8,2,2.7,4.7,2.9,8.3c0,0.4,0,1,0,1.8
		c0,0.8,0,1.4,0,1.8c-0.1,3.5-1.1,6.2-2.9,8.2c-1.8,2-4.2,3-7.3,3c-3.1,0-5.5-1.1-7-3.2v10.7c0,0.4-0.1,0.6-0.3,0.9
		c-0.2,0.2-0.5,0.3-0.9,0.3h-5.9C409.9,56.1,409.7,56,409.4,55.8z M425,39.7c0.7-0.9,1-2.1,1.1-3.7c0.1-0.6,0.1-1.1,0.1-1.5
		c0-0.4,0-0.8-0.1-1.5c-0.1-1.6-0.5-2.8-1.1-3.7c-0.7-0.9-1.7-1.3-3.2-1.3c-1.5,0-2.6,0.5-3.2,1.4s-1.1,2.1-1.2,3.5l0,1.8l0,1.8
		c0.1,1.3,0.5,2.4,1.2,3.3c0.7,0.9,1.8,1.3,3.2,1.3C423.2,41.1,424.3,40.6,425,39.7z"/>
	<path d="M444.6,46.5c-1.4-0.7-2.5-1.6-3.3-2.7c-0.8-1.1-1.2-2.4-1.2-3.8c0-2.2,0.9-4,2.7-5.3c1.8-1.3,4.3-2.3,7.5-2.8l6-0.9v-0.7
		c0-1.2-0.3-2.1-0.8-2.7c-0.5-0.6-1.4-0.9-2.6-0.9c-0.7,0-1.3,0.1-1.8,0.4c-0.5,0.3-1,0.6-1.5,1.1c-0.4,0.4-0.8,0.6-1,0.8
		c-0.1,0.3-0.3,0.4-0.5,0.4h-5.2c-0.3,0-0.6-0.1-0.8-0.3c-0.2-0.2-0.3-0.5-0.3-0.7c0-0.9,0.5-1.8,1.3-2.9c0.8-1.1,2.1-2,3.7-2.7
		c1.7-0.8,3.8-1.2,6.2-1.2c3.9,0,6.8,0.9,8.7,2.6c1.9,1.7,2.8,4.1,2.8,7v14.6c0,0.3-0.1,0.6-0.3,0.8c-0.2,0.2-0.5,0.4-0.9,0.4h-5.6
		c-0.3,0-0.6-0.1-0.8-0.4c-0.2-0.2-0.4-0.5-0.4-0.8v-1.7c-0.7,1-1.7,1.8-3,2.4s-2.8,0.9-4.5,0.9C447.5,47.5,446,47.2,444.6,46.5z
		 M455.1,40.6c0.9-1,1.4-2.4,1.4-4.2v-0.7l-4.1,0.7c-2.9,0.5-4.3,1.5-4.3,3c0,0.8,0.3,1.4,1,1.9c0.7,0.5,1.5,0.7,2.4,0.7
		C453,42,454.2,41.5,455.1,40.6z"/>
	<path d="M472.8,46.7c-0.2-0.2-0.4-0.5-0.4-0.8V14.1c0-0.4,0.1-0.6,0.4-0.9c0.2-0.2,0.5-0.3,0.8-0.3h5.7c0.4,0,0.6,0.1,0.9,0.3
		c0.2,0.2,0.3,0.5,0.3,0.9v31.7c0,0.4-0.1,0.6-0.3,0.9c-0.2,0.2-0.5,0.3-0.9,0.3h-5.7C473.4,47,473.1,46.9,472.8,46.7z"/>
	<path d="M491.1,44.4c-2.2-2.1-3.4-5.1-3.5-9.1v-1.7c0.1-3.8,1.3-6.7,3.5-8.9c2.2-2.1,5.2-3.2,9-3.2c2.7,0,5,0.6,6.9,1.7
		c1.9,1.1,3.3,2.6,4.2,4.5c0.9,1.9,1.4,4.1,1.4,6.6v1.2c0,0.3-0.1,0.6-0.3,0.8c-0.2,0.2-0.5,0.4-0.9,0.4H496v0.3
		c0.1,1.5,0.4,2.7,1.1,3.6c0.7,0.9,1.6,1.4,2.9,1.4c0.8,0,1.5-0.2,2-0.5c0.5-0.3,1-0.7,1.4-1.2c0.3-0.4,0.5-0.6,0.7-0.6
		c0.2-0.1,0.5-0.1,0.8-0.1h6c0.3,0,0.5,0.1,0.7,0.3c0.2,0.2,0.3,0.4,0.3,0.7c0,0.8-0.5,1.8-1.4,2.9c-0.9,1.1-2.3,2-4.1,2.8
		c-1.8,0.8-3.9,1.2-6.3,1.2C496.3,47.5,493.3,46.5,491.1,44.4z M504.2,32L504.2,32c0-1.7-0.4-2.9-1.1-3.8c-0.7-0.9-1.7-1.4-3-1.4
		c-1.2,0-2.2,0.5-3,1.4c-0.7,0.9-1.1,2.2-1.1,3.7V32H504.2z"/>
	<path d="M522.2,37.6v-9.2h-3.7c-0.4,0-0.6-0.1-0.9-0.3s-0.4-0.5-0.4-0.9v-3.9c0-0.4,0.1-0.6,0.4-0.9c0.2-0.2,0.5-0.3,0.9-0.3h3.7
		v-7.9c0-0.4,0.1-0.6,0.4-0.9c0.2-0.2,0.5-0.3,0.8-0.3h5.6c0.4,0,0.6,0.1,0.9,0.3c0.2,0.2,0.3,0.5,0.3,0.9v7.9h6
		c0.4,0,0.6,0.1,0.9,0.3c0.2,0.2,0.4,0.5,0.4,0.9v3.9c0,0.4-0.1,0.6-0.4,0.9c-0.2,0.2-0.5,0.3-0.9,0.3h-6v8.5c0,2.4,0.9,3.6,2.7,3.6
		h3.7c0.4,0,0.6,0.1,0.9,0.3c0.2,0.2,0.3,0.5,0.3,0.9v4.2c0,0.3-0.1,0.6-0.3,0.8c-0.2,0.2-0.5,0.4-0.9,0.4h-4.5
		C525.6,47,522.2,43.9,522.2,37.6z"/>
	<path d="M547.1,37.6v-9.2h-3.7c-0.4,0-0.6-0.1-0.9-0.3s-0.4-0.5-0.4-0.9v-3.9c0-0.4,0.1-0.6,0.4-0.9c0.2-0.2,0.5-0.3,0.9-0.3h3.7
		v-7.9c0-0.4,0.1-0.6,0.4-0.9c0.2-0.2,0.5-0.3,0.8-0.3h5.6c0.4,0,0.6,0.1,0.9,0.3c0.2,0.2,0.3,0.5,0.3,0.9v7.9h6
		c0.4,0,0.6,0.1,0.9,0.3c0.2,0.2,0.4,0.5,0.4,0.9v3.9c0,0.4-0.1,0.6-0.4,0.9c-0.2,0.2-0.5,0.3-0.9,0.3h-6v8.5c0,2.4,0.9,3.6,2.7,3.6
		h3.7c0.4,0,0.6,0.1,0.9,0.3c0.2,0.2,0.3,0.5,0.3,0.9v4.2c0,0.3-0.1,0.6-0.3,0.8c-0.2,0.2-0.5,0.4-0.9,0.4H557
		C550.4,47,547.1,43.9,547.1,37.6z"/>
	<path d="M571.5,44.4c-2.2-2.1-3.4-5.1-3.5-9.1v-1.7c0.1-3.8,1.3-6.7,3.5-8.9c2.2-2.1,5.2-3.2,9-3.2c2.7,0,5,0.6,6.9,1.7
		c1.9,1.1,3.3,2.6,4.2,4.5c0.9,1.9,1.4,4.1,1.4,6.6v1.2c0,0.3-0.1,0.6-0.3,0.8c-0.2,0.2-0.5,0.4-0.9,0.4h-15.4v0.3
		c0.1,1.5,0.4,2.7,1.1,3.6c0.7,0.9,1.6,1.4,2.9,1.4c0.8,0,1.5-0.2,2-0.5c0.5-0.3,1-0.7,1.4-1.2c0.3-0.4,0.5-0.6,0.7-0.6
		c0.2-0.1,0.5-0.1,0.8-0.1h6c0.3,0,0.5,0.1,0.7,0.3c0.2,0.2,0.3,0.4,0.3,0.7c0,0.8-0.5,1.8-1.4,2.9c-0.9,1.1-2.3,2-4.1,2.8
		c-1.8,0.8-3.9,1.2-6.3,1.2C576.7,47.5,573.7,46.5,571.5,44.4z M584.6,32L584.6,32c0-1.7-0.4-2.9-1.1-3.8c-0.7-0.9-1.7-1.4-3-1.4
		c-1.2,0-2.2,0.5-3,1.4c-0.7,0.9-1.1,2.2-1.1,3.7V32H584.6z"/>
</g>
<g>
	<g>
		<path d="M738,509.9c-1.7-1.7-2.6-4.1-2.7-7.2c0-0.6,0-1.7,0-3.2c0-1.5,0-2.6,0-3.2c0.1-3,1-5.4,2.7-7.1c1.7-1.7,4.1-2.6,7.3-2.6
			c2.1,0,3.9,0.4,5.4,1.1s2.6,1.7,3.4,3c0.8,1.2,1.2,2.5,1.3,3.9v0.1c0,0.2-0.1,0.4-0.2,0.5s-0.3,0.2-0.5,0.2h-2
			c-0.5,0-0.8-0.3-0.9-0.8c-0.4-1.8-1.1-3.1-2.2-3.8c-1.1-0.7-2.5-1.1-4.2-1.1c-4.1,0-6.3,2.3-6.4,6.9c0,0.6,0,1.6,0,3s0,2.4,0,3.1
			c0.1,4.6,2.3,6.9,6.4,6.9c1.8,0,3.2-0.4,4.3-1.1s1.8-2,2.2-3.8c0.1-0.3,0.2-0.5,0.3-0.6c0.1-0.1,0.3-0.2,0.6-0.2h2
			c0.2,0,0.4,0.1,0.6,0.2s0.2,0.3,0.2,0.5c-0.1,1.4-0.5,2.7-1.3,4c-0.8,1.2-1.9,2.2-3.4,3c-1.5,0.8-3.3,1.1-5.4,1.1
			C742.1,512.5,739.7,511.7,738,509.9z"/>
		<path d="M760,511.9c-0.2-0.2-0.2-0.4-0.2-0.6v-17c0-0.2,0.1-0.4,0.2-0.6c0.2-0.2,0.4-0.3,0.6-0.3h1.7c0.2,0,0.4,0.1,0.6,0.3
			s0.3,0.4,0.3,0.6v1.6c1-1.6,2.7-2.4,5-2.4h1.4c0.2,0,0.4,0.1,0.6,0.2c0.2,0.2,0.2,0.4,0.2,0.6v1.5c0,0.2-0.1,0.4-0.2,0.6
			c-0.2,0.1-0.4,0.2-0.6,0.2h-2.2c-1.3,0-2.3,0.4-3.1,1.1c-0.7,0.8-1.1,1.8-1.1,3.1v10.6c0,0.2-0.1,0.4-0.3,0.6
			c-0.2,0.2-0.4,0.2-0.6,0.2h-1.8C760.4,512.2,760.2,512.1,760,511.9z"/>
		<path d="M773.4,489.7c-0.2-0.2-0.2-0.4-0.2-0.6v-1.9c0-0.2,0.1-0.4,0.2-0.6c0.2-0.2,0.4-0.3,0.6-0.3h2.3c0.2,0,0.4,0.1,0.6,0.3
			s0.3,0.4,0.3,0.6v1.9c0,0.2-0.1,0.4-0.3,0.6c-0.2,0.2-0.4,0.2-0.6,0.2H774C773.7,490,773.5,489.9,773.4,489.7z M773.7,511.9
			c-0.2-0.2-0.2-0.4-0.2-0.6v-17.1c0-0.2,0.1-0.4,0.2-0.6c0.2-0.2,0.4-0.2,0.6-0.2h1.7c0.2,0,0.4,0.1,0.6,0.2
			c0.2,0.2,0.2,0.4,0.2,0.6v17.1c0,0.2-0.1,0.4-0.2,0.6c-0.2,0.2-0.4,0.2-0.6,0.2h-1.7C774,512.2,773.8,512.1,773.7,511.9z"/>
		<path d="M782.4,511.9c-0.2-0.2-0.2-0.4-0.2-0.6v-17.1c0-0.2,0.1-0.4,0.2-0.6c0.2-0.2,0.4-0.2,0.6-0.2h1.6c0.2,0,0.4,0.1,0.6,0.2
			c0.2,0.2,0.2,0.4,0.2,0.6v1.3c1.2-1.6,3-2.4,5.2-2.4c2.7,0,4.5,1.1,5.7,3.3c0.6-1,1.4-1.8,2.4-2.4s2.2-0.9,3.6-0.9
			c2,0,3.6,0.7,4.8,2c1.2,1.3,1.9,3.3,1.9,5.8v10.4c0,0.2-0.1,0.4-0.2,0.6c-0.2,0.2-0.4,0.2-0.6,0.2h-1.7c-0.2,0-0.4-0.1-0.6-0.2
			c-0.2-0.2-0.2-0.4-0.2-0.6v-10.1c0-1.9-0.4-3.2-1.2-4c-0.8-0.8-1.8-1.2-3.1-1.2c-1.1,0-2.1,0.4-2.9,1.2c-0.8,0.8-1.2,2.2-1.2,4
			v10.1c0,0.2-0.1,0.4-0.2,0.6c-0.2,0.2-0.4,0.2-0.6,0.2h-1.7c-0.2,0-0.4-0.1-0.6-0.2c-0.2-0.2-0.2-0.4-0.2-0.6v-10.1
			c0-1.9-0.4-3.2-1.2-4c-0.8-0.8-1.8-1.2-3-1.2c-1.1,0-2.1,0.4-2.9,1.2c-0.8,0.8-1.2,2.2-1.2,4v10.1c0,0.2-0.1,0.4-0.2,0.6
			c-0.2,0.2-0.4,0.2-0.6,0.2H783C782.7,512.2,782.5,512.1,782.4,511.9z"/>
		<path d="M816.4,511.7c-1.1-0.5-2-1.2-2.6-1.9c-0.6-0.7-0.8-1.3-0.8-1.7c0-0.2,0.1-0.4,0.3-0.6c0.2-0.1,0.4-0.2,0.6-0.2h1.6
			c0.2,0,0.5,0.1,0.6,0.4c0.6,0.7,1.2,1.2,1.9,1.6c0.7,0.4,1.6,0.6,2.7,0.6c1.2,0,2.3-0.2,3-0.7s1.2-1.2,1.2-2c0-0.6-0.2-1-0.5-1.4
			s-0.9-0.7-1.7-1c-0.8-0.3-1.9-0.6-3.5-0.9c-2.1-0.5-3.6-1.1-4.4-2s-1.3-2-1.3-3.3c0-0.9,0.3-1.8,0.8-2.6s1.3-1.5,2.4-2
			c1-0.5,2.3-0.8,3.8-0.8c1.5,0,2.8,0.3,3.9,0.8s1.9,1.1,2.4,1.8s0.8,1.3,0.8,1.7c0,0.2-0.1,0.4-0.2,0.5s-0.3,0.2-0.6,0.2h-1.5
			c-0.3,0-0.5-0.1-0.7-0.4c-0.4-0.5-0.7-0.8-1-1.1c-0.3-0.3-0.7-0.5-1.2-0.7c-0.5-0.2-1.2-0.3-2-0.3c-1.2,0-2,0.2-2.7,0.7
			s-0.9,1.1-0.9,1.9c0,0.5,0.1,0.9,0.4,1.3s0.8,0.7,1.5,1s1.9,0.6,3.3,0.9c2.3,0.5,3.9,1.2,4.8,2.1s1.4,2,1.4,3.4c0,1-0.3,2-0.9,2.8
			c-0.6,0.8-1.5,1.5-2.6,2c-1.2,0.5-2.5,0.7-4.2,0.7C819,512.5,817.5,512.3,816.4,511.7z"/>
		<path d="M834,510.3c-1.5-1.5-2.2-3.5-2.3-5.9l0-1.5l0-1.5c0.1-2.4,0.9-4.4,2.3-5.9s3.5-2.2,6.1-2.2c2.6,0,4.7,0.8,6.1,2.2
			s2.2,3.5,2.3,5.9c0,0.3,0,0.8,0,1.5c0,0.8,0,1.3,0,1.5c-0.1,2.5-0.9,4.5-2.3,5.9c-1.5,1.5-3.5,2.2-6.1,2.2
			C837.5,512.5,835.5,511.8,834,510.3z M843.8,508.3c0.9-1,1.3-2.3,1.4-4.1c0-0.2,0-0.7,0-1.4c0-0.7,0-1.1,0-1.4
			c-0.1-1.8-0.5-3.2-1.4-4.1c-0.9-1-2.1-1.4-3.6-1.4s-2.7,0.5-3.6,1.4c-0.9,1-1.4,2.3-1.4,4.1l0,1.4l0,1.4c0,1.8,0.5,3.2,1.4,4.1
			c0.9,1,2.1,1.4,3.6,1.4S842.9,509.3,843.8,508.3z"/>
		<path d="M853.4,511.9c-0.2-0.2-0.2-0.4-0.2-0.6v-17.1c0-0.2,0.1-0.4,0.2-0.6c0.2-0.2,0.4-0.2,0.6-0.2h1.7c0.2,0,0.4,0.1,0.6,0.2
			c0.2,0.2,0.2,0.4,0.2,0.6v1.6c0.7-0.9,1.5-1.6,2.5-2.1c0.9-0.5,2.1-0.7,3.5-0.7c2.3,0,4.1,0.7,5.4,2.2c1.3,1.5,1.9,3.4,1.9,5.9
			v10.2c0,0.2-0.1,0.4-0.2,0.6c-0.2,0.2-0.4,0.2-0.6,0.2h-1.8c-0.2,0-0.4-0.1-0.6-0.2c-0.2-0.2-0.2-0.4-0.2-0.6v-10
			c0-1.7-0.4-3-1.2-4c-0.8-0.9-2-1.4-3.6-1.4c-1.5,0-2.7,0.5-3.6,1.4c-0.9,0.9-1.3,2.3-1.3,3.9v10c0,0.2-0.1,0.4-0.2,0.6
			c-0.2,0.2-0.4,0.2-0.6,0.2H854C853.8,512.2,853.6,512.1,853.4,511.9z"/>
	</g>
</g>
<g>
	<ellipse class="st0" cx="193.8" cy="279.7" rx="80" ry="81.4"/>
	<path class="st1" d="M193.8,127.1v40c-49.9,0-92.4,32.7-107.1,77.8l-38.1-12.4C68.5,171.4,126.1,127.1,193.8,127.1z"/>
	<path class="st2" d="M127.6,370.7l-23.5,32.4C66,375.3,41.2,330.4,41.2,279.7c0-16.4,2.6-32.3,7.5-47.1l38.1,12.4
		c-3.6,11-5.5,22.6-5.5,34.8C81.2,317.1,99.5,350.3,127.6,370.7z"/>
	<path class="st3" d="M283.4,403.1c-25.2,18.3-56.2,29.2-89.7,29.2s-64.5-10.8-89.7-29.2l23.5-32.4c18.6,13.5,41.5,21.5,66.2,21.5
		s47.6-8,66.2-21.5L283.4,403.1z"/>
	<path class="st4" d="M346.3,279.7c0,50.7-24.8,95.6-62.9,123.4l-23.5-32.4c28.1-20.5,46.4-53.7,46.4-91c0-12.1-1.9-23.8-5.5-34.8
		l38.1-12.4C343.7,247.4,346.3,263.3,346.3,279.7z"/>
	<path class="st5" d="M338.9,232.5l-38.1,12.4c-14.7-45.1-57.1-77.8-107.1-77.8v-40C261.4,127.1,319,171.4,338.9,232.5z"/>
	<g>
		<g>
			<path class="st6" d="M162.6,270.6v25.2h-4.7v-21.3h-5.3v-3.9H162.6z"/>
			<path class="st6" d="M167.6,283.2c0-8.3,4.5-13,10.5-13c6,0,10.5,4.7,10.5,13c0,8.3-4.5,13-10.5,13
				C172.1,296.2,167.6,291.5,167.6,283.2z M184,283.2c0-6.1-2.4-8.9-5.8-8.9c-3.4,0-5.8,2.8-5.8,8.9s2.4,8.9,5.8,8.9
				C181.6,292.1,184,289.3,184,283.2z"/>
			<path class="st6" d="M191.8,283.2c0-8.3,4.5-13,10.5-13c6,0,10.5,4.7,10.5,13c0,8.3-4.5,13-10.5,13
				C196.4,296.2,191.8,291.5,191.8,283.2z M208.2,283.2c0-6.1-2.4-8.9-5.8-8.9c-3.4,0-5.8,2.8-5.8,8.9s2.4,8.9,5.8,8.9
				C205.8,292.1,208.2,289.3,208.2,283.2z"/>
			<path class="st6" d="M215.7,277.3c0-4.1,2.4-6.9,6-6.9s6,2.7,6,6.9c0,4.2-2.4,6.9-6,6.9S215.7,281.4,215.7,277.3z M224.8,277.3
				c0-2.8-1.2-4.4-3.1-4.4c-1.9,0-3.1,1.6-3.1,4.4c0,2.8,1.2,4.4,3.1,4.4C223.6,281.7,224.8,280.1,224.8,277.3z M236.8,270.6h3.5
				l-17.2,25.2h-3.5L236.8,270.6z M232.2,289.1c0-4.1,2.4-6.9,6-6.9s6,2.8,6,6.9s-2.4,6.9-6,6.9S232.2,293.3,232.2,289.1z
				 M241.3,289.1c0-2.8-1.2-4.4-3.1-4.4c-1.9,0-3.1,1.6-3.1,4.4s1.2,4.4,3.1,4.4C240.1,293.5,241.3,291.9,241.3,289.1z"/>
		</g>
	</g>
	<g>
		<g>
			<path class="st7" d="M334.1,162c0,8.6-5,13.4-12.3,13.4c-2.5,0-4.9-0.5-6.6-1.6l1.7-3.5c1.4,0.9,3,1.2,4.8,1.2
				c4.8,0,7.7-3,7.7-8.7v0c-1.5,1.8-3.9,2.6-6.7,2.6c-5,0-8.7-3-8.7-7.7c0-5,4.1-8.2,9.2-8.2C330.1,149.4,334.1,153.9,334.1,162z
				 M328.7,157.4c0-2.4-1.9-4.2-5.2-4.2c-2.9,0-4.9,1.7-4.9,4.3s2,4.3,5,4.3C326.6,161.7,328.7,159.8,328.7,157.4z"/>
			<path class="st7" d="M337.3,162.4c0-8.3,4.5-13,10.5-13c6,0,10.5,4.7,10.5,13c0,8.3-4.5,13-10.5,13
				C341.8,175.3,337.3,170.7,337.3,162.4z M353.6,162.4c0-6.1-2.4-8.9-5.8-8.9c-3.4,0-5.8,2.8-5.8,8.9s2.4,8.9,5.8,8.9
				C351.2,171.3,353.6,168.5,353.6,162.4z"/>
			<path class="st7" d="M361.1,156.5c0-4.1,2.4-6.9,6-6.9s6,2.7,6,6.9c0,4.2-2.4,6.9-6,6.9S361.1,160.6,361.1,156.5z M370.2,156.5
				c0-2.8-1.2-4.4-3.1-4.4c-1.9,0-3.1,1.6-3.1,4.4c0,2.8,1.2,4.4,3.1,4.4C369.1,160.8,370.2,159.3,370.2,156.5z M382.2,149.8h3.5
				L368.6,175H365L382.2,149.8z M377.6,168.3c0-4.1,2.4-6.9,6-6.9s6,2.8,6,6.9s-2.4,6.9-6,6.9S377.6,172.5,377.6,168.3z
				 M386.7,168.3c0-2.8-1.2-4.4-3.1-4.4c-1.9,0-3.1,1.6-3.1,4.4s1.2,4.4,3.1,4.4C385.5,172.7,386.7,171.1,386.7,168.3z"/>
		</g>
	</g>
	<g>
		<g>
			<path class="st7" d="M18,149.8V175h-4.7v-21.3H8v-3.9H18z"/>
			<path class="st7" d="M23,162.4c0-8.3,4.5-13,10.5-13c6,0,10.5,4.7,10.5,13c0,8.3-4.5,13-10.5,13C27.5,175.3,23,170.7,23,162.4z
				 M39.3,162.4c0-6.1-2.4-8.9-5.8-8.9c-3.4,0-5.8,2.8-5.8,8.9s2.4,8.9,5.8,8.9C37,171.3,39.3,168.5,39.3,162.4z"/>
			<path class="st7" d="M46.8,156.5c0-4.1,2.4-6.9,6-6.9s6,2.7,6,6.9c0,4.2-2.4,6.9-6,6.9S46.8,160.6,46.8,156.5z M55.9,156.5
				c0-2.8-1.2-4.4-3.1-4.4c-1.9,0-3.1,1.6-3.1,4.4c0,2.8,1.2,4.4,3.1,4.4C54.8,160.8,55.9,159.3,55.9,156.5z M68,149.8h3.5L54.3,175
				h-3.5L68,149.8z M63.3,168.3c0-4.1,2.4-6.9,6-6.9s6,2.8,6,6.9s-2.4,6.9-6,6.9S63.3,172.5,63.3,168.3z M72.5,168.3
				c0-2.8-1.2-4.4-3.1-4.4c-1.9,0-3.1,1.6-3.1,4.4s1.2,4.4,3.1,4.4C71.3,172.7,72.5,171.1,72.5,168.3z"/>
		</g>
	</g>
</g>
<g>
	<g>
		<g>
			<path class="st7" d="M937.3,159.6c0,8.6-5,13.4-12.3,13.4c-2.5,0-4.9-0.5-6.6-1.6l1.7-3.5c1.4,0.9,3,1.2,4.8,1.2
				c4.8,0,7.7-3,7.7-8.7v0c-1.5,1.8-3.9,2.6-6.7,2.6c-5,0-8.7-3-8.7-7.7c0-5,4.1-8.2,9.2-8.2C933.3,147.1,937.3,151.5,937.3,159.6z
				 M931.9,155c0-2.4-1.9-4.2-5.2-4.2c-2.9,0-4.9,1.7-4.9,4.3s2,4.3,5,4.3C929.8,159.4,931.9,157.5,931.9,155z"/>
			<path class="st7" d="M940.5,160.1c0-8.3,4.5-13,10.5-13c6,0,10.5,4.7,10.5,13c0,8.3-4.5,13-10.5,13
				C945,173,940.5,168.4,940.5,160.1z M956.8,160.1c0-6.1-2.4-8.9-5.8-8.9c-3.4,0-5.8,2.8-5.8,8.9s2.4,8.9,5.8,8.9
				C954.4,169,956.8,166.2,956.8,160.1z"/>
			<path class="st7" d="M964.3,154.1c0-4.1,2.4-6.9,6-6.9s6,2.7,6,6.9c0,4.2-2.4,6.9-6,6.9S964.3,158.3,964.3,154.1z M973.4,154.1
				c0-2.8-1.2-4.4-3.1-4.4c-1.9,0-3.1,1.6-3.1,4.4c0,2.8,1.2,4.4,3.1,4.4C972.3,158.5,973.4,156.9,973.4,154.1z M985.4,147.5h3.5
				l-17.2,25.2h-3.5L985.4,147.5z M980.8,166c0-4.1,2.4-6.9,6-6.9s6,2.8,6,6.9s-2.4,6.9-6,6.9S980.8,170.2,980.8,166z M989.9,166
				c0-2.8-1.2-4.4-3.1-4.4c-1.9,0-3.1,1.6-3.1,4.4s1.2,4.4,3.1,4.4C988.7,170.4,989.9,168.8,989.9,166z"/>
		</g>
	</g>
	<g>
		<g>
			<path class="st7" d="M622.6,147.5v25.2h-4.7v-21.3h-5.3v-3.9H622.6z"/>
			<path class="st7" d="M627.6,160.1c0-8.3,4.5-13,10.5-13c6,0,10.5,4.7,10.5,13c0,8.3-4.5,13-10.5,13
				C632.1,173,627.6,168.4,627.6,160.1z M643.9,160.1c0-6.1-2.4-8.9-5.8-8.9c-3.4,0-5.8,2.8-5.8,8.9s2.4,8.9,5.8,8.9
				C641.6,169,643.9,166.2,643.9,160.1z"/>
			<path class="st7" d="M651.4,154.1c0-4.1,2.4-6.9,6-6.9s6,2.7,6,6.9c0,4.2-2.4,6.9-6,6.9S651.4,158.3,651.4,154.1z M660.5,154.1
				c0-2.8-1.2-4.4-3.1-4.4c-1.9,0-3.1,1.6-3.1,4.4c0,2.8,1.2,4.4,3.1,4.4C659.4,158.5,660.5,156.9,660.5,154.1z M672.5,147.5h3.5
				l-17.2,25.2h-3.5L672.5,147.5z M667.9,166c0-4.1,2.4-6.9,6-6.9s6,2.8,6,6.9s-2.4,6.9-6,6.9S667.9,170.2,667.9,166z M677,166
				c0-2.8-1.2-4.4-3.1-4.4c-1.9,0-3.1,1.6-3.1,4.4s1.2,4.4,3.1,4.4C675.9,170.4,677,168.8,677,166z"/>
		</g>
	</g>
	<ellipse class="st8" cx="796.9" cy="279.7" rx="80" ry="81.4"/>
	<path class="st9" d="M797,127.1v40c-49.9,0-92.4,32.7-107.1,77.8l-38.1-12.4C671.7,171.4,729.3,127.1,797,127.1z"/>
	<path class="st10" d="M730.8,370.7l-23.5,32.4c-38.1-27.8-62.9-72.8-62.9-123.4c0-16.4,2.6-32.3,7.5-47.1l38.1,12.4
		c-3.6,11-5.5,22.6-5.5,34.8C684.4,317.1,702.7,350.3,730.8,370.7z"/>
	<path class="st11" d="M886.6,403.1c-25.2,18.3-56.2,29.2-89.7,29.2s-64.5-10.8-89.7-29.2l23.5-32.4c18.6,13.5,41.5,21.5,66.2,21.5
		s47.6-8,66.2-21.5L886.6,403.1z"/>
	<path class="st12" d="M949.5,279.7c0,50.7-24.8,95.6-62.9,123.4l-23.5-32.4c28.1-20.5,46.4-53.7,46.4-91c0-12.1-1.9-23.8-5.5-34.8
		l38.1-12.4C946.9,247.4,949.5,263.3,949.5,279.7z"/>
	<path class="st13" d="M942.1,232.5L904,244.9c-14.7-45.1-57.1-77.8-107.1-77.8v-40C864.6,127.1,922.2,171.4,942.1,232.5z"/>
	<g>
		<g>
			<path class="st6" d="M764.5,268.3v25.2h-4.7v-21.3h-5.3v-3.9H764.5z"/>
			<path class="st6" d="M769.5,280.9c0-8.3,4.5-13,10.5-13c6,0,10.5,4.7,10.5,13c0,8.3-4.5,13-10.5,13
				C774.1,293.8,769.5,289.2,769.5,280.9z M785.9,280.9c0-6.1-2.4-8.9-5.8-8.9c-3.4,0-5.8,2.8-5.8,8.9s2.4,8.9,5.8,8.9
				C783.5,289.8,785.9,287,785.9,280.9z"/>
			<path class="st6" d="M793.7,280.9c0-8.3,4.5-13,10.5-13c6,0,10.5,4.7,10.5,13c0,8.3-4.5,13-10.5,13
				C798.3,293.8,793.7,289.2,793.7,280.9z M810.1,280.9c0-6.1-2.4-8.9-5.8-8.9c-3.4,0-5.8,2.8-5.8,8.9s2.4,8.9,5.8,8.9
				C807.7,289.8,810.1,287,810.1,280.9z"/>
			<path class="st6" d="M817.6,274.9c0-4.1,2.4-6.9,6-6.9s6,2.7,6,6.9c0,4.2-2.4,6.9-6,6.9S817.6,279.1,817.6,274.9z M826.7,274.9
				c0-2.8-1.2-4.4-3.1-4.4c-1.9,0-3.1,1.6-3.1,4.4c0,2.8,1.2,4.4,3.1,4.4C825.5,279.3,826.7,277.8,826.7,274.9z M838.7,268.3h3.5
				L825,293.5h-3.5L838.7,268.3z M834.1,286.8c0-4.1,2.4-6.9,6-6.9s6,2.8,6,6.9s-2.4,6.9-6,6.9S834.1,291,834.1,286.8z M843.2,286.8
				c0-2.8-1.2-4.4-3.1-4.4c-1.9,0-3.1,1.6-3.1,4.4s1.2,4.4,3.1,4.4C842,291.2,843.2,289.6,843.2,286.8z"/>
		</g>
	</g>
</g>
</svg>
