<svg id="Layer_1" data-name="Layer 1" xmlns="http://www.w3.org/2000/svg" viewBox="0 0 302.36 40.73"><defs><style>.cls-1{fill:#fe0309;}.cls-2{fill:#fe0208;}</style></defs><path class="cls-1" d="M11.68,20.1c0-3.75,0-7.51,0-11.26,0-.8.23-1,1-1q1.8.09,3.6,0c.73,0,.95.17.93.92-.05,2.79,0,5.59,0,8.38,0,.87.18,1.17,1.11,1.14,2-.06,2,0,2-2,0-2.51,0-5,0-7.54,0-.69.2-.88.87-.86q2,.08,4.08,0c.64,0,.81.2.8.82q0,11.57,0,23.12c0,.65-.23.8-.83.78-1.36,0-2.72,0-4.08,0-.71,0-.84-.24-.84-.89,0-2.51,0-5,0-7.54,0-.91-.23-1.16-1.13-1.13-2,0-2,0-2,1.94,0,2.23,0,4.47,0,6.7,0,.76-.2,1-.93.92a30.88,30.88,0,0,0-3.6,0c-.79,0-1-.21-1-1C11.7,27.76,11.68,23.93,11.68,20.1Z"/><path class="cls-2" d="M28.31,20.24c0-2.28,0-4.56,0-6.83,0-3.62,2-5.55,5.55-5.52A17.24,17.24,0,0,1,38,8.06a5,5,0,0,1,3.83,4.76c0,4.95,0,9.9,0,14.85A4.71,4.71,0,0,1,38,32.37a15.93,15.93,0,0,1-6,0,4.33,4.33,0,0,1-3.7-4.24c-.11-2.63,0-5.27,0-7.9Zm8.05.05c0-2.12,0-4.23,0-6.35,0-.93-.34-1.44-1.28-1.48s-1.33.54-1.33,1.44q0,6.39,0,12.8c0,.87.29,1.53,1.27,1.51s1.36-.61,1.34-1.58C36.33,24.51,36.36,22.4,36.36,20.29Z"/><path class="cls-2" d="M80.68,32.57H79.12a4.77,4.77,0,0,1-4.89-4.93c-.06-2.92-.06-2.92,2.88-2.92,1.65,0,1.65,0,1.67,1.74a1.68,1.68,0,0,0,2.55,1.67,1.1,1.1,0,0,0,.69-1A3.83,3.83,0,0,0,80.88,24c-1-1-1.94-1.9-3-2.78-2.54-2.17-4-4.74-3.71-8.24.23-2.52,1.56-4.43,4.07-4.91a11.83,11.83,0,0,1,5,.06A4.86,4.86,0,0,1,87,12.84c0,2.88,0,2.88-2.8,2.88a2.57,2.57,0,0,0-.48,0c-1.25.23-1.65-.27-1.55-1.53.11-1.42-.28-1.76-1.45-1.74a1.2,1.2,0,0,0-1.32,1.34,4.38,4.38,0,0,0,1.7,3.29c1.39,1.32,2.85,2.56,4.15,4,2,2.21,2.27,4.88,1.9,7.62a4.86,4.86,0,0,1-4.83,3.88C81.8,32.59,81.24,32.57,80.68,32.57Z"/><path class="cls-2" d="M50.18,16.52c.64-2.72,1.25-5.22,1.82-7.74.16-.68.43-1,1.18-.92a30.78,30.78,0,0,0,3.72,0c.93-.06,1.14.15.82,1.07-1.43,4.12-2.8,8.27-4.21,12.4a6.26,6.26,0,0,0-.35,2.1c0,2.72,0,5.43,0,8.15,0,.73-.12,1.06-1,1-1.4-.08-2.8-.06-4.2,0-.7,0-.87-.21-.86-.88,0-2.52,0-5,0-7.55a10,10,0,0,0-.6-3.61c-1.36-3.9-2.67-7.82-4.05-11.71-.31-.85-.11-1,.71-1,1.32.06,2.64,0,4,0,.56,0,.82.11,1,.74.49,2.26,1.08,4.49,1.63,6.72C49.9,15.67,50,16,50.18,16.52Z"/><path class="cls-2" d="M63.38,22.81c0-2.92,0-5.84,0-8.75,0-.84-.14-1.22-1.1-1.16s-2.19.45-2.74-.19-.15-1.74-.16-2.65c0-2.18,0-2.18,2.15-2.18,3.48,0,7,0,10.44,0,.86,0,1.16.25,1,1.07a2.57,2.57,0,0,0,0,.48c0,1.11.36,2.51-.17,3.26s-2,.23-3.06.23c-.86,0-.73.51-.73,1,0,5.83,0,11.67,0,17.5,0,.92-.21,1.24-1.17,1.17a25.12,25.12,0,0,0-3.47,0c-.82,0-1.09-.18-1.07-1C63.41,28.64,63.38,25.72,63.38,22.81Z"/><path class="cls-1" d="M8.67,9.63c0,1.67,0,1.67-1.94,1.67-1.5,0-1.5,0-1.5-2,0-1.43,0-1.43,2.06-1.43C8.67,7.88,8.67,7.88,8.67,9.63Z"/><path class="cls-1" d="M6.89,32.57c-1.66,0-1.66,0-1.66-2,0-1.46,0-1.46,2-1.46,1.42,0,1.42,0,1.42,2C8.67,32.57,8.67,32.57,6.89,32.57Z"/><path class="cls-1" d="M5.23,16.67c0-1.61,0-1.61,2-1.61,1.42,0,1.42,0,1.42,2,0,1.43,0,1.43-2.08,1.43C5.23,18.45,5.23,18.45,5.23,16.67Z"/><path class="cls-1" d="M5.23,23.89c0-1.66,0-1.66,2-1.66,1.47,0,1.47,0,1.47,2.05,0,1.34,0,1.34-2,1.34C5.23,25.62,5.23,25.62,5.23,23.89Z"/><path d="M166.79,7.54V25.23h-5.15a.25.25,0,0,1-.24-.15l-5.26-9.38a.47.47,0,0,0-.12-.13v9.64h-5.16V20.67h-8.44V18.45h8.42V14.29h-8.42V12.07h8.42c0-.07,0-.11,0-.16V7.66a.5.5,0,0,0,0-.12h5.62a1.17,1.17,0,0,1,.05.11l5,9.24.07.09h0V7.71c0-.06,0-.12,0-.17Z"/><path d="M131.16,7.54l.75.09a7,7,0,0,1,4.2,2A7.68,7.68,0,0,1,138,12.92a12.07,12.07,0,0,1,.46,3.16,11.46,11.46,0,0,1-.51,3.86,7.1,7.1,0,0,1-5,4.82,10.75,10.75,0,0,1-3,.46c-2.77,0-5.53,0-8.3,0h-.12V7.54Zm-4.22,13.15h.54c.78,0,1.57,0,2.34-.06a3.11,3.11,0,0,0,2.68-1.94,5.92,5.92,0,0,0,.32-3.6,3.65,3.65,0,0,0-1.07-2,3.81,3.81,0,0,0-2.44-1c-.76,0-1.53,0-2.3,0l-.07,0Z"/><path d="M196.78,7.54l-1.47,2.6q-2.4,4.23-4.79,8.45a.57.57,0,0,0-.08.28v6.36H173.62v0h.15c.72,0,1.44,0,2.15-.05a9.46,9.46,0,0,0,3.9-1.06,7,7,0,0,0,3.44-4.28,11.89,11.89,0,0,0,.48-3.75A11.11,11.11,0,0,0,183,12a6.84,6.84,0,0,0-5.42-4.33c-.29,0-.58-.08-.87-.12h8.13a.41.41,0,0,0,.05.09c.78,1.74,1.57,3.48,2.35,5.21l.55,1.2c0-.09.07-.14.09-.2.91-1.92,1.82-3.85,2.72-5.77.09-.18.16-.36.23-.53Z"/><path d="M172.39,20.67V12.05h2a4.71,4.71,0,0,1,1.91.43,3.33,3.33,0,0,1,1.83,2.12,5.86,5.86,0,0,1-.17,4,3.2,3.2,0,0,1-2.65,2,7.36,7.36,0,0,1-.8.06Z"/><path d="M167.78,28.31v4.76h-.63V27.62h1s.09.08.1.13c.35,1.13.69,2.27,1,3.41.1.33.2.65.31,1a1,1,0,0,0,.07-.21c.43-1.4.86-2.8,1.28-4.2,0-.13.09-.18.23-.17h1v5.45h-.68V28.33h0a1.59,1.59,0,0,0-.07.2c-.47,1.48-.93,2.95-1.39,4.43,0,.11-.09.15-.2.14a2.28,2.28,0,0,0-.37,0c-.11,0-.16,0-.19-.15-.36-1.18-.73-2.36-1.09-3.54-.11-.36-.23-.73-.34-1.1Z"/><path d="M143.07,33.07V27.62H144c.05,0,.1.07.12.12.5,1.07,1,2.15,1.47,3.22.19.42.38.84.61,1.25V27.63h.62v5.45c-.3,0-.6,0-.9,0,0,0-.08-.07-.1-.11-.56-1.21-1.11-2.42-1.66-3.63a9.44,9.44,0,0,0-.45-.9v4.63Z"/><path d="M181.69,31.78c-.12.39-.25.76-.36,1.14,0,.14-.1.18-.23.17h-.54c.17-.53.33-1,.5-1.55.4-1.26.8-2.52,1.19-3.78a.16.16,0,0,1,.19-.13h.75L185,33.08c-.26,0-.49,0-.73,0,0,0-.08-.07-.09-.12l-.33-1.05c0-.05-.07-.12-.11-.12Zm1-3.47h0l-.84,2.85h1.73Z"/><path d="M196.44,29.11h-.74a1.28,1.28,0,0,1,0-.19c-.05-.68-.46-.86-1-.78a.68.68,0,0,0-.6.5.77.77,0,0,0,.24.87,6.71,6.71,0,0,0,.77.49,6.84,6.84,0,0,1,.92.59,1.51,1.51,0,0,1-.13,2.35,2.13,2.13,0,0,1-1.21.26,2.9,2.9,0,0,1-.41-.06,1.23,1.23,0,0,1-1-1.14c0-.17,0-.34,0-.53h.7c0,.11,0,.22,0,.33a.83.83,0,0,0,.93.79,1.6,1.6,0,0,0,.23,0,.74.74,0,0,0,.66-.54.81.81,0,0,0-.25-.93c-.27-.21-.58-.36-.87-.55a6.56,6.56,0,0,1-.83-.54,1.35,1.35,0,0,1-.4-1.46,1.29,1.29,0,0,1,1.06-1,2.1,2.1,0,0,1,1.19.05,1.14,1.14,0,0,1,.79,1C196.42,28.75,196.42,28.92,196.44,29.11Z"/><path d="M156.42,30h1.94v.62h-1.94v1.89h2.14v.59h-2.84V27.63h2.79v.59h-2.09Z"/><path d="M124,31.47h.67a1.39,1.39,0,0,1-1.13,1.7,3.79,3.79,0,0,1-.89,0,1.18,1.18,0,0,1-1-.88,4.44,4.44,0,0,1-.17-1c0-.7,0-1.41,0-2.12a2.07,2.07,0,0,1,.07-.49,1.3,1.3,0,0,1,1.19-1.08,3.54,3.54,0,0,1,.92,0,1.06,1.06,0,0,1,1,1,4.6,4.6,0,0,1,0,.53h-.73a1.34,1.34,0,0,0,0-.2.77.77,0,0,0-1.1-.78.75.75,0,0,0-.58.66,14.94,14.94,0,0,0,0,3c0,.07,0,.13,0,.19a.78.78,0,0,0,.84.62.79.79,0,0,0,.82-.6C123.89,31.84,123.91,31.66,124,31.47Z"/><path d="M134.07,33.08h-.68V27.63h.68Z"/><path d="M267.42,8.12a1.1,1.1,0,0,1,0,.18v7.44h-1a.23.23,0,0,1-.22-.12l-2.5-3.6-1.39-2a.32.32,0,0,0-.12-.11v5.83H261a.62.62,0,0,1,0-.13V8.27a.77.77,0,0,1,0-.15h1.21l.12.14,3.81,5.5.09.13h0V8.31c0-.06,0-.13,0-.19Z"/><path d="M274.1,32.25a1.34,1.34,0,0,0,0-.2V24.72l.16,0c.3,0,.61,0,.92,0a.23.23,0,0,1,.23.13l1.66,2.61c.62,1,1.23,1.92,1.84,2.89l.07.11h0s0,0,0,0V24.75h0l0,0h1.1v7.53h-1.22l-.05-.12-3.56-5.56-.09-.12v5.8Z"/><path d="M270.4,8.12l.28,0a2.48,2.48,0,0,1,1.13.34,1.83,1.83,0,0,1,.82,1.07,2.07,2.07,0,0,1,0,1.43,1.41,1.41,0,0,1-.35.52l-.17.16.14.1a2.68,2.68,0,0,1,.54.47,2,2,0,0,1,.41.94,2.27,2.27,0,0,1,0,.86,2.12,2.12,0,0,1-1,1.37,2.37,2.37,0,0,1-1.07.31c-.3,0-.6,0-.91,0h-2.07c0-.06,0-.11,0-.16V8.28a.9.9,0,0,1,0-.16Zm-1.21,4.2v2.39h1.54a1.51,1.51,0,0,0,.78-.2,1.14,1.14,0,0,0,.51-1.28,1.16,1.16,0,0,0-1.11-.89l-1.18,0Zm0-1h1.18a3.47,3.47,0,0,0,.55-.08.88.88,0,0,0,.65-.66,1.3,1.3,0,0,0,0-.73.87.87,0,0,0-.3-.43,1.32,1.32,0,0,0-.77-.24h-1.29Z"/><path d="M285.65,32.25V24.72h.12c.94,0,1.87,0,2.81,0a2.87,2.87,0,0,1,1.26.29,2.21,2.21,0,0,1,.49.36,2.3,2.3,0,0,1,.67,1.57,2.94,2.94,0,0,1-.07.94,2.22,2.22,0,0,1-.55.95,2.39,2.39,0,0,1-1.36.63l-.23,0,.11.15,1.93,2.44a1.62,1.62,0,0,1,.1.18h-1.42l-.07-.11L287,29.07l-.1-.11v3.29Zm1.28-3.63h.14l1,0a2.52,2.52,0,0,0,1.17-.31,1.37,1.37,0,0,0,.43-.4,1.4,1.4,0,0,0-.35-1.84,1.61,1.61,0,0,0-.92-.31c-.45,0-.9,0-1.35,0h-.11Z"/><path d="M281.82,8.12l.28,0a2.91,2.91,0,0,1,.89.15,2,2,0,0,1,1,.83,2.56,2.56,0,0,1,.4,1.23,2.74,2.74,0,0,1-.1,1,2,2,0,0,1-1,1.21,2.55,2.55,0,0,1-1,.3h-.12c.12.18.25.33.37.48l.36.47.37.46.36.47c.13.15.25.31.37.46l.38.49h-1.26a.26.26,0,0,1-.22-.1l-2.71-3.2a1.07,1.07,0,0,0-.18-.19c0,.29,0,.58,0,.86v2.62h-1.11c0-.05,0-.09,0-.14V8.28a.9.9,0,0,1,0-.16Zm-1.76,3.93s.05,0,.06,0a14.6,14.6,0,0,0,1.62,0,2.46,2.46,0,0,0,.6-.12,1.93,1.93,0,0,0,.49-.26,1.3,1.3,0,0,0,.47-1.1,1.31,1.31,0,0,0-.24-.81A1.39,1.39,0,0,0,282,9.18c-.63,0-1.25,0-1.88,0l-.05,0Z"/><path d="M287.65,8.12l.29,0a3,3,0,0,1,1,.18,1.88,1.88,0,0,1,.76.52,2.33,2.33,0,0,1,.48.82,2.79,2.79,0,0,1,.15,1,2.66,2.66,0,0,1-.18.88,1.89,1.89,0,0,1-.7.9,2.51,2.51,0,0,1-1.18.45l-.16,0,2.23,2.82h-1.27a.23.23,0,0,1-.21-.11l-2.57-3.21a.91.91,0,0,0-.17-.17v3.48H285V8.27a.77.77,0,0,1,0-.15Zm-1.51,1.05V12l0,0a10.73,10.73,0,0,0,1.7-.05,1.76,1.76,0,0,0,.85-.34A1.42,1.42,0,0,0,289,9.86a1.38,1.38,0,0,0-1.14-.67c-.56,0-1.13,0-1.69,0Z"/><path d="M294.25,8.12l1,2.62q.92,2.41,1.82,4.81c0,.06,0,.12.07.19H295.9l-.84-2.23h-2.58l-.83,2.23h-1.26a.5.5,0,0,1,0-.13l2.79-7.37a.61.61,0,0,0,0-.12Zm-1.38,4.35h1.78c0-.2-.83-2.75-.9-2.85Z"/><path d="M278.3,8.12a.29.29,0,0,1,0,.1v.89l0,.05h-3.37a20.66,20.66,0,0,0,0,2.23h3.39v1h-3.4v2.31h3.4v1h-4.5a.66.66,0,0,1,0-.14V8.27a.77.77,0,0,1,0-.15Z"/><path d="M257.51,8.12c.52,1.36,1,2.72,1.55,4.09l1.27,3.34.06.19h-1.17l-.84-2.23h-2.73l-.82,2.23h-1.18l0-.15c.93-2.44,1.85-4.89,2.78-7.33l.06-.14Zm-1.44,4.35H258c0-.21-.89-2.75-1-2.85Z"/><path d="M291.63,32.25a1.34,1.34,0,0,0,0-.2v-7.3l0,0h4.23a5.64,5.64,0,0,1,0,1h-3.14V28h3.13a5.6,5.6,0,0,1,0,1h-.61c-.21,0-.42,0-.64,0h-1.87c0,.13,0,2,0,2.29h3.15v1Z"/><path d="M269.24,32.25c0-.07,0-.13,0-.2V24.73c.11,0,4,0,4.24,0v1h-3.12V28h3.12v1c-.52,0-1,0-1.55,0s-1,0-1.56,0v2.29c.34,0,.68,0,1,0h2.08a5.81,5.81,0,0,1,0,1Z"/><path d="M250.71,8.12l.07,0a3.74,3.74,0,0,1,1.43.41,3.49,3.49,0,0,1,1.57,1.54.08.08,0,0,0,0,0h-1.18a.21.21,0,0,1-.18-.09,2.64,2.64,0,0,0-.67-.58,2.92,2.92,0,0,0-.63-.27,2.59,2.59,0,0,0-1.65.07,2.32,2.32,0,0,0-.87.54,2.51,2.51,0,0,0-.72,1,4,4,0,0,0-.18.7,2.87,2.87,0,0,0,.35,1.77,2.78,2.78,0,0,0,.67.78,2.65,2.65,0,0,0,.6.38,2.71,2.71,0,0,0,.78.24,2.44,2.44,0,0,0,1.17-.14,3,3,0,0,0,.89-.55c.09-.09.16-.2.27-.24a1.07,1.07,0,0,1,.36,0c.26,0,.53,0,.79,0h.17a4.6,4.6,0,0,1-.3.46,3.85,3.85,0,0,1-1,.92,4.09,4.09,0,0,1-1.35.51,3.9,3.9,0,0,1-1.18,0,5.61,5.61,0,0,1-.59-.13,3.58,3.58,0,0,1-1.52-.88,4,4,0,0,1-1-1.64,3.13,3.13,0,0,1-.1-.44l-.06-.15V11.34l.06-.15c.07-.24.13-.48.21-.71a3.13,3.13,0,0,1,.68-1.1,3.59,3.59,0,0,1,1.1-.83,3.49,3.49,0,0,1,1.45-.4l.11,0Z"/><path d="M264.41,32.25l-.08,0a3.69,3.69,0,0,1-1-.45,3.35,3.35,0,0,1-.94-.82,4.14,4.14,0,0,1-.38-.55,3.5,3.5,0,0,1-.49-1.33,2.89,2.89,0,0,1,0-.72,6.82,6.82,0,0,1,.1-.79,2.51,2.51,0,0,1,.26-.74,3.84,3.84,0,0,1,3-2.08,3.84,3.84,0,0,1,1.87.22A3.69,3.69,0,0,1,268.22,26a6,6,0,0,1,.41.58.36.36,0,0,1,.05.09h-1.19a.22.22,0,0,1-.19-.08,2.65,2.65,0,0,0-.92-.71,2.72,2.72,0,0,0-1.32-.23,2.93,2.93,0,0,0-1.15.37,2.59,2.59,0,0,0-.77.67,2.39,2.39,0,0,0-.39.65,2.83,2.83,0,0,0-.19.76,2,2,0,0,0,0,.74,3.64,3.64,0,0,0,.16.63,2.59,2.59,0,0,0,.78,1.12,2.51,2.51,0,0,0,.92.54,2.57,2.57,0,0,0,.77.15,2.32,2.32,0,0,0,.53,0,2.51,2.51,0,0,0,1.39-.75.5.5,0,0,1,.41-.17c.36,0,.72,0,1.1,0a.89.89,0,0,1-.05.1,3.94,3.94,0,0,1-.91,1,3.21,3.21,0,0,1-.88.51c-.18.07-.37.12-.56.18l-.12.06Z"/><path d="M282.37,32.25V25.73h-1.61v-1H285c0,.34,0,.67,0,1h-1.54v6.52Z"/><path d="M267.43,24.08H265.5c0-.34,0-.68,0-1V21H263v3c-.12,0-1.73,0-1.95,0,0-.1,0-7.49,0-7.68h2v2.84c.13,0,2.3,0,2.5,0V16.41c.13,0,1.71,0,1.95,0Z"/><path d="M285,24.08V16.39h.14c1,0,1.93,0,2.9,0a4.17,4.17,0,0,1,1.56.27,1.92,1.92,0,0,1,.77.58,2.83,2.83,0,0,1,.5.92,2.52,2.52,0,0,1,.1.46,3.2,3.2,0,0,1-.16,1.5,1.8,1.8,0,0,1-.83,1,3.27,3.27,0,0,1-.95.34l-.13,0L291,24.07l-.12,0h-2a.22.22,0,0,1-.2-.11l-1.61-2.23a.36.36,0,0,0-.11-.1v2.43Zm1.92-3.84a6.33,6.33,0,0,0,1.38-.07.94.94,0,0,0,.77-.74.88.88,0,0,0,0-.62,1.07,1.07,0,0,0-.8-.62,4.64,4.64,0,0,0-1.29-.07l0,0Z"/><path d="M278,24.07,277.59,23h-2.68l-.4,1.12h-2.12l3.14-7.69h1.57l3,7.67C280,24.09,278.21,24.1,278,24.07Zm-.9-2.69-.74-2.54h0c-.28.84-.57,1.68-.84,2.54Z"/><path d="M295.91,19.3V21c-.16,0-.31,0-.47,0h-1.91v1.3h2.35a13.79,13.79,0,0,1,0,1.72c-.1,0-4,0-4.25,0V16.39h4.26v1.73h-2.39V19.3Z"/><path d="M270,21v1.3h2.36a13.76,13.76,0,0,1,0,1.72c-.11,0-4,0-4.26,0V16.39h4.26v1.73H270c0,.39,0,.78,0,1.18h2.29V21Z"/><path d="M284.42,16.4v1.72h-1.7v5.94a18.13,18.13,0,0,1-2,0V18.12H279a15.61,15.61,0,0,1,0-1.71C279.05,16.37,284.26,16.37,284.42,16.4Z"/><path d="M260.38,18.12h-1.83v6H256.6v-6h-1.78V16.41c.12,0,5.25-.05,5.55,0A16.38,16.38,0,0,1,260.38,18.12Z"/></svg>