<svg id="Layer_1" data-name="Layer 1" xmlns="http://www.w3.org/2000/svg" viewBox="0 0 100 100"><defs><style>.cls-1{fill:#f8dc8c;}.cls-2{fill:#fc1a3d;}</style></defs><path class="cls-1" d="M91.1,50A44.85,44.85,0,1,1,46.3,5.1,45,45,0,0,1,91.1,50Z"/><path class="cls-2" d="M59.47,27.58h7a5.58,5.58,0,0,0,1,.31,35,35,0,0,1,29.41,25.7c.49,1.84.81,3.73,1.21,5.59v7a5,5,0,0,0-.31,1A35.16,35.16,0,0,1,57.52,97.39c-16.35-2.57-29-16.59-29.62-32.91a35.07,35.07,0,0,1,27-35.93C56.4,28.19,57.94,27.9,59.47,27.58ZM63,91.92A29.23,29.23,0,1,0,33.76,62.68,29.15,29.15,0,0,0,63,91.92Z"/><path class="cls-2" d="M57.1,70.28,77.49,49.89a13.07,13.07,0,0,1,1.27-1.2,2.86,2.86,0,0,1,3.83.24,3,3,0,0,1,.26,3.85,10.26,10.26,0,0,1-1,1q-11,11-21.95,21.95c-2.13,2.13-3.45,2.13-5.61,0q-5.4-5.4-10.79-10.79a2.87,2.87,0,0,1-.61-3.67,2.63,2.63,0,0,1,3.29-1.32,4.82,4.82,0,0,1,1.84,1.26C51,64.16,54,67.15,57.1,70.28Z"/></svg>