<?xml version="1.0" encoding="utf-8"?>
<!-- Generator: Adobe Illustrator 26.0.1, SVG Export Plug-In . SVG Version: 6.00 Build 0)  -->
<svg version="1.1" id="Layer_1" xmlns="http://www.w3.org/2000/svg" xmlns:xlink="http://www.w3.org/1999/xlink" x="0px" y="0px"
	 viewBox="0 0 1000 195.7" style="enable-background:new 0 0 1000 195.7;" xml:space="preserve">
<style type="text/css">
	.st0{fill:#E98367;}
	.st1{fill:#422162;}
	.st2{fill:#EE5C8B;}
	.st3{fill:none;}
	.st4{fill:#2E363F;}
	.st5{fill:#F0956B;}
	.st6{fill:#75293F;}
	.st7{fill:#203959;}
	.st8{fill:#203959;stroke:#203959;stroke-width:0.4507;stroke-miterlimit:10;}
	.st9{fill:#A37863;}
	.st10{fill:#D6577A;}
	.st11{fill:#E67E6F;}
	.st12{fill:none;stroke:#FFFFFF;stroke-width:2.2537;stroke-linecap:round;stroke-miterlimit:10;}
</style>
<g>
	<g>
		<path class="st0" d="M21.7,159.4c-1.1,1-2.4,1.7-3.9,2.3c-1.4,0.5-2.9,0.8-4.4,0.8c-1.2,0-2.3-0.2-3.4-0.5s-2.1-0.7-3.1-1.3
			c-1-0.6-1.8-1.2-2.6-2c-0.8-0.8-1.5-1.6-2-2.6c-0.6-1-1-2-1.3-3.1s-0.5-2.2-0.5-3.4c0-1.2,0.2-2.3,0.5-3.4s0.7-2.1,1.3-3.1
			c0.6-0.9,1.2-1.8,2-2.6c0.8-0.8,1.6-1.5,2.6-2c1-0.6,2-1,3.1-1.3c1.1-0.3,2.2-0.5,3.4-0.5c1.5,0,3,0.3,4.4,0.8s2.7,1.3,3.9,2.3
			l-2.6,4.3c-0.7-0.8-1.6-1.4-2.6-1.8c-1-0.4-2-0.6-3.1-0.6c-1.1,0-2.1,0.2-3.1,0.6s-1.8,1-2.5,1.7c-0.7,0.7-1.3,1.5-1.7,2.5
			s-0.6,2-0.6,3.1c0,1.1,0.2,2.1,0.6,3s1,1.8,1.7,2.5c0.7,0.7,1.5,1.3,2.5,1.7s2,0.6,3.1,0.6c1.1,0,2.1-0.2,3.1-0.6
			c1-0.4,1.8-1,2.6-1.8L21.7,159.4z"/>
		<path class="st0" d="M32.2,162h-5v-24.7h9.9c0.9,0,1.8,0.1,2.6,0.3c0.8,0.2,1.6,0.6,2.4,1c0.7,0.4,1.4,1,2,1.6
			c0.6,0.6,1.1,1.3,1.6,2c0.4,0.7,0.8,1.5,1,2.4c0.2,0.8,0.3,1.7,0.3,2.6c0,0.9-0.1,1.7-0.3,2.5c-0.2,0.8-0.5,1.6-0.9,2.3
			c-0.4,0.7-0.9,1.4-1.5,2c-0.6,0.6-1.2,1.1-1.9,1.6l2.7,6.5h-5.3l-2.2-5l-5.5,0V162z M32.2,142.2v9.9h5c0.7,0,1.3-0.1,1.9-0.4
			c0.6-0.3,1.1-0.6,1.6-1.1c0.4-0.4,0.8-1,1.1-1.6c0.3-0.6,0.4-1.2,0.4-1.9s-0.1-1.3-0.4-1.9c-0.3-0.6-0.6-1.1-1.1-1.6
			c-0.4-0.4-1-0.8-1.6-1.1c-0.6-0.3-1.2-0.4-1.9-0.4H32.2z"/>
		<path class="st0" d="M77.6,162h-4.9v-17.7c0-0.3-0.1-0.7-0.2-1c-0.1-0.3-0.3-0.6-0.5-0.8c-0.2-0.2-0.5-0.4-0.8-0.5
			c-0.3-0.1-0.6-0.2-1-0.2c-0.3,0-0.7,0.1-1,0.2c-0.3,0.1-0.6,0.3-0.8,0.5c-0.2,0.2-0.4,0.5-0.5,0.8c-0.1,0.3-0.2,0.6-0.2,1V162h-5
			v-17.7c0-0.3-0.1-0.7-0.2-1c-0.1-0.3-0.3-0.6-0.5-0.8c-0.2-0.2-0.5-0.4-0.8-0.5c-0.3-0.1-0.6-0.2-1-0.2c-0.3,0-0.7,0.1-1,0.2
			c-0.3,0.1-0.6,0.3-0.8,0.5c-0.2,0.2-0.4,0.5-0.5,0.8c-0.1,0.3-0.2,0.6-0.2,1V162h-5v-17.7c0-1,0.2-2,0.6-2.9
			c0.4-0.9,0.9-1.7,1.6-2.4c0.7-0.7,1.5-1.2,2.4-1.6c0.9-0.4,1.9-0.6,2.9-0.6c0.9,0,1.8,0.2,2.7,0.5c0.9,0.3,1.6,0.8,2.3,1.4
			c0.7-0.6,1.4-1.1,2.3-1.4c0.8-0.3,1.7-0.5,2.7-0.5c1,0,2,0.2,2.9,0.6c0.9,0.4,1.7,0.9,2.4,1.6c0.7,0.7,1.2,1.5,1.6,2.4
			c0.4,0.9,0.6,1.9,0.6,2.9V162z"/>
		<path class="st0" d="M104.4,159.4c-1.1,1-2.4,1.7-3.9,2.3c-1.4,0.5-2.9,0.8-4.4,0.8c-1.2,0-2.3-0.2-3.4-0.5
			c-1.1-0.3-2.1-0.7-3.1-1.3c-1-0.6-1.8-1.2-2.6-2c-0.8-0.8-1.5-1.6-2-2.6c-0.6-1-1-2-1.3-3.1s-0.5-2.2-0.5-3.4
			c0-1.2,0.2-2.3,0.5-3.4s0.7-2.1,1.3-3.1c0.6-0.9,1.2-1.8,2-2.6c0.8-0.8,1.6-1.5,2.6-2c1-0.6,2-1,3.1-1.3c1.1-0.3,2.2-0.5,3.4-0.5
			c1.5,0,3,0.3,4.4,0.8c1.4,0.5,2.7,1.3,3.9,2.3l-2.6,4.3c-0.7-0.8-1.6-1.4-2.6-1.8c-1-0.4-2-0.6-3.1-0.6c-1.1,0-2.1,0.2-3.1,0.6
			c-1,0.4-1.8,1-2.5,1.7c-0.7,0.7-1.3,1.5-1.7,2.5s-0.6,2-0.6,3.1c0,1.1,0.2,2.1,0.6,3s1,1.8,1.7,2.5c0.7,0.7,1.5,1.3,2.5,1.7
			c1,0.4,2,0.6,3.1,0.6c1.1,0,2.1-0.2,3.1-0.6c1-0.4,1.8-1,2.6-1.8L104.4,159.4z"/>
		<path class="st1" d="M129.8,149.6c0,1.1-0.1,2.2-0.4,3.3s-0.7,2-1.3,3c-0.5,0.9-1.2,1.7-1.9,2.5c-0.7,0.8-1.6,1.4-2.5,1.9
			c-0.9,0.5-1.9,1-3,1.3c-1.1,0.3-2.2,0.4-3.3,0.4H110v-24.7h7.5c1.1,0,2.2,0.1,3.3,0.4c1.1,0.3,2,0.7,3,1.3s1.8,1.2,2.5,1.9
			c0.7,0.8,1.4,1.6,1.9,2.5c0.5,0.9,1,1.9,1.3,2.9C129.7,147.3,129.8,148.4,129.8,149.6z M124.8,149.6c0-1-0.2-2-0.6-2.9
			c-0.4-0.9-0.9-1.7-1.6-2.4c-0.7-0.7-1.5-1.2-2.4-1.6c-0.9-0.4-1.9-0.6-2.9-0.6H115V157h2.5c1,0,2-0.2,2.9-0.6
			c0.9-0.4,1.7-0.9,2.4-1.6c0.7-0.7,1.2-1.5,1.6-2.4C124.7,151.6,124.8,150.6,124.8,149.6z"/>
		<path class="st1" d="M134.3,144.6c0-1,0.2-2,0.6-2.9c0.4-0.9,0.9-1.7,1.6-2.4c0.7-0.7,1.5-1.2,2.4-1.6c0.9-0.4,1.9-0.6,2.9-0.6
			h11.4v5h-11.4c-0.3,0-0.7,0.1-1,0.2c-0.3,0.1-0.6,0.3-0.8,0.5c-0.2,0.2-0.4,0.5-0.5,0.8c-0.1,0.3-0.2,0.6-0.2,1s0.1,0.7,0.2,1
			c0.1,0.3,0.3,0.6,0.5,0.8c0.2,0.2,0.5,0.4,0.8,0.5c0.3,0.1,0.6,0.2,1,0.2h5c1,0,2,0.2,2.9,0.6c0.9,0.4,1.7,0.9,2.4,1.6
			c0.7,0.7,1.2,1.5,1.6,2.4c0.4,0.9,0.6,1.9,0.6,2.9c0,1-0.2,2-0.6,2.9c-0.4,0.9-0.9,1.7-1.6,2.4c-0.7,0.7-1.5,1.2-2.4,1.6
			c-0.9,0.4-1.9,0.6-2.9,0.6h-11v-5h11c0.3,0,0.7-0.1,1-0.2c0.3-0.1,0.6-0.3,0.8-0.5c0.2-0.2,0.4-0.5,0.5-0.8c0.1-0.3,0.2-0.6,0.2-1
			c0-0.3-0.1-0.7-0.2-1c-0.1-0.3-0.3-0.6-0.5-0.8c-0.2-0.2-0.5-0.4-0.8-0.5c-0.3-0.1-0.6-0.2-1-0.2h-5c-1,0-2-0.2-2.9-0.6
			s-1.7-0.9-2.4-1.6c-0.7-0.7-1.2-1.5-1.6-2.4C134.5,146.6,134.3,145.7,134.3,144.6z"/>
		<path class="st1" d="M179.7,159.5c-1.1,1-2.4,1.7-3.8,2.2c-1.4,0.5-2.9,0.8-4.4,0.8c-1.2,0-2.3-0.2-3.4-0.5s-2.1-0.7-3-1.3
			c-0.9-0.6-1.8-1.2-2.6-2c-0.8-0.8-1.5-1.6-2-2.6c-0.6-1-1-2-1.3-3.1c-0.3-1.1-0.5-2.2-0.5-3.4c0-1.2,0.2-2.3,0.5-3.4
			c0.3-1.1,0.7-2.1,1.3-3c0.6-0.9,1.2-1.8,2-2.6c0.8-0.8,1.6-1.4,2.6-2c0.9-0.6,2-1,3-1.3c1.1-0.3,2.2-0.5,3.4-0.5
			c1.5,0,3,0.3,4.4,0.8c1.4,0.5,2.7,1.3,3.8,2.3l-2.6,4.3c-0.7-0.8-1.6-1.4-2.6-1.8c-1-0.4-2-0.6-3.1-0.6c-1.1,0-2.1,0.2-3,0.6
			c-0.9,0.4-1.8,1-2.5,1.7c-0.7,0.7-1.3,1.5-1.7,2.5c-0.4,0.9-0.6,2-0.6,3c0,1.1,0.2,2.1,0.6,3.1s1,1.8,1.7,2.5
			c0.7,0.7,1.5,1.3,2.5,1.7c1,0.4,2,0.6,3,0.6c0.6,0,1.2-0.1,1.8-0.2s1.1-0.4,1.7-0.6v-7h4.8V159.5z"/>
		<path class="st1" d="M206,162h-5.3l-9.5-16.3V162h-5v-24.7h5.3l9.5,16.3v-16.3h5V162z"/>
	</g>
</g>
<g>
	<path class="st2" d="M3.6,184.2v-16h4.5c1.4,0,2.6,0.3,3.7,0.9c1.1,0.6,1.9,1.5,2.5,2.6c0.6,1.1,0.9,2.4,0.9,3.9v1
		c0,1.5-0.3,2.8-0.9,4c-0.6,1.1-1.4,2-2.5,2.6c-1.1,0.6-2.3,0.9-3.8,0.9H3.6z M5.7,170v12.5h2.2c1.6,0,2.9-0.5,3.8-1.5
		c0.9-1,1.4-2.4,1.4-4.3v-0.9c0-1.8-0.4-3.2-1.3-4.2c-0.9-1-2.1-1.5-3.6-1.5H5.7z"/>
	<path class="st2" d="M24.6,184.4c-1.6,0-2.9-0.5-3.9-1.6c-1-1.1-1.5-2.5-1.5-4.2v-0.4c0-1.2,0.2-2.2,0.7-3.2
		c0.5-0.9,1.1-1.6,1.9-2.2c0.8-0.5,1.7-0.8,2.6-0.8c1.5,0,2.7,0.5,3.6,1.5c0.9,1,1.3,2.5,1.3,4.4v0.8h-8c0,1.2,0.4,2.1,1,2.8
		c0.7,0.7,1.5,1.1,2.5,1.1c0.7,0,1.3-0.1,1.8-0.4c0.5-0.3,0.9-0.7,1.3-1.2l1.2,1C28.1,183.7,26.6,184.4,24.6,184.4z M24.4,173.8
		c-0.8,0-1.5,0.3-2.1,0.9c-0.6,0.6-0.9,1.4-1,2.5h5.9V177c-0.1-1-0.3-1.8-0.8-2.4C25.9,174.1,25.2,173.8,24.4,173.8z"/>
	<path class="st2" d="M40.2,181.1c0-0.5-0.2-1-0.6-1.3c-0.4-0.3-1.1-0.6-2.2-0.8c-1-0.2-1.8-0.5-2.4-0.8c-0.6-0.3-1-0.7-1.3-1.1
		c-0.3-0.4-0.4-0.9-0.4-1.5c0-1,0.4-1.8,1.2-2.5c0.8-0.7,1.9-1,3.2-1c1.3,0,2.4,0.3,3.3,1c0.8,0.7,1.3,1.6,1.3,2.7h-2
		c0-0.6-0.2-1-0.7-1.4c-0.5-0.4-1.1-0.6-1.8-0.6c-0.7,0-1.3,0.2-1.7,0.5c-0.4,0.3-0.6,0.7-0.6,1.3c0,0.5,0.2,0.9,0.6,1.1
		c0.4,0.2,1.1,0.5,2.1,0.7c1,0.2,1.8,0.5,2.5,0.8s1.1,0.7,1.4,1.1c0.3,0.4,0.5,1,0.5,1.6c0,1.1-0.4,1.9-1.3,2.6
		c-0.8,0.6-1.9,1-3.3,1c-1,0-1.8-0.2-2.5-0.5c-0.7-0.3-1.3-0.8-1.7-1.4c-0.4-0.6-0.6-1.3-0.6-2h2c0,0.7,0.3,1.2,0.8,1.6
		c0.5,0.4,1.2,0.6,2,0.6c0.8,0,1.4-0.2,1.9-0.5C40,182,40.2,181.6,40.2,181.1z"/>
	<path class="st2" d="M46.6,169.2c0-0.3,0.1-0.6,0.3-0.8c0.2-0.2,0.5-0.3,0.9-0.3c0.4,0,0.7,0.1,0.9,0.3s0.3,0.5,0.3,0.8
		c0,0.3-0.1,0.6-0.3,0.8c-0.2,0.2-0.5,0.3-0.9,0.3c-0.4,0-0.7-0.1-0.9-0.3C46.7,169.8,46.6,169.5,46.6,169.2z M48.8,184.2h-2v-11.9
		h2V184.2z"/>
	<path class="st2" d="M53.3,178.2c0-1.9,0.4-3.3,1.3-4.4c0.9-1.1,2-1.6,3.4-1.6c1.4,0,2.6,0.5,3.4,1.5l0.1-1.3h1.9v11.6
		c0,1.5-0.5,2.7-1.4,3.6c-0.9,0.9-2.1,1.3-3.7,1.3c-0.9,0-1.7-0.2-2.5-0.6c-0.8-0.4-1.4-0.9-1.9-1.5l1.1-1.2
		c0.9,1.1,1.9,1.6,3.2,1.6c1,0,1.8-0.3,2.3-0.8c0.6-0.6,0.8-1.3,0.8-2.3v-1c-0.8,0.9-1.9,1.4-3.3,1.4c-1.4,0-2.5-0.6-3.4-1.7
		C53.7,181.6,53.3,180.1,53.3,178.2z M55.3,178.4c0,1.3,0.3,2.4,0.8,3.2c0.5,0.8,1.3,1.1,2.3,1.1c1.3,0,2.2-0.6,2.8-1.7v-5.4
		c-0.6-1.1-1.6-1.7-2.8-1.7c-1,0-1.8,0.4-2.3,1.2C55.6,175.8,55.3,176.9,55.3,178.4z"/>
	<path class="st2" d="M70,172.3l0.1,1.5c0.9-1.1,2.1-1.7,3.6-1.7c2.5,0,3.8,1.4,3.8,4.2v7.8h-2v-7.9c0-0.9-0.2-1.5-0.6-1.9
		c-0.4-0.4-1-0.6-1.8-0.6c-0.7,0-1.2,0.2-1.7,0.5c-0.5,0.4-0.9,0.8-1.2,1.4v8.5h-2v-11.9H70z"/>
	<path class="st2" d="M89.1,181.1c0-0.5-0.2-1-0.6-1.3c-0.4-0.3-1.1-0.6-2.2-0.8c-1-0.2-1.8-0.5-2.4-0.8c-0.6-0.3-1-0.7-1.3-1.1
		c-0.3-0.4-0.4-0.9-0.4-1.5c0-1,0.4-1.8,1.2-2.5c0.8-0.7,1.9-1,3.2-1c1.3,0,2.4,0.3,3.3,1c0.8,0.7,1.3,1.6,1.3,2.7h-2
		c0-0.6-0.2-1-0.7-1.4c-0.5-0.4-1.1-0.6-1.8-0.6c-0.7,0-1.3,0.2-1.7,0.5c-0.4,0.3-0.6,0.7-0.6,1.3c0,0.5,0.2,0.9,0.6,1.1
		c0.4,0.2,1.1,0.5,2.1,0.7c1,0.2,1.8,0.5,2.5,0.8s1.1,0.7,1.4,1.1c0.3,0.4,0.5,1,0.5,1.6c0,1.1-0.4,1.9-1.3,2.6
		c-0.8,0.6-1.9,1-3.3,1c-1,0-1.8-0.2-2.5-0.5c-0.7-0.3-1.3-0.8-1.7-1.4c-0.4-0.6-0.6-1.3-0.6-2h2c0,0.7,0.3,1.2,0.8,1.6
		c0.5,0.4,1.2,0.6,2,0.6c0.8,0,1.4-0.2,1.9-0.5C88.9,182,89.1,181.6,89.1,181.1z"/>
	<path class="st2" d="M105.5,169.5v2.9h2.2v1.6h-2.2v7.4c0,0.5,0.1,0.8,0.3,1.1c0.2,0.2,0.5,0.4,1,0.4c0.2,0,0.6,0,1-0.1v1.6
		c-0.5,0.1-1.1,0.2-1.6,0.2c-0.9,0-1.6-0.3-2-0.8c-0.5-0.5-0.7-1.3-0.7-2.3v-7.4h-2.2v-1.6h2.2v-2.9H105.5z"/>
	<path class="st2" d="M113.8,173.8c0.9-1.1,2.1-1.7,3.5-1.7c2.5,0,3.8,1.4,3.8,4.2v7.8h-2v-7.9c0-0.9-0.2-1.5-0.6-1.9
		c-0.4-0.4-1-0.6-1.8-0.6c-0.7,0-1.2,0.2-1.7,0.5c-0.5,0.4-0.9,0.8-1.2,1.4v8.5h-2v-16.9h2V173.8z"/>
	<path class="st2" d="M133.2,184.2c-0.1-0.2-0.2-0.6-0.3-1.3c-0.9,1-2.1,1.5-3.4,1.5c-1.2,0-2.1-0.3-2.9-1c-0.7-0.7-1.1-1.5-1.1-2.5
		c0-1.2,0.5-2.2,1.4-2.9c0.9-0.7,2.3-1,4-1h2v-0.9c0-0.7-0.2-1.3-0.6-1.7c-0.4-0.4-1-0.6-1.9-0.6c-0.7,0-1.3,0.2-1.8,0.5
		c-0.5,0.4-0.7,0.8-0.7,1.3h-2c0-0.6,0.2-1.2,0.6-1.7c0.4-0.6,1-1,1.7-1.3c0.7-0.3,1.5-0.5,2.4-0.5c1.4,0,2.4,0.3,3.2,1
		c0.8,0.7,1.2,1.6,1.2,2.8v5.5c0,1.1,0.1,2,0.4,2.6v0.2H133.2z M129.8,182.7c0.6,0,1.2-0.2,1.8-0.5c0.6-0.3,1-0.8,1.2-1.3v-2.4h-1.6
		c-2.5,0-3.7,0.7-3.7,2.2c0,0.6,0.2,1.1,0.6,1.5C128.6,182.5,129.2,182.7,129.8,182.7z"/>
	<path class="st2" d="M142.6,169.5v2.9h2.2v1.6h-2.2v7.4c0,0.5,0.1,0.8,0.3,1.1c0.2,0.2,0.5,0.4,1,0.4c0.2,0,0.6,0,1-0.1v1.6
		c-0.5,0.1-1.1,0.2-1.6,0.2c-0.9,0-1.6-0.3-2-0.8c-0.5-0.5-0.7-1.3-0.7-2.3v-7.4h-2.2v-1.6h2.2v-2.9H142.6z"/>
	<path class="st2" d="M160.9,182.8c0.7,0,1.4-0.2,1.9-0.7c0.5-0.4,0.8-1,0.9-1.6h1.9c0,0.7-0.3,1.3-0.7,1.9c-0.4,0.6-1,1.1-1.7,1.5
		c-0.7,0.4-1.5,0.6-2.3,0.6c-1.6,0-2.9-0.5-3.9-1.6s-1.4-2.6-1.4-4.4v-0.3c0-1.2,0.2-2.2,0.6-3.1c0.4-0.9,1-1.6,1.8-2.1
		c0.8-0.5,1.7-0.7,2.8-0.7c1.3,0,2.4,0.4,3.3,1.2c0.9,0.8,1.3,1.8,1.4,3.1h-1.9c-0.1-0.8-0.3-1.4-0.9-1.9c-0.5-0.5-1.2-0.7-1.9-0.7
		c-1,0-1.8,0.4-2.4,1.1c-0.6,0.7-0.9,1.8-0.9,3.2v0.4c0,1.4,0.3,2.4,0.8,3.2C159.1,182.4,159.9,182.8,160.9,182.8z"/>
	<path class="st2" d="M171.8,184.2h-2v-16.9h2V184.2z"/>
	<path class="st2" d="M176.8,169.2c0-0.3,0.1-0.6,0.3-0.8c0.2-0.2,0.5-0.3,0.9-0.3c0.4,0,0.7,0.1,0.9,0.3c0.2,0.2,0.3,0.5,0.3,0.8
		c0,0.3-0.1,0.6-0.3,0.8c-0.2,0.2-0.5,0.3-0.9,0.3c-0.4,0-0.7-0.1-0.9-0.3C176.9,169.8,176.8,169.5,176.8,169.2z M179,184.2h-2
		v-11.9h2V184.2z"/>
	<path class="st2" d="M188.7,182.8c0.7,0,1.4-0.2,1.9-0.7c0.5-0.4,0.8-1,0.9-1.6h1.9c0,0.7-0.3,1.3-0.7,1.9c-0.4,0.6-1,1.1-1.7,1.5
		c-0.7,0.4-1.5,0.6-2.3,0.6c-1.6,0-2.9-0.5-3.9-1.6c-1-1.1-1.4-2.6-1.4-4.4v-0.3c0-1.2,0.2-2.2,0.6-3.1c0.4-0.9,1-1.6,1.8-2.1
		c0.8-0.5,1.7-0.7,2.8-0.7c1.3,0,2.4,0.4,3.3,1.2c0.9,0.8,1.3,1.8,1.4,3.1h-1.9c-0.1-0.8-0.3-1.4-0.9-1.9c-0.5-0.5-1.2-0.7-1.9-0.7
		c-1,0-1.8,0.4-2.4,1.1c-0.6,0.7-0.9,1.8-0.9,3.2v0.4c0,1.4,0.3,2.4,0.8,3.2C186.9,182.4,187.7,182.8,188.7,182.8z"/>
	<path class="st2" d="M200.7,178.7l-1.3,1.3v4.2h-2v-16.9h2v10.2l1.1-1.3l3.7-3.9h2.5l-4.6,5l5.2,6.9h-2.4L200.7,178.7z"/>
</g>
<g>
	<path class="st0" d="M108.8,95.9V111H64.6c-21.7,0-39.5-17.8-39.5-39.5V40.8c0-21.7,17.8-39.5,39.5-39.5h21v15.1h-21
		c-13.5,0-24.4,11-24.4,24.4v30.7c0,13.5,11,24.4,24.4,24.4H108.8z"/>
	<path class="st1" d="M185.6,40.8v30.7c0,12.1-5.5,23-14.2,30.2c-6.4,5.3-14.4,8.7-23.2,9.2c-0.7,0-1.4,0.1-2.2,0.1h-31.4V95.9h31.4
		c0.7,0,1.4,0,2.2-0.1c12.5-1.1,22.3-11.6,22.3-24.4V40.8c0-12.7-9.8-23.3-22.3-24.3c-0.7-0.1-1.4-0.1-2.2-0.1H90.6V1.3h55.5
		c0.7,0,1.4,0,2.2,0.1c7.7,0.4,14.9,3.1,20.8,7.3c0.8,0.6,1.6,1.2,2.4,1.9c1,0.9,2,1.8,2.9,2.7C181.3,20.4,185.6,30.1,185.6,40.8z"
		/>
	<path class="st2" d="M170.5,71.5V56.1h-56.1v39.8h38.9c0.5,0,1,0,1.5-0.1C163.6,94.7,170.5,84.2,170.5,71.5z"/>
	<path class="st4" d="M142.1,59.4h-19.5c-1.3,0-2.4-1.1-2.4-2.4v-1.6c0-1.3,1.1-2.4,2.4-2.4h19.5c1.3,0,2.4,1.1,2.4,2.4V57
		C144.6,58.3,143.5,59.4,142.1,59.4z"/>
</g>
<g>
	<g>
		<path class="st5" d="M524.7,12.7v45.2h-21.1v-21l-35.3,35.3l-14.9-14.9L488.7,22h-20.5V0.9h44.7C519.4,0.9,524.7,6.2,524.7,12.7z"
			/>
		<g>
			<path class="st1" d="M589.2,41.2c-1.3-4.7-3.2-9-5.6-13.1c-2.4-4.1-5.2-7.8-8.6-11.1c-3.3-3.3-7-6.2-11.1-8.6
				c-4.1-2.4-8.4-4.3-13.1-5.6c-4.7-1.3-9.5-1.9-14.6-1.9h-1.5v22h1.5c4.5,0,8.8,0.9,12.8,2.6c4,1.7,7.5,4.1,10.5,7.1
				c3,3,5.3,6.5,7,10.4c1.7,4,2.6,8.2,2.6,12.8s-0.9,8.8-2.6,12.8c-1.7,4-4.1,7.5-7,10.5c-3,3-6.5,5.3-10.5,7
				c-4,1.7-8.3,2.6-12.8,2.6h-10.9V68h-22.1v42.7h33.1c5.1,0,9.9-0.7,14.6-2c4.7-1.3,9.1-3.2,13.1-5.5c4.1-2.4,7.8-5.3,11.1-8.6
				c3.3-3.3,6.2-7,8.6-11.1c2.4-4.1,4.3-8.4,5.6-13.1c1.3-4.7,1.9-9.5,1.9-14.6C591.2,50.7,590.5,45.9,589.2,41.2z"/>
		</g>
		<g>
			<path class="st6" d="M453,88.7c-4.5,0-8.8-0.9-12.8-2.6c-4-1.7-7.5-4.1-10.5-7c-3-3-5.3-6.5-7-10.5c-1.7-4-2.6-8.3-2.6-12.8
				s0.9-8.8,2.6-12.8c1.7-4,4.1-7.5,7-10.4c3-3,6.5-5.4,10.5-7.1c4-1.7,8.3-2.6,12.8-2.6h5v-22h-5c-5,0-9.9,0.6-14.6,1.9
				c-4.7,1.3-9,3.2-13.1,5.6c-4.1,2.4-7.8,5.3-11.1,8.6c-3.3,3.3-6.2,7-8.6,11.1c-2.4,4.1-4.2,8.4-5.5,13.1c-1.3,4.7-2,9.5-2,14.6
				c0,5,0.7,9.9,2,14.6c1.3,4.7,3.2,9,5.5,13.1c2.4,4.1,5.3,7.8,8.6,11.1c3.3,3.4,7,6.2,11.1,8.6c4.1,2.4,8.5,4.2,13.1,5.5
				c4.7,1.3,9.5,2,14.6,2h40.1v-22H453z"/>
		</g>
	</g>
	<g>
		<g>
			<path class="st0" d="M404.9,157.7c-1.2,1.1-2.6,1.9-4.1,2.4c-1.5,0.6-3.1,0.9-4.8,0.9c-1.3,0-2.5-0.2-3.6-0.5
				c-1.2-0.3-2.3-0.8-3.3-1.4c-1-0.6-1.9-1.3-2.8-2.2c-0.8-0.8-1.6-1.8-2.2-2.8c-0.6-1-1.1-2.1-1.4-3.3c-0.3-1.2-0.5-2.4-0.5-3.6
				c0-1.3,0.2-2.5,0.5-3.6c0.3-1.2,0.8-2.3,1.4-3.3c0.6-1,1.3-1.9,2.2-2.8c0.8-0.8,1.8-1.6,2.8-2.2c1-0.6,2.1-1.1,3.3-1.4
				c1.2-0.3,2.4-0.5,3.6-0.5c1.6,0,3.2,0.3,4.8,0.8c1.5,0.6,2.9,1.4,4.1,2.5l-2.8,4.6c-0.8-0.8-1.7-1.5-2.8-1.9
				c-1.1-0.4-2.2-0.7-3.3-0.7c-1.2,0-2.3,0.2-3.3,0.7c-1,0.4-1.9,1-2.7,1.8c-0.8,0.8-1.4,1.7-1.8,2.7c-0.4,1-0.7,2.1-0.7,3.3
				c0,1.2,0.2,2.2,0.7,3.3c0.4,1,1.1,1.9,1.8,2.7c0.8,0.8,1.7,1.4,2.7,1.8c1,0.4,2.1,0.7,3.3,0.7c1.2,0,2.3-0.2,3.3-0.7
				c1.1-0.5,2-1.1,2.8-1.9L404.9,157.7z"/>
			<path class="st0" d="M416.2,160.4h-5.3v-26.6h10.6c1,0,1.9,0.1,2.8,0.4c0.9,0.3,1.7,0.6,2.5,1.1c0.8,0.5,1.5,1,2.1,1.7
				c0.6,0.6,1.2,1.4,1.7,2.2c0.5,0.8,0.8,1.6,1.1,2.5c0.3,0.9,0.4,1.8,0.4,2.8c0,0.9-0.1,1.8-0.3,2.7c-0.2,0.9-0.6,1.7-1,2.5
				s-0.9,1.5-1.6,2.1c-0.6,0.7-1.3,1.2-2.1,1.7l2.9,6.9h-5.7l-2.3-5.4l-5.9,0V160.4z M416.2,139.1v10.6h5.3c0.7,0,1.4-0.1,2.1-0.4
				c0.6-0.3,1.2-0.7,1.7-1.1c0.5-0.5,0.9-1,1.1-1.7c0.3-0.6,0.4-1.3,0.4-2.1c0-0.7-0.1-1.4-0.4-2.1c-0.3-0.6-0.7-1.2-1.1-1.7
				s-1-0.9-1.7-1.1c-0.6-0.3-1.3-0.4-2.1-0.4H416.2z"/>
			<path class="st0" d="M464.8,160.4h-5.3v-19c0-0.4-0.1-0.7-0.2-1c-0.1-0.3-0.3-0.6-0.6-0.8c-0.2-0.2-0.5-0.4-0.8-0.6
				c-0.3-0.1-0.7-0.2-1-0.2s-0.7,0.1-1,0.2c-0.3,0.1-0.6,0.3-0.8,0.6c-0.2,0.2-0.4,0.5-0.6,0.8c-0.1,0.3-0.2,0.7-0.2,1v19h-5.3v-19
				c0-0.4-0.1-0.7-0.2-1c-0.1-0.3-0.3-0.6-0.6-0.8c-0.2-0.2-0.5-0.4-0.8-0.6c-0.3-0.1-0.7-0.2-1-0.2c-0.4,0-0.7,0.1-1,0.2
				c-0.3,0.1-0.6,0.3-0.8,0.6c-0.2,0.2-0.4,0.5-0.6,0.8c-0.1,0.3-0.2,0.7-0.2,1v19h-5.3v-19c0-1.1,0.2-2.1,0.6-3.1
				c0.4-1,1-1.8,1.7-2.5c0.7-0.7,1.6-1.3,2.5-1.7c1-0.4,2-0.6,3.1-0.6c1,0,1.9,0.2,2.9,0.5c0.9,0.4,1.7,0.9,2.5,1.5
				c0.7-0.7,1.5-1.2,2.5-1.5c0.9-0.3,1.9-0.5,2.8-0.5c1.1,0,2.1,0.2,3.1,0.6c1,0.4,1.8,1,2.5,1.7c0.7,0.7,1.3,1.6,1.7,2.5
				c0.4,1,0.6,2,0.6,3.1V160.4z"/>
			<path class="st0" d="M493.7,157.7c-1.2,1.1-2.6,1.9-4.1,2.4c-1.5,0.6-3.1,0.9-4.8,0.9c-1.3,0-2.5-0.2-3.6-0.5
				c-1.2-0.3-2.3-0.8-3.3-1.4c-1-0.6-1.9-1.3-2.8-2.2c-0.8-0.8-1.6-1.8-2.2-2.8c-0.6-1-1.1-2.1-1.4-3.3c-0.3-1.2-0.5-2.4-0.5-3.6
				c0-1.3,0.2-2.5,0.5-3.6c0.3-1.2,0.8-2.3,1.4-3.3c0.6-1,1.3-1.9,2.2-2.8c0.8-0.8,1.8-1.6,2.8-2.2c1-0.6,2.1-1.1,3.3-1.4
				c1.2-0.3,2.4-0.5,3.6-0.5c1.6,0,3.2,0.3,4.8,0.8c1.5,0.6,2.9,1.4,4.1,2.5l-2.8,4.6c-0.8-0.8-1.7-1.5-2.8-1.9
				c-1.1-0.4-2.2-0.7-3.3-0.7c-1.2,0-2.3,0.2-3.3,0.7c-1,0.4-1.9,1-2.7,1.8c-0.8,0.8-1.4,1.7-1.8,2.7c-0.4,1-0.7,2.1-0.7,3.3
				c0,1.2,0.2,2.2,0.7,3.3c0.4,1,1.1,1.9,1.8,2.7c0.8,0.8,1.7,1.4,2.7,1.8c1,0.4,2.1,0.7,3.3,0.7c1.2,0,2.3-0.2,3.3-0.7
				c1.1-0.5,2-1.1,2.8-1.9L493.7,157.7z"/>
			<path class="st1" d="M520.9,147.1c0,1.2-0.2,2.4-0.5,3.5c-0.3,1.1-0.8,2.2-1.3,3.2c-0.6,1-1.3,1.9-2.1,2.7
				c-0.8,0.8-1.7,1.5-2.7,2.1c-1,0.6-2,1-3.2,1.3c-1.1,0.3-2.3,0.5-3.5,0.5h-8v-26.6h8c1.2,0,2.4,0.2,3.5,0.5
				c1.1,0.3,2.2,0.8,3.2,1.3c1,0.6,1.9,1.3,2.7,2.1c0.8,0.8,1.5,1.7,2.1,2.7c0.6,1,1,2,1.3,3.2C520.7,144.7,520.9,145.9,520.9,147.1
				z M515.6,147.1c0-1.1-0.2-2.1-0.6-3.1c-0.4-1-1-1.8-1.7-2.5c-0.7-0.7-1.6-1.3-2.5-1.7c-1-0.4-2-0.6-3.1-0.6H505v15.9h2.6
				c1.1,0,2.1-0.2,3.1-0.6c1-0.4,1.8-1,2.5-1.7c0.7-0.7,1.3-1.6,1.7-2.5C515.4,149.2,515.6,148.2,515.6,147.1z"/>
			<path class="st1" d="M525.7,141.8c0-1.1,0.2-2.1,0.6-3.1c0.4-1,1-1.8,1.7-2.5s1.6-1.3,2.5-1.7c1-0.4,2-0.6,3.1-0.6h12.2v5.3
				h-12.2c-0.4,0-0.7,0.1-1,0.2c-0.3,0.1-0.6,0.3-0.8,0.6c-0.2,0.2-0.4,0.5-0.6,0.8c-0.1,0.3-0.2,0.7-0.2,1c0,0.4,0.1,0.7,0.2,1
				c0.1,0.3,0.3,0.6,0.6,0.9c0.2,0.2,0.5,0.4,0.8,0.6c0.3,0.1,0.7,0.2,1,0.2h5.3c1.1,0,2.1,0.2,3.1,0.6c1,0.4,1.8,1,2.5,1.7
				c0.7,0.7,1.3,1.6,1.7,2.5c0.4,1,0.6,2,0.6,3.1c0,1.1-0.2,2.1-0.6,3.1c-0.4,1-1,1.8-1.7,2.5c-0.7,0.7-1.6,1.3-2.5,1.7
				c-1,0.4-2,0.6-3.1,0.6h-11.8v-5.3H539c0.4,0,0.7-0.1,1-0.2c0.3-0.1,0.6-0.3,0.8-0.6c0.2-0.2,0.4-0.5,0.6-0.8
				c0.1-0.3,0.2-0.7,0.2-1c0-0.4-0.1-0.7-0.2-1c-0.1-0.3-0.3-0.6-0.6-0.8c-0.2-0.2-0.5-0.4-0.8-0.6c-0.3-0.1-0.7-0.2-1-0.2h-5.3
				c-1.1,0-2.1-0.2-3.1-0.6c-1-0.4-1.8-1-2.5-1.7c-0.7-0.7-1.3-1.6-1.7-2.5C526,143.9,525.7,142.9,525.7,141.8z"/>
			<path class="st1" d="M574.5,157.7c-1.2,1-2.6,1.9-4.1,2.4c-1.5,0.6-3.1,0.8-4.7,0.8c-1.3,0-2.5-0.2-3.6-0.5
				c-1.2-0.3-2.3-0.8-3.3-1.4c-1-0.6-1.9-1.3-2.8-2.2c-0.8-0.8-1.6-1.8-2.2-2.8c-0.6-1-1-2.1-1.4-3.3c-0.3-1.2-0.5-2.4-0.5-3.6
				c0-1.3,0.2-2.5,0.5-3.6c0.3-1.2,0.8-2.2,1.4-3.3c0.6-1,1.3-1.9,2.2-2.8c0.8-0.8,1.8-1.6,2.8-2.1c1-0.6,2.1-1.1,3.3-1.4
				c1.2-0.3,2.4-0.5,3.6-0.5c1.6,0,3.2,0.3,4.7,0.8c1.5,0.6,2.9,1.4,4.1,2.4l-2.8,4.6c-0.8-0.8-1.7-1.5-2.8-1.9
				c-1.1-0.5-2.2-0.7-3.3-0.7c-1.2,0-2.2,0.2-3.3,0.7c-1,0.4-1.9,1-2.7,1.8c-0.8,0.8-1.4,1.6-1.8,2.7c-0.4,1-0.7,2.1-0.7,3.3
				c0,1.2,0.2,2.3,0.7,3.3c0.4,1,1.1,1.9,1.8,2.7c0.8,0.8,1.7,1.4,2.7,1.8c1,0.4,2.1,0.7,3.3,0.7c0.7,0,1.3-0.1,1.9-0.2
				c0.6-0.2,1.2-0.4,1.8-0.7v-7.6h5.1V157.7z"/>
			<path class="st1" d="M602.7,160.4H597l-10.2-17.5v17.5h-5.3v-26.6h5.7l10.2,17.5v-17.5h5.3V160.4z"/>
		</g>
	</g>
	<g>
		<path class="st2" d="M385.4,185.3v-17.1h4.8c1.5,0,2.8,0.3,4,1c1.1,0.7,2,1.6,2.6,2.8c0.6,1.2,0.9,2.6,1,4.2v1.1
			c0,1.6-0.3,3-0.9,4.2c-0.6,1.2-1.5,2.2-2.7,2.8c-1.2,0.6-2.5,1-4,1H385.4z M387.7,170v13.4h2.4c1.7,0,3.1-0.5,4.1-1.6
			c1-1.1,1.4-2.6,1.4-4.6v-1c0-1.9-0.5-3.5-1.4-4.5c-0.9-1.1-2.2-1.6-3.9-1.6H387.7z"/>
		<path class="st2" d="M408,185.5c-1.7,0-3.1-0.6-4.2-1.7c-1.1-1.1-1.6-2.6-1.6-4.5v-0.4c0-1.3,0.2-2.4,0.7-3.4c0.5-1,1.2-1.8,2-2.3
			c0.9-0.6,1.8-0.8,2.8-0.8c1.7,0,2.9,0.5,3.9,1.6c0.9,1.1,1.4,2.7,1.4,4.7v0.9h-8.6c0,1.3,0.4,2.3,1.1,3c0.7,0.8,1.6,1.2,2.7,1.2
			c0.8,0,1.4-0.2,2-0.5c0.5-0.3,1-0.7,1.4-1.3l1.3,1C411.8,184.7,410.1,185.5,408,185.5z M407.7,174.1c-0.9,0-1.6,0.3-2.2,1
			c-0.6,0.6-1,1.5-1.1,2.7h6.4v-0.2c-0.1-1.1-0.4-2-0.9-2.6S408.7,174.1,407.7,174.1z"/>
		<path class="st2" d="M424.8,181.9c0-0.6-0.2-1-0.7-1.4c-0.4-0.3-1.2-0.6-2.3-0.8c-1.1-0.2-2-0.5-2.6-0.8c-0.6-0.3-1.1-0.7-1.4-1.2
			c-0.3-0.5-0.5-1-0.5-1.6c0-1,0.4-1.9,1.3-2.6c0.9-0.7,2-1.1,3.4-1.1c1.4,0,2.6,0.4,3.5,1.1c0.9,0.7,1.3,1.7,1.3,2.9h-2.2
			c0-0.6-0.3-1.1-0.8-1.5c-0.5-0.4-1.2-0.6-1.9-0.6c-0.8,0-1.4,0.2-1.9,0.5c-0.4,0.3-0.7,0.8-0.7,1.4c0,0.5,0.2,0.9,0.6,1.2
			c0.4,0.3,1.2,0.5,2.3,0.8c1.1,0.2,2,0.5,2.6,0.9c0.7,0.3,1.2,0.7,1.5,1.2c0.3,0.5,0.5,1.1,0.5,1.7c0,1.1-0.5,2.1-1.4,2.7
			c-0.9,0.7-2.1,1-3.5,1c-1,0-1.9-0.2-2.7-0.5c-0.8-0.4-1.4-0.9-1.8-1.5c-0.4-0.6-0.7-1.3-0.7-2.1h2.2c0,0.7,0.3,1.3,0.9,1.7
			c0.5,0.4,1.3,0.6,2.2,0.6c0.8,0,1.5-0.2,2-0.5C424.5,182.9,424.8,182.5,424.8,181.9z"/>
		<path class="st2" d="M431.6,169.2c0-0.3,0.1-0.6,0.3-0.9c0.2-0.2,0.5-0.4,1-0.4s0.7,0.1,1,0.4c0.2,0.2,0.3,0.5,0.3,0.9
			c0,0.4-0.1,0.6-0.3,0.9c-0.2,0.2-0.5,0.4-1,0.4s-0.7-0.1-1-0.4C431.7,169.8,431.6,169.5,431.6,169.2z M434,185.3h-2.2v-12.7h2.2
			V185.3z"/>
		<path class="st2" d="M438.8,178.8c0-2,0.5-3.6,1.4-4.7c0.9-1.2,2.1-1.8,3.7-1.8c1.5,0,2.8,0.6,3.6,1.6l0.1-1.4h2V185
			c0,1.6-0.5,2.9-1.5,3.9c-1,0.9-2.3,1.4-3.9,1.4c-0.9,0-1.8-0.2-2.7-0.6c-0.9-0.4-1.5-0.9-2-1.6l1.1-1.3c0.9,1.2,2.1,1.7,3.4,1.7
			c1.1,0,1.9-0.3,2.5-0.9c0.6-0.6,0.9-1.4,0.9-2.5V184c-0.9,1-2.1,1.5-3.6,1.5c-1.5,0-2.7-0.6-3.6-1.8
			C439.2,182.5,438.8,180.9,438.8,178.8z M441,179.1c0,1.4,0.3,2.6,0.9,3.4c0.6,0.8,1.4,1.2,2.5,1.2c1.4,0,2.4-0.6,3-1.9V176
			c-0.7-1.2-1.7-1.8-3-1.8c-1.1,0-1.9,0.4-2.5,1.2C441.3,176.2,441,177.5,441,179.1z"/>
		<path class="st2" d="M456.7,172.6l0.1,1.6c1-1.2,2.2-1.8,3.8-1.8c2.7,0,4.1,1.5,4.1,4.6v8.4h-2.2v-8.4c0-0.9-0.2-1.6-0.6-2
			c-0.4-0.4-1.1-0.7-1.9-0.7c-0.7,0-1.3,0.2-1.9,0.6c-0.5,0.4-0.9,0.9-1.2,1.5v9.1h-2.2v-12.7H456.7z"/>
		<path class="st2" d="M477.2,181.9c0-0.6-0.2-1-0.7-1.4c-0.4-0.3-1.2-0.6-2.3-0.8c-1.1-0.2-2-0.5-2.6-0.8s-1.1-0.7-1.4-1.2
			c-0.3-0.5-0.5-1-0.5-1.6c0-1,0.4-1.9,1.3-2.6c0.9-0.7,2-1.1,3.4-1.1c1.4,0,2.6,0.4,3.5,1.1c0.9,0.7,1.3,1.7,1.3,2.9h-2.2
			c0-0.6-0.3-1.1-0.8-1.5c-0.5-0.4-1.2-0.6-1.9-0.6c-0.8,0-1.4,0.2-1.9,0.5c-0.4,0.3-0.7,0.8-0.7,1.4c0,0.5,0.2,0.9,0.6,1.2
			c0.4,0.3,1.2,0.5,2.3,0.8c1.1,0.2,2,0.5,2.6,0.9c0.7,0.3,1.2,0.7,1.5,1.2c0.3,0.5,0.5,1.1,0.5,1.7c0,1.1-0.5,2.1-1.4,2.7
			c-0.9,0.7-2.1,1-3.5,1c-1,0-1.9-0.2-2.7-0.5c-0.8-0.4-1.4-0.9-1.8-1.5c-0.4-0.6-0.7-1.3-0.7-2.1h2.2c0,0.7,0.3,1.3,0.9,1.7
			s1.3,0.6,2.2,0.6c0.8,0,1.5-0.2,2-0.5C477,182.9,477.2,182.5,477.2,181.9z"/>
		<path class="st2" d="M494.8,169.5v3.1h2.4v1.7h-2.4v7.9c0,0.5,0.1,0.9,0.3,1.1c0.2,0.3,0.6,0.4,1.1,0.4c0.2,0,0.6,0,1-0.1v1.8
			c-0.6,0.2-1.1,0.2-1.7,0.2c-1,0-1.7-0.3-2.2-0.9c-0.5-0.6-0.7-1.4-0.7-2.5v-7.9h-2.3v-1.7h2.3v-3.1H494.8z"/>
		<path class="st2" d="M503.8,174.1c1-1.2,2.2-1.8,3.8-1.8c2.7,0,4.1,1.5,4.1,4.6v8.4h-2.2v-8.4c0-0.9-0.2-1.6-0.6-2
			c-0.4-0.4-1.1-0.7-1.9-0.7c-0.7,0-1.3,0.2-1.9,0.6c-0.5,0.4-0.9,0.9-1.2,1.5v9.1h-2.2v-18.1h2.2V174.1z"/>
		<path class="st2" d="M524.6,185.3c-0.1-0.3-0.2-0.7-0.3-1.3c-1,1.1-2.2,1.6-3.6,1.6c-1.3,0-2.3-0.4-3.1-1.1
			c-0.8-0.7-1.2-1.6-1.2-2.7c0-1.3,0.5-2.4,1.5-3.1c1-0.7,2.4-1.1,4.3-1.1h2.1v-1c0-0.8-0.2-1.4-0.7-1.8c-0.5-0.5-1.1-0.7-2-0.7
			c-0.8,0-1.4,0.2-2,0.6c-0.5,0.4-0.8,0.9-0.8,1.4h-2.2c0-0.6,0.2-1.2,0.7-1.8c0.5-0.6,1.1-1.1,1.8-1.4c0.8-0.3,1.6-0.5,2.6-0.5
			c1.5,0,2.6,0.4,3.4,1.1c0.8,0.7,1.3,1.7,1.3,3v5.9c0,1.2,0.1,2.1,0.4,2.8v0.2H524.6z M520.9,183.7c0.7,0,1.3-0.2,1.9-0.5
			c0.6-0.4,1.1-0.8,1.3-1.4v-2.6h-1.7c-2.7,0-4,0.8-4,2.3c0,0.7,0.2,1.2,0.7,1.6C519.6,183.5,520.2,183.7,520.9,183.7z"/>
		<path class="st2" d="M534.6,169.5v3.1h2.4v1.7h-2.4v7.9c0,0.5,0.1,0.9,0.3,1.1c0.2,0.3,0.6,0.4,1.1,0.4c0.2,0,0.6,0,1-0.1v1.8
			c-0.6,0.2-1.1,0.2-1.7,0.2c-1,0-1.7-0.3-2.2-0.9c-0.5-0.6-0.7-1.4-0.7-2.5v-7.9h-2.3v-1.7h2.3v-3.1H534.6z"/>
		<path class="st2" d="M554.3,183.8c0.8,0,1.4-0.2,2-0.7c0.6-0.5,0.9-1.1,1-1.8h2.1c0,0.7-0.3,1.4-0.8,2.1s-1.1,1.2-1.9,1.6
			c-0.8,0.4-1.6,0.6-2.5,0.6c-1.7,0-3.1-0.6-4.1-1.7c-1-1.2-1.5-2.7-1.5-4.8v-0.4c0-1.2,0.2-2.3,0.7-3.3c0.5-1,1.1-1.7,2-2.2
			c0.8-0.5,1.9-0.8,3-0.8c1.4,0,2.6,0.4,3.6,1.3c0.9,0.9,1.4,2,1.5,3.3h-2.1c-0.1-0.8-0.4-1.5-0.9-2s-1.3-0.8-2.1-0.8
			c-1.1,0-2,0.4-2.6,1.2c-0.6,0.8-0.9,1.9-0.9,3.5v0.4c0,1.5,0.3,2.6,0.9,3.4C552.3,183.4,553.1,183.8,554.3,183.8z"/>
		<path class="st2" d="M566,185.3h-2.2v-18.1h2.2V185.3z"/>
		<path class="st2" d="M571.3,169.2c0-0.3,0.1-0.6,0.3-0.9c0.2-0.2,0.5-0.4,1-0.4c0.4,0,0.7,0.1,1,0.4c0.2,0.2,0.3,0.5,0.3,0.9
			c0,0.4-0.1,0.6-0.3,0.9c-0.2,0.2-0.5,0.4-1,0.4c-0.4,0-0.7-0.1-1-0.4C571.4,169.8,571.3,169.5,571.3,169.2z M573.7,185.3h-2.2
			v-12.7h2.2V185.3z"/>
		<path class="st2" d="M584.1,183.8c0.8,0,1.4-0.2,2-0.7c0.6-0.5,0.9-1.1,1-1.8h2.1c0,0.7-0.3,1.4-0.8,2.1c-0.5,0.7-1.1,1.2-1.9,1.6
			c-0.8,0.4-1.6,0.6-2.5,0.6c-1.7,0-3.1-0.6-4.1-1.7s-1.5-2.7-1.5-4.8v-0.4c0-1.2,0.2-2.3,0.7-3.3c0.5-1,1.1-1.7,2-2.2
			c0.8-0.5,1.9-0.8,3-0.8c1.4,0,2.6,0.4,3.6,1.3c0.9,0.9,1.4,2,1.5,3.3h-2.1c-0.1-0.8-0.4-1.5-0.9-2s-1.3-0.8-2.1-0.8
			c-1.1,0-2,0.4-2.6,1.2c-0.6,0.8-0.9,1.9-0.9,3.5v0.4c0,1.5,0.3,2.6,0.9,3.4C582.1,183.4,583,183.8,584.1,183.8z"/>
		<path class="st2" d="M597,179.4l-1.4,1.4v4.5h-2.2v-18.1h2.2v10.9l1.2-1.4l4-4.2h2.6l-5,5.3l5.5,7.4h-2.6L597,179.4z"/>
	</g>
</g>
<g>
	<g>
		<g>
			<path class="st7" d="M801.9,160.3c-1.1,1-2.3,1.7-3.7,2.2c-1.4,0.5-2.8,0.8-4.3,0.8c-1.1,0-2.2-0.1-3.3-0.4c-1-0.3-2-0.7-2.9-1.2
				s-1.7-1.2-2.5-1.9c-0.8-0.7-1.4-1.6-1.9-2.5c-0.5-0.9-0.9-1.9-1.2-2.9c-0.3-1-0.4-2.1-0.4-3.3c0-1.1,0.1-2.2,0.4-3.3
				c0.3-1,0.7-2,1.2-2.9c0.5-0.9,1.2-1.7,1.9-2.5c0.7-0.8,1.6-1.4,2.5-1.9c0.9-0.5,1.9-1,2.9-1.2c1-0.3,2.1-0.4,3.3-0.4
				c1.5,0,2.9,0.3,4.3,0.8c1.4,0.5,2.6,1.2,3.7,2.2l-2.5,4.1c-0.7-0.8-1.5-1.3-2.5-1.7c-1-0.4-1.9-0.6-3-0.6c-1.1,0-2,0.2-3,0.6
				c-0.9,0.4-1.7,0.9-2.4,1.6s-1.2,1.5-1.6,2.4c-0.4,0.9-0.6,1.9-0.6,2.9s0.2,2,0.6,2.9c0.4,0.9,0.9,1.7,1.6,2.4s1.5,1.2,2.4,1.6
				c0.9,0.4,1.9,0.6,3,0.6c1,0,2-0.2,3-0.6c0.9-0.4,1.8-1,2.5-1.7L801.9,160.3z"/>
			<path class="st7" d="M812,162.7h-4.8v-23.8h9.5c0.9,0,1.7,0.1,2.5,0.3s1.6,0.5,2.3,1c0.7,0.4,1.3,0.9,1.9,1.5
				c0.6,0.6,1.1,1.2,1.5,1.9s0.7,1.5,1,2.3c0.2,0.8,0.3,1.6,0.3,2.5c0,0.8-0.1,1.6-0.3,2.4c-0.2,0.8-0.5,1.5-0.9,2.2
				c-0.4,0.7-0.8,1.3-1.4,1.9c-0.6,0.6-1.2,1.1-1.9,1.5l2.6,6.2h-5.1l-2.1-4.8l-5.3,0V162.7z M812,143.7v9.5h4.8
				c0.7,0,1.3-0.1,1.8-0.4c0.6-0.3,1.1-0.6,1.5-1c0.4-0.4,0.8-0.9,1-1.5c0.2-0.6,0.4-1.2,0.4-1.9c0-0.6-0.1-1.3-0.4-1.8
				s-0.6-1.1-1-1.5c-0.4-0.4-0.9-0.8-1.5-1c-0.6-0.2-1.2-0.4-1.8-0.4H812z"/>
			<path class="st7" d="M855.6,162.7h-4.7v-17c0-0.3-0.1-0.6-0.2-0.9c-0.1-0.3-0.3-0.5-0.5-0.8c-0.2-0.2-0.5-0.4-0.8-0.5
				c-0.3-0.1-0.6-0.2-0.9-0.2c-0.3,0-0.6,0.1-0.9,0.2c-0.3,0.1-0.5,0.3-0.8,0.5s-0.4,0.5-0.5,0.8c-0.1,0.3-0.2,0.6-0.2,0.9v17h-4.8
				v-17c0-0.3-0.1-0.6-0.2-0.9c-0.1-0.3-0.3-0.5-0.5-0.8c-0.2-0.2-0.5-0.4-0.8-0.5c-0.3-0.1-0.6-0.2-0.9-0.2c-0.3,0-0.6,0.1-0.9,0.2
				c-0.3,0.1-0.5,0.3-0.8,0.5s-0.4,0.5-0.5,0.8c-0.1,0.3-0.2,0.6-0.2,0.9v17h-4.8v-17c0-1,0.2-1.9,0.6-2.8c0.4-0.9,0.9-1.6,1.5-2.3
				c0.6-0.6,1.4-1.2,2.3-1.5c0.9-0.4,1.8-0.6,2.8-0.6c0.9,0,1.7,0.2,2.6,0.5c0.8,0.3,1.6,0.8,2.2,1.4c0.6-0.6,1.4-1.1,2.2-1.4
				c0.8-0.3,1.7-0.5,2.6-0.5c1,0,1.9,0.2,2.8,0.6c0.9,0.4,1.6,0.9,2.3,1.5c0.6,0.6,1.2,1.4,1.5,2.3c0.4,0.9,0.6,1.8,0.6,2.8V162.7z"
				/>
			<path class="st7" d="M881.4,160.3c-1.1,1-2.3,1.7-3.7,2.2c-1.4,0.5-2.8,0.8-4.3,0.8c-1.1,0-2.2-0.1-3.3-0.4c-1-0.3-2-0.7-2.9-1.2
				c-0.9-0.5-1.7-1.2-2.5-1.9c-0.8-0.7-1.4-1.6-1.9-2.5c-0.5-0.9-0.9-1.9-1.2-2.9c-0.3-1-0.4-2.1-0.4-3.3c0-1.1,0.1-2.2,0.4-3.3
				c0.3-1,0.7-2,1.2-2.9c0.5-0.9,1.2-1.7,1.9-2.5c0.7-0.8,1.6-1.4,2.5-1.9c0.9-0.5,1.9-1,2.9-1.2c1-0.3,2.1-0.4,3.3-0.4
				c1.5,0,2.9,0.3,4.3,0.8c1.4,0.5,2.6,1.2,3.7,2.2l-2.5,4.1c-0.7-0.8-1.5-1.3-2.5-1.7c-1-0.4-1.9-0.6-3-0.6c-1.1,0-2,0.2-3,0.6
				c-0.9,0.4-1.7,0.9-2.4,1.6s-1.2,1.5-1.6,2.4c-0.4,0.9-0.6,1.9-0.6,2.9s0.2,2,0.6,2.9c0.4,0.9,0.9,1.7,1.6,2.4s1.5,1.2,2.4,1.6
				s1.9,0.6,3,0.6c1,0,2-0.2,3-0.6c0.9-0.4,1.8-1,2.5-1.7L881.4,160.3z"/>
			<path class="st7" d="M917.8,150.8c0,1.1-0.1,2.1-0.4,3.2c-0.3,1-0.7,2-1.2,2.8c-0.5,0.9-1.1,1.7-1.9,2.4
				c-0.7,0.7-1.5,1.3-2.4,1.9c-0.9,0.5-1.8,0.9-2.8,1.2s-2.1,0.4-3.2,0.4h-7.2v-23.8h7.2c1.1,0,2.1,0.1,3.2,0.4s2,0.7,2.8,1.2
				c0.9,0.5,1.7,1.1,2.4,1.9s1.3,1.5,1.9,2.4c0.5,0.9,0.9,1.8,1.2,2.8C917.7,148.7,917.8,149.7,917.8,150.8z M913.1,150.8
				c0-1-0.2-1.9-0.6-2.8c-0.4-0.9-0.9-1.6-1.5-2.3c-0.6-0.6-1.4-1.2-2.3-1.5c-0.9-0.4-1.8-0.6-2.8-0.6h-2.4V158h2.4
				c1,0,1.9-0.2,2.8-0.6c0.9-0.4,1.6-0.9,2.3-1.5c0.6-0.6,1.2-1.4,1.5-2.3C912.9,152.7,913.1,151.8,913.1,150.8z"/>
			<path class="st7" d="M922.2,146.1c0-1,0.2-1.9,0.6-2.8c0.4-0.9,0.9-1.6,1.5-2.3c0.6-0.6,1.4-1.2,2.3-1.5c0.9-0.4,1.8-0.6,2.8-0.6
				h10.9v4.8h-10.9c-0.3,0-0.6,0.1-0.9,0.2c-0.3,0.1-0.5,0.3-0.7,0.5c-0.2,0.2-0.4,0.5-0.5,0.8c-0.1,0.3-0.2,0.6-0.2,0.9
				c0,0.3,0.1,0.6,0.2,0.9c0.1,0.3,0.3,0.6,0.5,0.8c0.2,0.2,0.5,0.4,0.7,0.5s0.6,0.2,0.9,0.2h4.8c1,0,1.9,0.2,2.8,0.6
				c0.9,0.4,1.6,0.9,2.3,1.5c0.6,0.6,1.2,1.4,1.5,2.3c0.4,0.9,0.6,1.8,0.6,2.8s-0.2,1.9-0.6,2.8c-0.4,0.9-0.9,1.6-1.5,2.3
				c-0.6,0.6-1.4,1.2-2.3,1.5c-0.9,0.4-1.8,0.6-2.8,0.6h-10.6V158h10.6c0.3,0,0.6-0.1,0.9-0.2c0.3-0.1,0.5-0.3,0.8-0.5
				c0.2-0.2,0.4-0.5,0.5-0.8c0.1-0.3,0.2-0.6,0.2-0.9s-0.1-0.6-0.2-0.9c-0.1-0.3-0.3-0.5-0.5-0.8c-0.2-0.2-0.5-0.4-0.8-0.5
				c-0.3-0.1-0.6-0.2-0.9-0.2h-4.8c-1,0-1.9-0.2-2.8-0.6c-0.9-0.4-1.6-0.9-2.3-1.5c-0.6-0.6-1.2-1.4-1.5-2.3
				S922.2,147.1,922.2,146.1z"/>
			<path class="st7" d="M965.8,160.3c-1.1,0.9-2.3,1.7-3.7,2.2c-1.4,0.5-2.8,0.8-4.2,0.8c-1.1,0-2.2-0.1-3.3-0.4
				c-1-0.3-2-0.7-2.9-1.2c-0.9-0.5-1.7-1.2-2.5-1.9c-0.7-0.7-1.4-1.6-1.9-2.5c-0.5-0.9-0.9-1.9-1.2-2.9c-0.3-1-0.4-2.1-0.4-3.3
				c0-1.1,0.1-2.2,0.4-3.2c0.3-1,0.7-2,1.2-2.9c0.5-0.9,1.2-1.7,1.9-2.5c0.7-0.7,1.6-1.4,2.5-1.9c0.9-0.5,1.9-0.9,2.9-1.2
				c1-0.3,2.1-0.4,3.3-0.4c1.5,0,2.9,0.3,4.2,0.8c1.4,0.5,2.6,1.2,3.7,2.2l-2.5,4.1c-0.7-0.7-1.5-1.3-2.5-1.7
				c-0.9-0.4-1.9-0.6-3-0.6c-1,0-2,0.2-2.9,0.6c-0.9,0.4-1.7,0.9-2.4,1.6s-1.2,1.5-1.6,2.4c-0.4,0.9-0.6,1.9-0.6,2.9
				c0,1,0.2,2,0.6,2.9c0.4,0.9,0.9,1.7,1.6,2.4c0.7,0.7,1.5,1.2,2.4,1.6c0.9,0.4,1.9,0.6,2.9,0.6c0.6,0,1.2-0.1,1.7-0.2
				c0.6-0.1,1.1-0.3,1.6-0.6v-6.8h4.6V160.3z"/>
			<path class="st7" d="M991.1,162.7H986l-9.2-15.7v15.7H972v-23.8h5.1l9.2,15.7v-15.7h4.8V162.7z"/>
		</g>
	</g>
	<g>
		<path class="st8" d="M820.2,185.4c-0.3,0.4-0.7,0.7-1.1,1c-0.4,0.2-0.9,0.3-1.5,0.3c-1.1,0-2-0.4-2.6-1.2c-0.6-0.8-1-1.9-1-3.2
			V182c0-1.5,0.3-2.7,1-3.6c0.6-0.9,1.5-1.4,2.7-1.4c0.6,0,1,0.1,1.5,0.3c0.4,0.2,0.8,0.5,1.1,0.9v-3.8l-1.4-0.2v-1.1h1.4h1.7v12.1
			l1.4,0.2v1.1h-2.9L820.2,185.4z M815.6,182.2c0,0.9,0.2,1.7,0.6,2.2c0.4,0.6,1,0.9,1.8,0.9c0.5,0,0.9-0.1,1.3-0.3
			c0.3-0.2,0.6-0.6,0.8-1v-4.3c-0.2-0.4-0.5-0.7-0.8-0.9c-0.4-0.2-0.8-0.3-1.3-0.3c-0.8,0-1.4,0.3-1.8,1c-0.4,0.7-0.6,1.5-0.6,2.6
			V182.2z"/>
		<path class="st8" d="M828.7,186.7c-1.3,0-2.3-0.4-3.1-1.3c-0.8-0.9-1.2-2-1.2-3.3v-0.4c0-1.3,0.4-2.4,1.2-3.3
			c0.8-0.9,1.7-1.3,2.8-1.3c1.2,0,2.2,0.4,2.8,1.1c0.6,0.8,1,1.8,1,3v1.1h-6l0,0c0,0.9,0.2,1.6,0.7,2.2c0.4,0.6,1,0.9,1.8,0.9
			c0.6,0,1.1-0.1,1.5-0.2c0.4-0.2,0.8-0.4,1.1-0.7l0.7,1.1c-0.3,0.3-0.8,0.6-1.3,0.8C830.1,186.5,829.5,186.7,828.7,186.7z
			 M828.4,178.3c-0.6,0-1.1,0.2-1.4,0.7c-0.4,0.5-0.6,1.1-0.7,1.8l0,0h4.3v-0.2c0-0.7-0.2-1.2-0.5-1.7
			C829.7,178.6,829.1,178.3,828.4,178.3z"/>
		<path class="st8" d="M841,180.1h-1.3l-0.3-1.1c-0.2-0.2-0.5-0.3-0.8-0.5c-0.3-0.1-0.7-0.2-1.1-0.2c-0.6,0-1.1,0.1-1.3,0.4
			c-0.3,0.3-0.4,0.6-0.4,1c0,0.4,0.1,0.7,0.4,0.9c0.3,0.2,0.8,0.4,1.6,0.6c1.2,0.3,2,0.6,2.6,1c0.6,0.4,0.9,1,0.9,1.7
			c0,0.8-0.3,1.5-1,2c-0.7,0.5-1.5,0.8-2.6,0.8c-0.7,0-1.3-0.1-1.9-0.2c-0.6-0.2-1.1-0.4-1.5-0.7l0-2.1h1.3l0.3,1.2
			c0.2,0.2,0.5,0.3,0.8,0.4c0.3,0.1,0.7,0.1,1,0.1c0.6,0,1.1-0.1,1.4-0.4c0.3-0.2,0.5-0.6,0.5-1c0-0.4-0.1-0.7-0.4-0.9
			c-0.3-0.2-0.8-0.5-1.6-0.6c-1.1-0.2-2-0.6-2.6-1c-0.6-0.4-0.9-1-0.9-1.7c0-0.8,0.3-1.4,1-1.9c0.6-0.5,1.5-0.8,2.5-0.8
			c0.7,0,1.3,0.1,1.9,0.3s1,0.4,1.4,0.8L841,180.1z"/>
		<path class="st8" d="M842.8,185.4l1.4-0.2v-6.6l-1.4-0.2v-1.1h3.1v8l1.4,0.2v1.1h-4.5V185.4z M845.9,174.8h-1.7v-1.7h1.7V174.8z"
			/>
		<path class="st8" d="M848.6,182c0-1.5,0.3-2.7,1-3.6c0.6-0.9,1.5-1.4,2.7-1.4c0.6,0,1.1,0.1,1.5,0.3c0.4,0.2,0.8,0.6,1.1,1
			l0.2-1.2h1.4v9.2c0,1.2-0.3,2.1-1,2.8c-0.7,0.7-1.6,1-2.9,1c-0.5,0-0.9-0.1-1.5-0.2c-0.5-0.1-1-0.3-1.4-0.5l0.4-1.3
			c0.3,0.2,0.7,0.3,1.1,0.4c0.4,0.1,0.8,0.2,1.3,0.2c0.8,0,1.3-0.2,1.7-0.6c0.3-0.4,0.5-1,0.5-1.8v-0.9c-0.3,0.4-0.7,0.7-1.1,0.9
			c-0.4,0.2-0.9,0.3-1.5,0.3c-1.1,0-2-0.4-2.7-1.2c-0.6-0.8-1-1.9-1-3.2V182z M850.3,182.2c0,0.9,0.2,1.7,0.6,2.2
			c0.4,0.6,1,0.9,1.8,0.9c0.5,0,0.9-0.1,1.3-0.3c0.3-0.2,0.6-0.6,0.8-1v-4.3c-0.2-0.4-0.5-0.7-0.8-0.9c-0.4-0.2-0.8-0.3-1.3-0.3
			c-0.8,0-1.4,0.3-1.8,1c-0.4,0.7-0.6,1.5-0.6,2.6V182.2z"/>
		<path class="st8" d="M858.3,185.4l1.4-0.2v-6.6l-1.4-0.2v-1.1h2.9l0.1,1.4c0.3-0.5,0.7-0.9,1.2-1.1c0.5-0.3,1-0.4,1.6-0.4
			c1,0,1.8,0.3,2.3,0.9c0.6,0.6,0.8,1.5,0.8,2.7v4.5l1.4,0.2v1.1h-4.5v-1.1l1.4-0.2v-4.5c0-0.8-0.2-1.4-0.5-1.7
			c-0.3-0.3-0.8-0.5-1.5-0.5c-0.5,0-0.9,0.1-1.3,0.3c-0.4,0.2-0.7,0.6-0.9,1v5.4l1.4,0.2v1.1h-4.5V185.4z"/>
		<path class="st8" d="M877,180.1h-1.3l-0.3-1.1c-0.2-0.2-0.5-0.3-0.8-0.5c-0.3-0.1-0.7-0.2-1.1-0.2c-0.6,0-1.1,0.1-1.3,0.4
			c-0.3,0.3-0.4,0.6-0.4,1c0,0.4,0.1,0.7,0.4,0.9c0.3,0.2,0.8,0.4,1.6,0.6c1.2,0.3,2,0.6,2.6,1c0.6,0.4,0.9,1,0.9,1.7
			c0,0.8-0.3,1.5-1,2c-0.7,0.5-1.5,0.8-2.6,0.8c-0.7,0-1.3-0.1-1.9-0.2c-0.6-0.2-1.1-0.4-1.5-0.7l0-2.1h1.3l0.3,1.2
			c0.2,0.2,0.5,0.3,0.8,0.4c0.3,0.1,0.7,0.1,1,0.1c0.6,0,1.1-0.1,1.4-0.4c0.3-0.2,0.5-0.6,0.5-1c0-0.4-0.1-0.7-0.4-0.9
			c-0.3-0.2-0.8-0.5-1.6-0.6c-1.1-0.2-2-0.6-2.6-1c-0.6-0.4-0.9-1-0.9-1.7c0-0.8,0.3-1.4,1-1.9c0.6-0.5,1.5-0.8,2.5-0.8
			c0.7,0,1.3,0.1,1.9,0.3s1,0.4,1.4,0.8L877,180.1z"/>
		<path class="st8" d="M886.1,175v2.2h1.8v1.3h-1.8v5.6c0,0.4,0.1,0.7,0.3,0.9c0.2,0.2,0.4,0.3,0.7,0.3c0.1,0,0.3,0,0.5,0
			c0.2,0,0.3-0.1,0.5-0.1l0.2,1.2c-0.2,0.1-0.4,0.2-0.7,0.3c-0.3,0.1-0.6,0.1-0.9,0.1c-0.7,0-1.2-0.2-1.6-0.6
			c-0.4-0.4-0.6-1.1-0.6-1.9v-5.6H883v-1.3h1.5V175H886.1z"/>
		<path class="st8" d="M889.4,185.4l1.4-0.2v-10.7l-1.4-0.2v-1.1h3.1v5.3c0.3-0.4,0.7-0.8,1.2-1c0.5-0.2,1-0.4,1.5-0.4
			c1,0,1.8,0.3,2.3,0.9c0.6,0.6,0.8,1.5,0.8,2.7v4.5l1.4,0.2v1.1h-4.5v-1.1l1.4-0.2v-4.5c0-0.8-0.2-1.3-0.5-1.7
			c-0.3-0.4-0.8-0.5-1.5-0.5c-0.5,0-0.9,0.1-1.3,0.3c-0.4,0.2-0.7,0.5-0.9,0.9v5.5l1.4,0.2v1.1h-4.5V185.4z"/>
		<path class="st8" d="M907,186.5c-0.1-0.3-0.1-0.5-0.1-0.7c0-0.2,0-0.4-0.1-0.6c-0.3,0.4-0.7,0.8-1.2,1c-0.5,0.3-1,0.4-1.6,0.4
			c-1,0-1.7-0.2-2.2-0.7c-0.5-0.5-0.7-1.1-0.7-2c0-0.9,0.4-1.6,1.1-2c0.7-0.5,1.7-0.7,2.9-0.7h1.7v-1.1c0-0.5-0.2-1-0.5-1.3
			c-0.3-0.3-0.8-0.5-1.4-0.5c-0.4,0-0.8,0.1-1.1,0.2c-0.3,0.1-0.6,0.3-0.8,0.4l-0.2,1h-1.3v-1.8c0.4-0.3,0.9-0.6,1.5-0.8
			s1.3-0.3,2-0.3c1.1,0,1.9,0.3,2.6,0.8c0.6,0.5,1,1.3,1,2.3v4.5c0,0.1,0,0.2,0,0.4c0,0.1,0,0.2,0,0.3l0.7,0.1v1.1H907z
			 M904.3,185.2c0.6,0,1.1-0.1,1.5-0.4c0.5-0.3,0.8-0.6,1-1v-1.5H905c-0.7,0-1.2,0.2-1.6,0.5s-0.6,0.7-0.6,1.2
			c0,0.4,0.1,0.7,0.4,0.9C903.4,185.1,903.8,185.2,904.3,185.2z"/>
		<path class="st8" d="M913.6,175v2.2h1.8v1.3h-1.8v5.6c0,0.4,0.1,0.7,0.3,0.9c0.2,0.2,0.4,0.3,0.7,0.3c0.1,0,0.3,0,0.5,0
			c0.2,0,0.3-0.1,0.5-0.1l0.2,1.2c-0.2,0.1-0.4,0.2-0.7,0.3c-0.3,0.1-0.6,0.1-0.9,0.1c-0.7,0-1.2-0.2-1.6-0.6
			c-0.4-0.4-0.6-1.1-0.6-1.9v-5.6h-1.5v-1.3h1.5V175H913.6z"/>
		<path class="st8" d="M930.9,177.8h-1.2l-0.3-1.8c-0.3-0.3-0.6-0.5-1-0.7c-0.4-0.2-0.9-0.3-1.4-0.3c-1.3,0-2.3,0.5-3,1.4
			c-0.7,0.9-1.1,2.1-1.1,3.6v0.2c0,1.4,0.3,2.6,1,3.6c0.7,0.9,1.6,1.4,2.8,1.4c0.6,0,1.1-0.1,1.5-0.3c0.5-0.2,0.8-0.4,1.1-0.6
			l0.3-1.8h1.2v2.2c-0.4,0.5-0.9,0.9-1.6,1.2c-0.7,0.4-1.6,0.5-2.5,0.5c-1.6,0-3-0.6-4-1.8c-1-1.2-1.6-2.7-1.6-4.5v-0.2
			c0-1.8,0.5-3.3,1.5-4.5c1-1.2,2.4-1.8,4-1.8c1,0,1.8,0.2,2.5,0.6s1.3,0.8,1.6,1.2V177.8z"/>
		<path class="st8" d="M932.5,174.2v-1.1h3.1v12.1l1.4,0.2v1.1h-4.5v-1.1l1.4-0.2v-10.7L932.5,174.2z"/>
		<path class="st8" d="M938.3,185.4l1.4-0.2v-6.6l-1.4-0.2v-1.1h3.1v8l1.4,0.2v1.1h-4.5V185.4z M941.4,174.8h-1.7v-1.7h1.7V174.8z"
			/>
		<path class="st8" d="M948.2,185.3c0.6,0,1.1-0.2,1.5-0.5c0.4-0.3,0.6-0.8,0.6-1.3h1.5l0,0.1c0,0.8-0.3,1.5-1.1,2.1
			c-0.7,0.6-1.6,0.9-2.6,0.9c-1.3,0-2.4-0.4-3.1-1.3c-0.7-0.9-1.1-2-1.1-3.3v-0.4c0-1.3,0.4-2.4,1.1-3.3c0.7-0.9,1.7-1.3,3.1-1.3
			c0.7,0,1.4,0.1,2,0.4c0.6,0.2,1.1,0.6,1.5,1l0.1,2.1h-1.3l-0.4-1.5c-0.2-0.2-0.5-0.3-0.8-0.5c-0.3-0.1-0.7-0.2-1.1-0.2
			c-0.9,0-1.5,0.3-1.9,1c-0.4,0.6-0.6,1.4-0.6,2.3v0.4c0,1,0.2,1.7,0.6,2.4C946.7,185,947.3,185.3,948.2,185.3z"/>
		<path class="st8" d="M953.3,174.2v-1.1h3.1v7.8h1.1l2-2.5l-0.9-0.1v-1.1h3.9v1.1l-1.1,0.2l-2.4,2.9l3,3.8l1.1,0.2v1.1h-3.8v-1.1
			l0.9-0.1l-2.5-3.1h-1.1v3l1.4,0.2v1.1h-4.5v-1.1l1.4-0.2v-10.7L953.3,174.2z"/>
	</g>
	<g>
		<g>
			<path class="st9" d="M982.8,42.9c-1.4-4.9-3.3-9.4-5.8-13.6c-2.5-4.2-5.5-8.1-8.9-11.6c-3.5-3.5-7.3-6.5-11.6-9
				c-4.2-2.5-8.8-4.4-13.7-5.8c-4.9-1.4-9.9-2-15.2-2h-1.5v22.9h1.5c4.7,0,9.2,0.9,13.4,2.7c4.2,1.8,7.8,4.3,10.9,7.4
				c3.1,3.1,5.6,6.7,7.3,10.9c1.8,4.1,2.7,8.6,2.7,13.3s-0.9,9.2-2.7,13.4c-1.8,4.2-4.2,7.8-7.3,10.9c-3.1,3.1-6.8,5.6-10.9,7.3
				c-4.2,1.8-8.6,2.7-13.4,2.7h-11.4V66.3h-23v49h34.5c5.3,0,10.3-0.7,15.2-2c4.9-1.4,9.4-3.3,13.7-5.8c4.3-2.5,8.1-5.5,11.6-9
				c3.5-3.5,6.4-7.3,8.9-11.6c2.5-4.2,4.4-8.8,5.8-13.6c1.4-4.9,2-9.9,2-15.2C984.8,52.8,984.1,47.8,982.8,42.9z"/>
		</g>
		<g>
			<path class="st6" d="M849,92.4c-4.7,0-9.2-0.9-13.4-2.7c-4.2-1.8-7.8-4.2-10.9-7.3c-3.1-3.1-5.6-6.8-7.3-10.9
				c-1.8-4.2-2.7-8.6-2.7-13.4c0-4.7,0.9-9.2,2.7-13.3c1.8-4.1,4.2-7.8,7.3-10.9c3.1-3.1,6.8-5.6,10.9-7.4c4.2-1.8,8.6-2.7,13.4-2.7
				h1.5V0.9H849c-5.3,0-10.3,0.7-15.2,2c-4.9,1.4-9.4,3.3-13.7,5.8c-4.3,2.5-8.1,5.5-11.6,9c-3.5,3.5-6.4,7.3-8.9,11.6
				c-2.5,4.2-4.4,8.8-5.8,13.6c-1.4,4.9-2,9.9-2,15.2c0,5.3,0.7,10.3,2,15.2c1.3,4.9,3.3,9.4,5.8,13.6c2.5,4.2,5.5,8.1,8.9,11.6
				c3.5,3.5,7.3,6.5,11.6,9c4.3,2.5,8.8,4.4,13.7,5.8c4.9,1.4,9.9,2,15.2,2h34.4V92.4H849z"/>
		</g>
		<polygon class="st10" points="916.3,0.9 916.3,56.1 893.2,56.1 893.2,23.6 860.4,23.6 860.4,0.9 		"/>
		<path class="st11" d="M888.2,28.6v27.5c-14.9-0.6-26.9-12.6-27.6-27.5H888.2z"/>
		<g>
			<line class="st12" x1="904.2" y1="12.7" x2="899.4" y2="17.4"/>
			<line class="st12" x1="909.9" y1="26.5" x2="903.2" y2="26.5"/>
			<line class="st12" x1="904.2" y1="40.3" x2="899.5" y2="35.6"/>
			<line class="st12" x1="890.3" y1="6.9" x2="890.3" y2="13.6"/>
			<line class="st12" x1="876.5" y1="12.6" x2="881.2" y2="17.4"/>
		</g>
	</g>
</g>
</svg>
