<svg id="Layer_1" data-name="Layer 1" xmlns="http://www.w3.org/2000/svg" viewBox="0 0 24 24"><defs><style>.cls-1{fill:none;}.cls-2,.cls-3{fill:#00b2ac;}.cls-2{stroke:#00b2ac;stroke-miterlimit:10;stroke-width:0.8px;}</style></defs><rect class="cls-1" width="24" height="24"/><path class="cls-2" d="M18.73,20.7a2,2,0,0,1-1.24-.48L17.11,20a.18.18,0,0,0-.22,0,8.69,8.69,0,0,1-2.22,1,.28.28,0,0,0-.2.22,3.34,3.34,0,0,1-.32,1.2,1.76,1.76,0,0,1-1.51.9,9.73,9.73,0,0,1-1.08,0A1.44,1.44,0,0,1,10.8,23a1.79,1.79,0,0,1-.74-1.35A.52.52,0,0,0,9.63,21H9.58a7.78,7.78,0,0,1-2.23-.92.21.21,0,0,0-.24,0,4.38,4.38,0,0,1-.86.5,1.71,1.71,0,0,1-1.82-.4,4.73,4.73,0,0,1-.79-.88,1.71,1.71,0,0,1,0-2A2.6,2.6,0,0,1,4,17a.18.18,0,0,0,0-.22,9,9,0,0,1-1-2.5.2.2,0,0,0-.2-.18A4.06,4.06,0,0,1,2,13.89a1.78,1.78,0,0,1-1.17-1.7,2.46,2.46,0,0,1,.15-1.11A1.88,1.88,0,0,1,2.4,10c.18,0,.4,0,.51-.14a1.64,1.64,0,0,0,.17-.5c.22-.55.45-1.1.68-1.65a.24.24,0,0,0,0-.28c-.18-.25-.36-.5-.52-.75a1.81,1.81,0,0,1,.24-2.32A3.77,3.77,0,0,1,4.2,3.7a2.17,2.17,0,0,1,2.36.12l.33.23a.18.18,0,0,0,.22,0A9.3,9.3,0,0,1,9.37,3a.18.18,0,0,0,.16-.18,2.36,2.36,0,0,1,.65-1.46A2.16,2.16,0,0,1,12.39.81,2.16,2.16,0,0,1,14,2.44a1.55,1.55,0,0,1,.06.31.16.16,0,0,0,.14.16,8.79,8.79,0,0,1,2.51,1,.2.2,0,0,0,.23,0l.41-.29a1.84,1.84,0,0,1,2.35.24c.21.21.42.42.61.64a1.77,1.77,0,0,1,.15,2A5.07,5.07,0,0,1,20.1,7a.17.17,0,0,0,0,.21,8.91,8.91,0,0,1,1,2.53.19.19,0,0,0,.19.16c.25.06.5.09.74.16a1.81,1.81,0,0,1,1.22,1.71,2.59,2.59,0,0,1-.1,1A1.87,1.87,0,0,1,21.68,14a4,4,0,0,0-.5.11.25.25,0,0,0-.14.13c-.2.55-.39,1.11-.59,1.65a2.49,2.49,0,0,1-.22.43.21.21,0,0,0,0,.24l.49.71a1.82,1.82,0,0,1-.2,2.39,6.5,6.5,0,0,1-.66.63A1.68,1.68,0,0,1,18.73,20.7Zm-6.52,2h.35a1.17,1.17,0,0,0,1.15-.9,5.12,5.12,0,0,1,.12-.64.81.81,0,0,1,.54-.73,9.05,9.05,0,0,0,2.22-1,.75.75,0,0,1,.88,0l.66.45a1.16,1.16,0,0,0,1.39-.08,7,7,0,0,0,.62-.6,1.16,1.16,0,0,0,.12-1.44,4.18,4.18,0,0,0-.45-.65.9.9,0,0,1-.1-1.12,7.49,7.49,0,0,0,.72-1.93.68.68,0,0,1,.52-.51l.68-.15a1.11,1.11,0,0,0,.88-.81,3.69,3.69,0,0,0,.06-.81,1.1,1.1,0,0,0-.43-.87,1.66,1.66,0,0,0-.89-.3.82.82,0,0,1-.82-.74,1.21,1.21,0,0,0-.05-.18A8.35,8.35,0,0,0,19.5,7.6a.81.81,0,0,1,0-1c.09-.11.17-.23.25-.35a1.16,1.16,0,0,0-.11-1.48c-.18-.19-.35-.38-.54-.55A1.08,1.08,0,0,0,18,4a4.42,4.42,0,0,0-.76.44.77.77,0,0,1-.89,0,8.77,8.77,0,0,0-2.62-1,.34.34,0,0,1-.31-.33,6.19,6.19,0,0,0-.13-.62,1.58,1.58,0,0,0-2.56-.76,1.77,1.77,0,0,0-.57,1.15.8.8,0,0,1-.64.75,8.62,8.62,0,0,0-2.1,1,.75.75,0,0,1-.9,0l-.38-.26a1.52,1.52,0,0,0-1.66,0A3.14,3.14,0,0,0,3.77,5a1.11,1.11,0,0,0,0,1.36l.54.78A.73.73,0,0,1,4.38,8,9.51,9.51,0,0,0,3.57,10a.66.66,0,0,1-.53.5l-.69.16a1.11,1.11,0,0,0-.88.89,2.58,2.58,0,0,0,0,.68,1.16,1.16,0,0,0,.79,1.09c.24.07.49.11.73.16a.69.69,0,0,1,.59.53,8.73,8.73,0,0,0,1,2.52.68.68,0,0,1,0,.77l-.31.45a1.14,1.14,0,0,0,0,1.36,4.5,4.5,0,0,0,.68.7,1.15,1.15,0,0,0,1.45.06l.45-.31a.72.72,0,0,1,.77,0,9.15,9.15,0,0,0,2.47,1,.68.68,0,0,1,.55.55l.09.49a1.17,1.17,0,0,0,.82,1,3.68,3.68,0,0,0,.66.06Z"/><path class="cls-3" d="M18.45,11.88A6.45,6.45,0,1,1,11.9,5.53h.19A6.45,6.45,0,0,1,18.45,11.88ZM12,17.82A5.82,5.82,0,1,0,6.19,12c0,.1,0,.21,0,.31A5.82,5.82,0,0,0,12,17.82Z"/><path class="cls-3" d="M11.79,11.28h-.6a.58.58,0,0,1-.61-.55v-.68a.61.61,0,0,1,.59-.63h.62V8.64A.31.31,0,0,1,12,8.32a.29.29,0,0,1,.35.13.31.31,0,0,1,0,.19v.78H13a.62.62,0,0,1,.68.55v.75a.56.56,0,0,1-.56.56h-.66v3.84a.32.32,0,0,1-.22.33.3.3,0,0,1-.35-.13.67.67,0,0,1-.07-.31V11.28Z"/><path class="cls-3" d="M9.06,12.27V8.9a.34.34,0,0,1,.3-.38h0a.34.34,0,0,1,.32.36v3.39h.58a.59.59,0,0,1,.63.55v.72a.58.58,0,0,1-.57.59H9.71v.64a.34.34,0,0,1-.29.37h0a.33.33,0,0,1-.33-.37v-.64H8.4a.57.57,0,0,1-.55-.57v-.68a.6.6,0,0,1,.59-.61h.62Z"/><path class="cls-3" d="M15.16,12.41h.75a.56.56,0,0,1,.47.53c0,.27,0,.53,0,.8a.55.55,0,0,1-.53.51h-.68a4.17,4.17,0,0,0,0,.5.33.33,0,0,1-.31.35h0a.32.32,0,0,1-.33-.31v0a1,1,0,0,1,0-.25v-.25H14a.62.62,0,0,1-.68-.53.43.43,0,0,1,0-.16,4.21,4.21,0,0,1,0-.71.55.55,0,0,1,.58-.47h.6V8.8a.32.32,0,0,1,.63-.11.2.2,0,0,1,0,.11v3Z"/></svg>