<svg id="Layer_1" data-name="Layer 1" xmlns="http://www.w3.org/2000/svg" viewBox="0 0 122.16 95.14"><defs><style>.cls-1{fill:#f8dc8c;}.cls-2{fill:#fc1a3d;}.cls-3{fill:#9a1c21;}.cls-4{fill:#fff;}</style></defs><circle class="cls-1" cx="39.87" cy="40.81" r="34.8"/><path class="cls-2" d="M40.9,31.78l11-27.51A29.72,29.72,0,0,0,26.77,5.76Z"/><path d="M89.55,7.61a.27.27,0,0,1,0-.3.28.28,0,0,1,.38-.12l13.31,6.89a.28.28,0,0,1-.25.5L89.64,7.69A.24.24,0,0,1,89.55,7.61Z"/><path d="M41.45,38a.32.32,0,0,1-.22-.1.29.29,0,0,1,0-.4l8.92-7.69a.28.28,0,0,1,.4,0,.27.27,0,0,1,0,.39l-8.92,7.7A.31.31,0,0,1,41.45,38Z"/><path d="M103.25,18.53a4,4,0,1,1,5.64.68A4,4,0,0,1,103.25,18.53Zm5.88-4.62a3.46,3.46,0,1,0-.58,4.86A3.46,3.46,0,0,0,109.13,13.91Z"/><path d="M53.2,31.61a4,4,0,1,1,4-4A4,4,0,0,1,53.2,31.61Zm0-7.48a3.46,3.46,0,1,0,3.46,3.46A3.46,3.46,0,0,0,53.2,24.13Z"/><circle class="cls-2" cx="89.77" cy="7.44" r="3.74"/><path d="M14.94,53.81a.27.27,0,0,1-.19-.08.28.28,0,0,1,0-.4L18.06,50a.28.28,0,0,1,.4,0,.29.29,0,0,1,0,.39l-3.32,3.32A.28.28,0,0,1,14.94,53.81Z"/><path d="M18.26,53.81a.3.3,0,0,1-.2-.08l-3.31-3.32a.28.28,0,0,1,.39-.39l3.32,3.31a.3.3,0,0,1,0,.4A.32.32,0,0,1,18.26,53.81Z"/><circle cx="74.51" cy="23.5" r="8.51" transform="translate(-0.04 0.14) rotate(-0.11)"/><path d="M46.93,93a.28.28,0,0,1-.13,0,.29.29,0,0,1-.12-.38l4.66-8.75a.29.29,0,0,1,.25-.14h43a.28.28,0,0,1,.28.26l.52,8.74a.28.28,0,0,1-.56,0l-.5-8.48H51.76l-4.58,8.59A.27.27,0,0,1,46.93,93Z"/><path d="M65.28,93a.28.28,0,0,1-.28-.28,3.58,3.58,0,0,0-1.32-2.63L61.6,88.21a.28.28,0,0,1,0-.4.29.29,0,0,1,.4,0l2.08,1.85a4.15,4.15,0,0,1,1.51,3A.29.29,0,0,1,65.28,93Z"/><path class="cls-3" d="M95.54,43.34c-3.47-3.47-10.4-7.9-18.62-7.41l-11.14.14c-6.81,0-12.17,2.63-14.92,6.35-3.3,4.46-2.33,8.19-5.08,10.15-3.24,2.31-6.69-7.73-6.69-7.73L27,47.13c-2.49,18.37-1.78,25.15,2.35,30.81,6.26,8.57,18.16,7.59,20.83,1.33l-.88,6.55H94.1C112.4,96.56,127.72,75.48,95.54,43.34Z"/><path class="cls-4" d="M83.28,36.72a17.35,17.35,0,0,0-6.69-.91s-12.06.15-13.06.32l-.59.44S71.7,42.33,83.28,36.72Z"/><path d="M103.43,88.94A19,19,0,0,1,94,86.1H49.27a.27.27,0,0,1-.21-.09.29.29,0,0,1-.07-.22l.68-5.1a9.81,9.81,0,0,1-7.06,3.76A14.77,14.77,0,0,1,29.1,78.29c-4.29-5.88-4.86-13.17-2.4-31.2a.28.28,0,0,1,.22-.24L39,44.56a.27.27,0,0,1,.32.18c0,.07,2.44,7,5,7.82a1.4,1.4,0,0,0,1.29-.22c1.32-.94,1.74-2.34,2.26-4.11a18,18,0,0,1,2.75-6c3-4,8.66-6.47,15.15-6.47l11.14-.14c7.87-.47,14.88,3.56,18.81,7.49,8.84,8.82,14.86,17.64,17.42,25.5,2.18,6.72,1.78,12.51-1.15,16.3A10.44,10.44,0,0,1,103.43,88.94Zm-53.84-3.4H94.1a.33.33,0,0,1,.14,0c6.92,4.06,13.72,3.68,17.31-1,5.4-7,2.48-22.4-16.21-41.07-3.85-3.84-10.7-7.78-18.4-7.33l-11.15.15c-6.33,0-11.82,2.33-14.71,6.24a17.09,17.09,0,0,0-2.66,5.8c-.53,1.8-1,3.35-2.48,4.41a1.93,1.93,0,0,1-1.78.29c-2.56-.82-4.8-6.67-5.26-7.93L27.22,47.37C24.83,65.08,25.38,72.25,29.55,78a14.21,14.21,0,0,0,13,5.93c3.51-.4,6.25-2.17,7.34-4.73a.28.28,0,0,1,.33-.16.28.28,0,0,1,.2.31Z"/><path d="M68.51,56.88l-.1,0a.28.28,0,0,1-.17-.35c2.32-6.59,9.78-4,15.78-1.92a.28.28,0,0,1,.17.35.27.27,0,0,1-.36.17c-7.32-2.54-13.08-4-15.06,1.58A.28.28,0,0,1,68.51,56.88Z"/><path class="cls-4" d="M37.26,37.55l-.47-6.23A2.86,2.86,0,0,0,36,29.56,45.52,45.52,0,0,0,28.09,24c-3.67-2.09-4.74.46-4.86.71-.82,1.7.37,4.54.37,4.54-.42.92-1.42,1.36-.69,5,0,0-2,1.62,0,4.44,0,0-1.52,2.68,3.5,3.78l.78,6.43a6.29,6.29,0,1,0,12.34-2.29Z"/><path d="M33.41,54.66a6.57,6.57,0,0,1-6.51-5.78l-.75-6.23c-1.91-.45-3.11-1.19-3.56-2.2a2.27,2.27,0,0,1,0-1.78c-1.69-2.49-.41-4.12,0-4.56-.56-2.92,0-3.81.48-4.53.08-.13.15-.24.21-.36-.22-.58-1.09-3-.32-4.65v0A2.79,2.79,0,0,1,24.66,23a4.55,4.55,0,0,1,3.57.72,44.88,44.88,0,0,1,7.92,5.64,3.11,3.11,0,0,1,.92,1.92l.47,6.22,2.25,9a6.54,6.54,0,0,1-4.16,7.78A6.77,6.77,0,0,1,33.41,54.66ZM25.54,23.44a2.35,2.35,0,0,0-.71.11,2.18,2.18,0,0,0-1.34,1.24v0c-.75,1.56.37,4.28.38,4.31a.28.28,0,0,1,0,.22,4,4,0,0,1-.31.54c-.44.68-.94,1.46-.37,4.27a.28.28,0,0,1-.1.27c-.07.06-1.78,1.5.05,4a.29.29,0,0,1,0,.31,1.73,1.73,0,0,0,0,1.45c.39.86,1.55,1.52,3.35,1.92a.27.27,0,0,1,.22.24l.78,6.43a6,6,0,1,0,11.79-2.19l-2.26-9a.09.09,0,0,1,0,0l-.47-6.23a2.64,2.64,0,0,0-.75-1.58A45.78,45.78,0,0,0,28,24.22,5,5,0,0,0,25.54,23.44Z"/><path d="M25.81,40a4.61,4.61,0,0,1-3.1-1.11.28.28,0,0,1,.38-.41,4.34,4.34,0,0,0,3,1,.28.28,0,0,1,.31.24.28.28,0,0,1-.25.31A2,2,0,0,1,25.81,40Z"/><path d="M25.23,36.2h0a3.51,3.51,0,0,1-2.53-1.87.28.28,0,0,1,.12-.38.28.28,0,0,1,.37.13,3,3,0,0,0,2.11,1.56.27.27,0,0,1,.24.31A.26.26,0,0,1,25.23,36.2Z"/><polygon points="37.44 36.3 35.75 37.95 28.5 28.88 23.6 23.23 24.67 23.16 37.44 36.3"/><path d="M24.78,23.27,23.13,25l-3-3.11-.42-1.76a.31.31,0,0,1,.38-.36l1.73.47Z"/><path d="M28.11,43.49a.32.32,0,0,1-.22-.1c-3.41-4.06-2.79-10.16-2.64-11.31a7.47,7.47,0,0,1-1.72-2.36c-1.13-2.13-1.21-4.67-.18-5.56.33-.28,1.06-.63,2.2.23,2.62,2,10.11,12.93,10.43,13.4a.28.28,0,1,1-.47.31c-.07-.11-7.75-11.35-10.3-13.26-.43-.33-1.05-.64-1.49-.25-.74.63-.77,2.85.31,4.86a5.83,5.83,0,0,0,1.64,2.24.28.28,0,0,1,.16.29c0,.07-1,6.84,2.49,11.05a.27.27,0,0,1,0,.39A.26.26,0,0,1,28.11,43.49Z"/><rect class="cls-4" x="64.41" y="44.36" width="18.11" height="21.03" transform="translate(146.94 109.75) rotate(180)"/><path d="M75.73,17.53a4.79,4.79,0,0,0-3.09-3.75,2.9,2.9,0,0,0-2.44.15A2.07,2.07,0,0,0,69,15.58a3,3,0,0,0-3.72,1.24,4.44,4.44,0,0,0,1,5.85c1.05.76,2.18.59,3.39.65a6.17,6.17,0,0,0,4.48-1.53A5.2,5.2,0,0,0,75.73,17.53Z"/><path class="cls-4" d="M78.09,31.22c-4.46-.81-3.35-4.55-3.35-4.55-1.24-1-.69-3.52-.31-4.81a.68.68,0,0,0-.54-.88c-3.77-.64-6.84-3.26-7.7-.25-.19.65-.22.75-.44,1.57-1.61,6.16-3.73,11,2.51,11.4v3.35l9.83-.33Z"/><path d="M78.09,36.41a.28.28,0,0,1-.28-.28v-5a.29.29,0,0,1,.28-.28.28.28,0,0,1,.28.28v5A.27.27,0,0,1,78.09,36.41Z"/><path d="M68.26,36.51a.28.28,0,0,1-.28-.28V33.7a.28.28,0,0,1,.28-.28.27.27,0,0,1,.28.28v2.53A.29.29,0,0,1,68.26,36.51Z"/><path d="M68.26,34h0c-1.9-.13-3.15-.66-3.84-1.63-1.24-1.75-.42-4.71.53-8.14.18-.64.37-1.31.54-2a.28.28,0,1,1,.54.14c-.17.68-.36,1.34-.54,2-.91,3.29-1.7,6.13-.61,7.67.58.82,1.7,1.27,3.41,1.39a.27.27,0,0,1,.26.3A.28.28,0,0,1,68.26,34Z"/><path class="cls-2" d="M71.35,23.59h-.06l-6.15-1.31a.28.28,0,1,1,.11-.55L71.41,23a.29.29,0,0,1,.21.34A.28.28,0,0,1,71.35,23.59Z"/><path d="M69.49,34c-.39,0-.82,0-1.26-.06a.28.28,0,0,1-.24-.31.27.27,0,0,1,.3-.25,14,14,0,0,0,2.5,0,.27.27,0,0,1,.3.25.28.28,0,0,1-.25.31S70.24,34,69.49,34Z"/><path d="M71,33.71s.24,2.86-2.46,2.18l-.1-2.11Z"/><circle cx="67.48" cy="18.88" r="3.6" transform="translate(40.49 83.55) rotate(-82.98)"/><circle cx="71.88" cy="16.22" r="3.08" transform="translate(0.17 33.19) rotate(-26.03)"/><path d="M71.88,19a3.36,3.36,0,1,1,3.35-3.36A3.37,3.37,0,0,1,71.88,19Zm0-6.15a2.8,2.8,0,1,0,2.79,2.79A2.79,2.79,0,0,0,71.88,12.83Z"/><rect class="cls-2" x="67.85" y="42.42" width="11.23" height="2.83" transform="translate(146.94 87.68) rotate(180)"/><path class="cls-4" d="M77.5,27.2A2.53,2.53,0,1,1,75,24.67,2.53,2.53,0,0,1,77.5,27.2Z"/><path d="M74.51,27.93a.26.26,0,0,1-.17-.05.28.28,0,0,1-.06-.39l.92-1.3a.28.28,0,0,1,.39-.06.28.28,0,0,1,.07.39l-.93,1.3A.28.28,0,0,1,74.51,27.93Z"/><path d="M71.57,25.51A.57.57,0,1,1,71,25,.56.56,0,0,1,71.57,25.51Z"/><path d="M67,25a.57.57,0,1,1-.57-.57A.57.57,0,0,1,67,25Z"/><path class="cls-2" d="M70.93,29a3.57,3.57,0,0,1-.47,0,3,3,0,0,1-2-1.2,3,3,0,1,1,5.38-1.29A3,3,0,0,1,70.93,29Zm0-5.43A2.37,2.37,0,0,0,69.5,24,2.43,2.43,0,1,0,72.35,28a2.42,2.42,0,0,0-1-4.36A1.58,1.58,0,0,0,70.92,23.55Z"/><path class="cls-2" d="M64.77,27.66l-.47,0a3,3,0,0,1-1.95-1.2,2.94,2.94,0,0,1-.53-2.22,3,3,0,0,1,3.42-2.49,2.94,2.94,0,0,1,2,1.2,3,3,0,0,1,.54,2.22A3,3,0,0,1,64.77,27.66Zm0-5.42a2.43,2.43,0,0,0-2,3.86,2.37,2.37,0,0,0,1.58,1,2.43,2.43,0,0,0,2.78-2,2.43,2.43,0,0,0-2-2.78Z"/><path d="M66.69,28.69H66.6a.29.29,0,0,1-.18-.35l1.18-3.79a.28.28,0,0,1,.35-.18.28.28,0,0,1,.19.35L67,28.49A.27.27,0,0,1,66.69,28.69Z"/><path d="M66.27,29.87a.27.27,0,0,1-.19-.08L65.19,29a.28.28,0,0,1,0-.39.28.28,0,0,1,.4,0l.89.83a.28.28,0,0,1,0,.4A.27.27,0,0,1,66.27,29.87Z"/><path class="cls-4" d="M49.27,86.1h0a.28.28,0,0,1-.26-.3L52.17,48a.27.27,0,0,1,.3-.25.29.29,0,0,1,.26.3L49.55,85.85A.28.28,0,0,1,49.27,86.1Z"/><path class="cls-4" d="M110.64,68.42a.29.29,0,0,1-.23-.12c-4.34-6.15-7.08-6.62-10.88-7.27a27.55,27.55,0,0,1-6.45-1.74.28.28,0,0,1-.15-.37.28.28,0,0,1,.36-.15,26.29,26.29,0,0,0,6.34,1.7c3.78.65,6.76,1.17,11.23,7.5a.28.28,0,0,1-.06.39A.27.27,0,0,1,110.64,68.42Z"/><path class="cls-4" d="M93.89,59.19l-5.76-4.31s-2.38-9.63-5.28-9.35-.32,7-.32,7-5.46-3.9-6.85-4.37-3-.79-4,.61c-.83,1.23.33,2.24,1.64,3-1-.49-3.27-1.36-4.19.17-.67,1.12.46,2.23,1.58,3-.81-.3-1.7-.38-2.22.37-.86,1.22.13,2.38,1.85,3.46a2,2,0,0,0-.47,2.56c1,1.82,8,4.9,8,4.9l6.61,5.17a7.68,7.68,0,1,0,9.34-12.2Z"/><path d="M89.25,73.3a7.88,7.88,0,0,1-4.88-1.69l-6.58-5.15c-.59-.26-7.17-3.17-8.15-5a2.22,2.22,0,0,1,.28-2.64,4,4,0,0,1-2-2.27,1.74,1.74,0,0,1,.33-1.4,1.6,1.6,0,0,1,1.36-.7c-1.2-1.12-1.09-2-.73-2.64a2.41,2.41,0,0,1,2.78-.9,2,2,0,0,1-.51-.91,1.63,1.63,0,0,1,.29-1.34c1-1.56,2.85-1.2,4.3-.71A47.24,47.24,0,0,1,82,51.84c-.47-1.46-1.25-4.45-.4-5.83a1.56,1.56,0,0,1,1.25-.75c3-.29,5.2,8.07,5.55,9.45L94.05,59A8,8,0,0,1,90.51,73.2,7.64,7.64,0,0,1,89.25,73.3ZM69.69,55a1.1,1.1,0,0,0-1,.46,1.22,1.22,0,0,0-.23,1c.12.63.8,1.34,2,2.1a.28.28,0,0,1,.13.21.29.29,0,0,1-.09.23,1.71,1.71,0,0,0-.41,2.22c.75,1.42,6,3.92,7.91,4.77l.06,0,6.61,5.17a7.4,7.4,0,1,0,9-11.75L88,55.1a.25.25,0,0,1-.1-.16c-.65-2.61-2.81-9.34-5-9.13a1,1,0,0,0-.82.5c-.82,1.32.25,4.89.73,6.16a.28.28,0,0,1-.43.33s-5.43-3.89-6.77-4.33-2.83-.75-3.66.49a1.11,1.11,0,0,0-.21.9c.13.54.72,1.1,1.76,1.68a.28.28,0,0,1,.11.37.28.28,0,0,1-.37.13c-.89-.43-3-1.29-3.83.05-.56.95.5,1.94,1.49,2.61a.27.27,0,0,1,.09.36.27.27,0,0,1-.34.13A2.8,2.8,0,0,0,69.69,55Z"/><path d="M81.43,56.15a.27.27,0,0,1-.12,0L73.21,52a.27.27,0,0,1-.12-.37.28.28,0,0,1,.38-.13l8.09,4.09a.28.28,0,0,1-.13.53Z"/><path d="M83.93,53.66a.23.23,0,0,1-.14,0l-1.4-.81a.28.28,0,1,1,.28-.48l1.4.81a.28.28,0,0,1,.1.38A.28.28,0,0,1,83.93,53.66Z"/><path d="M79.12,59.31a.27.27,0,0,1-.12,0l-8.4-4.1a.28.28,0,1,1,.25-.5l8.4,4.1a.28.28,0,0,1,.13.37A.29.29,0,0,1,79.12,59.31Z"/><path d="M77.32,62.62a.28.28,0,0,1-.13,0l-7-3.58a.28.28,0,0,1-.12-.38.29.29,0,0,1,.38-.12l7,3.58a.29.29,0,0,1,.12.38A.27.27,0,0,1,77.32,62.62Z"/></svg>