<svg id="Layer_1" data-name="Layer 1" xmlns="http://www.w3.org/2000/svg" viewBox="0 0 122.16 95.14"><defs><style>.cls-1{fill:#fff;}.cls-2{fill:#a3c9a8;}.cls-3{fill:#2e86ab;}.cls-4{fill:#1a1a1a;}</style></defs><rect class="cls-1" x="100.54" y="38.83" width="4.4" height="4.4"/><rect class="cls-1" x="100.85" y="31.14" width="3.77" height="3.49" rx="0.79"/><path class="cls-1" d="M76.52,38.44s3.1,2,3.21,5.36l-3.07.47.49-2.19S77.27,39.3,76.52,38.44Z"/><rect class="cls-1" x="25.54" y="19.88" width="51.95" height="35.65" rx="7.45"/><path class="cls-2" d="M86.23,67H104.9a3.35,3.35,0,0,1,3.35,3.35V82a3.35,3.35,0,0,1-3.35,3.35H86.23A3.34,3.34,0,0,1,82.89,82V70.33A3.35,3.35,0,0,1,86.23,67Z"/><path class="cls-3" d="M92.32,59.36a27.37,27.37,0,0,0-2.61-5.08,58.74,58.74,0,0,0-3.78-5.14l-.86,1.55-.91,2.08.8,6.84-8.89-1.06s-4.23.27-6.46,3.13-2,3.94-3.11,6.11-1.4,3-3,2.61-1.68-1.46-2-2.58-2.74-8.36-2.91-8.9a6.87,6.87,0,0,0-8.75,1.46s1.32,8,2.42,10.79,3.11,9.33,10.48,9.45c0,0,4.05.1,6.24-1.49a92.51,92.51,0,0,1-1.15,11H88.08a36.79,36.79,0,0,1-.56-10.38,90.77,90.77,0,0,0,.63-12c0-.43-.07-1.12-.14-1.88a3,3,0,0,0,3.52-1A5.4,5.4,0,0,0,92.32,59.36Z"/><path class="cls-1" d="M56.61,58s.32-3,.36-3.22a5.37,5.37,0,0,0-.18-2.6c-.43-1-.51-1.93-1.29-2s-1.08-.07-1.28.21a1.84,1.84,0,0,0,.13,1.48c.21.44,1,1.94.21,2.5s-1,.1-1.13-.61a5.37,5.37,0,0,1,.13-2.58c.31-.53.8-1,.79-1.5a.88.88,0,0,0-1-.82,1.93,1.93,0,0,0-.92.38,2.3,2.3,0,0,0-2.21,1.59,3.78,3.78,0,0,0-1.3,2.33,11.19,11.19,0,0,0,.27,3.69,11,11,0,0,0,1.22,2.79,6.93,6.93,0,0,1,2.47-1.32C54,58,56.61,58,56.61,58Z"/><path class="cls-1" d="M75.07,47.63s-1.08,4.46-1.18,5a2.18,2.18,0,0,0,1.85,3,3.78,3.78,0,0,1,.87-1.5c.6-.56,1.07-.93,1.07-.93s1.61.3,2-1.06a1.63,1.63,0,0,0-1.25-2,4.27,4.27,0,0,1-.85-.27S75.44,48.63,75.07,47.63Z"/><path class="cls-2" d="M75.14,47.63a4.19,4.19,0,0,1,0-3.07,3.3,3.3,0,0,1,3-1.59,6.9,6.9,0,0,1,4.16,1.59s2.54.58,3.25,1.76a3.54,3.54,0,0,1,.17,2.93,26.68,26.68,0,0,0-1.06,2.45s-.16.33.62,1a4.41,4.41,0,0,1,1.88,2.86c.17,1.38.13,3.76-2.14,4.63a5.1,5.1,0,0,1-4.76-.75c-.2,0-2.55,1-3.82-.6a3.64,3.64,0,0,1-.34-3.92,6.3,6.3,0,0,1,1.48-1.61s1.46.36,1.92-.77a1.8,1.8,0,0,0-.59-2.28,1.55,1.55,0,0,0-1-.2S75.63,49.19,75.14,47.63Z"/><path class="cls-3" d="M104.86,49.11h-4.22a.91.91,0,0,1-.91-.91.93.93,0,0,1,.91-1h4.22a.91.91,0,0,1,.91.91A.93.93,0,0,1,104.86,49.11Z"/><path class="cls-2" d="M102.73,32.89l-4.36,8.87s.6,3.3,1.86,4.67h5.16a13.94,13.94,0,0,0,1.74-4.62Zm0,9.52A1.39,1.39,0,1,1,104.12,41,1.39,1.39,0,0,1,102.73,42.41Z"/><path class="cls-2" d="M27.39,75.54a33.62,33.62,0,0,1,4.48-6.07A19.31,19.31,0,0,1,37,65.63s0,3.35-3.88,6.56S27.39,75.54,27.39,75.54Z"/><path class="cls-2" d="M27.52,60.35a18.78,18.78,0,0,0-.65-4.82c-.64-1.77-2.11-3.62-3.3-4.1a12.13,12.13,0,0,0,1,4.1,24.83,24.83,0,0,0,3,4.9Z"/><path class="cls-3" d="M28.69,60.43s4.4-2,6.36-4.08a12.56,12.56,0,0,0,2.75-3.84c.17-.51.41-2,.41-2a17.2,17.2,0,0,0-5.67,4.23C29.86,57.8,28.74,59.88,28.69,60.43Z"/><path class="cls-3" d="M29,65.72s4.7-1,7.06-2.6a9.18,9.18,0,0,0,3.63-4.06,16.24,16.24,0,0,0-6.2,2.8A42.81,42.81,0,0,0,29,65.72Z"/><path class="cls-3" d="M25.42,79.2a23.33,23.33,0,0,0-2-7.56,18.84,18.84,0,0,0-3.15-4.79S19,69.28,20.75,73A19,19,0,0,0,25.42,79.2Z"/><path class="cls-2" d="M27.31,83.16S32,81,34.14,78.67,37.15,74,37,73a18.09,18.09,0,0,0-5.82,4.57C28.79,80.58,27.26,82.62,27.31,83.16Z"/><path class="cls-2" d="M22.91,79.39A19.91,19.91,0,0,0,19,73.81c-2.49-2.38-5-4.43-5.9-4.61,0,0-.21,3.34,3.49,6.34A22.38,22.38,0,0,0,22.91,79.39Z"/><path class="cls-3" d="M22.31,86.83A39.9,39.9,0,0,1,17,81.73,24.65,24.65,0,0,1,13.82,76a10.46,10.46,0,0,1,5.65,4.2,24.88,24.88,0,0,1,2.84,6.78Z"/><path class="cls-3" d="M77.44,27.74a7.75,7.75,0,0,0-7.58-7.86H33.06a7.75,7.75,0,0,0-7.58,7.86v1.31h52Z"/><path class="cls-1" d="M64,24.78a1.66,1.66,0,1,1-1.66-1.66A1.67,1.67,0,0,1,64,24.78Z"/><path class="cls-1" d="M69,24.78a1.66,1.66,0,1,1-1.65-1.66A1.66,1.66,0,0,1,69,24.78Z"/><path class="cls-2" d="M74,24.78a1.66,1.66,0,1,1-1.66-1.66A1.66,1.66,0,0,1,74,24.78Z"/><rect class="cls-3" x="6.71" y="36.42" width="4.93" height="4.93" rx="0.8" transform="translate(-21.56 13.36) rotate(-37.01)"/><path class="cls-2" d="M9.67,34.55l.48-3.37a1,1,0,0,0-.63.12l-2.59,2a1,1,0,0,0-.2.21,1.46,1.46,0,0,0-.19.55c-.07.46-.43,3-.43,3l3.07-2.41A.6.6,0,0,1,9.67,34.55Z"/><rect class="cls-2" x="32.05" y="32.04" width="5.77" height="5.77"/><rect class="cls-3" x="28.69" y="44.65" width="5.77" height="5.77"/><path class="cls-2" d="M52.42,82.61a3.13,3.13,0,1,1-3.12-3.12A3.13,3.13,0,0,1,52.42,82.61Z"/><path class="cls-1" d="M57.92,79.37A11.52,11.52,0,0,0,63,80.63a9.31,9.31,0,0,0,4.88-1,5,5,0,0,0-4.84-3.23A5.32,5.32,0,0,0,57.92,79.37Z"/><path class="cls-4" d="M63.09,80.77c-.4,0-.8,0-1.22,0l-.43,0a9.57,9.57,0,0,1-5.61-2.76c-2.32-2.37-3.46-5.63-4.27-8.52a76.23,76.23,0,0,1-1.86-8.89c0-.28,1.06-2.34,4.64-2.66,3.23-.29,4.31.93,4.35,1s3.11,9.45,3.11,9.45A2.88,2.88,0,0,0,63,70.14a1.85,1.85,0,0,0,2.13-.23,5,5,0,0,0,1.26-2c.16-.39.32-.77.47-1.16A37.18,37.18,0,0,1,68.48,63a9.38,9.38,0,0,1,3.4-3.43,13.62,13.62,0,0,1,4.38-1.22.14.14,0,0,1,.17.12.15.15,0,0,1-.13.16A14,14,0,0,0,72,59.85a9,9,0,0,0-3.29,3.32,35.63,35.63,0,0,0-1.65,3.68c-.15.39-.31.77-.47,1.16a5.24,5.24,0,0,1-1.35,2.13,2.14,2.14,0,0,1-2.46.25,3.16,3.16,0,0,1-1.29-2L60.45,65.1l-2-6.1c-.14-.15-1.24-1.12-4.08-.86-3.16.28-4.24,2-4.39,2.27a79.23,79.23,0,0,0,1.86,8.92c.8,2.84,1.93,6.07,4.2,8.38a9.25,9.25,0,0,0,5.44,2.68l.42,0C73.52,81.41,76.28,68,76.31,67.9a.15.15,0,0,1,.17-.12.16.16,0,0,1,.11.18C76.57,68.09,73.94,80.77,63.09,80.77Z"/><path class="cls-1" d="M89.79,79.57c-.15-.07-.17-.16-.12-.23l6.71-10a.14.14,0,0,1,.2,0,.15.15,0,0,1,0,.2l-6.71,10A.15.15,0,0,1,89.79,79.57Z"/><path class="cls-1" d="M98.36,79.57c-.16-.1-.16-.19-.11-.25l4.74-5-4.73-4.74a.14.14,0,0,1,.2-.2l4.84,4.83a.15.15,0,0,1,0,.2l-4.84,5.12A.14.14,0,0,1,98.36,79.57Z"/><path class="cls-4" d="M32.64,90.24h-14a.15.15,0,0,1-.14-.15.14.14,0,0,1,.14-.14h14a.15.15,0,0,1,.15.14A.15.15,0,0,1,32.64,90.24Z"/><path class="cls-4" d="M22.91,79.54C12.39,74.72,13,69.4,13,69.18,19.58,72.27,23,79.26,23,79.33S23,79.54,22.91,79.54ZM13.26,69.43c0,1,.61,5.62,9.39,9.77C22,77.94,18.75,72.28,13.26,69.43Z"/><path class="cls-4" d="M27.31,83.31C27.07,83,31,75.85,36.93,72.86c.24.33.78,5.62-9.56,10.44Zm9.55-10.09c-5.12,2.67-8.66,8.42-9.42,9.73C36.24,78.79,36.84,74.25,36.86,73.22Z"/><path class="cls-4" d="M22.44,87.07a2.46,2.46,0,0,1-.37-.23c-1.56-1.16-6.79-5.37-8.39-10.84.22-.18,6.34.84,8.9,10.89C22.5,87.07,22.47,87.07,22.44,87.07ZM14,76.15c1.68,5.34,7,9.54,8.17,10.42C19.93,78.17,15.14,76.44,14,76.15Z"/><path class="cls-4" d="M25.32,79.35C17.5,71.71,20,66.92,20.11,66.72c4.6,4.51,5.35,11.13,5.45,12.41C25.37,79.34,25.35,79.35,25.32,79.35Zm-5-12.3c-.36,1-1.54,5.38,5,11.89C25.09,77.29,24.25,71.3,20.28,67.05Z"/><path class="cls-4" d="M26.85,66.87a4,4,0,0,1-.37-.15c-10-4.78-9.58-10-9.55-10.19C23.5,59.6,26.85,66.38,27,66.66,26.93,66.86,26.89,66.87,26.85,66.87ZM17.21,56.78c0,1,.71,5.52,9.32,9.64C25.75,65,22.6,59.58,17.21,56.78Z"/><path class="cls-4" d="M27.45,60.58c-.15-.1-4-4.78-4-9.15.37-.08,4.39,1.48,4.24,8.92C27.53,60.56,27.49,60.58,27.45,60.58Zm-3.73-8.92c.17,3.65,2.91,7.47,3.66,8.44C27.42,54,24.52,52.08,23.72,51.66Z"/><path class="cls-4" d="M28.57,60.69a.65.65,0,0,1-.1-.47c.88-1.66,4.14-7.15,9.67-9.93.23.34.7,5.59-9.51,10.39Zm.18-.4c8.61-4.11,9.28-8.6,9.31-9.63C32.76,53.41,29.61,58.68,28.75,60.29Z"/><path class="cls-4" d="M27.4,75.89c.14-1,3.52-7.36,9.57-10.39.24.33.71,5.58-9.51,10.38Zm9.49-10c-5.36,2.79-8.56,8.24-9.32,9.64C36.19,71.38,36.86,66.89,36.89,65.86Z"/><path class="cls-4" d="M29,65.88c-.15-.36,4.92-5.66,10.71-7,.14.36-.72,4.92-10.6,7A.22.22,0,0,1,29,65.88ZM39.5,59.17c-4.87,1.27-9.21,5.3-10.27,6.35C37.47,63.72,39.19,60.11,39.5,59.17Z"/><path class="cls-4" d="M25.05,90.24a.15.15,0,0,1-.15-.16l3.52-29.55a.15.15,0,0,1,.16-.13.15.15,0,0,1,.13.16L25.19,90.11A.15.15,0,0,1,25.05,90.24Z"/><path class="cls-4" d="M23.41,90.24a.15.15,0,0,1-.15-.14l-.49-10.7a.14.14,0,0,1,.14-.15.15.15,0,0,1,.15.14l.49,10.7a.14.14,0,0,1-.14.15Z"/><path class="cls-4" d="M22.54,90.22a.14.14,0,0,1-.14-.14l-.1-3.15a.14.14,0,0,1,.14-.15.16.16,0,0,1,.15.14l.1,3.15a.15.15,0,0,1-.14.15Z"/><path class="cls-4" d="M26.82,90.22a.15.15,0,0,1-.15-.15L27,83.14a.16.16,0,0,1,.15-.14.14.14,0,0,1,.14.15L27,90.09A.13.13,0,0,1,26.82,90.22Z"/><path class="cls-4" d="M26,81.48A19.85,19.85,0,0,1,25.24,79a.14.14,0,0,1,.1-.17.15.15,0,0,1,.18.1l.59,2.38a.15.15,0,0,1-.11.18Z"/><path class="cls-4" d="M26.58,77.33c-.13,0-.16-.14-.13-.21l.72-1.47a.14.14,0,0,1,.2-.07.14.14,0,0,1,.06.19l-.72,1.47A.13.13,0,0,1,26.58,77.33Z"/><path class="cls-4" d="M27.24,71.31c-.15-.13-.53-4.57-.53-4.57a.15.15,0,0,1,.13-.16.15.15,0,0,1,.16.13l.38,4.44a.15.15,0,0,1-.13.16Z"/><path class="cls-4" d="M28.09,64.07c-.14-.12-.78-3.61-.78-3.61a.13.13,0,0,1,.11-.17.14.14,0,0,1,.17.12l.65,3.49a.15.15,0,0,1-.12.17Z"/><path class="cls-4" d="M27.58,68.94c-.13,0-.16-.13-.13-.21l1.33-3.09a.15.15,0,0,1,.19-.08.16.16,0,0,1,.08.19l-1.34,3.1A.14.14,0,0,1,27.58,68.94Z"/><path class="cls-4" d="M100.23,46.58a12.53,12.53,0,0,1-2-4.79c0-.09,4.37-9,4.37-9a.13.13,0,0,1,.19-.07.13.13,0,0,1,.07.19l-4.34,8.83a13.15,13.15,0,0,0,1.83,4.57.14.14,0,0,1,0,.2A.16.16,0,0,1,100.23,46.58Z"/><path class="cls-4" d="M105.43,46.52c-.15-.07-.17-.16-.12-.23a12.24,12.24,0,0,0,1.68-4.5L102.6,33a.15.15,0,0,1,.26-.13l4.41,8.88a11.87,11.87,0,0,1-1.72,4.76A.16.16,0,0,1,105.43,46.52Z"/><path class="cls-4" d="M105.39,46.58h-5.16a.15.15,0,0,1-.14-.15.14.14,0,0,1,.14-.14h5.16a.14.14,0,0,1,.14.14A.15.15,0,0,1,105.39,46.58Z"/><path class="cls-4" d="M104.86,49.25h-4.22a1,1,0,0,1-1-1,1.07,1.07,0,0,1,1-1.12h4.22a1,1,0,0,1,1,1.05A1.07,1.07,0,0,1,104.86,49.25Zm-4.22-1.88a.76.76,0,0,0-.76.76.78.78,0,0,0,.76.83h4.22a.76.76,0,0,0,.76-.76.78.78,0,0,0-.76-.83Z"/><path class="cls-4" d="M102.73,42.56A1.54,1.54,0,1,1,104.27,41,1.54,1.54,0,0,1,102.73,42.56Zm0-2.78A1.25,1.25,0,1,0,104,41,1.25,1.25,0,0,0,102.73,39.78Z"/><path class="cls-4" d="M102.73,39.67a.14.14,0,0,1-.14-.14V33.07a.14.14,0,0,1,.14-.14.15.15,0,0,1,.15.14v6.46A.15.15,0,0,1,102.73,39.67Z"/><path class="cls-4" d="M103.87,34.78h-.23a.14.14,0,0,1-.14-.14.15.15,0,0,1,.14-.15h.23a.6.6,0,0,0,.6-.6v-2a.6.6,0,0,0-.6-.6h-2.28a.6.6,0,0,0-.6.6v2a.6.6,0,0,0,.6.6h.28a.15.15,0,0,1,.15.15.15.15,0,0,1-.15.14h-.28a.89.89,0,0,1-.89-.89v-2a.89.89,0,0,1,.89-.89h2.28a.89.89,0,0,1,.89.89v2A.89.89,0,0,1,103.87,34.78Z"/><path class="cls-4" d="M78.14,53.42a1.59,1.59,0,0,1-.6-.11,1.67,1.67,0,0,1-.82-.64.15.15,0,0,1,0-.2.14.14,0,0,1,.2,0,1.42,1.42,0,0,0,.68.53,1.44,1.44,0,0,0,1.82-1.94,1.45,1.45,0,0,0-2.19-.55.14.14,0,0,1-.2,0,.15.15,0,0,1,0-.21,1.73,1.73,0,1,1,1,3.1Z"/><path class="cls-4" d="M78.26,52.65a13.63,13.63,0,0,1-.88-1.11c.08-.23,1.38-.61,1.38-.61a.14.14,0,0,1,.18.1.14.14,0,0,1-.09.18l-1.11.32.64.89a.14.14,0,0,1,0,.2A.16.16,0,0,1,78.26,52.65Z"/><path class="cls-4" d="M75.74,55.78a2.22,2.22,0,0,1-1.81-.94,3.18,3.18,0,0,1-.1-2.49L75,47.6a.13.13,0,0,1,.17-.11.15.15,0,0,1,.11.18l-1.17,4.76a3,3,0,0,0,.07,2.26,2,2,0,0,0,1.58.8.15.15,0,0,1,.13.16A.14.14,0,0,1,75.74,55.78Z"/><path class="cls-4" d="M73.79,51.72c-.5-.12-.7-.47-.6-.8l.72-2.57a.62.62,0,0,1,.77-.43.57.57,0,0,1,.35.24.54.54,0,0,1,0,.42.14.14,0,0,1-.18.1.15.15,0,0,1-.1-.18c-.35-.35-.53-.25-.58-.07L73.47,51a.33.33,0,0,0,.23.41.28.28,0,0,0,.25,0,.29.29,0,0,0,.16-.2.15.15,0,0,1,.18-.1.14.14,0,0,1,.1.18.6.6,0,0,1-.29.37A.59.59,0,0,1,73.79,51.72Z"/><path class="cls-4" d="M67.82,90.24c-.12,0-.16-.12-.14-.19A76.88,76.88,0,0,0,69,79a.15.15,0,0,1,.3,0A77.16,77.16,0,0,1,68,90.14.15.15,0,0,1,67.82,90.24Z"/><path class="cls-4" d="M88.85,66.27a2.67,2.67,0,0,1-.75-.11A.15.15,0,0,1,88,66a.14.14,0,0,1,.18-.09,3,3,0,0,0,2.47-.52c3.64-2.52,1.41-7.1-.94-10.81a52.83,52.83,0,0,0-4-5.47.15.15,0,0,1,.22-.19,51,51,0,0,1,4,5.51c1.56,2.45,5.2,8.2.87,11.19A3.48,3.48,0,0,1,88.85,66.27Z"/><path class="cls-4" d="M88.08,90.24a31.39,31.39,0,0,1-.69-10.63c1.16-11.39.68-17.5-1.56-19.8a.15.15,0,0,1,0-.21.15.15,0,0,1,.21,0c2.34,2.4,2.82,8.4,1.63,20a37.06,37.06,0,0,0,.55,10.42.13.13,0,0,1-.11.17Z"/><path class="cls-4" d="M107.08,90.24H42.6a.15.15,0,0,1-.15-.15A.15.15,0,0,1,42.6,90h64.48a.15.15,0,0,1,.15.14A.15.15,0,0,1,107.08,90.24Z"/><path class="cls-4" d="M78.76,59.87a3.62,3.62,0,0,1-.63,0,3.06,3.06,0,0,1-2.53-3.39,3.81,3.81,0,0,1,2-3.28.14.14,0,0,1,.2.07.15.15,0,0,1-.07.19,3.44,3.44,0,0,0-1.85,3,2.74,2.74,0,0,0,2.28,3.1,2.22,2.22,0,0,0,2.34-.73.14.14,0,0,1,.2,0,.15.15,0,0,1,.05.2A2.33,2.33,0,0,1,78.76,59.87Z"/><path class="cls-4" d="M83.39,60.56a4.88,4.88,0,0,1-3.28-1.1.15.15,0,0,1,0-.2.14.14,0,0,1,.21,0,4.55,4.55,0,0,0,3.17,1,3.71,3.71,0,0,0,2.68-1,4.24,4.24,0,0,0,.92-3.13,4.78,4.78,0,0,0-.49-2,3.65,3.65,0,0,0-1-1.08,6.86,6.86,0,0,1-.7-.63,1,1,0,0,1-.35-.65,2.12,2.12,0,0,1,.33-1l.21-.39c.14-.28.29-.57.41-.87a4.56,4.56,0,0,0,.28-2.46c-.3-1.7-3.43-2.4-3.46-2.41-1.56-1.36-4.19-2.14-6-1.15A2.81,2.81,0,0,0,75,46.6c0,.12,0,2.17,3.2,3.38a.15.15,0,0,1,.08.19.14.14,0,0,1-.18.08c-3.4-1.29-3.39-3.53-3.39-3.63a3.12,3.12,0,0,1,1.42-3.32c1.9-1,4.64-.25,6.21,1.12.39.09,3.33.83,3.66,2.64a4.81,4.81,0,0,1-.3,2.61,9.47,9.47,0,0,1-.43.91l-.11.22a2.38,2.38,0,0,0-.39,1,.78.78,0,0,0,.27.47,6.37,6.37,0,0,0,.67.6,3.77,3.77,0,0,1,1.1,1.18,5,5,0,0,1,.53,2.1,4.66,4.66,0,0,1-1,3.35,4.09,4.09,0,0,1-2.9,1.06Z"/><path class="cls-4" d="M109.08,72.78c-.17-.14-.15-.23-.08-.27q.41-.26.81-.54a.14.14,0,0,1,.2,0,.16.16,0,0,1,0,.21c-.26.19-.54.37-.82.54A.11.11,0,0,1,109.08,72.78Zm2.12-1.59c-.16-.11-.16-.2-.1-.25.41-.36.81-.75,1.19-1.15a.15.15,0,0,1,.21,0,.15.15,0,0,1,0,.21,16.71,16.71,0,0,1-1.21,1.17A.14.14,0,0,1,111.2,71.19Zm2.29-2.43c-.15-.08-.17-.17-.12-.23a16.51,16.51,0,0,0,1-1.35.16.16,0,0,1,.2,0,.15.15,0,0,1,0,.2c-.31.47-.65.93-1,1.37A.13.13,0,0,1,113.49,68.76ZM115.33,66c-.14-.06-.17-.15-.13-.22.27-.48.52-1,.75-1.48a.15.15,0,0,1,.19-.07.13.13,0,0,1,.07.19c-.23.51-.49,1-.75,1.5A.16.16,0,0,1,115.33,66Zm1.4-3c-.13,0-.17-.13-.14-.2.2-.52.38-1,.54-1.57a.14.14,0,0,1,.18-.1.14.14,0,0,1,.09.18c-.16.53-.34,1.07-.54,1.59A.14.14,0,0,1,116.73,63Zm1-3.2a.16.16,0,0,1-.15-.18c.13-.53.24-1.08.33-1.63a.14.14,0,0,1,.16-.12.14.14,0,0,1,.12.17c-.09.55-.2,1.11-.32,1.65A.16.16,0,0,1,117.7,59.75Zm.54-3.3a.16.16,0,0,1-.15-.16c.06-.55.09-1.11.11-1.66a.15.15,0,0,1,.29,0c0,.55,0,1.12-.11,1.68A.13.13,0,0,1,118.24,56.45Zm.11-3.34a.14.14,0,0,1-.14-.14c0-.56-.06-1.11-.11-1.66a.13.13,0,0,1,.13-.15.14.14,0,0,1,.16.13c0,.54.09,1.11.11,1.67a.15.15,0,0,1-.15.15ZM118,49.79a18.09,18.09,0,0,1-.47-1.75.15.15,0,0,1,.11-.18.16.16,0,0,1,.17.11c.13.54.24,1.1.34,1.65a.16.16,0,0,1-.12.17Zm-.78-3.25c-.3-.63-.49-1.15-.69-1.66a.14.14,0,0,1,.08-.19.15.15,0,0,1,.19.08c.2.51.39,1,.56,1.58a.15.15,0,0,1-.09.19ZM116,43.44c-.37-.57-.63-1.06-.91-1.54a.15.15,0,0,1,0-.2.15.15,0,0,1,.2,0c.28.48.55,1,.79,1.48a.15.15,0,0,1-.06.2Zm-1.69-2.87c-.43-.51-.77-1-1.13-1.38a.15.15,0,0,1,.23-.19c.36.44.7.89,1,1.34a.14.14,0,0,1,0,.2ZM112.18,38l-1.3-1.19a.14.14,0,0,1,.19-.21c.42.37.83.76,1.22,1.16a.14.14,0,0,1,0,.2A.13.13,0,0,1,112.18,38Zm-2.5-2.21-1.45-1a.14.14,0,1,1,.16-.24c.47.31.94.63,1.38,1a.17.17,0,0,1,0,.21A.18.18,0,0,1,109.68,35.78ZM106.88,34c-.54-.28-1-.53-1.55-.77a.14.14,0,0,1-.07-.19.15.15,0,0,1,.19-.07c.52.24,1,.5,1.5.76a.15.15,0,0,1,.06.2A.15.15,0,0,1,106.88,34Z"/><path class="cls-4" d="M101.4,29.58c-.26-.64-.44-1.16-.67-1.66a.14.14,0,0,1,.07-.19.13.13,0,0,1,.19.07,8,8,0,0,1,.55,1.6.15.15,0,0,1-.11.18Zm-15.17-2c-.15-.21-.1-.28,0-.29a2.47,2.47,0,0,0,1.4-.68.14.14,0,0,1,.2,0,.13.13,0,0,1,0,.2,2.77,2.77,0,0,1-1.56.76Zm-1.34-.7c-.15-.19-.16-.27-.16-.35a2.38,2.38,0,0,1,.46-1.28c.15-.21.24-.23.3-.18a.14.14,0,0,1,0,.2A2.39,2.39,0,0,0,85,26.53c0,.25,0,.33-.1.34ZM100,26.56c-.43-.49-.79-.91-1.19-1.3a.17.17,0,0,1,0-.21.15.15,0,0,1,.21,0,10.08,10.08,0,0,1,1.1,1.28.16.16,0,0,1,0,.21ZM88.57,25.45c-.13,0-.16-.12-.14-.2a6.09,6.09,0,0,0,.37-1.58c0-.08.09-.15.16-.13a.15.15,0,0,1,.13.16,6.71,6.71,0,0,1-.38,1.66A.17.17,0,0,1,88.57,25.45Zm9.08-1.23a15.53,15.53,0,0,0-1.49-.88.16.16,0,0,1-.07-.2.15.15,0,0,1,.2-.06,11,11,0,0,1,1.45.88.14.14,0,0,1-.09.26Zm-11,0c-.17-.13-.15-.22-.09-.26A8.24,8.24,0,0,1,88,23.13a.15.15,0,1,1,.11.27,7,7,0,0,0-1.45.76Zm3.08-1.25c-.16-.19-.11-.27,0-.29a12.92,12.92,0,0,1,1.67-.26.14.14,0,0,1,.16.12.14.14,0,0,1-.13.16,13.85,13.85,0,0,0-1.63.27Zm5-.17a5.64,5.64,0,0,0-.56-.1c-.34,0-.7-.06-1.1-.07a.15.15,0,0,1-.14-.15A.14.14,0,0,1,93,22.3c.41,0,.79,0,1.13.07.18,0,.37.06.57.1a.14.14,0,0,1,.1.18A.13.13,0,0,1,94.66,22.76ZM89,22.16c-.19-.65-.28-1.2-.41-1.77a.15.15,0,0,1,.29-.06A11.73,11.73,0,0,1,89.09,22a.15.15,0,0,1-.13.16Zm-.73-3.26c-.28-.53-.45-1-.64-1.38l-.11-.25a.16.16,0,0,1,.07-.2.14.14,0,0,1,.19.08l.12.25c.19.43.36.87.51,1.31a.13.13,0,0,1-.09.18Zm-40.09-.13c-.15-.06-.17-.15-.13-.22.29-.48.6-.95.93-1.4a.14.14,0,1,1,.23.17c-.32.44-.63.91-.91,1.38A.15.15,0,0,1,48.13,18.77Zm1.95-2.7c-.15-.09-.16-.18-.11-.24.37-.42.75-.84,1.15-1.23a.15.15,0,0,1,.21,0,.17.17,0,0,1,0,.21c-.4.39-.78.79-1.14,1.21A.16.16,0,0,1,50.08,16.07Zm36.74-.19c-.41-.54-.72-1-1.06-1.44a.14.14,0,0,1,0-.2.14.14,0,0,1,.2,0,16.4,16.4,0,0,1,1,1.4.15.15,0,0,1,0,.2ZM52.46,13.72c-.16-.11-.16-.2-.1-.25.43-.36.87-.71,1.33-1a.14.14,0,0,1,.2,0,.16.16,0,0,1,0,.21c-.45.32-.89.67-1.31,1A.16.16,0,0,1,52.46,13.72Zm32.33-.49c-.49-.44-.9-.82-1.32-1.16a.16.16,0,0,1,0-.21.14.14,0,0,1,.2,0A14.94,14.94,0,0,1,84.89,13a.13.13,0,0,1,0,.2A.14.14,0,0,1,84.79,13.23ZM55.16,11.76c-.17-.14-.15-.23-.08-.27.47-.29,1-.58,1.45-.84a.15.15,0,1,1,.14.26c-.49.26-1,.54-1.44.83Zm27.05-.64c-.34-.2-.57-.34-.79-.45l-.73-.38a.16.16,0,0,1-.07-.2.14.14,0,0,1,.19-.06l.75.38c.22.12.46.27.73.44a.14.14,0,0,1,0,.2A.15.15,0,0,1,82.21,11.12ZM58.1,10.18C57.93,10,58,9.94,58,9.91c.51-.24,1-.45,1.55-.65a.15.15,0,0,1,.19.08.14.14,0,0,1-.09.19c-.51.2-1,.41-1.53.64Zm21.13-.56c-.56-.22-1.09-.42-1.61-.59a.15.15,0,0,1-.1-.18.16.16,0,0,1,.19-.1c.53.18,1.06.38,1.57.59a.14.14,0,0,1,.08.19A.14.14,0,0,1,79.23,9.62ZM61.22,9c-.16-.18-.12-.26,0-.28.53-.17,1.07-.32,1.61-.45a.15.15,0,0,1,.18.1.15.15,0,0,1-.11.18c-.53.13-1.07.28-1.6.45Zm14.84-.43C75.49,8.42,75,8.3,74.4,8.2a.15.15,0,0,1,.06-.29c.55.11,1.1.23,1.64.37a.15.15,0,0,1,.1.18A.14.14,0,0,1,76.06,8.56Zm-11.6-.37c-.15-.19-.1-.27,0-.29.54-.1,1.1-.18,1.66-.25a.16.16,0,0,1,.16.13.15.15,0,0,1-.13.16c-.55.07-1.1.15-1.64.25Zm8.32-.25c-.56-.07-1.12-.12-1.67-.15A.16.16,0,0,1,71,7.63a.15.15,0,0,1,.16-.13c.56,0,1.12.08,1.67.15a.13.13,0,0,1,.12.16A.13.13,0,0,1,72.78,7.94Zm-5-.15c-.15-.22-.09-.29,0-.29.56,0,1.13,0,1.68,0a.14.14,0,0,1,.14.14.15.15,0,0,1-.14.15c-.55,0-1.11,0-1.66,0Z"/><path class="cls-4" d="M56.68,58.09a.14.14,0,0,1-.14-.14,25.75,25.75,0,0,1,.36-3.65c.3-1.44-.8-3.83-1.51-4.1a1,1,0,0,0-.94,0,.53.53,0,0,0-.17.53,5.51,5.51,0,0,0,.5,1.59A1.64,1.64,0,0,1,55,53.83c-.29.81-.73.93-.91.94a.56.56,0,0,1-.54-.29c-.15-.32-.72-2.68.18-3.91.45-.58.76-1,.32-1.47a1.07,1.07,0,0,0-1.29.07,3.69,3.69,0,0,0-1,1.82,7.19,7.19,0,0,0,0,4.14.15.15,0,0,1-.08.19.15.15,0,0,1-.19-.09,7.37,7.37,0,0,1,0-4.33,3.82,3.82,0,0,1,1.11-2,1.34,1.34,0,0,1,1.66,0,.88.88,0,0,1,.23,1,1.37,1.37,0,0,1,1.07,0c.89.34,2,2.91,1.68,4.43A26.07,26.07,0,0,0,56.83,58,.15.15,0,0,1,56.68,58.09ZM54,50.66c-.88,1.19-.36,3.41-.22,3.69a.28.28,0,0,0,.26.13c.25,0,.5-.29.66-.74a1.42,1.42,0,0,0-.16-1.25A5.65,5.65,0,0,1,54,50.83,1,1,0,0,1,54,50.66Z"/><path class="cls-4" d="M50.08,55.6c-.43-1.48-.66-4.43.51-5.83A2.13,2.13,0,0,1,52.37,49a.15.15,0,0,1,.14.15.14.14,0,0,1-.15.14,1.86,1.86,0,0,0-1.55.67c-1.09,1.31-.86,4.15-.59,5.47a.14.14,0,0,1-.11.17Z"/><path class="cls-4" d="M54.35,50c-.17-.14-.15-.23-.08-.27l1.43-.86a.15.15,0,1,1,.15.25l-1.43.86Zm2.86-1.72c-.16-.14-.14-.23-.07-.27l1.43-.86a.15.15,0,0,1,.15.25l-1.43.86Zm2.87-1.72c-.17-.14-.15-.23-.08-.27l1.43-.86a.15.15,0,0,1,.2,0,.14.14,0,0,1-.05.2l-1.43.86Zm2.86-1.72c-.16-.14-.14-.23-.07-.27l1.43-.86a.15.15,0,1,1,.15.25L63,44.77Zm2.87-1.72c-.17-.14-.15-.23-.08-.27l1.44-.86a.14.14,0,0,1,.19.05.14.14,0,0,1,0,.2l-1.44.86A.1.1,0,0,1,65.81,43.07Zm2.86-1.72c-.16-.14-.14-.23-.07-.27L70,40.22a.15.15,0,0,1,.15.25l-1.43.86A.12.12,0,0,1,68.67,41.35Z"/><path class="cls-4" d="M50.32,59.69a10.81,10.81,0,0,1-1.58-6.33,4.41,4.41,0,0,1,1.48-3,.16.16,0,0,1,.21,0,.14.14,0,0,1,0,.2A4.19,4.19,0,0,0,49,53.36a10.9,10.9,0,0,0,1.4,6.11.16.16,0,0,1,0,.2Z"/><path class="cls-4" d="M74.83,45.93a20.39,20.39,0,0,0-2.22-1.35c-1.38-.7-2.7-3.17-2.41-4.08a1.37,1.37,0,0,1,.66-.84.88.88,0,0,1-.66-.82,1.34,1.34,0,0,1,1.07-1.27,3.89,3.89,0,0,1,2.23.36,7.36,7.36,0,0,1,3.38,2.7.15.15,0,0,1,0,.2.15.15,0,0,1-.2,0A7.09,7.09,0,0,0,73.4,38.2a3.73,3.73,0,0,0-2.06-.35,1.07,1.07,0,0,0-.85,1c.05.6.61.65,1.34.66,1.53.06,3,2,3.17,2.3a.54.54,0,0,1-.11.6c-.12.13-.48.41-1.3.13a1.7,1.7,0,0,1-1-1,5.51,5.51,0,0,0-.92-1.39.54.54,0,0,0-.53-.2,1,1,0,0,0-.62.71c-.23.71,1,3.07,2.26,3.73a13.68,13.68,0,0,1,2.18,1.35.15.15,0,0,1,0,.21A.17.17,0,0,1,74.83,45.93Zm-3.11-6.16a6.08,6.08,0,0,1,1.09,1.57c.23.45.37.72.88.89s.82.14,1,0a.27.27,0,0,0,.06-.28c-.16-.35-1.61-2.08-2.92-2.13Z"/><path class="cls-4" d="M79.71,43.28a8.29,8.29,0,0,0-3.39-4.8c-1.19-.86-2.76-1.71-4.46-.7a.14.14,0,0,1-.2-.05.15.15,0,0,1,0-.2c1.85-1.1,3.52-.2,4.78.71a7.87,7.87,0,0,1,3.37,4.86.15.15,0,0,1-.11.17Z"/><path class="cls-4" d="M8.85,41a1,1,0,0,1-.75-.38L6.09,38a1,1,0,0,1-.18-.7,1,1,0,0,1,.37-.62l2.66-2a.94.94,0,0,1,1.32.19l2,2.66a1,1,0,0,1,.18.7,1,1,0,0,1-.37.62l-2.66,2A1,1,0,0,1,8.85,41Zm.66-6.27a.68.68,0,0,0-.39.13l-2.67,2a.64.64,0,0,0-.25.43.63.63,0,0,0,.12.48l2,2.67a.65.65,0,0,0,.91.13l2.67-2a.66.66,0,0,0,.13-.91L10,35A.66.66,0,0,0,9.51,34.74Z"/><path class="cls-4" d="M12.78,34.76a.15.15,0,0,1-.14-.15.71.71,0,0,0-.14-.42l-2-2.61a.69.69,0,0,0-.45-.27.72.72,0,0,0-.51.13L7,33.41a.67.67,0,0,0-.26.45.15.15,0,0,1-.17.12.14.14,0,0,1-.12-.16,1,1,0,0,1,.38-.64l2.61-2a1,1,0,0,1,.72-.19,1,1,0,0,1,.64.38l2,2.61a1,1,0,0,1,.2.6A.15.15,0,0,1,12.78,34.76Z"/><path class="cls-4" d="M9.72,34.36a.14.14,0,0,1-.14-.17l.36-2.56a.15.15,0,0,1,.16-.13.15.15,0,0,1,.12.17l-.36,2.57A.14.14,0,0,1,9.72,34.36Z"/><path class="cls-4" d="M70,55.67H57.92a.15.15,0,0,1-.15-.14.15.15,0,0,1,.15-.15H70a7,7,0,0,0,3.21-.75.14.14,0,0,1,.19.06.14.14,0,0,1-.06.19A7.17,7.17,0,0,1,70,55.67Z"/><path class="cls-4" d="M48.13,55.67H37.07a.15.15,0,0,1-.15-.14.15.15,0,0,1,.15-.15H48.13a.15.15,0,0,1,.14.15A.14.14,0,0,1,48.13,55.67Z"/><path class="cls-4" d="M30.59,55.2a9.71,9.71,0,0,1-2.48-1.38,10.23,10.23,0,0,1-1.95-2.62,7.58,7.58,0,0,1-.68-3.14V27.45a7.63,7.63,0,0,1,7.61-7.61h10.2a.15.15,0,0,1,.14.15.14.14,0,0,1-.14.14H33.09a7.34,7.34,0,0,0-7.32,7.32V48.06a7.24,7.24,0,0,0,.65,3,9.83,9.83,0,0,0,1.86,2.51,9.62,9.62,0,0,0,2.36,1.34.14.14,0,0,1,.08.18A.15.15,0,0,1,30.59,55.2Z"/><path class="cls-4" d="M77.44,38.47a.15.15,0,0,1-.15-.15V27.45A7.33,7.33,0,0,0,70,20.13H53a.14.14,0,0,1-.14-.14.15.15,0,0,1,.14-.15H70a7.63,7.63,0,0,1,7.62,7.61V38.32A.15.15,0,0,1,77.44,38.47Z"/><path class="cls-4" d="M102.3,83.68H87.66a.15.15,0,0,1-.15-.15.14.14,0,0,1,.15-.14H102.3a3.55,3.55,0,0,0,3.55-3.55v-11a3.56,3.56,0,0,0-3.55-3.55H91.18a.14.14,0,0,1-.14-.14.15.15,0,0,1,.14-.15H102.3a3.85,3.85,0,0,1,3.84,3.84v11A3.84,3.84,0,0,1,102.3,83.68Z"/><path class="cls-4" d="M6.09,37.35a.15.15,0,0,1-.15-.16l.5-3.49a.14.14,0,1,1,.28,0l-.49,3.49A.14.14,0,0,1,6.09,37.35Z"/><path class="cls-4" d="M12.3,38.15a.15.15,0,0,1-.15-.16l.5-3.49a.14.14,0,0,1,.16-.12.15.15,0,0,1,.13.16L12.44,38A.14.14,0,0,1,12.3,38.15Z"/><path class="cls-4" d="M75.37,28.94H27.7a.15.15,0,0,1-.15-.14.15.15,0,0,1,.15-.15H75.37a.15.15,0,0,1,.14.15A.14.14,0,0,1,75.37,28.94Z"/><path class="cls-4" d="M72.3,26.52A1.74,1.74,0,1,1,74,24.78,1.74,1.74,0,0,1,72.3,26.52Zm0-3.19a1.45,1.45,0,1,0,1.45,1.45A1.45,1.45,0,0,0,72.3,23.33Z"/><path class="cls-4" d="M67.32,26.52a1.74,1.74,0,1,1,1.74-1.74A1.74,1.74,0,0,1,67.32,26.52Zm0-3.19a1.45,1.45,0,1,0,1.45,1.45A1.45,1.45,0,0,0,67.32,23.33Z"/><path class="cls-4" d="M62.33,26.52a1.74,1.74,0,1,1,1.74-1.74A1.74,1.74,0,0,1,62.33,26.52Zm0-3.19a1.45,1.45,0,1,0,1.45,1.45A1.45,1.45,0,0,0,62.33,23.33Z"/><path class="cls-4" d="M71.3,50H56.21a.14.14,0,0,1-.14-.15.14.14,0,0,1,.14-.14H71.15V44.27a.15.15,0,0,1,.15-.14.14.14,0,0,1,.14.14V49.8A.14.14,0,0,1,71.3,50Z"/><path class="cls-4" d="M51.92,48.35a.14.14,0,0,1-.14-.14V37a.15.15,0,0,1,.14-.15H69.8A.15.15,0,0,1,70,37a.15.15,0,0,1-.15.14H52.07v11A.15.15,0,0,1,51.92,48.35Z"/><path class="cls-4" d="M44.45,52a.14.14,0,0,1-.14-.14V31.34a.14.14,0,0,1,.14-.14.15.15,0,0,1,.15.14v20.5A.15.15,0,0,1,44.45,52Z"/><path class="cls-4" d="M36.36,38.88H30.59a.15.15,0,0,1-.15-.15V33a.15.15,0,0,1,.15-.14h5.77a.15.15,0,0,1,.15.14v5.77A.15.15,0,0,1,36.36,38.88Zm-5.63-.29h5.49V33.11H30.73Z"/><path class="cls-4" d="M36.36,48.82H30.59a.15.15,0,0,1-.15-.15V42.9a.15.15,0,0,1,.15-.15h5.77a.15.15,0,0,1,.15.15v5.77A.15.15,0,0,1,36.36,48.82Zm-5.63-.29h5.49V43H30.73Z"/><path class="cls-4" d="M48,84.71a3.27,3.27,0,1,1,3.27-3.27A3.26,3.26,0,0,1,48,84.71Zm0-6.25a3,3,0,1,0,3,3A3,3,0,0,0,48,78.46Z"/><path class="cls-4" d="M16.5,19.17c-.16-.1-.16-.19-.11-.25l2.73-2.72a.14.14,0,0,1,.2.2L16.6,19.13A.14.14,0,0,1,16.5,19.17Z"/><path class="cls-4" d="M19.22,19.17c-.1,0-2.83-2.77-2.83-2.77a.15.15,0,0,1,0-.2.14.14,0,0,1,.21,0l2.72,2.72a.15.15,0,0,1,0,.21A.13.13,0,0,1,19.22,19.17Z"/><path class="cls-4" d="M67.91,79.74a5.17,5.17,0,0,0-5-3.22,5,5,0,0,0-4.77,2.85.15.15,0,0,1-.19.08.14.14,0,0,1-.08-.19,5.3,5.3,0,0,1,5-3,5.21,5.21,0,0,1,5.15,3.33.14.14,0,0,1-.09.18Z"/></svg>