<svg id="Layer_1" data-name="Layer 1" xmlns="http://www.w3.org/2000/svg" viewBox="0 0 104.84 81.31"><defs><style>.cls-1{fill:#f8dc8c;}.cls-2{fill:#fc1a3d;}.cls-3{fill:#fff;}.cls-4{fill:#9a1c21;}</style></defs><path class="cls-1" d="M90.11,62.24a6.5,6.5,0,1,1-7.84-4.8A6.5,6.5,0,0,1,90.11,62.24Z"/><path class="cls-1" d="M58.27,6.76A48.16,48.16,0,0,1,76.22,5,32.15,32.15,0,0,1,89.43,9c9.12,5.26,15.21,15.35,14,25.9-1.09,9.85-5.56,17.41-17.94,18-6.46.3-11.64,3.34-15.77,9.53-2.25,3.38-6.71,4.8-10.65,5.94s-8.28.78-12.28.46a25.93,25.93,0,0,1-12.28-3.91,20.6,20.6,0,0,1-8.91-17.24c0-6.45,2.52-12.65,6.09-17.93,3.44-5.09,6.16-10.29,10.88-14.47A41.32,41.32,0,0,1,58.27,6.76Z"/><path class="cls-2" d="M62.24,48.38H46.47A9.19,9.19,0,0,0,48.1,56.5a16,16,0,0,1,3.17,8.8H32.72V33.53H22.8v5.73h3.79S22,47.77,20.48,49.84s-6.18,13,9.36,19.67h42.1S72.2,56.37,62.24,48.38Z"/><path d="M1.18,79.22h83.9a.25.25,0,0,0,0-.49H1.18a.25.25,0,1,0,0,.49Z"/><circle cx="20.01" cy="69.15" r="9.83" transform="translate(-50.79 56.12) rotate(-63.43)"/><path class="cls-3" d="M27.33,69.15A7.33,7.33,0,1,1,20,61.82,7.32,7.32,0,0,1,27.33,69.15Z"/><path d="M24.22,69.15A4.22,4.22,0,1,1,20,64.93,4.22,4.22,0,0,1,24.22,69.15Z"/><path class="cls-2" d="M31.52,69.51H8.5a11.51,11.51,0,1,1,23,0Z"/><path d="M8.5,69.76a.25.25,0,0,0,.24-.25,11.27,11.27,0,0,1,22.53,0,.25.25,0,1,0,.49,0,11.76,11.76,0,0,0-23.51,0A.25.25,0,0,0,8.5,69.76Z"/><circle cx="68.62" cy="69.15" r="9.83" transform="translate(-28.8 68.77) rotate(-45)"/><path class="cls-3" d="M75.94,69.15a7.32,7.32,0,1,1-7.32-7.33A7.32,7.32,0,0,1,75.94,69.15Z"/><path d="M72.83,69.15a4.21,4.21,0,1,1-4.21-4.22A4.22,4.22,0,0,1,72.83,69.15Z"/><path class="cls-2" d="M80.25,69.51h-23a11.51,11.51,0,0,1,23,0Z"/><path d="M57.23,69.76a.25.25,0,0,0,.25-.25,11.27,11.27,0,0,1,22.53,0,.25.25,0,1,0,.49,0,11.76,11.76,0,0,0-23.51,0A.25.25,0,0,0,57.23,69.76Z"/><rect x="61.73" y="49.07" width="24.32" height="1.83"/><path d="M65.54,12.64a3.2,3.2,0,1,1,3.2,3.2A3.2,3.2,0,0,1,65.54,12.64Zm.49,0a2.71,2.71,0,1,0,2.71-2.71A2.71,2.71,0,0,0,66,12.64Z"/><path d="M47.27,7.6A4.73,4.73,0,1,0,51.1,2.12,4.72,4.72,0,0,0,47.27,7.6Z"/><path class="cls-3" d="M55.39,13.77l-.69-3.5c-2.41,0-2.17-2.07-2.17-2.07-.47-.26-.59-1.06-.61-1.87a1.52,1.52,0,0,0-2.38-1.22l-.14.1a3.16,3.16,0,0,1-1.9.67c0,.36,0,.41-.08.86-.28,3.38-.94,6.09,2.37,5.73l.3,1.76Z"/><path d="M50.09,14.48a.26.26,0,0,0,.25-.29L50,12.43a.24.24,0,0,0-.27-.2,2.2,2.2,0,0,1-1.83-.38c-.68-.68-.54-2.22-.37-4,0-.35.07-.72.1-1.09s0-.46.07-.67l0-.19A1.83,1.83,0,0,1,48,5a.24.24,0,1,0-.29-.39,2.09,2.09,0,0,0-.49,1.21l0,.19c0,.21,0,.32-.07.68s-.06.73-.09,1.08c-.19,1.91-.35,3.56.5,4.39a2.47,2.47,0,0,0,2,.55l.27,1.53A.25.25,0,0,0,50.09,14.48Z"/><path d="M55.39,13.94a.25.25,0,0,0,.24-.3l-.69-3.42a.25.25,0,1,0-.48.1l.69,3.42A.25.25,0,0,0,55.39,13.94Z"/><path class="cls-3" d="M53.59,8.78a1.2,1.2,0,0,1-1.54.69,1.19,1.19,0,1,1,.85-2.23A1.21,1.21,0,0,1,53.59,8.78Z"/><path d="M52.19,8.72a.25.25,0,0,0,.14,0L53,8.27A.25.25,0,0,0,53,7.93a.24.24,0,0,0-.34-.07l-.63.41a.24.24,0,0,0-.06.34A.23.23,0,0,0,52.19,8.72Z"/><path d="M49.79,8.05a.28.28,0,1,1-.29-.27A.29.29,0,0,1,49.79,8.05Z"/><path d="M49.79,12.72a13.21,13.21,0,0,0,1.68-.33.25.25,0,0,0,.18-.3.24.24,0,0,0-.3-.17,14.46,14.46,0,0,1-1.58.31.25.25,0,0,0-.23.26A.25.25,0,0,0,49.79,12.72Z"/><path d="M50.14,13.83a1,1,0,0,0,1.39-.53,1.76,1.76,0,0,0,0-1.18l-1.79.35Z"/><path d="M47.82,9.69a.24.24,0,0,0,.24-.22l.16-1.89a.25.25,0,1,0-.49,0l-.16,1.89a.25.25,0,0,0,.23.26Z"/><path class="cls-4" d="M56.58,6a4.79,4.79,0,0,0-9.5.48h9.56A3.86,3.86,0,0,0,56.58,6Z"/><path d="M48.15,10.31a1,1,0,0,0,.74-.55.25.25,0,0,0-.11-.33.26.26,0,0,0-.33.12s-.13.25-.33.27a.24.24,0,0,0-.21.27A.24.24,0,0,0,48.15,10.31Z"/><path d="M62,51.65H46.73a3,3,0,0,1,0-6H62a3,3,0,1,1,0,6Z"/><path class="cls-3" d="M24,36.39c0,1.59-.54,2.87-1.2,2.87S21.6,38,21.6,36.39s.53-2.86,1.2-2.86S24,34.81,24,36.39Z"/><path d="M21.35,36.39c0-1.77.62-3.1,1.45-3.1s1.44,1.33,1.44,3.1-.62,3.11-1.44,3.11S21.35,38.17,21.35,36.39Zm.49,0c0,1.5.51,2.62,1,2.62s.95-1.12.95-2.62-.5-2.61-.95-2.61S21.84,34.9,21.84,36.39Z"/><path d="M75.09,60.16a.26.26,0,0,0,.23-.16l4.56-11.25a.25.25,0,0,0-.13-.32.24.24,0,0,0-.32.13L74.86,59.82a.25.25,0,0,0,.14.32Z"/><path d="M41.11,6.67H56.49a.25.25,0,1,0,0-.49H41.11a.25.25,0,1,0,0,.49Z"/><path class="cls-3" d="M47.36,59l-.78,6.36H32.35a.44.44,0,0,1-.5-.44c0-3.93,5.59-3.8,5.59-3.8l.42-2.73Z"/><path class="cls-4" d="M46.7,65.34H32.47a.46.46,0,0,1-.51-.45c0-3.92,5.6-3.79,5.6-3.79l0-.17h9.66Z"/><path d="M31.72,64.9a3.3,3.3,0,0,1,1-2.48c1.42-1.39,3.89-1.55,4.64-1.56l.38-2.53a.24.24,0,0,1,.26-.21l9.5.61a.26.26,0,0,1,.17.09.22.22,0,0,1,.06.19l-.78,6.36a.24.24,0,0,1-.24.21H32.47A.69.69,0,0,1,31.72,64.9ZM47.2,59.21l-9-.58-.38,2.51a.25.25,0,0,1-.25.21s-3-.05-4.49,1.42a2.83,2.83,0,0,0-.85,2.12c0,.18.16.2.26.2h14Z"/><path class="cls-3" d="M37.5,39.76c0-.9.52-4.88,5.64-4.88l7.28,0H61.07a14.42,14.42,0,0,1,1.33,5.83V41a7.47,7.47,0,0,1-7.51,7.2h-6L48,59.53H35.68Z"/><path d="M35.5,59.7a.26.26,0,0,1-.06-.19l1.81-19.77c0-.87.49-5.11,5.89-5.11H61.07a.25.25,0,0,1,.22.13,14.42,14.42,0,0,1,1.36,5.94c0,.11,0,.22,0,.32a7.75,7.75,0,0,1-7.75,7.43H49.11l-.82,11.11a.25.25,0,0,1-.25.23H35.68A.25.25,0,0,1,35.5,59.7ZM48.63,48.18a.25.25,0,0,1,.25-.23h6a7.25,7.25,0,0,0,7.26-7c0-.1,0-.2,0-.31a14.35,14.35,0,0,0-1.24-5.58H43.14c-5,0-5.37,3.87-5.4,4.66L36,59.29H47.82Z"/><path d="M48.88,48.44a.21.21,0,0,0,.15,0,.25.25,0,0,0,0-.35l-2.9-3.49a.26.26,0,0,0-.35,0,.25.25,0,0,0,0,.35l2.9,3.49A.27.27,0,0,0,48.88,48.44Z"/><path class="cls-4" d="M60.83,17.5a8.29,8.29,0,0,0-9.17-3.73s-6-.74-8.15,4.94c-1.76,4.76-4.17,3.81-3.71,1.64l-7-3.29s-9.2,11.82-1.68,15.17a10.78,10.78,0,0,0,4.62.88l-.87,6.42s11.91,3,17.41.56c4.88-2.14,5-5.23,5-5.23H61.4S63,21.13,60.83,17.5Z"/><path d="M34.81,39.77a.26.26,0,0,1-.19-.27l.84-6.14a11.11,11.11,0,0,1-4.44-.9,4.84,4.84,0,0,1-2.93-3.32c-1.2-4.81,4.28-11.93,4.51-12.23a.25.25,0,0,1,.3-.07l7,3.29a.24.24,0,0,1,.13.27c-.15.74.05,1.34.49,1.47.68.19,1.83-.74,2.75-3.24,2-5.55,7.83-5.16,8.37-5.11A8.46,8.46,0,0,1,61,17.38c2.21,3.66.67,17,.6,17.51a.24.24,0,0,1-.24.22H57.53c-.14.78-.91,3.35-5.16,5.2a15.56,15.56,0,0,1-6,1A54.7,54.7,0,0,1,34.81,39.77ZM60.62,17.63A8,8,0,0,0,51.71,14h-.1c-.42,0-5.9-.55-7.87,4.79-1.11,3-2.5,3.79-3.35,3.54a1.55,1.55,0,0,1-.86-1.85l-6.66-3.12c-.8,1.07-5.36,7.44-4.3,11.65a4.37,4.37,0,0,0,2.65,3,10.56,10.56,0,0,0,4.51.86.2.2,0,0,1,.19.08.22.22,0,0,1,.06.19l-.84,6.21c1.63.38,12.08,2.68,17,.51,4.66-2,4.89-5,4.89-5a.23.23,0,0,1,.24-.23h3.87C61.37,32.86,62.6,20.9,60.62,17.63Z"/><path class="cls-3" d="M57.31,35.11a.25.25,0,0,0,.23-.15c1.47-3.64,2.07-11.86,2.09-12.2a.25.25,0,0,0-.23-.27.25.25,0,0,0-.26.23c0,.09-.61,8.49-2.06,12.05a.24.24,0,0,0,.14.32Z"/><rect class="cls-3" x="72.45" y="22.15" width="14.64" height="11.43"/><path d="M72.2,33.58V22.15a.25.25,0,0,1,.25-.24H87.09a.25.25,0,0,1,.25.24V33.58a.25.25,0,0,1-.25.25H72.45A.25.25,0,0,1,72.2,33.58ZM86.84,22.4H72.69V33.34H86.84Z"/><rect class="cls-3" x="66.75" y="33.58" width="20.34" height="15.49"/><path d="M66.51,49.07V33.58a.24.24,0,0,1,.24-.24H87.09a.25.25,0,0,1,.25.24V49.07a.25.25,0,0,1-.25.25H66.75A.25.25,0,0,1,66.51,49.07ZM86.84,33.83H67v15H86.84Z"/><rect class="cls-2" x="84.06" y="12.56" width="6.94" height="6.94" transform="translate(9.24 58.34) rotate(-38.77)"/><path d="M86.81,21.07l-4.35-5.41a.24.24,0,0,1,0-.35L87.91,11a.25.25,0,0,1,.34,0l4.35,5.41a.24.24,0,0,1,0,.35l-5.41,4.35a.27.27,0,0,1-.15.05A.23.23,0,0,1,86.81,21.07ZM88,11.5l-5,4,4,5,5-4Z"/><path d="M75.46,38.89h2.93a.25.25,0,0,0,.24-.25V33.58a.25.25,0,0,0-.49,0V38.4H75.7V33.58a.25.25,0,0,0-.49,0v5.06A.25.25,0,0,0,75.46,38.89Z"/><path d="M72.45,25.39H87.09a.25.25,0,0,0,0-.5H72.45a.25.25,0,0,0,0,.5Z"/><path class="cls-3" d="M34.41,22.32a3.87,3.87,0,0,0,5.26-1.7c.94-1.89,2.65-6.34,2.65-6.34s1-3.3,1.14-4c.5-1.91.78-3.19-.41-3.49s-2.16,1.58-3.43,4.65a2.07,2.07,0,0,0-1.79-1c-1.19,0-1.42.57-1.42.57s-2-.1-2.46,1.3c0,0-1.62.9-1.15,2.27A8.23,8.23,0,0,0,33.44,16l-.54.88a3.88,3.88,0,0,0,1.51,5.45Z"/><path d="M34.3,22.54a4.13,4.13,0,0,1-1.61-5.8l.47-.75a10,10,0,0,1-.6-1.39,2.27,2.27,0,0,1,1.19-2.52c.45-1.26,2-1.37,2.53-1.37a2,2,0,0,1,1.55-.58,2.16,2.16,0,0,1,1.73.8c1.21-2.9,2.15-4.74,3.55-4.39a1.25,1.25,0,0,1,.82.57c.39.65.18,1.65-.23,3.22-.18.71-1.11,3.89-1.15,4s-1.73,4.48-2.66,6.36a4.13,4.13,0,0,1-2.41,2.08,4.33,4.33,0,0,1-1.28.2A4.14,4.14,0,0,1,34.3,22.54Zm8.93-12.33c.29-1.14.59-2.32.28-2.85A.77.77,0,0,0,43,7c-1.08-.28-2,1.69-3.14,4.5a.24.24,0,0,1-.22.15.25.25,0,0,1-.23-.12,1.84,1.84,0,0,0-1.56-.93c-1,0-1.2.43-1.2.43a.27.27,0,0,1-.24.15s-1.85-.08-2.21,1.12a.24.24,0,0,1-.12.14c-.06,0-1.44.83-1,2a9.22,9.22,0,0,0,.62,1.43.23.23,0,0,1,0,.25l-.54.88a3.63,3.63,0,1,0,6.34,3.51c.9-1.81,2.55-6.07,2.64-6.31S43.05,10.89,43.23,10.21Z"/><path d="M39.76,16.41a.23.23,0,0,0,.16-.06A.25.25,0,0,0,40,16s-1.9-2.21-1.78-3.52a.85.85,0,0,1,.3-.59.93.93,0,0,1,.78-.2c1.28.25,2.65,2.64,2.67,2.66a.24.24,0,0,0,.42-.24c-.06-.11-1.5-2.61-3-2.9a1.41,1.41,0,0,0-1.18.3,1.28,1.28,0,0,0-.47.92c-.14,1.52,1.8,3.8,1.89,3.89A.21.21,0,0,0,39.76,16.41Z"/><path d="M38.4,14.41a.2.2,0,0,0,.13,0,.24.24,0,0,0,.08-.34l-2-3.21a.25.25,0,0,0-.34-.08.26.26,0,0,0-.08.34l2,3.21A.25.25,0,0,0,38.4,14.41Z"/><path d="M37.08,16.56a1.77,1.77,0,0,0,.77-.18,2,2,0,0,0,1.07-1.74.25.25,0,0,0-.49,0,1.52,1.52,0,0,1-.8,1.3,1.19,1.19,0,0,1-1,.06,2,2,0,0,1-1.07-1c-.3-.65-1.36-2.78-1.41-2.87a.25.25,0,0,0-.33-.11.25.25,0,0,0-.11.33s1.11,2.21,1.4,2.85a2.51,2.51,0,0,0,1.36,1.25A1.78,1.78,0,0,0,37.08,16.56Z"/><path d="M34.81,17.15a1.18,1.18,0,0,0,.31,0,1.2,1.2,0,0,0,.9-1.43.25.25,0,0,0-.49.06.71.71,0,0,1-.56.9c-.61.19-1.32-.77-1.33-.78a.25.25,0,0,0-.34-.06.25.25,0,0,0-.06.35S34,17.15,34.81,17.15Z"/><path class="cls-3" d="M36,31.35c.11,0,8.12-.9,8.48-7,0-.33,0-.66,0-1,.11-2.62.22-4.89,2.82-7.21a9.44,9.44,0,0,1,2.25-1.45.24.24,0,0,0-.2-.44A9.42,9.42,0,0,0,47,15.79c-2.75,2.45-2.87,4.93-3,7.55,0,.32,0,.65,0,1-.34,5.68-7.94,6.53-8,6.54a.23.23,0,0,0-.22.26A.25.25,0,0,0,36,31.35Z"/><path class="cls-3" d="M37.11,31.1a33.16,33.16,0,0,0-3.86.2,1.88,1.88,0,0,1-.63,0A12.33,12.33,0,0,0,27,31.08a4.64,4.64,0,0,0-3.2,4.64c0,4.34,2.06,4.47,3,4.16L27,40a2.45,2.45,0,0,0,2.52-.1s1.8.58,1.93-1.1a18.37,18.37,0,0,0,5,.87,4.29,4.29,0,1,0,.7-8.56Z"/><path d="M26.89,40.22l-.17-.07a2.21,2.21,0,0,1-1.86-.32c-.9-.66-1.36-2-1.36-4.11a4.91,4.91,0,0,1,3.39-4.87,12.33,12.33,0,0,1,5.73.16h.05a2,2,0,0,0,.55,0,34.89,34.89,0,0,1,3.91-.21,4.54,4.54,0,1,1-.74,9,21.74,21.74,0,0,1-4.77-.76,1.31,1.31,0,0,1-.55.85,2,2,0,0,1-1.54.16,3,3,0,0,1-1.35.38A3.3,3.3,0,0,1,26.89,40.22Zm2.69-.56a1.69,1.69,0,0,0,1.22-.08,1,1,0,0,0,.38-.81.28.28,0,0,1,.13-.2.24.24,0,0,1,.23,0c.43.23,1.62.56,4.9.85a4.06,4.06,0,0,0,4.4-4.1,4,4,0,0,0-3.75-4,33.58,33.58,0,0,0-3.82.21,2.41,2.41,0,0,1-.71-.05h-.05a11.9,11.9,0,0,0-5.5-.17,4.43,4.43,0,0,0-3,4.4c0,1.88.4,3.16,1.16,3.71a1.68,1.68,0,0,0,1.52.22.3.3,0,0,1,.23,0l.17.08a2.25,2.25,0,0,0,2.32-.1.2.2,0,0,1,.11,0Z"/><circle cx="31.71" cy="36.62" r="2.41" transform="translate(-16.61 33.15) rotate(-45)"/><path d="M26.74,40.13a.23.23,0,0,0,.14,0,.25.25,0,0,0,.07-.34c-2-2.91-1.14-4.85-1.13-4.87a.25.25,0,0,0-.13-.32.24.24,0,0,0-.32.12c0,.09-1,2.19,1.17,5.34A.24.24,0,0,0,26.74,40.13Z"/><path d="M29.5,40.13a.24.24,0,0,0,.15-.44A4.18,4.18,0,0,1,28.12,35a.24.24,0,0,0-.14-.32.25.25,0,0,0-.32.13,4.7,4.7,0,0,0,1.69,5.31A.23.23,0,0,0,29.5,40.13Z"/></svg>