<?xml version="1.0" encoding="utf-8"?>
<!-- Generator: Adobe Illustrator 26.0.1, SVG Export Plug-In . SVG Version: 6.00 Build 0)  -->
<svg version="1.1" id="Layer_1" xmlns="http://www.w3.org/2000/svg" xmlns:xlink="http://www.w3.org/1999/xlink" x="0px" y="0px"
	 viewBox="0 0 750 750" style="enable-background:new 0 0 750 750;" xml:space="preserve">
<style type="text/css">
	.st0{fill-rule:evenodd;clip-rule:evenodd;fill:#F282B4;}
	.st1{fill-rule:evenodd;clip-rule:evenodd;fill:#FFFFFF;}
	.st2{fill:#FFFFFF;}
	.st3{fill-rule:evenodd;clip-rule:evenodd;fill:#00160A;}
</style>
<path class="st0" d="M517.3,94.1C399.9,74.9,411.8,267.7,255.6,241.3C95.8,214.3,48,404.8,95.8,510
	c51.6,113.6,381.9,174.7,500.1,90.9C728.9,506.6,737.6,130.3,517.3,94.1z"/>
<path class="st1" d="M256.5,301.2c0,0,13.5,29.4,25.2,43c16.6,19.3,40.4,35.4,49.3,50.5c21.2,35.8,11.8,53.4,11.8,53.4
	s-11.2-38.6-27.2-57.5c-12.2-14.4-36.3-30.4-44.3-42.2c-8.8-13.1-16.2-27-21.9-41.7L256.5,301.2z"/>
<path class="st2" d="M423,614.1c-55.3,2.6-110.6,6-165.8,10.3c-7.1,0.7-12.3,0.8-12,1.5c-5-0.3-14-3-19.2-0.9
	c3.9,0.9,11.4,4.4,11.8,8.4c-52.1,3-104.4,1-156.1-6c50.6,3.5,101.3,4.6,152.1,3.5c-6.6-4.4-14.8-5.8-22.6-4
	c9.9-4.8,21.2-6.2,32-4.1c-8.2-9.2-13.6-20.7-15.4-32.9c8.2,5.6,14.7,13.5,18.6,22.7c-0.4-17.1,11.7-33.8,28.2-38.7
	c-10.5,13.5-16,30.3-15.3,47.5c52.4-4.5,104.9-7.6,157.5-9.4c-2.6-2.1-4.3-5.1-4.8-8.4c2.7-2.2,6.3-2.8,9.5-1.6
	c2.6-18.7,14.8-34.6,32.1-41.9c-9.5,10.8-16.1,24-18.9,38.1c3-1.8,6.6-2.2,9.9-1.2c-1,4-3.2,7.6-6.5,10.1
	c65.1-14.9,133.4,10.5,199.5,1.2c-33.4,10.8-69.4,2.4-104.3-1.2C482.2,602,433.1,612,423,614.1z"/>
<path class="st2" d="M560.7,218.2c0.6-5.4,5.3-9.5,10.1-12.1c8.8-4.8,18.9-6.6,28.8-5.2c4.4,0.6,7.8-3.6,11-6.8
	c8.2-8.2,20.8-11.2,32.3-9.3s21.9,8.2,30.3,16.3s14.9,17.9,21,27.8c1.3,2.1,4.2,2.1,6.7,2c5.3-0.3,10.8-0.1,15.4,2.5s7.8,8.3,6,13.2
	c-1,2.3-2.7,4.2-4.8,5.4c-4.2,2.5-9.3,3-14.2,3.4l-98.2,7.5c-9,0.7-18.1,1.4-26.8-0.5s-17.4-6.5-21.9-14.3s-3.8-18.8,3.2-24.6
	C560.7,222.3,560.5,220.1,560.7,218.2"/>
<path class="st2" d="M451.1,268.4c7.1,8.2,44,5.3,45.2,20.4l-12.7,3.5c-6.9,1.9-13.8,3.8-20,7.3c-2.9,1.6-6.4,3.6-9.3,2.1
	c-11.5-6-24.8-7.8-37.7-6.6s-25.3,5.4-37,11c-6.1,2.9-13,6.2-19.3,3.9c-23.3-8.7-49-8.6-72.2,0.4c-4.1,1.6-8.6-0.2-12.6-1.9l-13-5.7
	c5.6-6.4,29.4-15.3,34.3-21.4c0.9-1.1,32.7-23.2,67.6-13.2C366,267.2,420.4,258,451.1,268.4z"/>
<path class="st1" d="M308.3,372.7c-20.3-19.3-43.6-38.8-49.1-66.2c10,25.7,32.2,44.2,51.8,63.8s38,43.9,36.8,71.4
	c32-7,64.9-8.6,97.3-4.8c3.3-15,13-27.6,20.6-40.9c18.8-33,25.2-71.5,31.2-109c1.5-9.5-10.1-15.1-19.4-17.5l-27.9-7.1
	c-17.5-4.5-35.6-8.9-53.4-5.9c-12,2.1-23.9,7.5-35.9,5.5c-19.4-3.2-39.2,0.8-55.8,11.4c-8.2,5.3-15.5,12.1-24.5,16
	c-19,8.2-35.4,21.3-47.6,38c-6.3-32.7,4.3-66.1,16.8-96.9c13.9-34.5,31.4-69.4,61.3-91.5c43.9-32.4,101-26.1,146.7,3.8
	s73.5,79.1,82.5,132.9c1,6.3,1.8,13-1.2,18.6s-4.1,8.9-8.9,4.7c-4.1-3.5-8.5-7.2-13.8-8.2s-11.8,1.7-12.8,7
	c-7.5,38.9-15.5,78.7-36.4,112.3c-5.5,8.8-11.8,17.1-15.3,26.8c-2.7,7.4-3.5,15.4-4.4,23.2c-1.7,16.4-3.5,32.7-5.2,49
	c-0.7,6.9-1.8,14.4-6.8,19.2c-4.8,4.6-11.9,5.4-18.5,6l-64.2,5.7c-3.8,0.3-8.2,0.5-11-2.1c-2.1-2-2.8-5.2-3.2-8.1
	c-3-20.8-3-42,0-62.8c4.3-29.8-9-60.4-30.1-82c-11-11.3-23.9-20.5-34.8-31.7s-20.1-25.4-20.8-41.1c7.6,20.8,21.1,38.8,38.9,51.9
	c26.7,19.7,45.1,48.5,51.8,81C348.3,417.5,328.5,391.9,308.3,372.7z"/>
<path class="st3" d="M253.6,435.5c-3.2-1.8-4.4-5.7-5.2-9.3c-4.1-17.5-7.2-35.2-9.1-53.1c-0.1-1.1-0.2-2.5,0.6-3.2
	c1.8,2.1,2.1,5,2.4,7.7C244.2,397.2,248,416.6,253.6,435.5z"/>
<path class="st3" d="M508.1,376c2.9-9.7,5.1-19.7,6.4-29.8c0.2-1.4,0.7-3.1,2.1-3.2c0.8,0.7,0.7,2,0.6,3c-1.3,9-3.1,17.9-5.5,26.6
	C511.2,374.4,509.9,376.7,508.1,376L508.1,376z"/>
<path class="st3" d="M434,609.8c1.6-4.3,4.5-8.1,8.2-10.8c-4,0.3-7.8,2-10.6,4.8c1.6-12.2,5.4-24,11.4-34.8
	c-11.1,9.2-18.1,22.6-19.3,37c-2.7-1.5-5.9-1.9-8.8-1l8.1,9.1c-55.3,2.6-110.5,6-165.7,10.2c-2.8-15.5,0.8-31.4,10-44.1
	c-12.2,8.8-19.4,23.1-19.3,38.2c-5.4-7.2-8.1-17.5-16.2-21.6c1.4,7.1,3.1,8.7,12.6,26.9c0.3,0.7,0.6,1.5,0.9,2.2
	c-5-0.3-14-3-19.2-0.9c3.9,0.9,11.4,4.4,11.8,8.4c-52.1,3-104.4,1-156.1-6c50.6,3.5,101.3,4.6,152.1,3.5c-6.6-4.4-14.8-5.8-22.6-4
	c9.9-4.8,21.2-6.2,32-4.1c-8.2-9.2-13.6-20.7-15.4-32.9c8.2,5.6,14.7,13.5,18.6,22.7c-0.4-17.1,11.7-33.8,28.2-38.7
	c-10.5,13.5-16,30.3-15.3,47.5c52.4-4.5,104.9-7.6,157.5-9.4c-2.6-2.1-4.3-5.1-4.8-8.4c2.7-2.2,6.3-2.8,9.5-1.6
	c2.6-18.7,14.8-34.6,32.1-41.9c-9.5,10.8-16.1,24-18.9,38.1c3-1.8,6.6-2.2,9.9-1.2c-1,4-3.2,7.6-6.5,10.1
	c65.1-14.9,133.4,10.5,199.5,1.2c-33.4,10.8-69.4,2.4-104.3-1.2C500.2,603.7,466.8,604.6,434,609.8z"/>
<path class="st3" d="M463.3,371.9c0.8,1.2,0.5,2.8,0.2,4.1c-1.9,8.3-5.3,16.2-10,23.4c-1.3-1.6-0.1-4,1-5.7c2.9-4.7,5-9.9,6.3-15.3
	C461.4,376.1,461.8,373.6,463.3,371.9L463.3,371.9z"/>
<path class="st3" d="M450.8,386.9c-1.2-1-0.7-3-0.1-4.5c1.9-4.8,3.1-9.7,3.7-14.8c0.2-1.7,0.5-3.6,2-4.4c0.7,0.6,0.6,1.8,0.4,2.7
	C455.6,373.2,454.4,380.5,450.8,386.9z"/>
<path class="st3" d="M350.8,413.8c0.4-0.3,0.9,0,1.2,0.4c1.5,1.6,2.3,3.6,2.4,5.7c-2-1.1-3.4-3-3.8-5.2
	C350.5,414.3,350.6,414,350.8,413.8z"/>
<path class="st3" d="M504.9,349.5c-0.5,9.3-2.6,18.4-6.2,26.9c-0.1,0.2-0.2,0.4-0.4,0.6c-0.5,0.5-1.4,0-1.6-0.7
	c-0.1-0.7,0-1.4,0.3-2c2.5-6.4,4.2-13.1,5-19.9C502.3,352.4,503,349.8,504.9,349.5L504.9,349.5z"/>
<path class="st3" d="M347.4,397.8c-3.4-4.7-6.2-9.8-8.2-15.2c-0.3-0.7-0.1-1.9,0.6-1.7c0.3,0.1,0.4,0.3,0.6,0.6c3,5.6,6,11.1,9,16.7
	C349.2,399,347.9,398.5,347.4,397.8z"/>
<path class="st3" d="M249.5,301.2c-1.6-0.8-1.6-3-1.4-4.8c3.7-33.3,19.4-64.1,44.2-86.7c0.6,4.2-2.7,7.8-5.5,10.9
	C266.2,243,253.2,271.2,249.5,301.2z"/>
<path class="st3" d="M456.4,301.2c0.4-11.2-1.4-22.4-5.3-32.8c7.1,8.2,7.4,20.1,7.4,31c11.5-6.8,24.5-10.5,37.9-10.7l-12.7,3.5
	c-6.9,1.9-13.8,3.8-20,7.3c-2.9,1.6-6.4,3.6-9.3,2.1c-11.5-6-24.8-7.8-37.7-6.6s-25.3,6.4-37,12c-6.1,2.9-13,6.2-19.3,3.9
	c-23-8.7-49.3-9.6-72.2-0.6c-4.1,1.6-8.6-0.2-12.6-1.9l-13-5.7c5,1.1,17.5,5.5,17.5,5.5s3.6,0.4,4.7-1c1-1.5,1.7-3.2,1.9-5
	c1.8-7.7,5.3-14.9,10.1-21.1c0.9-1.1,2.7-2.1,3.4-0.9c-6.8,7.9-11.2,17.5-12.8,27.7c24.8-9.2,52.2-9,76.9,0.8
	c2.3-13.5,2.4-27.3,0.2-40.8c1.6-0.7,2.7,1.6,2.9,3.3c1.1,12.6,0.9,25.2-0.6,37.7c14.1-6.8,28.7-12.9,44.1-15.4
	S442.8,293.5,456.4,301.2z"/>
<path class="st3" d="M277.5,274.3c7.4-21.1,18.8-40.6,33.6-57.4c1.1-1.2,2.4-2.5,4-2.6s3.2,2.1,2,3.2c-17,17.1-30.2,37.7-38.5,60.4
	C277.1,277.9,277,275.7,277.5,274.3L277.5,274.3z"/>
<path class="st3" d="M254.2,369.1c0.2,0.3,0.3,0.6,0.3,1c0.7,14,4.3,27.7,7.8,41.3c0.1,0.6-0.7,1-1.2,0.7c-0.5-0.3-0.8-0.9-1-1.5
	c-4.1-12.7-6.8-25.9-7.9-39.3c-0.1-0.7,0-1.3,0.3-2C252.9,368.9,253.8,368.7,254.2,369.1L254.2,369.1z"/>
<path class="st3" d="M365,255.2c-1.5,0.1-2-1.9-1.9-3.4c0.2-15.5,0.5-30.9,0.7-46.3c0-1.7,0.5-3.9,2.2-4.1c1.5,1.8,1.5,4.3,1.4,6.6
	L365,255.2z"/>
<path class="st3" d="M507.2,278.9c3.3-5.3,3-12,2.5-18.2c-1-10.9-2.7-21.7-5-32.4c-0.2-1-0.4-2.3,0.5-2.9c0.8-0.4,1.8-0.2,2.3,0.5
	c0.5,0.7,0.8,1.5,0.9,2.4c2.7,13.3,3.9,26.8,3.6,40.4c-0.1,5-0.9,10.9-5.3,13.4C505.9,281.2,506.6,279.9,507.2,278.9L507.2,278.9z"
	/>
<path class="st3" d="M455.4,243.1c1.1,5,0.6,10.2-1.3,14.9c-1.4-1.5-1-3.7-0.7-5.7c0.9-7.6-1.8-15.3-5.1-22.2s-7.3-13.7-9.3-21.1
	c-0.3-1.1-0.3-2.7,0.9-2.9c1-0.2,1.6,0.9,2,1.8L453,236C454,238.3,454.8,240.7,455.4,243.1z"/>
<path class="st3" d="M555.7,215.2c0.6-5.4,5.3-9.5,10.1-12.1c8.8-4.8,18.9-6.6,28.8-5.2c4.4,0.6,7.8-3.6,11-6.8
	c8.2-8.2,20.8-11.2,32.3-9.3s21.9,8.2,30.3,16.3s14.9,17.9,21,27.8c1.3,2.1,4.2,2.1,6.7,2c5.3-0.3,10.8-0.1,15.4,2.5s7.8,8.3,6,13.2
	c-1,2.3-2.7,4.2-4.8,5.4c-4.2,2.5-9.3,3-14.2,3.4l-98.2,7.5c-9,0.7-18.1,1.4-26.8-0.5s-17.4-6.5-21.9-14.3s-3.8-18.8,3.2-24.6
	C555.7,219.3,555.5,217.1,555.7,215.2 M568.1,204.7c-3.9,1.9-7.8,4.6-9.1,8.8c-0.5,1.5-0.5,3-1,4.5c-1.1,3.9-4.3,6.8-6,10.4
	c-3.5,7.6,0.5,17,7.2,22s15.3,6.5,23.7,7.1c30,2.1,59.9-5.5,89.9-6.3c11.8-0.3,24,0.4,35.1-3.8c4.2-1.6,8.8-5.6,7-9.7
	c-0.5-1-1.2-1.9-2.1-2.6c-5.4-4.6-12.7-6.3-19.6-4.5c-3.4,0.9-6.3-2.6-8.2-5.6c-8.2-13.1-17.5-26.2-30.7-34.3s-31.4-9.8-43.7-0.4
	c-5.5,4.2-10.7,10.8-17.6,10C584.4,199.5,575.8,201,568.1,204.7L568.1,204.7z"/>
<path class="st3" d="M109.7,166.2c-1.1,3.4,0.3,7.2,1.8,10.4c1.8,3.8,4.6,8.1,8.8,7.9l38.9-2.5c1.9-0.1,4.5,0.4,4.5,2.3l-48.8,3.9
	c-10.9,0.9-22.4,1.9-31.6,7.8S68,214.5,73,224.3c1.9,3.7,5.6,6.8,9.7,6.7l33.6-1c2.6-0.1,6.2,0.7,6.1,3.4
	c-17.8-1.1-35.7-0.4-53.4,2.1c-6.3,0.9-12.9,2.1-18.2,5.6s-9.1,10.1-7.7,16.3c1,4.3,4.4,7.8,8.3,9.8s8.3,3,12.7,3.7
	c46.2,7.8,93.6-1.3,140.4,2.1c5.2,0.4,10.9,1.1,14.6,4.8c-40.3-7.7-81.9,0.9-122.9-1c-9.1-0.4-18.2-1.4-27.3-2.3
	c-7.4-0.8-15.2-1.7-21.4-6c-3-2-5.3-4.9-6.7-8.3c-3.1-8.4,2.3-17.9,10-22.6s16.8-5.6,25.7-6.4c-7.3-5-9.4-15.4-6.3-23.6
	s10.6-14.2,18.8-17.4s17.1-4,25.9-4.4c-2.6-3.4-5.2-6.9-6.7-10.9s-1.6-8.7,0.8-12.3c1.6-2.5,4.2-4.2,6.8-5.7
	c24.6-14.2,54.3-15.8,82.7-15.1c7.7,0.2,15.7,0.6,22.6,4c10.8,5.2,17.3,17.4,17.4,29.3s-5.7,23.5-14.2,31.9
	c-1.4-1.9,0.4-4.4,1.8-6.2c6.9-8.3,10.9-19.4,9.4-30.1s-8.8-20.7-19.1-24.2c-4.3-1.4-8.9-1.8-13.4-2c-29.4-1.5-60.1,0-85.8,14.3
	C114.1,160.6,110.8,162.8,109.7,166.2z"/>
<path class="st3" d="M308.3,372.7c-20.3-19.3-43.6-38.8-49.1-66.2c10,25.7,32.2,44.2,51.8,63.8s38,43.9,36.8,71.4
	c32-7,64.9-8.6,97.3-4.8c3.3-15,13-27.6,20.6-40.9c18.8-33,25.2-71.5,31.2-109c1.5-9.5-10.1-15.1-19.4-17.5l-27.9-7.1
	c-17.5-4.5-35.6-8.9-53.4-5.9c-12,2.1-23.9,7.5-35.9,5.5c-19.4-3.2-39.2,0.8-55.8,11.4c-8.2,5.3-15.4,12.4-24.5,16
	c-19.6,7.6-30.8,16.9-47.6,38c-6.3-32.7,4.3-66.1,16.8-96.9c13.9-34.5,31.4-69.4,61.3-91.5c43.9-32.4,108-29.1,153.7,0.8
	s73.5,82.1,82.5,135.9c1,6.3,1.8,13-1.2,18.6s-11.1,8.9-15.9,4.7c-4.1-3.5-8.5-7.2-13.8-8.2s-11.8,1.7-12.8,7
	c-7.5,38.9-15.5,78.7-36.4,112.3c-5.5,8.8-11.8,17.1-15.3,26.8c-2.7,7.4-3.5,15.4-4.4,23.2c-1.7,16.4-3.5,32.7-5.2,49
	c-0.7,6.9-1.8,14.4-6.8,19.2c-4.8,4.6-11.9,5.4-18.5,6l-64.2,5.7c-3.8,0.3-8.2,0.5-11-2.1c-2.1-2-2.8-5.2-3.2-8.1
	c-3-20.8-3-42,0-62.8c4.3-29.8-9-60.4-30.1-82c-11-11.3-23.9-20.5-34.8-31.7s-20.1-25.4-20.8-41.1c7.6,20.8,21.1,38.8,38.9,51.9
	c26.7,19.7,45.1,48.5,51.8,81C348.3,417.5,328.5,391.9,308.3,372.7z M353.7,258.3c8.6,0.8,17.6,3,25.7-0.2c21.9-8.6,46.4-8.2,68,1.2
	c9.1,4,19.3,4.2,29.1,6s20.1,5.6,25.1,14.2c5.6,9.7,22,7,28.4,16.1c2.7,3.8,9.2,2.4,11.7-1.5s2.2-8.9,1.6-13.5
	c-4.6-37.4-18.2-74.1-41.9-103.4s-57.5-50.9-94.8-56.9s-77.4,4.6-104.9,30.3c-16.7,15.6-28.2,35.8-38.4,56.2
	c-17.7,35.6-32.2,74.4-29.3,114c11.9-14.4,24.8-29.4,42.6-34.9c4.2-1.3,8.9-2.2,12.1-5.2C306.3,264.2,329.9,256.1,353.7,258.3z
	 M372.7,503.4c0,9.6,1.4,19.1,4.3,28.2c0.2,0.8,0.6,1.5,1.2,2c0.7,0.3,1.5,0.4,2.3,0.2l28.7-3.4c0.5,0.1,1-0.3,1.1-0.9
	c0-0.2,0-0.4-0.1-0.6c-1.7-8.1-3.4-16.2-5.2-24.3c-0.1-0.5-0.2-0.9-0.5-1.3c-0.4-0.4-1-0.6-1.6-0.6c-9.4-1.2-18.9-1.6-28.4-1.3
	c-0.6-0.1-1.1,0.1-1.5,0.5C372.8,502.5,372.7,502.9,372.7,503.4L372.7,503.4z M403.1,469.7c-0.4-0.4-0.9-0.6-1.4-0.6
	c-9.7-0.8-19.4-0.7-29,0.4c-0.6,0-1.1,0.2-1.6,0.5c-0.6,0.7-0.8,1.7-0.7,2.6c0.3,5.5,0.6,10.9,1,16.4c0.1,1.3,0.6,3.1,1.9,3
	c9.4-0.5,18.9-0.2,28.3,1c1.3,0.2,1.8-1.6,1.8-2.9c0-6.4,0-12.8,0-19.3C403.4,470.4,403.3,470,403.1,469.7L403.1,469.7z
	 M343.3,506.7c-0.8,0.3-1.4,0.7-2,1.3c-0.7,1.1-0.9,2.4-0.7,3.7c0.3,4.5,0.5,8.9,0.7,13.4c0,2.3,0.4,4.5,1,6.7
	c0.7,2.2,2.3,4,4.4,4.9c1.8,0.5,3.7,0.6,5.5,0.2l10.5-1.3c1.4-0.1,2.9-0.5,4.1-1.1c-3.3-10-5.5-20.3-6.5-30.7
	c-0.1-0.7-1-0.9-1.8-0.9C353.3,503.2,348.2,504.5,343.3,506.7L343.3,506.7z M437.4,494.7c1-6.4,2.1-12.8,3.1-19.2
	c0.4-0.8,0-1.8-0.8-2.2c-0.3-0.1-0.6-0.2-0.9-0.1c-7.6-1.2-15.2-2.3-22.8-3.3c-0.6-0.1-1.3-0.1-1.6,0.4c-0.2,0.3-0.2,0.7-0.2,1
	c0.3,6.7,0.6,13.3,0.8,20c-0.1,0.6,0.1,1.2,0.5,1.7c0.4,0.3,0.8,0.4,1.2,0.4l19.2,3.1C436.9,496.7,437.3,495.6,437.4,494.7
	L437.4,494.7z M371,457c-0.1,0.7-0.2,1.7,0.5,2c0.3,0.1,0.7,0.2,1,0.1l30.1-2.9c0.5,0,1-0.2,1.5-0.4c0.5-0.5,0.8-1.2,0.9-1.9
	l2.5-12.7c0.1-0.6,0.2-1.3-0.3-1.7c-0.4-0.2-0.8-0.3-1.2-0.2l-28.9,2.5c-0.8,0-1.6,0.2-2.3,0.6c-1.1,0.7-1.5,2.2-1.7,3.5
	C372.3,449.5,371.7,453.3,371,457z M416.2,443.1c-0.4,3.7-0.8,7.3-1.1,11c-0.4,1.2,0.3,2.5,1.5,2.9c0.3,0.1,0.7,0.1,1,0.1l24.1,4.1
	c0.3,0.1,0.7,0.1,1,0c0.6-0.2,0.7-1,0.8-1.7c0.3-4.7,0.4-9.5,0.2-14.2c0-0.8-0.1-1.6-0.4-2.4c-1-2.3-4-2.6-6.5-2.7l-17.4-0.4
	c-0.6-0.1-1.2,0-1.8,0.3C416.5,440.5,416.3,441.9,416.2,443.1L416.2,443.1z M501.9,287.1c-4.1,5.4-5.3,12.5-6.4,19.2
	c-5.3,34.1-12.2,69-31,98c-6.4,9.9-14.5,19.7-15.4,31.5c3.5-12.3,13.4-21.6,20.1-32.4c4.9-8,8.2-16.8,11.2-25.7
	c7.3-21.4,13.1-43.3,17.5-65.5c1.6-8,3.1-16.4,8.3-22.7C504.5,289.4,502.8,288.5,501.9,287.1L501.9,287.1z M357.9,493.3
	c1.1-0.1,2-1,2-2.2c0-0.1,0-0.2,0-0.4c0-5.9,0-11.8,0-17.6c0.2-0.8-0.3-1.5-1.1-1.7c-0.3-0.1-0.6,0-0.9,0.1
	c-4.7,0.5-9.3,1.4-13.8,2.7c-1.3,0.1-2.2,1.2-2.1,2.5c-0.9,6.4-1.2,12.8-1,19.2c0,0.5,0.1,1.1,0.6,1.4c0.3,0.1,0.7,0.1,1.1,0
	L357.9,493.3z M433.1,525c3.4-4.1,3.4-9.9,3.3-15.2c0-1-1.2-1.5-2.2-1.8c-5.4-1.3-10.8-2.3-16.3-3c-0.5-0.1-1-0.1-1.4,0.2
	c-0.6,0.4-0.6,1.3-0.5,2c0.7,6.9,2.2,13.6,4.2,20.2c0.1,0.8,0.6,1.5,1.3,2c0.4,0.2,0.8,0.2,1.3,0.2
	C426.6,529.6,430.4,527.9,433.1,525z M350.9,445.8c-1.4,0.3-2.6,0.9-3.8,1.7c-1,0.9-1.7,2-2.1,3.3c-1.6,3.9-1.9,8.1-2.3,12.3
	c-0.1,0.3,0,0.6,0.1,0.9c0.3,0.4,0.9,0.3,1.3,0.2l12.2-2.4c1.9,0.2,3.5-1.2,3.7-3.1c0-0.2,0-0.5,0-0.7l0.8-14.4
	C357.5,444.2,354.1,444.8,350.9,445.8L350.9,445.8z M373.7,466.4c8.9-1,17.9-1.1,26.8-0.4c1,0.2,2,0,2.9-0.5
	c1.3-0.9,1.1-2.9,0.8-4.4c0-0.4-0.2-0.8-0.5-1.1c-0.5-0.4-1.2-0.6-1.9-0.4l-26.7,2.2c-1.2,0-2.5,0.3-3.5,1c-1,0.8-1.3,2.5-0.3,3.2
	C372.2,466.5,373,466.6,373.7,466.4L373.7,466.4z M441.5,465.7c-1.2-1-2.6-1.6-4.2-1.7l-20-3.5c-0.9-0.1-1.9-0.2-2.5,0.5
	c-0.2,0.3-0.3,0.7-0.4,1.1c-0.3,1.9,0,4.5,1.9,4.8l22.7,3c0.7,0.2,1.5,0.1,2.2-0.2C442.6,468.9,442.5,466.8,441.5,465.7L441.5,465.7
	z M364.8,503.3c-0.3,1.3-0.3,2.6,0,3.9c1.4,7.9,3,15.8,4.8,23.7c0.2,1.1,0.6,2.1,1.2,3c0.7,0.9,1.9,1.2,2.9,0.7
	c1.4-0.9,0.9-3,0.3-4.5c-3.1-7.8-3.9-16.4-4.4-24.8c-0.1-1.5-0.4-3.3-1.8-3.8C366.5,501.2,365.2,502,364.8,503.3L364.8,503.3z
	 M435.7,504.8c1.6-0.6,0.5-3.4,1.6-4.6c-6.7-1.7-13.5-2.8-20.4-3.5c-1.6-0.1-2.4,2.3-1.4,3.6s2.7,1.7,4.3,2l4.3,0.8l10.2,1.8
	C434.9,504.8,435.3,504.8,435.7,504.8L435.7,504.8z M375.3,498.8c8.3-0.5,16.6-0.2,24.9,0.9c1.6,0.2,3.9,0,4.2-1.6s-2.1-2.5-3.8-2.5
	c-8.3-0.4-16.7-0.5-25.1-0.2c-1.5,0-3.5,0.8-3.1,2.2C372.7,498.6,374.2,498.8,375.3,498.8L375.3,498.8z M407.2,470.8
	c-0.3,0.8-0.5,1.7-0.4,2.6c0,5.1,0,10.2,0,15.3c-0.1,1.1,0.1,2.3,0.5,3.3c0.4,1.1,1.5,1.7,2.7,1.7c1.9-0.3,2.2-2.8,2.1-4.7
	c-0.3-5.4-0.6-10.8-0.9-16.2c-0.1-1.3-0.4-3-1.7-3.3C408.5,469.4,407.6,469.9,407.2,470.8L407.2,470.8z M412.9,506
	c-0.3-1.1-1.2-2-2.3-2.2c-1-0.1-2,0.6-2.1,1.6c0,0.1,0,0.3,0,0.4c1.3,6.7,2.6,13.5,3.9,20.2c0.3,1.6,0.7,3.3,2.1,4.2
	s3.7-0.3,3.2-1.8c-2.1-6.2-4.1-12.5-4.4-19C413.3,508.2,413.2,507,412.9,506L412.9,506z M367.4,491.6c0.5-1.1,0.7-2.4,0.5-3.6
	c-0.2-4.3-0.5-8.7-0.7-13c0.1-1.4-0.3-2.7-1.1-3.8c-0.9-1-2.9-1-3.3,0.3c-0.1,0.3-0.1,0.7-0.1,1.1c0.2,5.8,0.4,11.6,0.6,17.4
	c-0.1,1,0.3,2,1,2.8C365.2,493.3,366.8,492.6,367.4,491.6L367.4,491.6z M364.2,444.2c-1.2,1.6-1.2,3.7-1.2,5.7v8.1
	c0,1.5,0.5,3.4,2,3.3c1.1-0.1,1.6-1.5,1.8-2.6c0.8-5,1.7-10,2.5-15.1C368.1,441.9,365.4,442.5,364.2,444.2L364.2,444.2z
	 M356.3,500.6c1.2-0.1,2.5-0.2,3.3-1.1s0.3-2.8-0.9-2.6l-11,1.5c-1.9,0.3-3.9,0.6-5.3,1.8s-1.9,3.8-0.5,5
	C346.4,502.6,351.3,501,356.3,500.6L356.3,500.6z M343,467.9c-1.1,1-1.3,3.1,0,3.9c4.2-1.4,8.5-2.3,12.9-2.8c1.1,0,2.2-0.3,3.1-0.9
	c0.9-0.6,1.1-1.9,0.5-2.8c0,0,0,0,0,0c-0.7-0.5-1.6-0.6-2.4-0.4l-9.8,1.5C345.7,466.4,344.2,467,343,467.9z M411.3,439.9
	c-0.3,0.5-0.6,1-0.6,1.6l-2.3,12.7c-0.1,0.8-0.2,1.7,0.4,2.2c0.7,0.4,1.6,0.2,2.1-0.4c0.4-0.7,0.7-1.5,0.7-2.2
	c0.5-4.2,1-8.5,1.4-12.7c0.1-0.4,0-0.8-0.2-1.1C412.4,439.4,411.7,439.4,411.3,439.9C411.3,439.8,411.3,439.9,411.3,439.9
	L411.3,439.9z M409.8,495.9c-1.6-0.2-3.2,1.9-2.2,3.1c0.6,0.9,1.5,1.6,2.6,2c1.1,0.2,2.5-0.6,2.4-1.7
	C412.5,497.8,411.4,496.1,409.8,495.9L409.8,495.9z M410.5,463.4c0.5-1.3,0.7-3.4-0.7-3.5c-0.6,0-1.1,0.2-1.4,0.7
	c-1.4,1.7-1.2,4.2,0.5,5.6c0.3,0.3,0.7,0.5,1,0.6c0.8-0.9,1-2.2,0.7-3.3C410.2,462.3,410,464.6,410.5,463.4L410.5,463.4z
	 M367.3,465.8c-0.3-1.2-1.3-2.2-2.6-2.3c-1.2,0-2.1,0.9-2.1,2.1c0,1.2,0.9,2.1,2.1,2.1c1.1,0,2-0.8,2.1-1.8
	C367,464.4,367.6,467.2,367.3,465.8L367.3,465.8z M368.3,498.6c0.4-0.3,0.7-0.8,0.8-1.3c-1.1-1.2-2.8-1.6-4.3-0.9
	c-0.3,0.1-0.6,0.4-0.8,0.6c-0.5,0.9,0.3,2,1.3,2.2c1,0.1,2-0.2,2.9-0.8L368.3,498.6z"/>
</svg>
