<svg id="Layer_1" data-name="Layer 1" xmlns="http://www.w3.org/2000/svg" viewBox="0 0 100 100"><defs><style>.cls-1{fill:#f8dc8c;}.cls-2{fill:#fc1a3d;}</style></defs><path class="cls-1" d="M91.1,50A44.85,44.85,0,1,1,46.3,5.1,45,45,0,0,1,91.1,50Z"/><path class="cls-2" d="M56.5,85.88c-.55-5.22-1.21-10.79-1.65-16.37-.09-1,.66-2.19,1.17-3.23Q66.49,44.89,77,23.51c2.23-4.53,4.75-5.35,9.35-3.09,2.83,1.39,5.69,2.73,8.49,4.18,3.84,2,4.79,4.53,2.93,8.34Q87,55.14,76,77.28A6.66,6.66,0,0,1,73.8,79.9c-4.24,2.69-8.58,5.2-12.87,7.8C58.86,89,57.42,88.58,56.5,85.88ZM72.62,75.41,90.77,39,76.9,32.23,58.84,68.78Zm5.59-47.08,14.65,7.22c4-6.36,3.94-6.57-2.67-9.86L88,24.6C81.09,21.27,81.09,21.27,78.21,28.33Zm-7.79,50L58.11,72.23c.51,4.37,1,8.37,1.47,12.77Z"/><path class="cls-2" d="M48.74,98.06c-5.64,1.75-9.5.38-12.48-2.69-3.56-3.67-6.64-7.81-9.91-11.76-1.56-1.89-2.94-3.94-4.63-5.7-2.43-2.55-3.69-2.32-6,.29-.68.78-1.93,1.07-2.91,1.58.16-1.13,0-2.45.56-3.34C15.94,72.3,19.49,71.62,23,75c2.83,2.74,5.06,6.08,7.57,9.16A95.58,95.58,0,0,0,37,91.94c5.3,5.23,9.88,5,15.13-.36A13.11,13.11,0,0,1,56,89.16c1.86,2.44-.76,3.48-2,4.69A44.37,44.37,0,0,1,48.74,98.06Z"/></svg>