<svg id="Layer_1" data-name="Layer 1" xmlns="http://www.w3.org/2000/svg" viewBox="0 0 200 127.08"><defs><style>.cls-1{fill:#fff;}.cls-2{fill:#2e86ab;}.cls-3{fill:#a3c9a8;}.cls-4{fill:#1a1a1a;}.cls-5{fill:#ccc;}.cls-6{fill:#b5b5b5;}</style></defs><path class="cls-1" d="M164.63,73.61s-.58-5.1,3.16-5.1h23s4.9-.22,5.18.41a4.41,4.41,0,0,1,1.6,3.39s-.06,5.43-3.46,4.43H166.94S164.9,76.61,164.63,73.61Z"/><path class="cls-2" d="M18.05,89.61,15.26,123h20.2L31.54,89.36A27.56,27.56,0,0,1,18.05,89.61Z"/><rect class="cls-1" x="31.26" y="63.36" width="94.4" height="59.63" rx="22.07"/><path class="cls-3" d="M64,56.05h42.82a2.62,2.62,0,0,1,1.45,1.5,9.42,9.42,0,0,1,3.35.75l.56-.15L111,54.83A3.55,3.55,0,0,0,108.15,53H62a2.29,2.29,0,0,0-1.71.93s-.78,2.58-1.35,3.07l8.24,30.08a3.7,3.7,0,0,0,3,2.49H99l.78-3H73.29a3,3,0,0,1-3.21-1.9L62.66,57.84S62.7,56.25,64,56.05Z"/><path class="cls-2" d="M152.64,77.23a16.39,16.39,0,0,0-7.35,1.86,28.1,28.1,0,0,0-7.42,7c-1.45,2-3.59,4.07-5,3.49s-2.25-1.08-2.53-2.46-.07-16-.07-16A1.27,1.27,0,0,0,129,69.77a9.87,9.87,0,0,0-3.57.76l.06,8.4v5.33L128,103.37a15.6,15.6,0,0,0,6.65.35c2.9-.71,6.77-1.91,8.1-3.33a51.54,51.54,0,0,1-.12,7.93c-.43,3-2.48,14.56-2.48,14.56l29.77.1-2.07-6.92-.65-4.65s1.27,3.86,4,5.1,5.67,1.33,7.51-.13a16.45,16.45,0,0,0,4.73-6.36c1-2.54,2-10.1,2-10.1a15.57,15.57,0,0,0-8.7-3.6l-.7,0a32.5,32.5,0,0,0-1.59-10.23c-1.72-4.8-4.11-6.35-5-6.8a18.69,18.69,0,0,0-10.22-2.19C153.72,77.45,152.64,77.23,152.64,77.23Z"/><path class="cls-2" d="M150.2,64.13a4.8,4.8,0,0,1-.17-3.76c.84-1.7,3.38-2.59,5.05-2.62a9.34,9.34,0,0,1,6,1.45s-.51-3.6,2.4-4.4A5.14,5.14,0,0,1,169,57.23c.39.88,1.51,3.52-1.47,5s-3.07.64-3.07.64a5.55,5.55,0,0,1-.1,4c-.93,1.81-2.42,4.88-4.76,5.19s-9.3-7.89-9.3-7.89Z"/><path class="cls-1" d="M159.18,77.82l.19-5.81a2.33,2.33,0,0,1-.38-1.67s2.21-.56,2.06-2.3a1.8,1.8,0,0,0-1.85-1.69,5.71,5.71,0,0,1-.27-4.45,19.2,19.2,0,0,1-4.13.77,33.06,33.06,0,0,1-4.23-.23l-.35,6.29s-.64,5,2.79,4.92l.13,3.27s-1.65,4.29-.42,4.52S159.07,78,159.18,77.82Z"/><path class="cls-3" d="M30.21,34.47a11.39,11.39,0,0,0-12,5.68c-3.9,6.41-6.14,14.1-6.4,17.37s-.18,9.7,4.84,12.35L16,88.32s2.25,2.57,11.49,1.56l3.76-6.75v-16s.67-3,2.82-3.3L42.3,39.53l4.78-.17s-4.72-5.5-10.78-4.66S30.21,34.47,30.21,34.47Z"/><path class="cls-2" d="M44,36.63s1.14-1.1-.11-3.31-2.17-2.22-2.11-3.2a6.56,6.56,0,0,1,1.44-3.5,8.14,8.14,0,0,0,1.41-5.85,5,5,0,0,0-3.17-4.57c-1.67-.86-4.59-2.57-7.38-.59,0,0-6.32.92-6.89,2.43s-.46,5.89-.32,7,.34,4.69-1.27,5.59a13,13,0,0,1-4,1.33c-1.14.26-4.07,2.93-2.76,6.92,0,0,3.29-4,6.69-4.21s4.69-.2,4.69-.2l6.23.2A14.59,14.59,0,0,1,44,36.63Z"/><path class="cls-4" d="M40.5,24.42c-.14-.05-.25,0-.4.5s0,.71.09.73.3-.13.38-.55S40.68,24.49,40.5,24.42Z"/><path class="cls-4" d="M36.34,23.42c-.14-.05-.25,0-.38.52s0,.7.11.72.29-.13.36-.55S36.53,23.49,36.34,23.42Z"/><path class="cls-1" d="M36.8,32l-.66,2.9s.47,4.84-.73,4.73-5.2-5.2-5.2-5.2L32,27.35A1.82,1.82,0,0,1,30.18,25c.47-2.43,2.85-1.22,2.85-1.22a4.88,4.88,0,0,0,1.58-2.48c.22-1.37.49-2.59.49-2.59A8.51,8.51,0,0,0,38.76,21a5.24,5.24,0,0,1,2.94,1.76L40.27,29.4S39.29,32.84,36.8,32Z"/><path class="cls-1" d="M39.16,48.68,38,47.1a3.27,3.27,0,0,1,1.61.42Z"/><path class="cls-1" d="M38.78,50.2l-2.19,6.31a8.94,8.94,0,0,0-2-.33,27.85,27.85,0,0,0-2,2.67A25,25,0,0,1,29,56.1a22.16,22.16,0,0,1-1.73-2.16s3.24-3.79,3.64-4.48a6.42,6.42,0,0,1,4.16-2.24l2.21,2.41Z"/><path class="cls-1" d="M58.12,46.78l-.92,2.58a11.61,11.61,0,0,1-2.65.24c-1.51,0-2.55,0-2.8.76S51.27,52,52,52.3c0,0-.9,1.13-.79,1.64a2.48,2.48,0,0,0,.49,1,1.27,1.27,0,0,0-.5,1.32c.21.83.68,2,3.05,1.94s4.21-.51,4.71-.94a7.61,7.61,0,0,0,1.49-4.84C60.33,50.09,60.61,48.73,58.12,46.78Z"/><path class="cls-1" d="M81.21,66.89a4.77,4.77,0,0,0-2.7-1.51,8.3,8.3,0,0,0-2.4.17,1.7,1.7,0,0,0-1.51-.36,1.47,1.47,0,0,0-.79,1.27s-.68.39-.66,1A9.25,9.25,0,0,0,73.38,69a2.92,2.92,0,0,0,.22,2,25.7,25.7,0,0,0,2.05,3.27,17.31,17.31,0,0,1,1.15,2.69,13.69,13.69,0,0,1,3.31-1c1.18-.07,3.69,0,3.69,0l-.44-2a17.06,17.06,0,0,0,0-2.7,17.87,17.87,0,0,0-.81-2.06l-3.4-.27L77,66.64Z"/><path class="cls-1" d="M128.57,72.38l.07-1.83a11.75,11.75,0,0,0-.07-5.74c-.88-2.49-1.55-3.18-2.91-3.75a4.41,4.41,0,0,0-2.5-.3,4.38,4.38,0,0,0-2.15-.67c-1.31-.06-1.31.67-1.31.67s.87,4.13.34,5.6c.18.19,1.14-.13,1.14-.13a1.46,1.46,0,0,0,1.21.69,2.2,2.2,0,0,0,1.62-1.1c.19-.4.4-.9.4-.9a4.57,4.57,0,0,1,1,2.53,2.53,2.53,0,0,1-1.08.62c-.55.1-2,.18-2.06,1.7s1.75,2.12,3.2,1.56V73.1A18.05,18.05,0,0,0,128.57,72.38Z"/><path class="cls-1" d="M181.83,91.43s3,.26,3.55,2.34-.15,5.26-.75,5.93a3.65,3.65,0,0,1-3.25,1.41c-1.75-.11-2.46-.15-2.93-.43s-1.46-.8-.78-2.12V98.2a1.73,1.73,0,0,1-.06-2.83c0-.35-.59-1.86.26-2.61a5.74,5.74,0,0,1,2.31-1l-.09,1.15a2.71,2.71,0,0,0,.94.2,2.05,2.05,0,0,0,.63-.2Z"/><path class="cls-2" d="M108.44,77.71a9.08,9.08,0,0,0-7.12,5.58c-2,5.07-1.86,4-3,6.85s-2.3,4.19-3.95,3.91-2,.25-3.25-3.6L86.8,77.24s-2-2.11-6.91-1.19-5.77,3.31-5.77,3.31L76.44,91s3.12,12.48,8.42,15.26,7.51,2.66,10,2.47,2.86-.51,2.86-.51S97.08,120,96,122.88h31.8s-.6-11.17-.19-15.5a38.58,38.58,0,0,0,.21-6.56s-3-18.06-5.84-20.76S108.44,77.71,108.44,77.71Z"/><path class="cls-3" d="M115.1,83.32s2,2.08,2.19,3.52-.31,2.93-1.34,5.3-2.07,8.32,3.28,9.58,8.25,0,9.51-2,1.26-5.56.73-7.41a23,23,0,0,0-3.14-6.66c-1.88-2.92-3.3-4.82-4.36-5.54,0,0-1.27,2.49-2.84,2.82A31.75,31.75,0,0,1,115.1,83.32Z"/><path class="cls-3" d="M113.41,79.57s2.88.12,4.29-.71a14,14,0,0,0,2.54-2,8.46,8.46,0,0,1-1.61-4.82c.19-2.38,1.4-4.35,1.48-6.17s.43-4.68-1.56-6.67-5.39-1.28-6.78-1c0,0-3.79-1.16-5.09-.2s-1.22,3.6-1.15,4a7.11,7.11,0,0,0,2.77,3.51,3.35,3.35,0,0,1,1.61,4,7.17,7.17,0,0,1-1.69,1.89A3.32,3.32,0,0,0,107,74.77C107.17,76.48,108.65,79.53,113.41,79.57Z"/><path class="cls-1" d="M113.39,79.57s-.79,2,.35,2.91,2.92,1,4.89.56a4.36,4.36,0,0,0,3.37-3.3c.37-1.41.24-2-.37-2.34a11.62,11.62,0,0,0-1.5-.66,5.84,5.84,0,0,1-3.28,2.42A13.4,13.4,0,0,1,113.39,79.57Z"/><polygon class="cls-2" points="39.16 48.68 35.6 44.46 34.03 45.79 37.35 49.73 38.67 50.06 39.16 48.68"/><polygon class="cls-1" points="51.88 65 60.26 40.54 43.49 40.54 35.1 65 51.88 65"/><polygon class="cls-2" points="77.04 66.64 84.36 67.32 84.29 69.26 79.1 68.9 77.04 66.64"/><path class="cls-1" d="M109.9,67.48a6.38,6.38,0,0,0-2.05-2.12,11.78,11.78,0,0,1-2.31-2.72l-.13.57a.75.75,0,0,0-.61-.43c-.43,0-.62.3-.74.64S103,67.05,103,67.05s0,.71.46.83a1.69,1.69,0,0,0,.91-.12l-.58,2.5s-.38,3.48,3,3.43c0,0,.24-.64.42-1a13.66,13.66,0,0,1,2.24-2.37C110,69.91,110.16,68.11,109.9,67.48Z"/><path class="cls-4" d="M128.77,69.64l-.13.91.06,1.88s1.72-.7,1.53-1.38S128.77,69.64,128.77,69.64Z"/><path class="cls-4" d="M183.16,100.84s1.46-.73,1.7-1.57c0,0,.82.47.52,1S183.16,100.84,183.16,100.84Z"/><path class="cls-2" d="M177.43,99.42l.37-1.11a1.65,1.65,0,0,1-.79-1.94s-2.09-.58-2.76.3C173.46,97.7,177.43,99.42,177.43,99.42Z"/><path class="cls-4" d="M180.09,92.89l.09-7.14,10.43-8.9h2.06l-10.95,9.54,0,6.5S180.35,93.29,180.09,92.89Z"/><polygon class="cls-4" points="180.1 101.12 180.18 122.98 181.66 122.98 181.66 101.1 180.1 101.12"/><path class="cls-3" d="M194.06,75c-1.82.27-2.13-2-2.13-2a3.17,3.17,0,0,0-1.94.89c-.7.53-1.24,1.1-2.19.84a8.33,8.33,0,0,0-1.37-.42c-1.22-.15-2.78,1.22-3.9.41a1.73,1.73,0,0,1-.59-1.26,6.08,6.08,0,0,0-.19-1.42,2.13,2.13,0,0,0-2.56-1.29,3.4,3.4,0,0,0-2.26,1.65,5.76,5.76,0,0,1-1.57,1.88,2.54,2.54,0,0,1-1.83.3c-1.12-.23-1.73-1.2-2.62-1.82A4.86,4.86,0,0,0,168,72a8.27,8.27,0,0,0-2.93.7c-.49.2-.52.66-.44,1.08a5,5,0,0,0,.57,1.48,3,3,0,0,0,2.15,1.57h27.37c1.57,0,2.91-1.86,2.91-4.17C195.74,71.91,195.89,74.72,194.06,75Z"/><rect class="cls-3" x="119.93" y="23.47" width="30.14" height="20.13" rx="4.36" transform="translate(269.99 67.07) rotate(180)"/><path class="cls-2" d="M90.85,36.38H96a5.14,5.14,0,0,0,0-10.27h-5.1a5.14,5.14,0,1,0,0,10.27Z"/><path class="cls-4" d="M195.69,72.68c0,.77-.38,1.39-.86,1.39s-.86-.62-.86-1.39.38-1.38.86-1.38S195.69,71.92,195.69,72.68Z"/><path class="cls-4" d="M40.65,25.05c-.14-.05-.25,0-.4.51s0,.7.09.72.3-.13.38-.54S40.83,25.12,40.65,25.05Z"/><path class="cls-4" d="M36.5,24c-.14-.06-.25,0-.42.49s-.06.7.07.73.3-.12.4-.54S36.68,24.1,36.5,24Z"/><polygon class="cls-1" points="35.6 44.46 35.01 43.69 33.41 45.01 34.13 45.79 35.6 44.46"/><polygon class="cls-5" points="58.78 40.54 59.14 39.67 42.45 39.53 34.03 63.98 35.34 63.98 43.49 40.54 58.78 40.54"/><path class="cls-2" d="M32.58,58.85l1.15-1.61s1.43,1.55,1,2.15S32.58,58.85,32.58,58.85Z"/><path class="cls-2" d="M27.3,53.94l1.08-1.35s-1-.57-1.54-.25S27.3,53.94,27.3,53.94Z"/><path class="cls-2" d="M34,60.1S30.18,70,23.19,72.85c-5.57,2.31-6.87.86-6.87.86l.28-3.84S18,71,20.88,70.33s6-3.23,7.69-4.59A64.63,64.63,0,0,0,34,60.1Z"/><path class="cls-4" d="M143.22,89a21.68,21.68,0,0,0-2,12.27l1.47-.87a11.94,11.94,0,0,1-.48-4.22A38.54,38.54,0,0,1,143.22,89Z"/><polygon class="cls-3" points="31.55 120.31 31.24 118.85 31.24 116.78 19.43 116.78 23.56 109.27 31.26 109.27 31.26 105.61 25.57 105.61 30.04 97.48 29.79 98.23 31.26 98.23 31.26 95.25 31.26 91.12 13.51 123 16.01 123 17.49 120.31 31.55 120.31"/><polygon class="cls-1" points="13.51 123 31.26 91.12 31.26 83.5 9.26 123 13.51 123"/><path class="cls-5" d="M103.77,70.91s1.83,2.08,3.54,1.38l-.48,1.6A3.17,3.17,0,0,1,103.77,70.91Z"/><path class="cls-5" d="M51.11,56.81s.32,1.6,2.87,2l.28-.81A3.43,3.43,0,0,1,51.11,56.81Z"/><path class="cls-5" d="M51.12,55.75s2.64,1.65,6.83-.42l-4.23.12a6.86,6.86,0,0,1-2.07-.56Z"/><path class="cls-5" d="M51.43,53.13A7.47,7.47,0,0,0,58,52.37L54,52.83A6.91,6.91,0,0,1,52,52.27Z"/><path class="cls-3" d="M54.09,58.17l-1.65,5.19H55.2a29,29,0,0,0,2.29-5.53A15.36,15.36,0,0,1,54.09,58.17Z"/><rect class="cls-3" x="41.46" y="86.01" width="7.76" height="7.76"/><rect class="cls-2" x="36.49" y="67.73" width="7.76" height="7.76"/><path class="cls-1" d="M124.2,36.31a3,3,0,1,1-3-3A3,3,0,0,1,124.2,36.31Z"/><path class="cls-5" d="M125.42,67.45s-1.6,1.41-5.87.72l.45-1.62,1.18-.32a1.26,1.26,0,0,0,1.21.69c.93,0,2-1.77,2-1.77A3.88,3.88,0,0,1,125.42,67.45Z"/><path class="cls-1" d="M163.47,54.8c-2.58.71-2.47,3.62-2.42,4.27l1.1,1.11s-.36-4.81,4.11-5.25A4.51,4.51,0,0,0,163.47,54.8Z"/><path class="cls-1" d="M156.19,57.75h-1.11c-1.67,0-4.21.92-5.05,2.62a4.8,4.8,0,0,0,.17,3.76c.13,0,.49.43,1.08,1.08,1.69-.64,3.73-1.44,3.81-1.45s3.74-2,3.74-2c-1.67.43-7.31.45-6.35-1.73C153,58.85,154.76,58.14,156.19,57.75Z"/><path class="cls-1" d="M105.51,62.06a5,5,0,0,0,1,1.88,7.31,7.31,0,0,0,2.17,1.9A5.52,5.52,0,0,1,107.08,61a3.42,3.42,0,0,1,.83-1.83,3,3,0,0,1,1.53-.78,5.57,5.57,0,0,1,1.73,0c.16,0,.38,0,.44-.15a15.42,15.42,0,0,0-2.61-.5,3.47,3.47,0,0,0-2.33.34C105.37,59,105.45,61.63,105.51,62.06Z"/><path class="cls-1" d="M109.31,66.36a5.86,5.86,0,0,1,.46.81C109.88,67,109.77,66.72,109.31,66.36Z"/><path class="cls-1" d="M110,69.13a4.24,4.24,0,0,1-1.19,1.74,8.5,8.5,0,0,0-1.3,1.24,3.4,3.4,0,0,0-.63,2.07,5.46,5.46,0,0,0,3.83,5,10.09,10.09,0,0,0,2.62.41,6.22,6.22,0,0,1-5.14-4.8C107.84,71.66,109.92,70,110,69.13Z"/><path class="cls-1" d="M109.7,66.75a.69.69,0,0,0,.08.42C109.73,66.93,109.7,66.75,109.7,66.75Z"/><path class="cls-1" d="M119.05,88a6.05,6.05,0,0,0-1.54-4.78c-1.25.08-2.41.13-2.41.13s2,2.08,2.19,3.52-.31,2.93-1.34,5.3-2.07,8.32,3.28,9.58C113.28,98.35,118.67,90.82,119.05,88Z"/><path class="cls-1" d="M44,36.63s1.14-1.1-.11-3.31-2.17-2.22-2.11-3.2a5.23,5.23,0,0,1,.28-1.36c-.11-.08-1.06.6-.66,2.48.32,1.54.8,3.33.35,4.33A12.32,12.32,0,0,1,44,36.63Z"/><path class="cls-1" d="M35.5,14.91s6.1.68,7.41,4.58a14.72,14.72,0,0,1,.34,7.12,8.18,8.18,0,0,0,1.4-5.84,5,5,0,0,0-3.17-4.57C40.09,15.48,37.83,14.18,35.5,14.91Z"/><path class="cls-1" d="M31.93,23.41c-2.28.4,1.76,2.56,1.76,2.56S36,22.16,36,22.05,35,18.5,35,18.5,34.21,23,31.93,23.41Z"/><polygon class="cls-6" points="103.21 66.37 104.47 66.75 104.28 67.71 103.79 68 103.44 67.88 102.98 67.59 103.21 66.37"/><path class="cls-3" d="M84.57,106.05a16.49,16.49,0,0,0,7.12,2.63,21.86,21.86,0,0,0,7.65-1s.45-6-6.75-6.47S84.57,106.05,84.57,106.05Z"/><path class="cls-4" d="M84.36,69.51l-5.15-.43c0-.37,5,0,5,0l.14-1.69L77,66.83c0-.37,7.52.26,7.52.26a9.91,9.91,0,0,1,0,2.25C84.45,69.5,84.41,69.51,84.36,69.51Z"/><path class="cls-4" d="M85.36,69.6l-1-.09c0-.37.84-.3.84-.3l.14-1.68-.81-.07c0-.37,1-.29,1-.29a10,10,0,0,1,0,2.26A.19.19,0,0,1,85.36,69.6Z"/><path class="cls-4" d="M73.2,68.57c-.09,0-2.26-1.24-2.26-1.24,0-.33,2.6-1.25,2.6-1.25.12.35-2.06,1.13-2.06,1.13l1.81,1C73.32,68.54,73.26,68.57,73.2,68.57Z"/><path class="cls-4" d="M77.89,71.42c-3.47-2.38-4.14-4.07-4.25-4.88a1.43,1.43,0,0,1,.28-1.14c.79-.94,2.21.09,2.27.13s2.83,3.52,4.43,4.12c-1.78-.27-4.41-3.51-4.67-3.83-.15-.11-1.22-.81-1.75-.18a1.08,1.08,0,0,0-.19.86c.08.59.62,2.23,4,4.58C78,71.39,78,71.42,77.89,71.42Z"/><path class="cls-4" d="M76.51,73.29c-.27-.17-3.5-3.05-3.55-5.48a2.27,2.27,0,0,1,.73-1.76,6.66,6.66,0,0,0-.36,1.75c0,2.27,3.27,5.13,3.3,5.16C76.61,73.27,76.56,73.29,76.51,73.29Z"/><path class="cls-4" d="M81.32,67.19a6.5,6.5,0,0,0-2.27-1.51,11,11,0,0,0-3.22,0c0-.38,2.13-.67,3.31-.38a5.5,5.5,0,0,1,2.32,1.56C81.4,67.17,81.36,67.19,81.32,67.19Z"/><path class="cls-4" d="M83.74,76.11A6.85,6.85,0,0,1,83.15,73a7.3,7.3,0,0,0-.82-3.71C82.7,69.15,83.7,71,83.52,73a10.42,10.42,0,0,0,.4,2.87C83.78,76.11,83.76,76.11,83.74,76.11Z"/><path class="cls-4" d="M76.85,77.11c-.41-.74-1.1-2.42-1.35-2.77-.83-1.09-2.87-3.74-2.3-5.45-.16,1.64,1.79,4.17,2.43,5A20.35,20.35,0,0,1,77,76.85C76.9,77.1,76.87,77.11,76.85,77.11Z"/><path class="cls-4" d="M181.26,101.3c-.35,0-.7,0-1,0-2.19-.17-2.81-1-2.94-1.58a1.55,1.55,0,0,1,.5-1.5c.08.38-.26.89-.14,1.44.17.71,1.07,1.15,2.6,1.27a6.6,6.6,0,0,0,3.05-.3,2.61,2.61,0,0,0,1.54-1.78,9.09,9.09,0,0,0,.37-4.9,4.22,4.22,0,0,0-3.51-2.85,3.85,3.85,0,0,1,3.88,2.79,9.42,9.42,0,0,1-.39,5.07,3,3,0,0,1-1.75,2A5.78,5.78,0,0,1,181.26,101.3Z"/><path class="cls-4" d="M180.75,93.38a2.74,2.74,0,0,1-1.23-.33,3.29,3.29,0,0,0,2.14-.32A.83.83,0,0,1,180.75,93.38Z"/><path class="cls-4" d="M180.42,98.88c-.48,0-1,0-1.51-.08a2.6,2.6,0,0,1-1.35-.45,1.94,1.94,0,0,1-.72-1.17,2,2,0,0,1,.73-2,3.36,3.36,0,0,0-.37,2,1.6,1.6,0,0,0,.58.94,2.27,2.27,0,0,0,1.16.38,8.51,8.51,0,0,0,3.35-.18A2.42,2.42,0,0,1,180.42,98.88Z"/><path class="cls-4" d="M37.35,49.92c-.14-.07-3.47-4-3.47-4,0-.27,1.6-1.59,1.6-1.59.26,0,3.9,4.34,3.9,4.34-.28.24-3.8-3.94-3.8-3.94l-1.29,1.09,3.2,3.8C37.43,49.9,37.39,49.92,37.35,49.92Z"/><path class="cls-4" d="M34,46a7.24,7.24,0,0,1-.79-.83c0-.26,1.6-1.59,1.6-1.59.26,0,.9.79.9.79-.28.24-.81-.38-.81-.38L33.64,45l.53.63C34.11,46,34.07,46,34,46Z"/><path class="cls-4" d="M37.9,52.88a14.63,14.63,0,0,1-1.76-.54,3.93,3.93,0,0,1,1.8.18C38.06,52.83,38,52.88,37.9,52.88Z"/><path class="cls-4" d="M38.8,50.26a8.26,8.26,0,0,1-3.08-.93c.88.16,2.11.4,3.11.57C39,50.2,38.88,50.26,38.8,50.26Z"/><path class="cls-4" d="M37.23,54.84a12.52,12.52,0,0,1-1.79-.28c.1-.36.75-.19,1.8-.09C37.4,54.77,37.32,54.84,37.23,54.84Z"/><path class="cls-4" d="M39.66,47.74a5.49,5.49,0,0,0-2-.63c.07-.36,1.15-.28,2.09.29C39.78,47.71,39.72,47.74,39.66,47.74Z"/><path class="cls-4" d="M27.3,54.12c0-.48,3.33-4.77,4.21-5.52A7.68,7.68,0,0,1,35.21,47c0,.38-2,.6-3.46,1.85-.85.73-4.27,5.13-4.31,5.17A.16.16,0,0,1,27.3,54.12Z"/><path class="cls-4" d="M32.45,59c.34-1.11,1.56-3,2.16-3a2.91,2.91,0,0,1,.39,0,7.07,7.07,0,0,0,1.62.15,2.28,2.28,0,0,1-1.68.22c-.59,0-1.5,1.14-2.34,2.53A.16.16,0,0,1,32.45,59Z"/><path class="cls-4" d="M17.82,61.71c2.08-4.2,7.3-8.49,8.85-9.52C25.12,53.67,20.07,58,18,61.62A.2.2,0,0,1,17.82,61.71Z"/><path class="cls-4" d="M55.31,63.4c.71-1.88,1.46-3.73,2-5.61a14.65,14.65,0,0,1-1.83,5.51A.21.21,0,0,1,55.31,63.4Z"/><path class="cls-4" d="M19.38,70.72A6.23,6.23,0,0,1,16.52,70c-6-3.1-6.76-11.16-2.06-23.32.65-1.67,3.06-7.35,7.08-10.55,2.85-2.26,7-2.07,8.7-1.88-1.66.18-5.73,0-8.47,2.17-3.95,3.14-6.32,8.75-7,10.39-4.62,12-4,19.86,1.88,22.86S30,64.34,34.47,59.32C30.92,63.9,24.9,70.72,19.38,70.72Z"/><path class="cls-4" d="M47,39.55a13.73,13.73,0,0,0-10.65-4.67c3.71-.67,8.55,1.46,10.8,4.37C47,39.54,47,39.55,47,39.55Z"/><path class="cls-4" d="M37.59,32.27a5,5,0,0,1-1.23-.19,20.21,20.21,0,0,1-2.09-.66,5.88,5.88,0,0,1,2.18.3,3.77,3.77,0,0,0,1.5.15,2.16,2.16,0,0,0,1.62-1.27,9,9,0,0,0,.84-2.47c.08-.43.19-1,.31-1.61.3-1.54.65-3.29.8-3.85a12.76,12.76,0,0,1-.43,3.92c-.12.61-.23,1.18-.32,1.61a9.17,9.17,0,0,1-.88,2.58A2.48,2.48,0,0,1,38,32.24,2.73,2.73,0,0,1,37.59,32.27Z"/><path class="cls-4" d="M32.06,27.54a2.14,2.14,0,0,1-.5-.06,2.12,2.12,0,0,1,1-4.12,2.17,2.17,0,0,1,1.07.63,4.41,4.41,0,0,1-1.16-.27,1.75,1.75,0,0,0-.81,3.4,1.83,1.83,0,0,0,.93,0C32.49,27.51,32.27,27.54,32.06,27.54Z"/><path class="cls-4" d="M31.47,26.5c-.09-.35,1.15-1,1.15-1l-1.06-1.12c.26-.26,1.5,1,1.5,1-.05.29-1.5,1.06-1.5,1.06Z"/><path class="cls-4" d="M24.62,54.12a27.86,27.86,0,0,1,1.83-10.44c.32.19-1.65,5-1.65,10.26A.18.18,0,0,1,24.62,54.12Z"/><path class="cls-4" d="M37.34,29.43a1.41,1.41,0,0,1-1-.38,1.78,1.78,0,0,1-.44-1.27c.37,0,.33.65.7,1a1.2,1.2,0,0,0,1,.26C37.49,29.43,37.41,29.43,37.34,29.43Z"/><path class="cls-4" d="M55,58.36a14.19,14.19,0,0,1-1.55-.1c-1.14-.13-2.75-.94-2.61-2.28a1.4,1.4,0,0,1,.73-1.07A11.41,11.41,0,0,0,51.2,56c-.12,1.12,1.43,1.78,2.28,1.87,2.85.33,4.74-.28,5.33-1a6,6,0,0,0,1-2.28,13,13,0,0,0,.3-4.6c-.19-1.58-2-3-2.05-3,.31-.23,2.22,1.26,2.42,3a13.46,13.46,0,0,1-.31,4.73,6.24,6.24,0,0,1-1.09,2.42C58.46,57.89,56.92,58.36,55,58.36Z"/><path class="cls-4" d="M53.56,52.84a3.18,3.18,0,0,1-.48,0c-.55-.08-1.18-.16-1.45-.6a1.86,1.86,0,0,1-.21-1.61,2,2,0,0,1,1-1,2.32,2.32,0,0,1,1.29-.18l.86,0c3.12,0,3.71-.7,3.72-.71.23.32-.47,1.15-4.3,1.07a2.53,2.53,0,0,0-1.39.12,1.58,1.58,0,0,0-.8.84A1.53,1.53,0,0,0,51.94,52c.18.29.71.36,1.05.4a24.82,24.82,0,0,0,4.78-.36C57.55,52.55,54.84,52.84,53.56,52.84Z"/><path class="cls-4" d="M54.23,55.7a13.23,13.23,0,0,1-1.44-.07A1.8,1.8,0,0,1,51,53.74a2.18,2.18,0,0,1,1-1.53,7.61,7.61,0,0,0-.59,1.56c-.08.91.71,1.41,1.48,1.49a25.33,25.33,0,0,0,5.1-.2C58,55.44,56.08,55.7,54.23,55.7Z"/><path class="cls-4" d="M35.38,39.85c-1.67,0-4.93-4.71-5.32-5.28,0-.15,1.79-7.21,1.79-7.21.36.09-1.43,7.07-1.43,7.07,1.47,2.15,4.11,5.37,5.09,5,.64-.22.63-2.68.41-4.35,0-.06.7-3.11.7-3.11.36.08-.33,3.1-.33,3.1.1.79.49,4.31-.66,4.71A.69.69,0,0,1,35.38,39.85Z"/><path class="cls-4" d="M51.88,65.18H35.1c-.17-.24,8.21-24.7,8.21-24.7.18-.12,16.95-.12,16.95-.12.18.24-2.79,8.89-2.79,8.89-.35-.12,2.53-8.52,2.53-8.52H43.62L35.36,64.81H51.74L54,58.21c.35.12-2,6.85-2,6.85A.18.18,0,0,1,51.88,65.18Z"/><path class="cls-4" d="M35.45,64.17H34c-.18-.24,8.21-24.7,8.21-24.7.17-.12,16.95-.12,16.95-.12.17.24-.1,1-.1,1-.36-.12-.16-.68-.16-.68H42.54L34.28,63.8h1.17C35.63,64.09,35.55,64.17,35.45,64.17Z"/><path class="cls-4" d="M42.2,24.22C42,24,42,22.11,39,21.23a8,8,0,0,1-3.77-2.07c-.14,1.14-.64,4-2.23,4.71,1.6-1.12,1.9-5.16,1.9-5.2.36-.07,1.17,1.3,4.2,2.2,3.26,1,3.28,3.08,3.27,3.17A.18.18,0,0,1,42.2,24.22Z"/><path class="cls-4" d="M41.42,24.17c-.18-.12-.34-.44-.82-.44.69-.43,1,.16,1,.18C41.47,24.17,41.44,24.17,41.42,24.17Z"/><path class="cls-4" d="M38.18,22.91a2.29,2.29,0,0,0-2.35-.18,2,2,0,0,1,2.48-.14C38.29,22.89,38.24,22.91,38.18,22.91Z"/><path class="cls-4" d="M34.24,59.76a3.56,3.56,0,0,1-1.49-.52,18.54,18.54,0,0,1-5.6-5.08c-.65-.95-.82-1.61-.52-1.94s1.14-.14,1.81.22c-.91-.07-1.35-.17-1.53,0s-.05.6.55,1.49a15.79,15.79,0,0,0,2.48,2.75,16.84,16.84,0,0,0,3,2.21c.94.51,1.42.53,1.54.4s0-.84-1-2.06c1.3,1,1.62,1.88,1.23,2.31A.65.65,0,0,1,34.24,59.76Z"/><path class="cls-4" d="M56.5,42.52a3.87,3.87,0,0,0,1.56-2.23c.34-1.17.12-2.3-.47-2.47s-1.28.55-1.64,1.61c.09-1.39,1-2.18,1.74-2s1.13,1.52.73,2.93C58.05,41.65,57.25,42.52,56.5,42.52Z"/><path class="cls-4" d="M51.36,42.52a3.91,3.91,0,0,0,1.56-2.23c.34-1.17.12-2.3-.48-2.47s-1.27.55-1.64,1.61c.1-1.39,1-2.18,1.75-2s1.13,1.52.73,2.93C52.91,41.65,52.11,42.52,51.36,42.52Z"/><path class="cls-4" d="M46.18,42.52a3.91,3.91,0,0,0,1.56-2.23,3.42,3.42,0,0,0,.1-1.66c-.1-.45-.3-.73-.58-.81-.56-.15-1.27.55-1.64,1.61.1-1.39,1-2.18,1.75-2a1.35,1.35,0,0,1,.83,1.08,3.94,3.94,0,0,1-.1,1.85C47.73,41.65,46.93,42.52,46.18,42.52Z"/><path class="cls-4" d="M56.12,44.74H45.45c0-.37,10.67-.37,10.67-.37C56.3,44.66,56.22,44.74,56.12,44.74Z"/><path class="cls-4" d="M55.16,47.59H44.49c0-.37,10.67-.37,10.67-.37C55.34,47.51,55.26,47.59,55.16,47.59Z"/><path class="cls-4" d="M51.65,52.91h-9c0-.37,9-.37,9-.37C51.83,52.82,51.75,52.91,51.65,52.91Z"/><path class="cls-4" d="M51.88,50.38H43.5c0-.37,8.38-.37,8.38-.37C52.07,50.3,52,50.38,51.88,50.38Z"/><path class="cls-4" d="M51.16,55.7H41.71c0-.37,9.45-.37,9.45-.37C51.34,55.61,51.26,55.7,51.16,55.7Z"/><path class="cls-4" d="M51.43,58.49H40.77c0-.37,10.66-.37,10.66-.37C51.62,58.4,51.54,58.49,51.43,58.49Z"/><path class="cls-4" d="M155.05,67.31a.54.54,0,0,1-.41-.2c-.33-.43-.14-1.46-.11-1.58.28.45.23,1.13.41,1.35.42.06.67-.73.75-1.28C156,65.93,155.79,67.31,155.05,67.31Z"/><path class="cls-4" d="M150.87,67.08a.55.55,0,0,1-.42-.2c-.33-.43-.14-1.47-.11-1.59.29.45.23,1.13.41,1.36.42.06.67-.74.75-1.28C151.83,65.7,151.6,67.08,150.87,67.08Z"/><path class="cls-4" d="M96,123.06c.78-3.11,1.23-10.54,1.47-14.53l0-.37a.36.36,0,0,1,.35.39c-.24,4-.69,11.47-1.66,14.38A.19.19,0,0,1,96,123.06Z"/><path class="cls-4" d="M127.79,123.06a77,77,0,0,1-.38-15.54c.13-2,.2-4.17.21-6.7a31.65,31.65,0,0,1,.16,6.73,108.53,108.53,0,0,0,.19,15.31A1.51,1.51,0,0,1,127.79,123.06Z"/><path class="cls-4" d="M93.21,108.87h-.56a14.48,14.48,0,0,1-7.54-2.25,14.1,14.1,0,0,1-2.28-1.87c-3.35-3.42-5-8.15-6.18-12.32A112.55,112.55,0,0,1,74,79.53c.05-.38,1.52-3.35,6.7-3.82,4.67-.42,6.21,1.34,6.28,1.41,1,3,2,6,2.94,8.95.5,1.5,1,3,1.48,4.5.43,1.34.76,2.37,1.76,3a2.75,2.75,0,0,0,3.12-.34,7.35,7.35,0,0,0,1.84-2.93c.22-.55.45-1.1.67-1.66a50.69,50.69,0,0,1,2.41-5.39,10.84,10.84,0,0,1,4.91-5,8.41,8.41,0,0,1,2.34-.69,14.13,14.13,0,0,1-2.19,1,10.45,10.45,0,0,0-4.73,4.82,51.13,51.13,0,0,0-2.4,5.35c-.22.56-.44,1.11-.67,1.66a7.74,7.74,0,0,1-1.94,3.08,3.1,3.1,0,0,1-3.54.37,4.6,4.6,0,0,1-1.86-2.92l-1.55-4.74c-1-3-1.93-5.89-2.89-8.84-.21-.2-1.79-1.64-5.94-1.26-4.6.42-6.18,2.92-6.39,3.31A114,114,0,0,0,77,92.32c1.16,4.12,2.79,8.8,6.09,12.16a13.29,13.29,0,0,0,2.21,1.82,14.16,14.16,0,0,0,7.35,2.19,16.83,16.83,0,0,0,13-5.21A23.1,23.1,0,0,0,109,99a30.22,30.22,0,0,0,2.08-4.23,33.13,33.13,0,0,0,1.1-3.22c.09-.34.22-.8.31-1.27a1.77,1.77,0,0,1,0,1.37,31,31,0,0,1-3.21,7.54,23.94,23.94,0,0,1-3.34,4.38,17.18,17.18,0,0,1-12.77,5.33Z"/><path class="cls-4" d="M133.13,89.74a3,3,0,0,1-2.24-1,4.62,4.62,0,0,1-.87-3.35v-5c0-1.54,0-3,0-4.5s0-3,0-4.6a19,19,0,0,1,.35,4.6c0,1.48,0,3,0,4.49v5a4.29,4.29,0,0,0,.77,3.1,2.73,2.73,0,0,0,3.07.65,7.36,7.36,0,0,0,2.65-2.22c.42-.49.82-1,1.23-1.47A44.86,44.86,0,0,1,142,81.19a15.86,15.86,0,0,1,11-4.12c-.89.24-6.38.39-10.7,4.39a41.83,41.83,0,0,0-3.85,4.25l-1.24,1.47a7.79,7.79,0,0,1-2.79,2.32A3.41,3.41,0,0,1,133.13,89.74Z"/><path class="cls-4" d="M132.23,104.08a18.33,18.33,0,0,1-4.3-.53,29.12,29.12,0,0,0,6.67,0,17.44,17.44,0,0,0,5.52-1.84,18,18,0,0,0,2.37-1.45A5.39,5.39,0,0,1,140.3,102a18.08,18.08,0,0,1-5.65,1.88A16.13,16.13,0,0,1,132.23,104.08Z"/><path class="cls-4" d="M106.83,74a3.43,3.43,0,0,1-2.69-1.37,4.76,4.76,0,0,1-.36-3.56l1.65-6.75c.36.09-1.29,6.85-1.29,6.85a4.37,4.37,0,0,0,.31,3.25,3.06,3.06,0,0,0,2.4,1.21C107,73.92,106.93,74,106.83,74Z"/><path class="cls-4" d="M103.75,68.12c-.8-.19-1-.64-.93-1.06l1.09-3.88a.8.8,0,0,1,1-.55,1,1,0,0,1,.61.37c-.94-.08-1.18,0-1.24.28l-1.09,3.88a.43.43,0,0,0,.3.53c.38.11.62,0,.69-.25C104.42,67.89,104.1,68.12,103.75,68.12Z"/><path class="cls-4" d="M113.24,79.76l-.81-.16a8.2,8.2,0,0,1-3.4-1.2,5.78,5.78,0,0,1-2.19-3.23,3.64,3.64,0,0,1,.51-3.15,7,7,0,0,1,1-1,4.86,4.86,0,0,0,1.19-1.25,3.1,3.1,0,0,0-.54-3.49,7.69,7.69,0,0,0-.83-.6,7.36,7.36,0,0,1-.92-.66,6.75,6.75,0,0,1-1.19-1.37,4.65,4.65,0,0,1-.49-4,3.68,3.68,0,0,1,1-1.76c.07-.05,1.69-1.13,4.94.19a10,10,0,0,1,4.49-.38c1.6.31,5.23,1.75,4.26,8.57a13.75,13.75,0,0,1-.54,2c-.74,2.33-1.67,5.22.66,8.37-2.74-3.08-1.74-6.2-1-8.48a13.55,13.55,0,0,0,.52-1.94c.93-6.51-2.46-7.87-4-8.15a9.73,9.73,0,0,0-4.37.39c-3.24-1.3-4.71-.31-4.77-.27a3.77,3.77,0,0,0-.85,1.58,4.25,4.25,0,0,0,.46,3.73,6.54,6.54,0,0,0,1.12,1.29,6,6,0,0,0,.87.63,7.82,7.82,0,0,1,.88.63,3.46,3.46,0,0,1,.61,3.95,5.33,5.33,0,0,1-1.27,1.36,5.9,5.9,0,0,0-1,.9,3.27,3.27,0,0,0-.44,2.83,5.41,5.41,0,0,0,2,3,7.88,7.88,0,0,0,3.25,1.13l.78.16C113.4,79.7,113.32,79.76,113.24,79.76Z"/><path class="cls-4" d="M112,58.18a19.75,19.75,0,0,1-.84-2.49,3.39,3.39,0,0,0-3.27-2.49H62.43a3.85,3.85,0,0,0-2.06.64,2.31,2.31,0,0,1,2.06-1h45.46a3.78,3.78,0,0,1,3.63,2.77l.66,2.35C112,58.18,112,58.18,112,58.18Z"/><path class="cls-4" d="M76.11,89.83H70.58A3.78,3.78,0,0,1,67,87.06L58.8,57.6C59.15,57.5,67.3,87,67.3,87a3.42,3.42,0,0,0,3.28,2.5h5.53C76.3,89.74,76.21,89.83,76.11,89.83Z"/><path class="cls-4" d="M98.53,89.83H91c0-.37,7.56-.37,7.56-.37C98.71,89.74,98.63,89.83,98.53,89.83Z"/><path class="cls-4" d="M108.28,57.74a2.2,2.2,0,0,0-2.14-1.5h-2.37c0-.38,2.37-.38,2.37-.38a2.25,2.25,0,0,1,2.32,1.64C108.31,57.73,108.3,57.74,108.28,57.74Z"/><path class="cls-4" d="M75.43,86.79H72.85a3.15,3.15,0,0,1-3-2.31L62.54,58.19a1.84,1.84,0,0,1,1.77-2.33h32.2c0,.38-32.2.38-32.2.38a1.44,1.44,0,0,0-1.16.57,1.47,1.47,0,0,0-.25,1.28l7.27,26.29a2.8,2.8,0,0,0,2.68,2h2.58C75.61,86.7,75.53,86.79,75.43,86.79Z"/><path class="cls-4" d="M99.76,86.79h-9.9c0-.37,9.9-.37,9.9-.37C100,86.7,99.87,86.79,99.76,86.79Z"/><path class="cls-4" d="M82.39,61.6H70.19c0-.37,12.2-.37,12.2-.37C82.57,61.52,82.49,61.6,82.39,61.6Z"/><path class="cls-4" d="M83.17,64.25H78.34c0-.37,4.83-.37,4.83-.37C83.36,64.17,83.27,64.25,83.17,64.25Z"/><path class="cls-4" d="M76,64.25H71c0-.37,5-.37,5-.37C76.15,64.17,76.07,64.25,76,64.25Z"/><path class="cls-4" d="M103.79,61.6H91.6c0-.37,12.19-.37,12.19-.37C104,61.52,103.89,61.6,103.79,61.6Z"/><path class="cls-4" d="M103.86,64.25H92.38c0-.37,11.48-.37,11.48-.37C104,64.17,104,64.25,103.86,64.25Z"/><path class="cls-4" d="M103.79,69.59H94.44c0-.37,9.35-.37,9.35-.37C104,69.51,103.89,69.59,103.79,69.59Z"/><path class="cls-4" d="M104,72.25H95.22c0-.37,8.79-.37,8.79-.37C104.2,72.16,104.11,72.25,104,72.25Z"/><path class="cls-4" d="M88,77.59H87c0-.38,1.06-.38,1.06-.38C88.2,77.5,88.12,77.59,88,77.59Z"/><path class="cls-4" d="M88.8,80.24h-1c0-.37,1-.37,1-.37C89,80.16,88.91,80.24,88.8,80.24Z"/><path class="cls-4" d="M108.12,77.59H97.23c0-.38,10.89-.38,10.89-.38C108.31,77.5,108.22,77.59,108.12,77.59Z"/><path class="cls-4" d="M103.72,80.24H98c0-.37,5.71-.37,5.71-.37C103.91,80.16,103.82,80.24,103.72,80.24Z"/><path class="cls-4" d="M175,117.68a8.62,8.62,0,0,1-3-.57c-2.15-.79-3.73-2.54-4.84-5.37,1.41,2.59,2.93,4.27,5,5A6.88,6.88,0,0,0,180,115,5.91,5.91,0,0,1,175,117.68Z"/><path class="cls-4" d="M181.72,113.39a25.56,25.56,0,0,0,2.29-6.22c.17-.88.37-2.12.58-3.43.19-1.15.4-2.4.6-3.58a12.53,12.53,0,0,1-.23,3.64c-.22,1.31-.42,2.56-.59,3.44a17.28,17.28,0,0,1-2.5,6.07A.18.18,0,0,1,181.72,113.39Z"/><path class="cls-4" d="M170.66,107c1.55-5.62,3.3-10.3,3.32-10.35.33.18-1.42,4.85-3.15,10.22A.18.18,0,0,1,170.66,107Z"/><path class="cls-4" d="M177.43,99.68c-1.94-.77-3.21-1.65-3.48-2.37a.76.76,0,0,1,0-.61c.39-.76,1.36-.94,2.89-.53-1,.11-2.19,0-2.55.7.22.92,1.45,1.74,3.19,2.45C177.57,99.63,177.5,99.68,177.43,99.68Z"/><path class="cls-4" d="M183.9,101.12a7.18,7.18,0,0,1-.76,0c1.69-.21,1.94-.57,2.06-1C185.37,100.85,184.89,101.12,183.9,101.12Z"/><path class="cls-4" d="M185.38,100.37a2.36,2.36,0,0,0-.59-1c.58.09.89.5.76.9A.17.17,0,0,1,185.38,100.37Z"/><path class="cls-4" d="M176,96.35c-.18-.27,0-8.63-3.63-14.13s-13-5-13.14-5c.08-.38,9.78-.88,13.46,4.76s3.5,14.08,3.5,14.16A.19.19,0,0,1,176,96.35Z"/><path class="cls-4" d="M140.09,123.17c1.08-5.79,3.35-18.71,2.37-23.17a22.56,22.56,0,0,1,.75-11.07c.33.18-1.59,5.58-.39,11,1,4.52-1.28,17.52-2.54,23.11A.2.2,0,0,1,140.09,123.17Z"/><path class="cls-4" d="M153.21,73.84a4,4,0,0,1-1.37-.21,2.49,2.49,0,0,1-1.53-1.84,9.54,9.54,0,0,1-.29-2.71l.24-6.65c.37,0,.13,6.66.13,6.66a9.12,9.12,0,0,0,.28,2.6,2.12,2.12,0,0,0,1.3,1.59,3.66,3.66,0,0,0,1.49.18,19.71,19.71,0,0,0,2.14-.18,3.79,3.79,0,0,1-2.13.56Z"/><path class="cls-4" d="M159.13,70.4a2.15,2.15,0,0,1-1.07-.29,2.58,2.58,0,0,1,1.07-.08,1.75,1.75,0,1,0,0-3.5,1.8,1.8,0,0,0-1,.31.9.9,0,0,1,1-.68,2.12,2.12,0,1,1,.06,4.24Z"/><path class="cls-4" d="M159.51,69.47c-.12,0-1.38-1.12-1.38-1.12,0-.29,1.51-1.29,1.51-1.29.21.31-1.08,1.17-1.08,1.17l1.07.91C159.61,69.45,159.56,69.47,159.51,69.47Z"/><path class="cls-4" d="M151.54,69.41a2.3,2.3,0,0,1-1-1.38.5.5,0,0,1,.13-.42c.29-.31.76-.08,1.07.08a8.92,8.92,0,0,0,.51-2c.3.42,0,2.15-.08,2.33-.25.19-.38.12-.59,0s-.54-.26-.64-.16a1.92,1.92,0,0,0,.67,1.22C151.65,69.38,151.59,69.41,151.54,69.41Z"/><path class="cls-4" d="M153.13,71a1.91,1.91,0,0,1-.64-.11,11.34,11.34,0,0,0,1.13-.39,1.46,1.46,0,0,0,.54-.88c.36.08.24.83-.34,1.2A1.37,1.37,0,0,1,153.13,71Z"/><path class="cls-4" d="M153,81.66a1,1,0,0,1-.5-.12c-1-.65.11-4,.39-4.75l0-3.09c.38,0,.39,3.12.39,3.12-.59,1.65-1.15,4-.57,4.4.88.55,4.31-1.83,6.32-3.49l.18-5.73c.37,0,.18,5.82.18,5.82C158.8,78.37,154.8,81.66,153,81.66Z"/><path class="cls-4" d="M160.75,61.69c-.05-.36,1.36-.69,1.36-.69.08.36-1.32.69-1.32.69Z"/><path class="cls-4" d="M169.65,123.17c-.4-1-.66-1.93-.93-2.88a40.71,40.71,0,0,1-1.43-6.31c-.73-6.91-.1-23.4-.1-23.57.37.18-.26,16.65.47,23.53a39.1,39.1,0,0,0,1.42,6.25c.27,1,.53,1.86.75,2.75C169.68,123.17,169.66,123.17,169.65,123.17Z"/><path class="cls-4" d="M159.15,66.4c-1.05-1.37-.63-3.49-.42-4.31a17.61,17.61,0,0,1-8.33.53,21.24,21.24,0,0,0,8.54-1c.23.26-.64,3,.36,4.48C159.22,66.39,159.18,66.4,159.15,66.4Z"/><path class="cls-4" d="M159.68,72.2c-1.12-.22-.87-1.92-.86-2,.31.43.26,1.51.77,1.61.67.13,2.68-1.15,4.27-4.27,1.24-2.41.81-4.12.23-5.13A2.86,2.86,0,0,0,162.64,61a7.79,7.79,0,0,0-7.21-3.13c-2.58.17-4.36,1-5.13,2.35a4.27,4.27,0,0,0,.24,4.14,3.8,3.8,0,0,1-.57-4.32c.85-1.48,2.72-2.36,5.43-2.54,4.9-.34,7,2.63,7.37,3.15a3.36,3.36,0,0,1,1.64,1.55c.62,1.08,1.09,2.92-.22,5.48C162.65,70.75,160.67,72.2,159.68,72.2Z"/><path class="cls-4" d="M165.12,63.06a3,3,0,0,1-.67-.06c.18-.34,2.38.11,4.33-2.07a3,3,0,0,0,.2-3.41,4.84,4.84,0,0,0-4.7-2.68A3.29,3.29,0,0,0,161.9,56a4.37,4.37,0,0,0-.72,3c-.38,0-.63-1.86.42-3.2a3.69,3.69,0,0,1,2.65-1.31,5.24,5.24,0,0,1,5.06,2.88,3.33,3.33,0,0,1-.26,3.83A5.23,5.23,0,0,1,165.12,63.06Z"/><path class="cls-4" d="M187.37,123.19H2.73c0-.38,184.64-.38,184.64-.38C187.56,123.1,187.48,123.19,187.37,123.19Z"/><path class="cls-4" d="M60.58,63.55h-8c0-.37,8-.37,8-.37C60.77,63.47,60.69,63.55,60.58,63.55Z"/><path class="cls-4" d="M35.72,123.19a4.65,4.65,0,0,1-4.64-4.64V67.82a4.65,4.65,0,0,1,3-4.3,5.46,5.46,0,0,0-2.61,4.3v50.73a4.27,4.27,0,0,0,4.27,4.26C35.9,123.1,35.82,123.19,35.72,123.19Z"/><path class="cls-4" d="M125.48,82.92c-.18-.18-.18-11.59-.18-11.59.37,0,.37,11.41.37,11.41A.18.18,0,0,1,125.48,82.92Z"/><path class="cls-4" d="M125.42,67.82a5.19,5.19,0,0,0-1-2.62,2.6,2.6,0,0,1,1.21,2.44A.19.19,0,0,1,125.42,67.82Z"/><path class="cls-4" d="M13.51,123.19C13.35,122.91,31.1,91,31.1,91c.33.18-17.43,32.06-17.43,32.06A.18.18,0,0,1,13.51,123.19Z"/><path class="cls-4" d="M16,123.19c-.16-.28,15.09-27.67,15.09-27.67.33.18-14.93,27.57-14.93,27.57A.19.19,0,0,1,16,123.19Z"/><path class="cls-4" d="M9.06,123.19C8.9,122.91,31.1,83,31.1,83c.33.18-21.88,40.05-21.88,40.05A.18.18,0,0,1,9.06,123.19Z"/><path class="cls-4" d="M31.26,105.93H25.62c0-.37,5.64-.37,5.64-.37C31.45,105.85,31.37,105.93,31.26,105.93Z"/><path class="cls-4" d="M31.12,109.45H23.83c0-.37,7.29-.37,7.29-.37C31.31,109.37,31.23,109.45,31.12,109.45Z"/><path class="cls-4" d="M31.26,98.42H29.87c0-.38,1.39-.38,1.39-.38C31.45,98.33,31.37,98.42,31.26,98.42Z"/><path class="cls-4" d="M31.26,117H19.47c0-.37,11.79-.37,11.79-.37C31.45,116.89,31.37,117,31.26,117Z"/><path class="cls-4" d="M31.55,120.49H17.62c0-.37,13.93-.37,13.93-.37C31.73,120.41,31.65,120.49,31.55,120.49Z"/><path class="cls-4" d="M24,90.44a22.22,22.22,0,0,1-4.84-.52,14.57,14.57,0,0,1-2.27-.65c-.41-.17-1.07-.44-1.1-1-.12-2.56.44-18.21.44-18.37.37.18-.19,15.81-.07,18.36,0,.26.58.49.82.59a13,13,0,0,0,2.26.66,23.18,23.18,0,0,0,8.13.28A7.75,7.75,0,0,1,24,90.44Z"/><path class="cls-4" d="M16.24,110.3c-.18-.2,1.63-20.71,1.63-20.71.37,0-1.45,20.54-1.45,20.54A.18.18,0,0,1,16.24,110.3Z"/><path class="cls-4" d="M192.38,75.14a4.73,4.73,0,0,1-.63-2.46,5.72,5.72,0,0,1,.58-2.58c0,.87-.21,1.7-.21,2.58a5.47,5.47,0,0,0,.44,2.2C192.43,75.13,192.41,75.14,192.38,75.14Z"/><path class="cls-4" d="M194.76,77a2.42,2.42,0,0,1-1.74-.79,7.87,7.87,0,0,0,1.74.42c1.45,0,2.63-1.79,2.63-4s-1.18-4-2.63-4a2.12,2.12,0,0,0-1.55.75,1.52,1.52,0,0,1,1.55-1.13c1.65,0,3,2,3,4.36S196.41,77,194.76,77Z"/><path class="cls-4" d="M194.76,74.25c-.63,0-1.13-.69-1.13-1.57s.5-1.57,1.13-1.57,1.12.69,1.12,1.57S195.38,74.25,194.76,74.25Zm0-2.76c-.41,0-.75.54-.75,1.19s.34,1.2.75,1.2.75-.55.75-1.2S195.16,71.49,194.76,71.49Z"/><path class="cls-4" d="M167.38,77c-1.66,0-3-2-3-4.36s1.35-4.36,3-4.36c-1.46.38-2.64,2.16-2.64,4.36s1.18,4,2.64,4C167.56,77,167.48,77,167.38,77Z"/><path class="cls-4" d="M194.76,68.7h-6.64c0-.38,6.64-.38,6.64-.38C194.94,68.61,194.86,68.7,194.76,68.7Z"/><path class="cls-4" d="M183,68.7H167.38c0-.38,15.65-.38,15.65-.38C183.21,68.61,183.13,68.7,183,68.7Z"/><path class="cls-4" d="M194.46,77H167.38c0-.37,27.08-.37,27.08-.37C194.65,77,194.56,77,194.46,77Z"/><path class="cls-4" d="M180.18,85.93c-.12-.32,10.31-9.22,10.31-9.22.24.29-10.19,9.18-10.19,9.18A.19.19,0,0,1,180.18,85.93Z"/><path class="cls-4" d="M181.66,93.07c-.18-.18-.18-6.64-.18-6.64s11.3-9.72,11.3-9.72c.24.29-10.93,9.81-10.93,9.81v6.37A.19.19,0,0,1,181.66,93.07Z"/><path class="cls-4" d="M181.66,123.06h-1.48c-.19-.18-.19-22-.19-22,.37,0,.37,21.62.37,21.62h1.12V101.2c.37,0,.37,21.68.37,21.68A.19.19,0,0,1,181.66,123.06Z"/><path class="cls-4" d="M180.18,93.07c-.19-.18-.19-7.32-.19-7.32.37,0,.37,7.14.37,7.14A.18.18,0,0,1,180.18,93.07Z"/><path class="cls-4" d="M180.34,96.18c-.4,0-.74,0-1-.05-1.12-.1-2.2-.36-2.13-2.31s2.8-2.25,2.92-2.26c0,.37-2.48.65-2.55,2.27s.74,1.84,1.8,1.93a6.89,6.89,0,0,0,2.86-.26A2.27,2.27,0,0,1,180.34,96.18Z"/><path class="cls-4" d="M141.71,46.56A4.88,4.88,0,0,0,146,41.92V30.7a4.27,4.27,0,0,0-4.27-4.27H120.48a4.27,4.27,0,0,0-4.27,4.27V41.92a4.27,4.27,0,0,0,4.27,4.27h12.09c0,.37-12.09.37-12.09.37a4.64,4.64,0,0,1-4.64-4.64V30.7a4.64,4.64,0,0,1,4.64-4.64h21.23a4.65,4.65,0,0,1,4.64,4.64V41.92A4.65,4.65,0,0,1,141.71,46.56Z"/><path class="cls-4" d="M93.63,33.84H82.05A2.08,2.08,0,0,1,80,31.76V26.31c.37,0,.37,5.45.37,5.45a1.71,1.71,0,0,0,1.71,1.7H93.63a1.7,1.7,0,0,0,1.7-1.7V25.28a1.71,1.71,0,0,0-1.7-1.71H82.05c0-.37,11.58-.37,11.58-.37a2.08,2.08,0,0,1,2.08,2.08v6.48A2.08,2.08,0,0,1,93.63,33.84Z"/><path class="cls-4" d="M125.66,73.29c2.53-.64,4.39-1.42,4.39-2.24,0-.42-.38-.79-1.13-1.11,1,0,1.5.53,1.5,1.11,0,1.06-1.86,1.94-4.74,2.23Z"/><path class="cls-4" d="M120.07,66.74a4,4,0,0,0,1-.83c.28.24-.13.8-1,.83Z"/><path class="cls-4" d="M119.59,61c1.09-1.8,3.55-.59,3.66-.54-.19.32-2.48-.79-3.52.47A.19.19,0,0,1,119.59,61Z"/><path class="cls-4" d="M128.56,72.67a6.41,6.41,0,0,1-.15-1.8,3.69,3.69,0,0,1,.07-.49c.23-1.19.82-4.34-.49-6.89a5.42,5.42,0,0,0-4.13-2.73c-1.25,0-2.17,1.53-2.51,3-.28,1.18-.22,2.54.56,2.91a1.09,1.09,0,0,0,1,0c1.12-.53,1.65-2.8,1.65-2.82.34.18-.22,2.55-1.49,3.16a1.51,1.51,0,0,1-1.34,0c-1-.5-1.06-2.11-.76-3.34.37-1.57,1.42-3.24,2.84-3.24a5.73,5.73,0,0,1,4.49,2.93c1.37,2.67.76,5.91.53,7.13,0,.17-.07.36-.07.4,0,.36,0,1.59,0,1.64A.19.19,0,0,1,128.56,72.67Z"/><path class="cls-4" d="M124.14,71.62a2.73,2.73,0,0,1-.83-.11,1.75,1.75,0,0,1-.82-.45,1.69,1.69,0,0,1-.41-1.12,2,2,0,0,1,.47-1.43,2.88,2.88,0,0,1,1.52-.58c1.27-.23,1.82-.77,1.85-1.65.35.75,0,1.69-1.57,2a3,3,0,0,0-1.54.52,1.62,1.62,0,0,0-.36,1.15,1.31,1.31,0,0,0,.31.87,1.4,1.4,0,0,0,.65.36,5.39,5.39,0,0,0,4.41-1.44A4.49,4.49,0,0,1,124.14,71.62Z"/><path class="cls-4" d="M18.83,39.06a5.52,5.52,0,0,1,2.68-7.27,9.51,9.51,0,0,1,1.88-.58,5.28,5.28,0,0,0,2.55-1.06,3.91,3.91,0,0,0,1-2.78,12.51,12.51,0,0,0-.2-1.94c-.07-.41-.14-.83-.17-1.25a23.27,23.27,0,0,1-.11-3.25c.05-1.42.1-2.75,1.12-3.72a4.71,4.71,0,0,1,2.09-1A22.54,22.54,0,0,1,32,15.76a4.91,4.91,0,0,1,.89-.06,1.72,1.72,0,0,0,1-.16s2.92-2.52,7.85.59c3.22,2,3.25,3.72,3,7a9,9,0,0,1-1.69,4.1c-.75,1.19-1.4,2.22-1,3.16A7.55,7.55,0,0,0,43.15,32c1,1.27,2.08,2.57,1,4.88.67-2.26-.27-3.42-1.25-4.64a7.87,7.87,0,0,1-1.12-1.65c-.51-1.11.19-2.22,1-3.51a8.7,8.7,0,0,0,1.63-3.93c.23-3.23.2-4.75-2.85-6.68-4.67-3-7.29-.72-7.4-.62a1.92,1.92,0,0,1-1.28.25,3.78,3.78,0,0,0-.5,0,20.88,20.88,0,0,0-2.56.44,4,4,0,0,0-1.92.95c-.91.87-1,2.06-1,3.32A24,24,0,0,0,27,24.15c0,.4.1.82.16,1.22a12,12,0,0,1,.21,2,4.13,4.13,0,0,1-1.15,3.05,5.57,5.57,0,0,1-2.72,1.15,9,9,0,0,0-1.8.55A5.23,5.23,0,0,0,19,38.82C18.88,39.06,18.85,39.06,18.83,39.06Z"/><path class="cls-4" d="M38.69,28.46c.35-.39.62-.65.75-.81a1.29,1.29,0,0,0,.28-.5,2,2,0,0,1-.88-1.08A19,19,0,0,1,39,23.64,8,8,0,0,1,39.2,26a1.79,1.79,0,0,0,.76.85c.07,0,.17.15.11.4a1.72,1.72,0,0,1-1.37,1.19Z"/><path class="cls-4" d="M116.46,83.42c-.42,0-.79,0-1.09,0a2.5,2.5,0,0,1-2.08-1.48,4,4,0,0,1-.15-2.37c.23-.13,5.12.19,6.92-2.87a2.37,2.37,0,0,1,2,1.18,2.66,2.66,0,0,1,.06,2.29C121.16,82.92,118.35,83.42,116.46,83.42Zm-2.83-1.67A2.12,2.12,0,0,0,115.41,83c1.55.15,5.26.17,6.38-3a2.33,2.33,0,0,0,0-2A2.52,2.52,0,0,0,120.31,77c-1.8,2.84-6,2.84-6.85,2.81a3.71,3.71,0,0,0,.17,2Z"/><path class="cls-4" d="M123.06,102.4h-.69a11.32,11.32,0,0,1-4.1-.8,5.32,5.32,0,0,1-3.35-5.23,12.52,12.52,0,0,1,1.18-5c.08-.2.17-.39.26-.58a8.58,8.58,0,0,0,.78-2.12c.42-2.32-1.33-4.4-2.41-5.43,1.39.82,3.23,3,2.78,5.5a9,9,0,0,1-.81,2.21c-.09.19-.18.38-.26.57a12.13,12.13,0,0,0-1.15,4.88,5,5,0,0,0,3.13,4.89,10.83,10.83,0,0,0,4,.77c2.51.1,4.3-.37,5.43-1.46a5.66,5.66,0,0,0,1.52-3.19,13.71,13.71,0,0,0-.54-6.85,24.9,24.9,0,0,0-2.54-4.68c-.26-.41-.52-.81-.77-1.23a14.92,14.92,0,0,0-3.63-4.41,10.16,10.16,0,0,1,3.94,4.22c.26.41.51.82.78,1.22a25.84,25.84,0,0,1,2.56,4.75,13.88,13.88,0,0,1,.56,7,6,6,0,0,1-1.62,3.4C127,101.88,125.33,102.4,123.06,102.4Z"/><path class="cls-4" d="M156.66,65.25c-.19-.22-.17-.6-.85-.88a1.16,1.16,0,0,0-1.16.09c-.22-.3.35-.81,1.29-.43s.91,1,.9,1A.18.18,0,0,1,156.66,65.25Z"/><path class="cls-4" d="M151.85,64.47a1.29,1.29,0,0,0-1.28-.14c.81-.72,1.38-.21,1.4-.19C152,64.45,151.9,64.47,151.85,64.47Z"/><path class="cls-4" d="M185.41,65.31a9.76,9.76,0,0,1,.7-2.21,3.82,3.82,0,0,1-.53,2.1A.2.2,0,0,1,185.41,65.31Zm1.59-4a10.85,10.85,0,0,1,.37-2.29,3.75,3.75,0,0,1-.2,2.16A.17.17,0,0,1,187,61.35Zm.92-4.17a16.39,16.39,0,0,1,0-2.32A3.59,3.59,0,0,1,188.1,57,.18.18,0,0,1,187.92,57.18Zm.16-4.26a20.26,20.26,0,0,1-.41-2.28,3.63,3.63,0,0,1,.59,2.09Zm-.66-4.21c-.36-.82-.58-1.5-.82-2.16a3.75,3.75,0,0,1,1,1.93C187.45,48.71,187.43,48.71,187.42,48.71Zm-1.49-4c-.47-.74-.81-1.36-1.18-2a3.67,3.67,0,0,1,1.35,1.69C186,44.71,186,44.72,185.93,44.72Zm-2.24-3.63c-.56-.63-1-1.17-1.51-1.69a3.63,3.63,0,0,1,1.66,1.39C183.77,41.08,183.73,41.09,183.69,41.09ZM180.79,38c-.49-.37-.88-.69-1.27-1l-.5-.37a.57.57,0,0,1,.72.08c.4.31.8.64,1.17,1C180.89,37.94,180.84,38,180.79,38Zm-3.42-2.54c-.71-.4-1.32-.76-1.94-1.08a3.76,3.76,0,0,1,2,.74C177.49,35.39,177.43,35.42,177.37,35.42Zm-3.78-2c-.73-.29-1.39-.54-2.06-.76a3.75,3.75,0,0,1,2.13.41C173.73,33.4,173.66,33.44,173.59,33.44Zm-18.81-.81c0-.38.71-.66,2-1a15.23,15.23,0,0,1-1.94.94Zm14.76-.53c-.73-.17-1.43-.32-2.12-.43a3.77,3.77,0,0,1,2.16.06C169.7,32,169.62,32.1,169.54,32.1Zm-10.61-.46A3.89,3.89,0,0,1,161,31a5,5,0,0,1-2.08.6Zm6.4-.22c-.72-.06-1.43-.09-2.14-.09a3.76,3.76,0,0,1,2.15-.28C165.5,31.35,165.42,31.42,165.33,31.42Z"/><path class="cls-4" d="M120.9,23c-.39-.8-.64-1.46-.93-2.1a3.6,3.6,0,0,1,1.11,1.86C120.94,23,120.92,23,120.9,23Zm-1.74-3.89c-.52-.69-.91-1.28-1.34-1.84a3.58,3.58,0,0,1,1.5,1.56C119.22,19.09,119.19,19.1,119.16,19.1Zm-2.57-3.39c-.61-.57-1.12-1.06-1.65-1.53a3.69,3.69,0,0,1,1.79,1.21C116.68,15.69,116.64,15.71,116.59,15.71Zm-3.2-2.82c-.67-.44-1.26-.84-1.87-1.21a3.75,3.75,0,0,1,2,.88C113.5,12.86,113.44,12.89,113.39,12.89Zm-3.64-2.24c-.69-.33-1.34-.64-2-.94a4,4,0,0,1,2.09.59C109.89,10.62,109.82,10.65,109.75,10.65Zm-3.9-1.73c-.71-.25-1.39-.49-2.07-.71a4.11,4.11,0,0,1,2.14.35C106,8.88,105.93,8.92,105.85,8.92Zm-4.06-1.3c-.72-.19-1.42-.36-2.12-.51a3.91,3.91,0,0,1,2.16.15C101.94,7.57,101.87,7.62,101.79,7.62Zm-4.17-.93c-.72-.13-1.43-.25-2.14-.35a4.1,4.1,0,0,1,2.17,0C97.78,6.62,97.71,6.69,97.62,6.69Zm-4.23-.61c-.72-.08-1.43-.15-2.14-.2a4,4,0,0,1,2.16-.17C93.56,6,93.48,6.08,93.39,6.08Z"/><path class="cls-4" d="M51,32.63c-.18-.25-.08-1,.25-2.34a15.69,15.69,0,0,1-.06,2.17A.2.2,0,0,1,51,32.63Zm1-4.16a6.35,6.35,0,0,1,.56-2.26,5,5,0,0,1-.39,2.13A.18.18,0,0,1,52,28.47Zm1.59-4a6.16,6.16,0,0,1,.82-2.18,5,5,0,0,1-.65,2.07A.18.18,0,0,1,53.63,24.51Zm2.09-3.73a5.75,5.75,0,0,1,1.07-2.05,5,5,0,0,1-.91,2A.21.21,0,0,1,55.72,20.78Zm2.56-3.42a5.26,5.26,0,0,1,1.31-1.89,5.19,5.19,0,0,1-1.17,1.83A.2.2,0,0,1,58.28,17.36Zm3-3a4.9,4.9,0,0,1,1.52-1.7,5,5,0,0,1-1.4,1.65A.21.21,0,0,1,61.27,14.32Zm3.36-2.62a4.66,4.66,0,0,1,1.72-1.48,5.14,5.14,0,0,1-1.61,1.45A.2.2,0,0,1,64.63,11.7Zm3.68-2.16a4.63,4.63,0,0,1,1.86-1.26A4.83,4.83,0,0,1,68.4,9.52.15.15,0,0,1,68.31,9.54Zm3.92-1.69a4.07,4.07,0,0,1,1.91-1,4.75,4.75,0,0,1-1.85,1Zm4.09-1.2a4,4,0,0,1,2.07-.75,5,5,0,0,1-2,.74ZM80.54,6a4.15,4.15,0,0,1,2.12-.55,4.77,4.77,0,0,1-2.1.55Z"/><path class="cls-4" d="M93.4,114.77h-57c0-.38,57-.38,57-.38C93.58,114.68,93.5,114.77,93.4,114.77Z"/><path class="cls-4" d="M47,77.59H39.24c-.18-.19-.18-8-.18-8,.18-.19,7.94-.19,7.94-.19.19.19.19,8,.19,8A.19.19,0,0,1,47,77.59Zm-7.57-.38h7.39V69.82H39.43Z"/><path class="cls-4" d="M47,91.32H39.24c-.18-.18-.18-7.95-.18-7.95.18-.18,7.94-.18,7.94-.18.19.18.19,8,.19,8A.18.18,0,0,1,47,91.32ZM39.43,91h7.39V83.56H39.43Z"/><path class="cls-4" d="M55,107.25c-.19-.19-.19-37.5-.19-37.5.37,0,.37,37.31.37,37.31A.19.19,0,0,1,55,107.25Z"/><path class="cls-4" d="M34.6,17.51A6.46,6.46,0,0,1,34,16.3c.34-.14.8.95.8.95C34.65,17.5,34.62,17.51,34.6,17.51Z"/><path class="cls-4" d="M178.36,92.32c-.13-1.24,1.6-1.83,1.68-1.85-.32.49-1.46,1-1.5,1.68A.18.18,0,0,1,178.36,92.32Z"/><path class="cls-4" d="M121.18,39.52a3.21,3.21,0,1,1,3.21-3.21A3.21,3.21,0,0,1,121.18,39.52Zm0-6.05A2.84,2.84,0,1,0,124,36.31,2.84,2.84,0,0,0,121.18,33.47Z"/><path class="cls-4" d="M143,34.33H126.87C126.87,34,143,34,143,34,143.23,34.25,143.14,34.33,143,34.33Z"/><path class="cls-4" d="M143,38.55H126.87c0-.37,16.17-.37,16.17-.37C143.23,38.47,143.14,38.55,143,38.55Z"/><path class="cls-4" d="M99.34,107.83a6.13,6.13,0,0,0-1.93-4.42,8.25,8.25,0,0,0-5-2.14c-3.76-.33-7.12,1.71-7.67,4.64.22-3.18,3.77-5.36,7.7-5a8.56,8.56,0,0,1,5.2,2.24,5.56,5.56,0,0,1,1.87,4.52A.19.19,0,0,1,99.34,107.83Z"/><path class="cls-4" d="M87.36,8.73a3,3,0,1,1,3-3A3,3,0,0,1,87.36,8.73Zm0-5.69A2.66,2.66,0,1,0,90,5.7,2.66,2.66,0,0,0,87.36,3Z"/></svg>