<?xml version="1.0" encoding="utf-8"?>
<!-- Generator: Adobe Illustrator 26.0.1, SVG Export Plug-In . SVG Version: 6.00 Build 0)  -->
<svg version="1.1" xmlns="http://www.w3.org/2000/svg" xmlns:xlink="http://www.w3.org/1999/xlink" x="0px" y="0px"
	 viewBox="0 0 300 123.9" style="enable-background:new 0 0 300 123.9;" xml:space="preserve">
<style type="text/css">
	.st0{display:none;}
	.st1{display:inline;}
	.st2{fill:none;stroke:#000000;stroke-width:0.25;stroke-miterlimit:10;stroke-dasharray:5.9783,5.9783;}
	.st3{fill:none;stroke:#000000;stroke-width:0.25;stroke-miterlimit:10;stroke-dasharray:6.0702,6.0702;}
	.st4{fill:#2894BE;}
	.st5{fill:#F06E6B;}
	.st6{fill:#FFD040;}
	.st7{fill:#FFF1CD;stroke:#101820;stroke-width:0.3252;stroke-miterlimit:10;}
	.st8{fill:#101820;stroke:#FEFEFE;stroke-width:0.1626;stroke-miterlimit:10;}
	.st9{fill:#0065A1;stroke:#E9F1F7;stroke-width:0.3252;stroke-miterlimit:10;}
	.st10{fill:#FEFEFE;}
	.st11{fill:#DB0032;}
	.st12{fill:#101820;}
	.st13{fill:none;stroke:#FEFEFE;stroke-width:0.9755;stroke-miterlimit:10;}
	.st14{fill:#71767B;}
	.st15{fill:none;stroke:#FEFEFE;stroke-width:0.6824;stroke-linecap:round;stroke-linejoin:round;stroke-miterlimit:10;}
	.st16{fill:none;stroke:#FFF1CD;stroke-width:1.6259;stroke-miterlimit:10;}
	.st17{fill:#FFF1CD;}
	.st18{fill:none;stroke:#101820;stroke-width:0.3252;stroke-miterlimit:10;}
	.st19{fill:none;stroke:#101820;stroke-width:0.2;stroke-miterlimit:10;}
	.st20{fill:#01AFD1;}
	.st21{fill:#F16E6B;}
	.st22{fill:#FFD140;}
	.st23{fill:#FFF1CF;stroke:#000000;stroke-width:0.3298;stroke-miterlimit:10;}
	.st24{stroke:#FFFFFF;stroke-width:0.1649;stroke-miterlimit:10;}
	.st25{fill:#263C8F;stroke:#E9F1F6;stroke-width:0.3298;stroke-miterlimit:10;}
	.st26{fill:#FFFFFF;}
	.st27{fill:#DB1E36;}
	.st28{fill:url(#SVGID_1_);}
	.st29{fill:url(#SVGID_00000182504392439958478260000016119335315447912836_);}
	.st30{fill:url(#SVGID_00000029013556594246899880000009260345657521581471_);}
	.st31{fill:none;stroke:#FFFFFF;stroke-width:0.9893;stroke-miterlimit:10;}
	.st32{fill:#71767C;}
	.st33{fill:none;stroke:#FFFFFF;stroke-width:0.6921;stroke-linecap:round;stroke-linejoin:round;stroke-miterlimit:10;}
	.st34{fill:none;stroke:#FFF1CF;stroke-width:1.649;stroke-miterlimit:10;}
	.st35{fill:#FFF1CF;}
	.st36{fill:none;stroke:#000000;stroke-width:0.3298;stroke-miterlimit:10;}
	.st37{fill:none;stroke:#000000;stroke-width:0.1679;stroke-miterlimit:10;}
	.st38{fill:#7A7A7A;}
	.st39{fill:#A6A6A6;}
	.st40{fill:#D9D9D9;}
	.st41{stroke:#F3F3F3;stroke-width:0.33;stroke-miterlimit:10;}
	.st42{stroke:#FFFFFF;stroke-width:0.165;stroke-miterlimit:10;}
	.st43{fill:#242424;stroke:#F7F7F7;stroke-width:0.33;stroke-miterlimit:10;}
	.st44{stroke:#F7F7F7;stroke-width:0.33;stroke-miterlimit:10;}
	.st45{fill:none;stroke:#F7F7F7;stroke-width:0.33;stroke-miterlimit:10;}
	.st46{fill:#656565;}
	.st47{fill:none;stroke:#FFFFFF;stroke-width:0.6729;stroke-miterlimit:10;}
	.st48{fill:none;stroke:#000000;stroke-width:1.65;stroke-miterlimit:10;}
	.st49{fill:none;stroke:#000000;stroke-width:0.495;stroke-miterlimit:10;}
	.st50{fill:none;stroke:#F3F3F3;stroke-width:0.203;stroke-miterlimit:10;}
	.st51{fill:none;stroke:#F3F3F3;stroke-width:0.33;stroke-miterlimit:10;}
	.st52{fill:none;stroke:#FFFFFF;stroke-width:0.6926;stroke-linecap:round;stroke-linejoin:round;stroke-miterlimit:10;}
</style>
<g id="text_labels">
</g>
<g id="shape_guides_-_delete_when_complete" class="st0">
</g>
<g id="Name">
</g>
<g id="Pantone">
	<g>
		<path class="st4" d="M276.1,61.1l-9,9c-1,1-2.2,1.5-3.6,1.5c-1.3,0-2.6-0.5-3.6-1.5l-26.9-26.9c-2-2-2-5.2,0-7.1l10.7-10.7
			c-0.7,2.4-1,5-1,7.6c0,15.7,12.8,28.5,28.5,28.5C272.9,61.5,274.5,61.4,276.1,61.1z"/>
		<path class="st5" d="M286,51.2l-3.5,3.5l-6.4,6.4c-1.6,0.3-3.2,0.4-4.9,0.4c-15.7,0-28.5-12.8-28.5-28.5c0-2.6,0.4-5.2,1-7.6
			l3.9-3.9l11.1-11.1c-1.6,3-2.8,6.3-3.2,9.9c-0.1,1.1-0.2,2.2-0.2,3.4c0,15.2,12.4,27.6,27.6,27.6c0.1,0,0.1,0,0.2,0
			C284.1,51.3,285.1,51.3,286,51.2z"/>
		<path class="st6" d="M294,43.2l-8,8c-1,0.1-1.9,0.2-2.9,0.2c-0.1,0-0.1,0-0.2,0c-15.2,0-27.6-12.4-27.6-27.6
			c0-1.1,0.1-2.3,0.2-3.4c0.4-3.5,1.5-6.9,3.2-9.9l1.2-1.2c1-1,2.3-1.5,3.6-1.5c1.3,0,2.6,0.5,3.6,1.5L294,36.1
			C295.9,38.1,295.9,41.3,294,43.2z"/>
		<path class="st7" d="M263.5,73.7c-1.8,0-3.7-0.7-5.1-2.1l-26.9-26.9c-2.8-2.8-2.8-7.3,0-10.1l26.9-26.9c2.8-2.8,7.3-2.8,10.1,0
			l26.9,26.9c2.8,2.8,2.8,7.3,0,10.1l-26.9,26.9C267.2,73,265.4,73.7,263.5,73.7z M263.5,7.8c-1.3,0-2.6,0.5-3.6,1.5l-26.9,26.9
			c-2,2-2,5.2,0,7.1L260,70.1c1,1,2.2,1.5,3.6,1.5s2.6-0.5,3.6-1.5L294,43.2c2-2,2-5.2,0-7.1L267.1,9.2
			C266.1,8.2,264.8,7.8,263.5,7.8z"/>
		<polygon class="st8" points="290.4,48.4 279.1,39.5 279.1,28.2 280.3,28.2 280.3,39.1 291.1,47.6 		"/>
		<polygon class="st8" points="259,48.4 270.3,39.5 270.3,28.2 269.1,28.2 269.1,39.1 257.2,48.4 		"/>
		<path class="st9" d="M274.6,12.4v5.1c-2.1-1.1-2.9-0.4-5.1,1.1c-2.5,1.7-3.2,2.4-5.9,0.6v-5.1c2.7,1.8,3.4,1.1,5.9-0.6
			C271.7,12,272.5,11.3,274.6,12.4z"/>
		<path class="st8" d="M277.7,40.8V25.4h-1.2v3h-1.3V11.9h-0.8v16.5H273v-3h-1.2v15.4l-9.5,7.6h1.6l9.1-7.6v-1.7h1.3v1.7h0.8v-1.7
			h1.3v1.7l9.1,7.6h1.6L277.7,40.8z M274.3,37.9H273v-8.2h1.3V37.9z M276.4,37.9h-1.3v-8.2h1.3V37.9z"/>
		<path class="st10" d="M288.7,49.4c-5.3,0.1-9.7,0.4-15,0.7c-2.6,0.1-8.5,0.9-8.7,0.9c0,0-6.1,1.8-6.4,1.9c-1.2,0.5-2.2,1.2-3.2,2
			c-1,0.8-2,1.5-3,2.3c-1,0.8-2.1,1.7-3.2,2.5c-1.1,0.8-2.3,1.3-3.5,1.9c-1.2,0.6-5.1,1.3-6.5,1.5c0,0-1.7,0-1.8,0
			c-1.4-0.1-2.7-0.3-3.9-1c-0.3-0.2-0.7-0.4-1-0.6c-0.3-0.2-0.5-0.3-0.7-0.6c0-0.6-0.1-0.7-0.1-1.8c0.2,0.3,2,1.4,2.1,1.5
			c1.1,0.6,3.8,1,4,1l3.1-0.5c1.3-0.3,2.5-0.7,3.6-1.3c1.2-0.5,2.4-1.1,3.4-1.8c1.1-0.7,2.1-1.5,3.2-2.3c1-0.8,1.9-1.6,3-2.4
			c1.1-0.8,2.3-1.7,3.6-2.2c0.3-0.1,2.7-1.1,3-1.1c0,0,6.2-0.7,6.8-0.8c0.7,0,1.4-0.1,2.1-0.1c1.3,0,2.6-0.1,4-0.1
			c2.6-0.1,5.2-0.2,7.8-0.3c2.6,0,5.6-0.2,8.2-0.2L288.7,49.4z"/>
		<g>
			<path class="st11" d="M292.8,45.4l-3.1,3.5c-0.1,0-11.1,0.3-11.2,0.3c-5.5,0.4-12.5-0.2-18.2,1.1c-7.5,2.3-12.3,8.6-16.7,10.1
				c-1.6,0.4-5.6,1.6-7.3,1.2c0,0-4.4-2.1-4.4-2.4c-0.1-1.7,0.4-2.5,1.4-4.7c0.5-1.1,1.1-2.3,1.8-3.6c3.4-5.2,6.2-8,8.1-9.5
				c0,0,0.1,0,0.1-0.1c0,0,0,0,0,0s0,0,0,0c1.7-1.3,2.7-1.6,2.7-1.6c3.2-1.6,35.6,4,39.6,4.6c2.1,0.3,4.7,0.7,6.1,0.9L292.8,45.4z"
				/>
		</g>
		<path class="st10" d="M289.1,49.2c-5.3,0.1-10.5,0.3-15.8,0.5c-2.6,0.1-5.3,0.2-7.9,0.5c0,0-3.7,0.3-5.1,0.6s-2,0.6-2.3,0.7
			c-1.2,0.5-2.3,1.2-3.3,2c-1,0.8-2,1.6-3.1,2.5c-1,0.8-2.1,1.6-3.2,2.4c-1.1,0.8-2.2,1.5-3.4,2.1c-1.2,0.6-2.5,1-3.8,1.3l-0.5,0.1
			l-0.5,0.1c-0.3,0.1-0.7,0.1-1,0.2c-0.2,0-0.3,0-0.5,0.1c-0.2,0-0.3,0-0.5,0l-0.5,0c-0.2,0-0.3,0-0.5,0c-1.4-0.1-2.8-0.5-3.9-1.2
			c-0.3-0.2-0.6-0.4-0.9-0.6c-0.3-0.2-0.5-0.4-0.7-0.7c0-0.6,0-0.8,0.1-1.1c0.2,0.3,0.3,0.4,0.5,0.6c0.2,0.2,0.5,0.4,0.7,0.6
			c0.1,0.1,0.3,0.2,0.4,0.2c0.1,0.1,0.3,0.2,0.4,0.2c1.1,0.6,2.3,1,3.6,1c0.2,0,0.3,0,0.5,0l0.5,0c0.2,0,0.3,0,0.5,0
			c0.2,0,0.3,0,0.5,0c0.3,0,0.6-0.1,1-0.1l0.5-0.1l0.5-0.1c1.3-0.3,2.5-0.7,3.6-1.2c1.2-0.5,2.3-1.2,3.3-2c1.1-0.7,2.1-1.5,3.1-2.3
			c1-0.8,2-1.7,3.1-2.5c1.1-0.8,2.2-1.5,3.5-2c0.3-0.1,0.6-0.3,0.9-0.4c0,0,1.2-0.4,2.7-0.6s4-0.3,4-0.3c0.7-0.1,1.3-0.1,2-0.1
			c0.7,0,1.3-0.1,2-0.1c1.3,0,2.6-0.1,4-0.1c2.6-0.1,5.3-0.1,7.9-0.1c2.6,0,5.3,0,7.9,0V49.2z"/>
		<path class="st12" d="M252.1,42.5c-1.8,4.6-3.4,10.1-7.1,12.3s-9,3.9-11.6,0.1c0.5-1.1,1.1-2.4,1.9-3.7c3.4-5.3,6.2-8.2,8.1-9.8
			c0,0,0.1-0.1,0.1-0.1c0,0,0,0,0,0s0,0,0,0C243.7,41.3,249.7,40.1,252.1,42.5z"/>
		<g>
			<path class="st12" d="M254.6,43.1c-0.6-0.1-4.2,7.8-3.8,9c0.2,0.6,2.5-2.1,5.7-2.7c0.4-1.7,0.7-2.9,0.8-5.9
				C256.8,43.3,255.1,43.1,254.6,43.1z"/>
		</g>
		<g>
			<path class="st12" d="M266.1,44.9c0.1,0.7,0.1,1.7,0.1,2.5c0,0.3,0.2,0.5,0.5,0.5c3-0.1,18.7,0,20.2,0c0,0,0.1-0.1,0.1-0.1
				c0-0.4,0-0.8-0.2-1.2c-0.1-0.1-0.2-0.2-0.4-0.3c-2.3-0.2-17.4-1.6-20-1.8C266.2,44.6,266,44.7,266.1,44.9z"/>
		</g>
		<g>
			<path class="st13" d="M269,50.2c6.6-0.6,15.8-0.9,21.1-1l-5.8,5.1c-11.5,3.2-29.4,8-35.9,9.4c-9.6,2.5-14.3,0.4-14.9-0.1
				c-0.3-0.3-1.6-0.8-1.5-3.1c0.6,0.9,3.5,3,7.3,2.5c4.7-0.6,7.2-1.8,12.1-5.7C256.2,53.4,257.6,51.2,269,50.2z"/>
			<path class="st14" d="M269,50.2c6.6-0.6,15.8-0.9,21.1-1l-5.8,5.1c-11.5,3.2-29.4,8-35.9,9.4c-9.6,2.5-14.3,0.4-14.9-0.1
				c-0.3-0.3-1.6-0.8-1.5-3.1c0.6,0.9,3.5,3,7.3,2.5c4.7-0.6,7.2-1.8,12.1-5.7C256.2,53.4,257.6,51.2,269,50.2z"/>
		</g>
		<g>
			<path class="st15" d="M258,59.6c0,0,1.3-16.3,1.8-16.4c0.5-0.1,4.3,0,4.8,0.5s-0.4,14.5-0.4,14.5L258,59.6z"/>
			<path class="st12" d="M258,59.6c0,0,1.3-16.3,1.8-16.4c0.5-0.1,4.3,0,4.8,0.5s-0.4,14.5-0.4,14.5L258,59.6z"/>
		</g>
		<path class="st16" d="M294.7,35.3c2.4,2.4,2.4,6.2,0,8.6l-26.9,26.9c-2.4,2.4-6.2,2.4-8.6,0"/>
		<polygon class="st17" points="281.8,56.9 281.8,55.4 291.9,45.3 294.5,45.7 282.1,58.1 		"/>
		<line class="st18" x1="280.2" y1="57" x2="292.4" y2="44.8"/>
		<line class="st19" x1="281.7" y1="58.4" x2="295" y2="45.1"/>
	</g>
</g>
<g id="CMYK">
	<g>
		<path class="st20" d="M48.6,61l-9.1,9.1c-1,1-2.3,1.5-3.6,1.5c-1.4,0-2.7-0.5-3.6-1.5L5,42.9c-2-2-2-5.2,0-7.2l10.8-10.8
			c-0.7,2.4-1,5-1,7.7c0,16,12.9,28.9,28.9,28.9C45.4,61.4,47,61.3,48.6,61z"/>
		<path class="st21" d="M58.7,51l-3.6,3.6L48.6,61c-1.6,0.3-3.3,0.4-5,0.4c-16,0-28.9-12.9-28.9-28.9c0-2.7,0.4-5.2,1-7.7l3.9-3.9
			L31,9.7c-1.7,3-2.8,6.4-3.2,10c-0.1,1.1-0.2,2.3-0.2,3.4c0,15.5,12.5,28,28,28c0.1,0,0.1,0,0.2,0C56.7,51.1,57.7,51.1,58.7,51z"/>
		<path class="st22" d="M66.7,42.9L58.7,51c-1,0.1-1.9,0.2-2.9,0.2c-0.1,0-0.1,0-0.2,0c-15.5,0-28-12.5-28-28c0-1.2,0.1-2.3,0.2-3.4
			c0.4-3.6,1.6-7,3.2-10l1.3-1.3c1-1,2.3-1.5,3.6-1.5c1.3,0,2.6,0.5,3.6,1.5l27.2,27.2C68.7,37.7,68.7,40.9,66.7,42.9z"/>
		<path class="st23" d="M35.9,73.8c-1.9,0-3.7-0.7-5.1-2.1L3.5,44.4c-2.8-2.8-2.8-7.4,0-10.3L30.7,6.9c2.8-2.8,7.4-2.8,10.3,0
			l27.2,27.2c2.8,2.8,2.8,7.4,0,10.3L41,71.7C39.6,73.1,37.7,73.8,35.9,73.8z M35.9,6.9c-1.3,0-2.6,0.5-3.6,1.5L5,35.7
			c-2,2-2,5.2,0,7.2l27.2,27.2c1,1,2.3,1.5,3.6,1.5s2.7-0.5,3.6-1.5l27.2-27.2c2-2,2-5.2,0-7.2L39.5,8.4C38.5,7.4,37.2,6.9,35.9,6.9
			z"/>
		<polygon class="st24" points="63.2,48.1 51.7,39.1 51.7,27.7 52.9,27.7 52.9,38.7 63.9,47.3 		"/>
		<polygon class="st24" points="31.3,48.1 42.8,39.1 42.8,27.7 41.5,27.7 41.5,38.7 29.5,48.1 		"/>
		<path class="st25" d="M47.1,11.7v5.2c-2.1-1.1-2.9-0.4-5.2,1.1c-2.5,1.7-3.2,2.4-6,0.6v-5.2c2.7,1.8,3.5,1.1,6-0.6
			C44.2,11.3,45,10.5,47.1,11.7z"/>
		<path class="st24" d="M50.2,40.5V24.8H49v3.1h-1.3V11.1h-0.8v16.7h-1.3v-3.1h-1.2v15.6l-9.6,7.7h1.6l9.2-7.7v-1.7h1.3v1.7h0.8
			v-1.7H49v1.7l9.2,7.7h1.6L50.2,40.5z M46.8,37.5h-1.3v-8.3h1.3V37.5z M49,37.5h-1.3v-8.3H49V37.5z"/>
		<path class="st26" d="M61.4,49.2c-5.3,0.1-9.9,0.4-15.2,0.7c-2.7,0.1-8.6,0.9-8.8,0.9c0,0-6.2,1.8-6.5,1.9c-1.2,0.5-2.2,1.2-3.2,2
			c-1.1,0.8-2,1.5-3.1,2.4c-1,0.8-2.1,1.7-3.2,2.5c-1.1,0.8-2.3,1.3-3.6,1.9c-1.2,0.6-5.2,1.3-6.6,1.6c0,0-1.7,0-1.9,0
			C8,63,6.7,62.8,5.5,62.1c-0.3-0.2-0.7-0.4-1-0.6c-0.3-0.2-0.5-0.3-0.7-0.6c0-0.6-0.1-0.8-0.1-1.8c0.2,0.3,2,1.5,2.2,1.5
			c1.1,0.6,3.9,1.1,4,1L13,61c1.3-0.3,2.5-0.7,3.7-1.3c1.2-0.6,2.4-1.1,3.5-1.8c1.1-0.8,2.2-1.5,3.2-2.3c1-0.8,1.9-1.6,3-2.4
			c1.1-0.8,2.3-1.7,3.6-2.2c0.3-0.1,2.7-1.1,3-1.1c0,0,6.2-0.8,6.9-0.8c0.7,0,1.4-0.1,2.1-0.1c1.3-0.1,2.7-0.1,4-0.1
			c2.7-0.1,5.3-0.2,7.9-0.3c2.7,0,5.7-0.2,8.4-0.2L61.4,49.2z"/>
		<g>
			<path class="st27" d="M65.6,45.1l-3.2,3.5c-0.1,0-11.3,0.3-11.3,0.3c-5.6,0.5-12.7-0.2-18.5,1.1c-7.6,2.4-12.5,8.7-17,10.2
				c-1.6,0.4-5.7,1.6-7.4,1.2c0,0-4.5-2.1-4.5-2.4c-0.1-1.7,0.5-2.6,1.4-4.7C5.7,53.2,6.3,52,7,50.6c3.4-5.3,6.3-8.1,8.2-9.6
				c0,0,0.1,0,0.1-0.1c0,0,0,0,0,0s0,0,0,0c1.7-1.3,2.7-1.6,2.7-1.6c3.2-1.6,36.1,4,40.1,4.6c2.1,0.3,4.7,0.7,6.2,0.9L65.6,45.1z"/>
		</g>
		<path class="st26" d="M61.8,48.9c-5.3,0.1-10.7,0.3-16,0.5c-2.7,0.1-5.3,0.2-8,0.5c0,0-3.8,0.3-5.1,0.6c-1.4,0.3-2.1,0.6-2.4,0.7
			c-1.2,0.5-2.3,1.2-3.3,2c-1.1,0.8-2.1,1.7-3.1,2.5c-1,0.8-2.1,1.7-3.2,2.4c-1.1,0.8-2.3,1.5-3.5,2.1c-1.2,0.6-2.6,1-3.9,1.3
			l-0.5,0.1l-0.5,0.1c-0.3,0.1-0.7,0.1-1,0.2c-0.2,0-0.3,0-0.5,0.1c-0.2,0-0.3,0-0.5,0l-0.5,0c-0.2,0-0.4,0-0.5,0
			c-1.4-0.1-2.8-0.5-4-1.2c-0.3-0.2-0.6-0.4-0.9-0.6c-0.3-0.2-0.5-0.4-0.7-0.7c0-0.6,0-0.8,0.1-1.2c0.2,0.3,0.3,0.4,0.5,0.6
			c0.2,0.2,0.5,0.4,0.7,0.6c0.1,0.1,0.3,0.2,0.4,0.2c0.1,0.1,0.3,0.2,0.4,0.2c1.1,0.6,2.4,1,3.6,1.1c0.2,0,0.3,0,0.5,0l0.5,0
			c0.2,0,0.3,0,0.5,0c0.2,0,0.3,0,0.5-0.1c0.3,0,0.7-0.1,1-0.1l0.5-0.1l0.5-0.1c1.3-0.3,2.5-0.7,3.7-1.2c1.2-0.6,2.3-1.2,3.4-2
			c1.1-0.8,2.1-1.6,3.2-2.4c1-0.8,2.1-1.7,3.2-2.5c1.1-0.8,2.3-1.5,3.5-2.1c0.3-0.1,0.6-0.3,1-0.4c0,0,1.2-0.4,2.8-0.6
			c1.5-0.2,4-0.3,4-0.3c0.7-0.1,1.3-0.1,2-0.1c0.7,0,1.3-0.1,2-0.1c1.3-0.1,2.7-0.1,4-0.1c2.7-0.1,5.3-0.1,8-0.1c2.7,0,5.3,0,8,0
			V48.9z"/>
		<radialGradient id="SVGID_1_" cx="13.8327" cy="43.8884" r="16.6822" gradientUnits="userSpaceOnUse">
			<stop  offset="0" style="stop-color:#FFFFFF"/>
			<stop  offset="0.8589" style="stop-color:#2E2E2E"/>
		</radialGradient>
		<path class="st28" d="M24.2,42.2c-1.8,4.7-3.4,10.2-7.2,12.5c-3.7,2.3-9.1,3.9-11.7,0.1c0.5-1.1,1.1-2.4,1.9-3.8
			c3.4-5.4,6.3-8.3,8.2-9.9c0,0,0.1-0.1,0.1-0.1c0,0,0,0,0,0s0,0,0,0C15.7,40.9,21.9,39.7,24.2,42.2z"/>
		<g>
			
				<linearGradient id="SVGID_00000075877698779957987240000006222194137442243254_" gradientUnits="userSpaceOnUse" x1="17.4165" y1="44.0199" x2="35.6193" y2="51.2453">
				<stop  offset="0" style="stop-color:#FFFFFF"/>
				<stop  offset="0.145" style="stop-color:#C1C1C1"/>
				<stop  offset="0.4792" style="stop-color:#262626"/>
				<stop  offset="0.4892" style="stop-color:#212121"/>
				<stop  offset="0.6758" style="stop-color:#000000"/>
			</linearGradient>
			<path style="fill:url(#SVGID_00000075877698779957987240000006222194137442243254_);" d="M26.8,42.7c-0.6-0.1-4.2,7.9-3.8,9.1
				c0.2,0.6,2.5-2.2,5.7-2.7c0.4-1.7,0.7-3,0.8-5.9C29.1,42.9,27.4,42.8,26.8,42.7z"/>
		</g>
		<g>
			
				<linearGradient id="SVGID_00000160170665128317572680000000619557240517144213_" gradientUnits="userSpaceOnUse" x1="38.4248" y1="45.9842" x2="59.6625" y2="45.9842">
				<stop  offset="0" style="stop-color:#212121"/>
				<stop  offset="2.392767e-02" style="stop-color:#1E1E1E"/>
				<stop  offset="0.1673" style="stop-color:#0D0D0D"/>
				<stop  offset="0.3257" style="stop-color:#030303"/>
				<stop  offset="0.5272" style="stop-color:#000000"/>
			</linearGradient>
			<path style="fill:url(#SVGID_00000160170665128317572680000000619557240517144213_);" d="M38.4,44.6c0.1,0.7,0.1,1.8,0.2,2.6
				c0,0.3,0.2,0.5,0.5,0.5c3-0.1,19,0,20.5,0c0,0,0.1-0.1,0.1-0.1c0-0.4,0-0.8-0.2-1.2c-0.1-0.2-0.2-0.3-0.4-0.3
				c-2.3-0.2-17.6-1.6-20.3-1.9C38.6,44.3,38.4,44.4,38.4,44.6z"/>
		</g>
		<g>
			<path class="st31" d="M41.4,50c6.7-0.6,16-0.9,21.4-1l-5.9,5.2c-11.7,3.2-29.9,8.1-36.4,9.6C10.7,66.3,6,64.1,5.4,63.6
				c-0.3-0.3-1.6-0.9-1.6-3.2c0.7,0.9,3.6,3,7.4,2.5c4.7-0.6,7.3-1.9,12.2-5.8C28.4,53.2,29.9,51,41.4,50z"/>
			<path class="st32" d="M41.4,50c6.7-0.6,16-0.9,21.4-1l-5.9,5.2c-11.7,3.2-29.9,8.1-36.4,9.6C10.7,66.3,6,64.1,5.4,63.6
				c-0.3-0.3-1.6-0.9-1.6-3.2c0.7,0.9,3.6,3,7.4,2.5c4.7-0.6,7.3-1.9,12.2-5.8C28.4,53.2,29.9,51,41.4,50z"/>
		</g>
		<g>
			<path class="st33" d="M30.3,59.5c0,0,1.3-16.6,1.8-16.6c0.5-0.1,4.4,0,4.9,0.5c0.5,0.5-0.4,14.7-0.4,14.7L30.3,59.5z"/>
			<path d="M30.3,59.5c0,0,1.3-16.6,1.8-16.6c0.5-0.1,4.4,0,4.9,0.5c0.5,0.5-0.4,14.7-0.4,14.7L30.3,59.5z"/>
		</g>
		<path class="st34" d="M67.5,34.9c2.4,2.4,2.4,6.3,0,8.8L40.3,70.9c-2.4,2.4-6.3,2.4-8.8,0"/>
		<polygon class="st35" points="53.9,56.9 53.9,55.7 65,44.7 67.3,45.3 54.2,58.5 		"/>
		<line class="st36" x1="52.7" y1="56.9" x2="65.2" y2="44.5"/>
		<line class="st37" x1="54.1" y1="58.5" x2="67.6" y2="44.9"/>
	</g>
</g>
<g id="Grayscale">
	<g>
		<path class="st38" d="M162.5,61l-9.1,9.1c-1,1-2.3,1.5-3.6,1.5s-2.7-0.5-3.6-1.5l-27.3-27.3c-2-2-2-5.2,0-7.2l10.8-10.8
			c-0.7,2.4-1,5-1,7.7c0,16,12.9,28.9,28.9,28.9C159.2,61.5,160.9,61.3,162.5,61z"/>
		<path class="st39" d="M172.5,51l-3.6,3.6l-6.5,6.5c-1.6,0.3-3.3,0.4-5,0.4c-16,0-28.9-12.9-28.9-28.9c0-2.7,0.4-5.2,1-7.7l3.9-3.9
			l11.2-11.2c-1.7,3-2.8,6.4-3.2,10c-0.1,1.1-0.2,2.3-0.2,3.4c0,15.5,12.5,28,28,28c0.1,0,0.1,0,0.2,0
			C170.6,51.2,171.6,51.1,172.5,51z"/>
		<path class="st40" d="M180.6,42.9l-8.1,8.1c-1,0.1-1.9,0.2-2.9,0.2c-0.1,0-0.1,0-0.2,0c-15.5,0-28-12.5-28-28
			c0-1.2,0.1-2.3,0.2-3.4c0.4-3.6,1.6-7,3.2-10l1.3-1.3c1-1,2.3-1.5,3.6-1.5s2.6,0.5,3.6,1.5l27.3,27.3
			C182.6,37.7,182.6,40.9,180.6,42.9z"/>
		<path class="st41" d="M149.7,73.8c-1.9,0-3.7-0.7-5.1-2.1l-27.3-27.3c-2.8-2.8-2.8-7.4,0-10.3l27.3-27.3c2.8-2.8,7.4-2.8,10.3,0
			l27.3,27.3c2.8,2.8,2.8,7.4,0,10.3l-27.3,27.3C153.4,73.1,151.6,73.8,149.7,73.8z M149.7,6.9c-1.3,0-2.6,0.5-3.6,1.5l-27.3,27.3
			c-2,2-2,5.2,0,7.2l27.3,27.3c1,1,2.3,1.5,3.6,1.5c1.4,0,2.7-0.5,3.6-1.5l27.3-27.3c2-2,2-5.2,0-7.2L153.3,8.4
			C152.3,7.4,151,6.9,149.7,6.9z"/>
		<polygon class="st42" points="177,48.2 165.5,39.1 165.5,27.7 166.7,27.7 166.7,38.8 177.7,47.3 		"/>
		<polygon class="st42" points="145.1,48.2 156.6,39.1 156.6,27.7 155.4,27.7 155.4,38.8 143.3,48.2 		"/>
		<path class="st43" d="M160.9,11.7v5.2c-2.1-1.1-2.9-0.4-5.2,1.1c-2.5,1.7-3.2,2.4-6,0.6v-5.2c2.7,1.8,3.5,1.1,6-0.6
			C158,11.3,158.8,10.5,160.9,11.7z"/>
		<path class="st42" d="M164,40.5V24.8h-1.2v3.1h-1.3V11.1h-0.8v16.8h-1.3v-3.1h-1.2v15.6l-9.6,7.7h1.6l9.2-7.7v-1.7h1.3v1.7h0.8
			v-1.7h1.3v1.7l9.2,7.7h1.6L164,40.5z M160.7,37.5h-1.3v-8.3h1.3V37.5z M162.8,37.5h-1.3v-8.3h1.3V37.5z"/>
		<path class="st26" d="M175.3,49.2c-5.3,0.1-9.9,0.4-15.2,0.7c-2.7,0.1-8.6,0.9-8.8,0.9c0,0-6.2,1.8-6.5,1.9
			c-1.2,0.5-2.2,1.2-3.2,2c-1.1,0.8-2,1.5-3.1,2.4c-1,0.8-2.1,1.7-3.2,2.5c-1.1,0.8-2.3,1.3-3.6,1.9c-1.2,0.6-5.2,1.3-6.6,1.6
			c0,0-1.7,0-1.9,0c-1.4-0.1-2.7-0.3-3.9-1.1c-0.3-0.2-0.7-0.4-1-0.6c-0.3-0.2-0.5-0.3-0.7-0.6c0-0.6-0.1-0.8-0.1-1.8
			c0.2,0.3,2,1.5,2.2,1.5c1.1,0.6,3.9,1.1,4,1l3.1-0.5c1.3-0.3,2.5-0.7,3.7-1.3c1.2-0.6,2.4-1.1,3.5-1.8c1.1-0.8,2.2-1.5,3.2-2.3
			c1-0.8,1.9-1.6,3-2.4c1.1-0.8,2.3-1.7,3.6-2.3c0.3-0.1,2.7-1.1,3-1.2c0,0,6.2-0.8,6.9-0.8c0.7,0,1.4-0.1,2.1-0.1
			c1.3-0.1,2.7-0.1,4-0.1c2.7-0.1,5.3-0.2,7.9-0.3c2.7,0,5.7-0.2,8.4-0.2L175.3,49.2z"/>
		<g>
			<path class="st26" d="M179.4,45.1l-3.2,3.5c-0.1,0-11.3,0.3-11.3,0.3c-5.6,0.5-12.7-0.2-18.5,1.1c-7.6,2.4-12.5,8.7-17,10.2
				c-1.6,0.4-5.7,1.6-7.4,1.2c0,0-4.5-2.1-4.5-2.4c-0.1-1.7,0.5-2.6,1.4-4.8c0.5-1.1,1.1-2.3,1.9-3.7c3.4-5.3,6.3-8.1,8.2-9.6
				c0,0,0.1,0,0.1-0.1c0,0,0,0,0,0s0,0,0,0c1.7-1.3,2.7-1.6,2.7-1.6c3.3-1.6,36.2,4,40.1,4.6c2.1,0.3,4.7,0.7,6.2,0.9L179.4,45.1z"
				/>
		</g>
		<path class="st26" d="M175.7,48.9c-5.3,0.1-10.7,0.3-16,0.5c-2.7,0.1-5.3,0.2-8,0.5c0,0-3.8,0.3-5.1,0.6c-1.4,0.3-2.1,0.6-2.4,0.8
			c-1.2,0.5-2.3,1.2-3.4,2c-1.1,0.8-2.1,1.7-3.1,2.5c-1,0.8-2.1,1.7-3.2,2.4c-1.1,0.8-2.3,1.5-3.5,2.1c-1.2,0.6-2.6,1-3.9,1.3
			l-0.5,0.1l-0.5,0.1c-0.3,0.1-0.7,0.1-1,0.2c-0.2,0-0.3,0-0.5,0.1c-0.2,0-0.3,0-0.5,0l-0.5,0c-0.2,0-0.4,0-0.5,0
			c-1.4-0.1-2.8-0.5-4-1.2c-0.3-0.2-0.6-0.4-0.9-0.6c-0.3-0.2-0.5-0.4-0.7-0.7c0-0.6,0-0.8,0.1-1.2c0.2,0.3,0.3,0.4,0.5,0.6
			c0.2,0.2,0.5,0.4,0.7,0.6c0.1,0.1,0.3,0.2,0.4,0.3c0.1,0.1,0.3,0.2,0.4,0.2c1.1,0.6,2.4,1,3.6,1.1c0.2,0,0.3,0,0.5,0l0.5,0
			c0.2,0,0.3,0,0.5,0c0.2,0,0.3,0,0.5-0.1c0.3,0,0.7-0.1,1-0.1l0.5-0.1l0.5-0.1c1.3-0.3,2.5-0.7,3.7-1.2c1.2-0.6,2.3-1.2,3.4-2
			c1.1-0.8,2.1-1.6,3.2-2.4c1-0.8,2.1-1.7,3.2-2.5c1.1-0.8,2.3-1.5,3.5-2.1c0.3-0.1,0.6-0.3,1-0.4c0,0,1.2-0.4,2.8-0.6
			c1.5-0.2,4-0.3,4-0.3c0.7-0.1,1.3-0.1,2-0.1c0.7,0,1.3-0.1,2-0.1c1.3-0.1,2.7-0.1,4-0.1c2.7-0.1,5.3-0.1,8-0.1c2.7,0,5.3,0,8,0
			V48.9z"/>
		<path class="st44" d="M138.1,42.2c-1.8,4.7-3.4,10.2-7.2,12.5c-3.7,2.3-9.1,3.9-11.7,0.1c0.5-1.1,1.1-2.4,1.9-3.8
			c3.4-5.4,6.3-8.3,8.2-9.9c0,0,0.1-0.1,0.1-0.1c0,0,0,0,0,0s0,0,0,0C129.6,41,135.7,39.7,138.1,42.2z"/>
		<g>
			<path class="st45" d="M140.7,42.7c-0.6-0.1-4.2,7.9-3.8,9.1c0.2,0.6,2.5-2.2,5.8-2.7c0.4-1.7,0.7-3,0.8-6
				C142.9,42.9,141.2,42.8,140.7,42.7z"/>
			<path d="M140.7,42.7c-0.6-0.1-4.2,7.9-3.8,9.1c0.2,0.6,2.5-2.2,5.8-2.7c0.4-1.7,0.7-3,0.8-6C142.9,42.9,141.2,42.8,140.7,42.7z"
				/>
		</g>
		<g>
			<path class="st45" d="M152.3,44.7c0.1,0.7,0.1,1.8,0.2,2.6c0,0.3,0.2,0.5,0.5,0.5c3-0.1,19,0,20.5,0c0,0,0.1-0.1,0.1-0.1
				c0-0.4,0-0.8-0.2-1.2c-0.1-0.2-0.2-0.3-0.4-0.3c-2.3-0.2-17.6-1.6-20.3-1.9C152.4,44.3,152.2,44.4,152.3,44.7z"/>
			<path d="M152.3,44.7c0.1,0.7,0.1,1.8,0.2,2.6c0,0.3,0.2,0.5,0.5,0.5c3-0.1,19,0,20.5,0c0,0,0.1-0.1,0.1-0.1c0-0.4,0-0.8-0.2-1.2
				c-0.1-0.2-0.2-0.3-0.4-0.3c-2.3-0.2-17.6-1.6-20.3-1.9C152.4,44.3,152.2,44.4,152.3,44.7z"/>
		</g>
		<g>
			<path class="st46" d="M155.2,50c6.7-0.6,16-0.9,21.4-1l-5.9,5.2c-11.7,3.2-29.9,8.1-36.5,9.6c-9.8,2.6-14.5,0.4-15.1-0.1
				c-0.3-0.3-1.6-0.9-1.6-3.2c0.7,0.9,3.6,3,7.4,2.5c4.7-0.6,7.3-1.9,12.3-5.8C142.3,53.2,143.7,51,155.2,50z"/>
		</g>
		<g>
			<path class="st47" d="M170.8,54.2c-11.7,3.4-30.5,8.7-37,10.1c-1.6,0.4-3.1,0.8-4.5,1c0,0,0,0,0,0c-2.7,0.4-4.8,0.4-6.5,0.2
				c-1.3-0.2-2.6-0.5-3.6-0.9c0,0,0,0,0,0c-0.3-0.1-0.5-0.3-0.6-0.3c-0.2-0.1-0.5-0.3-0.9-0.8c-0.4-0.5-0.7-1.3-0.7-2.5
				c0-0.3,0-0.6,0.1-0.9c0.2-1.3,0.6-3,1.6-5.2c0.5-1.1,1.1-2.4,1.9-3.8c3.5-5.4,6.4-8.3,8.3-9.8c0,0,0.1,0,0.1-0.1c0,0,0,0,0,0
				s0,0,0,0c1.8-1.4,2.7-1.6,2.7-1.6c3.3-1.6,36.7,4.1,40.7,4.8c2.3,0.4,5.5,0.9,7,1.1"/>
		</g>
		<path class="st48" d="M181.3,34.9c2.4,2.4,2.4,6.3,0,8.8l-27.3,27.3c-2.4,2.4-6.3,2.4-8.8,0"/>
		<g>
			<path class="st49" d="M170.5,54c-11.5,3.3-30,8.5-36.5,9.9c-1.6,0.4-3.1,0.7-4.4,0.9c0,0,0,0,0,0c-2.6,0.4-4.8,0.4-6.4,0.2
				c-1.3-0.2-2.5-0.5-3.5-0.9c0,0,0,0,0,0c-0.3-0.1-0.5-0.3-0.6-0.3c-0.2-0.1-0.5-0.3-0.9-0.8c-0.4-0.5-0.7-1.2-0.7-2.5
				c0-0.3,0-0.6,0.1-0.9c0.2-1.3,0.6-2.9,1.6-5.1c0.5-1.1,1.1-2.3,1.9-3.7c3.4-5.3,6.3-8.1,8.2-9.6c0,0,0.1,0,0.1-0.1c0,0,0,0,0,0
				s0,0,0,0c1.7-1.3,2.7-1.6,2.7-1.6c3.3-1.6,36.2,4,40.1,4.6c2.3,0.3,5.5,0.9,6.9,1.1"/>
		</g>
		<g>
			<path d="M145,50.4c-0.3,0.1-0.5,0.2-0.8,0.3c-0.6,0.3-1.1,0.6-1.7,0.9c-0.5,0.3-1,0.7-1.5,1.1c-1,0.8-1.9,1.6-2.9,2.5
				c-0.5,0.4-1,0.8-1.5,1.2c-0.2,0.2-0.5,0.4-0.7,0.6l-0.4,0.3l-0.4,0.3c-1,0.8-2,1.5-3.2,2.2c-1.1,0.7-2.3,1.2-3.5,1.6
				c-0.1,0-0.2,0-0.2,0.1l-0.2,0.1l-0.5,0.1l-0.5,0.1c-0.2,0-0.3,0.1-0.5,0.1c-0.3,0.1-0.6,0.1-0.9,0.2c-0.3,0-0.6,0.1-1,0.1
				c-0.6,0.1-1.3,0.1-2,0c-0.7-0.1-1.3-0.2-1.9-0.5c-0.6-0.2-1.2-0.5-1.8-0.9c-0.3-0.2-0.5-0.4-0.8-0.6c-0.1-0.1-0.3-0.2-0.4-0.3
				c-0.1-0.1-0.1-0.1-0.2-0.2c-0.1-0.1,0.1-0.8,0.1-0.8l0.2,0.2c0,0,0.1,0.1,0.1,0.2c0.1,0.1,0.1,0.1,0.2,0.2
				c0.1,0.1,0.2,0.2,0.3,0.3c0.2,0.2,0.5,0.4,0.7,0.6c0.5,0.3,1.1,0.6,1.6,0.8c0.6,0.2,1.2,0.4,1.8,0.5c0.3,0,0.6,0.1,0.9,0.1
				c0.3,0,0.6,0,0.9,0c0.3,0,0.6-0.1,0.9-0.1c0.3,0,0.6-0.1,0.9-0.2c0.2,0,0.3-0.1,0.5-0.1l0.5-0.1l0.5-0.1l0.2-0.1
				c0.1,0,0.1,0,0.2-0.1c1.2-0.4,2.4-0.8,3.4-1.5c1.1-0.6,2.1-1.3,3.1-2.1l0.4-0.3l0.4-0.3c0.2-0.2,0.5-0.4,0.7-0.6
				c0.5-0.4,1-0.8,1.5-1.2c1-0.8,1.9-1.7,2.9-2.5c0.5-0.4,1-0.8,1.6-1.1c0.5-0.3,1.1-0.6,1.7-0.9c0.3-0.1,0.6-0.3,0.9-0.4"/>
			<path d="M151,49c1.2-0.1,2.5-0.2,3.7-0.2c1.3-0.1,2.5-0.1,3.8-0.1c5.1-0.2,10.1-0.2,15.2-0.3c-5.1,0.1-10.1,0.2-15.2,0.4
				c-1.3,0.1-2.5,0.1-3.8,0.2c-1.2,0.1-2.5,0.1-3.7,0.3"/>
		</g>
		<polygon points="168.3,56.7 168.3,55.1 178.9,44.5 181.6,45 168.5,58 		"/>
		<line class="st50" x1="168.1" y1="58.4" x2="181.6" y2="44.8"/>
		<line class="st51" x1="166.6" y1="56.9" x2="179.4" y2="44.1"/>
		<g>
			<path class="st52" d="M144.1,59.6c0,0,1.3-16.6,1.8-16.6c0.5-0.1,4.4,0,4.9,0.5c0.5,0.5-0.4,14.7-0.4,14.7L144.1,59.6z"/>
			<path d="M144.1,59.6c0,0,1.3-16.6,1.8-16.6c0.5-0.1,4.4,0,4.9,0.5c0.5,0.5-0.4,14.7-0.4,14.7L144.1,59.6z"/>
		</g>
	</g>
	<g>
		<path d="M18.8,117.2c-0.8-0.9-1.3-2-1.3-3.6c0-0.3,0-0.8,0-1.6c0-0.7,0-1.3,0-1.6c0.1-1.5,0.5-2.7,1.3-3.5c0.8-0.9,2-1.3,3.6-1.3
			c1.1,0,2,0.2,2.7,0.6c0.7,0.4,1.3,0.9,1.7,1.5c0.4,0.6,0.6,1.3,0.6,1.9v0c0,0.1,0,0.2-0.1,0.2c-0.1,0.1-0.2,0.1-0.3,0.1h-1
			c-0.2,0-0.4-0.1-0.4-0.4c-0.2-0.9-0.6-1.5-1.1-1.9c-0.5-0.4-1.2-0.5-2.1-0.5c-2,0-3.1,1.1-3.2,3.4c0,0.3,0,0.8,0,1.5
			c0,0.7,0,1.2,0,1.5c0.1,2.3,1.1,3.4,3.2,3.4c0.9,0,1.6-0.2,2.1-0.5c0.5-0.4,0.9-1,1.1-1.9c0-0.2,0.1-0.3,0.2-0.3
			c0.1-0.1,0.2-0.1,0.3-0.1h1c0.1,0,0.2,0,0.3,0.1c0.1,0.1,0.1,0.2,0.1,0.3c0,0.7-0.2,1.4-0.6,2c-0.4,0.6-0.9,1.1-1.7,1.5
			c-0.7,0.4-1.6,0.6-2.7,0.6C20.8,118.5,19.6,118.1,18.8,117.2z"/>
		<path d="M30,118.2c-0.1-0.1-0.1-0.2-0.1-0.3v-11.7c0-0.1,0-0.2,0.1-0.3c0.1-0.1,0.2-0.1,0.3-0.1h0.9c0.2,0,0.3,0.1,0.5,0.3
			l3.8,7.2l3.8-7.2c0-0.1,0.1-0.1,0.2-0.2s0.2-0.1,0.3-0.1h0.9c0.1,0,0.2,0,0.3,0.1c0.1,0.1,0.1,0.2,0.1,0.3v11.7
			c0,0.1,0,0.2-0.1,0.3c-0.1,0.1-0.2,0.1-0.3,0.1h-0.9c-0.1,0-0.2,0-0.3-0.1c-0.1-0.1-0.1-0.2-0.1-0.3v-8.8l-3,5.8
			c-0.1,0.3-0.3,0.4-0.6,0.4h-0.6c-0.3,0-0.5-0.1-0.6-0.4l-3-5.8v8.8c0,0.1,0,0.2-0.1,0.3c-0.1,0.1-0.2,0.1-0.3,0.1h-0.9
			C30.1,118.3,30,118.3,30,118.2z"/>
		<path d="M47.5,118.2c-0.1-0.1-0.1-0.2-0.1-0.3v-4.2l-4.3-7.3c0,0,0-0.1,0-0.1c0,0,0-0.1,0-0.1c0-0.1,0-0.2,0.1-0.3
			c0.1-0.1,0.2-0.1,0.2-0.1h0.9c0.2,0,0.4,0.1,0.5,0.3l3.5,5.8l3.5-5.8c0.1-0.2,0.3-0.3,0.5-0.3h0.9c0.1,0,0.2,0,0.3,0.1
			c0.1,0.1,0.1,0.2,0.1,0.3c0,0.1,0,0.1-0.1,0.2l-4.3,7.3v4.2c0,0.1,0,0.2-0.1,0.3c-0.1,0.1-0.2,0.1-0.3,0.1h-0.9
			C47.6,118.3,47.5,118.3,47.5,118.2z"/>
		<path d="M55.7,118.2c-0.1-0.1-0.1-0.2-0.1-0.3v-11.7c0-0.1,0-0.2,0.1-0.3c0.1-0.1,0.2-0.1,0.3-0.1h0.9c0.1,0,0.2,0,0.3,0.1
			c0.1,0.1,0.1,0.2,0.1,0.3v4.4l4.8-4.6c0.2-0.2,0.4-0.3,0.7-0.3h1c0.1,0,0.2,0,0.2,0.1c0.1,0.1,0.1,0.2,0.1,0.3
			c0,0.1,0,0.2-0.1,0.2l-5.5,5.4l5.9,5.9c0.1,0.1,0.1,0.2,0.1,0.2c0,0.1,0,0.2-0.1,0.3s-0.2,0.1-0.2,0.1h-1c-0.3,0-0.5-0.1-0.7-0.3
			l-5.1-5v4.9c0,0.1,0,0.2-0.1,0.3c-0.1,0.1-0.2,0.1-0.3,0.1H56C55.9,118.3,55.8,118.3,55.7,118.2z"/>
	</g>
	<g>
		<path d="M110,117.2c-0.9-0.8-1.3-2-1.4-3.5c0-0.4,0-0.9,0-1.7c0-0.8,0-1.3,0-1.7c0.1-1.5,0.5-2.6,1.4-3.5c0.9-0.8,2.1-1.3,3.6-1.3
			c1,0,1.9,0.2,2.7,0.6c0.7,0.4,1.3,0.8,1.7,1.4c0.4,0.5,0.6,1,0.6,1.5v0c0,0.1,0,0.2-0.1,0.2c-0.1,0.1-0.2,0.1-0.3,0.1h-1.1
			c-0.1,0-0.2,0-0.3-0.1c-0.1,0-0.1-0.1-0.2-0.3c-0.2-0.5-0.5-1-1-1.4c-0.5-0.4-1.2-0.6-2-0.6c-1,0-1.8,0.3-2.3,0.8
			c-0.6,0.5-0.9,1.4-0.9,2.5c0,0.3,0,0.9,0,1.6c0,0.7,0,1.2,0,1.6c0,1.1,0.3,2,0.9,2.5c0.6,0.5,1.3,0.8,2.3,0.8c1,0,1.8-0.3,2.4-0.8
			c0.6-0.5,0.9-1.4,0.9-2.5v-0.8h-2.7c-0.1,0-0.2,0-0.3-0.1c-0.1-0.1-0.1-0.2-0.1-0.3v-0.6c0-0.1,0-0.2,0.1-0.3
			c0.1-0.1,0.2-0.1,0.3-0.1h4c0.1,0,0.2,0,0.3,0.1c0.1,0.1,0.1,0.2,0.1,0.3v1.7c0,1-0.2,1.8-0.6,2.6c-0.4,0.7-1,1.3-1.7,1.7
			c-0.8,0.4-1.7,0.6-2.7,0.6C112,118.5,110.8,118.1,110,117.2z"/>
		<path d="M121.1,118.2c-0.1-0.1-0.1-0.2-0.1-0.3v-8.4c0-0.1,0-0.2,0.1-0.3c0.1-0.1,0.2-0.1,0.3-0.1h0.8c0.1,0,0.2,0,0.3,0.1
			c0.1,0.1,0.1,0.2,0.1,0.3v0.8c0.5-0.8,1.3-1.2,2.5-1.2h0.7c0.1,0,0.2,0,0.3,0.1c0.1,0.1,0.1,0.2,0.1,0.3v0.7c0,0.1,0,0.2-0.1,0.3
			c-0.1,0.1-0.2,0.1-0.3,0.1h-1.1c-0.6,0-1.1,0.2-1.5,0.6c-0.4,0.4-0.6,0.9-0.6,1.5v5.2c0,0.1,0,0.2-0.1,0.3
			c-0.1,0.1-0.2,0.1-0.3,0.1h-0.9C121.3,118.3,121.2,118.3,121.1,118.2z"/>
		<path d="M128.6,118.1c-0.5-0.2-0.9-0.6-1.2-1c-0.3-0.4-0.4-0.9-0.4-1.4c0-0.8,0.3-1.4,1-1.9c0.6-0.5,1.5-0.8,2.6-1l2.7-0.4V112
			c0-1.2-0.7-1.8-2.1-1.8c-0.5,0-1,0.1-1.3,0.3c-0.3,0.2-0.6,0.5-0.7,0.8c0,0.1-0.1,0.2-0.1,0.2s-0.1,0.1-0.2,0.1H128
			c-0.1,0-0.2,0-0.3-0.1c-0.1-0.1-0.1-0.2-0.1-0.3c0-0.3,0.1-0.6,0.4-1c0.3-0.4,0.7-0.7,1.2-0.9c0.5-0.3,1.2-0.4,2-0.4
			c1.3,0,2.3,0.3,2.9,0.9c0.6,0.6,0.9,1.4,0.9,2.3v5.8c0,0.1,0,0.2-0.1,0.3c-0.1,0.1-0.2,0.1-0.3,0.1h-0.8c-0.1,0-0.2,0-0.3-0.1
			c-0.1-0.1-0.1-0.2-0.1-0.3v-0.8c-0.3,0.4-0.6,0.7-1.1,1c-0.5,0.3-1.1,0.4-1.9,0.4C129.6,118.5,129.1,118.4,128.6,118.1z
			 M132.5,116.4c0.5-0.5,0.7-1.2,0.7-2.2v-0.5l-2.1,0.3c-0.8,0.1-1.5,0.3-1.9,0.6c-0.4,0.3-0.6,0.6-0.6,1.1c0,0.5,0.2,0.8,0.6,1.1
			c0.4,0.3,0.9,0.4,1.4,0.4C131.3,117.2,132,116.9,132.5,116.4z"/>
		<path d="M138.6,121.6c-0.1-0.1-0.1-0.2-0.1-0.3c0-0.1,0-0.2,0.1-0.3l1.4-3.3l-3.4-8.1c-0.1-0.2-0.1-0.3-0.1-0.3
			c0-0.1,0-0.2,0.1-0.3c0.1-0.1,0.2-0.1,0.3-0.1h0.9c0.2,0,0.3,0.1,0.4,0.3l2.7,6.5l2.8-6.5c0.1-0.2,0.2-0.3,0.4-0.3h0.8
			c0.1,0,0.2,0,0.3,0.1c0.1,0.1,0.1,0.2,0.1,0.3c0,0,0,0.1-0.1,0.3l-5.1,11.7c-0.1,0.2-0.2,0.3-0.4,0.3h-0.8
			C138.8,121.7,138.7,121.7,138.6,121.6z"/>
		<path d="M148,118.1c-0.6-0.3-1-0.6-1.3-0.9c-0.3-0.3-0.4-0.6-0.4-0.9c0-0.1,0-0.2,0.1-0.3c0.1-0.1,0.2-0.1,0.3-0.1h0.8
			c0.1,0,0.2,0.1,0.3,0.2c0.3,0.3,0.6,0.6,0.9,0.8c0.3,0.2,0.8,0.3,1.3,0.3c0.6,0,1.1-0.1,1.5-0.4c0.4-0.2,0.6-0.6,0.6-1
			c0-0.3-0.1-0.5-0.2-0.7c-0.2-0.2-0.4-0.3-0.8-0.5c-0.4-0.1-1-0.3-1.7-0.5c-1-0.2-1.8-0.6-2.2-1c-0.4-0.4-0.7-1-0.7-1.7
			c0-0.5,0.1-0.9,0.4-1.3c0.3-0.4,0.7-0.7,1.2-1c0.5-0.3,1.1-0.4,1.9-0.4c0.8,0,1.4,0.1,1.9,0.4c0.5,0.2,0.9,0.5,1.2,0.9
			c0.3,0.3,0.4,0.6,0.4,0.8c0,0.1,0,0.2-0.1,0.3c-0.1,0.1-0.2,0.1-0.3,0.1h-0.8c-0.1,0-0.3-0.1-0.4-0.2c-0.2-0.2-0.4-0.4-0.5-0.5
			s-0.3-0.2-0.6-0.3c-0.3-0.1-0.6-0.1-1-0.1c-0.6,0-1,0.1-1.3,0.4c-0.3,0.2-0.5,0.6-0.5,1c0,0.3,0.1,0.5,0.2,0.6
			c0.1,0.2,0.4,0.3,0.8,0.5c0.4,0.1,0.9,0.3,1.6,0.4c1.1,0.2,1.9,0.6,2.4,1c0.5,0.4,0.7,1,0.7,1.7c0,0.5-0.1,1-0.4,1.4
			c-0.3,0.4-0.7,0.7-1.3,1c-0.6,0.2-1.3,0.4-2.1,0.4C149.2,118.5,148.5,118.4,148,118.1z"/>
		<path d="M156.7,117.4c-0.7-0.7-1.1-1.7-1.2-3l0-0.7l0-0.7c0-1.3,0.4-2.3,1.2-3c0.7-0.7,1.7-1.1,3-1.1c0.9,0,1.6,0.2,2.2,0.5
			c0.6,0.3,1,0.7,1.3,1.1c0.3,0.5,0.4,0.9,0.5,1.4c0,0.1,0,0.2-0.1,0.3c-0.1,0.1-0.2,0.1-0.3,0.1h-0.9c-0.1,0-0.2,0-0.3-0.1
			c-0.1,0-0.1-0.1-0.2-0.3c-0.2-0.6-0.5-1-0.9-1.2c-0.4-0.2-0.8-0.4-1.4-0.4c-0.7,0-1.3,0.2-1.8,0.7c-0.4,0.5-0.7,1.2-0.7,2.1l0,0.6
			l0,0.6c0,1,0.3,1.7,0.7,2.1c0.4,0.5,1,0.7,1.8,0.7c0.6,0,1-0.1,1.4-0.4c0.4-0.2,0.7-0.7,0.9-1.2c0.1-0.1,0.1-0.2,0.2-0.3
			c0.1-0.1,0.1-0.1,0.3-0.1h0.9c0.1,0,0.2,0,0.3,0.1c0.1,0.1,0.1,0.2,0.1,0.3c0,0.4-0.2,0.9-0.5,1.3s-0.7,0.8-1.3,1.2
			c-0.6,0.3-1.3,0.5-2.2,0.5C158.4,118.5,157.4,118.1,156.7,117.4z"/>
		<path d="M166.8,118.1c-0.5-0.2-0.9-0.6-1.2-1c-0.3-0.4-0.4-0.9-0.4-1.4c0-0.8,0.3-1.4,1-1.9c0.6-0.5,1.5-0.8,2.6-1l2.7-0.4V112
			c0-1.2-0.7-1.8-2.1-1.8c-0.5,0-1,0.1-1.3,0.3c-0.3,0.2-0.6,0.5-0.7,0.8c0,0.1-0.1,0.2-0.1,0.2c-0.1,0-0.1,0.1-0.2,0.1h-0.8
			c-0.1,0-0.2,0-0.3-0.1c-0.1-0.1-0.1-0.2-0.1-0.3c0-0.3,0.1-0.6,0.4-1c0.3-0.4,0.7-0.7,1.2-0.9c0.5-0.3,1.2-0.4,2-0.4
			c1.3,0,2.3,0.3,2.9,0.9c0.6,0.6,0.9,1.4,0.9,2.3v5.8c0,0.1,0,0.2-0.1,0.3c-0.1,0.1-0.2,0.1-0.3,0.1h-0.8c-0.1,0-0.2,0-0.3-0.1
			c-0.1-0.1-0.1-0.2-0.1-0.3v-0.8c-0.3,0.4-0.6,0.7-1.1,1c-0.5,0.3-1.1,0.4-1.9,0.4C167.8,118.5,167.3,118.4,166.8,118.1z
			 M170.7,116.4c0.5-0.5,0.7-1.2,0.7-2.2v-0.5l-2.1,0.3c-0.8,0.1-1.5,0.3-1.9,0.6c-0.4,0.3-0.6,0.6-0.6,1.1c0,0.5,0.2,0.8,0.6,1.1
			c0.4,0.3,0.9,0.4,1.4,0.4C169.5,117.2,170.2,116.9,170.7,116.4z"/>
		<path d="M175.8,118.2c-0.1-0.1-0.1-0.2-0.1-0.3V106c0-0.1,0-0.2,0.1-0.3c0.1-0.1,0.2-0.1,0.3-0.1h0.8c0.1,0,0.2,0,0.3,0.1
			c0.1,0.1,0.1,0.2,0.1,0.3v11.9c0,0.1,0,0.2-0.1,0.3c-0.1,0.1-0.2,0.1-0.3,0.1h-0.8C176,118.3,175.9,118.3,175.8,118.2z"/>
		<path d="M180.8,117.4c-0.7-0.8-1.1-1.8-1.2-3.1l0-0.6l0-0.6c0.1-1.3,0.5-2.3,1.2-3.1c0.7-0.8,1.7-1.1,2.9-1.1
			c1.3,0,2.3,0.4,3.1,1.3c0.7,0.8,1.1,2,1.1,3.4v0.3c0,0.1,0,0.2-0.1,0.3c-0.1,0.1-0.2,0.1-0.3,0.1h-6.2v0.2c0,0.8,0.3,1.4,0.7,2
			c0.4,0.5,1,0.8,1.7,0.8c0.5,0,1-0.1,1.3-0.3c0.4-0.2,0.6-0.4,0.8-0.7c0.1-0.1,0.2-0.2,0.2-0.3c0.1,0,0.2,0,0.3,0h0.9
			c0.1,0,0.2,0,0.3,0.1c0.1,0.1,0.1,0.1,0.1,0.3c0,0.3-0.2,0.6-0.5,0.9c-0.3,0.4-0.8,0.7-1.4,1c-0.6,0.3-1.3,0.4-2,0.4
			C182.5,118.5,181.5,118.1,180.8,117.4z M186.2,113L186.2,113c0-0.9-0.2-1.5-0.7-2.1c-0.4-0.5-1-0.8-1.8-0.8
			c-0.8,0-1.3,0.3-1.8,0.8c-0.4,0.5-0.7,1.2-0.7,2v0.1H186.2z"/>
	</g>
	<g>
		<path d="M221.8,118.2c-0.1-0.1-0.1-0.2-0.1-0.3v-11.7c0-0.1,0-0.2,0.1-0.3c0.1-0.1,0.2-0.1,0.3-0.1h4.5c1.3,0,2.4,0.3,3.2,1
			c0.8,0.7,1.2,1.6,1.2,2.8c0,1.2-0.4,2.2-1.2,2.8c-0.8,0.6-1.8,1-3.2,1h-3.2v4.5c0,0.1,0,0.2-0.1,0.3c-0.1,0.1-0.2,0.1-0.3,0.1
			h-0.9C222,118.3,221.9,118.3,221.8,118.2z M226.6,111.9c0.9,0,1.5-0.2,2-0.6c0.4-0.4,0.7-1,0.7-1.7c0-0.8-0.2-1.3-0.7-1.7
			s-1.1-0.6-2-0.6h-3.1v4.6H226.6z"/>
		<path d="M233.7,118.1c-0.5-0.2-0.9-0.6-1.2-1c-0.3-0.4-0.4-0.9-0.4-1.4c0-0.8,0.3-1.4,1-1.9c0.6-0.5,1.5-0.8,2.6-1l2.7-0.4V112
			c0-1.2-0.7-1.8-2.1-1.8c-0.5,0-1,0.1-1.3,0.3c-0.3,0.2-0.6,0.5-0.7,0.8c0,0.1-0.1,0.2-0.1,0.2c-0.1,0-0.1,0.1-0.2,0.1h-0.8
			c-0.1,0-0.2,0-0.3-0.1c-0.1-0.1-0.1-0.2-0.1-0.3c0-0.3,0.1-0.6,0.4-1c0.3-0.4,0.7-0.7,1.2-0.9c0.5-0.3,1.2-0.4,2-0.4
			c1.3,0,2.3,0.3,2.9,0.9c0.6,0.6,0.9,1.4,0.9,2.3v5.8c0,0.1,0,0.2-0.1,0.3c-0.1,0.1-0.2,0.1-0.3,0.1h-0.8c-0.1,0-0.2,0-0.3-0.1
			c-0.1-0.1-0.1-0.2-0.1-0.3v-0.8c-0.3,0.4-0.6,0.7-1.1,1c-0.5,0.3-1.1,0.4-1.9,0.4C234.8,118.5,234.2,118.4,233.7,118.1z
			 M237.6,116.4c0.5-0.5,0.7-1.2,0.7-2.2v-0.5l-2.1,0.3c-0.8,0.1-1.5,0.3-1.9,0.6c-0.4,0.3-0.6,0.6-0.6,1.1c0,0.5,0.2,0.8,0.6,1.1
			c0.4,0.3,0.9,0.4,1.4,0.4C236.5,117.2,237.1,116.9,237.6,116.4z"/>
		<path d="M242.7,118.2c-0.1-0.1-0.1-0.2-0.1-0.3v-8.5c0-0.1,0-0.2,0.1-0.3c0.1-0.1,0.2-0.1,0.3-0.1h0.8c0.1,0,0.2,0,0.3,0.1
			c0.1,0.1,0.1,0.2,0.1,0.3v0.8c0.3-0.4,0.8-0.8,1.2-1c0.5-0.2,1.1-0.4,1.8-0.4c1.1,0,2,0.4,2.7,1.1c0.6,0.7,1,1.7,1,2.9v5
			c0,0.1,0,0.2-0.1,0.3c-0.1,0.1-0.2,0.1-0.3,0.1h-0.9c-0.1,0-0.2,0-0.3-0.1c-0.1-0.1-0.1-0.2-0.1-0.3V113c0-0.8-0.2-1.5-0.6-2
			s-1-0.7-1.8-0.7c-0.8,0-1.3,0.2-1.8,0.7s-0.7,1.1-0.7,2v4.9c0,0.1,0,0.2-0.1,0.3c-0.1,0.1-0.2,0.1-0.3,0.1H243
			C242.9,118.3,242.8,118.3,242.7,118.2z"/>
		<path d="M254.1,115.2v-4.7h-1.4c-0.1,0-0.2,0-0.3-0.1c-0.1-0.1-0.1-0.2-0.1-0.3v-0.6c0-0.1,0-0.2,0.1-0.3c0.1-0.1,0.2-0.1,0.3-0.1
			h1.4v-3c0-0.1,0-0.2,0.1-0.3c0.1-0.1,0.2-0.1,0.3-0.1h0.8c0.1,0,0.2,0,0.3,0.1c0.1,0.1,0.1,0.2,0.1,0.3v3h2.2c0.1,0,0.2,0,0.3,0.1
			c0.1,0.1,0.1,0.2,0.1,0.3v0.6c0,0.1,0,0.2-0.1,0.3c-0.1,0.1-0.2,0.1-0.3,0.1h-2.2v4.6c0,0.6,0.1,1,0.3,1.3c0.2,0.3,0.5,0.5,1,0.5
			h1.1c0.1,0,0.2,0,0.3,0.1c0.1,0.1,0.1,0.2,0.1,0.3v0.6c0,0.1,0,0.2-0.1,0.3c-0.1,0.1-0.2,0.1-0.3,0.1h-1.2
			C255,118.3,254.1,117.3,254.1,115.2z"/>
		<path d="M261,117.4c-0.7-0.7-1.1-1.7-1.2-2.9l0-0.8l0-0.8c0-1.2,0.4-2.2,1.2-2.9c0.7-0.7,1.7-1.1,3-1.1c1.3,0,2.3,0.4,3,1.1
			c0.7,0.7,1.1,1.7,1.2,2.9c0,0.1,0,0.4,0,0.8s0,0.6,0,0.8c0,1.2-0.4,2.2-1.2,2.9s-1.7,1.1-3,1.1C262.8,118.5,261.8,118.1,261,117.4
			z M265.9,116.4c0.4-0.5,0.7-1.2,0.7-2.1c0-0.1,0-0.3,0-0.7c0-0.3,0-0.6,0-0.7c0-0.9-0.3-1.6-0.7-2.1c-0.4-0.5-1-0.7-1.8-0.7
			c-0.8,0-1.3,0.2-1.8,0.7c-0.4,0.5-0.7,1.2-0.7,2.1l0,0.7l0,0.7c0,0.9,0.3,1.6,0.7,2.1c0.4,0.5,1,0.7,1.8,0.7
			C264.8,117.1,265.4,116.9,265.9,116.4z"/>
		<path d="M270.6,118.2c-0.1-0.1-0.1-0.2-0.1-0.3v-8.5c0-0.1,0-0.2,0.1-0.3c0.1-0.1,0.2-0.1,0.3-0.1h0.8c0.1,0,0.2,0,0.3,0.1
			c0.1,0.1,0.1,0.2,0.1,0.3v0.8c0.3-0.4,0.8-0.8,1.2-1c0.5-0.2,1.1-0.4,1.8-0.4c1.1,0,2,0.4,2.7,1.1c0.6,0.7,1,1.7,1,2.9v5
			c0,0.1,0,0.2-0.1,0.3c-0.1,0.1-0.2,0.1-0.3,0.1h-0.9c-0.1,0-0.2,0-0.3-0.1c-0.1-0.1-0.1-0.2-0.1-0.3V113c0-0.8-0.2-1.5-0.6-2
			c-0.4-0.5-1-0.7-1.8-0.7c-0.8,0-1.3,0.2-1.8,0.7c-0.4,0.5-0.7,1.1-0.7,2v4.9c0,0.1,0,0.2-0.1,0.3c-0.1,0.1-0.2,0.1-0.3,0.1h-0.9
			C270.8,118.3,270.7,118.3,270.6,118.2z"/>
		<path d="M282.1,117.4c-0.7-0.8-1.1-1.8-1.2-3.1l0-0.6l0-0.6c0.1-1.3,0.5-2.3,1.2-3.1c0.7-0.8,1.7-1.1,2.9-1.1
			c1.3,0,2.3,0.4,3.1,1.3c0.7,0.8,1.1,2,1.1,3.4v0.3c0,0.1,0,0.2-0.1,0.3c-0.1,0.1-0.2,0.1-0.3,0.1h-6.2v0.2c0,0.8,0.3,1.4,0.7,2
			c0.4,0.5,1,0.8,1.7,0.8c0.5,0,1-0.1,1.3-0.3c0.4-0.2,0.6-0.4,0.8-0.7c0.1-0.1,0.2-0.2,0.2-0.3s0.2,0,0.3,0h0.9
			c0.1,0,0.2,0,0.3,0.1c0.1,0.1,0.1,0.1,0.1,0.3c0,0.3-0.2,0.6-0.5,0.9c-0.3,0.4-0.8,0.7-1.4,1c-0.6,0.3-1.3,0.4-2,0.4
			C283.8,118.5,282.9,118.1,282.1,117.4z M287.5,113L287.5,113c0-0.9-0.2-1.5-0.7-2.1c-0.4-0.5-1-0.8-1.8-0.8
			c-0.8,0-1.3,0.3-1.8,0.8c-0.4,0.5-0.7,1.2-0.7,2v0.1H287.5z"/>
	</g>
</g>
</svg>
