<svg id="Layer_1" data-name="Layer 1" xmlns="http://www.w3.org/2000/svg" viewBox="0 0 100 100"><defs><style>.cls-1{fill:#f9c3dc;}.cls-2{fill:#1a6071;}</style></defs><path class="cls-1" d="M46.3,26.6A23.35,23.35,0,1,1,22.9,50h0A23.49,23.49,0,0,1,46.3,26.6m0-21.5a44.9,44.9,0,1,0,44.8,45V50A44.9,44.9,0,0,0,46.3,5.1Z"/><path class="cls-2" d="M77.5,72.16l4.27,4.41L98.05,93.41a3.05,3.05,0,0,1,.79,3.17,3,3,0,0,1-2.37,2.13,3.1,3.1,0,0,1-3-1Q88.26,92.29,83,86.87L73.27,76.78,73,76.51a27.24,27.24,0,0,1-22,5.12A26.66,26.66,0,0,1,34.36,71.3a27.49,27.49,0,0,1,38.7-38.38A26.64,26.64,0,0,1,83.53,51.59,27.31,27.31,0,0,1,77.5,72.16ZM56.62,33.44A21.23,21.23,0,1,0,77.46,55.06,21.22,21.22,0,0,0,56.62,33.44Z"/></svg>