<svg id="Layer_1" data-name="Layer 1" xmlns="http://www.w3.org/2000/svg" viewBox="0 0 100 100"><defs><style>.cls-1{fill:#f9c3dc;}.cls-2{fill:#51a0a8;stroke:#51a0a8;stroke-miterlimit:10;stroke-width:2px;}</style></defs><path class="cls-1" d="M46.3,26.6A23.35,23.35,0,1,1,22.9,50h0A23.49,23.49,0,0,1,46.3,26.6m0-21.5a44.9,44.9,0,1,0,44.8,45V50A44.9,44.9,0,0,0,46.3,5.1Z"/><path class="cls-2" d="M76.81,71.58,81.08,76,97.36,92.83A3.06,3.06,0,0,1,98.15,96a3,3,0,0,1-2.37,2.13,3.11,3.11,0,0,1-3-1q-5.2-5.43-10.47-10.84L72.58,76.2l-.27-.27a27.23,27.23,0,0,1-22,5.12A26.65,26.65,0,0,1,33.67,70.72a27.49,27.49,0,0,1,38.7-38.38A26.62,26.62,0,0,1,82.84,51,27.3,27.3,0,0,1,76.81,71.58ZM55.93,32.86A21.23,21.23,0,1,0,76.77,54.48,21.22,21.22,0,0,0,55.93,32.86Z"/></svg>