<?xml version="1.0" encoding="utf-8"?>
<!-- Generator: Adobe Illustrator 26.0.1, SVG Export Plug-In . SVG Version: 6.00 Build 0)  -->
<svg version="1.1" id="Layer_1" xmlns="http://www.w3.org/2000/svg" xmlns:xlink="http://www.w3.org/1999/xlink" x="0px" y="0px"
	 viewBox="0 0 100 100" style="enable-background:new 0 0 100 100;" xml:space="preserve">
<style type="text/css">
	.st0{fill:none;stroke:#A3C9A8;stroke-width:5;stroke-linecap:round;stroke-miterlimit:10;}
	.st1{fill:#BA727B;}
</style>
<g>
	<g>
		<path class="st0" d="M4.1,61.1c8.4,0.2,8.3,4.2,16.7,4.3c8.4,0.2,8.5-3.8,16.8-3.7c8.4,0.2,8.3,4.2,16.7,4.3
			c8.4,0.2,8.5-3.8,16.8-3.7s8.3,4.2,16.7,4.3"/>
	</g>
	<g>
		<path class="st0" d="M4.1,46.1c8.4,0.2,8.3,4.2,16.7,4.3c8.4,0.2,8.5-3.8,16.8-3.7c8.4,0.2,8.3,4.2,16.7,4.3
			c8.4,0.2,8.5-3.8,16.8-3.7s8.3,4.2,16.7,4.3"/>
	</g>
	<g>
		<path class="st0" d="M4.1,31.1c8.4,0.2,8.3,4.2,16.7,4.3c8.4,0.2,8.5-3.8,16.8-3.7c8.4,0.2,8.3,4.2,16.7,4.3
			c8.4,0.2,8.5-3.8,16.8-3.7s8.3,4.2,16.7,4.3"/>
	</g>
	<g>
		<path class="st0" d="M4.1,16.1c8.4,0.2,8.3,4.2,16.7,4.3c8.4,0.2,8.5-3.8,16.8-3.7c8.4,0.2,8.3,4.2,16.7,4.3
			c8.4,0.2,8.5-3.8,16.8-3.7c8.4,0.2,8.3,4.2,16.7,4.3"/>
	</g>
</g>
<path class="st1" d="M98.1,92.1L78.1,71.5c4.5-5.8,6.6-13.3,5.7-20.6c-0.8-7.7-4.7-14.7-10.9-19.4c-10.2-7.9-24.4-7.9-34.7-0.1
	c-12.5,9.5-15,27.4-5.5,39.9C37.1,77,43.2,80.8,50.1,82c7.7,1.6,15.7-0.2,22.1-4.8l9.4,9.7c3.5,3.6,7,7.2,10.4,10.8
	c0.8,0.9,1.9,1.4,3.1,1.4c0.3,0,0.6,0,0.8-0.1c1.5-0.3,2.7-1.4,3.1-2.8C99.6,94.8,99.2,93.2,98.1,92.1z M55.9,32.9l0,1
	c5.4,0.1,10.4,2.3,14.2,6.2c3.7,3.9,5.8,9,5.6,14.4c-0.2,11-9.2,19.9-20.2,19.9c-0.1,0-0.2,0-0.4,0C49.8,74.2,44.7,72,41,68.1
	c-3.8-3.9-5.8-9-5.7-14.4c0.1-5.4,2.3-10.4,6.2-14.2c3.8-3.7,8.8-5.7,14-5.7c0.1,0,0.3,0,0.4,0L55.9,32.9L55.9,32.9z"/>
</svg>
