<?xml version="1.0" encoding="utf-8"?>
<!-- Generator: Adobe Illustrator 26.0.1, SVG Export Plug-In . SVG Version: 6.00 Build 0)  -->
<svg version="1.1" id="Layer_1" xmlns="http://www.w3.org/2000/svg" xmlns:xlink="http://www.w3.org/1999/xlink" x="0px" y="0px"
	 viewBox="0 0 100 100" style="enable-background:new 0 0 100 100;" xml:space="preserve">
<style type="text/css">
	.st0{fill:none;stroke:#A3C9A8;stroke-width:5;stroke-linecap:round;stroke-miterlimit:10;}
	.st1{fill:#875053;}
</style>
<g>
	<g>
		<path class="st0" d="M4.1,61.1c8.4,0.2,8.3,4.2,16.7,4.3c8.4,0.2,8.5-3.8,16.8-3.7c8.4,0.2,8.3,4.2,16.7,4.3
			c8.4,0.2,8.5-3.8,16.8-3.7s8.3,4.2,16.7,4.3"/>
	</g>
	<g>
		<path class="st0" d="M4.1,46.1c8.4,0.2,8.3,4.2,16.7,4.3c8.4,0.2,8.5-3.8,16.8-3.7c8.4,0.2,8.3,4.2,16.7,4.3
			c8.4,0.2,8.5-3.8,16.8-3.7s8.3,4.2,16.7,4.3"/>
	</g>
	<g>
		<path class="st0" d="M4.1,31.1c8.4,0.2,8.3,4.2,16.7,4.3c8.4,0.2,8.5-3.8,16.8-3.7c8.4,0.2,8.3,4.2,16.7,4.3
			c8.4,0.2,8.5-3.8,16.8-3.7s8.3,4.2,16.7,4.3"/>
	</g>
	<g>
		<path class="st0" d="M4.1,16.1c8.4,0.2,8.3,4.2,16.7,4.3c8.4,0.2,8.5-3.8,16.8-3.7c8.4,0.2,8.3,4.2,16.7,4.3
			c8.4,0.2,8.5-3.8,16.8-3.7c8.4,0.2,8.3,4.2,16.7,4.3"/>
	</g>
</g>
<path class="st1" d="M77.5,72.2l4.3,4.4l16.3,16.8c0.9,0.8,1.2,2,0.8,3.2c-0.3,1.1-1.2,1.9-2.4,2.1c-1.1,0.2-2.3-0.1-3-1
	c-3.5-3.6-7-7.2-10.5-10.8l-9.7-10.1L73,76.5c-6.2,4.8-14.3,6.7-22,5.1c-6.7-1.2-12.6-4.9-16.6-10.3c-9.2-12.1-6.8-29.3,5.3-38.5
	c9.9-7.5,23.6-7.5,33.4,0.1c5.9,4.5,9.7,11.3,10.5,18.7C84.4,59,82.2,66.4,77.5,72.2z M56.6,33.4C44.9,33.2,35.2,42.6,35,54.3
	C34.8,66,44.1,75.7,55.8,75.9c11.7,0.2,21.4-9.1,21.6-20.8C77.7,43.3,68.4,33.7,56.6,33.4C56.6,33.4,56.6,33.4,56.6,33.4z"/>
</svg>
