<svg id="Layer_1" data-name="Layer 1" xmlns="http://www.w3.org/2000/svg" viewBox="0 0 100 100"><defs><style>.cls-1{fill:#f9c3dc;}.cls-2{fill:none;stroke:#51a0a8;stroke-miterlimit:10;stroke-width:4px;}</style></defs><path class="cls-1" d="M46.3,26.6A23.35,23.35,0,1,1,22.9,50h0A23.49,23.49,0,0,1,46.3,26.6m0-21.5a44.9,44.9,0,1,0,44.8,45V50A44.9,44.9,0,0,0,46.3,5.1Z"/><rect class="cls-2" x="7.25" y="24.14" width="46.88" height="12.38" rx="3.62"/><rect class="cls-2" x="49.63" y="61.53" width="46.88" height="12.38" rx="3.62"/><rect class="cls-2" x="16.05" y="83.52" width="46.88" height="12.38" rx="3.62"/><path class="cls-2" d="M72,73.91v9.67a6.12,6.12,0,0,1-6.13,6.13H62.14"/><path class="cls-2" d="M38.7,36.51v8.36A6.15,6.15,0,0,0,44.83,51h21A6.12,6.12,0,0,1,72,57.09v4.44"/></svg>