<?xml version="1.0" encoding="utf-8"?>
<!-- Generator: Adobe Illustrator 26.0.1, SVG Export Plug-In . SVG Version: 6.00 Build 0)  -->
<svg version="1.1" id="Layer_1" xmlns="http://www.w3.org/2000/svg" xmlns:xlink="http://www.w3.org/1999/xlink" x="0px" y="0px"
	 viewBox="0 0 100 100" style="enable-background:new 0 0 100 100;" xml:space="preserve">
<style type="text/css">
	.st0{fill:none;stroke:#A3C9A8;stroke-width:5;stroke-linecap:round;stroke-miterlimit:10;}
	.st1{fill:#BA727B;}
</style>
<g>
	<g>
		<path class="st0" d="M4.1,61.1c8.4,0.2,8.3,4.2,16.7,4.3c8.4,0.2,8.5-3.8,16.8-3.7c8.4,0.2,8.3,4.2,16.7,4.3
			c8.4,0.2,8.5-3.8,16.8-3.7s8.3,4.2,16.7,4.3"/>
	</g>
	<g>
		<path class="st0" d="M4.1,46.1c8.4,0.2,8.3,4.2,16.7,4.3c8.4,0.2,8.5-3.8,16.8-3.7c8.4,0.2,8.3,4.2,16.7,4.3
			c8.4,0.2,8.5-3.8,16.8-3.7s8.3,4.2,16.7,4.3"/>
	</g>
	<g>
		<path class="st0" d="M4.1,31.1c8.4,0.2,8.3,4.2,16.7,4.3c8.4,0.2,8.5-3.8,16.8-3.7c8.4,0.2,8.3,4.2,16.7,4.3
			c8.4,0.2,8.5-3.8,16.8-3.7s8.3,4.2,16.7,4.3"/>
	</g>
	<g>
		<path class="st0" d="M4.1,16.1c8.4,0.2,8.3,4.2,16.7,4.3c8.4,0.2,8.5-3.8,16.8-3.7c8.4,0.2,8.3,4.2,16.7,4.3
			c8.4,0.2,8.5-3.8,16.8-3.7c8.4,0.2,8.3,4.2,16.7,4.3"/>
	</g>
</g>
<path class="st1" d="M92.9,59.5H74V57c0-4.5-3.7-8.1-8.1-8.1c0,0,0,0-0.1,0h-21c-2.3,0-4.1-1.9-4.1-4.1v-6.4h9.8
	c3.1,0,5.6-2.5,5.6-5.6v-5.1c0-3.1-2.5-5.6-5.6-5.6H10.9c-3.1,0-5.6,2.5-5.6,5.6v5.1c0,3.1,2.5,5.6,5.6,5.6h25.8v6.4
	c0,4.5,3.7,8.1,8.1,8.1h21c1.1,0,2.1,0.4,2.9,1.2c0.9,0.9,1.3,1.9,1.3,3v2.4H53.2c-3.1,0-5.6,2.5-5.6,5.6v5.1c0,3.1,2.5,5.6,5.6,5.6
	H70v7.7c0,2.3-1.9,4.1-4.1,4.1H65V87c0-3.1-2.5-5.6-5.6-5.6H19.7c-3.1,0-5.6,2.5-5.6,5.6v5.1c0,3.1,2.5,5.6,5.6,5.6h39.6
	c3.1,0,5.6-2.5,5.6-5.6v-0.6h0.9c4.5,0,8.1-3.6,8.1-8.1v-7.7h18.9c3.1,0,5.6-2.5,5.6-5.6V65C98.5,62.1,96,59.5,92.9,59.5z M9.2,32.9
	v-5.1c0-0.9,0.7-1.6,1.6-1.6h39.6c0.9,0,1.6,0.7,1.6,1.6v5.1c0,0.9-0.7,1.6-1.6,1.6H10.9C10,34.5,9.2,33.8,9.2,32.9z M60.9,92.3
	c0,0.9-0.7,1.6-1.6,1.6H19.7c-0.9,0-1.6-0.7-1.6-1.6v-5.1c0-0.9,0.7-1.6,1.6-1.6h39.6c0.9,0,1.6,0.7,1.6,1.6
	C60.9,87.2,60.9,92.3,60.9,92.3z M94.5,70.3c0,0.9-0.7,1.6-1.6,1.6H53.2c-0.9,0-1.6-0.7-1.6-1.6v-5.1c0-0.9,0.7-1.6,1.6-1.6h39.6
	c0.9,0,1.6,0.7,1.6,1.6L94.5,70.3L94.5,70.3z"/>
</svg>
