<?xml version="1.0" encoding="utf-8"?>
<!-- Generator: Adobe Illustrator 26.0.1, SVG Export Plug-In . SVG Version: 6.00 Build 0)  -->
<svg version="1.1" xmlns="http://www.w3.org/2000/svg" xmlns:xlink="http://www.w3.org/1999/xlink" x="0px" y="0px"
	 viewBox="0 0 1190.6 841.9" style="enable-background:new 0 0 1190.6 841.9;" xml:space="preserve">
<style type="text/css">
	.st0{fill:#0994B5;}
	.st1{fill:#0AB4E1;}
	.st2{fill:#C8EAF8;}
	.st3{fill:none;stroke:#2E3192;stroke-miterlimit:10;}
	.st4{display:none;fill:none;stroke:#2E3192;stroke-width:1.1396;stroke-miterlimit:10;}
	.st5{fill:none;stroke:#ED1C24;stroke-miterlimit:10;}
	.st6{fill:none;stroke:#ED1C24;stroke-miterlimit:10;stroke-dasharray:7.9665,7.9665;}
	.st7{fill:none;stroke:#ED1C24;stroke-miterlimit:10;stroke-dasharray:6.7986,6.7986;}
	.st8{fill:none;stroke:#ED1C24;stroke-width:0.7949;stroke-miterlimit:10;}
	.st9{fill:none;stroke:#ED1C24;stroke-width:0.7949;stroke-miterlimit:10;stroke-dasharray:7.015,7.015;}
	.st10{fill:none;stroke:#ED1C24;stroke-miterlimit:10;stroke-dasharray:9.2538,9.2538;}
	.st11{fill:none;stroke:#ED1C24;stroke-width:0.9457;stroke-miterlimit:10;}
	.st12{fill:none;stroke:#ED1C24;stroke-width:0.9457;stroke-miterlimit:10;stroke-dasharray:6.1732,6.1732;}
	.st13{fill:none;stroke:#ED1C24;stroke-miterlimit:10;stroke-dasharray:8.2448,8.2448;}
	.st14{fill:none;stroke:#ED1C24;stroke-width:0.6704;stroke-miterlimit:10;}
	.st15{fill:none;stroke:#ED1C24;stroke-width:0.6704;stroke-miterlimit:10;stroke-dasharray:6.3169,6.3169;}
	.st16{fill:none;stroke:#ED1C24;stroke-miterlimit:10;stroke-dasharray:4.8298,4.8298;}
	.st17{fill:none;stroke:#ED1C24;stroke-miterlimit:10;stroke-dasharray:8;}
	.st18{fill:none;stroke:#ED1C24;stroke-miterlimit:10;stroke-dasharray:9;}
	.st19{fill:none;stroke:#ED1C24;stroke-miterlimit:10;stroke-dasharray:5.2651;}
	.st20{fill:none;stroke:#ED1C24;stroke-miterlimit:10;stroke-dasharray:6.47;}
	.st21{fill:none;stroke:#ED1C24;stroke-miterlimit:10;stroke-dasharray:7.2263;}
	.st22{fill:none;stroke:#ED1C24;stroke-width:0.9731;stroke-miterlimit:10;stroke-dasharray:7.7851;}
	.st23{fill:none;stroke:#ED1C24;stroke-width:0.8337;stroke-miterlimit:10;stroke-dasharray:6.6698;}
	.st24{fill:none;stroke:#ED1C24;stroke-miterlimit:10;stroke-dasharray:7.3177;}
	.st25{fill:#FFFFFF;}
	.st26{fill:none;stroke:#1C75BC;stroke-miterlimit:10;}
	.st27{fill:#1C75BC;}
	.st28{fill:#FFFFFF;stroke:#2B3990;stroke-width:0.5223;stroke-miterlimit:10;}
	.st29{fill:#0074B7;stroke:#2B3990;stroke-width:0.5223;stroke-miterlimit:10;}
	.st30{fill:#2B3990;}
	.st31{fill:#D5E6F4;}
	.st32{fill:#81CEF3;stroke:#D5E6F4;stroke-width:1.4432;stroke-miterlimit:10;}
	.st33{fill:#80CFF4;}
	.st34{fill:#D12727;}
	.st35{fill:none;stroke:#FFFFFF;stroke-width:1.2654;stroke-miterlimit:10;}
	.st36{fill:#53C9EB;stroke:#1C75BC;stroke-width:3;stroke-miterlimit:10;}
	.st37{fill:#FFFFFF;stroke:#1C75BC;stroke-miterlimit:10;}
	.st38{fill:none;stroke:#1C75BC;stroke-width:0.9418;stroke-miterlimit:10;}
	.st39{fill:none;}
	.st40{fill:#81CEF3;stroke:#1C75BC;stroke-width:0.4709;stroke-miterlimit:10;}
	.st41{fill:none;stroke:#1C75BC;stroke-width:1.05;stroke-miterlimit:10;}
	.st42{fill:none;stroke:#1C75BC;stroke-width:0.25;stroke-miterlimit:10;}
	.st43{fill:none;stroke:#1C75BC;stroke-width:0.5;stroke-miterlimit:10;}
	.st44{fill:#81CEF3;stroke:#1C75BC;stroke-width:0.525;stroke-miterlimit:10;}
	.st45{fill:none;stroke:#1C75BC;stroke-width:0.6036;stroke-miterlimit:10;}
	.st46{fill:none;stroke:#1C75BC;stroke-width:0.6116;stroke-miterlimit:10;}
	.st47{fill:#81CEF3;stroke:#1C75BC;stroke-width:0.3058;stroke-miterlimit:10;}
	.st48{fill:none;stroke:#FFFFFF;stroke-width:1.3058;stroke-miterlimit:10;}
</style>
<g id="Design_Area">
</g>
<g id="Pattern">
</g>
<g id="Diecut-nonprint">
</g>
<g id="Fold-nonprint">
	<path class="st2" d="M883.6,842.4l16.4-54.1v-2.9h71.8v-63.7l13.2-13.2V470.2h89c16.3,0,29.5-13.2,29.5-29.5v-41.9
		c0-16.3-13.2-29.5-29.5-29.5h-89V132.4l-13.2-13.2V55.4H900v-2.9L883.9-0.6H585.8L569,54.7v0.8h-72v63.3l-8.7,8.7H177.3L87,154.9
		v530.5l92.4,28.1h308.8l8.7,8.7v62.3h72v1.8l17.1,56.2L883.6,842.4z"/>
	<path class="st3" d="M97,162.3v515.7l82,25.5h314v0.6l14,14v56.4h57.8v-56.8l14.2-14.2v10v71.3l1.1,3.7l13.4,44l282.6,0l13.4-44
		l0.5-1.5V704l14,14v57.4h57.8v-57.8l13.2-13.2V460.2h99c10.8,0,19.5-8.7,19.5-19.5v-41.9c0-10.8-8.7-19.5-19.5-19.5h-99V136.5
		l-13.2-13.2V65.4H904v57.5l-14,14V54l-0.5-1.5l-13.1-43H593.2l-13.1,43l-1.1,3.7v71.3l0,10l0,0.1l-0.1-0.1l-10-10l-4.1-4.1V65.4
		H507v57.5l-14,14v0.5H178.7L97,162.3z"/>
	
		<rect x="175.8" y="378.2" transform="matrix(-1 -4.448098e-11 4.448098e-11 -1 358.531 839.7159)" class="st4" width="6.9" height="83.4"/>
	<g>
		<g>
			<line class="st5" x1="178.7" y1="126.4" x2="178.7" y2="130.4"/>
			<line class="st6" x1="178.7" y1="138.4" x2="178.7" y2="708"/>
			<line class="st5" x1="178.7" y1="712" x2="178.7" y2="716"/>
		</g>
	</g>
	<g>
		<g>
			<line class="st5" x1="178.7" y1="0" x2="178.7" y2="3.5"/>
			<line class="st7" x1="178.7" y1="10.3" x2="178.7" y2="61.3"/>
			<line class="st5" x1="178.7" y1="64.7" x2="178.7" y2="68.2"/>
		</g>
	</g>
	<g>
		<g>
			<line class="st8" x1="178.7" y1="786.4" x2="178.7" y2="789.6"/>
			<line class="st9" x1="178.7" y1="796.6" x2="178.7" y2="835.2"/>
			<line class="st8" x1="178.7" y1="838.7" x2="178.7" y2="841.9"/>
		</g>
	</g>
	<g>
		<g>
			<line class="st5" x1="492.7" y1="126.4" x2="492.7" y2="130.4"/>
			<line class="st6" x1="492.7" y1="138.4" x2="492.7" y2="708"/>
			<line class="st5" x1="492.7" y1="712" x2="492.7" y2="716"/>
		</g>
	</g>
	<g>
		<g>
			<line class="st5" x1="492.7" y1="0" x2="492.7" y2="3.6"/>
			<line class="st10" x1="492.7" y1="12.9" x2="492.7" y2="26.7"/>
			<line class="st5" x1="492.7" y1="31.4" x2="492.7" y2="35"/>
		</g>
	</g>
	<g>
		<g>
			<line class="st11" x1="492.7" y1="803.5" x2="492.7" y2="807.2"/>
			<line class="st12" x1="492.7" y1="813.4" x2="492.7" y2="835"/>
			<line class="st11" x1="492.7" y1="838.1" x2="492.7" y2="841.9"/>
		</g>
	</g>
	<g>
		<g>
			<line class="st5" x1="578.7" y1="126.4" x2="578.7" y2="130.4"/>
			<line class="st6" x1="578.7" y1="138.4" x2="578.7" y2="708"/>
			<line class="st5" x1="578.7" y1="712" x2="578.7" y2="716"/>
		</g>
	</g>
	<g>
		<g>
			<line class="st5" x1="889.7" y1="126.4" x2="889.7" y2="130.4"/>
			<line class="st6" x1="889.7" y1="138.4" x2="889.7" y2="708"/>
			<line class="st5" x1="889.7" y1="712" x2="889.7" y2="716"/>
		</g>
	</g>
	<g>
		<g>
			<line class="st5" x1="975.1" y1="379.3" x2="975.1" y2="383.3"/>
			<line class="st13" x1="975.1" y1="391.6" x2="975.1" y2="453.4"/>
			<line class="st5" x1="975.1" y1="457.5" x2="975.1" y2="461.5"/>
		</g>
	</g>
	<g>
		<g>
			<line class="st14" x1="975.1" y1="804.9" x2="975.1" y2="807.6"/>
			<line class="st15" x1="975.1" y1="813.9" x2="975.1" y2="836.1"/>
			<line class="st14" x1="975.1" y1="839.2" x2="975.1" y2="841.9"/>
		</g>
	</g>
	<g>
		<g>
			<line class="st5" x1="975.1" y1="0" x2="975.1" y2="2.8"/>
			<line class="st16" x1="975.1" y1="7.6" x2="975.1" y2="34.2"/>
			<line class="st5" x1="975.1" y1="36.6" x2="975.1" y2="39.3"/>
		</g>
	</g>
	<line class="st17" x1="492.7" y1="137.4" x2="985" y2="137.4"/>
	<line class="st18" x1="1132.1" y1="137.4" x2="1190.6" y2="137.4"/>
	<line class="st19" x1="0" y1="137.4" x2="62" y2="137.4"/>
	<line class="st20" x1="575.3" y1="54.8" x2="897.3" y2="54.8"/>
	<line class="st18" x1="1132.1" y1="54.8" x2="1190.6" y2="54.8"/>
	<line class="st17" x1="0" y1="54.8" x2="72.3" y2="54.8"/>
	<line class="st20" x1="575.3" y1="786.4" x2="897.3" y2="786.4"/>
	<line class="st18" x1="1132.1" y1="786.4" x2="1190.6" y2="786.4"/>
	<line class="st21" x1="0" y1="786.4" x2="58.4" y2="786.4"/>
	<line class="st22" x1="492.7" y1="703.4" x2="975" y2="703.4"/>
	<line class="st23" x1="1132.1" y1="703.4" x2="1190.6" y2="703.4"/>
	<line class="st24" x1="0" y1="703.4" x2="49.1" y2="703.4"/>
</g>
<g id="front">
</g>
<g id="Back">
</g>
</svg>
