<?xml version="1.0" encoding="utf-8"?>
<!-- Generator: Adobe Illustrator 26.0.1, SVG Export Plug-In . SVG Version: 6.00 Build 0)  -->
<svg version="1.1" id="Layer_1" xmlns="http://www.w3.org/2000/svg" xmlns:xlink="http://www.w3.org/1999/xlink" x="0px" y="0px"
	 viewBox="0 0 1000 346.7" style="enable-background:new 0 0 1000 346.7;" xml:space="preserve">
<style type="text/css">
	.st0{fill:#313159;}
	.st1{fill:#313159;stroke:#313159;stroke-width:0.2581;stroke-miterlimit:10;}
	.st2{fill:#FC0053;stroke:#FC0053;stroke-width:0.2581;stroke-miterlimit:10;}
	.st3{fill:none;stroke:#313159;stroke-width:4.7124;stroke-linecap:round;stroke-miterlimit:10;}
	.st4{fill:none;stroke:#FC0053;stroke-width:4.7124;stroke-linecap:round;stroke-miterlimit:10;}
</style>
<g>
	<g>
		<path class="st0" d="M309.3,207c-2.2,1.9-4.7,3.4-7.5,4.4s-5.6,1.5-8.6,1.5c-2.3,0-4.5-0.3-6.6-0.9s-4.1-1.4-5.9-2.5
			s-3.5-2.4-5-3.9s-2.8-3.2-3.9-5c-1.1-1.8-1.9-3.8-2.5-5.9s-0.9-4.3-0.9-6.6s0.3-4.5,0.9-6.6c0.6-2.1,1.4-4.1,2.5-5.9
			s2.4-3.5,3.9-5s3.2-2.8,5-3.9c1.8-1.1,3.8-1.9,5.9-2.5c2.1-0.6,4.3-0.9,6.6-0.9c3,0,5.8,0.5,8.6,1.5c2.8,1,5.3,2.5,7.5,4.4
			l-5.1,8.4c-1.4-1.5-3.1-2.7-5-3.5s-3.9-1.2-6-1.2s-4.1,0.4-6,1.2s-3.5,1.9-4.8,3.3c-1.4,1.4-2.5,3-3.3,4.8
			c-0.8,1.9-1.2,3.8-1.2,5.9s0.4,4.1,1.2,5.9c0.8,1.8,1.9,3.4,3.3,4.8s3,2.5,4.8,3.3c1.8,0.8,3.8,1.2,6,1.2c2.1,0,4.1-0.4,6-1.2
			c1.9-0.8,3.6-2,5-3.5L309.3,207z"/>
		<path class="st0" d="M329.6,211.9H320v-48h19.2c1.8,0,3.5,0.2,5.1,0.7s3.1,1.1,4.6,1.9c1.4,0.8,2.7,1.8,3.9,3
			c1.2,1.2,2.2,2.5,3,3.9c0.8,1.4,1.5,3,1.9,4.6c0.5,1.6,0.7,3.3,0.7,5.1c0,1.6-0.2,3.3-0.6,4.8c-0.4,1.6-1,3-1.8,4.4
			s-1.7,2.7-2.8,3.9c-1.1,1.2-2.4,2.2-3.7,3.1l5.3,12.5h-10.2l-4.2-9.7l-10.7,0.1L329.6,211.9L329.6,211.9z M329.6,173.6v19.2h9.6
			c1.3,0,2.6-0.3,3.7-0.8c1.2-0.5,2.2-1.2,3-2.1c0.9-0.9,1.6-1.9,2.1-3.1s0.8-2.4,0.8-3.7c0-1.3-0.3-2.6-0.8-3.7
			c-0.5-1.2-1.2-2.2-2.1-3.1c-0.9-0.9-1.9-1.6-3-2.1c-1.2-0.5-2.4-0.8-3.7-0.8h-9.6V173.6z"/>
		<path class="st0" d="M417.4,211.9h-9.6v-34.2c0-0.7-0.1-1.3-0.4-1.9s-0.6-1.1-1-1.5s-0.9-0.8-1.5-1s-1.2-0.4-1.9-0.4
			c-0.7,0-1.3,0.1-1.9,0.4c-0.6,0.2-1.1,0.6-1.5,1s-0.8,0.9-1,1.5s-0.4,1.2-0.4,1.9v34.2h-9.6v-34.2c0-0.7-0.1-1.3-0.4-1.9
			c-0.2-0.6-0.6-1.1-1-1.5s-0.9-0.8-1.5-1s-1.2-0.4-1.9-0.4c-0.7,0-1.3,0.1-1.9,0.4c-0.6,0.2-1.1,0.6-1.5,1s-0.8,0.9-1,1.5
			s-0.4,1.2-0.4,1.9v34.2h-9.6v-34.2c0-2,0.4-3.9,1.1-5.6s1.8-3.3,3.1-4.6c1.3-1.3,2.8-2.3,4.6-3.1c1.7-0.7,3.6-1.1,5.6-1.1
			c1.8,0,3.5,0.3,5.1,1c1.6,0.6,3.1,1.6,4.4,2.8c1.3-1.2,2.8-2.1,4.4-2.8c1.6-0.6,3.3-1,5.1-1c2,0,3.9,0.4,5.6,1.1s3.3,1.8,4.6,3.1
			c1.3,1.3,2.3,2.8,3.1,4.6c0.7,1.8,1.1,3.6,1.1,5.6v34.2H417.4z"/>
		<path class="st0" d="M469.5,207c-2.2,1.9-4.7,3.4-7.5,4.4s-5.6,1.5-8.6,1.5c-2.3,0-4.5-0.3-6.6-0.9s-4.1-1.4-5.9-2.5
			s-3.5-2.4-5-3.9s-2.8-3.2-3.9-5c-1.1-1.8-1.9-3.8-2.5-5.9s-0.9-4.3-0.9-6.6s0.3-4.5,0.9-6.6c0.6-2.1,1.4-4.1,2.5-5.9
			s2.4-3.5,3.9-5s3.2-2.8,5-3.9c1.8-1.1,3.8-1.9,5.9-2.5c2.1-0.6,4.3-0.9,6.6-0.9c3,0,5.8,0.5,8.6,1.5c2.8,1,5.3,2.5,7.5,4.4
			l-5.1,8.4c-1.4-1.5-3.1-2.7-5-3.5s-3.9-1.2-6-1.2s-4.1,0.4-6,1.2s-3.5,1.9-4.8,3.3c-1.4,1.4-2.5,3-3.3,4.8
			c-0.8,1.9-1.2,3.8-1.2,5.9s0.4,4.1,1.2,5.9c0.8,1.8,1.9,3.4,3.3,4.8s3,2.5,4.8,3.3c1.8,0.8,3.8,1.2,6,1.2c2.1,0,4.1-0.4,6-1.2
			c1.9-0.8,3.6-2,5-3.5L469.5,207z"/>
		<path class="st0" d="M543,188c0,2.2-0.3,4.3-0.9,6.4c-0.6,2-1.4,3.9-2.4,5.7c-1,1.8-2.3,3.4-3.7,4.8c-1.4,1.5-3.1,2.7-4.8,3.8
			c-1.8,1-3.7,1.9-5.7,2.4c-2,0.6-4.2,0.9-6.4,0.9h-14.4v-48h14.4c2.2,0,4.3,0.3,6.4,0.9c2,0.6,4,1.4,5.7,2.4c1.8,1,3.4,2.3,4.8,3.8
			c1.4,1.5,2.7,3.1,3.7,4.8c1,1.8,1.9,3.7,2.4,5.7C542.8,183.6,543,185.8,543,188z M533.4,188c0-2-0.4-3.8-1.1-5.6
			c-0.7-1.7-1.8-3.3-3.1-4.6c-1.3-1.3-2.8-2.3-4.6-3.1c-1.8-0.8-3.6-1.1-5.6-1.1h-4.8v28.7h4.8c2,0,3.9-0.4,5.6-1.1
			c1.7-0.7,3.3-1.8,4.6-3.1c1.3-1.3,2.3-2.8,3.1-4.6C533.1,191.8,533.4,189.9,533.4,188z"/>
		<path class="st0" d="M551.8,178.4c0-2,0.4-3.8,1.1-5.6c0.8-1.7,1.8-3.3,3.1-4.6c1.3-1.3,2.8-2.3,4.6-3.1c1.7-0.8,3.6-1.1,5.6-1.1
			h22v9.6h-22c-0.7,0-1.3,0.1-1.9,0.4c-0.6,0.2-1.1,0.6-1.5,1s-0.8,0.9-1,1.5s-0.4,1.2-0.4,1.9c0,0.7,0.1,1.3,0.4,1.9
			c0.2,0.6,0.6,1.1,1,1.5s0.9,0.8,1.5,1s1.2,0.4,1.9,0.4h9.6c2,0,3.9,0.4,5.6,1.1c1.7,0.7,3.3,1.8,4.6,3.1c1.3,1.3,2.3,2.8,3.1,4.6
			c0.7,1.8,1.1,3.6,1.1,5.6s-0.4,3.8-1.1,5.6c-0.7,1.7-1.8,3.3-3.1,4.6c-1.3,1.3-2.8,2.3-4.6,3.1c-1.8,0.8-3.6,1.1-5.6,1.1h-21.3
			v-9.7h21.3c0.7,0,1.3-0.1,1.9-0.4c0.6-0.2,1.1-0.6,1.5-1s0.8-0.9,1-1.5s0.4-1.2,0.4-1.9c0-0.7-0.1-1.3-0.4-1.9
			c-0.2-0.6-0.6-1.1-1-1.5s-0.9-0.8-1.5-1c-0.6-0.2-1.2-0.4-1.9-0.4h-9.6c-2,0-3.8-0.4-5.6-1.1c-1.7-0.8-3.3-1.8-4.6-3.1
			c-1.3-1.3-2.3-2.8-3.1-4.6C552.2,182.2,551.8,180.3,551.8,178.4z"/>
		<path class="st0" d="M639.8,207.1c-2.2,1.9-4.7,3.3-7.5,4.4c-2.7,1-5.6,1.5-8.6,1.5c-2.3,0-4.5-0.3-6.6-0.9s-4.1-1.4-5.9-2.5
			c-1.8-1.1-3.5-2.4-5-3.9s-2.8-3.2-3.9-5c-1.1-1.8-1.9-3.8-2.5-5.9s-0.9-4.3-0.9-6.6s0.3-4.5,0.9-6.6c0.6-2.1,1.4-4.1,2.5-5.9
			s2.4-3.5,3.9-5s3.2-2.8,5-3.9c1.8-1.1,3.8-1.9,5.9-2.5c2.1-0.6,4.3-0.9,6.6-0.9c3,0,5.8,0.5,8.6,1.5c2.7,1,5.2,2.5,7.5,4.4l-5,8.4
			c-1.4-1.5-3.1-2.6-5-3.5c-1.9-0.8-3.9-1.3-6-1.3s-4.1,0.4-5.9,1.2c-1.8,0.8-3.4,1.9-4.8,3.3c-1.4,1.4-2.5,3-3.3,4.8
			s-1.2,3.8-1.2,5.9s0.4,4.1,1.2,6s1.9,3.5,3.3,4.8c1.4,1.4,3,2.5,4.8,3.3c1.8,0.8,3.8,1.2,5.9,1.2c1.2,0,2.4-0.1,3.5-0.4
			s2.2-0.7,3.2-1.2v-13.6h9.3V207.1z"/>
		<path class="st0" d="M690.7,211.9h-10.3L662,180.4V212h-9.6v-48h10.3l18.5,31.6V164h9.6L690.7,211.9L690.7,211.9z"/>
	</g>
</g>
<g>
	<path class="st1" d="M315.7,260.3c-1.8,0-3.3-0.4-4.5-1.3c-1.3-0.9-2.2-2.1-2.9-3.6c-0.7-1.6-1-3.4-1-5.5v-0.4c0-2.3,0.3-4.3,1-6.1
		c0.7-1.7,1.6-3.1,2.9-4.1s2.8-1.4,4.6-1.4c1.3,0,2.4,0.2,3.4,0.7s1.8,1.2,2.5,2v-8.8l-3.3-0.6v-2.5h3.3h3.9v28.1l3.3,0.6v2.5h-6.7
		l-0.3-2.6c-0.7,1-1.6,1.7-2.6,2.2C318.2,260,317,260.3,315.7,260.3z M316.7,257.1c1.2,0,2.2-0.3,3-0.8s1.5-1.3,2-2.3v-10
		c-0.5-0.9-1.2-1.6-2-2.2c-0.8-0.5-1.8-0.8-2.9-0.8c-1.3,0-2.3,0.4-3.1,1.1c-0.8,0.7-1.4,1.7-1.8,3c-0.4,1.3-0.6,2.7-0.6,4.4v0.4
		c0,2.2,0.4,3.9,1.3,5.2C313.4,256.4,314.8,257.1,316.7,257.1z"/>
	<path class="st1" d="M341.3,260.3c-2,0-3.7-0.5-5.2-1.4s-2.6-2.2-3.4-3.8s-1.2-3.5-1.2-5.6v-0.9c0-2.1,0.4-3.9,1.3-5.5
		c0.8-1.6,2-2.9,3.4-3.8s2.9-1.4,4.6-1.4c1.9,0,3.6,0.4,4.9,1.2c1.3,0.8,2.3,1.9,3,3.4c0.7,1.4,1,3.1,1,5.1v2.5h-14l-0.1,0.1
		c0,1.4,0.3,2.6,0.7,3.7c0.5,1.1,1.1,1.9,2,2.5s1.9,0.9,3.1,0.9c1.3,0,2.5-0.2,3.5-0.6s1.9-0.9,2.6-1.6l1.5,2.6
		c-0.8,0.7-1.8,1.4-3.1,1.9C344.6,260,343,260.3,341.3,260.3z M335.6,246.9h10v-0.5c0-1-0.2-2-0.5-2.8c-0.4-0.8-0.9-1.5-1.6-1.9
		c-0.7-0.5-1.6-0.7-2.7-0.7c-0.9,0-1.7,0.3-2.4,0.8c-0.7,0.5-1.3,1.2-1.8,2.1s-0.8,1.9-0.9,3H335.6z"/>
	<path class="st1" d="M361.4,260.3c-1.5,0-2.8-0.1-4.1-0.4c-1.3-0.3-2.6-0.7-4-1.4v-5.1h3l0.7,3.1c0.7,0.3,1.5,0.5,2.2,0.7
		c0.7,0.1,1.5,0.2,2.3,0.2c1.6,0,2.7-0.3,3.4-0.9c0.7-0.6,1-1.4,1-2.3c0-0.9-0.3-1.6-1-2.2c-0.7-0.6-2-1.1-3.8-1.5
		c-2.6-0.6-4.5-1.4-5.8-2.4c-1.2-1-1.8-2.3-1.8-4c0-1.2,0.3-2.2,1-3.1s1.6-1.7,2.8-2.2c1.2-0.5,2.6-0.8,4.2-0.8s3,0.2,4.2,0.6
		c1.2,0.4,2.2,0.9,3,1.5l0.2,4.9h-3l-0.6-2.9c-0.5-0.3-1-0.6-1.7-0.8c-0.6-0.2-1.4-0.3-2.2-0.3c-1.2,0-2.2,0.3-3,0.9
		s-1.1,1.3-1.1,2.2c0,0.5,0.1,0.9,0.3,1.3c0.2,0.4,0.6,0.7,1.3,1c0.6,0.3,1.5,0.6,2.8,0.9c3,0.7,5.1,1.6,6.3,2.7
		c1.2,1.1,1.8,2.4,1.8,4c0,1.8-0.7,3.4-2,4.6C366.4,259.7,364.3,260.3,361.4,260.3z"/>
	<path class="st1" d="M372.9,259.9v-2.5l3.3-0.6v-15.4l-3.3-0.6v-2.5h7.2v18.5l3.3,0.6v2.5H372.9z M376,232.9v-4.2h4.1v4.2H376z"/>
	<path class="st1" d="M395.6,268.6c-1,0-2.2-0.1-3.4-0.4c-1.2-0.3-2.3-0.7-3.2-1.2l1-3.1c0.7,0.4,1.6,0.7,2.6,1c1,0.3,2,0.4,2.9,0.4
		c1.8,0,3-0.5,3.9-1.5c0.8-1,1.2-2.4,1.2-4.2v-2.1c-0.7,0.9-1.6,1.6-2.5,2.1c-1,0.5-2.1,0.7-3.4,0.7c-1.8,0-3.3-0.4-4.6-1.3
		c-1.3-0.9-2.3-2.1-2.9-3.7c-0.7-1.6-1-3.4-1-5.4v-0.4c0-2.3,0.3-4.3,1-6.1c0.7-1.7,1.7-3.1,2.9-4.1c1.3-1,2.8-1.4,4.6-1.4
		c1.4,0,2.6,0.3,3.6,0.8s1.9,1.3,2.6,2.3l0.4-2.7h3.3v21.3c0,1.9-0.3,3.5-1,4.8c-0.7,1.3-1.7,2.4-3.1,3.1
		C399.1,268.2,397.5,268.6,395.6,268.6z M395.7,257.1c1.2,0,2.2-0.3,3-0.8s1.5-1.3,2-2.3v-9.9c-0.5-0.9-1.2-1.6-2-2.2
		c-0.8-0.5-1.8-0.8-2.9-0.8c-1.3,0-2.3,0.4-3.1,1.1c-0.8,0.7-1.5,1.7-1.9,3c-0.4,1.3-0.6,2.7-0.6,4.4v0.4c0,2.2,0.5,3.9,1.4,5.2
		C392.4,256.4,393.8,257.1,395.7,257.1z M404,241.5l-1.5-3.2h4.8v2.5L404,241.5z"/>
	<path class="st1" d="M409.2,259.9v-2.5l3.3-0.6v-15.4l-3.3-0.6v-2.5h6.8l0.3,3.2c0.7-1.1,1.6-2,2.7-2.7c1.1-0.6,2.3-0.9,3.7-0.9
		c2.3,0,4.1,0.7,5.4,2c1.3,1.4,1.9,3.5,1.9,6.3v10.6l3.3,0.6v2.5h-10.4v-2.5l3.3-0.6v-10.5c0-1.9-0.4-3.3-1.1-4.1
		c-0.8-0.8-1.9-1.2-3.4-1.2c-1.1,0-2.1,0.3-3,0.8s-1.6,1.3-2.1,2.2v12.7l3.3,0.6v2.5h-10.7V259.9z"/>
	<path class="st1" d="M444.8,260.3c-1.5,0-2.8-0.1-4.1-0.4c-1.3-0.3-2.6-0.7-4-1.4v-5.1h3l0.7,3.1c0.7,0.3,1.5,0.5,2.2,0.7
		c0.7,0.1,1.5,0.2,2.3,0.2c1.6,0,2.7-0.3,3.4-0.9c0.7-0.6,1-1.4,1-2.3c0-0.9-0.3-1.6-1-2.2c-0.7-0.6-2-1.1-3.8-1.5
		c-2.6-0.6-4.5-1.4-5.8-2.4c-1.2-1-1.8-2.3-1.8-4c0-1.2,0.3-2.2,1-3.1s1.6-1.7,2.8-2.2c1.2-0.5,2.6-0.8,4.2-0.8s3,0.2,4.2,0.6
		c1.2,0.4,2.2,0.9,3,1.5l0.2,4.9h-3l-0.6-2.9c-0.5-0.3-1-0.6-1.7-0.8c-0.6-0.2-1.4-0.3-2.2-0.3c-1.2,0-2.2,0.3-3,0.9
		s-1.1,1.3-1.1,2.2c0,0.5,0.1,0.9,0.3,1.3c0.2,0.4,0.6,0.7,1.3,1c0.6,0.3,1.5,0.6,2.8,0.9c3,0.7,5.1,1.6,6.3,2.7
		c1.2,1.1,1.8,2.4,1.8,4c0,1.8-0.7,3.4-2,4.6C449.8,259.7,447.7,260.3,444.8,260.3z"/>
	<path class="st1" d="M474.3,260.2c-1.6,0-2.9-0.5-3.8-1.4s-1.4-2.4-1.4-4.5v-13.1h-3.4v-2.9h3.4v-5.2h3.9v5.2h4.7v2.9H473v13.1
		c0,1,0.2,1.8,0.6,2.3s1,0.7,1.7,0.7c0.5,0,1,0,1.6-0.1s1-0.2,1.3-0.2l0.5,2.6c-0.6,0.2-1.3,0.3-2.1,0.5
		C475.8,260.1,475,260.2,474.3,260.2z"/>
	<path class="st1" d="M480.7,259.9v-2.5l3.3-0.6v-25l-3.3-0.6v-2.5h7.2v12.4c0.7-1,1.7-1.8,2.7-2.4c1.1-0.6,2.3-0.9,3.6-0.9
		c2.3,0,4.1,0.7,5.4,2.1c1.3,1.4,1.9,3.5,1.9,6.4v10.5l3.3,0.6v2.5h-10.4v-2.5l3.3-0.6v-10.5c0-1.8-0.4-3.1-1.1-4
		c-0.8-0.9-1.9-1.3-3.4-1.3c-1.1,0-2.1,0.3-2.9,0.8c-0.9,0.5-1.6,1.2-2.2,2.1v12.9l3.3,0.6v2.5H480.7z"/>
	<path class="st1" d="M514.5,260.3c-2.3,0-4-0.5-5.1-1.6c-1.2-1.1-1.8-2.6-1.8-4.6c0-1.4,0.4-2.6,1.1-3.6c0.8-1,1.8-1.8,3.3-2.4
		c1.4-0.6,3.1-0.8,5.1-0.8h3.9v-2.1c0-1.3-0.4-2.3-1.2-3c-0.8-0.7-1.9-1.1-3.3-1.1c-0.9,0-1.7,0.1-2.4,0.3c-0.7,0.2-1.3,0.5-1.8,0.9
		l-0.4,3h-3v-5c1-0.8,2.1-1.4,3.4-1.8c1.3-0.4,2.7-0.6,4.3-0.6c2.6,0,4.7,0.6,6.2,1.9c1.5,1.3,2.2,3,2.2,5.4v10.4c0,0.3,0,0.6,0,0.8
		c0,0.3,0,0.5,0,0.8l2.1,0.2v2.5h-5.7c-0.1-0.6-0.2-1.1-0.3-1.6s-0.1-0.9-0.1-1.4c-0.8,1-1.7,1.8-2.8,2.4
		C517,260,515.8,260.3,514.5,260.3z M515.1,257c1.3,0,2.5-0.3,3.6-0.9s1.9-1.4,2.3-2.3v-3.9h-4c-1.8,0-3.2,0.4-4.1,1.3
		c-0.9,0.9-1.4,1.8-1.4,2.9c0,0.9,0.3,1.7,0.9,2.2C513,256.7,513.9,257,515.1,257z"/>
	<path class="st1" d="M537.7,260.2c-1.6,0-2.9-0.5-3.8-1.4c-0.9-0.9-1.4-2.4-1.4-4.5v-13.1h-3.4v-2.9h3.4v-5.2h3.9v5.2h4.7v2.9h-4.7
		v13.1c0,1,0.2,1.8,0.6,2.3c0.4,0.5,1,0.7,1.7,0.7c0.5,0,1,0,1.6-0.1s1-0.2,1.3-0.2l0.5,2.6c-0.6,0.2-1.3,0.3-2.1,0.5
		C539.2,260.1,538.5,260.2,537.7,260.2z"/>
	<path class="st2" d="M578.3,240.6H574l-0.6-3.9c-0.6-0.6-1.3-1-2.2-1.4c-0.9-0.3-1.9-0.5-3.1-0.5c-2.5,0-4.5,0.9-5.8,2.8
		c-1.4,1.8-2,4.2-2,7.2v1c0,3,0.7,5.4,2,7.2c1.4,1.9,3.3,2.8,5.8,2.8c1.1,0,2.2-0.2,3.1-0.5c1-0.3,1.7-0.8,2.2-1.4l0.6-3.9h4.3v5.8
		c-1.2,1.4-2.7,2.4-4.5,3.2c-1.8,0.8-3.9,1.2-6.1,1.2c-3.9,0-7.1-1.4-9.6-4.1s-3.7-6.2-3.7-10.4v-1c0-4.2,1.2-7.7,3.7-10.4
		c2.5-2.7,5.7-4.1,9.6-4.1c2.3,0,4.3,0.4,6.1,1.2c1.8,0.8,3.3,1.9,4.5,3.2V240.6z"/>
	<path class="st2" d="M580.5,232.2v-3.5h9v27.1l2.8,0.6v3.5h-11.5v-3.5l2.8-0.6v-23L580.5,232.2z"/>
	<path class="st2" d="M594,256.4l2.8-0.6v-13.4l-3.1-0.6v-3.5h9v17.5l2.8,0.6v3.5H594V256.4z M602.7,233.1h-5.8v-4.4h5.8V233.1z"/>
	<path class="st2" d="M617.5,255.8c1,0,1.9-0.3,2.5-0.9c0.6-0.6,0.9-1.4,0.9-2.4h5.3l0.1,0.1c0.1,2.2-0.8,4-2.5,5.5
		s-3.8,2.2-6.3,2.2c-3.2,0-5.7-1-7.5-3.1c-1.7-2-2.6-4.7-2.6-7.9v-0.6c0-3.2,0.9-5.8,2.7-7.9s4.3-3.1,7.7-3.1c1.7,0,3.3,0.3,4.7,0.8
		s2.5,1.3,3.5,2.2l0.1,5.8h-4.7l-1-3.4c-0.3-0.3-0.7-0.5-1.1-0.6c-0.4-0.2-0.9-0.3-1.5-0.3c-1.7,0-2.8,0.6-3.5,1.8
		c-0.7,1.2-1,2.7-1,4.6v0.6c0,1.9,0.3,3.5,0.9,4.7C614.9,255.2,616,255.8,617.5,255.8z"/>
	<path class="st2" d="M628.3,232.2v-3.5h8.9v18.1h1.3l3.4-4.7l-1.9-0.3v-3.5h10.6v3.5l-2.6,0.6l-3.9,5.4l5.5,8.2l2.2,0.5v3.5h-10
		v-3.5l1.2-0.2l-3.3-5.4h-2.5v5l2.5,0.6v3.5h-11.1v-3.5l2.8-0.6v-23L628.3,232.2z"/>
</g>
<line class="st3" x1="690.7" y1="121.9" x2="29.6" y2="121.9"/>
<line class="st4" x1="310.5" y1="302.1" x2="971.7" y2="302.1"/>
<g>
	<path d="M15,45.1c-0.2-0.2-0.4-0.5-0.4-0.8V13.1c0-0.4,0.1-0.6,0.4-0.9c0.2-0.2,0.5-0.3,0.8-0.3h22.1c0.4,0,0.6,0.1,0.9,0.3
		c0.2,0.2,0.3,0.5,0.3,0.9v4.8c0,0.3-0.1,0.6-0.3,0.8c-0.2,0.2-0.5,0.4-0.9,0.4H23.1v7.1H37c0.4,0,0.6,0.1,0.9,0.4
		c0.2,0.2,0.3,0.5,0.3,0.9v4.8c0,0.3-0.1,0.6-0.3,0.8c-0.2,0.2-0.5,0.4-0.9,0.4H23.1v10.8c0,0.4-0.1,0.6-0.3,0.9
		c-0.2,0.2-0.5,0.3-0.9,0.3h-6C15.5,45.5,15.3,45.4,15,45.1z"/>
	<path d="M48.4,43.1c-2.1-1.9-3.3-4.5-3.5-8c0-0.4,0-1.1,0-2.2c0-1,0-1.7,0-2.2c0.2-3.4,1.4-6,3.6-7.9c2.2-1.9,5.2-2.9,9.1-2.9
		c3.9,0,6.9,1,9.1,2.9c2.2,1.9,3.4,4.6,3.6,7.9c0,0.4,0,1.1,0,2.2c0,1,0,1.7,0,2.2c-0.2,3.4-1.4,6.1-3.5,8C64.6,45,61.5,46,57.5,46
		C53.6,46,50.5,45,48.4,43.1z M60.6,38.8c0.7-0.8,1.1-2.2,1.2-3.9c0-0.3,0-1,0-1.9c0-1,0-1.6,0-1.9c-0.1-1.7-0.5-3-1.2-3.9
		c-0.7-0.9-1.7-1.3-3.1-1.3c-2.7,0-4.1,1.7-4.2,5.2l0,1.9l0,1.9c0.1,1.8,0.4,3.1,1.1,3.9c0.7,0.8,1.7,1.3,3.1,1.3
		C58.9,40.1,60,39.7,60.6,38.8z"/>
	<path d="M77.8,45.1c-0.2-0.2-0.3-0.5-0.3-0.9V21.7c0-0.4,0.1-0.6,0.3-0.9c0.2-0.2,0.5-0.3,0.9-0.3h5.5c0.4,0,0.6,0.1,0.9,0.3
		c0.2,0.2,0.4,0.5,0.4,0.9v1.8c0.9-1.1,2-1.9,3.3-2.5c1.4-0.6,2.9-1,4.6-1c2.8,0,5.1,1,6.9,2.9c1.8,1.9,2.6,4.6,2.6,8v13.4
		c0,0.3-0.1,0.6-0.3,0.8c-0.2,0.2-0.5,0.4-0.9,0.4h-6c-0.3,0-0.6-0.1-0.8-0.4c-0.2-0.2-0.4-0.5-0.4-0.8V31.2c0-1.5-0.4-2.7-1.1-3.5
		c-0.7-0.8-1.8-1.2-3.2-1.2c-1.3,0-2.4,0.4-3.2,1.2c-0.8,0.8-1.2,2-1.2,3.5v13.1c0,0.3-0.1,0.6-0.3,0.8c-0.2,0.2-0.5,0.4-0.9,0.4h-6
		C78.3,45.5,78,45.4,77.8,45.1z"/>
	<path d="M113.3,36v-9.2h-3.7c-0.4,0-0.6-0.1-0.9-0.3s-0.4-0.5-0.4-0.9v-3.9c0-0.4,0.1-0.6,0.4-0.9c0.2-0.2,0.5-0.3,0.9-0.3h3.7
		v-7.9c0-0.4,0.1-0.6,0.4-0.9c0.2-0.2,0.5-0.3,0.8-0.3h5.6c0.4,0,0.6,0.1,0.9,0.3c0.2,0.2,0.3,0.5,0.3,0.9v7.9h6
		c0.4,0,0.6,0.1,0.9,0.3c0.2,0.2,0.4,0.5,0.4,0.9v3.9c0,0.4-0.1,0.6-0.4,0.9c-0.2,0.2-0.5,0.3-0.9,0.3h-6v8.5c0,2.4,0.9,3.6,2.7,3.6
		h3.7c0.4,0,0.6,0.1,0.9,0.3c0.2,0.2,0.3,0.5,0.3,0.9v4.2c0,0.3-0.1,0.6-0.3,0.8c-0.2,0.2-0.5,0.4-0.9,0.4h-4.5
		C116.6,45.5,113.3,42.3,113.3,36z"/>
	<path d="M139,44.9c-1.7-0.7-3-1.6-3.9-2.6c-0.8-1-1.2-1.9-1.2-2.7c0-0.3,0.1-0.6,0.4-0.8c0.2-0.2,0.5-0.3,0.8-0.3h5.5
		c0.2,0,0.4,0.1,0.5,0.2c0.4,0.3,0.7,0.5,0.9,0.6c0.7,0.5,1.3,0.9,1.8,1.1c0.5,0.2,1.2,0.4,1.9,0.4c0.9,0,1.7-0.2,2.3-0.6
		c0.6-0.4,0.9-0.9,0.9-1.6c0-0.5-0.2-1-0.5-1.3c-0.3-0.3-0.9-0.6-1.8-0.9c-0.9-0.3-2.2-0.6-3.9-1c-2.7-0.5-4.7-1.4-6.1-2.7
		c-1.4-1.2-2.1-2.9-2.1-5c0-1.3,0.4-2.6,1.2-3.7c0.8-1.2,2.1-2.1,3.7-2.9c1.6-0.7,3.6-1.1,5.9-1.1c2.3,0,4.3,0.4,6,1.1
		c1.7,0.7,3,1.6,3.9,2.6c0.9,1,1.3,1.9,1.3,2.8c0,0.3-0.1,0.5-0.3,0.8c-0.2,0.2-0.5,0.3-0.7,0.3h-5c-0.3,0-0.5-0.1-0.7-0.2
		c-0.4-0.2-0.8-0.5-1.1-0.7c-0.5-0.4-1.1-0.7-1.5-1c-0.5-0.2-1.1-0.3-1.8-0.3c-0.8,0-1.5,0.2-2,0.6s-0.7,0.9-0.7,1.5
		c0,0.5,0.1,0.9,0.4,1.2c0.3,0.3,0.8,0.6,1.7,0.9c0.9,0.3,2.2,0.6,3.9,0.9c3.1,0.5,5.4,1.5,6.8,2.9c1.4,1.4,2.1,3,2.1,4.8
		c0,2.4-1.1,4.3-3.2,5.7c-2.1,1.4-5.1,2.1-8.8,2.1C142.9,46,140.8,45.6,139,44.9z"/>
</g>
<g>
	<g>
		<path d="M38.1,106.1c-0.1-0.1-0.2-0.3-0.2-0.5V87.4c0-0.2,0.1-0.4,0.2-0.5c0.1-0.1,0.3-0.2,0.5-0.2h6.8c2.1,0,3.8,0.5,5,1.5
			c1.2,1,1.8,2.5,1.8,4.4c0,1.4-0.4,2.6-1.1,3.5c-0.7,0.9-1.7,1.5-3,1.9l4.3,7.4c0.1,0.1,0.1,0.2,0.1,0.3c0,0.1-0.1,0.3-0.2,0.4
			c-0.1,0.1-0.3,0.2-0.4,0.2h-1.3c-0.3,0-0.5-0.1-0.7-0.2c-0.2-0.1-0.3-0.3-0.4-0.6l-4.1-7.1h-4.9v7.2c0,0.2-0.1,0.3-0.2,0.5
			c-0.1,0.1-0.3,0.2-0.5,0.2h-1.4C38.4,106.3,38.2,106.2,38.1,106.1z M45.3,96c2.8,0,4.2-1.2,4.2-3.5c0-2.3-1.4-3.5-4.2-3.5h-4.6v7
			H45.3z"/>
		<path d="M55.8,88.8c-0.1-0.1-0.2-0.3-0.2-0.5v-1.5c0-0.2,0.1-0.3,0.2-0.5c0.1-0.1,0.3-0.2,0.5-0.2h1.8c0.2,0,0.3,0.1,0.5,0.2
			c0.1,0.1,0.2,0.3,0.2,0.5v1.5c0,0.2-0.1,0.3-0.2,0.5c-0.1,0.1-0.3,0.2-0.5,0.2h-1.8C56.1,89,56,88.9,55.8,88.8z M56.1,106.1
			c-0.1-0.1-0.2-0.3-0.2-0.5V92.4c0-0.2,0.1-0.3,0.2-0.5s0.3-0.2,0.5-0.2h1.3c0.2,0,0.3,0.1,0.5,0.2c0.1,0.1,0.2,0.3,0.2,0.5v13.3
			c0,0.2-0.1,0.3-0.2,0.5c-0.1,0.1-0.3,0.2-0.5,0.2h-1.3C56.3,106.3,56.2,106.2,56.1,106.1z"/>
		<path d="M64.9,111.7c-0.9-0.5-1.6-1.1-2-1.8c-0.4-0.7-0.6-1.2-0.6-1.8c0-0.2,0-0.3,0.2-0.5c0.1-0.1,0.3-0.2,0.5-0.2h1.3
			c0.2,0,0.3,0,0.4,0.1c0.1,0.1,0.2,0.2,0.3,0.5c0.2,0.6,0.6,1.1,1.1,1.6s1.3,0.7,2.4,0.7c1.4,0,2.4-0.3,3.1-0.9
			c0.7-0.6,1-1.6,1-3.1v-1.9c-0.5,0.6-1.1,1.1-1.8,1.5c-0.7,0.4-1.6,0.5-2.7,0.5c-2,0-3.5-0.6-4.4-1.9c-1-1.3-1.5-2.9-1.6-4.8l0-0.8
			l0-0.8c0.1-1.9,0.6-3.5,1.6-4.8s2.5-1.9,4.4-1.9s3.5,0.7,4.6,2.2v-1.2c0-0.2,0.1-0.3,0.2-0.5c0.1-0.1,0.3-0.2,0.5-0.2h1.3
			c0.2,0,0.3,0.1,0.5,0.2c0.1,0.1,0.2,0.3,0.2,0.5V106c0,4.3-2.2,6.5-6.6,6.5C67.1,112.4,65.9,112.2,64.9,111.7z M71.4,102.9
			c0.7-0.8,1-1.8,1.1-3c0-0.2,0-0.5,0-1c0-0.5,0-0.8,0-1c-0.1-1.2-0.4-2.2-1-3c-0.6-0.8-1.6-1.3-2.9-1.3c-1.3,0-2.3,0.4-2.9,1.2
			s-0.9,1.9-1,3.2l0,0.7l0,0.8c0.1,1.3,0.4,2.4,1,3.2c0.6,0.8,1.6,1.2,2.9,1.2C69.8,104.2,70.8,103.7,71.4,102.9z"/>
		<path d="M79.6,106.1c-0.1-0.1-0.2-0.3-0.2-0.5V87c0-0.2,0.1-0.3,0.2-0.5c0.1-0.1,0.3-0.2,0.5-0.2h1.4c0.2,0,0.3,0.1,0.5,0.2
			c0.1,0.1,0.2,0.3,0.2,0.5v6.5c0.5-0.7,1.2-1.2,1.9-1.6c0.7-0.4,1.6-0.5,2.7-0.5c1.8,0,3.2,0.6,4.2,1.7c1,1.1,1.5,2.7,1.5,4.6v7.9
			c0,0.2-0.1,0.3-0.2,0.5c-0.1,0.1-0.3,0.2-0.5,0.2h-1.4c-0.2,0-0.3-0.1-0.5-0.2s-0.2-0.3-0.2-0.5v-7.8c0-1.3-0.3-2.4-1-3.1
			c-0.6-0.7-1.6-1.1-2.8-1.1c-1.2,0-2.1,0.4-2.8,1.1s-1,1.8-1,3.1v7.8c0,0.2-0.1,0.3-0.2,0.5c-0.1,0.1-0.3,0.2-0.5,0.2H80
			C79.9,106.3,79.7,106.2,79.6,106.1z"/>
		<path d="M97.5,101.4V94h-2.2c-0.2,0-0.3-0.1-0.5-0.2c-0.1-0.1-0.2-0.3-0.2-0.5v-1c0-0.2,0.1-0.3,0.2-0.5c0.1-0.1,0.3-0.2,0.5-0.2
			h2.2V87c0-0.2,0.1-0.3,0.2-0.5c0.1-0.1,0.3-0.2,0.5-0.2h1.3c0.2,0,0.3,0.1,0.5,0.2c0.1,0.1,0.2,0.3,0.2,0.5v4.7h3.5
			c0.2,0,0.3,0.1,0.5,0.2c0.1,0.1,0.2,0.3,0.2,0.5v1c0,0.2-0.1,0.3-0.2,0.5c-0.1,0.1-0.3,0.2-0.5,0.2h-3.5v7.2
			c0,0.9,0.2,1.6,0.5,2.1c0.3,0.5,0.8,0.7,1.6,0.7h1.7c0.2,0,0.3,0.1,0.5,0.2c0.1,0.1,0.2,0.3,0.2,0.5v1c0,0.2-0.1,0.3-0.2,0.5
			c-0.1,0.1-0.3,0.2-0.5,0.2h-1.9C99,106.3,97.5,104.6,97.5,101.4z"/>
		<path d="M108.4,104.8c-1.1-1.2-1.8-2.8-1.9-4.9l0-1l0-0.9c0.1-2,0.8-3.6,1.9-4.8c1.1-1.2,2.7-1.8,4.5-1.8c2.1,0,3.7,0.7,4.8,2
			c1.1,1.3,1.7,3.1,1.7,5.3v0.5c0,0.2-0.1,0.3-0.2,0.5c-0.1,0.1-0.3,0.2-0.5,0.2h-9.7v0.3c0.1,1.2,0.4,2.2,1.1,3.1
			c0.7,0.8,1.6,1.3,2.7,1.3c0.9,0,1.6-0.2,2.1-0.5c0.5-0.3,1-0.7,1.2-1.1c0.2-0.2,0.3-0.4,0.4-0.4s0.2-0.1,0.5-0.1h1.4
			c0.2,0,0.3,0,0.4,0.1c0.1,0.1,0.2,0.2,0.2,0.4c0,0.4-0.3,0.9-0.8,1.5c-0.5,0.6-1.2,1.1-2.2,1.5s-2,0.6-3.2,0.6
			C111.1,106.6,109.5,106,108.4,104.8z M116.8,97.9L116.8,97.9c0-1.4-0.4-2.4-1.1-3.2c-0.7-0.8-1.6-1.2-2.8-1.2s-2.1,0.4-2.8,1.2
			c-0.7,0.8-1,1.9-1,3.2v0.1H116.8z"/>
		<path d="M124,104.8c-1.1-1.2-1.7-2.7-1.8-4.6l0-1.2l0-1.2c0.1-1.9,0.7-3.4,1.8-4.6c1.1-1.2,2.7-1.8,4.8-1.8c2,0,3.6,0.6,4.8,1.8
			s1.7,2.7,1.8,4.6c0,0.2,0,0.6,0,1.2c0,0.6,0,1,0,1.2c-0.1,1.9-0.7,3.5-1.8,4.6c-1.1,1.2-2.7,1.7-4.8,1.7
			C126.8,106.6,125.2,106,124,104.8z M131.6,103.3c0.7-0.7,1-1.8,1.1-3.2c0-0.2,0-0.5,0-1.1c0-0.5,0-0.9,0-1.1
			c-0.1-1.4-0.4-2.5-1.1-3.2c-0.7-0.7-1.6-1.1-2.8-1.1s-2.1,0.4-2.8,1.1c-0.7,0.7-1.1,1.8-1.1,3.2l0,1.1l0,1.1
			c0,1.4,0.4,2.5,1.1,3.2c0.7,0.7,1.6,1.1,2.8,1.1S130.9,104,131.6,103.3z"/>
		<path d="M140.2,104.8c-1-1.1-1.5-2.7-1.5-4.6v-7.9c0-0.2,0.1-0.3,0.2-0.5c0.1-0.1,0.3-0.2,0.5-0.2h1.4c0.2,0,0.3,0.1,0.5,0.2
			c0.1,0.1,0.2,0.3,0.2,0.5v7.8c0,2.8,1.2,4.2,3.6,4.2c1.2,0,2.1-0.4,2.8-1.1s1-1.8,1-3.1v-7.8c0-0.2,0.1-0.3,0.2-0.5
			c0.1-0.1,0.3-0.2,0.5-0.2h1.4c0.2,0,0.3,0.1,0.4,0.2s0.2,0.3,0.2,0.5v13.3c0,0.2-0.1,0.3-0.2,0.5s-0.3,0.2-0.4,0.2h-1.3
			c-0.2,0-0.3-0.1-0.5-0.2c-0.1-0.1-0.2-0.3-0.2-0.5v-1.2c-0.5,0.7-1.2,1.2-1.9,1.6c-0.7,0.4-1.7,0.5-2.8,0.5
			C142.6,106.6,141.2,106,140.2,104.8z"/>
		<path d="M157.5,105.9c-0.9-0.4-1.5-0.9-2-1.4c-0.4-0.5-0.7-1-0.7-1.3c0-0.2,0.1-0.3,0.2-0.4c0.1-0.1,0.3-0.2,0.4-0.2h1.3
			c0.2,0,0.4,0.1,0.5,0.3c0.4,0.5,0.9,0.9,1.5,1.2s1.2,0.4,2.1,0.4c1,0,1.8-0.2,2.4-0.6s0.9-0.9,0.9-1.6c0-0.4-0.1-0.8-0.4-1.1
			c-0.3-0.3-0.7-0.5-1.3-0.8c-0.6-0.2-1.5-0.5-2.7-0.7c-1.6-0.4-2.8-0.9-3.5-1.5s-1-1.5-1-2.6c0-0.7,0.2-1.4,0.6-2
			c0.4-0.6,1-1.2,1.8-1.6c0.8-0.4,1.8-0.6,2.9-0.6c1.2,0,2.2,0.2,3.1,0.6c0.8,0.4,1.5,0.9,1.9,1.4s0.6,1,0.6,1.3
			c0,0.2-0.1,0.3-0.2,0.4c-0.1,0.1-0.3,0.2-0.4,0.2h-1.2c-0.2,0-0.4-0.1-0.6-0.3c-0.3-0.4-0.6-0.6-0.8-0.8c-0.2-0.2-0.5-0.4-0.9-0.5
			c-0.4-0.1-0.9-0.2-1.5-0.2c-0.9,0-1.6,0.2-2.1,0.6c-0.5,0.4-0.7,0.9-0.7,1.5c0,0.4,0.1,0.7,0.3,1c0.2,0.3,0.6,0.5,1.2,0.7
			c0.6,0.2,1.4,0.5,2.6,0.7c1.8,0.4,3,0.9,3.8,1.6s1.1,1.6,1.1,2.7c0,0.8-0.2,1.5-0.7,2.2c-0.5,0.7-1.2,1.2-2.1,1.5s-2,0.6-3.2,0.6
			C159.5,106.6,158.4,106.4,157.5,105.9z"/>
	</g>
</g>
<g>
	<g>
		<path d="M818,335.7c-0.1-0.1-0.2-0.3-0.2-0.5V317c0-0.2,0.1-0.4,0.2-0.5c0.1-0.1,0.3-0.2,0.5-0.2h6.8c2.1,0,3.8,0.5,5,1.5
			c1.2,1,1.8,2.5,1.8,4.4c0,1.4-0.4,2.6-1.1,3.5c-0.7,0.9-1.7,1.5-3,1.9l4.3,7.4c0.1,0.1,0.1,0.2,0.1,0.3c0,0.1-0.1,0.3-0.2,0.4
			c-0.1,0.1-0.3,0.2-0.4,0.2h-1.3c-0.3,0-0.5-0.1-0.7-0.2c-0.2-0.1-0.3-0.3-0.4-0.6l-4.1-7.1h-4.9v7.2c0,0.2-0.1,0.3-0.2,0.5
			c-0.1,0.1-0.3,0.2-0.5,0.2h-1.4C818.2,335.9,818.1,335.9,818,335.7z M825.1,325.7c2.8,0,4.2-1.2,4.2-3.5c0-2.3-1.4-3.5-4.2-3.5
			h-4.6v7H825.1z"/>
		<path d="M836.8,334.5c-1.1-1.2-1.7-2.7-1.8-4.6l0-1.2l0-1.2c0.1-1.9,0.7-3.4,1.8-4.6c1.1-1.2,2.7-1.8,4.8-1.8c2,0,3.6,0.6,4.8,1.8
			s1.7,2.7,1.8,4.6c0,0.2,0,0.6,0,1.2c0,0.6,0,1,0,1.2c-0.1,1.9-0.7,3.5-1.8,4.6c-1.1,1.2-2.7,1.7-4.8,1.7
			C839.5,336.2,837.9,335.6,836.8,334.5z M844.3,332.9c0.7-0.7,1-1.8,1.1-3.2c0-0.2,0-0.5,0-1.1c0-0.5,0-0.9,0-1.1
			c-0.1-1.4-0.4-2.5-1.1-3.2c-0.7-0.7-1.6-1.1-2.8-1.1s-2.1,0.4-2.8,1.1c-0.7,0.7-1.1,1.8-1.1,3.2l0,1.1l0,1.1
			c0,1.4,0.4,2.5,1.1,3.2c0.7,0.7,1.6,1.1,2.8,1.1S843.7,333.7,844.3,332.9z"/>
		<path d="M854.3,334.1v1.2c0,0.2-0.1,0.3-0.2,0.5c-0.1,0.1-0.3,0.2-0.5,0.2h-1.3c-0.2,0-0.3-0.1-0.5-0.2c-0.1-0.1-0.2-0.3-0.2-0.5
			v-18.6c0-0.2,0.1-0.3,0.2-0.5c0.1-0.1,0.3-0.2,0.5-0.2h1.4c0.2,0,0.3,0.1,0.4,0.2c0.1,0.1,0.2,0.3,0.2,0.5v6.4
			c1.1-1.4,2.6-2,4.5-2c1.9,0,3.4,0.6,4.4,1.9s1.5,2.9,1.6,4.8c0,0.2,0,0.5,0,0.8c0,0.4,0,0.6,0,0.8c-0.1,1.9-0.6,3.5-1.6,4.8
			s-2.5,1.9-4.4,1.9C856.8,336.2,855.3,335.5,854.3,334.1z M861.2,332.7c0.6-0.8,0.9-1.9,1-3.2c0-0.2,0-0.5,0-0.8
			c0-3.5-1.3-5.3-3.9-5.3c-1.3,0-2.2,0.4-2.9,1.2s-1,1.8-1.1,2.9l0,1.1l0,1.1c0.1,1.2,0.4,2.2,1,3c0.6,0.8,1.6,1.3,2.9,1.3
			C859.6,333.9,860.6,333.5,861.2,332.7z"/>
		<path d="M869.5,334.5c-1.1-1.2-1.7-2.7-1.8-4.6l0-1.2l0-1.2c0.1-1.9,0.7-3.4,1.8-4.6c1.1-1.2,2.7-1.8,4.8-1.8c2,0,3.6,0.6,4.8,1.8
			s1.7,2.7,1.8,4.6c0,0.2,0,0.6,0,1.2c0,0.6,0,1,0,1.2c-0.1,1.9-0.7,3.5-1.8,4.6c-1.1,1.2-2.7,1.7-4.8,1.7
			C872.2,336.2,870.6,335.6,869.5,334.5z M877.1,332.9c0.7-0.7,1-1.8,1.1-3.2c0-0.2,0-0.5,0-1.1c0-0.5,0-0.9,0-1.1
			c-0.1-1.4-0.4-2.5-1.1-3.2c-0.7-0.7-1.6-1.1-2.8-1.1s-2.1,0.4-2.8,1.1c-0.7,0.7-1.1,1.8-1.1,3.2l0,1.1l0,1.1
			c0,1.4,0.4,2.5,1.1,3.2c0.7,0.7,1.6,1.1,2.8,1.1S876.4,333.7,877.1,332.9z"/>
		<path d="M885.5,331v-7.4h-2.2c-0.2,0-0.3-0.1-0.5-0.2c-0.1-0.1-0.2-0.3-0.2-0.5v-1c0-0.2,0.1-0.3,0.2-0.5c0.1-0.1,0.3-0.2,0.5-0.2
			h2.2v-4.7c0-0.2,0.1-0.3,0.2-0.5c0.1-0.1,0.3-0.2,0.5-0.2h1.3c0.2,0,0.3,0.1,0.5,0.2c0.1,0.1,0.2,0.3,0.2,0.5v4.7h3.5
			c0.2,0,0.3,0.1,0.5,0.2c0.1,0.1,0.2,0.3,0.2,0.5v1c0,0.2-0.1,0.3-0.2,0.5c-0.1,0.1-0.3,0.2-0.5,0.2h-3.5v7.2
			c0,0.9,0.2,1.6,0.5,2.1c0.3,0.5,0.8,0.7,1.6,0.7h1.7c0.2,0,0.3,0.1,0.5,0.2c0.1,0.1,0.2,0.3,0.2,0.5v1c0,0.2-0.1,0.3-0.2,0.5
			c-0.1,0.1-0.3,0.2-0.5,0.2h-1.9C887,335.9,885.5,334.3,885.5,331z"/>
		<path d="M896.4,334.5c-1.1-1.2-1.7-2.7-1.8-4.6l0-1.2l0-1.2c0.1-1.9,0.7-3.4,1.8-4.6c1.1-1.2,2.7-1.8,4.8-1.8c2,0,3.6,0.6,4.8,1.8
			s1.7,2.7,1.8,4.6c0,0.2,0,0.6,0,1.2c0,0.6,0,1,0,1.2c-0.1,1.9-0.7,3.5-1.8,4.6c-1.1,1.2-2.7,1.7-4.8,1.7
			C899.1,336.2,897.5,335.6,896.4,334.5z M904,332.9c0.7-0.7,1-1.8,1.1-3.2c0-0.2,0-0.5,0-1.1c0-0.5,0-0.9,0-1.1
			c-0.1-1.4-0.4-2.5-1.1-3.2c-0.7-0.7-1.6-1.1-2.8-1.1s-2.1,0.4-2.8,1.1c-0.7,0.7-1.1,1.8-1.1,3.2l0,1.1l0,1.1
			c0,1.4,0.4,2.5,1.1,3.2c0.7,0.7,1.6,1.1,2.8,1.1S903.3,333.7,904,332.9z"/>
		<path d="M919.9,335.6c-0.9-0.4-1.5-0.9-2-1.4c-0.4-0.5-0.7-1-0.7-1.3c0-0.2,0.1-0.3,0.2-0.4c0.1-0.1,0.3-0.2,0.4-0.2h1.3
			c0.2,0,0.4,0.1,0.5,0.3c0.4,0.5,0.9,0.9,1.5,1.2s1.2,0.4,2.1,0.4c1,0,1.8-0.2,2.4-0.6s0.9-0.9,0.9-1.6c0-0.4-0.1-0.8-0.4-1.1
			c-0.3-0.3-0.7-0.5-1.3-0.8c-0.6-0.2-1.5-0.5-2.7-0.7c-1.6-0.4-2.8-0.9-3.5-1.5s-1-1.5-1-2.6c0-0.7,0.2-1.4,0.6-2
			c0.4-0.6,1-1.2,1.8-1.6c0.8-0.4,1.8-0.6,2.9-0.6c1.2,0,2.2,0.2,3.1,0.6c0.8,0.4,1.5,0.9,1.9,1.4s0.6,1,0.6,1.3
			c0,0.2-0.1,0.3-0.2,0.4c-0.1,0.1-0.3,0.2-0.4,0.2h-1.2c-0.2,0-0.4-0.1-0.6-0.3c-0.3-0.4-0.6-0.6-0.8-0.8c-0.2-0.2-0.5-0.4-0.9-0.5
			c-0.4-0.1-0.9-0.2-1.5-0.2c-0.9,0-1.6,0.2-2.1,0.6c-0.5,0.4-0.7,0.9-0.7,1.5c0,0.4,0.1,0.7,0.3,1c0.2,0.3,0.6,0.5,1.2,0.7
			c0.6,0.2,1.4,0.5,2.6,0.7c1.8,0.4,3,0.9,3.8,1.6s1.1,1.6,1.1,2.7c0,0.8-0.2,1.5-0.7,2.2c-0.5,0.7-1.2,1.2-2.1,1.5s-2,0.6-3.2,0.6
			C921.9,336.2,920.8,336,919.9,335.6z"/>
		<path d="M932.6,335.7c-0.1-0.1-0.2-0.3-0.2-0.5v-18.6c0-0.2,0.1-0.3,0.2-0.5c0.1-0.1,0.3-0.2,0.5-0.2h1.3c0.2,0,0.3,0.1,0.5,0.2
			c0.1,0.1,0.2,0.3,0.2,0.5v18.6c0,0.2-0.1,0.3-0.2,0.5c-0.1,0.1-0.3,0.2-0.5,0.2h-1.3C932.9,335.9,932.7,335.9,932.6,335.7z"/>
		<path d="M940.7,335.6c-0.8-0.4-1.4-0.9-1.9-1.5c-0.5-0.6-0.7-1.4-0.7-2.1c0-1.2,0.5-2.2,1.5-3c1-0.8,2.4-1.3,4.1-1.6l4.2-0.6V326
			c0-1.9-1.1-2.9-3.3-2.9c-0.8,0-1.5,0.2-2,0.5c-0.5,0.3-0.9,0.8-1.2,1.2c-0.1,0.2-0.1,0.3-0.2,0.4c-0.1,0.1-0.2,0.1-0.3,0.1h-1.2
			c-0.2,0-0.3-0.1-0.4-0.2c-0.1-0.1-0.2-0.3-0.2-0.4c0-0.4,0.2-1,0.6-1.5c0.4-0.6,1-1.1,1.9-1.5s1.9-0.6,3.1-0.6
			c2.1,0,3.6,0.5,4.5,1.5c0.9,1,1.4,2.2,1.4,3.7v9.1c0,0.2-0.1,0.3-0.2,0.5c-0.1,0.1-0.3,0.2-0.5,0.2h-1.3c-0.2,0-0.3-0.1-0.5-0.2
			c-0.1-0.1-0.2-0.3-0.2-0.5v-1.2c-0.4,0.6-1,1.1-1.8,1.5s-1.8,0.6-3,0.6C942.4,336.2,941.5,336,940.7,335.6z M946.9,332.9
			c0.8-0.8,1.2-1.9,1.2-3.4v-0.8l-3.2,0.5c-1.3,0.2-2.3,0.5-3,0.9s-1,1-1,1.7c0,0.7,0.3,1.3,0.9,1.7s1.3,0.6,2.2,0.6
			C945.1,334.1,946.1,333.7,946.9,332.9z"/>
		<path d="M957.3,334.1v1.2c0,0.2-0.1,0.3-0.2,0.5c-0.1,0.1-0.3,0.2-0.5,0.2h-1.3c-0.2,0-0.3-0.1-0.5-0.2c-0.1-0.1-0.2-0.3-0.2-0.5
			v-18.6c0-0.2,0.1-0.3,0.2-0.5c0.1-0.1,0.3-0.2,0.5-0.2h1.4c0.2,0,0.3,0.1,0.4,0.2c0.1,0.1,0.2,0.3,0.2,0.5v6.4
			c1.1-1.4,2.6-2,4.5-2c1.9,0,3.4,0.6,4.4,1.9s1.5,2.9,1.6,4.8c0,0.2,0,0.5,0,0.8c0,0.4,0,0.6,0,0.8c-0.1,1.9-0.6,3.5-1.6,4.8
			s-2.5,1.9-4.4,1.9C959.9,336.2,958.3,335.5,957.3,334.1z M964.2,332.7c0.6-0.8,0.9-1.9,1-3.2c0-0.2,0-0.5,0-0.8
			c0-3.5-1.3-5.3-3.9-5.3c-1.3,0-2.2,0.4-2.9,1.2s-1,1.8-1.1,2.9l0,1.1l0,1.1c0.1,1.2,0.4,2.2,1,3c0.6,0.8,1.6,1.3,2.9,1.3
			C962.6,333.9,963.6,333.5,964.2,332.7z"/>
	</g>
</g>
</svg>
