<svg id="Layer_1" data-name="Layer 1" xmlns="http://www.w3.org/2000/svg" viewBox="0 0 618 636"><defs><style>.cls-1{fill:#00b2ac;}.cls-1,.cls-2,.cls-3,.cls-5,.cls-6{fill-rule:evenodd;}.cls-2,.cls-4{fill:#fff;}.cls-3,.cls-7{fill:#f282b4;}.cls-5{fill:#00160a;}.cls-6{fill:#e7eaee;}</style></defs><path class="cls-1" d="M308.27,70.63C484.85,100.3,608,201.09,608,362c0,192.88-153-7.53-258.48,104.93S19.29,582.59,8.53,362C-1.53,155.53,131.68,41,308.27,70.63Z"/><path class="cls-2" d="M218,382.45,264.71,322l1.08.85Q276.13,331,282.2,333.6l1.19.51c19.43,8.17,32.78,10.94,30.63,12.86l-2.65,2.39q-25.75,23.25-70.51,67.6a25.6,25.6,0,0,1-15.54,8l-6.16.74c-60.4,7.15-99.15,7.77-113.35,4.62-3-.66-12.1,1.06-19,8-10.34,10.39-25.12,35.4-27.61,35.4q-5.4,0,10.21-49.7l1.1-3.85Q77.8,394.9,81,390.3q3.42-4.95,23.16,17.46l-.36,1.94q2.56-3,6.08-6.32l6.22-.75q32.94-4,50.08-7.31l1.2-.24Q185.94,391.41,218,382.45Z"/><path class="cls-2" d="M508.89,319.85l17.37,13.09a19.62,19.62,0,0,1,7,10l3.29,11a6.87,6.87,0,0,1-3.07,9l-6.14,4.55a6.85,6.85,0,0,1-9.79-4.49l-3.45-12.28s-14.64-4.45-16.59-21.87Z"/><path class="cls-2" d="M425.17,104.89c11.87.49,17.84,16.75,21.72,24.79,1.32,2.74-8,83.68-11,104.39-5.41,36.88-21.76,48.58-32,51.09,0,0,.61,41.94-3.69,52.38-9.52,23.1-130,7.59-141.78-31-8-26.41,21.87-29.49,33.1-45.41,20.57-29.18,21.64-56.33,43.8-75.76,8.4-9.21,18.16-18.44,26.57-29.55l3.42-4.51c21.39-28,37.68-46.62,58.78-46.42Z"/><path class="cls-3" d="M365.67,175.05c-2,.95-4.84,1.24-5.87-.68-3.22-6.05-13.06-6.88-17.25-1.46,4-1.38,8.7-2.7,12.29-.43a16.07,16.07,0,0,1,2.72,2.39c1.42,1.46,2.82,2.89,4.78,3.09a8.68,8.68,0,0,0,4.23-1.08c1.48-.66,2.95-1.31,4.5-1,1.71.32,2.91,1.68,4.11,3s2.4,2.72,4.11,3.05a8.07,8.07,0,0,0,4.19-.73c1.56-.55,3.1-1.1,4.6-.56,1.78.64,2.6,2.48,3.42,4.32s1.63,3.67,3.4,4.33a6.15,6.15,0,0,0,3.3,0l1.11-.23a12.34,12.34,0,0,1,7.83.61,6.71,6.71,0,0,1,3.8,5.34c.05-.48.1-1,.14-1.45l.42-2.72a12,12,0,0,0-9.75-4.11c-.63,0-1.25.13-1.88.22a12.06,12.06,0,0,1-3.59.17c-1.81-.27-3.66-1.82-3.35-3.62l0-.2c.33-3-3.73-4.76-6.84-4.51-.67.06-1.34.15-2,.24-2.6.33-5.25.68-7.29-.82a9.93,9.93,0,0,1-2-2.18,6.68,6.68,0,0,0-3-2.66,5.76,5.76,0,0,0-4.3.69l-.47.23Zm-22.61,21c1.36,1.82,4.14.8,6.29,0l.11,0a16.23,16.23,0,0,1,16.93,4c2.31,2.45,5.72,1.76,9.26,1.05,3-.59,6-1.19,8.55,0a16.15,16.15,0,0,1,3.38,2.41c2,1.69,3.9,3.31,6.12,2.39a12.5,12.5,0,0,1,12.8,2.23v1l0,2.12a12.43,12.43,0,0,0-13.23-2.65c-2.23.91-4.14-.71-6.13-2.39a15.79,15.79,0,0,0-3.38-2.41c-2.55-1.19-5.59-.58-8.55,0-3.53.71-6.95,1.39-9.26-1.05a16.22,16.22,0,0,0-16.58-4.12l-1.14.4c-2,.72-4.39,1.38-5.61-.25a14.18,14.18,0,0,0-17.24-4l.74-2.79.34-.16A14.24,14.24,0,0,1,343.06,196.1ZM329.94,219c-2.12.87-4.87,2-6.29.23q-3.88-4.81-17.75-.71c.71.48,2.53.44,4.78.38,4.24-.11,10-.26,12.61,3,1.27,1.58,3.61.84,5.61,0l1.12-.45A16.22,16.22,0,0,1,346.74,225c2.41,2.36,5.8,1.54,9.31.7,2.93-.7,5.94-1.43,8.53-.34a15.9,15.9,0,0,1,3.48,2.28c2.05,1.6,4,3.15,6.21,2.15l.3-.14c2.48-1,7.25.72,11.57,2.32,3.15,1.17,6.05,2.24,7.67,2.08q-15-8.84-19.17-6.93l-.22.09c-2.11.8-4-.69-6-2.24a15.72,15.72,0,0,0-3.47-2.28c-2.59-1.09-5.61-.37-8.54.34-3.51.84-6.9,1.65-9.3-.7A16.2,16.2,0,0,0,330.05,219Zm19.63,97.29c2.54,1.63,5.83,3.74,8.18,2.58q6.22-3.07,22.45,5.45l1,.55c-1.06.2-3.44-.53-6.38-1.43-5.52-1.7-13-4-17.36-1.86-2.11,1-5-.56-7.38-2.07l-1.35-.86c-6.34-3.89-14.91-5.21-21.56-3.37-2.13.89-5.09-.15-8.35-1.29a34.89,34.89,0,0,0-6.89-1.9,18,18,0,0,0-5.62.05,10.62,10.62,0,0,1-4.56-.12,37.27,37.27,0,0,1-8-3.49c-6.48-3.11-17.95-2.73-24-.57l-.32.11c-6.46,2.14-6.41-.2.09-2.64l.49-.18.39-.13c6.89-2.3,19.67-2,26.36,2.24l.13.09c2.54,1.63,5.83,3.74,8.18,2.58l.18-.08c1.64-.67,5.49-.66,6.68-.58l.22,0c4,.44,4.89.8,5.84,1.5l.68.52.39.15c1.46.56,3,1.23,4.62,2a9.42,9.42,0,0,0,2.36-.56l.39-.14c6.9-2.29,16.24-.95,22.93,3.34Zm-29.89-77.06c1.5,1.76,4.41.64,6.65-.23l.11-.05a17.91,17.91,0,0,1,18.06,3.35c2.54,2.35,6.12,1.54,9.84.7,3.1-.71,6.29-1.43,9-.34A16.63,16.63,0,0,1,367,245c2.1,1.55,4.12,3,6.34,2.24l.24-.09q4.38-1.91,20.28,6.93c-1.71.16-4.79-.91-8.11-2.08-4.57-1.6-9.61-3.36-12.24-2.32l-.32.14c-2.32,1-4.4-.55-6.57-2.15a17.08,17.08,0,0,0-3.68-2.28c-2.74-1.09-5.93-.36-9,.34-3.71.84-7.3,1.66-9.84-.7a17.91,17.91,0,0,0-17.69-3.48l-1.19.45c-2.11.8-4.59,1.54-5.94,0-2.78-3.26-8.85-3.11-13.33-3-2.38.06-4.31.1-5.06-.38Q315.57,234.44,319.68,239.26ZM318.15,261c-2.57.87-5.91,2-7.64.23q-4.72-4.81-21.61-.71c.86.48,3.08.44,5.82.38,5.15-.11,12.14-.26,15.34,3,1.55,1.58,4.4.84,6.84,0l1.36-.45c6.84-2.13,15.13-.73,20.36,3.48,2.92,2.36,7.05,1.54,11.32.7,3.56-.7,7.23-1.43,10.39-.34a20.37,20.37,0,0,1,4.22,2.28c2.5,1.6,4.9,3.15,7.57,2.15l.37-.14c3-1,8.82.72,14.08,2.32,3.82,1.17,7.36,2.24,9.33,2.08q-18.28-8.83-23.34-6.93l-.27.09c-2.56.8-4.88-.69-7.29-2.24a19.73,19.73,0,0,0-4.23-2.28c-3.15-1.09-6.82-.37-10.39.34-4.27.84-8.4,1.65-11.32-.7-5.33-4.3-13.86-5.67-20.77-3.35Zm-20,17.23c1.94,1.76,5.69.64,8.58-.23l.15,0c7.75-2.32,17.31-1,23.29,3.35,3.28,2.35,7.91,1.54,12.7.7,4-.71,8.12-1.43,11.66-.34a23.45,23.45,0,0,1,4.74,2.28c2.7,1.55,5.31,3,8.17,2.24l.31-.09q5.67-1.9,26.17,6.93c-2.21.16-6.17-.91-10.47-2.08-5.89-1.6-12.4-3.36-15.79-2.32l-.41.14c-3,1-5.69-.55-8.48-2.15a24,24,0,0,0-4.74-2.28c-3.54-1.09-7.66-.36-11.66.34-4.79.84-9.42,1.66-12.7-.7-5.86-4.21-15.16-5.61-22.82-3.48l-1.53.45c-2.73.8-5.93,1.54-7.67,0-3.59-3.26-11.43-3.11-17.21-3-3.06.06-5.55.1-6.52-.38Q292.83,273.44,298.13,278.26ZM297.71,293c-2.89.87-6.64,2-8.58.23q-5.29-4.81-24.23-.71c1,.48,3.46.44,6.52.38,5.78-.11,13.62-.26,17.21,3,1.74,1.58,4.94.84,7.67,0l1.53-.45c7.17-2,15.77-.89,21.65,2.7,1.8,1.44,4.94,1.26,8.38,1.06a35.56,35.56,0,0,1,7.15.08A17.72,17.72,0,0,1,340.4,301a10.41,10.41,0,0,0,4.42,1.14c2.55.16,8.62-1.15,8.62-1.15,7.08-1.2,18,2.32,23.21,6.06l.29.2c5.75,3.93,6.23,1.45.21-2.87l-.33-.24c-6-4.11-18.35-7.39-26-5.11l-.15,0c-2.89.87-6.64,2-8.58.23-1.35-1.23-5.77-2.43-6.62-2.57-4.51-.77-5.12-.53-6.49,0l-.34.13-.42,0c-1.55.14-3.21.36-5,.65a9.37,9.37,0,0,1-2.12-1.19l-.33-.24c-6-4.11-15.35-5.39-23-3.11Z"/><path class="cls-2" d="M421.35,117.07a29.24,29.24,0,0,1,29,31.22s-19.68,85.59-9.71,116c3.86,11.77,59.56,48.39,57.2,52.16L490,335.29c-2.79,4.45-88.28-52.73-88.28-52.73-8.2-6.51-9.72-135.95-9.72-135.95A29.23,29.23,0,0,1,421.35,117.07Z"/><path class="cls-4" d="M509.9,319.85l-10,20.69-.2.55c-.83,2.15-4,3.46-4.44,3.56h-.06l-5.93-3.51c-.68-.57-1.06-3.77-.34-6.75l.17-.63s4.71-16.52,8.6-20.69C499.92,310.64,513,313.07,509.9,319.85Z"/><path class="cls-2" d="M366.78,510.63h-24s28.15-73.08,28.15-92.26c0-5.95-22.12,3-18.91-5.95C356.44,400.1,371.71,378.07,368,367c-3.93-11.57-18.61-15.76-31.39-20.45-2.45-.89,42.22,2.21,54.48-7.54,16.16-12.85,3-41.24,7.38-31.23,5.23,12.07,39.26,42.37,32.51,75.18C424.36,414.93,366.78,510.63,366.78,510.63Z"/><path class="cls-3" d="M358.46,524.72l-2.55-.84a.11.11,0,0,1,0-.19l2.44-1.32v-3a.1.1,0,0,1,.17-.07l2,1.77,3.35-1.76a.09.09,0,0,1,.13.13l-1.89,3.46,3.59,3.75a.1.1,0,0,1-.1.17l-4.95-1.43-2,3.51a.1.1,0,0,1-.19,0v-4.1Z"/><path class="cls-5" d="M297.66,363.44q-1.56,1.62-3.1,3.27h0c-1.95,2.07-3.9,4.14-5.93,6.13-3.8,3.72-7.65,7.41-11.68,10.87q-7.51,6.44-15.38,12.44c-5.94,4.52-12,8.85-18.12,13.14l-.51.36-.45.32h0c-3.12,2.2-6.23,4.41-10.23,5.1a11,11,0,0,0-3.29,1.34,14.6,14.6,0,0,1-2.62,1.19c-6.24,1.9-12.52,3.7-18.83,5.33-3.87,1-7.83,1.72-11.78,2.41-2.46.43-16.53,2.67-25.89,4s-40.33,1.36-48.06,1.2c-4.34-.09-8.68-.24-13-.4h-.23a6.94,6.94,0,0,1-2.59-.42c-4.26-1.92-7.55.18-10.89,2.31l-.24.15c-4.38,2.79-7.07,7-9.72,11.3-1.41,2.28-2.9,4.52-4.39,6.75h0c-1.61,2.41-3.21,4.81-4.72,7.28-2,3.27-3.75,6.67-5.53,10.07-.31.61-.63,1.22-.95,1.83a14.63,14.63,0,0,1-10.89,8c-2.51.48-4.65-.27-6.79-1h0c-.79-.27-1.59-.55-2.4-.76-1.58-.41-2.86-4.7-2.29-6.39l5-14.84h0q5.19-15.49,10.33-31c2.4-7.22,4.73-14.46,7.07-21.71.66-2,1.31-4.09,2-6.13.32-1,.62-2,.92-2.93h0c.49-1.62,1-3.24,1.55-4.84a2.13,2.13,0,0,1,1.48-1.19,25.73,25.73,0,0,1,10.85,2.19A31.67,31.67,0,0,1,101.47,402c1,1.6,2.68,2.17,4.83,1.79,1-.18,2.08-.32,3.12-.46h0a47.52,47.52,0,0,0,4.75-.79,46.73,46.73,0,0,1,10.48-.88c2.26,0,4.52,0,6.76-.27,1.55-.16,3.1-.25,4.65-.33h0c2.08-.13,4.15-.25,6.2-.53,3.73-.51,7.44-1.16,11.15-1.81l5.28-.9c1.42-.24,2.85-.46,4.28-.68h0c2.75-.44,5.5-.87,8.24-1.39,3.5-.67,7-1.49,10.44-2.31h0l1.22-.29c3.67-.86,7.33-1.75,11-2.64l4.61-1.12.5-.13.23-.06-.25-.13h0l-.53-.29c-.54-.33-1.08-.64-1.63-.95a21.27,21.27,0,0,1-3.58-2.35,3.67,3.67,0,0,1,1.47-6.46,32.77,32.77,0,0,1,7.12-1.57,33,33,0,0,0,9.13-2.36c1.18-.43,2.37-.87,3.57-1.24a9.86,9.86,0,0,0,6-5.12,16.36,16.36,0,0,1,2.7-3.33,24.38,24.38,0,0,0,2-2.29q4.71-6.3,9.17-12.79a26.23,26.23,0,0,0,1.65-2.93c.39-.77.78-1.54,1.22-2.27a39.75,39.75,0,0,1,3.4-5l.17-.2h0c3-3.51,5.92-7,9.14-10.29a74,74,0,0,1,5.62-5c.92-.75,1.83-1.5,2.73-2.28a10.8,10.8,0,0,0,1.26-1.27c.66-.79.92-1.45-.06-2.38l-.77-.73c-2.57-2.42-5.17-4.86-6.57-8.21l-.45-1.05a49.4,49.4,0,0,1-2.91-8.14,22.17,22.17,0,0,1,.61-11.35,21.47,21.47,0,0,1,9.28-12.18c2.74-1.78,5.62-3.33,8.5-4.88h0c2.14-1.15,4.28-2.3,6.35-3.54a22.75,22.75,0,0,0,4.33-3.72l.13-.14.25-.25c6-6.11,10.25-13.5,14.44-20.87h0c.44-.78.88-1.56,1.33-2.34,4-7.07,7.69-14.39,11.32-21.69,1-2.11,1.93-4.28,2.83-6.46h0c.79-1.93,1.58-3.86,2.48-5.73a41.55,41.55,0,0,1,2.45-4.29c.64-1,1.28-2.06,1.85-3.13s1.19-2.32,1.75-3.49a54,54,0,0,1,2.76-5.22,15.89,15.89,0,0,1,2.89-3.15h0c.45-.41.9-.82,1.32-1.24s1.07-1,1.61-1.57,1.13-1.08,1.68-1.64c1-1,1.94-2,2.87-3,1.78-1.94,3.58-3.87,5.38-5.8h0c4.45-4.78,8.9-9.56,13.2-14.46,5-5.76,9.83-11.74,14.54-17.76,1.87-2.4,3.56-4.94,5.25-7.49h0c.75-1.13,1.5-2.26,2.27-3.38l.06-.11,0,0,0-.06h0a1,1,0,0,1,.18-.28l3.63-4h0c2.83-3.19,5.66-6.37,8.66-9.39a67.79,67.79,0,0,1,15.07-11.29c.85-.47,1.66-1,2.47-1.54a25.91,25.91,0,0,1,3.94-2.27l1-.42c2.65-1.14,5.43-2.34,8.17-2.39,5.77-.12,11.77,0,16.62,4,.92.77,1.16.59,1.25-.45s.25-2,.42-3c.39-2.37.78-4.74.1-6.75a17.29,17.29,0,0,1-.7-3.65,14.88,14.88,0,0,0-.86-4c-1.82-4.39-3.44-8.87-5.06-13.34h0v0l-.36-1-.36-1a20.25,20.25,0,0,1-1.11-4.33c-.13-1-.18-2.11-.22-3.17h0c-.05-1.09-.09-2.18-.24-3.25-.51-3.83.82-7.19,2.15-10.57h0c.25-.62.49-1.24.72-1.85C429,40,434.27,34.31,440,28.94c4.93-4.62,13.1-6.07,19.71-7.21,2.44-.42,19.56-.82,28.6-1h0l5.48-.14a7.37,7.37,0,0,0,4.2-1.81c2.5-1.84,3.14-4.69,3.77-7.5l.18-.83c0-.06,0-.13.05-.19h0c.16-.74.28-1.25,1.38-1.22,3.69.13,5.59,2.54,7.4,5.29a25.17,25.17,0,0,1,4.25,10c.69,4.51.32,8.69-2.88,12.4A33.4,33.4,0,0,1,503.07,44a2.33,2.33,0,0,0-.49,2.19c2.58,6,2.77,12.23,2.52,18.53a37.66,37.66,0,0,1-.56,4.58h0a39.7,39.7,0,0,0-.54,4.33,26.61,26.61,0,0,0,2.29,12c1.14,2.62.34,5.11-1.56,7.17a7,7,0,0,1-1.13.94,4.88,4.88,0,0,0-1.44,1.38,10.46,10.46,0,0,0-1.34,4.21,17.88,17.88,0,0,0,.15,3.34h0c.07.69.15,1.39.17,2.09a13,13,0,0,1-2.3,7.24c-2.48,4.14-5.76,7.18-10.51,8.17a23,23,0,0,1-12.25-.44,98.06,98.06,0,0,1-13-5.62A11.07,11.07,0,0,1,460,111.3c-.43-.49-.85-1-1.3-1.43-.65-.66-1-.85-1.86.07a38.58,38.58,0,0,0-7.23,11.23c-1,2.29-.36,4.17.34,6.18l.08.23.1.28.1.3c1,2.77,1.94,5.54,1.86,8.58,0,1.5,0,3,0,4.52a65.31,65.31,0,0,1-.12,7.14,57.22,57.22,0,0,1-1.37,7.51h0c-.23,1-.45,2-.66,3s-.43,2.13-.65,3.2h0c-.65,3.23-1.29,6.46-2.07,9.66-.36,1.49-.85,2.93-1.34,4.38-.41,1.19-.81,2.38-1.14,3.58-.38,1.4-.77,2.79-1.16,4.19h0c-1.51,5.43-3,10.86-4.24,16.36a100.24,100.24,0,0,0-2,14.36c-.22,3-.18,6-.15,9.06h0c0,1.67,0,3.35,0,5,0,1.27-.08,2.53-.15,3.79h0c-.08,1.6-.16,3.21-.15,4.81v1.92h0c0,4.24.06,8.49.43,12.71a96.61,96.61,0,0,0,2.09,12.51c.76,3.39,3.08,6,5.39,8.47a50.32,50.32,0,0,0,3.86,3.58h0c.93.8,1.86,1.61,2.74,2.46a21.68,21.68,0,0,1,1.7,1.88h0a18,18,0,0,0,2.16,2.29c2.59,2.2,5.22,4.35,7.85,6.5,2,1.64,4,3.27,6,4.92,1.78,1.48,3.53,3,5.28,4.51h0c1.76,1.53,3.53,3.06,5.32,4.55,2.45,2.05,4.94,4.07,7.54,5.93,1.22.87,2.5,1.67,3.78,2.46s2.65,1.64,3.91,2.55c1.51,1.09,2.69.48,3.85-.14a8.87,8.87,0,0,1,1.22-.56c3.36-1.13,6-.7,7.29,2.53a9.61,9.61,0,0,0,1,1.82,5.92,5.92,0,0,1,1.36,3.65c0,.47,1,1,1.87,1.51l.32.18.26.15c2.57,1.51,5.16,3,7.75,4.43.56.31,1.13.6,1.7.88a18.94,18.94,0,0,1,3.16,1.82,29.2,29.2,0,0,1,2.74,2.48,30.74,30.74,0,0,0,2.76,2.48,16.64,16.64,0,0,1,4.28,5.77c.42.78.84,1.55,1.29,2.29a19.89,19.89,0,0,1,2.42,7,57.1,57.1,0,0,1,.78,9.86,8.72,8.72,0,0,1-1.6,4.08c-.83,1.34-2.06,1.53-3.26.24a1.1,1.1,0,0,0-.37-.25h0l0,0-.12-.07-.09.77c-.08.55-.14,1.11-.2,1.66a23.46,23.46,0,0,1-.68,4.05,3.27,3.27,0,0,1-2.16,2.06c-.59,0-1.22-.53-1.84-1.07h0c-.25-.22-.5-.44-.75-.62a4.22,4.22,0,0,1-.64-.63l-.06-.07c-.18-.2-.33-.43-.5-.65l-.1.22v0l-.06.13-.09.19c0,.07-.07.13-.1.2a1.63,1.63,0,0,0-.11.23c-.07.15-.13.3-.2.46h0a4,4,0,0,1-.82,1.42,2.34,2.34,0,0,1-4-1.11c-.31-1-.57-2.06-.84-3.09a44.15,44.15,0,0,0-1.22-4.26c-.21-.57-.38-1.15-.55-1.73a10.66,10.66,0,0,0-2.4-4.85,12.59,12.59,0,0,1-2.25-3.88c-.24-.56-.48-1.11-.74-1.63a16.38,16.38,0,0,0-7.19-6.93,13.62,13.62,0,0,1-2.34-1.56c-1.58-1.34-2.67-.61-3.63.76a5,5,0,0,1-6.66,1.79c-3.75-2-6.81-4.61-7.83-9.09-.18-.82-1.41-1.56-2.3-2.06q-4.05-2.28-8.13-4.51h0c-4.5-2.47-9-4.94-13.42-7.54-5.52-3.25-10.89-6.75-16.27-10.24h0l-1.62-1.06q-12.72-8.25-25.36-16.61l-5-3.25c-1.85-1.22-3.69-2.46-5.53-3.7L404,285.92a12.11,12.11,0,0,0-1.61-.91c-1.67-.79-2.16-.5-2.29,1.28a1.34,1.34,0,0,0,0,.2c0,2.49-.07,5-.11,7.48q-.13,10.38-.29,20.75c0,2.2,1.12,3.89,2.26,5.56.23.34.46.67.68,1q6,9.33,12.25,18.52c1.13,1.68,2.31,3.34,3.48,5h0c1.78,2.5,3.55,5,5.19,7.58a19.43,19.43,0,0,1,1.81,4.37c.22.66.44,1.33.68,2,.11.3.23.6.35.89h0a18.2,18.2,0,0,1,.83,2.42c1.62,6.67.89,13.29-.7,19.83-.11.44-.22.88-.32,1.32a111.87,111.87,0,0,1-3.43,12.13c-1.16,3.15-2.6,6.19-4.05,9.24h0q-1,2.19-2.06,4.41-1.72,3.87-3.38,7.79-2.82,6.63-5.6,13.27c-.67,1.61-1.32,3.23-2,4.85-1.3,3.24-2.6,6.48-4.07,9.64-2.13,4.55-4.49,9-6.85,13.43h0c-.34.63-.68,1.27-1,1.91-1.48,2.78-3,5.53-4.5,8.29h0c-1.46,2.67-2.93,5.34-4.35,8-1.31,2.45-2.58,4.92-3.85,7.39-1.35,2.64-2.71,5.28-4.11,7.9-2,3.72-4.07,7.39-6.21,11-1.78,3-1.27,4.43.8,7.21,2.24,3,5.71,4,9.16,4.81,9.45,2.16,18.91,4.23,28.38,6.3h0l.49.11c.95.2,1.92.36,2.89.51h0c1.08.18,2.17.36,3.24.61,5.34,1.25,8,5.17,9.44,10,.92,3.12,1.19,6.47-1.29,9.06a6.15,6.15,0,0,1-4,1.71q-26.32.09-52.67.08h-.16l-33,0c-1.29,0-1.38-.39-1.48-1.52s-.3-2.3-.51-3.45a25.61,25.61,0,0,1-.56-5,35.93,35.93,0,0,1,8-21.65,4.41,4.41,0,0,1,1.5-1.06,3.68,3.68,0,0,0,1.57-1.19,47.29,47.29,0,0,0,3.62-8.05,118.4,118.4,0,0,0,4-13.52,62.37,62.37,0,0,1,1.74-6.19,53.62,53.62,0,0,0,2-7.76,35.53,35.53,0,0,1,2.79-8.25h0c.37-.84.73-1.68,1.07-2.52,1.15-2.86,2.35-5.7,3.54-8.55,1.85-4.42,3.71-8.84,5.42-13.32,1.22-3.19,2.23-6.46,3.25-9.73h0c.58-1.86,1.15-3.73,1.77-5.58,1.3-3.92,2.63-7.84,4.12-11.68.34-.87.15-.88-.32-.92l-.29,0c-6.31-.84-12.52-.77-18.4,2a2.17,2.17,0,0,1-3-.58c-.87-1.1-.42-1.89.35-2.9,4.6-6,7.45-12.8,9.64-20,.23-.75.47-1.5.71-2.26h0c1.42-4.53,2.84-9,2.8-13.86a15.07,15.07,0,0,0-3.44-10c-.55-.67-1.06-1.38-1.56-2.08h0c-1.51-2.08-3-4.14-5.57-5.22-1.31-.55-2.6-1.13-3.89-1.72h0c-1.33-.61-2.68-1.22-4-1.78l-3.11-1.29c-4.07-1.71-8.15-3.41-12.31-4.89-2.52-.89-5.13-1.53-7.75-2.17h0c-1.18-.3-2.37-.59-3.55-.9l-.69-.21-.37-.12-.18-.05c-2.68-.76-5-.63-6.86,2a16.56,16.56,0,0,1-3,3l-.69.58C305.94,354.87,301.79,359.15,297.66,363.44Zm98.5-72.67c.13-.95.32-1.89.51-2.84.23-1.16.46-2.32.58-3.48l0-.33h0a42.5,42.5,0,0,0,.36-7.55,20.47,20.47,0,0,0-.77-3.83,26.33,26.33,0,0,1-.71-3.11c-.77-5.51-1.47-11-2-16.57-.47-4.81-.78-9.64-1.09-14.47,0-.67-.09-1.35-.13-2-.31-4.82-.6-9.65-.79-14.47-.18-4.62-.27-9.25-.36-13.88h0c0-.65,0-1.3,0-1.95a2.84,2.84,0,0,1,.19-.88,3.62,3.62,0,0,0,.17-.56c0-.11.05-.22.07-.34l0-.09,0-.08,0-.13h0a5.44,5.44,0,0,0,.24-1.77,13.79,13.79,0,0,0-.35-1.9h0a10.9,10.9,0,0,1-.36-2.57c.14-5.66.39-11.31.65-17h0c0-.84.08-1.67.11-2.51a34.14,34.14,0,0,1,.4-3.63c.52-3.4,1.07-6.8,1.61-10.19l.18-1.15.2-1.23c0-.28.1-.55.16-.82s.06-.26.08-.38c0,.08,0,.17,0,.26a.88.88,0,0,0,0,.16,7,7,0,0,1,.09.91q.19,9.51.36,19l0,2.42c0,2.13.09,4.26.13,6.39v0c.09,5.07.19,10.14.27,15.21q.08,5,.14,10.09c.07,6.11.15,12.22.29,18.34.11,4.56.4,9.12.8,13.66.3,3.33.73,6.65,1.17,10h0c.14,1,.27,2.09.4,3.13.19,1.48.39,2.95.6,4.42h0c.35,2.57.7,5.14,1,7.72a12.55,12.55,0,0,0,4.18,8,51.18,51.18,0,0,0,5.4,4.15h0c.74.51,1.47,1,2.2,1.56,1.51,1.1,3,2.22,4.52,3.34h0c3.78,2.8,7.56,5.6,11.44,8.25,3.48,2.37,7.05,4.58,10.62,6.8h0c1.72,1.07,3.45,2.14,5.16,3.23l4.94,3.16h0c2.92,1.89,5.85,3.77,8.81,5.59l.56.35c5.42,3.34,10.85,6.68,16.41,9.8A87,87,0,0,0,483,331h0l2.14.92a1.66,1.66,0,0,0,1.56-.36,13,13,0,0,0,1.07-2.54h0l.18-.53a23.73,23.73,0,0,1,5.17-9c1.9-2,1.63-2.55-1-3.66l-.44-.19h0a20.69,20.69,0,0,1-3.21-1.56,65.83,65.83,0,0,1-5.42-3.8l-4.62-3.57h0c-5.22-4-10.44-8.07-15.52-12.28-4.73-3.91-9.23-8.14-13.63-12.42-.61-.6-1.23-1.19-1.85-1.78h0c-3.75-3.58-7.51-7.17-9.89-11.92-.32-.66-.7-1.28-1.08-1.91-1.09-1.82-2.18-3.64-2-6a22.81,22.81,0,0,0-.29-4.43c-.07-.54-.14-1.07-.2-1.61-.15-1.44-.34-2.89-.52-4.33-.37-3-.74-5.9-.87-8.86-.17-4-.13-8-.09-12,0-1.73,0-3.45,0-5.18,0-.4,0-.81,0-1.22a19.36,19.36,0,0,1,0-2.64c.48-4.25,1-8.51,1.6-12.74l.09-.57c0-.22.06-.45.1-.67s.07-.51.11-.77l.06-.42v-.05h0c.6-4,1.19-8.11,2.18-12.06.86-3.45,1.92-6.85,3-10.25h0c.84-2.69,1.68-5.38,2.41-8.1.53-1.95,1.12-3.88,1.7-5.82h0a89,89,0,0,0,3.55-14.79,27.42,27.42,0,0,1,.69-3.31,17.38,17.38,0,0,0,.77-4.83c-.21-5.78-1.82-11.36-3.44-16.92-2.43-8.31-6.63-15.24-13.9-20.18-4.2-2.85-8.59-4.93-13.8-4.26-1.89.24-3.75.63-5.62,1-.9.19-1.8.38-2.7.55a31.74,31.74,0,0,0-13.72,6.4q-3.58,2.79-7,5.8c-2.27,2-4.53,4-6.6,6.23-1.92,2-3.71,4.23-5.49,6.4h0l-1.17,1.42c-3.06,3.72-6.12,7.44-9.12,11.21-1.32,1.65-2.61,3.33-3.9,5h0c-1.95,2.52-3.89,5-5.92,7.5-3.7,4.45-7.54,8.78-11.43,13.06-5.35,5.88-10.79,11.67-16.23,17.46a15.22,15.22,0,0,1-1.53,1.35,12.25,12.25,0,0,0-1.79,1.65,73.65,73.65,0,0,0-10.29,15.32c-2.43,5.17-4.77,10.38-7.11,15.59-2.1,4.68-4.2,9.36-6.37,14a158.19,158.19,0,0,1-12.05,21.81l-.34.51c-2.5,3.72-5,7.44-8.52,10.15-4.6,3.53-9.38,6.82-14.16,10.1l-3.74,2.58a22,22,0,0,0-8.79,11c-1.92,5.7-.94,11.37,1.75,16.57,3.31,6.39,8.55,11.28,13.9,15.94A57.09,57.09,0,0,0,290,334.12c9.57,3.06,19.19,6,29.31,6.91,2.64.22,5.28.57,7.91.92,2.94.38,5.88.77,8.83,1,6.53.49,13.09.76,19.63.79,2.95,0,5.89-.18,8.83-.39h0c1.86-.13,3.73-.26,5.61-.33a49.61,49.61,0,0,0,14.64-3.22c3.19-1.14,6.14-2.7,7.3-6.14a33,33,0,0,0,1.3-6.26l.07-.54c.59-4.45,1.18-8.91,1.51-13.39.31-4.12.47-8.26.64-12.54.06-1.62.12-3.25.2-4.92,0-.54.07-1.07.1-1.61C395.92,293.18,396,292,396.16,290.77ZM227.05,412.18a1.08,1.08,0,0,0,.94.2c1.09-.49,2.2-1,3.31-1.43h0a51.58,51.58,0,0,0,7.86-3.85c4.36-2.79,8.61-5.75,12.86-8.71h0c3.34-2.32,6.68-4.64,10.06-6.88,7.4-4.89,13.87-10.84,20.35-16.79l3.8-3.47c2-1.79,3.82-3.71,5.67-5.62l1.21-1.25q3.3-3.4,6.57-6.84c.95-1,1.89-2,2.84-3,.68-.72,1.37-1.43,2.05-2.14,2.48-2.57,4.95-5.14,7.35-7.79a2.22,2.22,0,0,0-.39-2c-1.36-.41-2.74-.74-4.13-1.08h0c-1.76-.43-3.52-.86-5.22-1.44l-.87-.29c-7.05-2.4-14.12-4.81-21-7.6a63.64,63.64,0,0,1-17.41-10.52.54.54,0,0,0-.5.12c-1.51,3.65-4.32,6.14-7.15,8.64h0c-.64.57-1.29,1.14-1.91,1.72a97.94,97.94,0,0,0-8.51,8.66,62.72,62.72,0,0,0-4.53,6.41h0c-.52.81-1,1.62-1.58,2.42s-1.25,1.79-1.89,2.68a39.41,39.41,0,0,0-4.22,6.78c-2.41,5.37-6.13,9.65-10,13.81s-9,5.63-14.18,7.13l-1.44.43a59,59,0,0,1-5.78,1.31h0c-1.06.2-2.13.41-3.18.65a2.21,2.21,0,0,0-.76.42l-.33.24c.12.15.25.34.38.53.27.41.54.83.79.81,2.48-.18,4.34,1.1,6.16,2.36h0c.49.33,1,.66,1.47,1,2.4,1.48,4.76,3.07,6.16,5.83a36.23,36.23,0,0,0,3.35,5.05q.57.75,1.11,1.5c1.5,2.07,3.07,4.09,4.77,6.29l.36.46,1.28,1.19C224.15,409.51,225.59,410.86,227.05,412.18Zm122.66-62a41.87,41.87,0,0,0,4.76,2.05c3.2,1.21,6.39,2.43,8.83,5.12a23.56,23.56,0,0,0,2.44,2.24c.56.47,1.11.93,1.64,1.43,1.73,1.63,2.33,3.81,2.93,6h0c0,.13.07.25.1.37s.11.39.17.58a32.13,32.13,0,0,1-.18,17.08l-.13.49-.15.57c-1.91,7.31-3.86,14.73-7.93,21.29-.48.77-.72,1.17.58,1.21,3.49.1,7,.23,10.47.36h0c3.85.15,7.69.29,11.54.39,2.42.07,4.83.05,7.25,0,1.66,0,3.33,0,5,0A28.64,28.64,0,0,0,409.6,407l.48-.22h0c1.35-.62,2.89-1.32,3.5-2.43a51.77,51.77,0,0,0,3.67-9.06c1.47-4.53,2.93-9.09,4-13.74a82.24,82.24,0,0,0,1.6-12.12,16.09,16.09,0,0,0-.34-3.7,21.51,21.51,0,0,1-.35-3c-.08-3.87-1.92-7-3.75-10.17l-.32-.55a15.06,15.06,0,0,0-1.52-2.07,18.88,18.88,0,0,1-1.23-1.6q-4.41-6.6-8.8-13.22l-6.21-9.33a6.14,6.14,0,0,0-.71-.82l-.36-.36c-.11.17-.25.34-.38.51h0a3.1,3.1,0,0,0-.68,1.18c-.2,1-.33,1.95-.47,2.94h0c-.11.84-.22,1.68-.38,2.51-.9,4.82-3.21,8.53-7.75,10.91-6.27,3.29-13,4.69-19.88,5.48a81.51,81.51,0,0,1-12,.4c-2.4-.08-4.8-.37-7.2-.67-1.29-.16-2.59-.32-3.89-.45a3.12,3.12,0,0,0-1.07.18,4.77,4.77,0,0,1-.51.13l.31.25c.25.21.51.42.78.62a.75.75,0,0,0,.2.1,3.71,3.71,0,0,1,.51.3l.92.37A17.14,17.14,0,0,1,349.71,350.2Zm82.82-307a31.16,31.16,0,0,0-4.83,12.37A29.05,29.05,0,0,0,428.12,69c.78,2.6,1.67,5.17,2.55,7.74h0c1,3,2.05,6,2.91,9a4.52,4.52,0,0,0,3.07,3.2c6.29,2.22,13.12-.47,17-6.26,1.06-1.57.45-2.21-.63-3.31a27,27,0,0,1-3.82-5c-1.62-2.66-.94-5.38.92-7.53a6.48,6.48,0,0,1,7.24-1.73A12.34,12.34,0,0,1,464,71.18a3,3,0,0,1,.17.41l0,0a.88.88,0,0,0,.05.15l0,0v0l0,0a1.63,1.63,0,0,0,.11-.23c.22-.68.44-1.37.65-2.06h0c1.14-3.62,2.28-7.25,4.58-10.34a39.24,39.24,0,0,1,6-6.73,26.78,26.78,0,0,1,5.85-3.42l.9-.43,2.11-1h0a65.48,65.48,0,0,1,9-3.89l.91-.28.06,0h0c-.17,0-1.22.27,9.05-3.43,14.32-5.17,6.95-21.45,2.71-25a1.64,1.64,0,0,0-1.16-.48,1.28,1.28,0,0,0-.72.95c-.32,3.56-5.54,9.08-17.92,8.23-8.48-.59-8.67-.56-9.07-.48a8.76,8.76,0,0,1-1.54.07,103.72,103.72,0,0,0-13.79,1.38c-.68.19-1.57.37-2.61.59-5,1-13.53,2.83-20,9.6-.72.87-1.45,1.72-2.19,2.58A67.17,67.17,0,0,0,432.53,43.17ZM466.41,78.5a26.89,26.89,0,0,1-.72,5.34h0c-.17.85-.35,1.7-.48,2.55a1.19,1.19,0,0,1-.16.39L465,87a.3.3,0,0,0,0-.1l0-.07c0-.13-.07-.25-.09-.37-.16-.88-.32-1.75-.47-2.62h0c-.35-2-.69-4-1.17-5.9a33.09,33.09,0,0,0-2.24-6.85c-1.21-2.48-6.28-3.65-8.77-2.35A2.66,2.66,0,0,0,451,72.51a11,11,0,0,0,3.21,3.19,6.08,6.08,0,0,1,2.94,5.13c.32,3.66-3.52,8.82-7.26,9.74-3.4.85-6.86,1.43-10.32,2l-2.45.42H437l-.14,0h0c-1.09.18-2,.32-1.61,1.92a33.59,33.59,0,0,1,.46,13.1c0,.26.44.68.75,1s.81.66,1.22,1a15.66,15.66,0,0,1,2.17,1.88c1,1.16,2,2.38,3,3.6h0c.67.84,1.33,1.68,2,2.5a1.12,1.12,0,0,0,1.08.13c.88-.84,1.74-1.71,2.6-2.57h0c1-1,2-2,3.06-3,2.52-2.37,5.1-4.66,7.72-6.92a3.61,3.61,0,0,1,1.27-.58h0c.22-.06.43-.13.64-.21,0,.11-.1.21-.14.32l-.12.27c-.22.53-.45,1.07-.72,1.59,0,.09-.18.12-.32.16a1,1,0,0,0-.33.14l-.13.11h0c-.5.43-.87.75.25,1.28a24.91,24.91,0,0,1,3.37,2.06h0l1.38.92c7.16,4.61,14.87,6.77,23.4,5.37,4.83-.79,8.14-3.36,9.61-8.11,1.41-4.55.83-5.87-3.52-7.7l-.13,0-.1,0-.21-.08h0c-2.29-1-4.57-1.9-5.17-4.71-.25-1.15,1.89-2.4,2.36-1.32v0c.47,2.12,2.07,2.86,3.77,3.62,3.12,1.4,3.5,1.21,3.5-2,0-4.2,0-4.2,3.68-5.5,2.13-.76,2.47-1.5,1.5-3.57a18,18,0,0,1-2-9.84c.5-4.36.91-8.72,1.19-13.1a41.13,41.13,0,0,0-.06-8.45A26.48,26.48,0,0,0,500.74,51h0c-.27-.74-.54-1.48-.78-2.22a2.64,2.64,0,0,0-3.73-1.8c-1.12.41-2.24.79-3.36,1.18h0a93.91,93.91,0,0,0-9.25,3.56,31.54,31.54,0,0,0-8.76,5.69C472.67,59.56,466.41,70.42,466.41,78.5ZM208.49,417.79l4-.89c2.88-.63,5.76-1.27,8.64-1.94a4.57,4.57,0,0,0,1.18-.52c.18-.1.36-.2.54-.28l-.46-.27a8.73,8.73,0,0,1-1.05-.65,5.56,5.56,0,0,1-1-1h0l0,0c-.86-1-1.73-1.93-2.6-2.9h0c-2.13-2.35-4.26-4.71-6.2-7.21a57.92,57.92,0,0,1-5-8l0-.07c-.74-1.36-1.58-1.94-3-1.44A123.65,123.65,0,0,1,184.81,397h0c-3.29.6-6.57,1.21-9.83,1.95-5.33,1.21-32.18,5.83-34.52,6-1.14.08-2.27.2-3.41.31h0a59,59,0,0,1-6.63.43,82.18,82.18,0,0,0-16.71,1.62c-1.75.33-3.52.55-5.29.76-2,.25-4,.49-6,.92-6.38,1.38-8.52,6.83-6.87,12.15A4.48,4.48,0,0,0,98,423.71a43.6,43.6,0,0,0,14.32,2.09c2.51,0,5,.14,7.54.25h0l2.88.13,10.81.45L142,427h1.2c1,0,2,.11,3,.18a51.51,51.51,0,0,0,6.45.16c3.36-.21,6.71-.61,10.05-1,1.56-.19,3.11-.37,4.67-.54.95-.1,1.9-.18,2.86-.26h0c1.74-.15,3.47-.3,5.19-.56l.86-.14c4.39-.66,8.79-1.33,13.11-2.28,3.37-.74,6.7-1.59,10.11-2.46h0c2.49-.63,5-1.28,7.64-1.9l.45-.13C207.84,418,208.16,417.86,208.49,417.79Zm152.16,92.47c2.07-3,4-6,5.92-9.09,1.72-2.8,3.33-5.68,4.94-8.54,1.44-2.57,2.94-5.11,4.43-7.64h0a179.16,179.16,0,0,0,9.73-18.06c1.6-3.62,3.46-7.12,5.32-10.62h0c.88-1.67,1.77-3.33,2.62-5l1.22-2.35h0c1.14-2.16,2.27-4.33,3.24-6.56.73-1.69,1.38-3.43,2-5.16a67.27,67.27,0,0,1,3.29-7.82,80.4,80.4,0,0,0,4.91-12.46h0c.45-1.38.91-2.75,1.39-4.12.07-.21.12-.43.17-.65l0-.11c0-.07,0-.13.05-.2l-.35.06a4.77,4.77,0,0,0-.73.16c-.48.14-1,.31-1.44.49a11.6,11.6,0,0,1-3,.8c-3.79.3-7.6.42-11.4.42-2.35,0-4.7-.09-7.06-.18-1.51-.06-3-.12-4.55-.16a1.17,1.17,0,0,0-.84.64c-.13.34-.26.68-.4,1v0h0c-.95,2.4-1.9,4.79-2.73,7.23q-3.1,9.12-6.06,18.28a207.59,207.59,0,0,1-9,22.64,97.56,97.56,0,0,0-7,21.74c-.7,3.52-1.74,7-2.77,10.43l-.45,1.53c-.1.32-.2.64-.29,1-.77,2.61-1.61,5.2-2.46,7.79-.14.42-.27.84-.41,1.27s-.33,1-.5,1.53c-.69,2.14-.08,4.15,1.6,4.41A27.84,27.84,0,0,0,356,513,6.57,6.57,0,0,0,360.65,510.26Zm-276-73.7c2.09-3.43,4.24-6.53,8.47-7.46,1.58-.34,1.66-1.16.62-2.48l-.71-.87a10.33,10.33,0,0,1-2.14-3.3,12.25,12.25,0,0,1-.25-4.21h0l.06-1.11c.13-4.36,1.36-8.08,5.68-10.2,1.29-.63,2-1.57.77-3.43a34.64,34.64,0,0,0-11-9.7,2.44,2.44,0,0,0-3.84,1.35l-.87,2.28c-.92,2.41-1.83,4.82-2.65,7.26-.89,2.68-1.74,5.37-2.59,8.07h0c-.89,2.84-1.79,5.68-2.74,8.51-.78,2.33-1.47,4.69-2.16,7.06h0A103.49,103.49,0,0,1,67,441a119.88,119.88,0,0,0-9.08,29.61c-.08.55,0,1.48.36,1.65a2.34,2.34,0,0,0,1.86-.11,7.21,7.21,0,0,0,2.46-1.73,85.29,85.29,0,0,0,5.68-7.62Q70.64,459,73,455.3h0C76.9,449.07,80.81,442.84,84.63,436.56Zm292.3,80.53h0c-3.48-.84-6.92-1.68-8.94-5.27-.94-1.69-1.78-1.56-2.73.3a8.31,8.31,0,0,1-3.5,3.86,22.33,22.33,0,0,1-2.72,1.14c-4.6,1.63-9.07,1.84-13.1-1.46-2-1.61-2.61-1.46-4.14.54-2.48,3.23-3.75,7-5,10.76l-.1.32c-1.37,4-.63,4.88,3.67,4.88h77.06l.49,0a1.51,1.51,0,0,0,1.94-1.19c-.28-.31-.56-.64-.84-1h0a10,10,0,0,0-2.79-2.58,34.33,34.33,0,0,0-7-2.36c-8.81-2.23-17.63-4.36-26.85-6.52l-1.34-.38c-1-.28-2-.57-3-.82l-.29-.07-.11,0-.17,0-.55-.14ZM528.76,369.31c.09.33.49.59.9.84.18.12.37.23.53.36a3.47,3.47,0,0,1,.35-.43,1.78,1.78,0,0,0,.56-.94c0-.26,0-.53,0-.79l0-.5h0a18.88,18.88,0,0,0-.1-5,59.63,59.63,0,0,0-2.84-9.2,1.17,1.17,0,0,1,.38-1.43,1.08,1.08,0,0,0,.43-.84c.21.14.43.26.65.38a4.44,4.44,0,0,1,1.36,1,3.88,3.88,0,0,1,.57,1.36h0a6.31,6.31,0,0,0,.28.87c.16.38.33.77.49,1.16h0c.79,1.88,1.59,3.76,2.51,5.58.16.32.65.48,1.14.64a4.92,4.92,0,0,1,.65.23c.08-.18.19-.37.29-.55a2.63,2.63,0,0,0,.46-1.21,49.19,49.19,0,0,0-.38-5.42l-.09-.86a13,13,0,0,0-.77-3.77,93.22,93.22,0,0,0-5.09-10.26,21.68,21.68,0,0,0-4.76-5.56,36.51,36.51,0,0,0-5.44-3.49h0l-.74-.42-.75-.43c-3-1.77-6.14-3.47-9.24-5.15l-.1-.06c-.36-.21-.79-.45-1.17.38-.72,1.57-1.48,3.12-2.24,4.67h0c-1.19,2.41-2.38,4.83-3.4,7.31a1.22,1.22,0,0,1-.07.17c-.4.95-1.1,2.62,1.06,3.55a22.4,22.4,0,0,1,6.43,4.16c5.39,5.1,7.82,11.92,10.23,18.69h0l.19.53c.46,1.3.79,2.65,1.13,4h0c.16.64.31,1.28.49,1.91.09.34.2.67.31,1l.18-.12,0,0,.14-.08h0a1.48,1.48,0,0,0,.67-.57,11,11,0,0,0,.56-7.55,37.6,37.6,0,0,1-1-6.54h0l0-.2c0-.27.35-.58.72-.89a4.12,4.12,0,0,0,.48-.42c.09.12.2.23.3.35a2.11,2.11,0,0,1,.54.79c.17.62.33,1.24.49,1.87h0c.3,1.15.6,2.33,1,3.59l.07.33,0,.16.07.35c.08.36.15.72.23,1.08h0C527.9,365.72,528.28,367.52,528.76,369.31Zm-24.56-40.8c.29-.69.63-1.35,1-2a11.61,11.61,0,0,0,1.71-5.23c0-1.86-.29-2.85-1.79-3.76s-3.38-1.55-4.79-.44a25.78,25.78,0,0,0-7.87,9.21,63.81,63.81,0,0,0-2.63,7.37c-.26.86-.53,1.72-.81,2.57a3.51,3.51,0,0,0,0,1.61c.62,3.12,2.95,4.66,5.55,6a1.93,1.93,0,0,0,3-1c.42-.93.84-1.85,1.25-2.79.87-1.95,1.76-3.93,2.75-6l.84-1.67C503,331.06,503.66,329.81,504.2,328.51ZM53.55,469.5c1.43-3.4,2.79-6.85,3.93-10.36.77-2.34,1.44-4.72,2.12-7.09.61-2.15,1.22-4.31,1.9-6.43,1.06-3.34,2.18-6.67,3.3-10h0c1-3.1,2.08-6.21,3.08-9.33,1.88-5.85,3.71-11.71,5.54-17.57h0l2.46-7.87.66-2.08h0c.59-1.84,1.18-3.68,1.7-5.53a1.53,1.53,0,0,0-.24-1c-.07-.16-.14-.32-.19-.47a5.44,5.44,0,0,1-.54.29h0a2,2,0,0,0-1,.74c-1.41,3.08-2.78,6.18-4,9.33C71.2,405.06,70.2,408,69.21,411l-.51,1.49c-.18.54-.37,1.09-.55,1.64-1.05,3.07-2.1,6.15-3,9.26s-1.88,6.45-2.79,9.69h0c-.67,2.37-1.34,4.74-2,7.1l-.75,2.6h0c-1,3.65-2.11,7.3-3.33,10.89-.77,2.24-1.58,4.46-2.39,6.69-1.13,3.11-2.27,6.24-3.3,9.45C52,471.75,52.6,471.77,53.55,469.5Zm338.59,70.06,2.73-.19h0c2-.15,4-.3,6-.4,2.64-.13,5.29-.24,7.93-.36,3.5-.15,7-.3,10.49-.49.27,0,.53-.28.8-.56l.19-.2.17-.16-.14-.09-.09-.06-.08,0a2.89,2.89,0,0,0-.75-.41,1.5,1.5,0,0,0-.67,0H338.79l-.17,0c-.31,0-.61-.07-.77.07a5.61,5.61,0,0,0-1.43,1.68c-.07.14.62.94,1,1a17.64,17.64,0,0,0,3.62.43C358,539.77,375,539.76,392.14,539.56Zm114.4,6.17h0c-6.07,2.38-12.11,4.76-18.07,7.32-4.07,1.75-8.15,2-12.39,1.9a5.8,5.8,0,0,1-1.08-.18,5.71,5.71,0,0,0-1.15-.17,2.07,2.07,0,0,0-.93.34,4.23,4.23,0,0,1-.42.22c.07.11.14.24.2.36a3.18,3.18,0,0,0,.51.73,10.43,10.43,0,0,0,2,1.48c5.49,2.88,8.66,10.74,6.72,16.63-1,2.89-2.1,6-4,8.22-1.57,1.83-4.31,3-6.75,3.67a19.65,19.65,0,0,1-11.77-.37,14.39,14.39,0,0,1-7.64-6.6c-4.38-7.5-2.58-14,2.07-20a7.34,7.34,0,0,1,2.59-1.79,16.75,16.75,0,0,0,1.61-.91,4.48,4.48,0,0,0,.9-.94,4.45,4.45,0,0,1,.38-.48l-.38-.1-.28-.08a6.67,6.67,0,0,0-1.51-.32,3.84,3.84,0,0,0-1.05.17,4.29,4.29,0,0,1-1,.17H442.72q-42.06,0-84.11,0c-6.77,0-13.53-.12-20.3-.22q-6-.09-11.95-.16c-2.94,0-5.88,0-8.82,0h-4.9c-.8,0-1.6,0-2.4,0a1.06,1.06,0,0,0-.49.24l-.22.14.21.16.47.32c.67.42,1.38.81,2.08,1.19a19,19,0,0,1,4.22,2.81c8.12,7.93,5.5,23.6-6.66,26.74-9.83,2.54-18.52-.73-21.44-12.41-1.8-7.2,3-15.78,10.29-18a2.63,2.63,0,0,0,.86-.57l.09-.08,0,0,.15-.12.06-.05.05,0a3,3,0,0,1-.4-.26,1.74,1.74,0,0,0-.86-.39c-9.6,0-18.59-2.83-27.41-6.17-11.84-4.48-23.36-9.71-34-16.6l-.2-.13c-2-1.28-4-2.59-4.7-5.25-1.3-5,1.22-8.82,5.87-10.08,4.95-1.34,9.69.07,14.37,1.57l24.35,7.85,13.51,4.37.59.19c2.44.78,4.89,1.57,7.36,2.3a10.73,10.73,0,0,0,2.82.4h12.21l12.16,0c.6,0,1.63.17,1.72.48a7.83,7.83,0,0,1,.18,2.07c0,.28,0,.56,0,.83l-.05,0h0l-.07,0,0,0h0a.82.82,0,0,0-.39-.11l-1.37.15c-.68.09-1.36.17-2.05.21l-7.12.34c-3.17.15-6.35.3-9.52.47-5.61.32-10.91-1.26-16.15-2.83l0,0c-4.07-1.21-8.09-2.6-12.11-4h0c-2.28-.78-4.55-1.56-6.83-2.32-2.85-.94-5.71-1.86-8.57-2.78h0c-3.3-1.06-6.6-2.12-9.89-3.22a23.41,23.41,0,0,1-2.45-1,14.82,14.82,0,0,0-3.91-1.37,22.6,22.6,0,0,0-7.6.32c-1,.19-2,1.72-2.35,2.84a3.38,3.38,0,0,0,1.62,4.07A191,191,0,0,0,264,540.06a167.77,167.77,0,0,0,24.62,8.51,17.47,17.47,0,0,0,4.22.41c3.22.06,6.45.11,9.67.14,5.44.07,10.89.14,16.33.31,6,.18,12,.47,18.06.77h0l8.4.39,7.45.33,10.79.47c.77,0,1.55.1,2.32.17h0a35.08,35.08,0,0,0,4.09.18,32.7,32.7,0,0,0,3.57-.36h0c1-.15,2.05-.29,3.09-.35a10,10,0,0,1,2.1.17h0a14.14,14.14,0,0,0,1.71.17l2.06,0h0c3.17.05,6.34.1,9.5,0,2.73-.13,5.46-.34,8.19-.56s5.26-.41,7.9-.54a8.08,8.08,0,0,1,2.36.35h0a9.61,9.61,0,0,0,2.09.35c4.8.1,9.59.09,14.38,0s9.35-.19,14-.41a24.23,24.23,0,0,0,2.79-.37,14.8,14.8,0,0,1,4.06-.33c5.35.58,10.7.73,16,.87,3.68.11,7.35.21,11,.45,6.62.43,12.48-1.15,18.28-3.52,7.85-3.21,15.64-6.61,23.28-10.28,4.77-2.3,9.33-5.07,13.87-7.83l.83-.51a12.66,12.66,0,0,0,6-7.64,2.25,2.25,0,0,0-2.22-3.07c-5.34-.12-10.22,1.73-15.08,3.6q-10.58,4.08-21.09,8.36c-2.82,1.15-5.63,2.36-8.44,3.56h0c-2.1.9-4.2,1.8-6.31,2.68a6.33,6.33,0,0,1-2.39.48q-10,0-20.06,0H435.57c-1.7,0-3.4-.06-5.1-.12-.11,0-.29-.28-.3-.44a2.44,2.44,0,0,1,0-.27c0-.13,0-.26,0-.39a4,4,0,0,0,0-.92c-.23-1.28.32-1.48,1.49-1.47q12.58.09,25.16,0l2.51,0h0c7.1-.06,14.2-.11,21.29-.47a20,20,0,0,0,6.66-2l.55-.24a373.84,373.84,0,0,1,37.46-14.13,38.51,38.51,0,0,1,7.22-1.24h0l.78-.09.59-.06a15.77,15.77,0,0,1,5,0c2.57.54,3.63,3,2.85,5.57a18.62,18.62,0,0,1-8.42,10.75q-4.43,2.7-8.9,5.38h0l-8.27,5q-4.8,1.94-9.58,3.8h0Zm-31.25,17.8c-4.67-5.08-10.06-6-16.49-2.3-3.72,2.15-5.35,7.2-5,10.4a12.65,12.65,0,0,0,4.69,8.55c3.15,2.68,6.84,2.69,10.64,1.87C477.55,580.23,480.08,569.27,475.29,563.53Zm-182.14,5.58c0,.36,0,.73,0,1.09h0c0,.79,0,1.57,0,2.35.43,6.46,7.92,11.47,14.53,9.57,4.7-1.35,7.41-4.16,8.37-9.09,1.47-7.56-3.23-13-9.71-13.95S294.67,561.69,293.15,569.11ZM345.22,592h98.21q24.68,0,49.37,0a6.28,6.28,0,0,0,3.14-1.23c.24-.17-.27-1.46-.76-2a2.88,2.88,0,0,0-1.88-.52l-157.75,0h-62c-.76,0-1.52,0-2.29-.1h-.4l-.42,0c-1.26-.07-2.9,1.61-2.38,2.58.75,1.39,2.29,1.42,3.79,1.42h73.33Zm-132.47,1H158.5c-1,0-2,.06-2.36-1.21A1.93,1.93,0,0,1,158,589a6.16,6.16,0,0,1,1,0h93.53c1.34,0,2.6,0,2.55,1.8-.05,1.49-.94,2.18-3,2.18H212.75ZM560,593h17.34c8.52,0,17,0,25.37,0a12.18,12.18,0,0,0,2.61-.38c.24-.05.47-.46.53-.74.43-2.14-.26-2.83-2.76-2.83H509.86a4.28,4.28,0,0,0-.95,0c-1.71.29-2.32,1.47-1.64,2.9.52,1.1,1.48,1.08,2.45,1H560ZM488,63.26a37.92,37.92,0,0,1,4,.53c2.75.43,6.22,1,8.07,1s.1,2.05-.21,2.06C495.75,67.06,486.85,64.35,488,63.26ZM494,79c-1.73-.65-.9-6,.82-6S495.69,79.62,494,79ZM469,567.23c1.51,3.41,1.4,4.81-.39,6.66a3.85,3.85,0,0,1-4.82.47,5,5,0,0,1-1.46-5.41C463.54,565.83,466.31,565.07,469,567.23Zm-161,.27c-2.34-2.17-4.66-2-7.52.76-1,2.4-.53,5,3.33,5.64a4.37,4.37,0,0,0,4.45-1.5A3.89,3.89,0,0,0,308,567.5Z"/><path class="cls-6" d="M443.48,133.26c-3.48-1-4.3-6.28-7.8-7.19s-6.8,3.2-10.25,2.26c-2.35-.63-3.45-3.23-4.75-5.28s-3.93-3.81-5.83-2.52l-.16.12c-2.64,2.08-6.6.76-9.26-1.3s-4.92-4.83-8.11-5.89c1.67-1.66,4.58-.45,6.2,1.25s3,4,5.2,4.64c3.46,1.05,7.35-2.16,10.61-.61,2,1,2.85,3.34,4.07,5.23s3.85,3.47,5.58,2c4.18-3.49,11.66-1.28,13.27,3.92C442.72,131.43,444.78,133.65,443.48,133.26Z"/><path class="cls-6" d="M236.35,528.65c9.65,5.68,39.87,22.42,62,23l183.23.58s96.34-33.88,25.9-21.1c-4,.73-15.4,7.56-33.76,9-33.56,2.72-175.37,1-175.37,1S233.82,527.15,236.35,528.65Z"/><path class="cls-3" d="M79,415.92c.23-.25.5-.43.67-.36,1.93.8,3,.11,3.63-1.8.1-.31.59-.51.9-.76.29.38.82.76.82,1.15a2.08,2.08,0,0,0,1.76,2.24c.51.16.82,1,1.22,1.51-.4.09-1,.06-1.17.31a3.88,3.88,0,0,0-.52,1.74,8.87,8.87,0,0,0,.26,1.57c.05.69-.06,1.19-.87.5-1.62-1.39-3-.87-4.42.44a4,4,0,0,1-1.4.54,6.87,6.87,0,0,1,.27-1.29C81,419.59,80.4,417.77,79,415.92Z"/><circle class="cls-7" cx="477" cy="92" r="7"/><path class="cls-3" d="M376.84,154.31l.81,1.24.26.4c1.69,2.48,4.25,4.91,7.1,4.19a19.51,19.51,0,0,1,20.52,8c2.12,3.23,6.85,2.6,10.71,1.77l.51-.11c3.87-.86,9.23-.46,10.2,3.3l.05.21c.46,2.16,3.18,2.82,5.41,2.76l.7,0c5.63,0,6.36,3.09,6.37,2.78,0,0-12.38-.94-15-5.14l-.15-.27c-1.66-2.9-5.85-2.43-9.13-1.44l-.9.28-.45.13c-3.2.9-7.08,1.22-8.69-1.54a19.16,19.16,0,0,0-18.63-9.13c-1.87.25-3.81.77-5.6.18-4.28-1.42-4.84-8-9.05-9.65-5.32-2-10.47,5.7-16,4.24a44.62,44.62,0,0,1,11-6.15,8.69,8.69,0,0,1,4.12-.79C373.61,149.82,375.35,152.05,376.84,154.31Zm67.58,7.63a42.89,42.89,0,0,0-1.18,4.32c-.54-3.55-4.07-6.84-7.4-5.69l-.19.08c-2.11.84-4.35-.91-5.71-2.73l-.33-.44-.49-.68c-1.11-1.5-2.3-3-4.06-3.42-3.23-.78-6.09,2.43-9.39,2.82-7.65.89-11.47-12.8-19-11.1-1.65.37-3.06,1.49-4.73,1.72-4.61.63-7.07-5.22-11-7.78a8.82,8.82,0,0,0-9.85.28c.14-3.34,4.69-4.82,7.79-3.56s5.24,4.09,7.81,6.22,6.24,3.52,9,1.82l.2-.14c3.29-2.27,7.7.62,10.27,3.69l.93,1.11c2.35,2.8,5,5.7,8.54,5.43,3.23-.25,6-3.26,9.19-2.78,4.66.71,6.57,8.23,11.26,7.72a11,11,0,0,1,8.41,2.71Zm2.42-15.74a13.79,13.79,0,0,1-2.26,2.54l-.26.21-.63-.45c-3.07-2.18-6.42-4.3-10.15-4.21-1.36,0-2.76.36-4.06,0-3.48-1-4.3-6.28-7.8-7.19s-6.8,3.2-10.25,2.26c-2.35-.63-3.45-3.23-4.75-5.28s-3.93-3.81-5.83-2.52l-.16.12c-2.64,2.08-6.6.76-9.26-1.3s-4.92-4.83-8.11-5.89c1.67-1.66,4.58-.45,6.2,1.25s3,4,5.2,4.64c3.46,1.05,7.35-2.16,10.61-.61,2,1,2.85,3.34,4.07,5.23s3.85,3.47,5.58,2c4.18-3.49,11.66-1.28,13.27,3.92.47,1.51,2.48,1.86,4,1.56s3.14-1,4.65-.5c1.92.6,2.9,2.83,4.75,3.62s4.22-.22,5.5-1.88l.13-.18C448.35,142.1,447.86,144.77,446.84,146.2Z"/><path class="cls-3" d="M406.58,185.88l.58.16a5.49,5.49,0,0,1,2,1.17l.34.29.42.39.54.47a8.79,8.79,0,0,0,4.56,1.84,6.44,6.44,0,0,0,4.19-.81l.63-.3c2.82-1.36,4.46-1.74,7.11-1.14a5.36,5.36,0,0,1,4.14,3.05l.22.43c.4.85,1.7,1.62,2.73,2.24.77.46,1.39.83,1.36,1.06-.08.55-4.85-.33-5.8-2.23l-.2-.42a3.47,3.47,0,0,0-2.9-2.18c-2-.46-3.23-.22-5.48.84l-.63.3c-2.28,1.1-3.67,1.46-5.69,1.14a10.76,10.76,0,0,1-5.51-2.28l-.29-.24-.84-.76a3.89,3.89,0,0,0-1.52-.94l-.34-.1c-1.39-.41-4.59.65-6.91,1.42-1.47.49-2.58.86-2.71.68C396.36,189.59,403.8,185.13,406.58,185.88Zm-.34,15.19.54.15a5.21,5.21,0,0,1,1.89,1l.31.26.4.35.49.41a8.46,8.46,0,0,0,4.23,1.62,6.24,6.24,0,0,0,3.89-.72l.58-.26c2.62-1.2,4.14-1.53,6.6-1a5,5,0,0,1,3.84,2.67l.19.39a6.83,6.83,0,0,0,2.54,2c.72.41,1.29.73,1.26.94-.07.48-4.49-.3-5.37-2l-.2-.38a3.19,3.19,0,0,0-2.68-1.91,7.06,7.06,0,0,0-5.08.74l-.58.26a8.33,8.33,0,0,1-5.28,1,10.13,10.13,0,0,1-5.11-2l-.28-.21-.77-.67a3.74,3.74,0,0,0-1.42-.83l-.3-.08c-1.3-.36-4.26.57-6.42,1.25h0a7.12,7.12,0,0,1-2.5.6C396.76,204.34,403.66,200.42,406.24,201.07Zm1,16.15-.5-.15c-2.44-.65-9,3.27-8.72,3.6.1.15,1.08-.18,2.36-.6,2-.68,4.84-1.61,6.06-1.25l.29.08a3.5,3.5,0,0,1,1.34.83l.73.67.26.21a9.27,9.27,0,0,0,4.83,2,7.49,7.49,0,0,0,5-1l.55-.26a6.35,6.35,0,0,1,4.8-.74,3,3,0,0,1,2.53,1.91l.18.38c.84,1.66,5,2.44,5.08,2,0-.21-.51-.53-1.19-.94a6.39,6.39,0,0,1-2.39-2l-.19-.39a4.71,4.71,0,0,0-3.63-2.67c-2.32-.53-3.75-.2-6.22,1l-.55.26a5.63,5.63,0,0,1-3.68.72,7.72,7.72,0,0,1-4-1.62c-.15-.12-.29-.25-.47-.41l-.37-.35-.3-.26A4.9,4.9,0,0,0,407.23,217.22Zm-.5,18.85.5.15a4.9,4.9,0,0,1,1.79,1l.3.26.37.35c.18.16.32.29.47.41a7.72,7.72,0,0,0,4,1.62,5.63,5.63,0,0,0,3.68-.72l.55-.26c2.47-1.2,3.9-1.53,6.22-1a4.71,4.71,0,0,1,3.63,2.67l.19.39a6.39,6.39,0,0,0,2.39,2c.68.41,1.22.73,1.19.94-.07.48-4.24-.3-5.08-2l-.18-.38a3,3,0,0,0-2.53-1.91,6.35,6.35,0,0,0-4.8.74l-.55.26a7.49,7.49,0,0,1-5,1,9.27,9.27,0,0,1-4.83-2l-.26-.21-.73-.67a3.5,3.5,0,0,0-1.34-.83l-.29-.08c-1.22-.36-4,.57-6.06,1.25-1.28.42-2.26.75-2.36.6C397.78,239.34,404.29,235.42,406.73,236.07Zm2,19.15-.54-.15c-2.58-.65-9.48,3.27-9.23,3.6a7.12,7.12,0,0,0,2.5-.6h0c2.16-.68,5.12-1.61,6.42-1.25l.3.08a3.74,3.74,0,0,1,1.42.83l.77.67.28.21a10.13,10.13,0,0,0,5.11,2,8.33,8.33,0,0,0,5.28-1l.58-.26a7.06,7.06,0,0,1,5.08-.74,3.19,3.19,0,0,1,2.68,1.91l.2.38c.88,1.66,5.3,2.44,5.37,2,0-.21-.54-.53-1.26-.94a6.83,6.83,0,0,1-2.54-2l-.19-.39a5,5,0,0,0-3.84-2.67c-2.46-.53-4-.2-6.6,1l-.58.26a6.24,6.24,0,0,1-3.89.72,8.46,8.46,0,0,1-4.23-1.62l-.49-.41-.4-.35-.31-.26A5.21,5.21,0,0,0,408.78,255.22Zm4.91,17.43.55.06a5.12,5.12,0,0,1,2.05.68l.35.2.45.27.56.31a8.38,8.38,0,0,0,4.44.87,6.34,6.34,0,0,0,3.71-1.38l.53-.37c2.37-1.63,3.81-2.22,6.32-2.12a5,5,0,0,1,4.24,2l.27.35A6.65,6.65,0,0,0,440,275h0c.78.28,1.4.5,1.41.7,0,.49-4.48.49-5.64-1l-.25-.34a3.17,3.17,0,0,0-3-1.41,7,7,0,0,0-4.88,1.6l-.53.37a8.39,8.39,0,0,1-5,1.9,10.26,10.26,0,0,1-5.38-1.09l-.31-.16-.88-.52a3.53,3.53,0,0,0-1.54-.57l-.31,0c-1.34-.12-4.1,1.31-6.11,2.35-1.25.66-2.22,1.16-2.36,1C404.92,277.51,411,272.46,413.69,272.65Zm12.62,13-.45,0c-2.12.24-6.34,4.91-6.07,5.07s.83-.44,1.75-1.11c1.46-1.07,3.46-2.55,4.53-2.65l.26,0a3,3,0,0,1,1.28.19l.76.26.26.07a8.47,8.47,0,0,0,4.38,0,7.09,7.09,0,0,0,3.74-2.15l.37-.35a6.07,6.07,0,0,1,3.66-1.92,2.55,2.55,0,0,1,2.52.61l.25.21c1.09.93,4.64.26,4.56-.1,0-.15-.54-.22-1.19-.31a5.37,5.37,0,0,1-2.42-.69l-.25-.21a3.94,3.94,0,0,0-3.59-.83,7.78,7.78,0,0,0-4.74,2.52l-.37.34a5.26,5.26,0,0,1-2.76,1.58,7,7,0,0,1-3.62,0,5,5,0,0,1-.48-.15l-.39-.13-.3-.1A4.31,4.31,0,0,0,426.31,285.6Zm10.55,9,.45,0a4.31,4.31,0,0,1,1.69.2l.3.1.39.13a5,5,0,0,0,.48.15,7,7,0,0,0,3.62,0,5.26,5.26,0,0,0,2.76-1.58l.37-.34a7.78,7.78,0,0,1,4.74-2.52,3.94,3.94,0,0,1,3.59.83l.25.21a5.37,5.37,0,0,0,2.42.69c.65.09,1.16.16,1.19.31.08.36-3.47,1-4.57.1l-.24-.21a2.55,2.55,0,0,0-2.52-.61,6.07,6.07,0,0,0-3.66,1.92l-.37.35a7.09,7.09,0,0,1-3.74,2.15,8.47,8.47,0,0,1-4.38,0l-.26-.07-.76-.26a3,3,0,0,0-1.28-.19l-.26,0c-1.07.1-3.07,1.58-4.53,2.65-.92.67-1.62,1.19-1.75,1.11S434.74,294.89,436.86,294.65Zm14.52,9.68-.35.1c-1.65.5-4.37,4.82-4.13,4.91s.6-.46,1.24-1.13c1-1.07,2.41-2.53,3.25-2.76l.2-.05a2.41,2.41,0,0,1,1.05,0l.64.1.22,0a7,7,0,0,0,3.51-.61,5.86,5.86,0,0,0,2.68-2.26l.25-.33a4.85,4.85,0,0,1,2.66-2,2,2,0,0,1,2.1.13l.22.13c1,.59,3.75-.45,3.64-.72s-.47-.11-1-.09a4.31,4.31,0,0,1-2-.2l-.23-.14a3.2,3.2,0,0,0-3-.15,6.32,6.32,0,0,0-3.43,2.68l-.25.33a4.39,4.39,0,0,1-2,1.65,5.67,5.67,0,0,1-2.88.52l-.41-.05-.33,0-.25,0A3.58,3.58,0,0,0,451.38,304.33Zm10.77,8.18.35-.1a3.53,3.53,0,0,1,1.38-.08l.26,0,.33.05.4.05a5.72,5.72,0,0,0,2.89-.52,4.49,4.49,0,0,0,2-1.65L470,310a6.32,6.32,0,0,1,3.43-2.68,3.2,3.2,0,0,1,3,.15l.23.14a4.34,4.34,0,0,0,2,.2c.53,0,.95,0,1,.09s-2.63,1.31-3.64.72l-.22-.14a2.07,2.07,0,0,0-2.1-.12,4.83,4.83,0,0,0-2.65,2l-.25.33a5.88,5.88,0,0,1-2.69,2.26,7,7,0,0,1-3.5.61l-.22,0-.64-.1a2.46,2.46,0,0,0-1.06,0l-.2,0c-.84.23-2.23,1.69-3.25,2.76-.64.67-1.13,1.18-1.23,1.13S460.49,313,462.15,312.51Zm13.35,7.9-.35.1c-1.66.5-4.37,4.82-4.13,4.91s.59-.46,1.23-1.13c1-1.07,2.41-2.53,3.25-2.76l.2,0a2.46,2.46,0,0,1,1.06,0l.64.1.22,0a7,7,0,0,0,3.5-.61,5.88,5.88,0,0,0,2.69-2.26l.25-.33a4.83,4.83,0,0,1,2.65-2,2.07,2.07,0,0,1,2.1.12l.22.14c1,.59,3.75-.45,3.64-.72s-.46-.11-1-.09a4.34,4.34,0,0,1-2-.2l-.23-.14a3.2,3.2,0,0,0-3-.15A6.32,6.32,0,0,0,483,318l-.25.33a4.49,4.49,0,0,1-2,1.65,5.72,5.72,0,0,1-2.89.52l-.4-.05-.33-.05-.26,0A3.53,3.53,0,0,0,475.5,320.41Z"/></svg>