<svg xmlns="http://www.w3.org/2000/svg" viewBox="0 0 156.56 136.48"><defs><style>.cls-1{isolation:isolate;}.cls-2{fill:#eceff1;mix-blend-mode:multiply;}.cls-3{fill:#a3c9a8;}.cls-4{fill:#2e86ab;}.cls-5{fill:#fff;}.cls-6{fill:#3a3a3a;}.cls-7{fill:#1a1a1a;}</style></defs><g class="cls-1"><g id="Layer_1" data-name="Layer 1"><path class="cls-2" d="M3.48,125.45c2.48,3.51,8.73,5.74,11.94,6.4,10.08,2.05,21.75-.11,31.92-.7,12.85-.74,25.71-1.36,38.59-1.31,12.19,0,23.74,1.8,35.79,3.36,7.61,1,15.73,1.48,23.1-1.09,3.75-1.3,8.69-4.9,8.43-9.34-.58-9.69-16.34-7.53-22.18-6.83-22.52,2.68-45.3-.06-67.9.54-7.73.21-15.59.18-23.36-.3-7.35-.45-14.58-1.22-22-1.22-4.79,0-12-.18-14.68,4.85A5.05,5.05,0,0,0,3.48,125.45Z"/><path class="cls-3" d="M116.05,91.89l-6.25,1.55-1.62-2.71L72.06,28.57,50,93,18.86,83.36l24.75,40.92s26.12,1.54,40.2,1.54c15,0,36.92-1.54,36.92-1.54L153.58,82Z"/><path class="cls-4" d="M89.69,52.21l-.06,9.54s10-2.63,15.15-5.6a95.47,95.47,0,0,0,9.25-6s-2.88-9.14-3.47-14.29c-.47-4.05-.67-3.63-.67-3.63a14.52,14.52,0,0,0,8.71,1.85c4.9-.58,7.43-3.22,8.45-7.1A33.25,33.25,0,0,0,128,17.4c-.1-1.55-.15-2-.15-2l-6.39-.64s1,10-3.52,10.6c0,0-1.68.94-6-1.93a69.9,69.9,0,0,0-10.69-6.07L103.72,43,95.14,17.81l-2.69,2.12s-7,1.91-10.81,6.9a24.61,24.61,0,0,0-4.81,15.7c.24,4.44,2.33,12.11,7.93,17.24l4.77-7.46s-4.77-6.17-5.47-10.41,1.44-6.13,3.36-6.69Z"/><path class="cls-5" d="M104.09,11l-.85,0a2.08,2.08,0,0,1-.25-.88.67.67,0,0,1,.22-.55l.81,0,0-.52-.58-2.34a4,4,0,0,0-3.2-1,16.9,16.9,0,0,0-3.31.58,10.7,10.7,0,0,0-.41,3.82s-1-1.38-2.13-.77S93.1,12,95,12.78l0,4.91.66,1.81a10.88,10.88,0,0,0,3.53.59,2.66,2.66,0,0,0,2-1.16l-.07-1.52A3.19,3.19,0,0,0,104,16.25C104.89,14.89,104.09,11,104.09,11Z"/><path class="cls-5" d="M86.84,56.53l2.61-4.06a11.18,11.18,0,0,1,2.53-.6,1.5,1.5,0,0,1,1.55,1.07A9.57,9.57,0,0,1,94.18,55s1.51,1.32,1.35,1.61-1.35,0-2.17-.24-1.69.41-3,.58S87.6,57.2,86.84,56.53Z"/><polygon class="cls-6" points="122.05 84.38 122.46 87.32 123.93 87.1 124.17 86.43 124.89 86.99 135.15 86.32 129.58 83.81 122.05 84.38"/><path class="cls-5" d="M100.89,3.24c-2-.63-4.66-.47-6.09,1.46a2.26,2.26,0,0,0-1.65,2.17,5.05,5.05,0,0,0,.76,2.91s.89-1.15,1.88-.28l.36.19s-.41-2.12.15-3.1a7.05,7.05,0,0,1,3.4-.89,8.75,8.75,0,0,1,3.65.85l.55,1.39a17.88,17.88,0,0,0-.15-1.87C103.58,4.8,102.94,3.86,100.89,3.24Z"/><path class="cls-5" d="M90.85,61.4l-2,34.36L101,92.86l5.16-29.41s6.12-1.64,9.16-1.44,3.92,1.61,4.14,3.36c.14,1.07.06,19.08.06,19.08l12.35-.85-.73-22.5s.82-5.68-4.53-8.12a41.07,41.07,0,0,0-12.39-3,42.21,42.21,0,0,1-13,7.65C93.27,60.62,90.85,61.4,90.85,61.4Z"/><path class="cls-3" d="M130,10.54c0-1,.13-1.15.13-1.15l-16.3,0-.17.52-10.54.17c-.36.53.17,1.49.17,1.49l10.32.15.3.55,16.79-.09A2.29,2.29,0,0,1,130,10.54Z"/><path class="cls-5" d="M127.1,9s.1-1-2.17-1.1-2.8.1-3.11.27-1.29.33-1.21,2l-.46,1.6s.75,2.41,2.23,3.07l4.22.36.58-3.44-5.13,0,.32-1.05a.91.91,0,0,0,1,.58c.79,0,1-1.14,1-1.14s.21,1.19,1.22,1.14,1-.63,1-.63-.69-1,0-1.56Z"/><path class="cls-5" d="M131.26,10.57c0,.8-.22,1.46-.5,1.46s-.5-.66-.5-1.46.22-1.46.5-1.46S131.26,9.76,131.26,10.57Z"/><path class="cls-5" d="M127.94,84.74l2.86-.25c0-.27-2.87,0-2.87,0C127.81,84.69,127.87,84.74,127.94,84.74Z"/><path class="cls-5" d="M129.18,85.32l2.87-.25c0-.28-2.88,0-2.88,0C129.05,85.26,129.12,85.32,129.18,85.32Z"/><polygon class="cls-3" points="97.98 23.8 98.81 25.07 99.75 31.52 102.8 40.3 101.61 28.87 100.3 24.67 100.41 22.96 98.71 21.04 97.98 23.8"/><path class="cls-5" d="M82.9,16H37l6.87-.72s-.58-3.07,3.43-3.89,4.76,2.31,4.76,2.31S50,8.87,58.94,8.56s8.06,5,8.06,5-.41-1.14,2.49-1.28a2.73,2.73,0,0,1,3.15,2.31Z"/><path class="cls-5" d="M43,40.79H24.11l6.25-1.39s.06-1.86,3.58-2,3.23,2.35,3.23,2.35Z"/><path class="cls-5" d="M112.24,44.1l4.69-.57s-1.52-4,3.8-4.81a6,6,0,0,1,6.84,3.92s.19-1.33,3.62-1.33A4.48,4.48,0,0,1,135.56,44L147,45.38l-34.29.1Z"/><path class="cls-7" d="M39,61.18c.25-.15.25-.29.16-.38l-2.27-2.27a.22.22,0,0,0-.31.31l2.27,2.27A.23.23,0,0,0,39,61.18Z"/><path class="cls-7" d="M36.77,61.18c.16-.07,2.43-2.34,2.43-2.34a.22.22,0,0,0-.31-.31L36.62,60.8a.21.21,0,0,0,0,.31A.23.23,0,0,0,36.77,61.18Z"/><path class="cls-7" d="M40.87,56.63a.87.87,0,1,1,.87.87A.87.87,0,0,1,40.87,56.63Zm.44,0a.43.43,0,1,0,.85,0,.43.43,0,0,0-.85,0Z"/><path class="cls-7" d="M142.16,20.06a.87.87,0,1,1,.87.87A.87.87,0,0,1,142.16,20.06Zm.44,0a.43.43,0,1,0,.43-.43A.43.43,0,0,0,142.6,20.06Z"/><path class="cls-7" d="M131.63,74.31h10a.22.22,0,0,0,0-.44h-10a.22.22,0,1,0,0,.44Z"/><path class="cls-7" d="M78,127.92c14.42,0,35.38-1.53,35.59-1.54.31-.31,33-45.29,33-45.29-.24-.34-14.75,3.52-14.75,3.52a.22.22,0,0,0-.16.27A.23.23,0,0,0,132,85l13.92-3.71-32.43,44.61c-1.64.12-21.57,1.54-35.45,1.54-17.05,0-39.61-1.42-41.43-1.54L12.2,85.58l58.13,15.09c.11,0,54.62-13.46,54.62-13.46a.24.24,0,0,0,.17-.27.22.22,0,0,0-.27-.16L70.38,100.23,11.78,85c-.24.32,24.51,41.25,24.51,41.25C36.7,126.39,60.33,127.92,78,127.92Z"/><path class="cls-7" d="M43.33,93.65C43.54,93.51,65,31,65,31L90,74a.21.21,0,0,0,.3.08.22.22,0,0,0,.08-.3L65.11,30.34c-.4,0-22,63-22,63a.22.22,0,0,0,.14.28Z"/><path class="cls-7" d="M75.51,99.4a.23.23,0,0,0,.22-.25L68.26,54.27,86.47,96.49a.22.22,0,0,0,.29.11.21.21,0,0,0,.11-.29L68,52.44a.21.21,0,0,0-.26-.13.22.22,0,0,0-.16.25l7.76,46.66A.22.22,0,0,0,75.51,99.4Z"/><path class="cls-7" d="M76.72,127.92c.17,0,.24-.15.21-.27L70.6,100.41a.24.24,0,0,0-.27-.17.23.23,0,0,0-.16.27l6.33,27.24A.23.23,0,0,0,76.72,127.92Z"/><path class="cls-7" d="M17.8,74.31H50a.22.22,0,1,0,0-.44H17.8a.22.22,0,0,0,0,.44Z"/><path class="cls-7" d="M104.21,74.31H119.6a.22.22,0,0,0,0-.44H104.21a.22.22,0,0,0,0,.44Z"/><path class="cls-7" d="M120.56,10.87a.21.21,0,0,0,.21-.23,2.4,2.4,0,0,1,.51-1.86,2.59,2.59,0,0,1,2-.66h.35c1,0,3.16-.11,3.31.82a.21.21,0,0,0,.25.18.22.22,0,0,0,.18-.25c-.2-1.31-2.6-1.23-3.76-1.19h-.33a3,3,0,0,0-2.28.8,2.83,2.83,0,0,0-.62,2.19A.21.21,0,0,0,120.56,10.87Z"/><path class="cls-7" d="M125.42,11.46c1.18,0,1.24-.82,1.24-.83-.06-.17-.58-1,0-1.49a.21.21,0,0,0,0-.31.22.22,0,0,0-.31,0,1.4,1.4,0,0,0-.22,1.85c0,.12-.22.39-.89.35a.82.82,0,0,1-.59-.23.91.91,0,0,1-.18-.63.21.21,0,0,0-.19-.23.21.21,0,0,0-.25.17s-.18.92-.87.92a.65.65,0,0,1-.73-.53.22.22,0,0,0-.44.06,1.09,1.09,0,0,0,1.16.91,1.22,1.22,0,0,0,1-.58,1.26,1.26,0,0,0,1,.58Z"/><path class="cls-7" d="M122.46,87.54l1.51-.27a1.29,1.29,0,0,0,.26-.51l.54.41c.15,0,10.4-.63,10.4-.63.07-.43-5.49-2.93-5.49-2.93a.22.22,0,0,0-.18.4l4.76,2.14-9.29.62-.73-.56c-.35.12-.49.65-.49.65l-1.1.2-.38-2.71a.22.22,0,0,0-.44.06l.41,2.94C122.37,87.53,122.42,87.54,122.46,87.54Z"/><path class="cls-7" d="M101.35,17.62a3.21,3.21,0,0,0,2.27-.73c1.23-1.1,1-3.22.88-5.09l-.06-.64a.21.21,0,0,0-.23-.2.23.23,0,0,0-.21.23l.06.65c.15,1.77.33,3.77-.73,4.73-.7.62-1.86.76-3.56.43a.23.23,0,0,0-.26.18.22.22,0,0,0,.18.25A8,8,0,0,0,101.35,17.62Z"/><path class="cls-7" d="M104,9.81a.22.22,0,0,0,.22-.22,8.57,8.57,0,0,0-.62-3,.21.21,0,0,0-.28-.12.22.22,0,0,0-.12.29,8.6,8.6,0,0,1,.58,2.81A.22.22,0,0,0,104,9.81Z"/><path class="cls-7" d="M95,13a1.52,1.52,0,0,0,1-.42.23.23,0,0,0,0-.32.22.22,0,0,0-.31,0,1.08,1.08,0,0,1-.72.3,1.11,1.11,0,0,1-.86-.44A1.74,1.74,0,0,1,93.76,11,1.42,1.42,0,0,1,95,9.44a1.61,1.61,0,0,1,1.35.84.22.22,0,1,0,.41-.17A2,2,0,0,0,95,9a1.87,1.87,0,0,0-1.68,2,2.25,2.25,0,0,0,.47,1.4A1.53,1.53,0,0,0,95,13Z"/><path class="cls-7" d="M94.82,12.1c.13,0,1.18-.89,1.18-.89,0-.33-1.1-1.35-1.1-1.35a.22.22,0,0,0-.3.33l.93.84-.85.67a.22.22,0,0,0,0,.31A.23.23,0,0,0,94.82,12.1Z"/><path class="cls-7" d="M102.47,12.59c.34-.24.41-.57-.07-3,0-.37-.13-.45-.25-.46s-.23.1-.24.22a2.09,2.09,0,0,0,0,.33,14.91,14.91,0,0,1,.38,2.42,3.23,3.23,0,0,1-.64-.33.22.22,0,0,0-.31.06.24.24,0,0,0,.07.31,2.53,2.53,0,0,0,1,.43Z"/><path class="cls-7" d="M101.25,13.83a17.87,17.87,0,0,1,1.86-.14.21.21,0,0,0,.21-.23.21.21,0,0,0-.22-.21,18.45,18.45,0,0,0-1.88.14.21.21,0,0,0-.19.24A.23.23,0,0,0,101.25,13.83Z"/><path class="cls-7" d="M99.76,10.93a.24.24,0,0,0,.22-.25l0-.67a.24.24,0,0,0-.25-.23.25.25,0,0,0-.23.25l0,.67A.23.23,0,0,0,99.76,10.93Z"/><path class="cls-7" d="M93.9,10c.21-.07.25-.2.2-.31-.77-1.63-.93-2.94-.49-3.8a1.94,1.94,0,0,1,1.27-1c1.18-1.95,4.19-2.1,6.72-1.43,1.41.37,2.28,1,2.58,1.81a3.11,3.11,0,0,1-.46,2.48.21.21,0,0,0,.06.3.21.21,0,0,0,.3,0,3.44,3.44,0,0,0,.52-2.88c-.36-1-1.33-1.67-2.89-2.09-2.47-.65-5.76-.65-7,1.45a2.36,2.36,0,0,0-1.48,1.18c-.52,1-.36,2.41.48,4.19A.24.24,0,0,0,93.9,10Z"/><path class="cls-7" d="M96.49,10.21a.23.23,0,0,0,.22-.24,9.53,9.53,0,0,1,.37-3.45c.7-.2,4.83-1.29,6.17.32a.22.22,0,0,0,.31,0,.21.21,0,0,0,0-.31c-1.65-2-6.54-.48-6.75-.42A8.86,8.86,0,0,0,96.27,10,.23.23,0,0,0,96.49,10.21Z"/><path class="cls-7" d="M103.58,43.5S93.12,28.75,93.08,28.56l.85-2.86L91.37,25a.21.21,0,0,1-.16-.26s1.06-4.87,1.14-5,2.57-2.12,2.92-2c0,0,8.7,25.56,8.49,25.85A.21.21,0,0,1,103.58,43.5ZM92.69,20.05l-1,4.59a13.36,13.36,0,0,1,2.74,1l-.88,3L103.06,42,95,18.18Z"/><path class="cls-7" d="M103.54,43.39S101,17.54,101.28,17.32c0,0,2.85,1.33,2.94,1.4l3.16,4.5a.22.22,0,0,1-.06.31l-1.77,1.26s1.55,2.53,1.58,2.69c0,0-3.15,15.93-3.37,16.11Zm1.53-18.54a.22.22,0,0,1,.06-.3l1.76-1.25-3-4.28-2.44-1.14,2.38,24,2.85-14.39Z"/><path class="cls-7" d="M89.56,62a101.65,101.65,0,0,0,14.3-5.17,42.92,42.92,0,0,0,10.43-6.68,71.88,71.88,0,0,1-3.53-13.94c0-.07-1.23-6.94-1.89-9.78a.23.23,0,0,0-.27-.17.22.22,0,0,0-.16.27c.66,2.83,1.88,9.69,1.89,9.75a56.67,56.67,0,0,0,3.55,13.65,43,43,0,0,1-10.2,6.5,102.16,102.16,0,0,1-13.9,5.05l.15-4.4a.23.23,0,0,0-.45,0l-.14,4.71C89.46,62,89.51,62,89.56,62Z"/><path class="cls-7" d="M84.53,59.93c-.1-.09-9.6-9-7.8-21.86C78.44,25.88,86,21.86,92.42,19.72a.23.23,0,0,1,.28.14.23.23,0,0,1-.14.28c-6.29,2.1-13.72,6-15.4,18-1.62,11.58,6.16,20,7.48,21.29l4.54-7.07c-.87-1.08-6.54-8.4-5.31-13.52a4.91,4.91,0,0,1,3.77-3.65l2.3,17.13c0,.13-.06.24-.34.21,0,0-4.74,7.37-4.92,7.47A.2.2,0,0,1,84.53,59.93Zm-.23-21c-1.14,4.73,4.12,11.74,5.15,13L87.24,35.53A5,5,0,0,0,84.3,38.93Z"/><path class="cls-7" d="M117,25.77a5.44,5.44,0,0,0,.57,0c4.92-.47,4.07-10.53,4-11a.22.22,0,0,0-.44,0c0,.1.85,10.06-3.64,10.48-2.32.22-4.2-1.09-6.57-2.75a31.72,31.72,0,0,0-6.82-3.91.23.23,0,0,0-.29.13.21.21,0,0,0,.13.28,31.62,31.62,0,0,1,6.73,3.86C113,24.49,114.77,25.77,117,25.77Z"/><path class="cls-7" d="M117.08,34.35a14.18,14.18,0,0,0,4.84-.85c7.84-2.86,6.14-17.47,6.06-18.09-.19-.19-6.59-.83-6.59-.83a.22.22,0,0,0-.24.2.23.23,0,0,0,.2.24l6.21.62c.18,1.68,1.28,14.87-5.8,17.44a14,14,0,0,1-11.57-.94c-.3-.16-.38-.2-.5-.11A13.19,13.19,0,0,0,117.08,34.35Z"/><path class="cls-7" d="M100.88,93.08c.27-.46,5-27.16,5.39-29.44.57-.09,1.29-.25,2.11-.44,3.79-.86,9.51-2.15,10.69,1.24a6.92,6.92,0,0,1,.25,2.27v5.77q0,6,0,12c.24.22,12.57-.66,12.57-.66a.21.21,0,0,0,.21-.22c0-.18-.27-18.61-.88-25s-10.1-7.87-17-8.85a.23.23,0,0,0-.25.19.23.23,0,0,0,.19.25c6.78,1,16.07,2.26,16.65,8.45.57,6,.84,22.72.87,24.78l-11.89.85c0-3.93,0-7.86,0-11.78V66.71a7.19,7.19,0,0,0-.28-2.41c-1.3-3.76-7.26-2.42-11.2-1.53-.89.2-1.66.38-2.23.46-.17.07-.17.07-5.39,29.59a.23.23,0,0,0,.18.26Z"/><path class="cls-7" d="M88.79,96.09a.22.22,0,0,0,.22-.21l2-34.47a.22.22,0,1,0-.44,0l-2,34.47a.22.22,0,0,0,.21.23Z"/><path class="cls-7" d="M113,11.46c0-.33-9.64-.52-9.64-.52s-.15-.13-.15-.54.18-.54.19-.55l9.52-.18c0-.33-9.57-.14-9.57-.14s-.47.11-.47.87.43.87.48.87l9.64.19Z"/><path class="cls-7" d="M126.57,9.14h3.61c0-.33-3.61-.33-3.61-.33C126.41,9.06,126.48,9.14,126.57,9.14Z"/><path class="cls-7" d="M113.14,11.93h7c0-.33-6.89-.33-6.89-.33a3.81,3.81,0,0,1-.17-1.23,3.72,3.72,0,0,1,.16-1.23h7.6c0-.33-7.7-.33-7.7-.33-.17.11-.39.49-.39,1.56a3.63,3.63,0,0,0,.24,1.47A.15.15,0,0,0,113.14,11.93Z"/><path class="cls-7" d="M122,11.93h8.18c0-.33-8.18-.33-8.18-.33C121.83,11.86,121.91,11.93,122,11.93Z"/><path class="cls-7" d="M129.54,10.37c0-.75.2-1.56.64-1.56s.64.81.64,1.56-.2,1.56-.64,1.56S129.54,11.12,129.54,10.37Zm.33,0c0,.81.23,1.23.31,1.23s.31-.42.31-1.23-.23-1.23-.31-1.23S129.87,9.56,129.87,10.37Z"/><path class="cls-7" d="M106.08,63.67a.22.22,0,0,0,.21-.2l.55-4.33a.23.23,0,0,0-.19-.25.22.22,0,0,0-.25.19l-.54,4.34a.22.22,0,0,0,.19.25Z"/><path class="cls-7" d="M95.06,18a.22.22,0,0,0,.22-.22l-.09-5a.22.22,0,0,0-.22-.22.22.22,0,0,0-.22.22l.09,5A.22.22,0,0,0,95.06,18Z"/><path class="cls-7" d="M98.66,20.31c2.17-.16,2.81-1.26,2.84-1.31s-.1-1.61-.1-1.61a.22.22,0,0,0-.24-.2.22.22,0,0,0-.2.24l.12,1.41a2.9,2.9,0,0,1-2.22,1,8.6,8.6,0,0,1-3.11-.61.22.22,0,0,0-.21.39A9.2,9.2,0,0,0,98.66,20.31Z"/><path class="cls-7" d="M122.17,15c.25-.23.21-.37.1-.42-1.11-.54-1.77-2.46-1.89-2.83a7.42,7.42,0,0,1,1.06-2.27,1.24,1.24,0,0,1,.62,1.18c-.16.52-.32,1-.32,1a.22.22,0,0,0,.13.28.22.22,0,0,0,.28-.14s.17-.5.33-1a1.82,1.82,0,0,0-.63-1.65.54.54,0,0,0-.68,0,8,8,0,0,0-1.23,2.54c0,.23.74,2.61,2.13,3.3Z"/><path class="cls-7" d="M126.6,15.46a24.54,24.54,0,0,0,.72-3.57.22.22,0,0,0-.19-.25.21.21,0,0,0-.25.18l-.5,3.39a.23.23,0,0,0,.19.25Z"/><path class="cls-7" d="M99.12,9.44h1.1a.22.22,0,1,0,0-.44h-1.1a.22.22,0,0,0,0,.44Z"/><path class="cls-7" d="M102.73,9.44h1.1a.22.22,0,1,0,0-.44h-1.1a.22.22,0,0,0,0,.44Z"/><path class="cls-7" d="M88.82,57.33a10.84,10.84,0,0,0,3-.55,5.44,5.44,0,0,1,1-.23,5.24,5.24,0,0,1,1,.23c.77.22,1.43.41,1.75.1a.41.41,0,0,0,.13-.32c0-.51-.93-1.31-1.29-1.61-.13-.47-.77-2.6-1.55-3.11s-3.27.32-3.55.42a.22.22,0,0,0,.16.42c1-.36,2.64-.81,3.15-.47s1.2,2.24,1.39,2.93c.71.63,1.27,1.27,1.25,1.44s-.87-.09-1.32-.22a5.47,5.47,0,0,0-1.15-.25,4.79,4.79,0,0,0-1.11.25c-1.23.35-3.31,1-4.54.06a.22.22,0,0,0-.31.06.21.21,0,0,0,0,.3A3.25,3.25,0,0,0,88.82,57.33Z"/><path class="cls-7" d="M104.13,74.31h15.39a.22.22,0,1,0,0-.44H104.13a.22.22,0,0,0,0,.44Z"/><path class="cls-7" d="M97.59,25.24c.16-.12,1.6-4.82,1.6-4.82l2.44,3.38c.27-.19-2.37-3.84-2.37-3.84C99,20,97.43,25,97.43,25,97.56,25.24,97.58,25.24,97.59,25.24Z"/><path class="cls-7" d="M34.24,81.18h7.11a.22.22,0,0,0,0-.44H34.24a.22.22,0,0,0,0,.44Z"/><path class="cls-7" d="M134.11,113.48h15.45a.22.22,0,1,0,0-.44H134.11a.22.22,0,1,0,0,.44Z"/><path class="cls-7" d="M143.65,117.72h5.17a.22.22,0,0,0,0-.44h-5.17a.22.22,0,0,0,0,.44Z"/><path class="cls-7" d="M15.13,131.64H28.25a.22.22,0,0,0,.22-.22.22.22,0,0,0-.22-.22H15.13a.22.22,0,0,0-.23.22A.22.22,0,0,0,15.13,131.64Z"/><path class="cls-7" d="M108.93,133.63h13.12a.22.22,0,1,0,0-.44H108.93a.22.22,0,0,0,0,.44Z"/><path class="cls-7" d="M5.34,109.93H13a.22.22,0,0,0,.22-.22.22.22,0,0,0-.22-.22H5.34a.22.22,0,0,0-.22.22A.22.22,0,0,0,5.34,109.93Z"/><path class="cls-7" d="M11.73,113.79h3.4a.22.22,0,1,0,0-.44h-3.4a.22.22,0,1,0,0,.44Z"/><path class="cls-7" d="M100.83,34.94c.17-.19-1.33-10.29-1.33-10.29s-1.12-1.77-1.12-1.77c-.28.18.8,1.85.8,1.85l1.49,10.07A.16.16,0,0,0,100.83,34.94Z"/><path class="cls-7" d="M102.34,29.27a43.12,43.12,0,0,0-1.34-5l.11-1.67c-.33,0-.44,1.68-.44,1.68s1.51,4.9,1.51,4.9A.16.16,0,0,0,102.34,29.27Z"/><path class="cls-7" d="M99.34,24.84l1.54-.41c-.09-.32-1.58.08-1.58.08C99.2,24.79,99.27,24.84,99.34,24.84Z"/><path class="cls-7" d="M94.15,55.28c.25-.2.22-.34.11-.4a2.39,2.39,0,0,0-.76-.3,3.78,3.78,0,0,0-1.26.1.23.23,0,0,0-.16.27.22.22,0,0,0,.27.16,3.19,3.19,0,0,1,1.06-.1,2.4,2.4,0,0,1,.62.24A.27.27,0,0,0,94.15,55.28Z"/><path class="cls-7" d="M35.49,14.76a.23.23,0,0,1,.2-.23l6.65-.7c0-.77.12-3.19,3.63-3.91a6.88,6.88,0,0,1,1.31-.14,3.68,3.68,0,0,1,3.06,1.37A3.18,3.18,0,0,1,51,9.35c1-1.41,3.28-2.19,6.66-2.3l.73,0c2.94,0,5.08.65,6.35,1.92a4.18,4.18,0,0,1,1.19,2.4,4.89,4.89,0,0,1,2.53-.58,2.92,2.92,0,0,1,3.09,2.35l10.11,1.41a.22.22,0,0,1,.19.23.23.23,0,0,1-.22.21H35.71A.24.24,0,0,1,35.49,14.76Zm35.6-1.43a2.5,2.5,0,0,0-2.92-2.11c-1.71.09-2.14.53-2.25.74s0,.36-.45.4a.72.72,0,0,1,0-.48,3.77,3.77,0,0,0-1.1-2.62c-1.19-1.18-3.22-1.78-6-1.78h-.72c-3.24.11-5.36.82-6.31,2.12A3,3,0,0,0,51,12.39a.23.23,0,0,1-.15.26c-.11,0-.23,0-.36-.39a3.22,3.22,0,0,0-3.2-2,6,6,0,0,0-1.22.13c-3.74.77-3.28,3.52-3.45,3.9L40,14.53H78.41S71.28,13.53,71.09,13.33Z"/><path class="cls-7" d="M22.57,39.52a.22.22,0,0,1,.17-.24l6.1-1.36c.1-.5.68-1.91,3.77-2a3.61,3.61,0,0,1,2.9.93,2.28,2.28,0,0,1,.56,1.45l5.61,1a.22.22,0,0,1,.18.24.23.23,0,0,1-.22.2H22.79A.22.22,0,0,1,22.57,39.52Zm13.24-.81a.21.21,0,0,1-.18-.24,1.86,1.86,0,0,0-.45-1.31,3.2,3.2,0,0,0-2.56-.79c-3.24.09-3.36,1.67-3.54,2l-4.3,1h14.3Z"/><path class="cls-7" d="M112.43,44.81h33a.22.22,0,0,0,.21-.21.21.21,0,0,0-.19-.23L134.16,43a4.76,4.76,0,0,0-4.52-2.73c-2.29,0-3.21.6-3.58,1.05a6.15,6.15,0,0,0-6.91-3.63,5,5,0,0,0-3.75,2.1,3.63,3.63,0,0,0-.3,2.74l-3.19.44a.23.23,0,0,0-.19.25.2.2,0,0,0,.25.18l3.44-.47c.18-.31-.34-1.69.37-2.92a4.56,4.56,0,0,1,3.44-1.89,5.81,5.81,0,0,1,6.6,3.78c.43-.05.68-1.18,3.82-1.18a4.25,4.25,0,0,1,4.16,2.56c.18.15,7.94,1.07,7.94,1.07H112.43a.22.22,0,0,0-.22.22A.22.22,0,0,0,112.43,44.81Z"/></g></g></svg>