<?xml version="1.0" encoding="utf-8"?>
<!-- Generator: Adobe Illustrator 26.0.1, SVG Export Plug-In . SVG Version: 6.00 Build 0)  -->
<svg version="1.1" id="Layer_1" xmlns="http://www.w3.org/2000/svg" xmlns:xlink="http://www.w3.org/1999/xlink" x="0px" y="0px"
	 viewBox="0 0 43.3 43.2" style="enable-background:new 0 0 43.3 43.2;" xml:space="preserve">
<style type="text/css">
	.st0{fill:none;stroke:#313159;stroke-width:1.07;stroke-miterlimit:10;}
	.st1{fill:none;stroke:#313159;stroke-width:1.07;}
	.st2{fill:#FC0053;stroke:#FC0053;stroke-width:1.07;stroke-miterlimit:10;}
	.st3{fill:none;stroke:#FC0053;stroke-width:1.07;stroke-miterlimit:10;}
</style>
<g id="Layer_3">
	<g id="GD">
		<g id="GD-2">
			<g id="Group_39">
				<line id="Line_24" class="st0" x1="7.8" y1="5.5" x2="19.9" y2="5.5"/>
				<path id="Path_110" class="st1" d="M23.7,5.5h11.8"/>
				<circle id="Ellipse_8" class="st2" cx="6.2" cy="5.6" r="1.8"/>
				<circle id="Ellipse_9" class="st2" cx="37.2" cy="5.6" r="1.8"/>
				<circle id="Ellipse_10" class="st3" cx="21.6" cy="22.4" r="1.8"/>
				<path id="Path_75" class="st0" d="M23.2,5.7c7,0.8,12.6,6.4,13.5,13.4"/>
				<path id="Path_77" class="st0" d="M6.5,18.8c1-7,6.6-12.4,13.7-13.1"/>
				<rect id="Rectangle_20" x="4.7" y="18.8" class="st2" width="3.6" height="3.6"/>
				<rect id="Rectangle_21" x="35" y="18.8" class="st2" width="3.6" height="3.6"/>
				<rect id="Rectangle_22" x="16.1" y="34.9" class="st0" width="11.1" height="4.6"/>
				<rect id="Rectangle_23" x="17.2" y="33.3" class="st0" width="8.7" height="1.6"/>
				<line id="Line_26" class="st3" x1="21.6" y1="9.8" x2="21.6" y2="21.1"/>
				<rect id="Rectangle_24" x="19.9" y="3.7" class="st2" width="3.6" height="3.6"/>
				<path id="Path_78" class="st0" d="M30,25.2L22.3,9.3h-1.4l-7.7,15.9c5.4,3.5,4.8,7.6,4.8,7.6v0.5h7v-0.5
					C25.1,32.7,24.6,28.7,30,25.2z"/>
			</g>
		</g>
	</g>
</g>
</svg>
