<?xml version="1.0" encoding="utf-8"?>
<!-- Generator: Adobe Illustrator 26.0.1, SVG Export Plug-In . SVG Version: 6.00 Build 0)  -->
<svg version="1.1" id="Layer_1" xmlns="http://www.w3.org/2000/svg" xmlns:xlink="http://www.w3.org/1999/xlink" x="0px" y="0px"
	 viewBox="0 0 100 100" style="enable-background:new 0 0 100 100;" xml:space="preserve">
<style type="text/css">
	.st0{fill:#F8DC8C;}
	.st1{fill:#FC1A3D;}
</style>
<path class="st0" d="M91.1,50c0,24.8-20.2,44.9-44.9,44.9S1.4,74.8,1.4,50S21.5,5.1,46.3,5.1C71,5.2,91.1,25.2,91.1,50z"/>
<path class="st1" d="M98.2,18.1c0.1-1.4-0.6-2.8-1.8-3.3c-0.3-0.1-0.8-0.4-1.5-0.4c-0.9,0-1.7,0.3-2.4,1c-2.6,2-5.6,3.6-9,4.8
	c-3,1.2-6.6,1.5-10,0.4c-2.3-0.9-4.6-1.9-6.8-2.9c-3.2-1.6-6.6-2.6-10-3.1c-1.1-0.1-2.4-0.2-3.8-0.2h0c-9.3,0.1-18.1,3.1-25.6,8.6
	c-0.1-0.2-0.2-0.5-0.3-0.7L26.9,22c-0.6-1.1-1.7-1.8-2.8-1.8c-0.2,0-0.7,0-1.1,0.2c-1.6,0.5-2.5,2.1-2.2,3.7l0,0.1
	c0,0.1,0.1,0.3,0.1,0.4c0.1,0.2,0.1,0.4,0.2,0.6c0.9,2.4,1.7,4.9,2.6,7.3c1.4,3.8,2.7,7.6,4.1,11.5c1.8,5.1,3.6,10.1,5.5,15.2
	c1.8,5.1,3.6,10.1,5.4,15.2c1.3,3.7,2.7,7.4,4,11.1c1.3,3.7,2.6,7.4,4,11.1c0.4,1.4,1.7,2.4,3.2,2.4c0.3,0,0.5,0,0.7-0.1h0.2
	l0.3-0.1c0.9-0.3,1.5-1,1.9-1.8c0.3-0.7,0.3-1.5,0.1-2.2l0-0.2L53,94.4c-0.4-1.1-0.8-2.1-1.2-3.3c-1.7-4.8-3.4-9.7-5.1-14.4L45.3,73
	c1.5-1.3,3.3-2.7,5.2-3.8c3-1.9,6.5-3.1,10-3.2l0.3,0c3.4,0.1,6.7,0.7,9.9,1.7c2.9,1,5.9,1.6,8.8,1.8l1.5,0
	c5.2-0.1,10.3-1.3,15.2-3.6c1.4-0.6,2.2-2,2.1-3.4V18.1z M43.1,66l-8.6-24.1c-1.5-4-2.9-8.1-4.4-12.2c0.2-0.1,0.4-0.3,0.6-0.4
	c4.2-3.4,9.1-5.8,14.3-6.9c2.4-0.5,5.1-0.9,7.9-1c1,0,2,0.1,3.1,0.2c2.7,0.4,5.3,1.2,7.8,2.5l1,0.5c2.1,1,4.3,1.9,6.4,2.8
	c1.9,0.7,4.2,1.1,6.6,1.1c0,0,0,0,0,0c2.8-0.1,5.5-0.6,8.2-1.6c1.7-0.6,3.4-1.4,5.2-2.3v35.9c-3.2,1.4-6.7,2.1-10.3,2.2h-1.1
	c-2.4-0.2-4.7-0.7-7-1.4c-3.7-1.2-7.7-1.9-11.9-2h-0.4c-5.7,0-10.5,2.4-13.6,4.2C45.5,64.2,44.3,65.1,43.1,66z"/>
</svg>
