<?xml version="1.0" encoding="utf-8"?>
<!-- Generator: Adobe Illustrator 26.0.1, SVG Export Plug-In . SVG Version: 6.00 Build 0)  -->
<svg version="1.1" id="Layer_1" xmlns="http://www.w3.org/2000/svg" xmlns:xlink="http://www.w3.org/1999/xlink" x="0px" y="0px"
	 viewBox="0 0 100 100" style="enable-background:new 0 0 100 100;" xml:space="preserve">
<style type="text/css">
	.st0{fill:none;stroke:#A3C9A8;stroke-width:5;stroke-linecap:round;stroke-miterlimit:10;}
	.st1{fill:#875053;}
</style>
<g>
	<g>
		<path class="st0" d="M4.1,61.1c8.4,0.2,8.3,4.2,16.7,4.3c8.4,0.2,8.5-3.8,16.8-3.7c8.4,0.2,8.3,4.2,16.7,4.3
			c8.4,0.2,8.5-3.8,16.8-3.7s8.3,4.2,16.7,4.3"/>
	</g>
	<g>
		<path class="st0" d="M4.1,46.1c8.4,0.2,8.3,4.2,16.7,4.3c8.4,0.2,8.5-3.8,16.8-3.7c8.4,0.2,8.3,4.2,16.7,4.3
			c8.4,0.2,8.5-3.8,16.8-3.7s8.3,4.2,16.7,4.3"/>
	</g>
	<g>
		<path class="st0" d="M4.1,31.1c8.4,0.2,8.3,4.2,16.7,4.3c8.4,0.2,8.5-3.8,16.8-3.7c8.4,0.2,8.3,4.2,16.7,4.3
			c8.4,0.2,8.5-3.8,16.8-3.7s8.3,4.2,16.7,4.3"/>
	</g>
	<g>
		<path class="st0" d="M4.1,16.1c8.4,0.2,8.3,4.2,16.7,4.3c8.4,0.2,8.5-3.8,16.8-3.7c8.4,0.2,8.3,4.2,16.7,4.3
			c8.4,0.2,8.5-3.8,16.8-3.7c8.4,0.2,8.3,4.2,16.7,4.3"/>
	</g>
</g>
<path class="st1" d="M55.4,21.2c1.1,0,2.2,0.1,3.3,0.2c2.9,0.4,5.7,1.3,8.3,2.6l1,0.5c2.1,1,4.2,1.9,6.3,2.7c1.9,0.7,4,1,6,1
	c2.6-0.1,5.2-0.6,7.7-1.5s4.9-2,7.2-3.5v14.3l0,0v9.3c0,5.3,0,10.6,0,15.9c-3.7,1.7-7.7,2.6-11.8,2.7c-0.4,0-0.8,0-1.2,0
	c-2.5-0.2-5-0.7-7.4-1.5c-3.7-1.2-7.5-1.8-11.4-1.9H63c-5.4,0-9.9,2.3-12.8,4c-1.9,1.1-3.6,2.4-5.3,3.8l-3-8.4
	c-2.1-5.9-4.2-11.8-6.3-17.7c-1.6-4.4-3.2-8.9-4.8-13.4c0.5-0.2,1-0.5,1.5-0.9c4.4-3.5,9.4-6,14.9-7.2
	C49.8,21.6,52.6,21.2,55.4,21.2 M55.4,17.2c-3.1,0-6.2,0.4-9.2,1.1c-6,1.4-11.7,4.1-16.5,8c-0.1,0.1-0.3,0.2-0.5,0.2
	s-0.3-0.2-0.4-0.5c-0.2-0.7-0.5-1.3-0.7-2c-0.3-0.6-0.9-1-1.5-1c-0.2,0-0.4,0-0.5,0.1c-0.9,0.2-1.5,1.1-1.3,2c0.1,0.3,0.2,0.7,0.3,1
	c2.2,6.2,4.5,12.5,6.7,18.8c3.6,10.1,7.3,20.3,10.9,30.4c2.7,7.4,5.3,14.9,8,22.3c0.2,0.8,0.9,1.4,1.8,1.4c0.2,0,0.4-0.1,0.6-0.1
	c1-0.4,1.4-1.5,1-2.5v-0.1c-0.4-1.1-0.8-2.2-1.2-3.4c-2.1-6.1-4.3-12.1-6.5-18.2c-0.2-0.5-0.1-1.1,0.3-1.4c1.7-1.5,3.6-2.9,5.5-4.1
	c3.3-2,6.8-3.4,10.8-3.4h0.3c3.5,0.1,7,0.7,10.3,1.8c2.7,0.9,5.6,1.5,8.4,1.7c0.5,0,1,0,1.4,0c5.1-0.1,10-1.3,14.6-3.5
	c0.8-0.3,1.3-1.2,1.2-2c0-7.4,0-14.9,0-22.3l0,0c0-7.4,0-14.8,0-22.2c0.1-0.8-0.3-1.6-1-1.9c-0.2-0.1-0.5-0.2-0.8-0.2
	c-0.5,0-1,0.2-1.4,0.6c-2.8,2.2-6,3.9-9.4,5.1c-2,0.8-4.2,1.2-6.4,1.2c-1.6,0-3.2-0.3-4.7-0.8c-2.4-0.9-4.7-1.9-6.9-3
	c-3-1.5-6.2-2.5-9.5-2.9C58,17.3,56.7,17.2,55.4,17.2L55.4,17.2z"/>
</svg>
