<svg id="Layer_1" data-name="Layer 1" xmlns="http://www.w3.org/2000/svg" viewBox="0 0 100 100"><defs><style>.cls-1{fill:#f9c3dc;}.cls-2{fill:#51a0a8;stroke:#51a0a8;stroke-miterlimit:10;stroke-width:3px;}</style></defs><path class="cls-1" d="M45.7,22.4A23.35,23.35,0,1,1,22.3,45.8h0A23.43,23.43,0,0,1,45.7,22.4M45.7.9A44.85,44.85,0,1,0,90.5,45.7h0A44.85,44.85,0,0,0,45.7.9Z"/><path class="cls-2" d="M52.94,19.94c1.1,0,2.2.1,3.3.2a26.76,26.76,0,0,1,8.3,2.6l1,.5q3.15,1.5,6.3,2.7a17.58,17.58,0,0,0,6,1,25.65,25.65,0,0,0,7.7-1.5,34.18,34.18,0,0,0,7.2-3.5v14.3h0v25.2a29.93,29.93,0,0,1-11.8,2.7h-1.2a31.37,31.37,0,0,1-7.4-1.5,40,40,0,0,0-11.4-1.9h-.4c-5.4,0-9.9,2.3-12.8,4a39.41,39.41,0,0,0-5.3,3.8l-3-8.4-6.3-17.7c-1.6-4.4-3.2-8.9-4.8-13.4a6,6,0,0,0,1.5-.9,36.28,36.28,0,0,1,14.9-7.2,36.81,36.81,0,0,1,8.2-1m0-4A41.77,41.77,0,0,0,27.24,25a.76.76,0,0,1-.5.2c-.2,0-.3-.2-.4-.5-.2-.7-.5-1.3-.7-2a1.75,1.75,0,0,0-1.5-1,.75.75,0,0,0-.5.1,1.7,1.7,0,0,0-1.3,2c.1.3.2.7.3,1,2.2,6.2,4.5,12.5,6.7,18.8,3.6,10.1,7.3,20.3,10.9,30.4,2.7,7.4,5.3,14.9,8,22.3a1.83,1.83,0,0,0,1.8,1.4c.2,0,.4-.1.6-.1a1.87,1.87,0,0,0,1-2.5V95c-.4-1.1-.8-2.2-1.2-3.4-2.1-6.1-4.3-12.1-6.5-18.2a1.2,1.2,0,0,1,.3-1.4,43.63,43.63,0,0,1,5.5-4.1,20.57,20.57,0,0,1,10.8-3.4h.3a35.94,35.94,0,0,1,10.3,1.8,34.81,34.81,0,0,0,8.4,1.7h1.4a35.21,35.21,0,0,0,14.6-3.5,2,2,0,0,0,1.2-2V40.24h0V18a1.81,1.81,0,0,0-1-1.9,1.88,1.88,0,0,0-.8-.2,2,2,0,0,0-1.4.6,32.94,32.94,0,0,1-9.4,5.1,17.32,17.32,0,0,1-6.4,1.2A15,15,0,0,1,73,22a71.75,71.75,0,0,1-6.9-3,29.07,29.07,0,0,0-9.5-2.9c-1.1-.1-2.4-.2-3.7-.2Z"/></svg>