<?xml version="1.0" encoding="utf-8"?>
<!-- Generator: Adobe Illustrator 26.0.1, SVG Export Plug-In . SVG Version: 6.00 Build 0)  -->
<svg version="1.1" id="Layer_1" xmlns="http://www.w3.org/2000/svg" xmlns:xlink="http://www.w3.org/1999/xlink" x="0px" y="0px"
	 viewBox="0 0 24 24" style="enable-background:new 0 0 24 24;" xml:space="preserve">
<style type="text/css">
	.st0{fill:#A3C9A8;stroke:#A3C9A8;stroke-width:0.75;stroke-miterlimit:10;}
</style>
<path class="st0" d="M10.2,1.9c0.9,0,2.5,0.5,3.2,0.8l0.3,0.1c0.6,0.3,1.1,0.5,1.7,0.7c0.5,0.2,1.1,0.3,1.6,0.3
	c0.7,0,1.4-0.2,2.1-0.4s1.4-0.6,2-1v4l0,0v6.9c-1,0.5-2.1,0.7-3.2,0.7h-0.3c-0.7-0.1-1.4-0.2-2-0.4c-1-0.3-2.1-0.5-3.1-0.5h-0.1
	c-1.2,0-2.5,0.4-3.5,1.1c-0.5,0.3-1,0.6-1.5,1l-0.8-2.3L4.8,8.1C4.3,6.8,3.9,5.6,3.4,4.4c0.1-0.1,0.3-0.1,0.4-0.2
	c1.2-1,2.6-1.7,4.1-2C8.7,2,9.4,1.9,10.2,1.9z M10.2,0.8c-2.5,0-5,0.9-7,2.5c0,0.1-0.1,0.1-0.2,0.1L2.9,3.3c0,0-0.1-0.5-0.2-0.7
	C2.6,2.5,2.5,2.4,2.3,2.4H2.2c-0.3,0-0.4,0.3-0.4,0.5V3c0,0.1,0,0.2,0.1,0.3C2.5,5,3.1,6.7,3.7,8.4c1,2.8,2,5.6,3,8.3
	c0.7,2,1.4,4.1,2.2,6.1C9,23,9.2,23.2,9.4,23.2h0.2c0.3-0.1,0.4-0.4,0.3-0.7l0,0l0,0c-0.1-0.3-0.2-0.6-0.3-0.9
	c-0.6-1.7-1.2-3.3-1.8-5c-0.1-0.1,0-0.3,0.1-0.4c0.5-0.4,1-0.8,1.5-1.1c0.9-0.6,1.9-0.9,3-0.9h0.1c1,0,1.9,0.2,2.8,0.5
	c0.7,0.2,1.5,0.4,2.3,0.5H18c1.4,0,2.8-0.4,4-1c0.2-0.1,0.4-0.3,0.3-0.6V7.4l0,0v-6c0-0.2-0.1-0.4-0.3-0.5c-0.1,0-0.1,0-0.2,0
	S21.5,1,21.4,1.1c-0.8,0.6-1.6,1.1-2.6,1.4c-0.6,0.2-1.2,0.3-1.8,0.3c-0.4,0-0.9-0.1-1.3-0.2c-0.7-0.2-1.3-0.4-1.9-0.8
	C12.3,0.8,10.2,0.8,10.2,0.8z"/>
</svg>
