<svg id="Layer_1" data-name="Layer 1" xmlns="http://www.w3.org/2000/svg" viewBox="0 0 24 24"><defs><style>.cls-1{fill:#00b2ac;stroke:#00b2ac;stroke-miterlimit:10;stroke-width:0.04px;}</style></defs><path class="cls-1" d="M10.19,1.88c.3,0,.61,0,.91.05a7.65,7.65,0,0,1,2.28.71l.27.14c.58.28,1.15.52,1.73.74A4.88,4.88,0,0,0,17,3.8a7.07,7.07,0,0,0,2.12-.42,8.75,8.75,0,0,0,2-1V6.35h0v6.91a8,8,0,0,1-3.24.74h-.32a8.22,8.22,0,0,1-2-.41,11.09,11.09,0,0,0-3.13-.52h-.11a6.94,6.94,0,0,0-3.51,1.1,10.73,10.73,0,0,0-1.46,1l-.82-2.3L4.76,8.05c-.44-1.21-.88-2.44-1.32-3.68a1.33,1.33,0,0,0,.41-.24,10,10,0,0,1,4.09-2,10.42,10.42,0,0,1,2.25-.27m0-1.1a11.48,11.48,0,0,0-7,2.49A.2.2,0,0,1,3,3.33s-.08-.06-.11-.14-.13-.35-.19-.55a.47.47,0,0,0-.41-.27.21.21,0,0,0-.14,0A.46.46,0,0,0,1.8,3a2.76,2.76,0,0,0,.08.27c.6,1.7,1.23,3.43,1.84,5.16,1,2.77,2,5.57,3,8.34.74,2,1.45,4.09,2.19,6.12a.51.51,0,0,0,.5.38l.16,0a.51.51,0,0,0,.28-.68v0c-.11-.3-.22-.6-.33-.93-.58-1.68-1.18-3.32-1.79-5a.34.34,0,0,1,.09-.38,10.83,10.83,0,0,1,1.5-1.12,5.67,5.67,0,0,1,3-.94h.08a9.73,9.73,0,0,1,2.83.5,9.58,9.58,0,0,0,2.3.46h.38a9.46,9.46,0,0,0,4-1,.53.53,0,0,0,.33-.55V7.45h0V1.35a.5.5,0,0,0-.27-.52.71.71,0,0,0-.22,0,.54.54,0,0,0-.39.16,8.84,8.84,0,0,1-2.58,1.4A4.73,4.73,0,0,1,17,2.67a4,4,0,0,1-1.29-.22c-.66-.25-1.29-.52-1.9-.82a8,8,0,0,0-2.6-.8c-.3,0-.66,0-1,0Z"/></svg>