<?xml version="1.0" encoding="utf-8"?>
<!-- Generator: Adobe Illustrator 26.0.1, SVG Export Plug-In . SVG Version: 6.00 Build 0)  -->
<svg version="1.1" xmlns="http://www.w3.org/2000/svg" xmlns:xlink="http://www.w3.org/1999/xlink" x="0px" y="0px"
	 viewBox="0 0 1200 415" style="enable-background:new 0 0 1200 415;" xml:space="preserve">
<style type="text/css">
	.st0{fill:#EADEDA;}
	.st1{fill:#EFECEE;}
	.st2{fill:#FC0053;}
	.st3{fill:#313159;}
	.st4{fill:#313159;stroke:#313159;stroke-width:0.1124;stroke-miterlimit:10;}
	.st5{fill:#FC0053;stroke:#FC0053;stroke-width:0.1124;stroke-miterlimit:10;}
	.st6{fill:none;stroke:#FC0053;stroke-width:3.7544;stroke-linecap:round;stroke-miterlimit:10;}
	.st7{fill:none;stroke:#313159;stroke-width:0.5363;stroke-miterlimit:10;}
	.st8{fill:none;stroke:#313159;stroke-width:1.0727;stroke-miterlimit:10;}
</style>
<g id="Layer_2">
	<rect class="st0" width="1200" height="415"/>
	<polygon class="st1" points="1200,0 1200,415 709.4,415 782.5,0 	"/>
	<polygon class="st2" points="393.2,0 311.2,415 0,415 0,0 	"/>
</g>
<g id="Layer_1">
	<g>
		<g>
			<path class="st3" d="M1056.1,161.6c-1.2-4.3-2.9-8.3-5.1-12c-2.2-3.7-4.8-7.1-7.8-10.2c-3-3.1-6.4-5.7-10.2-7.9
				c-3.7-2.2-7.7-3.9-12-5.1c-4.3-1.2-8.7-1.8-13.4-1.8h-1.4v20.1h1.4c4.2,0,8.1,0.8,11.7,2.4c3.7,1.6,6.9,3.7,9.6,6.5
				c2.7,2.7,4.9,5.9,6.4,9.6c1.6,3.6,2.3,7.6,2.3,11.7c0,4.2-0.8,8.1-2.3,11.7c-1.6,3.7-3.7,6.9-6.4,9.6c-2.7,2.7-5.9,4.9-9.6,6.4
				c-3.7,1.6-7.6,2.4-11.7,2.4h-10v-23h-20.3v43.1h30.3c4.6,0,9.1-0.6,13.4-1.8c4.3-1.2,8.3-2.9,12-5.1c3.7-2.2,7.1-4.8,10.2-7.9
				c3-3.1,5.7-6.4,7.8-10.2c2.2-3.7,3.9-7.7,5.1-12c1.2-4.3,1.8-8.7,1.8-13.4C1057.8,170.3,1057.3,165.9,1056.1,161.6z"/>
		</g>
		<g>
			<path class="st3" d="M938.5,205.1c-4.2,0-8.1-0.8-11.7-2.4c-3.7-1.6-6.9-3.7-9.6-6.4c-2.7-2.7-4.9-5.9-6.4-9.6
				c-1.6-3.7-2.3-7.6-2.3-11.7c0-4.2,0.8-8.1,2.3-11.7c1.6-3.6,3.7-6.8,6.4-9.6c2.7-2.7,5.9-4.9,9.6-6.5c3.7-1.6,7.6-2.4,11.7-2.4
				h1.4v-20.1h-1.4c-4.6,0-9.1,0.6-13.4,1.8c-4.3,1.2-8.3,2.9-12,5.1c-3.7,2.2-7.1,4.8-10.2,7.9c-3,3.1-5.7,6.4-7.8,10.2
				c-2.2,3.7-3.9,7.7-5.1,12c-1.2,4.3-1.8,8.7-1.8,13.4c0,4.6,0.6,9.1,1.8,13.4c1.2,4.3,2.9,8.3,5.1,12c2.2,3.7,4.8,7.1,7.8,10.2
				c3,3.1,6.4,5.7,10.2,7.9c3.7,2.2,7.7,3.9,12,5.1c4.3,1.2,8.7,1.8,13.4,1.8h30.3v-20.1H938.5z"/>
		</g>
		<polygon class="st2" points="997.6,124.7 997.6,182.1 977.3,182.1 977.4,144.8 939.8,144.8 939.8,124.7 		"/>
		<g>
			<g>
				<path class="st3" d="M897.9,263.6c-1,0.8-2.1,1.5-3.3,1.9c-1.2,0.4-2.5,0.7-3.7,0.7c-1,0-1.9-0.1-2.9-0.4
					c-0.9-0.3-1.8-0.6-2.6-1.1c-0.8-0.5-1.5-1-2.2-1.7c-0.7-0.7-1.2-1.4-1.7-2.2c-0.5-0.8-0.8-1.7-1.1-2.6c-0.3-0.9-0.4-1.9-0.4-2.9
					c0-1,0.1-1.9,0.4-2.9c0.3-0.9,0.6-1.8,1.1-2.6c0.5-0.8,1-1.5,1.7-2.2c0.7-0.7,1.4-1.2,2.2-1.7c0.8-0.5,1.7-0.8,2.6-1.1
					c0.9-0.3,1.9-0.4,2.9-0.4c1.3,0,2.5,0.2,3.7,0.7c1.2,0.4,2.3,1.1,3.3,1.9l-2.2,3.6c-0.6-0.7-1.3-1.2-2.2-1.5
					c-0.8-0.4-1.7-0.5-2.6-0.5c-0.9,0-1.8,0.2-2.6,0.5c-0.8,0.3-1.5,0.8-2.1,1.4c-0.6,0.6-1.1,1.3-1.4,2.1c-0.3,0.8-0.5,1.7-0.5,2.6
					c0,0.9,0.2,1.8,0.5,2.6c0.3,0.8,0.8,1.5,1.4,2.1c0.6,0.6,1.3,1.1,2.1,1.4c0.8,0.3,1.7,0.5,2.6,0.5c0.9,0,1.8-0.2,2.6-0.5
					c0.8-0.4,1.6-0.9,2.2-1.5L897.9,263.6z"/>
				<path class="st3" d="M906.7,265.7h-4.2v-20.9h8.4c0.8,0,1.5,0.1,2.2,0.3c0.7,0.2,1.4,0.5,2,0.8c0.6,0.4,1.2,0.8,1.7,1.3
					c0.5,0.5,0.9,1.1,1.3,1.7s0.6,1.3,0.8,2c0.2,0.7,0.3,1.4,0.3,2.2c0,0.7-0.1,1.4-0.3,2.1c-0.2,0.7-0.4,1.3-0.8,1.9
					c-0.3,0.6-0.7,1.2-1.2,1.7c-0.5,0.5-1,1-1.6,1.3l2.3,5.5h-4.4l-1.8-4.2l-4.7,0V265.7z M906.7,249v8.4h4.2c0.6,0,1.1-0.1,1.6-0.3
					c0.5-0.2,0.9-0.5,1.3-0.9c0.4-0.4,0.7-0.8,0.9-1.3c0.2-0.5,0.3-1.1,0.3-1.6c0-0.6-0.1-1.1-0.3-1.6c-0.2-0.5-0.5-1-0.9-1.3
					c-0.4-0.4-0.8-0.7-1.3-0.9c-0.5-0.2-1-0.3-1.6-0.3H906.7z"/>
				<path class="st3" d="M945,265.7h-4.2v-14.9c0-0.3-0.1-0.6-0.2-0.8c-0.1-0.3-0.3-0.5-0.5-0.7c-0.2-0.2-0.4-0.3-0.7-0.4
					c-0.3-0.1-0.5-0.2-0.8-0.2c-0.3,0-0.6,0.1-0.8,0.2c-0.3,0.1-0.5,0.3-0.7,0.4c-0.2,0.2-0.3,0.4-0.4,0.7c-0.1,0.3-0.2,0.5-0.2,0.8
					v14.9h-4.2v-14.9c0-0.3-0.1-0.6-0.2-0.8c-0.1-0.3-0.3-0.5-0.4-0.7c-0.2-0.2-0.4-0.3-0.7-0.4c-0.3-0.1-0.5-0.2-0.8-0.2
					c-0.3,0-0.6,0.1-0.8,0.2c-0.3,0.1-0.5,0.3-0.7,0.4c-0.2,0.2-0.3,0.4-0.4,0.7c-0.1,0.3-0.2,0.5-0.2,0.8v14.9h-4.2v-14.9
					c0-0.9,0.2-1.7,0.5-2.4c0.3-0.8,0.8-1.4,1.3-2c0.6-0.6,1.2-1,2-1.3c0.8-0.3,1.6-0.5,2.4-0.5c0.8,0,1.5,0.1,2.2,0.4
					c0.7,0.3,1.4,0.7,1.9,1.2c0.6-0.5,1.2-0.9,1.9-1.2c0.7-0.3,1.5-0.4,2.2-0.4c0.9,0,1.7,0.2,2.4,0.5c0.8,0.3,1.4,0.8,2,1.3
					c0.6,0.6,1,1.2,1.3,2c0.3,0.8,0.5,1.6,0.5,2.4V265.7z"/>
				<path class="st3" d="M967.7,263.6c-1,0.8-2.1,1.5-3.3,1.9c-1.2,0.4-2.5,0.7-3.7,0.7c-1,0-1.9-0.1-2.9-0.4
					c-0.9-0.3-1.8-0.6-2.6-1.1c-0.8-0.5-1.5-1-2.2-1.7c-0.7-0.7-1.2-1.4-1.7-2.2c-0.5-0.8-0.8-1.7-1.1-2.6c-0.3-0.9-0.4-1.9-0.4-2.9
					c0-1,0.1-1.9,0.4-2.9c0.3-0.9,0.6-1.8,1.1-2.6c0.5-0.8,1-1.5,1.7-2.2c0.7-0.7,1.4-1.2,2.2-1.7c0.8-0.5,1.7-0.8,2.6-1.1
					c0.9-0.3,1.9-0.4,2.9-0.4c1.3,0,2.5,0.2,3.7,0.7c1.2,0.4,2.3,1.1,3.3,1.9l-2.2,3.6c-0.6-0.7-1.3-1.2-2.2-1.5
					c-0.8-0.4-1.7-0.5-2.6-0.5c-0.9,0-1.8,0.2-2.6,0.5c-0.8,0.3-1.5,0.8-2.1,1.4c-0.6,0.6-1.1,1.3-1.4,2.1c-0.3,0.8-0.5,1.7-0.5,2.6
					c0,0.9,0.2,1.8,0.5,2.6c0.3,0.8,0.8,1.5,1.4,2.1c0.6,0.6,1.3,1.1,2.1,1.4c0.8,0.3,1.7,0.5,2.6,0.5c0.9,0,1.8-0.2,2.6-0.5
					c0.8-0.4,1.6-0.9,2.2-1.5L967.7,263.6z"/>
				<path class="st3" d="M999.7,255.3c0,1-0.1,1.9-0.4,2.8c-0.2,0.9-0.6,1.7-1.1,2.5c-0.5,0.8-1,1.5-1.6,2.1
					c-0.6,0.6-1.3,1.2-2.1,1.6c-0.8,0.5-1.6,0.8-2.5,1.1c-0.9,0.2-1.8,0.4-2.8,0.4H983v-20.9h6.3c1,0,1.9,0.1,2.8,0.4
					s1.7,0.6,2.5,1.1c0.8,0.5,1.5,1,2.1,1.6c0.6,0.6,1.2,1.3,1.6,2.1c0.5,0.8,0.8,1.6,1.1,2.5C999.6,253.4,999.7,254.3,999.7,255.3z
					 M995.5,255.3c0-0.9-0.2-1.7-0.5-2.4c-0.3-0.8-0.8-1.4-1.3-2c-0.6-0.6-1.2-1-2-1.3c-0.8-0.3-1.6-0.5-2.4-0.5h-2.1v12.5h2.1
					c0.9,0,1.7-0.2,2.4-0.5c0.8-0.3,1.4-0.8,2-1.3c0.6-0.6,1-1.2,1.3-2C995.4,256.9,995.5,256.1,995.5,255.3z"/>
				<path class="st3" d="M1003.5,251.1c0-0.9,0.2-1.7,0.5-2.4c0.3-0.8,0.8-1.4,1.3-2c0.6-0.6,1.2-1,2-1.3c0.8-0.3,1.6-0.5,2.4-0.5
					h9.6v4.2h-9.6c-0.3,0-0.6,0.1-0.8,0.2c-0.3,0.1-0.5,0.3-0.7,0.4c-0.2,0.2-0.3,0.4-0.4,0.7c-0.1,0.3-0.2,0.5-0.2,0.8
					c0,0.3,0.1,0.6,0.2,0.8c0.1,0.3,0.3,0.5,0.4,0.7c0.2,0.2,0.4,0.3,0.7,0.4c0.3,0.1,0.5,0.2,0.8,0.2h4.2c0.9,0,1.7,0.2,2.4,0.5
					c0.8,0.3,1.4,0.8,2,1.3c0.6,0.6,1,1.2,1.3,2c0.3,0.8,0.5,1.6,0.5,2.4c0,0.9-0.2,1.7-0.5,2.4c-0.3,0.8-0.8,1.4-1.3,2
					c-0.6,0.6-1.2,1-2,1.3c-0.8,0.3-1.6,0.5-2.4,0.5h-9.3v-4.2h9.3c0.3,0,0.6-0.1,0.8-0.2c0.3-0.1,0.5-0.3,0.7-0.4
					c0.2-0.2,0.3-0.4,0.4-0.7c0.1-0.3,0.2-0.5,0.2-0.8c0-0.3-0.1-0.6-0.2-0.8c-0.1-0.3-0.3-0.5-0.4-0.7c-0.2-0.2-0.4-0.3-0.7-0.4
					c-0.3-0.1-0.5-0.2-0.8-0.2h-4.2c-0.9,0-1.7-0.2-2.4-0.5c-0.8-0.3-1.4-0.8-2-1.3c-0.6-0.6-1-1.2-1.3-2
					C1003.7,252.8,1003.5,252,1003.5,251.1z"/>
				<path class="st3" d="M1041.9,263.6c-1,0.8-2.1,1.5-3.2,1.9c-1.2,0.4-2.4,0.7-3.7,0.7c-1,0-1.9-0.1-2.9-0.4
					c-0.9-0.3-1.8-0.6-2.6-1.1c-0.8-0.5-1.5-1-2.2-1.7c-0.7-0.7-1.2-1.4-1.7-2.2c-0.5-0.8-0.8-1.7-1.1-2.6c-0.3-0.9-0.4-1.9-0.4-2.9
					c0-1,0.1-1.9,0.4-2.9c0.3-0.9,0.6-1.8,1.1-2.6c0.5-0.8,1-1.5,1.7-2.2c0.7-0.7,1.4-1.2,2.2-1.7c0.8-0.5,1.7-0.8,2.6-1.1
					c0.9-0.3,1.9-0.4,2.9-0.4c1.3,0,2.5,0.2,3.7,0.7c1.2,0.4,2.3,1.1,3.2,1.9l-2.2,3.6c-0.6-0.6-1.4-1.1-2.2-1.5
					c-0.8-0.4-1.7-0.5-2.6-0.5c-0.9,0-1.8,0.2-2.6,0.5c-0.8,0.3-1.5,0.8-2.1,1.4c-0.6,0.6-1.1,1.3-1.4,2.1c-0.3,0.8-0.5,1.7-0.5,2.6
					c0,0.9,0.2,1.8,0.5,2.6c0.3,0.8,0.8,1.5,1.4,2.1c0.6,0.6,1.3,1.1,2.1,1.4c0.8,0.3,1.7,0.5,2.6,0.5c0.5,0,1-0.1,1.5-0.2
					c0.5-0.1,1-0.3,1.4-0.5v-5.9h4V263.6z"/>
				<path class="st3" d="M1064.1,265.7h-4.5l-8.1-13.8v13.8h-4.2v-20.9h4.5l8.1,13.8v-13.8h4.2V265.7z"/>
			</g>
		</g>
		<path class="st4" d="M901.9,286.8c-0.8,0-1.4-0.2-2-0.6c-0.5-0.4-1-0.9-1.3-1.6c-0.3-0.7-0.4-1.5-0.4-2.4v-0.2
			c0-1,0.1-1.9,0.4-2.7c0.3-0.8,0.7-1.4,1.3-1.8c0.6-0.4,1.2-0.6,2-0.6c0.6,0,1,0.1,1.5,0.3c0.4,0.2,0.8,0.5,1.1,0.9v-3.8l-1.4-0.2
			V273h1.4h1.7v12.2l1.4,0.2v1.1h-2.9l-0.1-1.1c-0.3,0.4-0.7,0.8-1.1,1C903,286.7,902.4,286.8,901.9,286.8z M902.3,285.4
			c0.5,0,0.9-0.1,1.3-0.3c0.3-0.2,0.6-0.6,0.9-1v-4.4c-0.2-0.4-0.5-0.7-0.9-0.9c-0.4-0.2-0.8-0.3-1.3-0.3c-0.5,0-1,0.2-1.3,0.5
			c-0.4,0.3-0.6,0.7-0.8,1.3c-0.2,0.5-0.3,1.2-0.3,1.9v0.2c0,0.9,0.2,1.7,0.6,2.3C900.9,285.1,901.5,285.4,902.3,285.4z"/>
		<path class="st4" d="M913,286.8c-0.9,0-1.6-0.2-2.3-0.6c-0.6-0.4-1.1-1-1.5-1.7c-0.4-0.7-0.5-1.5-0.5-2.5v-0.4
			c0-0.9,0.2-1.7,0.6-2.4c0.4-0.7,0.9-1.3,1.5-1.7c0.6-0.4,1.3-0.6,2-0.6c0.8,0,1.6,0.2,2.1,0.5c0.6,0.3,1,0.8,1.3,1.5
			c0.3,0.6,0.4,1.4,0.4,2.2v1.1h-6.1l0,0c0,0.6,0.1,1.1,0.3,1.6c0.2,0.5,0.5,0.8,0.9,1.1c0.4,0.3,0.8,0.4,1.4,0.4
			c0.6,0,1.1-0.1,1.5-0.2c0.4-0.2,0.8-0.4,1.1-0.7l0.7,1.1c-0.3,0.3-0.8,0.6-1.3,0.8C914.4,286.7,913.8,286.8,913,286.8z M910.5,281
			h4.3v-0.2c0-0.5-0.1-0.9-0.2-1.2c-0.2-0.4-0.4-0.6-0.7-0.8c-0.3-0.2-0.7-0.3-1.2-0.3c-0.4,0-0.7,0.1-1,0.3
			c-0.3,0.2-0.6,0.5-0.8,0.9C910.7,280,910.6,280.4,910.5,281L910.5,281z"/>
		<path class="st4" d="M921.8,286.8c-0.6,0-1.2-0.1-1.8-0.2c-0.6-0.1-1.1-0.3-1.8-0.6l0-2.2h1.3l0.3,1.3c0.3,0.1,0.6,0.2,0.9,0.3
			c0.3,0.1,0.6,0.1,1,0.1c0.7,0,1.2-0.1,1.5-0.4c0.3-0.3,0.5-0.6,0.5-1c0-0.4-0.2-0.7-0.5-0.9c-0.3-0.3-0.9-0.5-1.7-0.7
			c-1.1-0.3-2-0.6-2.5-1c-0.5-0.4-0.8-1-0.8-1.8c0-0.5,0.1-1,0.4-1.4c0.3-0.4,0.7-0.7,1.2-1c0.5-0.2,1.1-0.4,1.8-0.4
			c0.7,0,1.3,0.1,1.8,0.2c0.5,0.2,1,0.4,1.3,0.7l0.1,2.1h-1.3l-0.3-1.3c-0.2-0.2-0.4-0.3-0.7-0.3c-0.3-0.1-0.6-0.1-1-0.1
			c-0.5,0-1,0.1-1.3,0.4c-0.3,0.2-0.5,0.6-0.5,0.9c0,0.2,0,0.4,0.1,0.6c0.1,0.2,0.3,0.3,0.6,0.4c0.3,0.1,0.7,0.3,1.2,0.4
			c1.3,0.3,2.2,0.7,2.7,1.2c0.5,0.5,0.8,1.1,0.8,1.8c0,0.8-0.3,1.5-0.9,2C924,286.5,923,286.8,921.8,286.8z"/>
		<path class="st4" d="M926.8,286.6v-1.1l1.4-0.2v-6.7l-1.4-0.2v-1.1h3.1v8.1l1.4,0.2v1.1H926.8z M928.1,274.9V273h1.8v1.8H928.1z"
			/>
		<path class="st4" d="M936.7,290.4c-0.5,0-0.9-0.1-1.5-0.2c-0.5-0.1-1-0.3-1.4-0.5l0.4-1.3c0.3,0.2,0.7,0.3,1.1,0.4
			c0.4,0.1,0.9,0.2,1.3,0.2c0.8,0,1.3-0.2,1.7-0.6c0.4-0.4,0.5-1,0.5-1.8v-0.9c-0.3,0.4-0.7,0.7-1.1,0.9c-0.4,0.2-0.9,0.3-1.5,0.3
			c-0.8,0-1.4-0.2-2-0.6c-0.6-0.4-1-0.9-1.3-1.6c-0.3-0.7-0.4-1.5-0.4-2.4v-0.2c0-1,0.1-1.9,0.4-2.7c0.3-0.8,0.7-1.4,1.3-1.8
			c0.6-0.4,1.2-0.6,2-0.6c0.6,0,1.1,0.1,1.6,0.3c0.4,0.2,0.8,0.6,1.1,1l0.2-1.2h1.4v9.3c0,0.8-0.2,1.5-0.5,2.1
			c-0.3,0.6-0.7,1-1.3,1.4C938.2,290.2,937.5,290.4,936.7,290.4z M936.7,285.4c0.5,0,0.9-0.1,1.3-0.4c0.3-0.2,0.6-0.6,0.9-1v-4.3
			c-0.2-0.4-0.5-0.7-0.9-1c-0.4-0.2-0.8-0.4-1.3-0.4c-0.5,0-1,0.2-1.4,0.5c-0.4,0.3-0.6,0.7-0.8,1.3c-0.2,0.5-0.3,1.2-0.3,1.9v0.2
			c0,0.9,0.2,1.7,0.6,2.3C935.3,285.1,935.9,285.4,936.7,285.4z M940.3,278.6l-0.7-1.4h2.1v1.1L940.3,278.6z"/>
		<path class="st4" d="M942.6,286.6v-1.1l1.4-0.2v-6.7l-1.4-0.2v-1.1h3l0.1,1.4c0.3-0.5,0.7-0.9,1.2-1.2c0.5-0.3,1-0.4,1.6-0.4
			c1,0,1.8,0.3,2.4,0.9c0.6,0.6,0.8,1.5,0.8,2.8v4.6l1.4,0.2v1.1h-4.6v-1.1l1.4-0.2v-4.6c0-0.8-0.2-1.4-0.5-1.8
			c-0.3-0.3-0.8-0.5-1.5-0.5c-0.5,0-0.9,0.1-1.3,0.4c-0.4,0.2-0.7,0.6-0.9,1v5.5l1.4,0.2v1.1H942.6z"/>
		<path class="st4" d="M958.1,286.8c-0.6,0-1.2-0.1-1.8-0.2c-0.6-0.1-1.1-0.3-1.8-0.6l0-2.2h1.3l0.3,1.3c0.3,0.1,0.6,0.2,0.9,0.3
			c0.3,0.1,0.6,0.1,1,0.1c0.7,0,1.2-0.1,1.5-0.4c0.3-0.3,0.5-0.6,0.5-1c0-0.4-0.2-0.7-0.5-0.9c-0.3-0.3-0.9-0.5-1.7-0.7
			c-1.1-0.3-2-0.6-2.5-1c-0.5-0.4-0.8-1-0.8-1.8c0-0.5,0.1-1,0.4-1.4c0.3-0.4,0.7-0.7,1.2-1c0.5-0.2,1.1-0.4,1.8-0.4
			c0.7,0,1.3,0.1,1.8,0.2c0.5,0.2,1,0.4,1.3,0.7l0.1,2.1h-1.3l-0.3-1.3c-0.2-0.2-0.4-0.3-0.7-0.3c-0.3-0.1-0.6-0.1-1-0.1
			c-0.5,0-1,0.1-1.3,0.4c-0.3,0.2-0.5,0.6-0.5,0.9c0,0.2,0,0.4,0.1,0.6c0.1,0.2,0.3,0.3,0.6,0.4c0.3,0.1,0.7,0.3,1.2,0.4
			c1.3,0.3,2.2,0.7,2.7,1.2c0.5,0.5,0.8,1.1,0.8,1.8c0,0.8-0.3,1.5-0.9,2C960.3,286.5,959.4,286.8,958.1,286.8z"/>
		<path class="st4" d="M971,286.8c-0.7,0-1.2-0.2-1.7-0.6c-0.4-0.4-0.6-1.1-0.6-2v-5.7h-1.5v-1.3h1.5v-2.3h1.7v2.3h2v1.3h-2v5.7
			c0,0.5,0.1,0.8,0.3,1c0.2,0.2,0.4,0.3,0.7,0.3c0.2,0,0.4,0,0.7-0.1c0.2,0,0.4-0.1,0.6-0.1l0.2,1.1c-0.2,0.1-0.6,0.1-0.9,0.2
			C971.6,286.7,971.3,286.8,971,286.8z"/>
		<path class="st4" d="M973.8,286.6v-1.1l1.4-0.2v-10.9l-1.4-0.2V273h3.1v5.4c0.3-0.5,0.7-0.8,1.2-1.1s1-0.4,1.6-0.4
			c1,0,1.8,0.3,2.4,0.9c0.6,0.6,0.8,1.5,0.8,2.8v4.6l1.4,0.2v1.1h-4.6v-1.1l1.4-0.2v-4.6c0-0.8-0.2-1.4-0.5-1.7
			c-0.3-0.4-0.8-0.6-1.5-0.6c-0.5,0-0.9,0.1-1.3,0.3c-0.4,0.2-0.7,0.5-1,0.9v5.6l1.4,0.2v1.1H973.8z"/>
		<path class="st4" d="M988.5,286.8c-1,0-1.7-0.2-2.2-0.7s-0.8-1.2-0.8-2c0-0.6,0.2-1.1,0.5-1.6c0.3-0.4,0.8-0.8,1.4-1
			c0.6-0.2,1.4-0.4,2.2-0.4h1.7v-0.9c0-0.6-0.2-1-0.5-1.3s-0.8-0.5-1.5-0.5c-0.4,0-0.7,0-1,0.1c-0.3,0.1-0.6,0.2-0.8,0.4l-0.2,1.3
			H986v-2.2c0.4-0.3,0.9-0.6,1.5-0.8c0.6-0.2,1.2-0.3,1.9-0.3c1.1,0,2,0.3,2.7,0.8c0.6,0.5,1,1.3,1,2.3v4.5c0,0.1,0,0.2,0,0.4
			c0,0.1,0,0.2,0,0.3l0.9,0.1v1.1h-2.5c-0.1-0.3-0.1-0.5-0.1-0.7c0-0.2,0-0.4-0.1-0.6c-0.3,0.4-0.7,0.8-1.2,1.1
			C989.6,286.6,989,286.8,988.5,286.8z M988.7,285.3c0.6,0,1.1-0.1,1.6-0.4c0.5-0.3,0.8-0.6,1-1v-1.7h-1.7c-0.8,0-1.4,0.2-1.8,0.6
			c-0.4,0.4-0.6,0.8-0.6,1.3c0,0.4,0.1,0.7,0.4,0.9C987.8,285.2,988.2,285.3,988.7,285.3z"/>
		<path class="st4" d="M998.6,286.8c-0.7,0-1.2-0.2-1.7-0.6c-0.4-0.4-0.6-1.1-0.6-2v-5.7h-1.5v-1.3h1.5v-2.3h1.7v2.3h2v1.3h-2v5.7
			c0,0.5,0.1,0.8,0.3,1c0.2,0.2,0.4,0.3,0.7,0.3c0.2,0,0.4,0,0.7-0.1c0.2,0,0.4-0.1,0.6-0.1l0.2,1.1c-0.2,0.1-0.6,0.1-0.9,0.2
			C999.3,286.7,998.9,286.8,998.6,286.8z"/>
		<path class="st5" d="M1016.3,278.2h-1.9l-0.3-1.7c-0.2-0.2-0.6-0.4-0.9-0.6c-0.4-0.1-0.8-0.2-1.3-0.2c-1.1,0-2,0.4-2.5,1.2
			c-0.6,0.8-0.9,1.8-0.9,3.1v0.4c0,1.3,0.3,2.3,0.9,3.1c0.6,0.8,1.4,1.2,2.5,1.2c0.5,0,1-0.1,1.4-0.2c0.4-0.1,0.7-0.3,1-0.6l0.3-1.7
			h1.9v2.5c-0.5,0.6-1.2,1.1-2,1.4c-0.8,0.4-1.7,0.5-2.7,0.5c-1.7,0-3.1-0.6-4.2-1.8c-1.1-1.2-1.6-2.7-1.6-4.5v-0.4
			c0-1.8,0.5-3.4,1.6-4.5c1.1-1.2,2.5-1.8,4.2-1.8c1,0,1.9,0.2,2.7,0.5c0.8,0.4,1.4,0.8,2,1.4V278.2z"/>
		<path class="st5" d="M1017.2,274.6V273h3.9v11.8l1.2,0.3v1.5h-5v-1.5l1.2-0.3v-10L1017.2,274.6z"/>
		<path class="st5" d="M1023.1,285.1l1.2-0.3V279l-1.4-0.3v-1.5h3.9v7.6l1.2,0.3v1.5h-5V285.1z M1026.9,274.9h-2.5V273h2.5V274.9z"
			/>
		<path class="st5" d="M1033.4,284.8c0.5,0,0.8-0.1,1.1-0.4c0.3-0.3,0.4-0.6,0.4-1.1h2.3l0,0.1c0,1-0.3,1.7-1.1,2.4
			c-0.7,0.6-1.7,1-2.8,1c-1.4,0-2.5-0.4-3.2-1.3c-0.8-0.9-1.1-2-1.1-3.4v-0.3c0-1.4,0.4-2.5,1.2-3.4c0.8-0.9,1.9-1.3,3.3-1.3
			c0.8,0,1.4,0.1,2,0.3c0.6,0.2,1.1,0.5,1.5,1l0,2.5h-2.1l-0.4-1.5c-0.1-0.1-0.3-0.2-0.5-0.3c-0.2-0.1-0.4-0.1-0.6-0.1
			c-0.7,0-1.2,0.3-1.5,0.8c-0.3,0.5-0.4,1.2-0.4,2v0.3c0,0.8,0.1,1.5,0.4,2C1032.2,284.6,1032.7,284.8,1033.4,284.8z"/>
		<path class="st5" d="M1038.1,274.6V273h3.9v7.9h0.6l1.5-2.1l-0.8-0.1v-1.5h4.6v1.5l-1.1,0.3l-1.7,2.3l2.4,3.6l1,0.2v1.5h-4.4v-1.5
			l0.5-0.1l-1.4-2.3h-1.1v2.2l1.1,0.3v1.5h-4.9v-1.5l1.2-0.3v-10L1038.1,274.6z"/>
	</g>
	<g>
		<g>
			<circle class="st2" cx="731.4" cy="295.9" r="24.2"/>
			<line class="st6" x1="765.2" y1="260.9" x2="758.3" y2="269.1"/>
			<line class="st6" x1="776.5" y1="277.8" x2="766.9" y2="282.5"/>
			<line class="st6" x1="780" y1="297.8" x2="769.3" y2="298.1"/>
		</g>
		<g>
			<g>
				<g>
					<line class="st7" x1="273.2" y1="119.2" x2="322.5" y2="96.8"/>
					<g>
						<path class="st3" d="M323.1,98.3c0.8-0.4,1.2-1.3,0.8-2.1c-0.4-0.8-1.3-1.2-2.1-0.8c-0.8,0.4-1.2,1.3-0.8,2.1
							C321.3,98.3,322.3,98.6,323.1,98.3z"/>
					</g>
				</g>
			</g>
		</g>
		<g>
			<g>
				<g>
					<line class="st7" x1="731.4" y1="296.2" x2="573.7" y2="274.1"/>
					<g>
						<path class="st3" d="M574,272.5c-0.9-0.1-1.7,0.5-1.8,1.4c-0.1,0.9,0.5,1.7,1.4,1.8c0.9,0.1,1.7-0.5,1.8-1.4
							C575.5,273.4,574.9,272.6,574,272.5z"/>
					</g>
				</g>
			</g>
		</g>
		<g>
			<g>
				<g>
					<line class="st7" x1="383.8" y1="214.1" x2="377" y2="124.8"/>
					<g>
						<path class="st3" d="M385.4,213.9c0.1,0.9-0.6,1.7-1.5,1.7c-0.9,0.1-1.7-0.6-1.7-1.5c-0.1-0.9,0.6-1.7,1.5-1.7
							S385.3,213,385.4,213.9z"/>
					</g>
					<g>
						<path class="st3" d="M378.6,124.7c-0.1-0.9-0.8-1.6-1.7-1.5c-0.9,0.1-1.6,0.8-1.5,1.7c0.1,0.9,0.8,1.6,1.7,1.5
							C378,126.4,378.7,125.6,378.6,124.7z"/>
					</g>
				</g>
			</g>
		</g>
		<g>
			<g>
				<g>
					<line class="st7" x1="509" y1="180.2" x2="447.8" y2="242.2"/>
					<g>
						<path class="st3" d="M507.8,179.2c0.6-0.6,1.6-0.6,2.3,0c0.6,0.6,0.6,1.6,0,2.3s-1.6,0.6-2.3,0
							C507.2,180.8,507.2,179.8,507.8,179.2z"/>
					</g>
					<g>
						<path class="st3" d="M446.7,241c-0.6,0.6-0.6,1.7,0,2.3s1.7,0.6,2.3,0c0.6-0.6,0.6-1.7,0-2.3S447.4,240.4,446.7,241z"/>
					</g>
				</g>
			</g>
		</g>
		<g>
			<g>
				<g>
					<line class="st7" x1="509.2" y1="127.9" x2="623.3" y2="137.7"/>
					<g>
						<path class="st3" d="M509.2,129.5c-0.9-0.1-1.5-0.9-1.5-1.7c0.1-0.9,0.9-1.5,1.7-1.5c0.9,0.1,1.5,0.9,1.5,1.7
							C510.8,128.9,510,129.5,509.2,129.5z"/>
					</g>
					<g>
						<path class="st3" d="M623,139.3c0.9,0.1,1.7-0.6,1.7-1.5c0.1-0.9-0.6-1.7-1.5-1.7c-0.9-0.1-1.7,0.6-1.7,1.5
							C621.5,138.4,622.2,139.2,623,139.3z"/>
					</g>
				</g>
			</g>
		</g>
		
			<rect x="270.5" y="117.2" transform="matrix(0.8797 0.4755 -0.4755 0.8797 89.5243 -115.2809)" class="st3" width="4.3" height="4.3"/>
		<path class="st8" d="M273,119.6c51.2-23.1,103.2,3.1,106.8,48.5c3.7,46.6,67.5,75.2,106.9,34.9c24-24.5,21.1-75.2,64.9-70.8
			c73.4,7.4,23.4,141.6,179.8,163.6"/>
		
			<rect x="484.6" y="200.9" transform="matrix(0.8797 0.4755 -0.4755 0.8797 155.0625 -207.0186)" class="st2" width="4.3" height="4.3"/>
		
			<rect x="549.5" y="130.1" transform="matrix(0.8797 0.4755 -0.4755 0.8797 129.2106 -246.3699)" class="st2" width="4.3" height="4.3"/>
		<g>
			<path class="st3" d="M270.1,123.7c-0.3-0.7-0.7-1.3-1.1-2c-0.4,0.2-0.6,0.3-0.9,0.5c-8.4,4.7-16.9,9.3-25.3,14
				c-0.5,0.3-0.8,0.6-0.8,1.3c0.1,1.6-1,2.9-2.5,3.3c-1.4,0.4-3-0.3-3.7-1.6c-0.7-1.3-0.5-3,0.6-4c1.1-1.1,2.9-1.3,4.1-0.4
				c0.6,0.5,1,0.4,1.6,0c8.4-4.7,16.9-9.4,25.3-14c0.2-0.1,0.4-0.3,0.7-0.4c-0.3-0.6-0.7-1.1-0.9-1.7c-0.3-0.6-0.6-0.7-1.3-0.6
				c-12.1,1.8-24.1,3.5-36.2,5.3c-2.2,0.3-3.9,1.3-5.3,3c-3.8,4.4-7.5,8.8-11.3,13.2c-0.4,0.5-0.5,0.8-0.2,1.5
				c3.1,5.5,6.2,11.1,9.2,16.7c0.3,0.5,0.6,0.6,1.2,0.5c5.8-1,11.6-1.9,17.4-2.9c2-0.3,3.7-1.3,5-2.9c3.3-3.9,6.7-7.7,10-11.6
				c4.6-5.3,9.3-10.7,13.9-16.1C270,124.4,270.2,124,270.1,123.7z"/>
			<path class="st3" d="M204.2,144.8c3.4,6.1,6.7,12.1,10.1,18.2c2.2-1.2,4.3-2.4,6.5-3.6c-3.4-6.1-6.7-12.1-10.1-18.2
				C208.6,142.3,206.4,143.5,204.2,144.8z"/>
		</g>
		
			<rect x="377.7" y="165.9" transform="matrix(0.8797 0.4755 -0.4755 0.8797 125.5911 -160.3743)" class="st2" width="4.3" height="4.3"/>
	</g>
</g>
</svg>
