<svg id="Layer_1" data-name="Layer 1" xmlns="http://www.w3.org/2000/svg" viewBox="0 0 24 24"><defs><style>.cls-1{fill:none;}.cls-2{fill:#00b2ac;stroke:#00b2ac;stroke-miterlimit:10;stroke-width:0.07px;}</style></defs><rect class="cls-1" width="24" height="24"/><path class="cls-2" d="M.3,12H2.13a9.86,9.86,0,0,0,3.92,7.85,9.35,9.35,0,0,0,6.16,2A9.81,9.81,0,1,0,4.22,6L6.74,8.51l-.06.09H.32V2.28L2.79,4.75A11.64,11.64,0,0,1,12.22.31a11.28,11.28,0,0,1,7.63,3A11.69,11.69,0,0,1,7.58,22.82a11.44,11.44,0,0,1-5.89-5.29A11.39,11.39,0,0,1,.3,12Z"/><path class="cls-2" d="M11.1,5.55h1.82V6c0,1.71,0,3.42,0,5.13a1.07,1.07,0,0,0,.36.84c1.14,1.12,2.27,2.26,3.4,3.39l.25.26-1.3,1.3-.2-.18C14,15.35,12.66,14,11.29,12.59a.65.65,0,0,1-.21-.42c0-2.15,0-4.31,0-6.46A.61.61,0,0,1,11.1,5.55Z"/></svg>