<svg id="Layer_1" data-name="Layer 1" xmlns="http://www.w3.org/2000/svg" viewBox="0 0 100 100"><defs><style>.cls-1{fill:none;stroke:#a3c9a8;stroke-linecap:round;stroke-miterlimit:10;stroke-width:5px;}.cls-2{fill:#875053;}</style></defs><path class="cls-1" d="M4.1,61.1c8.4.2,8.3,4.2,16.7,4.3s8.5-3.8,16.8-3.7,8.3,4.2,16.7,4.3,8.5-3.8,16.8-3.7,8.3,4.2,16.7,4.3"/><path class="cls-1" d="M4.1,46.1c8.4.2,8.3,4.2,16.7,4.3s8.5-3.8,16.8-3.7,8.3,4.2,16.7,4.3,8.5-3.8,16.8-3.7,8.3,4.2,16.7,4.3"/><path class="cls-1" d="M4.1,31.1c8.4.2,8.3,4.2,16.7,4.3s8.5-3.8,16.8-3.7,8.3,4.2,16.7,4.3,8.5-3.8,16.8-3.7,8.3,4.2,16.7,4.3"/><path class="cls-1" d="M4.1,16.1c8.4.2,8.3,4.2,16.7,4.3s8.5-3.8,16.8-3.7,8.3,4.2,16.7,4.3,8.5-3.8,16.8-3.7,8.3,4.2,16.7,4.3"/><path class="cls-2" d="M41.8,85.51a18.07,18.07,0,0,0-.08-2.21,2,2,0,0,0-1-1.59A23.44,23.44,0,0,1,30,68.35a26.66,26.66,0,0,1-1.22-7,23.45,23.45,0,0,1,6.2-16.76,23.53,23.53,0,0,1,14.35-7.92,23.88,23.88,0,0,1,19.35,5.21,22.67,22.67,0,0,1,8.6,14.55c1.39,8.55-1,16-7.25,22.07a15.52,15.52,0,0,1-3.71,2.81c-1.54.78-1.77,2-1.64,3.46a60.74,60.74,0,0,1,0,6.88c0,.9-.69,1.35-1.51,1.55-2.46.58-4.93,1.15-7.39,1.71q-5.1,1.17-10.21,2.3a4.41,4.41,0,0,1-1.7.13,2.17,2.17,0,0,1-2-2.09,2.39,2.39,0,0,1,1.85-2.43c2.14-.51,4.3-1,6.44-1.47l8.72-2c.89-.21,1.17-.57,1.17-1.51,0-1.91,0-3.82,0-5.72a3.75,3.75,0,0,1,2.24-3.75,22.21,22.21,0,0,0,4.23-2.81,17.68,17.68,0,0,0,6.15-10.27,20.79,20.79,0,0,0-1.2-12.86,19.05,19.05,0,0,0-8.91-9.16A18.94,18.94,0,0,0,42,44.41a18.62,18.62,0,0,0-8.38,13.23,19.4,19.4,0,0,0,6.5,18,16.94,16.94,0,0,0,4.38,2.9,2.93,2.93,0,0,1,1.9,2.88c0,1.66,0,3.32,0,5a2.31,2.31,0,0,1-2,2.49,2.18,2.18,0,0,1-2.6-2.16Z"/><path class="cls-2" d="M50.34,71a2.34,2.34,0,0,1-1.86-.81c-2.4-2.45-4.8-4.89-7.14-7.39A2.19,2.19,0,0,1,42.54,59,2.66,2.66,0,0,1,45,60c1.61,1.67,3.21,3.34,4.79,5,.38.41.59.4,1,0q5.52-4.86,11.06-9.66c.82-.71,1.62-1.45,2.46-2.14A2.31,2.31,0,0,1,68.18,55a2.49,2.49,0,0,1-.92,1.74c-1.61,1.46-3.21,2.93-4.82,4.38-2.62,2.36-5.25,4.7-7.88,7.05-.78.69-1.55,1.4-2.34,2.07A2.56,2.56,0,0,1,50.34,71Z"/><path class="cls-2" d="M55.5,23.76v5.17a2.2,2.2,0,0,1-2.17,2.4,2.18,2.18,0,0,1-2.41-2.08,7.91,7.91,0,0,1-.07-1v-9a7.93,7.93,0,0,1,.07-1,2.29,2.29,0,0,1,4.57.27C55.5,20.28,55.5,22,55.5,23.76Z"/><path class="cls-2" d="M16.42,63.11c-1.71,0-3.41,0-5.11,0A2.31,2.31,0,0,1,9,59.92a2.25,2.25,0,0,1,2.31-1.48c3.39,0,6.77,0,10.16,0a2.36,2.36,0,0,1,2.43,3.13,2.23,2.23,0,0,1-2.33,1.54Z"/><path class="cls-2" d="M89.92,63.11h-5a2.3,2.3,0,0,1-2.47-2.88,2.2,2.2,0,0,1,2.31-1.79c3.42,0,6.85,0,10.27,0A2.34,2.34,0,1,1,95,63.1C93.28,63.12,91.6,63.11,89.92,63.11Z"/><path class="cls-2" d="M30.7,40.57A2.09,2.09,0,0,1,29,39.89q-3.72-3.69-7.4-7.39A2.22,2.22,0,0,1,21,30.1a2.39,2.39,0,0,1,1.91-1.64,2.13,2.13,0,0,1,1.9.65c2.48,2.45,5,4.89,7.39,7.39a2.31,2.31,0,0,1-.54,3.86A1.6,1.6,0,0,1,30.7,40.57Z"/><path class="cls-2" d="M82.93,28.74A2.31,2.31,0,0,1,85,30.18a2.06,2.06,0,0,1-.46,2.43c-.72.78-1.49,1.52-2.24,2.27-1.69,1.69-3.36,3.38-5.06,5a2.34,2.34,0,0,1-4-1,2,2,0,0,1,.68-2q3.11-3.36,6.43-6.52c.35-.32.67-.66,1-1A2.17,2.17,0,0,1,82.93,28.74Z"/></svg>