<svg id="Layer_1" data-name="Layer 1" xmlns="http://www.w3.org/2000/svg" viewBox="0 0 100 100"><defs><style>.cls-1{fill:none;stroke:#a3c9a8;stroke-linecap:round;stroke-miterlimit:10;stroke-width:5px;}.cls-2{fill:#ba727b;}</style></defs><path class="cls-1" d="M4.1,61.1c8.4.2,8.3,4.2,16.7,4.3s8.5-3.8,16.8-3.7,8.3,4.2,16.7,4.3,8.5-3.8,16.8-3.7,8.3,4.2,16.7,4.3"/><path class="cls-1" d="M4.1,46.1c8.4.2,8.3,4.2,16.7,4.3s8.5-3.8,16.8-3.7,8.3,4.2,16.7,4.3,8.5-3.8,16.8-3.7,8.3,4.2,16.7,4.3"/><path class="cls-1" d="M4.1,31.1c8.4.2,8.3,4.2,16.7,4.3s8.5-3.8,16.8-3.7,8.3,4.2,16.7,4.3,8.5-3.8,16.8-3.7,8.3,4.2,16.7,4.3"/><path class="cls-1" d="M4.1,16.1c8.4.2,8.3,4.2,16.7,4.3s8.5-3.8,16.8-3.7,8.3,4.2,16.7,4.3,8.5-3.8,16.8-3.7,8.3,4.2,16.7,4.3"/><path class="cls-2" d="M41.8,85.51a18.07,18.07,0,0,0-.08-2.21,2,2,0,0,0-1-1.59A23.43,23.43,0,0,1,30,68.35a26.44,26.44,0,0,1-1.22-7A23.42,23.42,0,0,1,35,44.59a23.52,23.52,0,0,1,14.35-7.92,23.89,23.89,0,0,1,19.35,5.21,22.63,22.63,0,0,1,8.6,14.55A23.9,23.9,0,0,1,70,78.5a15.39,15.39,0,0,1-3.71,2.81c-1.54.78-1.77,2-1.64,3.46a60.73,60.73,0,0,1,0,6.88c0,.9-.69,1.35-1.51,1.55-2.46.58-4.93,1.15-7.39,1.71q-5.1,1.17-10.21,2.3a4.43,4.43,0,0,1-1.7.13,2.18,2.18,0,0,1-2-2.09,2.39,2.39,0,0,1,1.85-2.43c2.14-.51,4.3-1,6.44-1.47l8.72-2c.89-.21,1.17-.57,1.17-1.51V82.12a3.76,3.76,0,0,1,2.24-3.75,22.05,22.05,0,0,0,4.23-2.81,17.67,17.67,0,0,0,6.15-10.27,20.72,20.72,0,0,0-1.2-12.86,19.05,19.05,0,0,0-8.91-9.16A18.94,18.94,0,0,0,42,44.41a18.61,18.61,0,0,0-8.38,13.23,19.4,19.4,0,0,0,6.5,18,16.85,16.85,0,0,0,4.38,2.9,2.93,2.93,0,0,1,1.9,2.88v5a2.3,2.3,0,0,1-2,2.49,2.18,2.18,0,0,1-2.56-1.72,2.12,2.12,0,0,1,0-.44Z"/><path class="cls-2" d="M50.34,71a2.32,2.32,0,0,1-1.86-.81c-2.4-2.45-4.8-4.89-7.14-7.39a2.19,2.19,0,0,1,1.2-3.8A2.65,2.65,0,0,1,45,60q2.41,2.51,4.79,5c.38.41.59.4,1,0q5.52-4.86,11.06-9.66c.82-.71,1.62-1.45,2.46-2.14a2.31,2.31,0,0,1,3.26.14A2.27,2.27,0,0,1,68.18,55a2.49,2.49,0,0,1-.92,1.74c-1.61,1.46-3.21,2.93-4.82,4.38-2.62,2.36-5.25,4.7-7.88,7.05-.78.69-1.55,1.4-2.34,2.07A2.56,2.56,0,0,1,50.34,71Z"/><path class="cls-2" d="M55.5,23.76v5.17a2.2,2.2,0,0,1-2,2.39h-.18a2.18,2.18,0,0,1-2.4-1.94s0-.09,0-.14a8.4,8.4,0,0,1-.07-1v-9a8.4,8.4,0,0,1,.07-1,2.29,2.29,0,0,1,4.57.27C55.5,20.28,55.5,22,55.5,23.76Z"/><path class="cls-2" d="M16.42,63.11H11.31A2.31,2.31,0,0,1,8.83,61,2.28,2.28,0,0,1,9,59.92a2.25,2.25,0,0,1,2.31-1.48H21.47A2.36,2.36,0,0,1,24,60.59a2.32,2.32,0,0,1-.12,1,2.22,2.22,0,0,1-2.33,1.54Z"/><path class="cls-2" d="M89.92,63.11h-5a2.29,2.29,0,0,1-2.53-2,2.16,2.16,0,0,1,.06-.84,2.21,2.21,0,0,1,2.31-1.79H95a2.34,2.34,0,0,1,.4,4.66,2.06,2.06,0,0,1-.43,0C93.28,63.12,91.6,63.11,89.92,63.11Z"/><path class="cls-2" d="M30.7,40.57a2.07,2.07,0,0,1-1.7-.68q-3.72-3.69-7.4-7.39a2.21,2.21,0,0,1-.6-2.4,2.39,2.39,0,0,1,1.91-1.64,2.15,2.15,0,0,1,1.9.65c2.48,2.45,5,4.89,7.39,7.39a2.31,2.31,0,0,1,.26,3.26,2.37,2.37,0,0,1-.8.6A1.62,1.62,0,0,1,30.7,40.57Z"/><path class="cls-2" d="M82.93,28.74A2.31,2.31,0,0,1,85,30.18a2.06,2.06,0,0,1-.46,2.43c-.72.78-1.49,1.52-2.24,2.27-1.69,1.69-3.36,3.38-5.06,5a2.34,2.34,0,0,1-3.31.16,2.31,2.31,0,0,1-.69-1.16,2,2,0,0,1,.68-2q3.1-3.36,6.43-6.52c.35-.32.67-.66,1-1A2.16,2.16,0,0,1,82.93,28.74Z"/></svg>