<svg id="Layer_1" data-name="Layer 1" xmlns="http://www.w3.org/2000/svg" viewBox="0 0 202.98 136.03"><defs><style>.cls-1{fill:#fff;}.cls-2{fill:#a3c9a8;}.cls-3{fill:#2e86ab;}.cls-4{fill:#ccc;}.cls-5{fill:#1a1a1a;}</style></defs><path class="cls-1" d="M194.51,48.35h-15.8l-7.17,4.54V36.11a4,4,0,0,1,4-4h19a4,4,0,0,1,4,4v8.23A4,4,0,0,1,194.51,48.35Z"/><path class="cls-1" d="M185.77,112.66a9.06,9.06,0,0,0,4.68,2.88c2.62.43,5.78.86,6.22,2.27l-.1.61H178.38A2.07,2.07,0,0,1,177,117C176.58,115.83,185,111.42,185.77,112.66Z"/><path class="cls-1" d="M143.11,41.06A13.52,13.52,0,0,1,144,44c0,.76,0,6.63,0,6.63s.43,3.54,2.79,3.61c0,0,.56.1.59.39s.26,1.37-.62,1.87-1.59,2.73-1.59,2.73l-1.81,12.6L142.93,85,141,93.91l18.91.18,4-8.26-3.7-27.42a3.37,3.37,0,0,1-2-1.19c-.89-1.06-1.7-.7-1.84-3.42s-.25-4.46-.25-4.46-.1-.64,1-.31,3-1,3.07-2.85-2-3.06-2-3.06l-2.86-4.74-4.68-2.66S142.82,38.27,143.11,41.06Z"/><path class="cls-2" d="M82.32,13.29H116A8.69,8.69,0,0,1,124.67,22V38.3A8.69,8.69,0,0,1,116,47H82.32a8.69,8.69,0,0,1-8.69-8.69V22a8.68,8.68,0,0,1,8.68-8.68Z"/><rect class="cls-2" x="18.27" y="48.44" width="64.6" height="48.45" rx="9.05"/><path class="cls-1" d="M79.87,68.35a5.1,5.1,0,1,1-5.1-5.09A5.1,5.1,0,0,1,79.87,68.35Z"/><path class="cls-1" d="M78.87,80c-4.24-.69-5.77.37-7.78,1a46.8,46.8,0,0,1-7.41,2c-3.18.49-5.34-.9-11-4.35s-6.45-4.08-9.24-4.08-6.72,2.6-10.13,4.53-8.44,4.78-8.77,5v8a9.39,9.39,0,0,0,9.36,9.37H79.78a9.4,9.4,0,0,0,9.37-9.37V82.09C85.28,81.27,81,80.38,78.87,80Z"/><path class="cls-3" d="M79.53,96.27s-10.3.63-16.76,3.26-12.19,3.87-16.89,8-5.35,7.78-5.74,10.11.34,6.31,5.4,7.42a41.15,41.15,0,0,0,13.22.94c5.38-.3,10.94-.7,10.94-.7a31.42,31.42,0,0,0,.13-7.69l11.34.8,14.51.49s2.36,6.47,4.19,6.45,11.36-.21,11.36-.21L123,113.84l-6.09-7.66s-4.54-3.34-14-6.31S88.69,96.5,88.69,96.5Z"/><path class="cls-1" d="M101.46,123.28s-3.9.66-5.67-1.79l-.53.89-2.12,3.94A2,2,0,0,1,91,127c-1.32-.38-.59-2.55-.59-2.55l.69-2.09-2,2.56s-1.3,1.84-2.55,1.16.18-2.8.18-2.8-2,1.17-2.74.62.06-2.56.68-3.33,3-4,4.39-4.73,5.7-.29,6.57-.2l5.31.56S102.2,122.08,101.46,123.28Z"/><path class="cls-1" d="M82.41,118.92s-.71-3.48-1.67-4.34a8.61,8.61,0,0,0-1.87-1.28l1.67,4.9L77,116l-1.64-3.54s-2,0-3.23.17a14.48,14.48,0,0,0-3.34,1.15,30.8,30.8,0,0,1,1.16,4.6c.1,1.35.09,3.81.09,3.81s2.92.94,4,1.17,3.93.85,4.9.3a8.09,8.09,0,0,0,2.4-.59,2.39,2.39,0,0,0,1-1.14s.39.1.77-.7S82.41,118.92,82.41,118.92Z"/><path class="cls-1" d="M95.09,74.43a6.34,6.34,0,0,0-4.17-.85,8.46,8.46,0,0,0-3.15,1.49,5.5,5.5,0,0,0-3.88-.79,3.92,3.92,0,0,0-3.7,2.88,12.23,12.23,0,0,0,0,5.24,3,3,0,0,0-1.35,2.23,2.79,2.79,0,0,0,2.62,3l-.15.54-2.46,8.07s1.61,7.26,5.92,7.73c3.45.38,3.82-4.14,3.82-4.14L90.2,95.2a2.88,2.88,0,0,0,2.94-1.79c.76-2,2.34-8.36,2.34-8.36a6.23,6.23,0,0,0,3-4.42C98.84,77.62,96.25,75,95.09,74.43Z"/><path class="cls-2" d="M138.14,85.48l-6.88-4.41L114.77,81a5.23,5.23,0,0,1-2.61-1.51,5.15,5.15,0,0,1-.93-3V67.93a4.58,4.58,0,0,1,4.2-3.16h19.25a6.23,6.23,0,0,1,2.62,1.69c1,1.19.84,3.88.84,3.88Z"/><path class="cls-1" d="M104.81,21c-.91-1.55-2.4-1.55-3.31,0l-7,12c-.91,1.55-.18,2.83,1.63,2.83h14c1.8,0,2.53-1.28,1.62-2.83Z"/><polygon class="cls-2" points="77.32 116.64 74.78 110.47 77.07 109.54 80.65 118.2 77.32 116.64"/><polygon class="cls-1" points="76.92 109.35 76.51 108.38 74.32 109.22 74.75 110.23 76.92 109.35"/><path class="cls-1" d="M113.13,129.27l-1.66-2.12a6.07,6.07,0,0,1-.18-2.43c.18-1.31,9.77-28.3,9.77-28.3a6.3,6.3,0,0,1,4.16-3.22h40.72l1.18.26,2.11,1.36.27.51-42.1-.47-2.71,1L123,97.74,113.11,126l-.06,1.56Z"/><path class="cls-4" d="M83,92a11.67,11.67,0,0,0,6.45,5.32L90,95.2S83.85,94.3,83,92Z"/><path class="cls-5" d="M86.46,88.2a2.27,2.27,0,0,1,.91,1.59,3.13,3.13,0,0,1-.55,1.58,2.65,2.65,0,0,0,1.89.67,1,1,0,0,0,.93-1.48c-.21-.28-1.21-.11-1.49-.49s-.21-.69-.28-1.19S87.5,87.55,86.46,88.2Z"/><path class="cls-4" d="M91.75,80.59a7.5,7.5,0,0,0,4.88.53,1.57,1.57,0,0,1,1.61.41s-1.2,3-2.52,3.38c-.24-.15.35-2.8.35-2.8S92.48,82,91.75,80.59Z"/><path class="cls-4" d="M80,80.59s4.48,2.15,7.49.44a6.32,6.32,0,0,1-1.91,1.72L85.62,84s-1,.09-1.08.54c0,0-.32-2.13-1.82-2.37a4.44,4.44,0,0,0-2.5.24Z"/><path class="cls-2" d="M146.81,67l.28,3.17-2.26,4.39V85l1.13-.31.11-1.92a9.5,9.5,0,0,1,2.59-.7l1.58-5.74-.45-5.8,2.09-3.09-2.52-4.21Z"/><path class="cls-2" d="M159.51,44a13.78,13.78,0,0,0,1.2-5.47c-.21-2.31-2.06-4.32-6.93-3.63a6.36,6.36,0,0,0-6.85-4.25c-5.27.64-4.66,5.86-3.77,7.37,0,0-3.2,1,.61,5.1l.25-3s5.18,1.17,8.2-2.26c0,0,.44,5.47,2.82,6.37A3.37,3.37,0,0,1,159.51,44Z"/><path class="cls-3" d="M145.43,57.87V68.73l.33-.46a60.71,60.71,0,0,0-.93,8.86,47.28,47.28,0,0,0,0,7.91s-3.32,2-2.66,7.9l-.42.26H125.22s-3.83,1-4.46,3.82a7.88,7.88,0,0,1-2.94-6.87c.34-4.57,4.33-10.85,5.9-14.66S130.68,58.42,145.43,57.87Z"/><path class="cls-3" d="M159.32,58.36l-5.75,12-.8-1s-3.48,9.51-4.11,12.75c0,0,10-.59,10,1v10l7,.07,1.47.14,2.6,2.09s3.24,1.41,3.23,4.22-5.77,18.77-5.77,18.77H171l.38-7.44,4.29,6.49a22.56,22.56,0,0,0,6.42-2.13c2.41-1.44,4.38-2.83,4.38-2.83l-4-14.77c-.63-2.36-5.87-23.56-6.14-24.74s-1.64-6-3.37-8A19.4,19.4,0,0,0,159.32,58.36Z"/><path class="cls-2" d="M146.07,83.09a16,16,0,0,0,6.51,1,26,26,0,0,0,6.08-1v10l-5,.07a3.22,3.22,0,0,0,.61-2.15,1.86,1.86,0,0,0-.9-1.48,3,3,0,0,0,.14-2.15c-.38-1.12-2-1-2-1s-4.1.35-5.27,0A17.68,17.68,0,0,1,146.07,83.09Z"/><path class="cls-4" d="M152.13,54s-2.45,2.35-4.34,2.5l-.48-.91,0-1.28Z"/><path class="cls-2" d="M118.94,132.87h38.93a5.94,5.94,0,0,0,5.65-3.9l9.23-26.67a5.73,5.73,0,0,0-5.65-7.48H128.17a5.94,5.94,0,0,0-5.65,3.9l-9.23,26.66A5.74,5.74,0,0,0,118.94,132.87Z"/><path class="cls-1" d="M143.41,113.83c-1.18,2-1,4.35.3,5.13s3.41-.25,4.6-2.31,1.05-4.35-.3-5.13S144.6,111.77,143.41,113.83Z"/><path class="cls-1" d="M145.18,38.09c-2.6-1.38-1.66-5.36-.14-6.92-3.2,1.53-2.65,5.56-1.88,6.85,0,0-3.2,1,.61,5.1l.25-3s5.18,1.17,8.2-2.26C152.22,37.88,148.57,39.88,145.18,38.09Z"/><path class="cls-1" d="M156,43.51c-2.37-.51-3.65-5.7-3.65-5.7,0,1.41.59,5.66,2.66,6.44a3.27,3.27,0,0,1,1.09-.72Z"/><polygon class="cls-1" points="150.15 64.58 147.99 66.97 148.35 70.57 144.83 78.45 145.17 74.17 147.09 70.36 146.61 66.89 149.36 63.27 150.15 64.58"/><path d="M196.78,118.61a2.79,2.79,0,0,0-1.65-1.91,8.5,8.5,0,0,0-2.61-.55,10.48,10.48,0,0,1-6.77-3.07c.38-.29,2.65,2.25,6.81,2.6a8.63,8.63,0,0,1,2.74.58,2.59,2.59,0,0,1,1.72,2.11Z"/><path class="cls-5" d="M194.32,118.57c-.19-.38.22-.93.05-1.4s-.49-.57-1.11-.71c-2.19-.53-4.47-1.28-4.49-1.29.17-.44,2.43.31,4.6.83a1.79,1.79,0,0,1,1.44,1,1.69,1.69,0,0,1-.31,1.47A.21.21,0,0,1,194.32,118.57Z"/><path class="cls-5" d="M185.06,118.66c-3-.62-2.81-2.29-2.8-2.36a.22.22,0,0,1,.26-.21c.2.32.11,1.59,2.59,2.1C185.27,118.58,185.17,118.66,185.06,118.66Z"/><path class="cls-5" d="M178,118.61a3.29,3.29,0,0,1-1-1.29c.45-.15.64.37,1.15.89C178.16,118.59,178.1,118.61,178,118.61Z"/><path class="cls-5" d="M55.49,126.42c-6.15,0-12.2-.78-14.3-3.78a8.62,8.62,0,0,1-.85-7c1.15-4.58,4.84-8.74,10.13-11.41a82.39,82.39,0,0,1,9.74-4.11,77.81,77.81,0,0,1,10-2.93,63.19,63.19,0,0,1,8.64-1.09c-2.91.69-5.4.91-8.54,1.55a76.89,76.89,0,0,0-9.94,2.91,82.26,82.26,0,0,0-9.69,4.1c-5.16,2.6-8.76,6.64-9.88,11.09a8.13,8.13,0,0,0,.78,6.63c3.45,4.93,19.15,3.5,25.85,2.89l2.25-.19a3.49,3.49,0,0,1-2.2.67C64.4,126,59.92,126.42,55.49,126.42Z"/><path class="cls-5" d="M117.48,106.86a34.29,34.29,0,0,0-2.92-1.86,73.87,73.87,0,0,0-15.82-6.13A48.55,48.55,0,0,0,89.62,97a28.54,28.54,0,0,1,9.25,1.38,74,74,0,0,1,15.92,6.17,23.08,23.08,0,0,1,2.83,1.85C117.62,106.83,117.55,106.86,117.48,106.86Z"/><path class="cls-5" d="M103.6,125.6c-1.27,0-2.47,0-3.55-.06,3.15-.36,7.32-.41,11.17-.63A32.13,32.13,0,0,1,103.6,125.6Z"/><path class="cls-5" d="M80.65,118.44c-.22-.15-3.71-8.74-3.71-8.74l-2,.81,2.36,5.81c-.44.18-2.89-5.86-2.89-5.86A12.86,12.86,0,0,1,77,109.18c.31.13,3.89,8.93,3.89,8.93C80.71,118.43,80.67,118.44,80.65,118.44Z"/><path class="cls-5" d="M74.66,110.61a5.73,5.73,0,0,1-.7-1.32A12.48,12.48,0,0,1,76.51,108c.3.13.78,1.31.78,1.31-.44.18-.83-.78-.83-.78l-2,.8.39,1C74.72,110.61,74.69,110.61,74.66,110.61Z"/><path class="cls-5" d="M82.27,125.89c-.17-.06-2.45-2.22-2.45-2.22.33-.34,2.23,1.46,2.23,1.46l.12-2.93c.48,0,.33,3.46.33,3.46C82.33,125.88,82.3,125.89,82.27,125.89Z"/><path class="cls-5" d="M91.66,127.41a1.65,1.65,0,0,1-.74-.18,1.72,1.72,0,0,1-.78-.66,1.79,1.79,0,0,1-.24-1,4,4,0,0,1,.33-1.21c.16-.42.36-.85.61-1.38.56-1.17,1.21-2.36,1.92-3.55a16.39,16.39,0,0,1-1.49,3.75c-.25.52-.44,1-.6,1.35a3.56,3.56,0,0,0-.29,1.07,1.24,1.24,0,0,0,.16.76,1.4,1.4,0,0,0,.59.49,1.27,1.27,0,0,0,1.56-.4,4.84,4.84,0,0,0,.65-1l.19-.33c.26-.45.51-.92.76-1.38s.32-.59.4-.76A14.68,14.68,0,0,1,96,120.83a6.35,6.35,0,0,1-.85,2.33l-.27.52c-.39.72-.64,1.19-.9,1.65a8.16,8.16,0,0,1-.9,1.4A1.84,1.84,0,0,1,91.66,127.41Z"/><path class="cls-5" d="M87.26,126.56a1.54,1.54,0,0,1-.48-.08,1.59,1.59,0,0,1-1.07-1.15c-.26-2,3.83-6.57,4-6.77-.79,1.6-3.72,5.24-3.53,6.71a1.13,1.13,0,0,0,.75.76,1.39,1.39,0,0,0,1.46-.53,41.94,41.94,0,0,0,4.37-6.11c.31.41-2.09,4.45-4,6.44A2,2,0,0,1,87.26,126.56Z"/><path class="cls-5" d="M84.72,124.4a1.61,1.61,0,0,1-1.12-.47c-1.18-1.06,1.29-3.87,1.57-4.19.89-1.26,3.17-4.29,4.84-4.53,2.47-.37,10.6.73,10.94.78-.15.46-8.46-.68-10.87-.31-1,.15-2.73,1.78-4.54,4.36-1,1.08-2.25,3-1.63,3.54a1.23,1.23,0,0,0,.93.34,3.29,3.29,0,0,0,1.78-1.22c.34.33-.6,1.58-1.74,1.69Z"/><path class="cls-5" d="M100.3,123.73a6.31,6.31,0,0,1-4.69-1.88c.37-.29,2.23,1.82,5.78,1.33A1.12,1.12,0,0,1,100.3,123.73Z"/><path class="cls-5" d="M82.08,131.23c-.15-.06-8.67-7.78-8.67-7.78.31-.35,8.76,7.3,8.76,7.3l20.68-1.83-8.54-4.76c.23-.41,9.44,4.72,9.44,4.72-.09.44-21.64,2.35-21.64,2.35Z"/><path class="cls-5" d="M108.62,112.91c-4.23,0-9.46-.32-9.79-.34.15-.46,12.49.29,14.66-.47C112.86,112.82,110.88,112.91,108.62,112.91Z"/><path class="cls-5" d="M81.48,122.32c-1.21,0-3.38-.55-6.84-3.23,4.38,2.8,6.57,2.85,7.32,2.71a1.34,1.34,0,0,0,1-.55c.56-.88-.68-1.89-.87-2-.48-.18-5.39-2.15-6.75-3.91,1.7,1.42,6.9,3.47,7,3.48s1.91,1.41,1.07,2.72a1.76,1.76,0,0,1-1.28.77A2.9,2.9,0,0,1,81.48,122.32Z"/><path class="cls-5" d="M79.54,123.73c-2.87,0-6.44-2.15-6.61-2.25.29-.38,5,2.43,7.71,1.63a2.38,2.38,0,0,0,1.56-1.29,1.68,1.68,0,0,1-1.42,1.75A4.58,4.58,0,0,1,79.54,123.73Z"/><path class="cls-5" d="M82.47,119.5c-.23-.22-.67-2.85-1.42-4.09a6.53,6.53,0,0,0-2.54-2c.27-.39,2.14.44,2.95,1.78a15,15,0,0,1,1.25,4.06C82.5,119.5,82.49,119.5,82.47,119.5Z"/><path class="cls-5" d="M68.62,113.82c0-.47.63-.52,1.92-1a9.48,9.48,0,0,1,5.06-.43c-.13.46-2.64,0-4.88.87a7.48,7.48,0,0,1-2.08.61Z"/><path class="cls-5" d="M77.28,124.23a16,16,0,0,1-5-1.16,20.81,20.81,0,0,0-2.37-.6c.15-.46,1.52-.19,2.19,0,1.59.58,5.38,2,7,.79C78.83,124.08,78.08,124.23,77.28,124.23Z"/><path class="cls-5" d="M50.57,114.15c12.65-1.23,17.12-1.71,17.16-1.72a.22.22,0,0,1,.26.21c-.25.27-4.72.75-17.4,1.51Z"/><path class="cls-5" d="M69.7,125.54a.23.23,0,0,1-.24-.26c1.08-8.64-1.86-12.43-1.89-12.46.5-.14,3.47,3.66,2.36,12.52A.23.23,0,0,1,69.7,125.54Z"/><path class="cls-5" d="M100,125.54c-.62,0-1.25-.53-1.8-1.51l-.49-.86c.41-.24.91.63.91.63.47.86,1,1.33,1.45,1.27.94-.11,1.71-2.54,1.32-5.85a21.62,21.62,0,0,0-1-4.64c-.48-1.31-1-2-1.44-2s-1,1.48-1.36,3.14c-.33-.67.36-3.5,1.3-3.61.7-.08,1.35.7,1.94,2.32a21.67,21.67,0,0,1,1.07,4.74c.4,3.41-.36,6.21-1.73,6.38Z"/><path class="cls-5" d="M85.15,120.09H83.08c0-.47,2.07-.47,2.07-.47C85.39,120,85.29,120.09,85.15,120.09Z"/><path class="cls-5" d="M79.62,126.11c0-.48,4-.71,4-.71,0,.47-4,.71-4,.71Z"/><path class="cls-5" d="M93.14,126.76c0-.47,2-.51,2-.51a.23.23,0,0,1,.25.23,8.33,8.33,0,0,1-2.27.28Z"/><path class="cls-5" d="M82.9,128.75c0-.48,4.12-.81,4.12-.81,0,.48-4.1.81-4.1.81Z"/><path class="cls-5" d="M171.61,53.13c-.24-.24-.24-8.41-.24-8.41V36.37a4.44,4.44,0,0,1,4.43-4.43h18.52a4.44,4.44,0,0,1,4.43,4.43v1c-.47,0-.47-1-.47-1a4,4,0,0,0-4-3.95H175.8a4,4,0,0,0-4,3.95v7.91a3,3,0,0,0,0,.43c0,.13,0,7.75,0,7.75l6.52-4.18c.12,0,16,0,16,0a4,4,0,0,0,4-4V41c.47,0,.47,3.31.47,3.31a4.44,4.44,0,0,1-4.43,4.44H178.55l-6.82,4.37A.17.17,0,0,1,171.61,53.13Z"/><path class="cls-5" d="M193.25,38.32h-4.32c0-.47,4.32-.47,4.32-.47C193.49,38.22,193.39,38.32,193.25,38.32Z"/><path class="cls-5" d="M183.73,38.32h-7c0-.47,7-.47,7-.47C184,38.22,183.86,38.32,183.73,38.32Z"/><path class="cls-5" d="M193.25,42.77h-16.5c0-.47,16.5-.47,16.5-.47C193.49,42.67,193.39,42.77,193.25,42.77Z"/><path class="cls-5" d="M89,83.74c.19,0,.3.13.18.8s-.36.83-.53.78-.27-.32-.12-.85S88.78,83.71,89,83.74Z"/><path class="cls-5" d="M93.83,85.05c.19,0,.29.14.16.81s-.36.82-.53.77-.26-.32-.11-.84S93.58,85,93.83,85.05Z"/><path class="cls-5" d="M85.54,104.24c-3.93,0-6.3-3.95-6.91-7.88,0-.11,2.64-8.76,2.64-8.76.45.13-2.16,8.74-2.16,8.74.44,2.79,2.29,7.43,6.43,7.43,2.1,0,2.9-4.19,2.9-4.23L90,95.12c.45.16-1.07,4.54-1.07,4.54,0,.15-.87,4.57-3.34,4.58Z"/><path class="cls-5" d="M90.43,95.44a8.54,8.54,0,0,1-2.19-.39l-.5-.13a14.16,14.16,0,0,1-2.93-1,3.52,3.52,0,0,1-2-1.8,5.62,5.62,0,0,1,0-3,10.37,10.37,0,0,1,.44-1.61c.42-1.1,1-2.74,1.14-3.06a2.51,2.51,0,0,0-.5-1.19,2.62,2.62,0,1,0-1,4,2.36,2.36,0,0,1-3.53-.55,3.1,3.1,0,0,1,5-3.71,3.15,3.15,0,0,1,.6,1.48c0,.11-.71,2-1.18,3.22a11,11,0,0,0-.42,1.54,5.16,5.16,0,0,0,0,2.7A3.15,3.15,0,0,0,85,93.45a13.89,13.89,0,0,0,2.84,1l.5.13c1.33.36,2.71.73,3.79-.28a7.61,7.61,0,0,0,1.74-3.83q.12-.48.24-.93c.26-1,1.69-7.4,1.7-7.46.41.37-1,6.63-1.24,7.59-.09.29-.16.6-.24.91a8,8,0,0,1-1.88,4.07A2.87,2.87,0,0,1,90.43,95.44Z"/><path class="cls-5" d="M95.48,84.56a1.87,1.87,0,0,0-1.73-1.09c-.17,0-.28-.1-.28-.23a.25.25,0,0,1,.28-.24,1.82,1.82,0,0,1,2,1.28C95.51,84.56,95.5,84.56,95.48,84.56Z"/><path class="cls-5" d="M87.88,82.78c1.6-1.8,2.83-.55,2.84-.54-.38.29-1.29-.62-2.69.49A.3.3,0,0,1,87.88,82.78Z"/><path class="cls-5" d="M95.42,85.41c-.11-.45,2.48-2.27,2.82-4.91a5.44,5.44,0,0,0-1.53-4.31,6.35,6.35,0,0,0-4.35-2.46,6.71,6.71,0,0,0-4.44,1.52,6.08,6.08,0,0,0-5.57-.3c-3.35,1.29-1.87,7.29-1.86,7.35-.52-.15-2-6.35,1.69-7.8,3.14-1.21,5-.12,5.58.27a7.12,7.12,0,0,1,4.64-1.51,6.82,6.82,0,0,1,4.67,2.62,5.9,5.9,0,0,1,1.64,4.68c-.37,2.86-3,4.73-3.16,4.81A.33.33,0,0,1,95.42,85.41Z"/><path class="cls-5" d="M88.49,92.27a2.68,2.68,0,0,1-2.08-1,2.8,2.8,0,0,1-.51-2.4,1.66,1.66,0,0,1,.79-1.17.89.89,0,0,1,.92.07A1.3,1.3,0,0,1,88.1,89c0,.64,0,.7.11.82s.15.18.78.25a1.35,1.35,0,0,1,1.09.7.93.93,0,0,1-.1.93,1.74,1.74,0,0,1-1.35.6ZM87.1,88.09a1.11,1.11,0,0,0-.74.9,2.3,2.3,0,0,0,.42,2,2.21,2.21,0,0,0,1.82.82,1.33,1.33,0,0,0,1-.4.46.46,0,0,0,.06-.46.89.89,0,0,0-.71-.43c-.72-.08-.89-.17-1.09-.42s-.27-.39-.22-1.15a.86.86,0,0,0-.29-.77A.35.35,0,0,0,87.1,88.09Z"/><path class="cls-5" d="M86.82,91.61a2.64,2.64,0,0,0-.52-3.24A1.9,1.9,0,0,1,87,91.54.21.21,0,0,1,86.82,91.61Z"/><path class="cls-5" d="M80.49,86.28c0-.47,2.05-.93,2.05-.93l-1.3-2.21c.41-.24,1.87,2.25,1.87,2.25-.15.35-2.57.88-2.57.88Z"/><path class="cls-5" d="M88.54,77.06a12.11,12.11,0,0,1-1-1.82c.43-.2,1.21,1.48,1.21,1.48C88.61,77.05,88.58,77.06,88.54,77.06Z"/><path class="cls-5" d="M89.3,88.61a6.33,6.33,0,0,0-2.66-1.47,8.09,8.09,0,0,1-.86-.34c-.69-.38-.44-3-.3-4.09A9.46,9.46,0,0,0,89,78c.46,0,2.48,3.89,7.45,3.89a7.38,7.38,0,0,1-7.16-3.28,9.23,9.23,0,0,1-3.38,4.28c-.2,1.73-.17,3.35.08,3.5a6.2,6.2,0,0,0,.79.31,5.62,5.62,0,0,1,2.7,1.56C89.39,88.6,89.35,88.61,89.3,88.61Z"/><path class="cls-5" d="M94.19,90.47a2.88,2.88,0,0,0-1.77-.66.23.23,0,0,1-.24-.24,2,2,0,0,1,2.18.5C94.3,90.45,94.25,90.47,94.19,90.47Z"/><path class="cls-5" d="M114.61,131.32c-.18-.09-3.28-3.88-3.28-3.88a5.68,5.68,0,0,1,0-3.75L120.55,97A6.16,6.16,0,0,1,126.42,93h38.93a6.37,6.37,0,0,1,2,.31c.06,0,3.62,2.59,3.62,2.59-.28.39-3.8-2.15-3.8-2.15a5.8,5.8,0,0,0-1.81-.28H126.42A5.7,5.7,0,0,0,121,97.19l-9.23,26.66a5.2,5.2,0,0,0,0,3.33l3.07,3.75C114.72,131.3,114.66,131.32,114.61,131.32Z"/><path class="cls-5" d="M157.87,133.11H118.94a6.25,6.25,0,0,1-5.11-2.59,5.67,5.67,0,0,1-.76-5.22l9.23-26.66a6.16,6.16,0,0,1,5.87-4.06H167.1a6.25,6.25,0,0,1,5.11,2.59,5.65,5.65,0,0,1,.76,5.21L163.74,129A6.16,6.16,0,0,1,157.87,133.11Zm-29.7-38.06a5.68,5.68,0,0,0-5.42,3.75l-9.24,26.66a5.24,5.24,0,0,0,.7,4.78,5.79,5.79,0,0,0,4.73,2.39h38.93a5.67,5.67,0,0,0,5.42-3.74l9.23-26.67a5.21,5.21,0,0,0-.69-4.78,5.83,5.83,0,0,0-4.73-2.39Z"/><path class="cls-5" d="M200.77,118.66h-33.6c0-.47,33.6-.47,33.6-.47C201,118.55,200.9,118.66,200.77,118.66Z"/><path class="cls-5" d="M40.14,118.66H1.94c0-.47,38.2-.47,38.2-.47C40.38,118.55,40.27,118.66,40.14,118.66Z"/><path class="cls-5" d="M86.46,118.66H82.31c0-.47,4.15-.47,4.15-.47C86.69,118.55,86.59,118.66,86.46,118.66Z"/><circle class="cls-5" cx="3.03" cy="88.12" r="1.03"/><path class="cls-5" d="M11,89.2A1.08,1.08,0,1,0,10,88.12,1.08,1.08,0,0,0,11,89.2Z"/><path class="cls-5" d="M19.05,89.12a1,1,0,1,0-1-1A1,1,0,0,0,19.05,89.12Z"/><path class="cls-5" d="M3,97.22a1.09,1.09,0,1,0-1.09-1.09A1.09,1.09,0,0,0,3,97.22Z"/><path class="cls-5" d="M11,97.27A1.14,1.14,0,1,0,9.9,96.13,1.14,1.14,0,0,0,11,97.27Z"/><path class="cls-5" d="M19.05,97.19a1.06,1.06,0,0,0,0-2.12,1.06,1.06,0,1,0,0,2.12Z"/><path class="cls-5" d="M3,105.15a1,1,0,1,0-1-1A1,1,0,0,0,3,105.15Z"/><path class="cls-5" d="M11,105.2a1.06,1.06,0,1,0-1.06-1A1.06,1.06,0,0,0,11,105.2Z"/><path class="cls-5" d="M19.05,105.13a1,1,0,1,0-1-1A1,1,0,0,0,19.05,105.13Z"/><path class="cls-5" d="M182.49,29.44a.25.25,0,0,1-.24-.25s0-.3,0-.83v-.54c.47.19.47.38.47.54,0,.55,0,.86,0,.86A.25.25,0,0,1,182.49,29.44Zm-.17-4.11a24.38,24.38,0,0,1-.63-2.89,4.88,4.88,0,0,1,.87,2.63C182.34,25.33,182.33,25.33,182.32,25.33Zm-1-5.35c-.48-1.05-.76-1.91-1.08-2.74a4.72,4.72,0,0,1,1.31,2.44C181.33,20,181.31,20,181.29,20Zm-55.22-3.75c-.16-.41.45-1.22,1.62-2.46a19,19,0,0,1-1.43,2.37A.22.22,0,0,1,126.07,16.23Zm53.25-1.33c-.62-.93-1.07-1.72-1.56-2.46a4.48,4.48,0,0,1,1.77,2.12C179.4,14.89,179.36,14.9,179.32,14.9ZM129.8,12.25A6.49,6.49,0,0,1,131.71,10,6.32,6.32,0,0,1,130,12.18.24.24,0,0,1,129.8,12.25Zm46.54-1.89c-.76-.77-1.38-1.42-2-2A4.46,4.46,0,0,1,176.52,10C176.44,10.34,176.39,10.36,176.34,10.36ZM134,8.79a6.1,6.1,0,0,1,2.14-1.95,6.27,6.27,0,0,1-2,1.91A.23.23,0,0,1,134,8.79Zm38.33-2.12c-.85-.56-1.62-1-2.41-1.48a4.47,4.47,0,0,1,2.55,1C172.5,6.64,172.43,6.67,172.35,6.67Zm-33.7-.76A5.61,5.61,0,0,1,141,4.27a6.39,6.39,0,0,1-2.24,1.62Zm29-1.87c-.9-.35-1.76-.65-2.64-.92a4.78,4.78,0,0,1,2.73.47C167.79,4,167.7,4,167.61,4Zm-24-.34a5.38,5.38,0,0,1,2.54-1.28,6.5,6.5,0,0,1-2.46,1.27ZM162.4,2.47c-.93-.19-1.82-.35-2.71-.46a4.8,4.8,0,0,1,2.76,0C162.61,2.39,162.51,2.47,162.4,2.47Zm-13.53-.19a5,5,0,0,1,2.67-.87.22.22,0,0,1,.26.21,20,20,0,0,1-2.88.65ZM157,1.75c-.9-.05-1.83-.06-2.72-.05A4.88,4.88,0,0,1,157,1.28C157.24,1.65,157.13,1.75,157,1.75Z"/><path class="cls-5" d="M72.74,72a5.33,5.33,0,1,1,5.33-5.33A5.34,5.34,0,0,1,72.74,72Zm0-10.19a4.86,4.86,0,1,0,4.85,4.86A4.87,4.87,0,0,0,72.74,61.78Z"/><path class="cls-5" d="M48.18,101.78H34a9.66,9.66,0,0,1-9.65-9.66V62.51A9.66,9.66,0,0,1,34,52.85H48.53c0,.47-14.57.47-14.57.47a9.19,9.19,0,0,0-9.18,9.19V92.12A9.19,9.19,0,0,0,34,101.31H48.18C48.42,101.67,48.31,101.78,48.18,101.78Zm41-31.7c-.24-.24-.24-7.57-.24-7.57a9.19,9.19,0,0,0-9.18-9.19H63.84c0-.47,15.89-.47,15.89-.47a9.66,9.66,0,0,1,9.65,9.66v7.33A.23.23,0,0,1,89.15,70.08Z"/><path class="cls-5" d="M91.2,89.81c1-.87,1-1.07.69-1.88,0-.14-.09-.28-.14-.44A8.25,8.25,0,0,1,92,84.13c.45.15-.09,2.17.22,3.23,0,.15.09.29.13.42.3.92.4,1.47-1,2Z"/><path class="cls-5" d="M143.81,117.69a2.12,2.12,0,0,1-1.11-.29c-1.47-.84-1.64-3.29-.39-5.45a5.8,5.8,0,0,1,2.33-2.31,2.45,2.45,0,0,1,3.81,2.19,5.78,5.78,0,0,1-.84,3.18A4.86,4.86,0,0,1,143.81,117.69Zm-1.09-5.51c-1.12,1.94-1,4.1.21,4.81s3.16-.28,4.28-2.22a5.36,5.36,0,0,0,.76-2.91,2,2,0,0,0-3.11-1.8A5.37,5.37,0,0,0,142.72,112.18Z"/><path class="cls-5" d="M35.27,53.63a6.75,6.75,0,0,1-.63-2.9,19.06,19.06,0,0,1,.86,2.61C35.3,53.63,35.29,53.63,35.27,53.63Zm-.54-5.41a1,1,0,0,1-.24-.63c0-.79,0-1.58.08-2.35A4.66,4.66,0,0,1,35,47.59V48Zm.39-5.43a.25.25,0,0,1-.23-.28c.15-.91.34-1.81.57-2.68a6.9,6.9,0,0,1-.1,2.76A.24.24,0,0,1,35.12,42.79Zm1.41-5.26a7.31,7.31,0,0,1,.9-2.83,6.84,6.84,0,0,1-.68,2.68A.25.25,0,0,1,36.53,37.53ZM39,32.71a6.37,6.37,0,0,1,1.5-2.54,7.22,7.22,0,0,1-1.3,2.44A.23.23,0,0,1,39,32.71Zm3.59-4.07a2.05,2.05,0,0,1,.84-1.26c.39-.3.77-.6,1.15-.87a1.81,1.81,0,0,1-.85,1.24c-.34.27-.66.55-1,.83A.23.23,0,0,1,42.63,28.64Zm4.42-3.18a5.45,5.45,0,0,1,2.32-1.7,7,7,0,0,1-2.21,1.67A.2.2,0,0,1,47.05,25.46Zm23.68-1.67c-.62-.22-1.5-.52-2.66-.83a5.63,5.63,0,0,1,2.75.37C70.92,23.73,70.83,23.79,70.73,23.79ZM52,23.24a5,5,0,0,1,2.58-1.18,7,7,0,0,1-2.51,1.17Zm13.46-.85c-.92-.16-1.82-.27-2.72-.35a4.75,4.75,0,0,1,2.76-.12C65.69,22.31,65.59,22.39,65.47,22.39Zm-8.14-.29a4.81,4.81,0,0,1,2.72-.63,6.77,6.77,0,0,1-2.69.63Z"/><path class="cls-5" d="M115.29,47.22H82.74a9.35,9.35,0,0,1-9.34-9.34V22.4a9.35,9.35,0,0,1,9.34-9.34h32.82a9.36,9.36,0,0,1,9.35,9.34V37.88a9.07,9.07,0,0,1-5.53,8.41,9.92,9.92,0,0,0,5.05-8.41V22.4a8.88,8.88,0,0,0-8.87-8.87H82.74a8.88,8.88,0,0,0-8.87,8.87V37.88a8.88,8.88,0,0,0,8.87,8.87h32.55C115.53,47.12,115.42,47.22,115.29,47.22Z"/><path class="cls-5" d="M106.07,38H92.22a1.93,1.93,0,0,1-1.81-3.15l6.9-11.82a2,2,0,0,1,3.67,0l6.9,11.82A1.93,1.93,0,0,1,106.07,38ZM99.14,22.27a1.73,1.73,0,0,0-1.42,1l-6.9,11.81a1.47,1.47,0,0,0,1.4,2.44h13.85a1.46,1.46,0,0,0,1.4-2.43l-6.9-11.82A1.75,1.75,0,0,0,99.14,22.27Z"/><path class="cls-5" d="M24.55,84.39c.42-.76,13.15-8.17,15.58-9.18s5.53-1.53,10.58,2c4.56,3.19,8.38,5.65,12.19,5.65h.45a24.61,24.61,0,0,0,5.56-1.4c3.39-1.1,7.23-2.34,10.06-1.52-2.81-.33-6.58.89-9.91,2a25.36,25.36,0,0,1-5.69,1.43c-4.09.19-8.12-2.36-12.93-5.74-5.11-3.58-7.91-2.88-10.12-2-2.41,1-15.52,8.64-15.65,8.72A.27.27,0,0,1,24.55,84.39Z"/><path class="cls-5" d="M158.66,93.18c-.24-.24-.24-10.18-.24-10.18.47,0,.47,9.94.47,9.94A.23.23,0,0,1,158.66,93.18Z"/><path class="cls-5" d="M146.07,85.59a10.34,10.34,0,0,1-.24-2.59c.47,0,.47,2.36.47,2.36A.23.23,0,0,1,146.07,85.59Z"/><path class="cls-5" d="M146.07,86.53c-.24-.23-.24-1.17-.24-1.17.47,0,.47.94.47.94A.23.23,0,0,1,146.07,86.53Z"/><path class="cls-5" d="M152.36,84.38c-.26,0-6.53,0-6.53-1.29s6.27-1.28,6.53-1.28,6.53,0,6.53,1.28S152.63,84.38,152.36,84.38Zm-6.05-1.29c.22.3,2.36.81,6.05.81s5.92-.53,6.06-.83c-.14-.26-2.29-.79-6.06-.79S146.53,82.79,146.31,83.09Z"/><path class="cls-5" d="M153.26,90a2.46,2.46,0,0,1,.12-.82c.19-.76.1-2-.89-2.39a3,3,0,0,0-1.3,0,24.89,24.89,0,0,1-3.32.11,7.08,7.08,0,0,1-2.11-.29,5.08,5.08,0,0,1,2-.19,26,26,0,0,0,3.35-.09,3.31,3.31,0,0,1,1.57.07,2.41,2.41,0,0,1,1.19,3,.91.91,0,0,1-.5.69Z"/><path class="cls-5" d="M153.55,93.37a3.88,3.88,0,0,0,.46-2.63,1.15,1.15,0,0,0-.49-.69c-.16-.09-.23-.07-.46,0a8,8,0,0,1-1.73.38,20,20,0,0,1-5.78-.19c-.18-.39-.05-.5.07-.46a19.55,19.55,0,0,0,5.66.18,7,7,0,0,0,1.54-.33,1,1,0,0,1,.94,0,1.64,1.64,0,0,1,.7,1A2.7,2.7,0,0,1,154,93a1.82,1.82,0,0,1-.34.34A.24.24,0,0,1,153.55,93.37Z"/><path class="cls-5" d="M144.83,85.28c-.16,0-11.05-2.26-20.53-.14A.22.22,0,0,1,124,85c9.76-2.43,20.75-.17,20.86-.15C145,85.2,144.94,85.28,144.83,85.28Z"/><path class="cls-5" d="M142.17,93.18c-.24-4.19.68-7.09,2.29-8.2a9.09,9.09,0,0,1,1.53-.69c.14.46-.83.79-1.26,1.08-1.48,1-2.33,3.78-2.33,7.57A.23.23,0,0,1,142.17,93.18Z"/><path class="cls-5" d="M165,93.44c-4.66-16.26-3-24.71-3-24.8.45.18-1.15,8.54,3.25,24.5C165.07,93.44,165.05,93.44,165,93.44Z"/><path class="cls-5" d="M151.07,43.45c-.19,0-.32,0-.37.73s.13.89.3.88.35-.24.34-.78S151.32,43.49,151.07,43.45Z"/><path class="cls-5" d="M145.54,43.51c-.19,0-.32.06-.35.74s.16.89.33.88.33-.25.31-.79S145.79,43.54,145.54,43.51Z"/><path class="cls-5" d="M156.5,55.83c-.24-.23-.58-7-.58-7,.47,0,.82,6.79.82,6.79C156.51,55.83,156.51,55.83,156.5,55.83Z"/><path class="cls-5" d="M148,54.56c-1.26,0-2.58-.15-3.4-1.4a8,8,0,0,1-.84-4.4c0-.32,0-.64,0-.94,0-1,.12-7.41.13-7.68a.21.21,0,0,1,.24-.23c.23.31.07,6.91.1,7.89,0,.31,0,.63,0,1A7.57,7.57,0,0,0,145,52.9c.81,1.23,2.24,1.19,3.61,1.18h.52a13.82,13.82,0,0,0,3-.3,4.39,4.39,0,0,1-3,.77H148Z"/><path class="cls-5" d="M157.35,49.28a3.06,3.06,0,0,1-1.88-.65A3.82,3.82,0,0,0,159,48.2a2.62,2.62,0,0,0-3.32-4.05,2.55,2.55,0,0,0-.79,1.1,1.2,1.2,0,0,1,.49-1.46,3.09,3.09,0,1,1,2,5.49Z"/><path class="cls-5" d="M144.11,42.64c-.21-.35.36-1.53,2-1.09.14.41,0,.5-.12.45-1.31-.34-1.7.49-1.71.5A.23.23,0,0,1,144.11,42.64Z"/><path class="cls-5" d="M152.27,42.77c-1.29-1.5-2.39-.83-2.43-.8-.24-.41,1.24-1.33,2.61.42C152.37,42.75,152.32,42.77,152.27,42.77Z"/><path class="cls-5" d="M147.34,55.78c-.24-.24-.24-1.47-.24-1.47.47,0,.47,1.23.47,1.23A.23.23,0,0,1,147.34,55.78Z"/><path class="cls-5" d="M159.38,44.24c-.09-.46.63-1,1.06-4.76a3.59,3.59,0,0,0-2.17-4,12.64,12.64,0,0,0-4.47-.33c-1.58-2.78-3.31-3.77-4.53-4.12a5.06,5.06,0,0,0-4.05.51,4.7,4.7,0,0,0-2.38,2.88,5.2,5.2,0,0,0,.58,3.57,1.57,1.57,0,0,0-1,.81A3.34,3.34,0,0,0,144.09,43,3.22,3.22,0,0,1,142,38.58a1.27,1.27,0,0,1,.78-.74,5.4,5.4,0,0,1-.43-3.54,5.18,5.18,0,0,1,2.6-3.18,5.53,5.53,0,0,1,4.42-.56,7.6,7.6,0,0,1,4.51,4.09,12.84,12.84,0,0,1,4.5.37,4.05,4.05,0,0,1,2.5,4.51c-.46,4.11-1.28,4.63-1.44,4.69Z"/><path class="cls-5" d="M148,48.44c-.15,0-1.53,0-2-.51a.55.55,0,0,1-.17-.46,3.92,3.92,0,0,1,.32-1,6.21,6.21,0,0,0,.55-3.55c.81,1.29.25,2.75-.11,3.71a4.1,4.1,0,0,0-.29.92c.27.35,1.15.46,1.69.46C148.26,48.33,148.15,48.44,148,48.44Z"/><path class="cls-5" d="M158.25,47.9c-.1,0-2.32-1.12-2.32-1.12-.07-.38,1.95-2.44,1.95-2.44.34.33-1.45,2.16-1.45,2.16l1.93,1C158.43,47.85,158.34,47.9,158.25,47.9Z"/><path class="cls-5" d="M153,36.77c-.21-.34.57-2,.57-2,.43.2-.35,1.83-.35,1.83A.24.24,0,0,1,153,36.77Z"/><path class="cls-5" d="M175.68,117.7a52.15,52.15,0,0,1-5.52-8.39c3,4.36,5.2,7.35,5.63,7.91,4.36-.28,9.64-4.2,10.51-4.86-.86-3.07-1.71-6.13-2.55-9.2-2.64-9.63-4.87-18.27-6.81-26.42-.18-.77-.35-1.57-.51-2.36-.64-3.07-1.3-6.24-3.2-8.73a19.37,19.37,0,0,0-13.92-7.05,17.94,17.94,0,0,1,14.3,6.76c2,2.57,2.63,5.8,3.28,8.92.16.79.33,1.58.51,2.35,1.94,8.15,4.17,16.78,6.81,26.4q1.28,4.68,2.58,9.35c-.32.45-6.18,5.08-11.1,5.32Z"/><path class="cls-5" d="M120.77,97.34c-5.49-4.53-2.75-11.4.23-16.88.43-.79.91-1.84,1.46-3.06,3.13-6.91,9-19.76,23.3-19.76-14,.47-19.56,12.67-22.87,20-.55,1.22-1,2.28-1.47,3.08-2.9,5.33-5.58,12-.5,16.25C120.9,97.32,120.84,97.34,120.77,97.34Z"/><path class="cls-5" d="M155.18,44.55c-2.32-.88-3-4.83-3.1-6.23a9.09,9.09,0,0,1-8.07,2,9.76,9.76,0,0,0,8.08-2.72c.42.19.78,5.51,3.18,6.45C155.37,44.5,155.28,44.55,155.18,44.55Z"/><path class="cls-5" d="M171,118.3a.24.24,0,0,1-.24-.25c.25-4.25.34-6,.37-6.68,0-.54,0-.73.26-.72.1,0,.16,0,.19.3,0,.74-.07,2.47-.35,7.13A.23.23,0,0,1,171,118.3Z"/><path class="cls-5" d="M153.72,70.8c-.2-.11-4.38-7.1-4.38-7.1l-3.72,5.17c-.43-.14-.43-10.51-.43-10.51s1.95-3,1.95-3c.43.07,2.34,7.38,2.34,7.38l7-7.49a.26.26,0,0,1,.35,0l2.7,2.9c0,.26-5.55,12.47-5.55,12.47Zm-4.06-7.5,4,6.76L159,58.41l-2.42-2.6Zm-4-4.86V68l3.43-4.77-1.86-7.11Z"/><path class="cls-5" d="M148.63,82.49c-.18,0-.26-.16-.23-.29A90.92,90.92,0,0,1,152.64,69c.41.25-2.42,7.08-3.78,13.27A.24.24,0,0,1,148.63,82.49Z"/><path class="cls-5" d="M144.83,85.28a71.83,71.83,0,0,1,.7-17.06c.45.16-.9,7-.46,16.81A2.56,2.56,0,0,1,144.83,85.28Z"/><path class="cls-5" d="M149.79,70.8l-2.72-.25a24.86,24.86,0,0,1-.5-3.72c.47,0,.74,3.26.74,3.26l2.36.23,2.08-2.88c.38.28-1.77,3.27-1.77,3.27A.25.25,0,0,1,149.79,70.8Z"/><path class="cls-5" d="M150.23,76.6a57,57,0,0,1-.68-6c.47,0,.91,5.76.91,5.76A2.41,2.41,0,0,1,150.23,76.6Z"/><path class="cls-5" d="M145.17,74.4c-.21-.34,1.71-4.19,1.71-4.19.42.21-1.5,4.06-1.5,4.06A.22.22,0,0,1,145.17,74.4Z"/><path class="cls-5" d="M134.54,84a42.08,42.08,0,0,1,3.4-17.43c.39.28-3.16,7.79-3.16,17.19A.24.24,0,0,1,134.54,84Z"/><path class="cls-5" d="M149.4,51a2.54,2.54,0,0,1-.81-.15,6.29,6.29,0,0,0,1.41-.51c.52-.43.5-1.52.45-1.91.48,0,.68,1.59-.15,2.27A1.36,1.36,0,0,1,149.4,51Z"/></svg>