<svg id="Layer_1" data-name="Layer 1" xmlns="http://www.w3.org/2000/svg" viewBox="0 0 711.02 685.39"><defs><style>.cls-1{fill:#00b2ac;}.cls-2,.cls-4{fill:#fff;}.cls-3,.cls-7{fill:#f282b4;}.cls-4,.cls-5,.cls-6,.cls-7{fill-rule:evenodd;}.cls-5{fill:#e7eaee;}.cls-6{fill:#00160a;}</style></defs><path class="cls-1" d="M618,505.29C613.87,586.55,548.76,660.2,469,676s-167.17-26.3-206.06-97.77c-4.29-7.89-8.11-16.16-11.93-24.43-9.87-21.36-19.73-42.71-37.67-57.4-20.47-16.77-46.81-21.26-73.41-25.79C123,467.77,106,464.88,90.31,458.81c-37.78-14.64-67.12-49.31-75.29-89-13.26-64.31,28.72-130,84.7-164.29S223,161.64,288.22,154.28c24.95-2.82,45.23-21.63,59.71-42.15,5.61-7.95,10.65-16.3,15.69-24.64,8-13.21,15.95-26.4,26.12-37.95C432.83.63,513.07-7.63,568,27.54s81.16,107.5,66.56,171c-2.51,10.94-6.08,21.59-9.65,32.25h0c-3.42,10.2-6.83,20.4-9.32,30.85-5.33,22.35-6.35,45.47-6.95,68.44-.73,27.37-.9,54.82,1.67,82.09.89,9.49,2.11,19,3.34,28.43C616.37,462.16,619.15,483.67,618,505.29Z"/><path class="cls-1" d="M288.12,134.87C318,120,341.72,94.24,356.68,64.45c2-3.9,3.82-8.05,3.75-12.42s-2.61-9-6.84-10.11c-6.06-1.59-11.27,4.22-15,9.21-26,34.32-63.72,61.26-106.34,67.13-16.37,2.26-33,1.41-49.49.56l-25.78-1.33c-20.76-1.07-41.8-2.12-62.13,2.26S54.63,134.67,43.47,152.2c-3.56,5.59-6.22,12.16-5.23,18.71,1,6.7,5.77,12.39,11.51,16s12.41,5.41,19,6.92c4.84,1.11,9.79,2.09,14.74,1.74C91.6,195,99,191,106.1,187.06l1.43-.78a240,240,0,0,1,38.94-17.37c19.7-6.56,40.4-9.77,61.06-13C235.35,151.62,263.09,147.32,288.12,134.87Z"/><path class="cls-1" d="M132.93,530.39h0c1.21,0,2.43.09,3.64.16a151.18,151.18,0,0,1,55.58,13.77c6.64,3.07,13.37,6.92,17.1,13.22a115,115,0,0,0,16.48,21.54c2.45,2.52,5.1,5,8.37,6.27s7.31,1.17,10-1.13c3.22-2.8,3.43-7.77,2.44-11.93-1.63-6.8-5.69-12.73-9.71-18.46-13.18-18.8-27.06-37.59-45.41-51.39s-42-22.16-64.49-17.39c-7.75,1.65-15.44,5-20.58,11s-7.18,15.11-3.47,22.12c2.94,5.56,8.89,9,15,10.53,4.91,1.24,10,1.44,15.08,1.65Z"/><path class="cls-1" d="M651.64,247.68c-5.13-1.94-10.93.4-15.27,3.74-8.57,6.61-13.64,16.94-16,27.52s-2.12,21.5-1.92,32.32l1.69,93c.13,6.79.43,14.11,4.6,19.46a8,8,0,0,0,5.21,3.37c2.57.26,4.94-1.36,6.79-3.15,10.12-9.8,11.45-25.24,12.66-39.31l0-.51a494.05,494.05,0,0,1,9.22-61.47c1.23-5.7,2.57-11.44,5.14-16.67A51.17,51.17,0,0,0,659.07,254C657.09,251.39,654.73,248.84,651.64,247.68Z"/><path class="cls-2" d="M468,373.51c5.41,1.49,10.25,6,10.79,11.58a7.19,7.19,0,0,1,5.71-4.08L481,384.77l4.48.09-6.16,3.44c3.82,7.05,3.2,15.76.75,23.4-1.49,4.68-3.66,9.36-3.24,14.25s4.69,9.73,9.36,8.75l.24-.06a23,23,0,0,1,16.8,2.25c7.25,4.08,11.65,11.66,16.63,18.33,4.4,5.88,9.6,11.35,16.11,14.76s14.48,4.53,21.26,1.7c3.36-1.41,6.37-3.73,9.94-4.47a7.58,7.58,0,0,1,8.54,4.63c.58,1.49-.67,7-3.84,13.51a7.62,7.62,0,0,1,1.62-.28c16.69-1.08,33.54-4.71,47.9-13.28a143.66,143.66,0,0,0,13.07-9.14l2.46-1.88,1.5-1.15c9.29-7.2,18.46-15.22,22.28-26.17l.2-.59.43-1.29c.81-2.45,1.85-5,4.21-5.75,3.28-1.05,6.26,2.12,8.25,4.92L688.1,451a5,5,0,0,1,.88,1.67c.62,2.75-3.48,4.14-6.12,3.16-4.8-1.77-8.66-7.06-13.7-6.15-3.54.64-5.66,4.07-7.41,7.3l-.45.83a96.69,96.69,0,0,1-49.42,44c-5.4,2.12-11,3.75-16.56,5.37l-11.26,3.28,2,.35c16.8,3,34.72,4.75,50-2.7,10.16-4.95,18-13.49,25.36-22.11l2.68-3.15,1.11-1.31c4.53-5.44,8.83-11.26,10.16-18.14.5-2.65,3.84-3.91,6.44-3.19s4.57,2.77,6.41,4.73l13.94,14.92c1.09,1.18,2.25,2.47,2.41,4.07s-1.27,3.42-2.82,3l-15.11-4.39c-1.42-.41-3-.82-4.32-.19a5.76,5.76,0,0,0-2.27,2.46l-16.25,27.44c-4.57,7.72-13,12.2-21.39,15.55a154.22,154.22,0,0,1-63.17,11,58.32,58.32,0,0,1-7-.59c-8.68-1.37-16.52-5.78-24.11-10.25,1.33,4.87.14,9-7.76,9.29-7,.28-24.15-28.55-29.49-30C481.75,499,477,482.84,467.62,471.84c0,0-18.9,2.44-31.38-.16-29.25-6.1-48.9-24.86-56-26.05s-11.76,3.34-13.95.59v-2c.34-.55,3.73-3.71,13.39-1.65,13.49,2.87,35.05,13.7,51.52,15.72,17.29,2.13,31.93-.68,31.85-1.16-.16-1,4.18-5.05.71-7.11s-53.88-22.3-64.83-39.16l-.13-.21c-1.89-3.12-3.32-10.89.47-7.34l1.06-1.88c4.09,3.85,17.49,12.65,31.4,21.32,14.72,9.17,35.5,15,35.88,14.78,8.47-5.72,1-9.87-.44-11.09-3.28-2.85-7.64-4.4-10.47-7.7-6.78-7.92-1.93-22.08-9.69-29.05-1.17-1.06-2.59-1.89-3.44-3.22-1.46-2.27-.74-5.44,1-7.49s4.34-3.19,6.9-4.08C456.79,373.05,462.6,372,468,373.51Z"/><circle class="cls-3" cx="472.55" cy="413.99" r="2"/><ellipse class="cls-3" cx="460.36" cy="413.99" rx="1.48" ry="2"/><path class="cls-2" d="M387.88,423.68a147,147,0,0,0-57.16-3.24,211.93,211.93,0,0,1,5.4-21.07c-6.19,2-13.49-3.68-13.09-10.17s8.34-11.22,14.24-8.48a20.09,20.09,0,0,0,.35-14.9c-.87-2.28,2.58-3.6,5-3.6h13.5c1.89,0,4.52-.88,4.05-2.71a8.47,8.47,0,1,1,16.41-4.2l.05.24c1,4.55,6.79,6,11.46,5.91l2.32-.06c4-.08,8.25.05,10.95,2.87,3.23,3.38,2.51,8.75,1.44,13.34l-.07.3q-2.26,9.54-4.83,19C401.25,423.62,393,425,387.88,423.68Z"/><path class="cls-2" d="M232.79,401.4a127.72,127.72,0,0,1,0-38.79l.1-.62c.49-2.91,1.35-6,3.78-7.59,1.82-1.2,4.12-1.29,6.32-1.29l16.79,0a3.21,3.21,0,0,1,2.18.54c.57.5.56,1.66-.18,1.86a4,4,0,0,0-2.56,4.33,7.51,7.51,0,0,0,2.78,4.57c3.3,2.84,8.43,3.85,12.09,1.48s4.51-8.46,1-11.1q11.76-.24,23.54.08l2.94.08a3.82,3.82,0,0,1,2.66.79,3.51,3.51,0,0,1,.78,2,25.69,25.69,0,0,1-2.66,16c-.41.78-1.37,1.63-2,1-2.76-2.5-7.4-2.16-10.22.27s-3.91,6.46-3.41,10.15,3.07,7.34,6.65,7.17c2.82-.15,5.95-2.61,8.08-.76l-3.59,16c-.64,2.85-1.78,6.23-4.63,6.84a112.29,112.29,0,0,1-50.11-.77l-.79-.21a13.46,13.46,0,0,1-5.51-2.51C234.17,408.67,233.33,404.9,232.79,401.4Z"/><path class="cls-2" d="M362,275.6l39.81.8h.65a8.93,8.93,0,0,1,3.48.65c2.43,1.13,3.55,3.93,4.29,6.52a69.51,69.51,0,0,1-1.38,42.29l-.2.55a8.14,8.14,0,0,1-2.94,4.25,8.57,8.57,0,0,1-4.17,1h-.31a122.29,122.29,0,0,1-17.75-.45c3.07-1.89,3.84-6.49,1.89-9.53a8.72,8.72,0,0,0-9.54-3.31,7.16,7.16,0,0,0-4.85,4.1,4.73,4.73,0,0,0,1.93,5.72c1.35.69,1.12,2.89-.06,3.84s-2.83,1-4.35,1.05l-20,.32a8.69,8.69,0,0,1-4.39-.69c-1.87-1-2.73-3.21-3.26-5.28a35.65,35.65,0,0,1-.5-15.28,7.44,7.44,0,1,0,3.09-8.27l-.14-1.29c-.5-4.51-.89-9.08,0-13.52,1-4.87,3.65-9.65,8.09-11.86C354.67,275.63,358.4,275.54,362,275.6Z"/><path class="cls-2" d="M241.3,320.38c-5.61,0-11.22-.21-16.8-.69l-.55-.05c-2-.2-4.09-.6-5.4-2.09-1.77-2-1.34-5-.81-7.68l0-.26a143.91,143.91,0,0,0,2.77-35.38l-.09-2.05c-.15-3.67.08-7.84,3.13-9.72a9,9,0,0,1,3.08-1.06l.36-.07a141.78,141.78,0,0,1,59.26,1.12c2.55.6,3.26,4.06,2.41,6.54s-2.66,4.56-3.34,7.09.56,6,3.18,6c5.46.17,10.08,5.71,9.34,11.12s-6.57,9.5-11.92,8.43c-1.25-.25-1.7,1.6-1.56,2.87l1.53,14.11c.25,2.3-3,3-5.33,2.85l-13.47-1.05c-2.12-.16-5,.2-5.29,2.3a10.35,10.35,0,0,1-20.55-2.37Z"/><path class="cls-4" d="M205,407.21c1.49.37,3.63,1,3.52,2.43-2.4,28.49-12.69,23.24-21.88,31.41-2.42,2.16-3.87,7.27-4.92,7.38,3.87,1.79,9.48,8.95,19.13,9.28,26.89.91,36.68-18.71,36.68-18.71.63-6.3-2.56-17.63,1.42-14.45,2.75,2.19,2.21-8.48,6-7.42,1.12.32-.85,7.41,0,7.84.46.23,1.15-1.7,2.35-3.24,1-1.29,2.55-2.24,2.87-2s0,2-.9,3.58c-1.26,2.18-3.38,4.28-3.09,4.63s5.92-4.82,6.26-4.36c2.26,3-12.06,37.74-36.24,44.3l-1.91.51c-14.1,3.75-20,4.26-33.07-.51-6.19-2.26-10,18.86-13.48,25.89-2.18,4.44-12.73,15.32-17.55,12-6.36-4.34-11.54-12.42-17-16.51l-.34-.25q-5.53-4-25-12l.58-.27c2.71-1.23,9.69-4.25,15.06-8.85,7.61-6.54,11.74-20.59,17-28.17s12.28-6.38,8-7.7c0,0-10.76-5.7-15.7-6.22-16.52-1.75-38.06,6.06-44.95,11.09C78.49,443.83,87.88,454,74.82,449c-4.36-1.66,7.31-23.16,23.41-31.88C120.6,405,141.75,401.68,163,421c8.63,7.85,9.48,14.84,11.8,20.16l-.48-1.3c25.59-1.69-12.74-27.3,19.26-33.71,3.36-.68,6.89,0,10.25.8Z"/><circle class="cls-3" cx="188.55" cy="424.99" r="2"/><circle class="cls-3" cx="199.55" cy="428.99" r="2"/><path class="cls-4" d="M83.45,502.55c21.68,15-6.06-5.72,17.62,19,4.79,5,29-23.51,31.5-6.62.92,6.16-1.07,12.57.14,18.68,1.13,5.7,25.92,2.28,27.84-.21,6.94-9-14.67-32.25-19.19-36-25.28-20.71-33.62-19.27-57.24,2.15Z"/><path class="cls-4" d="M647.39,127.35c4.25.5,8.21,1,8.21-4,0-1.18-14.32-11.54-18.56-7.55-5.45,5.13-9.78,11-14,16.71-8.81,12-17,23.11-33.75,24.77l-.2,0c-6.49.79,5.6,6.54,19.17,0,9.33-4.51,21.74-18.79,27.64-25.57,1.54-1.77,2.64-3,3.12-3.47l.12-.11C641.18,126.6,644.36,127,647.39,127.35Zm20.19,13.41L681.74,152c2.76,2.19-.48,6.91-4,7.13a16.29,16.29,0,0,1-6-1.13,23.35,23.35,0,0,0-4.32-1.08c-8.31-1-14.65,6.84-19.81,13.44a155,155,0,0,1-15.43,17l-.75.7-.78.72c-4.47,4.07-9.48,7.74-15.37,8.8-8.68,1.56-17.3-2.88-24.38-8.12-1.73-1.28-3.43-2.62-5.13-4-5.26-4.16-10.53-8.32-16.78-10.66A82.91,82.91,0,0,0,554,185.39l.21-.16a57.2,57.2,0,0,1,15.41,28.62l-1.49-.26-1-.17c-9.17-1.54-19-2.45-26.74,2.46a47.19,47.19,0,0,0-7.58,6.53,67.17,67.17,0,0,1-5.08,4.71c.44.26.9.53,1.36.82A95.32,95.32,0,0,0,556,234.58c1.41.14,2.83.25,4.26.36,6.62.5,13.32,1,19,4.33l2,1.19c3.19,1.88,6.73,3.67,9.39,1.49a8.43,8.43,0,0,0,1.78-2.35h0a12.82,12.82,0,0,1,1-1.53c1-1.26,2.91-2.15,4.12-1.11l.49,3.85a5.16,5.16,0,0,1,10.25.29c.39,4.52-4.74,7.23-9.1,8.68l-22.59,7.28c-8.07,2.6-17,1.25-24.8-2.12-7.24-3.14-13.63-7.92-19.74-12.94l-1.35-1.12c-4.62-3.84-10.85-8-16.08-5.07,9.09.55,15.72,8.39,21.14,15.8l.52.71a9.28,9.28,0,0,1,2,4c.61,4.14-4.09,6.89-8.07,8.2,3.35,1.8,1.69,7-.9,9.78a30,30,0,0,1-14.05,8.38l-.49,1.68c0,.12,0,.18,0,.18,2.51-.18,4.06,3.2,3,5.5s-3.55,3.53-6,4.22a26.94,26.94,0,0,1-23.56-4.65l-1.27.66c-5.52,2.86-11.23,5.51-17.37,6.42-6.6,1-13.88-.4-18.65-5.06l.31.68a11.85,11.85,0,0,1,1.3,4.68,4.62,4.62,0,0,1-2.73,4.53c-2.94,1-5.52-2.15-7-4.86-.84,2.08,0,4.43.86,6.71,1,2.6,1.89,5.12.22,7.07s-5,1.5-7.4.31c-8.94-4.48-13.14-15.76-11.2-25.57s9-18,17.38-23.44A30.79,30.79,0,0,1,431,244.45c.45.58,2.48-1.3,5.35-4h0c5.25-4.89,13.34-12.41,19.89-12.34,1.25,0,3.27,1,5.25,1.93h0a26,26,0,0,0,3.94,1.66,1.88,1.88,0,0,1,.32-.31l-1.24-.89a24.33,24.33,0,0,0-8-4.16c-3.44-.86-7.51-.15-9.71,2.63a62.88,62.88,0,0,1-19.79,16.57l4.53,8.37a6.22,6.22,0,0,1-5.94-.4l-.22-.15.14.17c2.61,3.41.31,9.35-4,10-4.34,1.82-8.71-3.62-8.29-8.3.3-3.29,1.93-6.2,3.56-9.11.69-1.25,1.39-2.49,2-3.77,2-4.31,2.89-9.1,3.77-13.85,1.2-6.53,2.39-13,6.45-18.09,2.84-3.57,6.83-6.05,10.91-8.08a75.79,75.79,0,0,1,52.89-5.33,62.29,62.29,0,0,1,16.91-28.17l.47-.45c3.07-2.83,6.89-5.35,11-4.89l.32,0c4,.62,7.55-2.5,10.49-5.38l.91-.89.71-.69c5.82-5.56,12.59-10.7,20.55-11.25,7.09-.5,13.87,2.75,20,6.37a146.58,146.58,0,0,1,19.66,13.9l1.08.92.31.27.36.3.2.18c5.8,5,12.15,10.44,19.71,10,7.74-.46,13.4-6.89,18.61-12.81h0l1.25-1.42c6.43-7.24,13.76-13.61,21.17-19.86l3.18-2.67a6.82,6.82,0,0,1,3.24-1.81C664.6,138.5,666.19,139.66,667.58,140.76Zm-140,122.73a16.65,16.65,0,0,0-6.44.41c1.79,0,3.3,0,4.53-.1.59-.07,1.18-.16,1.76-.28Zm-58.3-34.67a19.18,19.18,0,0,1,1.85-1.74,7.32,7.32,0,0,1,4.08-.86c4.79.46,8.43,5.56,7.8,10.33-2.53,6.28-8.8,9.86-15,13.4h0c-3.82,2.18-7.61,4.35-10.48,7.12a9.33,9.33,0,0,1,2.31-2.72c2.5-1.82,5.12-3.4,7.58-4.89h0c2.07-1.25,4-2.44,5.74-3.65a43,43,0,0,0,5.87-5.12h0a14.13,14.13,0,0,1,2.7-2.37c.06,0,3.08-6.16-4.22-10.17-5.52-3-8,.8-9.3,2.86-.43.66-.74,1.15-1,1.15a1.16,1.16,0,0,1-.28,0,7.76,7.76,0,0,1,.82-1.87A16.31,16.31,0,0,0,469.28,228.82Zm1.56-1.58a8.68,8.68,0,0,0-3.07,3l-.18.14a3.11,3.11,0,0,1-1.11.55c-.76.18-2.57-1.21-4.1-2.38a12.63,12.63,0,0,0-2.17-1.5c-2.86-1.13-3.2-1.14-5.18-1.24l-1.17-.06-.82,0-.6,0h0c-1.64-.07-4-.17-3.54-1.45,8.46-22.9,44.62-27.88,38.64-2a17.61,17.61,0,0,1-3.09,5.88c-.65.94-1.3,1.88-1.85,2.85q-3.5-5-7.63-5.25a5.45,5.45,0,0,0-3.84,1.36Zm65.58-20.55h0q-3,5.67-6.41,13.66A84.84,84.84,0,0,1,536.42,206.69Zm16.12,3.49h-.28a22.88,22.88,0,0,0-5.93,1,25.31,25.31,0,0,0-6.21,3.16A36.46,36.46,0,0,1,552.54,210.18Z"/><path class="cls-5" d="M439.73,306.1c-1.73,2-4.25,1.38-6.55-.87-4.81-4.69-6.75-13.75-4.81-23.56s9.47-13.85,17.87-19.27c-3.77-1.55-10.59-11.39-11.28-20.95,2.32,3,2.45,8.37,4.77,11.37,2.2,2.84,6.61,6.31,8.81,9.15.28.36.52,1,.13,1.2-8.05,4.57-13.27,6.08-18,18.5s4.89,23.9,6.18,23.56c1.57-.41,1-2.51.11-3.86-2.56-3.83-.13-8.94,2-13,1.11,1.25-1.57,4.83-1,8.56S441.27,304.3,439.73,306.1Z"/><circle class="cls-3" cx="472.55" cy="264.99" r="2"/><circle class="cls-3" cx="465.55" cy="256.99" r="2"/><path class="cls-2" d="M166.46,276.63a3.77,3.77,0,0,1-3.11,5.28c-2.09-11.78-4.35-24-11.17-33.82-13.07-18.83-40-25-51.17-45-7.61,5.42-19.26,4-25.39-3-3.82-4.39-10.47-4.93-16.2-3.95s-11.33,3.14-17.13,3c-2.53-.08-5.27-.76-6.74-2.81s-.62-5.66,1.88-6l32.63-4.67a4.52,4.52,0,0,0,2.41-.84,4.52,4.52,0,0,0,1.15-2.63c1.58-7.93,2.71-17.37-3.12-23-4.84-4.63-12.47-4.47-19-3.18s-13.35,3.42-19.82,1.71-11.89-9.4-8.4-15.11c2.34-3.83-.3-8.94-3.91-11.6s-8.09-4-11.59-6.79S2,115.94,4.81,112.42a10.06,10.06,0,0,1,5-3c6.22-2,13.16-2.11,19.17.46S39.88,118,40.86,124.45c.79,5.26-.72,11.38,2.76,15.41,4.54,5.26,12.94,2.31,19.9,2.24A21.29,21.29,0,0,1,83.1,172.16c8.26-8.4,19.39-14.85,31.16-14.41,10.88.4,20.87,6.66,28.15,14.76s12.24,18,17.1,27.69a8.65,8.65,0,0,0,16.31-5c3.38.74,3.73,5.3,3.83,8.76A34.15,34.15,0,0,0,187,224a37.57,37.57,0,0,0,3.43-8.86,15.24,15.24,0,0,1-6.92,24.54c-2.56.81-5.68,1.2-6.95,3.56a182.32,182.32,0,0,1,12.31,26.2c1.83,4.85,3.14,11.09-.7,14.58-4.43-3.28-6.95-8.47-9.3-13.46q-5.52-11.65-11-23.33"/><path class="cls-6" d="M178.57,198.78a32.22,32.22,0,0,0,9.31,25.84,8.24,8.24,0,0,0,3.9-7.06c2.53,4.16,1.11,9.8-2,13.52s-7.66,5.94-12,8.07c-2.5,1.22-5.11,2.46-7.9,2.54-4.25.13-8.06-2.43-11.54-4.88l-10.21-7.19a27.21,27.21,0,0,0,28.24,13.48,73.55,73.55,0,0,1,13.36,36.57l-2.05-3.79-.07-.14.07.14c.3.73-.86,1.53-1.63,1.16a3.28,3.28,0,0,1-1.38-2.28A78.83,78.83,0,0,0,168.93,245l11,23.33c2.35,5,4.87,10.18,9.3,13.46,3.84-3.48,2.53-9.73.7-14.58A182.32,182.32,0,0,0,177.64,241c1-1.92,3.29-2.53,5.46-3.13h0c.5-.14,1-.27,1.48-.43a15.24,15.24,0,0,0,6.92-24.54,37.57,37.57,0,0,1-3.43,8.86,34.08,34.08,0,0,1-7.37-20.1c-.11-3.46-.46-8-3.84-8.76a8.65,8.65,0,0,1-16.3,5c-4.87-9.74-9.83-19.6-17.11-27.7s-17.27-14.35-28.15-14.76c-11.77-.44-22.9,6-31.16,14.41a21.29,21.29,0,0,0-19.58-30.06c-1.81,0-3.71.23-5.61.44-5.45.61-10.93,1.21-14.29-2.68-2.38-2.76-2.42-6.49-2.47-10.25a38.16,38.16,0,0,0-.29-5.16c-1-6.45-5.85-12-11.85-14.53s-12.95-2.42-19.17-.45a10,10,0,0,0-5,3c-2.78,3.52-.56,8.94,2.93,11.75a34,34,0,0,0,6.07,3.61,37.67,37.67,0,0,1,5.52,3.18c3.61,2.66,6.25,7.77,3.91,11.6-3.49,5.71,1.92,13.4,8.4,15.11,5.35,1.41,10.91.2,16.38-1,1.15-.25,2.3-.5,3.44-.72,6.57-1.29,14.2-1.45,19,3.18,5.83,5.59,4.7,15,3.12,23a4.52,4.52,0,0,1-1.15,2.63,4.52,4.52,0,0,1-2.41.84L38.48,188c-2.5.36-3.35,4-1.88,6s4.21,2.73,6.74,2.81c3.85.12,7.61-.79,11.38-1.7,1.91-.47,3.82-.93,5.75-1.26,5.73-1,12.38-.44,16.2,3.95,6.13,7.05,17.78,8.43,25.39,3,5.89,10.53,16.13,17.23,26.42,24,9.26,6.06,18.56,12.14,24.75,21.07,6.82,9.83,9.08,22,11.17,33.81a3.77,3.77,0,0,0,3.11-5.28l-2.3,3A64.43,64.43,0,0,0,140,229.64,136.41,136.41,0,0,0,128.31,222c-8.84-5.33-17.64-10.64-22.53-19.49a6.47,6.47,0,0,1-.92-2.56,7.42,7.42,0,0,1,.81-3.32l.06-.16c1.76-4.27,3-9,2.13-13.52s-4.29-8.84-8.87-9.53c7.75,5,9.34,17.26,3.1,24s-18.62,6.18-24.19-1.15c-4.46-5.86-13.38-5.15-20.56-3.48s-15.64,3.4-21.19-1.45a175.82,175.82,0,0,1,36.37-6c2.93-.17,4.08-3.83,4.47-6.73.61-4.47,1.22-9,.55-13.46s-2.78-8.91-6.56-11.36c-4.55-2.94-10.41-2.49-15.8-1.93l-14.3,1.5c-3.09.32-6.25.64-9.24-.18s-5.8-3-6.38-6.1a12.31,12.31,0,0,1,.75-5.72,17.89,17.89,0,0,0,.86-4.17c.19-4-2.4-7.68-5.55-10.17a45,45,0,0,0-6.22-3.93c-1.36-.76-2.72-1.52-4-2.36-2.46-1.59-5-4.15-4.29-7,.43-1.82,2.08-3.08,3.73-4a20.66,20.66,0,0,1,18.27-.35A20.65,20.65,0,0,1,40,124a45.09,45.09,0,0,1,.56,4.72c.31,3.69.62,7.36,2.93,10.13,2.75,3.31,7.51,4.14,11.81,3.94,1.47-.07,3-.24,4.42-.4a35.72,35.72,0,0,1,8.45-.28c9.44,1.19,16.88,11,15.46,20.42-.08.52-.18,1-.28,1.57-.36,1.88-.72,3.77-.08,5.53.82,2.26,4.41,3.46,5.55,1.35,5.1-9.48,16.79-14.26,27.48-13s20.25,7.68,27.27,15.84,11.79,18,16.14,27.82c1.54,3.47,6.1,4.73,9.75,3.69S176,201.53,178.57,198.78ZM159.42,215.3c.1,0,.34.46.7,1.17.9,1.75,2.53,4.94,4.68,5.91-.1.91-1.52.42-2.11-.27C161,220.14,159.22,217.88,159.42,215.3Zm5.07,15.52c1.11,1.63-5.54,2.43-7.75,1a6,6,0,0,1,1.47,0,8.51,8.51,0,0,0,2.14,0,21.45,21.45,0,0,0,2.82-.74C163.91,230.86,164.41,230.7,164.49,230.82Zm-1.59-6c-2.65.45-5.9-3.07-5.9-6.39.76,2.45,3.47,4.4,5,5.47C162.73,224.4,163.18,224.72,162.9,224.77Zm9.48,13.87c-3.52,0-5.12-5.95-3.52-6.33.38-.17.4.36.42,1.15a6.29,6.29,0,0,0,.55,2.79,5.86,5.86,0,0,0,2.32,2C172.65,238.51,172.88,238.64,172.38,238.64Zm3.93-8.1a3.2,3.2,0,0,1,1.68,2,1.73,1.73,0,0,1-1.14,2.08.72.72,0,0,1,0-.92c.22-.39.47-.81-.57-1.77a3.64,3.64,0,0,0-1.3-.7c-.28-.09-.46-.15-.45-.27C174.6,230.2,175.68,230.2,176.31,230.54Zm-6.6-7.75c-.17.12-.29.21-.19.3a.88.88,0,0,0,1.07.23,1.24,1.24,0,0,0,.5-.82,2.91,2.91,0,0,0-3.32-3.25,1.27,1.27,0,0,0,.83.72,2.79,2.79,0,0,1,1.42,1.16C170.66,222.13,170.07,222.54,169.71,222.79Zm-.6,17c-2.08-.6-4.13-5.5-3-5.87.69-.24.69-.2.65.19a3.86,3.86,0,0,0,.3,2,15.07,15.07,0,0,0,1.66,2.91C169,239.45,169.19,239.72,169.11,239.77ZM644.63,128.46c-4.46.55-8,4.14-10.19,8a59.58,59.58,0,0,0-2.78,5.88h0a54.72,54.72,0,0,1-3,6.27c-5.61,9.54-16.26,14.75-26.47,19-1.76.74-4.85.39-4.3-1.43a47,47,0,0,0,35.67-32.81c.54-1.93-2-3.56-3.91-3.05-1.76.46-3,1.92-4.13,3.38l-.36.45c-9.31,12.12-22.68,22.36-37.94,23-1.08,0-2.63-.61-2.15-1.59,11.3-.38,22-6,30.36-13.54S630.21,125,636.2,115.42c.93-1.48,3.15-1.17,4.81-.6a68.21,68.21,0,0,1,14.49,6.94c2.43,1.55.5,5.67-2.26,6.48a14.22,14.22,0,0,1-4.92.24A19,19,0,0,0,644.63,128.46ZM640.29,119l-.39-.12a3.91,3.91,0,0,0-3.48.21,3.86,3.86,0,0,0-.88,1.08l-3.18,5.37a14.41,14.41,0,0,1,4.7,2,3.86,3.86,0,0,0,4,.07,3.82,3.82,0,0,0,1.78-3.56c-.05-.52.8-.66,1.16-.28a2.07,2.07,0,0,1,.42,1.07h0l.09.39c.14.5.55,1,1.06.94a2.45,2.45,0,0,0,.75-1.93c.19-.74,1.34-.08,1.52.65s.51,1.79,1.24,1.6c1.08-.27,1.42-1.77.89-2.75a5.15,5.15,0,0,0-2.59-2A58.55,58.55,0,0,0,640.29,119Zm-9.67,8.72a8.21,8.21,0,0,0,6.42,2.36,6.74,6.74,0,0,0-6.17-2.41ZM511.68,294.23a26.94,26.94,0,0,1-23.56-4.65c-5.91,3.1-12,6.11-18.64,7.08s-13.88-.4-18.65-5.06a13.59,13.59,0,0,1,1.61,5.36,4.63,4.63,0,0,1-2.73,4.53c-2.94,1-5.52-2.15-7-4.86-.84,2.08,0,4.43.86,6.71,1,2.6,1.89,5.12.22,7.07s-5,1.5-7.41.31c-8.93-4.48-13.13-15.76-11.19-25.57s9-18,17.38-23.44A30.79,30.79,0,0,1,431,244.45a29.83,29.83,0,0,1,2.89,5h0a29.11,29.11,0,0,0,2.88,5,25.87,25.87,0,0,0,3.9,3.78h0a25.48,25.48,0,0,1,3.91,3.78c.28.36.52,1,.12,1.2-8,4.57-14.93,11.86-17.21,20.83s.89,19.56,8.77,24.41a6.16,6.16,0,0,0,4.63,1.13c1.57-.42,2.76-2.4,1.85-3.76a13.29,13.29,0,0,1-.78-13.15l6.6,7.41c1.52-.39,1.9-2.44,1.49-4a12.64,12.64,0,0,0-.48-1.43h0a7.2,7.2,0,0,1-.65-3.1c.15-1.56,2.19-3,3.26-1.82,4.3,4.56,11.2,5.85,17.38,4.84s11.84-4,17.37-6.89l6.53-3.45a5.67,5.67,0,0,1-3.86,4A26,26,0,0,0,511.74,292a6.6,6.6,0,0,0,3.43-1.95,2.74,2.74,0,0,0,0-3.64c-.12-.1-.26-.2-.39-.29h0a2,2,0,0,1-.69-.66c-.24-.42.12-1.14.57-.94,2.51-.18,4.06,3.2,3,5.5S514.11,293.54,511.68,294.23ZM467.05,260.8a3.21,3.21,0,0,0-3.67,1.9,6.13,6.13,0,0,0,0,4.42,9.31,9.31,0,0,1,1-3.9,4.9,4.9,0,0,1,1.8-1.27C467.1,261.46,467.86,261.06,467.05,260.8Zm-1.22-4.06a5.65,5.65,0,0,1,6.4,8.07,2.9,2.9,0,0,1-.37-1.46C471.66,261.43,471.32,258.35,465.83,256.74ZM464,271.62c-.67.82,1.64,3,5.25,1.5.67-.28.13-.31-.74-.36a8.17,8.17,0,0,1-2.45-.38,2.42,2.42,0,0,1-1-.9C464.78,271.06,464.63,270.85,464,271.62Zm7.31,2.77c2.32-1.16.86,2.22-4,1.81-.43,0-1-.21-1-.65,0-.15.41-.19,1-.24A10.88,10.88,0,0,0,471.33,274.39ZM457.05,268a3.4,3.4,0,0,0,3,.71c.51-.1.77-.56.29-.71a4.15,4.15,0,0,0-.51-.1,4.92,4.92,0,0,1-1.66-.47c-.3-.18-.47-.8-.62-1.32s-.27-1-.49-.79A2.09,2.09,0,0,0,457.05,268Zm.78,2.88c.42.64-1.19.42-1.53,0s-.69-2-.11-2c.17,0,.23.25.29.55a2,2,0,0,0,.32.8,1.31,1.31,0,0,0,.75.49A.4.4,0,0,1,457.83,270.85Zm72.22-3.19c.86,1.73-.65,3.67-2.11,4.94a53.46,53.46,0,0,1-20.61,11.07,30.07,30.07,0,0,0,21.87-9.4c2.59-2.77,4.25-8,.9-9.78,4-1.31,8.68-4.06,8.07-8.2a9.28,9.28,0,0,0-2-4l-.52-.71c-5.42-7.41-12-15.25-21.15-15.8,5.24-2.94,11.47,1.23,16.09,5.07l1.35,1.12c6.11,5,12.5,9.8,19.74,12.94,7.78,3.37,16.73,4.72,24.8,2.12l22.59-7.28c4.36-1.45,9.49-4.16,9.1-8.68a5.16,5.16,0,0,0-10.25-.29l-.49-3.85c-1.21-1-3.15-.15-4.12,1.11a12.82,12.82,0,0,0-1,1.53,8.43,8.43,0,0,1-1.78,2.35c-2.66,2.18-6.2.39-9.39-1.49l-2-1.19c-5.65-3.32-12.35-3.83-19-4.33-1.43-.11-2.85-.22-4.26-.36a95.24,95.24,0,0,1-26.89-6.64c7.86,6.45,18.14,7.53,28.51,8.62A113.09,113.09,0,0,1,573,238.91c3.94,1,8.3,3,9.27,6.94,1.4,5.74-5.41,10.18-11.29,10.71-9.61.88-19-3.21-27.14-8.43l-.92-.59c-2.95-1.94-5.82-4-8.68-6.11-5.25-3.83-10.5-7.65-16.29-10.56,6,.3,10.36-4,14.82-8.46a47.19,47.19,0,0,1,7.58-6.53c8-5.08,18.27-3.93,27.72-2.29l1.49.26a57.2,57.2,0,0,0-15.41-28.62l13.33,26.22c-14-4.68-30.88,1.16-39,13.54A85.54,85.54,0,0,1,569,174.8c6.24,2.34,11.52,6.5,16.78,10.66h0c1.69,1.34,3.39,2.68,5.12,4,7.08,5.24,15.7,9.68,24.38,8.12,6.24-1.12,11.49-5.18,16.15-9.52l.75-.7a156,156,0,0,0,15.43-17c5.16-6.6,11.5-14.43,19.81-13.44a23.35,23.35,0,0,1,4.32,1.08,16.25,16.25,0,0,0,6,1.13c3.51-.22,6.74-4.94,4-7.13l-14.16-11.24c-1.39-1.1-3-2.26-4.74-2a6.82,6.82,0,0,0-3.24,1.81l-3.18,2.67c-7.41,6.25-14.74,12.62-21.17,19.86L634,164.49c-5.21,5.92-10.87,12.35-18.61,12.81-7.56.46-13.91-5-19.71-10l-.87-.75-1.09-.92a145.84,145.84,0,0,0-19.65-13.9c-6.11-3.61-12.89-6.87-20-6.37-8.29.57-15.28,6.11-21.26,11.94l-.91.89c-2.94,2.88-6.45,6-10.49,5.38l-.32,0c-4.07-.46-7.89,2.06-11,4.89l-.47.45a62.29,62.29,0,0,0-16.91,28.17,75.85,75.85,0,0,0-52.89,5.33c-4.09,2-8.07,4.51-10.91,8.08-4.06,5.1-5.25,11.57-6.45,18.09h0c-.88,4.75-1.76,9.54-3.77,13.85-.59,1.28-1.29,2.52-2,3.77-1.63,2.91-3.26,5.82-3.56,9.11-.43,4.68,3.95,10.12,8.29,8.3,4.34-.69,6.64-6.81,3.82-10.19a6.21,6.21,0,0,0,6.16.55l-4.53-8.37A62.88,62.88,0,0,0,446.73,229c2.2-2.78,6.27-3.49,9.71-2.63a24.33,24.33,0,0,1,8,4.16l1.24.89a2.3,2.3,0,0,0,1.17,3.93c-1.15-4.68,3.53-9.6,8.33-9.14s8.43,5.56,7.8,10.33c-2.53,6.28-8.8,9.86-15,13.4-6.72,3.84-13.37,7.64-15.07,14.78s3.83,15.25,11.16,16.21,14.77-5.39,15-12.78a1.44,1.44,0,0,0,1.47-1c.61-1.81,1.18-3.82,1.75-5.81,1.07-3.75,2.12-7.43,3.33-9.63,3.4-6.16,9.73-11,16.76-11.21a51.86,51.86,0,0,0,6.68-.72h0a42,42,0,0,1,8.51-.68c5.09.28,10.66,3.25,11.39,8.29a38.78,38.78,0,0,0-17.08.54l19.68,2.34c4.32.51,5.13,7.2,2.05,10.28-2.9,2.9-7.33,3.37-11.47,3.56l-.75,0c.73,1.47,2.53,1.63,4.33,1.78S529.31,266.19,530.05,267.66Zm104.67-86c-6.1,6.78-13.23,14.06-22.34,14.4-8,.29-14.93-4.84-21.38-9.59l-.47-.35L589,185q-10.8-7.84-22.34-14.58c-5.95-3.48-12.78-6.84-19.45-5.12l10.55,3.33a3.76,3.76,0,0,0-1.27,5.22c.24-2.5,3.13-4.09,5.61-3.7s4.49,2.21,6,4.2a59.6,59.6,0,0,0-31.21,27.85c-1.23,2.35-2.29,4.78-3.36,7.22a86.39,86.39,0,0,1-4.72,9.67c-3.19,5.37-7.91,10.25-14,11.67-.85.2-1.72.33-2.59.47a15.77,15.77,0,0,0-5.05,1.33l-.25.13-.17.09-.12.06c-1.82,1-4.07,2.18-5.2.6a11.9,11.9,0,0,0-7.93-4.84A62.64,62.64,0,0,1,529,189.22c1-.4.59-1.83.07-2.72l-7.67-13.13c-.71-1.22.12-2.87,1.37-3.51a7.05,7.05,0,0,1,4.13-.37,48.33,48.33,0,0,1,24.37,10.38c1.11.91,2.93,1.79,3.75.61-7.93-8-19.26-11.69-30.42-13.19a37.49,37.49,0,0,1,27.1,8.25l.36.3c1.79,1.45,3.95,3,6,2.11a47.11,47.11,0,0,0-31.35-13c2.38-1.78,4.6-3.74,6.83-5.71h0c2.26-2,4.52-4,6.94-5.8,4.81-3.56,10.57-6.33,16.54-6,4.34.25,8.4,2.12,12.24,4.16A125.35,125.35,0,0,1,592,167.11l1.49,1.28c6.64,5.72,13.88,12,22.45,11.15,5.23-.49,9.86-3.65,13.54-7.4a83,83,0,0,0,5.67-6.61c1.47-1.84,2.94-3.67,4.52-5.4,2.28-2.5,4.93-4.85,8.18-5.8s7.2-.16,9.13,2.62ZM424.55,228.06c1.18-6.43,2.34-12.8,6.69-17.48a27.44,27.44,0,0,1,7.63-5.4,77.37,77.37,0,0,1,46.59-8c3.88.56,8.68,2.74,8.62,6.42l-.06.68a4,4,0,0,0,.06-.68,52.06,52.06,0,0,1,23.65-38.13,43.11,43.11,0,0,0,10.1,22,62.67,62.67,0,0,0-32.46,31.65l-.1.23c-1.81,4-4.67,8.81-8.85,7.82l2.07-12.79a5.63,5.63,0,0,0-.19-3.5,5.09,5.09,0,0,0-3.25-2.1l-.45-.13c-7.5-2.13-15.91-4.16-22.76-.45-3.62,2-6.22,5.27-8.65,8.65l-1.81,2.54a128.54,128.54,0,0,1-14.32,16.76c-2.11,2.09-4.39,4.15-7.22,5s-6.33.29-8-2.15A62,62,0,0,0,424.55,228.06Zm46.21,49.86a12.66,12.66,0,0,1-11.55-1.18,9.71,9.71,0,0,1-3.73-3.49c-1.25-2.25-1.06-5.05-.34-7.53a19.59,19.59,0,0,1,6.27-9.52A40,40,0,0,1,468.2,252h0c.81-.43,1.63-.86,2.43-1.3a56.41,56.41,0,0,0,19.57-18.2A4.46,4.46,0,0,1,495,231a9.88,9.88,0,0,1,4.44,2.92c.9.92,1.56,2.74.37,3.21a30.54,30.54,0,0,0-17.84,19l-.21.71h0a11.06,11.06,0,0,1-1.71,3.83c-1,1.29-3.1,5.83-2.05,8C478,268.64,475.21,276.27,470.76,277.92ZM482.39,210c1.36.3,2.83.74,3.58,1.92a5.35,5.35,0,0,1,.48,3.32,54.16,54.16,0,0,1-2.81,13.19c-.25.72-1,1.59-1.59,1.07a7.6,7.6,0,0,0-14.59-1.15,1.37,1.37,0,0,1-1.64.66,3.51,3.51,0,0,1-1.26-.71l-.38-.31A18.12,18.12,0,0,0,450,224.21a49.14,49.14,0,0,1,9.9-11.88,15.52,15.52,0,0,1,5.34-3.36,16.37,16.37,0,0,1,5.92-.51A66,66,0,0,1,482.39,210Zm177.94-56.63a12.38,12.38,0,0,0-7.24-3.76l3.12-3.95c1-1.25,2.14-2.52,3.7-2.71a6,6,0,0,1,3.25.8,47.94,47.94,0,0,1,9.59,6.07,7,7,0,0,1,2.39,2.89,2.67,2.67,0,0,1-1.06,3.3c-1.14.54-2.78-.65-2.32-1.83l0-.13a1.63,1.63,0,0,0-.72-1.81l-1.1,2.11a1.09,1.09,0,0,1-.4.47c-.74.41-1.34-.74-1.38-1.58v-.12c-.08-.82-.51-1.88-1.28-1.62a3.63,3.63,0,0,1-6.34,2.14ZM422.71,257.79l-1.33-5.06c-.63-.17-1.25.46-1.34,1.11a3,3,0,0,0,.17,1.29l.2.63a10.69,10.69,0,0,1-.05,6.64,19.65,19.65,0,0,1-2-8.72c-.86-.47-1.45,1-1.39,1.95l.37,5.85a7.71,7.71,0,0,1-2.13-6.68,17.3,17.3,0,0,1,2.71-6.7,8.87,8.87,0,0,1,2.46-2.87A3.41,3.41,0,0,1,424,245a5,5,0,0,1,1.74,2.53,7.48,7.48,0,0,0,1.17,2.11c.19.21.41.42.64.64.87.84,1.8,1.74,1.19,2.64a23.73,23.73,0,0,1-5.08-4.19,17.06,17.06,0,0,0,1.4,9.93c.29.63-.69,1.23-1.3.9A2.53,2.53,0,0,1,422.71,257.79ZM603.1,241.25c1-.85,1.84-1.63,2.26-1.41,1.24.62-2.12,3.33-3.91,4.1.13.86,1.38.48,2.11,0s2.77-1,2.37-.47a18.43,18.43,0,0,1-11.75,6.29c-1.8.2-4-.28-4.61-2-.52-1.57.65-3.12,1.88-4.29l.3-.27c.52-.47,1.35-.92,1.83-.41,1.27,1.34,3.49.24,4.95-.89,0,0,3.81-3.67,4.45-3.44s-1.9,4.38-1.9,4.38a14.57,14.57,0,0,0,2-1.58Zm-18.22,3.41a1.8,1.8,0,0,1,1.32.33,3.86,3.86,0,0,1-2.36,7.1,1.17,1.17,0,0,1-.68-.22c-.4-.31-.35-.92-.26-1.42l.64-3.65C583.69,245.92,584,244.86,584.88,244.66Zm-80.61-8.29a18.15,18.15,0,0,1,7.41.3c-.14,1-1.31,1.44-2.29,1.65a29,29,0,0,1-9.24.39C500.92,237.27,502.66,236.64,504.27,236.37ZM658,155.4l-6.44-3.8a8.14,8.14,0,0,1,8.11,4C659.2,156,658.5,155.7,658,155.4ZM517,231.6c-2.72.72-5.42,1.56-8.08,2.52A6.1,6.1,0,0,0,517,231.6Zm-26.66-3.45c.75.16.41,1.34-.19,1.82a5.72,5.72,0,0,1-6.54.29ZM661.54,140a2.16,2.16,0,0,1,1.31.26,24.35,24.35,0,0,1,7.23,5l-9.25-4.72A1.13,1.13,0,0,1,661.54,140ZM520.68,165.52l.09.06a5.59,5.59,0,0,1,2.5.21,11.26,11.26,0,0,1-2.85,3.44A3.68,3.68,0,0,1,520.68,165.52Zm158.22-13,0,.06a2.71,2.71,0,0,1,1.64,2.62,10.32,10.32,0,0,1-4.72-5.12A5.94,5.94,0,0,1,678.9,152.55Zm-191.45,80.7-.15.21a3.34,3.34,0,0,1-2.06,1.61c-.89.11-1.81-1-1.18-1.69A4.62,4.62,0,0,1,487.45,233.25Zm-63.28,9c.8.19,1.7.77,1.58,1.58a27.4,27.4,0,0,1-5.37-1.26A6.24,6.24,0,0,1,424.17,242.22Zm169.58-.15c-.41.18-.79-.58-.39-.8,0,0,2.72-4.78,2.84-1.43C596.25,240.67,594.49,241.69,593.75,242.07Zm-115,24.51c.2-1.45.58-4.18,1.35-4.18,1.1-.11.68,1.75.38,3.07-.08.36-.15.68-.18.91a1.2,1.2,0,0,1-1.69,1A7.28,7.28,0,0,0,478.71,266.58ZM223.5,316.69c5.58.48,11.19.71,16.79.69a10.36,10.36,0,0,0,20.56,2.37c.33-2.1,3.17-2.46,5.28-2.3l13.48,1.05c2.31.18,5.58-.55,5.33-2.85l-1.53-14.11c-.14-1.27.31-3.12,1.56-2.87,5.35,1.07,11.19-3,11.92-8.43s-3.88-10.95-9.34-11.12c-2.62-.08-3.86-3.51-3.18-6a16.68,16.68,0,0,1,1.75-3.82h0a19.63,19.63,0,0,0,1.59-3.26c.85-2.48.14-5.94-2.41-6.54A141.78,141.78,0,0,0,226,258.33l-.36.07a9,9,0,0,0-3.08,1.06c-3,1.88-3.28,6.05-3.14,9.72l.1,2.05a143.91,143.91,0,0,1-2.77,35.38l0,.26c-.53,2.65-1,5.67.81,7.68,1.31,1.49,3.4,1.89,5.4,2.09Zm34.37,2.84a3.89,3.89,0,0,1-.35,2.27l-.1.22a7.52,7.52,0,1,1-12.54-8,96.65,96.65,0,0,1-21.37.17c-2.19-.23-5.06-1.42-4.62-3.58a160.76,160.76,0,0,0,2.86-45.33c-.22-2.74,3.16-4.17,5.87-4.66a141.27,141.27,0,0,1,53,.39c2.22.44,5.09,2.13,4.11,4.18a28.6,28.6,0,0,0-2.65,15.61c.15,1.36,1.21,3.13,2.4,2.45a6.65,6.65,0,1,1-3.12,7.46,72.12,72.12,0,0,0,.88,22c.49,2.51-3.16,3.45-5.7,3.26l-20.33-1.51c-.62,1,0,2,.69,3.06A6.65,6.65,0,0,1,257.87,319.53ZM363,273.6l39.81.8h.65a8.93,8.93,0,0,1,3.48.65c2.43,1.13,3.55,3.93,4.29,6.52a69.51,69.51,0,0,1-1.38,42.29l-.2.55a8.14,8.14,0,0,1-2.94,4.25,8.57,8.57,0,0,1-4.17,1h-.31a122.29,122.29,0,0,1-17.75-.45c3.07-1.89,3.84-6.49,1.89-9.53a8.72,8.72,0,0,0-9.54-3.31,7.16,7.16,0,0,0-4.85,4.1,4.73,4.73,0,0,0,1.93,5.72c1.35.69,1.12,2.89-.06,3.84s-2.83,1-4.35,1.05l-20,.32a8.69,8.69,0,0,1-4.39-.69c-1.87-1-2.73-3.21-3.26-5.28a35.65,35.65,0,0,1-.5-15.28,7.44,7.44,0,1,0,3.09-8.27l-.14-1.29c-.5-4.51-.89-9.08,0-13.52,1-4.87,3.65-9.65,8.09-11.86C355.67,273.63,359.4,273.54,363,273.6Zm43.46,4.16a7,7,0,0,0-3.37-.75h-.29q-18.58-.69-37.17-.7h-4.13c-2.62,0-5.31.05-7.71,1.1-3.57,1.57-5.88,5.22-6.82,9s-.72,7.75-.49,11.64c6.28-1.72,13,4.65,12.28,11.12s-7.91,11.13-14.3,9.89a14.28,14.28,0,0,0,0,6.14c.6,2,2.35,3.75,4.41,3.69l18.52-.6c1.15,0,2.73-.63,2.4-1.73-1.89-6.23,3.57-13.5,10.08-13.43s11.81,7.47,9.78,13.66a35.59,35.59,0,0,0,12.43.57,7.15,7.15,0,0,0,3.78-1.35,7.38,7.38,0,0,0,1.93-3.44,71,71,0,0,0,1.34-40.14c-.45-1.7-1.06-3.52-2.48-4.52ZM230.79,400.4a127.72,127.72,0,0,1,0-38.79l.1-.62c.49-2.91,1.35-6,3.78-7.59,1.82-1.2,4.12-1.29,6.32-1.29l16.79,0a3.26,3.26,0,0,1,2.18.54c.57.5.56,1.66-.18,1.86a4,4,0,0,0-2.56,4.33,7.51,7.51,0,0,0,2.78,4.57c3.3,2.84,8.43,3.85,12.09,1.48s4.51-8.46,1-11.1q11.76-.24,23.54.08l2.94.08a3.82,3.82,0,0,1,2.66.79,3.51,3.51,0,0,1,.78,2,25.69,25.69,0,0,1-2.66,16c-.41.78-1.37,1.63-2,1-2.76-2.5-7.4-2.16-10.22.27s-3.91,6.46-3.41,10.15,3.07,7.34,6.65,7.17a12.11,12.11,0,0,0,3.08-.74h0c1.85-.62,3.63-1.21,5,0l-3.59,16c-.64,2.85-1.78,6.23-4.63,6.84a112.29,112.29,0,0,1-50.11-.77l-.79-.2a13.55,13.55,0,0,1-5.51-2.52C232.17,407.67,231.33,403.9,230.79,400.4Zm65.53-6.93c-4.66,2.19-10.73.31-13.65-3.94A13,13,0,0,1,283,375a15.22,15.22,0,0,1,13.51-6l.42,0a2.67,2.67,0,0,0,3.39-2.53,21.11,21.11,0,0,0-.14-10.62l-21.71.16a11.82,11.82,0,0,1-23.5,2.45l-.12-.89a3.59,3.59,0,0,0-1-2.35,3.64,3.64,0,0,0-1.7-.68l-.23,0c-6.32-1.2-14.33-1.69-17.64,3.82a15.08,15.08,0,0,0-1.66,6.29,145.14,145.14,0,0,0,.93,37.59l.09.58c.32,1.85.81,3.75,2.19,5a8.35,8.35,0,0,0,3.41,1.62l.31.09a105.37,105.37,0,0,0,48.54,1.68l.89-.19a4.88,4.88,0,0,0,2.23-.87,5.19,5.19,0,0,0,1.38-2.76Zm117.17,31.76a16.6,16.6,0,0,1,.41-3.32,18.45,18.45,0,0,1,2.24-3.59c-.11.57-.28,1.18-.44,1.81-.58,2.16-1.22,4.55-.25,6.31.75,1.36,11.69,8.53,15.45,10.21,16.07,7.19,32.23,13.69,48.47,20.22h0c6.64,2.67,13.28,5.34,19.94,8.07-11.44-1.4-22-6.72-32.25-12-2.21,12.3,4.64,24.69,13.88,33.1,6.73,6.12,14.65,10.65,22.58,15.19h0c3,1.69,5.91,3.39,8.8,5.16l1.07.66c10.27,6.43,20.09,14.55,24.62,25.74a4.4,4.4,0,0,0,8.31-2.82c2.19,1.8.93,5.83-1.73,6.82s-5.71-.35-7.68-2.4a24.71,24.71,0,0,1-3.54-5.33h0c-.34-.62-.67-1.23-1-1.84-6.33-10.86-17.53-17.61-28.64-23.79l-5.22-2.89c-12.06-6.73-24.41-14.82-29.57-27.56a110.09,110.09,0,0,1-56-5.79c-3.79-1.45-7.51-3.1-11.22-4.75h0a136.24,136.24,0,0,0-18.05-7c-3.47-1-8.24-1.1-9.54,2.26h0c0,.07-.28.5-1.39.6-.51,0-1-.87-1.14-1.47a3.84,3.84,0,0,1-.17-1.62,8,8,0,0,1,3.1-4.26,10.52,10.52,0,0,1,3.81-1.54c.37-.08.59-.13.58-.19a3.43,3.43,0,0,0-2.79.13,22.84,22.84,0,0,0-2.84,1.73h0c-1.35.92-2.53,1.71-3.43,1.6-1.22-.14-2.08-.71-2.1-1.94a4.54,4.54,0,0,1,1.26-3.49,11.33,11.33,0,0,1,7.26-2.52,2,2,0,0,1,1.55.51c.37.43.19,1.29-.37,1.31-3.39.15-7.3.72-8.62,4.19-.39,1,2,1.18,3,.64a7.89,7.89,0,0,0,1.48-1.16,12.42,12.42,0,0,1,1.05-.87,6.23,6.23,0,0,1,3.82-1.16,1.85,1.85,0,0,1,1.47.59c.32.44.1,1.24-.45,1.25a7.34,7.34,0,0,0-6.95,6.6c0,.13.11.71.51.85a1.19,1.19,0,0,0,1-.27c1.83-3.26,5.17-5.45,8.75-4.35a28.38,28.38,0,0,1,4,1.66c2.28,1.1,4.53,2.19,7,2.09L392,448.74a23.59,23.59,0,0,0-22.88-4.91,3.15,3.15,0,0,0-2.07,1.48c-.34.81.41,2,1.23,1.67-1.29,1.19-3.46-.83-3-2.51s2.33-2.55,4-3c9.52-2.47,19,1.84,28.16,6h0c1.7.78,3.39,1.54,5.06,2.26a102.46,102.46,0,0,0,59.65,6.33c-.87,2.36-3.81,3.08-6.32,3.36a109.84,109.84,0,0,1-52.54-7c-2,2.57-1.06,6.57,1.24,8.9s5.57,3.38,8.71,4.32c17.59,5.26,36.23,9.28,54.21,5.54l-2.92-17-.06-.31a1.94,1.94,0,0,0-1-1.6l-.16-.06c-23-7.82-40.59-13.78-63.39-35.51l-.13-.13c-.17,6.53-2.24,8-10.88,6.18-18.84-3.88-38.14-5.92-57.16-3.24a211.93,211.93,0,0,1,5.4-21.07c-6.19,2-13.5-3.68-13.1-10.17s8.35-11.22,14.25-8.48a20.09,20.09,0,0,0,.35-14.9c-.87-2.28,2.58-3.6,5-3.6h13.5c1.89,0,4.52-.88,4.05-2.71a8.46,8.46,0,1,1,16.4-4.2l.06.24c1,4.55,6.79,6,11.46,5.91l2.32-.06c4-.08,8.25.05,10.95,2.87,3.23,3.38,2.5,8.75,1.44,13.34l-.07.3a34.62,34.62,0,0,1-2,5.76,28.13,28.13,0,0,0-2.79,13.25c.06,2.61.15,5,.26,7.2.37-1.54.7-2.56.7-2.56s44,32.77,71.19,37.22c3.26-2.88,1.38-8.49-1.9-11.34a34.79,34.79,0,0,0-4.53-3.14,24.4,24.4,0,0,1-5.94-4.56c-3.25-3.8-3.83-9-4.4-14.2-.63-5.64-1.25-11.22-5.29-14.85-.36-.33-.74-.63-1.12-.93h0a9.85,9.85,0,0,1-2.31-2.29c-1.46-2.27-.74-5.44,1-7.49s4.34-3.19,6.89-4.08c5.3-1.85,11.11-2.88,16.52-1.39s10.25,6,10.78,11.58a7.23,7.23,0,0,1,5.72-4.08L483,384.77l4.48.09-6.16,3.44c3.82,7.05,3.2,15.76.75,23.4-.3.94-.62,1.87-1,2.81-1.31,3.75-2.62,7.53-2.29,11.44.42,4.81,4.69,9.73,9.36,8.75l.24-.06a23,23,0,0,1,16.8,2.25c5.89,3.31,9.89,8.93,13.85,14.49.92,1.29,1.84,2.58,2.78,3.84,4.4,5.88,9.6,11.35,16.11,14.76s14.48,4.53,21.26,1.7c1.25-.52,2.44-1.17,3.64-1.81a23.67,23.67,0,0,1,6.3-2.66c3.57-.74,8.11,1,8.54,4.63-1.85-3.09-6.22-3.63-9.66-2.59a30.47,30.47,0,0,0-5.53,2.5,39.31,39.31,0,0,1-4.23,2.06c-7.29,2.86-15.79,1.13-22.51-2.91-6.51-3.92-11.61-9.76-16.21-15.82l-.45-.59c-.46-.62-.93-1.24-1.39-1.87h0c-3.23-4.34-6.49-8.72-10.76-12-4.79-3.71-11.22-5.9-17-4.12l-.35.12c-5.51,1.86-11.35-3.41-12.35-9.15s1.35-11.47,3.64-16.82c2.36-5.53-2-12-7.44-14.46a19.46,19.46,0,0,0-16.2.14c-1.63.78-1.92,2.91-1.87,4.74v.21c.28,6.45,2,13.24,6.72,17.66a33.57,33.57,0,0,0,4.64,3.44h0a25.92,25.92,0,0,1,5.62,4.46c2.84,3.26,3.28,9.36-.67,11.13a175.05,175.05,0,0,1,20.07,4.85c-35.45-3.63-68-20.35-91.45-40.55a12.07,12.07,0,0,0-1,2.94c.06,1,.11,2,.17,2.9.07,1.29.14,2.49.19,3.61a13,13,0,0,0,7.38,8.41,9.43,9.43,0,0,1,2.35-7.26C408.24,415.39,406.43,420.28,413.49,425.23Zm54.45-49.9a54.84,54.84,0,0,0-9.57-.94,2.2,2.2,0,0,0-.23,1.33,30.29,30.29,0,0,1,10.35,2.77c-1.36,1.36-3.6.55-5.42-.11l-.11,0a18.61,18.61,0,0,0-9.78-.78,9.63,9.63,0,0,0-4.6,2,5,5,0,0,0-1.83,4.48c.37,2.13,2.37,3.58,4.36,4.4A16.81,16.81,0,0,0,466.46,387c.36-.24.87.16.9.59a1.63,1.63,0,0,1-.58,1.13c-1.78,1.77-4.44,2.33-6.94,2.48-.74,0-1.47.06-2.21.07h0a23.47,23.47,0,0,0-5.3.51c.24,1.42,2,1.91,3.45,2a40.67,40.67,0,0,0,16.27-2.15c1.31-.46,2.5.85,3.27,2l5.6,8.36c1.84-1.73,1.73-4.72.87-7.1a27.3,27.3,0,0,0-1.21-2.71,19,19,0,0,1-1.65-4.29,18,18,0,0,1-.3-2.54h0a13.84,13.84,0,0,0-.57-3.51C476.66,377.83,472.07,376.09,467.94,375.33Zm-67.68,76.32-5.09-2.92c-.56-.32-1.6-.38-1.55.27-.17,2.63,0,5.84,1.73,8,1.06,1.38,1.83,2.08,5.59,3l-.28-7.36A1.2,1.2,0,0,0,400.26,451.65Zm77.44-40a4.23,4.23,0,0,0,1.38-1.61,7.48,7.48,0,0,0,1.37-3.54,2.56,2.56,0,0,0-2.13-2.72,2.88,2.88,0,0,0-1.76.64,7,7,0,0,0-2.51,3.33c.59.85,1.92.09,2.51-.75s1.47-1.92,2.41-1.49a15.53,15.53,0,0,1-3.19,5.86A1.47,1.47,0,0,0,477.7,411.66Zm10.18,62.1c-1.42-2.25-2.94-4.67-5.46-5.4a63,63,0,0,0,24.65,25.22c3.62,2,7.45,3.7,11.27,5.37,5.34,2.33,10.66,4.66,15.43,8A44.9,44.9,0,0,1,548,523.14c-1.31-9.21-9-16.26-17.23-20.61-3.72-2-7.63-3.56-11.53-5.15h0A102.77,102.77,0,0,1,505.44,491a51.82,51.82,0,0,1-17.3-16.79C488.05,474,488,473.9,487.88,473.76Zm17.56,3.11.16.35c.68,1.59,1.16,3.59-.13,4.67-1,.86-2.59.53-3.81,0a12.59,12.59,0,0,1-6-6,7.89,7.89,0,0,0,4.06-2.18,2.81,2.81,0,0,1,3.57.05A8.22,8.22,0,0,1,505.44,476.87Zm-.83,3.77c1.32-2.38-1.38-5.88-2.7-6.11-.57-.09-1.16.47-1.8,1.08A3.82,3.82,0,0,1,498,477S503.28,483,504.61,480.64Zm66.7,6.83a113.7,113.7,0,0,0,83.63-41.73c1-1.3,3.11-1.32,4.56-.51a10.84,10.84,0,0,1,3.36,3.63c1-.15,1-1.72.34-2.46a5.48,5.48,0,0,0-1.21-.91,5.61,5.61,0,0,1-1.23-.93c-1.4-1.56-.65-4,.17-5.92l3.66-8.59c.5-1.14,1.26-2.49,2.51-2.47a3.2,3.2,0,0,1,2.2,1.49,252.49,252.49,0,0,1,17.56,24.18c-3.31.51-6.49-1.12-9.63-2.73-3.51-1.8-7-3.56-10.47-2.29-3.07,1.11-4.87,4.19-6.49,7-5.31,9.24-11.38,18.14-19.08,25.51-17.88,17.12-42.82,24.53-67.12,29.21a91.16,91.16,0,0,0,47.43,4.57c9.06-1.55,18.1-4.61,25.17-10.5a73.5,73.5,0,0,0,7.81-8l18.2-20.54c1.07-1.21,3,0,4,1.21s2.34,2.84,3.85,2.3a12.57,12.57,0,0,0-5.28-5.79c-.14-2.9-.23-6,1.31-8.46s5.39-3.65,7.38-1.55q9.84,10.33,18.82,21.44c-3.51.55-6.85-1-10.16-2.46h0c-1-.47-2-.93-3.07-1.33-4.33-1.69-10.41-1.66-12.39,2.56-5.4,11.52-11,23.34-20.3,32.05-15.5,14.56-38.14,17.84-59.27,20.24-9.37,1.06-19,2.07-28.11-.32-6.64-1.73-12.68-5.19-18.63-8.61l-4.73-2.71c-1.39.35-.27,2.46,1,3.19,7.91,4.66,16.06,9.41,25.13,10.84a58.32,58.32,0,0,0,7,.59,154.25,154.25,0,0,0,63.17-11c8.34-3.35,16.81-7.83,21.39-15.55l16.12-27.23a6.17,6.17,0,0,1,2.4-2.67c1.33-.63,2.9-.22,4.32.19l15.11,4.39c1.55.45,3-1.37,2.82-3s-1.32-2.89-2.41-4.07l-13.94-14.92c-1.84-2-3.82-4-6.41-4.73s-5.94.54-6.45,3.19c-1.49,7.8-6.83,14.24-12,20.3-8,9.38-16.26,19-27.32,24.41-15.86,7.74-34.6,5.49-52,2.35l11.26-3.28c5.58-1.62,11.16-3.25,16.56-5.37a96.69,96.69,0,0,0,49.42-44c1.85-3.45,4-7.44,7.86-8.13,3.16-.57,5.86,1.3,8.61,3.21a24,24,0,0,0,5.09,2.94c2.64,1,6.74-.41,6.12-3.16a4.82,4.82,0,0,0-.89-1.67l-14.33-20.22c-2-2.8-5-6-8.25-4.92-2.63.85-3.61,3.89-4.48,6.56l-.08.25,0,.11,0,.12c-4.08,12.44-15,21.12-25.47,29.05a152.12,152.12,0,0,1-14,9.88c-14.36,8.57-31.21,12.2-47.9,13.28-4.72.31-7.68,4.73-10.4,8.78l-.95,1.42a43.62,43.62,0,0,1-18.83,15.37c1.27,1.39,3.57.56,5.17-.44a57,57,0,0,0,18.61-19C568.07,489.5,569.34,487.53,571.31,487.47ZM470.55,414.91a5.07,5.07,0,0,1-8.77.78c-.37-.53-.37-1.58.28-1.53a4.6,4.6,0,0,0,6,1C468.91,414.61,470.3,414,470.55,414.91Zm-14.24-11.75a3.14,3.14,0,0,1,6-.89,7.61,7.61,0,0,1-2.2-.33C459,401.64,458.32,401.46,456.31,403.16Zm10.46,7.55-1.54.66-.09-.06c-.39.76-1.57-.1-1.66-.95,0-.17,0-.36,0-.55,0-.72-.07-1.47-.67-1.79a4.21,4.21,0,0,0-.65,3.72,2.87,2.87,0,0,0,3,1.93A2.19,2.19,0,0,0,466.77,410.71Zm1.84-10.47c1.94.16,2.46.26,3,1.54.1.25-.73,0-1.52-.21h0a4.39,4.39,0,0,0-1.29-.28C462.3,403.21,466.67,400.08,468.61,400.24Zm-.55,3.36c1.08.85.76,4.24-.82,3.6C466.58,406.93,465.78,401.79,468.06,403.6Zm51.37,90.73a1.12,1.12,0,0,1,.89-1.73,1.44,1.44,0,0,1,.65,1.06,1.5,1.5,0,0,1-1.53.66Zm-14.59-6.6,1.12-.17.08,0c.39-.73-.87-1.56-1.38-.91A1.33,1.33,0,0,0,504.84,487.73Zm7.94,4.4c-.64.17-.73-.94-.37-1.5l1.55.7a1.55,1.55,0,0,1-1.16.77Zm-19.29-16.19a.76.76,0,0,0-1.14-.3l.1.09a.82.82,0,0,0,.43,1.22A.77.77,0,0,0,493.49,475.94Zm-33.93-68.66c-.62,0-1.27-.61-1.24-1.67s.32-2,1.24-1.51S460.2,407.28,459.56,407.28ZM169.93,278.9c.37.49,1.23.27,1.56-.25a2.85,2.85,0,0,0,.23-1.81A83.59,83.59,0,0,0,164.9,251c-1-2.33-2.12-5.23-.54-7.22,3.67,9.17,7.38,18.46,8.71,28.25.37,2.67.5,5.6-1,7.85s-5.2,3.11-6.86,1a5.63,5.63,0,0,0,4.31-5.71A2.58,2.58,0,0,1,169.93,278.9ZM199.6,455.68c13.32-.73,28.75-2.65,35.74-14,1.81-2.95,1.42-7.58,1.1-11.4-.25-3.07-.47-5.61.54-6.32,2.26-1.62,4.07,2.54,4.07,2.54s.06-.25.09-.39.09-.39.14-.61c.63-2.83,1.79-8.05,3.62-7.07.75.41.49,2.94.31,4.68h0c0,.41-.08.78-.09,1.06a1.83,1.83,0,0,0,0,.65l.08,0,0,0,0,0a9.46,9.46,0,0,0,1.15-1.55c.93-1.42,2.06-3.14,2.82-2.51,1.18,1-3,7.32-3,7.32s5-5.51,5.44-3.17-11,23.52-21.3,31.82-24.82,13-37.95,11.29C192.66,462.72,194.39,456,199.6,455.68Zm45.65-31-.07,0c-.08,0-.09-.22-.06-.61a6.85,6.85,0,0,1,.84-2.25l-.26.79c-.36,1.12-.63,1.93-.35,1.87l-.07.1Zm2.48-4.78a5.6,5.6,0,0,0-1.77,2c.68-2.17,1.37-4.9-.31-5.12-2.85-.37-5.65,4.28-5.15,6.75-.79-2-4.09-1.12-4.89.84a9,9,0,0,0-.09,4.8h0c.08.5.16,1,.21,1.48.86,7.83-5,15.15-12.13,18.53-6.71,3.19-14.33,3.63-21.78,3.87l-1.74.05c-4.25.11-8.85,0-12.1-2.71s-3.34-9.43.86-10.6A26.92,26.92,0,0,0,208,415.37c.1-3.27,2.22-6,4.27-8.62l.3-.38.25-.33.45-.58c2.29-3,4.18-7.24,2.25-10.53a11.72,11.72,0,0,1-13.1,3.62,23.57,23.57,0,0,1-5.22-3.17c-2.23-1.63-4.44-3.24-7.12-3.65-5.24-.79-10.45,4.52-9.55,9.75-1.42-1.19-3.62.61-3.78,2.46a9.3,9.3,0,0,0,.49,3.2,13.64,13.64,0,0,1,.47,2.25,13.16,13.16,0,0,1-.09,2.66,15.56,15.56,0,0,0-.13,1.8c0,3.11,1.34,6,2.71,8.83h0c.14.28.28.56.41.85l.37.77c1.55,3.37,2.7,7.39,1.05,10.71s-7.3,4.36-8.9,1a49.51,49.51,0,0,0-43.76-27.57c-21.06,0-40,13.91-52.42,30.92-1.55,2.13-3.06,4.41-3.4,7s.87,5.59,3.35,6.46,5.69-1.56,4.88-4.06c1.26,1.46,3.83.08,4.42-1.76a10.24,10.24,0,0,0,.33-3.22,13.44,13.44,0,0,1,.15-2.54c.77-4.08,5-6.44,8.74-8.16l.76-.35c8.9-4,18.17-7.62,27.9-8.3,10-.7,20.7,2.08,27.58,9.38-9.39,2.23-14.84,11.65-19.19,20.35l-.6,1.21c-4.39,8.81-10.13,18.42-19.76,20.29a4.76,4.76,0,0,0,4,3.71l-35.27,21,2.71,3.36a276.45,276.45,0,0,1-29,37.1c-5.81,6.26-13.36,12.74-21.78,11.29a28.21,28.21,0,0,1-4.47-1.31,18.46,18.46,0,0,0-6.56-1.46c-3.81.11-7.63,4.74-5,7.54A97.74,97.74,0,0,0,36,573.06l.18.11a4.53,4.53,0,0,0,2.83.93,5,5,0,0,0,2.6-1.53L89.37,529c3.91-3.54,8.21-7.08,13.42-7.6l.44,0c3.86-.54,7-3,10.22-5.42,1.38-1.06,2.77-2.13,4.22-3,4.89-3.08,13-3.4,14.92,2.06,1,2.91-.31,5.86-1.62,8.77-.39.87-.78,1.73-1.1,2.59-1.41,3.73-.25,9.47,3.74,9.4l22.32-.39a3.52,3.52,0,0,1,2.27.52,3.36,3.36,0,0,1,1,2.21l0,.38a74.42,74.42,0,0,1-.34,20.6c-1.16,7.38-4.24,15.49-11.2,18.19-4.39,1.71-9.28.82-13.9-.24l-28.09-6.56c0-3.4,3-6.17,6.31-7.07a25,25,0,0,1,8.6-.3l.29,0,.24,0,1,.08a66.7,66.7,0,0,0,21.2-2l-10-24.92a85,85,0,0,0,6.62,24l-32.74,1.06c-2.85.08-6,0-7.93-2.12a12.74,12.74,0,0,1-1.31-1.85c-.83-1.33-1.65-2.64-3.13-2.82-1.28-.14-2.44.71-3.42,1.55A64.57,64.57,0,0,0,76,575.83c1.38,3.42,6,4.38,9.5,3.4a28.2,28.2,0,0,0,5.88-2.65h0a40.42,40.42,0,0,1,4.12-2c7.91-3.2,16.61-1,25,1.48l5,1.52c9.81,2.94,21.77,4.45,29.12-2.68,4.34-4.21,5.92-10.47,6.77-16.45A103.43,103.43,0,0,0,155.53,507c7-2.68,10.25-10.47,12.8-17.49l5-13.73c1.67-4.59,5.47-10.22,10-8.37,12.92,5.28,28.18,3.05,40.22-4s21-18.56,27.1-31.13l.16-.34c1.19-2.5,2.7-8.33,1.35-9-.5-.39-1.4.26-2,.71-.33.24-.58.42-.64.35a3,3,0,0,1,.24-.83C250.37,421.32,251.7,417.43,247.73,419.94ZM162.21,497c-1.56,3.52-4.15,7.65-8,7.19-2-.25-3.59-1.8-5-3.38l-.74-.86c-8.07-9.37-19-15.6-30.05-21.33l-3.67-1.9c9-1.76,14.51-10.64,18.46-18.89l1.26-2.63c3.62-7.49,7.73-15.2,15.19-18.58a4.45,4.45,0,0,1,3.27-.45l.26.1.22.08,0,0c1.31.5,3,1.15,3-.09-2.4-1-2.79-4.46-1.41-6.64,1.26-2,3.44-3.13,5.6-4.12l.62-.28c-1.38-1.9-4.37-.31-5.93,1.45l-.13.14c-1.56,1.72-4,3.6-5.77,2.21-7.48-5.78-17.43-7.63-26.83-6.72s-18.37,4.34-26.95,8.27c-3.15,1.44-6.35,3-8.68,5.56-1.81,2-2,4.61-2.18,7.25-.06.77-.11,1.55-.21,2.31-.23,1.83-1.24,1.91-2.13,2a1.67,1.67,0,0,0-1.19.36l-.2.29c-.53.82-2,3.05-2.63,2.82-1-.32-.47-2.39-.47-2.39s-2.85.81-3.06,0c-.75-2.85,3.53-8.68,3.53-8.68A70.37,70.37,0,0,1,108,415.69c11.92-5.19,25.84-6.19,38-1.66a46,46,0,0,1,28.14,31.55c.88,3.55,5,5.12,8.61,5.71l1,.16c3.33.52,6.87,1.08,9,3.62a3.23,3.23,0,0,1,.24,2.81l-.06.27c-.79,3.4-2.17,7.2-5.47,8.23a5.48,5.48,0,0,1-6.78-4.62c0-.27,0-.56,0-.86,0-1.22-.06-2.5-1.08-3Zm-28.35,18.57a26.41,26.41,0,0,0-9-14.75,10.22,10.22,0,0,0,2.67,6.13,67.77,67.77,0,0,0-21,11c-1.68,1.31-4.53,2.5-5.52.61A42,42,0,0,0,83.59,501.1L114,483.63A9.36,9.36,0,0,1,118.4,482a7.85,7.85,0,0,1,3.5,1l.55.28a96.12,96.12,0,0,1,29.76,23.85c2,2.43,3,5.54,3.77,8.63l3.62,14.12c.24.94.41,2.1-.32,2.73a2.61,2.61,0,0,1-1.54.45l-.63,0c-9,.69-16.26,1.25-25.28,0-1.35-2.58-.33-5.77.72-9.08C133.45,521.18,134.37,518.27,133.86,515.61Zm-45.23-8.69a60.62,60.62,0,0,1,9.05,10,2.14,2.14,0,0,1,.54,1.31,2.12,2.12,0,0,1-.91,1.36L58,553.94c-1.63,1.43-4.25,1.18-6.08,0a13.59,13.59,0,0,1-3.81-4.2l-.45-.69c10.24-5.38,16.81-15,23.44-24.75,4.15-6.1,8.33-12.23,13.46-17.37a3.14,3.14,0,0,1,1.76-1.09A3.19,3.19,0,0,1,88.63,506.92ZM203.05,411l1,.31c1.95.6,2.28,3.22,2,5.25-1,8.4-6.25,16.72-14.31,19.33l-.28.1a13.52,13.52,0,0,0-8.78,12.91,6.78,6.78,0,0,1-7.67-5.72c-.07-.71.14-1.64.84-1.75a11.14,11.14,0,0,0,8.87-14.57c-.21-.63-.48-1.25-.75-1.88-.77-1.79-1.54-3.58-1-5.38,1.23.11,1.46,1.79,1.33,3v.15c-.1,1.2.11,2.75,1.28,2.91a17.61,17.61,0,0,0,1.1-5.72c.2-2.49.4-5,1.82-6.94a9.12,9.12,0,0,1,7.35-3.34A24,24,0,0,1,203.05,411ZM26.52,552.69l.25-.29a2,2,0,0,1,2.05,2.76c-.44.8.93,1.6,1.7,1.09a3.15,3.15,0,0,0,1-2.48c.78-.24,1.44.64,1.59,1.44,0,.21.06.43.09.65a2.94,2.94,0,0,0,.51,1.66c.52.62,1.9.3,1.67-.47-.33-1.16,1-2.11,2.23-2.28.29,0,.58-.06.88-.09a4.16,4.16,0,0,0,2.57-.76l.1-.08c.87-.62,1.94.52,2.6,1.53l.3.49A9.35,9.35,0,0,0,50.59,560c.52.07.26.88-.12,1.24l-8.91,8.39c-.43.4-1.13.11-1.64-.2a74.17,74.17,0,0,1-14.49-11.58C24.07,556.48,25.22,554.24,26.52,552.69Zm77.89,15.62c-.26,1.05-1,2.24-2.07,2.16a20.45,20.45,0,0,0-7.77.92,2.86,2.86,0,0,0-1.13-2.87,2.24,2.24,0,0,0,.55,3L91.5,574l-1.19-2.74c-.59.16-.6.88-.56,1.54l0,.41a3.32,3.32,0,1,1-6.62.45c-.13-1.89,1.32-3.48,2.67-4.81l9.55-9.46a1.08,1.08,0,0,1,.71-.37,1.23,1.23,0,0,1,.76.45l3.73,3.77c.72.73.27,1.84-.18,2.93s-.9,2.21,0,2.82a2.12,2.12,0,0,0,1.87-1.47,8.33,8.33,0,0,0,.37-1.23,7.76,7.76,0,0,1,.34-1.19,2.14,2.14,0,0,1,1.84-1.51c.84,0,1.49,1.22.84,1.75a4.11,4.11,0,0,0-1.09,2.41Zm-65.32,4.18A68.76,68.76,0,0,1,17,553.72c.77-.74,1.94,0,2.69.88l.19.22A66,66,0,0,0,40.5,571.74,1,1,0,0,1,39.09,572.49Zm41.18-1.76a111.07,111.07,0,0,1,12.31-13.61c.69-.65,2.13-1.09,2.31-.16Q87.08,564.42,80,572.55C79.47,572.1,79.86,571.27,80.27,570.73ZM51.7,558.57a14.3,14.3,0,0,1-6.56-4.83c-.63-.82-1-2.26-.08-2.69.75-.33,1.47.37,2,1.06l.39.53a13.35,13.35,0,0,0,6.74,4.68,1.53,1.53,0,0,1-1.29,1.46A2.88,2.88,0,0,1,51.7,558.57Zm127.38-144a2.21,2.21,0,0,1,2,2.51h0a4.31,4.31,0,0,1-.31,2.6A6.12,6.12,0,0,1,179.08,414.6Zm23.25,0,.48,0a5.3,5.3,0,0,1,.66.07c.61.1,1.11.17.64-.57-.66-1-2.57-1.14-2.89,0C201.31,414.72,201.77,414.68,202.33,414.63Zm1.54,5.07,0-.11c.46-1.76.19-3.15-1.09-3.15-.5,0-1.26,2.56-1.18,3.33s.93,1.47,1.6,1.09A1.71,1.71,0,0,0,203.87,419.7Zm-8.48-.54a4.12,4.12,0,0,1-.23-4.34,1.24,1.24,0,0,1,.45-.51,1.07,1.07,0,0,1,1.4.64,3.1,3.1,0,0,1,0,1.71S196.29,420.41,195.39,419.16Zm189.79,0a140,140,0,0,0-50.19-3,47,47,0,0,0,3.68-21.56c-4.36,3.06-11.51-.53-11.68-5.85s6.76-9.34,11.3-6.56c1.2.74,2.52-.79,3-2.12a21.09,21.09,0,0,0,0-14.13c-.63-1.76,2-2.72,3.9-2.68l15.89.31a5.67,5.67,0,0,0,3.11-.53,2,2,0,0,0,.76-2.72c-2.75-3.41.41-9.51,4.78-9.24s6.74,6.73,3.59,9.77c-.59.56.55,1.29,1.37,1.31l20.77.48c4.13.09,7,4.49,7.21,8.62.15,3.5-1.09,6.84-2.32,10.15-.11.28-.21.57-.32.86l-.34.93a69.66,69.66,0,0,0-3.42,32.39c.28,2.12-1.67,4-3.76,4.46a12.21,12.21,0,0,1-5.58-.46Z"/><path class="cls-7" d="M163.81,229.12a1.86,1.86,0,0,1,2.4-1.21c.95.33,1.79,1.69,1.1,2.45C166.21,231.57,163.52,231,163.81,229.12Z"/><path class="cls-6" d="M574.22,482.6c-.61.52-1.85.7-2-.09a17.49,17.49,0,0,0,4.68-9c.79-.21,1,1,.82,1.83C577.1,478,576.32,480.84,574.22,482.6Z"/><path d="M43.18,191c0,.78-1.22.74-2,.42a1.2,1.2,0,0,1,1.86-.41Z"/><path class="cls-6" d="M384.69,407.76c-.84.74-2.24-.39-2.11-1.5a3.77,3.77,0,0,1,2.05-2.5A24.47,24.47,0,0,1,395.91,400c.1,1.52-1.87,2.15-3.37,2.44a20.76,20.76,0,0,0-8.75,4,2,2,0,0,1,.9,1.3Z"/><path class="cls-6" d="M396,409.7c-1.87.9-3.78,1.74-5.71,2.5.22.82,1.39.79,2.19.5s1.84-.59,2.35.08a4.18,4.18,0,0,1-6.21.6c-.72-.74-2-.25-3-.7-1.34-.65-1.09-2.67-.3-3.93a8.86,8.86,0,0,1,7.86-4.06c1.18.06,2.59.64,2.67,1.82a12.61,12.61,0,0,0-10,4c1.42,1.09,3.45.28,5.05-.53S394.71,408.48,396,409.7Z"/><path class="cls-6" d="M199.38,420.18c1.06,1.06,1.5,1.54,1.5,3.1a3,3,0,0,1-2.28,3c-.65.22-1.57.05-1.74-.62C201.62,424.71,199.87,422.64,199.38,420.18Z"/><path class="cls-6" d="M193,413.54a3.12,3.12,0,0,1,4.26-1.76,2.09,2.09,0,0,1,1.15,1.63C196.64,413.46,195.15,412.29,193,413.54Z"/><path class="cls-6" d="M197.35,428.58c-10.07-5.59-2.19,1.57,0,0Z"/></svg>