<svg id="Layer_1" data-name="Layer 1" xmlns="http://www.w3.org/2000/svg" viewBox="0 0 100 100"><defs><style>.cls-1{fill:#f8dc8c;}.cls-2{fill:#fc1a3d;}</style></defs><path class="cls-1" d="M91.1,50A44.85,44.85,0,1,1,46.3,5.1,45,45,0,0,1,91.1,50Z"/><path class="cls-2" d="M62.54,10.29a1.92,1.92,0,0,1,1.09,2c0,2.61,0,5.23,0,7.85a1.46,1.46,0,0,1-2.89.39,4.33,4.33,0,0,1,0-.73c0-2.51,0-5,0-7.54a1.85,1.85,0,0,1,1.14-2Z"/><path class="cls-2" d="M98.3,46.48c-.42,1.19-.72,1.4-2,1.4H88.44A1.46,1.46,0,0,1,86.9,46,1.36,1.36,0,0,1,88,45a3.64,3.64,0,0,1,.74-.05h7.53c1.3,0,1.6.21,2,1.44Z"/><path class="cls-2" d="M62.12,84.5h-3.9A5.32,5.32,0,0,1,52.7,79,30.29,30.29,0,0,0,52.36,73a18.13,18.13,0,0,0-5.09-9.46,22.53,22.53,0,0,1-5-7.29,21.46,21.46,0,0,1,5-24,21,21,0,0,1,15.83-5.93,21.42,21.42,0,0,1,20,16.89,20.85,20.85,0,0,1-5.76,19.87,19.38,19.38,0,0,0-5.23,8.69,20.54,20.54,0,0,0-.6,5.06,18.67,18.67,0,0,1-.22,3.67,5.1,5.1,0,0,1-4.88,3.93c-1.46,0-2.92,0-4.38,0Zm0-3.93c1.34,0,2.68,0,4,0A1.43,1.43,0,0,0,67.69,79c0-.82,0-1.65,0-2.48a21.76,21.76,0,0,1,.73-5.73A23.23,23.23,0,0,1,74.69,60.3a16.79,16.79,0,0,0,4.76-15.78A17.64,17.64,0,1,0,45.51,53.8a20.2,20.2,0,0,0,4.87,7.36,21.62,21.62,0,0,1,5.85,11.23,33.13,33.13,0,0,1,.4,6.52c0,1.14.53,1.66,1.68,1.66S60.84,80.57,62.1,80.57Z"/><path class="cls-2" d="M62.17,86.46c2.11,0,4.21,0,6.32,0a1.43,1.43,0,0,1,1.31,2.17,2.53,2.53,0,0,1-.88.69,1.16,1.16,0,0,1-.57.08H56a2.07,2.07,0,0,1-.82-.16,1.43,1.43,0,0,1-.83-1.6,1.4,1.4,0,0,1,1.42-1.17c2.14,0,4.28,0,6.43,0Z"/><path class="cls-2" d="M62.16,91.11h6.17a1.49,1.49,0,1,1,0,3H55.92a1.48,1.48,0,0,1-1.62-1.49,1.46,1.46,0,0,1,1.64-1.46Z"/><path class="cls-2" d="M79.08,27.84a4.39,4.39,0,0,1,.59-1c1.94-2,3.91-3.94,5.88-5.9a1.45,1.45,0,0,1,2.12-.05,1.47,1.47,0,0,1,0,2.12c-2,2-3.94,4-5.92,5.93a1.44,1.44,0,0,1-1.65.34A1.71,1.71,0,0,1,79.08,27.84Z"/><path class="cls-2" d="M43.62,63.36A1.55,1.55,0,0,1,45,65.58a2,2,0,0,1-.35.46L38.8,71.86a1.49,1.49,0,0,1-1.58.44,1.24,1.24,0,0,1-1-1.17,2,2,0,0,1,.4-1.24c2-2,4-4,6-6A4.05,4.05,0,0,1,43.62,63.36Z"/><path class="cls-2" d="M31.79,47.87c-1.44,0-2.88,0-4.32,0a1.39,1.39,0,0,1-1.34-1,1.36,1.36,0,0,1,.45-1.56A2.2,2.2,0,0,1,27.65,45c2.74,0,5.48,0,8.22,0a1.48,1.48,0,1,1,0,2.94H31.79Z"/><path class="cls-2" d="M43.46,29.4a3.3,3.3,0,0,1-.87-.49c-2-2-4-3.94-5.93-5.92a1.46,1.46,0,1,1,2.06-2.08q3,3,6,6A1.41,1.41,0,0,1,45,28.52,1.55,1.55,0,0,1,43.46,29.4Z"/><path class="cls-2" d="M79.06,65a1.71,1.71,0,0,1,1-1.36,1.36,1.36,0,0,1,1.53.18c.29.24.54.51.8.77,1.72,1.73,3.46,3.44,5.16,5.19a2.19,2.19,0,0,1,.56,1.14,1.24,1.24,0,0,1-.74,1.33,1.42,1.42,0,0,1-1.59-.13l-.23-.21C83.57,69.92,81.62,68,79.71,66A5.08,5.08,0,0,1,79.06,65Z"/><path class="cls-2" d="M62.18,95.76c1,0,2,0,3.05,0a1.48,1.48,0,1,1,0,2.95c-2.06,0-4.11,0-6.17,0a1.48,1.48,0,1,1,0-2.95Z"/></svg>