<svg id="Layer_1" data-name="Layer 1" xmlns="http://www.w3.org/2000/svg" viewBox="0 0 24 24"><defs><style>.cls-1{fill:#00b2ac;}</style></defs><path class="cls-1" d="M.54,19.44V4.56s0,0,0,0A1.88,1.88,0,0,1,1.76,3a3.52,3.52,0,0,1,.58-.15H21.66l.19,0a1.91,1.91,0,0,1,1.6,1.92q0,7.22,0,14.44a1.78,1.78,0,0,1-.06.51,1.91,1.91,0,0,1-1.89,1.44H2.44A1.93,1.93,0,0,1,.62,19.79C.59,19.67.57,19.55.54,19.44ZM12,4.37H2.43a.41.41,0,0,0-.35.3.86.86,0,0,0,0,.16V19.27a.39.39,0,0,0,.35.36h19a.44.44,0,0,0,.49-.49V4.72a.39.39,0,0,0-.32-.35H12Z"/><path class="cls-1" d="M20.4,18.11H3.61a.49.49,0,0,1,0-.12V15.92a.31.31,0,0,1,.06-.16l3.71-3.71,0,0L9.31,13.9l6.11-6.11.1.09,4.81,4.81a.24.24,0,0,1,.07.18v5.24Z"/><path class="cls-1" d="M3.6,8.18a2.29,2.29,0,1,1,2.28,2.29A2.28,2.28,0,0,1,3.6,8.18Z"/></svg>