<?xml version="1.0" encoding="utf-8"?>
<!-- Generator: Adobe Illustrator 26.0.1, SVG Export Plug-In . SVG Version: 6.00 Build 0)  -->
<svg version="1.1" id="Layer_1" xmlns="http://www.w3.org/2000/svg" xmlns:xlink="http://www.w3.org/1999/xlink" x="0px" y="0px"
	 viewBox="0 0 43.3 43.2" style="enable-background:new 0 0 43.3 43.2;" xml:space="preserve">
<style type="text/css">
	.st0{fill:none;stroke:#313159;stroke-width:1.21;stroke-miterlimit:10;}
	.st1{fill:#313159;stroke:#313159;stroke-width:1.21;stroke-miterlimit:10;}
	.st2{fill:#FC0053;stroke:#FC0053;stroke-width:1.21;stroke-miterlimit:10;}
	.st3{fill:#FC0053;stroke:#FC0053;stroke-width:1.21;stroke-miterlimit:10.0003;}
	.st4{fill:#FC0053;stroke:#FC0053;stroke-width:1.21;stroke-miterlimit:9.9999;}
</style>
<g id="Layer_3">
	<g id="Inclusive">
		<g id="Group_44">
			<path id="Path_86" class="st0" d="M22,24.6c0-0.1-0.1-0.1-0.1,0c-0.3,0.7-1.4,3.6-1.9,4.9c-0.1,0.3-0.4,0.6-0.7,0.6
				c-0.4,0.1-0.7,0-1-0.3s-0.4-0.7-0.2-1l0.7-2.1c0.5-1.6,0.9-3.2,1-4.8c0-0.6,0.1-1.2,0.1-1.8c0-0.3-0.1-0.5-0.4-0.5l-4-0.9
				c-0.5-0.1-0.8-0.5-0.8-1c0.1-0.5,0.5-0.8,1-0.8h0.1l3.8,0.6c1.2,0.2,2.4,0.2,3.5,0.1c1.7-0.1,3.4-0.5,5.1-0.7
				c0.5-0.1,1,0.2,1.1,0.7l0,0c0.1,0.5-0.2,1-0.8,1.1l0,0l0,0l-4,0.9C24,19.7,24,19.8,24,20.2c0,2.4,0.5,4.7,1.3,6.9
				c0.2,0.5,0.4,1.1,0.6,1.6c0.4,0.9-0.6,1.3-0.6,1.3c-0.5,0.2-1.2-0.1-1.4-0.6l0,0C23.7,28.8,22.3,25.2,22,24.6z"/>
			<path id="Path_87" class="st1" d="M21.9,15.9c-1,0-1.8-0.8-1.8-1.8s0.8-1.8,1.8-1.8s1.8,0.8,1.8,1.8C23.8,15.1,23,15.9,21.9,15.9
				C22,15.9,22,15.9,21.9,15.9z"/>
			<g id="Group_43">
				<path id="Path_88" class="st0" d="M12.8,39.7c-1-0.5-1.9-1.1-2.8-1.7C1,31.9-1.4,19.6,4.8,10.6C5,10.3,5.2,10,5.4,9.7
					C7.2,7.4,9.5,5.4,12.1,4"/>
				<path id="Path_89" class="st0" d="M42,20.5c0.2,7.1-3.3,13.8-9.1,17.9"/>
				<circle id="Ellipse_14" class="st2" cx="13.6" cy="3.1" r="1.8"/>
				
					<rect id="Rectangle_27" x="29.5" y="37.5" transform="matrix(0.5891 -0.8081 0.8081 0.5891 -18.8685 41.4243)" class="st3" width="3.6" height="3.5"/>
			</g>
			<path id="Path_90" class="st0" d="M8.5,23.4c-0.4-4.2,1-8.5,3.9-11.6c4.9-5.3,13.1-5.6,18.4-0.8c0,0,0.1,0,0.1,0.1
				c0.2,0.2,0.5,0.4,0.7,0.7c1.7,1.8,3,4.1,3.5,6.5"/>
			<path id="Path_91" class="st0" d="M35.9,22.5c-0.2,3.3-1.7,6.4-4.1,8.7c-5.6,5.6-14.6,5.6-20.1,0l0,0c-1.3-1.4-2.3-3-2.9-4.8"/>
			
				<rect id="Rectangle_28" x="33.9" y="18.9" transform="matrix(0.7071 -0.7071 0.7071 0.7071 -4.1688 31.2596)" class="st4" width="3.5" height="3.5"/>
			<circle id="Ellipse_15" class="st2" cx="8.4" cy="25" r="1.8"/>
		</g>
	</g>
</g>
</svg>
