<?xml version="1.0" encoding="utf-8"?>
<!-- Generator: Adobe Illustrator 26.0.1, SVG Export Plug-In . SVG Version: 6.00 Build 0)  -->
<svg version="1.1" id="Layer_1" xmlns="http://www.w3.org/2000/svg" xmlns:xlink="http://www.w3.org/1999/xlink" x="0px" y="0px"
	 viewBox="0 0 43.3 43.2" style="enable-background:new 0 0 43.3 43.2;" xml:space="preserve">
<style type="text/css">
	.st0{fill:none;stroke:#313159;stroke-width:0.95;stroke-miterlimit:10;}
	.st1{fill:#FC0053;}
</style>
<g id="Layer_1_00000040540623769167043800000010325594478586528673_">
	<path class="st0" d="M17.9,4.2c9.5-3.1,19.7,2.2,22.8,11.7c3.1,9.5-2.2,19.7-11.7,22.8c-6.5,2.1-13.5,0.4-18.3-4.4
		c0,0-0.1-0.1-0.1-0.1l12.7-12.7L17.9,4.2z"/>
	<path class="st1" d="M7.5,6.4L7.5,6.4c2.1-2.1,4.6-3.7,7.4-4.5L21,20.1l-0.1,0.1L7.5,6.4z"/>
</g>
<g id="Layer_2_00000012466240063710649850000011658057310660992156_">
	<path class="st0" d="M19.6,21.4L7,34C0.1,26.9,0.1,15.6,7,8.6C16.5,18,19.6,21.4,19.6,21.4z"/>
</g>
</svg>
