<svg id="Layer_1" data-name="Layer 1" xmlns="http://www.w3.org/2000/svg" viewBox="0 0 100 100"><defs><style>.cls-1{fill:#f8dc8c;}.cls-2{fill:#fc1a3d;}</style></defs><path class="cls-1" d="M91.1,50A44.85,44.85,0,1,1,46.3,5.1,45,45,0,0,1,91.1,50Z"/><path class="cls-2" d="M71.9,20.9a10,10,0,1,1-10-9.9,9.94,9.94,0,0,1,10,9.9Z"/><path class="cls-2" d="M62.2,92.3H58.6c-1.8,0-2.1-.4-2.1-2V64.7h0V48c0-1.5.5-2,2.1-2h7.2a1.5,1.5,0,0,1,1.5,1.6V90.7c0,.4,0,1.6-1.7,1.6H62.2m0,4.4a20.44,20.44,0,0,1,3.5,0h.4a5.89,5.89,0,0,0,5.7-6V47.4a6,6,0,0,0-6.1-5.9H58.5C54.5,41.6,52,44,52,48V69.1h0V90.2c0,4.1,2.4,6.4,6.5,6.5Z"/></svg>