<svg id="Layer_1" data-name="Layer 1" xmlns="http://www.w3.org/2000/svg" viewBox="0 0 24 24"><defs><style>.cls-1{fill:#00b2ac;}</style></defs><path class="cls-1" d="M12.71,22.19H11.17A9.49,9.49,0,0,1,7.28,21a10.1,10.1,0,0,1-5.37-7.56,6.39,6.39,0,0,0-.11-.85V11.4a5.6,5.6,0,0,1,.1-.81A10,10,0,0,1,5.8,3.91a9.87,9.87,0,0,1,7.19-2A9.66,9.66,0,0,1,19.05,4.7a9.85,9.85,0,0,1,2.89,9.57A10.08,10.08,0,0,1,13.77,22,7.59,7.59,0,0,1,12.71,22.19ZM12,3.08A8.92,8.92,0,1,0,20.92,12,8.92,8.92,0,0,0,12,3.08Z"/><path class="cls-1" d="M10.73,13.89V10.7A1.25,1.25,0,0,1,12,9.44a1.27,1.27,0,0,1,.68.19,1.31,1.31,0,0,1,.62,1.2V17a1.31,1.31,0,0,1-.85,1.29,1.28,1.28,0,0,1-1.63-.79,1.25,1.25,0,0,1-.07-.43C10.72,16,10.73,15,10.73,13.89Z"/><path class="cls-1" d="M12,8.18A1.27,1.27,0,1,1,13.26,6.9h0A1.28,1.28,0,0,1,12,8.18Z"/></svg>