<svg id="Layer_1" data-name="Layer 1" xmlns="http://www.w3.org/2000/svg" xmlns:xlink="http://www.w3.org/1999/xlink" viewBox="0 0 70 70"><defs><style>.cls-1{fill:url(#linear-gradient);}.cls-2{fill:#fff;}</style><linearGradient id="linear-gradient" x1="5" y1="35" x2="65" y2="35" gradientUnits="userSpaceOnUse"><stop offset="0" stop-color="#fd001b"/><stop offset="1" stop-color="#d000ab"/></linearGradient></defs><g id="INSTA"><g id="INSTA-2" data-name="INSTA"><g id="Group_67" data-name="Group 67"><rect id="Rectangle_48" data-name="Rectangle 48" class="cls-1" x="5" y="5" width="60" height="60" rx="5"/><g id="qqyzaK.tif"><g id="Group_66" data-name="Group 66"><path id="Path_102" data-name="Path 102" class="cls-2" d="M24.71,15.15H45l.61.12a11,11,0,0,1,8.14,6.08A11.77,11.77,0,0,1,54.84,25V45.28A11.56,11.56,0,0,1,53.7,49c-2,3.8-5.21,6-9.53,6.08-6.2.12-12.4,0-18.61,0a10,10,0,0,1-3.06-.53A11.14,11.14,0,0,1,14.84,44c0-5.89,0-11.78,0-17.67a10,10,0,0,1,.09-1.55,11,11,0,0,1,6.17-8.52A12.16,12.16,0,0,1,24.71,15.15Zm26.51,20h0c0-2.88,0-5.75,0-8.63A12.75,12.75,0,0,0,51.14,25a7.4,7.4,0,0,0-7-6.21c-6.14,0-12.28,0-18.42,0a8.93,8.93,0,0,0-1,.09,7.39,7.39,0,0,0-6.21,7c0,6.16,0,12.3,0,18.46a8.42,8.42,0,0,0,.09,1,7.39,7.39,0,0,0,7,6.21c6.14,0,12.28,0,18.42,0a7.29,7.29,0,0,0,7.26-7c0-3.11,0-6.22,0-9.32Z"/><path id="Path_103" data-name="Path 103" class="cls-2" d="M34.86,24.8A10.33,10.33,0,1,1,24.53,35.13h0A10.33,10.33,0,0,1,34.86,24.8ZM28.17,35.1a6.69,6.69,0,1,0,6.73-6.66,6.68,6.68,0,0,0-6.73,6.66Z"/><path id="Path_104" data-name="Path 104" class="cls-2" d="M45.57,27.05A2.61,2.61,0,0,1,43,24.44h0a2.64,2.64,0,0,1,5.28-.08.38.38,0,0,1,0,.1,2.61,2.61,0,0,1-2.64,2.6Z"/></g></g></g></g></g></svg>