<svg id="Layer_1" data-name="Layer 1" xmlns="http://www.w3.org/2000/svg" viewBox="0 0 100 100"><defs><style>.cls-1{fill:#f8dc8c;}.cls-2{fill:#fc1a3d;}</style></defs><path class="cls-1" d="M91.1,50A44.85,44.85,0,1,1,46.3,5.1,45,45,0,0,1,91.1,50Z"/><path class="cls-2" d="M50.54,84.37a21.3,21.3,0,0,0,4.88,2.14c9.15,2.65,17.47,1,24.73-5.16A25.14,25.14,0,0,0,89,63.85c.09-1,0-1.92.16-2.86a4.86,4.86,0,0,1,9.69.71A35.18,35.18,0,0,1,92.56,82,34.71,34.71,0,0,1,69.05,97a34.59,34.59,0,0,1-25-5.18.7.7,0,0,0-1.06.12c-1.58,1.64-3.21,3.24-4.8,4.87a1.79,1.79,0,0,1-2,.56,1.86,1.86,0,0,1-1.19-1.82q-.42-8.88-.84-17.75a4.86,4.86,0,0,1,.07-1.27,2.4,2.4,0,0,1,2.51-1.89l18.18.88a1.84,1.84,0,0,1,1.8,1.21,1.77,1.77,0,0,1-.57,2c-1.7,1.69-3.39,3.4-5.08,5.11Z"/><path class="cls-2" d="M83.09,31.67l.42-.4,4.86-4.9a1.7,1.7,0,0,1,1.93-.52,1.76,1.76,0,0,1,1.22,1.67c.11,2,.2,4.06.3,6.1q.29,6.09.58,12.2a2.47,2.47,0,0,1-2.69,2.75c-3.8-.15-7.6-.35-11.4-.53l-6.71-.32a1.79,1.79,0,0,1-1.86-2,2.37,2.37,0,0,1,.63-1.2c1.66-1.71,3.35-3.39,5-5.08l.51-.54c-.3-.17-.55-.32-.81-.45a25.91,25.91,0,0,0-37,16.86,28.78,28.78,0,0,0-.77,6.34,4.86,4.86,0,0,1-8.95,2.66,4.74,4.74,0,0,1-.78-2.59,35.27,35.27,0,0,1,7.41-22A35.49,35.49,0,0,1,78,29C79.75,29.78,81.37,30.75,83.09,31.67Z"/></svg>