<svg id="Layer_1" data-name="Layer 1" xmlns="http://www.w3.org/2000/svg" viewBox="0 0 75 81.31"><defs><style>.cls-1{fill:#f8dc8c;}.cls-2{fill:#fff;}.cls-3{fill:#fc1a3d;}.cls-4{fill:#9a1c21;}</style></defs><path class="cls-1" d="M38.15,59c5,3.47,9.56,6.73,16,6.17,4.68-.4,9.45-2.43,12-6.54,2.9-4.67,2.3-11-.77-15.48-2.38-3.44-6.24-5.56-6.9-10s.59-12.39-5.12-20.29C43.89-.27,23.66-1.87,11.28,8a24.59,24.59,0,0,0-8.37,12.6c-3.16,11.17-1.32,22.16,8,28.7,5.63,4,13.39,4.66,19.93,6.12A21.35,21.35,0,0,1,38.15,59Z"/><path d="M58.35,53.55a3,3,0,1,1,3-3A3,3,0,0,1,58.35,53.55Zm0-5.54a2.54,2.54,0,1,0,2.54,2.54A2.54,2.54,0,0,0,58.35,48Z"/><path class="cls-2" d="M28.83,60.86l-5.19,4L32.22,76a.43.43,0,0,0,.62.13c2.93-2.23-.38-6.34-.38-6.34l1.8-1.87Z"/><path d="M32.59,76.46a.7.7,0,0,1-.55-.31L23.46,65a.22.22,0,0,1,0-.32l5.19-4a.23.23,0,0,1,.32,0l5.44,7.07a.23.23,0,0,1,0,.3l-1.66,1.73c.41.57,1.71,2.5,1.49,4.34A3.13,3.13,0,0,1,33,76.32.64.64,0,0,1,32.59,76.46ZM24,64.88l8.44,11c.06.08.17.18.3.08a2.64,2.64,0,0,0,1.1-1.84c.24-2-1.5-4.14-1.51-4.16a.23.23,0,0,1,0-.31L34,67.91l-5.18-6.73Z"/><path d="M23.64,64.84,32.22,76a.43.43,0,0,0,.62.13c2.93-2.23-.38-6.34-.38-6.34l.12-.11-5.66-7.37Z"/><path class="cls-2" d="M28.71,38.47c.53-3,10.58,1.14,10.58,1.14s8.52,9.49,10.13,11.55a4.19,4.19,0,0,1,1,4.11,4.84,4.84,0,0,1-1.42,2L34.65,70.25l-7.16-9.14,7.85-7.23L31,48.78l-1.08-1.17A8,8,0,0,1,28.71,38.47Z"/><path d="M34.65,70.48a.26.26,0,0,1-.18-.09l-7.16-9.14a.23.23,0,0,1,0-.31L35,53.86l-4.2-4.93-1.07-1.16a8.22,8.22,0,0,1-1.26-9.38,1.32,1.32,0,0,1,.7-.93c2.33-1.28,9.87,1.81,10.19,1.94a.16.16,0,0,1,.08.06C39.55,39.55,48,49,49.6,51a4.44,4.44,0,0,1,1,4.33,5,5,0,0,1-1.48,2.13L34.81,70.42A.25.25,0,0,1,34.65,70.48ZM27.8,61.13l6.88,8.78L48.81,57.14a4.69,4.69,0,0,0,1.35-2,4,4,0,0,0-.93-3.89c-1.52-2-9.47-10.82-10.07-11.5-.66-.26-7.7-3.06-9.75-1.94a.93.93,0,0,0-.48.65.11.11,0,0,1,0,.08,7.78,7.78,0,0,0,1.18,8.86l1.09,1.17,4.35,5.11a.23.23,0,0,1,0,.32Z"/><rect class="cls-2" x="8.32" y="46.61" width="35.26" height="26.88"/><path d="M43.57,73.71H8.32a.23.23,0,0,1-.24-.23V46.61a.23.23,0,0,1,.24-.23H43.57a.23.23,0,0,1,.23.23V73.48A.23.23,0,0,1,43.57,73.71Zm-35-.46H43.34V46.84H8.55Z"/><path d="M43.57,50.78H8.32a.23.23,0,1,1,0-.46H43.57a.23.23,0,0,1,0,.46Z"/><path class="cls-2" d="M44.61,73.82,48,79.44l12.11-7.21a.42.42,0,0,0,.2-.6c-1.87-3.17-6.34-.37-6.34-.37l-1.65-2Z"/><path d="M48,79.67a.23.23,0,0,1-.19-.11l-3.35-5.62a.24.24,0,0,1,.08-.32l7.67-4.56a.22.22,0,0,1,.29,0L54,71a6.86,6.86,0,0,1,4.48-1,3.14,3.14,0,0,1,2,1.53.65.65,0,0,1-.28.91L48.07,79.64A.24.24,0,0,1,48,79.67Zm-3-5.77L48,79.12,59.94,72c.08-.05.2-.15.12-.29a2.69,2.69,0,0,0-1.71-1.31c-1.91-.47-4.28,1-4.3,1a.25.25,0,0,1-.31,0l-1.52-1.86Z"/><path d="M48,79.44l12.11-7.21a.42.42,0,0,0,.2-.6c-1.87-3.17-6.34-.37-6.34-.37l-.1-.13-8,4.75Z"/><polygon class="cls-2" points="34.85 41.39 54.62 69.14 44.7 75.17 21.9 43.64 34.85 41.39"/><path d="M44.7,75.41a.22.22,0,0,1-.18-.1L21.71,43.77a.23.23,0,0,1,.06-.32.24.24,0,0,1,.32,0L44.76,74.87l9.53-5.8L34.67,41.52a.23.23,0,0,1,0-.32.23.23,0,0,1,.32,0L54.81,69a.23.23,0,0,1,0,.18.21.21,0,0,1-.11.15l-9.92,6A.28.28,0,0,1,44.7,75.41Z"/><path d="M11.65,48.57a.76.76,0,1,1-.76-.76A.76.76,0,0,1,11.65,48.57Z"/><path class="cls-1" d="M17.26,48.57a.76.76,0,1,1-.76-.76A.76.76,0,0,1,17.26,48.57Z"/><path class="cls-3" d="M14.45,48.57a.76.76,0,1,1-.76-.76A.76.76,0,0,1,14.45,48.57Z"/><path d="M19.05,63.75H11.4a.23.23,0,0,1-.23-.23V55.86a.23.23,0,0,1,.23-.23h7.65a.23.23,0,0,1,.23.23v7.66A.23.23,0,0,1,19.05,63.75Zm-7.42-.47h7.19V56.09H11.63Z"/><rect class="cls-3" x="17.16" y="61.16" width="7.65" height="7.65"/><path class="cls-4" d="M48.33,30.86c-1.2-4.78-2.06-8.65-2.06-8.65L40.11,22a25.3,25.3,0,0,1-.54,2.94.48.48,0,0,1-.92,0,8.81,8.81,0,0,0-3-4.59c-2.23-1.51-6.54-1.18-6.54-1.18l-4.9.05c-7.48.5-7.83,5.87-9.18,12.87-1.3,6.73-.39,10.65,5.21,12,2.71.67,8.55.22,11.08-4.48h7.78C49.74,44.23,49.51,35.6,48.33,30.86Z"/><path class="cls-2" d="M33.36,19.42a16.69,16.69,0,0,0-4.24-.28l-4.9.05a14.63,14.63,0,0,0-1.92.26s3.49,3.15,7,2.61A7,7,0,0,0,33.36,19.42Z"/><path class="cls-1" d="M61.49,31.8a6.1,6.1,0,1,0,5.14-6.93A6.09,6.09,0,0,0,61.49,31.8Z"/><path d="M22.47,44.56a9.51,9.51,0,0,1-2.27-.25c-2.8-.69-4.55-2-5.36-4.15-.72-1.89-.73-4.48,0-8.14.11-.56.21-1.12.31-1.65,1.13-6.11,2-10.94,9.08-11.41l4.92-.05c.16,0,4.4-.31,6.67,1.22a9,9,0,0,1,3.08,4.71.25.25,0,0,0,.24.18.24.24,0,0,0,.24-.17,24.74,24.74,0,0,0,.53-2.9.23.23,0,0,1,.24-.2l6.16.23a.23.23,0,0,1,.22.19s.87,3.91,2,8.64c.4,1.61,1.51,7-1.22,9.35-1.69,1.43-4.47,1.33-8.27-.32h-7.6C29.41,43.53,25.38,44.56,22.47,44.56Zm7.62-25.22c-.57,0-.94,0-.95,0l-4.92.05c-6.69.45-7.51,4.89-8.64,11-.1.54-.2,1.09-.31,1.66-1.4,7.22,0,10.52,5,11.76,2.44.6,8.29.32,10.81-4.37a.24.24,0,0,1,.21-.12h7.78l.09,0c3.65,1.59,6.28,1.72,7.83.41,2-1.7,1.87-5.71,1.07-8.89-1-4.17-1.83-7.68-2-8.48l-5.78-.23A21.76,21.76,0,0,1,39.79,25a.69.69,0,0,1-.67.5.72.72,0,0,1-.69-.5,8.64,8.64,0,0,0-2.9-4.46C34,19.49,31.46,19.34,30.09,19.34Z"/><path d="M30.65,13a4.44,4.44,0,1,1-4.44-4.44A4.44,4.44,0,0,1,30.65,13Z"/><path class="cls-2" d="M24.22,19.64v-3a1.78,1.78,0,0,0,1.67-2.27c.62-.49.34-1.76.15-2.4a.35.35,0,0,1,.27-.44c1.88-.31,3.41-1.62,3.84-.12.1.32.12.37.22.78.81,3.08,1.87,5.48-1.25,5.69v1.67Z"/><path d="M29.12,19.79a.23.23,0,0,1-.23-.23V17.89a.23.23,0,0,1,.21-.23A2.08,2.08,0,0,0,30.74,17c.52-.73.13-2.13-.32-3.75q-.14-.48-.27-1c-.09-.32-.11-.42-.17-.61l-.05-.17a1.55,1.55,0,0,0-.41-.75.23.23,0,0,1,.21-.42c.37.19.6.9.64,1l.05.17c.06.2.09.29.18.62s.17.67.26,1c.48,1.73.9,3.23.25,4.14a2.31,2.31,0,0,1-1.76.83v1.46a.23.23,0,0,1-.23.23Z"/><path d="M24.22,19.63A.23.23,0,0,1,24,19.4V16.65a.23.23,0,0,1,.23-.23.23.23,0,0,1,.23.23V19.4A.23.23,0,0,1,24.22,19.63Z"/><path d="M29.81,13.49a.26.26,0,0,0,.3.22.26.26,0,1,0-.3-.22Z"/><path class="cls-2" d="M24.7,15.15a1.12,1.12,0,0,0,1.54.38,1.12,1.12,0,0,0-1.15-1.92A1.12,1.12,0,0,0,24.7,15.15Z"/><path d="M25.94,14.87l-.09,0-.65-.28a.24.24,0,0,1-.12-.3.24.24,0,0,1,.31-.12l.64.28a.23.23,0,0,1,.12.3A.22.22,0,0,1,25.94,14.87Z"/><path d="M27.72,13.92a.26.26,0,0,0,.29.22.25.25,0,0,0,.22-.29.24.24,0,0,0-.29-.22A.26.26,0,0,0,27.72,13.92Z"/><path d="M28.71,18.14c-.51,0-1.12-.05-1.16-.05a.23.23,0,1,1,0-.46,12.3,12.3,0,0,0,1.5,0,.23.23,0,1,1,.05.46Z"/><path d="M29,19.2a.93.93,0,0,1-1.37-.27,1.61,1.61,0,0,1-.25-1.07l1.72,0Z"/><path d="M13,19.92a.23.23,0,0,1-.17-.07l-3.19-3.2a.23.23,0,0,1,.32-.32l3.2,3.2a.22.22,0,0,1,0,.32A.21.21,0,0,1,13,19.92Z"/><path d="M9.8,19.92a.2.2,0,0,1-.16-.07.22.22,0,0,1,0-.32l3.19-3.2a.24.24,0,0,1,.33,0,.22.22,0,0,1,0,.32L10,19.85A.2.2,0,0,1,9.8,19.92Z"/><path class="cls-2" d="M18.13,36.36a.19.19,0,0,1-.1,0,.23.23,0,0,1-.1-.31c1.18-2.25,3.8-3.27,5.2-3.82a5,5,0,0,0,.93-.41c.43-.39,2.36-3.11,3.07-4.13a.23.23,0,0,1,.38.26c-.11.15-2.59,3.71-3.14,4.21a4.33,4.33,0,0,1-1.07.5c-1.44.57-3.86,1.51-5,3.6A.23.23,0,0,1,18.13,36.36Z"/><path class="cls-2" d="M31.33,39.84l-.12,0a.23.23,0,0,1-.09-.31,24.15,24.15,0,0,0,2.41-9.63.22.22,0,0,1,.23-.22.23.23,0,0,1,.23.23,24.68,24.68,0,0,1-2.46,9.84A.22.22,0,0,1,31.33,39.84Z"/><path class="cls-2" d="M27.23,27.7l.5-.79s-1.13-4.28-.57-5.82-1.5-3.4.16-4.25c1.33-.69,2.11,1.41,2.11,1.41s.72-2.12,2.15-1.6.18,3.34.18,3.34,3.43,2.18,3.84,3.69-1.69,5.56-1.69,5.56l-.27,1.14a3.52,3.52,0,1,1-6.41-2.68Z"/><path d="M30.21,33.34A3.77,3.77,0,0,1,27,27.58l.45-.71c-.17-.67-1.07-4.38-.54-5.86a3,3,0,0,0-.22-1.88c-.3-.9-.63-1.92.5-2.5a1.25,1.25,0,0,1,1.08-.07,2.4,2.4,0,0,1,1.12,1.13,2.77,2.77,0,0,1,1.11-1.21,1.43,1.43,0,0,1,1.13-.05,1.19,1.19,0,0,1,.7.67,4.36,4.36,0,0,1-.31,2.8c.7.47,3.4,2.32,3.78,3.72s-1.5,5.31-1.7,5.7l-.26,1.11a3.8,3.8,0,0,1-3.66,2.91ZM27.85,16.93a.94.94,0,0,0-.42.11c-.74.38-.6,1-.27,1.94a3.37,3.37,0,0,1,.21,2.19c-.52,1.45.57,5.64.58,5.68a.23.23,0,0,1,0,.18l-.5.8a3.29,3.29,0,1,0,6,2.5l.27-1.15,0-.05c.57-1.1,2-4.22,1.67-5.39s-2.81-3-3.74-3.55a.23.23,0,0,1-.09-.29,4.33,4.33,0,0,0,.39-2.62.71.71,0,0,0-.44-.41,1,1,0,0,0-.77,0,2.81,2.81,0,0,0-1.08,1.43.22.22,0,0,1-.22.16.27.27,0,0,1-.22-.15S28.8,17.25,28.13,17A.71.71,0,0,0,27.85,16.93Z"/><path d="M28,21.88l-.09,0a.23.23,0,0,1-.12-.3l1.46-3.4a.23.23,0,0,1,.42.18l-1.46,3.4A.23.23,0,0,1,28,21.88Z"/><path d="M30.94,21.88a.19.19,0,0,1-.1,0,.22.22,0,0,1-.1-.3l.81-1.66a.23.23,0,0,1,.42.2l-.82,1.66A.23.23,0,0,1,30.94,21.88Z"/><path d="M32.94,23l-.11,0a.24.24,0,0,1-.09-.32l.61-1.13a.23.23,0,0,1,.31-.1.24.24,0,0,1,.09.32l-.61,1.13A.22.22,0,0,1,32.94,23Z"/><path d="M34.5,24.19l-.1,0a.22.22,0,0,1-.1-.31l.59-1.18a.22.22,0,0,1,.31-.1.23.23,0,0,1,.11.31l-.6,1.17A.22.22,0,0,1,34.5,24.19Z"/><path d="M29.77,15.12a.23.23,0,0,1-.22-.17l-.46-1.72a.23.23,0,0,1,.16-.28.23.23,0,0,1,.29.16L30,14.83a.22.22,0,0,1-.16.28Z"/><path d="M29.87,15.76a.23.23,0,0,1-.22-.17.23.23,0,0,1,.17-.28l.45-.11a.22.22,0,0,1,.28.16.23.23,0,0,1-.16.28l-.46.12Z"/><rect class="cls-2" x="40.81" y="2.24" width="25.46" height="19.41"/><path d="M66.28,21.88H40.81a.24.24,0,0,1-.23-.23V2.24A.24.24,0,0,1,40.81,2H66.28a.24.24,0,0,1,.23.24V21.65A.24.24,0,0,1,66.28,21.88ZM41,21.42h25v-19H41Z"/><path d="M66.28,5.47H40.81a.24.24,0,0,1-.23-.23A.23.23,0,0,1,40.81,5H66.28a.23.23,0,0,1,.23.23A.24.24,0,0,1,66.28,5.47Z"/><path d="M53.55,13.28A3.43,3.43,0,1,1,57,9.85,3.44,3.44,0,0,1,53.55,13.28Zm0-6.4a3,3,0,1,0,3,3A3,3,0,0,0,53.55,6.88Z"/><rect class="cls-3" x="48.74" y="9.85" width="9.61" height="9.61"/><path d="M53.55,17.07a.23.23,0,0,1-.24-.23V12.49a.24.24,0,0,1,.47,0v4.35A.23.23,0,0,1,53.55,17.07Z"/><path d="M64.85,4.63a.28.28,0,0,1-.16-.07L63.18,3a.23.23,0,0,1,.32-.32L65,4.23a.24.24,0,0,1,0,.33A.28.28,0,0,1,64.85,4.63Z"/><path d="M63.34,4.63a.24.24,0,0,1-.16-.4l1.51-1.51a.24.24,0,0,1,.33,0A.22.22,0,0,1,65,3L63.5,4.56A.24.24,0,0,1,63.34,4.63Z"/><path class="cls-2" d="M40.11,22.46V17.41S39.79,12,45,12c0,0,.64-1.52,2-1.22a1.19,1.19,0,0,1,1,1.48s.92,0,1.87,0a1.19,1.19,0,0,1,1.24,1.22,1.14,1.14,0,0,1-1.22,1,1.07,1.07,0,0,1,.68,1.25c-.14.94-1.75,1.07-1.75,1.07s.87,1.41-1.58,1.5c0,0,.17,2.12-.94,2.94l0,1.28a3.09,3.09,0,0,1-6.17,0Z"/><path d="M43.2,25.77H43a3.32,3.32,0,0,1-3.08-3.3V17.41a6.23,6.23,0,0,1,1.42-4.25,4.83,4.83,0,0,1,3.56-1.42A2,2,0,0,1,47,10.53a1.48,1.48,0,0,1,1,.67,1.51,1.51,0,0,1,.2.79c.34,0,1,0,1.62,0a1.55,1.55,0,0,1,1.14.52,1.29,1.29,0,0,1-.53,2.07,1.41,1.41,0,0,1,.31,1.16c-.12.83-1.13,1.12-1.65,1.22a1.08,1.08,0,0,1-.06.8c-.22.42-.76.66-1.61.73a3.82,3.82,0,0,1-.95,2.84l0,1.17a3.3,3.3,0,0,1-3.31,3.26Zm3.45-14.83c-.94,0-1.41,1.11-1.42,1.12a.22.22,0,0,1-.21.14,4.45,4.45,0,0,0-3.37,1.27,5.84,5.84,0,0,0-1.3,3.93v5.06A2.86,2.86,0,0,0,43,25.3a2.84,2.84,0,0,0,3.06-2.8l0-1.28a.21.21,0,0,1,.09-.18c1-.74.85-2.72.85-2.74a.27.27,0,0,1,.06-.17.21.21,0,0,1,.16-.08c1,0,1.34-.29,1.45-.5a.7.7,0,0,0-.06-.65.24.24,0,0,1,0-.23.2.2,0,0,1,.18-.12s1.43-.14,1.54-.87a.84.84,0,0,0-.52-1,.23.23,0,0,1,.08-.45.92.92,0,0,0,1-.81.86.86,0,0,0-.21-.6,1.12,1.12,0,0,0-.81-.36c-.93,0-1.84,0-1.85,0a.19.19,0,0,1-.19-.08.23.23,0,0,1,0-.21,1.09,1.09,0,0,0-.1-.74,1.14,1.14,0,0,0-.74-.46Z"/><path d="M42.32,15.33a.24.24,0,0,1-.22-.15,2.18,2.18,0,0,1-.13-.72,2.09,2.09,0,0,1,2.09-2.08,2,2,0,0,1,.69.12.23.23,0,1,1-.15.43,1.65,1.65,0,0,0-.54-.09,1.62,1.62,0,0,0-1.62,1.62,1.73,1.73,0,0,0,.09.56.23.23,0,0,1-.13.3Z"/><path d="M53.55,14.69H47.67a.23.23,0,0,1-.23-.23.23.23,0,0,1,.23-.23h5.88a.24.24,0,0,1,.23.23A.23.23,0,0,1,53.55,14.69Z"/><path d="M51.29,16.54a.23.23,0,0,1-.23-.23V14.46a.23.23,0,0,1,.46,0v1.85A.23.23,0,0,1,51.29,16.54Z"/><path d="M47.24,18.51a.23.23,0,0,1-.23-.23,3.11,3.11,0,0,0-.26-1.2.29.29,0,0,1,0-.16c.19-.72.84-3.13,1-3.94.19-1.17-.07-1.85-.78-2-.3-.06-1.22-.27-2.08,1.9C44.57,13.6,44,15,44,15.05a.23.23,0,0,1-.19.14l-2.41.24a.23.23,0,0,1-.25-.21.22.22,0,0,1,.2-.25l2.28-.23c.15-.37.58-1.44.81-2C45.09,11,46,10.29,47,10.53c.56.12,1.44.61,1.13,2.52-.12.79-.69,2.94-.95,3.91a3.84,3.84,0,0,1,.26,1.32A.23.23,0,0,1,47.24,18.51Z"/><path d="M48.82,17H47.07a.23.23,0,1,1,0-.46h1.75a.23.23,0,0,1,0,.46Z"/><path class="cls-2" d="M39.11,39.84a.23.23,0,0,1-.23-.23c-.07-11.34-1.52-15.14-1.54-15.18a.24.24,0,0,1,.13-.3.22.22,0,0,1,.3.13c.06.16,1.5,3.92,1.57,15.35a.23.23,0,0,1-.23.23Z"/><path class="cls-2" d="M22.73,32.84a.22.22,0,0,1-.23-.22l-.22-7.78a.23.23,0,0,1,.22-.23.22.22,0,0,1,.24.22L23,32.61a.23.23,0,0,1-.23.23Z"/></svg>