<?xml version="1.0" encoding="utf-8"?>
<!-- Generator: Adobe Illustrator 26.0.1, SVG Export Plug-In . SVG Version: 6.00 Build 0)  -->
<svg version="1.1" id="Layer_1" xmlns="http://www.w3.org/2000/svg" xmlns:xlink="http://www.w3.org/1999/xlink" x="0px" y="0px"
	 viewBox="0 0 100 100" style="enable-background:new 0 0 100 100;" xml:space="preserve">
<style type="text/css">
	.st0{fill:none;stroke:#A3C9A8;stroke-width:5;stroke-linecap:round;stroke-miterlimit:10;}
	.st1{fill:#875053;}
</style>
<g>
	<g>
		<path class="st0" d="M4.1,61.1c8.4,0.2,8.3,4.2,16.7,4.3c8.4,0.2,8.5-3.8,16.8-3.7c8.4,0.2,8.3,4.2,16.7,4.3
			c8.4,0.2,8.5-3.8,16.8-3.7s8.3,4.2,16.7,4.3"/>
	</g>
	<g>
		<path class="st0" d="M4.1,46.1c8.4,0.2,8.3,4.2,16.7,4.3c8.4,0.2,8.5-3.8,16.8-3.7c8.4,0.2,8.3,4.2,16.7,4.3
			c8.4,0.2,8.5-3.8,16.8-3.7s8.3,4.2,16.7,4.3"/>
	</g>
	<g>
		<path class="st0" d="M4.1,31.1c8.4,0.2,8.3,4.2,16.7,4.3c8.4,0.2,8.5-3.8,16.8-3.7c8.4,0.2,8.3,4.2,16.7,4.3
			c8.4,0.2,8.5-3.8,16.8-3.7s8.3,4.2,16.7,4.3"/>
	</g>
	<g>
		<path class="st0" d="M4.1,16.1c8.4,0.2,8.3,4.2,16.7,4.3c8.4,0.2,8.5-3.8,16.8-3.7c8.4,0.2,8.3,4.2,16.7,4.3
			c8.4,0.2,8.5-3.8,16.8-3.7c8.4,0.2,8.3,4.2,16.7,4.3"/>
	</g>
</g>
<path class="st1" d="M63.5,14.5c7.8,1.7,13.2,8.7,13,16.7c-0.1,1.8-0.5,3.6-1.3,5.2c-1.4,2.8-3,5.5-4.8,8
	c-3.9,5.5-8.2,10.9-10.7,17.9c-1-2.7-2.2-5.3-3.7-7.7c-2.7-4.4-5.9-8.4-8.7-12.7c-1.3-1.9-2.4-4-3.4-6.2c-3.5-8.5,2.2-19,12.1-21.1
	c1.2-0.2,2.5-0.3,3.7-0.4C61,14.2,62.2,14.3,63.5,14.5z M67.1,31.2c0.1-4.1-3-7.5-7.1-7.6c-0.1,0-0.1,0-0.2,0
	c-4.1-0.1-7.5,3.2-7.6,7.3c0,0,0,0,0,0c-0.1,4.1,3.2,7.5,7.3,7.6S67,35.3,67.1,31.2z"/>
<path class="st1" d="M21.9,78.2c0-3.4-0.1-6.9-0.2-10.3c0.3-0.3,0.7-0.4,1.1-0.3c2.5,0.6,3.9-0.8,5.3-2.6c4.4-5.4,9-10.7,13.5-16
	c0.3-0.4,0.6-1,1.1-0.9s0.4,0.8,0.5,1.3c1.1,6.1,2.2,12.3,3.3,18.5c0,0.2,0.1,0.4,0.3,1c1.1-2.1,2.1-3.8,3.2-5.6
	c0.8-1.3,1.1-3.4,2.4-3.5c1.1-0.1,2.4,1.4,3.5,2.3c3.8,2.7,7.7,5.4,11.5,8.2c1.3,0.9,1.8,0.3,2.6-0.5c3.5-3.9,7.1-7.7,10.6-11.6
	c0.9-1,1.6-1,2.6-0.2c3.1,2.5,6.4,4.9,9.4,7.5c1.2,1,2.8,1.5,4.3,1.2c1.4-0.2,1.8,0.4,1.8,1.8c-0.1,2.4-0.1,4.8,0,7.2
	c0,1.2-0.3,1.8-1.6,1.7c-0.1,0-0.1,0-0.2,0c-5.4,1.2-9.1-1.8-12.7-5.1c-1.2-1.1-1.8-0.7-2.7,0.3c-3.4,3.8-6.9,7.5-10.3,11.3
	c-1,1.1-1.7,1.1-2.8,0.2c-3.9-2.8-7.9-5.5-11.7-8.4c-1.1-0.8-1.5-0.5-2.1,0.5c-4.1,7.3-8.3,14.6-12.4,21.9c-0.2,0.4-0.3,0.9-1,1.1
	c-1.7-9.1-3.3-18.1-5-27.4c-1.7,1.6-3.3,3.4-4.7,5.3c-0.6,0.9-1.6,1.4-2.7,1.3C26.7,78.2,24.3,78.2,21.9,78.2z"/>
</svg>
