<svg id="Layer_1" data-name="Layer 1" xmlns="http://www.w3.org/2000/svg" viewBox="0 0 100 100"><defs><style>.cls-1{fill:none;stroke:#a3c9a8;stroke-linecap:round;stroke-miterlimit:10;stroke-width:5px;}.cls-2{fill:#ba727b;}</style></defs><path class="cls-1" d="M4.1,61.1c8.4.2,8.3,4.2,16.7,4.3s8.5-3.8,16.8-3.7,8.3,4.2,16.7,4.3,8.5-3.8,16.8-3.7,8.3,4.2,16.7,4.3"/><path class="cls-1" d="M4.1,46.1c8.4.2,8.3,4.2,16.7,4.3s8.5-3.8,16.8-3.7,8.3,4.2,16.7,4.3,8.5-3.8,16.8-3.7,8.3,4.2,16.7,4.3"/><path class="cls-1" d="M4.1,31.1c8.4.2,8.3,4.2,16.7,4.3s8.5-3.8,16.8-3.7,8.3,4.2,16.7,4.3,8.5-3.8,16.8-3.7,8.3,4.2,16.7,4.3"/><path class="cls-1" d="M4.1,16.1c8.4.2,8.3,4.2,16.7,4.3s8.5-3.8,16.8-3.7,8.3,4.2,16.7,4.3,8.5-3.8,16.8-3.7,8.3,4.2,16.7,4.3"/><path class="cls-2" d="M63.5,14.5a16.57,16.57,0,0,1,13,16.7,13.3,13.3,0,0,1-1.3,5.2,58.43,58.43,0,0,1-4.8,8c-3.9,5.5-8.2,10.9-10.7,17.9A42,42,0,0,0,56,54.6c-2.7-4.4-5.9-8.4-8.7-12.7a41,41,0,0,1-3.4-6.2c-3.5-8.5,2.2-19,12.1-21.1,1.2-.2,2.5-.3,3.7-.4A24.33,24.33,0,0,1,63.5,14.5Zm3.6,16.7A7.3,7.3,0,0,0,60,23.6h-.2a7.47,7.47,0,0,0-7.6,7.3h0a7.45,7.45,0,0,0,14.9.3Z"/><path class="cls-2" d="M21.9,78.2c0-3.4-.1-6.9-.2-10.3a1.13,1.13,0,0,1,1.1-.3c2.5.6,3.9-.8,5.3-2.6,4.4-5.4,9-10.7,13.5-16,.3-.4.6-1,1.1-.9s.4.8.5,1.3c1.1,6.1,2.2,12.3,3.3,18.5a4.28,4.28,0,0,0,.3,1c1.1-2.1,2.1-3.8,3.2-5.6.8-1.3,1.1-3.4,2.4-3.5,1.1-.1,2.4,1.4,3.5,2.3,3.8,2.7,7.7,5.4,11.5,8.2,1.3.9,1.8.3,2.6-.5,3.5-3.9,7.1-7.7,10.6-11.6a1.6,1.6,0,0,1,2.6-.2c3.1,2.5,6.4,4.9,9.4,7.5a5.23,5.23,0,0,0,4.3,1.2c1.4-.2,1.8.4,1.8,1.8q-.15,3.6,0,7.2c0,1.2-.3,1.8-1.6,1.7h-.2c-5.4,1.2-9.1-1.8-12.7-5.1-1.2-1.1-1.8-.7-2.7.3-3.4,3.8-6.9,7.5-10.3,11.3-1,1.1-1.7,1.1-2.8.2-3.9-2.8-7.9-5.5-11.7-8.4-1.1-.8-1.5-.5-2.1.5-4.1,7.3-8.3,14.6-12.4,21.9-.2.4-.3.9-1,1.1-1.7-9.1-3.3-18.1-5-27.4a39.58,39.58,0,0,0-4.7,5.3,2.89,2.89,0,0,1-2.7,1.3C26.7,78.2,24.3,78.2,21.9,78.2Z"/></svg>