<svg id="Layer_1" data-name="Layer 1" xmlns="http://www.w3.org/2000/svg" viewBox="0 0 100 100"><defs><style>.cls-1{fill:#f9c3dc;}.cls-2{fill:#51a0a8;}</style></defs><path class="cls-1" d="M46.3,26.6A23.35,23.35,0,1,1,22.9,50h0A23.49,23.49,0,0,1,46.3,26.6m0-21.5a44.9,44.9,0,1,0,44.8,45V50A44.9,44.9,0,0,0,46.3,5.1Z"/><path class="cls-2" d="M63.47,14.49a16.54,16.54,0,0,1,13,16.66,12.92,12.92,0,0,1-1.28,5.17,50.77,50.77,0,0,1-4.83,8c-3.9,5.55-8.2,10.87-10.7,17.86A42.68,42.68,0,0,0,56,54.49c-2.69-4.39-5.93-8.4-8.74-12.7a38,38,0,0,1-3.38-6.16c-3.49-8.48,2.21-19,12.13-21.11a26.14,26.14,0,0,1,3.74-.35A21.08,21.08,0,0,1,63.47,14.49Zm3.64,16.7A7.36,7.36,0,0,0,60,23.56h-.18a7.46,7.46,0,0,0-7.58,7.34h0a7.42,7.42,0,1,0,14.84.28Z"/><path class="cls-2" d="M21.91,78.18c-.05-3.44-.11-6.88-.16-10.32a1.17,1.17,0,0,1,1.1-.29c2.46.56,3.86-.85,5.28-2.57,4.43-5.4,9-10.71,13.48-16,.31-.37.57-1,1.12-.89s.44.82.52,1.27q1.68,9.23,3.32,18.45a5.11,5.11,0,0,0,.29,1C48,66.74,49,65,50.08,63.25c.77-1.26,1.12-3.37,2.43-3.53,1.08-.13,2.37,1.43,3.55,2.27,3.84,2.7,7.72,5.35,11.47,8.16,1.26.94,1.8.34,2.57-.51,3.52-3.89,7.12-7.72,10.61-11.64.92-1,1.59-1,2.63-.18,3.12,2.53,6.37,4.91,9.44,7.5a5.32,5.32,0,0,0,4.33,1.22c1.43-.16,1.84.43,1.79,1.81-.09,2.4-.07,4.81,0,7.21,0,1.2-.3,1.84-1.6,1.66a.22.22,0,0,0-.16,0c-5.39,1.23-9.13-1.8-12.7-5.06-1.19-1.09-1.76-.72-2.65.27-3.39,3.79-6.89,7.48-10.26,11.28-1,1.09-1.67,1.07-2.79.25-3.88-2.83-7.87-5.5-11.73-8.37-1.14-.85-1.53-.51-2.1.5Q48.72,87,42.47,98c-.22.37-.3.86-1,1.09C39.81,90,38.19,81,36.51,71.68A43,43,0,0,0,31.83,77a3,3,0,0,1-2.71,1.27C26.72,78.15,24.32,78.19,21.91,78.18Z"/></svg>