<svg id="Layer_1" data-name="Layer 1" xmlns="http://www.w3.org/2000/svg" viewBox="0 0 20 20"><defs><style>.cls-1{fill:#fff;}</style></defs><circle class="cls-1" cx="10" cy="10" r="9.58"/><path d="M10,14.4A4.4,4.4,0,1,1,14.41,10,4.42,4.42,0,0,1,10,14.4Zm0-7.89A3.49,3.49,0,1,0,13.49,10,3.48,3.48,0,0,0,10,6.51Z"/><path d="M14.88,5.56a1.08,1.08,0,0,1-.77.8.45.45,0,0,1-.43-.27.41.41,0,0,1,.06-.48,3.68,3.68,0,0,1,.4-.39.46.46,0,0,1,.74.34Z"/><path d="M4,9.54h.22a.43.43,0,0,1,.46.42.42.42,0,0,1-.42.49,2.62,2.62,0,0,1-.56,0A.43.43,0,0,1,3.29,10a.44.44,0,0,1,.41-.44Z"/><path d="M16,9.54h.26a.44.44,0,0,1,.42.44.42.42,0,0,1-.39.47,2.91,2.91,0,0,1-.59,0,.43.43,0,0,1-.39-.46.45.45,0,0,1,.4-.45Z"/><path d="M6.38,5.89a.5.5,0,0,1-.29.43.39.39,0,0,1-.45,0,3.05,3.05,0,0,1-.44-.44.45.45,0,0,1,.61-.65,3,3,0,0,1,.48.47A.79.79,0,0,1,6.38,5.89Z"/><path d="M14.09,13.64a1.06,1.06,0,0,1,.79.78.43.43,0,0,1-.23.4.4.4,0,0,1-.48,0,2.68,2.68,0,0,1-.45-.44.39.39,0,0,1,0-.45A.46.46,0,0,1,14.09,13.64Z"/><path d="M6.36,14.16a1.09,1.09,0,0,1-.78.72.46.46,0,0,1-.36-.75,3.59,3.59,0,0,1,.39-.39.41.41,0,0,1,.46-.07A.49.49,0,0,1,6.36,14.16Z"/><path d="M10.45,4v.22a.42.42,0,0,1-.45.46.43.43,0,0,1-.46-.45V3.74A.45.45,0,0,1,10,3.29a.43.43,0,0,1,.44.46Z"/><path d="M10.45,16v.24a.43.43,0,0,1-.44.44.44.44,0,0,1-.47-.43,4.34,4.34,0,0,1,0-.51.45.45,0,0,1,.48-.43.43.43,0,0,1,.43.45Z"/></svg>