<svg id="Layer_1" data-name="Layer 1" xmlns="http://www.w3.org/2000/svg" viewBox="0 0 70 70"><defs><style>.cls-1{fill:#fff;}.cls-2{fill:#41416c;}</style></defs><g id="Linkedin"><g id="Group_69" data-name="Group 69"><rect id="Rectangle_49" data-name="Rectangle 49" class="cls-1" x="5" y="5" width="60" height="60" rx="5"/><g id="Group_68" data-name="Group 68"><path id="Path_105" data-name="Path 105" class="cls-2" d="M27.49,23.78A3.75,3.75,0,1,1,23.75,20a3.75,3.75,0,0,1,3.74,3.78Z"/><path id="Path_106" data-name="Path 106" class="cls-2" d="M26.94,30.61V50.44c0,.34,0,.35-.35.35H20.92c-.29,0-.31,0-.31-.31V30.65c0-.38,0-.38.38-.38H26.6C26.94,30.27,26.94,30.27,26.94,30.61Z"/><path id="Path_107" data-name="Path 107" class="cls-2" d="M50.8,50.61c0,.13,0,.16-.19.17H44.84c-.32,0-.33,0-.33-.32V40.09a8.39,8.39,0,0,0-.21-2,4.54,4.54,0,0,0-.54-1.33,2.84,2.84,0,0,0-1.89-1.29,4.39,4.39,0,0,0-2.1.09,3.25,3.25,0,0,0-2.18,1.92,5.52,5.52,0,0,0-.43,1.79,11,11,0,0,0,0,1.15v10c0,.4,0,.4-.4.4H31.4c-.35,0-.35,0-.35-.34V30.61c0-.34,0-.34.35-.34h5.38c.34,0,.34,0,.34.35V32.7a.48.48,0,0,0,0,.26.48.48,0,0,0,.16-.19,7.05,7.05,0,0,1,4.92-3.05,8.28,8.28,0,0,1,4,.39A6.29,6.29,0,0,1,50.18,34a9.93,9.93,0,0,1,.59,2.75c0,.43,0,.87,0,1.31v12.3A2.26,2.26,0,0,0,50.8,50.61Z"/></g></g></g></svg>