<?xml version="1.0" encoding="utf-8"?>
<!-- Generator: Adobe Illustrator 26.0.1, SVG Export Plug-In . SVG Version: 6.00 Build 0)  -->
<svg version="1.1" id="Layer_1" xmlns="http://www.w3.org/2000/svg" xmlns:xlink="http://www.w3.org/1999/xlink" x="0px" y="0px"
	 viewBox="0 0 24 24" style="enable-background:new 0 0 24 24;" xml:space="preserve">
<style type="text/css">
	.st0{fill:#A3C9A8;}
</style>
<path class="st0" d="M12,23.8c-0.5-0.6-0.9-1.2-1.4-1.8c-1.9-2.6-3.7-5.4-5.2-8.3c-0.8-1.3-1.3-2.8-1.6-4.3c-0.3-2,0.2-4,1.4-5.6
	C7.9,0,13-0.9,16.8,1.7C18.6,3,19.8,5,20.2,7.2c0.2,1.5,0,3-0.6,4.3c-0.9,2.2-2,4.3-3.4,6.3c-1.3,1.9-2.6,3.8-4,5.7
	C12.1,23.6,12.1,23.7,12,23.8z M12,4.5c-2.2,0-4,1.7-4,4s1.7,4,4,4s4-1.7,4-4S14.2,4.5,12,4.5z"/>
</svg>
