<?xml version="1.0" encoding="utf-8"?>
<!-- Generator: Adobe Illustrator 26.0.1, SVG Export Plug-In . SVG Version: 6.00 Build 0)  -->
<svg version="1.1" id="Layer_1" xmlns="http://www.w3.org/2000/svg" xmlns:xlink="http://www.w3.org/1999/xlink" x="0px" y="0px"
	 viewBox="0 0 48 26.7" style="enable-background:new 0 0 48 26.7;" xml:space="preserve">
<style type="text/css">
	.st0{fill:#EADEDA;}
	.st1{fill:#FC0053;}
</style>
<path class="st0" d="M45.9,9.6c-0.3-1.1-0.7-2.2-1.3-3.1c-0.6-1-1.2-1.9-2-2.7c-0.8-0.8-1.7-1.5-2.7-2.1c-1-0.6-2-1-3.1-1.3
	C35.7,0.1,34.5,0,33.3,0H33v5.2h0.3c1.1,0,2.1,0.2,3.1,0.6c0.9,0.4,1.8,1,2.5,1.7c0.7,0.7,1.3,1.6,1.7,2.5c0.8,2,0.8,4.2,0,6.1
	c-0.4,0.9-1,1.8-1.7,2.5c-0.7,0.7-1.6,1.3-2.5,1.7c-1,0.4-2,0.6-3.1,0.6h-2.7v-6h-5.3v11.2h7.9c1.2,0,2.4-0.2,3.5-0.5
	c1.1-0.3,2.1-0.7,3.1-1.3c1-0.6,1.9-1.3,2.7-2.1c0.8-0.8,1.4-1.7,2-2.6C46.3,16.7,46.8,13,45.9,9.6z"/>
<path class="st0" d="M15.2,21c-1.1,0-2.1-0.2-3.1-0.6c-0.9-0.4-1.8-1-2.5-1.7C7.4,16.4,6.7,13,8,10.1c0.4-0.9,1-1.8,1.7-2.5
	c0.7-0.7,1.6-1.3,2.5-1.7c1-0.4,2-0.6,3.1-0.6h0.4V0h-0.4c-1.2,0-2.4,0.1-3.5,0.5c-1.1,0.3-2.2,0.7-3.1,1.3C7.7,2.4,6.8,3.1,6,3.8
	C5.2,4.6,4.6,5.5,4,6.5c-0.6,1-1.1,2-1.4,3.1c-0.6,2.3-0.6,4.7,0,7c0.3,1.1,0.7,2.1,1.3,3.1c1.7,2.9,4.5,5.1,7.8,6
	c1.1,0.3,2.3,0.5,3.5,0.5h7.9V21H15.2z"/>
<polygon class="st1" points="30.7,0 30.6,15 25.4,15 25.4,5.2 15.6,5.2 15.6,0 "/>
</svg>
