<?xml version="1.0" encoding="utf-8"?>
<!-- Generator: Adobe Illustrator 26.0.1, SVG Export Plug-In . SVG Version: 6.00 Build 0)  -->
<svg version="1.1" id="Layer_1" xmlns="http://www.w3.org/2000/svg" xmlns:xlink="http://www.w3.org/1999/xlink" x="0px" y="0px"
	 viewBox="0 0 1000 244.1" style="enable-background:new 0 0 1000 244.1;" xml:space="preserve">
<style type="text/css">
	.st0{fill:#231F20;}
	.st1{fill:#313159;}
	.st2{fill:#EADEDA;}
	.st3{fill:#FFFFFF;}
	.st4{fill:#808285;}
	.st5{fill:#FFFFFF;stroke:#FFFFFF;stroke-width:0.116;stroke-miterlimit:10;}
	.st6{fill:#808285;stroke:#808285;stroke-width:0.116;stroke-miterlimit:10;}
	.st7{fill:#231F20;stroke:#231F20;stroke-width:0.116;stroke-miterlimit:10;}
	.st8{fill:#FC0053;}
	.st9{fill:#313159;stroke:#313159;stroke-width:8.955025e-02;stroke-miterlimit:10;}
	.st10{fill:#FC0053;stroke:#FC0053;stroke-width:8.955025e-02;stroke-miterlimit:10;}
	.st11{fill:#313159;stroke:#313159;stroke-width:6.093738e-02;stroke-miterlimit:10;}
	.st12{fill:#FC0053;stroke:#FC0053;stroke-width:6.093738e-02;stroke-miterlimit:10;}
	.st13{fill:#313159;stroke:#313159;stroke-width:3.389176e-02;stroke-miterlimit:10;}
	.st14{fill:#FC0053;stroke:#FC0053;stroke-width:3.389176e-02;stroke-miterlimit:10;}
	.st15{fill:none;}
	.st16{font-family:'Rubik-Regular';}
	.st17{font-size:18px;}
</style>
<rect x="0.5" y="43.2" class="st0" width="248" height="200"/>
<rect x="801.7" y="44.1" class="st1" width="200" height="200"/>
<rect x="481.1" y="43.2" class="st2" width="322.1" height="200"/>
<g>
	<g>
		<path class="st3" d="M211.1,95.8c-1.2-4.4-3-8.5-5.2-12.4c-2.3-3.8-5-7.3-8.1-10.5c-3.1-3.2-6.6-5.9-10.5-8.1
			c-3.9-2.3-8-4-12.4-5.2c-4.4-1.2-9-1.8-13.8-1.8h-1.4v20.7h1.4c4.3,0,8.3,0.8,12.1,2.5c3.8,1.6,7.1,3.9,9.9,6.7
			c2.8,2.8,5,6.1,6.6,9.9s2.4,7.8,2.4,12.1c0,4.3-0.8,8.3-2.4,12.1c-1.6,3.8-3.8,7.1-6.6,9.9s-6.1,5-9.9,6.6
			c-3.8,1.6-7.8,2.4-12.1,2.4h-10.3v-23.8h-20.9v44.4h31.2c4.8,0,9.4-0.6,13.8-1.9c4.4-1.2,8.5-3,12.4-5.2c3.9-2.3,7.4-5,10.5-8.1
			c3.1-3.2,5.8-6.6,8.1-10.5c2.3-3.8,4-8,5.2-12.4s1.8-9,1.8-13.8C212.9,104.8,212.3,100.2,211.1,95.8z"/>
	</g>
	<g>
		<path class="st3" d="M89.8,140.6c-4.3,0-8.3-0.8-12.1-2.4c-3.8-1.6-7.1-3.8-9.9-6.6s-5-6.1-6.6-9.9s-2.4-7.8-2.4-12.1
			s0.8-8.3,2.4-12.1c1.6-3.8,3.8-7,6.6-9.9c2.8-2.8,6.1-5.1,9.9-6.7s7.8-2.5,12.1-2.5h1.4V57.7h-1.4c-4.8,0-9.4,0.6-13.8,1.8
			c-4.4,1.2-8.5,3-12.4,5.2c-3.9,2.3-7.4,5-10.5,8.1C50,76,47.3,79.4,45,83.3c-2.3,3.8-4,7.9-5.2,12.4c-1.2,4.4-1.8,9-1.8,13.8
			s0.6,9.4,1.8,13.8s3,8.5,5.2,12.4c2.3,3.8,5,7.3,8.1,10.5s6.6,5.9,10.5,8.1c3.9,2.3,8,4,12.4,5.2s9,1.9,13.8,1.9H121v-20.8H89.8z"
			/>
	</g>
	<polygon class="st4" points="150.8,57.7 150.8,116.9 129.9,116.9 129.9,78.5 91.3,78.5 91.3,57.7 	"/>
	<g>
		<g>
			<path class="st3" d="M48,200.9c-1,0.9-2.1,1.5-3.4,2c-1.2,0.5-2.5,0.7-3.9,0.7c-1,0-2-0.1-3-0.4c-0.9-0.3-1.8-0.6-2.7-1.1
				c-0.8-0.5-1.6-1.1-2.3-1.8s-1.3-1.4-1.8-2.3c-0.5-0.8-0.9-1.7-1.1-2.7c-0.3-0.9-0.4-1.9-0.4-3c0-1,0.1-2,0.4-3s0.6-1.8,1.1-2.7
				c0.5-0.8,1.1-1.6,1.8-2.3c0.7-0.7,1.4-1.3,2.3-1.8c0.8-0.5,1.7-0.9,2.7-1.1c0.9-0.3,1.9-0.4,3-0.4c1.3,0,2.6,0.2,3.9,0.7
				c1.2,0.5,2.4,1.1,3.4,2l-2.3,3.8c-0.6-0.7-1.4-1.2-2.2-1.6c-0.9-0.4-1.8-0.5-2.7-0.5c-1,0-1.8,0.2-2.7,0.5
				c-0.8,0.4-1.6,0.8-2.2,1.5c-0.6,0.6-1.1,1.3-1.5,2.2c-0.4,0.8-0.5,1.7-0.5,2.7c0,0.9,0.2,1.8,0.5,2.7c0.4,0.8,0.9,1.6,1.5,2.2
				c0.6,0.6,1.3,1.1,2.2,1.5c0.8,0.4,1.7,0.5,2.7,0.5c0.9,0,1.8-0.2,2.7-0.5c0.9-0.4,1.6-0.9,2.2-1.6L48,200.9z"/>
			<path class="st3" d="M57.1,203.2h-4.3v-21.5h8.6c0.8,0,1.6,0.1,2.3,0.3s1.4,0.5,2.1,0.9c0.6,0.4,1.2,0.8,1.7,1.4
				c0.5,0.5,1,1.1,1.4,1.8s0.7,1.3,0.9,2.1c0.2,0.7,0.3,1.5,0.3,2.3c0,0.7-0.1,1.5-0.3,2.2c-0.2,0.7-0.5,1.4-0.8,2s-0.8,1.2-1.3,1.7
				s-1.1,1-1.7,1.4l2.4,5.6h-4.6l-1.9-4.3h-4.8C57.1,199.1,57.1,203.2,57.1,203.2z M57.1,185.9v8.6h4.3c0.6,0,1.1-0.1,1.7-0.3
				c0.5-0.2,1-0.5,1.4-0.9s0.7-0.8,0.9-1.4c0.2-0.5,0.3-1.1,0.3-1.7c0-0.6-0.1-1.1-0.3-1.7c-0.2-0.5-0.5-1-0.9-1.4s-0.8-0.7-1.4-0.9
				c-0.5-0.2-1.1-0.3-1.7-0.3L57.1,185.9L57.1,185.9z"/>
			<path class="st3" d="M96.6,203.2h-4.3v-15.4c0-0.3-0.1-0.6-0.2-0.8c-0.1-0.3-0.3-0.5-0.5-0.7s-0.4-0.3-0.7-0.5
				c-0.3-0.1-0.5-0.2-0.8-0.2s-0.6,0.1-0.8,0.2c-0.3,0.1-0.5,0.3-0.7,0.5s-0.3,0.4-0.5,0.7c-0.1,0.3-0.2,0.5-0.2,0.8v15.4h-4.3
				v-15.4c0-0.3-0.1-0.6-0.2-0.8c-0.1-0.3-0.3-0.5-0.5-0.7s-0.4-0.3-0.7-0.5c-0.3-0.1-0.5-0.2-0.8-0.2s-0.6,0.1-0.8,0.2
				c-0.3,0.1-0.5,0.3-0.7,0.5s-0.3,0.4-0.5,0.7c-0.1,0.3-0.2,0.5-0.2,0.8v15.4h-4.3v-15.4c0-0.9,0.2-1.7,0.5-2.5s0.8-1.5,1.4-2.1
				s1.3-1,2.1-1.4c0.8-0.3,1.6-0.5,2.5-0.5c0.8,0,1.6,0.1,2.3,0.4c0.7,0.3,1.4,0.7,2,1.2c0.6-0.5,1.3-1,2-1.2
				c0.7-0.3,1.5-0.4,2.3-0.4c0.9,0,1.7,0.2,2.5,0.5s1.5,0.8,2.1,1.4c0.6,0.6,1,1.3,1.4,2.1c0.3,0.8,0.5,1.6,0.5,2.5L96.6,203.2
				L96.6,203.2z"/>
			<path class="st3" d="M120,200.9c-1,0.9-2.1,1.5-3.4,2c-1.2,0.5-2.5,0.7-3.9,0.7c-1,0-2-0.1-3-0.4c-0.9-0.3-1.8-0.6-2.7-1.1
				c-0.8-0.5-1.6-1.1-2.3-1.8c-0.7-0.7-1.3-1.4-1.8-2.3c-0.5-0.8-0.9-1.7-1.1-2.7c-0.3-0.9-0.4-1.9-0.4-3c0-1,0.1-2,0.4-3
				s0.6-1.8,1.1-2.7c0.5-0.8,1.1-1.6,1.8-2.3c0.7-0.7,1.4-1.3,2.3-1.8c0.8-0.5,1.7-0.9,2.7-1.1c0.9-0.3,1.9-0.4,3-0.4
				c1.3,0,2.6,0.2,3.9,0.7c1.2,0.5,2.4,1.1,3.4,2l-2.3,3.8c-0.6-0.7-1.4-1.2-2.2-1.6c-0.9-0.4-1.8-0.5-2.7-0.5c-1,0-1.8,0.2-2.7,0.5
				c-0.8,0.4-1.6,0.8-2.2,1.5c-0.6,0.6-1.1,1.3-1.5,2.2c-0.4,0.8-0.5,1.7-0.5,2.7c0,0.9,0.2,1.8,0.5,2.7c0.4,0.8,0.9,1.6,1.5,2.2
				c0.6,0.6,1.3,1.1,2.2,1.5c0.8,0.4,1.7,0.5,2.7,0.5c0.9,0,1.8-0.2,2.7-0.5c0.9-0.4,1.6-0.9,2.2-1.6L120,200.9z"/>
			<path class="st3" d="M153,192.4c0,1-0.1,1.9-0.4,2.9c-0.3,0.9-0.6,1.8-1.1,2.6s-1,1.5-1.7,2.2s-1.4,1.2-2.2,1.7s-1.7,0.8-2.6,1.1
				c-0.9,0.3-1.9,0.4-2.9,0.4h-6.5v-21.5h6.5c1,0,1.9,0.1,2.9,0.4s1.8,0.6,2.6,1.1s1.5,1,2.2,1.7s1.2,1.4,1.7,2.2s0.8,1.7,1.1,2.6
				C152.9,190.4,153,191.4,153,192.4z M148.7,192.4c0-0.9-0.2-1.7-0.5-2.5s-0.8-1.5-1.4-2.1s-1.3-1-2.1-1.4
				c-0.8-0.3-1.6-0.5-2.5-0.5h-2.1v12.9h2.1c0.9,0,1.7-0.2,2.5-0.5s1.5-0.8,2.1-1.4c0.6-0.6,1-1.3,1.4-2.1
				C148.5,194.1,148.7,193.3,148.7,192.4z"/>
			<path class="st3" d="M157,188.1c0-0.9,0.2-1.7,0.5-2.5s0.8-1.5,1.4-2.1c0.6-0.6,1.3-1,2.1-1.4c0.8-0.3,1.6-0.5,2.5-0.5h9.9v4.3
				h-9.9c-0.3,0-0.6,0.1-0.8,0.2c-0.3,0.1-0.5,0.3-0.7,0.5s-0.3,0.4-0.5,0.7c-0.1,0.3-0.2,0.5-0.2,0.8s0.1,0.6,0.2,0.8
				c0.1,0.3,0.3,0.5,0.5,0.7s0.4,0.3,0.7,0.5c0.3,0.1,0.5,0.2,0.8,0.2h4.3c0.9,0,1.7,0.2,2.5,0.5s1.5,0.8,2.1,1.4
				c0.6,0.6,1,1.3,1.4,2.1c0.3,0.8,0.5,1.6,0.5,2.5s-0.2,1.7-0.5,2.5s-0.8,1.5-1.4,2.1c-0.6,0.6-1.3,1-2.1,1.4
				c-0.8,0.3-1.6,0.5-2.5,0.5h-9.6V199h9.6c0.3,0,0.6-0.1,0.8-0.2c0.3-0.1,0.5-0.3,0.7-0.5s0.3-0.4,0.5-0.7c0.1-0.3,0.2-0.5,0.2-0.8
				s-0.1-0.6-0.2-0.8c-0.1-0.3-0.3-0.5-0.5-0.7s-0.4-0.3-0.7-0.5c-0.3-0.1-0.5-0.2-0.8-0.2h-4.3c-0.9,0-1.7-0.2-2.5-0.5
				s-1.5-0.8-2.1-1.4c-0.6-0.6-1-1.3-1.4-2.1C157.1,189.8,157,189,157,188.1z"/>
			<path class="st3" d="M196.5,201c-1,0.9-2.1,1.5-3.4,2c-1.2,0.5-2.5,0.7-3.8,0.7c-1,0-2-0.1-3-0.4c-0.9-0.3-1.8-0.6-2.7-1.1
				c-0.8-0.5-1.6-1.1-2.3-1.7c-0.7-0.7-1.3-1.4-1.7-2.3c-0.5-0.8-0.9-1.7-1.1-2.7c-0.3-1-0.4-1.9-0.4-3c0-1,0.1-2,0.4-2.9
				c0.3-0.9,0.6-1.8,1.1-2.7c0.5-0.8,1.1-1.6,1.7-2.3c0.7-0.7,1.4-1.3,2.3-1.7c0.8-0.5,1.7-0.9,2.7-1.1c0.9-0.3,1.9-0.4,3-0.4
				c1.3,0,2.6,0.2,3.8,0.7s2.3,1.1,3.4,2l-2.3,3.8c-0.7-0.7-1.4-1.2-2.3-1.6c-0.9-0.4-1.7-0.6-2.7-0.6c-0.9,0-1.8,0.2-2.7,0.5
				c-0.8,0.4-1.6,0.8-2.2,1.5c-0.6,0.6-1.1,1.3-1.5,2.2c-0.4,0.8-0.5,1.7-0.5,2.7s0.2,1.8,0.5,2.7c0.4,0.8,0.9,1.6,1.5,2.2
				c0.6,0.6,1.3,1.1,2.2,1.5c0.8,0.4,1.7,0.5,2.7,0.5c0.5,0,1.1-0.1,1.6-0.2c0.5-0.1,1-0.3,1.5-0.5v-6.1h4.2V201z"/>
			<path class="st3" d="M219.4,203.2h-4.6l-8.3-14.2v14.2h-4.3v-21.5h4.6l8.3,14.2v-14.2h4.3V203.2z"/>
		</g>
	</g>
	<g>
		<path class="st5" d="M52.1,224.9c-0.8,0-1.5-0.2-2-0.6c-0.6-0.4-1-0.9-1.3-1.6c-0.3-0.7-0.4-1.5-0.4-2.5V220c0-1,0.1-2,0.4-2.7
			c0.3-0.8,0.7-1.4,1.3-1.8c0.6-0.4,1.3-0.7,2-0.7c0.6,0,1.1,0.1,1.5,0.3s0.8,0.5,1.1,0.9v-4l-1.5-0.3v-1.1h1.5h1.8v12.6l1.5,0.3
			v1.1h-3l-0.1-1.2c-0.3,0.4-0.7,0.8-1.2,1C53.2,224.8,52.7,224.9,52.1,224.9z M52.5,223.4c0.5,0,1-0.1,1.3-0.4
			c0.4-0.2,0.7-0.6,0.9-1v-4.5c-0.2-0.4-0.5-0.7-0.9-1c-0.4-0.2-0.8-0.4-1.3-0.4c-0.6,0-1,0.2-1.4,0.5s-0.6,0.8-0.8,1.3
			c-0.2,0.6-0.3,1.2-0.3,2v0.2c0,1,0.2,1.8,0.6,2.4C51.1,223.2,51.7,223.4,52.5,223.4z"/>
		<path class="st5" d="M63.6,224.9c-0.9,0-1.7-0.2-2.3-0.6c-0.7-0.4-1.2-1-1.5-1.7c-0.4-0.7-0.5-1.6-0.5-2.5v-0.4
			c0-0.9,0.2-1.7,0.6-2.5c0.4-0.7,0.9-1.3,1.5-1.7s1.3-0.6,2.1-0.6c0.9,0,1.6,0.2,2.2,0.5c0.6,0.4,1,0.9,1.3,1.5s0.4,1.4,0.4,2.3
			v1.1H61l0,0c0,0.6,0.1,1.2,0.3,1.7s0.5,0.9,0.9,1.1c0.4,0.3,0.9,0.4,1.4,0.4c0.6,0,1.1-0.1,1.6-0.3s0.8-0.4,1.2-0.7l0.7,1.1
			c-0.3,0.3-0.8,0.6-1.4,0.8C65.1,224.8,64.4,224.9,63.6,224.9z M61,218.9h4.5v-0.2c0-0.5-0.1-0.9-0.2-1.3c-0.2-0.4-0.4-0.7-0.7-0.9
			c-0.3-0.2-0.7-0.3-1.2-0.3c-0.4,0-0.8,0.1-1.1,0.3s-0.6,0.5-0.8,0.9C61.2,217.9,61.1,218.3,61,218.9L61,218.9z"/>
		<path class="st5" d="M72.6,224.9c-0.7,0-1.3-0.1-1.8-0.2c-0.6-0.1-1.2-0.3-1.8-0.6v-2.3h1.3l0.3,1.4c0.3,0.1,0.7,0.2,1,0.3
			s0.7,0.1,1,0.1c0.7,0,1.2-0.1,1.5-0.4c0.3-0.3,0.5-0.6,0.5-1s-0.2-0.7-0.5-1s-0.9-0.5-1.7-0.7c-1.2-0.3-2-0.6-2.6-1.1
			s-0.8-1.1-0.8-1.8c0-0.5,0.2-1,0.5-1.4s0.7-0.7,1.3-1c0.5-0.2,1.2-0.4,1.9-0.4c0.7,0,1.4,0.1,1.9,0.3s1,0.4,1.4,0.7l0.1,2.2h-1.3
			l-0.3-1.3c-0.2-0.2-0.5-0.3-0.7-0.4c-0.3-0.1-0.6-0.1-1-0.1c-0.6,0-1,0.1-1.3,0.4c-0.3,0.3-0.5,0.6-0.5,1c0,0.2,0,0.4,0.1,0.6
			c0.1,0.2,0.3,0.3,0.6,0.5c0.3,0.1,0.7,0.3,1.2,0.4c1.4,0.3,2.3,0.7,2.8,1.2s0.8,1.1,0.8,1.8c0,0.8-0.3,1.5-0.9,2.1
			C74.9,224.6,73.9,224.9,72.6,224.9z"/>
		<path class="st5" d="M77.8,224.7v-1.1l1.5-0.3v-6.9l-1.5-0.3V215H81v8.3l1.5,0.3v1.1H77.8z M79.2,212.6v-1.9H81v1.9H79.2z"/>
		<path class="st5" d="M88,228.6c-0.5,0-1-0.1-1.5-0.2c-0.5-0.1-1-0.3-1.4-0.5l0.5-1.4c0.3,0.2,0.7,0.3,1.2,0.4
			c0.4,0.1,0.9,0.2,1.3,0.2c0.8,0,1.4-0.2,1.7-0.7c0.4-0.4,0.6-1.1,0.6-1.9v-0.9c-0.3,0.4-0.7,0.7-1.1,0.9s-1,0.3-1.5,0.3
			c-0.8,0-1.5-0.2-2-0.6c-0.6-0.4-1-0.9-1.3-1.6c-0.3-0.7-0.5-1.5-0.5-2.4V220c0-1,0.2-2,0.5-2.7c0.3-0.8,0.7-1.4,1.3-1.8
			c0.6-0.4,1.3-0.7,2.1-0.7c0.6,0,1.1,0.1,1.6,0.4c0.5,0.2,0.8,0.6,1.2,1l0.2-1.2H92v9.6c0,0.8-0.2,1.6-0.5,2.2
			c-0.3,0.6-0.8,1.1-1.4,1.4C89.6,228.5,88.9,228.6,88,228.6z M88,223.4c0.5,0,1-0.1,1.3-0.4c0.4-0.2,0.7-0.6,0.9-1v-4.5
			c-0.2-0.4-0.5-0.7-0.9-1c-0.4-0.2-0.8-0.4-1.3-0.4c-0.6,0-1,0.2-1.4,0.5s-0.7,0.8-0.8,1.3s-0.3,1.2-0.3,2v0.2c0,1,0.2,1.8,0.6,2.4
			C86.6,223.2,87.2,223.4,88,223.4z M91.8,216.4l-0.7-1.4h2.2v1.1L91.8,216.4z"/>
		<path class="st5" d="M94.1,224.7v-1.1l1.5-0.3v-6.9l-1.5-0.3V215h3l0.1,1.4c0.3-0.5,0.7-0.9,1.2-1.2s1-0.4,1.7-0.4
			c1,0,1.9,0.3,2.4,0.9c0.6,0.6,0.9,1.6,0.9,2.8v4.7l1.5,0.3v1.1h-4.7v-1.1l1.5-0.3v-4.7c0-0.9-0.2-1.5-0.5-1.8
			c-0.3-0.4-0.9-0.5-1.5-0.5c-0.5,0-1,0.1-1.4,0.4c-0.4,0.2-0.7,0.6-0.9,1v5.7l1.5,0.3v1.1L94.1,224.7L94.1,224.7z"/>
		<path class="st5" d="M110.1,224.9c-0.7,0-1.3-0.1-1.8-0.2c-0.6-0.1-1.2-0.3-1.8-0.6v-2.3h1.3l0.3,1.4c0.3,0.1,0.7,0.2,1,0.3
			s0.7,0.1,1,0.1c0.7,0,1.2-0.1,1.5-0.4c0.3-0.3,0.5-0.6,0.5-1s-0.2-0.7-0.5-1s-0.9-0.5-1.7-0.7c-1.2-0.3-2-0.6-2.6-1.1
			s-0.8-1.1-0.8-1.8c0-0.5,0.2-1,0.5-1.4s0.7-0.7,1.3-1c0.5-0.2,1.2-0.4,1.9-0.4c0.7,0,1.4,0.1,1.9,0.3s1,0.4,1.4,0.7l0.1,2.2h-1.3
			l-0.3-1.3c-0.2-0.2-0.5-0.3-0.7-0.4c-0.3-0.1-0.6-0.1-1-0.1c-0.6,0-1,0.1-1.3,0.4c-0.3,0.3-0.5,0.6-0.5,1c0,0.2,0,0.4,0.1,0.6
			c0.1,0.2,0.3,0.3,0.6,0.5c0.3,0.1,0.7,0.3,1.2,0.4c1.4,0.3,2.3,0.7,2.8,1.2s0.8,1.1,0.8,1.8c0,0.8-0.3,1.5-0.9,2.1
			C112.4,224.6,111.4,224.9,110.1,224.9z"/>
		<path class="st5" d="M123.3,224.8c-0.7,0-1.3-0.2-1.7-0.6c-0.4-0.4-0.6-1.1-0.6-2v-5.9h-1.5V215h1.5v-2.3h1.8v2.3h2.1v1.3h-2.1
			v5.9c0,0.5,0.1,0.8,0.3,1c0.2,0.2,0.4,0.3,0.7,0.3c0.2,0,0.4,0,0.7-0.1c0.3,0,0.5-0.1,0.6-0.1l0.2,1.2c-0.3,0.1-0.6,0.1-0.9,0.2
			C124,224.8,123.7,224.8,123.3,224.8z"/>
		<path class="st5" d="M126.2,224.7v-1.1l1.5-0.3v-11.2l-1.5-0.3v-1.1h3.2v5.6c0.3-0.5,0.7-0.8,1.2-1.1s1-0.4,1.6-0.4
			c1,0,1.8,0.3,2.4,0.9c0.6,0.6,0.9,1.6,0.9,2.9v4.7l1.5,0.3v1.1h-4.7v-1.1l1.5-0.3v-4.7c0-0.8-0.2-1.4-0.5-1.8
			c-0.3-0.4-0.9-0.6-1.5-0.6c-0.5,0-0.9,0.1-1.3,0.3c-0.4,0.2-0.7,0.5-1,0.9v5.8l1.5,0.3v1.1h-4.8L126.2,224.7L126.2,224.7z"/>
		<path class="st5" d="M141.4,224.9c-1,0-1.8-0.2-2.3-0.7s-0.8-1.2-0.8-2.1c0-0.6,0.2-1.2,0.5-1.6c0.3-0.5,0.8-0.8,1.5-1.1
			c0.6-0.3,1.4-0.4,2.3-0.4h1.7v-1c0-0.6-0.2-1-0.5-1.4s-0.9-0.5-1.5-0.5c-0.4,0-0.8,0-1.1,0.1s-0.6,0.2-0.8,0.4l-0.2,1.4h-1.4v-2.2
			c0.4-0.4,0.9-0.6,1.5-0.8s1.2-0.3,1.9-0.3c1.2,0,2.1,0.3,2.8,0.8c0.7,0.6,1,1.4,1,2.4v4.7c0,0.1,0,0.2,0,0.4c0,0.1,0,0.2,0,0.4
			l0.9,0.1v1.1h-2.5c-0.1-0.3-0.1-0.5-0.1-0.7s-0.1-0.4-0.1-0.6c-0.3,0.4-0.8,0.8-1.3,1.1C142.5,224.7,142,224.9,141.4,224.9z
			 M141.7,223.4c0.6,0,1.1-0.1,1.6-0.4c0.5-0.3,0.8-0.6,1-1v-1.8h-1.8c-0.8,0-1.4,0.2-1.8,0.6c-0.4,0.4-0.6,0.8-0.6,1.3
			c0,0.4,0.1,0.7,0.4,1C140.7,223.3,141.1,223.4,141.7,223.4z"/>
		<path class="st5" d="M151.9,224.8c-0.7,0-1.3-0.2-1.7-0.6c-0.4-0.4-0.6-1.1-0.6-2v-5.9H148V215h1.5v-2.3h1.8v2.3h2.1v1.3h-2.1v5.9
			c0,0.5,0.1,0.8,0.3,1s0.4,0.3,0.7,0.3c0.2,0,0.4,0,0.7-0.1c0.3,0,0.5-0.1,0.6-0.1l0.2,1.2c-0.3,0.1-0.6,0.1-0.9,0.2
			C152.5,224.8,152.2,224.8,151.9,224.8z"/>
		<path class="st6" d="M170.1,216h-1.9l-0.3-1.7c-0.3-0.3-0.6-0.5-1-0.6s-0.9-0.2-1.4-0.2c-1.1,0-2,0.4-2.6,1.2s-0.9,1.9-0.9,3.2
			v0.5c0,1.3,0.3,2.4,0.9,3.2c0.6,0.8,1.5,1.2,2.6,1.2c0.5,0,1-0.1,1.4-0.2c0.4-0.1,0.8-0.4,1-0.6l0.3-1.7h1.9v2.6
			c-0.5,0.6-1.2,1.1-2,1.5s-1.7,0.5-2.7,0.5c-1.8,0-3.2-0.6-4.3-1.8s-1.7-2.8-1.7-4.7V218c0-1.9,0.6-3.5,1.7-4.7
			c1.1-1.2,2.6-1.8,4.3-1.8c1,0,1.9,0.2,2.7,0.6c0.8,0.4,1.5,0.9,2,1.5V216z"/>
		<path class="st6" d="M171.1,212.3v-1.6h4v12.2l1.3,0.3v1.6h-5.2v-1.6l1.3-0.3v-10.3L171.1,212.3z"/>
		<path class="st6" d="M177.1,223.1l1.3-0.3v-6l-1.4-0.3v-1.6h4v7.9l1.3,0.3v1.6h-5.1v-1.6L177.1,223.1L177.1,223.1z M181,212.7
			h-2.6v-2h2.6V212.7z"/>
		<path class="st6" d="M187.7,222.9c0.5,0,0.8-0.1,1.1-0.4c0.3-0.3,0.4-0.6,0.4-1.1h2.4v0.1c0,1-0.3,1.8-1.1,2.5s-1.7,1-2.8,1
			c-1.4,0-2.6-0.5-3.3-1.4c-0.8-0.9-1.2-2.1-1.2-3.5v-0.3c0-1.4,0.4-2.6,1.2-3.5s2-1.4,3.4-1.4c0.8,0,1.5,0.1,2.1,0.3s1.1,0.6,1.6,1
			v2.6h-2.1l-0.4-1.6c-0.1-0.1-0.3-0.2-0.5-0.3s-0.4-0.1-0.7-0.1c-0.7,0-1.3,0.3-1.6,0.8s-0.5,1.2-0.5,2.1v0.3
			c0,0.9,0.1,1.6,0.4,2.1C186.5,222.6,187,222.9,187.7,222.9z"/>
		<path class="st6" d="M192.6,212.3v-1.6h4v8.1h0.6l1.5-2.1l-0.9-0.1V215h4.8v1.6l-1.1,0.3l-1.8,2.4l2.5,3.7l1,0.2v1.6h-4.5v-1.6
			l0.5-0.1l-1.5-2.4h-1.1v2.2l1.1,0.3v1.6h-5v-1.6l1.3-0.3v-10.3L192.6,212.3z"/>
	</g>
</g>
<g>
	<g>
		<path class="st0" d="M455.7,95.8c-1.2-4.4-3-8.5-5.2-12.4c-2.3-3.8-5-7.3-8.1-10.5c-3.1-3.2-6.6-5.9-10.5-8.1
			c-3.9-2.3-8-4-12.4-5.2c-4.4-1.2-9-1.8-13.8-1.8h-1.4v20.7h1.4c4.3,0,8.3,0.8,12.1,2.5c3.8,1.6,7.1,3.9,9.9,6.7
			c2.8,2.8,5,6.1,6.6,9.9s2.4,7.8,2.4,12.1c0,4.3-0.8,8.3-2.4,12.1c-1.6,3.8-3.8,7.1-6.6,9.9c-2.8,2.8-6.1,5-9.9,6.6
			c-3.8,1.6-7.8,2.4-12.1,2.4h-10.3v-23.8h-20.9v44.4h31.2c4.8,0,9.4-0.6,13.8-1.9c4.4-1.2,8.5-3,12.4-5.2c3.9-2.3,7.4-5,10.5-8.1
			c3.1-3.2,5.8-6.6,8.1-10.5c2.3-3.8,4-8,5.2-12.4s1.8-9,1.8-13.8C457.5,104.8,456.9,100.2,455.7,95.8z"/>
	</g>
	<g>
		<path class="st0" d="M334.4,140.6c-4.3,0-8.3-0.8-12.1-2.4c-3.8-1.6-7.1-3.8-9.9-6.6s-5-6.1-6.6-9.9s-2.4-7.8-2.4-12.1
			s0.8-8.3,2.4-12.1c1.6-3.8,3.8-7,6.6-9.9c2.8-2.8,6.1-5.1,9.9-6.7s7.8-2.5,12.1-2.5h1.4V57.7h-1.4c-4.8,0-9.4,0.6-13.8,1.8
			c-4.4,1.2-8.5,3-12.4,5.2c-3.9,2.3-7.4,5-10.5,8.1c-3.1,3.2-5.8,6.6-8.1,10.5c-2.3,3.8-4,7.9-5.2,12.4c-1.2,4.4-1.8,9-1.8,13.8
			s0.6,9.4,1.8,13.8c1.2,4.4,3,8.5,5.2,12.4c2.3,3.8,5,7.3,8.1,10.5s6.6,5.9,10.5,8.1c3.9,2.3,8,4,12.4,5.2s9,1.9,13.8,1.9h31.2
			v-20.8H334.4z"/>
	</g>
	<polygon class="st4" points="395.4,57.7 395.3,116.9 374.4,116.9 374.5,78.5 335.8,78.5 335.8,57.7 	"/>
	<g>
		<g>
			<path class="st0" d="M292.5,200.9c-1,0.9-2.1,1.5-3.4,2c-1.2,0.5-2.5,0.7-3.9,0.7c-1,0-2-0.1-3-0.4c-0.9-0.3-1.8-0.6-2.7-1.1
				c-0.8-0.5-1.6-1.1-2.3-1.8c-0.7-0.7-1.3-1.4-1.8-2.3c-0.5-0.8-0.9-1.7-1.1-2.7c-0.3-0.9-0.4-1.9-0.4-3c0-1,0.1-2,0.4-3
				s0.6-1.8,1.1-2.7c0.5-0.8,1.1-1.6,1.8-2.3c0.7-0.7,1.4-1.3,2.3-1.8c0.8-0.5,1.7-0.9,2.7-1.1c0.9-0.3,1.9-0.4,3-0.4
				c1.3,0,2.6,0.2,3.9,0.7c1.2,0.5,2.4,1.1,3.4,2l-2.3,3.8c-0.6-0.7-1.4-1.2-2.2-1.6c-0.9-0.4-1.8-0.5-2.7-0.5c-1,0-1.8,0.2-2.7,0.5
				c-0.8,0.4-1.6,0.8-2.2,1.5c-0.6,0.6-1.1,1.3-1.5,2.2c-0.4,0.8-0.5,1.7-0.5,2.7c0,0.9,0.2,1.8,0.5,2.7c0.4,0.8,0.9,1.6,1.5,2.2
				c0.6,0.6,1.3,1.1,2.2,1.5c0.8,0.4,1.7,0.5,2.7,0.5c0.9,0,1.8-0.2,2.7-0.5c0.9-0.4,1.6-0.9,2.2-1.6L292.5,200.9z"/>
			<path class="st0" d="M301.7,203.2h-4.3v-21.5h8.6c0.8,0,1.6,0.1,2.3,0.3c0.7,0.2,1.4,0.5,2.1,0.9c0.6,0.4,1.2,0.8,1.7,1.4
				c0.5,0.5,1,1.1,1.4,1.8c0.4,0.6,0.7,1.3,0.9,2.1c0.2,0.7,0.3,1.5,0.3,2.3c0,0.7-0.1,1.5-0.3,2.2c-0.2,0.7-0.5,1.4-0.8,2
				s-0.8,1.2-1.3,1.7s-1.1,1-1.7,1.4l2.4,5.6h-4.6l-1.9-4.3h-4.8L301.7,203.2L301.7,203.2z M301.7,185.9v8.6h4.3
				c0.6,0,1.1-0.1,1.7-0.3c0.5-0.2,1-0.5,1.4-0.9s0.7-0.8,0.9-1.4c0.2-0.5,0.3-1.1,0.3-1.7c0-0.6-0.1-1.1-0.3-1.7
				c-0.2-0.5-0.5-1-0.9-1.4s-0.8-0.7-1.4-0.9c-0.5-0.2-1.1-0.3-1.7-0.3L301.7,185.9L301.7,185.9z"/>
			<path class="st0" d="M341.1,203.2h-4.3v-15.4c0-0.3-0.1-0.6-0.2-0.8c-0.1-0.3-0.3-0.5-0.5-0.7s-0.4-0.3-0.7-0.5
				c-0.3-0.1-0.5-0.2-0.8-0.2s-0.6,0.1-0.8,0.2c-0.3,0.1-0.5,0.3-0.7,0.5s-0.3,0.4-0.5,0.7c-0.1,0.3-0.2,0.5-0.2,0.8v15.4h-4.3
				v-15.4c0-0.3-0.1-0.6-0.2-0.8c-0.1-0.3-0.3-0.5-0.5-0.7s-0.4-0.3-0.7-0.5c-0.3-0.1-0.5-0.2-0.8-0.2s-0.6,0.1-0.8,0.2
				c-0.3,0.1-0.5,0.3-0.7,0.5s-0.3,0.4-0.5,0.7c-0.1,0.3-0.2,0.5-0.2,0.8v15.4h-4.3v-15.4c0-0.9,0.2-1.7,0.5-2.5s0.8-1.5,1.4-2.1
				s1.3-1,2.1-1.4c0.8-0.3,1.6-0.5,2.5-0.5c0.8,0,1.6,0.1,2.3,0.4c0.7,0.3,1.4,0.7,2,1.2c0.6-0.5,1.3-1,2-1.2
				c0.7-0.3,1.5-0.4,2.3-0.4c0.9,0,1.7,0.2,2.5,0.5s1.5,0.8,2.1,1.4c0.6,0.6,1,1.3,1.4,2.1c0.3,0.8,0.5,1.6,0.5,2.5v15.4H341.1z"/>
			<path class="st0" d="M364.5,200.9c-1,0.9-2.1,1.5-3.4,2c-1.2,0.5-2.5,0.7-3.9,0.7c-1,0-2-0.1-3-0.4c-0.9-0.3-1.8-0.6-2.7-1.1
				c-0.8-0.5-1.6-1.1-2.3-1.8c-0.7-0.7-1.3-1.4-1.8-2.3c-0.5-0.8-0.9-1.7-1.1-2.7c-0.3-0.9-0.4-1.9-0.4-3c0-1,0.1-2,0.4-3
				s0.6-1.8,1.1-2.7c0.5-0.8,1.1-1.6,1.8-2.3c0.7-0.7,1.4-1.3,2.3-1.8c0.8-0.5,1.7-0.9,2.7-1.1c0.9-0.3,1.9-0.4,3-0.4
				c1.3,0,2.6,0.2,3.9,0.7c1.2,0.5,2.4,1.1,3.4,2l-2.3,3.8c-0.6-0.7-1.4-1.2-2.2-1.6c-0.9-0.4-1.8-0.5-2.7-0.5c-1,0-1.8,0.2-2.7,0.5
				c-0.8,0.4-1.6,0.8-2.2,1.5c-0.6,0.6-1.1,1.3-1.5,2.2c-0.4,0.8-0.5,1.7-0.5,2.7c0,0.9,0.2,1.8,0.5,2.7c0.4,0.8,0.9,1.6,1.5,2.2
				c0.6,0.6,1.3,1.1,2.2,1.5c0.8,0.4,1.7,0.5,2.7,0.5c0.9,0,1.8-0.2,2.7-0.5c0.9-0.4,1.6-0.9,2.2-1.6L364.5,200.9z"/>
			<path class="st0" d="M397.6,192.4c0,1-0.1,1.9-0.4,2.9c-0.3,0.9-0.6,1.8-1.1,2.6s-1,1.5-1.7,2.2s-1.4,1.2-2.2,1.7
				c-0.8,0.5-1.7,0.8-2.6,1.1s-1.9,0.4-2.9,0.4h-6.5v-21.5h6.5c1,0,1.9,0.1,2.9,0.4c0.9,0.3,1.8,0.6,2.6,1.1c0.8,0.5,1.5,1,2.2,1.7
				s1.2,1.4,1.7,2.2s0.8,1.7,1.1,2.6C397.4,190.4,397.6,191.4,397.6,192.4z M393.3,192.4c0-0.9-0.2-1.7-0.5-2.5s-0.8-1.5-1.4-2.1
				s-1.3-1-2.1-1.4c-0.8-0.3-1.6-0.5-2.5-0.5h-2.1v12.9h2.1c0.9,0,1.7-0.2,2.5-0.5s1.5-0.8,2.1-1.4c0.6-0.6,1-1.3,1.4-2.1
				C393.1,194.1,393.3,193.3,393.3,192.4z"/>
			<path class="st0" d="M401.5,188.1c0-0.9,0.2-1.7,0.5-2.5s0.8-1.5,1.4-2.1s1.3-1,2.1-1.4c0.8-0.3,1.6-0.5,2.5-0.5h9.9v4.3H408
				c-0.3,0-0.6,0.1-0.8,0.2c-0.3,0.1-0.5,0.3-0.7,0.5s-0.3,0.4-0.5,0.7c-0.1,0.3-0.2,0.5-0.2,0.8s0.1,0.6,0.2,0.8
				c0.1,0.3,0.3,0.5,0.5,0.7s0.4,0.3,0.7,0.5c0.3,0.1,0.5,0.2,0.8,0.2h4.3c0.9,0,1.7,0.2,2.5,0.5s1.5,0.8,2.1,1.4
				c0.6,0.6,1,1.3,1.4,2.1c0.3,0.8,0.5,1.6,0.5,2.5s-0.2,1.7-0.5,2.5s-0.8,1.5-1.4,2.1s-1.3,1-2.1,1.4c-0.8,0.3-1.6,0.5-2.5,0.5
				h-9.6V199h9.6c0.3,0,0.6-0.1,0.8-0.2c0.3-0.1,0.5-0.3,0.7-0.5s0.3-0.4,0.5-0.7c0.1-0.3,0.2-0.5,0.2-0.8s-0.1-0.6-0.2-0.8
				c-0.1-0.3-0.3-0.5-0.5-0.7s-0.4-0.3-0.7-0.5c-0.3-0.1-0.5-0.2-0.8-0.2H408c-0.9,0-1.7-0.2-2.5-0.5s-1.5-0.8-2.1-1.4
				c-0.6-0.6-1-1.3-1.4-2.1C401.7,189.8,401.5,189,401.5,188.1z"/>
			<path class="st0" d="M441,201c-1,0.9-2.1,1.5-3.4,2c-1.2,0.5-2.5,0.7-3.8,0.7c-1,0-2-0.1-3-0.4c-0.9-0.3-1.8-0.6-2.7-1.1
				c-0.8-0.5-1.6-1.1-2.3-1.7c-0.7-0.7-1.3-1.4-1.7-2.3c-0.5-0.8-0.9-1.7-1.1-2.7c-0.3-1-0.4-1.9-0.4-3c0-1,0.1-2,0.4-2.9
				s0.6-1.8,1.1-2.7c0.5-0.8,1.1-1.6,1.7-2.3c0.7-0.7,1.4-1.3,2.3-1.7c0.8-0.5,1.7-0.9,2.7-1.1c0.9-0.3,1.9-0.4,3-0.4
				c1.3,0,2.6,0.2,3.8,0.7c1.2,0.5,2.3,1.1,3.4,2l-2.3,3.8c-0.7-0.7-1.4-1.2-2.3-1.6c-0.9-0.4-1.7-0.6-2.7-0.6
				c-0.9,0-1.8,0.2-2.7,0.5c-0.8,0.4-1.6,0.8-2.2,1.5c-0.6,0.6-1.1,1.3-1.5,2.2c-0.4,0.8-0.5,1.7-0.5,2.7s0.2,1.8,0.5,2.7
				c0.4,0.8,0.9,1.6,1.5,2.2c0.6,0.6,1.3,1.1,2.2,1.5c0.8,0.4,1.7,0.5,2.7,0.5c0.5,0,1.1-0.1,1.6-0.2c0.5-0.1,1-0.3,1.5-0.5v-6.1
				h4.2L441,201L441,201z"/>
			<path class="st0" d="M463.9,203.2h-4.6L451,189v14.2h-4.3v-21.5h4.6l8.3,14.2v-14.2h4.3V203.2z"/>
		</g>
	</g>
	<g>
		<path class="st7" d="M296.6,224.9c-0.8,0-1.5-0.2-2-0.6c-0.6-0.4-1-0.9-1.3-1.6c-0.3-0.7-0.4-1.5-0.4-2.5V220c0-1,0.1-2,0.4-2.7
			c0.3-0.8,0.7-1.4,1.3-1.8c0.6-0.4,1.3-0.7,2-0.7c0.6,0,1.1,0.1,1.5,0.3s0.8,0.5,1.1,0.9v-4l-1.5-0.3v-1.1h1.5h1.8v12.6l1.5,0.3
			v1.1h-3l-0.1-1.2c-0.3,0.4-0.7,0.8-1.2,1C297.8,224.8,297.2,224.9,296.6,224.9z M297.1,223.4c0.5,0,1-0.1,1.3-0.4
			c0.4-0.2,0.7-0.6,0.9-1v-4.5c-0.2-0.4-0.5-0.7-0.9-1c-0.4-0.2-0.8-0.4-1.3-0.4c-0.6,0-1,0.2-1.4,0.5s-0.6,0.8-0.8,1.3
			c-0.2,0.6-0.3,1.2-0.3,2v0.2c0,1,0.2,1.8,0.6,2.4C295.6,223.2,296.2,223.4,297.1,223.4z"/>
		<path class="st7" d="M308.1,224.9c-0.9,0-1.7-0.2-2.3-0.6c-0.7-0.4-1.2-1-1.5-1.7c-0.4-0.7-0.5-1.6-0.5-2.5v-0.4
			c0-0.9,0.2-1.7,0.6-2.5c0.4-0.7,0.9-1.3,1.5-1.7s1.3-0.6,2.1-0.6c0.9,0,1.6,0.2,2.2,0.5c0.6,0.4,1,0.9,1.3,1.5s0.4,1.4,0.4,2.3
			v1.1h-6.3l0,0c0,0.6,0.1,1.2,0.3,1.7c0.2,0.5,0.5,0.9,0.9,1.1c0.4,0.3,0.9,0.4,1.4,0.4c0.6,0,1.1-0.1,1.6-0.3s0.8-0.4,1.2-0.7
			l0.7,1.1c-0.3,0.3-0.8,0.6-1.4,0.8C309.6,224.8,308.9,224.9,308.1,224.9z M305.6,218.9h4.5v-0.2c0-0.5-0.1-0.9-0.2-1.3
			c-0.2-0.4-0.4-0.7-0.7-0.9s-0.7-0.3-1.2-0.3c-0.4,0-0.8,0.1-1.1,0.3c-0.3,0.2-0.6,0.5-0.8,0.9
			C305.8,217.9,305.6,218.3,305.6,218.9L305.6,218.9z"/>
		<path class="st7" d="M317.2,224.9c-0.7,0-1.3-0.1-1.8-0.2c-0.6-0.1-1.2-0.3-1.8-0.6v-2.3h1.3l0.3,1.4c0.3,0.1,0.7,0.2,1,0.3
			s0.7,0.1,1,0.1c0.7,0,1.2-0.1,1.5-0.4c0.3-0.3,0.5-0.6,0.5-1s-0.2-0.7-0.5-1s-0.9-0.5-1.7-0.7c-1.2-0.3-2-0.6-2.6-1.1
			s-0.8-1.1-0.8-1.8c0-0.5,0.2-1,0.5-1.4s0.7-0.7,1.3-1c0.5-0.2,1.2-0.4,1.9-0.4c0.7,0,1.4,0.1,1.9,0.3s1,0.4,1.4,0.7l0.1,2.2h-1.3
			l-0.3-1.3c-0.2-0.2-0.5-0.3-0.7-0.4c-0.3-0.1-0.6-0.1-1-0.1c-0.6,0-1,0.1-1.3,0.4c-0.3,0.3-0.5,0.6-0.5,1c0,0.2,0,0.4,0.1,0.6
			c0.1,0.2,0.3,0.3,0.6,0.5c0.3,0.1,0.7,0.3,1.2,0.4c1.4,0.3,2.3,0.7,2.8,1.2s0.8,1.1,0.8,1.8c0,0.8-0.3,1.5-0.9,2.1
			C319.4,224.6,318.5,224.9,317.2,224.9z"/>
		<path class="st7" d="M322.4,224.7v-1.1l1.5-0.3v-6.9l-1.5-0.3V215h3.2v8.3l1.5,0.3v1.1H322.4z M323.7,212.6v-1.9h1.9v1.9H323.7z"
			/>
		<path class="st7" d="M332.5,228.6c-0.5,0-1-0.1-1.5-0.2c-0.5-0.1-1-0.3-1.4-0.5l0.5-1.4c0.3,0.2,0.7,0.3,1.2,0.4
			c0.4,0.1,0.9,0.2,1.3,0.2c0.8,0,1.4-0.2,1.7-0.7c0.4-0.4,0.6-1.1,0.6-1.9v-0.9c-0.3,0.4-0.7,0.7-1.1,0.9s-1,0.3-1.5,0.3
			c-0.8,0-1.5-0.2-2-0.6c-0.6-0.4-1-0.9-1.3-1.6c-0.3-0.7-0.5-1.5-0.5-2.4V220c0-1,0.2-2,0.5-2.7c0.3-0.8,0.7-1.4,1.3-1.8
			c0.6-0.4,1.3-0.7,2.1-0.7c0.6,0,1.1,0.1,1.6,0.4c0.5,0.2,0.8,0.6,1.2,1l0.2-1.2h1.5v9.6c0,0.8-0.2,1.6-0.5,2.2
			c-0.3,0.6-0.8,1.1-1.4,1.4C334.1,228.5,333.4,228.6,332.5,228.6z M332.6,223.4c0.5,0,1-0.1,1.3-0.4c0.4-0.2,0.7-0.6,0.9-1v-4.5
			c-0.2-0.4-0.5-0.7-0.9-1c-0.4-0.2-0.8-0.4-1.3-0.4c-0.6,0-1,0.2-1.4,0.5s-0.7,0.8-0.8,1.3c-0.2,0.6-0.3,1.2-0.3,2v0.2
			c0,1,0.2,1.8,0.6,2.4C331.1,223.2,331.7,223.4,332.6,223.4z M336.3,216.4l-0.7-1.4h2.2v1.1L336.3,216.4z"/>
		<path class="st7" d="M338.7,224.7v-1.1l1.5-0.3v-6.9l-1.5-0.3V215h3l0.1,1.4c0.3-0.5,0.7-0.9,1.2-1.2s1-0.4,1.7-0.4
			c1,0,1.9,0.3,2.4,0.9c0.6,0.6,0.9,1.6,0.9,2.8v4.7l1.5,0.3v1.1h-4.7v-1.1l1.5-0.3v-4.7c0-0.9-0.2-1.5-0.5-1.8
			c-0.3-0.4-0.9-0.5-1.5-0.5c-0.5,0-1,0.1-1.4,0.4c-0.4,0.2-0.7,0.6-0.9,1v5.7l1.5,0.3v1.1L338.7,224.7L338.7,224.7z"/>
		<path class="st7" d="M354.7,224.9c-0.7,0-1.3-0.1-1.8-0.2c-0.6-0.1-1.2-0.3-1.8-0.6v-2.3h1.3l0.3,1.4c0.3,0.1,0.7,0.2,1,0.3
			s0.7,0.1,1,0.1c0.7,0,1.2-0.1,1.5-0.4c0.3-0.3,0.5-0.6,0.5-1s-0.2-0.7-0.5-1s-0.9-0.5-1.7-0.7c-1.2-0.3-2-0.6-2.6-1.1
			s-0.8-1.1-0.8-1.8c0-0.5,0.2-1,0.5-1.4s0.7-0.7,1.3-1c0.5-0.2,1.2-0.4,1.9-0.4c0.7,0,1.4,0.1,1.9,0.3s1,0.4,1.4,0.7l0.1,2.2h-1.3
			l-0.3-1.3c-0.2-0.2-0.5-0.3-0.7-0.4c-0.3-0.1-0.6-0.1-1-0.1c-0.6,0-1,0.1-1.3,0.4c-0.3,0.3-0.5,0.6-0.5,1c0,0.2,0,0.4,0.1,0.6
			c0.1,0.2,0.3,0.3,0.6,0.5c0.3,0.1,0.7,0.3,1.2,0.4c1.4,0.3,2.3,0.7,2.8,1.2s0.8,1.1,0.8,1.8c0,0.8-0.3,1.5-0.9,2.1
			C356.9,224.6,356,224.9,354.7,224.9z"/>
		<path class="st7" d="M367.9,224.8c-0.7,0-1.3-0.2-1.7-0.6c-0.4-0.4-0.6-1.1-0.6-2v-5.9H364V215h1.5v-2.3h1.8v2.3h2.1v1.3h-2.1v5.9
			c0,0.5,0.1,0.8,0.3,1c0.2,0.2,0.4,0.3,0.7,0.3c0.2,0,0.4,0,0.7-0.1c0.3,0,0.5-0.1,0.6-0.1l0.2,1.2c-0.3,0.1-0.6,0.1-0.9,0.2
			C368.6,224.8,368.2,224.8,367.9,224.8z"/>
		<path class="st7" d="M370.8,224.7v-1.1l1.5-0.3v-11.2l-1.5-0.3v-1.1h3.2v5.6c0.3-0.5,0.7-0.8,1.2-1.1s1-0.4,1.6-0.4
			c1,0,1.8,0.3,2.4,0.9c0.6,0.6,0.9,1.6,0.9,2.9v4.7l1.5,0.3v1.1h-4.7v-1.1l1.5-0.3v-4.7c0-0.8-0.2-1.4-0.5-1.8
			c-0.3-0.4-0.9-0.6-1.5-0.6c-0.5,0-0.9,0.1-1.3,0.3s-0.7,0.5-1,0.9v5.8l1.5,0.3v1.1h-4.8L370.8,224.7L370.8,224.7z"/>
		<path class="st7" d="M386,224.9c-1,0-1.8-0.2-2.3-0.7s-0.8-1.2-0.8-2.1c0-0.6,0.2-1.2,0.5-1.6c0.3-0.5,0.8-0.8,1.5-1.1
			c0.6-0.3,1.4-0.4,2.3-0.4h1.7v-1c0-0.6-0.2-1-0.5-1.4c-0.4-0.3-0.9-0.5-1.5-0.5c-0.4,0-0.8,0-1.1,0.1c-0.3,0.1-0.6,0.2-0.8,0.4
			l-0.2,1.4h-1.4v-2.2c0.4-0.4,0.9-0.6,1.5-0.8s1.2-0.3,1.9-0.3c1.2,0,2.1,0.3,2.8,0.8c0.7,0.6,1,1.4,1,2.4v4.7c0,0.1,0,0.2,0,0.4
			c0,0.1,0,0.2,0,0.4l0.9,0.1v1.1H389c-0.1-0.3-0.1-0.5-0.1-0.7s-0.1-0.4-0.1-0.6c-0.3,0.4-0.8,0.8-1.3,1.1
			C387.1,224.7,386.5,224.9,386,224.9z M386.2,223.4c0.6,0,1.1-0.1,1.6-0.4c0.5-0.3,0.8-0.6,1-1v-1.8H387c-0.8,0-1.4,0.2-1.8,0.6
			c-0.4,0.4-0.6,0.8-0.6,1.3c0,0.4,0.1,0.7,0.4,1C385.3,223.3,385.7,223.4,386.2,223.4z"/>
		<path class="st7" d="M396.4,224.8c-0.7,0-1.3-0.2-1.7-0.6c-0.4-0.4-0.6-1.1-0.6-2v-5.9h-1.5V215h1.5v-2.3h1.8v2.3h2.1v1.3h-2.1
			v5.9c0,0.5,0.1,0.8,0.3,1c0.2,0.2,0.4,0.3,0.7,0.3c0.2,0,0.4,0,0.7-0.1c0.3,0,0.5-0.1,0.6-0.1l0.2,1.2c-0.3,0.1-0.6,0.1-0.9,0.2
			C397.1,224.8,396.7,224.8,396.4,224.8z"/>
		<path class="st6" d="M414.6,216h-1.9l-0.3-1.7c-0.3-0.3-0.6-0.5-1-0.6s-0.9-0.2-1.4-0.2c-1.1,0-2,0.4-2.6,1.2s-0.9,1.9-0.9,3.2
			v0.5c0,1.3,0.3,2.4,0.9,3.2s1.5,1.2,2.6,1.2c0.5,0,1-0.1,1.4-0.2c0.4-0.1,0.8-0.4,1-0.6l0.3-1.7h1.9v2.6c-0.5,0.6-1.2,1.1-2,1.5
			s-1.7,0.5-2.7,0.5c-1.8,0-3.2-0.6-4.3-1.8c-1.1-1.2-1.7-2.8-1.7-4.7V218c0-1.9,0.6-3.5,1.7-4.7s2.6-1.8,4.3-1.8
			c1,0,1.9,0.2,2.7,0.6c0.8,0.4,1.5,0.9,2,1.5V216z"/>
		<path class="st6" d="M415.6,212.3v-1.6h4v12.2l1.3,0.3v1.6h-5.2v-1.6l1.3-0.3v-10.3L415.6,212.3z"/>
		<path class="st6" d="M421.7,223.1l1.3-0.3v-6l-1.4-0.3v-1.6h4v7.9l1.3,0.3v1.6h-5.1L421.7,223.1L421.7,223.1z M425.6,212.7H423v-2
			h2.6V212.7z"/>
		<path class="st6" d="M432.3,222.9c0.5,0,0.8-0.1,1.1-0.4c0.3-0.3,0.4-0.6,0.4-1.1h2.4v0.1c0,1-0.3,1.8-1.1,2.5
			c-0.8,0.7-1.7,1-2.8,1c-1.4,0-2.6-0.5-3.3-1.4c-0.8-0.9-1.2-2.1-1.2-3.5v-0.3c0-1.4,0.4-2.6,1.2-3.5c0.8-0.9,2-1.4,3.4-1.4
			c0.8,0,1.5,0.1,2.1,0.3s1.1,0.6,1.6,1v2.6H434l-0.4-1.5c-0.1-0.1-0.3-0.2-0.5-0.3s-0.4-0.1-0.7-0.1c-0.7,0-1.3,0.3-1.6,0.8
			c-0.3,0.5-0.5,1.2-0.5,2.1v0.3c0,0.9,0.1,1.6,0.4,2.1C431.1,222.6,431.6,222.9,432.3,222.9z"/>
		<path class="st6" d="M437.1,212.3v-1.6h4v8.1h0.6l1.5-2.1l-0.9-0.1V215h4.8v1.6l-1.1,0.3l-1.8,2.4l2.5,3.7l1,0.2v1.6h-4.5v-1.6
			l0.5-0.1l-1.5-2.4h-1.1v2.2l1.1,0.3v1.6h-5v-1.6l1.3-0.3v-10.3L437.1,212.3z"/>
	</g>
</g>
<g>
	<g>
		<path class="st1" d="M641.6,109.6c-0.9-3.4-2.3-6.6-4-9.6s-3.8-5.7-6.2-8.1s-5.1-4.5-8.1-6.3c-3-1.8-6.2-3.1-9.6-4
			c-3.4-1-6.9-1.4-10.6-1.4H602v16h1.1c3.3,0,6.4,0.6,9.4,1.9c2.9,1.3,5.5,3,7.7,5.2c2.2,2.2,3.9,4.7,5.1,7.6c1.2,2.9,1.9,6,1.9,9.3
			s-0.6,6.4-1.9,9.4c-1.2,2.9-3,5.5-5.1,7.6c-2.2,2.2-4.7,3.9-7.7,5.1c-2.9,1.3-6,1.9-9.4,1.9h-8v-18.3H579v34.3h24.1
			c3.7,0,7.2-0.5,10.6-1.4c3.4-0.9,6.6-2.3,9.6-4c3-1.8,5.7-3.8,8.1-6.3c2.4-2.4,4.5-5.1,6.2-8.1c1.8-3,3.1-6.1,4-9.5
			c1-3.4,1.4-7,1.4-10.6C643.1,116.5,642.6,113,641.6,109.6z"/>
	</g>
	<g>
		<path class="st1" d="M548,144.2c-3.3,0-6.4-0.6-9.4-1.9c-2.9-1.2-5.5-3-7.7-5.1c-2.2-2.2-3.9-4.7-5.1-7.6c-1.2-2.9-1.9-6-1.9-9.4
			c0-3.3,0.6-6.4,1.9-9.3c1.2-2.9,3-5.4,5.1-7.6c2.2-2.2,4.7-3.9,7.7-5.2c2.9-1.3,6-1.9,9.4-1.9h1.1v-16H548
			c-3.7,0-7.2,0.5-10.6,1.4c-3.4,0.9-6.6,2.3-9.6,4.1c-3,1.7-5.7,3.8-8.1,6.3c-2.4,2.4-4.5,5.1-6.2,8.1c-1.8,3-3.1,6.1-4,9.5
			c-1,3.4-1.4,6.9-1.4,10.6s0.5,7.2,1.4,10.6c0.9,3.4,2.3,6.6,4,9.5c1.7,3,3.8,5.7,6.2,8.1c2.4,2.4,5.1,4.5,8.1,6.3
			c3,1.7,6.2,3.1,9.6,4c3.4,1,6.9,1.4,10.6,1.4h24.1v-15.9H548z"/>
	</g>
	<polygon class="st8" points="595.1,80.2 595,125.9 578.9,125.9 579,96.2 549.1,96.2 549.1,80.2 	"/>
	<g>
		<g>
			<path class="st1" d="M515.7,190.8c-0.8,0.7-1.6,1.2-2.6,1.5c-1,0.4-2,0.5-3,0.5c-0.8,0-1.5-0.1-2.3-0.3c-0.7-0.2-1.4-0.5-2.1-0.9
				c-0.6-0.4-1.2-0.8-1.7-1.4c-0.5-0.5-1-1.1-1.4-1.7c-0.4-0.6-0.7-1.3-0.9-2.1c-0.2-0.7-0.3-1.5-0.3-2.3s0.1-1.6,0.3-2.3
				s0.5-1.4,0.9-2.1c0.4-0.6,0.8-1.2,1.4-1.7c0.5-0.5,1.1-1,1.7-1.4c0.6-0.4,1.3-0.7,2.1-0.9c0.7-0.2,1.5-0.3,2.3-0.3
				c1,0,2,0.2,3,0.5c1,0.4,1.8,0.9,2.6,1.5l-1.8,2.9c-0.5-0.5-1.1-0.9-1.7-1.2c-0.7-0.3-1.4-0.4-2.1-0.4s-1.4,0.1-2.1,0.4
				c-0.6,0.3-1.2,0.7-1.7,1.1c-0.5,0.5-0.9,1-1.1,1.7c-0.3,0.6-0.4,1.3-0.4,2.1c0,0.7,0.1,1.4,0.4,2s0.7,1.2,1.1,1.7
				c0.5,0.5,1,0.9,1.7,1.1c0.6,0.3,1.3,0.4,2.1,0.4c0.7,0,1.4-0.1,2.1-0.4c0.7-0.3,1.2-0.7,1.7-1.2L515.7,190.8z"/>
			<path class="st1" d="M522.7,192.5h-3.3v-16.6h6.7c0.6,0,1.2,0.1,1.8,0.2c0.6,0.2,1.1,0.4,1.6,0.7s0.9,0.6,1.3,1
				c0.4,0.4,0.8,0.9,1,1.4c0.3,0.5,0.5,1,0.7,1.6s0.2,1.2,0.2,1.8s-0.1,1.1-0.2,1.7c-0.1,0.5-0.3,1.1-0.6,1.5
				c-0.3,0.5-0.6,0.9-1,1.3c-0.4,0.4-0.8,0.8-1.3,1.1l1.8,4.4h-3.5l-1.5-3.4h-3.7V192.5z M522.7,179.2v6.7h3.3
				c0.5,0,0.9-0.1,1.3-0.3c0.4-0.2,0.8-0.4,1.1-0.7s0.5-0.7,0.7-1.1c0.2-0.4,0.3-0.8,0.3-1.3s-0.1-0.9-0.3-1.3
				c-0.2-0.4-0.4-0.8-0.7-1.1s-0.7-0.5-1.1-0.7c-0.4-0.2-0.8-0.3-1.3-0.3h-3.3V179.2z"/>
			<path class="st1" d="M553.2,192.5h-3.3v-11.9c0-0.2,0-0.4-0.1-0.6c-0.1-0.2-0.2-0.4-0.4-0.5c-0.2-0.2-0.3-0.3-0.5-0.4
				c-0.2-0.1-0.4-0.1-0.6-0.1c-0.2,0-0.4,0-0.6,0.1c-0.2,0.1-0.4,0.2-0.5,0.4c-0.2,0.2-0.3,0.3-0.4,0.5c-0.1,0.2-0.1,0.4-0.1,0.6
				v11.9h-3.3v-11.9c0-0.2,0-0.4-0.1-0.6c-0.1-0.2-0.2-0.4-0.4-0.5c-0.2-0.2-0.3-0.3-0.5-0.4c-0.2-0.1-0.4-0.1-0.6-0.1
				c-0.2,0-0.4,0-0.6,0.1c-0.2,0.1-0.4,0.2-0.5,0.4c-0.2,0.2-0.3,0.3-0.4,0.5c-0.1,0.2-0.1,0.4-0.1,0.6v11.9h-3.3v-11.9
				c0-0.7,0.1-1.3,0.4-1.9c0.3-0.6,0.6-1.1,1.1-1.6s1-0.8,1.6-1.1s1.3-0.4,1.9-0.4c0.6,0,1.2,0.1,1.8,0.3s1.1,0.5,1.5,1
				c0.5-0.4,1-0.7,1.5-1c0.6-0.2,1.2-0.3,1.8-0.3c0.7,0,1.3,0.1,1.9,0.4c0.6,0.3,1.1,0.6,1.6,1.1s0.8,1,1.1,1.6s0.4,1.3,0.4,1.9
				v11.9H553.2z"/>
			<path class="st1" d="M571.3,190.8c-0.8,0.7-1.6,1.2-2.6,1.5c-1,0.4-2,0.5-3,0.5c-0.8,0-1.5-0.1-2.3-0.3c-0.7-0.2-1.4-0.5-2.1-0.9
				c-0.6-0.4-1.2-0.8-1.7-1.4c-0.5-0.5-1-1.1-1.4-1.7c-0.4-0.6-0.7-1.3-0.9-2.1c-0.2-0.7-0.3-1.5-0.3-2.3s0.1-1.6,0.3-2.3
				s0.5-1.4,0.9-2.1c0.4-0.6,0.8-1.2,1.4-1.7c0.5-0.5,1.1-1,1.7-1.4s1.3-0.7,2.1-0.9c0.7-0.2,1.5-0.3,2.3-0.3c1,0,2,0.2,3,0.5
				c1,0.4,1.8,0.9,2.6,1.5l-1.8,2.9c-0.5-0.5-1.1-0.9-1.7-1.2c-0.7-0.3-1.4-0.4-2.1-0.4c-0.7,0-1.4,0.1-2.1,0.4
				c-0.6,0.3-1.2,0.7-1.7,1.1c-0.5,0.5-0.9,1-1.1,1.7c-0.3,0.6-0.4,1.3-0.4,2.1c0,0.7,0.1,1.4,0.4,2c0.3,0.6,0.7,1.2,1.1,1.7
				c0.5,0.5,1,0.9,1.7,1.1c0.6,0.3,1.3,0.4,2.1,0.4c0.7,0,1.4-0.1,2.1-0.4c0.7-0.3,1.2-0.7,1.7-1.2L571.3,190.8z"/>
			<path class="st1" d="M596.8,184.2c0,0.8-0.1,1.5-0.3,2.2s-0.5,1.4-0.8,2c-0.4,0.6-0.8,1.2-1.3,1.7s-1.1,0.9-1.7,1.3
				c-0.6,0.4-1.3,0.6-2,0.8s-1.4,0.3-2.2,0.3h-5v-16.6h5c0.8,0,1.5,0.1,2.2,0.3s1.4,0.5,2,0.8c0.6,0.4,1.2,0.8,1.7,1.3
				s0.9,1.1,1.3,1.7c0.4,0.6,0.6,1.3,0.8,2S596.8,183.4,596.8,184.2z M593.4,184.2c0-0.7-0.1-1.3-0.4-1.9c-0.3-0.6-0.6-1.1-1.1-1.6
				s-1-0.8-1.6-1.1s-1.3-0.4-1.9-0.4h-1.7v10h1.7c0.7,0,1.3-0.1,1.9-0.4c0.6-0.3,1.1-0.6,1.6-1.1s0.8-1,1.1-1.6
				C593.3,185.5,593.4,184.9,593.4,184.2z"/>
			<path class="st1" d="M599.8,180.9c0-0.7,0.1-1.3,0.4-1.9c0.3-0.6,0.6-1.1,1.1-1.6s1-0.8,1.6-1.1s1.2-0.4,1.9-0.4h7.6v3.3h-7.6
				c-0.2,0-0.4,0-0.6,0.1c-0.2,0.1-0.4,0.2-0.5,0.4c-0.2,0.2-0.3,0.3-0.4,0.5c-0.1,0.2-0.1,0.4-0.1,0.6c0,0.2,0,0.5,0.1,0.7
				s0.2,0.4,0.4,0.5c0.2,0.2,0.3,0.3,0.5,0.4c0.2,0.1,0.4,0.1,0.6,0.1h3.3c0.7,0,1.3,0.1,1.9,0.4c0.6,0.3,1.1,0.6,1.6,1.1
				s0.8,1,1.1,1.6s0.4,1.3,0.4,1.9c0,0.7-0.1,1.3-0.4,1.9c-0.3,0.6-0.6,1.1-1.1,1.6s-1,0.8-1.6,1.1s-1.3,0.4-1.9,0.4h-7.4v-3.3h7.4
				c0.2,0,0.4,0,0.6-0.1c0.2-0.1,0.4-0.2,0.5-0.4c0.2-0.2,0.3-0.3,0.4-0.5c0.1-0.2,0.1-0.4,0.1-0.6c0-0.2,0-0.4-0.1-0.6
				c-0.1-0.2-0.2-0.4-0.4-0.5c-0.2-0.2-0.3-0.3-0.5-0.4c-0.2-0.1-0.4-0.1-0.6-0.1h-3.3c-0.7,0-1.3-0.1-1.9-0.4
				c-0.6-0.3-1.1-0.6-1.6-1.1s-0.8-1-1.1-1.6C599.9,182.2,599.8,181.5,599.8,180.9z"/>
			<path class="st1" d="M630.3,190.8c-0.8,0.7-1.6,1.2-2.6,1.5c-1,0.4-1.9,0.5-3,0.5c-0.8,0-1.5-0.1-2.3-0.3c-0.7-0.2-1.4-0.5-2-0.9
				s-1.2-0.8-1.7-1.3s-1-1.1-1.3-1.7c-0.4-0.6-0.7-1.3-0.9-2.1c-0.2-0.7-0.3-1.5-0.3-2.3s0.1-1.5,0.3-2.3c0.2-0.7,0.5-1.4,0.9-2
				s0.8-1.2,1.3-1.7s1.1-1,1.7-1.3c0.6-0.4,1.3-0.7,2-0.9s1.5-0.3,2.3-0.3c1,0,2,0.2,3,0.5c1,0.4,1.8,0.9,2.6,1.5l-1.7,2.9
				c-0.5-0.5-1.1-0.9-1.7-1.2c-0.7-0.3-1.3-0.4-2.1-0.4c-0.7,0-1.4,0.1-2,0.4c-0.6,0.3-1.2,0.7-1.7,1.1c-0.5,0.5-0.9,1-1.1,1.7
				c-0.3,0.6-0.4,1.3-0.4,2s0.1,1.4,0.4,2.1c0.3,0.6,0.7,1.2,1.1,1.7c0.5,0.5,1,0.9,1.7,1.1c0.6,0.3,1.3,0.4,2,0.4
				c0.4,0,0.8-0.1,1.2-0.2c0.4-0.1,0.8-0.2,1.1-0.4v-4.7h3.2V190.8z"/>
			<path class="st1" d="M648,192.5h-3.6l-6.4-11v11h-3.3v-16.6h3.6l6.4,11v-11h3.3V192.5z"/>
		</g>
	</g>
	<g>
		<path class="st9" d="M518.8,209.3c-0.6,0-1.1-0.2-1.6-0.5c-0.4-0.3-0.8-0.7-1-1.3c-0.2-0.5-0.3-1.2-0.3-1.9v-0.1
			c0-0.8,0.1-1.5,0.3-2.1c0.2-0.6,0.6-1.1,1-1.4c0.4-0.3,1-0.5,1.6-0.5c0.4,0,0.8,0.1,1.2,0.2s0.6,0.4,0.9,0.7v-3.1l-1.1-0.2v-0.9
			h1.1h1.4v9.7l1.1,0.2v0.9h-2.3l-0.1-0.9c-0.2,0.3-0.5,0.6-0.9,0.8C519.7,209.2,519.3,209.3,518.8,209.3z M519.2,208.2
			c0.4,0,0.7-0.1,1-0.3s0.5-0.4,0.7-0.8v-3.5c-0.2-0.3-0.4-0.6-0.7-0.7c-0.3-0.2-0.6-0.3-1-0.3s-0.8,0.1-1.1,0.4
			c-0.3,0.2-0.5,0.6-0.6,1s-0.2,0.9-0.2,1.5v0.1c0,0.8,0.2,1.4,0.5,1.8C518,207.9,518.5,208.2,519.2,208.2z"/>
		<path class="st9" d="M527.7,209.3c-0.7,0-1.3-0.2-1.8-0.5s-0.9-0.8-1.2-1.3c-0.3-0.6-0.4-1.2-0.4-2v-0.3c0-0.7,0.1-1.3,0.4-1.9
			c0.3-0.6,0.7-1,1.2-1.3s1-0.5,1.6-0.5c0.7,0,1.2,0.1,1.7,0.4c0.5,0.3,0.8,0.7,1,1.2s0.3,1.1,0.3,1.8v0.9h-4.9l0,0
			c0,0.5,0.1,0.9,0.3,1.3c0.2,0.4,0.4,0.7,0.7,0.9s0.7,0.3,1.1,0.3c0.5,0,0.9-0.1,1.2-0.2c0.3-0.1,0.7-0.3,0.9-0.5l0.5,0.9
			c-0.3,0.3-0.6,0.5-1.1,0.7C528.9,209.2,528.3,209.3,527.7,209.3z M525.7,204.6h3.5v-0.2c0-0.4-0.1-0.7-0.2-1
			c-0.1-0.3-0.3-0.5-0.6-0.7s-0.6-0.2-0.9-0.2c-0.3,0-0.6,0.1-0.8,0.3s-0.5,0.4-0.6,0.7C525.9,203.9,525.8,204.2,525.7,204.6
			L525.7,204.6z"/>
		<path class="st9" d="M534.7,209.3c-0.5,0-1-0.1-1.4-0.2c-0.4-0.1-0.9-0.3-1.4-0.5v-1.8h1l0.3,1.1c0.3,0.1,0.5,0.2,0.8,0.2
			c0.2,0,0.5,0.1,0.8,0.1c0.6,0,1-0.1,1.2-0.3s0.4-0.5,0.4-0.8s-0.1-0.5-0.4-0.8c-0.2-0.2-0.7-0.4-1.3-0.5c-0.9-0.2-1.6-0.5-2-0.8
			s-0.6-0.8-0.6-1.4c0-0.4,0.1-0.8,0.4-1.1c0.2-0.3,0.6-0.6,1-0.8s0.9-0.3,1.5-0.3s1.1,0.1,1.5,0.2c0.4,0.1,0.8,0.3,1.1,0.5l0.1,1.7
			h-1l-0.2-1c-0.2-0.1-0.4-0.2-0.6-0.3c-0.2-0.1-0.5-0.1-0.8-0.1c-0.4,0-0.8,0.1-1,0.3c-0.3,0.2-0.4,0.4-0.4,0.7
			c0,0.2,0,0.3,0.1,0.5c0.1,0.1,0.2,0.2,0.4,0.4c0.2,0.1,0.5,0.2,1,0.3c1,0.2,1.8,0.6,2.2,0.9c0.4,0.4,0.6,0.8,0.6,1.4
			c0,0.6-0.2,1.2-0.7,1.6C536.4,209.1,535.7,209.3,534.7,209.3z"/>
		<path class="st9" d="M538.7,209.1v-0.9l1.1-0.2v-5.4l-1.1-0.2v-0.9h2.5v6.4l1.1,0.2v0.9L538.7,209.1L538.7,209.1z M539.8,199.8
			v-1.5h1.4v1.5H539.8z"/>
		<path class="st9" d="M546.6,212.2c-0.4,0-0.8,0-1.2-0.1s-0.8-0.2-1.1-0.4l0.4-1.1c0.3,0.1,0.6,0.2,0.9,0.3c0.3,0.1,0.7,0.1,1,0.1
			c0.6,0,1.1-0.2,1.3-0.5c0.3-0.3,0.4-0.8,0.4-1.5v-0.7c-0.2,0.3-0.5,0.6-0.9,0.7c-0.3,0.2-0.7,0.2-1.2,0.2c-0.6,0-1.1-0.2-1.6-0.5
			c-0.4-0.3-0.8-0.7-1-1.3c-0.2-0.5-0.4-1.2-0.4-1.9v-0.1c0-0.8,0.1-1.5,0.4-2.1c0.2-0.6,0.6-1.1,1-1.4c0.4-0.3,1-0.5,1.6-0.5
			c0.5,0,0.9,0.1,1.2,0.3c0.4,0.2,0.7,0.5,0.9,0.8l0.1-0.9h1.2v7.4c0,0.6-0.1,1.2-0.4,1.7c-0.2,0.5-0.6,0.8-1.1,1.1
			C547.8,212,547.2,212.2,546.6,212.2z M546.6,208.2c0.4,0,0.8-0.1,1-0.3c0.3-0.2,0.5-0.5,0.7-0.8v-3.5c-0.2-0.3-0.4-0.6-0.7-0.8
			s-0.6-0.3-1-0.3s-0.8,0.1-1.1,0.4c-0.3,0.2-0.5,0.6-0.6,1s-0.2,0.9-0.2,1.5v0.1c0,0.8,0.2,1.4,0.5,1.8
			C545.5,207.9,545.9,208.2,546.6,208.2z M549.5,202.8l-0.5-1.1h1.7v0.9L549.5,202.8z"/>
		<path class="st9" d="M551.3,209.1v-0.9l1.1-0.2v-5.4l-1.1-0.2v-0.9h2.3l0.1,1.1c0.2-0.4,0.6-0.7,0.9-0.9c0.4-0.2,0.8-0.3,1.3-0.3
			c0.8,0,1.4,0.2,1.9,0.7c0.4,0.5,0.7,1.2,0.7,2.2v3.7l1.1,0.2v0.9H556v-0.9l1.1-0.2v-3.6c0-0.7-0.1-1.1-0.4-1.4
			c-0.3-0.3-0.7-0.4-1.2-0.4c-0.4,0-0.7,0.1-1,0.3s-0.5,0.4-0.7,0.8v4.4l1.1,0.2v0.9h-3.6V209.1z"/>
		<path class="st9" d="M563.6,209.3c-0.5,0-1-0.1-1.4-0.2c-0.4-0.1-0.9-0.3-1.4-0.5v-1.8h1l0.3,1.1c0.3,0.1,0.5,0.2,0.8,0.2
			c0.2,0,0.5,0.1,0.8,0.1c0.6,0,1-0.1,1.2-0.3s0.4-0.5,0.4-0.8s-0.1-0.5-0.4-0.8c-0.2-0.2-0.7-0.4-1.3-0.5c-0.9-0.2-1.6-0.5-2-0.8
			s-0.6-0.8-0.6-1.4c0-0.4,0.1-0.8,0.4-1.1c0.2-0.3,0.6-0.6,1-0.8s0.9-0.3,1.5-0.3s1.1,0.1,1.5,0.2c0.4,0.1,0.8,0.3,1.1,0.5l0.1,1.7
			h-1l-0.2-1c-0.2-0.1-0.4-0.2-0.6-0.3c-0.2-0.1-0.5-0.1-0.8-0.1c-0.4,0-0.8,0.1-1,0.3c-0.3,0.2-0.4,0.4-0.4,0.7
			c0,0.2,0,0.3,0.1,0.5c0.1,0.1,0.2,0.2,0.4,0.4c0.2,0.1,0.5,0.2,1,0.3c1,0.2,1.8,0.6,2.2,0.9c0.4,0.4,0.6,0.8,0.6,1.4
			c0,0.6-0.2,1.2-0.7,1.6C565.4,209.1,564.6,209.3,563.6,209.3z"/>
		<path class="st9" d="M573.9,209.3c-0.6,0-1-0.2-1.3-0.5s-0.5-0.8-0.5-1.6v-4.6h-1.2v-1h1.2v-1.8h1.4v1.8h1.6v1h-1.6v4.6
			c0,0.4,0.1,0.6,0.2,0.8c0.1,0.2,0.3,0.3,0.6,0.3c0.2,0,0.3,0,0.5,0s0.4-0.1,0.5-0.1l0.2,0.9c-0.2,0.1-0.4,0.1-0.7,0.2
			C574.4,209.2,574.1,209.3,573.9,209.3z"/>
		<path class="st9" d="M576.1,209.1v-0.9l1.1-0.2v-8.7l-1.1-0.2v-0.9h2.5v4.3c0.3-0.4,0.6-0.6,0.9-0.8c0.4-0.2,0.8-0.3,1.2-0.3
			c0.8,0,1.4,0.2,1.9,0.7c0.4,0.5,0.7,1.2,0.7,2.2v3.6l1.1,0.2v0.9h-3.6v-0.9l1.1-0.2v-3.6c0-0.6-0.1-1.1-0.4-1.4
			c-0.3-0.3-0.7-0.4-1.2-0.4c-0.4,0-0.7,0.1-1,0.3s-0.6,0.4-0.8,0.7v4.5l1.1,0.2v0.9H576.1L576.1,209.1z"/>
		<path class="st9" d="M587.8,209.3c-0.8,0-1.4-0.2-1.8-0.6c-0.4-0.4-0.6-0.9-0.6-1.6c0-0.5,0.1-0.9,0.4-1.2
			c0.3-0.4,0.6-0.6,1.1-0.8s1.1-0.3,1.8-0.3h1.3v-0.7c0-0.5-0.1-0.8-0.4-1.1c-0.3-0.2-0.7-0.4-1.2-0.4c-0.3,0-0.6,0-0.8,0.1
			s-0.4,0.2-0.6,0.3l-0.1,1h-1.1v-1.7c0.3-0.3,0.7-0.5,1.2-0.6c0.4-0.1,0.9-0.2,1.5-0.2c0.9,0,1.6,0.2,2.1,0.7
			c0.5,0.4,0.8,1.1,0.8,1.9v3.6c0,0.1,0,0.2,0,0.3s0,0.2,0,0.3l0.7,0.1v0.9h-2c0-0.2-0.1-0.4-0.1-0.5c0-0.2,0-0.3,0-0.5
			c-0.3,0.3-0.6,0.6-1,0.8C588.7,209.2,588.3,209.3,587.8,209.3z M588,208.1c0.5,0,0.9-0.1,1.2-0.3c0.4-0.2,0.6-0.5,0.8-0.8v-1.4
			h-1.4c-0.6,0-1.1,0.2-1.4,0.5c-0.3,0.3-0.5,0.6-0.5,1c0,0.3,0.1,0.6,0.3,0.8C587.3,208.1,587.6,208.1,588,208.1z"/>
		<path class="st9" d="M595.9,209.3c-0.6,0-1-0.2-1.3-0.5s-0.5-0.8-0.5-1.6v-4.6h-1.2v-1h1.2v-1.8h1.4v1.8h1.6v1h-1.6v4.6
			c0,0.4,0.1,0.6,0.2,0.8c0.1,0.2,0.3,0.3,0.6,0.3c0.2,0,0.3,0,0.5,0s0.4-0.1,0.5-0.1l0.2,0.9c-0.2,0.1-0.4,0.1-0.7,0.2
			C596.4,209.2,596.1,209.3,595.9,209.3z"/>
		<path class="st10" d="M610,202.4h-1.5l-0.2-1.3c-0.2-0.2-0.4-0.4-0.8-0.5c-0.3-0.1-0.7-0.2-1.1-0.2c-0.9,0-1.6,0.3-2,1
			c-0.5,0.6-0.7,1.5-0.7,2.5v0.4c0,1,0.2,1.9,0.7,2.5s1.1,1,2,1c0.4,0,0.8-0.1,1.1-0.2c0.3-0.1,0.6-0.3,0.8-0.5l0.2-1.3h1.5v2
			c-0.4,0.5-0.9,0.8-1.6,1.1c-0.6,0.3-1.3,0.4-2.1,0.4c-1.4,0-2.5-0.5-3.3-1.4c-0.9-0.9-1.3-2.1-1.3-3.6V204c0-1.5,0.4-2.7,1.3-3.6
			c0.9-0.9,2-1.4,3.3-1.4c0.8,0,1.5,0.1,2.1,0.4c0.6,0.3,1.1,0.7,1.6,1.1V202.4z"/>
		<path class="st10" d="M610.7,199.5v-1.2h3.1v9.4l1,0.2v1.2h-4v-1.2l1-0.2v-8L610.7,199.5z"/>
		<path class="st10" d="M615.4,207.9l1-0.2V203l-1.1-0.2v-1.2h3.1v6.1l1,0.2v1.2h-4V207.9z M618.4,199.8h-2v-1.5h2V199.8z"/>
		<path class="st10" d="M623.6,207.7c0.4,0,0.6-0.1,0.9-0.3c0.2-0.2,0.3-0.5,0.3-0.8h1.8l0,0c0,0.8-0.3,1.4-0.9,1.9
			c-0.6,0.5-1.3,0.8-2.2,0.8c-1.1,0-2-0.4-2.6-1.1c-0.6-0.7-0.9-1.6-0.9-2.7v-0.2c0-1.1,0.3-2,0.9-2.7c0.6-0.7,1.5-1.1,2.7-1.1
			c0.6,0,1.1,0.1,1.6,0.3s0.9,0.4,1.2,0.8v2h-1.6l-0.3-1.2c-0.1-0.1-0.2-0.2-0.4-0.2c-0.1-0.1-0.3-0.1-0.5-0.1c-0.6,0-1,0.2-1.2,0.6
			c-0.2,0.4-0.4,1-0.4,1.6v0.2c0,0.7,0.1,1.2,0.3,1.6C622.6,207.5,623,207.7,623.6,207.7z"/>
		<path class="st10" d="M627.3,199.5v-1.2h3.1v6.3h0.5l1.2-1.6l-0.7-0.1v-1.2h3.7v1.2l-0.9,0.2l-1.4,1.9l1.9,2.8l0.8,0.2v1.2H632
			V208l0.4-0.1l-1.2-1.9h-0.9v1.7l0.9,0.2v1.2h-3.9v-1.2l1-0.2v-8L627.3,199.5z"/>
	</g>
</g>
<g>
	<g>
		<path class="st1" d="M771.3,84.7c-0.6-2.3-1.6-4.5-2.8-6.5c-1.2-2.1-2.7-3.9-4.2-5.4c-1.7-1.7-3.5-3-5.6-4.2
			c-2.1-1.2-4.2-2.1-6.5-2.8c-2.3-0.6-4.7-1-7.3-1h-0.6v10.9h0.7c2.3,0,4.4,0.5,6.4,1.3c1.9,0.8,3.8,2.1,5.2,3.5
			c1.5,1.5,2.7,3.3,3.5,5.2c0.8,1.9,1.2,4.1,1.2,6.3s-0.4,4.4-1.2,6.4c-0.8,1.9-2.1,3.8-3.5,5.2c-1.5,1.5-3.3,2.7-5.2,3.5
			c-1.9,0.8-4.1,1.3-6.4,1.3h-5.4V95.9h-11v23.4H745c2.5,0,5-0.4,7.3-1c2.3-0.6,4.5-1.6,6.5-2.8c2.1-1.2,3.9-2.7,5.6-4.2
			c1.7-1.7,3-3.5,4.2-5.4c1.2-2.1,2.1-4.2,2.8-6.5c0.6-2.3,1-4.7,1-7.3C772.3,89.4,771.9,87,771.3,84.7z"/>
	</g>
	<g>
		<path class="st1" d="M707.6,108.3c-2.3,0-4.4-0.5-6.4-1.3c-1.9-0.8-3.8-2.1-5.2-3.5c-1.5-1.5-2.7-3.3-3.5-5.2
			c-0.8-1.9-1.3-4.1-1.3-6.4s0.4-4.4,1.3-6.3c0.8-1.9,2.1-3.8,3.5-5.2c1.5-1.5,3.3-2.7,5.2-3.5c1.9-0.8,4.1-1.3,6.4-1.3h0.7V64.6
			h-0.7c-2.5,0-5,0.4-7.3,1s-4.5,1.6-6.5,2.8c-2.1,1.2-3.9,2.7-5.6,4.2c-1.7,1.7-3,3.5-4.2,5.4c-1.2,2.1-2.1,4.2-2.8,6.5
			c-0.6,2.3-1,4.7-1,7.3c0,2.5,0.4,5,1,7.3c0.6,2.3,1.6,4.5,2.8,6.5c1.2,2.1,2.7,3.9,4.2,5.4c1.7,1.7,3.5,3.1,5.6,4.2
			c2.1,1.2,4.2,2.1,6.5,2.8c2.3,0.6,4.7,1,7.3,1h16.5v-10.9L707.6,108.3L707.6,108.3z"/>
	</g>
	<polygon class="st8" points="739.6,64.7 739.6,95.9 728.7,95.9 728.7,75.6 708.4,75.6 708.4,64.7 	"/>
	<g>
		<g>
			<path class="st1" d="M685.6,140c-0.5,0.5-1.1,0.8-1.8,1.1c-0.6,0.2-1.3,0.4-2.1,0.4c-0.5,0-1.1-0.1-1.6-0.2
				c-0.5-0.1-1-0.4-1.5-0.6c-0.5-0.2-0.8-0.6-1.2-1c-0.4-0.4-0.6-0.7-1-1.2c-0.2-0.5-0.5-0.8-0.6-1.5c-0.1-0.5-0.2-1-0.2-1.6
				s0.1-1.1,0.2-1.6c0.1-0.5,0.4-1,0.6-1.5c0.2-0.5,0.6-0.8,1-1.2c0.4-0.4,0.7-0.6,1.2-1c0.5-0.2,0.8-0.5,1.5-0.6
				c0.5-0.1,1-0.2,1.6-0.2c0.7,0,1.3,0.1,2.1,0.4c0.6,0.2,1.2,0.6,1.8,1.1l-1.2,1.9c-0.4-0.4-0.7-0.6-1.2-0.8
				c-0.5-0.2-1-0.2-1.5-0.2s-1,0.1-1.5,0.2c-0.5,0.2-0.8,0.5-1.1,0.7c-0.4,0.4-0.6,0.7-0.7,1.1c-0.2,0.5-0.2,0.8-0.2,1.5
				c0,0.5,0.1,1,0.2,1.5c0.2,0.5,0.5,0.8,0.7,1.1c0.4,0.4,0.7,0.6,1.1,0.7c0.5,0.2,0.8,0.2,1.5,0.2c0.5,0,1-0.1,1.5-0.2
				c0.5-0.2,0.8-0.5,1.2-0.8L685.6,140z"/>
			<path class="st1" d="M690.4,141.1h-2.3v-11.4h4.5c0.4,0,0.8,0,1.2,0.1c0.4,0.1,0.7,0.2,1.1,0.5c0.4,0.2,0.6,0.5,1,0.7
				c0.2,0.2,0.5,0.6,0.7,1c0.2,0.4,0.4,0.7,0.5,1.1c0.1,0.4,0.1,0.7,0.1,1.2c0,0.4,0,0.7-0.1,1.1c-0.1,0.4-0.2,0.7-0.4,1.1
				c-0.2,0.4-0.4,0.6-0.7,1c-0.2,0.2-0.6,0.5-0.8,0.7l1.2,2.9H694l-1-2.3h-2.5L690.4,141.1L690.4,141.1z M690.4,132.2v4.5h2.3
				c0.4,0,0.6,0,0.8-0.1c0.2-0.1,0.5-0.2,0.7-0.5c0.2-0.2,0.4-0.5,0.5-0.7c0.1-0.2,0.1-0.6,0.1-0.8c0-0.4,0-0.6-0.1-0.8
				s-0.2-0.5-0.5-0.7s-0.5-0.4-0.7-0.5c-0.2-0.1-0.6-0.1-0.8-0.1h-2.3V132.2z"/>
			<path class="st1" d="M711.1,141.1h-2.3V133c0-0.1,0-0.4-0.1-0.5c0-0.1-0.1-0.2-0.2-0.4c-0.1-0.1-0.2-0.2-0.4-0.2
				c-0.1,0-0.2-0.1-0.5-0.1c-0.1,0-0.4,0-0.5,0.1c-0.1,0-0.2,0.1-0.4,0.2c-0.1,0.1-0.2,0.2-0.2,0.4s-0.1,0.2-0.1,0.5v8.1h-2.1V133
				c0-0.1,0-0.4-0.1-0.5c0-0.1-0.1-0.2-0.2-0.4c-0.1-0.1-0.2-0.2-0.4-0.2c-0.1,0-0.2-0.1-0.5-0.1c-0.1,0-0.4,0-0.5,0.1
				c-0.1,0-0.2,0.1-0.4,0.2c-0.1,0.1-0.2,0.2-0.2,0.4s-0.1,0.2-0.1,0.5v8.1h-2.3V133c0-0.5,0.1-1,0.2-1.3c0.1-0.4,0.4-0.7,0.7-1.1
				c0.4-0.4,0.7-0.6,1.1-0.7c0.4-0.1,0.8-0.2,1.3-0.2c0.4,0,0.8,0.1,1.2,0.2c0.4,0.1,0.7,0.4,1.1,0.6c0.4-0.2,0.6-0.5,1.1-0.6
				c0.4-0.1,0.8-0.2,1.2-0.2c0.5,0,1,0.1,1.3,0.2c0.4,0.1,0.7,0.4,1.1,0.7c0.4,0.4,0.6,0.7,0.7,1.1c0.1,0.4,0.2,0.8,0.2,1.3
				L711.1,141.1L711.1,141.1z"/>
			<path class="st1" d="M723.4,140c-0.5,0.5-1.1,0.8-1.8,1.1c-0.6,0.2-1.3,0.4-2.1,0.4c-0.5,0-1.1-0.1-1.6-0.2
				c-0.5-0.1-1-0.4-1.5-0.6s-0.8-0.6-1.2-1c-0.4-0.4-0.6-0.7-1-1.2c-0.2-0.5-0.5-0.8-0.6-1.5c-0.1-0.5-0.2-1-0.2-1.6
				s0.1-1.1,0.2-1.6c0.1-0.5,0.4-1,0.6-1.5c0.2-0.5,0.6-0.8,1-1.2c0.4-0.4,0.7-0.6,1.2-1c0.5-0.2,0.8-0.5,1.5-0.6
				c0.5-0.1,1-0.2,1.6-0.2c0.7,0,1.3,0.1,2.1,0.4c0.6,0.2,1.2,0.6,1.8,1.1l-1.2,1.9c-0.4-0.4-0.7-0.6-1.2-0.8
				c-0.5-0.2-1-0.2-1.5-0.2s-1,0.1-1.5,0.2c-0.5,0.2-0.8,0.5-1.1,0.7c-0.4,0.4-0.6,0.7-0.7,1.1c-0.2,0.5-0.2,0.8-0.2,1.5
				c0,0.5,0.1,1,0.2,1.5c0.2,0.5,0.5,0.8,0.7,1.1c0.4,0.4,0.7,0.6,1.1,0.7c0.5,0.2,0.8,0.2,1.5,0.2c0.5,0,1-0.1,1.5-0.2
				c0.5-0.2,0.8-0.5,1.2-0.8L723.4,140z"/>
			<path class="st1" d="M740.8,135.6c0,0.5-0.1,1-0.2,1.5c-0.1,0.5-0.4,1-0.6,1.3c-0.2,0.4-0.5,0.8-0.8,1.1
				c-0.4,0.4-0.7,0.6-1.1,0.8c-0.4,0.2-0.8,0.5-1.3,0.6c-0.5,0.1-1,0.2-1.5,0.2h-3.4v-11.4h3.4c0.5,0,1,0.1,1.5,0.2
				c0.5,0.1,1,0.4,1.3,0.6c0.4,0.2,0.8,0.5,1.1,0.8c0.4,0.4,0.6,0.7,0.8,1.1s0.5,0.8,0.6,1.3C740.7,134.5,740.8,134.9,740.8,135.6z
				 M738.5,135.6c0-0.5-0.1-1-0.2-1.3c-0.1-0.4-0.4-0.7-0.7-1.1c-0.4-0.4-0.7-0.6-1.1-0.7c-0.4-0.1-0.8-0.2-1.3-0.2H734v6.8h1.1
				c0.5,0,1-0.1,1.3-0.2c0.4-0.1,0.7-0.4,1.1-0.7c0.4-0.4,0.6-0.7,0.7-1.1C738.4,136.4,738.5,135.9,738.5,135.6z"/>
			<path class="st1" d="M742.8,133.3c0-0.5,0.1-1,0.2-1.3s0.4-0.7,0.7-1.1c0.4-0.4,0.7-0.6,1.1-0.7c0.4-0.1,0.8-0.2,1.3-0.2h5.2v2.3
				h-5.2c-0.1,0-0.4,0-0.5,0.1c-0.1,0-0.2,0.1-0.4,0.2c-0.1,0.1-0.2,0.2-0.2,0.4s-0.1,0.2-0.1,0.5c0,0.1,0,0.4,0.1,0.5
				c0,0.1,0.1,0.2,0.2,0.4c0.1,0.1,0.2,0.2,0.4,0.2c0.1,0,0.2,0.1,0.5,0.1h2.3c0.5,0,1,0.1,1.3,0.2c0.4,0.1,0.7,0.4,1.1,0.7
				c0.4,0.4,0.6,0.7,0.7,1.1c0.1,0.4,0.2,0.8,0.2,1.3s-0.1,1-0.2,1.3s-0.4,0.7-0.7,1.1c-0.4,0.4-0.7,0.6-1.1,0.7
				c-0.4,0.1-0.8,0.2-1.3,0.2h-5.1v-2.3h5.1c0.1,0,0.4,0,0.5-0.1c0.1,0,0.2-0.1,0.4-0.2c0.1-0.1,0.2-0.2,0.2-0.4
				c0-0.1,0.1-0.2,0.1-0.5c0-0.1,0-0.4-0.1-0.5c0-0.1-0.1-0.2-0.2-0.4c-0.1-0.1-0.2-0.2-0.4-0.2c-0.1,0-0.2-0.1-0.5-0.1h-2.3
				c-0.5,0-1-0.1-1.3-0.2c-0.4-0.1-0.7-0.4-1.1-0.7c-0.4-0.4-0.6-0.7-0.7-1.1C743,134.1,742.8,133.7,742.8,133.3z"/>
			<path class="st1" d="M763.7,140c-0.5,0.5-1.1,0.8-1.8,1.1c-0.6,0.2-1.3,0.4-2.1,0.4c-0.5,0-1.1-0.1-1.6-0.2
				c-0.5-0.1-1-0.4-1.5-0.6s-0.8-0.6-1.2-1c-0.4-0.4-0.6-0.7-1-1.2c-0.2-0.5-0.5-0.8-0.6-1.5c-0.1-0.5-0.2-1-0.2-1.6
				s0.1-1.1,0.2-1.6c0.1-0.5,0.4-1,0.6-1.5c0.2-0.5,0.6-0.8,1-1.2c0.4-0.4,0.7-0.6,1.2-1c0.5-0.2,0.8-0.5,1.5-0.6
				c0.5-0.1,1-0.2,1.6-0.2c0.7,0,1.3,0.1,2.1,0.4c0.6,0.2,1.2,0.6,1.8,1.1l-1.2,1.9c-0.4-0.4-0.7-0.6-1.2-0.8
				c-0.5-0.2-1-0.2-1.5-0.2s-1,0.1-1.5,0.2c-0.5,0.1-0.8,0.5-1.1,0.7c-0.4,0.4-0.6,0.7-0.7,1.1c-0.2,0.5-0.2,0.8-0.2,1.5
				c0,0.5,0.1,1,0.2,1.5c0.2,0.5,0.5,0.8,0.7,1.1c0.4,0.4,0.7,0.6,1.1,0.7c0.4,0.1,0.8,0.2,1.5,0.2c0.2,0,0.6,0,0.8-0.1
				c0.2-0.1,0.5-0.1,0.7-0.2v-3.3h2.2v5H763.7z"/>
			<path class="st1" d="M775.6,141.1h-2.4l-4.4-7.5v7.5h-2.3v-11.4h2.4l4.4,7.5v-7.5h2.3V141.1z"/>
		</g>
	</g>
	<g>
		<path class="st11" d="M687.8,152.6c-0.4,0-0.7-0.1-1.1-0.4c-0.2-0.2-0.5-0.5-0.7-0.8c-0.1-0.4-0.2-0.8-0.2-1.3V150
			c0-0.6,0.1-1,0.2-1.5c0.1-0.4,0.4-0.7,0.7-1c0.2-0.2,0.6-0.4,1.1-0.4c0.2,0,0.6,0,0.8,0.1c0.2,0.1,0.5,0.2,0.6,0.5v-2.1l-0.7-0.1
			V145h0.7h1v6.7l0.7,0.1v0.6h-1.6l-0.1-0.6c-0.1,0.2-0.4,0.4-0.6,0.5C688.4,152.5,688,152.6,687.8,152.6z M688,151.8
			c0.2,0,0.5-0.1,0.7-0.2c0.2-0.1,0.4-0.4,0.5-0.5v-2.4c-0.1-0.2-0.2-0.4-0.5-0.5c-0.2-0.1-0.4-0.2-0.7-0.2c-0.2,0-0.5,0.1-0.7,0.2
			c-0.2,0.1-0.4,0.4-0.5,0.7c-0.1,0.2-0.1,0.6-0.1,1.1v0.1c0,0.5,0.1,1,0.4,1.2C687.2,151.6,687.5,151.8,688,151.8z"/>
		<path class="st11" d="M693.8,152.6c-0.5,0-0.8-0.1-1.2-0.4c-0.4-0.2-0.6-0.5-0.8-0.8s-0.2-0.8-0.2-1.3v-0.2c0-0.5,0.1-1,0.2-1.3
			c0.2-0.4,0.5-0.7,0.8-0.8c0.4-0.2,0.7-0.4,1.1-0.4c0.5,0,0.8,0.1,1.2,0.2c0.4,0.2,0.5,0.5,0.7,0.8c0.1,0.4,0.2,0.7,0.2,1.2v0.6
			h-3.3l0,0c0,0.4,0.1,0.6,0.1,0.8c0.1,0.2,0.2,0.5,0.5,0.6c0.2,0.1,0.5,0.2,0.7,0.2c0.4,0,0.6,0,0.8-0.1c0.2-0.1,0.5-0.2,0.6-0.4
			l0.4,0.6c-0.2,0.1-0.5,0.4-0.7,0.5C694.6,152.5,694.2,152.6,693.8,152.6z M692.5,149.5h2.3v-0.1c0-0.2,0-0.5-0.1-0.6
			c-0.1-0.2-0.2-0.4-0.4-0.5c-0.1-0.1-0.4-0.1-0.6-0.1c-0.2,0-0.4,0.1-0.6,0.2c-0.1,0.1-0.4,0.2-0.4,0.5
			C692.5,148.9,692.5,149.1,692.5,149.5L692.5,149.5z"/>
		<path class="st11" d="M698.5,152.6c-0.4,0-0.6,0-1-0.1c-0.2-0.1-0.6-0.1-1-0.4v-1.2h0.7l0.1,0.7c0.1,0.1,0.4,0.1,0.5,0.1
			s0.4,0,0.5,0c0.4,0,0.6-0.1,0.8-0.2c0.1-0.1,0.2-0.4,0.2-0.5c0-0.2-0.1-0.4-0.2-0.5c-0.1-0.1-0.5-0.2-0.8-0.4
			c-0.6-0.1-1.1-0.4-1.3-0.6c-0.2-0.2-0.5-0.6-0.5-1c0-0.2,0.1-0.5,0.2-0.7c0.1-0.2,0.4-0.4,0.7-0.5c0.2-0.1,0.6-0.2,1-0.2
			c0.4,0,0.7,0,1,0.1s0.5,0.2,0.7,0.4v1.2h-0.7l-0.1-0.7c-0.1-0.1-0.2-0.1-0.4-0.2c-0.1,0-0.4-0.1-0.5-0.1c-0.2,0-0.5,0.1-0.7,0.2
			c-0.1,0.1-0.2,0.4-0.2,0.5c0,0.1,0,0.2,0.1,0.4c0,0.1,0.1,0.1,0.2,0.2c0.1,0.1,0.4,0.1,0.6,0.2c0.7,0.1,1.2,0.4,1.5,0.6
			s0.4,0.6,0.4,1c0,0.5-0.1,0.8-0.5,1.1C699.8,152.4,699.3,152.6,698.5,152.6z"/>
		<path class="st11" d="M701.2,152.5v-0.6l0.7-0.1v-3.6l-0.7-0.1v-0.6h1.7v4.4l0.7,0.1v0.6H701.2z M701.9,146.1v-1h1v1H701.9z"/>
		<path class="st11" d="M706.7,154.6c-0.2,0-0.5,0-0.8-0.1c-0.2-0.1-0.5-0.1-0.7-0.2l0.2-0.7c0.1,0.1,0.4,0.1,0.6,0.2
			c0.2,0,0.5,0.1,0.7,0.1c0.4,0,0.7-0.1,1-0.4c0.2-0.2,0.2-0.6,0.2-1V152c-0.1,0.2-0.4,0.4-0.6,0.5c-0.2,0.1-0.5,0.1-0.8,0.1
			c-0.4,0-0.7-0.1-1.1-0.4c-0.2-0.2-0.5-0.5-0.7-0.8c-0.1-0.4-0.2-0.8-0.2-1.3V150c0-0.6,0.1-1,0.2-1.5c0.1-0.4,0.4-0.7,0.7-1
			c0.2-0.2,0.6-0.4,1.1-0.4c0.4,0,0.6,0.1,0.8,0.2c0.2,0.1,0.5,0.4,0.6,0.6l0.1-0.6h0.7v5.1c0,0.5-0.1,0.8-0.2,1.1
			c-0.1,0.4-0.4,0.6-0.7,0.7C707.5,154.4,707,154.6,706.7,154.6z M706.7,151.8c0.2,0,0.5-0.1,0.7-0.2c0.2-0.1,0.4-0.4,0.5-0.5v-2.3
			c-0.1-0.2-0.2-0.4-0.5-0.5c-0.2-0.1-0.4-0.2-0.7-0.2c-0.2,0-0.5,0.1-0.7,0.2c-0.2,0.1-0.4,0.4-0.5,0.7c-0.1,0.2-0.1,0.6-0.1,1.1
			v0.1c0,0.5,0.1,1,0.4,1.2C705.8,151.6,706.2,151.8,706.7,151.8z M708.6,148.1l-0.4-0.7h1.1v0.6L708.6,148.1z"/>
		<path class="st11" d="M709.8,152.5v-0.6l0.7-0.1v-3.6l-0.7-0.1v-0.6h1.6l0.1,0.7c0.1-0.2,0.4-0.5,0.6-0.6s0.6-0.2,0.8-0.2
			c0.6,0,1,0.1,1.3,0.5c0.2,0.4,0.5,0.8,0.5,1.5v2.5l0.7,0.1v0.6h-2.4v-0.6l0.7-0.1v-2.4c0-0.5-0.1-0.7-0.2-1
			c-0.1-0.2-0.5-0.2-0.8-0.2c-0.2,0-0.5,0.1-0.7,0.2c-0.2,0.1-0.4,0.4-0.5,0.5v3l0.7,0.1v0.6L709.8,152.5L709.8,152.5z"/>
		<path class="st11" d="M718.3,152.6c-0.4,0-0.6,0-1-0.1c-0.2-0.1-0.6-0.1-1-0.4v-1.2h0.7l0.1,0.7c0.1,0.1,0.4,0.1,0.5,0.1
			s0.4,0,0.5,0c0.4,0,0.6-0.1,0.8-0.2c0.1-0.1,0.2-0.4,0.2-0.5c0-0.2-0.1-0.4-0.2-0.5c-0.1-0.1-0.5-0.2-0.8-0.4
			c-0.6-0.1-1.1-0.4-1.3-0.6c-0.2-0.2-0.5-0.6-0.5-1c0-0.2,0.1-0.5,0.2-0.7c0.1-0.2,0.4-0.4,0.7-0.5c0.2-0.1,0.6-0.2,1-0.2
			c0.4,0,0.7,0,1,0.1s0.5,0.2,0.7,0.4v1.2h-0.7l-0.1-0.7c-0.1-0.1-0.2-0.1-0.4-0.2c-0.1,0-0.4-0.1-0.5-0.1c-0.2,0-0.5,0.1-0.7,0.2
			c-0.1,0.1-0.2,0.4-0.2,0.5c0,0.1,0,0.2,0.1,0.4c0,0.1,0.1,0.1,0.2,0.2c0.1,0.1,0.4,0.1,0.6,0.2c0.7,0.1,1.2,0.4,1.5,0.6
			s0.4,0.6,0.4,1c0,0.5-0.1,0.8-0.5,1.1C719.4,152.4,718.9,152.6,718.3,152.6z"/>
		<path class="st11" d="M725.2,152.6c-0.4,0-0.7-0.1-0.8-0.4c-0.2-0.2-0.4-0.6-0.4-1.1V148h-0.8v-0.7h0.8v-1.2h1v1.2h1.1v0.7h-1.1
			v3.1c0,0.2,0,0.5,0.1,0.5c0.1,0.1,0.2,0.1,0.4,0.1s0.2,0,0.4,0c0.1,0,0.2,0,0.4,0l0.1,0.6c-0.1,0-0.2,0.1-0.5,0.1
			C725.5,152.5,725.3,152.6,725.2,152.6z"/>
		<path class="st11" d="M726.7,152.5v-0.6l0.7-0.1v-5.9l-0.7-0.1v-0.6h1.7v2.9c0.1-0.2,0.4-0.5,0.6-0.6c0.2-0.1,0.5-0.2,0.8-0.2
			c0.6,0,1,0.1,1.3,0.5c0.2,0.4,0.5,0.8,0.5,1.5v2.4l0.7,0.1v0.6H730v-0.6l0.7-0.1V149c0-0.4-0.1-0.7-0.2-1
			c-0.1-0.2-0.5-0.2-0.8-0.2c-0.2,0-0.5,0.1-0.7,0.2c-0.2,0.1-0.4,0.2-0.5,0.5v3l0.7,0.1v0.6h-2.4L726.7,152.5L726.7,152.5z"/>
		<path class="st11" d="M734.7,152.6c-0.5,0-1-0.1-1.2-0.4c-0.2-0.2-0.4-0.6-0.4-1.1c0-0.4,0.1-0.6,0.2-0.8c0.1-0.2,0.5-0.5,0.7-0.6
			c0.4-0.1,0.7-0.2,1.2-0.2h1V149c0-0.4-0.1-0.6-0.2-0.7c-0.2-0.1-0.5-0.2-0.8-0.2c-0.2,0-0.4,0-0.6,0.1c-0.2,0.1-0.2,0.1-0.5,0.2
			l-0.1,0.7h-0.7v-1.2c0.2-0.2,0.5-0.4,0.8-0.4c0.4-0.1,0.6-0.1,1-0.1c0.6,0,1.1,0.1,1.5,0.5c0.4,0.2,0.5,0.7,0.5,1.2v2.4
			c0,0.1,0,0.1,0,0.2c0,0.1,0,0.1,0,0.2h0.5v0.6h-1.3c0-0.1,0-0.2-0.1-0.4c0-0.1,0-0.2,0-0.4c-0.1,0.2-0.4,0.4-0.7,0.6
			C735.2,152.5,735,152.6,734.7,152.6z M734.9,151.8c0.4,0,0.6-0.1,0.8-0.2c0.2-0.1,0.5-0.4,0.6-0.5v-1h-1c-0.5,0-0.7,0.1-1,0.4
			c-0.2,0.2-0.4,0.5-0.4,0.7c0,0.2,0.1,0.4,0.2,0.5C734.4,151.8,734.5,151.8,734.9,151.8z"/>
		<path class="st11" d="M740.2,152.6c-0.4,0-0.7-0.1-0.8-0.4c-0.2-0.2-0.4-0.6-0.4-1.1V148h-0.8v-0.7h0.8v-1.2h1v1.2h1.1v0.7h-1.1
			v3.1c0,0.2,0,0.5,0.1,0.5c0.1,0.1,0.2,0.1,0.4,0.1c0.1,0,0.2,0,0.4,0c0.1,0,0.2,0,0.4,0l0.1,0.6c-0.1,0-0.2,0.1-0.5,0.1
			C740.5,152.5,740.3,152.6,740.2,152.6z"/>
		<path class="st12" d="M749.7,147.9h-1l-0.1-1c-0.1-0.1-0.4-0.2-0.5-0.4c-0.2-0.1-0.5-0.1-0.7-0.1c-0.6,0-1.1,0.2-1.3,0.6
			c-0.4,0.5-0.5,1-0.5,1.7v0.2c0,0.7,0.1,1.2,0.5,1.7s0.7,0.6,1.3,0.6c0.2,0,0.5,0,0.7-0.1c0.2-0.1,0.4-0.2,0.5-0.4l0.1-1h1v1.3
			c-0.2,0.4-0.6,0.6-1.1,0.7c-0.5,0.2-1,0.2-1.5,0.2c-1,0-1.7-0.4-2.3-1c-0.6-0.6-0.8-1.5-0.8-2.4v-0.2c0-1,0.2-1.8,0.8-2.4
			c0.6-0.6,1.3-1,2.3-1c0.5,0,1,0.1,1.5,0.2c0.5,0.2,0.7,0.5,1.1,0.7V147.9z"/>
		<path class="st12" d="M750.2,146v-0.8h2.1v6.4l0.6,0.1v0.8h-2.5v-0.8l0.6-0.1v-5.4L750.2,146z"/>
		<path class="st12" d="M753.5,151.6l0.6-0.1v-3.1l-0.7-0.1v-0.8h2.1v4.1l0.6,0.1v0.8h-2.7L753.5,151.6L753.5,151.6z M755.6,146.2
			h-1.3v-1.1h1.3V146.2z"/>
		<path class="st12" d="M759.1,151.5c0.2,0,0.5-0.1,0.6-0.2c0.1-0.1,0.2-0.4,0.2-0.6h1.2l0,0c0,0.5-0.1,1-0.6,1.3
			c-0.4,0.4-0.8,0.5-1.5,0.5c-0.7,0-1.3-0.2-1.8-0.7c-0.4-0.5-0.6-1.1-0.6-1.8v-0.1c0-0.7,0.2-1.3,0.6-1.8c0.4-0.5,1-0.7,1.8-0.7
			c0.4,0,0.7,0.1,1.1,0.2c0.4,0.1,0.6,0.2,0.8,0.5v1.3h-1.1l-0.2-0.8c-0.1,0-0.1-0.1-0.2-0.1s-0.2,0-0.4,0c-0.4,0-0.6,0.1-0.8,0.5
			c-0.2,0.4-0.2,0.6-0.2,1.1v0.1c0,0.5,0.1,0.8,0.2,1.1C758.3,151.4,758.6,151.5,759.1,151.5z"/>
		<path class="st12" d="M761.6,146v-0.8h2.1v4.2h0.4l0.8-1.1l-0.5-0.1v-0.8h2.5v0.8l-0.6,0.1l-1,1.2l1.3,1.9l0.5,0.1v0.8h-2.3v-0.8
			h0.2l-0.7-1.2h-0.7v1.2l0.6,0.1v0.8h-2.7v-0.8l0.6-0.1v-5.4L761.6,146z"/>
	</g>
</g>
<g>
	<g>
		<path class="st1" d="M751,184.8c-0.3-1.3-0.9-2.5-1.5-3.6c-0.7-1.1-1.5-2.2-2.4-3c-0.9-0.9-2-1.7-3.1-2.4
			c-1.1-0.7-2.4-1.1-3.6-1.5c-1.3-0.3-2.6-0.5-4-0.5H736v6.1h0.4c1.3,0,2.4,0.3,3.6,0.7c1.1,0.5,2.1,1.1,2.9,2
			c0.8,0.8,1.5,1.8,2,2.9c0.5,1.1,0.7,2.3,0.7,3.5c0,1.2-0.2,2.4-0.7,3.6c-0.5,1.1-1.1,2.1-2,2.9c-0.8,0.8-1.8,1.5-2.9,2
			c-1.1,0.5-2.3,0.7-3.6,0.7h-3v-7h-6.1v13h9.2c1.4,0,2.8-0.2,4-0.5s2.5-0.9,3.6-1.5s2.2-1.5,3.1-2.4c0.9-0.9,1.7-2,2.4-3
			c0.7-1.1,1.1-2.4,1.5-3.6c0.3-1.3,0.5-2.6,0.5-4C751.6,187.4,751.4,186.1,751,184.8z"/>
	</g>
	<g>
		<path class="st1" d="M715.6,197.9c-1.3,0-2.4-0.3-3.6-0.7c-1.1-0.5-2.1-1.1-2.9-2c-0.8-0.8-1.5-1.8-2-2.9s-0.7-2.3-0.7-3.6
			c0-1.3,0.2-2.4,0.7-3.5c0.5-1.1,1.1-2.1,2-2.9c0.8-0.8,1.8-1.5,2.9-2c1.1-0.5,2.3-0.7,3.6-0.7h0.4v-6.1h-0.4c-1.4,0-2.8,0.2-4,0.5
			c-1.3,0.3-2.5,0.9-3.6,1.5c-1.1,0.7-2.2,1.5-3.1,2.4c-0.9,0.9-1.7,2-2.4,3c-0.7,1.1-1.1,2.4-1.5,3.6c-0.3,1.3-0.5,2.6-0.5,4
			c0,1.4,0.2,2.8,0.5,4s0.9,2.5,1.5,3.6c0.7,1.1,1.5,2.2,2.4,3c0.9,0.9,2,1.8,3.1,2.4c1.1,0.7,2.4,1.1,3.6,1.5
			c1.3,0.3,2.6,0.5,4,0.5h9.2v-6.1L715.6,197.9L715.6,197.9z"/>
	</g>
	<polygon class="st8" points="733.4,173.7 733.4,191 727.3,191 727.3,179.8 716,179.8 716,173.7 	"/>
	<g>
		<g>
			<path class="st1" d="M703.4,215.6c-0.3,0.3-0.6,0.5-1,0.6c-0.3,0.1-0.7,0.2-1.1,0.2c-0.3,0-0.6-0.1-0.9-0.1
				c-0.3-0.1-0.5-0.2-0.8-0.3c-0.3-0.1-0.5-0.3-0.7-0.5c-0.2-0.2-0.3-0.4-0.5-0.7c-0.1-0.3-0.3-0.5-0.3-0.8
				c-0.1-0.3-0.1-0.5-0.1-0.9s0.1-0.6,0.1-0.9c0.1-0.3,0.2-0.5,0.3-0.8c0.1-0.3,0.3-0.5,0.5-0.7c0.2-0.2,0.4-0.3,0.7-0.5
				c0.3-0.1,0.5-0.3,0.8-0.3c0.3-0.1,0.5-0.1,0.9-0.1c0.4,0,0.7,0.1,1.1,0.2c0.3,0.1,0.7,0.3,1,0.6l-0.7,1.1
				c-0.2-0.2-0.4-0.3-0.7-0.5c-0.3-0.1-0.5-0.1-0.8-0.1s-0.5,0.1-0.8,0.1c-0.3,0.1-0.5,0.3-0.6,0.4c-0.2,0.2-0.3,0.4-0.4,0.6
				c-0.1,0.3-0.1,0.5-0.1,0.8c0,0.3,0.1,0.5,0.1,0.8c0.1,0.3,0.3,0.5,0.4,0.6c0.2,0.2,0.4,0.3,0.6,0.4c0.3,0.1,0.5,0.1,0.8,0.1
				c0.3,0,0.5-0.1,0.8-0.1c0.3-0.1,0.5-0.3,0.7-0.5L703.4,215.6z"/>
			<path class="st1" d="M706.1,216.2h-1.3v-6.3h2.5c0.2,0,0.5,0,0.7,0.1c0.2,0.1,0.4,0.1,0.6,0.3c0.2,0.1,0.3,0.3,0.5,0.4
				c0.1,0.1,0.3,0.3,0.4,0.5c0.1,0.2,0.2,0.4,0.3,0.6c0.1,0.2,0.1,0.4,0.1,0.7c0,0.2,0,0.4-0.1,0.6c-0.1,0.2-0.1,0.4-0.2,0.6
				c-0.1,0.2-0.2,0.3-0.4,0.5c-0.1,0.1-0.3,0.3-0.5,0.4l0.7,1.6H708l-0.5-1.3h-1.4L706.1,216.2L706.1,216.2z M706.1,211.2v2.5h1.3
				c0.2,0,0.3,0,0.5-0.1s0.3-0.1,0.4-0.3c0.1-0.1,0.2-0.3,0.3-0.4c0.1-0.1,0.1-0.3,0.1-0.5c0-0.2,0-0.3-0.1-0.5
				c-0.1-0.1-0.1-0.3-0.3-0.4s-0.3-0.2-0.4-0.3c-0.1-0.1-0.3-0.1-0.5-0.1L706.1,211.2L706.1,211.2z"/>
			<path class="st1" d="M717.6,216.2h-1.3v-4.5c0-0.1,0-0.2-0.1-0.3c0-0.1-0.1-0.1-0.1-0.2c-0.1-0.1-0.1-0.1-0.2-0.1
				c-0.1,0-0.1-0.1-0.3-0.1c-0.1,0-0.2,0-0.3,0.1c-0.1,0-0.1,0.1-0.2,0.1c-0.1,0.1-0.1,0.1-0.1,0.2c0,0.1-0.1,0.1-0.1,0.3v4.5h-1.1
				v-4.5c0-0.1,0-0.2-0.1-0.3c0-0.1-0.1-0.1-0.1-0.2c-0.1-0.1-0.1-0.1-0.2-0.1c-0.1,0-0.1-0.1-0.3-0.1c-0.1,0-0.2,0-0.3,0.1
				c-0.1,0-0.1,0.1-0.2,0.1c-0.1,0.1-0.1,0.1-0.1,0.2c0,0.1-0.1,0.1-0.1,0.3v4.5h-1.3v-4.5c0-0.3,0.1-0.5,0.1-0.7
				c0.1-0.2,0.2-0.4,0.4-0.6c0.2-0.2,0.4-0.3,0.6-0.4c0.2-0.1,0.5-0.1,0.7-0.1c0.2,0,0.5,0.1,0.7,0.1c0.2,0.1,0.4,0.2,0.6,0.3
				c0.2-0.1,0.3-0.3,0.6-0.3c0.2-0.1,0.5-0.1,0.7-0.1c0.3,0,0.5,0.1,0.7,0.1c0.2,0.1,0.4,0.2,0.6,0.4s0.3,0.4,0.4,0.6
				c0.1,0.2,0.1,0.5,0.1,0.7L717.6,216.2L717.6,216.2z"/>
			<path class="st1" d="M724.4,215.6c-0.3,0.3-0.6,0.5-1,0.6c-0.3,0.1-0.7,0.2-1.1,0.2c-0.3,0-0.6-0.1-0.9-0.1
				c-0.3-0.1-0.5-0.2-0.8-0.3c-0.3-0.1-0.5-0.3-0.7-0.5s-0.3-0.4-0.5-0.7c-0.1-0.3-0.3-0.5-0.3-0.8c-0.1-0.3-0.1-0.5-0.1-0.9
				s0.1-0.6,0.1-0.9c0.1-0.3,0.2-0.5,0.3-0.8c0.1-0.3,0.3-0.5,0.5-0.7c0.2-0.2,0.4-0.3,0.7-0.5c0.3-0.1,0.5-0.3,0.8-0.3
				c0.3-0.1,0.5-0.1,0.9-0.1c0.4,0,0.7,0.1,1.1,0.2c0.3,0.1,0.7,0.3,1,0.6l-0.7,1.1c-0.2-0.2-0.4-0.3-0.7-0.5
				c-0.3-0.1-0.5-0.1-0.8-0.1c-0.3,0-0.5,0.1-0.8,0.1c-0.3,0.1-0.5,0.3-0.6,0.4c-0.2,0.2-0.3,0.4-0.4,0.6c-0.1,0.3-0.1,0.5-0.1,0.8
				c0,0.3,0.1,0.5,0.1,0.8c0.1,0.3,0.3,0.5,0.4,0.6c0.2,0.2,0.4,0.3,0.6,0.4c0.3,0.1,0.5,0.1,0.8,0.1c0.3,0,0.5-0.1,0.8-0.1
				c0.3-0.1,0.5-0.3,0.7-0.5L724.4,215.6z"/>
			<path class="st1" d="M734.1,213.1c0,0.3-0.1,0.5-0.1,0.8c-0.1,0.3-0.2,0.5-0.3,0.7s-0.3,0.5-0.5,0.6c-0.2,0.2-0.4,0.3-0.6,0.5
				c-0.2,0.1-0.5,0.3-0.7,0.3c-0.3,0.1-0.5,0.1-0.8,0.1h-1.9v-6.3h1.9c0.3,0,0.5,0.1,0.8,0.1c0.3,0.1,0.5,0.2,0.7,0.3
				c0.2,0.1,0.5,0.3,0.6,0.5c0.2,0.2,0.3,0.4,0.5,0.6s0.3,0.5,0.3,0.7C734,212.5,734.1,212.7,734.1,213.1z M732.8,213.1
				c0-0.3-0.1-0.5-0.1-0.7c-0.1-0.2-0.2-0.4-0.4-0.6c-0.2-0.2-0.4-0.3-0.6-0.4c-0.2-0.1-0.5-0.1-0.7-0.1h-0.6v3.8h0.6
				c0.3,0,0.5-0.1,0.7-0.1c0.2-0.1,0.4-0.2,0.6-0.4s0.3-0.4,0.4-0.6C732.7,213.6,732.8,213.3,732.8,213.1z"/>
			<path class="st1" d="M735.2,211.8c0-0.3,0.1-0.5,0.1-0.7s0.2-0.4,0.4-0.6c0.2-0.2,0.4-0.3,0.6-0.4c0.2-0.1,0.5-0.1,0.7-0.1h2.9
				v1.3h-2.9c-0.1,0-0.2,0-0.3,0.1c-0.1,0-0.1,0.1-0.2,0.1c-0.1,0.1-0.1,0.1-0.1,0.2c0,0.1-0.1,0.1-0.1,0.3c0,0.1,0,0.2,0.1,0.3
				c0,0.1,0.1,0.1,0.1,0.2c0.1,0.1,0.1,0.1,0.2,0.1c0.1,0,0.1,0.1,0.3,0.1h1.3c0.3,0,0.5,0.1,0.7,0.1c0.2,0.1,0.4,0.2,0.6,0.4
				c0.2,0.2,0.3,0.4,0.4,0.6c0.1,0.2,0.1,0.5,0.1,0.7c0,0.3-0.1,0.5-0.1,0.7s-0.2,0.4-0.4,0.6c-0.2,0.2-0.4,0.3-0.6,0.4
				c-0.2,0.1-0.5,0.1-0.7,0.1h-2.8V215h2.8c0.1,0,0.2,0,0.3-0.1c0.1,0,0.1-0.1,0.2-0.1c0.1-0.1,0.1-0.1,0.1-0.2
				c0-0.1,0.1-0.1,0.1-0.3c0-0.1,0-0.2-0.1-0.3c0-0.1-0.1-0.1-0.1-0.2c-0.1-0.1-0.1-0.1-0.2-0.1c-0.1,0-0.1-0.1-0.3-0.1h-1.3
				c-0.3,0-0.5-0.1-0.7-0.1c-0.2-0.1-0.4-0.2-0.6-0.4c-0.2-0.2-0.3-0.4-0.4-0.6C735.3,212.3,735.2,212.1,735.2,211.8z"/>
			<path class="st1" d="M746.8,215.6c-0.3,0.3-0.6,0.5-1,0.6c-0.3,0.1-0.7,0.2-1.1,0.2c-0.3,0-0.6-0.1-0.9-0.1
				c-0.3-0.1-0.5-0.2-0.8-0.3c-0.3-0.1-0.5-0.3-0.7-0.5s-0.3-0.4-0.5-0.7c-0.1-0.3-0.3-0.5-0.3-0.8c-0.1-0.3-0.1-0.5-0.1-0.9
				s0.1-0.6,0.1-0.9c0.1-0.3,0.2-0.5,0.3-0.8c0.1-0.3,0.3-0.5,0.5-0.7c0.2-0.2,0.4-0.3,0.7-0.5c0.3-0.1,0.5-0.3,0.8-0.3
				c0.3-0.1,0.5-0.1,0.9-0.1c0.4,0,0.7,0.1,1.1,0.2c0.3,0.1,0.7,0.3,1,0.6l-0.7,1.1c-0.2-0.2-0.4-0.3-0.7-0.5
				c-0.3-0.1-0.5-0.1-0.8-0.1c-0.3,0-0.5,0.1-0.8,0.1c-0.3,0.1-0.5,0.3-0.6,0.4c-0.2,0.2-0.3,0.4-0.4,0.6c-0.1,0.3-0.1,0.5-0.1,0.8
				c0,0.3,0.1,0.5,0.1,0.8c0.1,0.3,0.3,0.5,0.4,0.6c0.2,0.2,0.4,0.3,0.6,0.4c0.2,0.1,0.5,0.1,0.8,0.1c0.1,0,0.3,0,0.5-0.1
				c0.1-0.1,0.3-0.1,0.4-0.1v-1.8h1.2L746.8,215.6L746.8,215.6z"/>
			<path class="st1" d="M753.5,216.2h-1.3l-2.4-4.2v4.2h-1.3v-6.3h1.3l2.4,4.2v-4.2h1.3V216.2z"/>
		</g>
	</g>
	<g>
		<path class="st13" d="M704.6,222.6c-0.2,0-0.4-0.1-0.6-0.2c-0.1-0.1-0.3-0.3-0.4-0.5c-0.1-0.2-0.1-0.5-0.1-0.7v-0.1
			c0-0.3,0.1-0.5,0.1-0.8c0.1-0.2,0.2-0.4,0.4-0.5c0.1-0.1,0.3-0.2,0.6-0.2c0.1,0,0.3,0,0.5,0.1c0.1,0.1,0.3,0.1,0.3,0.3v-1.1
			l-0.4-0.1v-0.3h0.4h0.5v3.7l0.4,0.1v0.3h-0.9l-0.1-0.3c-0.1,0.1-0.2,0.2-0.3,0.3C704.9,222.5,704.7,222.6,704.6,222.6z
			 M704.7,222.1c0.1,0,0.3-0.1,0.4-0.1c0.1-0.1,0.2-0.2,0.3-0.3v-1.3c-0.1-0.1-0.1-0.2-0.3-0.3s-0.2-0.1-0.4-0.1
			c-0.1,0-0.3,0.1-0.4,0.1c-0.1,0.1-0.2,0.2-0.3,0.4c-0.1,0.1-0.1,0.3-0.1,0.6v0.1c0,0.3,0.1,0.5,0.2,0.7
			C704.3,222,704.5,222.1,704.7,222.1z"/>
		<path class="st13" d="M708,222.6c-0.3,0-0.5-0.1-0.7-0.2c-0.2-0.1-0.3-0.3-0.5-0.5c-0.1-0.2-0.1-0.5-0.1-0.7V221
			c0-0.3,0.1-0.5,0.1-0.7c0.1-0.2,0.3-0.4,0.5-0.5c0.2-0.1,0.4-0.2,0.6-0.2c0.3,0,0.5,0.1,0.7,0.1c0.2,0.1,0.3,0.3,0.4,0.5
			c0.1,0.2,0.1,0.4,0.1,0.7v0.3h-1.8l0,0c0,0.2,0.1,0.3,0.1,0.5c0.1,0.1,0.1,0.3,0.3,0.3c0.1,0.1,0.3,0.1,0.4,0.1
			c0.2,0,0.3,0,0.5-0.1c0.1-0.1,0.3-0.1,0.3-0.2l0.2,0.3c-0.1,0.1-0.3,0.2-0.4,0.3C708.4,222.5,708.2,222.6,708,222.6z M707.2,220.8
			h1.3v-0.1c0-0.1,0-0.3-0.1-0.3c-0.1-0.1-0.1-0.2-0.2-0.3c-0.1-0.1-0.2-0.1-0.3-0.1c-0.1,0-0.2,0.1-0.3,0.1
			c-0.1,0.1-0.2,0.1-0.2,0.3C707.2,220.5,707.2,220.6,707.2,220.8L707.2,220.8z"/>
		<path class="st13" d="M710.6,222.6c-0.2,0-0.3,0-0.5-0.1c-0.1-0.1-0.3-0.1-0.5-0.2v-0.7h0.4l0.1,0.4c0.1,0.1,0.2,0.1,0.3,0.1
			s0.2,0,0.3,0c0.2,0,0.3-0.1,0.5-0.1c0.1-0.1,0.1-0.2,0.1-0.3c0-0.1-0.1-0.2-0.1-0.3c-0.1-0.1-0.3-0.1-0.5-0.2
			c-0.3-0.1-0.6-0.2-0.7-0.3c-0.1-0.1-0.3-0.3-0.3-0.5c0-0.1,0.1-0.3,0.1-0.4s0.2-0.2,0.4-0.3c0.1-0.1,0.3-0.1,0.5-0.1
			c0.2,0,0.4,0,0.5,0.1c0.1,0.1,0.3,0.1,0.4,0.2v0.7h-0.4l-0.1-0.4c-0.1-0.1-0.1-0.1-0.2-0.1c-0.1,0-0.2-0.1-0.3-0.1
			c-0.1,0-0.3,0.1-0.4,0.1c-0.1,0.1-0.1,0.2-0.1,0.3c0,0.1,0,0.1,0.1,0.2c0,0.1,0.1,0.1,0.1,0.1s0.2,0.1,0.3,0.1
			c0.4,0.1,0.7,0.2,0.8,0.3c0.1,0.1,0.2,0.3,0.2,0.5c0,0.3-0.1,0.5-0.3,0.6C711.3,222.4,711,222.6,710.6,222.6z"/>
		<path class="st13" d="M712.1,222.5v-0.3l0.4-0.1v-2l-0.4-0.1v-0.3h0.9v2.4l0.4,0.1v0.3H712.1z M712.5,218.9v-0.5h0.5v0.5H712.5z"
			/>
		<path class="st13" d="M715.1,223.6c-0.1,0-0.3,0-0.5-0.1c-0.1-0.1-0.3-0.1-0.4-0.1l0.1-0.4c0.1,0.1,0.2,0.1,0.3,0.1
			c0.1,0,0.3,0.1,0.4,0.1c0.2,0,0.4-0.1,0.5-0.2s0.1-0.3,0.1-0.5v-0.3c-0.1,0.1-0.2,0.2-0.3,0.3c-0.1,0.1-0.3,0.1-0.5,0.1
			c-0.2,0-0.4-0.1-0.6-0.2c-0.1-0.1-0.3-0.3-0.4-0.5c-0.1-0.2-0.1-0.5-0.1-0.7v-0.1c0-0.3,0.1-0.5,0.1-0.8c0.1-0.2,0.2-0.4,0.4-0.5
			c0.1-0.1,0.3-0.2,0.6-0.2c0.2,0,0.3,0.1,0.5,0.1c0.1,0.1,0.3,0.2,0.3,0.3l0.1-0.3h0.4v2.8c0,0.3-0.1,0.5-0.1,0.6
			c-0.1,0.2-0.2,0.3-0.4,0.4C715.6,223.6,715.3,223.6,715.1,223.6z M715.1,222.1c0.1,0,0.3-0.1,0.4-0.1c0.1-0.1,0.2-0.2,0.3-0.3
			v-1.3c-0.1-0.1-0.1-0.2-0.3-0.3c-0.1-0.1-0.2-0.1-0.4-0.1c-0.1,0-0.3,0.1-0.4,0.1c-0.1,0.1-0.2,0.2-0.3,0.4
			c-0.1,0.1-0.1,0.3-0.1,0.6v0.1c0,0.3,0.1,0.5,0.2,0.7C714.6,222,714.8,222.1,715.1,222.1z M716.2,220.1l-0.2-0.4h0.6v0.3
			L716.2,220.1z"/>
		<path class="st13" d="M716.8,222.5v-0.3l0.4-0.1v-2l-0.4-0.1v-0.3h0.9l0.1,0.4c0.1-0.1,0.2-0.3,0.3-0.3c0.1-0.1,0.3-0.1,0.5-0.1
			c0.3,0,0.5,0.1,0.7,0.3c0.1,0.2,0.3,0.5,0.3,0.8v1.4l0.4,0.1v0.3h-1.3v-0.3l0.4-0.1v-1.3c0-0.3-0.1-0.4-0.1-0.5
			c-0.1-0.1-0.3-0.1-0.5-0.1c-0.1,0-0.3,0.1-0.4,0.1s-0.2,0.2-0.3,0.3v1.7l0.4,0.1v0.3L716.8,222.5L716.8,222.5z"/>
		<path class="st13" d="M721.6,222.6c-0.2,0-0.3,0-0.5-0.1c-0.1-0.1-0.3-0.1-0.5-0.2v-0.7h0.4l0.1,0.4c0.1,0.1,0.2,0.1,0.3,0.1
			c0.1,0,0.2,0,0.3,0c0.2,0,0.3-0.1,0.5-0.1c0.1-0.1,0.1-0.2,0.1-0.3c0-0.1-0.1-0.2-0.1-0.3c-0.1-0.1-0.3-0.1-0.5-0.2
			c-0.3-0.1-0.6-0.2-0.7-0.3c-0.1-0.1-0.3-0.3-0.3-0.5c0-0.1,0.1-0.3,0.1-0.4c0.1-0.1,0.2-0.2,0.4-0.3c0.1-0.1,0.3-0.1,0.5-0.1
			s0.4,0,0.5,0.1c0.1,0.1,0.3,0.1,0.4,0.2v0.7h-0.4l-0.1-0.4c-0.1-0.1-0.1-0.1-0.2-0.1c-0.1,0-0.2-0.1-0.3-0.1
			c-0.1,0-0.3,0.1-0.4,0.1c-0.1,0.1-0.1,0.2-0.1,0.3c0,0.1,0,0.1,0.1,0.2c0,0.1,0.1,0.1,0.1,0.1c0.1,0.1,0.2,0.1,0.3,0.1
			c0.4,0.1,0.7,0.2,0.8,0.3c0.1,0.1,0.2,0.3,0.2,0.5c0,0.3-0.1,0.5-0.3,0.6C722.2,222.4,721.9,222.6,721.6,222.6z"/>
		<path class="st13" d="M725.4,222.6c-0.2,0-0.4-0.1-0.5-0.2c-0.1-0.1-0.2-0.3-0.2-0.6V220h-0.5v-0.4h0.5v-0.7h0.5v0.7h0.6v0.4h-0.6
			v1.8c0,0.1,0,0.3,0.1,0.3c0.1,0.1,0.1,0.1,0.2,0.1c0.1,0,0.1,0,0.2,0c0.1,0,0.1,0,0.2,0l0.1,0.3c-0.1,0-0.1,0.1-0.3,0.1
			C725.6,222.5,725.5,222.6,725.4,222.6z"/>
		<path class="st13" d="M726.3,222.5v-0.3l0.4-0.1v-3.3l-0.4-0.1v-0.3h0.9v1.6c0.1-0.1,0.2-0.3,0.3-0.3c0.1-0.1,0.3-0.1,0.5-0.1
			c0.3,0,0.5,0.1,0.7,0.3c0.1,0.2,0.3,0.5,0.3,0.8v1.3l0.4,0.1v0.3h-1.3V222l0.4-0.1v-1.4c0-0.2-0.1-0.4-0.1-0.5
			c-0.1-0.1-0.3-0.1-0.5-0.1c-0.1,0-0.3,0.1-0.4,0.1c-0.1,0.1-0.2,0.1-0.3,0.3v1.7l0.4,0.1v0.3h-1.3V222.5L726.3,222.5z"/>
		<path class="st13" d="M730.7,222.6c-0.3,0-0.5-0.1-0.7-0.2c-0.1-0.1-0.2-0.3-0.2-0.6c0-0.2,0.1-0.3,0.1-0.5
			c0.1-0.1,0.3-0.3,0.4-0.3c0.2-0.1,0.4-0.1,0.7-0.1h0.5v-0.3c0-0.2-0.1-0.3-0.1-0.4c-0.1-0.1-0.3-0.1-0.5-0.1c-0.1,0-0.2,0-0.3,0.1
			c-0.1,0.1-0.1,0.1-0.3,0.1l-0.1,0.4h-0.4v-0.7c0.1-0.1,0.3-0.2,0.5-0.2c0.2-0.1,0.3-0.1,0.5-0.1c0.3,0,0.6,0.1,0.8,0.3
			c0.2,0.1,0.3,0.4,0.3,0.7v1.3c0,0.1,0,0.1,0,0.1c0,0.1,0,0.1,0,0.1h0.3v0.3h-0.7c0-0.1,0-0.1-0.1-0.2c0-0.1,0-0.1,0-0.2
			c-0.1,0.1-0.2,0.2-0.4,0.3C731,222.5,730.8,222.6,730.7,222.6z M730.8,222.1c0.2,0,0.3-0.1,0.5-0.1s0.3-0.2,0.3-0.3v-0.5H731
			c-0.3,0-0.4,0.1-0.5,0.2c-0.1,0.1-0.2,0.3-0.2,0.4c0,0.1,0.1,0.2,0.1,0.3C730.5,222.1,730.6,222.1,730.8,222.1z"/>
		<path class="st13" d="M733.7,222.6c-0.2,0-0.4-0.1-0.5-0.2c-0.1-0.1-0.2-0.3-0.2-0.6V220h-0.5v-0.4h0.5v-0.7h0.5v0.7h0.6v0.4h-0.6
			v1.8c0,0.1,0,0.3,0.1,0.3c0.1,0.1,0.1,0.1,0.2,0.1c0.1,0,0.1,0,0.2,0c0.1,0,0.1,0,0.2,0l0.1,0.3c-0.1,0-0.1,0.1-0.3,0.1
			C733.9,222.5,733.8,222.6,733.7,222.6z"/>
		<path class="st14" d="M739.1,219.9h-0.5l-0.1-0.5c-0.1-0.1-0.2-0.1-0.3-0.2c-0.1-0.1-0.3-0.1-0.4-0.1c-0.3,0-0.6,0.1-0.7,0.3
			c-0.2,0.3-0.3,0.5-0.3,0.9v0.1c0,0.4,0.1,0.7,0.3,0.9c0.2,0.3,0.4,0.3,0.7,0.3c0.1,0,0.3,0,0.4-0.1c0.1-0.1,0.2-0.1,0.3-0.2
			l0.1-0.5h0.5v0.7c-0.1,0.2-0.3,0.3-0.6,0.4c-0.3,0.1-0.5,0.1-0.8,0.1c-0.5,0-0.9-0.2-1.3-0.5s-0.5-0.8-0.5-1.3v-0.1
			c0-0.5,0.1-1,0.5-1.3s0.7-0.5,1.3-0.5c0.3,0,0.5,0.1,0.8,0.1c0.3,0.1,0.4,0.3,0.6,0.4V219.9z"/>
		<path class="st14" d="M739.3,218.9v-0.5h1.1v3.6l0.3,0.1v0.5h-1.4V222l0.3-0.1v-3L739.3,218.9z"/>
		<path class="st14" d="M741.1,222l0.3-0.1v-1.8l-0.4-0.1v-0.5h1.1v2.3l0.3,0.1v0.5h-1.5L741.1,222L741.1,222z M742.3,219h-0.7v-0.6
			h0.7V219z"/>
		<path class="st14" d="M744.2,222c0.1,0,0.3-0.1,0.3-0.1c0.1-0.1,0.1-0.2,0.1-0.3h0.7l0,0c0,0.3-0.1,0.5-0.3,0.7
			c-0.2,0.2-0.5,0.3-0.8,0.3c-0.4,0-0.7-0.1-1-0.4c-0.2-0.3-0.3-0.6-0.3-1V221c0-0.4,0.1-0.7,0.3-1c0.2-0.3,0.5-0.4,1-0.4
			c0.2,0,0.4,0.1,0.6,0.1c0.2,0.1,0.3,0.1,0.5,0.3v0.7h-0.6l-0.1-0.5c-0.1,0-0.1-0.1-0.1-0.1c-0.1,0-0.1,0-0.2,0
			c-0.2,0-0.3,0.1-0.5,0.3c-0.1,0.2-0.1,0.3-0.1,0.6v0.1c0,0.3,0.1,0.5,0.1,0.6C743.8,221.9,744,222,744.2,222z"/>
		<path class="st14" d="M745.7,218.9v-0.5h1.1v2.4h0.2l0.5-0.6l-0.3-0.1v-0.5h1.4v0.5l-0.3,0.1l-0.5,0.7l0.7,1.1l0.3,0.1v0.5h-1.3
			V222h0.1l-0.4-0.7h-0.4v0.7l0.3,0.1v0.5h-1.5V222l0.3-0.1v-3L745.7,218.9z"/>
	</g>
</g>
<g>
	<g>
		<path class="st2" d="M937.4,138.4c-0.5-1.8-1.2-3.6-2.2-5.2c-0.9-1.6-2.1-3.1-3.4-4.4c-1.3-1.3-2.8-2.4-4.4-3.4
			c-1.6-0.9-3.3-1.7-5.2-2.2c-1.8-0.5-3.8-0.8-5.7-0.8H916v8.7h0.6c1.8,0,3.5,0.3,5.1,1s3,1.6,4.1,2.8c1.2,1.2,2.1,2.5,2.8,4.1
			c0.7,1.6,1,3.2,1,5s-0.3,3.5-1,5.1c-0.7,1.6-1.6,3-2.8,4.1c-1.2,1.2-2.6,2.1-4.1,2.8c-1.6,0.7-3.3,1-5.1,1h-4.3v-9.8h-8.7v18.5h13
			c2,0,3.9-0.3,5.7-0.8s3.6-1.2,5.2-2.2c1.6-0.9,3.1-2.1,4.4-3.4c1.3-1.3,2.4-2.8,3.4-4.4c0.9-1.6,1.7-3.3,2.2-5.2
			c0.5-1.8,0.8-3.8,0.8-5.7C938.2,142.1,937.9,140.2,937.4,138.4z"/>
	</g>
	<g>
		<path class="st2" d="M886.8,157.1c-1.8,0-3.5-0.3-5.1-1s-3-1.6-4.1-2.8c-1.2-1.2-2.1-2.6-2.8-4.1c-0.7-1.6-1-3.3-1-5.1
			s0.3-3.5,1-5c0.7-1.6,1.6-2.9,2.8-4.1s2.6-2.1,4.1-2.8c1.6-0.7,3.3-1,5.1-1h0.6v-8.7h-0.6c-2,0-3.9,0.3-5.7,0.8s-3.6,1.2-5.2,2.2
			c-1.6,0.9-3.1,2.1-4.4,3.4c-1.3,1.3-2.4,2.8-3.4,4.4c-0.9,1.6-1.7,3.3-2.2,5.2c-0.5,1.8-0.8,3.8-0.8,5.7c0,2,0.3,3.9,0.8,5.7
			s1.2,3.6,2.2,5.2c0.9,1.6,2.1,3.1,3.4,4.4c1.3,1.3,2.8,2.5,4.4,3.4c1.6,0.9,3.3,1.7,5.2,2.2c1.8,0.5,3.8,0.8,5.7,0.8h13v-8.7
			L886.8,157.1L886.8,157.1z"/>
	</g>
	<polygon class="st8" points="912.3,122.5 912.2,147.2 903.5,147.2 903.6,131.1 887.4,131.1 887.4,122.5 	"/>
</g>
<rect x="516.2" y="5.8" class="st15" width="252" height="23"/>
<text transform="matrix(1 0 0 1 516.1661 21.148)" class="st16 st17">Dynamic scaling compatibilty</text>
<text transform="matrix(1 0 0 1 159.4 21.1482)" class="st16 st17">Grayscale variant</text>
<text transform="matrix(1 0 0 1 819.1796 21.1481)" class="st16 st17">Logo without text</text>
</svg>
