<?xml version="1.0" encoding="utf-8"?>
<!-- Generator: Adobe Illustrator 26.0.1, SVG Export Plug-In . SVG Version: 6.00 Build 0)  -->
<svg version="1.1" id="Layer_1" xmlns="http://www.w3.org/2000/svg" xmlns:xlink="http://www.w3.org/1999/xlink" x="0px" y="0px"
	 viewBox="0 0 399.5 365" style="enable-background:new 0 0 399.5 365;" xml:space="preserve">
<style type="text/css">
	.st0{fill:#313159;}
	.st1{fill:#FC0053;}
	.st2{fill:#313159;stroke:#313159;stroke-width:0.2406;stroke-miterlimit:10;}
	.st3{fill:#FC0053;stroke:#FC0053;stroke-width:0.2406;stroke-miterlimit:10;}
</style>
<g>
	<g>
		<path class="st0" d="M379.5,84.1c-2.5-9.2-6.2-17.7-10.9-25.7c-4.7-7.9-10.3-15.2-16.8-21.7c-6.5-6.5-13.8-12.2-21.8-16.9
			c-8-4.7-16.6-8.3-25.7-10.9c-9.1-2.6-18.7-3.8-28.6-3.8h-2.9v43h2.9c8.9,0,17.3,1.7,25.1,5.1c7.8,3.4,14.7,8,20.6,13.9
			c5.8,5.8,10.4,12.7,13.8,20.5c3.3,7.8,5,16.2,5,25.1s-1.7,17.3-5,25.1c-3.3,7.8-7.9,14.7-13.8,20.5c-5.9,5.8-12.7,10.4-20.6,13.8
			c-7.8,3.4-16.2,5-25.1,5h-21.5V128H211v92.2h64.8c9.9,0,19.4-1.3,28.6-3.8c9.2-2.5,17.7-6.2,25.7-10.9c8-4.7,15.3-10.3,21.8-16.9
			c6.5-6.5,12.1-13.8,16.8-21.7c4.7-7.9,8.3-16.5,10.9-25.6c2.6-9.2,3.8-18.7,3.8-28.6C383.3,102.8,382,93.3,379.5,84.1z"/>
	</g>
	<g>
		<path class="st0" d="M127.9,177.2c-8.9,0-17.3-1.7-25.1-5c-7.8-3.3-14.7-7.9-20.6-13.8c-5.8-5.9-10.5-12.7-13.8-20.5
			c-3.3-7.9-5-16.2-5-25.1c0-8.9,1.7-17.3,5-25.1c3.3-7.8,7.9-14.6,13.8-20.5c5.9-5.9,12.7-10.5,20.6-13.9
			c7.8-3.4,16.2-5.1,25.1-5.1h2.9v-43h-2.9c-9.9,0-19.4,1.3-28.6,3.8c-9.2,2.5-17.7,6.2-25.7,10.9c-8,4.7-15.3,10.3-21.8,16.9
			C45.3,43.3,39.7,50.5,35,58.5c-4.7,8-8.3,16.5-10.9,25.7c-2.6,9.2-3.8,18.7-3.8,28.6c0,9.9,1.3,19.4,3.8,28.6
			c2.5,9.1,6.2,17.7,10.9,25.6c4.7,7.9,10.3,15.2,16.8,21.7c6.5,6.6,13.7,12.2,21.8,16.9c8,4.7,16.6,8.3,25.7,10.9
			c9.1,2.6,18.7,3.8,28.6,3.8h64.8v-43H127.9z"/>
	</g>
	<polygon class="st1" points="254.4,5.2 254.3,128 211,128 211.1,48.2 130.8,48.2 130.8,5.2 	"/>
	<g>
		<g>
			<path class="st0" d="M41,302.3c-2.1,1.8-4.4,3.2-7,4.1c-2.6,1-5.2,1.4-8,1.4c-2.1,0-4.2-0.3-6.1-0.8c-2-0.6-3.8-1.3-5.5-2.3
				c-1.7-1-3.3-2.2-4.7-3.6c-1.4-1.4-2.6-3-3.6-4.7c-1-1.7-1.8-3.6-2.3-5.5c-0.6-2-0.8-4-0.8-6.1s0.3-4.2,0.8-6.1
				c0.6-2,1.3-3.8,2.3-5.5c1-1.7,2.2-3.3,3.6-4.7c1.4-1.4,3-2.6,4.7-3.6s3.6-1.8,5.5-2.3c2-0.6,4-0.8,6.1-0.8c2.8,0,5.4,0.5,8,1.4
				c2.6,0.9,4.9,2.3,7,4.1l-4.7,7.8c-1.3-1.4-2.9-2.5-4.6-3.3c-1.8-0.8-3.7-1.1-5.6-1.1c-2,0-3.8,0.4-5.5,1.1
				c-1.7,0.7-3.2,1.8-4.5,3c-1.3,1.3-2.3,2.8-3.1,4.5c-0.7,1.7-1.1,3.6-1.1,5.5c0,2,0.4,3.8,1.1,5.5c0.7,1.7,1.8,3.2,3.1,4.5
				c1.3,1.3,2.8,2.3,4.5,3.1c1.7,0.7,3.6,1.1,5.5,1.1c2,0,3.8-0.4,5.6-1.1c1.8-0.8,3.3-1.8,4.6-3.3L41,302.3z"/>
			<path class="st0" d="M60,306.9H51v-44.7h17.9c1.6,0,3.2,0.2,4.7,0.6c1.5,0.4,2.9,1,4.3,1.8c1.3,0.8,2.5,1.7,3.6,2.8
				c1.1,1.1,2,2.3,2.8,3.6c0.8,1.3,1.4,2.8,1.8,4.3c0.4,1.5,0.6,3.1,0.6,4.7c0,1.5-0.2,3-0.6,4.5c-0.4,1.5-0.9,2.8-1.7,4.1
				c-0.7,1.3-1.6,2.5-2.6,3.6c-1,1.1-2.2,2.1-3.5,2.9l5,11.7h-9.5l-3.9-9L60,298V306.9z M60,271.1V289h8.9c1.2,0,2.4-0.2,3.5-0.7
				c1.1-0.5,2-1.1,2.8-1.9c0.8-0.8,1.4-1.8,1.9-2.9c0.5-1.1,0.7-2.2,0.7-3.5c0-1.2-0.2-2.4-0.7-3.5c-0.5-1.1-1.1-2-1.9-2.9
				c-0.8-0.8-1.8-1.4-2.8-1.9c-1.1-0.5-2.2-0.7-3.5-0.7H60z"/>
			<path class="st0" d="M141.9,306.9h-8.9V275c0-0.6-0.1-1.2-0.4-1.7c-0.2-0.5-0.6-1-1-1.4c-0.4-0.4-0.9-0.7-1.4-1
				c-0.5-0.2-1.1-0.3-1.7-0.3c-0.6,0-1.2,0.1-1.7,0.3c-0.5,0.2-1,0.5-1.4,1c-0.4,0.4-0.7,0.9-1,1.4c-0.2,0.5-0.3,1.1-0.3,1.7v31.9
				H115V275c0-0.6-0.1-1.2-0.3-1.7c-0.2-0.5-0.5-1-1-1.4c-0.4-0.4-0.9-0.7-1.4-1c-0.5-0.2-1.1-0.3-1.7-0.3c-0.6,0-1.2,0.1-1.7,0.3
				c-0.5,0.2-1,0.5-1.4,1c-0.4,0.4-0.7,0.9-1,1.4c-0.2,0.5-0.3,1.1-0.3,1.7v31.9h-8.9V275c0-1.8,0.3-3.6,1-5.2
				c0.7-1.6,1.7-3.1,2.9-4.3c1.2-1.2,2.6-2.2,4.3-2.9c1.6-0.7,3.4-1,5.2-1c1.7,0,3.3,0.3,4.8,0.9c1.5,0.6,2.9,1.4,4.1,2.6
				c1.2-1.1,2.6-2,4.1-2.6c1.5-0.6,3.1-0.9,4.8-0.9c1.8,0,3.6,0.3,5.2,1c1.6,0.7,3.1,1.7,4.3,2.9c1.2,1.2,2.2,2.6,2.9,4.3
				c0.7,1.6,1,3.4,1,5.2V306.9z"/>
			<path class="st0" d="M190.4,302.3c-2.1,1.8-4.4,3.2-7,4.1c-2.6,1-5.2,1.4-8,1.4c-2.1,0-4.2-0.3-6.1-0.8c-2-0.6-3.8-1.3-5.5-2.3
				c-1.7-1-3.3-2.2-4.7-3.6c-1.4-1.4-2.6-3-3.6-4.7c-1-1.7-1.8-3.6-2.3-5.5c-0.6-2-0.8-4-0.8-6.1s0.3-4.2,0.8-6.1
				c0.6-2,1.3-3.8,2.3-5.5c1-1.7,2.2-3.3,3.6-4.7c1.4-1.4,3-2.6,4.7-3.6c1.7-1,3.6-1.8,5.5-2.3c2-0.6,4-0.8,6.1-0.8
				c2.8,0,5.4,0.5,8,1.4c2.6,0.9,4.9,2.3,7,4.1l-4.7,7.8c-1.3-1.4-2.9-2.5-4.6-3.3c-1.8-0.8-3.7-1.1-5.6-1.1c-2,0-3.8,0.4-5.5,1.1
				c-1.7,0.7-3.2,1.8-4.5,3c-1.3,1.3-2.3,2.8-3.1,4.5c-0.7,1.7-1.1,3.6-1.1,5.5c0,2,0.4,3.8,1.1,5.5c0.7,1.7,1.8,3.2,3.1,4.5
				c1.3,1.3,2.8,2.3,4.5,3.1c1.7,0.7,3.6,1.1,5.5,1.1c2,0,3.8-0.4,5.6-1.1c1.8-0.8,3.3-1.8,4.6-3.3L190.4,302.3z"/>
			<path class="st0" d="M258.9,284.6c0,2.1-0.3,4-0.8,5.9c-0.5,1.9-1.3,3.7-2.3,5.3c-1,1.7-2.1,3.2-3.5,4.5
				c-1.4,1.4-2.9,2.5-4.5,3.5c-1.7,1-3.4,1.7-5.3,2.3c-1.9,0.5-3.9,0.8-5.9,0.8h-13.5v-44.7h13.5c2.1,0,4,0.3,5.9,0.8
				c1.9,0.5,3.7,1.3,5.3,2.3c1.7,1,3.2,2.1,4.5,3.5c1.4,1.4,2.5,2.9,3.5,4.5c1,1.7,1.7,3.4,2.3,5.3
				C258.7,280.5,258.9,282.5,258.9,284.6z M250,284.6c0-1.8-0.3-3.6-1-5.2c-0.7-1.6-1.7-3-2.9-4.3c-1.2-1.2-2.6-2.2-4.3-2.9
				c-1.6-0.7-3.4-1.1-5.2-1.1h-4.5V298h4.5c1.8,0,3.6-0.3,5.2-1c1.6-0.7,3.1-1.7,4.3-2.9c1.2-1.2,2.2-2.6,2.9-4.3
				C249.6,288.1,250,286.4,250,284.6z"/>
			<path class="st0" d="M267.1,275.6c0-1.8,0.4-3.6,1.1-5.2c0.7-1.6,1.7-3,2.9-4.3c1.2-1.2,2.6-2.2,4.3-2.9c1.6-0.7,3.4-1.1,5.2-1.1
				H301v8.9h-20.5c-0.6,0-1.2,0.1-1.7,0.3c-0.5,0.2-1,0.5-1.4,1c-0.4,0.4-0.7,0.9-1,1.4c-0.2,0.5-0.3,1.1-0.3,1.7
				c0,0.6,0.1,1.2,0.3,1.8c0.2,0.6,0.5,1,1,1.4c0.4,0.4,0.9,0.7,1.4,1c0.5,0.2,1.1,0.3,1.7,0.3h8.9c1.8,0,3.6,0.3,5.2,1
				c1.6,0.7,3.1,1.7,4.3,2.9c1.2,1.2,2.2,2.6,2.9,4.3c0.7,1.6,1,3.4,1,5.2c0,1.9-0.3,3.6-1,5.2c-0.7,1.6-1.7,3-2.9,4.3
				c-1.2,1.2-2.6,2.2-4.3,2.9c-1.6,0.7-3.4,1.1-5.2,1.1h-19.9V298h19.9c0.6,0,1.2-0.1,1.7-0.3c0.5-0.2,1-0.5,1.4-1
				c0.4-0.4,0.7-0.9,1-1.4c0.2-0.5,0.3-1.1,0.3-1.7c0-0.6-0.1-1.2-0.3-1.7c-0.2-0.5-0.5-1-1-1.4c-0.4-0.4-0.9-0.7-1.4-1
				c-0.5-0.2-1.1-0.3-1.7-0.3h-8.9c-1.8,0-3.6-0.4-5.2-1.1c-1.6-0.7-3-1.7-4.3-2.9c-1.2-1.2-2.2-2.6-2.9-4.3
				C267.5,279.2,267.1,277.5,267.1,275.6z"/>
			<path class="st0" d="M349.1,302.4c-2.1,1.8-4.4,3.1-7,4.1c-2.6,0.9-5.2,1.4-8,1.4c-2.1,0-4.2-0.3-6.1-0.8c-2-0.6-3.8-1.3-5.5-2.3
				c-1.7-1-3.3-2.2-4.7-3.6c-1.4-1.4-2.6-3-3.6-4.7c-1-1.7-1.8-3.6-2.3-5.5c-0.6-2-0.8-4-0.8-6.1s0.3-4.2,0.8-6.1
				c0.6-2,1.3-3.8,2.3-5.5c1-1.7,2.2-3.3,3.6-4.7c1.4-1.4,3-2.6,4.7-3.6c1.7-1,3.5-1.8,5.5-2.3c2-0.6,4-0.8,6.1-0.8
				c2.8,0,5.4,0.5,8,1.4c2.6,0.9,4.9,2.3,7,4.1l-4.7,7.8c-1.4-1.4-2.9-2.4-4.7-3.2c-1.8-0.8-3.6-1.2-5.6-1.2c-2,0-3.8,0.4-5.5,1.1
				c-1.7,0.7-3.2,1.8-4.5,3c-1.3,1.3-2.3,2.8-3.1,4.5c-0.7,1.7-1.1,3.5-1.1,5.5c0,2,0.4,3.8,1.1,5.5c0.7,1.7,1.8,3.2,3.1,4.5
				c1.3,1.3,2.8,2.3,4.5,3.1c1.7,0.7,3.5,1.1,5.5,1.1c1.1,0,2.2-0.1,3.3-0.4c1.1-0.3,2.1-0.6,3-1.1v-12.7h8.6V302.4z"/>
			<path class="st0" d="M396.6,306.9h-9.6l-17.2-29.4v29.4h-8.9v-44.7h9.6l17.2,29.5v-29.5h8.9V306.9z"/>
		</g>
	</g>
	<g>
		<path class="st2" d="M49.5,352c-1.6,0-3-0.4-4.2-1.2c-1.2-0.8-2.1-1.9-2.7-3.4c-0.6-1.5-0.9-3.1-0.9-5.1v-0.4
			c0-2.2,0.3-4.1,0.9-5.7c0.6-1.6,1.5-2.9,2.7-3.8c1.2-0.9,2.6-1.4,4.2-1.4c1.2,0,2.2,0.2,3.2,0.7c0.9,0.4,1.7,1.1,2.3,1.9v-8.2
			l-3-0.5v-2.4h3h3.7v26.2l3,0.5v2.3h-6.2l-0.3-2.4c-0.7,0.9-1.5,1.6-2.4,2.1C51.9,351.8,50.8,352,49.5,352z M50.4,349
			c1.1,0,2-0.2,2.8-0.7c0.7-0.5,1.4-1.2,1.8-2.1v-9.3c-0.5-0.8-1.1-1.5-1.8-2c-0.8-0.5-1.7-0.7-2.7-0.7c-1.2,0-2.1,0.3-2.9,1
			c-0.8,0.7-1.3,1.6-1.7,2.8c-0.4,1.2-0.6,2.5-0.6,4.1v0.4c0,2,0.4,3.7,1.2,4.9C47.4,348.4,48.7,349,50.4,349z"/>
		<path class="st2" d="M73.4,352c-1.9,0-3.5-0.4-4.9-1.3c-1.4-0.9-2.4-2-3.2-3.5c-0.8-1.5-1.1-3.3-1.1-5.3v-0.8
			c0-1.9,0.4-3.6,1.2-5.1c0.8-1.5,1.8-2.7,3.1-3.6c1.3-0.9,2.7-1.3,4.3-1.3c1.8,0,3.3,0.4,4.6,1.1c1.2,0.7,2.1,1.8,2.8,3.1
			c0.6,1.3,0.9,2.9,0.9,4.8v2.3H68l-0.1,0.1c0,1.3,0.3,2.4,0.7,3.4c0.4,1,1,1.8,1.9,2.4c0.8,0.6,1.8,0.9,2.9,0.9
			c1.2,0,2.3-0.2,3.3-0.5c0.9-0.4,1.7-0.8,2.4-1.5l1.4,2.4c-0.7,0.7-1.7,1.3-2.9,1.8C76.4,351.8,75,352,73.4,352z M68.1,339.5h9.3
			V339c0-1-0.2-1.8-0.5-2.6c-0.3-0.8-0.9-1.4-1.5-1.8c-0.7-0.4-1.5-0.7-2.5-0.7c-0.8,0-1.6,0.2-2.2,0.7c-0.7,0.5-1.2,1.1-1.7,1.9
			C68.5,337.4,68.2,338.4,68.1,339.5L68.1,339.5z"/>
		<path class="st2" d="M92.1,352c-1.4,0-2.6-0.1-3.8-0.4c-1.2-0.3-2.4-0.7-3.8-1.3l0-4.8h2.8l0.7,2.9c0.7,0.3,1.4,0.5,2,0.6
			c0.7,0.1,1.4,0.2,2.1,0.2c1.5,0,2.6-0.3,3.2-0.9c0.6-0.6,1-1.3,1-2.1c0-0.8-0.3-1.5-1-2c-0.7-0.6-1.8-1-3.5-1.4
			c-2.4-0.6-4.2-1.3-5.4-2.2c-1.1-0.9-1.7-2.2-1.7-3.8c0-1.1,0.3-2.1,0.9-2.9c0.6-0.9,1.5-1.5,2.6-2.1c1.1-0.5,2.4-0.8,3.9-0.8
			c1.5,0,2.8,0.2,3.9,0.5c1.1,0.3,2,0.8,2.8,1.4l0.2,4.6h-2.8l-0.6-2.7c-0.4-0.3-0.9-0.6-1.5-0.7c-0.6-0.2-1.3-0.3-2-0.3
			c-1.1,0-2.1,0.3-2.8,0.8c-0.7,0.5-1.1,1.2-1.1,2c0,0.5,0.1,0.9,0.3,1.2c0.2,0.3,0.6,0.7,1.2,0.9c0.6,0.3,1.4,0.6,2.6,0.8
			c2.8,0.7,4.8,1.5,5.9,2.5c1.1,1,1.7,2.3,1.7,3.8c0,1.7-0.6,3.1-1.9,4.3C96.8,351.4,94.9,352,92.1,352z"/>
		<path class="st2" d="M102.9,351.6v-2.3l3-0.5v-14.4l-3-0.5v-2.4h6.7v17.3l3,0.5v2.3H102.9z M105.7,326.5v-3.9h3.9v3.9H105.7z"/>
		<path class="st2" d="M124,359.7c-1,0-2-0.1-3.1-0.4c-1.1-0.3-2.1-0.6-3-1.1l0.9-2.8c0.7,0.4,1.5,0.7,2.4,0.9
			c0.9,0.2,1.8,0.4,2.7,0.4c1.6,0,2.8-0.5,3.6-1.4c0.8-0.9,1.1-2.2,1.1-3.9v-1.9c-0.7,0.8-1.4,1.5-2.4,1.9c-0.9,0.4-2,0.7-3.2,0.7
			c-1.6,0-3.1-0.4-4.2-1.2c-1.2-0.8-2.1-1.9-2.7-3.4c-0.6-1.5-1-3.2-1-5.1v-0.4c0-2.2,0.3-4.1,1-5.7c0.6-1.6,1.6-2.9,2.7-3.8
			c1.2-0.9,2.6-1.4,4.3-1.4c1.3,0,2.4,0.2,3.3,0.7c1,0.5,1.8,1.2,2.4,2.2l0.3-2.5h3.1v19.9c0,1.7-0.3,3.2-1,4.5
			c-0.7,1.3-1.6,2.2-2.8,2.9C127.3,359.4,125.8,359.7,124,359.7z M124.1,349c1.1,0,2-0.3,2.8-0.8c0.7-0.5,1.4-1.2,1.8-2.1v-9.3
			c-0.5-0.9-1.1-1.5-1.8-2c-0.8-0.5-1.7-0.8-2.7-0.8c-1.2,0-2.1,0.3-2.9,1c-0.8,0.7-1.4,1.6-1.7,2.8c-0.4,1.2-0.6,2.5-0.6,4.1v0.4
			c0,2,0.4,3.7,1.3,4.9C121.1,348.4,122.4,349,124.1,349z M131.8,334.4l-1.4-3h4.5v2.3L131.8,334.4z"/>
		<path class="st2" d="M136.7,351.6v-2.3l3-0.5v-14.4l-3-0.5v-2.4h6.3l0.3,3c0.7-1.1,1.5-1.9,2.5-2.5c1-0.6,2.2-0.9,3.5-0.9
			c2.2,0,3.9,0.6,5,1.9c1.2,1.3,1.8,3.2,1.8,5.9v9.9l3,0.5v2.3h-9.7v-2.3l3-0.5V339c0-1.8-0.4-3-1.1-3.8c-0.7-0.7-1.8-1.1-3.2-1.1
			c-1.1,0-2,0.3-2.8,0.8c-0.8,0.5-1.5,1.2-1.9,2.1v11.8l3,0.5v2.3H136.7z"/>
		<path class="st2" d="M169.9,352c-1.4,0-2.6-0.1-3.8-0.4c-1.2-0.3-2.4-0.7-3.8-1.3l0-4.8h2.8l0.7,2.9c0.7,0.3,1.4,0.5,2,0.6
			c0.7,0.1,1.4,0.2,2.1,0.2c1.5,0,2.6-0.3,3.2-0.9c0.6-0.6,1-1.3,1-2.1c0-0.8-0.3-1.5-1-2c-0.7-0.6-1.8-1-3.5-1.4
			c-2.4-0.6-4.2-1.3-5.4-2.2c-1.1-0.9-1.7-2.2-1.7-3.8c0-1.1,0.3-2.1,0.9-2.9c0.6-0.9,1.5-1.5,2.6-2.1c1.1-0.5,2.4-0.8,3.9-0.8
			c1.5,0,2.8,0.2,3.9,0.5c1.1,0.3,2,0.8,2.8,1.4l0.2,4.6h-2.8l-0.6-2.7c-0.4-0.3-0.9-0.6-1.5-0.7c-0.6-0.2-1.3-0.3-2-0.3
			c-1.1,0-2.1,0.3-2.8,0.8c-0.7,0.5-1.1,1.2-1.1,2c0,0.5,0.1,0.9,0.3,1.2c0.2,0.3,0.6,0.7,1.2,0.9c0.6,0.3,1.4,0.6,2.6,0.8
			c2.8,0.7,4.8,1.5,5.9,2.5c1.1,1,1.7,2.3,1.7,3.8c0,1.7-0.6,3.1-1.9,4.3C174.6,351.4,172.6,352,169.9,352z"/>
		<path class="st2" d="M197.4,351.9c-1.5,0-2.7-0.4-3.5-1.3c-0.9-0.9-1.3-2.3-1.3-4.2v-12.2h-3.2v-2.7h3.2v-4.9h3.7v4.9h4.4v2.7
			h-4.4v12.2c0,1,0.2,1.7,0.6,2.1c0.4,0.5,0.9,0.7,1.5,0.7c0.4,0,0.9,0,1.5-0.1c0.5-0.1,0.9-0.2,1.2-0.2l0.5,2.4
			c-0.5,0.2-1.2,0.3-2,0.4C198.8,351.9,198,351.9,197.4,351.9z"/>
		<path class="st2" d="M203.4,351.6v-2.3l3-0.5v-23.3l-3-0.5v-2.4h6.7v11.6c0.7-1,1.5-1.7,2.6-2.3c1-0.5,2.1-0.8,3.4-0.8
			c2.2,0,3.8,0.6,5,1.9c1.2,1.3,1.8,3.3,1.8,6v9.8l3,0.5v2.3h-9.7v-2.3l3-0.5v-9.8c0-1.7-0.4-2.9-1.1-3.7c-0.7-0.8-1.8-1.2-3.2-1.2
			c-1,0-1.9,0.2-2.7,0.7c-0.8,0.5-1.5,1.1-2,1.9v12l3,0.5v2.3H203.4z"/>
		<path class="st2" d="M234.9,352c-2.1,0-3.7-0.5-4.8-1.5c-1.1-1-1.6-2.5-1.6-4.3c0-1.3,0.4-2.4,1.1-3.3c0.7-0.9,1.7-1.7,3-2.2
			c1.3-0.5,2.9-0.8,4.8-0.8h3.6v-2c0-1.2-0.4-2.2-1.1-2.8c-0.7-0.7-1.8-1-3.1-1c-0.8,0-1.6,0.1-2.2,0.3c-0.6,0.2-1.2,0.5-1.7,0.8
			l-0.4,2.8h-2.8v-4.6c0.9-0.7,2-1.3,3.2-1.7c1.2-0.4,2.5-0.6,4-0.6c2.4,0,4.4,0.6,5.8,1.8c1.4,1.2,2.1,2.8,2.1,5v9.7
			c0,0.3,0,0.5,0,0.8c0,0.2,0,0.5,0,0.7l2,0.2v2.3h-5.3c-0.1-0.5-0.2-1-0.3-1.5c-0.1-0.4-0.1-0.9-0.1-1.3c-0.7,0.9-1.6,1.7-2.7,2.3
			C237.2,351.7,236.1,352,234.9,352z M235.4,348.9c1.2,0,2.3-0.3,3.3-0.9c1-0.6,1.7-1.3,2.2-2.1v-3.7h-3.7c-1.7,0-3,0.4-3.8,1.2
			c-0.8,0.8-1.3,1.7-1.3,2.7c0,0.9,0.3,1.6,0.8,2C233.5,348.7,234.3,348.9,235.4,348.9z"/>
		<path class="st2" d="M256.5,351.9c-1.5,0-2.7-0.4-3.5-1.3c-0.9-0.9-1.3-2.3-1.3-4.2v-12.2h-3.2v-2.7h3.2v-4.9h3.7v4.9h4.4v2.7
			h-4.4v12.2c0,1,0.2,1.7,0.6,2.1c0.4,0.5,0.9,0.7,1.5,0.7c0.4,0,0.9,0,1.5-0.1c0.5-0.1,0.9-0.2,1.2-0.2l0.5,2.4
			c-0.5,0.2-1.2,0.3-2,0.4C257.9,351.9,257.2,351.9,256.5,351.9z"/>
		<path class="st3" d="M294.4,333.6h-4l-0.6-3.6c-0.5-0.5-1.2-1-2-1.3c-0.8-0.3-1.8-0.5-2.9-0.5c-2.4,0-4.2,0.9-5.4,2.6
			c-1.3,1.7-1.9,3.9-1.9,6.7v0.9c0,2.8,0.6,5,1.9,6.7c1.3,1.7,3.1,2.6,5.4,2.6c1.1,0,2-0.2,2.9-0.5c0.9-0.3,1.6-0.7,2.1-1.3l0.6-3.6
			h4v5.4c-1.1,1.3-2.5,2.3-4.2,3c-1.7,0.8-3.6,1.1-5.7,1.1c-3.6,0-6.6-1.3-8.9-3.8c-2.3-2.5-3.5-5.8-3.5-9.7v-0.9
			c0-3.9,1.2-7.2,3.5-9.7c2.3-2.5,5.3-3.8,9-3.8c2.1,0,4,0.4,5.7,1.1c1.7,0.8,3.1,1.8,4.2,3V333.6z"/>
		<path class="st3" d="M296.4,325.8v-3.3h8.3v25.2l2.6,0.6v3.3h-10.7v-3.3l2.6-0.6v-21.4L296.4,325.8z"/>
		<path class="st3" d="M309,348.3l2.6-0.6v-12.5l-2.9-0.6v-3.3h8.3v16.3l2.6,0.6v3.3H309V348.3z M317.1,326.6h-5.4v-4.1h5.4V326.6z"
			/>
		<path class="st3" d="M330.9,347.8c1,0,1.7-0.3,2.3-0.8c0.6-0.6,0.9-1.3,0.9-2.3h4.9l0.1,0.1c0,2-0.7,3.7-2.3,5.1
			c-1.6,1.4-3.5,2.1-5.9,2.1c-3,0-5.3-1-6.9-2.8c-1.6-1.9-2.4-4.3-2.4-7.3v-0.6c0-3,0.8-5.4,2.5-7.3c1.7-1.9,4.1-2.9,7.1-2.9
			c1.6,0,3.1,0.2,4.4,0.7c1.3,0.5,2.4,1.2,3.2,2l0.1,5.4h-4.4l-0.9-3.1c-0.3-0.2-0.6-0.4-1-0.6c-0.4-0.2-0.9-0.2-1.4-0.2
			c-1.5,0-2.6,0.6-3.3,1.7c-0.6,1.1-0.9,2.6-0.9,4.3v0.6c0,1.8,0.3,3.3,0.9,4.3C328.4,347.3,329.5,347.8,330.9,347.8z"/>
		<path class="st3" d="M341,325.8v-3.3h8.3v16.8h1.2l3.1-4.4l-1.8-0.2v-3.3h9.9v3.3l-2.4,0.5l-3.6,5l5.1,7.7l2.1,0.4v3.3h-9.3v-3.3
			l1.1-0.2l-3.1-5h-2.3v4.6l2.3,0.6v3.3h-10.4v-3.3l2.6-0.6v-21.4L341,325.8z"/>
	</g>
</g>
</svg>
