<?xml version="1.0" encoding="utf-8"?>
<!-- Generator: Adobe Illustrator 26.0.1, SVG Export Plug-In . SVG Version: 6.00 Build 0)  -->
<svg version="1.1" id="Layer_1" xmlns="http://www.w3.org/2000/svg" xmlns:xlink="http://www.w3.org/1999/xlink" x="0px" y="0px"
	 viewBox="0 0 100 100" style="enable-background:new 0 0 100 100;" xml:space="preserve">
<style type="text/css">
	.st0{fill:none;stroke:#A3C9A8;stroke-width:5;stroke-linecap:round;stroke-miterlimit:10;}
	.st1{fill:#875053;stroke:#875053;stroke-width:2;stroke-miterlimit:10;}
	.st2{fill:none;stroke:#875053;stroke-width:4;stroke-miterlimit:10;}
</style>
<g>
	<g>
		<path class="st0" d="M4.1,61.1c8.4,0.2,8.3,4.2,16.7,4.3c8.4,0.2,8.5-3.8,16.8-3.7c8.4,0.2,8.3,4.2,16.7,4.3
			c8.4,0.2,8.5-3.8,16.8-3.7s8.3,4.2,16.7,4.3"/>
	</g>
	<g>
		<path class="st0" d="M4.1,46.1c8.4,0.2,8.3,4.2,16.7,4.3c8.4,0.2,8.5-3.8,16.8-3.7c8.4,0.2,8.3,4.2,16.7,4.3
			c8.4,0.2,8.5-3.8,16.8-3.7s8.3,4.2,16.7,4.3"/>
	</g>
	<g>
		<path class="st0" d="M4.1,31.1c8.4,0.2,8.3,4.2,16.7,4.3c8.4,0.2,8.5-3.8,16.8-3.7c8.4,0.2,8.3,4.2,16.7,4.3
			c8.4,0.2,8.5-3.8,16.8-3.7s8.3,4.2,16.7,4.3"/>
	</g>
	<g>
		<path class="st0" d="M4.1,16.1c8.4,0.2,8.3,4.2,16.7,4.3c8.4,0.2,8.5-3.8,16.8-3.7c8.4,0.2,8.3,4.2,16.7,4.3
			c8.4,0.2,8.5-3.8,16.8-3.7c8.4,0.2,8.3,4.2,16.7,4.3"/>
	</g>
</g>
<path class="st1" d="M93.7,81.4H54.8V39.3h38.9L93.7,81.4z M90.6,41.3H57.8L74.2,59L90.6,41.3z M91.9,42.8
	c-5.7,6.2-11,11.9-16.4,17.7l16.4,17.7V42.8z M58,79.4h32.4L74.2,61.9L58,79.4z M72.9,60.4L56.8,43.1v34.8L72.9,60.4z"/>
<path class="st2" d="M79.6,80.5v11.2c0,2.6-2.1,4.8-4.8,4.8H35.9c-2.6,0-4.8-2.1-4.8-4.8V18.5c0-2.6,2.1-4.8,4.8-4.8l0,0h38.9
	c2.6,0,4.8,2.1,4.8,4.8v21.6"/>
</svg>
