<svg id="Layer_1" data-name="Layer 1" xmlns="http://www.w3.org/2000/svg" viewBox="0 0 100 100"><defs><style>.cls-1{fill:#f9c3dc;}.cls-2{fill:#51a0a8;stroke-width:1.32px;}.cls-2,.cls-3{stroke:#51a0a8;stroke-miterlimit:10;}.cls-3{fill:none;stroke-width:4px;}</style></defs><path class="cls-1" d="M46.3,26.6A23.35,23.35,0,1,1,22.9,50h0A23.49,23.49,0,0,1,46.3,26.6m0-21.5a44.9,44.9,0,1,0,44.8,45V50A44.9,44.9,0,0,0,46.3,5.1Z"/><path class="cls-2" d="M93.71,81.43H54.81V39.33h38.9ZM90.62,41.26H57.78L74.2,59Zm1.28,1.49c-5.72,6.17-11,11.89-16.39,17.71L91.9,78.12ZM58,79.4H90.42L74.2,61.88Zm14.89-19L56.78,43.07V77.85Z"/><path class="cls-3" d="M79.63,80.48V91.71a4.78,4.78,0,0,1-4.78,4.78H35.92a4.78,4.78,0,0,1-4.78-4.78V18.45a4.78,4.78,0,0,1,4.78-4.78H74.85a4.78,4.78,0,0,1,4.78,4.78V40.08"/></svg>