<svg id="Layer_1" data-name="Layer 1" xmlns="http://www.w3.org/2000/svg" viewBox="0 0 100 100"><defs><style>.cls-1{fill:none;stroke:#a3c9a8;stroke-linecap:round;stroke-miterlimit:10;stroke-width:5px;}.cls-2{fill:#875053;}</style></defs><path class="cls-1" d="M4.1,61.1c8.4.2,8.3,4.2,16.7,4.3s8.5-3.8,16.8-3.7,8.3,4.2,16.7,4.3,8.5-3.8,16.8-3.7,8.3,4.2,16.7,4.3"/><path class="cls-1" d="M4.1,46.1c8.4.2,8.3,4.2,16.7,4.3s8.5-3.8,16.8-3.7,8.3,4.2,16.7,4.3,8.5-3.8,16.8-3.7,8.3,4.2,16.7,4.3"/><path class="cls-1" d="M4.1,31.1c8.4.2,8.3,4.2,16.7,4.3s8.5-3.8,16.8-3.7,8.3,4.2,16.7,4.3,8.5-3.8,16.8-3.7,8.3,4.2,16.7,4.3"/><path class="cls-1" d="M4.1,16.1c8.4.2,8.3,4.2,16.7,4.3s8.5-3.8,16.8-3.7,8.3,4.2,16.7,4.3,8.5-3.8,16.8-3.7,8.3,4.2,16.7,4.3"/><path class="cls-2" d="M18,97.57C13.49,82.51,9,67.76,4.51,52.69c5.23-2.67,14.28-7.21,19.55-9.9,5.06.45,11.24,1.12,14.37,1.44,2,.24,5.88.77,6,.8a4.06,4.06,0,0,0,3.67-1.22c3.54-3.19,7.19-6.24,10.85-9.34l.14-.12c.89-1.27,2.12-1.34,3.56-1.22,6,.47,11.93,1.11,17.94,1.51a.91.91,0,0,1,.89.6q5.31,11.46,10.65,22.9l6,12.74c.08.19.16.38.27.66-.55.08-1,.18-1.53.22l-21.92,2a1.55,1.55,0,0,0-.81.37c-4.71,4.09-9.3,7.94-14,12a1.57,1.57,0,0,1-1.17.44c-7.29-.18-14.59-.33-21.88-.5a2.43,2.43,0,0,0-1.4.4c-3.41,2.13-6.84,4.23-10.26,6.35L18.43,97.2Zm77.6-27.51c-.12-.29-.21-.52-.32-.74-.82-1.78-1.61-3.57-2.49-5.32-.69-1.39-1.09-2.94-2.19-4.12,0,0-.1-.11-.09-.15.26-.9-.54-1.41-.72-2.23l-.76.71-1.4-1.34c.31-.35.58-.7.89-1a.59.59,0,0,0,.13-.81q-4.23-9-8.43-18.07a.86.86,0,0,0-.83-.59c-6-.39-11.8-1.07-17.75-1.46a1.41,1.41,0,0,0-.84.28c-1.28,1.06-2.52,2.16-3.78,3.25-3.16,2.73-6.32,5.45-9.46,8.19a1.45,1.45,0,0,1-1.25.33l-8.39-1c-.24,0-11.69-1.66-13.27-1.7-1,.48-.74.35-3.32,1.66-4.87,2.48-9.76,5.19-14.6,7.66.22.72.42,1.4.62,2.08C9,61.57,10.9,67.17,12.61,73a5.45,5.45,0,0,0,.56,1,3.39,3.39,0,0,0,0,.9Q16,84.57,18.9,94.21c.05.17.12.33.19.52l.33-.19c5.19-3.21,10.39-6.41,15.56-9.66a3.65,3.65,0,0,1,2.11-.54q10.68.25,21.33.46a1.52,1.52,0,0,0,1-.36c4.68-4.06,9.24-7.89,13.91-12a1.76,1.76,0,0,1,.86-.43c5.35-.52,10.71-1,16.06-1.52Z"/><path class="cls-2" d="M67.61,49.5l-.3-1.78,2.09-.25.09,1.82Z"/><path class="cls-2" d="M83.9,54.2l-1.65-1,.94-1.63,1.71,1.12Z"/><path class="cls-2" d="M88.24,55.15l-1.17,1.42-1.54-1.2,1.08-1.46Z"/><path class="cls-2" d="M65.72,49.91l-1.82.58-.64-1.68,2-.65Z"/><path class="cls-2" d="M46,68.42l1.49,1-1.24,1.66L44.9,70Z"/><path class="cls-2" d="M39.05,74.91l1.63-1,1,1.49L39.9,76.57Z"/><path class="cls-2" d="M15.6,77.28l.54-1.71L18,76.1l-.45,1.75Z"/><path class="cls-2" d="M33.56,76.68l.34,1.77-2,.35L31.66,77Z"/><path class="cls-2" d="M52.35,58.18l1.51,1-1.07,1.65-1.53-1Z"/><path class="cls-2" d="M51.75,62.57l-1,1.72-1.58-.92,1-1.72Z"/><path class="cls-2" d="M49.7,66l-1.07,1.72-1.53-1,1-1.69Z"/><path class="cls-2" d="M55,57.57l-1.44-1.1,1.28-1.61,1.39,1.19Z"/><path class="cls-2" d="M56.31,53.3,57.79,52,59,53.36l-1.38,1.26Z"/><path class="cls-2" d="M37.3,75.65l.62,1.7-2,.63-.48-1.75Z"/><path class="cls-2" d="M77,50.67l-1.85-.55.43-1.75,2,.58Z"/><path class="cls-2" d="M81.37,50.57l-.82,1.62-1.76-.82.72-1.66Z"/><path class="cls-2" d="M43.42,74.2l-1.15-1.32,1.27-1.45,1.29,1.22Z"/><path class="cls-2" d="M73.2,49.74c-.67-.07-1.13-.39-1.68-.45v-1.8c.72.07,1.28.4,2,.47Z"/><path class="cls-2" d="M60.5,52.23l-1-1.53,1.81-1,.82,1.6Z"/><path class="cls-2" d="M21.54,78.57l-2-.28L20,76.57c.55.11,1.05.2,1.54.34a.45.45,0,0,1,.25.35C21.71,77.67,21.62,78.09,21.54,78.57Z"/><path class="cls-2" d="M25.66,79.07l-2-.14c.08-.54.13-1,.24-1.5,0-.11.22-.24.35-.25,1.23-.13,1.57.22,1.47,1.46C25.7,78.77,25.68,78.89,25.66,79.07Z"/><path class="cls-2" d="M29.82,79h-2V77.65a.51.51,0,0,1,.34-.33,6.32,6.32,0,0,1,1.23,0c.12,0,.28.24.3.39A11,11,0,0,1,29.82,79Z"/></svg>