<svg id="Layer_1" data-name="Layer 1" xmlns="http://www.w3.org/2000/svg" viewBox="0 0 100 100"><defs><style>.cls-1{fill:#f9c3dc;}.cls-2,.cls-3{fill:#51a0a8;stroke:#51a0a8;stroke-miterlimit:10;}.cls-2{stroke-width:2px;}</style></defs><path class="cls-1" d="M46.3,26.6A23.35,23.35,0,1,1,22.9,50h0A23.49,23.49,0,0,1,46.3,26.6m0-21.5a44.9,44.9,0,1,0,44.8,45V50A44.9,44.9,0,0,0,46.3,5.1Z"/><path class="cls-2" d="M18.05,98c-4.46-15.06-9-29.81-13.44-44.88,5.23-2.67,14.28-7.21,19.55-9.9,5.06.45,11.24,1.12,14.37,1.44,2,.24,5.88.77,5.95.8a4.09,4.09,0,0,0,3.67-1.22C51.69,41.05,55.34,38,59,34.9l.14-.12c.89-1.27,2.12-1.34,3.56-1.22,6,.47,11.93,1.11,17.94,1.51a.93.93,0,0,1,.89.6q5.31,11.46,10.65,22.9l6,12.74c.08.19.16.38.27.66-.55.08-1,.18-1.53.22L75,74.24a1.55,1.55,0,0,0-.81.37c-4.71,4.09-9.3,7.94-14,12a1.59,1.59,0,0,1-1.17.44c-7.29-.18-14.59-.33-21.88-.5a2.32,2.32,0,0,0-1.4.4c-3.41,2.13-6.84,4.23-10.26,6.35l-6.95,4.33Zm77.6-27.51c-.12-.29-.21-.52-.32-.74-.82-1.78-1.61-3.57-2.49-5.32-.69-1.39-1.09-2.94-2.19-4.12,0,0-.1-.11-.09-.15.26-.9-.54-1.41-.72-2.23l-.76.71-1.4-1.34c.31-.35.58-.7.89-1a.6.6,0,0,0,.13-.81q-4.23-9-8.43-18.07a.85.85,0,0,0-.83-.59c-6-.39-11.8-1.07-17.75-1.46a1.35,1.35,0,0,0-.84.28c-1.28,1.06-2.52,2.16-3.78,3.25-3.16,2.73-6.32,5.45-9.46,8.19a1.45,1.45,0,0,1-1.25.33l-8.39-1c-.24,0-11.69-1.66-13.27-1.7-1,.48-.74.35-3.32,1.66-4.87,2.48-9.76,5.19-14.6,7.66.22.72.42,1.4.62,2.08C9.13,62,11,67.6,12.71,73.47a5.45,5.45,0,0,0,.56,1,2.72,2.72,0,0,0,0,.9Q16.11,85,19,94.64c.05.17.12.33.19.52l.33-.19c5.19-3.21,10.39-6.41,15.56-9.66a3.65,3.65,0,0,1,2.11-.54q10.67.26,21.33.46a1.57,1.57,0,0,0,1-.36c4.68-4.06,9.24-7.89,13.91-12a1.76,1.76,0,0,1,.86-.43c5.35-.52,10.71-1,16.06-1.52Z"/><path class="cls-3" d="M67.71,49.93l-.3-1.78,2.09-.25.09,1.82Z"/><path class="cls-3" d="M84,54.63l-1.65-1L83.29,52,85,53.12Z"/><path class="cls-3" d="M65.82,50.34,64,50.92l-.64-1.68,2-.65Z"/><path class="cls-3" d="M46.11,68.85l1.49,1-1.24,1.66L45,70.41Z"/><path class="cls-3" d="M39.15,75.34l1.63-1,1,1.49L40,77Z"/><path class="cls-3" d="M33.66,77.11,34,78.88l-2,.35-.24-1.79Z"/><path class="cls-3" d="M52.45,58.61l1.51,1-1.07,1.65-1.53-1Z"/><path class="cls-3" d="M51.85,63l-1,1.72-1.58-.92,1-1.72Z"/><path class="cls-3" d="M49.8,66.46l-1.07,1.72-1.53-1,1-1.69Z"/><path class="cls-3" d="M55.09,58l-1.44-1.1,1.28-1.61,1.39,1.19Z"/><path class="cls-3" d="M56.41,53.73l1.48-1.33,1.16,1.39-1.38,1.26Z"/><path class="cls-3" d="M37.4,76.08l.62,1.7-2,.63-.48-1.75Z"/><path class="cls-3" d="M77.08,51.1l-1.85-.55.43-1.75,2,.58Z"/><path class="cls-3" d="M81.47,51l-.82,1.62-1.76-.82.72-1.66Z"/><path class="cls-3" d="M43.52,74.63l-1.15-1.32,1.27-1.45,1.29,1.22Z"/><path class="cls-3" d="M73.3,50.17c-.67-.07-1.13-.39-1.68-.45v-1.8c.72.07,1.28.4,2,.47Z"/><path class="cls-3" d="M60.6,52.66l-1-1.53,1.81-1,.82,1.6Z"/><path class="cls-3" d="M21.64,79l-2-.28L20.05,77c.55.11,1.05.2,1.54.34a.45.45,0,0,1,.25.35C21.81,78.1,21.72,78.52,21.64,79Z"/><path class="cls-3" d="M25.76,79.5l-2-.14c.08-.54.13-1,.24-1.5,0-.11.22-.24.35-.25,1.23-.13,1.57.22,1.47,1.46C25.8,79.2,25.78,79.32,25.76,79.5Z"/><path class="cls-3" d="M29.92,79.45h-2V78.08a.49.49,0,0,1,.34-.33,6.32,6.32,0,0,1,1.23,0c.12,0,.28.24.3.39A11,11,0,0,1,29.92,79.45Z"/></svg>