<?xml version="1.0" encoding="utf-8"?>
<!-- Generator: Adobe Illustrator 26.0.1, SVG Export Plug-In . SVG Version: 6.00 Build 0)  -->
<svg version="1.1" id="Layer_1" xmlns="http://www.w3.org/2000/svg" xmlns:xlink="http://www.w3.org/1999/xlink" x="0px" y="0px"
	 viewBox="0 0 100 100" style="enable-background:new 0 0 100 100;" xml:space="preserve">
<style type="text/css">
	.st0{fill:none;stroke:#A3C9A8;stroke-width:5;stroke-linecap:round;stroke-miterlimit:10;}
	.st1{fill:#BA727B;stroke:#BA727B;stroke-width:2;stroke-miterlimit:10;}
	.st2{fill:#BA727B;stroke:#BA727B;stroke-miterlimit:10;}
</style>
<g>
	<g>
		<path class="st0" d="M4.1,61.1c8.4,0.2,8.3,4.2,16.7,4.3c8.4,0.2,8.5-3.8,16.8-3.7c8.4,0.2,8.3,4.2,16.7,4.3
			c8.4,0.2,8.5-3.8,16.8-3.7s8.3,4.2,16.7,4.3"/>
	</g>
	<g>
		<path class="st0" d="M4.1,46.1c8.4,0.2,8.3,4.2,16.7,4.3c8.4,0.2,8.5-3.8,16.8-3.7c8.4,0.2,8.3,4.2,16.7,4.3
			c8.4,0.2,8.5-3.8,16.8-3.7s8.3,4.2,16.7,4.3"/>
	</g>
	<g>
		<path class="st0" d="M4.1,31.1c8.4,0.2,8.3,4.2,16.7,4.3c8.4,0.2,8.5-3.8,16.8-3.7c8.4,0.2,8.3,4.2,16.7,4.3
			c8.4,0.2,8.5-3.8,16.8-3.7s8.3,4.2,16.7,4.3"/>
	</g>
	<g>
		<path class="st0" d="M4.1,16.1c8.4,0.2,8.3,4.2,16.7,4.3c8.4,0.2,8.5-3.8,16.8-3.7c8.4,0.2,8.3,4.2,16.7,4.3
			c8.4,0.2,8.5-3.8,16.8-3.7c8.4,0.2,8.3,4.2,16.7,4.3"/>
	</g>
</g>
<path class="st1" d="M18,98C13.6,82.9,9,68.2,4.6,53.1c5.2-2.7,14.3-7.2,19.5-9.9c5.1,0.5,11.2,1.1,14.4,1.4c2,0.2,5.9,0.8,6,0.8
	c1.4,0.2,2.7-0.2,3.7-1.2C51.7,41,55.3,38,59,34.9l0.1-0.1c0.9-1.3,2.1-1.3,3.6-1.2c6,0.5,11.9,1.1,17.9,1.5c0.4,0,0.8,0.2,0.9,0.6
	c3.5,7.6,7.1,15.3,10.7,22.9l6,12.7c0.1,0.2,0.2,0.4,0.3,0.7c-0.6,0.1-1,0.2-1.5,0.2l-21.9,2c-0.3,0-0.6,0.2-0.8,0.4
	c-4.7,4.1-9.3,7.9-14,12c-0.3,0.3-0.7,0.5-1.2,0.4c-7.3-0.2-14.6-0.3-21.9-0.5c-0.5,0-1,0.1-1.4,0.4c-3.4,2.1-6.8,4.2-10.3,6.3
	l-6.9,4.3L18,98z M95.6,70.5c-0.1-0.3-0.2-0.5-0.3-0.7c-0.8-1.8-1.6-3.6-2.5-5.3c-0.7-1.4-1.1-2.9-2.2-4.1c0,0-0.1-0.1-0.1-0.2
	c0.3-0.9-0.5-1.4-0.7-2.2l-0.8,0.7l-1.4-1.3c0.3-0.3,0.6-0.7,0.9-1c0.2-0.2,0.3-0.5,0.1-0.8c-2.8-6-5.6-12-8.4-18.1
	c-0.1-0.4-0.5-0.6-0.8-0.6c-6-0.4-11.8-1.1-17.8-1.5c-0.3,0-0.6,0.1-0.8,0.3c-1.3,1.1-2.5,2.2-3.8,3.2c-3.2,2.7-6.3,5.5-9.5,8.2
	c-0.3,0.3-0.8,0.4-1.2,0.3l-8.4-1c-0.2,0-11.7-1.7-13.3-1.7c-1,0.5-0.7,0.3-3.3,1.7c-4.9,2.5-9.8,5.2-14.6,7.7
	c0.2,0.7,0.4,1.4,0.6,2.1C9.1,62,11,67.6,12.7,73.5c0.2,0.4,0.3,0.7,0.6,1c0,0.3,0,0.6,0,0.9c1.9,6.4,3.8,12.8,5.7,19.3
	c0,0.2,0.1,0.3,0.2,0.5l0.3-0.2c5.2-3.2,10.4-6.4,15.6-9.7c0.6-0.4,1.4-0.6,2.1-0.5c7.1,0.2,14.2,0.3,21.3,0.5c0.4,0,0.7-0.1,1-0.4
	c4.7-4.1,9.2-7.9,13.9-12c0.2-0.2,0.5-0.4,0.9-0.4c5.3-0.5,10.7-1,16.1-1.5L95.6,70.5z"/>
<path class="st2" d="M67.7,49.9l-0.3-1.8l2.1-0.2l0.1,1.8L67.7,49.9z"/>
<path class="st2" d="M84,54.6l-1.7-1l0.9-1.6l1.7,1.1L84,54.6z"/>
<path class="st2" d="M65.8,50.3L64,50.9l-0.6-1.7l2-0.7L65.8,50.3z"/>
<path class="st2" d="M46.1,68.8l1.5,1l-1.2,1.7L45,70.4L46.1,68.8z"/>
<path class="st2" d="M39.2,75.3l1.6-1l1,1.5L40,77L39.2,75.3z"/>
<path class="st2" d="M33.7,77.1l0.3,1.8l-2,0.3l-0.2-1.8L33.7,77.1z"/>
<path class="st2" d="M52.5,58.6l1.5,1l-1.1,1.7l-1.5-1L52.5,58.6z"/>
<path class="st2" d="M51.8,63l-1,1.7l-1.6-0.9l1-1.7L51.8,63z"/>
<path class="st2" d="M49.8,66.5l-1.1,1.7l-1.5-1l1-1.7L49.8,66.5z"/>
<path class="st2" d="M55.1,58l-1.4-1.1l1.3-1.6l1.4,1.2L55.1,58z"/>
<path class="st2" d="M56.4,53.7l1.5-1.3l1.2,1.4L57.7,55L56.4,53.7z"/>
<path class="st2" d="M37.4,76.1l0.6,1.7l-2,0.6l-0.5-1.8L37.4,76.1z"/>
<path class="st2" d="M77.1,51.1l-1.8-0.5l0.4-1.8l2,0.6L77.1,51.1z"/>
<path class="st2" d="M81.5,51l-0.8,1.6l-1.8-0.8l0.7-1.7L81.5,51z"/>
<path class="st2" d="M43.5,74.6l-1.2-1.3l1.3-1.4l1.3,1.2L43.5,74.6z"/>
<path class="st2" d="M73.3,50.2c-0.7-0.1-1.1-0.4-1.7-0.5v-1.8c0.7,0.1,1.3,0.4,2,0.5L73.3,50.2z"/>
<path class="st2" d="M60.6,52.7l-1-1.5l1.8-1l0.8,1.6L60.6,52.7z"/>
<path class="st2" d="M21.6,79l-2-0.3L20,77c0.5,0.1,1,0.2,1.5,0.3c0.1,0.1,0.2,0.2,0.2,0.3C21.8,78.1,21.7,78.5,21.6,79z"/>
<path class="st2" d="M25.8,79.5l-2-0.1c0.1-0.5,0.1-1,0.2-1.5c0-0.1,0.2-0.2,0.4-0.2c1.2-0.1,1.6,0.2,1.5,1.5
	C25.8,79.2,25.8,79.3,25.8,79.5z"/>
<path class="st2" d="M29.9,79.4h-2v-1.4c0-0.2,0.2-0.3,0.3-0.3c0.4,0,0.8,0,1.2,0c0.1,0,0.3,0.2,0.3,0.4
	C29.9,78.6,29.9,79,29.9,79.4z"/>
</svg>
