<?xml version="1.0" encoding="utf-8"?>
<!-- Generator: Adobe Illustrator 26.0.1, SVG Export Plug-In . SVG Version: 6.00 Build 0)  -->
<svg version="1.1" id="Layer_1" xmlns="http://www.w3.org/2000/svg" xmlns:xlink="http://www.w3.org/1999/xlink" x="0px" y="0px"
	 viewBox="0 0 24 24" style="enable-background:new 0 0 24 24;" xml:space="preserve">
<style type="text/css">
	.st0{fill:#FC1A3D;}
</style>
<path class="st0" d="M11.2,23c-3.4-0.2-6.5-1.7-8.8-4.3c-0.4-0.4-0.5-1-0.3-1.5c0.8-2.2,2.9-3.7,5.3-3.7c3,0,6.1-0.1,9.1,0
	c2.3,0,4.4,1.4,5.3,3.6c0.3,0.5,0.2,1.2-0.3,1.5C18.9,21.6,15.1,23.2,11.2,23z"/>
<path class="st0" d="M6.4,6.5c0-3.1,2.5-5.6,5.6-5.6s5.6,2.5,5.6,5.6s-2.5,5.6-5.6,5.6C8.9,12.1,6.4,9.6,6.4,6.5L6.4,6.5z"/>
</svg>
