<?xml version="1.0" encoding="utf-8"?>
<!-- Generator: Adobe Illustrator 26.0.1, SVG Export Plug-In . SVG Version: 6.00 Build 0)  -->
<svg version="1.1" id="Layer_1" xmlns="http://www.w3.org/2000/svg" xmlns:xlink="http://www.w3.org/1999/xlink" x="0px" y="0px"
	 viewBox="0 0 24 24" style="enable-background:new 0 0 24 24;" xml:space="preserve">
<style type="text/css">
	.st0{fill:#A3C9A8;stroke:#A3C9A8;stroke-width:2.000000e-02;stroke-miterlimit:10;}
</style>
<path class="st0" d="M5.7,23.6l-5.2-5.2c6-6,11.9-11.9,17.9-17.9l5.2,5.2L5.7,23.6z M1.7,18.3l4.1,4.1l1-1l-0.5-0.5l-1-1
	c-0.2-0.1-0.2-0.4,0-0.6c0,0,0,0,0,0c0.1-0.2,0.4-0.2,0.6,0c0,0,0,0,0,0l0.2,0.2l1.2,1.2L9,19c-0.1-0.1-0.2-0.1-0.2-0.2l-2.1-2.1
	c-0.2-0.1-0.2-0.4-0.1-0.6c0.1-0.2,0.4-0.2,0.6-0.1c0,0,0,0,0.1,0.1l1.4,1.4l1,1l1.8-1.8L10,15.3c-0.2-0.2-0.2-0.5-0.1-0.6
	c0.2-0.2,0.4-0.2,0.6,0c0,0,0,0,0,0c0.3,0.3,0.7,0.6,1,1c0.2,0.2,0.3,0.3,0.4,0.5l1.9-1.9c-0.1,0-0.2-0.1-0.2-0.1L11.4,12
	c-0.2-0.2-0.2-0.5-0.1-0.7s0.4-0.1,0.6,0.1l1.7,1.7c0.2,0.2,0.4,0.4,0.6,0.6l1.8-1.8l-0.2-0.2l-1.2-1.2c-0.2-0.1-0.2-0.4-0.1-0.6
	c0,0,0,0,0,0c0.2-0.2,0.4-0.1,0.6,0.1l0.1,0.1l1.2,1.3l1.8-1.8c-0.4-0.3-0.7-0.7-1.1-1.1s-0.9-0.8-1.3-1.3c-0.2-0.1-0.2-0.4-0.1-0.6
	c0.1-0.1,0.1-0.1,0.2-0.1c0.2,0,0.3,0.1,0.5,0.2c0.7,0.7,1.4,1.4,2.1,2.1L19.1,9l1.8-1.8l-0.2-0.2l-1.2-1.2
	c-0.3-0.3-0.4-0.5-0.2-0.8s0.4-0.2,0.8,0.2l0.6,0.6c0.2,0.2,0.5,0.5,0.7,0.7l1-1l-4.1-4.1L1.7,18.3z"/>
</svg>
