<svg id="Layer_1" data-name="Layer 1" xmlns="http://www.w3.org/2000/svg" viewBox="0 0 24 24"><defs><style>.cls-1{fill:#00b2ac;stroke:#00b2ac;stroke-miterlimit:10;stroke-width:0.02px;}</style></defs><path class="cls-1" d="M5.66,23.57.43,18.34c6-6,11.94-11.95,17.91-17.91l5.23,5.23Zm-4-5.25,4.07,4.07,1-1-.5-.47-1-1a.39.39,0,0,1,0-.58.4.4,0,0,1,.59,0l.25.25,1.22,1.22L9,19a1.74,1.74,0,0,1-.22-.18L6.66,16.71a.42.42,0,1,1,.59-.59l1.37,1.37,1,1,1.77-1.8L10,15.27c-.22-.23-.25-.47-.07-.65a.43.43,0,0,1,.65.05c.33.32.66.65,1,1,.16.16.29.34.42.49l1.87-1.86a1.05,1.05,0,0,1-.24-.15L11.41,12c-.23-.23-.25-.49-.06-.67s.42-.14.65.08l1.73,1.74c.21.2.39.42.56.61l1.8-1.8-.18-.19-1.24-1.24a.43.43,0,0,1-.05-.65c.18-.17.42-.15.65.07l.15.15,1.25,1.26,1.79-1.79c-.35-.33-.72-.7-1.08-1.06s-.86-.85-1.28-1.28a.41.41,0,0,1,.16-.72.7.7,0,0,1,.47.19c.73.7,1.44,1.42,2.15,2.13l.19.18,1.76-1.77-.17-.18L19.5,5.91c-.32-.33-.36-.54-.16-.75s.43-.16.76.17l.62.62c.24.24.47.49.68.71l1-1L18.33,1.6Z"/></svg>