<?xml version="1.0" encoding="utf-8"?>
<!-- Generator: Adobe Illustrator 26.0.1, SVG Export Plug-In . SVG Version: 6.00 Build 0)  -->
<svg version="1.1" id="Layer_1" xmlns="http://www.w3.org/2000/svg" xmlns:xlink="http://www.w3.org/1999/xlink" x="0px" y="0px"
	 viewBox="0 0 24 24" style="enable-background:new 0 0 24 24;" xml:space="preserve">
<style type="text/css">
	.st0{fill:none;}
	.st1{fill:#00B2AC;}
</style>
<rect class="st0" width="24" height="24"/>
<g>
	<path class="st1" d="M11.1,3.3c0-0.4,0-0.8,0-1.2c-0.9,0-1.8,0-2.6,0c0-0.6,0-1.2,0-1.8c2.4,0,4.7,0,7.1,0c0,0.6,0,1.2,0,1.8
		c-0.9,0-1.7,0-2.6,0c0,0.4,0,0.8,0,1.2c0.4,0.1,0.8,0.1,1.2,0.2c1.2,0.2,2.3,0.7,3.3,1.4C17.6,5,17.7,5,17.9,4.8
		c0.2-0.3,0.5-0.5,0.7-0.8c0.4-0.4,1-0.4,1.3,0c0.4,0.4,0.4,0.9,0,1.3c-0.3,0.3-0.6,0.5-0.9,0.8c3.9,3.9,3.9,9.4,1.3,13.1
		c-2.7,3.8-7.5,5.3-11.9,3.7c-4.4-1.6-7-5.9-6.6-10.6C2.3,7.9,5.8,3.9,11.1,3.3z M12,21.8c4.6,0,8.3-3.7,8.3-8.4
		c0-4.6-3.7-8.4-8.4-8.3c-4.6,0-8.3,3.7-8.3,8.4C3.6,18.2,7.4,21.9,12,21.8z"/>
	<path class="st1" d="M11.4,9c0.4,0,0.8,0,1.2,0c0,0.2,0,0.5,0,0.7c0,1,0,2,0,2.9c0,0.2,0.1,0.4,0.2,0.5c0.7,0.8,1.5,1.5,2.3,2.3
		c0.1,0.1,0.2,0.2,0.3,0.3c-0.3,0.3-0.5,0.5-0.8,0.8c-0.7-0.7-1.4-1.4-2.1-2.1c-1.2-1.3-1-0.7-1-2.5C11.4,11,11.4,10,11.4,9z"/>
	<path class="st1" d="M12.6,7.5c0,0.3-0.3,0.6-0.6,0.6c-0.3,0-0.6-0.3-0.6-0.6c0-0.3,0.3-0.6,0.6-0.6C12.3,6.9,12.6,7.2,12.6,7.5z"
		/>
	<path class="st1" d="M6,13.8c-0.3,0-0.6-0.3-0.6-0.6c0-0.3,0.2-0.6,0.6-0.6c0.3,0,0.6,0.3,0.6,0.6C6.6,13.5,6.3,13.8,6,13.8z"/>
	<path class="st1" d="M18.6,13.2c0,0.3-0.3,0.6-0.6,0.6c-0.3,0-0.6-0.3-0.6-0.6c0-0.3,0.3-0.6,0.6-0.6
		C18.3,12.6,18.5,12.9,18.6,13.2z"/>
	<path class="st1" d="M12.6,19.5c0,0.3-0.3,0.6-0.6,0.6c-0.3,0-0.6-0.3-0.6-0.6c0-0.3,0.3-0.6,0.6-0.6
		C12.3,18.8,12.6,19.1,12.6,19.5z"/>
</g>
</svg>
