<?xml version="1.0" encoding="utf-8"?>
<!-- Generator: Adobe Illustrator 26.0.1, SVG Export Plug-In . SVG Version: 6.00 Build 0)  -->
<svg version="1.1" id="Layer_1" xmlns="http://www.w3.org/2000/svg" xmlns:xlink="http://www.w3.org/1999/xlink" x="0px" y="0px"
	 viewBox="0 0 43.3 43.2" style="enable-background:new 0 0 43.3 43.2;" xml:space="preserve">
<style type="text/css">
	.st0{fill:none;stroke:#313159;stroke-width:2;stroke-miterlimit:10;}
	.st1{fill:none;stroke:#FC0053;stroke-width:2;stroke-miterlimit:10;}
</style>
<g id="Misc">
	<g id="Misc-2">
		<g id="Group_127">
			<path id="Path_140" class="st0" d="M24.1,16.8c0.1-0.4,0.1-0.8,0.1-1.2c0-0.4,0-0.8-0.1-1.2l2.6-2.1c0.2-0.2,0.3-0.5,0.1-0.8
				l-2.5-4.3c-0.1-0.2-0.3-0.3-0.5-0.3c-0.1,0-0.1,0-0.2,0l-3.1,1.3c-0.6-0.5-1.4-0.9-2.1-1.2L18,3.6c0-0.3-0.3-0.5-0.6-0.5h-5
				c-0.3,0-0.6,0.2-0.6,0.5l-0.5,3.3c-0.8,0.3-1.5,0.7-2.1,1.2L6.1,6.9c-0.1,0-0.1,0-0.2,0C5.6,6.9,5.4,7,5.3,7.2l-2.5,4.3
				c-0.2,0.3-0.1,0.6,0.2,0.8l2.6,2.1c-0.1,0.4-0.1,0.8-0.1,1.2c0,0.4,0,0.8,0.1,1.2L3,18.9c-0.2,0.2-0.3,0.5-0.2,0.8L5.3,24
				c0.1,0.2,0.3,0.3,0.6,0.3c0.1,0,0.1,0,0.2,0L9.2,23c0.6,0.5,1.4,0.9,2.1,1.2l0.5,3.3c0,0.3,0.3,0.5,0.6,0.5h5
				c0.3,0,0.6-0.2,0.6-0.5l0.5-3.3c0.7-0.3,1.5-0.7,2.1-1.2l3.1,1.3c0.1,0,0.1,0,0.2,0c0.2,0,0.4-0.1,0.5-0.3l2.5-4.3
				c0.2-0.3,0.1-0.6-0.1-0.8L24.1,16.8z"/>
			<path id="Path_141" class="st0" d="M35.4,33.5c0.1-0.5,0.1-1.1,0-1.6l1.8-1.4c0.2-0.1,0.2-0.4,0.1-0.5l-1.7-2.9
				c-0.1-0.1-0.2-0.2-0.4-0.2c0,0-0.1,0-0.1,0L33,27.7c-0.4-0.3-0.9-0.6-1.4-0.8l-0.3-2.2c0-0.2-0.2-0.4-0.4-0.4h-3.3
				c-0.2,0-0.4,0.1-0.4,0.4l-0.3,2.2c-0.5,0.2-1,0.5-1.4,0.8l-2.1-0.8h-0.1c-0.1,0-0.3,0.1-0.4,0.2L21.1,30
				c-0.1,0.2-0.1,0.4,0.1,0.5l1.8,1.4c-0.1,0.5-0.1,1.1,0,1.6l-1.8,1.4c-0.2,0.1-0.2,0.4-0.1,0.5l1.7,2.9c0.1,0.1,0.2,0.2,0.4,0.2
				c0,0,0.1,0,0.1,0l2.1-0.8c0.4,0.3,0.9,0.6,1.4,0.8l0.3,2.2c0,0.2,0.2,0.4,0.4,0.3h3.3c0.2,0,0.4-0.1,0.4-0.3l0.3-2.2
				c0.5-0.2,1-0.5,1.4-0.8l2.1,0.8h0.2c0.1,0,0.3-0.1,0.4-0.2l1.7-2.9c0.1-0.2,0.1-0.4-0.1-0.5L35.4,33.5z"/>
			<circle id="Ellipse_27" class="st1" cx="14.9" cy="15.6" r="5"/>
			<circle id="Ellipse_28" class="st1" cx="29.2" cy="32.7" r="3.3"/>
		</g>
	</g>
</g>
</svg>
