<?xml version="1.0" encoding="utf-8"?>
<!-- Generator: Adobe Illustrator 26.0.1, SVG Export Plug-In . SVG Version: 6.00 Build 0)  -->
<svg version="1.1" id="Layer_1" xmlns="http://www.w3.org/2000/svg" xmlns:xlink="http://www.w3.org/1999/xlink" x="0px" y="0px"
	 viewBox="0 0 585 474" style="enable-background:new 0 0 585 474;" xml:space="preserve">
<style type="text/css">
	.st0{fill-rule:evenodd;clip-rule:evenodd;fill:#00B2AC;}
	.st1{fill-rule:evenodd;clip-rule:evenodd;fill:#64FCD9;}
	.st2{fill-rule:evenodd;clip-rule:evenodd;fill:#E7EAEE;}
	.st3{fill:#FFFFFF;}
	.st4{fill-rule:evenodd;clip-rule:evenodd;fill:#F282B4;}
	.st5{fill-rule:evenodd;clip-rule:evenodd;fill:#00160A;}
	.st6{fill:#F282B4;}
</style>
<path class="st0" d="M472.9,408.8l0.3,0.1l0.6,0.1c10.3,2.6,20.4,6.2,30,10.9c5.4,2.6,11,5.6,16.9,5.1c1.7-0.1,3.4-0.5,5.1-0.6
	c5.8-0.1,10.7,4.3,16.3,5.5c4.9,1.1,10-0.3,15-0.6s10.8,1,13.1,5.5c0.4,0.6,0.5,1.3,0.4,2c-0.3,0.9-1,1.6-1.9,1.9l-0.2,0.1l-0.4,0.2
	c-6.7,3-13.8,6-21,5.2l-0.5-0.1l-0.8-0.1c-6.8-0.8-13.6,1.4-20.5,1.2c-14.2-0.3-28.2-2-42.1-4.8l-1.5-0.3l-0.7-0.2
	c-23.3-5-35-1.4-45.9-1.1h-1c-4.2,0-18.1-0.1-23.1,1.2c-2.5,0.7-4.2-3.1-2.9-5.4s3.8-3,6.1-4l0.3-0.1l0.2-0.1c2.3-1,4.6-2.5,5-4.8
	v-0.2v-0.2c0.5-3,4.1-4.3,7.2-5l0.2,0l1.8-0.4c4.7-1,9.5-1.8,14.2-1c2.7,0.4,12.9-6,15.9-8.6C463,407.3,468.3,407.8,472.9,408.8z
	 M511.9,211.7l-0.4,0.1c-3.2,0.9-6.2,2.3-9,4.2c-4.7,3.2-8.7,7.6-14,9.5c-3.7,1.3-7.8,1.2-11.5-0.3c1.3,2.7,4.8,3.7,7.7,3.4
	c8.7-0.9,14.7-9.1,22.5-13.1c1.7-0.9,3.5-1.5,5.4-2c0.8,1.8,1.6,3.6,2.3,5.4l0,0c-0.6,0.4-1.1,1-1.6,1.5c-1.9,2.3-2.1,5.5-0.7,8
	c1.6,2.4,4.6,3.1,7.6,3l0,0l1.1,2.6c1.8,4.5,3.6,9,5.4,13.6l-0.1,0.1l-1.3,0.7c-11.7,6.1-22.2,14.6-34.9,18.3
	c-2.3,0.8-4.8,1.1-7.2,0.8c-2.5-0.3-4.6-1.9-5.6-4.2c-0.9,0.1-1,1.4-0.6,2.2c2.1,4.6,8.7,4.6,13.5,3.1c13-3.8,24.1-12.2,36-18.6
	l0.9-0.5l1.4,3.7C589,417.9,426.8,405.8,380.1,393.7c-69.1-17.9-274.5,48.9-319.5,0c-18.7-20.4-28.1-47.2-29.7-77.1
	c13.7-5.7,25.6-15.6,39.5-20.8c8.8-3.3,18.2-4.7,27.6-4c4.7,0.3,9.5,1.2,13.4,3.8s6.9,7.1,6.4,11.8c-0.3,3.2-2.1,6.1-4.1,8.8
	c-1.3,1.9-2.8,3.6-4.5,5.1c-3.4,2.7-7.5,4.4-11.9,4.7c-4.4,0.4-9.1-0.4-12.7-3s-5.6-7.5-4.2-11.8c0.6-1.7,1.6-3.3,2.9-4.5
	c2.6-2.6,6.2-4.5,9.9-4s7,3.8,6.7,7.5s-5,6.4-8,4.3c0.5-1.6-1.9-3.1-3.2-2c-1.1,1-0.7,2.9,0.4,3.9c1.2,0.8,2.7,1.3,4.2,1.1
	c2.4,0.2,4.8-0.5,6.8-1.8c4.3-3.3,2.9-11-1.8-13.7s-10.9-1.4-15.3,1.9c-2.3,1.6-4,3.8-5,6.4c-1.9,5.4,1,11.6,5.7,14.8
	s10.8,3.7,16.4,2.8c3.2-0.4,6.3-1.6,9-3.3c2.5-1.9,4.7-4.3,6.4-7c2.4-3.5,4.7-7.3,4.8-11.5c0-4.7-2.9-9.1-6.8-11.8
	s-8.6-3.8-13.3-4.3c-14.1-1.5-28.5,2.3-41.1,8.9c-9.6,5-18.5,11.7-28.5,16c-1-23.6,2.7-49.2,10.3-75l0.6-0.1c9.4-2,19-3,28.6-3.2
	c6.4-0.1,12.8,0.2,19,2c2.6,0.8,5.1,1.8,7.8,2c5.1,0.4,10.3-2.1,15.3-0.8c2.5,0.7,4.2-3.1,2.8-5.4s-4-3.1-6.4-4.1s-5-2.6-5.3-5.2
	c-0.4-3.2-4.3-4.6-7.4-5.3l-1.2-0.4c-4.9-1-9.9-1.9-14.8-1.2c-2.7,0.4-5.5,1.3-8,0.3c-3.7-1.5-4.9-6.3-7.9-8.9s-7.6-2.6-11.8-1.8
	c16.8-40.1,40.3-77.1,69.7-109.2l0,0l0.5,0.1c11.2,1.3,22.5,0.1,33.2-3.5c7.6-2.6,15.8,1,22.7,5.1s13.9,8.9,21.9,9.2
	c5.7,0.2,11.2-2.1,16.8-3.6c23.6-6.4,48.3,0.8,72.4,4.8c7.4,1.2,15.8,1.9,21.7-2.6c-1.8-4-6.1-6.2-10.4-6.9s-8.7-0.1-13,0.2
	c-15.2,0.9-30.4-2.2-43.9-9.2c-7.4-3.8-16.1-3.2-24.4-4.1s-17.4-4.2-20.3-12c-2.5-6.9-9.7-11.3-17-12s-14.6,1.8-20.9,5.6
	s-11.7,8.8-17.3,13.6c-2,1.9-4.2,3.3-6.8,4.3c-1.5,0.4-3,0.7-4.5,0.7h-0.5C236.3-16.5,398.4-44.7,511.9,211.7L511.9,211.7z
	 M515.8,220.8c0.2,0.4,0.4,0.9,0.6,1.3l3.1,7.5c-1.7,0-3.4-0.7-4.5-2C513.6,225.5,513.9,222.6,515.8,220.8L515.8,220.8z
	 M103.4,152.5l-0.6,0.3c-0.9,0.5-1.8,1-3,1.7l-2.9,1.8c-2.7,1.8-5.6,3.2-8.6,4.1c-0.9,0.3-1.9,0.4-2.8,0.3c-0.8-0.1-1.5-0.6-1.8-1.3
	l-0.2-0.6h-0.6c-1.1,0.1-1.3,1.3-0.9,2.1c1,2.2,3.9,2.7,6.9,1.8s5.4-2,9.6-4.5l2.7-1.6c2.5-1.6,5-2.9,7.8-3.9
	c3.7-1.4,7.7-2,11.7-1.7c1.9,0,3.8,0.6,5.5,1.5c1.5,0.9,2.5,2.6,2.5,4.4c-0.2,1.3-0.8,2.5-1.6,3.4c-0.5,0.8-1.1,1.5-1.8,2.1
	c-1.4,1.1-3,1.7-4.8,1.9c-1.8,0.2-3.5-0.2-5-1.2c-1.4-1-2-2.6-1.6-4.3c0.2-0.6,0.6-1.2,1.1-1.7c0.9-1,2.3-1.6,3.7-1.5
	c1.2,0.1,2.2,1.2,2.2,2.4v0.1c-0.2,0.8-1,1.4-1.8,1.3h-0.1l0,0c-0.2-0.9-1.1-1.5-2.1-1.3c-0.2,0.1-0.4,0.2-0.6,0.3
	c-0.8,0.8-0.8,2,0,2.7c0.1,0.1,0.1,0.1,0.2,0.2c0.7,0.5,1.5,0.7,2.3,0.7c1.2,0.1,2.4-0.2,3.5-0.9c2.3-1.8,1.7-5.8-0.8-7.3
	c-2.2-1.3-5.3-0.8-7.6,0.9c-1.1,0.8-2,1.9-2.4,3.2c-0.8,2.8,0.3,5.8,2.8,7.4c2.3,1.4,5.1,1.9,7.8,1.4c1.5-0.2,3-0.7,4.3-1.6
	c1.2-0.9,2.2-2,3-3.3c1.5-2.1,2.2-3.7,2.2-5.5c-0.1-2.4-1.3-4.5-3.3-5.8c-1.9-1.2-4-1.9-6.2-2C115.4,148.1,109,149.4,103.4,152.5z"
	/>
<path class="st1" d="M43.7,299.4c1,2.3,3.1,3.9,5.6,4.2c2.4,0.3,4.9,0,7.2-0.8c8.4-2.5,15.8-7,23.3-11.6c3.8-2.3,7.6-4.7,11.6-6.7
	c12.6-6.6,27-10.4,41.1-8.9c4.7,0.5,9.4,1.7,13.3,4.3s6.8,7.1,6.8,11.8c-0.1,4.2-2.4,8-4.8,11.5c-1.7,2.7-3.9,5.1-6.4,7
	c-2.7,1.8-5.8,2.9-9,3.3c-5.6,0.9-11.7,0.4-16.4-2.8s-7.6-9.4-5.7-14.8c1-2.6,2.7-4.8,5-6.4c4.3-3.3,10.6-4.7,15.3-1.9
	c4.7,2.8,6.1,10.4,1.8,13.7c-2,1.3-4.4,2-6.8,1.8c-1.5,0.1-2.9-0.3-4.2-1.1c-1.1-0.9-1.5-2.9-0.4-3.9c1.3-1.1,3.7,0.4,3.2,2
	c3,2.1,7.7-0.6,8-4.3s-3-7-6.7-7.5s-7.3,1.4-9.9,4c-1.3,1.3-2.3,2.8-2.9,4.5c-1.4,4.2,0.7,9.1,4.2,11.8s8.2,3.5,12.7,3
	c4.3-0.3,8.5-2,11.9-4.7c1.7-1.5,3.2-3.2,4.5-5.1c1.9-2.6,3.8-5.5,4.1-8.8c0.4-4.7-2.5-9.2-6.4-11.8s-8.7-3.5-13.4-3.8
	c-9.4-0.7-18.8,0.7-27.6,4c-7.3,2.8-14.1,6.8-20.9,10.9c-8,4.8-16.1,9.6-25,12.2c-4.9,1.4-11.4,1.4-13.5-3.1
	C42.7,300.8,42.7,299.5,43.7,299.4z"/>
<path class="st2" d="M274.3,351.5c-9.5,12.2-35.6,2.8-46.8-4.3s-6.9-14-6.9-17.4c0.1-3.6-0.8-7.2-2.7-10.4
	c-1.9-2.9-31.4-15.4-31.4-29.1c0-12.8,8.9-24.5,21.3-29.8c19.7-8.4,29.4-3.1,47.6,4.3s16.7,25.5,16.7,25.5S287,335.2,274.3,351.5z"
	/>
<path class="st3" d="M262.5,358.2c-40.3-2.6-78-28.5-95.7-64.8s-15.2-81.5,5.7-116s59.3-57.6,99.5-60.8c10.4-0.8,21-0.4,31,2.7
	c10.8,3.3,20.6,9.7,31.5,12.9c15,4.4,30.9,1.1,44.3-6.8c10-5.9,19-13.5,29.8-17.8c12.5-5.1,27.2-3.2,39.2,3.1s21.5,16.6,28.8,28
	c21.8,33.9,25,76.1,27.6,116.4c1.4,22.1,2.8,45-5.1,65.7c-7.2,18.8-21.3,34-36.1,47.7c-15.7,14.5-32.5,27.9-51.4,37.9
	c-36.7,19.5-79.7,25.1-121.1,21.4s-81.5-16.3-120.1-31.7c-21.6-8.6-44.8,14.5-67.5,9.7c-14-3-23.8-15.8-37.2-21.1
	c-14.3-5.7-32.1-1.1-41.9,10.8c8.6-20.8,38-29.4,56.5-16.6c9.3,6.5,21.9,6.1,32.9,3.4s21.6-7.5,32.9-8.9c16.2-2.1,32.3,2.8,48.6,4
	c19.9,1.6,39.7-2.1,59.3-5.9l63.2-12c10.2-1.9,20.5-3.9,29.7-8.8c10.4-5.5,18.6-14.4,23.4-25.1C335.2,355.1,282.4,356.6,262.5,358.2
	z"/>
<path class="st2" d="M277.3,352.5c-9.5,12.2-35.6,2.8-46.8-4.3s-6.9-14-6.9-17.4c0.1-3.6-0.8-7.2-2.7-10.4
	c-1.9-2.9-31.4-15.4-31.4-29.1c0-12.8,8.9-24.5,21.3-29.8c19.7-8.4,29.4-3.1,47.6,4.3s16.7,25.5,16.7,25.5S290,336.2,277.3,352.5z"
	/>
<path class="st2" d="M316.8,295.6c0.3,1.2,1.7,2.5,2.7,1.8c5.4-3.9,11-7.5,16.9-10.7c3.8-2,7.9-3.7,10.9-6.8
	c-3.6,1.8-7.9,1.5-11.8,0.7s-7.8-2.1-11.8-2.4c-3.4-0.2-6.8,0.4-10,1.8c-2,0.7-3.6,2.1-4.7,3.8c-1,1.8-0.7,4.4,1,5.6s4.8,0.7,6,2.5
	C316.7,293,316.5,294.4,316.8,295.6z"/>
<path class="st2" d="M368.9,177.7c8.2,14.6,18.6,25.1,12,31.8c-5.7,5.8-3.7-4.3-10.3-6.4c-4.3-1.4-13.5,1.5-21.6,1.2
	c-11.1-0.5-12.7,6.9-21,6.5c-12.9-0.6-30.4-9.1-35.8-11.1c-6.5-2.5-4.5-11.2,0-15.3c1.7-1.5,7.1,2.9,7.8,0.9
	c2.2-7.5-2.6-14.3,1.1-15.3c1.7-0.5,8,1.6,10.3,4c2.8,2.8,5.6,7.1,11.3,5.4c10.6-3.2,9.2-10.1,17.5-10.1s19.1,6.1,24.4,7.9
	S360.7,163,368.9,177.7z"/>
<path class="st2" d="M284.6,251.5c1.2,3.2,3.2,6.1,5.8,8.4c2.4,2.1,6.1,4,5.6,7.1c4.8-5,11.6-7.6,18.4-7c2.3,0.2,4.6,0.8,6.9,0.9
	c8.4,0.7,16.4-3.7,23.7-8l15.8-9.1c1.2-2.5,0.3-5.7-1.6-7.8s-4.5-3.3-7.2-4.3c-2.8-1.2-5.8-1.9-8.9-2.1c-3-0.1-6.9,0.2-8-2.6
	c-2.3-5.8-8.9-8.7-14.7-6.4c-1.8,0.7-3.4,1.9-4.6,3.4c-2.6,3.2-6.8,4.4-10.6,5.8c-4.7,1.7-9.2,3.9-13.4,6.6
	c-3.5,2.2-7.2,5.3-7.4,9.4C284.5,247.6,284.1,249.8,284.6,251.5z"/>
<path class="st2" d="M295.6,158.3c5.5,1.6,10.7-3.6,16.4-4.2c4.7-0.5,9.3,2.1,14,1.5c1.7-0.2,3.7-1.8,2.8-3.2
	c-0.5-0.9-1.7-0.9-2.7-1l-16.1-0.1c-1.8,0-3.6-0.1-5-1.2c-2.9-2.2-6.2-3.8-9.8-4.8c-4.8-1.5-9.7-2.5-14.6-2.9
	c-5.4-0.5-10.9-0.2-16.3,0.6l-6.4,8.2c-2.6,3.4-6.1,7.1-10.2,6.4c-5.5-0.9-11.1,0-16.1,2.4c5-1.7,10.4-1.7,15.4,0
	c3.1,1.1,6.1,2.8,9.2,3.7c7.9,2.4,16.4-0.1,24.1-3C285.3,158.9,290.6,156.9,295.6,158.3z"/>
<path class="st3" d="M389.5,220.7c0.2,1.1,0.8,2.1,1.5,2.9c3.6,4.2,8.1,7.8,13.5,9.2c9.9,2.6,20.5-2.8,27-10.7s9.6-18,12.5-27.9
	c0.8-2.8,2.1-6.1,4.9-6.9c5.1-1.4,8-6.7,6.6-11.8c-0.4-1.4-1-2.6-2-3.7c-2.4-2.7-7.5-3.5-9.2-0.4c-0.9,1.2-2.4,1.6-3.7,1.1
	c-1.3-0.5-2.5-1.3-3.6-2.2c-7-5.2-16.3-5.5-25-5.6c-2.8-0.1-5.5,0.1-8.2,0.6c-5.5,1.4-10,5.4-15.3,7.4c-7,2.5-14.8,1.3-20.7-3.2
	c6.2,9.9,11.4,20.5,15.5,31.4C383.6,203.1,388.8,214.5,389.5,220.7z"/>
<path class="st2" d="M249.4,181.7c-1.4-3.5-3.6-7.6-7.4-7.8c-1,0-2.1,0.2-3.1,0.4c-5.4,0.9-12.1-5.9-14.2-6.5s-4.5,3.3-7.1,4.4
	s-5.3,3-5.7,5.8c-0.3,2.2,1,4.6,0.2,6.7c-1.1,3-5.7,3.5-6.9,6.5c-1.1,2.6,1.1,5.3,3.1,7.3c4.6,4.3,10,8.8,10.4,15.1
	c0.2,2.3,2.4,3.9,4.3,5.3c7.1,5,13.4,11,18.5,18c-1.2-1.6-0.6-4,0.7-5.5s3.1-2.6,4.6-3.9c3-2.6,4.9-6.2,8-8.6c3.9-3,9.1-3.4,14-4.3
	s10.1-2.6,12.5-6.9c0.3-0.4,0.4-0.9,0.4-1.4c-0.1-1.4-1.9-1.7-3.1-2.4c-2.1-1.4-2-4.5-2.7-7c-1.1-3.6-4.4-6.1-8-7.1s-7.4-1-11.1-0.8
	S250.9,185.2,249.4,181.7z"/>
<path class="st4" d="M456.4,324.2c-2.6,0.9-5.5,0.2-7.3-1.9c-0.9-1-2.6-0.4-3.6,0.5s-2,2.1-3.4,2.1c-1.4-0.2-2.5-1.4-2.6-2.8
	c0-1.4,0.3-2.8,0.9-4c-1.9,0.5-3.9,0.6-5.8,0.1c-1.9-0.6-3.4-2.5-2.9-4.4c0.2-0.7,0.6-1.3,1.1-1.8c1.7-1.7,4-2.6,6.4-2.3
	c1.1,0.1,1.5-1.5,1.4-2.6c-0.2-2.2-0.5-4.4,0.1-6.5s2.6-4,4.7-3.7c2.8,0.4,3.9,3.7,4.2,6.5c0.1,0.9,0.9,2.2,1.6,1.6
	c2.5-1.9,6-1.8,8.4,0.2c0.9,0.8,1.5,1.9,1.5,3.1c-0.2,1.4-1,2.6-2.2,3.3c-1.1,0.8-2.4,1.3-3.5,2.1c2.4,1.6,4.9,4,4.4,6.9
	C459.4,322.2,458.1,323.6,456.4,324.2z M445.8,314.9l0.2,0.8c-2,1-2.6,3.5-3,5.8c0.6,0.5,1.4-0.1,1.9-0.8c0.8-1.4,1.5-2.9,2.1-4.5
	c0.6-1.6,1.8-2.8,3.3-3.4c0.7-0.2,1.4-0.2,2-0.3c1.4-0.4,2.7-1.1,3.9-2c0.7-0.4,1.3-1,1.6-1.8c0.6-1.7-1.5-3.4-3.3-3.1
	s-3.1,1.9-4.1,3.3s-2.1,3.1-3.8,3.8c-0.5,0.2-1,0.3-1.5,0.2c-0.5-0.2-0.8-0.7-0.7-1.2c0.2-0.5,1-0.6,1.2-0.2
	c0.4-0.2,0.6-0.7,0.4-1.2l-6.4,1.1c-1.2,0.1-2.3,0.5-3.3,1.1c-1,0.7-1.5,1.9-1.1,3.1C438.1,317.8,442.2,314,445.8,314.9L445.8,314.9
	z M451.1,315.1c-1.5,0.3-2,2.2-1.4,3.6c0.7,1.3,1.7,2.4,2.9,3.3c1.2,0.8,2.8,0.6,3.6-0.6c0,0,0.1-0.1,0.1-0.1c0.7-1.3,0.6-2.9-0.3-4
	c-0.9-1.1-2.2-1.9-3.7-2.1C452,315,451.6,315,451.1,315.1L451.1,315.1z M447.3,305.6c-0.1-2.1-0.3-4.5-2-5.9
	c-0.5-0.4-1.1,0.3-1.4,0.9c-0.5,1.6-0.8,3.2-0.7,4.9c0,0.8,0.2,1.7,0.6,2.4c0.4,0.7,1.3,1.1,2.1,0.9
	C447.1,308.4,447.3,306.9,447.3,305.6z"/>
<path class="st2" d="M445.2,136.7l-3-2.1c1.6-1,3.7-0.8,5.1,0.4c1.4,1.3,2.2,3,2.2,4.9c0.1,1.4-0.2,3-1.4,3.8s-2.6,0.4-4,0l-3.2-0.9
	c-1.1-0.3-2.1,0.8-2.7,1.8s-1.2,2.3-2.3,2.4c-1.5,0.2-2.5-1.6-3.6-2.7c-3.2-3.2-9.6-0.9-12.6-4.4c-1.2-1.6-1.5-3.7-0.7-5.5
	c0.8-1.8,2.3-3.2,4.2-3.8c0.8-0.2,1.5-0.6,2.1-1c0.7-0.5,0.9-1.3,0.6-2.1c-0.9-1.5-1.6-3.2-1.9-5c-0.3-1.8,0.5-3.6,2.1-4.6
	c1.6-0.7,3.5-0.4,4.9,0.8c1.3,1.2,2.3,2.6,2.9,4.3c0.2,0.5,0.5,0.9,0.9,1.2c0.4,0.3,1.1,0.2,1.2-0.3c0.7-2.4,4-3.4,6.2-2.3
	s3.4,3.8,3.3,6.3c0,0.9-0.2,1.8-0.7,2.6c-0.4,0.5-0.8,0.9-1.4,1.3c-1.5,1.2-3.1,2.2-4.7,3.2c0,3.2,2.4,6,5.5,6.5
	c1,0.3,2.1-0.1,2.8-1C448,139.1,446.5,137.6,445.2,136.7z M439.5,131.6c2.5-0.3,4.3-2.6,3.9-5.1c-0.1-1.1-0.7-2.2-1.6-2.9
	c-0.2-0.2-0.6-0.4-0.9-0.4c-0.4,0-0.8,0.2-1.1,0.4c-2.5,1.5-5.3,3.6-5.2,6.5c0.1,3.1-1,6.2-2.9,8.6c-0.7,0.9-0.2,2.2,0.6,3
	c0.9,0.7,1.7,1.5,2.3,2.4c0.5,0.6,1.3,0.6,1.8,0.2c0.1-0.1,0.1-0.1,0.2-0.2c0.5-0.6,0.7-1.4,0.6-2.2c0.1-2.9-0.1-5.8-0.7-8.7
	c-0.1-0.7,0.4-1.3,1-1.4C438.2,131.6,438.9,131.6,439.5,131.6L439.5,131.6z M432,133.5c-1,0.6-2.2-0.5-3.2-1.1
	c-2.8-1.7-6.9,0.5-7.7,3.7c-0.2,1.3,0.5,2.6,1.8,3.1c1.2,0.5,2.5,0.7,3.8,0.7c0.9,0.1,1.7-0.1,2.5-0.5c0.4-0.4,0.7-0.9,1-1.4
	C430.8,136.6,431.5,135,432,133.5z M428.5,119.9c-1.1,0-1.9,0.8-2.1,1.9c-0.1,1,0,2.1,0.5,3c1.2,3.2,3,6.1,5.4,8.5
	c0.6-4.3,0.9-9.3-2.1-12.4C429.7,120.3,429.1,120,428.5,119.9L428.5,119.9z"/>
<path class="st5" d="M218,235c-2.8,1.6-4.5,4.6-4.4,7.8c0,1.4,0.3,3-0.9,3.8c-0.9-3.3-0.5-6.9,1.2-9.9c0.4-0.8,1-1.4,1.7-1.8
	C216.4,234.4,217.3,234.4,218,235z"/>
<circle class="st6" cx="436" cy="197.5" r="3.5"/>
<path class="st4" d="M325.4,308.4c0.2-1.2,0.9-2.3,2-2.9c2.5-1,4.5,2.9,7.2,3.1c1.5,0.1,2.8-0.9,4.3-1.1c2.4-0.3,4.6,1.4,4.9,3.9
	c0,0.1,0,0.2,0,0.3c0,2.1-1.5,3.9-1.7,6c-1.4-0.3-2.8,0.3-3.6,1.5c-0.7,1.2-0.3,2.8,0.9,3.6c1.1,0.5,2.4,0,2.9-1.1
	c0.1-0.2,0.1-0.4,0.2-0.6c-0.1-0.7-0.3-1.5-0.5-2.2c-0.1-0.7,0.4-1.7,1.1-1.6c2,1.3,2.5,3.9,1.3,5.9c-0.6,1-1.7,1.7-2.9,1.9
	c-0.5,0-1,0.1-1.5,0.3c-0.8,0.4-1,1.4-1.3,2.3c-0.6,1.7-1.8,3-3.5,3.6c-1.7,0.6-3.5,0.1-4.7-1.2c-1.1-1.4-1.1-3.4,0.2-4.7
	c-0.8-0.4-1.6,0.4-2.3,0.9c-1.8,1.2-4.6,0-5.4-2.1c-0.7-2.2,0.1-4.5,1.8-5.9c0.5-0.5,1.2-1,1-1.7
	C324.9,313.9,324.8,311.1,325.4,308.4z M333.5,318.2c-0.7,2.7-1.3,5.5-1.7,8.3c-0.2,0.8,0,1.7,0.5,2.3c0.8,0.5,1.8,0.3,2.5-0.4
	c1.9-1.7,2.3-4.5,0.9-6.6c-1-1.4-0.1-3.4,1.2-4.5s2.9-2,3.8-3.4s0.5-3.9-1.2-4.2c-1.3-0.2-2.7,0.2-3.7,1.1c-0.8,1-1.2,2.1-1.4,3.3
	C334.1,315.6,333.8,316.9,333.5,318.2L333.5,318.2z M331.2,316.2c1.2-0.7,1.5-2.4,1.1-3.8c-0.4-1.6-1.2-3-2.4-4.1
	c-0.3-0.3-0.6-0.5-1-0.5c-1-0.1-1.5,1.2-1.7,2.3c-0.3,1.5-0.3,3.1,0.2,4.6C328,316,329.8,317,331.2,316.2L331.2,316.2z M325.4,323.6
	c0.9,1.1,2.6,0.4,3.5-0.6s1.5-2.4,2.6-3.1c0.5-0.3,0.1-1.2-0.5-1.3c-0.6,0-1.2,0.2-1.7,0.5c-1.1,0.4-2.2,0.9-3.2,1.4
	C325.3,321.3,324.7,322.7,325.4,323.6z"/>
<path class="st2" d="M455.5,180.9c1-3.1,0.3-6.6-1.9-9c-2.4-2.7-7.5-3.5-9.2-0.4c-0.9,1.2-2.4,1.6-3.7,1.1c-1.3-0.5-2.5-1.3-3.6-2.2
	c-7-5.2-16.3-5.5-25-5.6c-2.8-0.1-5.5,0.1-8.2,0.6c-5.5,1.4-10,5.4-15.3,7.4c-7,2.5-14.8,1.3-20.7-3.2c2.3,3.7,8.7,15.6,8.7,15.6
	s-1.1-5.6,0.6-6.1c3.2-0.9,7.2,1,10.3,0.5c11.6-1.6,17.7-7.3,22.2-7.7C440.6,168.6,452.4,188.8,455.5,180.9z"/>
<path class="st2" d="M463,360.5c-15.7,14.5-32.5,27.9-51.4,37.9c-36.6,19.5-79.6,25.1-121.1,21.4s-81.5-16.3-120.1-31.7
	c-10.9-4.3,87.3,26.7,166,19.2C413.1,399.8,470.3,353.7,463,360.5z"/>
<circle class="st6" cx="398" cy="217" r="5"/>
<path class="st3" d="M240.9,244.5c2.6,4.8,7,8.5,9.4,13.5c2.8,5.9,36.7,60.1,37.9,60.3c2.5,0.4,6.6-3.6,6.2-2.3
	c-0.2-0.3,38.6,21.2,30.7,26.5c-9,6-27.7,12.5-51.2,12.5c-9.1-2-14.8-10.9-19.4-18.9c-14.1-24.4-28.3-49-37.9-75.6
	c-1.1-3.1-2.3-6.4-4.9-8.4c-2.2-1.7-5-2.1-7.7-2.4c-6.8-0.7-13.7,0-20.5,0.4c-7.9,0.4-7.9-3.5-5.8-4.7c3.3-1.8,6.9-2.5,9.5-4.9
	c-3.6,1.6-5,2.4-8.9,2.9s-2.1-2.7-1.9-4.2c-0.6,2.4-4,3.9-5.9,2.1c-2.5-2.4,1-7.8,3.6-9.3c0.4-0.2,14.9-7.7,15.9-8.3
	c-1.3-0.3-14,8.6-18.1,7.3c-2.7-0.9,0.1-5.6,2.8-8.6c8.1-9.2,6-6,9-9.1c1.7-1.7,4.4-1.6,6.7-1.4c3.6,0.3,17.9-0.8,29.7,7
	C231,226.2,239.7,242.3,240.9,244.5z"/>
<path class="st5" d="M464.6,57.7c-2,0.6-3.5,2.1-4.1,4c-0.3,1.4-0.4,2.9-0.1,4.3c0.2,2.4,0.7,4.9,2.3,6.7c1.8-1.6,1.8-4.4,1.4-6.8
	c0-0.3-0.1-0.7-0.2-1c-0.4-2-0.8-4.1-0.1-6.1c1.9,3,2.4,6.6,1.6,10l5.5-2.3c1.1-0.3,2.3,0.1,2.9,1.1c0.6,1,0.9,2.1,1,3.2
	c0.4,2.6,0.5,6-1.9,7.3c-0.7,0.4-1.6,1.2-1,1.6c1.9,1.5,2.4,4.1,1.1,6.2c-1.4,2-4,2.7-6.2,1.7c-2.2-1.1-3.4-3.4-3.1-5.8l-4.9,3.1
	c-0.4,0.3-0.9,0.5-1.5,0.5c-0.6-0.1-1.1-0.8-1.4-1.3c-1.2-2.3-2.5-5.1-1.2-7.4c-2.1-0.5-3.9-1.9-4.9-3.9c-0.9-2-0.6-4.4,0.7-6.1
	c1.5-1.7,3.9-2.1,5.9-1c0.9,0.5,1.5-0.9,1.5-1.9c0.1-2.8,1-5.8,3.4-7.1C462.7,56.2,464.6,56.5,464.6,57.7z M468,76
	c1.8,1,4,0.4,5-1.4s0.4-4-1.4-5c-0.5-0.3-1.1-0.5-1.7-0.5c-2.6-0.1-4.5,2.6-5.5,5c-0.4,1-1.9,0.7-2.8,0.2s-2.3-0.9-2.9-0.1
	c-0.8,1.1-2,2-3.4,2.3c0.7,0.7,1.2,1.6,1.4,2.6c0.1,0.4,0.3,0.9,0.4,1.3c0.6,1.3,2.5,2.4,3.4,1.3c1.6-2,3.5-3.8,5.5-5.3
	C466.5,76.1,467.4,75.7,468,76z M453.8,67.7c-1.1-0.2-2,0.6-2.2,1.6c-0.1,1,0.2,2.1,0.8,2.8c0.3,0.4,0.6,0.7,1,1
	c1.1,0.5,2.4,0.5,3.4,0c0.5-0.2,0.9-0.4,1.3-0.6c0.6-0.3,1.3-0.6,2-0.8C458.5,69.7,456.3,68.3,453.8,67.7L453.8,67.7z M471.5,84.3
	c0.4-0.9,0.2-1.9-0.4-2.6c-0.6-0.7-1.4-1.3-2.2-1.7l-1.3-0.8c-0.5-0.4-1.1-0.5-1.6-0.4c-0.9,0.4-0.8,1.7-0.4,2.6
	c0.4,1.4,1.2,2.6,2.3,3.6C469,85.8,470.9,85.7,471.5,84.3L471.5,84.3z M367.6,75.8c0.8,0.8,0.8,2,0.1,2.8c-0.7,0.7-1.8,0.7-2.5,0
	c-0.1-0.1-0.1-0.1-0.2-0.2c-0.2-0.5-0.4-1.1-0.3-1.6c0-0.2,0-0.4,0-0.5c-0.2-1-0.5-1.9-0.8-2.9c-2-1.7-2.8-4.4-3.2-6.9
	c-0.4-1.9-0.3-3.9,0.3-5.8c0.8-1.8,2.7-3.2,4.6-2.8c2.2,0.5,3.3,2.9,4,5.1c0.6,1.7,1,4.1-0.6,5.1c-0.3-2.3-0.6-4.8-2.1-6.7
	c-0.9-1.2-2.8-1.9-3.8-0.8c-0.4,0.5-0.6,1.1-0.6,1.8C362.2,67.3,364,72.3,367.6,75.8z M364,87.3h-0.3c-2.6,0.4-5.3,0.8-7.3-1.5
	s-2.8-7.7-1.7-9.1c1.6-2,4.1-3,6.7-2.9c0.1,0.5,0.1,1,0,1.4c-0.1,0.5-0.1,1,0,1.5c-1.8-0.9-4.1-0.3-5.2,1.4
	c-0.2,0.2-0.2,0.4-0.2,0.7c0.4,1.9,1.3,3.6,2.6,5.1c1.4,1.3,3.7,1.9,5.2,0.7c0.5-0.4,0.8-0.9,1.1-1.4l0,0c0.2-0.4,0.5-0.8,0.8-1.1
	c0.8-0.8,2.3-1,2.8-0.1c-1.2,1.2-2.3,2.4-3.3,3.7c-0.2,0.3-0.5,0.8-0.2,1.1c0.6,0.8,0.9,1.7,0.9,2.7c0,0.3,0.1,0.6,0.1,0.8
	c0.2,1.2,1,2.6,2.2,2.6c1,0,1.8-1,2.3-1.9l2-3.4c0.6,0.1,1,0.7,0.9,1.3c-0.1,0.6-0.3,1.1-0.6,1.6c-0.9,1.5-1.9,3-3,4.4
	c-0.3,0.5-0.7,0.8-1.2,1c-0.6,0.1-1.1-0.1-1.6-0.4C364.3,93.6,363.2,90.3,364,87.3z M375.3,66.1c0.9-0.5,2-0.4,2.7,0.3
	c1.4,3.7,0.5,7.9-2.4,10.6l-0.2,0.2c-0.5,0.4-0.9,0.9-1.1,1.4c-0.2,0.7,0.4,1.6,1.1,1.4c0.5-0.2,0.6-0.7,0.8-1.2l0,0l0.1-0.3
	c0.5-1.3,1.7-2.1,3.1-2c3.2,1.2,5.1,4.5,4.5,7.9c-0.6,4.7-2.9,4.4-3.7,4.3h-0.2c-2.2,0.1-3.5-2.3-4.6-4.3l-0.1-0.1
	c-0.5-0.9-1.7-1.9-2.5-1.2c-0.3,0.3-0.4,0.7-0.5,1.1c-0.1,0.6,0,1.2,0.3,1.8c0.4,0.5,1.4,0.5,1.5-0.1c0.2,1.9,1.2,3.6,2.8,4.6
	c1.6,1,3.7,1,5.3-0.1c1.1-0.8,1.8-2,2.3-3.2c0.5-1.1,0.8-2.3,0.8-3.6c0.1-3-1.8-5.8-4.2-7.5c-0.6-0.5-1.4-1-1.3-1.8l0.4-3.5
	c0.3-1.7,0.2-3.4-0.3-5c-0.6-1.6-2.2-2.9-3.9-2.6c-1.3,0.3-2.1,1.4-3,2.5c-0.6,1.1-1.6,1.9-2.7,2.5c-1.3,0.5-1.3,2.2-1.2,3.6
	c0,0.5,0.2,0.9,0.4,1.3c0.3,0.4,0.8,0.5,1.2,0.2c-0.1-1.9,1.2-3.6,2.4-5.2C373.6,67.3,374.4,66.6,375.3,66.1L375.3,66.1z
	 M260.3,141.1c2.5-2.2,5.9-2.9,9.2-3.3c11.7-1.2,23.4,1.2,33.7,6.9l0.6,0.3c1.8,1.2,3.8,2,5.9,2.2c0.7,0,1.3,0,2-0.1
	c0.6-0.1,1.2-0.1,1.7-0.1c1.3,0.1,2.7,0.2,4,0.4c2.5,0.6,5.1,0.6,7.6,0c4-1.1,4.6,0,5.1,2.1s-1.1,4.4-3.1,5.3
	c-2.1,0.8-4.3,1-6.5,0.5c-0.6-0.1-1.3-0.2-1.9-0.3l0,0c-1.5-0.3-3.1-0.5-4.7-0.6c-3.1,0-6.2,1.1-9.2,2.2c-4.3,1.6-8.5,3.1-12.5,1.4
	c-1.4-0.6-3.1-0.2-4.5,0.3l-15.7,4.7c-3.9,1.2-7.9,2.3-12,1.9c-3.2-0.4-6.2-1.7-9.1-3.1s-6-2.8-9.2-3.1c-2.8-0.2-5.5,0-8.2,0.6
	c-3.5,0.6-7,1.1-10.3,0.1c0.2-0.9,1.1-1.3,2-1.6c5-1.9,10.2-3.8,15.5-4.2c0.9-0.1,1.8-0.1,2.7-0.1c3.3-0.1,6.6-0.2,9.2-2.1
	c1.9-1.4,3.1-3.4,4.3-5.5C257.6,144.2,258.8,142.6,260.3,141.1L260.3,141.1z M294.7,156.3c3.3,0.9,6.4-0.5,9.6-1.9
	c2.1-1.1,4.4-1.9,6.8-2.3c2.3-0.1,4.6,0.1,6.8,0.8c2.3,0.7,4.7,0.9,7.1,0.7c1.7-0.2,3.7-1.8,2.8-3.2c-0.5-0.9-1.7-0.9-2.7-1
	l-16.2-0.1c-1.8,0-3.6-0.1-5-1.2c-2.9-2.2-6.2-3.8-9.8-4.8c-4.8-1.5-9.7-2.5-14.6-2.9c-5.4-0.5-10.9-0.2-16.3,0.6l-6.3,8.2
	c-2.6,3.4-6.1,7.1-10.2,6.4c-5.5-0.9-11.2,0-16.2,2.5c5-1.7,10.4-1.7,15.4,0c1.5,0.5,2.9,1.1,4.3,1.8l0,0c1.6,0.8,3.3,1.4,5,2
	c7.9,2.4,16.4-0.1,24.1-3l0.3-0.1C284.5,156.8,289.7,154.9,294.7,156.3L294.7,156.3z M249.7,223.7c2.8-3.4,5.5-6.6,9.7-6.8
	c6.5-0.3,12.8-2.5,18-6.4c1.4-0.8,2.4-2.1,3-3.5c0.5-1.5-0.2-3.4-1.8-3.8c-3-0.7-4.1-3.8-5.2-6.8c-0.4-1-0.7-1.9-1.1-2.8
	c-1.8-3.8-5.4-6.5-9.5-7.3c-1.6-0.2-3.1-0.3-4.7-0.2l0,0c-1.4,0.1-2.8,0-4.2-0.2c-2.9-0.4-6.1-2.1-6.6-5c-1.4-7.4-9.8-12.6-17-10.6
	c-2.1,0.6-3.8-0.8-5.6-2.1c-1.4-1.1-2.9-2.2-4.6-2.4c-1.5-0.1-2.9,0.2-4.3,0.8c-3.1,1.1-6.3,2.4-8.7,4.6s-4,5.8-3,8.9
	c0.6,1.9-0.9,3.8-2.6,4.9c-0.3,0.2-0.7,0.4-1,0.7c-1.4,0.7-2.6,1.8-3.4,3.1c-1,2.1-0.1,4.7,1.2,6.6c1.6,2.2,3.4,4.2,5.3,6
	c3.7,3.7,7.3,7.3,7.3,12.3l-20.7-1.6c-2.4-0.2-5-0.3-6.7,1.4c-0.6,0.6-1.2,1.1-1.9,1.6c-0.9,0.6-1.7,1.3-7.1,7.4
	c-2.6,3-5.5,7.7-2.8,8.6s9.1-2.6,13.6-5.1l0,0c2.3-1.3,4.1-2.3,4.5-2.2c-0.7,0.4-7.7,4.1-12.2,6.4L174,232c-2.6,1.4-6.1,6.9-3.6,9.3
	c1.9,1.8,5.3,0.3,5.9-2.1c-0.1,0.4-0.1,0.7-0.2,1.1c-0.4,1.6-1,3.6,2.2,3.2c2.8-0.3,5.4-1.1,7.9-2.4l0.6-0.3l0.5-0.2
	c-1.7,1.4-3.6,2.4-5.7,3.1l0,0c-1.3,0.5-2.6,1.1-3.8,1.7c-2.2,1.2-2.2,5.1,5.8,4.7l4-0.2l0,0c5.5-0.5,10.9-0.6,16.4-0.1
	c2.7,0.3,5.5,0.8,7.7,2.4c2.6,2,3.8,5.3,4.9,8.3l0,0c9.6,26.6,23.8,51.2,37.9,75.6c4.7,8.1,10.3,16.9,19.4,18.9
	c-24.1-29.4-43-62.8-55.6-98.7c-1.4-4.1-5.4-7-9.6-8.4s-8.7-1.3-13.1-1.3c-2.4,0-4.9,0.3-7.2,0.8c-3,0.7-6.2,0.9-9.3,0.5
	c-2.9-0.4-0.4-1.4,3.1-2.9s8.2-3.4,9.4-5.5c-1.4-2.2-4.8-1.2-7,0.2s-8.9,3.6-7.3,0.8c2-3.4,5.6-5.3,9.2-7.2l0,0
	c1.1-0.6,2.3-1.2,3.4-1.8s0.3-2.8-1.1-3s-2.6,0.7-3.7,1.6c-1.4,1.2-2.7,2.4-4,3.8c-3.3,3.4-6.9,6.9-9.1,5.8
	c-4.8-2.4,10.4-10.4,18.7-14.9l0,0l1.5-0.8c-1.9-3.3-7-1.7-9.9,0.8l-0.1,0.1l-0.3,0.3c-2.8,2.4-6,5.2-9.4,4c-2-0.8,0.9-3.1,3.8-5.5
	c1.3-1,2.6-2.1,3.7-3.4c1.3-1.7,3-3.2,4.9-4.3c2.3-1.3,5.1-1.4,7.7-1.5c6.6-0.1,13.2,0.6,19.7,1.9c9.4,6.3,17.5,14.4,23.7,23.8
	c14.5,22,28.7,44.1,42.9,66.3l0.9,1.4c2.1,3.5,6.8,11.3,8.3,11.5c1.7,0.2,3.4-1.2,4.6-2.2l58.1-36.1c9.4-5.9,19.9-12,30.9-10.6
	c17.9,2.3,36,4.4,53.8,2s35.7-9.8,47.2-23.6c-21.2,16.7-48,24.8-75,22.4c-3.6-0.3-7.3-0.9-10.9-1.4l0,0c-11-1.6-22.1-3.1-32.5,0.4
	c-2.7,0.9-5.4,2.1-8.1,3.3c-7.7,3.5-15.4,6.9-22.5,3.2c-6.4-3.4-14.4-1.6-20.8,1.8s-14.4,8.2-8.8,14.2s-6.1,3.2-12.6,0
	s-8-14.4-1.4-18.9c-3,3.4-2.9,10.1,1.5,11.3s8.9-1,12.5-3.7c4-3.1,3.5-7.1,3-10.7c-0.5-3.8-1-7.1,4.3-8.4c3.6-0.9,7.4-0.6,11.1-0.3
	c3.4,0.4,6.8,0.3,10.2-0.1c5.5-1,10.2-4.1,15-7.3c2.9-2,5.9-3.9,9.1-5.4c8.3-3.8,17.7-4,26.9-4.2h1.6c16.8-0.4,33.8-1.8,49.2-8.4
	s29.1-19,33.5-35.1c6.1-22.8-7.4-46.3-30.2-52.4c-5-1.4-10.3-1.8-15.5-1.2c-7.2,0.7-14.1,3.2-21,5.8c-9.4,3.4-18.8,6.8-28.6,5.6
	c-14.2-1.9-25.2-13.1-34.9-23.7c11.7,1.8,23.6,0.2,34.4-4.4c5.4-2.5,10.7-5.4,15.7-8.6l0,0c7-4.3,14-8.6,21.8-10.8
	c19.4-5.7,41.1,2.5,55.2,17s21.9,34.1,25.9,54c2.6,12.9,3.9,26.1,5.1,39.2l0,0c0.7,7,1.3,14,2.2,21c0.4,3.5,0.9,7.1,1.4,10.6l0,0
	c2.9,20.8,5.9,42-1.1,61.5c-6,16.7-18.5,30-30.8,42.8c-16.7,17.3-33.9,34.7-55,46.2c-19.5,10.7-41.6,15.9-63.6,19.2
	c-17.3,2.6-34.8,4.1-52.2,3.2c-36.5-1.9-71.6-14-105.9-26.5c-12.3-4.5-25.2-9.1-38.3-7.6c-6.7,0.8-13.2,3.2-19.7,5.6l0,0
	c-9.6,3.5-19.1,7-28.9,5.2c-9-1.7-16.4-7.6-23.7-13.5s-14.9-12-24.1-13.6c8.2-1.4,16.3,2.4,24.3,6.1c9.2,4.3,18.2,8.5,27,4.6
	c32-14.2,68.8-9.5,103.5-4.6l42.6,6c6,0.8,11.9-0.5,17.8-1.9c3.5-0.9,7-1.5,10.5-2c9.1-0.9,18.2,1.1,27.2,3.2
	c4.8,1.1,9.6,2.2,14.4,2.9c36.1,4.9,74.1-18.1,86.5-52.4c1.6-4.5,2.9-9.2,4.2-14c3.8-13.7,7.5-27.5,18.9-35.2
	c1.2-0.8,2.5-1.5,3.8-2.3l0,0c4-2.3,8.1-4.7,9.6-9c-10.9,3.6-20.2,11-26.1,20.9c-4.1,6.9-6.4,14.6-8.7,22.3l0,0
	c-1,3.5-2.1,7-3.3,10.5c-11.3,31.9-42,58.4-75.7,56.5c-6.8-0.4-13.5-1.9-20.1-3.4c-8.3-1.9-16.6-3.7-25.1-3.4
	c-4.7,0.3-9.4,0.9-14.1,1.8c-3.8,0.7-7.6,1.4-11.5,1.7c-12.7,1-25.3-1.9-37.7-4.8c27.9-6.9,56.2-12.3,84.7-16.1
	c21-2.8,45.1-6.7,55.9-24.9c7.7-13,20.1-22,32.6-31c12.7-9.2,25.5-18.4,33-31.8c-36,36.1-87.7,67.1-162.4,82.3l-1.5,0.3l1.5-0.3
	c5.2-1,11.1-1.8,17.5-2.6c24.7-3.2,57.1-7.5,84.4-29.7c-4.8,10.8-13,19.6-23.4,25.1c-9.2,4.8-19.5,6.8-29.7,8.8l-63.2,12
	c-19.6,3.7-39.4,7.4-59.3,5.9c-5.5-0.4-11-1.3-16.5-2.1c-10.7-1.6-21.4-3.3-32-1.9c-7,0.9-13.7,3-20.4,5.2l0,0
	c-4.2,1.3-8.3,2.7-12.5,3.7c-11.1,2.7-23.6,3.1-32.9-3.4c-18.5-12.8-47.9-4.2-56.5,16.6c9.8-11.9,27.5-16.4,41.9-10.8
	c5.8,2.3,11,6.1,16.2,9.8c6.6,4.8,13.1,9.6,21,11.2c10.7,2.2,21.5-1.7,32.2-5.6c12-4.4,23.9-8.7,35.3-4.2
	c38.6,15.3,78.8,28,120.1,31.7s84.4-1.9,121.1-21.4c18.8-10,35.7-23.4,51.4-37.9c14.8-13.7,28.9-28.9,36.1-47.7
	c7.9-20.7,6.6-43.6,5.1-65.7c-2.6-40.2-5.8-82.4-27.6-116.4c-7.3-11.4-16.8-21.7-28.8-28s-26.7-8.2-39.2-3.1
	c-6.9,2.8-13.2,7-19.4,11.2c-3.4,2.3-6.8,4.6-10.4,6.7c-13.5,7.9-29.4,11.2-44.3,6.8c-5.5-1.8-10.9-4-16.1-6.6
	c-5-2.4-10.1-4.6-15.3-6.3c-10-3.1-20.6-3.5-31-2.7c-40.2,3.2-78.6,26.2-99.5,60.8s-23.4,79.7-5.7,116s55.5,62.2,95.7,64.8
	c-5-3.1-10.8-4.3-16.6-5.4l0,0c-3.3-0.6-6.5-1.4-9.8-2.3c-8.8-2.8-17.6-10.8-15.4-19.8c1.9-7.7-4.9-14.7-11.7-18.6
	c-1.3-0.8-2.7-1.5-4.1-2.2c-5.7-3-11.6-6.1-14.6-11.7c-6.6-12,3.7-26,13.2-35.8c-10.8,6.2-18.5,16.6-21.3,28.8
	c6.5,11.2,16.5,19.9,28.5,24.7c6.1,8.1,9,18.2,8.2,28.3c-34.8-21.3-58.6-59.8-62-100.4c-0.8-9.7-0.4-19.8,3.6-28.7
	c9.1-19.9,18.5-40,33.2-56.2c40-44.1,108.2-47.4,152.3-7.4c7.2,6.5,13.5,14,18.7,22.3c-6.5-3.6-13.1-7.2-20.4-8s-15.5,1.8-19.1,8.3
	c-2.7,4.9-10.1,1-14-3s-11.8-7.2-13.8-2l2,11.4c-7.5-3.7-16.7,7.7-11.5,14.3c1.8,2.2,4.4,3.6,7,4.8c14.4,7,31.2,14.1,45.9,7.6
	c7.6-3.3,15.7-5,24-4.9c2-0.1,4,0.3,5.8,1.2c1.3,0.9,2.4,2,3.3,3.3c0.6,0.8,1.3,1.6,2.1,2.3c1.9,1.8,5.5,2.3,6.7,0
	c3.1,5.5,6.3,11.2,7,17.5s-1.4,13.4-6.8,16.6s-14,0.5-15.1-5.7c-1-6-7.2-7.5-13.6-9c-5.4-1.3-11.1-2.7-14-6.9
	c-3.1-4.4-9.4-5.3-14.6-3.8c-3.8,1.1-7.2,3.1-10.6,5.2c-1.2,0.8-2.5,1.5-3.7,2.2c-2,1.1-4.1,2.1-6.1,3.1l0,0
	c-5.2,2.6-10.5,5.1-14.4,9.3c-5.5,5.9-7.1,16.6-0.5,21.2c2.5,1.7,21,16.9,10.8,22c-15.2,7.7-11-6-9.4-8.5
	c-7.3,0.9-10.7,11.1-6.7,17.3s12.9,10.1,20.1,8.6c3.6-0.8,2.5-2.7,1.3-4.9s-2.7-5,0.3-7.1c-0.6,2.2,1.6,3,4.1,3.8
	c1.9,0.7,4,1.4,5,2.9c1.8,2.7-1,6-3.5,8.1l-18.4,15c-0.2,0.1-0.6,0.3-0.9,0.6c-1.4,0.8-3.3,2-4.7,1.8c-1.2-0.2-13.5-21.8-16-32.8
	c-0.3-1.3-0.5-2.6-0.7-3.9l0,0c-0.8-4.7-1.6-9.4-5.4-12.4c-2-1.4-4.1-2.6-6.3-3.6c-3.9-1.9-7.7-3.8-9.5-7.6c-1.4-2.6-3-5.1-4.9-7.3
	c-1.6-1.9-3.1-4-4.4-6.2c-2.6-4.8-2.7-12,2.1-14.6c2.5-1.3,4.5-3.8,6.5-6.1L249.7,223.7z M237,173c3.8,0.1,6,4.3,7.4,7.8
	s3.8,7.6,7.6,7.4s7.5-0.2,11.1,0.8s6.9,3.6,8,7.1c0.2,0.7,0.4,1.4,0.5,2.2c0.4,1.9,0.7,3.8,2.2,4.8c0.4,0.2,0.7,0.4,1.1,0.6
	c1,0.4,1.9,0.9,2,1.8c0,0.5-0.1,1-0.4,1.4c-2.4,4.3-7.7,6-12.5,6.9c-0.7,0.1-1.4,0.2-2.1,0.4l0,0c-4.2,0.7-8.5,1.4-11.9,4
	c-1.6,1.3-3.1,2.9-4.4,4.6c-1.1,1.4-2.3,2.8-3.6,4c-0.5,0.5-1.1,0.9-1.6,1.3c-1.1,0.7-2.1,1.6-2.9,2.6c-1.3,1.6-1.9,3.9-0.7,5.5
	c-5.1-7-11.4-13-18.5-18c-1.9-1.3-4.1-2.9-4.3-5.3c-0.4-5.8-5-10.1-9.3-14.1l0,0l0,0l-1.1-1c-2.1-1.9-4.2-4.7-3.1-7.3
	c0.6-1.5,2-2.4,3.4-3.2s2.9-1.8,3.4-3.3c0.3-1.2,0.3-2.5,0-3.8c-0.2-1-0.3-2-0.2-3c0.2-1.7,0.9-2.1,2.6-3.2c1.8-1.1,3.4-2.3,5-3.7
	c3.4-2.9,8.4-0.7,12.6,1.2c2.7,1.2,5.1,2.3,6.7,1.9C234.9,173.2,236,173,237,173z M263.7,270.4c2.4,2.8,4.9,5.7,5.4,9.4
	c0.2,1.9-0.1,3.8-0.9,5.5l-10.9-17c-0.1-0.2-0.2-0.4-0.1-0.6c0.1-0.3,0.6-0.2,0.9-0.1l4.5,2.2C263,269.8,263.4,270,263.7,270.4
	L263.7,270.4z M378.8,186.1c-0.1,0.9,0.2,1.9,0.9,2.5c0.9,0.3,1.8,0.1,2.6-0.4c0.4-0.2,0.8-0.4,1.3-0.5c0.8-0.1,1.6-0.1,2.4,0l9.7,1
	c0.6-0.9-0.6-1.9-1.7-2.3C389.1,184.7,383.8,184.6,378.8,186.1L378.8,186.1z M431.8,203.7c-4,6.1-10.1,10.6-17.1,12.6l-0.1,1.6
	c7.8-1.8,14.7-6.4,19.3-13c0.5-0.8,1-1.9,0.2-2.4S432.3,202.8,431.8,203.7L431.8,203.7z M416.2,188.2c-1-0.3-2.2-0.5-2.7,0.4
	c1.6,1.5,3.5,3.1,5.7,3.2c1.6-0.1,3.2-0.6,4.5-1.4c3.4-1.6,6.6-3.6,9.6-5.9c-0.1-1-1.4-1.5-2.4-1.2c-0.8,0.3-1.5,0.8-2,1.5l0,0
	l-0.2,0.2l-0.2,0.2C425.2,188.2,420.5,189.3,416.2,188.2L416.2,188.2z M407.3,208.8c0.2,0.8,1.1,1.2,1.8,0.9c0.1,0,0.2-0.1,0.3-0.1
	l5.3-1.7c0-0.6-0.7-1.1-1.3-1.1c-0.3,0-0.7,0-1,0c-0.3,0-0.5,0.1-0.8,0.1c-2.1,0-3.6-2.2-4.1-4.2c-0.2-0.7-0.3-1.4-0.4-2.2
	c-0.1-1.4-0.5-2.7-1.1-3.9c-1.2-0.1-1.6,1.6-1.6,2.8C404.6,202.7,405.6,205.9,407.3,208.8L407.3,208.8z M392.4,197.2
	c1.2-1.3,3.1-3.1,4.5-2c-2.5,4.8-7.5,7.7-12.9,7.7c2.9,5.5,4.8,11.6,5.5,17.8c0.2,1.1,0.8,2.1,1.5,2.9c3.6,4.2,8.1,7.8,13.5,9.2
	c9.9,2.6,20.5-2.8,27-10.7s9.6-18,12.5-27.9c0.8-2.8,2.1-6.1,4.9-6.9c5.1-1.4,8-6.7,6.6-11.8c-0.4-1.4-1-2.6-2-3.7
	c-2.4-2.7-7.5-3.5-9.2-0.4c-0.9,1.2-2.4,1.6-3.7,1.1c-1.1-0.4-2-1-2.9-1.8c-0.2-0.2-0.4-0.3-0.6-0.5c-7-5.2-16.3-5.5-25-5.6
	c-6-0.6-12,1.1-16.9,4.6c-2.1,1.3-4.3,2.4-6.6,3.4c-7,2.5-14.8,1.3-20.7-3.2c6.2,9.9,11.4,20.5,15.4,31.4
	C386.7,201.1,390,199.7,392.4,197.2L392.4,197.2z M300.8,173L300.8,173c0.9,1.7,1.6,3.5,1.8,5.4c0.2,3.1-3,6.7-5.6,5
	s-6.8-0.1-8.1,2.9s-0.1,6.6,2.4,8.8c1.9,1.5,4.2,2.6,6.5,3.3c2.8,1,5.9,2.3,9.2,3.7l0,0c8.2,3.5,17.3,7.3,23.3,6.7
	c3-0.3,8.7-3.6,10.6-4.8c3.7-2.3,7.9-4.6,12-3.4c5.3,1.5,10.9,1,15.9-1.3c2.4-1.1,4.6,1.8,5.6,4.3s2.9,5.5,5.4,4.6
	c1.4-0.6,2.3-2,2.2-3.6c-0.2-1.5-0.6-2.9-1.3-4.1L369,176.6c-3.1,0.9-5.9-0.9-8.7-2.8c-1.8-1.3-3.9-2.4-6-3
	c-1.1-0.2-2.2-0.3-3.3-0.3c-1.1,0-2.3-0.1-3.4-0.4c-1.2-0.3-2.3-0.8-3.4-1.4c-1.3-0.7-2.7-1.3-4.2-1.5c-3.2-0.4-6.2,1.5-8.6,3.7
	c-0.8,0.7-1.5,1.5-2.2,2.3c-1.4,1.6-3,3.1-4.8,4.4c-2.7,1.8-6.5,2.4-9,0.4c-0.9-0.8-1.7-1.8-2.3-2.9l0,0c-0.3-0.5-0.6-1.1-1-1.6
	c-2.9-3.9-8.1-5.4-12.7-3.8C299.8,170.7,300.3,171.8,300.8,173L300.8,173z M289.1,250.6c1.2,3.2,3.2,6.1,5.8,8.4
	c0.5,0.5,1.2,1,1.8,1.5l0,0c2.1,1.6,4.2,3.2,3.8,5.7c4.8-5,11.6-7.6,18.4-7c1.1,0.1,2.2,0.3,3.3,0.5s2.4,0.4,3.5,0.5
	c8.5,0.7,16.4-3.7,23.7-8l15.8-9.1c1.2-2.5,0.3-5.7-1.6-7.8c-2-2-4.5-3.5-7.2-4.3c-2.8-1.2-5.8-1.9-8.9-2.1h-0.9
	c-2.8,0-6.1-0.1-7.1-2.6c-2.3-5.8-8.9-8.7-14.7-6.4c-1.8,0.7-3.5,1.9-4.7,3.4c-2.3,2.8-5.9,4.1-9.4,5.4l0,0l-1.2,0.4
	c-4.7,1.7-9.1,3.9-13.3,6.5c-3.5,2.2-7.2,5.3-7.4,9.4c0,0.4-0.1,0.9-0.1,1.4C288.7,247.8,288.7,249.2,289.1,250.6L289.1,250.6z
	 M448.1,225.8c6.6-5.1,12.3-11.5,15.7-19.1s4.2-16.5,1.3-24.3c-1.9-4.6-4.6-8.8-8-12.4c-5.7-6.4-13.2-12.2-21.8-12.3
	c-2.9,0.1-5.7,0.5-8.5,1.1l-16.3,3.4c9.2-0.2,18.4,1.3,27.2,4.4h0.1c2,0.7,4.1,1.4,6,0.7c5.8-2.2,12.2,0.8,14.4,6.5
	c1.6,4.2,0.5,8.9-2.7,12c-0.8,0.7-1.6,1.3-2.4,1.9c-0.9,0.6-1.8,1.4-2.6,2.1c-2.4,2.4-3.4,5.8-4.3,9.1l-0.3,1.1
	c-5.6,19.2-20.3,36.7-39.9,40.9C421.2,240.5,436,235.2,448.1,225.8L448.1,225.8z M430.4,156.6c5-0.6,10.2-1.1,14.9,0.6
	c4.3,1.5,7.9,4.6,11.3,7.7l5,4.4c-7.7-11.9-20.8-19.2-34.9-19.4c-6.7,0.1-13.3,1.4-19.6,3.8c-2,0.7-4,1.5-6,2.3l-2,0.8
	c-7.4,2.9-15,5.4-22.9,5.6s-16.1-2.4-21.3-8.2l-0.7-0.8l0,0c-1-1.4-2.3-2.5-3.9-3.2c4.6,5.9,9.3,12,15.5,16.3s14.1,6.8,21.3,4.6
	c3.2-1.1,6.3-2.6,9.1-4.6c1.3-0.8,2.6-1.6,4-2.4C409.4,159.1,420,157.7,430.4,156.6L430.4,156.6z M318.8,294.6
	c0.3,1.2,1.7,2.5,2.7,1.8c5.4-3.9,11-7.5,16.9-10.7l1.9-1c3.2-1.6,6.5-3.2,8.9-5.8c-3.6,1.8-7.9,1.5-11.8,0.7
	c-1.2-0.3-2.5-0.6-3.7-0.9l0,0c-2.6-0.7-5.3-1.2-8-1.5c-3.4-0.2-6.8,0.4-10,1.8c-2,0.7-3.6,2.1-4.7,3.8c-1,1.8-0.7,4.4,1,5.6
	c0.8,0.5,1.8,0.8,2.8,0.9c1.3,0.3,2.6,0.5,3.3,1.5c0.4,0.7,0.6,1.5,0.7,2.4C318.7,293.7,318.7,294.2,318.8,294.6L318.8,294.6z
	 M401.1,236c-1.5-1-2.8-2.2-4-3.6l-6-6.4l0.7,10.6c0.1,1,0.1,2.1-0.2,3.1c-0.3,1-1.1,1.8-2.2,1.9c-0.5,0.1-0.6,1-0.1,1.2
	c0.5,0.2,1.1,0.2,1.6,0l14.1-4.4c0.9-0.2,1.7-0.6,2.5-1.2C405.3,237.6,403,237.2,401.1,236z M431,174.6c-4.7-0.3-9.3,0.6-13.9,1.6
	c-1.2,0.2-2.4,0.6-3.5,1c-2.6,1.1-4.6,3.4-6.4,5.6c-0.3,0.3-0.5,0.7-0.5,1.1c0.1,0.7,1.1,1,1.7,0.6c0.5-0.3,0.9-0.8,1.2-1.3l0.2-0.3
	c2.4-3.6,7.1-4.8,11.4-5.6c3.6-0.7,7.4-1.4,11-0.7c0.6,0.1,1-0.9,0.6-1.4C432.3,174.8,431.7,174.5,431,174.6z"/>
</svg>
