<?xml version="1.0" encoding="utf-8"?>
<!-- Generator: Adobe Illustrator 26.0.1, SVG Export Plug-In . SVG Version: 6.00 Build 0)  -->
<svg version="1.1" id="Layer_1" xmlns="http://www.w3.org/2000/svg" xmlns:xlink="http://www.w3.org/1999/xlink" x="0px" y="0px"
	 viewBox="0 0 344.9 95" style="enable-background:new 0 0 344.9 95;" xml:space="preserve">
<style type="text/css">
	.st0{enable-background:new    ;}
	.st1{fill:#A3C9A8;}
</style>
<g class="st0">
	<path class="st1" d="M22.2,91c-1-1-1.5-3-1.5-6c0-2,0.2-4.5,0.6-7.6c0.4-3.1,1.1-7.3,2-12.7c1.7-10,3-18.6,3.9-25.9
		c0.6-4.6,0.9-8.4,0.9-11.4c0-2.9-1-4.3-3.1-4.3c-1.7,0-3.6,0.8-6,2.5c-2.3,1.7-4.9,4.4-7.7,8.1c-0.9,1.2-1.9,1.8-3,1.8
		c-0.9,0-1.7-0.4-2.3-1.3c-0.7-0.9-1-1.8-1-2.9c0-1,0.2-2,0.6-3.1c0.4-1,1.1-2.2,2-3.6c3.1-4.3,6.4-7.5,10.2-9.9
		c3.7-2.3,7.5-3.5,11.2-3.5c3.5,0,6.2,1.1,8.1,3.3c1.9,2.2,2.8,5.5,2.8,9.7c0,1.7-0.2,3.7-0.5,6.1c-0.3,2.3-0.6,4.2-0.9,5.7
		c-0.3,1.5-0.4,2.5-0.6,3.1c3.6-10.4,7.7-17.6,12.2-21.7c4.5-4.1,9.5-6.1,14.9-6.1c4.1,0,7.4,1.5,9.8,4.4c2.4,2.9,3.6,7.1,3.6,12.4
		c0,2.1-0.3,4.7-0.9,7.8c3.2-8.8,6.9-15.1,11.2-18.9c4.3-3.8,9.2-5.7,14.7-5.7c4.4,0,7.9,1.4,10.2,4.3c2.4,2.9,3.6,6.9,3.6,12
		c0,2.8-0.4,6.2-1.2,10.2L110.3,65c-0.6,3.2-1,5.9-1,8.2c0,2.7,0.6,4.7,1.9,6c1.2,1.3,3,2,5.2,2c2.1,0,4.1-0.7,6.1-2.1
		c2-1.4,4.4-3.7,7.1-7c0.8-0.9,1.6-1.3,2.6-1.3c0.8,0,1.5,0.4,2,1.1s0.7,1.8,0.7,3.1c0,2.5-0.6,4.4-1.8,5.9c-3.3,4-6.6,6.9-9.8,8.8
		c-3.2,1.8-6.6,2.8-10.2,2.8c-5.4,0-9.6-1.6-12.7-4.8c-3-3.2-4.6-7.5-4.6-12.9c0-3.7,0.8-9.2,2.3-16.3l3.8-17.4
		c0.1-0.6,0.3-1.6,0.7-3.1c0.3-1.5,0.6-2.8,0.8-4.1c0.2-1.3,0.3-2.6,0.3-3.9c0-2.2-0.4-3.9-1.3-5c-0.9-1.1-2.1-1.7-3.7-1.7
		c-3,0-6.1,1.9-9.4,5.8c-3.3,3.8-6.4,10.2-9.3,19.1c-3,8.9-5.4,20.5-7.2,34.7c-0.4,3.8-1.2,6.4-2.3,7.7c-1.1,1.3-2.9,2-5.4,2
		c-2.2,0-3.7-0.5-4.7-1.5c-1-1-1.5-2.9-1.5-5.7c0-2.6,0.3-6,1-10.2c0.7-4.2,1.6-9.2,2.7-14.9c2.9-15.4,4.4-25.3,4.4-29.7
		c0-2.4-0.5-4.2-1.4-5.3c-0.9-1.1-2.3-1.7-4.1-1.7c-3.1,0-6.3,1.8-9.6,5.3c-3.3,3.5-6.5,9.8-9.7,18.8c-3.1,9-5.8,21.1-7.9,36.5
		c-0.4,3.2-1.1,5.5-2,6.8c-0.9,1.3-2.5,1.9-5,1.9C24.9,92.5,23.2,92,22.2,91z"/>
</g>
<g class="st0">
	<path class="st1" d="M177.3,64c0.4,0.8,0.7,1.9,0.7,3.1c0,3.1-0.9,4.9-2.8,5.4c-3.8,1.3-8,2.1-12.6,2.3c-1.2,5.3-3.6,9.6-7.1,12.8
		c-3.6,3.2-7.6,4.8-12.1,4.8c-3.8,0-7.1-0.9-9.8-2.8c-2.7-1.8-4.8-4.3-6.1-7.3c-1.4-3.1-2.1-6.4-2.1-9.9c0-4.8,0.9-9.1,2.8-12.9
		c1.8-3.8,4.4-6.7,7.6-8.9c3.2-2.1,6.8-3.2,10.8-3.2c4.8,0,8.7,1.7,11.7,5c3,3.3,4.7,7.5,5.2,12.3c3-0.2,6.5-0.8,10.7-1.9
		c0.5-0.1,1-0.2,1.3-0.2C176.2,62.8,176.8,63.2,177.3,64z M149.4,80c1.5-1.7,2.5-4,3-7.1c-2-1.3-3.5-3.1-4.5-5.2
		c-1-2.2-1.6-4.4-1.6-6.9c0-1,0.1-2,0.3-3.1h-0.5c-2.5,0-4.7,1.2-6.3,3.7c-1.7,2.4-2.5,5.9-2.5,10.3c0,3.5,0.7,6.2,2,8
		c1.4,1.8,3,2.8,4.8,2.8C146.1,82.4,147.9,81.6,149.4,80z"/>
</g>
<g class="st0">
	<path class="st1" d="M218.9,63c1,0,1.7,0.3,2.2,1c0.5,0.6,0.8,1.5,0.8,2.6c0,2-0.4,3.5-1.1,4.6c-0.8,1.1-1.9,1.9-3.4,2.4
		c-2.9,1-6,1.4-9.3,1.4c-2.8,0-5.4-0.4-7.9-1.1c-1.8,3-3.9,6.1-6.1,9.2c-2.5,3.6-4.7,6.1-6.6,7.4c-1.8,1.3-3.9,2-6.3,2
		c-2.6,0-4.7-1-6.1-3c-1.5-2-2.4-5.2-2.8-9.6c-0.8-8.9-1.1-16.7-1.1-23.4v-3.3c0.1-2.1,0.6-3.6,1.7-4.4c1.1-0.8,2.7-1.2,4.9-1.2
		c1.7,0,2.9,0.4,3.7,1.1c0.8,0.7,1.2,2,1.2,3.7c0,7.3,0.4,16.8,1.3,28.5c3.8-5.7,6.7-10.2,8.6-13.5c-1-1.8-1.4-4-1.4-6.6
		c0-2.2,0.5-4.3,1.4-6.3c1-2,2.3-3.7,3.9-5c1.7-1.3,3.5-1.9,5.6-1.9c1.8,0,3.3,0.7,4.5,2c1.1,1.3,1.7,3.2,1.7,5.7
		c0,2.9-0.8,6.1-2.3,9.8c2.4-0.1,5.6-0.6,9.6-1.4l2.6-0.5C218.1,63,218.4,63,218.9,63z"/>
	<path class="st1" d="M251.6,71.9c0.5,0.8,0.7,1.8,0.7,3.1c0,2.5-0.6,4.5-1.8,5.9c-2.7,3.4-5.7,6.1-8.9,8.3
		c-3.2,2.2-6.8,3.2-10.9,3.2c-5.6,0-9.7-2.5-12.4-7.6c-2.7-5.1-4.1-11.7-4.1-19.7c0-7.8,1-16.6,3-26.5c2-9.9,5-18.4,8.9-25.5
		C230,6,234.6,2.5,240,2.5c3.1,0,5.4,1.4,7.2,4.2c1.7,2.8,2.6,6.9,2.6,12.2c0,7.6-2.1,16.3-6.3,26.3c-4.2,10-9.9,19.9-17.1,29.6
		c0.4,2.6,1.2,4.5,2.2,5.6c1,1.1,2.3,1.7,4,1.7c2.6,0,4.9-0.7,6.9-2.2c2-1.5,4.5-4.1,7.5-7.7c0.8-0.9,1.6-1.3,2.6-1.3
		C250.5,70.8,251.1,71.2,251.6,71.9z M233,19.8c-1.8,5.3-3.5,11.8-4.9,19.6c-1.4,7.8-2.2,15.3-2.3,22.5c4.5-7.4,8.1-14.9,10.8-22.4
		c2.7-7.5,4-14.3,4-20.4c0-4.8-0.9-7.2-2.7-7.2C236.5,11.9,234.8,14.5,233,19.8z"/>
</g>
<g class="st0">
	<path class="st1" d="M289.2,71.9c0.5,0.8,0.7,1.8,0.7,3.1c0,2.5-0.6,4.5-1.8,5.9c-2.4,2.9-5.7,5.5-10,7.9
		c-4.3,2.4-8.9,3.6-13.8,3.6c-6.7,0-11.9-1.8-15.5-5.4c-3.7-3.6-5.5-8.6-5.5-14.9c0-4.4,0.9-8.5,2.8-12.2c1.8-3.8,4.4-6.8,7.7-9
		c3.3-2.2,7-3.3,11.1-3.3c3.7,0,6.6,1.1,8.9,3.3c2.2,2.2,3.3,5.2,3.3,8.9c0,4.4-1.6,8.1-4.7,11.3s-8.5,5.6-16,7.5
		c1.6,2.9,4.6,4.4,9.1,4.4c2.9,0,6.1-1,9.8-3c3.7-2,6.8-4.6,9.5-7.9c0.8-0.9,1.6-1.3,2.6-1.3C288.1,70.8,288.7,71.2,289.2,71.9z
		 M257.3,61.1c-1.6,2.7-2.4,6-2.4,9.9v0.2c3.7-0.9,6.7-2.2,8.9-4c2.2-1.8,3.2-3.8,3.2-6.2c0-1.2-0.3-2.2-1-2.9
		c-0.7-0.7-1.6-1.1-2.7-1.1C260.9,57,258.9,58.4,257.3,61.1z"/>
</g>
<g class="st0">
	<path class="st1" d="M339.2,71.9c0.5,0.8,0.7,1.8,0.7,3.1c0,2.5-0.6,4.5-1.8,5.9c-2.8,3.3-5.9,6.1-9.2,8.2s-7.1,3.3-11.3,3.3
		c-3.2,0-6.1-0.6-8.6-1.8c-2.5-1.2-4.5-2.9-6-5.1c-3.6,4.6-7.9,6.9-12.9,6.9c-3.5,0-6.3-1-8.3-3c-2-2-3-4.7-3-8.1
		c0-3.2,0.7-5.8,2.2-7.7c1.5-2,3.5-3,6.2-3c2.3,0,3.4,0.9,3.4,2.6c0,0.4-0.1,1.2-0.2,2.4c-0.2,2.3-0.3,3.6-0.3,3.9
		c0,1.9,0.8,2.9,2.5,2.9c1.2,0,2.4-0.7,3.5-2.1c1.1-1.4,2-3.4,2.8-5.9c0.7-2.5,1.1-5.2,1.1-8.2c0-2.3-0.3-4.2-0.9-5.8
		c-0.6-1.6-1.3-2.3-2.1-2.3c-0.7,0-1.2,0.2-1.5,0.5c-0.3,0.4-0.6,0.9-1,1.8c-0.4,1-0.9,1.8-1.5,2.4c-0.6,0.6-1.7,0.9-3.3,0.9
		c-1.4,0-2.5-0.5-3.3-1.5c-0.8-1-1.2-2.5-1.2-4.5c0-3.2,1-5.8,3-7.6c2-1.8,4.5-2.8,7.6-2.8c2.7,0,5.1,0.7,7.2,2
		c2.2,1.3,3.8,3.2,5,5.7c1.9-2.5,4.1-4.4,6.4-5.7c2.4-1.3,4.7-1.9,7-1.9c2.5,0,4.4,0.6,5.7,1.7c1.3,1.1,2,3,2,5.5
		c0,2.9-0.5,5.1-1.6,6.7c-1.1,1.6-2.4,2.4-3.9,2.4c-1.4,0-2.4-0.3-2.9-0.9s-0.9-1.4-1.1-2.5c-0.1-0.8-0.3-1.3-0.6-1.7
		c-0.3-0.4-0.7-0.6-1.3-0.6c-0.8,0-1.6,0.7-2.4,2.1c-0.9,1.4-1.6,3.3-2.2,5.7c-0.6,2.4-0.9,4.8-0.9,7.3c0,3,0.7,5.3,2.1,6.9
		c1.4,1.6,3.4,2.4,5.9,2.4s4.8-0.8,7-2.5c2.2-1.7,4.8-4.3,7.7-7.9c0.8-0.9,1.6-1.3,2.6-1.3C338,70.8,338.7,71.2,339.2,71.9z"/>
</g>
<path class="st1" d="M0-2"/>
</svg>
