<?xml version="1.0" encoding="utf-8"?>
<!-- Generator: Adobe Illustrator 26.0.1, SVG Export Plug-In . SVG Version: 6.00 Build 0)  -->
<svg version="1.1" id="Layer_1" xmlns="http://www.w3.org/2000/svg" xmlns:xlink="http://www.w3.org/1999/xlink" x="0px" y="0px"
	 viewBox="0 0 43.3 43.2" style="enable-background:new 0 0 43.3 43.2;" xml:space="preserve">
<style type="text/css">
	.st0{fill:#FC0053;}
	.st1{fill:none;}
	.st2{fill:#313159;}
	.st3{fill:#EA2300;}
</style>
<g id="MS">
	<g id="MS-2">
		<g id="Group_123">
			<path id="Path_126" class="st0" d="M26.1,9.1l-6.2,2.2l-4,1.5c-1.1,0.4-1.9,1.5-1.9,2.7V28c0,1.1-0.6,2.1-1.6,2.6l-3,1.6
				c-0.9,0.6-2.2,0.3-2.8-0.6c0,0,0-0.1,0-0.1c-0.1-0.2-0.2-0.5-0.3-0.7l0,0V12.5c0-0.1,0.1-0.3,0.1-0.4C6.7,11,7.4,10,8.4,9.5
				l6.3-3.6c1.5-0.9,3.1-1.8,4.6-2.6c0.5-0.3,1-0.6,1.5-0.8c0.4-0.1,0.7-0.2,1.1-0.2c0.6,0,1.1,0.1,1.6,0.3c0,0,0,0,0.1,0l0,0
				c0,0,0.1,0,0.1,0l0,0c0,0,0.1,0,0.1,0.1c0.8,0.4,1.5,1.1,1.9,1.9C26,5,26.2,5.6,26.2,6.2L26.1,9.1z"/>
			<g id="Path_127">
				<path class="st1" d="M26.1,9.1V6.2c0-1.5-0.9-2.9-2.3-3.6c0,0-0.1,0-0.1-0.1c0.4,0.1,0.8,0.2,1.2,0.3l9.3,2.6
					c0.6,0.2,1.1,0.5,1.6,0.9c0.8,0.8,1.3,1.8,1.2,2.9V33c0,0.4,0,0.7,0,1.1c0,1.1-0.5,2.2-1.4,2.9c-0.5,0.4-1.2,0.8-1.9,0.9
					l-9.9,2.8h-0.1c0-0.1,0.1-0.1,0.2-0.1c0.6-0.3,1.1-0.7,1.4-1.2c0.5-0.6,0.7-1.3,0.8-2c0-1.6,0-3.3,0-4.9v-0.3c0-7.7,0-15.3,0-23
					C26.1,9.2,26.2,9.2,26.1,9.1z"/>
				<path class="st2" d="M27.2,4.8c0.1,0.5,0.2,1,0.2,1.5c0,0.7,0,1.3,0,2v0.8c0,0.1,0,0.1,0,0.2c0,7.7,0,15.3,0,23v1.7
					c0,1.1,0,2.3,0,3.5c0,0.3-0.1,0.7-0.1,1l6.2-1.8c0.5-0.1,1-0.3,1.4-0.7c0.6-0.5,0.9-1.2,0.9-2c0-0.2,0-0.4,0-0.7v-24
					c0-0.8-0.3-1.5-0.9-2c-0.3-0.3-0.7-0.5-1.1-0.6L27.2,4.8 M23.8,2.5c0.4,0.1,0.8,0.2,1.2,0.3l9.2,2.6c0.6,0.2,1.1,0.5,1.6,0.9
					c0.8,0.8,1.3,1.8,1.2,2.9V33c0,0.4,0,0.7,0,1.1c0,1.1-0.5,2.2-1.4,2.9c-0.5,0.4-1.2,0.8-1.9,0.9l-9.9,2.8h-0.1
					c0-0.1,0.1-0.1,0.2-0.1c0.6-0.3,1.1-0.7,1.4-1.2c0.5-0.6,0.7-1.3,0.8-2c0-1.6,0-3.3,0-4.9c0-0.1,0-0.2,0-0.2v-23
					c0-0.1,0-0.1,0-0.2c0-1,0-1.9,0-2.9c0-0.6-0.1-1.2-0.4-1.7C25.3,3.7,24.7,3,23.8,2.5C23.8,2.6,23.8,2.6,23.8,2.5z"/>
			</g>
			<path id="Path_128" class="st2" d="M26.1,32.5H14c-1.1-0.1-2,0.7-2.1,1.8c-0.1,0.7,0.2,1.4,0.8,1.9c0.3,0.2,0.5,0.4,0.8,0.5
				l2,1.1c0,0,0,0,0.1,0c1.5,0.9,3.1,1.8,4.7,2.6c1.1,0.6,2.4,0.7,3.5,0.2c0-0.1,0.1-0.1,0.2-0.1c0.6-0.3,1.1-0.7,1.4-1.2
				c0.5-0.6,0.7-1.3,0.8-2C26.2,35.8,26.1,34.2,26.1,32.5z"/>
			<path id="Path_129" class="st3" d="M23.8,2.5c0,0-0.1,0-0.1,0C23.7,2.5,23.8,2.5,23.8,2.5z"/>
			<path id="Path_130" class="st3" d="M23.7,2.5C23.7,2.5,23.6,2.5,23.7,2.5C23.6,2.5,23.7,2.5,23.7,2.5z"/>
		</g>
	</g>
</g>
</svg>
