<svg id="Layer_1" data-name="Layer 1" xmlns="http://www.w3.org/2000/svg" viewBox="0 0 24 24"><defs><style>.cls-1{fill:#a3c9a8;}</style></defs><path class="cls-1" d="M23.58,12A11.58,11.58,0,1,1,12,.42,11.58,11.58,0,0,1,23.58,12ZM1.86,12A10.14,10.14,0,1,0,11.94,1.87,10.16,10.16,0,0,0,1.86,12Z"/><path class="cls-1" d="M11.28,12.71l-2.52-.13-4.89-.25a.51.51,0,0,1-.53-.41.49.49,0,0,1,.38-.56l9.78-3.7,3.21-1.22.2-.07a.47.47,0,0,1,.55.1.49.49,0,0,1,.09.55l-1.1,3-3.78,10.2a1.18,1.18,0,0,1-.07.2.47.47,0,0,1-.54.27.45.45,0,0,1-.38-.42L11.56,18c-.09-1.68-.17-3.37-.26-5.05A1.91,1.91,0,0,0,11.28,12.71Z"/></svg>