<svg id="Layer_1" data-name="Layer 1" xmlns="http://www.w3.org/2000/svg" viewBox="0 0 24 24"><defs><style>.cls-1{fill:#a3c9a8;}</style></defs><path class="cls-1" d="M4.71,16h14.6v-.41c0-1.76,0-3.53,0-5.29,0-.31.11-.44.4-.49.81-.14.84-.13.84.69,0,1.83,0,3.65,0,5.48a1,1,0,0,0,.26.73c.67.76,1.32,1.54,2,2.3A1.07,1.07,0,0,1,23,20.21a1.09,1.09,0,0,1-1.09.59H15.86c-.25,0-.38.05-.45.33a3.53,3.53,0,0,1-6.82,0c-.07-.29-.2-.33-.45-.33h-6A1.14,1.14,0,0,1,1,20.2a1.11,1.11,0,0,1,.29-1.31c.66-.75,1.31-1.5,1.94-2.27A1.1,1.1,0,0,0,3.45,16c0-1.78,0-3.55,0-5.32A8.52,8.52,0,0,1,9.38,2.43.47.47,0,0,0,9.73,2,2.28,2.28,0,0,1,12,.27,2.33,2.33,0,0,1,14.28,2c0,.14.18.25.25.38a.63.63,0,0,1,.1.33,3.56,3.56,0,0,1-.25.61c-.11.24-.29.18-.49.13a7,7,0,0,0-5,.46,7.12,7.12,0,0,0-4.2,6.53c0,1.71,0,3.42,0,5.13C4.69,15.7,4.7,15.81,4.71,16Zm17,3.62c-.11-.14-.17-.24-.25-.33-.5-.58-1-1.15-1.49-1.75a.78.78,0,0,0-.69-.31c-4.5,0-9,0-13.49,0a2.36,2.36,0,0,0-2.32,1.1,15.3,15.3,0,0,1-1.1,1.31ZM9.82,20.81a2.2,2.2,0,0,0,2.32,1.7,2.13,2.13,0,0,0,2-1.7Z"/><path class="cls-1" d="M15,5A3.91,3.91,0,1,1,18.88,8.9,3.88,3.88,0,0,1,15,5Z"/></svg>