<?xml version="1.0" encoding="utf-8"?>
<!-- Generator: Adobe Illustrator 26.0.1, SVG Export Plug-In . SVG Version: 6.00 Build 0)  -->
<svg version="1.1" id="Layer_1" xmlns="http://www.w3.org/2000/svg" xmlns:xlink="http://www.w3.org/1999/xlink" x="0px" y="0px"
	 viewBox="0 0 24 24" style="enable-background:new 0 0 24 24;" xml:space="preserve">
<style type="text/css">
	.st0{fill:#FC1A3D;}
</style>
<path class="st0" d="M4.7,16h14.6v-0.4c0-1.8,0-3.5,0-5.3c0-0.3,0.1-0.4,0.4-0.5c0.8-0.1,0.8-0.1,0.8,0.7c0,1.8,0,3.6,0,5.5
	c0,0.3,0.1,0.5,0.3,0.7c0.7,0.8,1.3,1.5,2,2.3c0.3,0.3,0.4,0.8,0.2,1.2c-0.2,0.4-0.6,0.6-1.1,0.6h-6.1c-0.2,0-0.4,0-0.4,0.3
	c-0.5,1.9-2.4,3-4.3,2.5c-1.2-0.3-2.2-1.3-2.5-2.5c-0.1-0.3-0.2-0.3-0.4-0.3h-6c-0.5,0.1-0.9-0.2-1.1-0.6c-0.2-0.5-0.1-1,0.3-1.3
	c0.7-0.8,1.3-1.5,1.9-2.3c0.1-0.2,0.2-0.4,0.2-0.6c0-1.8,0-3.6,0-5.3C3.4,6.9,5.8,3.6,9.4,2.4C9.6,2.4,9.7,2.2,9.7,2
	C10,1,10.9,0.2,12,0.3c1.1,0,2,0.7,2.3,1.7c0,0.1,0.2,0.2,0.2,0.4c0.1,0.1,0.1,0.2,0.1,0.3c-0.1,0.2-0.1,0.4-0.2,0.6
	c-0.1,0.2-0.3,0.2-0.5,0.1c-1.7-0.5-3.4-0.3-5,0.5c-2.6,1.2-4.2,3.7-4.2,6.5c0,1.7,0,3.4,0,5.1C4.7,15.7,4.7,15.8,4.7,16z
	 M21.7,19.6c-0.1-0.1-0.2-0.2-0.2-0.3c-0.5-0.6-1-1.1-1.5-1.8c-0.2-0.2-0.4-0.3-0.7-0.3c-4.5,0-9,0-13.5,0c-0.9-0.1-1.8,0.3-2.3,1.1
	c-0.3,0.5-0.7,0.9-1.1,1.3L21.7,19.6z M9.8,20.8c0.2,1.1,1.2,1.8,2.3,1.7c1,0,1.8-0.7,2-1.7H9.8z"/>
<path class="st0" d="M15,5c0-2.2,1.7-3.9,3.9-3.9s3.9,1.7,3.9,3.9c0,2.2-1.7,3.9-3.9,3.9c0,0,0,0,0,0C16.7,8.9,15,7.2,15,5
	C15,5,15,5,15,5z"/>
</svg>
