<?xml version="1.0" encoding="utf-8"?>
<!-- Generator: Adobe Illustrator 26.0.1, SVG Export Plug-In . SVG Version: 6.00 Build 0)  -->
<svg version="1.1" id="Layer_1" xmlns="http://www.w3.org/2000/svg" xmlns:xlink="http://www.w3.org/1999/xlink" x="0px" y="0px"
	 viewBox="0 0 200 146.8" style="enable-background:new 0 0 200 146.8;" xml:space="preserve">
<style type="text/css">
	.st0{fill:#2E86AB;}
	.st1{fill:#FFFFFF;}
	.st2{fill:#A3C9A8;}
	.st3{fill:#CCCCCC;}
	.st4{fill:#1A1A1A;}
</style>
<g>
	<path class="st0" d="M23,94.6h-8.9c-3,0-5.4-2.4-5.4-5.4v-6.6c0-3,2.4-5.4,5.4-5.4H23c3,0,5.4,2.4,5.4,5.4v6.6
		C28.4,92.1,26,94.6,23,94.6z"/>
	<path class="st1" d="M102.9,62H31.6c-4.1,0-7.5-3.4-7.5-7.5V9.6c0-4.1,3.4-7.5,7.5-7.5h71.3c4.1,0,7.5,3.4,7.5,7.5v44.9
		C110.4,58.6,107,62,102.9,62z"/>
	<path class="st2" d="M189.6,115.2h-55c-4.1,0-7.5-3.4-7.5-7.5V66.4c0-4.1,3.4-7.5,7.5-7.5h55c4.1,0,7.5,3.4,7.5,7.5v41.3
		C197.1,111.8,193.7,115.2,189.6,115.2z"/>
	<path class="st0" d="M188.7,101.9c0,0-0.6-0.3-5.9-3c-5.3-2.7-7.9-3.5-9.9-3.7s-4.7,0.4-6.3,1c-1.6,0.7-6.8,2.6-9.1,2.9
		s-5-0.7-6.2-1.1c-1.1-0.5-9.5-5.6-9.5-5.6s-1.9,20.4-2.6,27h42.1c4.1,0,7.4-3.3,7.4-7.4v-9.9C188.7,102,188.7,101.9,188.7,101.9z"
		/>
	<path class="st2" d="M91.5,72.3c0,0-6.6,1.3-11.2,3.4s-8.8,4.6-8.8,4.6s4.4-11,5.2-13.3c0.8-2.3,2.5-5,2.5-5s-2.1-2.8-2.2-4.1
		c0,0-4.4-0.6-7.4-2.7c0,0-2.2-0.9-2.5-1.8c0,0-4.4-3.3-4.1-6.2c0,0-3.1,4.9-6.7,14.7c-3.7,9.8-5.8,13.7-4.1,24.5
		c1.7,10.7,10.9,13.6,12.9,14.1c1.9,0.5,5.4,1.4,8.9,0.8c3.5-0.7,6.7-2.1,6.7-2.1l-1,7.8l-3.8,34.8H126l-1.9-19.6c0,0,2,5.1,5.3,7
		c3.2,1.9,7.4,2.2,11.2,0.2c3.7-2,5.6-5.9,5.9-8.9c0.4-3,0.2-7-1-12.5c-1.2-5.4-5.1-22-5.1-22l-11.5-5.5c0,0-4-6.1-10.2-7.5
		s-6.2-1.4-6.2-1.4L91.5,72.3z"/>
	<path class="st1" d="M140.1,86.5c0,0,0.4-3.8-1.4-6.5c-1.8-2.8-3.1-4.3-3.6-5.1c-0.5-0.8-0.3-4.4-0.6-5.7c-0.3-1.4-0.7-3.4-3.2-3
		c-2.4,0.4-3.1,3.6-2.7,5.6c0.4,2.1,1.9,6.9,1.8,7.6c-0.1,0.7-3.9,3.1-6,3.9s-6,2.2-7,3.7c-1,1.6-0.7,3.7,1.3,3.8c0,0-2.5,1.3-2,3.2
		c0.5,1.9,2.3,1.6,2.3,1.6s-0.4,2.8,2.4,3.1c2.8,0.3,8.2-1.6,10-2.6s5.1-2.7,6.5-4.7C139.3,89.4,140.2,87,140.1,86.5z"/>
	<path class="st1" d="M92.9,54.3c0,0-4.2-0.8-4.4,2.9c-0.1,3.7,3.7,3.7,4.8,2.9c0,0-0.1,8.7,8.5,8.5c8.6-0.1,8.8-7.3,8.8-7.3v-1.1
		c0,0,3.9,1.2,4.6-1.3c0.7-2.6,0.3-3.6-0.7-4.1c-1-0.6-3.5-0.4-3.5-0.4v-0.9c0,0-2.9-3.2-7.6-5.1c-4.7-1.9-7-2.1-7-2.1
		s-1.9,4.8-3.2,5.8L92.9,54.3z"/>
	<polygon class="st1" points="95.9,65.3 95.9,67.8 91.5,72.3 94.6,89.3 102.1,78.5 109.6,89.3 112.6,72 108.3,67.6 108.3,65.6 	"/>
	<path class="st1" d="M176.4,77.3c0,3.4-2.8,6.2-6.2,6.2s-6.2-2.8-6.2-6.2c0-3.4,2.8-6.2,6.2-6.2C173.6,71.1,176.4,73.9,176.4,77.3z
		"/>
	<path class="st1" d="M102.4,138.2H23.7c-4.1,0-7.5-3.4-7.5-7.5v-13.9c0-4.1,3.4-7.5,7.5-7.5h78.7c4.1,0,7.5,3.4,7.5,7.5v13.9
		C109.9,134.8,106.5,138.2,102.4,138.2z"/>
	<path class="st0" d="M34.6,123.7c0,2.7-2.2,5-5,5c-2.7,0-5-2.2-5-5s2.2-5,5-5C32.4,118.8,34.6,121,34.6,123.7z"/>
	<path class="st0" d="M101.8,2.1H32.6C27.9,2.1,24,6,24,10.7v5.8h86.3v-5.8C110.4,5.9,106.5,2.1,101.8,2.1z"/>
	<path class="st0" d="M91.8,53.9c0,0-0.7-4.1-0.7-5.2c0-1.2,0.9-4.4,1.8-4.9s1.3-0.5,1.3-0.5s2.1-3.4,7.1-3.5c5,0,8.6,1.9,10.1,4.6
		c1.5,2.6,1.2,6.7,1.2,7.8c0,1.2-0.3,2-0.3,2l-1.3,0.1l-0.1-0.7c0,0-4.2-4.1-8.8-5.6c-4.6-1.5-5.7-1.6-5.7-1.6s-1.5,4.3-3.2,5.8
		l-0.1,2.1L91.8,53.9z"/>
	<path class="st1" d="M78.5,52.7c0,0,3,1.5,4.3,3.6c1.3,2,1.6,6.7-1,6.9s-3.8-2.8-4.1-3.7c-0.3-0.9-0.4-1.9-2.5-2.6
		c-2-0.7-6.5-1.3-7.3-2.7c-0.8-1.3-2.2-2.1-2.1-6.5c0,0-1.4-4.5,0.7-6.4s4.4-1.9,8.7-1.7c4.2,0.1,7.3-2,9.2-2.8
		c1.9-0.8,5-2.4,6.7-1.5s0.5,3.2,0.5,3.2s1.5,0.5,2,1.8c0.5,1.2-1.3,3.6-1.3,3.6s1,0.3,1.3,1.9c0.3,1.7-2.2,3.2-4.3,3.8
		c-2.1,0.6-7.4,1.3-8.5,1.3C79.6,50.9,77.8,51.6,78.5,52.7z"/>
	<path class="st2" d="M22,80.3c-0.5-0.9-1.4-0.9-1.9,0l-4.1,7c-0.5,0.9-0.1,1.7,1,1.7h8.2c1.1,0,1.5-0.7,1-1.7L22,80.3z"/>
	<path class="st2" d="M103.8,9.4c0,1.7-1.4,3-3,3c-1.7,0-3-1.4-3-3c0-1.7,1.4-3,3-3C102.5,6.3,103.8,7.7,103.8,9.4z"/>
	<path class="st2" d="M122.9,14.6c0,1.7-1.4,3.1-3.1,3.1s-3.1-1.4-3.1-3.1s1.4-3.1,3.1-3.1S122.9,12.9,122.9,14.6z"/>
	<path class="st2" d="M193.8,41.8c0,1.7-1.4,3.1-3.1,3.1s-3.1-1.4-3.1-3.1c0-1.7,1.4-3.1,3.1-3.1S193.8,40.1,193.8,41.8z"/>
	<path class="st3" d="M93.5,9.4c0,1.7-1.4,3-3,3c-1.7,0-3-1.4-3-3c0-1.7,1.4-3,3-3C92.2,6.3,93.5,7.7,93.5,9.4z"/>
	<path class="st1" d="M83.2,9.4c0,1.7-1.4,3-3,3c-1.7,0-3-1.4-3-3c0-1.7,1.4-3,3-3C81.9,6.3,83.2,7.7,83.2,9.4z"/>
	<path class="st0" d="M65.2,45.3c0,0-1.9,0.3-2.2,2c-0.3,1.6,2.7,5.2,3.4,5.6H67c0,0-1.5-3.3-1-5.2L65.2,45.3z"/>
	<path class="st4" d="M71.5,56c0,0,1.9,0,3.3,0.6c1.3,0.6,1.9,0.9,1.9,0.9S74,57.7,71.5,56z"/>
	<path class="st0" d="M79.8,50.9c0,0-1.6,0.5-1.4,1.4c0,0,2.8,1.9,3.3,2.4c0.5,0.6,0.9,0.9,0.9,0.9S82.7,53.2,79.8,50.9z"/>
	<path class="st0" d="M158.4,28.1c0,1.8-1.4,3.2-3.2,3.2s-3.2-1.4-3.2-3.2c0-1.8,1.4-3.2,3.2-3.2C156.9,24.9,158.4,26.4,158.4,28.1z
		"/>
	<path class="st1" d="M111,54.3l1.3-0.1c0,0,0.3-0.8,0.3-2s0.3-5.2-1.2-7.8c-1.2-2.2-4-4-7.8-4.4c2.6,1.1,5.3,2.9,4.7,5.1
		c-0.8,3.3-12.3,1.1-12.3,1.1l0.3,0.4c0.1-0.2,1.1,0,5.8,1.4c4.6,1.5,8.8,5.6,8.8,5.6L111,54.3z"/>
	<g>
		<g>
			<path class="st4" d="M188.8,102.4c-0.1,0-10.9-5.5-10.9-5.5c-2.6-1.3-6.9-1.6-9.6-0.7l-8.1,2.7c-2.9,1-7.3,0.5-9.9-1l-8.6-5.1
				c-0.1-0.1-0.2-0.3-0.1-0.4c0.1-0.1,0.3-0.2,0.4-0.1l8.6,5.1c2.5,1.5,6.7,1.9,9.4,1l8.1-2.7c2.9-1,7.4-0.6,10.1,0.7l10.8,5.5
				c0.2,0.1,0.2,0.3,0.1,0.4C189,102.3,188.9,102.4,188.8,102.4z"/>
		</g>
		<g>
			<path class="st4" d="M168.3,85.5c-3.6,0-6.5-2.9-6.5-6.5s2.9-6.5,6.5-6.5s6.5,2.9,6.5,6.5S171.8,85.5,168.3,85.5z M168.3,73.2
				c-3.2,0-5.9,2.6-5.9,5.9c0,3.2,2.6,5.9,5.9,5.9c3.2,0,5.9-2.6,5.9-5.9C174.1,75.8,171.5,73.2,168.3,73.2z"/>
		</g>
	</g>
	<g>
		<path class="st4" d="M109.6,89.6c-0.3-0.1-7.5-10.5-7.5-10.5l-7.2,10.4c-0.6-0.1-3.8-17.1-3.8-17.1c0.1-0.3,4.6-4.9,4.6-4.9
			c0.5,0.1,6.4,10.3,6.4,10.3l5.9-10.4c0.5-0.1,4.8,4.3,4.8,4.3c0.1,0.3-2.9,17.6-2.9,17.6C109.6,89.6,109.6,89.6,109.6,89.6z
			 M91.7,72.4l3.1,16.1l6.9-10l-5.9-10.2L91.7,72.4z M102.4,78.5l7,10l2.8-16.4l-3.9-3.9L102.4,78.5z"/>
	</g>
	<g>
		<path class="st4" d="M103.9,63.9c-0.7,0-1.3-0.1-1.3-0.1c-0.2,0-0.3-0.2-0.2-0.4c0-0.2,0.2-0.3,0.4-0.2c0,0,2,0.5,3.3-0.4
			c0.5-0.4,0.9-1,1-1.8c0-0.2,0.2-0.3,0.3-0.3c0.2,0,0.3,0.2,0.3,0.3c-0.1,1-0.5,1.7-1.2,2.2C105.5,63.7,104.6,63.9,103.9,63.9z"/>
	</g>
	<g>
		<path class="st4" d="M71.4,101.7c-2.6,0-4.9-0.5-7-1.1C56.6,98.5,52,91.8,51.2,82c-0.5-7,2.1-13.9,4.7-19.7c1-2.2,1.7-4,2.4-5.8
			c1.3-3.2,2.4-6.1,4.7-10c0.1-0.1,0.3-0.2,0.4-0.1c0.1,0.1,0.2,0.3,0.1,0.4c-2.3,3.9-3.4,6.7-4.7,9.9c-0.7,1.8-1.4,3.6-2.4,5.8
			c-2.6,5.7-5.2,12.5-4.6,19.4c0.7,9.6,5.3,16,12.8,18.2c4.1,1.2,8.9,1.9,15.9-0.8c0.2-0.1,0.3,0,0.4,0.2s0,0.3-0.2,0.4
			C77.1,101.3,74.1,101.7,71.4,101.7z"/>
	</g>
	<g>
		<path class="st4" d="M70.5,85c-0.2,0-0.3-0.2-0.3-0.4c0.7-4.5,2.4-8.4,3.1-10.1c0.1-0.3,0.2-0.5,0.3-0.7l2.6-6.5
			c0.7-1.7,1.5-3.3,2.4-5l0.3-0.5c0.1-0.2,0.3-0.2,0.4-0.1c0.2,0.1,0.2,0.3,0.1,0.4l-0.3,0.5c-0.9,1.7-1.7,3.2-2.4,4.9L74.1,74
			c-0.1,0.2-0.2,0.4-0.3,0.7c-0.8,1.8-2.4,5.5-3.1,10C70.8,84.9,70.7,85,70.5,85z"/>
	</g>
	<g>
		<g>
			<circle class="st4" cx="3.2" cy="29.4" r="1.3"/>
			<path class="st4" d="M13.7,30.8c0.8,0,1.4-0.6,1.4-1.4S14.4,28,13.7,28s-1.4,0.6-1.4,1.4S12.9,30.8,13.7,30.8z"/>
			<circle class="st4" cx="24.1" cy="29.4" r="1.3"/>
			<path class="st4" d="M3.2,41.2c0.8,0,1.4-0.6,1.4-1.4c0-0.8-0.6-1.4-1.4-1.4S1.8,39,1.8,39.8C1.8,40.6,2.4,41.2,3.2,41.2z"/>
			<path class="st4" d="M13.7,41.3c0.8,0,1.5-0.7,1.5-1.5s-0.7-1.5-1.5-1.5s-1.5,0.7-1.5,1.5S12.8,41.3,13.7,41.3z"/>
			<circle class="st4" cx="24.1" cy="39.8" r="1.4"/>
			<path class="st4" d="M3.2,51.6c0.7,0,1.3-0.6,1.3-1.3S3.9,49,3.2,49s-1.3,0.6-1.3,1.3C1.9,51,2.5,51.6,3.2,51.6z"/>
			<path class="st4" d="M13.7,51.7c0.8,0,1.4-0.6,1.4-1.4c0-0.8-0.6-1.4-1.4-1.4c-0.8,0-1.4,0.6-1.4,1.4
				C12.3,51,12.9,51.7,13.7,51.7z"/>
			<path class="st4" d="M24.1,51.6c0.7,0,1.3-0.6,1.3-1.3S24.8,49,24.1,49s-1.3,0.6-1.3,1.3C22.8,51,23.4,51.6,24.1,51.6z"/>
		</g>
	</g>
	<g>
		<path class="st4" d="M184,142.4H25.2c-0.2,0-0.3-0.1-0.3-0.3s0.1-0.3,0.3-0.3H184c0.2,0,0.3,0.1,0.3,0.3
			C184.3,142.2,184.2,142.4,184,142.4z"/>
	</g>
	<path class="st4" d="M97.7,54.4c0.2,0,0.4,0.1,0.5,1c0.1,1-0.2,1.2-0.4,1.2c-0.2,0-0.4-0.3-0.4-1C97.4,54.8,97.4,54.4,97.7,54.4z"
		/>
	<g>
		<path class="st4" d="M91.7,60.9c-1.2-0.1-2-0.5-2.6-1.2s-0.9-1.6-0.9-2.6c0.1-0.9,0.5-1.8,1.2-2.4c0.7-0.6,1.6-0.9,2.6-0.9
			c0.4,0,0.7,0.1,1.1,0.2c0.2,0.1,0.2,0.2,0.2,0.4c-0.1,0.2-0.2,0.2-0.4,0.2c-0.3-0.1-0.6-0.2-0.9-0.2c-0.8-0.1-1.5,0.2-2.1,0.7
			s-0.9,1.2-1,2c0,0.8,0.2,1.5,0.7,2.1s1.2,0.9,2,1c0.5,0,1.1-0.1,1.5-0.3c0.2-0.1,0.3,0,0.4,0.1c0.1,0.2,0,0.3-0.1,0.4
			C92.8,60.7,92.3,60.9,91.7,60.9z"/>
	</g>
	<g>
		<path class="st4" d="M91,59.3c-0.3-0.3-0.3-0.4-0.2-0.6l1.8-1.4l-2.1-1.5c-0.1-0.1-0.2-0.3-0.1-0.4c0.1-0.1,0.3-0.2,0.4-0.1
			l2.4,1.8C93.2,57.6,91,59.3,91,59.3C91.1,59.3,91.1,59.3,91,59.3z"/>
	</g>
	<g>
		<path class="st4" d="M112.5,60.9c-0.6,0-1.1-0.1-1.6-0.4c-0.2-0.1-0.2-0.3-0.1-0.4c0.1-0.2,0.3-0.2,0.4-0.1c0.5,0.2,1,0.4,1.5,0.3
			c0.8,0,1.5-0.4,2-1s0.8-1.3,0.7-2.1c-0.1-1.6-1.5-2.8-3.1-2.7c-0.3,0-0.7,0.1-1,0.2c-0.2,0.1-0.3,0-0.4-0.2s0-0.3,0.2-0.4
			c0.4-0.2,0.8-0.2,1.2-0.3c2-0.1,3.6,1.4,3.7,3.3c0.1,1.9-1.4,3.6-3.3,3.7C112.6,60.9,112.6,60.9,112.5,60.9z"/>
	</g>
	<g>
		<path class="st4" d="M113.2,59.3c-0.2-0.1-2.4-1.7-2.4-1.7c0-0.5,2.4-2.3,2.4-2.3c0.1-0.1,0.3-0.1,0.4,0.1
			c0.1,0.1,0.1,0.3-0.1,0.4l-2.1,1.5l1.8,1.4c0.1,0.1,0.2,0.3,0.1,0.4C113.4,59.2,113.3,59.3,113.2,59.3z"/>
	</g>
	<g>
		<path class="st4" d="M134.6,131.1c-3.9,0-8.1-1.9-10.9-8.7c-0.1-0.2,0-0.3,0.2-0.4s0.3,0,0.4,0.2c2.9,7,7.6,9.6,14,7.8
			c10.8-3.1,7.8-16.8,6.9-21.3c-1.4-6.6-5.3-22.9-5.3-23.1s0.1-0.3,0.2-0.4c0.2,0,0.3,0.1,0.4,0.2c0,0.2,3.9,16.5,5.3,23.1
			c1,4.6,4.1,18.8-7.3,22.1C137.2,130.9,135.9,131.1,134.6,131.1z"/>
	</g>
	<g>
		<path class="st4" d="M102.7,69h-1.2c-1.6,0-3.8-0.3-5.5-1.8c-1.4-1.2-2.3-3-2.8-5.7c-0.3-1.8-0.4-7.4-0.4-9.2
			c0-0.2,0.1-0.3,0.3-0.3c0.2,0,0.3,0.1,0.3,0.3c0,2,0.1,7.4,0.4,9.1c0.5,2.5,1.3,4.3,2.5,5.4c1.6,1.4,3.7,1.7,5.1,1.7h1.2
			c1.4,0,3.5-0.3,5.1-1.7c1.2-1.1,2.1-2.8,2.5-5.4c0.3-1.8,0.3-6.2,0.3-7.8c0-0.2,0.1-0.3,0.3-0.3c0.2,0,0.3,0.1,0.3,0.3
			c0,1.6,0,6-0.3,7.9c-0.5,2.7-1.4,4.6-2.8,5.7C106.5,68.7,104.2,69,102.7,69z"/>
	</g>
	<g>
		<path class="st4" d="M95.9,68.1c-0.2,0-0.3-0.1-0.3-0.3v-1c0-0.2,0.1-0.3,0.3-0.3c0.2,0,0.3,0.1,0.3,0.3v1
			C96.2,67.9,96.1,68.1,95.9,68.1z"/>
	</g>
	<g>
		<path class="st4" d="M108.3,67.9c-0.2,0-0.3-0.1-0.3-0.3v-0.9c0-0.2,0.1-0.3,0.3-0.3c0.2,0,0.3,0.1,0.3,0.3v0.9
			C108.6,67.8,108.4,67.9,108.3,67.9z"/>
	</g>
	<g>
		<path class="st4" d="M112.3,54.4c-0.2,0-0.3-0.2-0.3-0.4c0.7-4.4,0-7.1-0.7-9.2c-1.5-4.3-7.9-5.3-11.9-4.6c-3.1,0.5-4.8,3-4.8,3
			c-0.8,0.3-1.3,0.5-1.7,0.8c-0.1,0.1-0.3,0.1-0.4,0s-0.1-0.3,0-0.4c0.5-0.4,1-0.7,1.6-0.8c0.4-0.5,2.1-2.7,5.1-3.2
			c4.2-0.7,11,0.3,12.6,5c0.8,2.1,1.4,4.9,0.7,9.5C112.6,54.3,112.4,54.4,112.3,54.4z"/>
	</g>
	<g>
		<path class="st4" d="M91.8,54.4c-0.3-0.3-1.1-3-1-5.7c0-0.2,0.1-0.3,0.3-0.3c0.2,0,0.3,0.1,0.3,0.3c0,2.6,0.7,5.2,0.7,5.3
			C92.2,54.2,92.1,54.4,91.8,54.4C91.9,54.4,91.9,54.4,91.8,54.4z"/>
	</g>
	<g>
		<path class="st4" d="M75.8,142.2c-0.2,0-0.3-0.2-0.3-0.3l0.6-5.5c0-0.2,0.2-0.3,0.3-0.3c0.2,0,0.3,0.2,0.3,0.3l-0.6,5.5
			C76.1,142,76,142.2,75.8,142.2z"/>
	</g>
	<g>
		<path class="st4" d="M79.6,107.3c-0.2,0-0.3-0.2-0.3-0.3l2-15.7c0-0.2,0.2-0.3,0.3-0.3c0.2,0,0.3,0.2,0.3,0.3l-2,15.7
			C79.9,107.2,79.8,107.3,79.6,107.3z"/>
	</g>
	<g>
		<path class="st4" d="M125.9,142.2c-0.2,0-0.3-0.1-0.3-0.3c-2.1-22.3-3.7-35.6-4.7-42.8c0-0.2,0.1-0.3,0.3-0.3
			c0.2,0,0.3,0.1,0.3,0.3c1,7.2,2.6,20.5,4.7,42.8C126.2,142,126.1,142.1,125.9,142.2L125.9,142.2z"/>
	</g>
	<g>
		<path class="st4" d="M95.6,53.4c-0.3-0.1-0.3-0.3-0.3-0.4c0.6-1.5,2.7-2,3.9-1.7c0.2,0,0.3,0.2,0.2,0.4c0,0.2-0.2,0.3-0.4,0.2
			c-1-0.2-2.8,0.2-3.2,1.3C95.8,53.4,95.7,53.4,95.6,53.4z"/>
	</g>
	<g>
		<path class="st4" d="M108,53.4c-0.7-1.3-2.5-1.7-3.5-1.5c-0.2,0-0.3-0.1-0.4-0.2c0-0.2,0.1-0.3,0.2-0.4c1.3-0.3,3.4,0.2,3.9,1.7
			C108.3,53.2,108.2,53.3,108,53.4C108.1,53.4,108.1,53.4,108,53.4z"/>
	</g>
	<g>
		<path class="st4" d="M95.4,45.1c-0.3-0.1-1.2-1.5-1.2-1.5c-0.1-0.1-0.1-0.3,0.1-0.4c0.1-0.1,0.3-0.1,0.4,0.1l1,1.4
			c0.1,0.1,0.1,0.3-0.1,0.4C95.6,45.1,95.5,45.1,95.4,45.1z"/>
	</g>
	<g>
		<path class="st4" d="M129.1,80.9c-5.9-6.9-11.9-8.2-16.5-8.6c-0.2,0-0.3-0.2-0.3-0.3c0-0.2,0.2-0.3,0.3-0.3
			c4.7,0.4,10.8,1.7,16.7,8.7c0.1,0.1,0.1,0.3,0,0.4C129.2,80.9,129.1,80.9,129.1,80.9z"/>
	</g>
	<g>
		<path class="st4" d="M25.2,89.3H17c-0.6,0-1.1-0.2-1.3-0.6s-0.2-0.9,0.1-1.5l4.1-7c0.6-1.1,1.8-1.1,2.5,0l4.1,7
			c0.3,0.5,0.4,1.1,0.1,1.5C26.3,89.1,25.8,89.3,25.2,89.3z M21,79.9c-0.3,0-0.5,0.2-0.7,0.5l-4.1,7c-0.2,0.3-0.2,0.7-0.1,0.9
			c0.1,0.2,0.4,0.3,0.8,0.3h8.2c0.4,0,0.7-0.1,0.8-0.3c0.1-0.2,0.1-0.5-0.1-0.9l-4.1-7C21.5,80.1,21.3,79.9,21,79.9z"/>
	</g>
	<g>
		<path class="st4" d="M119.8,96c-0.9,0-1.7-0.2-2.3-0.5c-0.6-0.3-0.9-0.8-1.1-1.4c-0.5-2.1,2.1-3.5,2.2-3.5c0.2-0.1,0.3,0,0.4,0.1
			c0.1,0.2,0,0.3-0.1,0.4c0,0-2.3,1.3-1.9,2.9c0.1,0.5,0.4,0.8,0.8,1c1,0.6,2.9,0.6,5.3-0.1c3.3-0.9,9.2-3.9,9.3-3.9
			c0.2-0.1,0.3,0,0.4,0.1c0.1,0.2,0,0.3-0.1,0.4c-0.2,0.1-6.1,3-9.4,4C122,95.8,120.8,96,119.8,96z"/>
	</g>
	<g>
		<path class="st4" d="M122.2,99c-1.1,0-1.9-0.2-2.4-0.6c-1.8-1.5-0.9-2.9-0.8-3s0.3-0.2,0.4-0.1s0.2,0.3,0.1,0.4
			c0,0.1-0.6,1,0.7,2.1c1.4,1.2,7,0.1,11.6-2.3c2.5-1.3,4.6-2.9,6.2-4.7c1.5-1.8,2.1-4.3,1.7-7c-0.4-2.4-1.5-4.7-3.1-6.6
			c-0.2-0.2-0.3-0.3-0.5-0.5c-0.8-0.8-1.5-1.6-1.6-2.9c0-0.5-0.1-1.1-0.1-1.8c-0.1-2.4-0.1-5.1-1.8-5.5c-1.1-0.3-2-0.1-2.6,0.6
			c-1.2,1.2-1.4,3.7-0.6,6.8c0.3,1.1,0.6,2.1,0.9,3.2l0.4,1.2c0.1,0.3,0.2,0.7,0,1c-0.1,0.3-0.3,0.4-0.5,0.6c-2,1.7-4.4,3-6.9,3.9
			c-3.5,1.2-5.5,2.5-6.1,3.9c-0.2,0.6-0.2,1.2,0.1,1.8c0.1,0.3,0.5,0.5,0.9,0.7c2.1,0.7,7.3-0.3,12.9-3.4c0.2-0.1,0.3,0,0.4,0.1
			c0.1,0.1,0,0.3-0.1,0.4c-5.1,2.8-10.8,4.3-13.4,3.4c-0.6-0.2-1.1-0.5-1.3-1c-0.4-0.8-0.4-1.6-0.1-2.3c0.6-1.6,2.7-3,6.4-4.2
			c2.5-0.9,4.8-2.1,6.7-3.8c0.1-0.1,0.3-0.2,0.3-0.3c0.1-0.2,0-0.4-0.1-0.6l-0.4-1.2c-0.3-1.1-0.6-2.1-0.9-3.2
			c-0.9-3.3-0.6-6.1,0.7-7.4c0.8-0.8,2-1.1,3.2-0.8c2.1,0.5,2.2,3.5,2.3,6.1c0,0.6,0,1.2,0.1,1.7c0.1,1.1,0.7,1.7,1.4,2.5
			c0.2,0.2,0.3,0.3,0.5,0.5c1.7,2,2.8,4.4,3.2,6.9c0.5,2.9-0.2,5.6-1.8,7.5s-3.8,3.6-6.4,4.9C128.9,97.8,124.8,99,122.2,99z"/>
	</g>
	<g>
		<path class="st4" d="M93.4,62.3h-10c-0.2,0-0.3-0.1-0.3-0.3s0.1-0.3,0.3-0.3h10c0.2,0,0.3,0.1,0.3,0.3
			C93.7,62.1,93.5,62.3,93.4,62.3z"/>
	</g>
	<g>
		<path class="st4" d="M110.4,39.7c-0.2,0-0.3-0.1-0.3-0.3V10.6c0-4.6-3.7-8.3-8.3-8.3H32.6c-4.6,0-8.3,3.7-8.3,8.3V24
			c0,0.2-0.1,0.3-0.3,0.3c-0.2,0-0.3-0.1-0.3-0.3V10.6c0-4.9,4-8.9,8.9-8.9h69.2c4.9,0,8.9,4,8.9,8.9v28.8
			C110.7,39.6,110.6,39.7,110.4,39.7z"/>
	</g>
	<g>
		<path class="st4" d="M47.9,62.3H32.6c-4.9,0-8.9-4-8.9-8.9c0-0.2,0.1-0.3,0.3-0.3c0.2,0,0.3,0.1,0.3,0.3c0,4.6,3.7,8.3,8.3,8.3
			h15.3c0.2,0,0.3,0.1,0.3,0.3C48.2,62.1,48.1,62.3,47.9,62.3z"/>
	</g>
	<g>
		<path class="st4" d="M181.4,119.7h-34.6c-0.2,0-0.3-0.1-0.3-0.3c0-0.2,0.1-0.3,0.3-0.3h34.6c3.9,0,7.1-3.2,7.1-7.1V86.1
			c0-0.2,0.1-0.3,0.3-0.3s0.3,0.1,0.3,0.3V112C189.1,116.3,185.6,119.7,181.4,119.7z"/>
	</g>
	<g>
		<path class="st4" d="M188.8,73.6c-0.2,0-0.3-0.1-0.3-0.3v-2.7c0-3.9-3.2-7.1-7.1-7.1H126c-3.9,0-7.1,3.2-7.1,7.1v2.5
			c0,0.2-0.1,0.3-0.3,0.3c-0.2,0-0.3-0.1-0.3-0.3v-2.5c0-4.3,3.5-7.7,7.7-7.7h55.4c4.3,0,7.7,3.5,7.7,7.7v2.7
			C189.1,73.5,188.9,73.6,188.8,73.6z"/>
	</g>
	<g>
		<path class="st4" d="M100.4,136.8H21.5c-4.3,0-7.7-3.5-7.7-7.7v-14.2c0-4.3,3.5-7.7,7.7-7.7H46c0.2,0,0.3,0.1,0.3,0.3
			c0,0.2-0.1,0.3-0.3,0.3H21.5c-3.9,0-7.1,3.2-7.1,7.1V129c0,3.9,3.2,7.1,7.1,7.1h78.9c3.9,0,7.1-3.2,7.1-7.1v-14.2
			c0-3.9-3.2-7.1-7.1-7.1H68.7c-0.2,0-0.3-0.1-0.3-0.3c0-0.2,0.1-0.3,0.3-0.3h31.7c4.3,0,7.7,3.5,7.7,7.7V129
			C108.1,133.3,104.7,136.8,100.4,136.8z"/>
	</g>
	<g>
		<path class="st4" d="M65.9,47.8c-0.4-0.4-2-5.1,1.1-7.5c1.7-1.3,3.8-1.3,6-1.2c1.7,0,3.7,0.1,5.8-0.5c1.6-0.5,3.3-1.2,4.9-1.9
			c3.4-1.5,6.3-2.8,7.9-1.7c0.8,0.5,1,1.5,0.7,2.6c-0.8,2.9-5,6-12,6.2c-0.2,0-0.3-0.1-0.3-0.3s0.1-0.3,0.3-0.3
			c7.8-0.2,10.9-3.9,11.5-5.8c0.3-0.9,0.1-1.6-0.4-1.9c-1.3-0.9-4.2,0.4-7.3,1.7c-1.6,0.7-3.3,1.5-5,2c-2.2,0.7-4.2,0.6-6,0.6
			c-2.2-0.1-4.1-0.1-5.6,1.1c-2.7,2.1-1.2,6.5-1.2,6.6c0.1,0.2,0,0.3-0.2,0.4C65.9,47.8,65.9,47.8,65.9,47.8z"/>
	</g>
	<g>
		<path class="st4" d="M82.4,46.7c-0.7,0-1.3,0-2-0.1c-0.2,0-0.3-0.2-0.3-0.3c0-0.2,0.1-0.3,0.3-0.3c6.3,0.5,11.7-1.4,12.8-4.3
			c0.3-0.8,0.3-1.5,0-2c-0.5-0.8-1.6-0.8-1.7-0.8c-0.2,0-0.3-0.2-0.3-0.3c0-0.2,0.2-0.3,0.3-0.3c0.1,0,1.5,0.1,2.1,1.1
			c0.4,0.7,0.5,1.5,0.1,2.6C92.7,44.8,88.1,46.7,82.4,46.7z"/>
	</g>
	<g>
		<path class="st4" d="M72.9,50.8c-0.2,0-0.3-0.1-0.3-0.3s0.1-0.3,0.3-0.3c5.5-0.3,6.1-5.6,6.1-5.7c0-0.2,0.2-0.3,0.3-0.3
			c0.2,0,0.3,0.2,0.3,0.3C79.6,44.6,78.9,50.5,72.9,50.8L72.9,50.8z"/>
	</g>
	<g>
		<path class="st4" d="M81.3,63.5c-0.2,0-0.5,0-0.7-0.1c-1.8-0.6-3-3.5-3.4-4.7c-0.3-1-1.8-1.5-2.6-1.8c-0.9-0.3-1.8-0.5-2.6-0.7
			c-0.5-0.1-1.1-0.2-1.6-0.4c-1.7-0.5-3-1.5-3.8-3.1c-0.7-1.5-1-3.2-0.9-5.1c0-0.2,0.2-0.3,0.3-0.3c0.2,0,0.3,0.2,0.3,0.3
			c-0.1,1.8,0.2,3.4,0.9,4.8c0.7,1.5,1.8,2.4,3.4,2.8c0.5,0.1,1,0.3,1.6,0.4c0.9,0.2,1.8,0.4,2.7,0.7c1,0.4,2.6,1,3,2.2
			c0.3,0.9,1.4,3.8,3,4.3c0.5,0.2,1.1,0.1,1.7-0.3c1-0.6,1.2-1.6,1.2-2.3c0.1-1.8-0.9-4-2.4-5.2c-0.8-0.7-1.8-1.4-2.7-1.8
			c-0.2-0.1-0.5-0.3-0.6-0.6c-0.1-0.2,0-0.4,0.1-0.6c0.2-0.6,0.7-1,1.3-1.2c0.4-0.1,0.9-0.2,1.3-0.2c2.3-0.1,4.3-0.4,6.2-0.8
			c1.5-0.3,3.3-0.8,4.8-1.8c0.5-0.3,1.2-0.8,1.4-1.5c0.5-1.7-1.1-2.4-1.2-2.4c-0.2-0.1-0.2-0.2-0.2-0.4c0.1-0.2,0.2-0.2,0.4-0.2
			c0.8,0.3,2.1,1.4,1.6,3.2c-0.3,0.9-1.1,1.5-1.7,1.9c-1.6,1-3.4,1.5-5,1.9c-1.9,0.4-4.1,0.7-6.3,0.8c-0.5,0-0.8,0-1.2,0.1
			c-0.4,0.1-0.8,0.4-0.9,0.8c1.1,0.9,2.1,1.6,3,2.3c1.6,1.4,2.7,3.8,2.6,5.7c-0.1,1.2-0.6,2.2-1.5,2.8
			C82.3,63.3,81.8,63.5,81.3,63.5z"/>
	</g>
	<g>
		<path class="st4" d="M25.5,93.6h-8.9c-3.1,0-5.7-2.6-5.7-5.7v-6.6c0-3.1,2.6-5.7,5.7-5.7h8.9c3.1,0,5.7,2.6,5.7,5.7v6.6
			C31.2,91,28.6,93.6,25.5,93.6z M16.6,76.2c-2.8,0-5.1,2.3-5.1,5.1v6.6c0,2.8,2.3,5.1,5.1,5.1h8.9c2.8,0,5.1-2.3,5.1-5.1v-6.6
			c0-2.8-2.3-5.1-5.1-5.1H16.6z"/>
	</g>
	<g>
		<path class="st4" d="M159.7,35.3h-9c-1.4,0-2.6-1.2-2.6-2.6v-9c0-1.4,1.2-2.6,2.6-2.6h9c1.4,0,2.6,1.2,2.6,2.6v9
			C162.3,34.1,161.2,35.3,159.7,35.3z M150.7,21.7c-1.1,0-2,0.9-2,2v9c0,1.1,0.9,2,2,2h9c1.1,0,2-0.9,2-2v-9c0-1.1-0.9-2-2-2H150.7z
			"/>
	</g>
	<g>
		<path class="st4" d="M153.9,21.4c-2-5-4.8-8.3-8.7-10c-5.5-2.4-12.9-1.7-22.1,2.2c-0.2,0.1-0.3,0-0.4-0.2s0-0.3,0.2-0.4
			c9.4-4,17-4.7,22.6-2.2c4,1.8,7,5.3,8.7,10.2c0.1,0.2,0,0.3-0.2,0.4C153.9,21.4,153.9,21.4,153.9,21.4z"/>
	</g>
	<g>
		<path class="st4" d="M119.8,18c-1.9,0-3.4-1.5-3.4-3.4s1.5-3.4,3.4-3.4s3.4,1.5,3.4,3.4C123.2,16.5,121.7,18,119.8,18z
			 M119.8,11.8c-1.6,0-2.8,1.3-2.8,2.8c0,1.6,1.3,2.8,2.8,2.8c1.6,0,2.8-1.3,2.8-2.8C122.6,13,121.3,11.8,119.8,11.8z"/>
	</g>
	<g>
		<path class="st4" d="M155.2,31.6c-1.9,0-3.4-1.5-3.4-3.4s1.5-3.4,3.4-3.4s3.4,1.5,3.4,3.4C158.7,30.1,157.1,31.6,155.2,31.6z
			 M155.2,25.4c-1.6,0-2.8,1.3-2.8,2.8c0,1.6,1.3,2.8,2.8,2.8c1.6,0,2.8-1.3,2.8-2.8C158.1,26.6,156.8,25.4,155.2,25.4z"/>
	</g>
	<g>
		<path class="st4" d="M172.4,47.1c-2.7,0-5.2-0.5-7.4-1.4c-4-1.8-7-5.3-8.7-10.2c-0.1-0.2,0-0.3,0.2-0.4c0.2-0.1,0.3,0,0.4,0.2
			c1.7,4.8,4.5,8.1,8.4,9.8c5.5,2.4,12.9,1.7,22.2-2.2c0.2-0.1,0.3,0,0.4,0.2c0.1,0.2,0,0.3-0.2,0.4
			C181.9,45.8,176.8,47.1,172.4,47.1z"/>
	</g>
	<g>
		<path class="st4" d="M190.7,45.3c-1.9,0-3.4-1.5-3.4-3.4s1.5-3.4,3.4-3.4s3.4,1.5,3.4,3.4C194.1,43.7,192.6,45.3,190.7,45.3z
			 M190.7,39c-1.6,0-2.8,1.3-2.8,2.8c0,1.6,1.3,2.8,2.8,2.8c1.6,0,2.8-1.3,2.8-2.8S192.3,39,190.7,39z"/>
	</g>
	<g>
		<path class="st4" d="M88.6,118.3H43.2c-0.2,0-0.3-0.1-0.3-0.3c0-0.2,0.1-0.3,0.3-0.3h45.4c0.2,0,0.3,0.1,0.3,0.3
			C88.9,118.2,88.8,118.3,88.6,118.3z"/>
	</g>
	<g>
		<path class="st4" d="M88.6,126H43.2c-0.2,0-0.3-0.1-0.3-0.3c0-0.2,0.1-0.3,0.3-0.3h45.4c0.2,0,0.3,0.1,0.3,0.3
			C88.9,125.8,88.8,126,88.6,126z"/>
	</g>
	<g>
		<path class="st4" d="M27.5,127.2c-2.9,0-5.3-2.4-5.3-5.3s2.4-5.3,5.3-5.3s5.3,2.4,5.3,5.3C32.7,124.8,30.4,127.2,27.5,127.2z
			 M27.5,117.3c-2.6,0-4.7,2.1-4.7,4.7s2.1,4.7,4.7,4.7s4.7-2.1,4.7-4.7C32.1,119.4,30,117.3,27.5,117.3z"/>
	</g>
	<g>
		<path class="st4" d="M105.6,16.7H28.8c-0.2,0-0.3-0.1-0.3-0.3c0-0.2,0.1-0.3,0.3-0.3h76.9c0.2,0,0.3,0.1,0.3,0.3
			C105.9,16.6,105.8,16.7,105.6,16.7z"/>
	</g>
	<g>
		<path class="st4" d="M100.8,12.7c-1.8,0-3.4-1.5-3.4-3.4c0-1.8,1.5-3.4,3.4-3.4c1.8,0,3.4,1.5,3.4,3.4
			C104.1,11.2,102.6,12.7,100.8,12.7z M100.8,6.6c-1.5,0-2.7,1.2-2.7,2.7s1.2,2.7,2.7,2.7s2.7-1.2,2.7-2.7
			C103.5,7.9,102.3,6.6,100.8,6.6z"/>
	</g>
	<g>
		<path class="st1" d="M93.5,9.4c0,1.7-1.4,3-3,3c-1.7,0-3-1.4-3-3c0-1.7,1.4-3,3-3C92.2,6.3,93.5,7.7,93.5,9.4z"/>
		<g>
			<path class="st4" d="M90.5,12.7c-1.8,0-3.4-1.5-3.4-3.4c0-1.8,1.5-3.4,3.4-3.4c1.8,0,3.3,1.5,3.3,3.4S92.3,12.7,90.5,12.7z
				 M90.5,6.6c-1.5,0-2.7,1.2-2.7,2.7S89,12,90.5,12s2.7-1.2,2.7-2.7C93.2,7.9,92,6.6,90.5,6.6z"/>
		</g>
	</g>
	<g>
		<path class="st4" d="M80.2,12.7c-1.8,0-3.4-1.5-3.4-3.4c0-1.8,1.5-3.4,3.4-3.4c1.8,0,3.4,1.5,3.4,3.4S82.1,12.7,80.2,12.7z
			 M80.2,6.6c-1.5,0-2.7,1.2-2.7,2.7s1.2,2.7,2.7,2.7s2.7-1.2,2.7-2.7C82.9,7.9,81.7,6.6,80.2,6.6z"/>
	</g>
	<g>
		<path class="st4" d="M71.6,80.4c-0.4-0.3-0.3-0.5-0.2-0.6c0.1-0.1,9.3-5.8,19.9-7.8c0.2,0,0.3,0.1,0.4,0.2c0,0.2-0.1,0.3-0.2,0.4
			c-10.5,2-19.6,7.7-19.7,7.8C71.7,80.4,71.6,80.4,71.6,80.4z"/>
	</g>
	<g>
		<path class="st4" d="M116.1,89h-3.2c-0.2,0-0.3-0.1-0.3-0.3c0-0.2,0.1-0.3,0.3-0.3h3.2c0.2,0,0.3,0.1,0.3,0.3S116.2,89,116.1,89z
			 M109.6,89h-3.2c-0.2,0-0.3-0.1-0.3-0.3c0-0.2,0.1-0.3,0.3-0.3h3.2c0.2,0,0.3,0.1,0.3,0.3S109.8,89,109.6,89z M103.2,89H100
			c-0.2,0-0.3-0.1-0.3-0.3c0-0.2,0.1-0.3,0.3-0.3h3.2c0.2,0,0.3,0.1,0.3,0.3S103.4,89,103.2,89z M96.8,89h-3.2
			c-0.2,0-0.3-0.1-0.3-0.3c0-0.2,0.1-0.3,0.3-0.3h3.2c0.2,0,0.3,0.1,0.3,0.3C97.1,88.9,96.9,89,96.8,89z M90.3,89h-3.2
			c-0.2,0-0.3-0.1-0.3-0.3c0-0.2,0.1-0.3,0.3-0.3h3.2c0.2,0,0.3,0.1,0.3,0.3C90.6,88.9,90.5,89,90.3,89z M83.9,89h-3.2
			c-0.2,0-0.3-0.1-0.3-0.3c0-0.2,0.1-0.3,0.3-0.3h3.2c0.2,0,0.3,0.1,0.3,0.3C84.2,88.9,84.1,89,83.9,89z M77.5,89h-3.2
			c-0.2,0-0.3-0.1-0.3-0.3c0-0.2,0.1-0.3,0.3-0.3h3.2c0.2,0,0.3,0.1,0.3,0.3S77.6,89,77.5,89z M72.1,88c-0.2,0-0.3-0.1-0.3-0.3v-3.2
			c0-0.2,0.1-0.3,0.3-0.3c0.2,0,0.3,0.1,0.3,0.3v3.2C72.4,87.9,72.2,88,72.1,88z M72.1,81.6c-0.2,0-0.3-0.1-0.3-0.3v-3.2
			c0-0.2,0.1-0.3,0.3-0.3c0.2,0,0.3,0.1,0.3,0.3v3.2C72.4,81.5,72.2,81.6,72.1,81.6z M72.1,75.2c-0.2,0-0.3-0.1-0.3-0.3v-3.2
			c0-0.2,0.1-0.3,0.3-0.3c0.2,0,0.3,0.1,0.3,0.3v3.2C72.4,75,72.2,75.2,72.1,75.2z M72.1,68.7c-0.2,0-0.3-0.1-0.3-0.3v-3.2
			c0-0.2,0.1-0.3,0.3-0.3c0.2,0,0.3,0.1,0.3,0.3v3.2C72.4,68.6,72.2,68.7,72.1,68.7z M131.4,63.4c-0.2,0-0.3-0.1-0.3-0.3v-3.2
			c0-0.2,0.1-0.3,0.3-0.3s0.3,0.1,0.3,0.3v3.2C131.7,63.3,131.6,63.4,131.4,63.4z M72.1,62.3c-0.2,0-0.3-0.1-0.3-0.3v-3.2
			c0-0.2,0.1-0.3,0.3-0.3c0.2,0,0.3,0.1,0.3,0.3V62C72.4,62.2,72.2,62.3,72.1,62.3z M131.4,57c-0.2,0-0.3-0.1-0.3-0.3v-3.2
			c0-0.2,0.1-0.3,0.3-0.3s0.3,0.1,0.3,0.3v3.2C131.7,56.9,131.6,57,131.4,57z M72.1,55.9c-0.2,0-0.3-0.1-0.3-0.3v-3.2
			c0-0.2,0.1-0.3,0.3-0.3c0.2,0,0.3,0.1,0.3,0.3v3.2C72.4,55.7,72.2,55.9,72.1,55.9z M131.4,50.6c-0.2,0-0.3-0.1-0.3-0.3V47
			c0-0.2,0.1-0.3,0.3-0.3s0.3,0.1,0.3,0.3v3.2C131.7,50.4,131.6,50.6,131.4,50.6z M72.1,49.4c-0.2,0-0.3-0.1-0.3-0.3v-3.2
			c0-0.2,0.1-0.3,0.3-0.3c0.2,0,0.3,0.1,0.3,0.3v3.2C72.4,49.3,72.2,49.4,72.1,49.4z M131.4,44.1c-0.2,0-0.3-0.1-0.3-0.3v-1.1h-1.5
			c-0.2,0-0.3-0.1-0.3-0.3s0.1-0.3,0.3-0.3h1.8c0.2,0,0.3,0.1,0.3,0.3v1.5C131.7,44,131.6,44.1,131.4,44.1z M72.1,43
			c-0.2,0-0.3-0.1-0.3-0.3c0-0.5,0.1-0.6,0.3-0.6H75c0.2,0,0.3,0.1,0.3,0.3s-0.1,0.3-0.3,0.3h-2.6C72.4,42.9,72.2,43,72.1,43z
			 M126.4,42.7h-3.2c-0.2,0-0.3-0.1-0.3-0.3s0.1-0.3,0.3-0.3h3.2c0.2,0,0.3,0.1,0.3,0.3C126.7,42.5,126.6,42.7,126.4,42.7z
			 M120,42.7h-3.2c-0.2,0-0.3-0.1-0.3-0.3s0.1-0.3,0.3-0.3h3.2c0.2,0,0.3,0.1,0.3,0.3C120.3,42.5,120.2,42.7,120,42.7z M113.6,42.7
			h-3.2c-0.2,0-0.3-0.1-0.3-0.3s0.1-0.3,0.3-0.3h3.2c0.2,0,0.3,0.1,0.3,0.3C113.9,42.5,113.7,42.7,113.6,42.7z M107.1,42.7h-3.2
			c-0.2,0-0.3-0.1-0.3-0.3s0.1-0.3,0.3-0.3h3.2c0.2,0,0.3,0.1,0.3,0.3C107.4,42.5,107.3,42.7,107.1,42.7z M100.7,42.7h-3.2
			c-0.2,0-0.3-0.1-0.3-0.3s0.1-0.3,0.3-0.3h3.2c0.2,0,0.3,0.1,0.3,0.3C101,42.5,100.9,42.7,100.7,42.7z M94.3,42.7H91
			c-0.2,0-0.3-0.1-0.3-0.3s0.1-0.3,0.3-0.3h3.2c0.2,0,0.3,0.1,0.3,0.3C94.6,42.5,94.4,42.7,94.3,42.7z M87.8,42.7h-3.2
			c-0.2,0-0.3-0.1-0.3-0.3s0.1-0.3,0.3-0.3h3.2c0.2,0,0.3,0.1,0.3,0.3C88.1,42.5,88,42.7,87.8,42.7z M81.4,42.7h-3.2
			c-0.2,0-0.3-0.1-0.3-0.3s0.1-0.3,0.3-0.3h3.2c0.2,0,0.3,0.1,0.3,0.3C81.7,42.5,81.6,42.7,81.4,42.7z"/>
	</g>
	<g>
		<path class="st4" d="M111,53.9c-6.2-5.6-13.1-7-14.4-7.2c-0.3,0.9-1.6,4.2-3.2,5.7c-0.1,0.1-0.3,0.1-0.4,0s-0.1-0.3,0-0.4
			c1.8-1.7,3.1-5.7,3.2-5.7c0.4-0.2,8.4,0.8,15.2,7.1c0.1,0.1,0.1,0.3,0,0.4C111.2,53.8,111.1,53.9,111,53.9z"/>
	</g>
	<g>
		<path class="st4" d="M101.8,61c-1.1,0-2.2-0.6-2.7-1.2c-0.3-0.4-0.3-0.7-0.2-0.9c0.1-0.3,0.4-0.7,0.6-1.2c0.7-1.2,1.6-2.7,1.9-5.2
			c0-0.2,0.1-0.3,0.3-0.3c0.2,0,0.3,0.2,0.3,0.3c-0.2,2.7-1.3,4.4-1.9,5.5c-0.3,0.4-0.5,0.8-0.6,1.1c0.5,0.9,1.5,1.4,2.4,1.3
			c0.2,0,0.3,0.1,0.3,0.3s-0.1,0.3-0.3,0.3C101.9,61,101.9,61,101.8,61z"/>
	</g>
	<g>
		<path class="st4" d="M102.1,104c-0.2,0-0.3-0.1-0.3-0.3V81.1c0-0.2,0.1-0.3,0.3-0.3c0.2,0,0.3,0.1,0.3,0.3v22.6
			C102.4,103.9,102.2,104,102.1,104z"/>
	</g>
	<g>
		<path class="st4" d="M67.4,54c-3.7-2.7-5.4-5.6-4.4-7.5c0.5-0.9,1.2-1.3,2.4-1.5c0.2,0,0.3,0.1,0.4,0.3c0,0.2-0.1,0.3-0.3,0.4
			c-1,0.2-1.6,0.5-1.9,1.2c-0.8,1.6,0.8,4.2,4,6.7c0.1,0.1,0.2,0.3,0.1,0.4C67.6,53.9,67.5,54,67.4,54z"/>
	</g>
	<g>
		<path class="st4" d="M77,58.2c-2-0.3-4.1-1-6.5-2.3c-0.1-0.1-0.3-0.2-0.4-0.2c-0.1-0.1-0.2-0.3-0.1-0.4c0.1-0.2,0.3-0.2,0.4-0.1
			c0.1,0.1,0.3,0.2,0.4,0.2c2.3,1.2,4.4,1.9,6.3,2.2c0.2,0,0.3,0.2,0.3,0.3C77.3,58.1,77.1,58.2,77,58.2z"/>
	</g>
	<g>
		<path class="st4" d="M82.4,56c-0.2,0-0.3-0.2-0.3-0.3c0.1-1.2-0.8-2.8-2.5-4.5c-0.1-0.1-0.1-0.3,0-0.4c0.1-0.1,0.3-0.1,0.4,0
			c1.9,1.8,2.9,3.6,2.7,5C82.7,55.9,82.6,56,82.4,56z"/>
	</g>
	<g>
		<path class="st4" d="M105,63.4c-0.4-0.5-0.9-3.2,0.5-3.5c0.6-0.2,1,0.1,1.2,0.3c0.5,0.5,0.5,1.5,0.4,2.2c0,0.2-0.2,0.3-0.4,0.2
			c-0.2,0-0.3-0.2-0.2-0.4c0.1-0.6,0.1-1.3-0.2-1.6c-0.1-0.1-0.2-0.2-0.6-0.1c-0.7,0.2-0.5,1.8-0.4,2.5
			C105.3,63.2,105.2,63.4,105,63.4L105,63.4z"/>
	</g>
	<g>
		<path class="st4" d="M47,49.6c-0.2,0-0.3-0.1-0.3-0.3v-29c0-0.2,0.1-0.3,0.3-0.3s0.3,0.1,0.3,0.3v29C47.3,49.4,47.2,49.6,47,49.6z
			"/>
	</g>
	<g>
		<path class="st4" d="M107.5,56.8c-0.1,0-2.5-0.6-2.5-0.6c-0.1-0.6,2.1-2.1,2.1-2.1c0.1-0.1,0.3-0.1,0.4,0.1
			c0.1,0.1,0.1,0.3-0.1,0.4l-1.6,1.1l1.8,0.4c0.2,0,0.3,0.2,0.2,0.4C107.7,56.7,107.6,56.8,107.5,56.8z"/>
	</g>
</g>
</svg>
