<?xml version="1.0" encoding="utf-8"?>
<!-- Generator: Adobe Illustrator 26.0.1, SVG Export Plug-In . SVG Version: 6.00 Build 0)  -->
<svg version="1.1" id="Layer_1" xmlns="http://www.w3.org/2000/svg" xmlns:xlink="http://www.w3.org/1999/xlink" x="0px" y="0px"
	 viewBox="0 0 100 100" style="enable-background:new 0 0 100 100;" xml:space="preserve">
<style type="text/css">
	.st0{fill:none;stroke:#A3C9A8;stroke-width:5;stroke-linecap:round;stroke-miterlimit:10;}
	.st1{fill:#BA727B;stroke:#BA727B;stroke-width:2;stroke-miterlimit:10;}
</style>
<g>
	<g>
		<path class="st0" d="M4.1,61.1c8.4,0.2,8.3,4.2,16.7,4.3c8.4,0.2,8.5-3.8,16.8-3.7c8.4,0.2,8.3,4.2,16.7,4.3
			c8.4,0.2,8.5-3.8,16.8-3.7s8.3,4.2,16.7,4.3"/>
	</g>
	<g>
		<path class="st0" d="M4.1,46.1c8.4,0.2,8.3,4.2,16.7,4.3c8.4,0.2,8.5-3.8,16.8-3.7c8.4,0.2,8.3,4.2,16.7,4.3
			c8.4,0.2,8.5-3.8,16.8-3.7s8.3,4.2,16.7,4.3"/>
	</g>
	<g>
		<path class="st0" d="M4.1,31.1c8.4,0.2,8.3,4.2,16.7,4.3c8.4,0.2,8.5-3.8,16.8-3.7c8.4,0.2,8.3,4.2,16.7,4.3
			c8.4,0.2,8.5-3.8,16.8-3.7s8.3,4.2,16.7,4.3"/>
	</g>
	<g>
		<path class="st0" d="M4.1,16.1c8.4,0.2,8.3,4.2,16.7,4.3c8.4,0.2,8.5-3.8,16.8-3.7c8.4,0.2,8.3,4.2,16.7,4.3
			c8.4,0.2,8.5-3.8,16.8-3.7c8.4,0.2,8.3,4.2,16.7,4.3"/>
	</g>
</g>
<path class="st1" d="M56.1,30.7c3.9-3.6,8.8-6.2,14-7.4c8.6-1.7,16.1,0.4,22,7s7,14.7,4.3,23.2c-1.6,4.8-4.4,9.1-8,12.6
	C78.1,76.3,67.8,86.5,57.7,96.7c-1.5,1.6-2.8,1.7-4.3,0.1C43,86.4,32.7,76.2,22.4,65.8c-4.8-4.9-8.2-10.6-9-17.5
	c-1.9-17.1,13.7-29.7,30-24.1C47.7,25.6,51.6,28.3,56.1,30.7z M56,50.6l-7.9-5.3c-3.2-2.2-3.3-2.6-0.7-5.4c1.8-1.9,3.5-3.8,5.3-5.8
	c-3.2-3.1-7.2-5.4-11.5-6.6c-13-3.6-24.9,6.1-23.9,19.5c0.5,6.8,4,12.1,8.7,16.8c9.4,9.4,18.8,18.8,28.2,28.2c0.4,0.4,1,0.8,1.3,1.1
	c10.4-10.3,20.8-20.3,30.8-30.8c2.9-3.2,5.1-6.9,6.5-10.9c2.6-6.7,0.9-14.3-4.4-19.2c-5.4-5.4-12-6.6-19.2-4.5
	c-8,2.4-13.1,8.5-18.5,14.6c3.2,2.1,6.2,4.1,9.2,6.2c2.2,1.5,2.2,2.6,0.1,4.2c-1.8,1.4-3.6,2.8-5.6,4.2c1.5,2,2.8,3.9,4.2,5.7
	c1.2,1.4,1,2.6-0.3,3.9s-2.6,2.5-4.2,4l4.4,4c1,1,1.6,2.2,0.2,3.1c-1,0.4-2.1,0.2-2.9-0.3c-1.8-1.5-3.4-3.3-5.2-5
	c-1.5-1.4-1.3-2.7,0.1-4s2.9-2.5,4.4-3.7C53.2,62,51.8,60,50.3,58c-1.1-1.4-0.9-2.5,0.5-3.6C52.4,53.3,54,52.1,56,50.6z"/>
</svg>
