<?xml version="1.0" encoding="utf-8"?>
<!-- Generator: Adobe Illustrator 26.0.1, SVG Export Plug-In . SVG Version: 6.00 Build 0)  -->
<svg version="1.1" id="Layer_1" xmlns="http://www.w3.org/2000/svg" xmlns:xlink="http://www.w3.org/1999/xlink" x="0px" y="0px"
	 viewBox="0 0 24 24" style="enable-background:new 0 0 24 24;" xml:space="preserve">
<style type="text/css">
	.st0{fill:#A3C9A8;}
</style>
<path class="st0" d="M12.7,22.2h-1.4h-0.1c-1.4-0.1-2.7-0.5-3.9-1.2c-2.9-1.5-4.9-4.3-5.4-7.6c0-0.3-0.1-0.6-0.1-0.9v-1.2
	c0-0.3,0.1-0.5,0.1-0.8c0.4-2.7,1.8-5.1,3.9-6.7c2-1.6,4.6-2.3,7.2-2c2.3,0.2,4.4,1.2,6.1,2.8c2.6,2.4,3.7,6.1,2.9,9.6
	c-0.9,4-4.1,7.1-8.2,7.7C13.4,22.1,13.1,22.1,12.7,22.2z M12,3.1c-4.9,0-8.9,4-8.9,8.9s4,8.9,8.9,8.9s8.9-4,8.9-8.9
	C20.9,7.1,16.9,3.1,12,3.1z"/>
<path class="st0" d="M13.3,10.1c0,1.1,0,2.1,0,3.2c0,0.7-0.6,1.3-1.3,1.3c-0.2,0-0.5-0.1-0.7-0.2c-0.4-0.3-0.7-0.7-0.6-1.2V7
	c0-0.6,0.3-1.1,0.9-1.3c0.7-0.2,1.4,0.1,1.6,0.8c0,0.1,0.1,0.3,0.1,0.4C13.3,8,13.3,9,13.3,10.1z"/>
<path class="st0" d="M12,15.8c0.7,0,1.3,0.6,1.3,1.3s-0.6,1.3-1.3,1.3c-0.7,0-1.3-0.6-1.3-1.3c0,0,0,0,0,0
	C10.7,16.4,11.3,15.8,12,15.8z"/>
</svg>
