<svg id="Layer_1" data-name="Layer 1" xmlns="http://www.w3.org/2000/svg" viewBox="0 0 24 24"><defs><style>.cls-1{fill:#00b2ac;}</style></defs><path class="cls-1" d="M12.71,22.19H11.28l-.11,0A9.44,9.44,0,0,1,7.28,21a10.1,10.1,0,0,1-5.37-7.56c0-.28-.07-.56-.11-.85V11.4c0-.27.06-.54.1-.81A10,10,0,0,1,5.8,3.91a9.91,9.91,0,0,1,7.19-2,9.69,9.69,0,0,1,6.06,2.79,9.86,9.86,0,0,1,2.89,9.57A10.08,10.08,0,0,1,13.77,22C13.42,22.1,13.07,22.14,12.71,22.19ZM12,3.08A8.92,8.92,0,1,0,20.92,12,8.93,8.93,0,0,0,12,3.08Z"/><path class="cls-1" d="M13.27,10.1c0,1.07,0,2.13,0,3.19a1.26,1.26,0,0,1-1.93,1.07,1.29,1.29,0,0,1-.62-1.2V7a1.3,1.3,0,0,1,.85-1.29,1.28,1.28,0,0,1,1.7,1.22C13.28,8,13.27,9,13.27,10.1Z"/><path class="cls-1" d="M12,15.81a1.27,1.27,0,1,1-1.26,1.27A1.27,1.27,0,0,1,12,15.81Z"/></svg>