<svg id="Layer_1" data-name="Layer 1" xmlns="http://www.w3.org/2000/svg" viewBox="0 0 547 511"><defs><style>.cls-1{fill:#00b2ac;}.cls-1,.cls-3,.cls-4,.cls-5,.cls-7{fill-rule:evenodd;}.cls-2,.cls-5{fill:#fff;}.cls-3{fill:#e7eaee;}.cls-4{fill:#00160a;}.cls-6,.cls-7{fill:#f282b4;}</style></defs><path class="cls-1" d="M308.27,450c28.06,13.69,85.37,26.87,103.18,29.25,23.46,3.21,71.55-19.44,89.81-38.42,10.38-10.8,76-156.62,17.65-139s-34.26-96.54-113.49-96.57c-83.07,3.48-68.87,29.39-125.17,66.48-57.92,33.75-89.3,35.12-97.65,72.51-8.55,37,38,39.93,63.2,56.87C277.9,423.85,280.87,437.2,308.27,450Z"/><path class="cls-2" d="M251.38,41.2s-18,221.73-18,222.4a2.54,2.54,0,0,1-2.53,2.54q-77.44,0-120.09-1.29l-4.39-.14-3.85-.14Q60.3,263,11.29,258.25A2.54,2.54,0,0,1,9,255.48a2.58,2.58,0,0,1,1.07-1.83c6.69-55.35,13.29-92,14.54-117.89l.16-3.49c1-24-3.38-53.25-5.23-87.61l-.18-3.24-.28-4.84a2.53,2.53,0,0,1,2.38-2.68h.17C22.33,33.9,251.38,41.2,251.38,41.2Z"/><path class="cls-2" d="M301.24,450.54l6.72.25,7.87.73Q389.24,458.38,426.3,465l2.35.43c12.37,2.29,21.46,4.56,27.21,6.77l.68.27a16.62,16.62,0,0,1,5.31,3c.43.44.43.43.38.54l-.11.2c-3,5.3-11.93,8.68-28.1,10.52l-1.22.14c-12.9,1.38-26.26,1.82-57.69,2l-14.57.08c-52.79.29-81.31.89-118.49,3.15l-6.75.42c-64.4,4-115.67,3.25-153.81-1.34-30.47-3.66-50.83-9.66-59.11-16-7.58-5.82-8.25-9.47-3-13l.42-.28c6.87-4.3,21.75-7.72,44.42-10.09l1.59-.17Q136,444.64,301.24,450.54Z"/><path class="cls-3" d="M171.9,95.06,174,97.2c7.63,7.85,56.15,66.15,55.57,68.16C228.53,169,113.16,37.86,113.16,37.86a2.54,2.54,0,1,1,3.74-3.43C150.6,71.06,168.31,91.34,171.9,95.06Z"/><path class="cls-3" d="M184.9,72.34c2.59,2.61,5.3,5.43,8.23,8.56,0,0,34.93,37.12,38.84,41.21,0,0,6.11,7.15,4.84,7.63S175.88,70,172.06,67.35A2.53,2.53,0,1,1,175,63.2C179,66,182.33,69.75,184.9,72.34Z"/><path class="cls-3" d="M301.24,450.54l6.72.25,7.87.73Q389.24,458.38,426.3,465l2.35.43c12.37,2.29,21.46,4.56,27.21,6.77l.68.27a16.62,16.62,0,0,1,5.31,3c.43.44.43.43.38.54l-.11.2c-3,5.3-11.93,8.68-28.1,10.52l-1.22.14c-12.9,1.38-26.26-13.4-57.69-13.18l-14.57.08c-52.79.29-81.31,7-118.49,9.24l-6.75.42c-64.4,4-153.92-1.87-162.2-8.24-7.58-5.82-8.24-9.47-3-13l.43-.28c6.86-4.3,21.74-7.72,44.41-10.09l1.6-.17C163.35,447,191.11,446.6,301.24,450.54Z"/><path class="cls-2" d="M419.37,261.05a1.78,1.78,0,0,1,1,2.3,43.85,43.85,0,0,0-1.54,8.35l-.22,2.11a16.52,16.52,0,0,0,.05,3.45,2.16,2.16,0,0,1,0,.36l.39.44c2.89,3.33,4.64,5.71,5.34,7.33A18.1,18.1,0,0,1,410.73,310c-9.46,1.49-19.22,3.35-31.89-3.78-3.61-2-7.25-5.4-13.94-12-.28-.28,4-14.76,9.67-18.11,14.77-8.73,41.72-12,42.51-14.05A1.78,1.78,0,0,1,419.37,261.05Z"/><path class="cls-2" d="M373.62,405.48c8.2,20.69,30,49.95,21.59,49-24-2.57-46.81-3.42-46.86-3.95,0-.16-25.67-58.46-27-58.17s-13.21-58.57-11.4-69.89c1.61-10,18.23-23.13,33.69-32l7.46-4.23a2.54,2.54,0,0,1,1.21-.34l.11-.11c.06-.06.18,0,.35.15a2.52,2.52,0,0,1,2.12,2.5S359.57,370,373.62,405.48Z"/><path class="cls-2" d="M170.34,317.57l.28.13a15,15,0,0,1,2.37,1.43l.28.21a38,38,0,0,1,4.23,4c.31.34,2.91,3.19,4,4.36l.64.68c4.69,4.84,8.63,7.56,13.49,8.72l.51.12c7,1.55,14.51.73,22.54-2.51l.39-.16-.08-.35c-1.34-5.87-6.73-10.46-16.57-13.74q-18-6-31.59-3Z"/><path class="cls-2" d="M250.12,316.76v.16a2.64,2.64,0,0,1-.08.49l0,.13,1.61.25c10.9,1.63,18,1.51,21-.14l.18-.1c3-1.76,6.52-6.59,10.44-14.45l.09-.18-.42-.08q-13.27-2.35-22.94.66C253.27,305.58,250.12,309.83,250.12,316.76Z"/><path class="cls-2" d="M335.09,266c.19.66,1.5,1.3,1.77,2.19s-.41,2.28,0,3.34c1.05,2.73,2.79,5.16,2.23,5.43a3.78,3.78,0,0,1-4-1.06c-2-2.45-1.43-7.75-1.61-9.2C333.36,265.79,334.79,265,335.09,266Z"/><path class="cls-2" d="M333.33,262c.31,1,.33,2.29.74,3.34,1.05,2.74-2.44,9.16-6.08,5.5-2.14-2.16,2.14-8.88,2-10.32C329.83,259.6,333.06,261.15,333.33,262Z"/><path class="cls-2" d="M289.77,366.3c-4.52-.47-31.78,2.14-60.31,2.43-20.91.22-42.49-.86-56.32-.29-8.07.33-10.51,1.69-10.32,2,0,.06,0,.13,0,.31a56.84,56.84,0,0,0-1.08,15c.36,4,1.55,7.49,3.48,9.57a20.81,20.81,0,0,0,7.92,5.14,66.34,66.34,0,0,0,12.67,3.07c8.26,1.47,7.24,1.69,25.33,4.05s58.4-1.06,63.67-1.79a36.09,36.09,0,0,0,7.15-1.67c2.74-1,4.77-3.65,6.15-7.24,3.77-9.82,3.1-27.2,2.31-30.16A.82.82,0,0,0,289.77,366.3Z"/><path class="cls-2" d="M480,300.23c13.2,19.57,24.56,51.17,26.69,91.49.88,16.44-11.93,23.74-37.88,26.36l-1.27.13c2.42,29,.75,48.67-5.52,55.67-.94,1.05-2.15-.57-3.19-1.5-.42-.37-13.19-6.92-32.83-10.41-30-5.32-71.46-6.61-71.53-7.33,0-.16-25.67-58.47-27-58.17S314.18,337.9,316,326.58c1.6-10,18.23-23.13,33.69-32l7.46-4.24a2.53,2.53,0,0,1,1.21-.33l.11-.11c.06-.06.18,0,.35.14a2.57,2.57,0,0,1,1.79,1.25,2.61,2.61,0,0,1,.33,1.26c5.26,6.28,19.33,20.84,47.81,12.62,10.17-2.93,13-9.95,13-17.28,0-4.94-6.43-7.92-6.88-10.49-.32-1.84,1.19-1.46,2.4-.71l.22.14a3,3,0,0,1,0-.43,2.53,2.53,0,0,1,2.55-2.51C449.51,274.13,468.24,282.86,480,300.23Z"/><path class="cls-3" d="M379.71,409.54c8.19,20.68,30,49.94,21.59,49-24-2.57-46.81-3.42-46.86-3.95,0-.16-25.67-58.47-27-58.17S314.18,337.9,316,326.58c1.6-10,18.23-23.13,33.69-32l7.46-4.24a2.53,2.53,0,0,1,1.21-.33l.11-.11c.06-.06.18,0,.35.14a2.57,2.57,0,0,1,1.79,1.25,2.61,2.61,0,0,1,.33,1.26S365.66,374.07,379.71,409.54Z"/><path class="cls-2" d="M363.94,289.76c3.13-2.08,4.71-7.8,5.64-7.73.67.05-.44,12.08-7.44,12.26a2.49,2.49,0,0,1-2.53-2.54C359.74,287.89,361.56,291.35,363.94,289.76Z"/><path class="cls-2" d="M435.63,233.46c4.3-5.62,14.67-6.57,14.67-5.77,0,6-.37,26.22-9.46,34a19,19,0,0,1-20.11,2.45,2.53,2.53,0,0,1-1.11-3.41c.63-1.25,2.44-2.28,3.4-1.12C424.27,261.1,428,243.44,435.63,233.46Z"/><path class="cls-2" d="M426.48,215.05c3,0,8-10.81,8.55-10.89,6.11-.88,18.67-1,18.67-1,1.3-10.25,4.91-30.87,4.11-35.55-4.38-25.75-36.23-53.3-68.56-53.3-.77,0-1.56,0-2.36.09-4.67.31-9,1.32-16.25,3.53l-4.16,1.29c-8.44,2.58-11.38,3.25-15.4,3.29H349.9c-24.34.16-35.67,7.73-36.39,19.66-.58,9.61,6.46,21.6,13.86,25.44l.12.07a13.64,13.64,0,0,1,2.52.27l.62.12c1,.22,3.64.84,3.74.86a37.92,37.92,0,0,0,13.79.85l.68-.08c3.08-.42,6-.9,10.31-1.66l6.89-1.2c5.85-1,8.13-1.31,11.81-1.63a55.61,55.61,0,0,1,17,.82l.65.14c2.27.54,3.93,1.35,7.24.3l1.56-.51c7.46-2.42,11.41-2.57,18.57,4.44,2.53,2.48,2.89,7.82,2.16,17.21l-.09,1c-.1,1.27-.23,2.59-.38,4.11l-.81,8a14.25,14.25,0,0,0-.16,3.53l.09.54S423.77,215.05,426.48,215.05Z"/><path class="cls-2" d="M406.19,169.65c5.36-1.68,8.33-1.19,13.56,3.77l.61.58c.36.36.76,2,.89,4.52a73.7,73.7,0,0,1-.33,9.68l0,.47c-.08,1-.17,1.93-.28,3l-.3,2.94c-.85,8.2-.93,9-.76,10l.19,1.08c1,5.31,1.95,9,3,11.24,1.63,3.56,4.84,4.84,7.16,1.49l.06-.08c5.28-8.38,9.9-13.17,13.56-14.42,3-1,6.63.5,9.27,5.38,5.27,9.76,0,15.75-15.58,19.09l-1,.2-1.36.28-.5,1.29c-16.38,41.92-40,58.16-71.52,49.61-20.65-5.61-35.11-24.06-40.14-51-3.71-19.83-2.7-43.92.8-54,.56-1.64,3-2,3.69-2.07l.16,0c.33-.05.22-.12,1.15.07l5.44,1.22a42.42,42.42,0,0,0,15.61.69c2.58-.35,5-.74,8.24-1.29l4.14-.72c17.29-3,23.48-3.57,31.56-1.8l1.25.28c3.41.74,5.88.32,10.39-1.16Z"/><path class="cls-3" d="M321.44,216.81c1.16,7.13,8.24,30.68,20.81,46.58,9.17,11.6,26.58,18.05,20.57,16.42-20.65-5.61-35.11-24.06-40.14-51C319,209,317.91,195.23,321.44,216.81Z"/><path class="cls-3" d="M419.34,221.18c-5.59-7.79-10-30.75-14.23-33-8.68-4.6-24.34-5.18-41.86-6.86-11.1-1.06-21.55-3.57-35.92-4.63-1.65-.12-3.85-1.9-3.85-1.9.56-1.64,3-2,3.69-2.07l.16,0c.33-.05.22-.12,1.15.07l5.44,1.22a42.42,42.42,0,0,0,15.61.69c2.58-.35,5-.74,8.24-1.29l4.14-.72c17.29-3,23.48-3.57,31.56-1.8l1.25.28c3.41.74,5.88.32,10.39-1.16l1.08-.36c5.36-1.68,8.33-1.19,13.56,3.77l.61.58c.36.36.76,2,.89,4.52a73.7,73.7,0,0,1-.33,9.68l0,.47c-.08,1-.17,1.93-.28,3l-.3,2.94c-.85,8.2-.93,9-.76,10l.19,1.08c1,5.31,1.95,9,3,11.24C422.7,217,422.51,225.58,419.34,221.18Z"/><path class="cls-4" d="M292.07,366.32l-.27,0c-4.52-.47-31.78,2.14-60.31,2.43-20.91.22-42.38-.29-56.32-.29-8.75,0-10.6,2.29-10.32,2.28.86,0,2.74.17,2.74,1s47.22.9,67,.68c18-.2,36.53-.63,46.63-1.7,3.16-.34,8.2-.59,8.9.57,1.87,3.1-1.28,17.54-2.63,21.59-1.13,3.34-2.39,6.32-4.8,7.14a32.12,32.12,0,0,1-6.39,1.5c-5.31.77-32.76,2.18-38.24,2-33.8-.91-41.42-2.84-49.58-4.33a63.28,63.28,0,0,1-11.92-2.91,17,17,0,0,1-6.42-4.11c-1.39-1.49-1.94-4.12-2.3-6.95a61.29,61.29,0,0,1,0-13.85c.17-.89-2.85-1.54-3-.65a56.84,56.84,0,0,0-1.08,15c.36,4,1.55,7.49,3.48,9.57a20.81,20.81,0,0,0,7.92,5.14,66.42,66.42,0,0,0,12.66,3.07c8.27,1.47,7.25,1.69,25.34,4.05s58.4-1.06,63.67-1.79a36.09,36.09,0,0,0,7.15-1.67c2.74-1,4.77-3.65,6.15-7.24C293.91,387.05,295.38,366.52,292.07,366.32Z"/><path class="cls-4" d="M282.19,387.43A14,14,0,0,1,272,396.55c-3,.82-3.57-.92-3.57-2.08s3.62-1.68,5-1.92c8.21-1.46,7.32-15.46,8.19-17.56.49-1.18,1.68,1.07,1.82,2.1A21.64,21.64,0,0,1,282.19,387.43Z"/><path class="cls-4" d="M466.39,342.22c0-.06.81.07,1.26,1.18.92,2.25,1.52,8,1.85,9.82.74,4.26,2,9.55,2.34,14.66a28,28,0,0,1-.95,10.35c-2.26,6.77-7.36,11.07-13.68,13.69a52.21,52.21,0,0,1-16.73,3.58,97.34,97.34,0,0,1-11.22-.21,1,1,0,1,1,0-2.05c3.32-.19,7.06-.57,10.94-1,5.31-.63,10.85-1.52,15.64-3.55,5.35-2.26,9.78-5.79,11.7-11.53a25.69,25.69,0,0,0,1-9.07c-.15-5-1-10.28-1.45-14.49-.18-1.79-1.21-7.48-1-9.9a5.87,5.87,0,0,1,.28-1v0A.34.34,0,0,1,466.39,342.22Z"/><path class="cls-4" d="M415,384.4a2.61,2.61,0,0,0,1,1,9.36,9.36,0,0,1,4.5,1.51c2.43,1.54.43,10.81.43,10.81a.6.6,0,0,0,1,.58,5.29,5.29,0,0,0,.8-1.25,12.39,12.39,0,0,0,.65-3.17c.07-.7.19-1.4.21-2.1a7.35,7.35,0,0,0-.1-1.55c-.11-.66-.07-1.28-.2-1.89a3.78,3.78,0,0,0-.35-1,4.81,4.81,0,0,0-1.63-1.7,8.94,8.94,0,0,0-3-1.2l-3.07-.49A.33.33,0,0,0,415,384.4Z"/><path class="cls-4" d="M415.78,384.27a.33.33,0,0,0-.1-.46.66.66,0,0,0-.78,0,2.5,2.5,0,0,0-.79.92,4.19,4.19,0,0,0-.48,2.17,2.06,2.06,0,0,0,.89,1.39.39.39,0,0,0,.55,0,.38.38,0,0,0,0-.54,1.86,1.86,0,0,1-.22-1.25,7.84,7.84,0,0,1,.13-1.48l.34-.7A.34.34,0,0,0,415.78,384.27Z"/><path class="cls-4" d="M415.82,389.11a1.87,1.87,0,0,1,.54,1.24,10.91,10.91,0,0,1-.22,3.93.63.63,0,0,0,.45.76.62.62,0,0,0,.75-.45,10.08,10.08,0,0,0,.61-3.88,3,3,0,0,0-1.61-2.47c-.1,0-.34-.19-.61-.35S415.82,389.11,415.82,389.11Z"/><path class="cls-4" d="M426,392c1.21.75,2.95,1.07,3.6,1.67.4.36.61.64.55.78a2,2,0,0,1-.63.7c-.44.35-1.65,0-1.78-.09-1.05-.47-1.88-.88-2.5-1.23l-.36-.21a18.48,18.48,0,0,1-2.52-1.95,1.52,1.52,0,0,1-.13-2.15C422.5,389.23,424,390.79,426,392Z"/><path class="cls-4" d="M416.81,406.05c-1.64,1.65-1.92,2.57-1.49,3.09a13.86,13.86,0,0,0,5.56,3.24l1.07.23a1.53,1.53,0,0,1-.66,3,12,12,0,0,1-3.54-1.18,11.52,11.52,0,0,1-4.78-3.34c-1.69-2.06-.91-4.56,1.69-7.16a1.52,1.52,0,1,1,2.15,2.14Z"/><path class="cls-4" d="M378.82,378.78s.49,11.15.71,13A42.86,42.86,0,0,0,383,403.58a16,16,0,0,0,4.41,6.15,11.41,11.41,0,0,0,3.13,1.75,19.86,19.86,0,0,0,5.62,1.26,26.71,26.71,0,0,0,4,.34c17.13-.23,13.74-34.48,14.62-34.62.48-.12,1,1.74,1.1,2.22s3.21,33.45-16.24,34.8c-9.68.67-12.95-1.68-14.49-2.89a18.73,18.73,0,0,1-5.27-7.67,41.94,41.94,0,0,1-2.57-13q-.11-2.11.43-12.59C377.7,379.17,378.56,377.89,378.82,378.78Z"/><path class="cls-4" d="M415.4,379.42c0,2.18-8.62,7.07-22.55,6.49H392c-10.37,0-14.11-4.25-14.11-6.49s7.93-4,17.89-4.05h.87C407,375.36,415.4,377.18,415.4,379.42Z"/><path class="cls-5" d="M378.88,379.42c0,1.25,7.67,4,16.91,4.05h.84c9.61,0,17.76-2.78,17.76-4.06s-7.68-2.94-16.91-3h-.85C387,376.38,378.88,378.14,378.88,379.42Z"/><path class="cls-4" d="M382.92,242.36a.33.33,0,0,0-.33-.33l-1.65,1.24a8.23,8.23,0,0,1-2.13.95,5.16,5.16,0,0,1-1.34.23c-1.45.09-2.88.07-4.33.16-3.42.21-6.82.54-10.22.95a44.27,44.27,0,0,0-5.94,1,32.47,32.47,0,0,0-3.85,1.33,1.6,1.6,0,0,0-1.08,2,1.58,1.58,0,0,0,2,1.09c1.25-.24,14-1.63,19.07-2.46a47.55,47.55,0,0,0,4.86-1.13,7.18,7.18,0,0,0,2.38-1.15,8.46,8.46,0,0,0,1.72-1.77A16.12,16.12,0,0,0,382.92,242.36Z"/><path class="cls-4" d="M366.18,256.08a.35.35,0,0,0-.47,0,7.34,7.34,0,0,1-3,.66c-.44,0-.88.1-1.32.12a6.47,6.47,0,0,1-2.79-.33.69.69,0,0,0-.93.3.71.71,0,0,0,.31.93,7.18,7.18,0,0,0,4.32.77,6.72,6.72,0,0,0,3.84-1.94A.34.34,0,0,0,366.18,256.08Z"/><path class="cls-4" d="M21.64,33.9a2.53,2.53,0,0,1,2.51,2.38q3.44,57.89,1.65,97.33l0,.79c-1.09,23.39-9.5,108.29-10.58,119.13q45.77,4.35,85.49,5.9l4.1.15q39.93,1.43,114.6,1.49h11.44a2.54,2.54,0,0,1,0,5.07q-81.52,0-124.48-1.43l-3.85-.14Q60.3,263,11.29,258.25A2.54,2.54,0,0,1,9,255.48a2.58,2.58,0,0,1,1.07-1.83c6.59-57.46,9.47-94.21,10.65-120.27l.05-1.11q1.61-37.18-1.41-90.85l-.28-4.84a2.53,2.53,0,0,1,2.38-2.68Zm234.76,8q-9.33,69.72-12,109l-.16,2.38q-2.44,37.08-3.15,104.31l-.07,7.4a2.54,2.54,0,0,1-5.08,0q.68-75,3.4-114.4l.17-2.39q2.7-37.11,11-100l.92-6.91a2.53,2.53,0,1,1,5,.67Z"/><path class="cls-4" d="M483.32,300.26c13.21,19.56,24.56,51.16,26.7,91.48.87,16.44-11.93,23.74-37.89,26.36-12.27,1.24-27.48,3-45.58,1.3a2.56,2.56,0,0,1-2.29-2.29,4.19,4.19,0,0,1,3.32-1.1c14.86.78,76.8,5.46,77.37-24,.78-39.58-11.15-70.17-23.8-88.91-10.68-15.82-29.85-23.89-57.82-24.09a2.54,2.54,0,1,1,0-5.07C452.87,274.15,471.6,282.89,483.32,300.26Z"/><path class="cls-4" d="M404.32,165.94l-1.56.51c-3.31,1.05-5,.24-7.24-.3l-.65-.14a55.61,55.61,0,0,0-17-.82c-3.68.32-6,.62-11.81,1.63l-6.89,1.2c-4.32.76-7.23,1.24-10.31,1.66l-.68.08a38,38,0,0,1-13.8-.85c-.09,0-2.7-.64-3.73-.86l-.62-.12a11.94,11.94,0,0,0-3.31-.24c-2.9.27-4.82,2.08-6,5.46-3.8,11-4.85,36-1,56.6,5.36,28.64,18.89,48.74,41.77,55,33.62,9.12,58.28-8.86,75.51-51.07l.54-1.34.35-.07c17.83-4,25.25-12,18.53-24.9l-.22-.4c-3.69-6.84-8.63-9.71-14.35-7.77-4.68,1.59-9.57,7.44-14.91,15.49l-.07.11-.14-.39a65.91,65.91,0,0,1-3-9.59l-.09-.54a14.25,14.25,0,0,1,.16-3.53l.81-8c.15-1.52.28-2.84.38-4.11l.09-1c.73-9.39.37-14.73-2.16-17.21C415.73,163.37,411.78,163.52,404.32,165.94Zm1.87,3.71c5.36-1.68,8.33-1.19,13.56,3.77l.61.58c.36.36.76,2,.89,4.52a73.7,73.7,0,0,1-.33,9.68l0,.47c-.08,1-.17,1.93-.28,3l-.3,2.94c-.85,8.2-.93,9-.76,10l.19,1.08c1,5.31,1.95,9,3,11.24,1.63,3.56,4.84,4.84,7.16,1.49l.06-.08c5.28-8.38,9.9-13.17,13.56-14.42,3-1,6.63.5,9.27,5.38,5.27,9.76,0,15.75-15.58,19.09l-1,.2-1.36.28-.5,1.29c-16.38,41.92-40,58.16-71.52,49.61-20.65-5.61-35.11-24.06-40.14-51-3.71-19.83-2.7-43.92.8-54,.56-1.64,3-2,3.69-2.07l.16,0c.33-.05.22-.12,1.15.07l5.44,1.22a42.42,42.42,0,0,0,15.61.69c2.58-.35,5-.74,8.24-1.29l4.14-.72c17.29-3,23.48-3.57,31.56-1.8l1.25.28c3.41.74,5.88.32,10.39-1.16Z"/><path class="cls-4" d="M461,165.67c1.82,7.89-1.35,22.94-4.29,39.6l-.3,1.66a2.54,2.54,0,0,1-2.95,2c-1.38-.26,5.45-35.12,4.38-41.38-4.38-25.75-36.23-53.3-68.56-53.3-.77,0-1.56,0-2.36.09-4.67.31-9,1.32-16.25,3.53l-4.16,1.29c-8.44,2.58-11.38,3.25-15.4,3.29H349.9c-24.34.16-35.67,7.73-36.39,19.66-.58,9.61,6.46,21.6,13.86,25.44a2.54,2.54,0,0,1-2.34,4.5c-9.15-4.75-17.29-18.6-16.58-30.25.91-15.18,14.95-24.42,42.19-24.42,3.51,0,6.14-.57,14-3l4.53-1.4c7.57-2.32,12.21-3.39,17.36-3.73.91-.07,1.81-.1,2.7-.1C424,109.22,453.64,133.74,461,165.67Z"/><path class="cls-4" d="M355.36,185.54c0,13.21-2.76,27.13-5.22,33.51l-.19.49c-1.5,4,3.6,10,10.63,9.38.95-.08,1.33,1.06,1.27,1.5a2.54,2.54,0,0,1-2.85,2.17c-10.24-1.39-14.75-6.39-11.65-14.12l.1-.26c2.14-5.58,5-27.18,3.87-31-.26-.87.47-4.28,2-4.28C354.64,183,355.36,184.13,355.36,185.54Z"/><path class="cls-4" d="M451.91,230.9c0,6-2,23-11.07,30.79a19,19,0,0,1-20.11,2.45,2.53,2.53,0,0,1-1.11-3.41c.63-1.25,2.44-2.28,3.4-1.12,2,2.37,10.41,4.87,17.82-2.77,9.32-9.63,8.73-27.37,9.46-29.15C451,226.11,451.91,228.67,451.91,230.9Z"/><path class="cls-4" d="M343.64,218.1c-.93,1.37-1.8,1-2.83.16a10.07,10.07,0,0,1-2.6-5.12,10,10,0,0,1,.13-5.74,6.45,6.45,0,0,1,2.94-2.82,2.64,2.64,0,0,1,3.5.94C345.12,206,347.17,212.88,343.64,218.1Z"/><path class="cls-4" d="M377.88,211c-.53-1.53,0-9.12,4.1-9.12,2.75,0,2.78,7.29,2.39,8.7S380.84,219.64,377.88,211Z"/><path class="cls-4" d="M336.25,150.61c.69,11,14.26,19.75,13.37,20.84a2.54,2.54,0,0,1-3.57.35c-9.76-8-14.79-14.92-14.88-21.12s4.89-12.65,14.56-19.28c1.16-.79,4.33-.45,3.53.66C347.75,134.14,335.55,139.57,336.25,150.61Z"/><path class="cls-4" d="M323,145.59c0,15,14.83,25.38,13.85,26.37a2.53,2.53,0,0,1-3.59,0C324.65,163.5,319,156.17,319,147.76c0-8.59,4-15.16,11.83-19.4,1.23-.67,3.85-.78,3.44,1C333.67,131.82,323,130.61,323,145.59Z"/><ellipse class="cls-6" cx="336.78" cy="228.77" rx="9.64" ry="3.55"/><path class="cls-4" d="M346.1,189.87l-.15-.05c-1.44-.42-3.89,0-7.26,1.39a9.06,9.06,0,0,0-1.61.88c-.19.12-.55.38-1,.68l-2.39,1.76c-1.17.81-10.59,2.14-10.73,1.32a1.53,1.53,0,0,1,1.25-1.76,19.12,19.12,0,0,0,4.72-1.27,21.93,21.93,0,0,0,3-1.8c.32-.22,1.95-1.44,2.91-2.13l.52-.36a12.14,12.14,0,0,1,2.13-1.15c4.14-1.7,7.3-2.21,9.6-1.39A2.14,2.14,0,0,1,346.1,189.87Z"/><path class="cls-4" d="M423.44,263.35c-1,2.6-1.56,8.65-1.71,10a17.39,17.39,0,0,0,0,3.95,1.78,1.78,0,1,1-3.53.41,21,21,0,0,1,0-4.76c.19-1.67.83-8,1.93-10.83a1.77,1.77,0,1,1,3.31,1.27Z"/><path class="cls-4" d="M427.46,285.39c4.43,10.36-3,20.92-13.69,24.63-11.67,4.06-25.42,2.65-38.09-4.48-3.6-2-8.22-6-13.94-12a2.54,2.54,0,0,1,.08-3.59c1-1,13.86,25.79,50.29,15.28,10.16-2.93,13-10,13-17.28,0-4.94-6.42-7.93-6.87-10.49s2.65-.82,3.58.24C424.89,281.23,426.74,283.71,427.46,285.39Z"/><path class="cls-3" d="M176.78,22.63c2.59,2.61,5.3,5.43,8.24,8.56l.12.13c3.1,3.33,44.49,48.84,43.56,49.72s-43.44-43.15-47-47l-1.82-1.94c-1.88-2-11.1-10.72-14.92-13.39-1.15-.8-2.45-2.45-1.65-3.6a2.53,2.53,0,0,1,3.53-.63A72.28,72.28,0,0,1,176.78,22.63Z"/><path class="cls-4" d="M176.78,61.18c2.59,2.61,5.3,5.43,8.24,8.56,0,0,34.92,37.12,38.83,41.21,0,0,6.11,7.15,4.85,7.63S167.76,58.87,163.94,56.2a2.54,2.54,0,1,1,2.9-4.16C170.9,54.87,174.21,58.59,176.78,61.18Z"/><path class="cls-4" d="M165.81,83.9,167.92,86c7.64,7.86,56.15,66.15,55.58,68.16-1.05,3.65-116.42-127.5-116.42-127.5a2.53,2.53,0,0,1,3.73-3.43C144.51,59.9,162.23,80.18,165.81,83.9Z"/><path class="cls-4" d="M390.26,187.57c3.15.55,9.88-.56,11.46.46s-.78,2.67-2.17,2.86c-4.79.65-8.29.8-10.6.42a29.84,29.84,0,0,1-6.43-1.91l-2.63-1a8.07,8.07,0,0,0-2.81-.79h-.44a31.11,31.11,0,0,0-7.72,1.65,2.54,2.54,0,0,1-1.52-4.84,25.09,25.09,0,0,1,9.68-1.34C381.13,183.55,387.11,187,390.26,187.57Z"/><path class="cls-4" d="M496,356.64c5.11-.23,8.06-.53,8.22,0a2.64,2.64,0,0,1,0,1.5c-.42,1.34-15.44,1.57-18.72,1.68-3.11.1-15.24,1-15.24,1-1.05-1,3.82-4.2,15.24-4C489.57,356.87,493.11,356.77,496,356.64Z"/><path class="cls-4" d="M470.81,417.63c2.5,29.31.85,49.22-5.47,56.28a2.54,2.54,0,0,1-3.58.2c-1-.94-1.15-3-.2-3.58,6.88-3.95,5.85-52.37,5.85-52.37C467.29,416.76,470.7,416.29,470.81,417.63Z"/><path class="cls-4" d="M66.35,447.67c-24.32,2.45-28.45,4.19-41.09,9-4.54,1.72-12.49,7-12.36,10.41.15,3.85,1,8,6.39,12.17,9.18,7.06,30.3,13.29,61.59,17l1.17.14c38.74,4.54,90.58,5.2,155.52,1.1l3.6-.23c35.27-2.16,62.5-3.85,109.6-4.16l13.2-.08c38.63-.2,53.87-.55,68-2l2-.21c18.34-2,26.72-5,30.7-12.43,2.28-4.29-4.16-7.73-11.31-10.62-5.72-2.3-15.56-4.59-27.55-6.88l-2.33-.44c-24.85-4.6-56.46-9.27-107-14l-8.09-.75h-.14C194.3,441.51,114.37,442.83,66.35,447.67Zm234.89,2.87,6.72.25,7.87.73Q389.24,458.38,426.3,465l2.35.43c12.37,2.29,21.46,4.56,27.21,6.77l.68.27a16.62,16.62,0,0,1,5.31,3c.43.44.43.43.38.54l-.11.2c-3,5.3-11.93,8.68-28.1,10.52l-1.22.14c-12.9,1.38-26.26,1.82-57.69,2l-14.57.08c-52.79.29-81.31.89-118.49,3.15l-6.75.42c-64.4,4-115.67,3.25-153.81-1.34-30.47-3.66-50.83-9.66-59.11-16-7.58-5.82-8.25-9.47-3-13l.42-.28c6.87-4.3,21.75-7.72,44.42-10.09l1.59-.17Q136,444.64,301.24,450.54Z"/><path class="cls-2" d="M229.16,407.31a275.33,275.33,0,0,0,40.09-.93c1.4,0,5.11-1.25,5.07.15-.95,31.31-5.91,51.42-15.27,60.49-2.54,2.46-7.06,4-13.92,5.07l-.58.09c-4.26.66-8.68,1.09-16.6,1.68l-5.84.43c-16.21,1.09-29-1.17-32.8-7.83-4.51-7.88-7.15-30.39-8.08-64.18C181.23,402.28,215.5,406.68,229.16,407.31Z"/><path class="cls-3" d="M250.61,454.64c-10,11-39.12,19.63-31.19,20.22l5.83.43c16.21,1.09,29-1.17,32.81-7.83,4.5-7.88,12.47-27.52,13.39-61.31C271.45,406.15,261.87,442.34,250.61,454.64Z"/><path class="cls-4" d="M262.29,422.87l-.27.75c-.35.92-.74,1.91-1.25,3.15l-2.93,7.12c-.29.72-.56,1.4-.81,2.06l-.37,1c-1.77,4.64-1.83,8.25-2.18,11.08a2.53,2.53,0,1,1-5-.63c.41-3.32,1.58-6.25,3.48-11.24l.19-.5,1-2.61,4.22-8.17c2-4.94,2.42-8.8,3.37-10.4s2.67.78,2.86,2.17S263.35,420,262.29,422.87Z"/><path class="cls-4" d="M320.84,258.91c-4.39,2.92-7.1,7.82-7.1,14.22s4.42,11,13.81,16.82l1,.58s4.48,2.67,6.34,3.82l.89.56a22.84,22.84,0,0,1,4.21,3.25,3.21,3.21,0,0,1,.87,1.37c.58,3.37,0,8.57-1.5,16.4l-.34,1.71c-.11.53-.22,1.07-.34,1.63L336.78,328l-.29,1.37c-.87,4.3-8.2,38.24-9.87,47.45l-.26,1.44c-2.45,14.21-3,24.75-1.62,35.08a86.36,86.36,0,0,0,6.81,23.43c8,18.11,16.78,22.26,25.63,13.5,6-6,11.14-18.44,12-27.17,1-10.06.51-22.44-1.24-38.19l-.22-1.94c-.58-5-1.25-10.18-2.15-16.65l-2.38-16.9c-.6-4.36-1-7.79-1.37-10.86l-.06-.55c-.83-7.67-2-12.73-1.38-15.5l.15-.69c3.12-14.87,4.32-25.09-.16-32.21-3.4-5.4-9.42-8.05-18.45-12l-3-1.31c-5.42-2.4-8.25-4-10.91-6.37-.48-.42-.52-1,0-2.43a14.27,14.27,0,0,1,.66-1.51l.26-.55.65-1.29.29-.59a14.3,14.3,0,0,0,.55-1.35c.61-1.82,2.51-3.5.95-4.69C329.08,255.69,324.48,256.48,320.84,258.91Zm4.43,6.77c-1.13,3.12-.92,5.86,1.41,7.95,3.16,2.81,6.33,4.6,12.19,7.2l3.48,1.52c7.8,3.48,12.12,5.71,14.76,9.91,3.73,5.93,3.4,15.06.36,29.13l-.05.25c-.68,3.39-.54,8.58.27,16.26l.17,1.64c.29,2.52.63,5.29,1.08,8.59l.45,3.27,2.08,14.72c.95,6.83,1.65,12.17,2.25,17.38l.21,1.9c1.71,15.43,2.21,27.51,1.24,37.14-.77,7.64-5.43,19-10.54,24.07-2.71,2.69-5.24,3.48-7.76,2.42-3.37-1.43-7-6.07-10.67-14.36a80.86,80.86,0,0,1-6.43-22.07c-1.36-10-.76-20.22,1.75-34.42l0-.25c1.39-7.72,7.42-35.82,9.38-45.09l1-4.59,1.7-7.93.47-2.27c1.84-9.09,2.5-15,1.75-19.38a7.87,7.87,0,0,0-2.15-4,28.11,28.11,0,0,0-5.59-4.33l-.11-.06c-1.28-.81-5-3-6.33-3.82l-1.38-.84c-7.9-4.89-11.44-8.52-11.44-12.53,0-4.68,1.83-8,4.83-10a9.45,9.45,0,0,1,3.58-1.48l-.1,0-.87,1.75A22.1,22.1,0,0,0,325.27,265.68Z"/><path class="cls-2" d="M325.27,265.68c-1.13,3.12-.92,5.86,1.41,7.95,3.16,2.81,6.33,4.6,12.19,7.2l3.48,1.52c7.8,3.48,12.12,5.71,14.76,9.91,3.73,5.93,3.4,15.06.36,29.13l-.05.25c-.68,3.39-.54,8.58.27,16.26l.17,1.64c.29,2.52.63,5.29,1.08,8.59l.45,3.27,2.08,14.72c.95,6.83,1.65,12.17,2.25,17.38l.21,1.9c1.71,15.43,2.21,27.51,1.24,37.14-.77,7.64-5.43,19-10.54,24.07-2.71,2.69-5.24,3.48-7.76,2.42-3.37-1.43-7-6.07-10.67-14.36a80.86,80.86,0,0,1-6.43-22.07c-1.36-10-.76-20.22,1.75-34.42l0-.25c1.39-7.72,7.42-35.82,9.38-45.09l1-4.59,1.7-7.93.47-2.27c1.84-9.09,2.5-15,1.75-19.38a7.87,7.87,0,0,0-2.15-4,28.11,28.11,0,0,0-5.59-4.33l-.11-.06c-1.28-.81-5-3-6.33-3.82l-1.38-.84c-7.9-4.89-11.44-8.52-11.44-12.53,0-4.68,1.83-8,4.83-10a9.45,9.45,0,0,1,3.58-1.48l-.1,0-.87,1.75A22.1,22.1,0,0,0,325.27,265.68Z"/><path class="cls-4" d="M341.71,300.89c-13.42,7.65-20.81,16.49-22.42,26.52s.92,31.29,7.69,63.09l.64,3a2.54,2.54,0,0,1-1.94,3c-1.37.29-13.21-58.58-11.4-69.89,1.89-11.75,10.28-21.79,24.92-30.13a2.54,2.54,0,1,1,2.51,4.41Z"/><path class="cls-4" d="M333.77,270.23c0,3.85,2.4,5.3,2,5.86a2.53,2.53,0,0,1-4.53-1,16.33,16.33,0,0,1-.43-5.74,14.48,14.48,0,0,1,2.33-5.09,2.53,2.53,0,0,1,3.5-.76C337.81,264.26,333.77,266.37,333.77,270.23Z"/><path class="cls-4" d="M338.13,269.08c.41,1.43,1,3.55,1.77,5.53,1.05,2.74,2.79,5.16,2.23,5.43-1.26.61-2.58-.2-3.39-1.17-2-2.45-2-7.64-2.22-9.08-.12-1,.43-2.89,1-2.38S337.83,268,338.13,269.08Z"/><path class="cls-4" d="M186.3,402c.86,34.07,3.41,54.92,7.41,61.91,2.39,4.18,13.56,6.19,27.55,5.32l1.05-.07,6-.45c16.85-1.31,24.11-2.59,27-5.19l.19-.17c8-7.71,12.63-26.17,13.67-55.21l.06-1.79a2.54,2.54,0,1,1,5.07.15c-.95,31.31-5.91,51.42-15.27,60.49-2.54,2.46-7.06,4-13.92,5.07l-.58.09c-4.26.66-8.68,1.09-16.6,1.68l-5.84.43c-16.21,1.09-29-1.17-32.8-7.83-4.51-7.88-7.1-28.42-8-62.22l-.06-2.08a2.54,2.54,0,1,1,5.07-.13Z"/><path class="cls-4" d="M265.48,310.38c-3,1.74-10.74,7.94-10.74,7.94a28.83,28.83,0,0,0-11.44,4.17l-.83.51c-4.27,2.68-7.4,19.29-6.18,37l.08,1.08c.12,1.63,1.42,4,4,6.95a2.54,2.54,0,0,1-3.83,3.33c-3.22-3.7-5-6.94-5.22-9.88-1.57-20,3.07-37.79,9.67-41.93,5.2-3.25,23.25-11.72,24-12.18,2.15-1.26,10.24-3.27,10.73-2C276,306.06,272.22,306.53,265.48,310.38Z"/><path class="cls-4" d="M225.25,298l.2.15a3.25,3.25,0,0,0,.37.23l1.43.82a18.49,18.49,0,0,1,3.21,2.31,17.51,17.51,0,0,1,5,8.08c1.15,3.76,1.49,8.43.89,14.2V324a12.08,12.08,0,0,0,.37,3.65l.35,1.69a18.26,18.26,0,0,1,.53,4.94c0,1.2-.07,1.67-.21,3.11,0,0-3.43,16.48-2.93,22.84.13,1.63,6.7,10.55,5.65,11.47a2.53,2.53,0,0,1-3.58-.25c-3.22-3.7-5-6.94-5.22-9.88a95.85,95.85,0,0,1,.5-19.79l.49-4.55c.1-.9.14-1.42.17-1.92l.07-1.42c0-1,.63-7.85.8-9.56l0-.5c.88-9.12-1.25-16.16-4.69-19.26-1.12-1-22.14-19-21.14-20S223.26,296.47,225.25,298Z"/><path class="cls-4" d="M224.3,335.34c7.56,6.48,11.58,16.05,10.16,24.84-.24,1.49,1.49,4.15,5.61,7.62a2.53,2.53,0,0,1-3.26,3.88c-5.38-4.52-7-8.51-6.34-12.31l.05-.38c.95-6.85-2.34-14.52-8.5-19.79-4.5-3.86-38.33-15.18-38-16.54S218.83,330.65,224.3,335.34Z"/><path class="cls-4" d="M289.31,302.15c-5,10.79-9.66,17.4-14.25,19.94s-13.24,2.53-26.57.35l-1.3-.22a2.54,2.54,0,0,1-2.07-2.93l0-.16a2.32,2.32,0,0,1,.31-.74l.08-.13-.11-.17a2.52,2.52,0,0,1-.38-1.33c0-9.16,4.6-15.37,13.41-18.1q12.32-3.82,29.1-.05A2.53,2.53,0,0,1,289.31,302.15Zm-39.19,14.61v.16a2.64,2.64,0,0,1-.08.49l0,.13,1.61.25c10.9,1.63,18,1.51,21-.14l.18-.1c3-1.76,6.52-6.59,10.44-14.45l.09-.18-.42-.08q-13.27-2.35-22.94.66C253.27,305.58,250.12,309.83,250.12,316.76Z"/><path class="cls-4" d="M200.59,272.17a32.63,32.63,0,0,1,20.71,6.76c6.44,5,8.08,11.28,4.57,18l-.09.15a2.53,2.53,0,0,1-1.4,1.1l-.13,0v.09a2.54,2.54,0,0,1-2.15,2.72c-10.17,1.51-17.25-.13-20.91-5.34-3.4-4.82-4.56-11.91-3.67-21.24a2.54,2.54,0,0,1,2.48-2.3Zm4.76,20.63.13.18c2.33,3.08,7.37,4.25,15.42,3.12l.2,0,0-.15a2.52,2.52,0,0,1,.29-1.3c2.34-4.49,1.39-8.13-3.19-11.68a27.09,27.09,0,0,0-15.77-5.66h0l0,.39C202,284.51,203.06,289.55,205.35,292.8Z"/><path class="cls-2" d="M414.07,389.62c1.39,0,2.06.7,3.78,3l.15.2.46.59a4.54,4.54,0,0,0,.9.94,6.08,6.08,0,0,0,3.1,1.5,1.52,1.52,0,0,1,1.35,1.68c-.09.83-1.35,3.07.27,2.66a1.52,1.52,0,0,1,.74,2.95,8.79,8.79,0,0,1-6-.36c-3.07-1.46-6-3.92-7.25-6.27-1.76-3.39-.63-6.76,2.39-6.86Z"/><path class="cls-4" d="M414.07,389.62c1.39,0,2.06.7,3.78,3l.15.2.46.59a4.54,4.54,0,0,0,.9.94,6.08,6.08,0,0,0,3.1,1.5,1.52,1.52,0,1,1-.33,3,9.24,9.24,0,0,1-4.49-2,8.35,8.35,0,0,1-1.89-2l-.6-.8a12.11,12.11,0,0,0-.94-1.13l-.09-.08-.14-.13-.06,0,0,0a.53.53,0,0,0-.1.2,3,3,0,0,0,.45,2.17c.87,1.67,3.33,3.72,5.85,4.92a5.86,5.86,0,0,0,4,.16,1.52,1.52,0,0,1,.74,2.95,8.79,8.79,0,0,1-6-.36c-3.07-1.46-6-3.92-7.25-6.27-1.76-3.39-.63-6.76,2.39-6.86Z"/><path class="cls-4" d="M416.17,397.86l.51.39.7.57,1,.88a15.42,15.42,0,0,0,3.41,1.32c1.14.09,2.18-.89,2.73-.83a1.52,1.52,0,0,1-.34,3,29.19,29.19,0,0,1-6.24-.84,37.3,37.3,0,0,1-4.38-2.59l-.12-.07v0l0,.2a4,4,0,0,0,.76,1.91,14.59,14.59,0,0,0,4.25,2.89c.37.2.69.35,1.11.55l1.43.67a11.52,11.52,0,0,0,5.27.61,1.52,1.52,0,1,1,.19,3,14,14,0,0,1-6.74-.88c-1.37-.64-1.89-.88-2.64-1.26l-.42-.22a16.32,16.32,0,0,1-4.71-3.36,6.89,6.89,0,0,1-1.55-3.9c-.15-1.9.53-3.52,2.38-3.58A5.35,5.35,0,0,1,416.17,397.86Z"/><path class="cls-4" d="M419.06,413.18c-.12.43-1.1.91-1.95.91-2.27,0-.2,2,.28,2.25a9.22,9.22,0,0,0,3.31,1.19c1.22.14,3-.35,5.19-1.54a1.52,1.52,0,1,1,1.43,2.69c-2.72,1.45-5,2.1-7,1.88a12.32,12.32,0,0,1-4.57-1.64c-2-1.23-3.05-2.92-2.19-4.83s2.48-3.62,4.55-2.86A1.89,1.89,0,0,1,419.06,413.18Z"/><path class="cls-7" d="M393.08,380.9l-.09-1.34v-.08a.58.58,0,0,1,.78-.41l4.31,1.81-.42-1.29,0-.07a.49.49,0,0,1,.73-.44l3.89,1.67-.4-1.21,0-.07c0-.32.29-.54.66-.4l3.49,1.32-.28-.91v-.07c0-.27.21-.44.54-.36l3.25.8.1,0a.71.71,0,0,1,.49.54v.07c0,.19-.25.29-.53.23l-2.6-.62.35,1,0,.07c0,.29-.28.47-.67.34l-3.23-.93.2.91,0,.08c.06.32-.33.54-.73.38l-3.51-1.24.06.88,0,.07c.06.34-.36.6-.77.44l-4.37-1.39-.08.91v.08a.6.6,0,0,1-.84.4l-3.57-1.29-.18.74v.08a.67.67,0,0,1-.91.47l-4.67-2.22-.06,0c-.14-.13-.11-.37.09-.56l.08-.08a.7.7,0,0,1,.7-.13l3.51,1.74-.12-1.19v-.08a.66.66,0,0,1,.87-.47Z"/><ellipse class="cls-6" cx="382.38" cy="225.73" rx="10.49" ry="2.95" transform="translate(-30.57 62.52) rotate(-8.99)"/><path class="cls-4" d="M467.87,296.76l4.23.55-2.66,3.33.78,4.19-4-1.49-3.74,2,.19-4.25-3.09-2.93,4.11-1.14,1.83-3.85Z"/><path class="cls-4" d="M437.6,288.83l3.08.43-1.93,2.54.58,3.21-2.91-1.16-2.72,1.55.13-3.25-2.26-2.26,3-.85,1.32-2.94Z"/><path class="cls-4" d="M417.31,349.7l3.08.43-1.93,2.54.58,3.21-2.91-1.16-2.72,1.55.13-3.25-2.26-2.25,3-.86,1.32-2.94Z"/><path class="cls-4" d="M329.05,329.4l3.08.44-1.93,2.54.58,3.21-2.91-1.16L325.15,336l.13-3.25L323,330.48l3-.86,1.32-2.94Z"/><path class="cls-4" d="M459.92,426.8l3.08.43-1.93,2.54.58,3.21-2.91-1.15L456,433.37l.13-3.25-2.26-2.25,3-.86,1.32-2.94Z"/><path class="cls-4" d="M461.24,453.78l3.77.53-2.36,3.11.71,3.92-3.55-1.41-3.33,1.89.16-4-2.77-2.75,3.66-1,1.61-3.59Z"/><path class="cls-4" d="M430.81,438.56l3.76.53-2.35,3.11.71,3.92-3.56-1.41-3.32,1.89.15-4-2.76-2.75,3.65-1.05,1.62-3.59Z"/><path class="cls-4" d="M390.23,426.39l3.76.53L391.64,430l.71,3.92-3.56-1.41-3.32,1.89.15-4-2.76-2.75,3.65-1.05,1.62-3.59Z"/><path class="cls-4" d="M450.63,341.4l4.22.55-2.65,3.33.78,4.19-4-1.5-3.74,2,.19-4.26-3.1-2.93,4.11-1.13,1.83-3.85Z"/><path class="cls-4" d="M445.56,313l4.22.55-2.65,3.34.78,4.18-4-1.49-3.75,2,.19-4.26-3.09-2.93,4.11-1.14,1.83-3.85Z"/><path class="cls-4" d="M399.9,330.24l4.23.55-2.66,3.33.78,4.19-4-1.5-3.74,2,.19-4.26-3.09-2.93,4.1-1.13,1.84-3.85Z"/><path class="cls-4" d="M373.53,317.05l4.22.55-2.65,3.33.78,4.19-4-1.49-3.75,2,.19-4.25-3.09-2.93,4.11-1.14,1.83-3.85Z"/><path class="cls-4" d="M381.64,357.63l4.23.55-2.66,3.33.78,4.19-4-1.49-3.74,2,.19-4.25-3.09-2.94,4.1-1.13,1.83-3.85Z"/><path class="cls-4" d="M448.6,370.82l4.22.55-2.65,3.33.78,4.19-4-1.5-3.74,2,.19-4.26-3.1-2.93,4.11-1.13,1.83-3.85Z"/><path class="cls-4" d="M474.45,325.64l3.75.46-2.37,2.84.68,3.56L473,331.24,469.63,333l.19-3.62-2.75-2.48,3.66-1,1.64-3.28Z"/><path class="cls-4" d="M492.71,346.94l3.75.46-2.37,2.84.69,3.56-3.55-1.26-3.33,1.75.18-3.63-2.75-2.48,3.66-1,1.64-3.28Z"/><path class="cls-4" d="M361.91,288.74c3.13-2.08,4.71-7.79,5.64-7.72.67,0-.44,12.08-7.44,12.25a2.47,2.47,0,0,1-2.53-2.53C357.71,286.88,359.53,290.33,361.91,288.74Z"/><path class="cls-4" d="M224.26,334.8l0,.17a2.54,2.54,0,0,1-1.43,2.44l-.13.06v0a2.51,2.51,0,0,1-1.47,1.68c-9.4,3.92-18.34,4.9-26.77,2.88-6.16-1.47-10.92-4.84-16.41-10.6l-.48-.52-4.09-4.42a30,30,0,0,0-3.34-3.17l-.1-.08-.26-.19a26.31,26.31,0,0,0-7-2.9l-.87-.25a2.54,2.54,0,0,1-.34-4.76q17.73-7.8,42.51.51C216.22,319.73,223.13,326.09,224.26,334.8Zm-53.92-17.23.28.13a15,15,0,0,1,2.37,1.43l.28.21a38,38,0,0,1,4.23,4c.31.34,2.91,3.19,4,4.36l.64.68c4.69,4.84,8.63,7.56,13.49,8.72l.51.12c7,1.55,14.51.73,22.54-2.51l.39-.16-.08-.35c-1.34-5.87-6.73-10.46-16.57-13.74q-18-6-31.59-3Z"/><path class="cls-4" d="M176.78,19.58c2.59,2.62,5.3,5.44,8.24,8.57l.12.13c3.1,3.32,44.49,48.84,43.56,49.72s-43.44-43.15-47-47l-1.82-1.93c-1.88-2-11.1-10.72-14.92-13.39-1.15-.81-2.45-2.46-1.65-3.6a2.53,2.53,0,0,1,3.53-.63A72.28,72.28,0,0,1,176.78,19.58Z"/><path class="cls-7" d="M164.27,181.16c-1.57,2.35-2.92,6.32-4.1,12v0l-.46-.3c-3.47-2.23-6.08-3.38-8-3.46h-.2c-3.17,0-4.12,2.63-3.18,6.62,1.53,6.48,7.43,15.25,17.73,26.47l1,1.1a1.5,1.5,0,0,0,2.55-.67c6.05-24.73,7-38.79,2.35-43C169.27,177.49,166.4,178,164.27,181.16Zm5.7,1c3.18,2.88,2.56,15.12-2.29,36l-.3,1.31-.51-.56c-8.94-9.94-14.12-17.75-15.54-23.3l-.07-.28c-.56-2.38-.36-2.93.26-2.93,1.49,0,4.52,1.49,8.82,4.5a1.49,1.49,0,0,0,2.33-.95c1.22-6.51,2.61-10.92,4.1-13.15C167.91,181.12,168.67,181,170,182.17Z"/><path class="cls-7" d="M200.45,213.53c-1.66-2.26-4-2.37-6.23-.46l-.14.11c-3.62,3.18-3.63,11.79-.49,27.23l.23,1.13a1.5,1.5,0,0,0,2.42.85c8.63-7.1,14-13.64,15.63-18.82,1-3.21.26-5.51-2.56-5.4-1.32.06-3.09.78-5.45,2.18l-.69.41-.21.13-.07-.41a18.5,18.5,0,0,0-2.31-6.76Zm-4.17,1.72c.88-.73,1.21-.68,1.75.05.86,1.18,1.62,3.68,2.2,7.46l.13.86a1.5,1.5,0,0,0,2.32,1c3.16-2.13,5.39-3.29,6.52-3.46l.1,0v.07a5.73,5.73,0,0,1-.23,1.24l-.07.21c-1.24,4.06-5.53,9.47-12.42,15.48l-.32.27-.16-.84c-2.45-12.83-2.34-20.09,0-22.17Z"/></svg>