<svg id="Layer_1" data-name="Layer 1" xmlns="http://www.w3.org/2000/svg" viewBox="0 0 165.44 127.08"><defs><style>.cls-1{fill:#fff;}.cls-2{fill:#a3c9a8;}.cls-3{fill:#f4d4d7;}.cls-4{fill:#2e86ab;}.cls-5{fill:#1a1a1a;}.cls-6{fill:#3a3a3a;}</style></defs><path class="cls-1" d="M156.18,37.29A27.54,27.54,0,1,1,128.64,9.75,27.55,27.55,0,0,1,156.18,37.29Z"/><rect class="cls-1" x="19.86" y="38.19" width="94.33" height="70.64"/><rect class="cls-2" x="104.95" y="60.14" width="6.72" height="6.72"/><rect class="cls-2" x="50.37" y="48.57" width="6.72" height="6.72"/><rect class="cls-2" x="65.3" y="46.61" width="6.72" height="6.72"/><rect class="cls-2" x="52.11" y="62.64" width="6.72" height="6.72"/><rect class="cls-3" x="64.42" y="61.65" width="6.72" height="6.72"/><rect class="cls-2" x="50.37" y="77.35" width="6.72" height="6.72"/><rect class="cls-2" x="65.86" y="76.5" width="6.72" height="6.72"/><path class="cls-2" d="M132.3,37.29a3.66,3.66,0,1,1-3.66-3.66A3.66,3.66,0,0,1,132.3,37.29Z"/><path class="cls-4" d="M45.51,32.67s0-2.38,0-2.4c0-1.14.36-3.26,1.22-3.26.21,0,.83.76,1.1,2.64,0,.23,0,.46.07.68.18,2.25-.33,4.35-1.18,4.58a.81.81,0,0,0,.23,1.6c2.29-.61,2.78-3.74,2.62-6.18,0-.31-.06-.62-.1-.91-.36-2.57-1.37-4-2.74-4-2.8,0-2.89,4.39-2.89,4.89,0,0,0,2.4,0,2.4Z"/><path class="cls-4" d="M60.2,32.67s0-2.38,0-2.4c0-1.14.36-3.26,1.22-3.26.21,0,.83.76,1.1,2.64,0,.23,0,.46.07.68.18,2.25-.33,4.35-1.18,4.58a.81.81,0,0,0,.23,1.6c2.29-.61,2.78-3.74,2.62-6.18a8.73,8.73,0,0,0-.1-.91c-.36-2.57-1.36-4-2.74-4-2.8,0-2.88,4.39-2.88,4.89v2.4Z"/><path class="cls-4" d="M74.84,32.67v-2.4c0-1.14.37-3.26,1.22-3.26.22,0,.83.76,1.1,2.64,0,.23.06.46.08.68.18,2.25-.33,4.35-1.18,4.58a.81.81,0,0,0,.22,1.6c2.3-.61,2.78-3.74,2.62-6.18,0-.31-.05-.62-.09-.91-.37-2.57-1.37-4-2.75-4-2.8,0-2.88,4.39-2.88,4.89,0,0,0,2.4,0,2.4Z"/><path class="cls-4" d="M89.49,32.67s0-2.38,0-2.4c0-1.14.36-3.26,1.22-3.26.21,0,.83.76,1.1,2.64,0,.23.06.46.07.68.18,2.25-.33,4.35-1.18,4.58a.82.82,0,0,0-.57,1,.83.83,0,0,0,.8.59c2.29-.61,2.78-3.74,2.62-6.18,0-.31,0-.62-.09-.91-.37-2.57-1.37-4-2.75-4-2.8,0-2.88,4.39-2.88,4.89v2.4Z"/><path class="cls-4" d="M104.22,32.67s0-2.38,0-2.4c0-1.14.36-3.26,1.21-3.26.22,0,.83.76,1.1,2.64,0,.23.06.46.08.68.18,2.25-.33,4.35-1.18,4.58a.81.81,0,0,0,.23,1.6c2.29-.61,2.78-3.74,2.61-6.18,0-.31,0-.62-.09-.91-.37-2.57-1.37-4-2.75-4-2.8,0-2.88,4.39-2.88,4.89,0,0,0,2.4,0,2.4Z"/><path class="cls-4" d="M30.72,32.67s0-2.38,0-2.4c0-1.14.36-3.26,1.22-3.26.21,0,.83.76,1.1,2.64,0,.23.05.46.07.68.18,2.25-.33,4.35-1.18,4.58a.81.81,0,0,0,.23,1.6c2.29-.61,2.78-3.74,2.62-6.18,0-.31-.06-.62-.1-.91-.37-2.57-1.37-4-2.74-4-2.81,0-2.89,4.39-2.89,4.89,0,0,0,2.4,0,2.4Z"/><path class="cls-1" d="M109.06,45.58s-2.34,9.07-1.75,12.63,1.43,4.62,2.73,6.13l.11,1.08a4.59,4.59,0,0,0,4.71,3.63,9.71,9.71,0,0,0,7.93-3.63,38.32,38.32,0,0,1,1.1-7.52s1.58,1.22,2.88.28a3.91,3.91,0,0,0,1.87-3.08c.06-1.13-.39-3.48-2-3.81a3.81,3.81,0,0,0-2.95.77l.24-2.42s-.2-3.62-6.8-4.68C111.11,44,109.06,45.58,109.06,45.58Z"/><path class="cls-2" d="M106.16,47.09a11,11,0,0,1,6-2.35,13,13,0,0,1,7.52,1c1.25.56,3.78,1.85,4.18,3.87l-.24,2.42a3.28,3.28,0,0,1,2.24-.92,1.79,1.79,0,0,1,1.82.92l2.8-6.65-1.87,1.49-.15-4-1.06,1.28s-2.85-6.37-9.5-6.83-10.44,2.75-12,5l3.68-.89S106.39,46.32,106.16,47.09Z"/><path class="cls-4" d="M105.38,67.7s-7.69,1.43-12.93,2.24-10.4.83-16.82-2.78C69.71,63.83,67.4,57,67.4,57l-11.93,2.8s3.05,8.8,7.71,14.73,10,10.42,17.51,11.29,9.94.87,11.11.7l-3.19,37.4,43.69.26.88-32.87s6,3,8.08,14.41a113.06,113.06,0,0,1,2,18.46h12.91a61.63,61.63,0,0,0-1.4-26C150.93,83.85,144.22,77,137.37,72.47s-10.68-4.06-10.68-4.06l-3.9-3-13.66,38.83L110,64.34Z"/><path class="cls-1" d="M110.07,64.6s-.27,4,4.79,4.45a8.57,8.57,0,0,0,7.66-3.4l-13.39,38.6Z"/><polygon class="cls-2" points="115.51 70.15 113.42 73.05 114.05 76 110.88 90.27 110.66 99.63 115.09 87.12 116.67 76.54 118 74.35 115.51 70.15"/><polygon class="cls-2" points="16.35 32.68 13.85 103.52 5.69 103.52 5.69 99.79 2.54 99.79 16.35 32.68"/><path class="cls-5" d="M118.2,57.52a2,2,0,0,0-1.08,1.71,2.84,2.84,0,0,0-.68.65c-.36.45-1,1.16-1.61.52s0-1.68.42-2.12A2.84,2.84,0,0,1,118.2,57.52Z"/><rect class="cls-2" x="25.7" y="48.76" width="6.72" height="6.72"/><rect class="cls-2" x="37.02" y="47.67" width="6.72" height="6.72"/><rect class="cls-2" x="78.52" y="48.7" width="6.72" height="6.72"/><rect class="cls-2" x="89.81" y="46.61" width="6.72" height="6.72"/><rect class="cls-2" x="23.33" y="60.98" width="6.72" height="6.72"/><rect class="cls-2" x="39.8" y="60.14" width="6.72" height="6.72"/><rect class="cls-2" x="79.29" y="61.09" width="6.72" height="6.72"/><rect class="cls-2" x="89.81" y="62.64" width="6.72" height="6.72"/><rect class="cls-2" x="26.69" y="77.35" width="6.72" height="6.72"/><rect class="cls-2" x="40.38" y="75.87" width="6.72" height="6.72"/><rect class="cls-2" x="25.76" y="91.3" width="6.72" height="6.72"/><rect class="cls-2" x="37.02" y="89.14" width="6.72" height="6.72"/><rect class="cls-2" x="49.61" y="91.3" width="6.72" height="6.72"/><rect class="cls-2" x="62.85" y="88.58" width="6.72" height="6.72"/><rect class="cls-2" x="79.29" y="90.59" width="6.72" height="6.72"/><polygon class="cls-6" points="80.43 51.7 78.26 49.62 77.65 49.82 77.48 50.43 79.96 52.98 80.43 53.18 80.92 52.88 86.18 47.67 86.18 46.85 85.33 46.75 80.43 51.7"/><path class="cls-1" d="M57.53,59.31l-2.06-8.52s0-1.68,1-1.85a1.91,1.91,0,0,1,2.3,1c.48,1,.48,1.17.48,1s-.42-2.16.95-2.65,2,.07,2.16.88l.27-.34s-1.91-4.54.8-5.51c0,0,.87-.27,1.69,2.14a25.45,25.45,0,0,1,1,3.74,4.38,4.38,0,0,0,1.1.57,2.17,2.17,0,0,1,1.38,1.84A50.68,50.68,0,0,1,67.4,57Z"/><path class="cls-5" d="M84.7,17.45c-.17-.07-2.76-2.66-2.76-2.66a.23.23,0,0,1,0-.34.24.24,0,0,1,.33,0l2.59,2.6a.24.24,0,0,1,0,.33A.2.2,0,0,1,84.7,17.45Z"/><path class="cls-5" d="M82.1,17.45c-.26-.16-.26-.31-.16-.4l2.59-2.6a.24.24,0,0,1,.33,0,.25.25,0,0,1,0,.34l-2.59,2.59A.23.23,0,0,1,82.1,17.45Z"/><path class="cls-5" d="M87.78,13.25a1,1,0,1,1,1-1A1,1,0,0,1,87.78,13.25Zm0-1.49a.51.51,0,1,0,0,1,.51.51,0,0,0,0-1Z"/><path class="cls-5" d="M155.44,68.81a1,1,0,1,1,1-1A1,1,0,0,1,155.44,68.81Zm0-1.48a.51.51,0,1,0,.51.5A.51.51,0,0,0,155.44,67.33Z"/><path class="cls-5" d="M66.21,49.59A.24.24,0,0,1,66,49.4c-.57-2.9-1.59-6-2.29-5.85a1.44,1.44,0,0,0-1.1.7c-.84,1.44.28,4.46.29,4.49a.23.23,0,0,1-.44.16c0-.13-1.21-3.25-.25-4.88a1.92,1.92,0,0,1,1.43-.94c1.42-.19,2.52,4.71,2.82,6.23a.23.23,0,0,1-.18.28Z"/><path class="cls-5" d="M115.77,69.34a7.78,7.78,0,0,1-.94-.06c-5.07-.59-5-4.65-5-4.69a.23.23,0,0,1,.23-.22.24.24,0,0,1,.24.24c0,.15,0,3.66,4.61,4.21s7.68-3.49,7.71-3.53a.23.23,0,0,1,.32-.06.24.24,0,0,1,.06.33S120.22,69.34,115.77,69.34Z"/><path class="cls-5" d="M115.36,60.89a1,1,0,0,1-.85-.53,1.75,1.75,0,0,1,.09-1.47,2.93,2.93,0,0,1,2-1.71,2.83,2.83,0,0,1,2.72.79,1.68,1.68,0,0,1,.52,1.14,1,1,0,0,1-1,1,1.72,1.72,0,0,1-.8-.22,1.85,1.85,0,0,0-.7-.31c-.31.06-.38.08-.76.65A1.42,1.42,0,0,1,115.36,60.89Zm1.87-3.32a2.22,2.22,0,0,0-.57.07A2.43,2.43,0,0,0,115,59.07a1.35,1.35,0,0,0-.11,1.06c.26.46.85.31,1.18-.19.43-.67.59-.76.9-.83s.51-.06,1.19.33a1.1,1.1,0,0,0,.56.17.53.53,0,0,0,.58-.52,1.29,1.29,0,0,0-.4-.8A2.36,2.36,0,0,0,117.23,57.57Z"/><path class="cls-5" d="M117.12,59.46a.23.23,0,0,1-.24-.22,1.58,1.58,0,0,1,1.42-1.8.22.22,0,0,1,.25.21.23.23,0,0,1-.21.25,1.12,1.12,0,0,0-1,1.32.23.23,0,0,1-.22.24Z"/><path class="cls-5" d="M114.07,65.66a6.54,6.54,0,0,1-5.5-2.74c-3.7-5.41.24-16.81.41-17.3a.23.23,0,0,1,.3-.14.24.24,0,0,1,.14.3c0,.11-4,11.67-.46,16.88a6.07,6.07,0,0,0,5.12,2.53.22.22,0,0,1,.22.24A.23.23,0,0,1,114.07,65.66Z"/><path class="cls-5" d="M125.52,58.75a3,3,0,0,1-2.15-1,.23.23,0,0,1,0-.33.24.24,0,0,1,.33,0,2.42,2.42,0,0,0,1.6.85c1.51.14,2.89-1.29,3.07-3.19s-.92-3.56-2.44-3.7a2.76,2.76,0,0,0-2.6,1.61.23.23,0,0,1-.41-.22A3.19,3.19,0,0,1,126,50.92c1.77.16,3.05,2,2.85,4.2S127.19,58.75,125.52,58.75Z"/><path class="cls-5" d="M122.79,65.66a.23.23,0,0,1-.23-.21c-.26-2.47,1-7.4,1.1-7.61a.23.23,0,0,1,.29-.16.22.22,0,0,1,.16.28S122.77,63,123,65.4a.23.23,0,0,1-.21.25Z"/><path class="cls-5" d="M123.68,52.35a.23.23,0,0,1-.23-.26l.3-2.38c-.07-.31-.89-3.18-6.68-4.52a13.22,13.22,0,0,0-10.69,2.13.24.24,0,0,1-.3,0,.23.23,0,0,1,0-.3l3.1-5.19-3.31.94c-.17-.53,2.3-5,10.32-5.67,7.09-.58,10.58,5.19,11.35,6.64l.89-1.05c.42.15.36,3.84.36,3.84l1.76-1.41c.36.28-2.65,7-2.65,7a.25.25,0,0,1-.31.11.23.23,0,0,1-.12-.31L130,46.09l-1.4,1.11c-.38-.19-.32-3.71-.32-3.71l-.71.83c-.42-.13-3.68-7.4-11.43-6.75-6.16.51-9,3.39-9.87,4.57l3.26-.92c.26.35-2.6,5.14-2.6,5.14a13.78,13.78,0,0,1,10.2-1.62c6.44,1.48,7,4.79,7,4.93s-.31,2.48-.31,2.48A.22.22,0,0,1,123.68,52.35Z"/><path class="cls-5" d="M88.61,124.41a.25.25,0,0,1-.24-.26l3.2-37.66a.22.22,0,0,1,.25-.21.24.24,0,0,1,.22.25l-3.2,37.66A.24.24,0,0,1,88.61,124.41Z"/><path class="cls-5" d="M143.27,124.41a.24.24,0,0,1-.24-.23c-1.1-23.74-5.24-29.8-9.63-32.48l-.86,32.12a.27.27,0,0,1-.24.23.23.23,0,0,1-.23-.24l.87-32.52c5.7,2.86,9.49,9.66,10.56,32.87a.24.24,0,0,1-.22.25Z"/><path class="cls-5" d="M156.18,124.41a.25.25,0,0,1-.23-.28c2-10.52-.22-23.65-3.07-31.4-8.08-22-26-24.07-26.22-24.09a.23.23,0,0,1-.2-.25.21.21,0,0,1,.25-.21c.18,0,18.43,2.11,26.61,24.39,2.87,7.81,5.06,21,3.09,31.65A.24.24,0,0,1,156.18,124.41Z"/><path class="cls-5" d="M88.64,86.92A41.86,41.86,0,0,1,78,85.43c-16.19-4.21-22.73-25.36-22.8-25.57.17-.3,12.1-3.1,12.1-3.1a.24.24,0,0,1,.27.14c6.16,15.17,21.3,13.5,25.8,12.63,8.55-1.66,11.91-2.06,12-2.06a.23.23,0,0,1,.26.2.24.24,0,0,1-.21.26S102,68.33,93.5,70c-4.57.88-19.9,2.57-26.24-12.73L55.77,60c.77,2.34,7.38,21.12,22.39,25,7.5,2,12.63,1.61,15.62,1a.21.21,0,0,1,.27.18.22.22,0,0,1-.18.27A25.21,25.21,0,0,1,88.64,86.92Z"/><path class="cls-5" d="M109.06,104.79c-.21-.09-.26-.21-.22-.32l13.73-39.13c.36-.1,4.26,2.88,4.26,2.88s3.09,10.37,3.09,10.37c-.21.3-6.83.67-6.83.67l1.41,5.27c0,.2-15.26,20.16-15.26,20.16A.22.22,0,0,1,109.06,104.79Zm13.84-39-13.13,37.44L124,84.54l-1.46-5.43c.21-.3,6.83-.67,6.83-.67l-2.91-9.89Z"/><path class="cls-5" d="M109.06,104.79c-.23-.18-5.21-21-5.21-21,0-.15,2.13-5.23,2.13-5.23l-4.6-1.76c-.13-.31,3.79-9.17,3.79-9.17s4.74-3.45,4.74-3.45c.37.19-.62,40.41-.62,40.41a.23.23,0,0,1-.21.22Zm-4.73-21.07,4.54,19,.93-37.95-4.23,3-3.79,8.57,4.59,1.76C106.5,78.49,104.33,83.72,104.33,83.72Z"/><path class="cls-5" d="M125.86,56.55c-.18-.08-1.61-1.66-1.61-1.66,0-.36,2.23-1.75,2.23-1.75a.23.23,0,1,1,.25.39l-2,1.25L126,56.16a.23.23,0,0,1,0,.33A.22.22,0,0,1,125.86,56.55Z"/><path class="cls-5" d="M113.36,56.61a.35.35,0,0,1-.31-.14c-.23-.33-.11-1.42,1.2-5.73.09-.27.15-.45.16-.5a.21.21,0,0,1,.23-.21.24.24,0,0,1,.23.25,2.66,2.66,0,0,1-.17.6c-1.13,3.71-1.34,4.93-1.28,5.26a6.09,6.09,0,0,0,1.72-.61.22.22,0,0,1,.31.09.24.24,0,0,1-.09.32A6,6,0,0,1,113.36,56.61Z"/><path class="cls-5" d="M118.42,54.21a.77.77,0,0,1-.32-.07c-1.07-.49-.44-2.65-.37-2.89a.24.24,0,0,1,.3-.16.23.23,0,0,1,.15.29c-.16.52-.48,2.06.12,2.33.7-.19,1.15-1.2,1.34-1.79a.23.23,0,0,1,.29-.15.23.23,0,0,1,.15.29c0,.18-.56,1.73-1.33,2.08A.78.78,0,0,1,118.42,54.21Z"/><path class="cls-5" d="M110.75,53a.74.74,0,0,1-.32-.07c-1.08-.49-.45-2.65-.37-2.89a.24.24,0,0,1,.29-.16.23.23,0,0,1,.16.29c-.16.52-.48,2.06.12,2.33.69-.19,1.15-1.2,1.33-1.79a.24.24,0,0,1,.3-.15.23.23,0,0,1,.15.29c-.06.18-.56,1.73-1.33,2.08A.78.78,0,0,1,110.75,53Z"/><path class="cls-5" d="M119,76.35c-.2-.12-4.2-6.88-4.2-6.88l-4.61,6.23a.23.23,0,0,1-.33,0,.24.24,0,0,1,0-.33l4.81-6.51c.39,0,4.57,7.08,4.57,7.08a.24.24,0,0,1-.08.32A.19.19,0,0,1,119,76.35Z"/><path class="cls-5" d="M115.33,76.73l-2.69-.39a27.16,27.16,0,0,1-.88-3.36.25.25,0,0,1,.18-.28.24.24,0,0,1,.28.18l.64,3,2.35.33L117.08,73a.24.24,0,0,1,.32-.08.23.23,0,0,1,.08.32l-2,3.36A.23.23,0,0,1,115.33,76.73Z"/><path class="cls-5" d="M113.06,93.37a.24.24,0,0,1-.23-.26l2.27-16.64a.23.23,0,1,1,.46.06l-2.27,16.64A.22.22,0,0,1,113.06,93.37Z"/><path class="cls-5" d="M109.4,90.82a.24.24,0,0,1-.23-.29l3.27-14.47a.23.23,0,0,1,.28-.17.23.23,0,0,1,.18.28l-3.27,14.47A.23.23,0,0,1,109.4,90.82Z"/><path class="cls-5" d="M67.4,57.22c-.19,0-.26-.17-.23-.29L68,53.87c.66-2.08.52-3.12-.51-3.7-.58-.33-3.79-1.69-4.76-1-.27.21-.35.6-.21,1.18a3.89,3.89,0,0,0,3.37,3.2.24.24,0,0,1,0,.47,4.44,4.44,0,0,1-3.8-3.57,1.47,1.47,0,0,1,.39-1.65c1.37-1,5.24.9,5.28.92,1.54.88,1.25,2.56.72,4.24l-.85,3A.22.22,0,0,1,67.4,57.22Z"/><path class="cls-5" d="M57.44,59.28a35.57,35.57,0,0,1-1.72-6c-.57-2.61-.91-4.18.93-4.65,1.18-.29,2.14.4,2.69,2,.2.56.8,2.46.2,3.59a1.5,1.5,0,0,1-1,.78,2.71,2.71,0,0,1-2-.07C57.1,57,57.66,59,57.66,59a.23.23,0,0,1-.16.29ZM56.36,54s.28,1,2.06.52a1,1,0,0,0,.71-.55,4.73,4.73,0,0,0-.23-3.21c-.33-.92-1-1.95-2.13-1.65s-1.21,1.27-.59,4.09l.18.79Z"/><path class="cls-5" d="M61.64,54.26c-1.79,0-2.13-1.57-2.35-2.55a5.75,5.75,0,0,0-.14-.59,2.81,2.81,0,0,1,0-2.24,2.09,2.09,0,0,1,1.38-1,1.72,1.72,0,0,1,1.45.16,1.78,1.78,0,0,1,.66,1.12.24.24,0,0,1-.21.26.24.24,0,0,1-.26-.21,1.23,1.23,0,0,0-.46-.78,1.3,1.3,0,0,0-1.07-.1,1.63,1.63,0,0,0-1.08.73,2.36,2.36,0,0,0,0,1.87c0,.18.1.4.15.63.25,1.15.54,2.46,2.43,2.13a1.34,1.34,0,0,0,1-1.05.22.22,0,0,1,.27-.19.23.23,0,0,1,.19.27,1.78,1.78,0,0,1-1.43,1.43A3.59,3.59,0,0,1,61.64,54.26Z"/><path class="cls-5" d="M120.26,50.52a8,8,0,0,0-1.2-1.32.23.23,0,1,1,.21-.42,4.81,4.81,0,0,1,1.19,1.38.23.23,0,0,1-.08.32A.19.19,0,0,1,120.26,50.52Z"/><path class="cls-5" d="M111.21,48.44c-.27-.26-.21-.39-.09-.44a4.64,4.64,0,0,1,1.77-.43.23.23,0,0,1,.2.26.24.24,0,0,1-.27.2,4,4,0,0,0-1.52.39A.15.15,0,0,1,111.21,48.44Z"/><path class="cls-5" d="M135.62,70.17c-.25-.31-.17-.44-.05-.46A33.14,33.14,0,1,0,96.45,29.27a.23.23,0,0,1-.28.17.24.24,0,0,1-.17-.28,33.63,33.63,0,1,1,39.67,41Z"/><path class="cls-5" d="M128.64,60.45l-.93,0c-.43,0-.89,0-1.35-.1a.23.23,0,0,1-.21-.25.23.23,0,0,1,.26-.21l1.32.09.9,0a22.72,22.72,0,0,0,22.71-22.69c0-.34,0-.69,0-1,0-.59-.06-.9-.09-1.22s-.08-.73-.13-1l0-.33c0-.25-.08-.5-.13-.75s0-.26-.08-.38-.1-.48-.16-.72-.08-.28-.11-.42l-.15-.52c-.07-.24-.15-.49-.23-.73s-.09-.28-.14-.41-.13-.35-.19-.53c-.26-.65-.41-1-.57-1.34s-.25-.54-.35-.73c-.28-.55-.5-.95-.72-1.34a22.72,22.72,0,0,0-38.58-.93.24.24,0,0,1-.32.06.23.23,0,0,1-.07-.32,23.18,23.18,0,0,1,39.37,1c.23.39.45.8.67,1.22s.27.54.36.75c.23.49.38.84.52,1.21s.26.65.32.83.1.28.14.42.16.5.24.75l.15.53c0,.14.07.28.11.43s.12.49.17.73,0,.26.08.38.09.52.13.77l.06.34.12,1c0,.43.06.75.08,1.07,0,.63,0,1,0,1.33A23.19,23.19,0,0,1,128.64,60.45Z"/><path class="cls-5" d="M128.64,40a2.68,2.68,0,1,1,2.68-2.68A2.68,2.68,0,0,1,128.64,40Zm0-4.89a2.22,2.22,0,1,0,2.21,2.21A2.22,2.22,0,0,0,128.64,35.08Z"/><path class="cls-5" d="M125.51,41.11c-.25-.14-.26-.28-.18-.38l1.26-1.49a.23.23,0,0,1,.36.3L125.69,41A.25.25,0,0,1,125.51,41.11Z"/><path class="cls-5" d="M129.44,34.88c-.18,0-.25-.16-.22-.29l3.86-16.08a.22.22,0,0,1,.28-.17.22.22,0,0,1,.17.28L129.67,34.7A.23.23,0,0,1,129.44,34.88Z"/><path class="cls-5" d="M128.64,21.67a.23.23,0,0,1-.23-.23V16.17a.23.23,0,0,1,.46,0v5.27A.23.23,0,0,1,128.64,21.67Z"/><path class="cls-5" d="M149.77,37.53h-5.28a.24.24,0,0,1,0-.47h5.28a.24.24,0,0,1,0,.47Z"/><path class="cls-5" d="M84.7,17.45c-.17-.07-2.76-2.66-2.76-2.66a.23.23,0,0,1,0-.34.24.24,0,0,1,.33,0l2.59,2.6a.24.24,0,0,1,0,.33A.2.2,0,0,1,84.7,17.45Z"/><path class="cls-5" d="M82.1,17.45c-.26-.16-.26-.31-.16-.4l2.59-2.6a.24.24,0,0,1,.33,0,.25.25,0,0,1,0,.34l-2.59,2.59A.23.23,0,0,1,82.1,17.45Z"/><path class="cls-5" d="M87.78,13.25a1,1,0,1,1,1-1A1,1,0,0,1,87.78,13.25Zm0-1.49a.51.51,0,1,0,0,1,.51.51,0,0,0,0-1Z"/><path class="cls-5" d="M8.41,97.54H5c-.23-.27,11.08-64.87,11.08-64.87a.24.24,0,0,1,.27-.19.24.24,0,0,1,.19.27L5.32,97.08H8.41a.23.23,0,0,1,0,.46Z"/><path class="cls-5" d="M16.35,101.27H8.19C8,101,16.12,32.68,16.12,32.68a.24.24,0,0,1,.26-.2.22.22,0,0,1,.2.26L8.46,100.8h7.89a.23.23,0,0,1,.23.24A.23.23,0,0,1,16.35,101.27Z"/><path class="cls-5" d="M86.89,113.76H16.35a.23.23,0,0,1-.23-.23V32.71a.23.23,0,0,1,.23-.23H33a.23.23,0,0,1,.23.23A.23.23,0,0,1,33,33H16.58V113.3H86.89a.23.23,0,0,1,0,.46Z"/><path class="cls-5" d="M47.76,33h-13a.23.23,0,0,1-.23-.24.23.23,0,0,1,.23-.23h13a.23.23,0,0,1,.24.23A.24.24,0,0,1,47.76,33Z"/><path class="cls-5" d="M62.42,33H49.49a.23.23,0,0,1-.23-.24.23.23,0,0,1,.23-.23H62.42a.23.23,0,0,1,.24.23A.24.24,0,0,1,62.42,33Z"/><path class="cls-5" d="M77.15,33H64.06a.23.23,0,0,1-.23-.24.23.23,0,0,1,.23-.23H77.15a.23.23,0,0,1,.23.23A.23.23,0,0,1,77.15,33Z"/><path class="cls-5" d="M91.8,33h-13a.24.24,0,0,1-.23-.24.23.23,0,0,1,.23-.23h13a.23.23,0,0,1,.24.23A.24.24,0,0,1,91.8,33Z"/><path class="cls-5" d="M106.53,33H93.44a.23.23,0,0,1-.23-.24.23.23,0,0,1,.23-.23h13.09a.23.23,0,0,1,.23.23A.23.23,0,0,1,106.53,33Z"/><path class="cls-5" d="M120,36.12a.23.23,0,0,1-.23-.24V33H108.17a.24.24,0,0,1-.24-.24.23.23,0,0,1,.24-.23H120a.23.23,0,0,1,.23.23v3.17A.23.23,0,0,1,120,36.12Z"/><path class="cls-5" d="M88.17,109.07H19.86a.23.23,0,0,1-.23-.23V38.19a.23.23,0,0,1,.23-.23h87.38a.23.23,0,1,1,0,.46H20.1V108.6H88.17a.24.24,0,0,1,0,.47Z"/><path class="cls-5" d="M32.16,36.76a1.05,1.05,0,0,1-.29-2.06c.62-.17,1.18-2,1-4.34,0-.22,0-.45-.07-.68-.25-1.79-.79-2.39-.89-2.44-.48,0-.91,1.66-.92,3v2.4h-.47v-2.4c0-.91.26-3.5,1.43-3.5.44,0,1.06,1.06,1.31,2.84,0,.23.05.47.07.7.17,2.11-.24,4.52-1.33,4.83a.58.58,0,0,0,.32,1.12c1.85-.53,2.33-3.52,2.18-5.91q0-.48-.09-.9C34.07,27,33.17,25.62,32,25.62c-2.52,0-2.6,4.18-2.6,4.66v2.4h-.47v-2.4c0-.53.08-5.13,3.06-5.13,1.48,0,2.54,1.55,2.92,4.24,0,.3.07.61.09.94.18,2.69-.39,5.78-2.51,6.39A.92.92,0,0,1,32.16,36.76Z"/><path class="cls-5" d="M46.9,36.76a1.05,1.05,0,0,1-1-.76,1.06,1.06,0,0,1,.09-.8,1.08,1.08,0,0,1,.63-.5c.61-.17,1.17-2,1-4.34,0-.22,0-.45-.07-.68-.25-1.79-.79-2.39-.89-2.44-.49,0-.92,1.66-.92,3,0,0,0,2.4,0,2.4h-.47V30.28c0-.91.27-3.5,1.43-3.5.45,0,1.06,1.06,1.31,2.84,0,.23.06.47.08.7.16,2.11-.25,4.52-1.33,4.83a.61.61,0,0,0-.35.28.57.57,0,0,0,0,.44.59.59,0,0,0,.72.4c1.85-.53,2.33-3.52,2.17-5.91q0-.48-.09-.9c-.34-2.44-1.24-3.84-2.46-3.84-2.52,0-2.59,4.18-2.59,4.66v2.39h-.46s0-2.38,0-2.4c0-.53.09-5.13,3.06-5.13,1.48,0,2.55,1.55,2.93,4.24,0,.3.07.61.09.94.17,2.69-.39,5.78-2.51,6.39A1,1,0,0,1,46.9,36.76Z"/><path class="cls-5" d="M61.56,36.76a1.05,1.05,0,0,1-1-.76,1,1,0,0,1,.09-.8,1.06,1.06,0,0,1,.63-.5c.61-.17,1.17-2,1-4.34,0-.22,0-.45-.08-.68-.25-1.79-.79-2.39-.88-2.44-.49,0-.92,1.66-.92,3,0,0,0,2.41,0,2.41H59.9V30.28c0-.91.27-3.5,1.43-3.5.45,0,1.06,1.06,1.31,2.84,0,.23.05.47.07.71.17,2.1-.24,4.51-1.32,4.82a.58.58,0,0,0-.35.28.53.53,0,0,0,0,.44.59.59,0,0,0,.72.4c1.85-.53,2.32-3.52,2.17-5.91q0-.48-.09-.9c-.34-2.44-1.24-3.84-2.46-3.84-2.52,0-2.59,4.18-2.59,4.66v2.39h-.47V30.28c0-.53.08-5.13,3.06-5.13,1.48,0,2.54,1.55,2.92,4.24,0,.3.08.61.1.94.17,2.69-.4,5.78-2.52,6.39A.9.9,0,0,1,61.56,36.76Z"/><path class="cls-5" d="M76.28,36.76A1.05,1.05,0,0,1,76,34.7c.62-.17,1.17-2,1-4.34,0-.22,0-.45-.07-.68-.25-1.79-.79-2.39-.89-2.44-.49,0-.92,1.66-.92,3,0,0,0,2.41,0,2.41h-.46V30.28c0-.91.27-3.5,1.43-3.5.45,0,1.06,1.06,1.31,2.84,0,.23.06.47.08.7.16,2.11-.25,4.52-1.33,4.83a.58.58,0,0,0-.4.72.59.59,0,0,0,.72.4c1.85-.53,2.33-3.52,2.18-5.91,0-.32-.06-.62-.1-.9-.34-2.44-1.23-3.84-2.46-3.84-2.52,0-2.59,4.18-2.59,4.66v2.43H73s0-2.41,0-2.43c0-.53.09-5.13,3.06-5.13,1.48,0,2.55,1.55,2.93,4.24,0,.3.07.61.09.94.17,2.69-.39,5.78-2.51,6.39A.92.92,0,0,1,76.28,36.76Z"/><path class="cls-5" d="M90.94,36.76a1.05,1.05,0,0,1-.29-2.06c.61-.17,1.17-2,1-4.34,0-.22,0-.45-.07-.68-.25-1.79-.8-2.39-.89-2.44-.49,0-.92,1.66-.92,3,0,0,0,2.43,0,2.43h-.47V30.28c0-.91.27-3.5,1.43-3.5.45,0,1.06,1.06,1.31,2.84,0,.23.06.47.07.71.17,2.1-.24,4.51-1.32,4.82a.58.58,0,0,0-.4.72.59.59,0,0,0,.72.4c1.85-.53,2.33-3.52,2.17-5.91q0-.48-.09-.9c-.34-2.44-1.24-3.84-2.46-3.84-2.52,0-2.59,4.18-2.59,4.66v2.43h-.46V30.28c0-.53.09-5.13,3.06-5.13,1.48,0,2.55,1.55,2.93,4.24,0,.3.07.61.09.94.17,2.69-.4,5.78-2.51,6.39A1,1,0,0,1,90.94,36.76Z"/><path class="cls-5" d="M105.66,36.76a1.05,1.05,0,0,1-.29-2.06c.62-.17,1.18-2,1-4.34,0-.22,0-.45-.07-.68-.25-1.79-.79-2.39-.89-2.44-.48,0-.91,1.66-.92,3v2.38a.25.25,0,0,1-.26.21.22.22,0,0,1-.21-.24c0-.12,0-2.33,0-2.35,0-.91.26-3.5,1.42-3.5.45,0,1.06,1.06,1.32,2.84,0,.23,0,.47.07.71.16,2.1-.24,4.51-1.33,4.82a.58.58,0,1,0,.32,1.12c1.85-.53,2.33-3.52,2.18-5.91q0-.48-.09-.9c-.35-2.44-1.24-3.84-2.47-3.84-2.52,0-2.59,4.18-2.59,4.66v2.35a.23.23,0,0,1-.22.24.24.24,0,0,1-.25-.21V30.33c0-.58.09-5.18,3.06-5.18,1.49,0,2.55,1.55,2.93,4.24,0,.3.07.61.09.94.18,2.69-.39,5.78-2.51,6.39A.92.92,0,0,1,105.66,36.76Z"/><path class="cls-5" d="M31.61,54.63H25a.23.23,0,0,1-.23-.24V47.81a.23.23,0,0,1,.23-.24h6.58a.24.24,0,0,1,.24.24v6.58A.24.24,0,0,1,31.61,54.63Zm-6.35-.47h6.12V48H25.26Z"/><path class="cls-5" d="M44.89,54.63H38.3a.23.23,0,0,1-.23-.24V47.81a.23.23,0,0,1,.23-.24h6.59a.23.23,0,0,1,.23.24v6.58A.23.23,0,0,1,44.89,54.63Zm-6.35-.47h6.11V48H38.54Z"/><path class="cls-5" d="M56.21,54.63H51.42a.23.23,0,0,1-.23-.24V47.81a.23.23,0,0,1,.23-.24H58a.23.23,0,0,1,.23.24V49a.23.23,0,0,1-.23.23.23.23,0,0,1-.24-.23V48H51.66v6.12h4.55a.23.23,0,0,1,.24.23A.24.24,0,0,1,56.21,54.63Z"/><path class="cls-5" d="M71.25,54.63H68.12a.24.24,0,0,1-.24-.24.23.23,0,0,1,.24-.23H71V48H65.86a.23.23,0,0,1-.23-.23.23.23,0,0,1,.23-.24h5.39a.23.23,0,0,1,.23.24v6.58A.23.23,0,0,1,71.25,54.63Z"/><path class="cls-5" d="M97.76,54.63H91.17a.23.23,0,0,1-.23-.24V47.81a.23.23,0,0,1,.23-.24h6.59a.23.23,0,0,1,.23.24v6.58A.23.23,0,0,1,97.76,54.63Zm-6.35-.47h6.11V48H91.41Z"/><path class="cls-5" d="M31.61,82.78H25a.23.23,0,0,1-.23-.24V76a.23.23,0,0,1,.23-.24h6.58a.24.24,0,0,1,.24.24v6.58A.24.24,0,0,1,31.61,82.78Zm-6.35-.47h6.12V76.19H25.26Z"/><path class="cls-5" d="M44.89,82.78H38.3a.23.23,0,0,1-.23-.24V76a.23.23,0,0,1,.23-.24h6.59a.23.23,0,0,1,.23.24v6.58A.23.23,0,0,1,44.89,82.78Zm-6.35-.47h6.11V76.19H38.54Z"/><path class="cls-5" d="M58,82.78H51.42a.23.23,0,0,1-.23-.24V76a.23.23,0,0,1,.23-.24H58a.23.23,0,0,1,.23.24v6.58A.23.23,0,0,1,58,82.78Zm-6.35-.47h6.11V76.19H51.66Z"/><path class="cls-5" d="M71.25,82.78H64.66a.23.23,0,0,1-.23-.24v-6.2a.23.23,0,1,1,.46,0v6h6.36a.23.23,0,0,1,.23.23A.23.23,0,0,1,71.25,82.78Z"/><path class="cls-5" d="M71.25,82.78a.24.24,0,0,1-.24-.24v-.38a.23.23,0,0,1,.24-.23.23.23,0,0,1,.23.23v.38A.23.23,0,0,1,71.25,82.78Z"/><path class="cls-5" d="M31.61,97.05H25a.23.23,0,0,1-.23-.24V90.23A.23.23,0,0,1,25,90h6.58a.24.24,0,0,1,.24.24v6.58A.24.24,0,0,1,31.61,97.05Zm-6.35-.47h6.12V90.46H25.26Z"/><path class="cls-5" d="M44.89,97.05H38.3a.23.23,0,0,1-.23-.24V90.23A.23.23,0,0,1,38.3,90h6.59a.23.23,0,0,1,.23.24v6.58A.23.23,0,0,1,44.89,97.05Zm-6.35-.47h6.11V90.46H38.54Z"/><path class="cls-5" d="M58,97.05H51.42a.23.23,0,0,1-.23-.24V90.23a.23.23,0,0,1,.23-.24H58a.23.23,0,0,1,.23.24v6.58A.23.23,0,0,1,58,97.05Zm-6.35-.47h6.11V90.46H51.66Z"/><path class="cls-5" d="M71.25,97.05H64.66a.23.23,0,0,1-.23-.24V90.23a.23.23,0,0,1,.23-.24h6.59a.23.23,0,0,1,.23.24v6.58A.23.23,0,0,1,71.25,97.05Zm-6.36-.47H71V90.46H64.89Z"/><path class="cls-5" d="M84.5,97.05H77.92a.24.24,0,0,1-.24-.24V90.23a.24.24,0,0,1,.24-.24H84.5a.24.24,0,0,1,.24.24v6.58A.24.24,0,0,1,84.5,97.05Zm-6.35-.47h6.12V90.46H78.15Z"/><path class="cls-5" d="M31.61,68.59H25a.23.23,0,0,1-.23-.23V61.77a.23.23,0,0,1,.23-.23h6.58a.23.23,0,0,1,.24.23v6.59A.23.23,0,0,1,31.61,68.59Zm-6.35-.46h6.12V62H25.26Z"/><path class="cls-5" d="M44.89,68.59H38.3a.23.23,0,0,1-.23-.23V61.77a.23.23,0,0,1,.23-.23h6.59a.23.23,0,0,1,.23.23v6.59A.23.23,0,0,1,44.89,68.59Zm-6.35-.46h6.11V62H38.54Z"/><path class="cls-5" d="M58,68.59H51.42a.23.23,0,0,1-.23-.23V61.77a.23.23,0,0,1,.23-.23h4.74a.23.23,0,0,1,.24.23.24.24,0,0,1-.24.24h-4.5v6.12h6.11V66A.24.24,0,0,1,58,65.8a.23.23,0,0,1,.23.24v2.32A.23.23,0,0,1,58,68.59Z"/><path class="cls-5" d="M84.44,54.63H77.86a.24.24,0,0,1-.24-.24V50.94a.24.24,0,0,1,.24-.24.23.23,0,0,1,.23.24v3.22h6.12v-4.7a.23.23,0,0,1,.23-.24.24.24,0,0,1,.24.24v4.93A.24.24,0,0,1,84.44,54.63Z"/><path class="cls-5" d="M77.86,49.85a.23.23,0,0,1-.24-.23V47.81a.24.24,0,0,1,.24-.24h6.43a.24.24,0,0,1,.24.24.23.23,0,0,1-.24.23h-6.2v1.58A.23.23,0,0,1,77.86,49.85Z"/><path class="cls-5" d="M84.44,68.59H77.86a.23.23,0,0,1-.24-.23V61.77a.23.23,0,0,1,.24-.23h6.58a.23.23,0,0,1,.24.23v6.59A.23.23,0,0,1,84.44,68.59Zm-6.35-.46h6.12V62H78.09Z"/><path class="cls-5" d="M97.56,68.59H91a.23.23,0,0,1-.24-.23V61.77a.23.23,0,0,1,.24-.23h6.58a.23.23,0,0,1,.24.23v6.59A.23.23,0,0,1,97.56,68.59Zm-6.35-.46h6.12V62H91.21Z"/><path class="cls-5" d="M97.76,54.63H91.17a.23.23,0,0,1-.23-.24V47.81a.23.23,0,0,1,.23-.24h6.59a.23.23,0,0,1,.23.24v6.58A.23.23,0,0,1,97.76,54.63Zm-6.35-.47h6.11V48H91.41Z"/><path class="cls-5" d="M71.32,63.73a.23.23,0,0,1-.23-.23V62H70a.23.23,0,0,1-.23-.24.23.23,0,0,1,.23-.23h1.35a.23.23,0,0,1,.24.23V63.5A.23.23,0,0,1,71.32,63.73Z"/><path class="cls-5" d="M104.12,68a.23.23,0,0,1-.23-.24V61.77a.23.23,0,0,1,.23-.23h4.07a.23.23,0,0,1,.24.23.24.24,0,0,1-.24.24h-3.83v5.71A.24.24,0,0,1,104.12,68Z"/><path class="cls-2" d="M86.1,46.93a.63.63,0,0,0-.88,0L80.45,51.7l-1.92-1.92a.62.62,0,0,0-.87.87L80,53a.62.62,0,0,0,.78.07C80.9,53,86.1,47.8,86.1,47.8A.62.62,0,0,0,86.1,46.93Z"/><path class="cls-2" d="M80.45,53.32a.75.75,0,0,1-.54-.22l-2.35-2.35a.76.76,0,0,1,1.07-1.07l1.82,1.82,4.68-4.67a.77.77,0,0,1,1.07,0,.76.76,0,0,1,0,1.07L81,53.09A.88.88,0,0,1,80.45,53.32Zm-2.36-3.59a.48.48,0,0,0-.34.82l2.36,2.36a.48.48,0,0,0,.6.06C80.81,52.9,86,47.7,86,47.7a.48.48,0,0,0,.14-.34.48.48,0,0,0-.82-.34l-4.77,4.77a21.21,21.21,0,0,1-2.11-1.92A.5.5,0,0,0,78.09,49.73Z"/><path class="cls-5" d="M162.68,124.41H47.76a.24.24,0,0,1-.23-.24.23.23,0,0,1,.23-.23H162.68a.23.23,0,0,1,.24.23A.24.24,0,0,1,162.68,124.41Z"/></svg>