<svg id="Layer_1" data-name="Layer 1" xmlns="http://www.w3.org/2000/svg" viewBox="0 0 100 100"><defs><style>.cls-1{fill:#f9c3dc;}.cls-2{fill:#1a6071;}</style></defs><path class="cls-1" d="M46.3,26.6A23.35,23.35,0,1,1,22.9,50h0A23.49,23.49,0,0,1,46.3,26.6m0-21.5A44.9,44.9,0,1,0,91.1,50,44.9,44.9,0,0,0,46.3,5.1Z"/><path class="cls-2" d="M56.06,30.74a30.64,30.64,0,0,1,14-7.38c8.59-1.74,16.14.38,22,7,6,6.76,7,14.68,4.3,23.15a31.82,31.82,0,0,1-8,12.61C78.1,76.33,67.85,86.5,57.67,96.74c-1.55,1.57-2.75,1.66-4.34.05C43,86.42,32.65,76.15,22.38,65.77c-4.81-4.87-8.22-10.58-9-17.51-1.9-17.13,13.68-29.73,30-24.11C47.71,25.62,51.56,28.34,56.06,30.74ZM56,50.63l-7.91-5.29c-3.23-2.15-3.3-2.63-.73-5.43,1.76-1.91,3.51-3.84,5.29-5.79a27.74,27.74,0,0,0-11.5-6.64c-13-3.56-24.85,6.08-23.88,19.52.5,6.78,4,12.1,8.68,16.77Q40,77.89,54.13,92c.44.43,1,.79,1.33,1.11,10.4-10.32,20.82-20.34,30.79-30.77a31.39,31.39,0,0,0,6.48-10.92A17.48,17.48,0,0,0,88.36,32.2c-5.39-5.39-12-6.63-19.21-4.51-8,2.36-13.13,8.46-18.47,14.6,3.16,2.12,6.18,4.1,9.15,6.15C62,49.92,62,51,59.91,52.64c-1.8,1.41-3.64,2.77-5.59,4.24,1.5,2,2.81,3.9,4.25,5.68,1.18,1.45,1,2.64-.3,3.86s-2.59,2.49-4.2,4c1.61,1.48,3,2.74,4.38,4,1,1,1.57,2.25.25,3.12a3.17,3.17,0,0,1-2.93-.35c-1.85-1.49-3.41-3.34-5.15-5-1.49-1.41-1.35-2.69.13-4s2.87-2.46,4.36-3.72c-1.87-2.5-3.32-4.5-4.83-6.45-1.08-1.39-.93-2.54.48-3.58C52.41,53.35,54.05,52.1,56,50.63Z"/></svg>