<?xml version="1.0" encoding="utf-8"?>
<!-- Generator: Adobe Illustrator 26.0.1, SVG Export Plug-In . SVG Version: 6.00 Build 0)  -->
<svg version="1.1" id="Layer_1" xmlns="http://www.w3.org/2000/svg" xmlns:xlink="http://www.w3.org/1999/xlink" x="0px" y="0px"
	 viewBox="0 0 100 100" style="enable-background:new 0 0 100 100;" xml:space="preserve">
<style type="text/css">
	.st0{fill:none;stroke:#A3C9A8;stroke-width:5;stroke-linecap:round;stroke-miterlimit:10;}
	.st1{fill:#875053;stroke:#875053;stroke-miterlimit:10;}
</style>
<g>
	<g>
		<path class="st0" d="M4.1,61.1c8.4,0.2,8.3,4.2,16.7,4.3c8.4,0.2,8.5-3.8,16.8-3.7c8.4,0.2,8.3,4.2,16.7,4.3
			c8.4,0.2,8.5-3.8,16.8-3.7s8.3,4.2,16.7,4.3"/>
	</g>
	<g>
		<path class="st0" d="M4.1,46.1c8.4,0.2,8.3,4.2,16.7,4.3c8.4,0.2,8.5-3.8,16.8-3.7c8.4,0.2,8.3,4.2,16.7,4.3
			c8.4,0.2,8.5-3.8,16.8-3.7s8.3,4.2,16.7,4.3"/>
	</g>
	<g>
		<path class="st0" d="M4.1,31.1c8.4,0.2,8.3,4.2,16.7,4.3c8.4,0.2,8.5-3.8,16.8-3.7c8.4,0.2,8.3,4.2,16.7,4.3
			c8.4,0.2,8.5-3.8,16.8-3.7s8.3,4.2,16.7,4.3"/>
	</g>
	<g>
		<path class="st0" d="M4.1,16.1c8.4,0.2,8.3,4.2,16.7,4.3c8.4,0.2,8.5-3.8,16.8-3.7c8.4,0.2,8.3,4.2,16.7,4.3
			c8.4,0.2,8.5-3.8,16.8-3.7c8.4,0.2,8.3,4.2,16.7,4.3"/>
	</g>
</g>
<path class="st1" d="M30.5,56.8c0-13.1,0-26.1,0-39.2c0-1.8,0-1.8,1.8-1.9c19.9-0.5,39.8-0.4,59.7,0c1.1,0,1.6,0.3,1.6,1.5
	c0.3,19.1,0.6,38.2,0.3,57.3c-0.1,7.3-0.2,14.6-0.3,22c0,1.1-0.3,1.5-1.5,1.5c-20-0.4-40.1-0.3-60.1,0c-1.3,0-1.5-0.6-1.5-1.7
	C30.6,83.2,30.6,70,30.5,56.8z M93.1,56.9c0-12.9-0.3-25.9-0.4-38.8c0-1.2-0.3-1.5-1.5-1.5c-17.5-0.2-35.1-0.3-52.6-0.1l-6,0.1
	c-0.5,0-1,0.1-1,0.8c0,1.7,0,3.3,0,5c0,0.6,0.5,1.1,1,0.7c0.6-0.3,1.2-0.4,1.9-0.4c18.7,0,37.3,0,55.9,0c0.6,0,1.6-0.4,1.6,0.5
	s-1.1,0.5-1.6,0.5c-18.7,0-37.4,0-56.2,0c-0.3,0-0.6,0-0.9,0c-1.5-0.2-1.7,0-1.7,1.5c-0.2,23.5-0.1,46.9,0,70.4
	c0,1.1,0.3,1.4,1.4,1.4c5-0.1,10.1-0.2,15.1-0.2c14.4-0.1,28.9-0.1,43.3,0.2c0.9,0,1.3-0.1,1.3-1.2C92.8,82.8,93.1,69.9,93.1,56.9z"
	/>
<path class="st1" d="M61.1,88.5c-5.6,0.2-11.2,0.3-16.8,0.5c-1.2,0-1.6-0.3-1.7-1.5c-0.3-2.3-0.3-4.6,0-6.9c0.1-0.9,0.4-1.3,1.4-1.3
	c11.1-0.4,22.2-0.4,33.4-0.1c2,0.1,2.1,0.1,2.2,2.2s0,4.1,0,6.2c0,1.2-0.4,1.5-1.6,1.4C72.3,88.7,66.7,88.5,61.1,88.5z M61,87.9
	c5.5-0.3,11-0.3,16.4,0c0.8,0,1.1-0.2,1.1-1c0-1.8,0-3.6,0-5.4c0-1-0.4-1.3-1.4-1.3c-3.6,0-7.1-0.2-10.7-0.2
	c-7.3-0.1-14.6,0.1-22,0.3c-0.7,0-1,0.3-1,1c-0.2,1.9-0.2,3.8,0,5.6c0.1,0.8,0.4,1,1.2,1C50.1,87.8,55.6,87.9,61,87.9z"/>
<path class="st1" d="M50,69.4c-3.2,0-6.5,0-9.7,0c-0.9,0-1.3-0.2-1.3-1.2c-0.4-4.5-0.4-9.1,0-13.7c0.1-0.9,0.5-1.3,1.4-1.3
	c6.4-0.2,12.9-0.4,19.3-0.1c1.3,0.1,1.8,0.7,1.8,1.9c0,4.3,0.1,8.7-0.2,13c-0.1,1-0.5,1.3-1.5,1.3C56.5,69.3,53.3,69.4,50,69.4
	L50,69.4z M50,68.3L50,68.3c3,0,6,0,9.1,0c0.9,0,1.2-0.2,1.2-1.1c0.3-3.9,0.1-7.9,0.2-11.8c0-0.9-0.4-1-1.2-1.1
	c-6.1-0.4-12.2-0.4-18.2,0c-0.8,0-1.1,0.2-1.2,1.1c-0.3,3.9-0.3,7.9,0,11.8c0,0.9,0.3,1.1,1.2,1.1C44,68.2,47,68.3,50,68.3z"/>
<path class="st1" d="M75.7,70.7c-3.1,0-6.2,0-9.3,0c-0.8,0-1.2-0.2-1.2-1.1c-0.2-5-0.2-10,0-15c0-1,0.5-1.3,1.4-1.3
	c4.2-0.2,8.3-0.2,12.5-0.2c1.6,0,3.2-0.1,4.8-0.2c2-0.1,2.5,0.4,2.6,2.3c0.3,4.6,0.1,9.3-0.1,13.9c-0.1,1.2-0.5,1.6-1.7,1.5
	C81.8,70.6,78.8,70.7,75.7,70.7L75.7,70.7z M75.7,69.7c2.8,0,5.7,0,8.5,0c0.8,0,1.1-0.2,1.1-1c0.3-4.4,0.3-8.8,0.1-13.1
	c-0.1-1.6-0.3-1.8-2-1.6c-1.9,0.2-3.8,0.3-5.8,0.2c-3.5,0-7,0-10.5,0.2c-0.8,0-1.1,0.3-1.2,1.1c-0.1,4.4-0.1,8.8,0,13.1
	c0,0.8,0.3,1,1.1,1C70,69.5,72.9,69.5,75.7,69.7L75.7,69.7z"/>
<path class="st1" d="M46.6,46.1c-2.7,0-5.4,0-8.2,0c-1,0-1.4-0.2-1.5-1.2c-0.4-4.2-0.4-8.4,0-12.6c0.1-0.8,0.4-1.1,1.2-1.1
	c3.7,0,7.5-0.2,11.2-0.2c1.5,0,3-0.1,4.5-0.3c2-0.2,2.9,0.6,2.8,2.7c-0.1,3.7,0.1,7.4-0.1,11c-0.1,1.3-0.4,1.7-1.8,1.7
	C52,46,49.2,46.1,46.6,46.1L46.6,46.1z M46.6,45.1L46.6,45.1c2.6,0,5.2-0.1,7.8,0c0.9,0,1.2-0.2,1.2-1.1c0-3.5,0-7.1,0.1-10.7
	c0-1.5-0.3-1.9-1.8-1.7c-1.6,0.2-3.2,0.2-4.9,0.2c-3.3,0-6.7,0.2-10,0.2c-0.7,0-1.1,0.2-1.2,1c-0.2,3.6-0.2,7.3,0,10.9
	c0.1,0.8,0.3,1,1.1,1C41.5,45,44,45.1,46.6,45.1L46.6,45.1z"/>
<path class="st1" d="M74.4,45.1c-2.9,0-5.9,0-8.8,0c-1.1,0-1.4-0.3-1.5-1.4c-0.3-3.7-0.3-7.3,0-11c0.1-0.8,0.3-1.1,1.2-1.2
	c6.1-0.4,12.2-0.2,18.3,0c0.7-0.1,1.4,0.4,1.5,1.1c0,0.1,0,0.3,0,0.4c-0.2,3.7,0.1,7.4-0.2,11c-0.1,1-0.6,1.1-1.4,1.1
	C80.4,44.8,77.4,44.8,74.4,45.1z M74.4,44.1c2.7-0.3,5.4-0.3,8.1,0c0.8,0.1,1.2-0.1,1.2-1c0-3.2,0.1-6.5,0.2-9.7
	c0-0.7-0.3-0.9-1-0.9c-5.6-0.1-11.2-0.2-16.8,0c-0.7,0-1,0.2-1.1,0.9c-0.2,3.2-0.2,6.5,0,9.7c0,0.8,0.3,1,1.1,1
	C68.9,44.1,71.7,44.1,74.4,44.1L74.4,44.1z"/>
<path class="st1" d="M62,84.8h-3.8c-0.4,0-0.9,0.1-0.9-0.5s0.5-0.5,0.9-0.5h7.8c0.3,0,0.8,0,0.8,0.5s-0.5,0.5-0.9,0.5L62,84.8z"/>
</svg>
