<svg id="Layer_1" data-name="Layer 1" xmlns="http://www.w3.org/2000/svg" viewBox="0 0 100 100"><defs><style>.cls-1{fill:none;stroke:#a3c9a8;stroke-linecap:round;stroke-width:5px;}.cls-1,.cls-2,.cls-3{stroke-miterlimit:10;}.cls-2,.cls-3{fill:#ba727b;stroke:#ba727b;}.cls-2{stroke-width:2px;}.cls-3{stroke-width:0.75px;}</style></defs><path class="cls-1" d="M4.1,61.1c8.4.2,8.3,4.2,16.7,4.3s8.5-3.8,16.8-3.7,8.3,4.2,16.7,4.3,8.5-3.8,16.8-3.7,8.3,4.2,16.7,4.3"/><path class="cls-1" d="M4.1,46.1c8.4.2,8.3,4.2,16.7,4.3s8.5-3.8,16.8-3.7,8.3,4.2,16.7,4.3,8.5-3.8,16.8-3.7,8.3,4.2,16.7,4.3"/><path class="cls-1" d="M4.1,31.1c8.4.2,8.3,4.2,16.7,4.3s8.5-3.8,16.8-3.7,8.3,4.2,16.7,4.3,8.5-3.8,16.8-3.7,8.3,4.2,16.7,4.3"/><path class="cls-1" d="M4.1,16.1c8.4.2,8.3,4.2,16.7,4.3s8.5-3.8,16.8-3.7,8.3,4.2,16.7,4.3,8.5-3.8,16.8-3.7,8.3,4.2,16.7,4.3"/><path class="cls-2" d="M30.54,56.76V17.56c0-1.82,0-1.84,1.81-1.89,19.91-.53,39.81-.43,59.72,0,1.07,0,1.56.28,1.58,1.49.26,19.11.58,38.23.3,57.35-.11,7.32-.23,14.64-.3,22,0,1.12-.31,1.54-1.5,1.52-20-.44-40.08-.34-60.12,0-1.33,0-1.51-.55-1.51-1.65Q30.57,76.57,30.54,56.76Zm62.51.13c0-12.94-.27-25.87-.44-38.8,0-1.17-.34-1.45-1.48-1.47-17.54-.21-35.07-.34-52.61-.06l-6.05.09c-.53,0-1,.06-.95.76v5c0,.65.46,1.09,1,.74a2.87,2.87,0,0,1,1.88-.35H90.31c.58,0,1.64-.38,1.63.49s-1.06.45-1.63.45H34.14a7.06,7.06,0,0,1-.92,0c-1.49-.19-1.66,0-1.68,1.5-.18,23.46-.06,46.92,0,70.37,0,1.09.28,1.42,1.39,1.39q7.56-.19,15.12-.24c14.43-.09,28.86-.13,43.28.22.92,0,1.3-.12,1.31-1.18C92.81,82.84,93.1,69.86,93.05,56.89Z"/><path class="cls-3" d="M61.09,88.47c-5.6.16-11.21.28-16.81.5-1.19,0-1.61-.32-1.74-1.47a29.83,29.83,0,0,1,0-6.94c.1-.88.41-1.29,1.39-1.32,11.12-.39,22.24-.39,33.37-.06,2,.06,2.07.11,2.17,2.17s0,4.11,0,6.17c0,1.16-.45,1.5-1.59,1.44C72.3,88.68,66.7,88.53,61.09,88.47ZM61,87.88a160.79,160.79,0,0,1,16.43,0c.81,0,1.12-.17,1.11-1V81.49c0-1-.42-1.31-1.4-1.32-3.55,0-7.1-.2-10.65-.24-7.32-.08-14.64.07-22,.27-.72,0-1,.27-1,1a26.58,26.58,0,0,0,0,5.64c.09.85.36,1,1.21,1C50.14,87.85,55.57,87.88,61,87.88Z"/><path class="cls-3" d="M50,69.38H40.27c-.86,0-1.28-.24-1.34-1.16a84.19,84.19,0,0,1,0-13.66c.08-.92.46-1.29,1.4-1.32,6.44-.2,12.88-.44,19.32-.06,1.33.08,1.81.71,1.81,1.88,0,4.34.08,8.68-.25,13-.08,1-.46,1.34-1.47,1.32H50Zm0-1.11h9.06c.91,0,1.15-.22,1.22-1.13.33-3.93.14-7.87.22-11.81,0-.94-.44-1-1.19-1.1a135.4,135.4,0,0,0-18.24,0c-.79,0-1.12.25-1.18,1.12a86.05,86.05,0,0,0,0,11.8c0,.86.31,1.07,1.16,1C44,68.23,47,68.27,50,68.27Z"/><path class="cls-3" d="M75.69,70.72H66.36c-.85,0-1.2-.25-1.23-1.09-.18-5-.2-10,0-15,0-1,.49-1.26,1.38-1.3,4.16-.21,8.32-.21,12.48-.16,1.63,0,3.24-.11,4.85-.22,2-.14,2.53.37,2.63,2.32.26,4.64.14,9.28-.06,13.92,0,1.2-.46,1.56-1.65,1.53-3-.08-6,0-9.06,0Zm0-1h8.54c.78,0,1.07-.19,1.12-1a99.19,99.19,0,0,0,.08-13.13c-.11-1.6-.34-1.84-2-1.6a37,37,0,0,1-5.77.22c-3.5,0-7,0-10.51.21-.82,0-1.14.29-1.15,1.14-.1,4.38-.11,8.76,0,13.14,0,.81.31,1,1.11,1a49.4,49.4,0,0,1,8.6,0Z"/><path class="cls-3" d="M46.58,46.12H38.42c-1,0-1.43-.15-1.53-1.22a71.77,71.77,0,0,1,0-12.61c.08-.82.42-1.13,1.24-1.14,3.73,0,7.45-.17,11.18-.19a44.29,44.29,0,0,0,4.46-.26c2-.23,2.88.64,2.82,2.7-.11,3.68.06,7.36-.12,11-.06,1.28-.44,1.74-1.79,1.69-2.71-.11-5.44,0-8.15,0Zm0-1h0c2.58,0,5.17-.06,7.75,0,.94,0,1.22-.22,1.22-1.13,0-3.55,0-7.1.09-10.65,0-1.46-.33-1.87-1.77-1.66A39.6,39.6,0,0,1,49,31.9c-3.33,0-6.66.18-10,.25-.73,0-1.1.2-1.15,1a86.34,86.34,0,0,0,0,10.91c.06.79.31,1,1.11,1h7.57Z"/><path class="cls-3" d="M74.4,45.11H65.59c-1.07,0-1.42-.28-1.5-1.38a77.66,77.66,0,0,1,0-11c.06-.81.34-1.15,1.17-1.2,6.09-.37,12.17-.23,18.26,0A1.3,1.3,0,0,1,85,32.62,1.21,1.21,0,0,1,85,33c-.18,3.67.14,7.36-.24,11-.1,1-.55,1.11-1.39,1.06A42.69,42.69,0,0,0,74.4,45.11Zm0-1a39.55,39.55,0,0,1,8.14,0c.84.07,1.18-.12,1.18-1,0-3.24.08-6.48.15-9.71,0-.72-.31-.89-1-.9-5.6-.09-11.21-.2-16.81,0-.69,0-1,.18-1.09.94a78.81,78.81,0,0,0,0,9.72c0,.76.33,1,1.14,1,2.79-.09,5.55-.06,8.31-.06Z"/><path class="cls-3" d="M62,84.77H58.17c-.39,0-.9.08-.93-.46s.48-.51.87-.51h7.75c.35,0,.78,0,.79.46s-.48.52-.86.52Z"/></svg>