<?xml version="1.0" encoding="utf-8"?>
<!-- Generator: Adobe Illustrator 26.0.1, SVG Export Plug-In . SVG Version: 6.00 Build 0)  -->
<svg version="1.1" id="Layer_1" xmlns="http://www.w3.org/2000/svg" xmlns:xlink="http://www.w3.org/1999/xlink" x="0px" y="0px"
	 viewBox="0 0 736.4 923.6" style="enable-background:new 0 0 736.4 923.6;" xml:space="preserve">
<style type="text/css">
	.st0{fill:#38A9CB;}
	.st1{fill:#0AB3E0;}
</style>
<path class="st0" d="M567.1,474.4c-25,41.4-54.5,80.1-87,116.3c-60.8,67.6-131.8,125.9-202.4,174.8C172.4,838.3,68.1,890.3,0,920.8
	V752.7c4.2-3.5,8.5-7,12.9-10.6c53.3-43.6,96.8-90.9,132.4-139.9C191,539,223.3,473,245.9,407.7v0c55-159,51.9-313.2,41.5-407.7
	h429.4C720.8,21.6,742.8,183.5,567.1,474.4z"/>
<path class="st1" d="M736.5,923.6L736.5,923.6l-370.7,0c-25.5-57.4-55.9-110.3-88.2-158.1c-43-63.7-89.5-118.5-132.4-163.3
	C81.2,535.2,25,490.6,0,471.8V272.5c49.7,17.4,123.9,56.2,231.9,126c4.7,3,9.4,6.1,14,9.2v0c92.5,60.9,169.7,122.6,234.1,183
	C611.4,713.7,689.8,831.1,736.5,923.6z"/>
</svg>
