<svg id="Layer_1" data-name="Layer 1" xmlns="http://www.w3.org/2000/svg" xmlns:xlink="http://www.w3.org/1999/xlink" viewBox="0 0 122.16 147.74"><defs><style>.cls-1,.cls-2{fill:none;}.cls-2{stroke:#9a1d21;}.cls-2,.cls-3{stroke-miterlimit:10;}.cls-3{stroke:#231f20;stroke-width:0.07px;opacity:0.2;fill:url(#Flower);}</style><pattern id="Flower" data-name="Flower" width="464" height="448" patternTransform="translate(48.57 15.24) scale(0.07)" patternUnits="userSpaceOnUse" viewBox="0 0 464 448"><rect class="cls-1" width="464" height="448"/><path class="cls-2" d="M229,481.1s-.07-11-8-10.66-12.12,14.1-6.33,31,24.71,31.27,42.69,23,29-35.06,17.37-51.56S256.62,457,250.79,453.27s-12.29-7.36-15-12.57c-4.89,1.22-10.49,14.68.59,22.36"/><path class="cls-2" d="M283.84,467.13s-9.23-17.49,0-27.65c-5.54.46-20.15,5.45-17.81,23"/><path class="cls-2" d="M484.24,420.88s4-7.36-1.12-17.39-3.23-12.84-3.23-12.84-17.91,11.57-17.3,40.29"/><path class="cls-2" d="M467.2,446s2.65-22.18-22.56-22.29c4.44,5.48,5.33,2.45,6.87,17.62s11.68,18.37,11.68,18.37-9.89,2.27-9.95,10.45"/><path class="cls-2" d="M452.33,446s-8.06-16.64-24.24-17.6c2.8,2.63,2.4,5.32,2.84,12.66s2.61,13.45,11.84,19.25"/><path class="cls-2" d="M437.84,469.34s-5.15-25-26.4-29.72"/><path class="cls-2" d="M413.88,454.05s-4.05-17.11-17.14-15.42c10.84-6.09,19.34-9,34.06-.12"/><path class="cls-2" d="M451.36,404.89s-10.68,12.62-8.68,29.33"/><path class="cls-2" d="M440.21,400.84s-5.49,21.92-3.55,29.66"/><path class="cls-2" d="M458,367s11.65,41.71-11.07,36.91S448.49,366.89,458,367Z"/><path class="cls-2" d="M457.73,400.84s16.87-6.43,13-34.68c-5.17,1.17-10.45,5-11.07,8.75"/><path class="cls-2" d="M451.36,370s.55-8.16-1.06-9.42c-5.07,4-25.53,19.62-12.08,37.15"/><path class="cls-2" d="M469.5,366.5s.27-8.59-1.2-10.09c-2.15,1.37-6.7,1.73-11.49,10.58"/><path class="cls-2" d="M458.54,364.12s1.72-8.35,0-9.67c-2.73.95-11.54,4.74-11.89,9.15"/><path class="cls-2" d="M466.7,357.21s.45-4.87-1.17-6.25c-3.09.9-6,2.61-6.47,4.37"/><path class="cls-2" d="M380.53,412.47s16.17,12.35,19.39,2.69-13-5.41-22.62-1.34a28.19,28.19,0,0,1-20.37.25c3-4.46,13-17,26.5-18.5s29.5,1.53,30.34,17.48-10.56,19.84-18.32,18.86c-9.35-1.17-31.22-8.79-34.28-17.13"/><path class="cls-2" d="M392.06,409.49s8.36,3.85.66,9.13"/><path class="cls-2" d="M412.75,420.88s18.62-1,23.49,4.43"/><path class="cls-2" d="M413.29,409.49s16.52-1.83,23.94,6.18"/><path class="cls-2" d="M330.27,437.72s5.51-9,21.46-9.35,16.67,3.93,24.72,7.1c0,0-12.71,1.49-18.17,8.86s-15.09,8.52-21.86,9.72-11.87,10.66-15,21.89c-8.48,24.15,1.48,67.36,2.54,69.05"/><path class="cls-2" d="M362.54,432.05s-28.24-1.65-40.32,23.55"/><path class="cls-2" d="M318.17,470.12c1.09-.54,12-47.35,33.56-67.68s37.55-25.59,45-18.94,5.13,7.71,21.65,10.46a17.41,17.41,0,0,1,9.7,5.51S429.38,364,394,366.16"/><path class="cls-2" d="M425.26,392.69s-12.51-27.32-45.81-18.85"/><path class="cls-2" d="M358.23,390.65s26.23-30.37,88.42-44.35c12-2.54,37-2.12,41.43,10.91s3.82,16.48,17.16,25.24c4.66,3.89,10.59,14.24,9.74,18.39,2.76-10.69,12.5-57.08-31.35-60.68"/><path class="cls-2" d="M318.17,546.8s4.71,13.42-2.87,16.78-18,7.63-28.34-8.39-1.12-30.56,9.54-30.59,11.5,9.8,9.54,10.64-5.05-1.83-6.73-1.2-9.26,5-2.81,12.76,19.08,5.6,17.12-5.22-16.15-56.73,11.56-107.36"/><path class="cls-2" d="M331.57,426.51s-2.52,9.51-15.43,11.21-21.32-.27-22.17-19.63,17.68-24.4,26.94-22.86,11.79,5.75,10.66,12.2-6.91,7.09-9.35,6.21-2.17-1.33-2.58-4.33-3.5-6.26-8.83,0-6,14.79,7.36,16,28.44-40.32,42.59-44.53"/><path class="cls-2" d="M428.09,348.93s17.41-6.61,14.34-22.58-24.89-11.57-29.68-8.82-15.09,9.81-12,19.91,12.48,6.14,13.79,5.14,3.45-3.95-.43-5.21-1.57-4.1.5-5.5,13.44-4.07,13.5,2.9-8.11,11.46-14.32,13.28-21.48,6.31-31.44,14.78"/><path class="cls-2" d="M438.22,341.76s8.27-5.88,18.59-5.88,36.21-1.59,33.33-24.29"/><path class="cls-2" d="M466.56,290.18s-25.49-16.74-9.48-30.75c9-7.88,17.31,6.77,17.31,6.77"/><path class="cls-2" d="M461,257.1s-.07-11-8-10.66-12.12,14.1-6.33,31,24.71,31.27,42.69,23,29-35.06,17.37-51.56S488.62,233,482.79,229.27s-12.29-7.36-15-12.57c-4.89,1.22-10.49,14.68.59,22.36"/><path class="cls-2" d="M485.91,302.81s-7.85,9.12-14.58,8.78-18.18-1.21-24.68-15.66-14.12-30-23.12-29.73c5.77-2.49,15.85-2.91,20.85,1.92"/><path class="cls-2" d="M433.71,264.39s-.25-19.6-6.72-21c5.54-.7,14.85-.68,19.66,7.27"/><path class="cls-2" d="M467.75,241.1a10.72,10.72,0,0,0-8.69,0c-.91,4.61-1.42,5.18,0,8.79"/><path class="cls-2" d="M481,307.44s1.21,10.5-9.67,12.12-20.8-1.28-30.95-6.06-15.12,1.32-15.12,1.32,4.17-18.57,23.95-13.26"/><path class="cls-2" d="M438,301.14s-7.58-6.92-15.66-5.21c1.84-3.37,9.48-12.5,20.2-7.94"/><path class="cls-2" d="M44.57,460.28s-27.85-.68-23.33-29.34c5.09,4.92,5.09,9.66,18.12,14.67s21.7,16.41,19.1,31.56"/><path class="cls-2" d="M14.68,451.35S2.07,439.2,11.2,412.47"/><path class="cls-2" d="M67,463.51s6.53-26.88,38.74-23.61c-2.1,8.17-6.16,17.81-14.86,23.61"/><path class="cls-2" d="M68.6,446s9.14-18.67,33-17c-2.1,7.47-2.85,9-5.39,10.9"/><path class="cls-2" d="M93.61,428.83S105.29,414.93,120,414c-8.17-2.8-33.14-7.93-45.75,4"/><path class="cls-2" d="M56.29,460.28s1.15-32,45.26-45.12"/><path class="cls-2" d="M61.64,435.47s15.87-15.64,14.47-29.18c-4.67.7-14.67,3-19.82,14.59"/><path class="cls-2" d="M52.07,442.47s16.57-28-11-37.58c2.1,6.07,3.77,15.9-1.27,23.94"/><path class="cls-2" d="M39.36,445.61s2.55-17.85-3.69-24.73a15.16,15.16,0,0,1-3.49-14.59s-21.52,13.63-11.44,44.16"/><path class="cls-2" d="M20.24,420.88s4-7.36-1.12-17.39-3.23-12.84-3.23-12.84S-2,402.22-1.41,430.94"/><path class="cls-2" d="M3.2,446s2.65-22.18-22.56-22.29c4.44,5.48,5.33,2.45,6.87,17.62S-.81,459.67-.81,459.67s-9.89,2.27-9.95,10.45"/><path class="cls-2" d="M-6.27,400.84s16.87-6.43,13-34.68c-5.17,1.17-10.45,5-11.07,8.75"/><path class="cls-2" d="M5.5,366.5s.27-8.59-1.2-10.09C2.15,357.78-2.4,358.14-7.19,367"/><path class="cls-2" d="M2.7,357.21s.45-4.87-1.17-6.25c-3.09.9-6,2.61-6.47,4.37"/><path class="cls-2" d="M-105.77,390.65s26.23-30.37,88.42-44.35c12-2.54,37-2.12,41.43,10.91s3.82,16.48,17.16,25.24c4.66,3.89,10.59,14.24,9.74,18.39,2.76-10.69,12.5-57.08-31.35-60.68"/><path class="cls-2" d="M49.71,383.5s-12.07-41.65-37.28-43.34"/><path class="cls-2" d="M34,343.52s27.7-2.26,62,29.17c4.55,5.78,5,18.81-3.52,19.22S80.34,386.33,83,382s3.07-.25,4.91,0,4.3-.51,3.63-4.55-7.33-8.12-15.36-3.58-7.64,21,4.61,27,20.25,3.18,24.94-2.27S119,368.26,87.48,355.72"/><path class="cls-2" d="M108.54,373.84s31.74,24.6,39.32,57.1-10.42,33-14.21,30.85-8.29-5.21-9-13,8.53-9.39,10.9-2.8c1.42,3.51,7.34,2,5.92-8.25s-14.66-9.21-17.87-6.78-9.13,6.46-8.42,18.54,8,26.75,23.21,26.51,30.07-17.52,12.55-56.35"/><path class="cls-2" d="M158.85,446.9s15.06,43.11,0,80.35c-6.95,11.51-20.27,8.58-21.41-1.57s2.54-12,7.48-11.92-1.77,7.86,3.56,10,8.12-1.78,8.12-8.12S152.54,499.8,143,502s-15.61,5.83-17.89,22.83,14.47,21.37,22,21.12,30.14-9.79,26.62-51.48"/><path class="cls-2" d="M-25.78,341.76s8.27-5.88,18.59-5.88S29,334.29,26.14,311.59"/><path class="cls-2" d="M92.94,354.45s-33.87-22.4-67.6-17"/><path class="cls-2" d="M41.16,298.49s3.57,27.06-12.2,38.14"/><path class="cls-2" d="M29,289.54s.39-34-21.08-22.38c-15.92,8.63,8.8,28.13,10.17,28.77"/><path class="cls-2" d="M11.28,265.63C5.37,252,12.71,247,25.34,251.5s8.69,31,8.69,31"/><path class="cls-2" d="M2.56,290.18s-25.49-16.74-9.48-30.75c9-7.88,17.31,6.77,17.31,6.77"/><path class="cls-2" d="M41.51,263S29,227.43,7.33,236c-6.63,3.38-3.07,13.06,2.81,17.26"/><path class="cls-2" d="M-3,257.1s-.07-11-8-10.66-12.12,14.1-6.33,31,24.71,31.27,42.69,23,29-35.06,17.37-51.56S24.62,233,18.79,229.27s-12.29-7.36-15-12.57c-4.89,1.22-10.49,14.68.59,22.36"/><path class="cls-2" d="M21.91,302.81s-7.85,9.12-14.58,8.78-18.18-1.21-24.68-15.66-14.12-30-23.12-29.73c5.77-2.49,15.85-2.91,20.85,1.92"/><path class="cls-2" d="M3.75,241.1a10.72,10.72,0,0,0-8.69,0c-.91,4.61-1.42,5.18,0,8.79"/><path class="cls-2" d="M30,297.75s12.75,2.66,19.72-3.34,9.75-10.85,7.67-27.24,6.46-26.76,7.61-27c-4.84.24-16.15,1.85-19.15,11.08"/><path class="cls-2" d="M51.84,243.13s-9.23-17.49,0-27.65c-5.54.46-20.15,5.45-17.81,23"/><path class="cls-2" d="M17,307.44s1.21,10.5-9.67,12.12-20.8-1.28-30.95-6.06-15.12,1.32-15.12,1.32,4.17-18.57,24-13.26"/><path class="cls-2" d="M41.51,297.18s-.56,18.1-25.06,15.11"/><path class="cls-2" d="M162.82,424.92S196,480.69,174.12,545"/><path class="cls-2" d="M258.3,287.5s-5.73-6-6-13.13,9.21-17.35,14.64-17.2c.75,4.68-2.41,5.43,5.13,19.92s-5.58,22.93-7.85,23.24-14.18,3.92-23.84-27"/><path class="cls-2" d="M241.7,295.16c-10.86-23.57-25.2-16.11-30.93-11.28,5,.9,10,3.17,14.94,11s12.82,12.23,20.82,11.47,8.94-7.56,8.94-7.56"/><path class="cls-2" d="M230.15,280.7s-5.05-22,6.42-27.75c2.57,4.68,3.32,6,10.11,9.35s6.56,7.33,6.56,7.33"/><path class="cls-2" d="M255.47,265.57s1.56-3.34-8.79-3.27"/><path class="cls-2" d="M271.36,254.56s-5.21-11-21.42-9-16.82,10.06-16.82,10.06"/><path class="cls-2" d="M278.31,280.7s2.31-39.17,44.58-41.19c-7.82,12.74-6.66,15.35-27.5,26.06"/><path class="cls-2" d="M281.82,266.83s5.11-27.61-28.58-27.32"/><path class="cls-2" d="M246.68,246.12s-11-1.69-17.63-13.85c4.39,0,13.22-2.89,17.63-4.92s10.66,0,10.66,0"/><path class="cls-2" d="M276.57,236.28s-27.85-.68-23.33-29.34c5.09,4.92,5.09,9.66,18.12,14.67s21.7,16.41,19.1,31.56"/><path class="cls-2" d="M316.27,250.5s12.12-8.24,32.67-2.45c-7.53,8.39-15.05,10.8-27.21,12.06"/><path class="cls-2" d="M339.4,255.65s16.49-3,32.41,18.45c-8.4-1.16-20.85-3.18-28.08,1.45"/><path class="cls-2" d="M316.27,269.47s20.8-3.87,32.67,11.23c-7.24.64-13.61.06-19.11,2.95"/><path class="cls-2" d="M300.6,277.57s24.31-6.36,34.44,13a89.45,89.45,0,0,1-10.13,0"/><path class="cls-2" d="M264.18,300.33s-.64,4.74,15.28,4.46,46.9-17.66,51.24-15.93c-7.53-2.89-11.87-3.76-16.21-2"/><path class="cls-2" d="M302.62,292.63a17,17,0,0,0,13.65-9,72.09,72.09,0,0,0-13.65,1.16"/><path class="cls-2" d="M287.28,296.68s15.63-5.5,15.34-14.76c-6.66-.29-11.58,1.41-18.23,8.81s-10,8.85-16.72,7.69"/><path class="cls-2" d="M353.86,266.83s-24.6-7.2-49.5,0-20.66,13.64-30,16.82"/><path class="cls-2" d="M221.29,289.29s-1.57,10.62,11.83,13.84"/><path class="cls-2" d="M240.34,306.44s-28.86,6.64-36.1-18.32,8.64-35,8.64-35"/><path class="cls-2" d="M226.16,279.16s2.88-4.08,2.89-6.66"/><path class="cls-2" d="M230.59,260.11l-1.54-5.58s-21.07,4.3-20.61,27.36"/><path class="cls-2" d="M221.24,257.77s-.66-18.65,2.14-22.85c-5.83,2.8-25.91,11.2-29.18,28.71"/><path class="cls-2" d="M197.47,289.29s7.47-29.39-18.9-34.76c3.5,6.77,4.2,14,4.2,24.63s5.37,32.75,39.68,27.28"/><path class="cls-2" d="M235.2,240.13s.1,10.78-8,14.92"/><path class="cls-2" d="M246.68,227.35s-12.61-12.15-3.48-38.88"/><path class="cls-2" d="M299,239.51s6.53-26.88,38.74-23.61c-2.1,8.17-6.16,17.81-14.86,23.61"/><path class="cls-2" d="M300.6,222s9.14-18.67,32.95-17c-2.1,7.47-2.85,9-5.39,10.9"/><path class="cls-2" d="M325.61,204.83S337.29,190.93,352,190c-8.17-2.8-33.14-7.93-45.75,4"/><path class="cls-2" d="M288.29,236.28s1.15-32.05,45.26-45.12"/><path class="cls-2" d="M293.64,211.47s15.87-15.64,14.47-29.18c-4.67.7-14.67,3-19.82,14.59"/><path class="cls-2" d="M284.07,218.47s16.57-28-11-37.58c2.1,6.07,3.77,15.9-1.27,23.94"/><path class="cls-2" d="M271.36,221.61s2.55-17.85-3.69-24.73a15.16,15.16,0,0,1-3.49-14.59s-21.52,13.63-11.44,44.16"/><path class="cls-2" d="M252.24,196.88s4-7.36-1.12-17.39-3.23-12.84-3.23-12.84-17.91,11.57-17.3,40.29"/><path class="cls-2" d="M235.2,222s2.65-22.18-22.56-22.29c4.44,5.48,5.33,2.45,6.87,17.62s11.68,18.37,11.68,18.37-9.89,2.27-9.95,10.45"/><path class="cls-2" d="M220.33,222s-8.06-16.64-24.24-17.6c2.8,2.63,2.4,5.32,2.84,12.66s2.61,13.45,11.84,19.25"/><path class="cls-2" d="M205.84,245.34s-5.15-25-26.4-29.72"/><path class="cls-2" d="M199,241s-8.94-21.49-34.28-6c5.65-.21,9.46.27,13.83,6s4.6,15.69,18.51,14.7"/><path class="cls-2" d="M181.88,230.05s-4-17.11-17.14-15.42c10.84-6.09,19.34-9,34.06-.12"/><path class="cls-2" d="M182.24,247.59s-10.94-6.38-19.68-2.25c2.73,11.16,10.37,20.82,16,23.68"/><path class="cls-2" d="M164.74,251.82s-15.22-4.44-25.67,3.83a41,41,0,0,0,26.77,11.18"/><path class="cls-2" d="M184.85,290.73S165,256.91,133.41,273.64"/><path class="cls-2" d="M147.45,261.74s-20.58-.82-27.72,22.73c6.93-3.25,6.51-5.25,20.42-3.56"/><path class="cls-2" d="M181.77,298.77s-16.44-3-27.46,17c9.34.95,29.26-1.26,38.33-6.31"/><path class="cls-2" d="M175,290.73s-30.62-8.31-37.56,11c16.25,4.43,14.46,8.39,25.16,3.06"/><path class="cls-2" d="M164.74,279.16s-19.29-8.88-32.8,11.17c11.57.63,9.59,3.33,14.19,1.58"/><path class="cls-2" d="M258.44,300.6s8.17,19.84-1.1,35.58-17.09,10.25-24.22,28.5c-3.42-7.85-6-20.11,3.59-28.77"/><path class="cls-2" d="M253.24,303.25a25.19,25.19,0,0,1-4.06,21.31c-7.61,10.34-10.71,14.71-10.09,17.79,4.89-2,16.59-11.87,16.38-16.64"/><path class="cls-2" d="M230.59,355.66s-11.3,7.25-13.35,12.51a23.38,23.38,0,0,1,6.67-25.82"/><path class="cls-2" d="M246.53,306.36s-1.58,14.39-27,28.68-20.62,32.09-19,34c4.63-7.46,6.46-12.56,16.72-17.15"/><path class="cls-2" d="M245.9,308.81s-.19,2.74-13.92,5.81-23.38,2.38-26.14,9.69c7.46-.78,18.33,2.41,24.18-1.51"/><path class="cls-2" d="M212.64,324.34S196.81,329,196.4,337.72c6-1.54,20.21-7.48,21.66-5.08"/><path class="cls-2" d="M199.79,336.71S186.26,345.6,188,353.65c9.64-7.91,19-14,20.48-13"/><path class="cls-2" d="M188,353.65s-3.08,4.2-1.93,6.7c7.21-4.43,11.95-9.73,17.39-11.35"/><path class="cls-2" d="M215.81,307.19S169,321.6,162.56,350.43"/><path class="cls-2" d="M194.6,330.26s-13.08,8.1-12.36,24.41c4.81-4.17,5.63-3.36,5.63-3.36"/><path class="cls-2" d="M189.18,325.8s-20.35,11.7-15.7,31.44c3-4.32,6.84-8.35,8.73-8.24"/><path class="cls-2" d="M172.4,349s-14.92,10.88-14.86,18c-2-7.14-1.79-28.23,7.2-36.75"/><path class="cls-2" d="M181,318.3s-18.56,15.42-31.06,18.41c1.17-7.19,6.06-16.4,13.7-20.87"/><path class="cls-2" d="M219.36,180.89s-10.68,12.62-8.68,29.33"/><path class="cls-2" d="M208.21,176.84s-5.49,21.92-3.55,29.66"/><path class="cls-2" d="M226,143s11.65,41.71-11.07,36.91S216.49,142.89,226,143Z"/><path class="cls-2" d="M225.73,176.84s16.87-6.43,13-34.68c-5.17,1.17-10.45,5-11.07,8.75"/><path class="cls-2" d="M219.36,146s.55-8.16-1.06-9.42c-5.07,4-25.53,19.62-12.08,37.15"/><path class="cls-2" d="M237.5,142.5s.27-8.59-1.2-10.09c-2.15,1.37-6.7,1.73-11.49,10.58"/><path class="cls-2" d="M226.54,140.12s1.72-8.35,0-9.67c-2.73,1-11.54,4.74-11.89,9.15"/><path class="cls-2" d="M234.7,133.21s.45-4.87-1.17-6.25c-3.09.9-6,2.61-6.47,4.37"/><path class="cls-2" d="M148.53,188.47s16.17,12.35,19.39,2.69-13-5.41-22.62-1.34a28.19,28.19,0,0,1-20.37.25c3-4.46,13-17,26.5-18.5s29.5,1.53,30.34,17.48-10.56,19.84-18.32,18.86c-9.35-1.17-31.22-8.79-34.28-17.13"/><path class="cls-2" d="M160.06,185.49s8.36,3.85.66,9.13"/><path class="cls-2" d="M180.75,196.88s18.62-1,23.49,4.43"/><path class="cls-2" d="M181.29,185.49s16.52-1.83,23.94,6.18"/><path class="cls-2" d="M261.46,313.32s31,17.18,31.63,60.22"/><path class="cls-2" d="M261.77,300.6s26.39,21.91,27.67,49.83"/><path class="cls-2" d="M279.46,304.79s15,13.87,18.7,52.26"/><path class="cls-2" d="M285.15,304.12s8.12,11.89,8,26.91"/><path class="cls-2" d="M260.87,327.14s24.78,14,25.12,48"/><path class="cls-2" d="M277.28,405.92s10.23-10.65,10.06-23.84-7.27-21.48-16.4-21.73-17.2,5.21-17.69,14.79,5.08,11.92,9.06,12,6.56-2.64,6.74-4.72-.31-3.43-3.37-3.31-3.18-6.26,3.27-5.61,11.38,12.89,4.48,25.23-16.82,22.63-34.67,24.87"/><path class="cls-2" d="M207.74,427.57c.67,0,27.5,5.95,40.59-12s3.71-31.87,0-34.78-10.31-6.34-18.24,0c-4-2-13.75-4.89-19.17,6.48s3,18.64,9.52,18,6.34-4.1,4.89-4.76-5.29-.53-2.38-5,17.32-3,16.53,8.46S222,420.59,213.69,420.82c-19.09.53-42.17-7.66-60.55-20.75"/><path class="cls-2" d="M176.12,412.86s27.53-.36,29.11-12.4-2-18.9-12-21.68c-1.32-5.68-8.33-17.6-24.46-11.77s-9.39,23.12,0,22.14,2.51-4.82,3-6.8,2.41-10.17,13.07.38-7.22,18.68-20.39,14.19-24.85-13.48-30.09-20.67-13.93-15.88-9.29-24,11.09-15.08,9.29-26.48,12.13-17,12.13-17-18.72-8.65-32.65,6.18c-5.17,5.16-8.39,22.73-8.39,22.73"/><path class="cls-2" d="M138.26,310s-33.4,13.22-25.76,43.61"/><path class="cls-2" d="M124.81,376.25s-27.44-40.9-27.44-71.45c0-10.78,4.8-15.13,9.59-17.82a20.91,20.91,0,0,0,9.29-12.28c1.34-4.65,6.14-12.89,10-13-7.34-.52-23.07-4.72-32.65,9.21s-7.19,13.52-7.19,13.52"/><path class="cls-2" d="M114.15,263.93S88.84,278,87.64,295.37"/><path class="cls-2" d="M98.27,213.72s5.51-9,21.46-9.35,16.67,3.93,24.72,7.1c0,0-12.71,1.49-18.17,8.86s-15.09,8.52-21.86,9.72-11.87,10.66-15,21.89C80.9,276.09,90.86,319.3,91.92,321"/><path class="cls-2" d="M130.54,208.05S102.3,206.4,90.22,231.6"/><path class="cls-2" d="M86.17,246.12c1.09-.54,12-47.35,33.56-67.68s37.55-25.59,45-18.94,5.13,7.71,21.65,10.46a17.41,17.41,0,0,1,9.7,5.51S197.38,140,162,142.16"/><path class="cls-2" d="M193.26,168.69s-12.51-27.32-45.81-18.85"/><path class="cls-2" d="M126.23,166.65s26.23-30.37,88.42-44.35c12-2.54,37-2.12,41.43,10.91s3.82,16.48,17.16,25.24c4.66,3.89,10.59,14.24,9.74,18.39,2.76-10.69,12.5-57.08-31.35-60.68"/><path class="cls-2" d="M281.71,159.5s-12.07-41.65-37.28-43.34"/><path class="cls-2" d="M266,119.52s27.7-2.26,62,29.17c4.55,5.78,5,18.81-3.52,19.22S312.34,162.33,315,158s3.07-.25,4.91,0,4.3-.51,3.63-4.55-7.33-8.12-15.36-3.58-7.64,21,4.61,27,20.25,3.18,24.94-2.27,13.22-30.31-18.27-42.85"/><path class="cls-2" d="M340.54,149.84s31.74,24.6,39.32,57.1-10.42,33-14.21,30.85-8.29-5.21-9-13,8.53-9.39,10.9-2.8c1.42,3.51,7.34,2,5.92-8.25s-14.66-9.21-17.87-6.78-9.13,6.46-8.42,18.54,8.05,26.75,23.21,26.51,30.07-17.52,12.55-56.35"/><path class="cls-2" d="M390.85,222.9s15.06,43.11,0,80.35c-7,11.51-20.27,8.58-21.41-1.57s2.54-12.05,7.48-11.92-1.77,7.86,3.56,10,8.12-1.78,8.12-8.12S384.54,275.8,375,278s-15.61,5.83-17.89,22.83,14.47,21.37,22,21.12,30.14-9.79,26.62-51.48"/><path class="cls-2" d="M389,318.45s-11.23,44-40.09,52.15-24.4-23.94-20.69-28.14,16.72-16.43,23-4.74-9.23,7.61-10.75,9.84-4.86,13,10.75,9.49,17.46-16.29,16.35-24.41-15.78-17.75-32.6-5.5"/><path class="cls-2" d="M339.4,324.8s5.57-8.86,0-18.5-18.49-9.81-26.35,0-1.3,19.22,3.89,19,8.29-4.56,7-6.82-3.88-5.1-.43-5.71,8.55,4.41,4.06,10.71S311,344.35,312,361.28s9.94,23.4,18.57,25,18.31-.35,21.68-1.21"/><path class="cls-2" d="M293.18,302.05s19.71,36.29,5.06,80.66-52.08,56.67-90,49.72"/><path class="cls-2" d="M192.76,423.64s18.47,3.75,18,17.76-9,15.64-14.63,15.15-15.57-5.82-14.26-14.27,9.34-4.1,9.26-.41,7.38,3.69,7.63.25,2.63-10.24-31.69-22.9"/><path class="cls-2" d="M98.73,357.05s-10.12-11.71-11.09-24.41"/><path class="cls-2" d="M86.17,322.8s4.71,13.42-2.87,16.78-18,7.63-28.34-8.39-1.12-30.56,9.54-30.59S76,310.4,74,311.24,69,309.41,67.31,310,58.05,315,64.5,322.8s19.08,5.6,17.12-5.22S65.47,260.85,93.18,210.22"/><path class="cls-2" d="M99.57,202.51S97.05,212,84.14,213.72,62.82,213.45,62,194.09s17.68-24.4,26.94-22.86,11.79,5.75,10.66,12.2-6.91,7.09-9.35,6.21-2.17-1.33-2.58-4.33-3.5-6.26-8.83,0-6,14.79,7.36,16,28.44-40.32,42.59-44.53"/><path class="cls-2" d="M196.09,124.93s17.41-6.61,14.34-22.58-24.89-11.57-29.68-8.82-15.09,9.81-12,19.91,12.48,6.14,13.79,5.14,3.45-4-.43-5.21-1.57-4.1.5-5.5,13.44-4.07,13.5,2.9-8.11,11.46-14.32,13.28-21.48,6.31-31.44,14.78"/><path class="cls-2" d="M206.22,117.76s8.27-5.88,18.59-5.88,36.21-1.59,33.33-24.29"/><path class="cls-2" d="M324.94,130.45s-33.87-22.4-67.6-17"/><path class="cls-2" d="M273.16,74.49s3.57,27.06-12.2,38.14"/><path class="cls-2" d="M261,65.54s.39-34-21.08-22.38c-15.92,8.63,8.8,28.13,10.17,28.77"/><path class="cls-2" d="M243.28,41.63C237.37,28,244.71,23,257.34,27.5s8.69,31,8.69,31"/><path class="cls-2" d="M234.56,66.18s-25.49-16.74-9.48-30.75c9-7.88,17.31,6.77,17.31,6.77"/><path class="cls-2" d="M273.51,39S261,3.43,239.33,12c-6.63,3.38-3.07,13.06,2.81,17.26"/><path class="cls-2" d="M229,33.1s-.07-11-8-10.66-12.12,14.1-6.33,31,24.71,31.27,42.69,23,29-35.06,17.37-51.56S256.62,9,250.79,5.27s-12.29-7.36-15-12.57c-4.89,1.22-10.49,14.68.59,22.36"/><path class="cls-2" d="M253.91,78.81s-7.85,9.12-14.58,8.78-18.18-1.21-24.68-15.66-14.12-30-23.12-29.73c5.77-2.49,15.85-2.91,20.85,1.92"/><path class="cls-2" d="M201.71,40.39s-.25-19.6-6.72-21c5.54-.7,14.85-.68,19.66,7.27"/><path class="cls-2" d="M235.75,17.1a10.72,10.72,0,0,0-8.69,0c-.91,4.61-1.42,5.18,0,8.79"/><path class="cls-2" d="M262,73.75s12.75,2.66,19.72-3.34,9.75-10.85,7.67-27.24,6.46-26.76,7.61-27c-4.84.24-16.15,1.85-19.15,11.08"/><path class="cls-2" d="M283.84,19.13s-9.23-17.49,0-27.65c-5.54.46-20.15,5.45-17.81,23"/><path class="cls-2" d="M249,83.44s1.21,10.5-9.67,12.12-20.8-1.28-31-6.06-15.12,1.32-15.12,1.32,4.17-18.57,24-13.26"/><path class="cls-2" d="M206,77.14s-7.58-6.92-15.66-5.21c1.84-3.37,9.48-12.5,20.2-7.94"/><path class="cls-2" d="M273.51,73.18s-.56,18.1-25.06,15.11"/><path class="cls-2" d="M394.82,200.92S428,256.69,406.12,321"/><path class="cls-2" d="M398.12,344.85a49.93,49.93,0,0,1-16.6,19.83"/><path class="cls-2" d="M473.7,71.16c-10.86-23.57-25.2-16.11-30.93-11.28,5,.9,10,3.17,14.94,11s12.82,12.23,20.82,11.47,8.94-7.56,8.94-7.56"/><path class="cls-2" d="M462.15,56.7s-5-22,6.42-27.75c2.57,4.68,3.32,6,10.11,9.35s6.56,7.33,6.56,7.33"/><path class="cls-2" d="M478.68,22.12s-11-1.69-17.63-13.85c4.39,0,13.22-2.89,17.63-4.92s10.66,0,10.66,0"/><path class="cls-2" d="M453.29,65.29s-1.57,10.62,11.83,13.84"/><path class="cls-2" d="M472.34,82.44s-28.86,6.64-36.1-18.32,8.64-34.95,8.64-34.95"/><path class="cls-2" d="M458.16,55.16s2.88-4.08,2.89-6.66"/><path class="cls-2" d="M462.59,36.11l-1.54-5.58S440,34.83,440.44,57.89"/><path class="cls-2" d="M453.24,33.77s-.66-18.65,2.14-22.85c-5.83,2.8-25.91,11.2-29.18,28.71"/><path class="cls-2" d="M429.47,65.29s7.47-29.39-18.9-34.76c3.5,6.77,4.2,14,4.2,24.63s5.37,32.75,39.68,27.28"/><path class="cls-2" d="M467.2,16.13s.1,10.78-8,14.92"/><path class="cls-2" d="M467.2-2s2.65-22.18-22.56-22.29c4.44,5.48,5.33,2.45,6.87,17.62s11.68,18.37,11.68,18.37-9.89,2.27-9.95,10.45"/><path class="cls-2" d="M452.33-2s-8.06-16.64-24.24-17.6c2.8,2.63,2.4,5.32,2.84,12.66s2.61,13.45,11.84,19.25"/><path class="cls-2" d="M437.84,21.34s-5.15-25-26.4-29.72"/><path class="cls-2" d="M431,17s-8.94-21.49-34.28-6c5.65-.21,9.46.27,13.83,6s4.6,15.69,18.51,14.7"/><path class="cls-2" d="M413.88,6.05s-4.05-17.11-17.14-15.42c10.84-6.09,19.34-9,34.06-.12"/><path class="cls-2" d="M414.24,23.59s-10.94-6.38-19.68-2.25c2.73,11.16,10.37,20.82,16,23.68"/><path class="cls-2" d="M396.74,27.82s-15.22-4.44-25.67,3.83a41,41,0,0,0,26.77,11.18"/><path class="cls-2" d="M416.85,66.73S397,32.91,365.41,49.64"/><path class="cls-2" d="M379.45,37.74s-20.58-.82-27.72,22.73c6.93-3.25,6.51-5.25,20.42-3.56"/><path class="cls-2" d="M413.77,74.77s-16.44-3-27.46,17c9.34,1,29.26-1.26,38.33-6.31"/><path class="cls-2" d="M407,66.73s-30.62-8.31-37.56,11c16.25,4.43,14.46,8.39,25.16,3.06"/><path class="cls-2" d="M396.74,55.16s-19.29-8.88-32.8,11.17c11.57.63,9.59,3.33,14.19,1.58"/><path class="cls-2" d="M490.44,76.6s8.17,19.84-1.1,35.58-17.09,10.25-24.22,28.5c-3.42-7.85-6-20.11,3.59-28.77"/><path class="cls-2" d="M462.59,131.66s-11.3,7.25-13.35,12.51a23.38,23.38,0,0,1,6.67-25.82"/><path class="cls-2" d="M478.53,82.36S477,96.75,451.51,111s-20.62,32.09-19,34.05c4.63-7.46,6.46-12.56,16.72-17.15"/><path class="cls-2" d="M477.9,84.81s-.19,2.74-13.92,5.81S440.6,93,437.84,100.31c7.46-.78,18.33,2.41,24.18-1.51"/><path class="cls-2" d="M444.64,100.34S428.81,105,428.4,113.72c6-1.54,20.21-7.48,21.66-5.08"/><path class="cls-2" d="M431.79,112.71S418.26,121.6,420,129.65c9.64-7.91,19-14,20.48-13"/><path class="cls-2" d="M420,129.65s-3.08,4.2-1.93,6.7c7.21-4.43,12-9.73,17.39-11.35"/><path class="cls-2" d="M447.81,83.19S401,97.6,394.56,126.43"/><path class="cls-2" d="M426.6,106.26s-13.08,8.1-12.36,24.41c4.81-4.17,5.63-3.36,5.63-3.36"/><path class="cls-2" d="M421.18,101.8s-20.35,11.7-15.7,31.44c2.95-4.32,6.84-8.35,8.73-8.24"/><path class="cls-2" d="M404.4,125s-14.92,10.88-14.86,18c-2-7.14-1.79-28.23,7.2-36.75"/><path class="cls-2" d="M413,94.3s-18.56,15.42-31.06,18.41c1.17-7.19,6.06-16.4,13.7-20.87"/><path class="cls-2" d="M439.74,203.57c.67,0,27.5,6,40.59-12s3.71-31.87,0-34.78-10.31-6.34-18.24,0c-4-2-13.75-4.89-19.17,6.48s3,18.64,9.52,18,6.34-4.1,4.89-4.76-5.29-.53-2.38-5,17.32-3,16.53,8.46S454,196.59,445.69,196.82c-19.09.53-42.17-7.66-60.55-20.75"/><path class="cls-2" d="M408.12,188.86s27.53-.36,29.11-12.4-2-18.9-12-21.68c-1.32-5.68-8.33-17.6-24.46-11.77s-9.39,23.12,0,22.14,2.51-4.82,3-6.8,2.41-10.17,13.07.38-7.22,18.68-20.39,14.19-24.85-13.48-30.09-20.67-13.93-15.88-9.29-24,11.09-15.08,9.29-26.48,12.13-17,12.13-17S359.78,76.16,345.85,91c-5.17,5.16-8.39,22.73-8.39,22.73"/><path class="cls-2" d="M370.26,86s-33.4,13.22-25.76,43.61"/><path class="cls-2" d="M356.81,152.25s-27.44-40.9-27.44-71.45c0-10.78,4.8-15.13,9.59-17.82a20.91,20.91,0,0,0,9.29-12.28c1.34-4.65,6.14-12.89,10-13-7.34-.52-23.07-4.72-32.65,9.21s-7.19,13.52-7.19,13.52"/><path class="cls-2" d="M346.15,39.93S320.84,54,319.64,71.37"/><path class="cls-2" d="M330.27-10.28s5.51-9,21.46-9.35,16.67,3.93,24.72,7.1c0,0-12.71,1.49-18.17,8.86s-15.09,8.52-21.86,9.72-11.87,10.66-15,21.89C312.9,52.09,322.86,95.3,323.92,97"/><path class="cls-2" d="M362.54-15.95S334.3-17.6,322.22,7.6"/><path class="cls-2" d="M318.17,22.12c1.09-.54,12-47.35,33.56-67.68s37.55-25.59,45-18.94,5.13,7.71,21.65,10.46a17.41,17.41,0,0,1,9.7,5.51S429.38-84,394-81.84"/><path class="cls-2" d="M525.18,78.05s19.71,36.29,5.06,80.66-52.08,56.67-90,49.72"/><path class="cls-2" d="M424.76,199.64s18.47,3.75,18,17.76-9,15.64-14.63,15.15-15.57-5.82-14.26-14.27,9.34-4.1,9.26-.41,7.38,3.69,7.63.25,2.63-10.24-31.69-22.9"/><path class="cls-2" d="M330.73,133.05s-10.12-11.71-11.09-24.41"/><path class="cls-2" d="M318.17,98.8s4.71,13.42-2.87,16.78-18,7.63-28.34-8.39-1.12-30.56,9.54-30.59S308,86.4,306,87.24,301,85.41,299.31,86,290.05,91,296.5,98.8s19.08,5.6,17.12-5.22S297.47,36.85,325.18-13.78"/><path class="cls-2" d="M26.3,63.5s-5.73-6-6-13.13S29.47,33,34.9,33.17c.75,4.68-2.41,5.43,5.13,19.92S34.45,76,32.18,76.33,18,80.25,8.34,49.32"/><path class="cls-2" d="M9.7,71.16C-1.16,47.59-15.5,55.05-21.23,59.88c5,.9,10,3.17,14.94,11S6.53,83.12,14.53,82.36s8.94-7.56,8.94-7.56"/><path class="cls-2" d="M-1.85,56.7S-6.9,34.68,4.57,29c2.57,4.68,3.32,6,10.11,9.35s6.56,7.33,6.56,7.33"/><path class="cls-2" d="M23.47,41.57S25,38.23,14.68,38.3"/><path class="cls-2" d="M39.36,30.56s-5.21-11-21.42-9S1.12,31.65,1.12,31.65"/><path class="cls-2" d="M46.31,56.7s2.31-39.17,44.58-41.19c-7.82,12.74-6.66,15.35-27.5,26.06"/><path class="cls-2" d="M49.82,42.83s5.11-27.61-28.58-27.32"/><path class="cls-2" d="M14.68,22.12S3.66,20.43-2.95,8.27c4.39,0,13.22-2.89,17.63-4.92s10.66,0,10.66,0"/><path class="cls-2" d="M44.57,12.28S16.72,11.6,21.24-17.06c5.09,4.92,5.09,9.66,18.12,14.67S61.06,14,58.46,29.17"/><path class="cls-2" d="M84.27,26.5s12.12-8.24,32.67-2.45c-7.53,8.39-15,10.8-27.21,12.06"/><path class="cls-2" d="M107.4,31.65s16.49-3,32.41,18.45c-8.4-1.16-20.85-3.18-28.08,1.45"/><path class="cls-2" d="M84.27,45.47s20.8-3.87,32.67,11.23c-7.24.64-13.61.06-19.11,2.95"/><path class="cls-2" d="M68.6,53.57s24.31-6.36,34.44,13a89.45,89.45,0,0,1-10.13,0"/><path class="cls-2" d="M32.18,76.33s-.64,4.74,15.28,4.46S94.36,63.13,98.7,64.86c-7.53-2.89-11.87-3.76-16.21-2"/><path class="cls-2" d="M70.62,68.63a17,17,0,0,0,13.65-9,72.09,72.09,0,0,0-13.65,1.16"/><path class="cls-2" d="M55.28,72.68s15.63-5.5,15.34-14.76C64,57.63,59,59.33,52.39,66.73s-10,8.85-16.72,7.69"/><path class="cls-2" d="M121.86,42.83s-24.6-7.2-49.5,0-20.66,13.64-30,16.82"/><path class="cls-2" d="M-10.71,65.29S-12.28,75.91,1.12,79.13"/><path class="cls-2" d="M8.34,82.44s-28.86,6.64-36.1-18.32,8.64-34.95,8.64-34.95"/><path class="cls-2" d="M3.2,16.13s.1,10.78-8,14.92"/><path class="cls-2" d="M14.68,3.35S2.07-8.8,11.2-35.53"/><path class="cls-2" d="M67,15.51S73.54-11.37,105.75-8.1C103.65.07,99.59,9.71,90.89,15.51"/><path class="cls-2" d="M56.29,12.28s1.15-32,45.26-45.12"/><path class="cls-2" d="M39.36-2.39s2.55-17.85-3.69-24.73a15.16,15.16,0,0,1-3.49-14.59S10.66-28.08,20.74,2.45"/><path class="cls-2" d="M3.2-2S5.85-24.21-19.36-24.32c4.44,5.48,5.33,2.45,6.87,17.62S-.81,11.67-.81,11.67s-9.89,2.27-9.95,10.45"/><path class="cls-2" d="M26.44,76.6s8.17,19.84-1.1,35.58S8.25,122.43,1.12,140.68c-3.42-7.85-6-20.11,3.59-28.77"/><path class="cls-2" d="M21.24,79.25a25.19,25.19,0,0,1-4.06,21.31C9.57,110.9,6.47,115.27,7.09,118.35c4.89-2,16.59-11.87,16.38-16.64"/><path class="cls-2" d="M14.53,82.36S13,96.75-12.49,111s-20.62,32.09-19,34.05c4.63-7.46,6.46-12.56,16.72-17.15"/><path class="cls-2" d="M13.9,84.81S13.71,87.55,0,90.62-23.4,93-26.16,100.31C-18.7,99.53-7.83,102.72-2,98.8"/><path class="cls-2" d="M29.46,89.32s30.95,17.18,31.63,60.22"/><path class="cls-2" d="M29.77,76.6s26.39,21.91,27.67,49.83"/><path class="cls-2" d="M47.46,80.79s15,13.87,18.7,52.26"/><path class="cls-2" d="M53.15,80.12S61.27,92,61.18,107"/><path class="cls-2" d="M28.87,103.14s24.78,14,25.12,48"/><path class="cls-2" d="M45.28,181.92s10.23-10.65,10.06-23.84-7.27-21.48-16.4-21.73-17.2,5.21-17.69,14.79,5.08,11.92,9.06,12,6.56-2.64,6.74-4.72-.31-3.43-3.37-3.31-3.18-6.26,3.27-5.61,11.38,12.89,4.48,25.23S24.61,197.4,6.76,199.64"/><path class="cls-2" d="M-24.26,203.57c.67,0,27.5,6,40.59-12s3.71-31.87,0-34.78-10.31-6.34-18.24,0c-4-2-13.75-4.89-19.17,6.48s3,18.64,9.52,18,6.34-4.1,4.89-4.76-5.29-.53-2.38-5,17.32-3,16.53,8.46S-10,196.59-18.31,196.82c-19.09.53-42.17-7.66-60.55-20.75"/><path class="cls-2" d="M108.54-74.16s31.74,24.6,39.32,57.1-10.42,33-14.21,30.85-8.29-5.21-9-13,8.53-9.39,10.9-2.8c1.42,3.51,7.34,2,5.92-8.25s-14.66-9.21-17.87-6.78-9.13,6.46-8.42,18.54,8,26.75,23.21,26.51,30.07-17.52,12.55-56.35"/><path class="cls-2" d="M158.85-1.1s15.06,43.11,0,80.35c-6.95,11.51-20.27,8.58-21.41-1.57s2.54-12.05,7.48-11.92-1.77,7.86,3.56,10,8.12-1.78,8.12-8.12S152.54,51.8,143,54s-15.61,5.83-17.89,22.83,14.47,21.37,22,21.12,30.14-9.79,26.62-51.48"/><path class="cls-2" d="M157,94.45s-11.23,44-40.09,52.15-24.4-23.94-20.69-28.14,16.72-16.43,23-4.74-9.23,7.61-10.75,9.84-4.86,13,10.75,9.49,17.46-16.29,16.35-24.41-15.78-17.75-32.6-5.5"/><path class="cls-2" d="M107.4,100.8s5.57-8.86,0-18.5-18.49-9.81-26.35,0-1.3,19.22,3.89,19,8.29-4.56,7-6.82-3.88-5.1-.43-5.71,8.55,4.41,4.06,10.71S79,120.35,80,137.28s9.94,23.4,18.57,25,18.31-.35,21.68-1.21"/><path class="cls-2" d="M61.18,78.05s19.71,36.29,5.06,80.66-52.08,56.67-90,49.72"/><path class="cls-2" d="M162.82-23.08S196,32.69,174.12,97"/><path class="cls-2" d="M166.12,120.85a49.93,49.93,0,0,1-16.6,19.83"/><path class="cls-2" d="M192.76-24.36s18.47,3.75,18,17.76S201.81,9,196.15,8.55,180.58,2.73,181.89-5.72s9.34-4.1,9.26-.41,7.38,3.69,7.63.25,2.63-10.24-31.69-22.9"/></pattern></defs><rect class="cls-3" width="121.86" height="147.74"/></svg>