<?xml version="1.0" encoding="utf-8"?>
<!-- Generator: Adobe Illustrator 26.0.1, SVG Export Plug-In . SVG Version: 6.00 Build 0)  -->
<svg version="1.1" id="Layer_1" xmlns="http://www.w3.org/2000/svg" xmlns:xlink="http://www.w3.org/1999/xlink" x="0px" y="0px"
	 viewBox="0 0 573.4 923.6" style="enable-background:new 0 0 573.4 923.6;" xml:space="preserve">
<style type="text/css">
	.st0{fill:#38A9CB;}
	.st1{fill:#0AB3E0;}
</style>
<path class="st0" d="M573.4,649.1v244.1C557,879.5,539,864,519.9,846.8c-50.3-45.2-108.3-102.3-163.7-168.5
	C273.6,580,196.7,461.7,159,332.9C116.8,189.2,105.5,79.5,106.7,0h424.7c-45.2,140.7-84.9,368.3,16.3,596.7
	C555.4,614.2,564,631.6,573.4,649.1z"/>
<path class="st1" d="M449.7,923.6c23.4-29.2,46.9-54.6,70.2-76.8c18-17.2,36-32.3,53.5-45.8v-152v-61.4c-8.7,3-17.3,6-25.7,9
	c-70.7,25.4-134.3,52.9-191.5,81.6C197.2,758.2,87.9,847.1,14.5,923.6H449.7z"/>
</svg>
