<?xml version="1.0" encoding="utf-8"?>
<!-- Generator: Adobe Illustrator 26.0.1, SVG Export Plug-In . SVG Version: 6.00 Build 0)  -->
<svg version="1.1" id="Layer_1" xmlns="http://www.w3.org/2000/svg" xmlns:xlink="http://www.w3.org/1999/xlink" x="0px" y="0px"
	 viewBox="0 0 43.3 43.2" style="enable-background:new 0 0 43.3 43.2;" xml:space="preserve">
<style type="text/css">
	.st0{fill:#FC0053;stroke:#FC0053;stroke-width:0.72;stroke-miterlimit:10;}
	.st1{fill:none;stroke:#313159;stroke-width:1.08;stroke-miterlimit:10;}
	.st2{fill:none;stroke:#FC0053;stroke-width:1.0432;stroke-miterlimit:10;}
</style>
<g id="Layer_3">
	<g id="PDF_Doc">
		<g id="PDF_Doc-2">
			<g id="Group_48">
				<rect id="Rectangle_38" x="9.2" y="16.2" class="st0" width="2.1" height="2.2"/>
				<rect id="Rectangle_39" x="9.2" y="20.5" class="st0" width="2.1" height="2.2"/>
				<rect id="Rectangle_40" x="9.2" y="25.4" class="st0" width="2.1" height="2.2"/>
				<rect id="Rectangle_41" x="9.2" y="30.2" class="st0" width="2.1" height="2.2"/>
				<path id="Path_92" class="st1" d="M33.4,18.9v21.2H4.9v-37h28.5v5.4"/>
				<line id="Line_55" class="st1" x1="12.9" y1="17.3" x2="24.2" y2="17.3"/>
				<line id="Line_56" class="st1" x1="13" y1="21.6" x2="28.3" y2="21.6"/>
				<line id="Line_57" class="st1" x1="12.9" y1="26.6" x2="28.2" y2="26.6"/>
				<line id="Line_58" class="st1" x1="12.9" y1="31.3" x2="28.2" y2="31.3"/>
				
					<ellipse id="Ellipse_25" transform="matrix(1 -4.663470e-03 4.663470e-03 1 -6.317779e-02 0.1559)" class="st2" cx="33.4" cy="13.6" rx="5.1" ry="5"/>
				<path id="Path_93" class="st2" d="M30.8,13.6l2,2.1l3.2-3.5"/>
			</g>
		</g>
	</g>
</g>
</svg>
