<svg id="Layer_1" data-name="Layer 1" xmlns="http://www.w3.org/2000/svg" viewBox="0 0 97.45 97.1"><defs><style>.cls-1{fill:#f9c3dc;}.cls-2{fill:#1a6071;}</style></defs><path class="cls-1" d="M45.65,22.41A23.35,23.35,0,1,1,22.3,45.76h0A23.38,23.38,0,0,1,45.65,22.41M45.65.9A44.86,44.86,0,1,0,90.5,45.77h0A44.85,44.85,0,0,0,45.65.9Z" transform="translate(-0.78 -0.9)"/><path class="cls-2" d="M62.82,98a40.59,40.59,0,0,1-28.66-14,4,4,0,0,1-.88-4.78A18.76,18.76,0,0,1,50.67,67.07c9.82,0,19.88-.2,29.83,0A18.39,18.39,0,0,1,97.73,78.89,4.16,4.16,0,0,1,96.84,84,43.51,43.51,0,0,1,62.82,98Z" transform="translate(-0.78 -0.9)"/><path class="cls-2" d="M47.29,43.79a18.34,18.34,0,1,1,0,.19Z" transform="translate(-0.78 -0.9)"/></svg>