<svg id="Layer_1" data-name="Layer 1" xmlns="http://www.w3.org/2000/svg" viewBox="0 0 97.45 97.1"><defs><style>.cls-1{fill:#f9c3dc;}.cls-2{fill:#51a0a8;}</style></defs><path class="cls-1" d="M44.87,21.51A23.35,23.35,0,1,1,21.52,44.86h0A23.38,23.38,0,0,1,44.87,21.51M44.87,0A44.86,44.86,0,1,0,89.72,44.87h0A44.85,44.85,0,0,0,44.89,0Z"/><path class="cls-2" d="M62,97.1a40.6,40.6,0,0,1-28.66-14,4,4,0,0,1-.88-4.78A18.77,18.77,0,0,1,49.89,66.17c9.82,0,19.88-.2,29.83,0A18.39,18.39,0,0,1,97,78a4.17,4.17,0,0,1-.89,5.11A43.51,43.51,0,0,1,62,97.1Z"/><path class="cls-2" d="M46.51,42.89a18.34,18.34,0,1,1,0,.19Z"/></svg>