<?xml version="1.0" encoding="utf-8"?>
<!-- Generator: Adobe Illustrator 26.0.1, SVG Export Plug-In . SVG Version: 6.00 Build 0)  -->
<svg version="1.1" id="Layer_1" xmlns="http://www.w3.org/2000/svg" xmlns:xlink="http://www.w3.org/1999/xlink" x="0px" y="0px"
	 viewBox="0 0 100 100" style="enable-background:new 0 0 100 100;" xml:space="preserve">
<style type="text/css">
	.st0{fill:#F9C3DC;}
	.st1{fill:#1A6071;}
</style>
<path class="st0" d="M50,24.7c12.9,0,23.3,10.5,23.3,23.4S62.9,71.4,50,71.4S26.6,61,26.6,48.1l0,0C26.7,35.2,37.1,24.8,50,24.7
	 M50,3.2C25.2,3.2,5.1,23.3,5.1,48.1S25.2,92.9,50,92.9s44.9-20.1,44.9-44.8c0,0,0,0,0,0C94.9,23.3,74.8,3.2,50,3.2
	C50,3.2,50,3.2,50,3.2z"/>
<path class="st1" d="M71.9,86.8c0,5.5-4.5,9.9-10,9.9c-5.5,0-9.9-4.5-9.9-10c0-5.5,4.5-9.9,10-9.9S71.9,81.3,71.9,86.8L71.9,86.8z"
	/>
<path class="st1" d="M62.2,15.4h3.4c1.7,0,1.7,1.2,1.7,1.6c0,13.8,0,28.3,0,43.1c0,0.9-0.6,1.6-1.5,1.6c-0.1,0-0.2,0-0.2,0
	c-1.1,0-2.2,0-3.3,0h-3.7c-1.6,0-2.1-0.5-2.1-2c0-4.9,0-9.9,0-14.8V43l0,0v-4.4c0-2.1,0-4.2,0-6.3c0-4.9,0-9.9,0-14.9
	c0-1.6,0.3-2,2.1-2C59.8,15.4,61,15.4,62.2,15.4 M62.2,11c-1.2,0-2.5,0-3.7,0c-4.1,0.1-6.5,2.4-6.5,6.5c0,7,0,14.1,0,21.1l0,0
	c0,7,0,14.1,0,21.1c0,4,2.5,6.4,6.5,6.5h3.8c1.1,0,2.3,0,3.4,0c3.3,0.1,6-2.6,6.1-5.9c0-0.1,0-0.1,0-0.2c0-14.4,0-28.7,0-43.1
	c0.1-3.2-2.5-5.9-5.7-6c-0.1,0-0.2,0-0.4,0C64.6,11.1,63.4,11.1,62.2,11L62.2,11z"/>
</svg>
