<svg id="Layer_1" data-name="Layer 1" xmlns="http://www.w3.org/2000/svg" viewBox="0 0 100 100"><defs><style>.cls-1{fill:#f9c3dc;}.cls-2{fill:#51a0a8;}</style></defs><path class="cls-1" d="M46.3,26.6A23.35,23.35,0,1,1,22.9,50h0A23.49,23.49,0,0,1,46.3,26.6m0-21.5A44.9,44.9,0,1,0,91.1,50,44.9,44.9,0,0,0,46.3,5.1Z"/><path class="cls-2" d="M73.67,14a28.29,28.29,0,0,1,17,6.47c8.24,6.81,11.1,20,1.4,29.68C88.5,53.69,84.79,57,81.08,60.32a15.58,15.58,0,0,0-5.28,9.51,15.79,15.79,0,0,1-.65,2.63c-1.08,3.08-3.74,4.48-7.43,4a6.49,6.49,0,0,1-5.5-6.31A20.16,20.16,0,0,1,69,53.37c3.48-3.23,7-6.37,10.42-9.7,4.1-4.05,4.53-9.47,1.24-13.61-2.72-3.4-6.45-4.54-10.61-4.34a11.83,11.83,0,0,0-7.46,2.47,17.59,17.59,0,0,0-4.45,6.69c-.82,1.86-1.51,3.77-2.34,5.62A6.58,6.58,0,0,1,48.2,44a7.16,7.16,0,0,1-5.73-7.13,21.47,21.47,0,0,1,7-14.7C55.45,16.42,62.75,14,73.67,14Z"/><path class="cls-2" d="M69.48,98.22c-4.9-.07-8.34-3.49-8.31-8.28a8.39,8.39,0,0,1,16.77.13A8.1,8.1,0,0,1,69.48,98.22Z"/></svg>