<?xml version="1.0" encoding="utf-8"?>
<!-- Generator: Adobe Illustrator 26.0.1, SVG Export Plug-In . SVG Version: 6.00 Build 0)  -->
<svg version="1.1" id="Layer_1" xmlns="http://www.w3.org/2000/svg" xmlns:xlink="http://www.w3.org/1999/xlink" x="0px" y="0px"
	 viewBox="0 0 100 100" style="enable-background:new 0 0 100 100;" xml:space="preserve">
<style type="text/css">
	.st0{fill:none;stroke:#A3C9A8;stroke-width:5;stroke-linecap:round;stroke-miterlimit:10;}
	.st1{fill:#BA727B;}
</style>
<g>
	<g>
		<path class="st0" d="M4.1,61.1c8.4,0.2,8.3,4.2,16.7,4.3c8.4,0.2,8.5-3.8,16.8-3.7c8.4,0.2,8.3,4.2,16.7,4.3
			c8.4,0.2,8.5-3.8,16.8-3.7s8.3,4.2,16.7,4.3"/>
	</g>
	<g>
		<path class="st0" d="M4.1,46.1c8.4,0.2,8.3,4.2,16.7,4.3c8.4,0.2,8.5-3.8,16.8-3.7c8.4,0.2,8.3,4.2,16.7,4.3
			c8.4,0.2,8.5-3.8,16.8-3.7s8.3,4.2,16.7,4.3"/>
	</g>
	<g>
		<path class="st0" d="M4.1,31.1c8.4,0.2,8.3,4.2,16.7,4.3c8.4,0.2,8.5-3.8,16.8-3.7c8.4,0.2,8.3,4.2,16.7,4.3
			c8.4,0.2,8.5-3.8,16.8-3.7s8.3,4.2,16.7,4.3"/>
	</g>
	<g>
		<path class="st0" d="M4.1,16.1c8.4,0.2,8.3,4.2,16.7,4.3c8.4,0.2,8.5-3.8,16.8-3.7c8.4,0.2,8.3,4.2,16.7,4.3
			c8.4,0.2,8.5-3.8,16.8-3.7c8.4,0.2,8.3,4.2,16.7,4.3"/>
	</g>
</g>
<g>
	<path class="st1" d="M73.7,14c6.2,0.2,12.2,2.5,17,6.5c8.2,6.8,11.1,20,1.4,29.7c-3.6,3.5-7.3,6.8-11,10.2
		c-2.8,2.4-4.7,5.8-5.3,9.5c-0.1,0.9-0.4,1.8-0.7,2.6c-1.1,3.1-3.7,4.5-7.4,4c-3.1-0.5-5.4-3.1-5.5-6.3c-0.5-6.4,2-12.6,6.8-16.8
		c3.5-3.2,7-6.4,10.4-9.7c4.1-4,4.5-9.5,1.2-13.6c-2.7-3.4-6.4-4.5-10.6-4.3c-2.7-0.1-5.3,0.8-7.5,2.5c-2,1.9-3.5,4.1-4.5,6.7
		c-0.8,1.9-1.5,3.8-2.3,5.6c-1.4,2.8-4.6,4.3-7.6,3.5c-3.4-0.7-5.8-3.7-5.7-7.1c0.3-5.6,2.8-10.9,7-14.7C55.5,16.4,62.8,14,73.7,14z
		"/>
	<path class="st1" d="M69.5,98.2c-4.9-0.1-8.3-3.5-8.3-8.3c0.2-4.6,4.1-8.2,8.7-8c4.4,0.2,7.9,3.8,8,8.2c0,4.5-3.6,8.1-8,8.2
		C69.8,98.2,69.6,98.2,69.5,98.2z"/>
</g>
</svg>
