<svg id="Layer_1" data-name="Layer 1" xmlns="http://www.w3.org/2000/svg" viewBox="0 0 1094 445"><defs><style>.cls-1,.cls-7{fill:none;stroke-miterlimit:10;stroke-width:5px;}.cls-1{stroke:#00b2ac;stroke-dasharray:20 20;}.cls-2{fill:#fff;}.cls-3{fill:#a3c9a8;}.cls-4{fill:#2e86ab;}.cls-5{isolation:isolate;}.cls-6{fill:#875053;}.cls-7{stroke:#2e86ab;}</style></defs><path class="cls-1" d="M178.8,209.2s55.4,114.8,106.6,130S480.5,205,549.7,217.4s205,106.3,263,95.3,162.8-109.2,187.9-129.9"/><circle class="cls-2" cx="131.3" cy="140.4" r="77.9"/><path class="cls-3" d="M131.3,73.2a67.2,67.2,0,1,1-67.2,67.2,67.22,67.22,0,0,1,67.2-67.2h0m0-21.5A88.65,88.65,0,1,0,220,140.3a88.68,88.68,0,0,0-88.7-88.6Z"/><circle class="cls-2" cx="547.01" cy="200.6" r="77.9" transform="translate(18.37 445.55) rotate(-45)"/><path class="cls-3" d="M547,133.4a67.2,67.2,0,1,1-67.2,67.2h0A67.28,67.28,0,0,1,547,133.4m0-21.5a88.7,88.7,0,1,0,88.7,88.7h0A88.68,88.68,0,0,0,547,111.9Z"/><circle class="cls-2" cx="802.4" cy="304.1" r="77.9"/><path class="cls-3" d="M802.4,237a67.2,67.2,0,1,1-67.2,67.2h0A67.28,67.28,0,0,1,802.4,237m0-21.5a88.7,88.7,0,1,0,88.7,88.7h0a88.68,88.68,0,0,0-88.7-88.7Z"/><circle class="cls-2" cx="990.3" cy="153.3" r="77.9" transform="translate(181.65 745.15) rotate(-45)"/><path class="cls-3" d="M990.3,86.1a67.2,67.2,0,1,1-67.2,67.2h0a67.35,67.35,0,0,1,67.2-67.2m0-21.5a88.7,88.7,0,1,0,88.7,88.7,88.68,88.68,0,0,0-88.7-88.7Z"/><path class="cls-4" d="M25.5,23.5c0-13.9,7.7-21.7,18-21.7s18,7.9,18,21.7-7.6,21.7-18,21.7S25.5,37.4,25.5,23.5Zm26.2,0C51.7,14,48.3,10,43.5,10s-8.2,4-8.2,13.5S38.7,37,43.5,37,51.7,33.1,51.7,23.5Z"/><path class="cls-4" d="M82.1,2.5v42H72.4V10.3H64V2.5Z"/><g class="cls-5"><path d="M26.8,87.5a.85.85,0,0,1-.2-.6V63.3a1.42,1.42,0,0,1,.2-.6c.1-.2.3-.2.6-.2h14a.71.71,0,0,1,.8.8v.5a1.42,1.42,0,0,1-.2.6,1.42,1.42,0,0,1-.6.2H28.8v9.2H40.6a.71.71,0,0,1,.8.8v.5a1.42,1.42,0,0,1-.2.6.86.86,0,0,1-.6.3H28.8v9.5H41.7a.71.71,0,0,1,.8.8v.5a1.42,1.42,0,0,1-.2.6,1.42,1.42,0,0,1-.6.2H27.3A.44.44,0,0,1,26.8,87.5Z"/><path d="M48.1,87.5c-.2-.1-.2-.3-.2-.6V63.3a.85.85,0,0,1,.2-.6,1.42,1.42,0,0,1,.6-.2h.9a.89.89,0,0,1,.8.5l8.2,15.9L66.7,63a.89.89,0,0,1,.8-.5h.9a.71.71,0,0,1,.8.8V86.9a.71.71,0,0,1-.8.8h-.6a1.42,1.42,0,0,1-.6-.2.85.85,0,0,1-.2-.6V67.4L60,81a1.08,1.08,0,0,1-1.1.7h-.8A1.08,1.08,0,0,1,57,81L50.1,67.5V87a1.42,1.42,0,0,1-.2.6.85.85,0,0,1-.6.2h-.6A1.63,1.63,0,0,1,48.1,87.5Z"/></g><g class="cls-5"><path d="M76.1,87.5a.85.85,0,0,1-.2-.6V63.3a1.42,1.42,0,0,1,.2-.6c.1-.2.3-.2.6-.2h8.7a8.92,8.92,0,0,1,6.1,1.9,6.81,6.81,0,0,1,2.2,5.5,6.81,6.81,0,0,1-2.2,5.5,8.92,8.92,0,0,1-6.1,1.9H78.1v9.5a.71.71,0,0,1-.8.8h-.6A.66.66,0,0,1,76.1,87.5Zm9.2-12.2A7.21,7.21,0,0,0,89.9,74a5.82,5.82,0,0,0,0-7.8,6.83,6.83,0,0,0-4.6-1.3H78.2V75.5h7.1Z"/></g><g class="cls-5"><path d="M94.9,87.5a.76.76,0,0,1-.2-.5l.1-.4,9.1-23.4a1,1,0,0,1,1-.7h1.2a.9.9,0,0,1,1,.7l9.1,23.4.1.4a.68.68,0,0,1-.7.7h-.7a.76.76,0,0,1-.5-.2,1.38,1.38,0,0,1-.3-.4l-2.2-5.8H99.1l-2.2,5.8c0,.1-.1.2-.3.4a.76.76,0,0,1-.5.2h-.7A.76.76,0,0,1,94.9,87.5ZM111,79.3l-5.5-14.2L100,79.3Z"/></g><g class="cls-5"><path d="M123.6,87.5a.85.85,0,0,1-.2-.6V64.7h-7.1a1.42,1.42,0,0,1-.6-.2.85.85,0,0,1-.2-.6v-.5a1.42,1.42,0,0,1,.2-.6c.1-.2.3-.2.6-.2h16.5a.71.71,0,0,1,.8.8v.5a.71.71,0,0,1-.8.8h-7.1V86.9a.71.71,0,0,1-.8.8h-.6A1.45,1.45,0,0,1,123.6,87.5Z"/><path d="M138.2,87.5a.85.85,0,0,1-.2-.6V63.3a1.42,1.42,0,0,1,.2-.6c.1-.2.3-.2.6-.2h.6a.71.71,0,0,1,.8.8V73.8h13.9V63.3a1.42,1.42,0,0,1,.2-.6c.1-.2.3-.2.6-.2h.6a.71.71,0,0,1,.8.8V86.9a.71.71,0,0,1-.8.8h-.6a1.42,1.42,0,0,1-.6-.2.85.85,0,0,1-.2-.6V76H140.2V86.9a.71.71,0,0,1-.8.8h-.6A.85.85,0,0,1,138.2,87.5Z"/><path d="M163.4,87.5a.85.85,0,0,1-.2-.6V63.3a1.42,1.42,0,0,1,.2-.6.85.85,0,0,1,.6-.2h.7a1.42,1.42,0,0,1,.6.2.85.85,0,0,1,.2.6V86.9a1.42,1.42,0,0,1-.2.6.85.85,0,0,1-.6.2H164A.85.85,0,0,1,163.4,87.5Z"/><path d="M170.5,87.5a1.42,1.42,0,0,1-.2-.6v-.7a1.69,1.69,0,0,1,.3-1,1.73,1.73,0,0,0,.3-.4L185,64.7H171.4a1.42,1.42,0,0,1-.6-.2.85.85,0,0,1-.2-.6v-.5a1.42,1.42,0,0,1,.2-.6c.1-.2.3-.2.6-.2H187a.71.71,0,0,1,.8.8v.7a1.48,1.48,0,0,1-.1.7l-.3.6L173.3,85.6h14.1a.71.71,0,0,1,.8.8v.5a.71.71,0,0,1-.8.8H171.2A1.45,1.45,0,0,1,170.5,87.5Z"/><path d="M193.3,87.5a.85.85,0,0,1-.2-.6V63.3a1.42,1.42,0,0,1,.2-.6c.1-.2.3-.2.6-.2h14a.71.71,0,0,1,.8.8v.5a.71.71,0,0,1-.8.8H195.3v9.2h11.8a.71.71,0,0,1,.8.8v.5a1.42,1.42,0,0,1-.2.6c-.1.2-.4.2-.6.2H195.3v9.5h12.9a.71.71,0,0,1,.8.8v.5a.71.71,0,0,1-.8.8H193.9A.44.44,0,0,1,193.3,87.5Z"/></g><path class="cls-4" d="M390.4,83.2c0-13.9,7.7-21.7,18-21.7s18,7.9,18,21.7-7.6,21.7-18,21.7S390.4,97.1,390.4,83.2Zm26.2,0c0-9.5-3.4-13.5-8.2-13.5s-8.2,4-8.2,13.5,3.4,13.5,8.2,13.5S416.6,92.8,416.6,83.2Z"/><path class="cls-4" d="M461.6,91.4c0,7.1-5.5,13.6-17.4,13.6-5.9,0-11.9-1.6-16-4.5l3.8-7.4a20.41,20.41,0,0,0,12,3.8c4.9,0,7.9-2,7.9-5.4,0-3.2-2.3-5.2-7.9-5.2h-4.4V79.9l8.6-9.8H430.3V62.3h29.4v6.3l-9.5,10.8C457.7,80.5,461.6,85.2,461.6,91.4Z"/><g class="cls-5"><path d="M391.7,147.2a.85.85,0,0,1-.2-.6V123a1.42,1.42,0,0,1,.2-.6.85.85,0,0,1,.6-.2h.7a1.42,1.42,0,0,1,.6.2.85.85,0,0,1,.2.6v23.6a1.42,1.42,0,0,1-.2.6.85.85,0,0,1-.6.2h-.7C392,147.4,391.8,147.4,391.7,147.2Z"/><path d="M400.7,147.2a.85.85,0,0,1-.2-.6V123a1.42,1.42,0,0,1,.2-.6c.1-.2.3-.2.6-.2H409a13.47,13.47,0,0,1,5.9,1.1,6,6,0,0,1,3.1,3.2,15.75,15.75,0,0,1,1,5.4v5.7a14.39,14.39,0,0,1-1,5.6,6.24,6.24,0,0,1-3,3.2,13.14,13.14,0,0,1-5.8,1h-7.8C401,147.4,400.8,147.4,400.7,147.2Zm8.2-1.9a11,11,0,0,0,4.5-.8,4.68,4.68,0,0,0,2.4-2.4,11.17,11.17,0,0,0,.8-4.6v-5.4a8.34,8.34,0,0,0-1.9-5.9c-1.2-1.3-3.2-1.9-6-1.9h-6v20.9h6.2Z"/><path d="M425.1,147.2a.85.85,0,0,1-.2-.6V123a1.42,1.42,0,0,1,.2-.6c.1-.2.3-.2.6-.2h14a.71.71,0,0,1,.8.8v.5a.71.71,0,0,1-.8.8H427.1v9.2h11.8a.71.71,0,0,1,.8.8v.5a1.42,1.42,0,0,1-.2.6c-.1.2-.4.2-.6.2H427.1v9.5H440a.71.71,0,0,1,.8.8v.5a.71.71,0,0,1-.8.8H425.7Q425.25,147.5,425.1,147.2Z"/></g><g class="cls-5"><path d="M443.9,147.2a.76.76,0,0,1-.2-.5l.1-.4,9.1-23.4a1,1,0,0,1,1-.7h1.2a.9.9,0,0,1,1,.7l9.1,23.4.1.4a.68.68,0,0,1-.7.7h-.7a.76.76,0,0,1-.5-.2,1.38,1.38,0,0,1-.3-.4l-2.2-5.8H448.2l-2.2,5.8c0,.1-.1.2-.3.4a.76.76,0,0,1-.5.2h-.7C444.2,147.4,444,147.4,443.9,147.2ZM460,139l-5.5-14.2L449,139Z"/></g><g class="cls-5"><path d="M472.6,147.2a.85.85,0,0,1-.2-.6V124.4h-7.1a1.42,1.42,0,0,1-.6-.2.85.85,0,0,1-.2-.6v-.5a1.42,1.42,0,0,1,.2-.6c.1-.2.3-.2.6-.2h16.5a.71.71,0,0,1,.8.8v.5a.71.71,0,0,1-.8.8h-7.1v22.2a.71.71,0,0,1-.8.8h-.6C472.9,147.4,472.7,147.4,472.6,147.2Z"/><path d="M487.1,147.2a.85.85,0,0,1-.2-.6V123a1.42,1.42,0,0,1,.2-.6c.1-.2.3-.2.6-.2h14a.71.71,0,0,1,.8.8v.5a.71.71,0,0,1-.8.8H489.1v9.2H501a.71.71,0,0,1,.8.8v.5a.71.71,0,0,1-.8.8H489.2v9.5H502a.71.71,0,0,1,.8.8v.5a.71.71,0,0,1-.8.8H487.7A.37.37,0,0,1,487.1,147.2Z"/></g><path class="cls-4" d="M629.1,343.4c0-13.9,7.7-21.7,18-21.7s18,7.9,18,21.7-7.6,21.7-18,21.7S629.1,357.2,629.1,343.4Zm26.2,0c0-9.5-3.4-13.5-8.2-13.5s-8.2,4-8.2,13.5,3.4,13.5,8.2,13.5S655.3,352.9,655.3,343.4Z"/><path class="cls-4" d="M708.3,355.5h-6.8v8.8H692v-8.8H669.4V349l19.8-26.6h10.2L681,347.6h11.3v-7.9h9.2v7.9h6.8Z"/><g class="cls-5"><path d="M630.4,407.3a.85.85,0,0,1-.2-.6V383.1a1.42,1.42,0,0,1,.2-.6c.1-.2.3-.2.6-.2h8.7a8.92,8.92,0,0,1,6.1,1.9,8,8,0,0,1,0,11,8.92,8.92,0,0,1-6.1,1.9h-7.3v9.5a.71.71,0,0,1-.8.8H631C630.7,407.5,630.5,407.5,630.4,407.3Zm9.1-12.2a7.21,7.21,0,0,0,4.6-1.3,5.82,5.82,0,0,0,0-7.8,6.83,6.83,0,0,0-4.6-1.3h-7.1v10.6h7.1Z"/><path d="M653,407.3a.85.85,0,0,1-.2-.6V383.1a1.42,1.42,0,0,1,.2-.6c.1-.2.3-.2.6-.2H662a9.43,9.43,0,0,1,6.1,1.8,6.47,6.47,0,0,1,2.2,5.4,7.41,7.41,0,0,1-1.4,4.6,6.8,6.8,0,0,1-4,2.4l5.8,9.9a.6.6,0,0,1,.1.4.68.68,0,0,1-.7.7h-.4a1.55,1.55,0,0,1-.8-.2,4.35,4.35,0,0,1-.6-.7l-5.7-9.7H655v9.9a.71.71,0,0,1-.8.8h-.6C653.3,407.5,653.1,407.5,653,407.3Zm8.8-12.6a7.12,7.12,0,0,0,4.7-1.3,4.76,4.76,0,0,0,1.5-3.8,4.62,4.62,0,0,0-1.5-3.8c-1-.9-2.6-1.3-4.7-1.3H655v10.2Z"/></g><g class="cls-5"><path d="M674.9,398v-6c.1-3.3,1-5.7,2.7-7.4a9.21,9.21,0,0,1,6.8-2.5,9.06,9.06,0,0,1,6.8,2.5c1.7,1.7,2.6,4.2,2.7,7.4,0,1.4.1,2.4.1,3s0,1.6-.1,3c-.2,6.6-3.3,9.9-9.5,9.9S675,404.6,674.9,398Zm14.6,5.8q1.95-1.95,2.1-6c0-1.4.1-2.4.1-2.8s0-1.4-.1-2.8q-.15-4.05-2.1-6a6.93,6.93,0,0,0-5.1-2,6.77,6.77,0,0,0-5.1,2q-1.95,1.95-2.1,6v5.6q.15,4.05,2.1,6a7,7,0,0,0,5.2,2A6.55,6.55,0,0,0,689.5,403.8Z"/><path d="M703.4,407.3a.85.85,0,0,1-.2-.6V384.5H696a1.42,1.42,0,0,1-.6-.2.85.85,0,0,1-.2-.6v-.5a1.42,1.42,0,0,1,.2-.6c.1-.2.3-.2.6-.2h16.5a.71.71,0,0,1,.8.8v.5a.71.71,0,0,1-.8.8h-7.1v22.2a.71.71,0,0,1-.8.8H704C703.7,407.5,703.5,407.5,703.4,407.3Z"/></g><g class="cls-5"><path d="M716.1,398v-6c.1-3.3,1-5.7,2.7-7.4a9.21,9.21,0,0,1,6.8-2.5c2.9,0,5.2.8,6.8,2.5s2.6,4.2,2.7,7.4c0,1.4.1,2.4.1,3s0,1.6-.1,3c-.2,6.6-3.3,9.9-9.5,9.9S716.3,404.6,716.1,398Zm14.7,5.8q2-1.95,2.1-6c0-1.4.1-2.4.1-2.8s0-1.4-.1-2.8q-.15-4.05-2.1-6a6.93,6.93,0,0,0-5.1-2,6.77,6.77,0,0,0-5.1,2q-2,1.95-2.1,6v5.6q.15,4.05,2.1,6a7,7,0,0,0,5.2,2A6.55,6.55,0,0,0,730.8,403.8Z"/></g><g class="cls-5"><path d="M747.4,407.3a.85.85,0,0,1-.2-.6V384.5h-7.1a1.42,1.42,0,0,1-.6-.2.85.85,0,0,1-.2-.6v-.5a1.42,1.42,0,0,1,.2-.6c.1-.2.3-.2.6-.2h16.5a.71.71,0,0,1,.8.8v.5a.71.71,0,0,1-.8.8h-7.1v22.2a.71.71,0,0,1-.8.8H748A.73.73,0,0,1,747.4,407.3Z"/><path d="M768.8,407.3a.85.85,0,0,1-.2-.6v-8.8l-8.8-14.4a.9.9,0,0,1-.1-.5.68.68,0,0,1,.7-.7h.7a1,1,0,0,1,.8.5l7.8,12.7,7.8-12.7a.82.82,0,0,1,.8-.5h.7a.68.68,0,0,1,.7.7,1.09,1.09,0,0,1-.1.5l-8.8,14.4v8.8a.71.71,0,0,1-.8.8h-.7A.55.55,0,0,1,768.8,407.3Z"/><path d="M784.7,407.3a.85.85,0,0,1-.2-.6V383.1a1.42,1.42,0,0,1,.2-.6c.1-.2.3-.2.6-.2H794a8.92,8.92,0,0,1,6.1,1.9,8,8,0,0,1,0,11,8.92,8.92,0,0,1-6.1,1.9h-7.3v9.5a.71.71,0,0,1-.8.8h-.6A.47.47,0,0,1,784.7,407.3Zm9.2-12.2a7.21,7.21,0,0,0,4.6-1.3,5.82,5.82,0,0,0,0-7.8,6.83,6.83,0,0,0-4.6-1.3h-7.1v10.6h7.1Z"/><path d="M807.3,407.3a.85.85,0,0,1-.2-.6V383.1a1.42,1.42,0,0,1,.2-.6c.1-.2.3-.2.6-.2h14a.71.71,0,0,1,.8.8v.5a.71.71,0,0,1-.8.8H809.3v9.2h11.8a.71.71,0,0,1,.8.8v.5a1.42,1.42,0,0,1-.2.6c-.1.2-.4.2-.6.2H809.3v9.5h12.9a.71.71,0,0,1,.8.8v.5a.71.71,0,0,1-.8.8H807.9A.37.37,0,0,1,807.3,407.3Z"/></g><path class="cls-4" d="M887.8,38.6c0-13.9,7.7-21.7,18-21.7s18,7.9,18,21.7-7.6,21.7-18,21.7S887.8,52.5,887.8,38.6Zm26.3,0c0-9.5-3.4-13.5-8.2-13.5s-8.2,4-8.2,13.5,3.4,13.5,8.2,13.5S914.1,48.1,914.1,38.6Z"/><path class="cls-4" d="M960.3,46.4c0,7.4-5.5,13.9-17.5,13.9-5.8,0-11.9-1.6-16-4.5l3.8-7.4a20.33,20.33,0,0,0,11.9,3.8c4.9,0,7.9-2,7.9-5.5,0-3.3-2.2-5.5-9.8-5.5H930l2.2-23.6h25.6v7.8H940.3l-.7,8H943C955.4,33.4,960.3,39,960.3,46.4Z"/><g class="cls-5"><path d="M894.6,102.6a.85.85,0,0,1-.2-.6V79.8h-7.1a1.42,1.42,0,0,1-.6-.2.85.85,0,0,1-.2-.6v-.5a1.42,1.42,0,0,1,.2-.6c.1-.2.3-.2.6-.2h16.5a.71.71,0,0,1,.8.8V79a.71.71,0,0,1-.8.8h-7.1V102a.71.71,0,0,1-.8.8h-.6A1.45,1.45,0,0,1,894.6,102.6Z"/><path d="M909.2,102.6a.85.85,0,0,1-.2-.6V78.4a1.42,1.42,0,0,1,.2-.6c.1-.2.3-.2.6-.2h14a.71.71,0,0,1,.8.8V79a.71.71,0,0,1-.8.8H911.2V89H923a.71.71,0,0,1,.8.8v.5a.71.71,0,0,1-.8.8H911.2v9.5h12.9a.71.71,0,0,1,.8.8v.5a.71.71,0,0,1-.8.8H909.8A.56.56,0,0,1,909.2,102.6Z"/></g><g class="cls-5"><path d="M932.9,102.2a8,8,0,0,1-3.2-2.4,6.28,6.28,0,0,1-1.2-3.2.68.68,0,0,1,.7-.7h.7a.76.76,0,0,1,.8.7,4.3,4.3,0,0,0,2,3,8,8,0,0,0,5,1.3,8.72,8.72,0,0,0,5.1-1.2,4.14,4.14,0,0,0,1.7-3.5,3.11,3.11,0,0,0-.8-2.2,6.61,6.61,0,0,0-2.4-1.5c-1-.4-2.6-1-4.7-1.7a23.18,23.18,0,0,1-4.3-1.8,6.74,6.74,0,0,1-2.3-2.1,6.06,6.06,0,0,1-.8-3.2,5.58,5.58,0,0,1,1-3.3,6.11,6.11,0,0,1,2.9-2.3,10.08,10.08,0,0,1,4.5-.8,9.47,9.47,0,0,1,4.6,1,7,7,0,0,1,2.9,2.4,5.94,5.94,0,0,1,1,2.9.76.76,0,0,1-.2.5.85.85,0,0,1-.6.2h-.7c-.2,0-.3-.1-.5-.2a.6.6,0,0,1-.3-.6,4.16,4.16,0,0,0-1.9-3,7.28,7.28,0,0,0-4.3-1.2,8.18,8.18,0,0,0-4.4,1.1,4,4,0,0,0-.9,5.5,6.59,6.59,0,0,0,2.2,1.6,46.3,46.3,0,0,0,4.4,1.6,24.46,24.46,0,0,1,4.6,1.8A7.55,7.55,0,0,1,946,93a5.26,5.26,0,0,1,.8,3.2,6.13,6.13,0,0,1-2.4,5.1,10.78,10.78,0,0,1-6.6,1.8A9.57,9.57,0,0,1,932.9,102.2Z"/></g><g class="cls-5"><path d="M957.5,102.6a.85.85,0,0,1-.2-.6V79.8h-7.1a1.42,1.42,0,0,1-.6-.2.85.85,0,0,1-.2-.6v-.5a1.42,1.42,0,0,1,.2-.6c.1-.2.3-.2.6-.2h16.5a.71.71,0,0,1,.8.8V79a.71.71,0,0,1-.8.8h-7.1V102a.71.71,0,0,1-.8.8h-.6A1,1,0,0,1,957.5,102.6Z"/></g><circle class="cls-2" cx="299.4" cy="347.3" r="77.9"/><path class="cls-3" d="M299.4,280.1a67.2,67.2,0,1,1-67.2,67.2h0a67.28,67.28,0,0,1,67.2-67.2m0-21.5a88.7,88.7,0,1,0,88.7,88.7,88.68,88.68,0,0,0-88.7-88.7Z"/><path class="cls-4" d="M104.9,319.2c0-13.9,7.7-21.7,18-21.7s18,7.9,18,21.7-7.6,21.7-18,21.7S104.9,333,104.9,319.2Zm26.2,0c0-9.5-3.4-13.5-8.2-13.5s-8.2,4-8.2,13.5,3.4,13.5,8.2,13.5S131.1,328.7,131.1,319.2Z"/><path class="cls-4" d="M176.7,332.2v7.9H145v-6.3l16.2-15.3c3.7-3.5,4.4-5.7,4.4-7.7,0-3.3-2.3-5.2-6.7-5.2a10.27,10.27,0,0,0-8.7,4.2l-7.1-4.6c3.2-4.7,9.1-7.8,16.7-7.8,9.4,0,15.6,4.8,15.6,12.4,0,4.1-1.1,7.8-7,13.3l-9.7,9.1Z"/><g class="cls-5"><path d="M106.2,383.1a.85.85,0,0,1-.2-.6V359a1.42,1.42,0,0,1,.2-.6c.1-.2.3-.2.6-.2h7.7a13.47,13.47,0,0,1,5.9,1.1,6,6,0,0,1,3.1,3.2,15.75,15.75,0,0,1,1,5.4v5.7a14.39,14.39,0,0,1-1,5.6,6.24,6.24,0,0,1-3,3.2,13.14,13.14,0,0,1-5.8,1h-7.8C106.5,383.3,106.3,383.3,106.2,383.1Zm8.2-1.9a11,11,0,0,0,4.5-.8,4.68,4.68,0,0,0,2.4-2.4,11.17,11.17,0,0,0,.8-4.6V368a8.34,8.34,0,0,0-1.9-5.9c-1.2-1.3-3.2-1.9-6-1.9h-6v20.9h6.2Z"/><path d="M130.5,383.1a.85.85,0,0,1-.2-.6V359a1.42,1.42,0,0,1,.2-.6c.1-.2.3-.2.6-.2h14a.71.71,0,0,1,.8.8v.5a.71.71,0,0,1-.8.8H132.5v9.2h11.8a.71.71,0,0,1,.8.8v.5a.71.71,0,0,1-.8.8H132.5v9.5h12.9a.71.71,0,0,1,.8.8v.5a.71.71,0,0,1-.8.8H131.1A.47.47,0,0,1,130.5,383.1Z"/><path d="M151.9,383.1a.85.85,0,0,1-.2-.6V359a1.42,1.42,0,0,1,.2-.6c.1-.2.3-.2.6-.2h13.9a.71.71,0,0,1,.8.8v.5a.71.71,0,0,1-.8.8H154V370h11.7a.71.71,0,0,1,.8.8v.5a.71.71,0,0,1-.8.8H154v10.4a.71.71,0,0,1-.8.8h-.6C152.2,383.3,152,383.3,151.9,383.1Z"/><path d="M172.4,383.1a.85.85,0,0,1-.2-.6V358.9a1.42,1.42,0,0,1,.2-.6.85.85,0,0,1,.6-.2h.7a1.42,1.42,0,0,1,.6.2.85.85,0,0,1,.2.6v23.6a1.42,1.42,0,0,1-.2.6.85.85,0,0,1-.6.2H173C172.7,383.3,172.5,383.3,172.4,383.1Z"/><path d="M181.4,383.1a.85.85,0,0,1-.2-.6V359a1.42,1.42,0,0,1,.2-.6c.1-.2.3-.2.6-.2h.8a.91.91,0,0,1,.8.4l13.3,20.3V359a1.42,1.42,0,0,1,.2-.6c.1-.2.3-.2.6-.2h.6a.71.71,0,0,1,.8.8v23.5a1.42,1.42,0,0,1-.2.6c-.1.2-.3.2-.6.2h-.8a.91.91,0,0,1-.8-.4l-13.2-20.2v19.9a.71.71,0,0,1-.8.8H182A1.14,1.14,0,0,1,181.4,383.1Z"/><path d="M206,383.1a.85.85,0,0,1-.2-.6V359a1.42,1.42,0,0,1,.2-.6c.1-.2.3-.2.6-.2h14a.71.71,0,0,1,.8.8v.5a.71.71,0,0,1-.8.8H208v9.2h11.8a.71.71,0,0,1,.8.8v.5a1.42,1.42,0,0,1-.2.6c-.1.2-.4.2-.6.2H208v9.5h12.9a.71.71,0,0,1,.8.8v.5a.71.71,0,0,1-.8.8H206.6A.47.47,0,0,1,206,383.1Z"/></g><path class="cls-4" d="M108,109.4a12.3,12.3,0,0,1,8.6,3.7c1.4,1.3,2.7,2.8,4.1,4.3.7.7,1.3,1.5,2,2.2l3.8,4.1,3.6-4.2.5-.6a17.41,17.41,0,0,0,1.2-1.4,35.36,35.36,0,0,1,5.8-5.8,12.06,12.06,0,0,1,7.3-2.4,11.71,11.71,0,0,1,7.4,2.6c3.1,2.6,4.4,5.9,4.1,10.3-.3,3.9-1.9,7.5-5.2,11.6a80.93,80.93,0,0,1-10.9,11l-11.8,10-2.3,1.9-1.2-1.1-2.5-2.1-9.9-8.4A97,97,0,0,1,101.5,134a24.11,24.11,0,0,1-4.6-7.9c-1.1-3.7-1.1-6.7-.1-9.4a10.72,10.72,0,0,1,8.4-7.1c1-.1,1.9-.2,2.8-.2m0-5a14.72,14.72,0,0,0-3.6.4A15.6,15.6,0,0,0,92.3,115c-1.7,4.2-1.4,8.5-.1,12.7a29.63,29.63,0,0,0,5.5,9.6A98.57,98.57,0,0,0,109.3,149c4.1,3.6,8.3,7.1,12.4,10.6,1.5,1.3,3,2.5,4.6,3.7l.4-.3c5.6-4.8,11.3-9.4,16.9-14.2a90,90,0,0,0,11.5-11.6c3.4-4.2,5.9-8.8,6.3-14.4.4-5.8-1.4-10.7-5.8-14.5a16.6,16.6,0,0,0-10.6-3.8,17.42,17.42,0,0,0-10.3,3.4,45,45,0,0,0-6.6,6.5c-.6.7-1.1,1.3-1.6,1.9-2.2-2.3-4.2-4.7-6.4-6.8a17,17,0,0,0-12.1-5.1Z"/><path class="cls-6" d="M138.3,180.1c-7.7-.1-15.7-3.8-22.2-10.8a3.21,3.21,0,0,1-.7-3.7,14.37,14.37,0,0,1,13.4-9.3c7.7-.1,15.4-.2,23.1,0,6.3.1,10.7,3.4,13.3,9.1a3.21,3.21,0,0,1-.7,3.9C158.5,176.1,149.6,180.1,138.3,180.1Z"/><path class="cls-6" d="M126.3,138.1a14.2,14.2,0,1,1,0,.2Z"/><g id="MX2pyA"><path class="cls-4" d="M323.2,359.6v12.2a7.65,7.65,0,0,1-6.3,7.7,8.6,8.6,0,0,1-1.6.1H279.2a7.91,7.91,0,0,1-6.5-3,6.73,6.73,0,0,1-1.6-4.7V323.6c0-3.6,1.3-6.3,4.5-7.9a8.3,8.3,0,0,1,3.8-.7h36a7.6,7.6,0,0,1,7.7,6.6c.2,1.4,0,2.8.1,4.1a6.83,6.83,0,0,1-1.7,5.3c-.7.9-1.3,1.8-1.9,2.7V323.1c0-2.9-1.6-4.6-4.6-4.6H279.3a4,4,0,0,0-3.9,1.9,5.53,5.53,0,0,0-.7,2.5v48.4a4.19,4.19,0,0,0,4.3,4.6h36.1a4.23,4.23,0,0,0,4.5-3.9h0v-6.9a2.92,2.92,0,0,1,.2-.9c1-1.5,2-2.9,3-4.4A.52.52,0,0,0,323.2,359.6Z"/><path class="cls-6" d="M318.4,361.2l-9.7-6.8,16.6-23.7,9.7,6.8Z"/><path class="cls-4" d="M297.1,328.5h13.8a1.71,1.71,0,0,1,1.9,1.5h0v.5a1.77,1.77,0,0,1-1.9,1.6H283.4a1.81,1.81,0,0,1-2-1.6h0v-.6a1.84,1.84,0,0,1,1.9-1.4Z"/><path class="cls-4" d="M297.1,343.4H283.5a1.88,1.88,0,0,1-2-1.3,1.81,1.81,0,0,1,1.2-2.2,1.27,1.27,0,0,1,.6-.1h27.6a1.82,1.82,0,1,1,.6,3.6H297.1Z"/><path class="cls-4" d="M286.3,365l-2.4,3.1a1.48,1.48,0,1,1-2.6-1.4v-.1c.1-.1.2-.3.3-.4l3.4-4.5c.9-1.2,1.9-1.2,2.8.1l1.7,2.5c.4-.8.7-1.5,1.1-2.3a1.38,1.38,0,0,1,1.3-1,1.76,1.76,0,0,1,1.5.8l2.1,3.3a1.1,1.1,0,0,0,1,.6h4a1.51,1.51,0,1,1,.3,3h-5.5a1.65,1.65,0,0,1-1.5-.9,22.22,22.22,0,0,0-1.5-2.3l-1,2.1a1.36,1.36,0,0,1-1.8,1,1.59,1.59,0,0,1-1-.8A20.93,20.93,0,0,1,286.3,365Z"/><path class="cls-6" d="M326.9,328.3c.7-1,1.4-1.9,2.1-2.8a5.21,5.21,0,0,1,6.8-.8,6.37,6.37,0,0,1,3.2,3.8,5.11,5.11,0,0,1-.5,4c-.5.9-1.2,1.8-1.8,2.7Z"/><path class="cls-6" d="M316.7,363.5c-.2.2-.5.3-.7.5-3,1.5-5.9,3-8.9,4.4a1,1,0,0,1-1.4-.1,1,1,0,0,1-.2-1c.4-3.2.9-6.5,1.4-9.7a2.35,2.35,0,0,1,.2-.8Z"/><path class="cls-4" d="M283.2,351h13.9a1.79,1.79,0,0,1,1.8,1.8h0a1.79,1.79,0,0,1-1.8,1.8H283.2a1.79,1.79,0,0,1-1.8-1.8h0A1.79,1.79,0,0,1,283.2,351Z"/></g><path class="cls-6" d="M550.4,226.3H539.6a2.52,2.52,0,0,1-2.7-1.9,90.05,90.05,0,0,0-6.5-14.1,21.48,21.48,0,0,1,8.2-29.3l.2-.1a23.39,23.39,0,0,1,29.3,4.9,20.67,20.67,0,0,1,5.2,15.2,21.59,21.59,0,0,1-3,9.9,95.6,95.6,0,0,0-6.2,13.4,2.73,2.73,0,0,1-2.9,2Zm0-4.4h9.3a.75.75,0,0,0,.7-.5,99.46,99.46,0,0,1,6-12.8,17.43,17.43,0,0,0,2.4-8.4,15.84,15.84,0,0,0-3-10.1,19,19,0,0,0-26.4-4.5c-.3.2-.7.5-1,.7a16.84,16.84,0,0,0-4.9,20.3c1,2.2,2.2,4.2,3.2,6.4,1.3,2.8,2.5,5.6,3.7,8.4a.57.57,0,0,0,.7.4h9.3Z"/><path class="cls-6" d="M550.5,227.9h9.7a3.22,3.22,0,0,1,2.3.6,1.24,1.24,0,0,1,.6,1.8,1.17,1.17,0,0,1-.6.6,3.61,3.61,0,0,1-2,.6h-20a3.7,3.7,0,0,1-2.1-.6,1.32,1.32,0,0,1-.6-1.7.9.9,0,0,1,.6-.6,6.36,6.36,0,0,1,1.8-.6c2.7-.1,5.3,0,8,0Z"/><path class="cls-6" d="M550.4,236.4H542a4.14,4.14,0,0,1-1.9-.5,1.41,1.41,0,0,1-.5-1.8,1.21,1.21,0,0,1,.5-.5,3.39,3.39,0,0,1,1.5-.6,2.44,2.44,0,0,1,1.2,0H558a5.66,5.66,0,0,1,2.6.3,1.52,1.52,0,0,1,1,1.3,1.29,1.29,0,0,1-.9,1.3,5.26,5.26,0,0,1-1.8.4C556.1,236.4,553.3,236.4,550.4,236.4Z"/><path class="cls-6" d="M558.5,238.3a10.35,10.35,0,0,1-14.6,1.6,12.09,12.09,0,0,1-1.6-1.6Z"/><path class="cls-4" d="M584.4,198.7h4.3a.9.9,0,0,1,1,.7,3.3,3.3,0,0,1,0,1.4c-.1.6-.5.8-1.1.8H580c-.7,0-1-.2-1.1-.9a2.85,2.85,0,0,1,0-1.3c.1-.6.5-.8,1.1-.8Z"/><path class="cls-4" d="M552,166.2v4.4c0,.6-.2.9-.7,1a3.79,3.79,0,0,1-1.5,0,1.08,1.08,0,0,1-.8-1.1v-8.6c0-.6.2-.9.7-1a3.79,3.79,0,0,1,1.5,0,1,1,0,0,1,.8,1.1Z"/><path class="cls-4" d="M516.6,198.7h4.3a.89.89,0,0,1,1,.6,2.48,2.48,0,0,1,0,1.7,1.09,1.09,0,0,1-1,.7h-8.7a.94.94,0,0,1-1.1-.9h0a2.44,2.44,0,0,1,0-1.2,1,1,0,0,1,1.1-.8Z"/><path class="cls-4" d="M526.1,185.2a2.37,2.37,0,0,1-.9,1.5,1.08,1.08,0,0,1-1.1,0c-2.5-1.5-5.1-2.9-7.6-4.4a.88.88,0,0,1-.5-1,2.14,2.14,0,0,1,.9-1.5,1.08,1.08,0,0,1,1.1,0l7.7,4.4A1,1,0,0,1,526.1,185.2Z"/><path class="cls-4" d="M526.1,215.2a.88.88,0,0,1-.5,1l-7.6,4.4a.91.91,0,0,1-1,0,2.06,2.06,0,0,1-1-1.7c0-.4.1-.8.5-.9,2.6-1.5,5.1-2.9,7.7-4.4a.91.91,0,0,1,1,0A2.2,2.2,0,0,1,526.1,215.2Z"/><path class="cls-4" d="M565.9,175.9a2.28,2.28,0,0,1-1.9-1,.91.91,0,0,1,0-1c1.5-2.6,3-5.1,4.5-7.7l.3-.3a1.71,1.71,0,0,1,2,.5,1,1,0,0,1,.2,1.5h0c-1.3,2.3-2.6,4.5-3.9,6.8a3.51,3.51,0,0,1-.5.8A1.61,1.61,0,0,0,565.9,175.9Z"/><path class="cls-4" d="M584.9,181.4a1.05,1.05,0,0,1-.5.9c-2.5,1.4-5.1,2.9-7.6,4.4a.91.91,0,0,1-1,0,1.92,1.92,0,0,1-.9-1.6,1.05,1.05,0,0,1,.5-.9l7.7-4.4a.91.91,0,0,1,1,0A2.08,2.08,0,0,1,584.9,181.4Z"/><path class="cls-4" d="M584.9,219a2.06,2.06,0,0,1-1,1.7.91.91,0,0,1-1,0c-1.7-1-3.4-2-5-2.9l-2.5-1.4c-.1-.1-.2-.1-.3-.2a1.51,1.51,0,0,1,.1-1.9q.75-1.05,1.5-.6c2.6,1.5,5.1,3,7.7,4.4A.76.76,0,0,1,584.9,219Z"/><path class="cls-4" d="M535.1,175.9a1.47,1.47,0,0,1-.6-.5c-1.5-2.6-3-5.1-4.5-7.7a1.1,1.1,0,0,1,0-.8,1.89,1.89,0,0,1,1.8-1.1.89.89,0,0,1,.8.5c1.5,2.6,2.9,5.1,4.4,7.7a.92.92,0,0,1-.1,1.1A2.74,2.74,0,0,1,535.1,175.9Z"/><path class="cls-4" d="M553.3,220.5h-2a64.69,64.69,0,0,1,1.1-13.9h-3.2a80.46,80.46,0,0,1,.7,13.9h-2v-.6c0-2.7,0-5.3-.2-8-.1-1.7-.4-3.4-.5-5.1a.47.47,0,0,0-.5-.5,15,15,0,0,1-5.1-1.5,6.11,6.11,0,0,1-2.4-2.1,3,3,0,0,1,.6-4.2,3.7,3.7,0,0,1,1.1-.5,5.08,5.08,0,0,1,5.8,2,10.1,10.1,0,0,1,1.8,4.1.56.56,0,0,0,.6.5h3.4c.2,0,.5-.1.5-.4a11.12,11.12,0,0,1,2-3.7,5.6,5.6,0,0,1,4.8-2,2.82,2.82,0,0,1,2.8,2.9h0a2.77,2.77,0,0,1-.5,1.6,5.7,5.7,0,0,1-3,2.3,14.48,14.48,0,0,1-4.1,1,.73.73,0,0,0-.7.6,38.37,38.37,0,0,0-.9,8.3c-.1,1.6-.1,3.2-.1,4.8A.45.45,0,0,1,553.3,220.5Zm-6.8-16.3a9.08,9.08,0,0,0-1.7-3.4,3.12,3.12,0,0,0-3.3-.9,1,1,0,0,0-.8,1.2h0a.55.55,0,0,0,.3.5l.6.6A9.67,9.67,0,0,0,546.5,204.2Zm8.7.1c1.9-.4,3.6-.7,5-2a2.19,2.19,0,0,0,.3-.5.81.81,0,0,0-.2-1.1h0a.75.75,0,0,0-.5-.1,4.87,4.87,0,0,0-1.2.1C556.8,201.1,556,202.6,555.2,204.3Z"/><path class="cls-7" d="M828,337.8a8.09,8.09,0,0,1-8.2,8.1H786.4a8.15,8.15,0,0,1-8.2-8.1h0V268.7a8.24,8.24,0,0,1,8.2-8.2h33.5a8.24,8.24,0,0,1,8.2,8.2v19.8"/><path class="cls-6" d="M806.3,315.2v-4.5a3,3,0,0,1,3.4-2.2H811a2.65,2.65,0,0,0,1.7-4.4l-1.2-1.2a2.81,2.81,0,0,1-.1-3.9l.1-.1c.8-.8,1.7-1.6,2.5-2.5a2.84,2.84,0,0,1,4,0h0a11.41,11.41,0,0,0,1.1,1.1,2.59,2.59,0,0,0,2.8.5,2.37,2.37,0,0,0,1.6-2.4v-1.7a2.88,2.88,0,0,1,2.8-2.9h3.2a2.81,2.81,0,0,1,3,2.6h0v2a2.61,2.61,0,0,0,2.8,2.5,2.84,2.84,0,0,0,1.7-.7l1.2-1.2a2.72,2.72,0,0,1,3.9,0,29.49,29.49,0,0,1,2.5,2.5,2.81,2.81,0,0,1,.1,3.9h0l-.1.1-1.2,1.2a2.52,2.52,0,0,0-.6,2.6,2.25,2.25,0,0,0,2.2,1.7,12,12,0,0,0,1.9,0,2.48,2.48,0,0,1,2.7,2.3h0v.2a24.09,24.09,0,0,1,0,3.8,2.58,2.58,0,0,1-2.6,2.6h-1.9a2.38,2.38,0,0,0-2.2,1.6,2.46,2.46,0,0,0,.5,2.7l1.2,1.2a2.81,2.81,0,0,1,.1,3.9l-.1.1-2.4,2.4a2.84,2.84,0,0,1-4,0h0l-1.1-1.1a2.6,2.6,0,0,0-2.9-.6,2.72,2.72,0,0,0-1.7,2.5v1.8a2.78,2.78,0,0,1-2.8,2.7h-3.3a2.8,2.8,0,0,1-2.8-2.8h0V330a2.5,2.5,0,0,0-1.6-2.4,2.59,2.59,0,0,0-2.8.5l-1.2,1.2a2.72,2.72,0,0,1-3.9,0c-.8-.8-1.7-1.6-2.5-2.5a2.81,2.81,0,0,1-.1-3.9l.1-.1,1.1-1.1a2.44,2.44,0,0,0,.6-2.9,2.5,2.5,0,0,0-2.5-1.6h-1.5a2.64,2.64,0,0,1-1.9-.7A3.48,3.48,0,0,1,806.3,315.2Zm21.9-11.3a9,9,0,1,0,9,9,9,9,0,0,0-9-9Z"/><path class="cls-6" d="M1018.5,168.4v12.2a7.65,7.65,0,0,1-6.3,7.7,8.6,8.6,0,0,1-1.6.1H974.5a7.91,7.91,0,0,1-6.5-3,6.73,6.73,0,0,1-1.6-4.7V132.4c0-3.6,1.3-6.3,4.5-7.9a8.3,8.3,0,0,1,3.8-.7h36a7.6,7.6,0,0,1,7.7,6.6c.2,1.4,0,2.8.1,4.1a6.47,6.47,0,0,1-1.7,5.3c-.7.9-1.3,1.8-1.9,2.7V132a4.21,4.21,0,0,0-4.6-4.6H974.6a4,4,0,0,0-3.9,1.9,5.53,5.53,0,0,0-.7,2.5v48.4a4.28,4.28,0,0,0,.8,2.9,4.4,4.4,0,0,0,3.5,1.7h36.1a4.08,4.08,0,0,0,4.4-3.9h0V174a2.92,2.92,0,0,1,.2-.9c1-1.5,2-2.9,3-4.4A1.33,1.33,0,0,0,1018.5,168.4Z"/><path class="cls-6" d="M989.8,137.6h17.8a1.79,1.79,0,0,1,1.8,1.8h0a1.79,1.79,0,0,1-1.8,1.8H989.8a1.79,1.79,0,0,1-1.8-1.8h0A1.79,1.79,0,0,1,989.8,137.6Z"/><path class="cls-6" d="M989.8,150.7h17.8a1.79,1.79,0,0,1,1.8,1.8h0a1.79,1.79,0,0,1-1.8,1.8H989.8a1.79,1.79,0,0,1-1.8-1.8h0A1.79,1.79,0,0,1,989.8,150.7Z"/><path class="cls-6" d="M989.8,163.7h17.8a1.79,1.79,0,0,1,1.8,1.8h0a1.79,1.79,0,0,1-1.8,1.8H989.8a1.79,1.79,0,0,1-1.8-1.8h0A1.79,1.79,0,0,1,989.8,163.7Z"/><path class="cls-4" d="M1027.7,134.2l7,5.8-23.5,28.7-17-15.6,6.2-6.7,9.9,9.1Z"/><rect class="cls-6" x="975.1" y="134.8" width="9.4" height="9.3"/><rect class="cls-6" x="975.1" y="147.9" width="9.4" height="9.3"/><path class="cls-6" d="M984.5,160.9v9.3h-9.4v-9.3Zm-8.1,8h6.7v-6.7h-6.7Z"/></svg>