<?xml version="1.0" encoding="utf-8"?>
<!-- Generator: Adobe Illustrator 26.0.1, SVG Export Plug-In . SVG Version: 6.00 Build 0)  -->
<svg version="1.1" id="Layer_1" xmlns="http://www.w3.org/2000/svg" xmlns:xlink="http://www.w3.org/1999/xlink" x="0px" y="0px"
	 viewBox="0 0 1094 445" style="enable-background:new 0 0 1094 445;" xml:space="preserve">
<style type="text/css">
	.st0{fill:none;stroke:#00B2AC;stroke-width:5;stroke-miterlimit:10;stroke-dasharray:20,20;}
	.st1{fill:#FFFFFF;}
	.st2{fill:#F9C3DC;}
	.st3{enable-background:new    ;}
	.st4{fill:#00B2AC;}
	.st5{fill:#F282B4;}
	.st6{fill:#1A6071;}
	.st7{fill:none;stroke:#F282B4;stroke-width:5;stroke-miterlimit:10;}
</style>
<path class="st0" d="M178.8,209.2c0,0,55.4,114.8,106.6,130S480.5,205,549.7,217.4s205,106.3,263,95.3s162.8-109.2,187.9-129.9"/>
<circle class="st1" cx="131.3" cy="140.4" r="77.9"/>
<path class="st2" d="M131.3,73.2c37.1,0,67.2,30.1,67.2,67.2s-30.1,67.2-67.2,67.2s-67.2-30.1-67.2-67.2
	C64.1,103.3,94.2,73.2,131.3,73.2L131.3,73.2 M131.3,51.7c-49,0-88.7,39.7-88.7,88.7c0,49,39.7,88.7,88.7,88.6
	c49,0,88.6-39.7,88.7-88.7C220,91.4,180.3,51.7,131.3,51.7C131.3,51.7,131.3,51.7,131.3,51.7L131.3,51.7L131.3,51.7z"/>
<ellipse transform="matrix(0.7071 -0.7071 0.7071 0.7071 18.3779 445.5363)" class="st1" cx="547" cy="200.6" rx="77.9" ry="77.9"/>
<path class="st2" d="M547,133.4c37.1,0,67.2,30.1,67.2,67.2s-30.1,67.2-67.2,67.2s-67.2-30.1-67.2-67.2l0,0l0,0
	C479.9,163.5,509.9,133.4,547,133.4 M547,111.9c-49,0-88.7,39.7-88.7,88.7s39.7,88.7,88.7,88.7s88.7-39.7,88.7-88.7l0,0l0,0
	C635.7,151.6,596,111.9,547,111.9z"/>
<circle class="st1" cx="802.4" cy="304.1" r="77.9"/>
<path class="st2" d="M802.4,237c37.1,0,67.2,30.1,67.2,67.2s-30.1,67.2-67.2,67.2s-67.2-30.1-67.2-67.2l0,0l0,0
	C735.3,267.1,765.3,237,802.4,237 M802.4,215.5c-49,0-88.7,39.7-88.7,88.7s39.7,88.7,88.7,88.7s88.7-39.7,88.7-88.7l0,0l0,0
	C891.1,255.2,851.4,215.5,802.4,215.5L802.4,215.5L802.4,215.5z"/>
<circle class="st1" cx="990.3" cy="153.3" r="77.9"/>
<path class="st2" d="M990.3,86.1c37.1,0,67.2,30.1,67.2,67.2s-30.1,67.2-67.2,67.2c-37.1,0-67.2-30.1-67.2-67.2l0,0l0,0
	C923.2,116.2,953.2,86.2,990.3,86.1 M990.3,64.6c-49,0-88.7,39.7-88.7,88.7s39.7,88.7,88.7,88.7c49,0,88.7-39.7,88.7-88.7
	C1079,104.3,1039.3,64.6,990.3,64.6C990.3,64.6,990.3,64.6,990.3,64.6L990.3,64.6L990.3,64.6z"/>
<g>
	<g class="st3">
		<path class="st4" d="M25.5,23.5c0-13.9,7.7-21.7,18-21.7c10.4,0,18,7.9,18,21.7s-7.6,21.7-18,21.7C33.2,45.2,25.5,37.4,25.5,23.5z
			 M51.7,23.5c0-9.5-3.4-13.5-8.2-13.5c-4.8,0-8.2,4-8.2,13.5c0,9.5,3.4,13.5,8.2,13.5C48.3,37,51.7,33.1,51.7,23.5z"/>
	</g>
	<g class="st3">
		<path class="st4" d="M82.1,2.5v42h-9.7V10.3h-8.4V2.5H82.1z"/>
	</g>
	<g class="st3">
		<path d="M26.8,87.5c-0.1-0.1-0.2-0.3-0.2-0.6V63.3c0-0.2,0.1-0.4,0.2-0.6s0.3-0.2,0.6-0.2h14c0.3,0,0.5,0.1,0.6,0.2
			c0.1,0.1,0.2,0.3,0.2,0.6v0.5c0,0.2-0.1,0.4-0.2,0.6c-0.2,0.1-0.4,0.2-0.6,0.2H28.8v9.2h11.8c0.3,0,0.5,0.1,0.6,0.2
			c0.1,0.1,0.2,0.3,0.2,0.6v0.5c0,0.2-0.1,0.4-0.2,0.6C41,75.9,40.8,76,40.6,76H28.8v9.5h12.9c0.3,0,0.5,0.1,0.6,0.2
			c0.1,0.1,0.2,0.3,0.2,0.6v0.5c0,0.2-0.1,0.4-0.2,0.6c-0.2,0.1-0.4,0.2-0.6,0.2H27.3C27.1,87.7,26.9,87.6,26.8,87.5z"/>
		<path d="M48.1,87.5c-0.2-0.1-0.2-0.3-0.2-0.6V63.3c0-0.3,0.1-0.5,0.2-0.6c0.2-0.1,0.4-0.2,0.6-0.2h0.9c0.4,0,0.6,0.2,0.8,0.5
			l8.2,15.9L66.7,63c0.2-0.3,0.4-0.5,0.8-0.5h0.9c0.3,0,0.5,0.1,0.6,0.2c0.1,0.1,0.2,0.3,0.2,0.6v23.6c0,0.2-0.1,0.4-0.2,0.6
			c-0.2,0.1-0.4,0.2-0.6,0.2h-0.6c-0.2,0-0.4-0.1-0.6-0.2c-0.1-0.1-0.2-0.3-0.2-0.6V67.4L60,81c-0.2,0.5-0.6,0.7-1.1,0.7h-0.8
			c-0.5,0-0.9-0.2-1.1-0.7l-6.9-13.5v19.5c0,0.2-0.1,0.4-0.2,0.6c-0.1,0.1-0.3,0.2-0.6,0.2h-0.6C48.4,87.7,48.2,87.6,48.1,87.5z"/>
	</g>
	<g class="st3">
		<path d="M76.1,87.5c-0.1-0.1-0.2-0.3-0.2-0.6V63.3c0-0.2,0.1-0.4,0.2-0.6s0.3-0.2,0.6-0.2h8.7c2.6,0,4.6,0.6,6.1,1.9
			c1.5,1.3,2.2,3.1,2.2,5.5c0,2.4-0.7,4.2-2.2,5.5c-1.5,1.3-3.5,1.9-6.1,1.9h-7.3v9.5c0,0.2-0.1,0.4-0.2,0.6
			c-0.2,0.1-0.4,0.2-0.6,0.2h-0.6C76.5,87.7,76.3,87.6,76.1,87.5z M85.3,75.3c2.1,0,3.6-0.5,4.6-1.3c1-0.9,1.5-2.2,1.5-3.9
			c0-1.7-0.5-3-1.5-3.9c-1-0.9-2.6-1.3-4.6-1.3h-7.1v10.6H85.3z"/>
	</g>
	<g class="st3">
		<path d="M94.9,87.5c-0.1-0.1-0.2-0.3-0.2-0.5l0.1-0.4l9.1-23.4c0.2-0.5,0.5-0.7,1-0.7h1.2c0.5,0,0.9,0.2,1,0.7l9.1,23.4l0.1,0.4
			c0,0.2-0.1,0.4-0.2,0.5c-0.1,0.1-0.3,0.2-0.5,0.2h-0.7c-0.2,0-0.4-0.1-0.5-0.2c-0.1-0.1-0.2-0.2-0.3-0.4l-2.2-5.8H99.1l-2.2,5.8
			c0,0.1-0.1,0.2-0.3,0.4c-0.1,0.1-0.3,0.2-0.5,0.2h-0.7C95.2,87.7,95,87.6,94.9,87.5z M111,79.3l-5.5-14.2L100,79.3H111z"/>
	</g>
	<g class="st3">
		<path d="M123.6,87.5c-0.1-0.1-0.2-0.3-0.2-0.6V64.7h-7.1c-0.2,0-0.4-0.1-0.6-0.2c-0.1-0.1-0.2-0.3-0.2-0.6v-0.5
			c0-0.2,0.1-0.4,0.2-0.6s0.3-0.2,0.6-0.2h16.5c0.3,0,0.5,0.1,0.6,0.2c0.1,0.1,0.2,0.3,0.2,0.6v0.5c0,0.2-0.1,0.4-0.2,0.6
			c-0.2,0.1-0.4,0.2-0.6,0.2h-7.1v22.2c0,0.2-0.1,0.4-0.2,0.6c-0.2,0.1-0.4,0.2-0.6,0.2h-0.6C124,87.7,123.8,87.6,123.6,87.5z"/>
		<path d="M138.2,87.5c-0.1-0.1-0.2-0.3-0.2-0.6V63.3c0-0.2,0.1-0.4,0.2-0.6s0.3-0.2,0.6-0.2h0.6c0.3,0,0.5,0.1,0.6,0.2
			c0.1,0.1,0.2,0.3,0.2,0.6v10.5h13.9V63.3c0-0.2,0.1-0.4,0.2-0.6s0.3-0.2,0.6-0.2h0.6c0.3,0,0.5,0.1,0.6,0.2
			c0.1,0.1,0.2,0.3,0.2,0.6v23.6c0,0.2-0.1,0.4-0.2,0.6c-0.2,0.1-0.4,0.2-0.6,0.2h-0.6c-0.2,0-0.4-0.1-0.6-0.2
			c-0.1-0.1-0.2-0.3-0.2-0.6V76h-13.9v10.9c0,0.2-0.1,0.4-0.2,0.6c-0.2,0.1-0.4,0.2-0.6,0.2h-0.6C138.5,87.7,138.3,87.6,138.2,87.5z
			"/>
		<path d="M163.4,87.5c-0.1-0.1-0.2-0.3-0.2-0.6V63.3c0-0.2,0.1-0.4,0.2-0.6c0.1-0.1,0.3-0.2,0.6-0.2h0.7c0.2,0,0.4,0.1,0.6,0.2
			c0.1,0.1,0.2,0.3,0.2,0.6v23.6c0,0.2-0.1,0.4-0.2,0.6c-0.1,0.1-0.3,0.2-0.6,0.2h-0.7C163.7,87.7,163.5,87.6,163.4,87.5z"/>
		<path d="M170.5,87.5c-0.1-0.2-0.2-0.4-0.2-0.6v-0.7c0-0.4,0.1-0.7,0.3-1c0.2-0.2,0.3-0.4,0.3-0.4L185,64.7h-13.6
			c-0.2,0-0.4-0.1-0.6-0.2c-0.1-0.1-0.2-0.3-0.2-0.6v-0.5c0-0.2,0.1-0.4,0.2-0.6c0.1-0.2,0.3-0.2,0.6-0.2H187c0.3,0,0.5,0.1,0.6,0.2
			c0.1,0.1,0.2,0.3,0.2,0.6v0.7c0,0.3,0,0.5-0.1,0.7c-0.1,0.2-0.2,0.4-0.3,0.6l-14.1,20.2h14.1c0.3,0,0.5,0.1,0.6,0.2
			c0.1,0.1,0.2,0.3,0.2,0.6v0.5c0,0.2-0.1,0.4-0.2,0.6c-0.2,0.1-0.4,0.2-0.6,0.2h-16.2C170.9,87.7,170.7,87.6,170.5,87.5z"/>
		<path d="M193.3,87.5c-0.1-0.1-0.2-0.3-0.2-0.6V63.3c0-0.2,0.1-0.4,0.2-0.6c0.1-0.2,0.3-0.2,0.6-0.2h14c0.3,0,0.5,0.1,0.6,0.2
			c0.1,0.1,0.2,0.3,0.2,0.6v0.5c0,0.2-0.1,0.4-0.2,0.6c-0.2,0.1-0.4,0.2-0.6,0.2h-12.6v9.2h11.8c0.3,0,0.5,0.1,0.6,0.2
			c0.1,0.1,0.2,0.3,0.2,0.6v0.5c0,0.2-0.1,0.4-0.2,0.6s-0.4,0.2-0.6,0.2h-11.8v9.5h12.9c0.3,0,0.5,0.1,0.6,0.2
			c0.1,0.1,0.2,0.3,0.2,0.6v0.5c0,0.2-0.1,0.4-0.2,0.6c-0.2,0.1-0.4,0.2-0.6,0.2h-14.3C193.6,87.7,193.4,87.6,193.3,87.5z"/>
	</g>
</g>
<g>
	<g class="st3">
		<path class="st4" d="M390.4,83.2c0-13.9,7.7-21.7,18-21.7c10.4,0,18,7.9,18,21.7s-7.6,21.7-18,21.7
			C398.1,105,390.4,97.1,390.4,83.2z M416.6,83.2c0-9.5-3.4-13.5-8.2-13.5c-4.8,0-8.2,4-8.2,13.5c0,9.5,3.4,13.5,8.2,13.5
			C413.3,96.7,416.6,92.8,416.6,83.2z"/>
	</g>
	<g class="st3">
		<path class="st4" d="M461.6,91.4c0,7.1-5.5,13.6-17.4,13.6c-5.9,0-11.9-1.6-16-4.5l3.8-7.4c3.2,2.4,7.6,3.8,12,3.8
			c4.9,0,7.9-2,7.9-5.4c0-3.2-2.3-5.2-7.9-5.2h-4.4v-6.4l8.6-9.8h-17.9v-7.8h29.4v6.3l-9.5,10.8C457.7,80.5,461.6,85.2,461.6,91.4z"
			/>
	</g>
	<g class="st3">
		<path d="M391.7,147.2c-0.1-0.1-0.2-0.3-0.2-0.6V123c0-0.2,0.1-0.4,0.2-0.6c0.1-0.1,0.3-0.2,0.6-0.2h0.7c0.2,0,0.4,0.1,0.6,0.2
			c0.1,0.1,0.2,0.3,0.2,0.6v23.6c0,0.2-0.1,0.4-0.2,0.6c-0.1,0.1-0.3,0.2-0.6,0.2h-0.7C392,147.4,391.8,147.4,391.7,147.2z"/>
		<path d="M400.7,147.2c-0.1-0.1-0.2-0.3-0.2-0.6v-23.6c0-0.2,0.1-0.4,0.2-0.6s0.3-0.2,0.6-0.2h7.7c2.5,0,4.5,0.4,5.9,1.1
			c1.5,0.7,2.5,1.8,3.1,3.2c0.6,1.4,0.9,3.2,1,5.4c0,0.7,0,1.7,0,2.8c0,1.2,0,2.2,0,2.9c0,2.3-0.4,4.2-1,5.6c-0.6,1.4-1.6,2.5-3,3.2
			s-3.3,1-5.8,1h-7.8C401,147.4,400.8,147.4,400.7,147.2z M408.9,145.3c1.9,0,3.4-0.3,4.5-0.8c1.1-0.5,1.9-1.3,2.4-2.4
			c0.5-1.1,0.8-2.6,0.8-4.6c0-0.7,0-1.6,0-2.7c0-1.1,0-1.9,0-2.7c0-2.7-0.7-4.6-1.9-5.9s-3.2-1.9-6-1.9h-6v20.9H408.9z"/>
		<path d="M425.1,147.2c-0.1-0.1-0.2-0.3-0.2-0.6v-23.6c0-0.2,0.1-0.4,0.2-0.6s0.3-0.2,0.6-0.2h14c0.3,0,0.5,0.1,0.6,0.2
			c0.1,0.1,0.2,0.3,0.2,0.6v0.5c0,0.2-0.1,0.4-0.2,0.6c-0.2,0.1-0.4,0.2-0.6,0.2h-12.6v9.2h11.8c0.3,0,0.5,0.1,0.6,0.2
			c0.1,0.1,0.2,0.3,0.2,0.6v0.5c0,0.2-0.1,0.4-0.2,0.6s-0.4,0.2-0.6,0.2h-11.8v9.5H440c0.3,0,0.5,0.1,0.6,0.2
			c0.1,0.1,0.2,0.3,0.2,0.6v0.5c0,0.2-0.1,0.4-0.2,0.6c-0.2,0.1-0.4,0.2-0.6,0.2h-14.3C425.4,147.4,425.2,147.4,425.1,147.2z"/>
	</g>
	<g class="st3">
		<path d="M443.9,147.2c-0.1-0.1-0.2-0.3-0.2-0.5l0.1-0.4l9.1-23.4c0.2-0.5,0.5-0.7,1-0.7h1.2c0.5,0,0.9,0.2,1,0.7l9.1,23.4l0.1,0.4
			c0,0.2-0.1,0.4-0.2,0.5c-0.1,0.1-0.3,0.2-0.5,0.2h-0.7c-0.2,0-0.4-0.1-0.5-0.2c-0.1-0.1-0.2-0.2-0.3-0.4l-2.2-5.8h-12.7l-2.2,5.8
			c0,0.1-0.1,0.2-0.3,0.4c-0.1,0.1-0.3,0.2-0.5,0.2h-0.7C444.2,147.4,444,147.4,443.9,147.2z M460,139l-5.5-14.2L449,139H460z"/>
	</g>
	<g class="st3">
		<path d="M472.6,147.2c-0.1-0.1-0.2-0.3-0.2-0.6v-22.2h-7.1c-0.2,0-0.4-0.1-0.6-0.2c-0.1-0.1-0.2-0.3-0.2-0.6v-0.5
			c0-0.2,0.1-0.4,0.2-0.6s0.3-0.2,0.6-0.2h16.5c0.3,0,0.5,0.1,0.6,0.2c0.1,0.1,0.2,0.3,0.2,0.6v0.5c0,0.2-0.1,0.4-0.2,0.6
			c-0.2,0.1-0.4,0.2-0.6,0.2h-7.1v22.2c0,0.2-0.1,0.4-0.2,0.6c-0.2,0.1-0.4,0.2-0.6,0.2h-0.6C472.9,147.4,472.7,147.4,472.6,147.2z"
			/>
		<path d="M487.1,147.2c-0.1-0.1-0.2-0.3-0.2-0.6v-23.6c0-0.2,0.1-0.4,0.2-0.6s0.3-0.2,0.6-0.2h14c0.3,0,0.5,0.1,0.6,0.2
			c0.1,0.1,0.2,0.3,0.2,0.6v0.5c0,0.2-0.1,0.4-0.2,0.6c-0.2,0.1-0.4,0.2-0.6,0.2h-12.6v9.2H501c0.3,0,0.5,0.1,0.6,0.2
			c0.1,0.1,0.2,0.3,0.2,0.6v0.5c0,0.2-0.1,0.4-0.2,0.6c-0.2,0.1-0.4,0.2-0.6,0.2h-11.8v9.5H502c0.3,0,0.5,0.1,0.6,0.2
			c0.1,0.1,0.2,0.3,0.2,0.6v0.5c0,0.2-0.1,0.4-0.2,0.6c-0.2,0.1-0.4,0.2-0.6,0.2h-14.3C487.5,147.4,487.3,147.4,487.1,147.2z"/>
	</g>
</g>
<g>
	<g class="st3">
		<path class="st4" d="M629.1,343.4c0-13.9,7.7-21.7,18-21.7c10.4,0,18,7.9,18,21.7s-7.6,21.7-18,21.7
			C636.8,365.1,629.1,357.2,629.1,343.4z M655.3,343.4c0-9.5-3.4-13.5-8.2-13.5c-4.8,0-8.2,4-8.2,13.5c0,9.5,3.4,13.5,8.2,13.5
			C652,356.8,655.3,352.9,655.3,343.4z"/>
		<path class="st4" d="M708.3,355.5h-6.8v8.8H692v-8.8h-22.6V349l19.8-26.6h10.2L681,347.6h11.3v-7.9h9.2v7.9h6.8V355.5z"/>
	</g>
	<g class="st3">
		<path d="M630.4,407.3c-0.1-0.1-0.2-0.3-0.2-0.6v-23.6c0-0.2,0.1-0.4,0.2-0.6c0.1-0.2,0.3-0.2,0.6-0.2h8.7c2.6,0,4.6,0.6,6.1,1.9
			c1.5,1.3,2.2,3.1,2.2,5.5c0,2.4-0.7,4.2-2.2,5.5c-1.5,1.3-3.5,1.9-6.1,1.9h-7.3v9.5c0,0.2-0.1,0.4-0.2,0.6
			c-0.2,0.1-0.4,0.2-0.6,0.2H631C630.7,407.5,630.5,407.5,630.4,407.3z M639.5,395.1c2.1,0,3.6-0.5,4.6-1.3c1-0.9,1.5-2.2,1.5-3.9
			c0-1.7-0.5-3-1.5-3.9c-1-0.9-2.6-1.3-4.6-1.3h-7.1v10.6H639.5z"/>
		<path d="M653,407.3c-0.1-0.1-0.2-0.3-0.2-0.6v-23.6c0-0.2,0.1-0.4,0.2-0.6c0.1-0.2,0.3-0.2,0.6-0.2h8.4c2.6,0,4.6,0.6,6.1,1.8
			c1.5,1.2,2.2,3,2.2,5.4c0,1.9-0.5,3.4-1.4,4.6c-0.9,1.2-2.3,2-4,2.4l5.8,9.9c0.1,0.1,0.1,0.3,0.1,0.4c0,0.2-0.1,0.4-0.2,0.5
			c-0.1,0.1-0.3,0.2-0.5,0.2h-0.4c-0.4,0-0.6-0.1-0.8-0.2c-0.2-0.2-0.4-0.4-0.6-0.7l-5.7-9.7H655v9.9c0,0.2-0.1,0.4-0.2,0.6
			c-0.2,0.1-0.4,0.2-0.6,0.2h-0.6C653.3,407.5,653.1,407.5,653,407.3z M661.8,394.7c2.1,0,3.6-0.4,4.7-1.3c1-0.9,1.5-2.1,1.5-3.8
			s-0.5-3-1.5-3.8c-1-0.9-2.6-1.3-4.7-1.3H655v10.2H661.8z"/>
	</g>
	<g class="st3">
		<path d="M674.9,398c0-0.7,0-1.7,0-3c0-1.3,0-2.3,0-3c0.1-3.3,1-5.7,2.7-7.4c1.7-1.7,4-2.5,6.8-2.5s5.2,0.8,6.8,2.5
			c1.7,1.7,2.6,4.2,2.7,7.4c0,1.4,0.1,2.4,0.1,3c0,0.6,0,1.6-0.1,3c-0.2,6.6-3.3,9.9-9.5,9.9C678.2,407.9,675,404.6,674.9,398z
			 M689.5,403.8c1.3-1.3,2-3.3,2.1-6c0-1.4,0.1-2.4,0.1-2.8s0-1.4-0.1-2.8c-0.1-2.7-0.8-4.7-2.1-6c-1.3-1.3-3-2-5.1-2
			c-2.1,0-3.9,0.7-5.1,2c-1.3,1.3-2,3.3-2.1,6c0,0.7,0,1.7,0,2.8s0,2.1,0,2.8c0.1,2.7,0.8,4.7,2.1,6c1.3,1.3,3,2,5.2,2
			S688.2,405.1,689.5,403.8z"/>
		<path d="M703.4,407.3c-0.1-0.1-0.2-0.3-0.2-0.6v-22.2H696c-0.2,0-0.4-0.1-0.6-0.2c-0.1-0.1-0.2-0.3-0.2-0.6v-0.5
			c0-0.2,0.1-0.4,0.2-0.6c0.1-0.2,0.3-0.2,0.6-0.2h16.5c0.3,0,0.5,0.1,0.6,0.2c0.1,0.1,0.2,0.3,0.2,0.6v0.5c0,0.2-0.1,0.4-0.2,0.6
			c-0.2,0.1-0.4,0.2-0.6,0.2h-7.1v22.2c0,0.2-0.1,0.4-0.2,0.6c-0.2,0.1-0.4,0.2-0.6,0.2h-0.6C703.7,407.5,703.5,407.5,703.4,407.3z"
			/>
	</g>
	<g class="st3">
		<path d="M716.1,398c0-0.7,0-1.7,0-3c0-1.3,0-2.3,0-3c0.1-3.3,1-5.7,2.7-7.4c1.7-1.7,4-2.5,6.8-2.5c2.9,0,5.2,0.8,6.8,2.5
			c1.7,1.7,2.6,4.2,2.7,7.4c0,1.4,0.1,2.4,0.1,3c0,0.6,0,1.6-0.1,3c-0.2,6.6-3.3,9.9-9.5,9.9C719.5,407.9,716.3,404.6,716.1,398z
			 M730.8,403.8c1.3-1.3,2-3.3,2.1-6c0-1.4,0.1-2.4,0.1-2.8s0-1.4-0.1-2.8c-0.1-2.7-0.8-4.7-2.1-6c-1.3-1.3-3-2-5.1-2
			c-2.1,0-3.9,0.7-5.1,2c-1.3,1.3-2,3.3-2.1,6c0,0.7,0,1.7,0,2.8s0,2.1,0,2.8c0.1,2.7,0.8,4.7,2.1,6c1.3,1.3,3,2,5.2,2
			S729.5,405.1,730.8,403.8z"/>
	</g>
	<g class="st3">
		<path d="M747.4,407.3c-0.1-0.1-0.2-0.3-0.2-0.6v-22.2h-7.1c-0.2,0-0.4-0.1-0.6-0.2c-0.1-0.1-0.2-0.3-0.2-0.6v-0.5
			c0-0.2,0.1-0.4,0.2-0.6c0.1-0.2,0.3-0.2,0.6-0.2h16.5c0.3,0,0.5,0.1,0.6,0.2c0.1,0.1,0.2,0.3,0.2,0.6v0.5c0,0.2-0.1,0.4-0.2,0.6
			c-0.2,0.1-0.4,0.2-0.6,0.2h-7.1v22.2c0,0.2-0.1,0.4-0.2,0.6c-0.2,0.1-0.4,0.2-0.6,0.2H748C747.8,407.5,747.6,407.5,747.4,407.3z"
			/>
		<path d="M768.8,407.3c-0.1-0.1-0.2-0.3-0.2-0.6v-8.8l-8.8-14.4c-0.1-0.2-0.1-0.3-0.1-0.5c0-0.2,0.1-0.4,0.2-0.5
			c0.1-0.1,0.3-0.2,0.5-0.2h0.7c0.3,0,0.6,0.2,0.8,0.5l7.8,12.7l7.8-12.7c0.2-0.4,0.5-0.5,0.8-0.5h0.7c0.2,0,0.4,0.1,0.5,0.2
			c0.1,0.1,0.2,0.3,0.2,0.5c0,0.1,0,0.3-0.1,0.5l-8.8,14.4v8.8c0,0.2-0.1,0.4-0.2,0.6c-0.2,0.1-0.4,0.2-0.6,0.2h-0.7
			C769.1,407.5,769,407.5,768.8,407.3z"/>
		<path d="M784.7,407.3c-0.1-0.1-0.2-0.3-0.2-0.6v-23.6c0-0.2,0.1-0.4,0.2-0.6c0.1-0.2,0.3-0.2,0.6-0.2h8.7c2.6,0,4.6,0.6,6.1,1.9
			c1.5,1.3,2.2,3.1,2.2,5.5c0,2.4-0.7,4.2-2.2,5.5s-3.5,1.9-6.1,1.9h-7.3v9.5c0,0.2-0.1,0.4-0.2,0.6c-0.2,0.1-0.4,0.2-0.6,0.2h-0.6
			C785.1,407.5,784.9,407.5,784.7,407.3z M793.9,395.1c2.1,0,3.6-0.5,4.6-1.3c1-0.9,1.5-2.2,1.5-3.9c0-1.7-0.5-3-1.5-3.9
			c-1-0.9-2.6-1.3-4.6-1.3h-7.1v10.6H793.9z"/>
		<path d="M807.3,407.3c-0.1-0.1-0.2-0.3-0.2-0.6v-23.6c0-0.2,0.1-0.4,0.2-0.6c0.1-0.2,0.3-0.2,0.6-0.2h14c0.3,0,0.5,0.1,0.6,0.2
			c0.1,0.1,0.2,0.3,0.2,0.6v0.5c0,0.2-0.1,0.4-0.2,0.6c-0.2,0.1-0.4,0.2-0.6,0.2h-12.6v9.2h11.8c0.3,0,0.5,0.1,0.6,0.2
			c0.1,0.1,0.2,0.3,0.2,0.6v0.5c0,0.2-0.1,0.4-0.2,0.6s-0.4,0.2-0.6,0.2h-11.8v9.5h12.9c0.3,0,0.5,0.1,0.6,0.2
			c0.1,0.1,0.2,0.3,0.2,0.6v0.5c0,0.2-0.1,0.4-0.2,0.6c-0.2,0.1-0.4,0.2-0.6,0.2h-14.3C807.7,407.5,807.5,407.5,807.3,407.3z"/>
	</g>
</g>
<g>
	<g class="st3">
		<path class="st4" d="M887.8,38.6c0-13.9,7.7-21.7,18-21.7c10.4,0,18,7.9,18,21.7s-7.6,21.7-18,21.7
			C895.5,60.3,887.8,52.5,887.8,38.6z M914.1,38.6c0-9.5-3.4-13.5-8.2-13.5c-4.8,0-8.2,4-8.2,13.5c0,9.5,3.4,13.5,8.2,13.5
			C910.7,52.1,914.1,48.1,914.1,38.6z"/>
		<path class="st4" d="M960.3,46.4c0,7.4-5.5,13.9-17.5,13.9c-5.8,0-11.9-1.6-16-4.5l3.8-7.4c3.2,2.4,7.6,3.8,11.9,3.8
			c4.9,0,7.9-2,7.9-5.5c0-3.3-2.2-5.5-9.8-5.5H930l2.2-23.6h25.6v7.8h-17.5l-0.7,8h3.4C955.4,33.4,960.3,39,960.3,46.4z"/>
	</g>
	<g class="st3">
		<path d="M894.6,102.6c-0.1-0.1-0.2-0.3-0.2-0.6V79.8h-7.1c-0.2,0-0.4-0.1-0.6-0.2c-0.1-0.1-0.2-0.3-0.2-0.6v-0.5
			c0-0.2,0.1-0.4,0.2-0.6c0.1-0.2,0.3-0.2,0.6-0.2h16.5c0.3,0,0.5,0.1,0.6,0.2c0.1,0.1,0.2,0.3,0.2,0.6V79c0,0.2-0.1,0.4-0.2,0.6
			c-0.2,0.1-0.4,0.2-0.6,0.2h-7.1V102c0,0.2-0.1,0.4-0.2,0.6c-0.2,0.1-0.4,0.2-0.6,0.2h-0.6C895,102.8,894.8,102.7,894.6,102.6z"/>
		<path d="M909.2,102.6c-0.1-0.1-0.2-0.3-0.2-0.6V78.4c0-0.2,0.1-0.4,0.2-0.6c0.1-0.2,0.3-0.2,0.6-0.2h14c0.3,0,0.5,0.1,0.6,0.2
			c0.1,0.1,0.2,0.3,0.2,0.6V79c0,0.2-0.1,0.4-0.2,0.6c-0.2,0.1-0.4,0.2-0.6,0.2h-12.6v9.2H923c0.3,0,0.5,0.1,0.6,0.2
			c0.1,0.1,0.2,0.3,0.2,0.6v0.5c0,0.2-0.1,0.4-0.2,0.6c-0.2,0.1-0.4,0.2-0.6,0.2h-11.8v9.5h12.9c0.3,0,0.5,0.1,0.6,0.2
			c0.1,0.1,0.2,0.3,0.2,0.6v0.5c0,0.2-0.1,0.4-0.2,0.6c-0.2,0.1-0.4,0.2-0.6,0.2h-14.3C909.5,102.8,909.3,102.7,909.2,102.6z"/>
	</g>
	<g class="st3">
		<path d="M932.9,102.2c-1.4-0.6-2.4-1.4-3.2-2.4c-0.7-1-1.1-2-1.2-3.2c0-0.2,0.1-0.4,0.2-0.5c0.1-0.1,0.3-0.2,0.5-0.2h0.7
			c0.4,0,0.7,0.2,0.8,0.7c0.2,1.2,0.8,2.2,2,3c1.2,0.9,2.8,1.3,5,1.3c2.3,0,4-0.4,5.1-1.2c1.1-0.8,1.7-2,1.7-3.5
			c0-0.9-0.3-1.7-0.8-2.2s-1.3-1.1-2.4-1.5c-1-0.4-2.6-1-4.7-1.7c-1.8-0.6-3.3-1.2-4.3-1.8s-1.8-1.3-2.3-2.1
			c-0.5-0.8-0.8-1.9-0.8-3.2c0-1.2,0.3-2.3,1-3.3s1.6-1.8,2.9-2.3c1.2-0.6,2.7-0.8,4.5-0.8c1.8,0,3.3,0.3,4.6,1
			c1.3,0.6,2.2,1.4,2.9,2.4c0.6,1,1,2,1,2.9c0,0.2-0.1,0.4-0.2,0.5c-0.1,0.1-0.3,0.2-0.6,0.2h-0.7c-0.2,0-0.3-0.1-0.5-0.2
			c-0.2-0.1-0.3-0.3-0.3-0.6c-0.1-1.2-0.8-2.2-1.9-3c-1.1-0.8-2.6-1.2-4.3-1.2c-1.8,0-3.3,0.4-4.4,1.1c-1.1,0.7-1.6,1.8-1.6,3.2
			c0,0.9,0.2,1.7,0.7,2.3c0.5,0.6,1.2,1.1,2.2,1.6c1,0.4,2.4,1,4.4,1.6c2,0.6,3.5,1.2,4.6,1.8c1.1,0.6,1.9,1.3,2.5,2.1
			c0.6,0.8,0.8,1.9,0.8,3.2c0,2.2-0.8,3.8-2.4,5.1c-1.6,1.2-3.8,1.8-6.6,1.8C935.9,103.2,934.3,102.9,932.9,102.2z"/>
	</g>
	<g class="st3">
		<path d="M957.5,102.6c-0.1-0.1-0.2-0.3-0.2-0.6V79.8h-7.1c-0.2,0-0.4-0.1-0.6-0.2c-0.1-0.1-0.2-0.3-0.2-0.6v-0.5
			c0-0.2,0.1-0.4,0.2-0.6c0.1-0.2,0.3-0.2,0.6-0.2h16.5c0.3,0,0.5,0.1,0.6,0.2c0.1,0.1,0.2,0.3,0.2,0.6V79c0,0.2-0.1,0.4-0.2,0.6
			c-0.2,0.1-0.4,0.2-0.6,0.2h-7.1V102c0,0.2-0.1,0.4-0.2,0.6c-0.2,0.1-0.4,0.2-0.6,0.2h-0.6C957.8,102.8,957.6,102.7,957.5,102.6z"
			/>
	</g>
</g>
<circle class="st1" cx="299.4" cy="347.3" r="77.9"/>
<path class="st2" d="M299.4,280.1c37.1,0,67.2,30.1,67.2,67.2s-30.1,67.2-67.2,67.2s-67.2-30.1-67.2-67.2l0,0l0,0
	C232.2,310.2,262.3,280.2,299.4,280.1 M299.4,258.6c-49,0-88.7,39.7-88.7,88.7s39.7,88.7,88.7,88.7s88.7-39.7,88.7-88.7
	S348.4,258.6,299.4,258.6L299.4,258.6z"/>
<g>
	<g class="st3">
		<path class="st4" d="M104.9,319.2c0-13.9,7.7-21.7,18-21.7c10.4,0,18,7.9,18,21.7s-7.6,21.7-18,21.7
			C112.6,340.9,104.9,333,104.9,319.2z M131.1,319.2c0-9.5-3.4-13.5-8.2-13.5c-4.8,0-8.2,4-8.2,13.5c0,9.5,3.4,13.5,8.2,13.5
			C127.8,332.7,131.1,328.7,131.1,319.2z"/>
	</g>
	<g class="st3">
		<path class="st4" d="M176.7,332.2v7.9h-31.7v-6.3l16.2-15.3c3.7-3.5,4.4-5.7,4.4-7.7c0-3.3-2.3-5.2-6.7-5.2
			c-3.6,0-6.7,1.4-8.7,4.2l-7.1-4.6c3.2-4.7,9.1-7.8,16.7-7.8c9.4,0,15.6,4.8,15.6,12.4c0,4.1-1.1,7.8-7,13.3l-9.7,9.1H176.7z"/>
	</g>
	<g class="st3">
		<path d="M106.2,383.1c-0.1-0.1-0.2-0.3-0.2-0.6V359c0-0.2,0.1-0.4,0.2-0.6s0.3-0.2,0.6-0.2h7.7c2.5,0,4.5,0.4,5.9,1.1
			c1.5,0.7,2.5,1.8,3.1,3.2c0.6,1.4,0.9,3.2,1,5.4c0,0.7,0,1.7,0,2.8c0,1.2,0,2.2,0,2.9c0,2.3-0.4,4.2-1,5.6c-0.6,1.4-1.6,2.5-3,3.2
			s-3.3,1-5.8,1h-7.8C106.5,383.3,106.3,383.3,106.2,383.1z M114.4,381.2c1.9,0,3.4-0.3,4.5-0.8c1.1-0.5,1.9-1.3,2.4-2.4
			c0.5-1.1,0.8-2.6,0.8-4.6c0-0.7,0-1.6,0-2.7c0-1.1,0-1.9,0-2.7c0-2.7-0.7-4.6-1.9-5.9s-3.2-1.9-6-1.9h-6v20.9H114.4z"/>
		<path d="M130.5,383.1c-0.1-0.1-0.2-0.3-0.2-0.6V359c0-0.2,0.1-0.4,0.2-0.6s0.3-0.2,0.6-0.2h14c0.3,0,0.5,0.1,0.6,0.2
			c0.1,0.1,0.2,0.3,0.2,0.6v0.5c0,0.2-0.1,0.4-0.2,0.6c-0.2,0.1-0.4,0.2-0.6,0.2h-12.6v9.2h11.8c0.3,0,0.5,0.1,0.6,0.2
			c0.1,0.1,0.2,0.3,0.2,0.6v0.5c0,0.2-0.1,0.4-0.2,0.6c-0.2,0.1-0.4,0.2-0.6,0.2h-11.8v9.5h12.9c0.3,0,0.5,0.1,0.6,0.2
			c0.1,0.1,0.2,0.3,0.2,0.6v0.5c0,0.2-0.1,0.4-0.2,0.6c-0.2,0.1-0.4,0.2-0.6,0.2h-14.3C130.9,383.3,130.7,383.3,130.5,383.1z"/>
		<path d="M151.9,383.1c-0.1-0.1-0.2-0.3-0.2-0.6V359c0-0.2,0.1-0.4,0.2-0.6s0.3-0.2,0.6-0.2h13.9c0.3,0,0.5,0.1,0.6,0.2
			c0.1,0.1,0.2,0.3,0.2,0.6v0.5c0,0.2-0.1,0.4-0.2,0.6c-0.2,0.1-0.4,0.2-0.6,0.2h-12.4v9.7h11.7c0.3,0,0.5,0.1,0.6,0.2
			c0.1,0.1,0.2,0.3,0.2,0.6v0.5c0,0.2-0.1,0.4-0.2,0.6c-0.2,0.1-0.4,0.2-0.6,0.2h-11.7v10.4c0,0.2-0.1,0.4-0.2,0.6
			c-0.2,0.1-0.4,0.2-0.6,0.2h-0.6C152.2,383.3,152,383.3,151.9,383.1z"/>
		<path d="M172.4,383.1c-0.1-0.1-0.2-0.3-0.2-0.6v-23.6c0-0.2,0.1-0.4,0.2-0.6c0.1-0.1,0.3-0.2,0.6-0.2h0.7c0.2,0,0.4,0.1,0.6,0.2
			c0.1,0.1,0.2,0.3,0.2,0.6v23.6c0,0.2-0.1,0.4-0.2,0.6c-0.1,0.1-0.3,0.2-0.6,0.2h-0.7C172.7,383.3,172.5,383.3,172.4,383.1z"/>
		<path d="M181.4,383.1c-0.1-0.1-0.2-0.3-0.2-0.6V359c0-0.2,0.1-0.4,0.2-0.6c0.1-0.2,0.3-0.2,0.6-0.2h0.8c0.3,0,0.6,0.1,0.8,0.4
			l13.3,20.3V359c0-0.2,0.1-0.4,0.2-0.6c0.1-0.2,0.3-0.2,0.6-0.2h0.6c0.3,0,0.5,0.1,0.6,0.2c0.1,0.1,0.2,0.3,0.2,0.6v23.5
			c0,0.2-0.1,0.4-0.2,0.6c-0.1,0.2-0.3,0.2-0.6,0.2h-0.8c-0.3,0-0.6-0.1-0.8-0.4l-13.2-20.2v19.9c0,0.2-0.1,0.4-0.2,0.6
			c-0.2,0.1-0.4,0.2-0.6,0.2H182C181.7,383.3,181.6,383.3,181.4,383.1z"/>
		<path d="M206,383.1c-0.1-0.1-0.2-0.3-0.2-0.6V359c0-0.2,0.1-0.4,0.2-0.6c0.1-0.2,0.3-0.2,0.6-0.2h14c0.3,0,0.5,0.1,0.6,0.2
			c0.1,0.1,0.2,0.3,0.2,0.6v0.5c0,0.2-0.1,0.4-0.2,0.6c-0.2,0.1-0.4,0.2-0.6,0.2h-12.6v9.2h11.8c0.3,0,0.5,0.1,0.6,0.2
			c0.1,0.1,0.2,0.3,0.2,0.6v0.5c0,0.2-0.1,0.4-0.2,0.6s-0.4,0.2-0.6,0.2h-11.8v9.5h12.9c0.3,0,0.5,0.1,0.6,0.2
			c0.1,0.1,0.2,0.3,0.2,0.6v0.5c0,0.2-0.1,0.4-0.2,0.6c-0.2,0.1-0.4,0.2-0.6,0.2h-14.3C206.4,383.3,206.2,383.3,206,383.1z"/>
	</g>
</g>
<path class="st5" d="M108,109.4c3.2,0,6.3,1.4,8.6,3.7c1.4,1.3,2.7,2.8,4.1,4.3c0.7,0.7,1.3,1.5,2,2.2l3.8,4.1l3.6-4.2l0.5-0.6
	c0.4-0.4,0.8-0.9,1.2-1.4c1.7-2.1,3.6-4.1,5.8-5.8c2.1-1.6,4.7-2.4,7.3-2.4c2.7,0,5.3,0.9,7.4,2.6c3.1,2.6,4.4,5.9,4.1,10.3
	c-0.3,3.9-1.9,7.5-5.2,11.6c-3.3,4-6.9,7.7-10.9,11c-3.9,3.3-7.9,6.7-11.8,10l-2.3,1.9l-1.2-1.1l-2.5-2.1c-3.3-2.8-6.6-5.6-9.9-8.4
	c-4-3.4-7.7-7.1-11.1-11.1c-2-2.3-3.6-5-4.6-7.9c-1.1-3.7-1.1-6.7-0.1-9.4c1.3-3.7,4.5-6.5,8.4-7.1
	C106.2,109.5,107.1,109.4,108,109.4 M108,104.4c-1.2,0-2.4,0.1-3.6,0.4c-5.6,1-10.2,4.8-12.1,10.2c-1.7,4.2-1.4,8.5-0.1,12.7
	c1.2,3.5,3.1,6.8,5.5,9.6c3.5,4.2,7.4,8.1,11.6,11.7c4.1,3.6,8.3,7.1,12.4,10.6c1.5,1.3,3,2.5,4.6,3.7l0.4-0.3
	c5.6-4.8,11.3-9.4,16.9-14.2c4.2-3.5,8-7.4,11.5-11.6c3.4-4.2,5.9-8.8,6.3-14.4c0.4-5.8-1.4-10.7-5.8-14.5c-3-2.5-6.8-3.8-10.6-3.8
	c-3.7,0-7.3,1.2-10.3,3.4c-2.4,1.9-4.6,4.1-6.6,6.5c-0.6,0.7-1.1,1.3-1.6,1.9c-2.2-2.3-4.2-4.7-6.4-6.8
	C116.8,106.2,112.5,104.4,108,104.4L108,104.4z"/>
<path class="st6" d="M138.3,180.1c-7.7-0.1-15.7-3.8-22.2-10.8c-1-0.9-1.3-2.5-0.7-3.7c2.1-5.6,7.5-9.3,13.4-9.3
	c7.7-0.1,15.4-0.2,23.1,0c6.3,0.1,10.7,3.4,13.3,9.1c0.7,1.3,0.4,2.9-0.7,3.9C158.5,176.1,149.6,180.1,138.3,180.1z"/>
<path class="st6" d="M126.3,138.1c0-7.8,6.4-14.2,14.3-14.1s14.2,6.4,14.1,14.3c0,7.8-6.4,14.2-14.3,14.1c-7.8,0-14.1-6.3-14.1-14.1
	V138.1z"/>
<g id="MX2pyA">
	<path class="st5" d="M323.2,359.6v12.2c0.1,3.8-2.6,7-6.3,7.7c-0.5,0.1-1.1,0.1-1.6,0.1h-36.1c-2.5,0.1-4.9-1-6.5-3
		c-1.1-1.3-1.7-3-1.6-4.7v-48.3c0-3.6,1.3-6.3,4.5-7.9c1.2-0.5,2.5-0.8,3.8-0.7h36c3.9-0.1,7.2,2.8,7.7,6.6c0.2,1.4,0,2.8,0.1,4.1
		c0.2,1.9-0.4,3.9-1.7,5.3c-0.7,0.9-1.3,1.8-1.9,2.7c0-0.3,0-0.6,0-0.9v-9.7c0-2.9-1.6-4.6-4.6-4.6h-35.7c-1.6-0.2-3.1,0.6-3.9,1.9
		c-0.4,0.8-0.7,1.6-0.7,2.5v48.4c-0.1,1,0.2,2.1,0.8,2.9c0.8,1.1,2.1,1.7,3.5,1.7h36.1c2.3,0.2,4.3-1.6,4.5-3.9c0,0,0,0,0,0
		c0-0.2,0-0.4,0-0.6v-6.3c0-0.3,0.1-0.6,0.2-0.9c1-1.5,2-2.9,3-4.4C323,359.8,323.1,359.7,323.2,359.6z"/>
	<path class="st6" d="M318.4,361.2l-9.7-6.8l16.6-23.7l9.7,6.8L318.4,361.2z"/>
	<path class="st5" d="M297.1,328.5h13.8c1-0.1,1.8,0.6,1.9,1.5c0,0,0,0,0,0c0,0.1,0,0.3,0,0.5c-0.1,1-1,1.7-1.9,1.6h-27.5
		c-1,0.1-1.9-0.6-2-1.6c0,0,0,0,0,0c0-0.2,0-0.4,0-0.6c0.2-0.9,1-1.4,1.9-1.4L297.1,328.5L297.1,328.5z"/>
	<path class="st5" d="M297.1,343.4h-13.6c-0.9,0.1-1.8-0.5-2-1.3c-0.3-0.9,0.3-1.9,1.2-2.2c0.2-0.1,0.4-0.1,0.6-0.1h27.6
		c1-0.1,1.9,0.5,2.1,1.5c0.1,1-0.5,1.9-1.5,2.1c-0.1,0-0.1,0-0.2,0H297.1z"/>
	<path class="st5" d="M286.3,365l-2.4,3.1c-0.4,0.7-1.3,1-2,0.6c-0.7-0.4-1-1.3-0.6-2c0,0,0,0,0-0.1c0.1-0.1,0.2-0.3,0.3-0.4
		l3.4-4.5c0.9-1.2,1.9-1.2,2.8,0.1l1.7,2.5c0.4-0.8,0.7-1.5,1.1-2.3c0.2-0.6,0.7-1,1.3-1c0.6,0,1.2,0.3,1.5,0.8
		c0.7,1.1,1.4,2.2,2.1,3.3c0.2,0.4,0.6,0.6,1,0.6h4c1,0,1.7,0.6,1.7,1.5c0,0.8-0.6,1.4-1.4,1.5h-5.5c-0.6,0-1.2-0.3-1.5-0.9
		c-0.4-0.7-0.9-1.5-1.5-2.3l-1,2.1c-0.2,0.8-1,1.3-1.8,1c-0.4-0.1-0.8-0.4-1-0.8C287.7,367,287,366,286.3,365z"/>
	<path class="st6" d="M326.9,328.3c0.7-1,1.4-1.9,2.1-2.8c1.8-1.9,4.6-2.3,6.8-0.8c1.5,0.8,2.7,2.1,3.2,3.8c0.4,1.3,0.2,2.8-0.5,4
		c-0.5,0.9-1.2,1.8-1.8,2.7L326.9,328.3z"/>
	<path class="st6" d="M316.7,363.5c-0.2,0.2-0.5,0.3-0.7,0.5c-3,1.5-5.9,3-8.9,4.4c-0.4,0.4-1,0.3-1.4-0.1c-0.3-0.3-0.3-0.7-0.2-1
		c0.4-3.2,0.9-6.5,1.4-9.7c0-0.3,0.1-0.5,0.2-0.8L316.7,363.5z"/>
	<path class="st5" d="M283.2,351h13.9c1,0,1.8,0.8,1.8,1.8l0,0c0,1-0.8,1.8-1.8,1.8h-13.9c-1,0-1.8-0.8-1.8-1.8l0,0
		C281.4,351.8,282.2,351,283.2,351z"/>
</g>
<path class="st6" d="M550.4,226.3h-10.8c-1.3,0.1-2.4-0.7-2.7-1.9c-1.8-4.9-3.9-9.6-6.5-14.1c-5.8-10.4-2.2-23.5,8.2-29.3l0.2-0.1
	c9.7-5.6,21.9-3.5,29.3,4.9c3.7,4.2,5.6,9.6,5.2,15.2c-0.2,3.5-1.2,6.9-3,9.9c-2.4,4.3-4.5,8.8-6.2,13.4c-0.3,1.3-1.6,2.1-2.9,2
	L550.4,226.3z M550.4,221.9h9.3c0.3,0,0.6-0.2,0.7-0.5c1.7-4.4,3.7-8.7,6-12.8c1.5-2.5,2.3-5.4,2.4-8.4c0.2-3.6-0.9-7.2-3-10.1
	c-6-8.5-17.8-10.5-26.4-4.5c-0.3,0.2-0.7,0.5-1,0.7c-6.1,4.8-8.2,13.2-4.9,20.3c1,2.2,2.2,4.2,3.2,6.4c1.3,2.8,2.5,5.6,3.7,8.4
	c0.1,0.3,0.4,0.5,0.7,0.4H550.4z"/>
<path class="st6" d="M550.5,227.9h9.7c0.8-0.1,1.6,0.1,2.3,0.6c0.7,0.3,1,1.1,0.6,1.8c-0.1,0.3-0.4,0.5-0.6,0.6
	c-0.6,0.4-1.3,0.6-2,0.6h-20c-0.8,0-1.5-0.2-2.1-0.6c-0.6-0.3-0.9-1.1-0.6-1.7c0.1-0.3,0.3-0.5,0.6-0.6c0.6-0.3,1.2-0.5,1.8-0.6
	c2.7-0.1,5.3,0,8,0L550.5,227.9z"/>
<path class="st6" d="M550.4,236.4H542c-0.7,0-1.3-0.2-1.9-0.5c-0.6-0.4-0.8-1.1-0.5-1.8c0.1-0.2,0.3-0.4,0.5-0.5
	c0.4-0.3,0.9-0.5,1.5-0.6c0.4-0.1,0.8-0.1,1.2,0H558c0.9-0.1,1.8,0,2.6,0.3c0.6,0.2,0.9,0.7,1,1.3c0,0.6-0.3,1.1-0.9,1.3
	c-0.6,0.2-1.1,0.4-1.8,0.4C556.1,236.4,553.3,236.4,550.4,236.4z"/>
<path class="st6" d="M558.5,238.3c-3.6,4.5-10.1,5.2-14.6,1.6c-0.6-0.5-1.1-1-1.6-1.6H558.5z"/>
<path class="st5" d="M584.4,198.7h4.3c0.5-0.1,0.9,0.3,1,0.7c0.1,0.5,0.1,0.9,0,1.4c-0.1,0.6-0.5,0.8-1.1,0.8h-8.6
	c-0.7,0-1-0.2-1.1-0.9c-0.1-0.4-0.1-0.9,0-1.3c0.1-0.6,0.5-0.8,1.1-0.8L584.4,198.7z"/>
<path class="st5" d="M552,166.2v4.4c0,0.6-0.2,0.9-0.7,1c-0.5,0.1-1,0.1-1.5,0c-0.5-0.1-0.8-0.6-0.8-1.1v-8.6c0-0.6,0.2-0.9,0.7-1
	c0.5-0.1,1-0.1,1.5,0c0.5,0.1,0.8,0.5,0.8,1.1L552,166.2z"/>
<path class="st5" d="M516.6,198.7h4.3c0.4-0.1,0.9,0.2,1,0.6c0.2,0.5,0.2,1.1,0,1.7c-0.1,0.4-0.6,0.7-1,0.7h-8.7
	c-0.5,0.1-1.1-0.3-1.1-0.9l0,0c-0.1-0.4-0.1-0.8,0-1.2c0.1-0.5,0.6-0.9,1.1-0.8L516.6,198.7z"/>
<path class="st5" d="M526.1,185.2c-0.1,0.6-0.4,1.1-0.9,1.5c-0.3,0.2-0.7,0.2-1.1,0c-2.5-1.5-5.1-2.9-7.6-4.4
	c-0.4-0.2-0.6-0.6-0.5-1c0.1-0.6,0.4-1.2,0.9-1.5c0.3-0.2,0.8-0.2,1.1,0l7.7,4.4C526,184.4,526.2,184.8,526.1,185.2z"/>
<path class="st5" d="M526.1,215.2c0.1,0.4-0.1,0.8-0.5,1l-7.6,4.4c-0.3,0.2-0.7,0.2-1,0c-0.6-0.4-1-1-1-1.7c0-0.4,0.1-0.8,0.5-0.9
	c2.6-1.5,5.1-2.9,7.7-4.4c0.3-0.2,0.7-0.2,1,0C525.7,214,526.1,214.6,526.1,215.2z"/>
<path class="st5" d="M565.9,175.9c-0.8,0-1.5-0.4-1.9-1c-0.2-0.3-0.2-0.7,0-1c1.5-2.6,3-5.1,4.5-7.7c0.1-0.1,0.2-0.2,0.3-0.3
	c0.7-0.3,1.5-0.1,2,0.5c0.5,0.3,0.6,1,0.2,1.5l0,0c-1.3,2.3-2.6,4.5-3.9,6.8c-0.1,0.3-0.3,0.5-0.5,0.8
	C566.3,175.6,566.1,175.7,565.9,175.9z"/>
<path class="st5" d="M584.9,181.4c0,0.4-0.2,0.7-0.5,0.9c-2.5,1.4-5.1,2.9-7.6,4.4c-0.3,0.2-0.7,0.2-1,0c-0.6-0.4-0.9-1-0.9-1.6
	c0-0.4,0.2-0.7,0.5-0.9l7.7-4.4c0.3-0.2,0.7-0.2,1,0C584.5,180.1,584.9,180.7,584.9,181.4z"/>
<path class="st5" d="M584.9,219c0,0.7-0.4,1.3-1,1.7c-0.3,0.2-0.7,0.2-1,0c-1.7-1-3.4-2-5-2.9l-2.5-1.4c-0.1-0.1-0.2-0.1-0.3-0.2
	c-0.4-0.4-0.4-1.2,0.1-1.9s1-0.9,1.5-0.6c2.6,1.5,5.1,3,7.7,4.4C584.8,218.3,585,218.6,584.9,219z"/>
<path class="st5" d="M535.1,175.9c-0.2-0.1-0.5-0.3-0.6-0.5c-1.5-2.6-3-5.1-4.5-7.7c-0.1-0.3-0.1-0.6,0-0.8c0.3-0.7,1-1.1,1.8-1.1
	c0.3,0,0.7,0.2,0.8,0.5c1.5,2.6,2.9,5.1,4.4,7.7c0.2,0.3,0.2,0.7-0.1,1.1C536.5,175.5,535.8,175.9,535.1,175.9z"/>
<path class="st5" d="M553.3,220.5h-2c-0.1-4.7,0.2-9.3,1.1-13.9h-3.2c0.6,4.6,0.9,9.2,0.7,13.9h-2v-0.6c0-2.7,0-5.3-0.2-8
	c-0.1-1.7-0.4-3.4-0.5-5.1c0-0.3-0.2-0.5-0.5-0.5c-1.8-0.2-3.5-0.7-5.1-1.5c-1-0.5-1.8-1.2-2.4-2.1c-1-1.3-0.7-3.2,0.6-4.2
	c0.3-0.2,0.7-0.4,1.1-0.5c2.2-0.7,4.5,0.1,5.8,2c0.9,1.2,1.5,2.6,1.8,4.1c0,0.3,0.3,0.5,0.6,0.5h3.4c0.2,0,0.5-0.1,0.5-0.4
	c0.4-1.3,1.1-2.6,2-3.7c1.2-1.4,3-2.2,4.8-2c1.6,0,2.8,1.3,2.8,2.9c0,0,0,0,0,0c0,0.6-0.2,1.2-0.5,1.6c-0.7,1.1-1.8,1.9-3,2.3
	c-1.3,0.5-2.7,0.9-4.1,1c-0.3,0-0.6,0.2-0.7,0.6c-0.6,2.7-0.9,5.5-0.9,8.3c-0.1,1.6-0.1,3.2-0.1,4.8
	C553.4,220.2,553.4,220.4,553.3,220.5z M546.5,204.2c-0.3-1.2-0.9-2.4-1.7-3.4c-0.8-0.9-2.1-1.3-3.3-0.9c-0.5,0.1-0.9,0.6-0.8,1.2
	c0,0,0,0,0,0c0,0.2,0.1,0.4,0.3,0.5c0.2,0.2,0.4,0.4,0.6,0.6C543,203.3,544.7,204,546.5,204.2z M555.2,204.3c1.9-0.4,3.6-0.7,5-2
	c0.1-0.1,0.2-0.3,0.3-0.5c0.2-0.3,0.2-0.8-0.2-1.1c0,0,0,0,0,0c-0.1-0.1-0.3-0.1-0.5-0.1c-0.4,0-0.8,0-1.2,0.1
	C556.8,201.1,556,202.6,555.2,204.3z"/>
<path class="st7" d="M828,337.8c0,4.5-3.6,8.1-8.2,8.1l0,0h-33.4c-4.5,0-8.2-3.6-8.2-8.1l0,0l0,0v-69.1c0-4.5,3.7-8.2,8.2-8.2h33.5
	c4.5,0,8.2,3.7,8.2,8.2v19.8"/>
<path class="st6" d="M806.3,315.2v-4.5c0.4-1.5,1.9-2.5,3.4-2.2c0.4,0,0.9,0,1.3,0c1-0.1,1.9-0.7,2.2-1.7c0.4-0.9,0.2-2-0.5-2.7
	c-0.4-0.4-0.8-0.8-1.2-1.2c-1.1-1-1.1-2.8-0.1-3.9l0.1-0.1c0.8-0.8,1.7-1.6,2.5-2.5c1.1-1.1,2.9-1.1,4,0l0,0
	c0.4,0.4,0.7,0.8,1.1,1.1c0.7,0.7,1.8,0.9,2.8,0.5c1-0.4,1.7-1.3,1.6-2.4v-1.7c0-1.6,1.2-2.8,2.8-2.9c0,0,0,0,0,0h3.2
	c1.6-0.1,2.9,1.1,3,2.6c0,0,0,0,0,0c0,0.1,0,0.2,0,0.4v1.6c0.1,1.5,1.3,2.6,2.8,2.5c0.6,0,1.2-0.3,1.7-0.7c0.4-0.4,0.8-0.8,1.2-1.2
	c1.1-1.1,2.8-1.1,3.9,0c0.9,0.8,1.7,1.6,2.5,2.5c1.1,1,1.1,2.8,0.1,3.9c0,0,0,0,0,0l-0.1,0.1c-0.4,0.4-0.8,0.8-1.2,1.2
	c-0.7,0.7-0.9,1.7-0.6,2.6c0.3,1,1.1,1.7,2.2,1.7c0.6,0.1,1.2,0,1.9,0c1.4-0.1,2.6,0.9,2.7,2.3c0,0,0,0,0,0c0,0.1,0,0.1,0,0.2
	c0.1,1.3,0.1,2.6,0,3.8c0,1.4-1.1,2.6-2.6,2.6h-1.9c-1,0-1.9,0.7-2.2,1.6c-0.4,0.9-0.2,2,0.5,2.7c0.4,0.4,0.8,0.8,1.2,1.2
	c1.1,1.1,1.1,2.8,0.1,3.9l-0.1,0.1c-0.8,0.8-1.6,1.6-2.4,2.4c-1.1,1.1-2.9,1.1-4,0l0,0c-0.4-0.4-0.7-0.7-1.1-1.1
	c-0.7-0.8-1.9-1-2.9-0.6c-1,0.4-1.7,1.4-1.7,2.5v1.8c0,1.5-1.3,2.7-2.8,2.7c0,0,0,0,0,0h-3.3c-1.5,0-2.8-1.2-2.8-2.8c0,0,0,0,0,0
	l0,0V330c0-1.1-0.6-2-1.6-2.4c-1-0.4-2.1-0.2-2.8,0.5c-0.4,0.4-0.8,0.8-1.2,1.2c-1.1,1.1-2.8,1.1-3.9,0c-0.8-0.8-1.7-1.6-2.5-2.5
	c-1.1-1-1.1-2.8-0.1-3.9l0.1-0.1c0.4-0.4,0.7-0.7,1.1-1.1c0.8-0.7,1.1-1.9,0.6-2.9c-0.4-1-1.4-1.7-2.5-1.6h-1.5
	c-0.7,0-1.4-0.2-1.9-0.7C806.9,316.2,806.6,315.7,806.3,315.2z M828.2,303.9c-5,0-9,4.1-9,9c0,5,4.1,9,9,9c5,0,9-4.1,9-9
	C837.2,308,833.2,304,828.2,303.9L828.2,303.9z"/>
<path class="st6" d="M1018.5,168.4v12.2c0.1,3.8-2.6,7-6.3,7.7c-0.5,0.1-1.1,0.1-1.6,0.1h-36.1c-2.5,0.1-4.9-1-6.5-3
	c-1.1-1.3-1.7-3-1.6-4.7v-48.3c0-3.6,1.3-6.3,4.5-7.9c1.2-0.5,2.5-0.8,3.8-0.7h36c3.9-0.1,7.2,2.8,7.7,6.6c0.2,1.4,0,2.8,0.1,4.1
	c0.3,1.9-0.4,3.9-1.7,5.3c-0.7,0.9-1.3,1.8-1.9,2.7v-10.5c0-2.9-1.7-4.6-4.6-4.6h-35.7c-1.6-0.2-3.1,0.6-3.9,1.9
	c-0.4,0.8-0.7,1.6-0.7,2.5v48.4c-0.1,1,0.2,2.1,0.8,2.9c0.8,1.1,2.2,1.7,3.5,1.7h36.1c2.3,0.2,4.3-1.6,4.4-3.9c0,0,0,0,0,0
	c0-0.2,0-0.4,0-0.6V174c0-0.3,0.1-0.6,0.2-0.9c1-1.5,2-2.9,3-4.4C1018.2,168.6,1018.3,168.6,1018.5,168.4z"/>
<path class="st6" d="M989.8,137.6h17.8c1,0,1.8,0.8,1.8,1.8l0,0c0,1-0.8,1.8-1.8,1.8h-17.8c-1,0-1.8-0.8-1.8-1.8l0,0
	C988,138.4,988.8,137.6,989.8,137.6z"/>
<path class="st6" d="M989.8,150.7h17.8c1,0,1.8,0.8,1.8,1.8l0,0c0,1-0.8,1.8-1.8,1.8h-17.8c-1,0-1.8-0.8-1.8-1.8l0,0
	C988,151.5,988.8,150.7,989.8,150.7z"/>
<path class="st6" d="M989.8,163.7h17.8c1,0,1.8,0.8,1.8,1.8l0,0c0,1-0.8,1.8-1.8,1.8h-17.8c-1,0-1.8-0.8-1.8-1.8l0,0
	C988,164.5,988.8,163.7,989.8,163.7z"/>
<path class="st5" d="M1027.7,134.2l7,5.8l-23.5,28.7l-17-15.6l6.2-6.7l9.9,9.1L1027.7,134.2z"/>
<rect x="975.1" y="134.8" class="st6" width="9.4" height="9.3"/>
<rect x="975.1" y="147.9" class="st6" width="9.4" height="9.3"/>
<path class="st6" d="M984.5,160.9v9.3h-9.4v-9.3H984.5z M976.4,168.9h6.7v-6.7h-6.7V168.9z"/>
</svg>
