<?xml version="1.0" encoding="utf-8"?>
<!-- Generator: Adobe Illustrator 26.0.1, SVG Export Plug-In . SVG Version: 6.00 Build 0)  -->
<svg version="1.1" id="Layer_1" xmlns="http://www.w3.org/2000/svg" xmlns:xlink="http://www.w3.org/1999/xlink" x="0px" y="0px"
	 viewBox="0 0 588.7 236.9" style="enable-background:new 0 0 588.7 236.9;" xml:space="preserve">
<style type="text/css">
	.st0{fill:none;stroke:#002642;stroke-linecap:round;stroke-miterlimit:10;stroke-dasharray:4,4;}
	.st1{fill:none;stroke:#002642;stroke-linecap:round;stroke-miterlimit:10;stroke-dasharray:5.49,5.49;}
	.st2{fill:#002642;}
	.st3{fill:#9A1C21;}
	.st4{fill:#FFFFFF;}
	.st5{fill:#F8DC8C;}
	.st6{fill:#FC1A3D;}
</style>
<path class="st0" d="M34.9,27.8h86c7.4,0,13.5,6,13.5,13.5v43.2c0,7.4-6,13.5-13.5,13.5h-86c-7.4,0-13.5-6-13.5-13.5V41.3
	C21.4,33.8,27.5,27.8,34.9,27.8z"/>
<path class="st1" d="M237.1,33.1h89.6c7.6,0,13.7,6.1,13.7,13.7v42.8c0,7.6-6.1,13.7-13.7,13.7h-89.6c-7.6,0-13.7-6.1-13.7-13.7
	V46.9C223.4,39.3,229.5,33.1,237.1,33.1z"/>
<path class="st0" d="M126.5,122.6h92.8c7.7,0,13.9,6.2,13.9,13.9v42.4c0,7.7-6.2,13.9-13.9,13.9h-92.8c-7.7,0-13.9-6.2-13.9-13.9
	v-42.4C112.6,128.9,118.8,122.6,126.5,122.6z"/>
<path class="st0" d="M424.6,41.3c15.2-12.2,36.8-15.5,54.8-15.5c30.6,0,59.4,14.2,78,38.6"/>
<polygon class="st2" points="552.1,64.3 552.3,63.3 557.1,64.1 557.5,59.2 558.5,59.2 558,65.2 "/>
<path class="st0" d="M381.2,123.9c0-0.6,0-1.2,0-1.7c0.5-30.5,15.2-59.1,39.8-77.2"/>
<polygon class="st2" points="420.9,50.3 419.9,50.2 420.7,45.3 415.8,44.8 415.9,43.8 421.9,44.4 "/>
<path class="st0" d="M414.9,197.9c-18.4-16-30.2-38.4-33-62.7"/>
<path class="st0" d="M560,68.5c13,13.7,17.6,38.9,17.6,55.4c0,54.2-43.9,98.2-98.1,98.2c-21.1,0-41.7-6.8-58.6-19.4"/>
<polygon class="st2" points="425.9,201.2 426,202.2 421.2,202.9 422.2,207.7 421.2,207.9 420,202.1 "/>
<path class="st3" d="M46.5,55.7c-0.1,0-0.2-0.1-0.2-0.2l0,0V49c0-0.1,0-0.1,0.1-0.2c0,0,0.1-0.1,0.2-0.1h2.1c0.6,0,1.1,0.1,1.6,0.3
	c0.4,0.2,0.7,0.5,0.8,0.9c0.2,0.5,0.3,0.9,0.3,1.4V53c0,0.5-0.1,1-0.3,1.5c-0.2,0.4-0.4,0.7-0.8,0.9c-0.5,0.2-1,0.3-1.6,0.3H46.5z
	 M46.9,55.1h1.7c0.4,0,0.8-0.1,1.2-0.2c0.3-0.1,0.5-0.4,0.7-0.7c0.1-0.4,0.2-0.8,0.2-1.2c0-0.2,0-0.4,0-0.5V52c0-0.1,0-0.3,0-0.5
	c0-0.6-0.1-1.1-0.5-1.6c-0.5-0.4-1.1-0.6-1.7-0.5h-1.6L46.9,55.1z"/>
<path class="st3" d="M53.1,55.7c-0.1,0-0.2-0.1-0.2-0.2l0,0V49c0-0.1,0-0.1,0.1-0.2c0,0,0.1-0.1,0.2-0.1H57c0.1,0,0.1,0,0.2,0.1
	c0,0,0.1,0.1,0.1,0.2v0.2c0,0.1,0,0.1-0.1,0.2c0,0-0.1,0.1-0.2,0.1h-3.4V52h3.2c0.1,0,0.1,0,0.2,0.1c0,0.1,0,0.1,0,0.2v0.2
	c0,0,0,0.1,0,0.2c0,0-0.1,0.1-0.2,0.1h-3.2v2.6H57c0.1,0,0.2,0.1,0.2,0.2l0,0v0.1c0,0.1,0,0.1-0.1,0.2c0,0-0.1,0.1-0.2,0.1
	L53.1,55.7z"/>
<path class="st3" d="M60.8,55.8c-0.5,0-0.9-0.1-1.3-0.3c-0.3-0.1-0.6-0.4-0.8-0.7c-0.2-0.2-0.3-0.5-0.3-0.9c0-0.1,0-0.1,0.1-0.1
	c0,0,0.1,0,0.2,0h0.2c0.1,0,0.1,0,0.2,0l0.1,0.1c0,0.2,0.1,0.4,0.2,0.5c0.2,0.2,0.4,0.4,0.6,0.5c0.3,0.1,0.7,0.2,1,0.2
	c0.5,0,1-0.1,1.4-0.3c0.3-0.2,0.5-0.6,0.4-0.9c0-0.2-0.1-0.5-0.2-0.6c-0.2-0.2-0.4-0.3-0.7-0.4c-0.3-0.1-0.7-0.3-1.2-0.4
	c-0.4-0.1-0.8-0.3-1.2-0.5c-0.6-0.3-0.9-0.8-0.9-1.5c0-0.3,0.1-0.6,0.3-0.9c0.2-0.3,0.5-0.5,0.8-0.6c0.4-0.2,0.8-0.2,1.2-0.2
	c0.3,0,0.7,0,1,0.2c0.3,0.1,0.5,0.2,0.7,0.4s0.3,0.3,0.4,0.6c0.1,0.2,0.1,0.4,0.2,0.6v0.1c0,0-0.1,0.1-0.2,0.1h-0.2h-0.1
	c-0.1,0-0.1-0.1-0.1-0.2c0-0.3-0.2-0.6-0.5-0.8c-0.4-0.2-0.8-0.3-1.2-0.3s-0.8,0.1-1.2,0.3c-0.3,0.2-0.5,0.5-0.5,0.9
	c0,0.2,0.1,0.5,0.2,0.6c0.2,0.2,0.4,0.4,0.7,0.4c0.4,0.2,0.7,0.3,1.1,0.4c0.4,0.1,0.8,0.3,1.2,0.5c0.3,0.1,0.6,0.3,0.8,0.5
	c0.2,0.3,0.2,0.6,0.2,0.9c0,0.4-0.1,0.7-0.3,1s-0.5,0.5-0.8,0.6C61.7,55.7,61.2,55.8,60.8,55.8z"/>
<path class="st3" d="M64.8,55.7c-0.1,0-0.1,0-0.2-0.1c0,0-0.1-0.1-0.1-0.2V49c0-0.1,0-0.1,0.1-0.2c0,0,0.1-0.1,0.2-0.1H65
	c0.1,0,0.1,0,0.2,0.1c0,0,0.1,0.1,0.1,0.2v6.4c0,0.1,0,0.1-0.1,0.2c0,0-0.1,0.1-0.2,0.1H64.8z"/>
<path class="st3" d="M69.4,55.8c-0.5,0-1-0.1-1.4-0.3s-0.7-0.5-0.9-0.9c-0.2-0.4-0.3-0.9-0.3-1.3c0-0.3,0-0.6,0-0.9s0-0.6,0-0.9
	c0-0.5,0.1-0.9,0.3-1.3c0.2-0.4,0.5-0.7,0.9-0.9s0.9-0.3,1.4-0.3c0.4,0,0.8,0.1,1.2,0.2c0.3,0.1,0.6,0.3,0.8,0.5
	c0.2,0.2,0.3,0.4,0.4,0.6c0.1,0.2,0.1,0.3,0.2,0.5v0.1c0,0-0.1,0.1-0.2,0.1h-0.2h-0.1c0,0-0.1-0.1-0.1-0.2c-0.1-0.2-0.2-0.4-0.3-0.6
	c-0.2-0.2-0.4-0.4-0.6-0.5c-0.3-0.1-0.7-0.2-1-0.2c-0.5,0-1,0.1-1.4,0.5s-0.6,1-0.6,1.6s0,1.2,0,1.8s0.2,1.2,0.6,1.6
	c0.4,0.3,0.9,0.5,1.4,0.5c0.3,0,0.7-0.1,1-0.2c0.3-0.1,0.6-0.4,0.7-0.7c0.2-0.4,0.3-0.8,0.3-1.2v-0.5h-1.6c-0.1,0-0.1,0-0.2-0.1
	c0,0-0.1-0.1-0.1-0.2v-0.1c0-0.1,0-0.1,0.1-0.2c0,0,0.1-0.1,0.2-0.1H72c0.1,0,0.2,0.1,0.2,0.2l0,0v0.9c0,0.5-0.1,1-0.3,1.4
	c-0.2,0.4-0.5,0.7-0.9,0.9C70.4,55.7,70,55.8,69.4,55.8z"/>
<path class="st3" d="M73.8,55.7c-0.1,0-0.2-0.1-0.2-0.2l0,0V49c0-0.1,0-0.1,0.1-0.2c0,0,0.1-0.1,0.2-0.1H74c0.1,0,0.1,0,0.2,0
	l0.1,0.1l3.6,5.5V49c0-0.1,0-0.1,0.1-0.2c0,0,0.1-0.1,0.2-0.1h0.2c0.1,0,0.2,0.1,0.2,0.2l0,0v6.4c0,0.1,0,0.1-0.1,0.2
	c0,0-0.1,0.1-0.2,0.1H78h-0.1l-0.1-0.1L74.2,50v5.4c0,0.1,0,0.1-0.1,0.2C74.1,55.6,74,55.7,73.8,55.7L73.8,55.7z"/>
<path class="st3" d="M82.4,55.7c-0.1,0-0.1,0-0.2-0.1c0,0-0.1-0.1-0.1-0.2V49c0-0.1,0.1-0.2,0.2-0.2l0,0h3c0.5,0,0.9,0.1,1.4,0.2
	c0.3,0.1,0.6,0.4,0.8,0.7c0.2,0.3,0.3,0.6,0.3,1c0,0.2,0,0.4-0.1,0.6c-0.1,0.2-0.2,0.3-0.3,0.4c-0.1,0.1-0.2,0.2-0.4,0.3
	c0.3,0.1,0.5,0.3,0.7,0.6s0.3,0.6,0.3,0.9c0,0.4-0.1,0.8-0.3,1.1c-0.2,0.3-0.5,0.6-0.8,0.7c-0.4,0.2-0.9,0.3-1.4,0.2L82.4,55.7z
	 M83.9,51.5h1.3c0.2,0,0.4-0.1,0.6-0.2C86,51.2,86,51,86,50.8s-0.1-0.4-0.2-0.5c-0.2-0.1-0.4-0.2-0.6-0.2h-1.3V51.5z M83.9,54.4h1.4
	c0.2,0,0.5-0.1,0.6-0.2c0.1-0.2,0.2-0.4,0.2-0.6c0-0.2-0.1-0.4-0.2-0.6c-0.2-0.2-0.4-0.2-0.6-0.2h-1.4V54.4z"/>
<path class="st3" d="M89.3,55.7c-0.1,0-0.1,0-0.2-0.1c-0.1,0-0.1-0.1-0.1-0.2V49c0-0.1,0.1-0.2,0.2-0.2l0,0H92c0.7,0,1.4,0.2,2,0.6
	c0.8,0.7,1,1.9,0.4,2.8c-0.2,0.3-0.5,0.6-0.9,0.7l1.4,2.4v0.1c0,0.1,0,0.1-0.1,0.2c0,0-0.1,0.1-0.2,0.1h-1.3c-0.1,0-0.2,0-0.3-0.1
	l-0.1-0.1l-1.1-2.2h-1v2.2c0,0.1,0,0.1-0.1,0.2c0,0-0.1,0.1-0.2,0.1L89.3,55.7z M90.8,51.8H92c0.3,0,0.5-0.1,0.7-0.2
	c0.2-0.2,0.2-0.4,0.2-0.6c0-0.2-0.1-0.5-0.2-0.6c-0.2-0.2-0.4-0.3-0.7-0.2h-1.2V51.8z"/>
<path class="st3" d="M96.1,55.7c-0.1,0-0.1,0-0.2-0.1c-0.1,0-0.1-0.1-0.1-0.2V49c0-0.1,0.1-0.2,0.2-0.2l0,0h1.3
	c0.1,0,0.2,0.1,0.2,0.2l0,0v6.4c0,0.1,0,0.1-0.1,0.2c0,0-0.1,0.1-0.2,0.1H96.1z"/>
<path class="st3" d="M99.3,55.7c-0.1,0-0.1,0-0.2-0.1c0,0-0.1-0.1-0.1-0.2V49c0-0.1,0.1-0.2,0.2-0.2l0,0h4.6c0.1,0,0.2,0.1,0.2,0.2
	l0,0v1c0,0.1-0.1,0.2-0.2,0.2l0,0h-3.1v1.3h2.9c0.1,0,0.1,0,0.2,0.1c0,0.1,0.1,0.1,0.1,0.2v0.8c0,0.1,0,0.1-0.1,0.2
	c0,0-0.1,0.1-0.2,0.1h-2.9v1.4h3.2c0.1,0,0.1,0,0.2,0.1c0,0,0.1,0.1,0.1,0.2v0.9c0,0.1,0,0.1-0.1,0.2c0,0-0.1,0.1-0.2,0.1L99.3,55.7
	z"/>
<path class="st3" d="M105.6,55.7c-0.1,0-0.1,0-0.2-0.1c0,0-0.1-0.1-0.1-0.2V49c0-0.1,0.1-0.2,0.2-0.2l0,0h4.5c0.1,0,0.1,0,0.2,0.1
	c0.1,0,0.1,0.1,0.1,0.2v1c0,0.1,0,0.1-0.1,0.2c-0.1,0-0.1,0.1-0.2,0.1h-3v1.5h2.8c0.1,0,0.1,0,0.2,0.1c0,0.1,0.1,0.1,0.1,0.2v1
	c0,0.1,0,0.1-0.1,0.2c0,0.1-0.1,0.1-0.2,0.1H107v2.2c0,0.1,0,0.1-0.1,0.2c0,0-0.1,0.1-0.2,0.1L105.6,55.7z"/>
<circle class="st2" cx="77.9" cy="27.1" r="14.6"/>
<path class="st4" d="M79.9,20.1v14h-3.2V22.7h-2.8v-2.6H79.9z"/>
<circle class="st2" cx="172.9" cy="122.2" r="14.6"/>
<path class="st4" d="M178.5,126.7v2.6h-10.6v-2.1l5.4-5.1c1.2-1.2,1.5-1.9,1.5-2.6c0-1.1-0.8-1.7-2.2-1.7c-1.1,0-2.2,0.5-2.9,1.4
	l-2.4-1.5c1.3-1.7,3.4-2.7,5.6-2.6c3.1,0,5.2,1.6,5.2,4.2c0,1.4-0.4,2.6-2.3,4.4l-3.2,3L178.5,126.7z"/>
<circle class="st2" cx="281.9" cy="30.4" r="14.6"/>
<path class="st4" d="M287.2,33.7c0,2.4-1.8,4.5-5.8,4.5c-1.9,0-3.7-0.5-5.3-1.5l1.3-2.5c1.2,0.8,2.6,1.3,4,1.3
	c1.6,0,2.6-0.7,2.6-1.8s-0.8-1.7-2.6-1.7h-1.5v-2.1l2.9-3.3h-6V24h9.8v2l-3.2,3.6C285.9,30,287.2,31.6,287.2,33.7z"/>
<circle class="st2" cx="473.6" cy="28" r="14.6"/>
<path class="st4" d="M479.2,30.5c0,2.5-1.8,4.6-5.8,4.6c-1.9,0-3.7-0.5-5.3-1.5l1.3-2.5c1.2,0.8,2.6,1.3,4,1.3
	c1.6,0,2.6-0.7,2.6-1.8s-0.7-1.8-3.3-1.8h-3.6l0.7-7.9h8.5v2.6h-5.8l-0.2,2.7h1.1C477.6,26.1,479.2,28,479.2,30.5z"/>
<ellipse transform="matrix(0.5257 -0.8506 0.8506 0.5257 120.72 503.9097)" class="st2" cx="512.3" cy="143.7" rx="14.6" ry="14.6"/>
<path class="st4" d="M518.1,146.3c0,2.9-2.3,4.7-5.3,4.7c-3.9,0-6.3-2.4-6.3-6.9c0-4.8,2.9-7.5,7.1-7.5c1.4,0,2.7,0.3,3.9,1
	l-1.2,2.4c-0.8-0.5-1.7-0.7-2.6-0.7c-2.3,0-3.8,1.4-3.9,4.1c0.9-0.9,2.2-1.3,3.5-1.2C515.9,142,518.1,143.7,518.1,146.3z
	 M514.9,146.5c0-1.2-0.9-2.1-2.1-2.1c-0.1,0-0.2,0-0.3,0c-1.2-0.1-2.3,0.7-2.4,1.9c0,0.1,0,0.1,0,0.2c0,1.2,0.9,2.1,2.5,2.1
	c1.1,0.1,2.2-0.7,2.3-1.8C514.9,146.6,514.9,146.6,514.9,146.5z"/>
<circle class="st2" cx="383.4" cy="103.5" r="14.6"/>
<path class="st4" d="M389,107.6h-2.3v2.9h-3.1v-2.9h-7.5v-2.2l6.6-8.9h3.4L380,105h3.8v-2.6h3.1v2.6h2.2v2.6H389z"/>
<path class="st3" d="M130.4,149.9c-0.1,0-0.1,0-0.2-0.1c0,0-0.1-0.1-0.1-0.2v-6.4c0-0.1,0-0.1,0.1-0.2c0-0.1,0.1-0.1,0.2-0.1h2.7
	c0.7,0,1.4,0.2,2,0.6c0.5,0.4,0.8,1,0.7,1.7c0,0.4-0.1,0.8-0.3,1.2c-0.2,0.3-0.5,0.6-0.9,0.7l1.4,2.4v0.1c0,0.1,0,0.1-0.1,0.1
	l-0.1,0.1h-1.3c-0.1,0-0.2,0-0.3-0.1s-0.1-0.1-0.1-0.2l-1.1-2.2h-1v2.2c0,0.1-0.1,0.2-0.2,0.2l0,0h-1.4V149.9z M131.9,146h1.1
	c0.3,0,0.5-0.1,0.7-0.2c0.2-0.2,0.2-0.4,0.2-0.6c0-0.2-0.1-0.4-0.2-0.6c-0.2-0.2-0.5-0.3-0.7-0.2h-1.1V146z"/>
<path class="st3" d="M137.2,149.9c-0.1,0-0.2-0.1-0.2-0.2l0,0v-6.4c0-0.1,0-0.1,0.1-0.2c0,0,0.1-0.1,0.2-0.1h4.6
	c0.1,0,0.1,0,0.2,0.1c0,0,0.1,0.1,0.1,0.2v0.9c0,0.1,0,0.1-0.1,0.2c0,0.1-0.1,0.1-0.2,0.1h-3.1v1.3h2.9c0.1,0,0.1,0,0.2,0.1
	c0,0.1,0.1,0.1,0.1,0.2v0.9c0,0.1,0,0.1-0.1,0.2c0,0-0.1,0.1-0.2,0.1h-2.9v1.4h3.2c0.1,0,0.1,0,0.2,0.1c0,0,0.1,0.1,0.1,0.2v0.9
	c0,0.1,0,0.1-0.1,0.2c0,0-0.1,0.1-0.2,0.1L137.2,149.9z"/>
<path class="st3" d="M145.8,150c-0.6,0-1.1-0.1-1.6-0.3c-0.4-0.1-0.7-0.4-1-0.7c-0.2-0.3-0.3-0.6-0.4-1c0-0.1,0-0.1,0.1-0.1l0.1-0.1
	h1.2c0.1,0,0.1,0,0.2,0c0.1,0,0.1,0.1,0.1,0.1c0.1,0.1,0.1,0.2,0.2,0.3c0.1,0.1,0.2,0.2,0.4,0.2c0.2,0.1,0.4,0.1,0.6,0.1
	c0.3,0,0.6,0,0.9-0.2c0.2-0.1,0.3-0.3,0.3-0.5c0-0.1,0-0.3-0.1-0.4c-0.2-0.1-0.3-0.2-0.5-0.3s-0.5-0.1-0.9-0.2
	c-0.4-0.1-0.9-0.2-1.3-0.4c-0.3-0.1-0.6-0.4-0.8-0.6c-0.2-0.3-0.3-0.6-0.3-1s0.1-0.8,0.3-1.1s0.6-0.6,0.9-0.7
	c0.5-0.2,0.9-0.3,1.4-0.3c0.4,0,0.8,0.1,1.2,0.2c0.3,0.1,0.6,0.3,0.9,0.5c0.2,0.2,0.4,0.4,0.5,0.6c0.1,0.2,0.2,0.4,0.2,0.6
	c0,0.1,0,0.1-0.1,0.1l-0.1,0.1H147c-0.1,0-0.1,0-0.2,0c-0.1,0-0.1-0.1-0.1-0.1c-0.1-0.2-0.2-0.3-0.3-0.4c-0.2-0.1-0.4-0.2-0.6-0.2
	c-0.2,0-0.5,0-0.7,0.1s-0.3,0.3-0.2,0.5c0,0.1,0,0.3,0.1,0.4c0.1,0.1,0.3,0.2,0.4,0.2c0.3,0.1,0.6,0.2,0.9,0.2
	c0.5,0.1,1,0.2,1.4,0.4c0.9,0.4,1.3,1.5,0.9,2.5c-0.1,0.1-0.1,0.2-0.2,0.3c-0.3,0.3-0.6,0.6-1,0.7C146.8,149.9,146.3,150,145.8,150z
	"/>
<path class="st3" d="M149.9,149.9c-0.1,0-0.1,0-0.2-0.1c0,0-0.1-0.1-0.1-0.2v-6.4c0-0.1,0-0.1,0.1-0.2c0-0.1,0.1-0.1,0.2-0.1h4.6
	c0.1,0,0.1,0,0.2,0.1c0,0,0.1,0.1,0.1,0.2v0.9c0,0.1-0.1,0.2-0.2,0.2l0,0h-3.1v1.3h2.9c0.1,0,0.1,0,0.2,0.1c0,0.1,0.1,0.1,0.1,0.2
	v0.9c0,0.1,0,0.1-0.1,0.2c0,0-0.1,0.1-0.2,0.1h-2.9v1.4h3.2c0.1,0,0.1,0,0.2,0.1c0,0,0.1,0.1,0.1,0.2v0.9c0,0.1,0,0.1-0.1,0.2
	c0,0-0.1,0.1-0.2,0.1L149.9,149.9z"/>
<path class="st3" d="M155.6,149.9c-0.1,0-0.1,0-0.1-0.1l-0.1-0.1v-0.1l2.3-6.3c0-0.1,0.1-0.1,0.1-0.2c0.1-0.1,0.2-0.1,0.3-0.1h1.4
	c0.1,0,0.2,0,0.3,0.1s0.1,0.1,0.1,0.2l2.3,6.3v0.1c0,0.1,0,0.1-0.1,0.1l-0.1,0.1h-1.2c-0.1,0-0.2,0-0.2-0.1l-0.1-0.1l-0.4-1h-2.6
	l-0.4,1l-0.1,0.1c-0.1,0.1-0.2,0.1-0.2,0.1H155.6z M157.9,147.2h1.8l-0.9-2.6L157.9,147.2z"/>
<path class="st3" d="M163.2,149.9c-0.1,0-0.1,0-0.2-0.1c0,0-0.1-0.1-0.1-0.2v-6.4c0-0.1,0.1-0.2,0.2-0.2l0,0h2.7
	c0.7,0,1.4,0.2,2,0.6c0.5,0.4,0.8,1,0.7,1.7c0,0.4-0.1,0.8-0.3,1.2c-0.2,0.3-0.5,0.6-0.9,0.7l1.4,2.4v0.1c0,0.1,0,0.1-0.1,0.1
	l-0.1,0.1h-1.3c-0.1,0-0.2,0-0.3-0.1c-0.1,0-0.1-0.1-0.1-0.2l-1.1-2.2h-1v2.2c0,0.1-0.1,0.2-0.2,0.2l0,0L163.2,149.9L163.2,149.9z
	 M164.7,146h1.1c0.3,0,0.5-0.1,0.7-0.2c0.2-0.2,0.2-0.4,0.2-0.6c0-0.2-0.1-0.4-0.2-0.6c-0.2-0.2-0.4-0.3-0.7-0.2h-1.1V146z"/>
<path class="st3" d="M172.5,150c-0.5,0-1.1-0.1-1.6-0.3c-0.4-0.2-0.8-0.5-1-0.9c-0.3-0.4-0.4-0.9-0.4-1.5c0-0.3,0-0.6,0-0.9
	s0-0.6,0-0.9c0-0.5,0.2-1,0.4-1.4s0.6-0.7,1-0.9c0.5-0.2,1-0.3,1.6-0.3c0.4,0,0.8,0.1,1.2,0.2c0.4,0.1,0.7,0.3,1,0.5
	s0.5,0.4,0.6,0.7c0.2,0.3,0.2,0.7,0.2,1c0,0.1,0,0.1-0.1,0.1l-0.1,0.1H174c-0.1,0-0.1,0-0.2,0c-0.1-0.1-0.1-0.1-0.1-0.2
	c0-0.3-0.2-0.5-0.4-0.7c-0.2-0.1-0.5-0.2-0.8-0.2s-0.6,0.1-0.9,0.3c-0.2,0.3-0.4,0.6-0.3,1c0,0.5,0,1.1,0,1.6c0,0.4,0.1,0.7,0.3,1
	c0.2,0.2,0.5,0.3,0.9,0.3c0.3,0,0.5-0.1,0.8-0.2c0.2-0.2,0.4-0.4,0.4-0.7c0-0.1,0.1-0.1,0.1-0.2c0.1,0,0.1-0.1,0.2-0.1h1.3
	c0.1,0,0.1,0,0.1,0.1l0.1,0.1c0,0.3-0.1,0.7-0.2,1c-0.2,0.3-0.4,0.5-0.6,0.7c-0.3,0.2-0.6,0.4-1,0.5C173.3,150,172.9,150,172.5,150z
	"/>
<path class="st3" d="M176.9,149.9c-0.1,0-0.1,0-0.2-0.1c0-0.1-0.1-0.1-0.1-0.2v-6.4c0-0.1,0-0.1,0.1-0.2c0,0,0.1-0.1,0.2-0.1h1.3
	c0.1,0,0.1,0,0.2,0.1c0,0,0.1,0.1,0.1,0.2v2.4h2.4v-2.4c0-0.1,0-0.1,0.1-0.2l0.1-0.1h1.3c0.1,0,0.1,0,0.2,0.1c0,0,0.1,0.1,0.1,0.2
	v6.4c0,0.1,0,0.1-0.1,0.2c0,0-0.1,0.1-0.2,0.1H181c-0.1,0-0.2-0.1-0.2-0.2l0,0v-2.4h-2.4v2.4c0,0.1-0.1,0.2-0.2,0.2l0,0H176.9z"/>
<path class="st3" d="M186.4,149.9c-0.1,0-0.1,0-0.1-0.1c0,0-0.1-0.1-0.1-0.2v-6.4c0-0.1,0-0.1,0.1-0.2l0.1-0.1h2.4
	c0.4,0,0.8,0.1,1.2,0.2c0.3,0.1,0.6,0.4,0.8,0.7s0.3,0.7,0.3,1.1c0,0.4-0.1,0.8-0.3,1.1s-0.5,0.5-0.8,0.7c-0.4,0.2-0.8,0.2-1.2,0.2
	h-2v2.6c0,0.1,0,0.1-0.1,0.2C186.7,149.7,186.6,149.8,186.4,149.9L186.4,149.9z M186.9,146.5h1.9c0.5,0,0.9-0.1,1.3-0.4
	c0.3-0.3,0.4-0.7,0.4-1.1c0-0.4-0.1-0.8-0.4-1.1c-0.4-0.3-0.8-0.4-1.3-0.4h-1.9V146.5z"/>
<path class="st3" d="M192.6,149.9c-0.1,0-0.1,0-0.1-0.1c0,0-0.1-0.1-0.1-0.2v-6.4c0-0.1,0-0.1,0.1-0.2l0.1-0.1h0.2
	c0.1,0,0.1,0,0.2,0.1c0,0,0.1,0.1,0.1,0.2v2.9h3.8v-2.9c0-0.1,0-0.1,0.1-0.2h0.1h0.2c0.1,0,0.2,0.1,0.2,0.2l0,0v6.4
	c0,0.1,0,0.1-0.1,0.2c0,0-0.1,0.1-0.2,0.1H197c-0.1,0-0.2-0.1-0.2-0.2l0,0v-3H193v3c0,0.1,0,0.1-0.1,0.2c0,0-0.1,0.1-0.2,0.1
	L192.6,149.9z"/>
<path class="st3" d="M198.8,149.9c0,0-0.1,0-0.1-0.1l-0.1-0.1v-0.1l2.5-6.4c0-0.1,0.1-0.1,0.1-0.1c0.1,0,0.1-0.1,0.2-0.1h0.3
	c0.1,0,0.1,0,0.2,0.1l0.1,0.1l2.5,6.4v0.1c0,0.1,0,0.1-0.1,0.1l-0.1,0.1H204c-0.1,0-0.1,0-0.1-0.1l-0.1-0.1l-0.6-1.6h-3.5l-0.6,1.6
	c0,0,0,0.1-0.1,0.1L198.8,149.9L198.8,149.9z M200,147.5h3l-1.5-3.9L200,147.5z"/>
<path class="st3" d="M207.6,150c-0.5,0-0.9-0.1-1.4-0.3c-0.3-0.1-0.6-0.4-0.9-0.7c-0.2-0.2-0.3-0.5-0.3-0.9c0-0.1,0-0.1,0.1-0.1
	l0.1-0.1h0.2c0.1,0,0.1,0,0.2,0.1l0.1,0.1c0,0.2,0.1,0.4,0.2,0.5c0.2,0.2,0.4,0.4,0.6,0.5c0.3,0.1,0.7,0.2,1,0.2
	c0.5,0,1-0.1,1.4-0.4c0.3-0.2,0.5-0.6,0.4-0.9c0-0.2-0.1-0.5-0.2-0.6c-0.2-0.2-0.4-0.3-0.7-0.4c-0.3-0.1-0.7-0.3-1.2-0.4
	c-0.4-0.1-0.8-0.3-1.1-0.5c-0.8-0.4-1.1-1.5-0.7-2.3c0,0,0-0.1,0.1-0.1c0.2-0.3,0.5-0.5,0.8-0.6c0.4-0.2,0.8-0.3,1.2-0.2
	c0.3,0,0.7,0.1,1,0.2c0.3,0.1,0.5,0.2,0.7,0.4s0.3,0.3,0.4,0.6c0.1,0.2,0.1,0.4,0.2,0.6c0,0,0,0.1-0.1,0.1c0,0-0.1,0.1-0.2,0.1h-0.2
	h-0.1c-0.1,0-0.1-0.1-0.1-0.2c0-0.3-0.2-0.6-0.5-0.8c-0.4-0.2-0.8-0.3-1.2-0.3s-0.8,0.1-1.2,0.3c-0.5,0.4-0.6,1-0.3,1.5
	c0.2,0.2,0.4,0.3,0.6,0.4c0.4,0.2,0.8,0.3,1.1,0.4c0.4,0.1,0.8,0.3,1.2,0.5c0.3,0.1,0.5,0.3,0.7,0.6s0.2,0.6,0.2,0.9
	c0,0.4-0.1,0.7-0.3,1s-0.5,0.5-0.9,0.6C208.5,149.9,208,150,207.6,150z"/>
<path class="st3" d="M211.7,149.9c-0.1,0-0.1,0-0.1-0.1c0,0-0.1-0.1-0.1-0.2v-6.4c0-0.1,0-0.1,0.1-0.2l0.1-0.1h3.8
	c0.1,0,0.1,0,0.2,0.1c0,0,0.1,0.1,0.1,0.2v0.1c0,0.1,0,0.1-0.1,0.2c0,0-0.1,0.1-0.2,0.1h-3.4v2.5h3.2c0.1,0,0.1,0,0.2,0.1
	c0,0,0.1,0.1,0.1,0.2v0.1c0,0.1,0,0.1-0.1,0.2c0,0-0.1,0.1-0.2,0.1h-3.2v2.6h3.5c0.1,0,0.2,0.1,0.2,0.2l0,0v0.1
	c0,0.1-0.1,0.2-0.2,0.2l0,0L211.7,149.9L211.7,149.9z"/>
<path class="st3" d="M245.2,59.3c-0.5,0-1-0.1-1.4-0.3s-0.7-0.5-0.9-0.9s-0.3-0.9-0.3-1.4c0-0.3,0-0.6,0-0.9s0-0.6,0-0.9
	c0-0.5,0.1-0.9,0.3-1.4c0.2-0.4,0.5-0.7,0.9-0.9s0.9-0.3,1.4-0.3c0.4,0,0.8,0.1,1.1,0.2c0.3,0.1,0.6,0.3,0.8,0.5s0.3,0.4,0.4,0.6
	c0.1,0.2,0.1,0.3,0.2,0.5v0.1c0,0-0.1,0.1-0.2,0h-0.2c-0.1,0-0.1,0-0.1,0s-0.1-0.1-0.1-0.2c-0.1-0.2-0.2-0.4-0.3-0.6
	c-0.2-0.2-0.4-0.4-0.6-0.5c-0.3-0.1-0.7-0.2-1-0.2c-1-0.1-1.9,0.6-2,1.7c0,0.1,0,0.3,0,0.4c0,0.6,0,1.2,0,1.8s0.2,1.2,0.6,1.6
	c0.4,0.3,0.9,0.5,1.4,0.5c0.3,0,0.7-0.1,1-0.2c0.3-0.1,0.6-0.4,0.7-0.7c0.2-0.4,0.3-0.8,0.3-1.2v-0.5h-1.7c-0.1,0-0.1,0-0.2-0.1
	c0,0-0.1-0.1-0.1-0.2v-0.1c0-0.1,0-0.1,0.1-0.2c0,0,0.1-0.1,0.2-0.1h2.1c0.1,0,0.1,0,0.2,0.1c0,0,0.1,0.1,0.1,0.2v0.9
	c0,0.5-0.1,1-0.3,1.4s-0.5,0.7-0.9,0.9C246.2,59.3,245.7,59.4,245.2,59.3z"/>
<path class="st3" d="M249.6,59.2c-0.1,0-0.1,0-0.1-0.1c0,0-0.1-0.1-0.1-0.2v-6.4c0-0.1,0-0.1,0.1-0.2l0.1-0.1h3.8
	c0.1,0,0.1,0,0.2,0.1c0,0,0.1,0.1,0.1,0.2v0.1c0,0.1-0.1,0.2-0.2,0.2l0,0H250v2.5h3.2c0.1,0,0.1,0,0.2,0.1c0,0,0.1,0.1,0.1,0.2v0.1
	c0,0.1,0,0.1-0.1,0.2c0,0-0.1,0.1-0.2,0.1H250v2.6h3.5c0.1,0,0.2,0.1,0.2,0.2l0,0V59c0,0.1-0.1,0.2-0.2,0.2l0,0H249.6z"/>
<path class="st3" d="M255.4,59.2c-0.1,0-0.2-0.1-0.2-0.2l0,0v-6.4c0-0.1,0-0.1,0.1-0.2c0,0,0.1-0.1,0.2-0.1h0.2c0.1,0,0.1,0,0.1,0
	l0.1,0.1l3.6,5.5v-5.4c0-0.1,0-0.1,0.1-0.2c0,0,0.1-0.1,0.2-0.1h0.2c0.1,0,0.1,0,0.2,0.1c0,0,0.1,0.1,0.1,0.2V59
	c0,0.1,0,0.1-0.1,0.2c0,0-0.1,0.1-0.2,0.1h-0.2c-0.1,0-0.1,0-0.1,0l-0.1-0.1l-3.6-5.5V59c0,0.1-0.1,0.2-0.2,0.2l0,0H255.4z"/>
<path class="st3" d="M262.1,59.2c-0.1,0-0.2-0.1-0.2-0.2l0,0v-6.4c0-0.1,0-0.1,0.1-0.2c0,0,0.1-0.1,0.2-0.1h3.8
	c0.1,0,0.2,0.1,0.2,0.2l0,0v0.1c0,0.1,0,0.1-0.1,0.2c0,0-0.1,0.1-0.2,0.1h-3.4v2.5h3.2c0.1,0,0.1,0,0.2,0.1c0,0,0.1,0.1,0.1,0.2v0.1
	c0,0.1,0,0.1-0.1,0.2c0,0-0.1,0.1-0.2,0.1h-3.2v2.6h3.5c0.1,0,0.1,0,0.2,0.1c0,0,0.1,0.1,0.1,0.2v0c0,0.1,0,0.1-0.1,0.2
	c0,0-0.1,0.1-0.2,0.1L262.1,59.2z"/>
<path class="st3" d="M267.9,59.2c-0.1,0-0.1,0-0.1-0.1c0,0-0.1-0.1-0.1-0.2v-6.4c0-0.1,0-0.1,0.1-0.2l0.1-0.1h2.3
	c0.6,0,1.2,0.1,1.6,0.5s0.7,0.9,0.6,1.5c0,0.5-0.1,0.9-0.4,1.3c-0.3,0.3-0.7,0.5-1.1,0.6l1.6,2.7v0.1c0,0.1,0,0.1-0.1,0.1l-0.1,0.1
	h-0.1c-0.1,0-0.2,0-0.2-0.1c-0.1-0.1-0.1-0.1-0.1-0.2l-1.6-2.6h-2V59c0,0.1,0,0.1-0.1,0.2C268.2,59.2,268.1,59.3,267.9,59.2
	L267.9,59.2z M268.3,55.7h1.8c0.4,0,0.9-0.1,1.3-0.3c0.3-0.3,0.4-0.6,0.4-1s-0.1-0.7-0.4-1c-0.4-0.3-0.8-0.4-1.3-0.3h-1.8V55.7z"/>
<path class="st3" d="M273.5,59.2c-0.1,0-0.1,0-0.1-0.1l-0.1-0.1v-0.1l2.5-6.4c0-0.1,0.2-0.2,0.3-0.2h0.3c0.1,0,0.1,0,0.2,0
	c0,0,0.1,0.1,0.1,0.2l2.5,6.4V59c0,0.1-0.1,0.2-0.2,0.2h-0.2c-0.1,0-0.1,0-0.1-0.1l-0.1-0.1l-0.6-1.6h-3.5l-0.6,1.6
	c0,0,0,0.1-0.1,0.1l-0.1,0.1C273.7,59.2,273.5,59.2,273.5,59.2z M274.7,56.9h3l-1.5-3.9L274.7,56.9z"/>
<path class="st3" d="M281.3,59.2c-0.1,0-0.1,0-0.1-0.1c0,0-0.1-0.1-0.1-0.2v-6h-1.9c-0.1,0-0.2-0.1-0.2-0.2l0,0v-0.2
	c0-0.1,0-0.1,0.1-0.2c0,0,0.1-0.1,0.2-0.1h4.5c0.1,0,0.1,0,0.2,0.1c0,0,0.1,0.1,0.1,0.2v0.1c0,0.1,0,0.1-0.1,0.2
	c0,0-0.1,0.1-0.2,0.1h-1.9v6c0,0.1,0,0.1-0.1,0.2c0,0-0.1,0.1-0.2,0.1L281.3,59.2z"/>
<path class="st3" d="M285.3,59.2c-0.1,0-0.2,0-0.3-0.1V59v-6.4c0-0.1,0-0.1,0.1-0.2c0,0,0.1-0.1,0.2-0.1h3.8c0.1,0,0.1,0,0.2,0.1
	c0,0,0.1,0.1,0.1,0.2v0.1c0,0.1,0,0.1-0.1,0.2c0,0-0.1,0.1-0.2,0.1h-3.4v2.5h3.2c0.1,0,0.1,0,0.2,0.1c0,0,0.1,0.1,0.1,0.2v0.1
	c0,0.1-0.1,0.2-0.2,0.2l0,0h-3.2v2.6h3.5c0.1,0,0.1,0,0.2,0.1c0,0,0.1,0.1,0.1,0.2v0c0,0.1,0,0.1-0.1,0.2c0,0-0.1,0.1-0.2,0.1
	L285.3,59.2z"/>
<path class="st3" d="M293,59.2c-0.1,0-0.1,0-0.2-0.1c0,0-0.1-0.1-0.1-0.2v-6.4c0-0.1,0-0.1,0.1-0.2c0,0,0.1-0.1,0.2-0.1h1.3
	c0.1,0,0.2,0.1,0.2,0.2l0,0V59c0,0.1-0.1,0.2-0.2,0.2l0,0H293z"/>
<path class="st3" d="M296.1,59.2c-0.1,0-0.2-0.1-0.2-0.2l0,0v-6.4c0-0.1,0.1-0.2,0.2-0.2h2.6c0.6,0,1.1,0.1,1.6,0.3
	c0.4,0.2,0.8,0.5,1,0.9c0.3,0.4,0.4,1,0.4,1.5v1.5c0,0.5-0.1,1-0.4,1.5c-0.2,0.4-0.6,0.7-1,0.9c-0.5,0.2-1.1,0.3-1.6,0.3L296.1,59.2
	L296.1,59.2z M297.6,57.8h1c0.2,0,0.5,0,0.7-0.1s0.3-0.2,0.4-0.4s0.2-0.5,0.1-0.7c0-0.2,0-0.4,0-0.5s0-0.3,0-0.5s0-0.3,0-0.5
	c0-0.4-0.1-0.7-0.4-1c-0.3-0.2-0.6-0.3-1-0.3h-1L297.6,57.8z"/>
<path class="st3" d="M303.1,59.2c-0.1,0-0.2-0.1-0.2-0.2l0,0v-6.4c0-0.1,0.1-0.2,0.2-0.2l0,0h4.6c0.1,0,0.1,0,0.2,0.1
	c0,0,0.1,0.1,0.1,0.2v0.9c0,0.1,0,0.1-0.1,0.2c0,0-0.1,0.1-0.2,0.1h-3.1v1.3h2.9c0.1,0,0.1,0,0.2,0.1c0,0.1,0.1,0.1,0.1,0.2v0.8
	c0,0.1,0,0.1-0.1,0.2c0,0-0.1,0.1-0.2,0.1h-2.9V58h3.2c0.1,0,0.2,0.1,0.2,0.2l0,0V59c0,0.1-0.1,0.2-0.2,0.2l0,0H303.1z"/>
<path class="st3" d="M308.8,59.2c-0.1,0-0.1,0-0.1-0.1l-0.1-0.1v-0.1l2.3-6.3c0-0.1,0.1-0.1,0.1-0.2c0.1-0.1,0.2-0.1,0.3-0.1h1.5
	c0.1,0,0.2,0,0.3,0.1c0.1,0.1,0.1,0.1,0.1,0.2l2.3,6.3V59c0,0.1,0,0.1-0.1,0.1l-0.1,0.1H314c-0.1,0-0.2,0-0.2-0.1l-0.1-0.1l-0.4-1
	h-2.6l-0.4,1c0,0.1,0,0.1-0.1,0.1c-0.1,0.1-0.2,0.1-0.2,0.1H308.8z M311.1,56.6h1.8L312,54L311.1,56.6z"/>
<path class="st3" d="M318.6,59.3c-0.6,0-1.1-0.1-1.6-0.3c-0.4-0.1-0.7-0.4-1-0.7c-0.2-0.3-0.3-0.6-0.4-1c0-0.1,0-0.1,0.1-0.1
	l0.1-0.1h1.2c0.1,0,0.1,0,0.2,0s0.1,0.1,0.1,0.1c0.1,0.1,0.1,0.2,0.2,0.3s0.2,0.2,0.4,0.2c0.2,0.1,0.4,0.1,0.6,0.1
	c0.3,0,0.6,0,0.9-0.2c0.2-0.1,0.3-0.3,0.3-0.5c0-0.1-0.1-0.3-0.1-0.3c-0.2-0.1-0.3-0.2-0.5-0.3s-0.5-0.2-0.9-0.2
	c-0.4-0.1-0.9-0.2-1.3-0.4c-0.3-0.1-0.6-0.4-0.8-0.7c-0.2-0.3-0.3-0.6-0.3-1s0.1-0.8,0.3-1.1c0.2-0.3,0.6-0.6,1-0.7
	c0.5-0.2,0.9-0.3,1.4-0.3c0.4,0,0.8,0.1,1.2,0.2c0.3,0.1,0.6,0.3,0.9,0.5c0.2,0.2,0.4,0.4,0.5,0.6c0.1,0.2,0.2,0.4,0.2,0.6
	c0,0.1,0,0.1-0.1,0.2l-0.1,0.1h-1.3c-0.1,0-0.1,0-0.2,0s-0.1-0.1-0.1-0.1c-0.1-0.2-0.2-0.3-0.3-0.4c-0.4-0.2-0.9-0.2-1.3,0
	c-0.2,0.1-0.3,0.3-0.2,0.5c0,0.1,0,0.3,0.1,0.3c0.1,0.1,0.3,0.2,0.4,0.2c0.3,0.1,0.6,0.2,0.9,0.2c0.5,0.1,1,0.2,1.4,0.4
	c0.9,0.4,1.3,1.5,0.9,2.5c-0.1,0.1-0.1,0.2-0.2,0.3c-0.3,0.3-0.6,0.6-1,0.7C319.7,59.3,319.2,59.4,318.6,59.3z"/>
<path class="st3" d="M429.3,57.6c-0.1,0-0.1,0-0.2-0.1c0,0-0.1-0.1-0.1-0.2V51c0-0.1,0.1-0.2,0.2-0.2l0,0h2.5c0.6,0,1.1,0.1,1.6,0.3
	c0.4,0.2,0.8,0.5,1,0.9c0.3,0.4,0.4,1,0.4,1.5c0,0.3,0,0.5,0,0.8s0,0.5,0,0.7c0,0.5-0.1,1-0.4,1.5c-0.2,0.4-0.6,0.7-1,0.9
	c-0.5,0.2-1.1,0.3-1.6,0.3L429.3,57.6z M430.8,56.2h1c0.2,0,0.5,0,0.7-0.1s0.3-0.2,0.4-0.4s0.2-0.5,0.1-0.8c0-0.2,0-0.3,0-0.5v-0.5
	c0-0.2,0-0.3,0-0.5c0-0.4-0.1-0.7-0.3-1c-0.3-0.2-0.6-0.3-1-0.3h-1L430.8,56.2z"/>
<path class="st3" d="M436.3,57.6c-0.1,0-0.1,0-0.2-0.1c0,0-0.1-0.1-0.1-0.2V51c0-0.1,0.1-0.2,0.2-0.2l0,0h4.6c0.1,0,0.2,0.1,0.2,0.2
	l0,0v0.9c0,0.1-0.1,0.2-0.2,0.2l0,0h-3.1v1.3h2.9c0.1,0,0.1,0,0.2,0.1c0,0,0.1,0.1,0.1,0.2v0.9c0,0.1,0,0.1-0.1,0.2
	c0,0-0.1,0.1-0.2,0.1h-2.9v1.4h3.2c0.1,0,0.2,0.1,0.2,0.2l0,0v0.9c0,0.1,0,0.1-0.1,0.2c0,0-0.1,0.1-0.2,0.1L436.3,57.6z"/>
<path class="st3" d="M442.6,57.6c-0.1,0-0.1,0-0.2-0.1c0,0-0.1-0.1-0.1-0.2V51c0-0.1,0.1-0.2,0.2-0.2l0,0h1.3c0.1,0,0.1,0,0.2,0.1
	c0,0,0.1,0.1,0.1,0.2v5.1h3c0.1,0,0.1,0,0.2,0.1c0.1,0,0.1,0.1,0.1,0.2v1c0,0.1,0,0.1-0.1,0.2c0,0-0.1,0.1-0.2,0.1L442.6,57.6z"/>
<path class="st3" d="M448.5,57.6c-0.1,0-0.1,0-0.2-0.1c0,0-0.1-0.1-0.1-0.2V51c0-0.1,0-0.1,0.1-0.2c0,0,0.1-0.1,0.2-0.1h1.3
	c0.1,0,0.2,0.1,0.2,0.2l0,0v6.4c0,0.1,0,0.1-0.1,0.2c0,0-0.1,0.1-0.2,0.1L448.5,57.6z"/>
<path class="st3" d="M453.3,57.6c-0.1,0-0.2,0-0.3-0.1c-0.1-0.1-0.1-0.1-0.1-0.2l-2-6.3v-0.1c0-0.1,0-0.1,0.1-0.1l0.1-0.1h1.2
	c0.1,0,0.2,0,0.2,0.1c0.1,0,0.1,0.1,0.1,0.2l1.4,4.5l1.4-4.5c0-0.1,0.1-0.1,0.1-0.2c0.1-0.1,0.2-0.1,0.2-0.1h1.2
	c0.1,0,0.1,0,0.1,0.1l0.1,0.1V51l-2,6.3c0,0.1-0.1,0.2-0.1,0.2c-0.1,0.1-0.2,0.1-0.3,0.1H453.3z"/>
<path class="st3" d="M458.4,57.6c-0.1,0-0.1,0-0.2-0.1c0,0-0.1-0.1-0.1-0.2V51c0-0.1,0.1-0.2,0.2-0.2l0,0h4.6c0.1,0,0.2,0.1,0.2,0.2
	l0,0v0.9c0,0.1-0.1,0.2-0.2,0.2l0,0h-3.1v1.3h2.9c0.1,0,0.1,0,0.2,0.1c0,0,0.1,0.1,0.1,0.2v0.9c0,0.1,0,0.1-0.1,0.2
	c0,0-0.1,0.1-0.2,0.1h-2.9v1.4h3.2c0.1,0,0.2,0.1,0.2,0.2l0,0v0.9c0,0.1,0,0.1-0.1,0.2c0,0-0.1,0.1-0.2,0.1L458.4,57.6z"/>
<path class="st3" d="M464.7,57.6c-0.1,0-0.1,0-0.2-0.1c0,0-0.1-0.1-0.1-0.2V51c0-0.1,0.1-0.2,0.2-0.2l0,0h2.7c0.7,0,1.4,0.2,2,0.6
	c0.5,0.4,0.8,1,0.7,1.7c0,0.4-0.1,0.8-0.3,1.2c-0.2,0.3-0.5,0.6-0.9,0.7l1.4,2.4v0.1c0,0.1-0.1,0.2-0.2,0.2h-1.3
	c-0.1,0-0.2,0-0.3-0.1c-0.1-0.1-0.1-0.1-0.1-0.2l-1.1-2.2h-1v2.2c0,0.1,0,0.1-0.1,0.2c0,0-0.1,0.1-0.2,0.1L464.7,57.6z M466.2,53.8
	h1.1c0.3,0,0.5-0.1,0.7-0.2c0.2-0.2,0.2-0.4,0.2-0.6c0-0.2-0.1-0.5-0.2-0.6c-0.2-0.2-0.4-0.3-0.7-0.2h-1.1V53.8z"/>
<path class="st3" d="M475.3,57.6c-0.1,0-0.1,0-0.1-0.1c0,0-0.1-0.1-0.1-0.2v-6.1h-1.9c-0.1,0-0.1,0-0.2-0.1c0,0-0.1-0.1-0.1-0.2V51
	c0-0.1,0-0.1,0.1-0.2c0,0,0.1-0.1,0.2-0.1h4.5c0.1,0,0.1,0,0.2,0.1c0,0.1,0.1,0.1,0,0.2v0.2c0,0.1,0,0.1,0,0.2c0,0-0.1,0.1-0.2,0.1
	h-1.9v6.1c0,0.1,0,0.1-0.1,0.2c0,0-0.1,0.1-0.2,0.1L475.3,57.6z"/>
<path class="st3" d="M481.2,57.7c-0.5,0-0.9-0.1-1.4-0.3c-0.4-0.2-0.7-0.5-0.9-0.9c-0.2-0.5-0.3-1-0.3-1.5c0-0.3,0-0.6,0-0.8
	s0-0.5,0-0.8c0-0.5,0.1-1,0.4-1.5c0.2-0.4,0.5-0.7,0.9-0.9c0.8-0.4,1.8-0.4,2.7,0c0.4,0.2,0.7,0.5,0.9,0.9c0.2,0.5,0.4,1,0.4,1.5
	c0,0.3,0,0.6,0,0.8s0,0.5,0,0.8c0,0.5-0.1,1.1-0.3,1.5c-0.2,0.4-0.5,0.7-0.9,0.9C482.1,57.6,481.6,57.7,481.2,57.7z M481.2,57.1
	c0.5,0,1-0.2,1.4-0.5c0.4-0.5,0.6-1.1,0.6-1.7c0-0.3,0-0.5,0-0.8s0-0.5,0-0.8c0-0.4-0.1-0.9-0.3-1.2c-0.2-0.3-0.4-0.6-0.7-0.7
	c-0.6-0.3-1.4-0.3-2,0c-0.3,0.2-0.5,0.4-0.7,0.7c-0.2,0.4-0.3,0.8-0.3,1.2c0,0.3,0,0.5,0,0.8s0,0.5,0,0.8c0,0.6,0.2,1.2,0.6,1.7
	C480.1,57,480.7,57.1,481.2,57.1z"/>
<path class="st3" d="M490.2,57.7c-0.5,0-1-0.1-1.5-0.3c-0.4-0.2-0.7-0.6-0.8-1c-0.2-0.4-0.3-0.9-0.3-1.4c0-0.3,0-0.6,0-0.9
	s0-0.6,0-0.9c0-0.5,0.1-0.9,0.3-1.4c0.2-0.4,0.5-0.7,0.8-0.9c0.4-0.2,0.9-0.4,1.5-0.3c0.4,0,0.8,0.1,1.2,0.2
	c0.3,0.1,0.6,0.3,0.8,0.5c0.2,0.2,0.3,0.4,0.5,0.7c0.1,0.2,0.2,0.5,0.2,0.7c0,0.1,0,0.1,0,0.2h-0.1h-0.2h-0.1c0,0-0.1-0.1-0.1-0.2
	c-0.1-0.5-0.3-0.9-0.7-1.2c-0.4-0.2-0.8-0.3-1.3-0.3s-1,0.2-1.4,0.5c-0.4,0.4-0.6,1-0.6,1.6c0,0.5,0,1.1,0,1.7
	c0,0.6,0.2,1.2,0.6,1.6c0.4,0.4,0.9,0.5,1.4,0.5s0.9-0.1,1.3-0.3c0.4-0.3,0.6-0.7,0.7-1.2c0-0.1,0-0.1,0.1-0.2h0.1h0.2
	c0.1,0,0.1,0,0.1,0.1c0,0,0.1,0.1,0,0.1c0,0.2-0.1,0.5-0.2,0.7c-0.1,0.3-0.3,0.5-0.5,0.7s-0.5,0.4-0.8,0.5
	C491,57.7,490.6,57.7,490.2,57.7z"/>
<path class="st3" d="M494.5,57.6c-0.1,0-0.2-0.1-0.2-0.2l0,0V51c0-0.1,0.1-0.2,0.2-0.2l0,0h0.2c0.1,0,0.1,0,0.1,0.1
	c0,0,0.1,0.1,0.1,0.2v6h3.4c0.1,0,0.1,0,0.2,0.1c0,0,0.1,0.1,0.1,0.2v0.1c0,0.1-0.1,0.2-0.2,0.2l0,0L494.5,57.6z"/>
<path class="st3" d="M499.8,57.6c-0.1,0-0.1,0-0.1-0.1c0,0-0.1-0.1-0.1-0.2V51c0-0.1,0-0.1,0.1-0.2l0.1-0.1h0.2
	c0.1,0,0.2,0.1,0.2,0.2l0,0v6.4c0,0.1-0.1,0.2-0.2,0.2l0,0L499.8,57.6z"/>
<path class="st3" d="M502.3,57.6c-0.1,0-0.2-0.1-0.2-0.2l0,0V51c0-0.1,0-0.1,0.1-0.2c0,0,0.1-0.1,0.2-0.1h3.8c0.1,0,0.2,0.1,0.2,0.2
	l0,0v0.2c0,0.1,0,0.1-0.1,0.2c0,0-0.1,0.1-0.2,0.1h-3.4v2.5h3.2c0.1,0,0.1,0,0.2,0.1c0,0,0.1,0.1,0.1,0.2v0.2c0,0.1,0,0.1-0.1,0.2
	c0,0-0.1,0.1-0.2,0.1h-3.2V57h3.5c0.1,0,0.1,0,0.2,0.1c0,0,0.1,0.1,0.1,0.2v0.1c0,0.1,0,0.1-0.1,0.2c0,0-0.1,0.1-0.2,0.1L502.3,57.6
	z"/>
<path class="st3" d="M508.1,57.6c-0.1,0-0.1,0-0.1-0.1c0,0-0.1-0.1-0.1-0.2V51c0-0.1,0-0.1,0.1-0.2l0.1-0.1h0.2c0.1,0,0.1,0,0.1,0
	l0.1,0.1l3.6,5.5V51c0-0.1,0-0.1,0-0.2c0,0,0.1-0.1,0.2-0.1h0.2c0.1,0,0.1,0,0.2,0.1c0,0,0.1,0.1,0.1,0.2v6.4c0,0.1,0,0.1-0.1,0.2
	c0,0-0.1,0.1-0.2,0.1h-0.2c-0.1,0-0.1,0-0.1,0l-0.1-0.1l-3.6-5.5v5.4c0,0.1,0,0.1-0.1,0.2c0,0-0.1,0.1-0.2,0.1L508.1,57.6z"/>
<path class="st3" d="M516.3,57.6c-0.1,0-0.1,0-0.2-0.1c0,0-0.1-0.1-0.1-0.2v-6.1h-1.9c-0.1,0-0.1,0-0.2-0.1c0,0-0.1-0.1-0.1-0.2V51
	c0-0.1,0-0.1,0.1-0.2c0,0,0.1-0.1,0.2-0.1h4.5c0.1,0,0.1,0,0.2,0.1c0,0,0.1,0.1,0.1,0.2v0.2c0,0.1,0,0.1-0.1,0.2
	c0,0-0.1,0.1-0.2,0.1h-1.9v6.1c0,0.1,0,0.1-0.1,0.2c0,0-0.1,0.1-0.2,0.1L516.3,57.6z"/>
<path class="st3" d="M472.1,172.9c-0.1,0-0.1,0-0.2-0.1c0,0-0.1-0.1-0.1-0.2v-6.4c0-0.1,0.1-0.2,0.2-0.2l0,0h1.3
	c0.1,0,0.2,0.1,0.2,0.2l0,0v6.4c0,0.1,0,0.1-0.1,0.2c0,0-0.1,0.1-0.2,0.1H472.1z"/>
<path class="st3" d="M476.8,172.9c-0.1,0-0.2-0.1-0.2-0.2l0,0v-5.1h-1.7c-0.1,0-0.1,0-0.2-0.1c0,0-0.1-0.1-0.1-0.2v-1.1
	c0-0.1,0-0.1,0.1-0.2c0,0,0.1-0.1,0.2-0.1h5.3c0.1,0,0.2,0.1,0.2,0.2l0,0v1.1c0,0.1,0,0.1-0.1,0.2c0,0-0.1,0.1-0.2,0.1h-1.7v5.1
	c0,0.1,0,0.1-0.1,0.2c0,0-0.1,0.1-0.2,0.1H476.8z"/>
<path class="st3" d="M481.5,172.9c-0.1,0-0.1,0-0.2-0.1c0,0-0.1-0.1-0.1-0.2v-6.4c0-0.1,0.1-0.2,0.2-0.2l0,0h4.6
	c0.1,0,0.2,0.1,0.2,0.2l0,0v0.9c0,0.1,0,0.1-0.1,0.2c0,0-0.1,0.1-0.2,0.1h-3.1v1.3h2.9c0.1,0,0.1,0,0.2,0.1c0,0.1,0.1,0.1,0.1,0.2
	v0.9c0,0.1,0,0.1-0.1,0.2c0,0-0.1,0.1-0.2,0.1h-2.9v1.4h3.2c0.1,0,0.1,0,0.2,0.1c0,0,0.1,0.1,0.1,0.2v0.9c0,0.1-0.1,0.2-0.2,0.2l0,0
	L481.5,172.9z"/>
<path class="st3" d="M487.7,172.9c-0.1,0-0.1,0-0.2-0.1c0,0-0.1-0.1-0.1-0.2v-6.4c0-0.1,0.1-0.2,0.2-0.2l0,0h2.7
	c0.7,0,1.4,0.2,2,0.6c0.8,0.7,1,1.9,0.4,2.8c-0.2,0.3-0.5,0.6-0.9,0.7l1.4,2.4v0.1c0,0.1,0,0.1-0.1,0.1l-0.1,0.1h-1.3
	c-0.1,0-0.2,0-0.3-0.1c-0.1-0.1-0.1-0.1-0.1-0.2l-1.1-2.1h-1v2.2c0,0.1,0,0.1-0.1,0.2c0,0-0.1,0.1-0.2,0.1L487.7,172.9z
	 M489.2,169.1h1.1c0.3,0,0.5-0.1,0.7-0.2c0.2-0.2,0.2-0.4,0.2-0.6c0-0.2-0.1-0.5-0.2-0.6c-0.2-0.2-0.4-0.3-0.7-0.2h-1.1V169.1z"/>
<path class="st3" d="M493.9,172.9c-0.1,0-0.1,0-0.1-0.1l-0.1-0.1v-0.1l2.3-6.3c0-0.1,0.1-0.1,0.1-0.2c0.1-0.1,0.2-0.1,0.3-0.1h1.5
	c0.1,0,0.2,0,0.3,0.1c0.1,0,0.1,0.1,0.1,0.2l2.3,6.3v0.1c0,0.1,0,0.1-0.1,0.1l-0.1,0.1h-1.2c-0.1,0-0.2,0-0.2-0.1l-0.1-0.1l-0.4-1
	h-2.6l-0.4,1c0,0,0,0.1-0.1,0.1c-0.1,0.1-0.2,0.1-0.2,0.1H493.9z M496.2,170.3h1.8l-0.9-2.6L496.2,170.3z"/>
<path class="st3" d="M502.4,172.9c-0.1,0-0.1,0-0.2-0.1c0,0-0.1-0.1-0.1-0.2v-5.1h-1.7c-0.1,0-0.1,0-0.2-0.1c0,0-0.1-0.1-0.1-0.2
	v-1.1c0-0.1,0.1-0.2,0.2-0.2l0,0h5.3c0.1,0,0.1,0,0.2,0.1c0,0,0.1,0.1,0.1,0.2v1.1c0,0.1,0,0.1-0.1,0.2c0,0.1-0.1,0.1-0.2,0.1h-1.7
	v5.1c0,0.1-0.1,0.2-0.2,0.2l0,0H502.4z"/>
<path class="st3" d="M507,172.9c-0.1,0-0.1,0-0.2-0.1c0,0-0.1-0.1-0.1-0.2v-6.4c0-0.1,0-0.1,0.1-0.2c0.1,0,0.1-0.1,0.2-0.1h4.6
	c0.1,0,0.2,0.1,0.2,0.2l0,0v0.9c0,0.1,0,0.1-0.1,0.2c0,0-0.1,0.1-0.2,0.1h-3.1v1.3h2.9c0.1,0,0.1,0,0.2,0.1c0,0.1,0.1,0.1,0.1,0.2
	v0.9c0,0.1,0,0.1-0.1,0.2c0,0-0.1,0.1-0.2,0.1h-2.9v1.4h3.2c0.1,0,0.1,0,0.2,0.1c0,0,0.1,0.1,0.1,0.2v0.9c0,0.1,0,0.1-0.1,0.2
	c0,0-0.1,0.1-0.2,0.1L507,172.9z"/>
<path class="st3" d="M515.6,172.9c-0.1,0-0.1,0-0.2-0.1c0,0-0.1-0.1-0.1-0.2v-6.4c0-0.1,0-0.1,0.1-0.2c0,0,0.1-0.1,0.2-0.1h2.4
	c0.4,0,0.8,0.1,1.2,0.2c0.3,0.1,0.6,0.4,0.8,0.7s0.3,0.7,0.3,1.1c0,0.4-0.1,0.8-0.3,1.1s-0.5,0.5-0.8,0.7c-0.4,0.2-0.8,0.2-1.2,0.2
	h-2v2.6c0,0.1-0.1,0.2-0.2,0.2l0,0L515.6,172.9z M516,169.5h1.9c0.5,0,0.9-0.1,1.3-0.4c0.3-0.3,0.4-0.7,0.4-1.1
	c0-0.4-0.1-0.8-0.4-1.1c-0.4-0.3-0.8-0.4-1.3-0.4H516V169.5z"/>
<path class="st3" d="M521.7,172.9c-0.1,0-0.1,0-0.2-0.1c0,0-0.1-0.1-0.1-0.2v-6.4c0-0.1,0-0.1,0.1-0.2c0,0,0.1-0.1,0.2-0.1h2.3
	c0.6,0,1.2,0.1,1.6,0.5c0.4,0.4,0.7,0.9,0.6,1.5c0,0.5-0.1,0.9-0.4,1.3c-0.3,0.3-0.7,0.6-1.1,0.6l1.6,2.7v0.1c0,0.1,0,0.1-0.1,0.1
	l-0.1,0.1H526c-0.1,0-0.2,0-0.2-0.1c-0.1-0.1-0.1-0.1-0.1-0.2l-1.5-2.7h-2v2.7c0,0.1-0.1,0.2-0.2,0.2l0,0L521.7,172.9z M522.1,169.4
	h1.9c0.5,0,0.9-0.1,1.3-0.4c0.5-0.6,0.5-1.5,0-2.1c-0.4-0.3-0.8-0.4-1.3-0.4h-1.8L522.1,169.4z"/>
<path class="st3" d="M530.1,173c-0.5,0-1-0.1-1.4-0.3s-0.7-0.5-0.9-0.9c-0.2-0.5-0.3-1-0.3-1.5c0-0.3,0-0.6,0-0.8s0-0.5,0-0.8
	c0-0.5,0.1-1,0.3-1.5c0.2-0.4,0.5-0.7,0.9-0.9c0.8-0.4,1.8-0.4,2.7,0c0.4,0.2,0.7,0.5,0.9,0.9c0.2,0.5,0.4,1,0.3,1.5
	c0,0.3,0,0.6,0,0.8s0,0.5,0,0.8c0,0.5-0.1,1-0.3,1.5c-0.2,0.4-0.5,0.7-0.9,0.9C531.1,172.9,530.6,173,530.1,173z M530.1,172.4
	c0.5,0,1-0.2,1.4-0.5c0.4-0.5,0.6-1.1,0.6-1.7c0-0.3,0-0.6,0-0.8s0-0.5,0-0.8c0-0.4-0.1-0.9-0.3-1.2s-0.4-0.5-0.7-0.7
	c-0.6-0.3-1.4-0.3-2,0c-0.3,0.2-0.5,0.4-0.7,0.7c-0.2,0.4-0.3,0.8-0.3,1.2c0,0.3,0,0.6,0,0.8s0,0.5,0,0.8c0,0.6,0.2,1.2,0.6,1.7
	C529.1,172.3,529.6,172.5,530.1,172.4L530.1,172.4z"/>
<path class="st3" d="M536.6,173c-0.5,0-1-0.1-1.5-0.4c-0.4-0.2-0.7-0.6-0.8-0.9c-0.2-0.4-0.3-0.9-0.3-1.4c0-0.3,0-0.6,0-0.9
	s0-0.6,0-0.9c0-0.5,0.1-0.9,0.3-1.4c0.2-0.4,0.5-0.7,0.8-0.9c0.4-0.2,1-0.4,1.5-0.4c0.4,0,0.8,0.1,1.2,0.2c0.6,0.2,1,0.6,1.3,1.2
	c0.1,0.2,0.2,0.5,0.2,0.7v0.1c0,0-0.1,0.1-0.2,0.1h-0.2h-0.1c-0.1,0-0.1-0.1-0.1-0.2c-0.1-0.5-0.3-0.9-0.7-1.2
	c-0.4-0.2-0.8-0.3-1.3-0.3s-1,0.2-1.4,0.5c-0.4,0.4-0.6,1-0.6,1.6c0,0.5,0,1.1,0,1.6c0,0.6,0.2,1.2,0.6,1.6c0.4,0.3,0.9,0.5,1.4,0.5
	s0.9-0.1,1.3-0.3c0.4-0.3,0.6-0.7,0.7-1.2c0-0.1,0-0.1,0.1-0.2c0,0,0.1,0,0.1-0.1h0.1c0.1,0,0.1,0,0.2,0.1v0.1
	c0,0.2-0.1,0.5-0.2,0.7c-0.1,0.3-0.3,0.5-0.5,0.7s-0.5,0.4-0.8,0.5C537.4,173,537,173,536.6,173z"/>
<path class="st3" d="M540.9,172.9c-0.1,0-0.2-0.1-0.2-0.2l0,0v-6.4c0-0.1,0-0.1,0.1-0.2c0,0,0.1-0.1,0.2-0.1h3.8
	c0.1,0,0.2,0.1,0.2,0.2l0,0v0.1c0,0.1,0,0.1-0.1,0.2c0,0-0.1,0.1-0.2,0.1h-3.4v2.5h3.2c0.1,0,0.1,0,0.2,0.1c0,0,0.1,0.1,0.1,0.2v0.1
	c0,0.1-0.1,0.2-0.2,0.2l0,0h-3.2v2.6h3.5c0.1,0,0.1,0,0.2,0.1c0,0,0.1,0.1,0.1,0.2v0.1c0,0.1,0,0.1-0.1,0.2c0,0-0.1,0.1-0.2,0.1h-4
	V172.9z"/>
<path class="st3" d="M548.5,173c-0.5,0-0.9-0.1-1.3-0.3c-0.3-0.1-0.6-0.4-0.8-0.7c-0.2-0.2-0.3-0.5-0.3-0.9c0-0.1,0-0.1,0.1-0.1
	l0.1-0.1h0.2c0.1,0,0.1,0,0.2,0.1l0.1,0.1c0,0.2,0.1,0.4,0.2,0.6c0.2,0.2,0.4,0.4,0.6,0.4c0.3,0.1,0.7,0.2,1,0.2
	c0.5,0,1-0.1,1.4-0.4c0.3-0.2,0.5-0.6,0.4-0.9c0-0.2-0.1-0.5-0.2-0.6c-0.2-0.2-0.4-0.3-0.7-0.4c-0.3-0.1-0.7-0.3-1.2-0.4
	c-0.4-0.1-0.8-0.3-1.1-0.5c-0.3-0.1-0.5-0.3-0.7-0.6s-0.2-0.6-0.2-0.9c0-0.3,0.1-0.6,0.3-0.9c0.2-0.3,0.5-0.5,0.8-0.6
	c0.4-0.2,0.8-0.3,1.2-0.2c0.3,0,0.7,0.1,1,0.2c0.3,0.1,0.5,0.2,0.7,0.4s0.3,0.3,0.4,0.6c0.1,0.2,0.1,0.4,0.2,0.6v0.1
	c0,0-0.1,0.1-0.2,0.1h-0.2h-0.1c-0.1,0-0.1-0.1-0.1-0.2c0-0.3-0.2-0.6-0.5-0.8c-0.4-0.2-0.8-0.3-1.2-0.3s-0.8,0.1-1.2,0.3
	c-0.5,0.3-0.6,1-0.3,1.5l0,0c0.2,0.2,0.4,0.4,0.6,0.4c0.3,0.1,0.7,0.3,1.1,0.4c0.4,0.1,0.8,0.3,1.2,0.5c0.3,0.1,0.5,0.3,0.7,0.6
	s0.3,0.6,0.2,0.9c0,0.4-0.1,0.7-0.3,1s-0.5,0.5-0.8,0.6C549.4,172.9,549,173,548.5,173z"/>
<path class="st3" d="M554.5,173c-0.5,0-0.9-0.1-1.3-0.3c-0.3-0.1-0.6-0.4-0.8-0.7c-0.2-0.2-0.3-0.5-0.3-0.9c0-0.1,0-0.1,0.1-0.1
	c0,0,0.1-0.1,0.2-0.1h0.2c0.1,0,0.1,0,0.2,0.1l0.1,0.1c0,0.2,0.1,0.4,0.2,0.6c0.2,0.2,0.4,0.4,0.6,0.4c0.3,0.1,0.7,0.2,1,0.2
	c0.5,0,1-0.1,1.4-0.4c0.3-0.2,0.5-0.6,0.4-0.9c0-0.2-0.1-0.5-0.2-0.6c-0.2-0.2-0.4-0.3-0.7-0.4c-0.3-0.1-0.7-0.3-1.2-0.4
	c-0.4-0.1-0.8-0.3-1.2-0.5c-0.8-0.4-1.1-1.5-0.7-2.3c0,0,0-0.1,0.1-0.1c0.2-0.3,0.5-0.5,0.8-0.6c0.4-0.2,0.8-0.3,1.2-0.2
	c0.3,0,0.7,0.1,1,0.2c0.3,0.1,0.5,0.2,0.7,0.4s0.3,0.3,0.4,0.6c0.1,0.2,0.1,0.4,0.2,0.6v0.1c0,0-0.1,0.1-0.2,0.1h-0.2h-0.1
	c-0.1,0-0.1-0.1-0.1-0.2c0-0.3-0.2-0.6-0.5-0.8c-0.4-0.2-0.8-0.3-1.2-0.3s-0.8,0.1-1.2,0.3c-0.3,0.2-0.5,0.5-0.5,0.9
	c0,0.2,0.1,0.5,0.2,0.6c0.2,0.2,0.4,0.4,0.7,0.4c0.4,0.2,0.8,0.3,1.1,0.4c0.4,0.1,0.8,0.3,1.2,0.5c0.3,0.1,0.5,0.3,0.7,0.6
	s0.2,0.6,0.2,0.9c0,0.4-0.1,0.7-0.3,1s-0.5,0.5-0.8,0.6C555.4,172.9,554.9,173,554.5,173z"/>
<path class="st5" d="M503.6,189.3l-0.2,0.2c-3.9,5.2-4.9,12.4-3.5,18.6c1.1,5,3.3,9.9,7.4,13.1c4.3,3.4,11.2,5.3,16.5,3.2
	c2.4-0.9,4.2-2.9,5-5.3c0.4-1.6,0.7-3.3,0.9-5c0.5-2.8,2.5-4.6,4.8-6s4.8-2.7,6.4-5.1c1.5-2.2,2.3-4.7,2.3-7.3
	c0-6-3.8-11.2-9.1-13.8c-4.5-2-9.6-2.6-14.5-1.7C513.6,181.4,507.5,184.3,503.6,189.3z"/>
<path class="st5" d="M531.8,214.1c0,2.2,1.8,3.9,3.9,3.9s3.9-1.8,3.9-3.9c0-2.2-1.8-3.9-3.9-3.9
	C533.6,210.2,531.8,211.9,531.8,214.1L531.8,214.1z"/>
<polygon class="st4" points="497.4,213.8 524.6,213.8 535.2,213.8 535.2,205 535.2,185 497.4,185 "/>
<polygon class="st6" points="497.4,188.9 524.6,188.9 535.2,188.9 535.2,187.7 535.2,185 497.4,185 "/>
<path d="M535.2,213.9h-37.8c-0.1,0-0.2-0.1-0.2-0.1l0,0V185c0-0.1,0.1-0.1,0.1-0.1h37.8c0.1,0,0.1,0.1,0.1,0.1v28.7
	C535.3,213.8,535.3,213.9,535.2,213.9L535.2,213.9z M497.6,213.6H535v-28.5h-37.4V213.6z"/>
<path d="M535.2,189.1h-37.8c-0.1,0-0.1-0.1-0.1-0.1l0.1-0.2l0,0h37.8c0.1,0,0.1,0.1,0.1,0.2S535.3,189.1,535.2,189.1z"/>
<path class="st4" d="M487.3,219.5l1.5-3.8c-0.1-3.1,0.1-6.2,0.5-9.2c0.8-4.5,2.9-5,2.9-5s1.8-4.7,5.3-7.4s7.1-3,7.8-0.8
	c0.7,2.2-3,3.1-4.6,6.5c-0.6,1-1,2.1-1.1,3.2c0,0,3.9-1.6,4.3,2.9c1.3-1.4,2.9-2.5,4.6-3.3c2.3-0.9,4.9,0,4.6,2.3s-4.6,4.1-5.6,7
	c-1.1,3.4-1.3,5.5-4.7,9l-1.2,3.7c-1.4,3.9-5.7,6-9.6,4.6C487.9,227.7,485.9,223.4,487.3,219.5L487.3,219.5z"/>
<path class="st3" d="M493.5,224.2c-2.9-1-5-3.4-5.6-6.3l-0.6,1.6c-1.4,3.9,0.6,8.2,4.6,9.6c3.9,1.4,8.2-0.6,9.6-4.6l0.9-2.7
	C500.1,224.4,496.6,225.3,493.5,224.2z"/>
<path d="M494.3,229.9c-4.2,0-7.7-3.4-7.7-7.7c0-1,0.2-1.9,0.5-2.8l1.5-3.8c-0.1-3.1,0.1-6.2,0.5-9.2c0.7-4.1,2.5-4.9,2.9-5
	c1.1-2.9,3-5.4,5.3-7.4c2.4-1.8,5-2.6,6.6-2.1c0.7,0.2,1.2,0.7,1.4,1.4c0.4,1.4-0.6,2.3-1.8,3.3c-1.2,0.9-2.1,2-2.8,3.3
	c-0.5,0.9-0.8,1.9-1,2.9c0.9-0.3,1.9-0.3,2.8,0.2c0.9,0.6,1.4,1.6,1.4,2.6c1.2-1.3,2.7-2.4,4.4-3.1c1.3-0.6,2.8-0.5,4,0.3
	c0.7,0.5,1,1.3,0.9,2.2c-0.1,1.2-1.3,2.2-2.6,3.3c-1.2,1.1-2.6,2.3-3,3.7c-0.2,0.6-0.4,1.1-0.5,1.6c-0.7,2.8-2.1,5.4-4.2,7.4
	l-1.2,3.6C500.6,227.8,497.6,229.9,494.3,229.9L494.3,229.9z M487.3,219.5l0.1,0.1c-1.4,3.8,0.6,8.1,4.5,9.5
	c3.8,1.4,8.1-0.6,9.5-4.5l0,0l1.2-3.7c0,0,0,0,0-0.1c2.1-2,3.5-4.5,4.2-7.3c0.2-0.5,0.3-1,0.5-1.6c0.7-1.5,1.8-2.8,3.1-3.8
	c1.2-1.1,2.3-2.1,2.5-3.1c0.1-0.7-0.2-1.5-0.8-1.9c-1.1-0.7-2.5-0.8-3.7-0.3c-1.7,0.8-3.3,1.9-4.6,3.2c0,0-0.1,0-0.2,0
	s-0.1-0.1-0.1-0.1c0-1.1-0.5-2.1-1.3-2.7c-0.9-0.4-1.9-0.4-2.8-0.1c-0.1,0-0.2,0-0.2-0.1c0,0,0,0,0-0.1c0.1-1.1,0.5-2.3,1.1-3.2
	c0.7-1.3,1.7-2.5,2.9-3.4c1.2-1,2.1-1.8,1.7-3c-0.2-0.6-0.6-1-1.2-1.2c-1.5-0.5-4,0.3-6.4,2.1c-3.4,2.6-5.2,7.3-5.2,7.3l-0.1,0.1
	c0,0-2,0.5-2.8,4.8c-0.4,3.1-0.5,6.1-0.5,9.2c0,0,0,0,0,0.1L487.3,219.5L487.3,219.5z"/>
<rect x="505" y="190.7" transform="matrix(0.2835 -0.959 0.959 0.2835 177.5898 630.3691)" class="st6" width="11.2" height="11.2"/>
<path class="st4" d="M516.1,195.1c-0.3,0.8-1.2,1.3-2,1s-1.3-1.2-1-2s1.1-1.3,1.9-1C515.9,193.4,516.4,194.2,516.1,195.1
	L516.1,195.1z"/>
<path d="M515.8,198.7c-0.4-0.3-0.9-0.5-1.4-0.5c-0.7,0.1-1.4,0.1-2.2,0.1c-0.8-0.1-1.2-0.9-1.5-1.5c-0.3-0.7-0.7-1.3-1.2-1.8
	c-0.5-0.4-1.1-0.7-1.8-0.8c-0.9-0.1-1.8,0.2-2.5,0.7l-1.6,5.3l10.7,3.2L515.8,198.7z"/>
<path d="M514.4,203.5L514.4,203.5l-10.7-3.2c0,0-0.1,0-0.1-0.1v-0.1l3.2-10.7c0-0.1,0.1-0.1,0.2-0.1l0,0l10.7,3.2
	c0.1,0,0.1,0.1,0.1,0.2l0,0l-3.2,10.7C514.6,203.4,514.6,203.5,514.4,203.5L514.4,203.5z M503.9,200l10.4,3.1l3.1-10.4l-10.4-3.1
	L503.9,200z"/>
<path d="M491.4,204.9c-0.1,0-0.1-0.1-0.1-0.2l0.7-3.3c0-0.1,0.1-0.1,0.2-0.1s0.1,0.1,0.1,0.2l-0.7,3.2
	C491.5,204.9,491.5,204.9,491.4,204.9z"/>
<path d="M500.7,207.1L500.7,207.1c-0.1,0-0.2-0.1-0.1-0.2l0,0l0.8-1.9c0-0.1,0.1-0.1,0.2-0.1s0.1,0.1,0.1,0.2l0,0l-0.8,1.9
	C500.8,207,500.8,207.1,500.7,207.1z"/>
<path d="M501.4,207.3c-0.3,0-0.6-0.1-0.8-0.2c-1.4-0.8-1.3-4-1.3-4.1s0.1-0.2,0.1-0.2s0.1,0.1,0.1,0.2c0,0,0,3.1,1.2,3.8
	s2.8-1,2.9-1c0.1-0.1,0.2-0.1,0.2,0c0.1,0.1,0.1,0.1,0,0.2l0,0C503.2,206.7,502.4,207.1,501.4,207.3z"/>
<path d="M501,186.8c0,0.4-0.4,0.8-0.8,0.8s-0.8-0.4-0.8-0.8c0-0.4,0.4-0.8,0.8-0.8l0,0C500.6,186.1,501,186.4,501,186.8L501,186.8z"
	/>
<path class="st4" d="M506.8,186.8c0,0.4-0.4,0.8-0.8,0.8s-0.7-0.4-0.7-0.9c0-0.4,0.3-0.7,0.7-0.7
	C506.4,186.1,506.8,186.4,506.8,186.8L506.8,186.8z"/>
<path class="st5" d="M503.9,186.8c0,0.4-0.3,0.8-0.8,0.8c-0.4,0-0.8-0.3-0.8-0.8c0-0.4,0.3-0.8,0.8-0.8
	C503.5,186,503.9,186.4,503.9,186.8L503.9,186.8z"/>
<path d="M527.8,197.8c-0.1,0-0.1,0-0.1-0.1l-2.7-6.6l-2.6,6.6c0,0.1-0.1,0.1-0.2,0.1l0,0c-0.1,0-0.1-0.1-0.1-0.2l0,0l2.8-7
	c0-0.1,0.1-0.1,0.1-0.1c0.1,0,0.1,0,0.1,0.1l2.8,7C528,197.7,527.9,197.8,527.8,197.8L527.8,197.8L527.8,197.8z"/>
<path d="M527.3,195.5h-4.5c-0.1,0-0.1-0.1-0.1-0.2s0.1-0.1,0.1-0.1h4.5c0.1,0,0.2,0.1,0.2,0.1S527.4,195.5,527.3,195.5L527.3,195.5z
	"/>
<path class="st6" d="M530.7,197.8c-0.9,0-1.6-0.7-1.6-1.6c0-0.9,0.7-1.6,1.6-1.6c0.9,0,1.6,0.7,1.6,1.6l0,0
	C532.3,197.1,531.6,197.8,530.7,197.8z M530.7,195c-0.7,0-1.3,0.6-1.3,1.3s0.6,1.3,1.3,1.3s1.3-0.6,1.3-1.3l0,0
	C532,195.6,531.4,195,530.7,195z"/>
<path class="st6" d="M532.1,197.8c-0.1,0-0.1-0.1-0.1-0.2V195c0-0.1,0.1-0.1,0.2-0.1c0.1,0,0.1,0.1,0.1,0.1v2.6
	C532.3,197.8,532.2,197.8,532.1,197.8z"/>
<path d="M532.1,198.6h-9.9c-0.1,0-0.1-0.1-0.1-0.2s0.1-0.1,0.1-0.1h9.9c0.1,0,0.2,0.1,0.2,0.1S532.2,198.6,532.1,198.6z"/>
<path d="M527.3,210.9c-2.5,0-4.5-2-4.5-4.5s2-4.5,4.5-4.5s4.5,2,4.5,4.5l0,0C531.8,208.9,529.8,210.9,527.3,210.9L527.3,210.9z
	 M527.3,202.2c-2.3,0-4.2,1.9-4.2,4.2s1.9,4.2,4.2,4.2s4.2-1.9,4.2-4.2S529.6,202.2,527.3,202.2L527.3,202.2z"/>
<path class="st6" d="M528,202.1c0,0.4-0.3,0.8-0.8,0.8c-0.4,0-0.8-0.3-0.8-0.8s0.3-0.8,0.8-0.8S528,201.7,528,202.1z"/>
<path d="M528,210.8c0,0.4-0.2,0.8-0.7,0.8c-0.4,0-0.8-0.2-0.8-0.7c0-0.1,0-0.1,0-0.2c0-0.4,0.4-0.7,0.8-0.7
	C527.7,210.1,528,210.4,528,210.8z"/>
<path d="M531.6,207.2c-0.4,0-0.7-0.3-0.7-0.7s0.3-0.7,0.7-0.8c0.4,0,0.7,0.3,0.8,0.8C532.4,206.8,532,207.2,531.6,207.2z"/>
<path class="st6" d="M522.9,207.2c-0.4,0-0.7-0.3-0.8-0.7c0-0.4,0.3-0.7,0.8-0.8c0.4,0,0.7,0.3,0.7,0.8
	C523.7,206.8,523.3,207.2,522.9,207.2z"/>
<rect x="372.9" y="156.1" transform="matrix(0.358 -0.9337 0.9337 0.358 99.6626 468.3633)" class="st5" width="35.1" height="11.3"/>
<path d="M389.4,180.3L389.4,180.3l-10.5-4c-0.1,0-0.1-0.1-0.1-0.2l0,0l12.6-32.8c0,0,0-0.1,0.1-0.1h0.1l10.5,4
	c0.1,0,0.1,0.1,0.1,0.2l-12.6,32.8c0,0,0,0.1-0.1,0.1H389.4z M379,176l10.3,4l12.5-32.5l-10.3-3.9L379,176z"/>
<polygon class="st4" points="389.4,180.1 380.6,187.2 378.9,176.1 "/>
<path d="M380.6,187.3L380.6,187.3l-0.1-0.1l-1.8-11.1c0-0.1,0-0.2,0.1-0.2h0.1l10.5,4c0.1,0,0.1,0.1,0,0.2l0,0l-8.8,7.1
	C380.7,187.3,380.7,187.3,380.6,187.3z M379,176.3l1.7,10.6l8.4-6.8L379,176.3z"/>
<polygon points="380.6,187.2 379.7,181.5 385.1,183.6 "/>
<path d="M386.6,179.2L386.6,179.2c-0.1,0-0.2-0.1-0.1-0.2l0,0l11.5-29.9c0-0.1,0.1-0.1,0.2-0.1s0.1,0.1,0.1,0.2l0,0l-11.5,29.9
	C386.8,179.2,386.7,179.2,386.6,179.2L386.6,179.2z"/>
<path d="M381.7,177.3L381.7,177.3c-0.1,0-0.2-0.1-0.1-0.2l0,0l11.5-29.9c0-0.1,0.1-0.1,0.2-0.1s0.1,0.1,0.1,0.2l-11.5,29.9
	C381.8,177.3,381.7,177.3,381.7,177.3z"/>
<path class="st6" d="M400.9,150.2l1.3-3.4c1.3-2.8,0-6.2-2.9-7.4c-2.8-1.3-6.2,0-7.4,2.9c-0.1,0.2-0.2,0.4-0.2,0.6l-1.3,3.5
	L400.9,150.2z"/>
<rect x="393.4" y="142" transform="matrix(0.358 -0.9337 0.9337 0.358 116.2824 464.3559)" class="st4" width="4.9" height="11.3"/>
<path d="M400.2,152.1L400.2,152.1l-10.6-4c-0.1,0-0.1-0.1-0.1-0.2l1.8-4.6c0,0,0-0.1,0.1-0.1h0.1l10.5,4c0.1,0,0.1,0.1,0.1,0.2
	l-1.8,4.6C400.3,152,400.3,152.1,400.2,152.1L400.2,152.1z M389.9,147.8l10.3,3.9l1.7-4.3l-10.3-3.9L389.9,147.8z"/>
<path class="st4" d="M385.6,151.1c-1.4,0.1-5.1,3-7.7,7.6c-0.4,0.6-0.6,1.4-0.5,2.1c-1.8,1.9-2.4,4.6-1.5,7c1.1,3.1,3,3.8,3,3.8
	c0.6,2.8,2.1,3.9,3.7,3.7c2.5-0.2,3.4-3.4,2.7-7.6c-0.4-2.6-0.6-7-0.6-7l3.5-9.2l0.2-0.5L385.6,151.1z"/>
<path d="M382.4,175.4c-1.7,0-3-1.4-3.5-3.8c-0.4-0.2-2-1-3-3.8c-0.9-2.4-0.3-5.2,1.4-7.1c-0.1-0.8,0.1-1.5,0.5-2.2
	c2.5-4.6,6.3-7.6,7.8-7.7c1.3-0.1,2.9-0.1,2.9-0.1s0.1,0,0.1,0.1v0.1l-3.7,9.7c0,0.4,0.2,4.5,0.6,6.9c0.5,3,0.2,5.4-0.8,6.7
	c-0.5,0.6-1.2,1.1-2,1.1L382.4,175.4z M385.6,151.2c-1.2,0.1-4.9,2.8-7.6,7.6c-0.4,0.6-0.5,1.3-0.4,2v0.1c-1.7,1.8-2.3,4.5-1.4,6.8
	c1.1,3,2.9,3.7,2.9,3.7l0.1,0.1c0.5,2.5,1.8,3.8,3.6,3.6c0.7-0.1,1.4-0.4,1.8-1c1-1.3,1.2-3.5,0.8-6.4c-0.4-2.6-0.6-6.9-0.6-7
	c0,0,0,0,0-0.1l3.7-9.6L385.6,151.2L385.6,151.2z"/>
<path class="st4" d="M406.7,153.1l-6.1-2.1l-3.7,9.3c-4,7.1-12,12.1-9,15.5c2.5,2.8,7.2-1.4,9.5-4c0.6-0.6,1.4-0.7,2.1-0.4
	c5,2.1,10.8-0.2,12.9-5.2s-0.2-10.8-5.2-12.9C407,153.3,406.8,153.2,406.7,153.1L406.7,153.1z"/>
<path d="M389.9,176.9c-0.8,0-1.6-0.4-2.1-1c-2-2.2,0.5-5,3.5-8.5c2.1-2.2,3.9-4.6,5.5-7.2l3.7-9.3c0-0.1,0.1-0.1,0.2-0.1l6.1,2.1
	c5.2,1.9,7.9,7.6,6,12.8s-7.6,7.9-12.8,6c-0.2-0.1-0.3-0.1-0.5-0.2c-0.7-0.3-1.4-0.2-2,0.3C395.4,174.3,392.3,176.9,389.9,176.9
	L389.9,176.9z M400.6,151.2l-3.6,9.2c-1.6,2.6-3.4,5.1-5.5,7.3c-3,3.4-5.3,6.1-3.5,8.1c0.5,0.6,1.2,0.9,2,0.9c2.3,0,5.3-2.5,7.3-4.9
	c0.6-0.6,1.5-0.8,2.3-0.4c4.9,2.1,10.6-0.2,12.7-5.2c2.1-4.9-0.2-10.6-5.2-12.7c-0.2-0.1-0.3-0.1-0.5-0.2L400.6,151.2z"/>
<path class="st3" d="M407.5,153.5c3.9,5.1,3,12.4-2,16.3c-1.4,1.1-2.9,1.8-4.6,2.2c5.2,1.5,10.7-1.6,12.2-6.8
	C414.3,160.4,411.9,155.4,407.5,153.5z"/>
<path d="M379,171.7c-0.1,0-0.1-0.1-0.1-0.1l-1.5-10.7c0-0.1,0-0.1,0.1-0.2l0,0c0.1,0,0.1,0,0.2,0.1l0,0l1.5,10.7
	C379.2,171.6,379.1,171.7,379,171.7L379,171.7L379,171.7z"/>
<path d="M384.8,160.9c-0.1,0-0.1-0.1-0.1-0.1l-0.3-2c0-0.1,0-0.2,0.1-0.2l0,0c0.1,0,0.2,0,0.2,0.1l0.4,2
	C384.9,160.8,384.9,160.8,384.8,160.9C384.8,160.8,384.8,160.8,384.8,160.9L384.8,160.9z"/>
<path d="M380.6,187.3h-9.4c-0.1,0-0.1-0.1-0.1-0.1v-17.9h-15.7c-0.1,0-0.1-0.1-0.1-0.1c0-0.1,0.1-0.1,0.1-0.1l0,0h15.9
	c0.1,0,0.1,0.1,0.1,0.1l0,0v18h9.3c0.1,0,0.1,0.1,0.1,0.1S380.7,187.3,380.6,187.3z"/>
<path d="M357.3,152.1c0,1.1-0.8,1.9-1.9,1.9s-1.9-0.8-1.9-1.9c0-1.1,0.8-1.9,1.9-1.9l0,0C356.4,150.2,357.3,151.1,357.3,152.1
	L357.3,152.1z"/>
<path class="st6" d="M373.1,169.1c0,1.1-0.8,1.9-1.9,1.9s-1.9-0.8-1.9-1.9c0-1.1,0.8-1.9,1.9-1.9l0,0
	C372.2,167.2,373.1,168,373.1,169.1z"/>
<circle class="st6" cx="371.2" cy="187.2" r="1.9"/>
<path d="M355.3,169.2c-0.1,0-0.1-0.1-0.1-0.1v-17c0-0.1,0.1-0.1,0.1-0.1l0,0c0.1,0,0.1,0.1,0.1,0.1v17
	C355.5,169.2,355.4,169.2,355.3,169.2z"/>
<circle cx="355.3" cy="169.1" r="1.9"/>
<circle class="st5" cx="70.9" cy="93.2" r="16.5"/>
<path class="st6" d="M68.3,96.1l-12.2,7.1c0.4,0.7,0.9,1.4,1.5,2.1c2.1,2.5,5.1,4.2,8.3,4.7L68.3,96.1z"/>
<circle class="st5" cx="76.7" cy="68.6" r="3.5"/>
<path class="st4" d="M94.7,73.4v16.5c0,2.2-1.8,4.1-4.1,4.1H65.2c-2.2,0-4.1-1.8-4.1-4.1V73.4c0-2.2,1.8-4.1,4.1-4.1h25.5
	C92.9,69.3,94.7,71.2,94.7,73.4z"/>
<path d="M90.7,94.1H65.2c-2.3,0-4.2-1.9-4.2-4.2V73.4c0-2.3,1.9-4.2,4.2-4.2h25.5c2.3,0,4.2,1.9,4.2,4.2v16.4
	C94.9,92.2,93,94,90.7,94.1z M65.2,69.5c-2.2,0-3.9,1.8-3.9,3.9v16.4c0,2.2,1.8,3.9,3.9,3.9h25.5c2.2,0,3.9-1.8,3.9-3.9V73.4
	c0-2.2-1.8-3.9-3.9-3.9H65.2z"/>
<path class="st6" d="M93.5,73.4v16.4c0,1.5-1.3,2.8-2.8,2.8H65.2c-1.5,0-2.8-1.3-2.8-2.8V73.4c0-1.5,1.3-2.8,2.8-2.8h25.5
	C92.2,70.6,93.5,71.8,93.5,73.4z"/>
<path class="st4" d="M62.4,73.4v0.2h31.1v-0.2c0-1.5-1.3-2.8-2.8-2.8l0,0H65.2C63.7,70.6,62.4,71.8,62.4,73.4L62.4,73.4z"/>
<path d="M90.7,92.8H65.2c-1.6,0-2.9-1.3-3-2.9V73.4c0-1.6,1.3-2.9,3-2.9h25.5c1.6,0,2.9,1.3,2.9,2.9l0,0v16.4
	C93.6,91.5,92.3,92.8,90.7,92.8L90.7,92.8z M65.2,70.7c-1.5,0-2.7,1.2-2.7,2.7v16.4c0,1.5,1.2,2.7,2.7,2.7h25.5
	c1.5,0,2.7-1.2,2.7-2.7l0,0V73.4c0-1.5-1.2-2.7-2.7-2.7l0,0C90.7,70.7,65.2,70.7,65.2,70.7z"/>
<path class="st4" d="M84.4,106.2l-0.7-4.6c0,0-5.2-8.9-3.8-13.3s2.7-7.4,3.5-9.4c1.1-2.6,3.8-2.2,4.5-1.2c1.2,1.6,0.4,3.6-0.7,7.6
	c-0.2,0.7,0.2,1.4,0.9,1.6c0.3,0.1,0.5,0.1,0.8,0c0.2-0.1,0.4-0.2,0.5-0.3c1-1.1,3.1-9.5,3.4-12.4c0.2-1.4,1.5-2.4,2.9-2.3
	c1.2,0.1,2.1,1,2.3,2.2v0.1c0.3,3.1-1,9.4-1,9.4s3.5,1.5,3.1,5c0.7,0.9,1,2.1,0.8,3.2c-0.3,2-2.5,6.3-2.4,8.5c0,1.2,0.2,2.4,0.4,3.7
	c0.6,4-2.2,7.7-6.1,8.2C88.7,112.9,85,110.2,84.4,106.2L84.4,106.2z"/>
<path d="M91.6,112.6c-3.7,0-6.8-2.7-7.3-6.3l-0.7-4.6c-0.3-0.6-5.2-9.1-3.8-13.4c1.2-3.5,2.3-6.7,3.5-9.4c0.4-1.1,1.3-1.8,2.5-2
	c0.8-0.1,1.7,0.2,2.2,0.8c1.1,1.4,0.6,3.1-0.2,6.2c-0.1,0.5-0.3,1-0.4,1.5c-0.1,0.4,0,0.9,0.3,1.2c0.3,0.3,0.7,0.4,1.1,0.3
	c0.2-0.1,0.3-0.2,0.4-0.3c1-1.1,3-9.6,3.3-12.3c0.1-1.4,1.3-2.4,2.7-2.4c1.4-0.1,2.5,1,2.7,2.3c0,0,0,0.1,0,0.2
	c0.2,2.8-0.8,8.5-1,9.3c0.6,0.3,3.4,1.8,3,5c0.7,0.9,1,2.1,0.8,3.3c-0.2,1.2-0.6,2.3-1,3.4c-0.7,1.6-1.2,3.3-1.3,5
	c0,1.1,0.2,2.3,0.4,3.7c0.6,4.1-2.2,7.8-6.3,8.4C92.3,112.5,91.9,112.5,91.6,112.6L91.6,112.6z M86.2,77.1h-0.3
	c-1,0.2-1.9,0.9-2.3,1.9c-1.2,2.7-2.3,5.8-3.5,9.3c-1.4,4.3,3.7,13.1,3.8,13.2l0,0l0.7,4.6c0.5,3.5,3.5,6.1,7,6.1c0.3,0,0.7,0,1-0.1
	c3.9-0.6,6.6-4.2,6-8.1c-0.2-1.2-0.3-2.5-0.4-3.7c0.2-1.8,0.6-3.5,1.3-5.1c0.4-1.1,0.8-2.2,1-3.4c0.2-1.1-0.1-2.2-0.8-3.1v-0.1
	c0.4-3.4-2.9-4.8-3-4.9c-0.1,0-0.1-0.1-0.1-0.2s1.2-6.3,1-9.4V74c-0.1-1.2-1.2-2.1-2.4-2.1c-1.3,0-2.4,0.9-2.5,2.2
	c-0.3,2.8-2.4,11.3-3.4,12.4c-0.2,0.2-0.3,0.3-0.6,0.4c-0.5,0.2-1,0-1.4-0.3c-0.4-0.4-0.6-0.9-0.4-1.4c0.2-0.6,0.3-1.1,0.4-1.5
	c0.8-3,1.3-4.6,0.3-6C87.3,77.3,86.8,77.1,86.2,77.1z"/>
<path class="st3" d="M98.5,101.7c-1.1,4.1-5.3,6.5-9.4,5.4c-2.6-0.7-4.6-2.7-5.3-5.2l0.6,4.3c0.6,4,4.3,6.7,8.2,6.1
	c4-0.6,6.7-4.3,6.1-8.2C98.7,103.3,98.6,102.5,98.5,101.7z"/>
<path d="M95.8,87.5L95.8,87.5c-0.1,0-0.1-0.1-0.1-0.2l1.1-3.7c0-0.1,0.1-0.1,0.2-0.1s0.1,0.1,0.1,0.2L96,87.4
	C96,87.5,95.9,87.5,95.8,87.5z"/>
<path d="M98.9,92.4L98.9,92.4c-0.1,0-0.1-0.1-0.1-0.2l1.1-3.7c0-0.1,0.1-0.1,0.2-0.1s0.1,0.1,0.1,0.2L98.9,92.4L98.9,92.4z"/>
<path class="st4" d="M73.2,79.5c-1.1,0-1.9-0.9-1.9-1.9s0.9-1.9,1.9-1.9s1.9,0.9,1.9,1.9S74.2,79.5,73.2,79.5L73.2,79.5z M73.2,76
	c-0.9,0-1.6,0.7-1.6,1.6s0.7,1.6,1.6,1.6s1.6-0.7,1.6-1.6l0,0C74.8,76.7,74,76,73.2,76L73.2,76z"/>
<path d="M85.8,64.3c0,1,0.8,1.8,1.8,1.8s1.8-0.8,1.8-1.8s-0.8-1.8-1.8-1.8l0,0C86.6,62.5,85.8,63.3,85.8,64.3z"/>
<path d="M74.1,103.5L74.1,103.5c-0.1-0.1-0.1-0.1-0.1-0.2l1.6-1.6c0-0.1,0.1-0.1,0.2,0s0.1,0.1,0,0.2l0,0L74.1,103.5
	C74.2,103.5,74.2,103.5,74.1,103.5z"/>
<path d="M75.7,103.5C75.7,103.5,75.6,103.5,75.7,103.5l-1.7-1.6c0-0.1,0-0.1,0-0.2s0.1-0.1,0.2,0l0,0l1.6,1.6
	C75.8,103.3,75.8,103.4,75.7,103.5C75.8,103.4,75.8,103.4,75.7,103.5L75.7,103.5z"/>
<path class="st4" d="M81.7,77.9h-6.8c-0.1,0-0.1-0.1-0.1-0.1l0,0c0-0.1,0.1-0.1,0.1-0.1h6.8C81.8,77.7,81.8,77.7,81.7,77.9
	L81.7,77.9C81.9,77.8,81.8,77.9,81.7,77.9z"/>
<path class="st4" d="M68.5,88.2L68.5,88.2c-0.1,0-0.1-0.1-0.1-0.2l3.9-8.8c0-0.1,0.1-0.1,0.2-0.1s0.1,0.1,0.1,0.2c0,0,0,0,0,0.1
	l-3.9,8.8C68.6,88.2,68.6,88.2,68.5,88.2z"/>
<path class="st4" d="M81.7,77.7L81.7,77.7c-0.1,0-0.1-0.1-0.1-0.2l0,0l1.8-4c0-0.1,0.1-0.1,0.2-0.1s0.1,0.1,0.1,0.2l-1.7,4
	C81.9,77.7,81.8,77.8,81.7,77.7z"/>
<path d="M83.5,73.8L83.5,73.8c-0.1,0-0.1-0.1-0.1-0.2l3.4-7.7c0-0.1,0.1-0.1,0.2-0.1s0.1,0.1,0.1,0.2l0,0l-3.4,7.7
	C83.6,73.7,83.5,73.8,83.5,73.8L83.5,73.8z"/>
<path class="st4" d="M67.8,91.6c-1.1,0-1.9-0.9-1.9-1.9s0.9-1.9,1.9-1.9s1.9,0.9,1.9,1.9C69.7,90.7,68.8,91.6,67.8,91.6z M67.8,88
	c-0.9,0-1.6,0.7-1.6,1.7c0,0.9,0.7,1.6,1.7,1.6c0.9,0,1.6-0.7,1.6-1.7l0,0C69.4,88.7,68.7,88,67.8,88L67.8,88z"/>
<path d="M65.2,72c0,0.3-0.2,0.5-0.5,0.5s-0.5-0.2-0.5-0.5s0.2-0.5,0.5-0.5S65.2,71.7,65.2,72L65.2,72z"/>
<circle class="st5" cx="68.2" cy="72" r="0.5"/>
<circle class="st6" cx="66.5" cy="72" r="0.5"/>
<path class="st5" d="M198.1,192.1c0,2.1-1.7,3.9-3.9,3.9c-2.1,0-3.9-1.7-3.9-3.9c0-2.1,1.7-3.9,3.9-3.9l0,0
	C196.4,188.2,198.1,190,198.1,192.1z"/>
<circle class="st5" cx="171.5" cy="178.5" r="21.2"/>
<path class="st6" d="M171.8,167.2c-6.1,0-11,4.9-11,11s4.9,11,11,11s11-4.9,11-11l0,0h-11V167.2z"/>
<path d="M171.8,189.3c-6.1,0-11.1-5-11.1-11.1s5-11.1,11.1-11.1l0,0c0.1,0,0.1,0.1,0.1,0.1V178h10.8c0.1,0,0.1,0.1,0.1,0.1
	C183,184.3,178,189.3,171.8,189.3L171.8,189.3z M171.7,167.3c-6,0.1-10.8,5-10.7,11s5,10.8,11,10.7c5.8-0.1,10.6-4.8,10.7-10.7
	h-10.9c-0.1,0-0.1-0.1-0.1-0.1V167.3z"/>
<path class="st4" d="M174.6,164.6v11h11C185.6,169.5,180.7,164.6,174.6,164.6z"/>
<path d="M185.6,175.7h-11c-0.1,0-0.1-0.1-0.1-0.1v-11c0-0.1,0.1-0.1,0.1-0.1c6.1,0,11.1,5,11.1,11.1
	C185.7,175.6,185.7,175.7,185.6,175.7L185.6,175.7z M174.8,175.4h10.7c-0.1-5.9-4.8-10.6-10.7-10.7V175.4z"/>
<path class="st4" d="M188.2,187c-3.5-3.5-10.3-1.3-10.3-1.3s-3.3-0.8-6.6-1.2s-4.4,2-4.4,2s-7.5-8.5-10.9-8.1
	c-0.9,0.1-1.6,0.6-2,1.4c-3.2-1.9-5.8,1.9-3.5,4.1c1.2,1.2,2.3,2.3,2.3,2.3c-3.2-0.5-4.4,4.2-2,5.4c2,1.1,12.5,6.5,16,8.4
	c0.8,0.4,1.6,0.7,2.5,0.7l7.2,0.6c1,0.1,1.9,0.7,2.5,1.5c2.4,4.1,7.7,5.4,11.8,3s5.4-7.7,3-11.8c-0.1-0.2-0.3-0.5-0.5-0.7
	C191.8,191.1,190.1,189,188.2,187z"/>
<path class="st3" d="M193.4,193.4c-0.5-0.7-1.1-1.4-1.6-2.1c1.6,4.9-1.1,10.2-6,11.7c-2.3,0.8-4.9,0.6-7.1-0.6
	c0.1,0.2,0.3,0.3,0.4,0.5c2.4,4.1,7.7,5.4,11.8,3s5.4-7.7,3-11.8C193.7,193.8,193.6,193.6,193.4,193.4z"/>
<path d="M186.5,207.3c-0.6,0-1.1-0.1-1.7-0.2c-2.4-0.5-4.6-2-5.8-4.1c-0.5-0.8-1.4-1.4-2.4-1.5l-7.2-0.6c-0.9-0.1-1.8-0.3-2.5-0.7
	c-3.2-1.7-13.9-7.3-16-8.4c-1.2-0.7-1.7-2.2-1.2-3.6c0.4-1.3,1.5-2.2,2.9-2.2c-0.4-0.4-1.1-1.2-2-2c-1.1-1-1.2-2.7-0.3-3.8
	c0.9-1.2,2.6-1.4,3.9-0.6c0.4-0.8,1.2-1.3,2-1.4c3.2-0.4,9.8,6.7,10.8,7.9c0.9-1.5,2.7-2.3,4.4-1.9c3,0.4,6.1,1.1,6.5,1.2
	c1.2-0.4,2.5-0.6,3.8-0.7c2.8-0.2,5.1,0.5,6.6,2c1.9,2,3.6,4.1,5.2,6.3c2.9,3.9,2.1,9.4-1.8,12.3
	C190.2,206.7,188.4,207.3,186.5,207.3L186.5,207.3z M152.5,186.4c-1.2,0-2.2,0.9-2.5,2c-0.5,1.2,0,2.5,1.1,3.2
	c2.1,1.1,12.8,6.7,16,8.4c0.8,0.4,1.6,0.6,2.4,0.7l7.2,0.6c1.1,0.1,2,0.7,2.6,1.6c2.4,4,7.6,5.3,11.6,2.9c4-2.4,5.3-7.6,2.9-11.6
	c-0.1-0.2-0.3-0.4-0.4-0.6c-1.6-2.2-3.3-4.3-5.2-6.3c-3.4-3.4-10-1.2-10.1-1.2H178c0,0-3.3-0.8-6.6-1.2s-4.2,1.8-4.2,1.9l-0.1,0.1
	H167c-0.1-0.1-7.5-8.4-10.7-8c-0.8,0.1-1.5,0.6-1.9,1.3c0,0,0,0.1-0.1,0.1h-0.1c-1.1-0.8-2.7-0.6-3.6,0.5c-0.8,1-0.7,2.5,0.3,3.4
	c1.2,1.2,2.3,2.3,2.3,2.3c0.1,0.1,0.1,0.1,0,0.2c0,0-0.1,0.1-0.1,0L152.5,186.4z"/>
<path d="M178.6,192.8L178.6,192.8c-0.1,0-5.4-1.7-7.1-2.1l-0.2-0.1c-1.3-0.4-3.5-0.9-4.2-2.3c-0.3-0.5-0.3-1.2-0.1-1.8
	c0-0.1,0.1-0.1,0.2-0.1c0.1,0,0.1,0.1,0.1,0.2l0,0c-0.2,0.5-0.2,1,0.1,1.5c0.7,1.2,2.8,1.8,4.1,2.2l0.2,0.1c1.6,0.4,7,2.1,7.1,2.2
	c0.1,0,0.1,0.1,0.1,0.2l0,0C178.7,192.7,178.6,192.8,178.6,192.8z"/>
<path d="M163.3,198.3c0,0-0.1,0-0.1-0.1l-10.3-11.9c-0.1-0.1-0.1-0.1,0-0.2c0.1-0.1,0.1-0.1,0.2,0l0,0l10.3,11.9
	c0.1,0,0.1,0.1,0,0.2l0,0C163.4,198.3,163.3,198.3,163.3,198.3z"/>
<path d="M165.7,197.1h-0.1c-0.1-0.1-9.7-11.7-11.2-13.6c-0.9-1-1-2.5-0.3-3.7c0.1-0.1,0.2-0.1,0.2,0c0.1,0.1,0.1,0.1,0,0.2
	c-0.7,1-0.6,2.4,0.3,3.3c1.5,1.9,11.1,13.5,11.2,13.6C165.8,197,165.8,197.1,165.7,197.1C165.8,197.2,165.8,197.2,165.7,197.1
	C165.7,197.2,165.7,197.2,165.7,197.1z"/>
<path d="M189.6,180c0,0-0.1,0-0.1-0.1c-0.1-0.1-0.1-0.1,0-0.2l0,0l4.7-4c0.1-0.1,0.1-0.1,0.2,0c0.1,0.1,0.1,0.2,0,0.2l-4.7,4
	C189.6,180,189.6,180,189.6,180z"/>
<path d="M195.7,176.7c-1.2,0-2.1-0.9-2.1-2.1c0-1.2,0.9-2.1,2.1-2.1c1.2,0,2.1,0.9,2.1,2.1l0,0C197.8,175.7,196.9,176.7,195.7,176.7
	L195.7,176.7z M195.7,172.8c-1,0-1.8,0.8-1.8,1.8s0.8,1.8,1.8,1.8s1.8-0.8,1.8-1.8S196.7,172.8,195.7,172.8L195.7,172.8z"/>
<path d="M157.5,165.4l-7.9-0.5c-0.1,0-0.2-0.1-0.2-0.1c0-0.1,0.1-0.2,0.2-0.2l0,0l7.8,0.5c0.1,0,0.1,0.1,0.1,0.2
	C157.6,165.4,157.5,165.4,157.5,165.4z"/>
<path d="M159.4,167.5c-0.3,0-0.7-0.1-1-0.2c-1-0.5-1.4-1.8-0.9-2.8s1.8-1.4,2.8-0.9c0.5,0.3,0.9,0.7,1,1.3c0.3,1.1-0.3,2.3-1.4,2.6
	C159.8,167.5,159.6,167.5,159.4,167.5z M157.8,164.6c-0.5,0.9-0.1,2,0.8,2.4l0,0c0.9,0.5,2,0.1,2.5-0.8c0.5-0.9,0.1-2-0.8-2.5
	C159.4,163.3,158.3,163.7,157.8,164.6L157.8,164.6z"/>
<path class="st6" d="M147.9,163.9c-0.5,1-0.2,2.2,0.8,2.7s2.2,0.2,2.7-0.8s0.2-2.2-0.8-2.7c0,0,0,0-0.1,0
	C149.6,162.6,148.4,163,147.9,163.9z"/>
<path d="M163.1,169.3H163l-2.3-2.4c-0.1,0-0.1-0.1,0-0.2l0,0c0.1-0.1,0.1-0.1,0.2,0l0,0l2.3,2.4
	C163.3,169.2,163.3,169.2,163.1,169.3L163.1,169.3C163.1,169.3,163.1,169.3,163.1,169.3z"/>
<path class="st5" d="M466.7,65.8c-3.3,0.7-6.4,2.4-8.8,4.9c-3.2,3.4-4,8-1.7,12.1c2,3.4,4.8,3.6,8.3,4.1c5.8,0.9,5.2,6.2,6.8,10.6
	c1.8,4.6,6.7,7,11.5,6.9c11.2-0.1,18.1-11.8,16.2-22.1c-1.4-7.6-6.3-12.6-12.6-15.2C480.1,64.6,473.2,64.1,466.7,65.8z"/>
<polygon class="st4" points="494,81.8 493.6,83.1 492.5,82.7 492.9,81.4 491.6,80.9 491.2,82.2 490,81.8 490.5,80.5 489.2,80.1 
	488.7,81.4 487.6,81 488,79.7 486.7,79.2 486.3,80.5 485.1,80.1 485.6,78.9 484.3,78.4 483.8,79.7 482.7,79.3 483.2,78 481.9,77.6 
	481.4,78.9 476.5,93.1 490,97.8 494.9,83.5 495.3,82.2 "/>
<path d="M490,97.9L490,97.9l-13.5-4.7c-0.1,0-0.1-0.1-0.1-0.2l0,0l5.4-15.5c0,0,0-0.1,0.1-0.1h0.1l1.3,0.4c0.1,0,0.1,0.1,0.1,0.2
	l-0.5,1.2l0.9,0.3l0.4-1.2c0,0,0-0.1,0.1-0.1h0.1l1.3,0.4c0.1,0,0.1,0.1,0.1,0.2l0,0l-0.4,1.2l0.9,0.3l0.4-1.2c0,0,0-0.1,0.1-0.1
	h0.1l1.3,0.4c0.1,0,0.1,0.1,0.1,0.2l0,0l-0.4,1.2l0.9,0.3l0.4-1.2c0,0,0-0.1,0.1-0.1h0.1l1.3,0.4c0.1,0,0.1,0.1,0.1,0.2l-0.4,1.2
	l0.9,0.3l0.4-1.2c0,0,0-0.1,0.1-0.1h0.1l1.3,0.4c0.1,0,0.1,0.1,0.1,0.2l-0.4,1.2l0.9,0.3l0.4-1.2c0,0,0-0.1,0.1-0.1h0.1l1.3,0.4
	c0.1,0,0.1,0.1,0.1,0.2l-5.4,15.5C490.1,97.9,490.1,97.9,490,97.9L490,97.9z M476.7,93l13.2,4.6l5.3-15.3l-1-0.4l-0.4,1.2
	c0,0,0,0.1-0.1,0.1h-0.1l-1.1-0.4c-0.1,0-0.1-0.1-0.1-0.2l0,0l0.4-1.2l-1-0.4l-0.4,1.2c0,0,0,0.1-0.1,0.1h-0.1l-1.2-0.4
	c-0.1,0-0.1-0.1-0.1-0.2l0,0l0.4-1.2l-1-0.4l-0.4,1.2c0,0,0,0.1-0.1,0.1h-0.1l-1.2-0.4c-0.1,0-0.1-0.1-0.1-0.2l0,0l0.4-1.2l-1-0.4
	l-0.4,1.2c0,0,0,0.1-0.1,0.1h-0.1l-1.1-0.4c-0.1,0-0.1-0.1-0.1-0.2l0.4-1.2l-1-0.4l-0.4,1.2c0,0,0,0.1-0.1,0.1h-0.3l-1.1-0.4
	c-0.1,0-0.1-0.1-0.1-0.2l0.4-1.2l-1-0.4L476.7,93z"/>
<path class="st6" d="M480.4,89.5l-0.1-0.1c0,0,0-0.1-0.1-0.1c0-0.1,0-0.2,0-0.2c0-0.1,0-0.1,0-0.1c0-0.1,0.1-0.2,0.1-0.2
	c0.4-0.2,0.7-0.4,1.1-0.4c0.3-0.1,0.5-0.2,0.8-0.3c0.2-0.1,0.5-0.2,0.7-0.4c0.3-0.3,0.7-0.6,0.9-0.9c0.2-0.3,0.3-0.5,0.4-0.8v-0.1
	c0.1-0.1,0.1-0.3,0.1-0.4c0-0.2,0-0.3-0.1-0.4s-0.2-0.2-0.3-0.3c-0.2-0.1-0.4-0.1-0.6,0s-0.4,0.2-0.5,0.3c-0.1,0.1-0.2,0.3-0.3,0.5
	c-0.1,0.2-0.2,0.3-0.3,0.4c-0.1,0.1-0.3,0.1-0.5,0c-0.3-0.1-0.4-0.2-0.4-0.5c0-0.2,0-0.3,0.1-0.5c0.1-0.3,0.2-0.5,0.4-0.7
	c0.3-0.3,0.6-0.6,1-0.7c0.9-0.4,1.9-0.1,2.5,0.6c0.2,0.4,0.3,0.8,0.3,1.2c0,0.3-0.1,0.6-0.2,0.8c-0.1,0.2-0.2,0.4-0.3,0.6
	c-0.3,0.5-0.6,0.9-1,1.2c-0.4,0.4-0.8,0.7-1.2,0.9l-0.4,0.2l0.7,0.2l0.7,0.2l0.1,0.1c0.1,0.2,0.1,0.4,0.1,0.5v0.1
	c-0.1,0.2-0.3,0.3-0.5,0.3h-0.1l-0.2-0.1c-0.2,0-0.3-0.1-0.5-0.1L482,90l-0.8-0.3l-0.5-0.2H480.4L480.4,89.5z"/>
<path class="st6" d="M486.9,91.8c-0.1-0.1-0.2-0.1-0.3-0.2c-0.1-0.1-0.2-0.2-0.3-0.3c-0.1-0.1-0.2-0.3-0.3-0.5
	c-0.1-0.1-0.1-0.3-0.2-0.5c0-0.1,0-0.2,0-0.3c0-0.1,0.1-0.2,0.1-0.2c0.1-0.1,0.3-0.2,0.5-0.2h0.1c0.1,0,0.1,0.1,0.2,0.1
	c0.1,0.1,0.2,0.2,0.2,0.4c0.1,0.1,0.1,0.2,0.2,0.3c0,0.1,0.1,0.1,0.2,0.1s0.1,0.1,0.2,0.1c0.2,0.1,0.4,0.1,0.5,0
	c0.3-0.1,0.5-0.2,0.7-0.4c0.2-0.2,0.3-0.4,0.4-0.6l0.1-0.2c0.1-0.3,0-0.6-0.2-0.8c-0.1-0.1-0.2-0.2-0.4-0.3c-0.2-0.1-0.4-0.1-0.6,0
	h-0.2h-0.1c-0.1,0-0.3,0-0.4,0c0,0-0.1,0-0.1-0.1c-0.1-0.1-0.2-0.2-0.3-0.3c0-0.1,0-0.2,0-0.4c0-0.1,0.1-0.1,0.1-0.2
	s0.1-0.1,0.2-0.1c0.1-0.1,0.2-0.1,0.3-0.2l0.4-0.2l0.5-0.3l0.5-0.3l0.2-0.1l0.1-0.1l-0.9-0.3l-0.6-0.2l-0.3-0.1l-0.1-0.1
	c-0.1,0-0.1,0-0.2-0.1l-0.1-0.1c-0.1-0.1-0.1-0.2-0.1-0.3c0-0.2,0.1-0.5,0.3-0.6c0.1-0.1,0.3-0.1,0.4-0.1c0.2,0,0.4,0.1,0.5,0.1
	l1.1,0.4l0.9,0.3l0.3,0.1l0.3,0.1l0.2,0.1c0.1,0.1,0.2,0.2,0.2,0.3c0,0.1,0,0.2,0,0.3c0,0,0,0.1-0.1,0.1c0,0.1-0.1,0.1-0.2,0.2
	s-0.2,0.2-0.4,0.3l-0.8,0.5l-0.3,0.2l0.2,0.1c0.3,0.3,0.6,0.7,0.7,1.1s0.1,0.9-0.1,1.4c-0.4,1.1-1.5,1.8-2.6,1.8l-0.4-0.1l-0.3-0.1
	L486.9,91.8z"/>
<path class="st5" d="M463.6,99.3c0.2,2.1-1.4,3.9-3.4,4.1c-2.1,0.2-3.9-1.4-4.1-3.4s1.4-3.9,3.4-4.1l0,0
	C461.6,95.7,463.4,97.3,463.6,99.3z"/>
<path class="st4" d="M466,77.6c2,0.2,1.6,4.2,1.5,5.7c0,0.8-0.1,2.7-0.1,3.5l-3.1-1.2l-0.8-3.4C463.9,78.5,464.4,77.4,466,77.6z"/>
<path d="M467.5,86.9L467.5,86.9l-3.1-1.1l-0.1-0.1l-0.8-3.4l0,0c0.2-2.7,0.5-3.9,1.2-4.5c0.4-0.3,0.9-0.4,1.4-0.3
	c1.9,0.2,1.8,3.5,1.7,5.3c0,0.2,0,0.4,0,0.5c0,0.8-0.1,2.7-0.1,3.5c0,0,0,0.1-0.1,0.1C467.6,87,467.6,87,467.5,86.9
	C467.5,87,467.5,86.9,467.5,86.9z M464.5,85.5l2.9,1.1c0-0.9,0.1-2.6,0.1-3.3c0-0.1,0-0.3,0-0.5c0.1-1.6,0.2-4.8-1.5-5
	c-0.4-0.1-0.8,0-1.2,0.2c-0.6,0.5-0.9,1.7-1.1,4.3L464.5,85.5z"/>
<path class="st6" d="M464.6,89.3l-0.5-3.8c-0.6-4.1,2.3-7.9,6.4-8.4s7.9,2.3,8.4,6.4l0.5,3.8L464.6,89.3z"/>
<path class="st4" d="M465.1,84.4C465.1,84.4,465,84.4,465.1,84.4c-0.1,0-0.1-0.1-0.1-0.1c0.1-3.2,2.5-5.9,5.7-6.3
	c0.3,0,0.6-0.1,0.9-0.1c2.9,0,5.4,1.9,6.3,4.6v0.1l-0.1,0.1L465.1,84.4L465.1,84.4z M471.5,78.2c-3.3,0-6.1,2.6-6.3,5.9l12.3-1.7
	C476.6,79.9,474.2,78.2,471.5,78.2L471.5,78.2z"/>
<rect x="463.9" y="87.8" transform="matrix(0.9902 -0.14 0.14 0.9902 -7.9666 66.8828)" class="st4" width="15" height="4.5"/>
<path d="M464.8,91C464.7,91,464.7,91,464.8,91C464.7,91,464.7,91,464.8,91l-0.7-4.5c0-0.1,0-0.1,0.1-0.1l0,0l14.9-2
	c0.1,0,0.1,0,0.2,0.1l0.6,4.4V89c0,0,0,0-0.1,0.1L464.8,91L464.8,91z M464.3,86.6l0.6,4.1l14.6-2l-0.6-4.1L464.3,86.6z"/>
<path d="M470,108.2c3.3-0.2,6.1-2.4,7.1-5.5c0.1,1,0.2,1.9,0.2,2.8c0.2,4.1-3.1,7.6-7.2,7.8c-4.1,0.2-7.6-3.1-7.8-7.2l-0.1-2.6
	C463.6,106.6,466.7,108.4,470,108.2z"/>
<path d="M470,108.1c3.4-0.2,6.3-2.6,7.1-5.9c0.1,1.2,0.2,2.3,0.2,3.4c0.2,4.1-3.1,7.6-7.2,7.8c-4.1,0.2-7.6-3.1-7.8-7.2l0,0l-0.1-3
	C463.4,106.3,466.6,108.3,470,108.1z"/>
<path class="st6" d="M476.5,65.2L477,69c0.6,4.1-2.3,7.9-6.4,8.4s-7.9-2.3-8.4-6.4l-0.5-3.8L476.5,65.2z"/>
<path class="st4" d="M451.3,74.3c1.1-0.5,2.4-0.1,3.2,0.9c0,0-0.6-2.5,1.1-3c1.1-0.4,2.3,0.2,2.7,1.4c0,0.1,0.1,0.3,0.1,0.4
	c0.1-1,0.9-1.8,1.9-1.7h0.1c1.6,0.3,2.1,2,2.1,6.5c0.5,0.7,2.4,6.5,3.3,7.6c0.6,0.8,2.6,1.5,3.5,1.9c5.9,2.5,7.7,10.7,8,17.3
	c0.2,4.1-3.1,7.6-7.2,7.8c-4.1,0.2-7.6-3.1-7.8-7.2l-0.2-5.4c0-0.8-0.3-1.6-0.8-2.3c-1.2-1.8-3.7-5.3-4.6-6.8
	c-1.6-2.6-4.8-9.2-5.6-10.9C450.2,78.8,449,75.4,451.3,74.3z"/>
<path d="M469.8,113.5c-4.1,0-7.5-3.3-7.6-7.4l-0.2-5.4c0-0.8-0.3-1.6-0.8-2.2c-1.3-1.9-3.7-5.3-4.6-6.8c-1.5-2.6-4.8-9.1-5.6-10.9
	c-1.2-2.4-2.1-5.6,0.1-6.8c1-0.4,2.2-0.2,3,0.6c-0.1-0.8-0.1-2.3,1.3-2.7c0.6-0.2,1.3-0.2,1.9,0.2c0.4,0.3,0.7,0.7,0.9,1.2
	c0.1-0.3,0.3-0.6,0.6-0.8c0.4-0.4,1-0.5,1.5-0.4c0.9,0.2,1.6,0.9,1.7,1.8c0.4,1.6,0.5,3.2,0.4,4.8c0.5,0.9,0.9,1.9,1.2,2.9
	c0.5,1.6,1.2,3.2,2.1,4.7c1,0.8,2,1.4,3.2,1.8l0.2,0.1c6.5,2.7,7.8,12.1,8.1,17.4c0.1,2-0.6,4-2,5.4c-1.3,1.5-3.2,2.4-5.2,2.5
	L469.8,113.5z M451.3,74.3l0.1,0.1c-2,1-1.1,4.1,0,6.4c0.8,1.7,4.1,8.3,5.6,10.9c0.9,1.5,3.2,4.9,4.6,6.7c0.5,0.7,0.8,1.5,0.8,2.4
	l0.2,5.4c0.1,4.1,3.6,7.2,7.6,7.1c0.1,0,0.1,0,0.2,0c4-0.3,7.1-3.7,6.9-7.7c-0.2-5.3-1.5-14.5-7.9-17.2l-0.2-0.1
	c-1.2-0.4-2.3-1-3.3-1.9c-0.9-1.5-1.6-3.1-2.1-4.7c-0.3-1-0.7-1.9-1.2-2.9v-0.1c0-4.5-0.5-6.1-1.9-6.4c-0.5-0.1-0.9,0.1-1.3,0.4
	s-0.6,0.7-0.6,1.2c0,0.1-0.1,0.1-0.1,0.1l0,0c-0.1,0-0.1,0-0.1-0.1l0,0c-0.1-0.6-0.5-1.2-1-1.5s-1.1-0.3-1.7-0.1
	c-1.6,0.4-1.1,2.8-1,2.8c0,0.1,0,0.1-0.1,0.1c0,0-0.1,0-0.2,0c-0.7-0.9-1.9-1.3-3-0.8L451.3,74.3z"/>
<path class="st3" d="M470,107.6c3.1-0.2,5.8-2.2,7-5.1c0.1,1,0.2,2,0.2,3c0.2,4.1-3.1,7.6-7.2,7.8c-4.1,0.2-7.6-3.1-7.8-7.2
	l-0.1-3.2C463.6,106,466.7,107.9,470,107.6z"/>
<path d="M459.2,77.7c-0.1,0-0.1,0-0.1-0.1l-0.9-3.7c0-0.1,0-0.1,0.1-0.2s0.1,0,0.2,0.1l0,0l0.9,3.7
	C459.4,77.6,459.3,77.7,459.2,77.7C459.3,77.7,459.3,77.7,459.2,77.7L459.2,77.7z"/>
<path d="M457.3,80.7c-0.1,0-0.1,0-0.1-0.1l-2.9-5.4c0-0.1,0-0.1,0-0.2l0,0c0.1,0,0.2,0,0.2,0.1l2.9,5.4c0,0.1,0,0.1,0,0.2H457.3z"/>
<path d="M460.7,93.2c-0.1,0-0.1,0-0.1-0.1s-1.8-6.6-2.5-8.5c0-0.1-0.1-0.2-0.1-0.3c-0.5-1.5-1.3-4.1-0.5-5.7c0.4-0.6,1-1.1,1.7-1.2
	c1.3-0.4,2.6,0.1,3.4,1.2c0,0.1,0,0.1,0,0.2s-0.1,0.1-0.2,0l0,0c-0.7-1-2-1.5-3.1-1.1c-0.6,0.1-1.2,0.5-1.5,1.1
	c-0.8,1.5,0,4,0.5,5.5l0.1,0.3c0.6,1.9,2.4,8.4,2.5,8.5C460.9,93.1,460.8,93.2,460.7,93.2L460.7,93.2z"/>
<path class="st4" d="M469.5,76.2c-1.3,0-2.6-0.4-3.7-1.2c-1.3-1-2.2-2.4-2.4-4v-0.1h0.1c0.6,0.1,1.2,0.3,1.7,0.5
	c1.3,0.6,2.8,0.8,4.2,0.5c2.7-0.8,5,1.4,5.1,1.5c0,0,0,0.1,0,0.2l0,0c-1,1.4-2.5,2.4-4.2,2.6C470.1,76.2,469.8,76.2,469.5,76.2z
	 M463.8,71.2c0.6,3.2,3.7,5.3,6.9,4.7c1.5-0.3,2.8-1.1,3.7-2.4c-0.4-0.4-2.5-2-4.7-1.3c-1.5,0.3-3,0.1-4.4-0.6
	C464.8,71.4,464.3,71.3,463.8,71.2z"/>
<path d="M482.9,72.7C482.8,72.7,482.8,72.7,482.9,72.7c-0.1-0.1-0.1-0.1-0.1-0.2l1.6-1.6c0-0.1,0.1-0.1,0.2,0l0,0c0,0.1,0,0.1,0,0.2
	L482.9,72.7L482.9,72.7z"/>
<path d="M484.5,72.7C484.4,72.7,484.4,72.7,484.5,72.7l-1.7-1.6c0-0.1,0-0.1,0-0.2s0.1-0.1,0.2,0l0,0l1.6,1.6c0,0.1,0,0.1,0,0.2
	C484.5,72.7,484.5,72.7,484.5,72.7z"/>
<path class="st5" d="M285.1,73.6l-0.9-0.3c-5.5-1.5-12.1-2.4-17.8-0.9c-6.3,1.6-11.2,6.3-13.1,12.5c-1.8,5.8-0.9,13.9,4.4,17.7
	c3.5,2.5,8.1,2.4,12.3,3c2.7,0.3,5.3,1.1,7.7,2.4c2.2,1.3,4,3.2,6.3,4.4c6.7,3.7,15.1,1.2,18.8-5.5c1-1.9,1.6-4,1.7-6.1
	c0.7-6.5-0.5-13-4.8-18.1C295.7,78.2,290.7,75.1,285.1,73.6z"/>
<ellipse class="st5" cx="273.9" cy="112.4" rx="4" ry="4"/>
<circle class="st5" cx="289" cy="70.3" r="4"/>
<path class="st4" d="M299.3,70.1H273V87h26.3c4.7,0,8.5-3.8,8.5-8.5C307.8,73.9,304,70.1,299.3,70.1L299.3,70.1z"/>
<path d="M299.3,87.1H273c-0.1,0-0.1-0.1-0.1-0.2V70.1c0-0.1,0.1-0.2,0.1-0.2h26.3c4.8,0,8.6,3.9,8.6,8.6S304.1,87.1,299.3,87.1
	L299.3,87.1z M273.2,86.8h26.2c4.6,0,8.3-3.7,8.3-8.3c0-4.6-3.7-8.3-8.3-8.3h-26.2V86.8z"/>
<ellipse class="st6" cx="273" cy="78.5" rx="8.5" ry="8.5"/>
<path d="M273,87.1c-4.8,0-8.6-3.8-8.6-8.6c0-4.8,3.8-8.6,8.6-8.6c4.8,0,8.6,3.8,8.6,8.6l0,0C281.6,83.3,277.7,87.1,273,87.1z
	 M273,70.2c-4.6,0-8.3,3.7-8.3,8.3s3.7,8.3,8.3,8.3s8.3-3.7,8.3-8.3l0,0C281.3,73.9,277.6,70.2,273,70.2z"/>
<path class="st4" d="M299.3,90.7H273v16.9h26.3c4.7-0.2,8.3-4.1,8.2-8.7C307.3,94.4,303.8,90.8,299.3,90.7L299.3,90.7z"/>
<path d="M299.3,107.7H273c-0.1,0-0.1-0.1-0.1-0.2V90.7c0-0.1,0.1-0.2,0.1-0.2h26.3c4.8,0.2,8.5,4.1,8.3,8.9
	C307.5,103.9,303.8,107.6,299.3,107.7L299.3,107.7z M273.2,107.4h26.2c4.6-0.2,8.2-4,8-8.6c-0.2-4.4-3.7-7.9-8-8h-26.2V107.4z"/>
<circle class="st4" cx="273" cy="99.1" r="8.5"/>
<path d="M273,107.7c-4.8,0-8.6-3.8-8.6-8.6c0-4.8,3.8-8.6,8.6-8.6c4.8,0,8.6,3.8,8.6,8.6l0,0C281.6,103.9,277.7,107.7,273,107.7z
	 M273,90.8c-4.6,0-8.3,3.7-8.3,8.3s3.7,8.3,8.3,8.3s8.3-3.7,8.3-8.3l0,0C281.3,94.5,277.6,90.8,273,90.8z"/>
<path class="st4" d="M271.5,81h-0.1l-2.8-2.7c0-0.1,0-0.2,0-0.2c0.1,0,0.1,0,0.2,0l2.7,2.6l5.7-5.4c0-0.1,0.1-0.1,0.2,0
	s0.1,0.1,0,0.2c0,0,0,0-0.1,0.1L271.5,81C271.6,81,271.5,81,271.5,81z"/>
<path d="M261.4,91.5c-1.1,0-1.9-0.9-1.9-2s0.9-1.9,2-1.9s1.9,0.8,1.9,1.9C263.3,90.6,262.4,91.5,261.4,91.5z M261.4,87.9
	c-0.9,0-1.6,0.7-1.6,1.7c0,0.9,0.7,1.6,1.7,1.6c0.9,0,1.6-0.7,1.6-1.7l0,0C263,88.7,262.3,87.9,261.4,87.9z"/>
<path d="M277,103.2h-0.1l-8-8c-0.1,0-0.1-0.1,0-0.2c0-0.1,0.1-0.1,0.2,0l0,0l8,8c0.1,0.1,0.1,0.1,0,0.2l0,0
	C277.1,103.3,277,103.3,277,103.2z"/>
<path d="M269,103.2h-0.1c-0.1-0.1-0.1-0.2,0-0.2l8-8c0.1,0,0.2,0,0.2,0c0,0.1,0,0.1,0,0.2l-8,8C269.1,103.3,269,103.3,269,103.2z"/>
<path class="st4" d="M307.2,95.9c-0.2-0.2-0.4-0.4-0.5-0.7c-1.2-3.5-2.6-6.9-4.4-10.2c-2.4-4-5.3-1.9-5.3-1.9
	c-1.3-1.6-3.5-1.9-5.2-0.7c-2.6-2.5-4.9-1.2-6.2-0.1c-4.6-7.9-6.3-9.6-8.2-8.7c-2.3,1-2.3,2.9,0.5,8.1c0.9,1.6,4.5,8,4.5,8
	c-1.5-1.2-3.3-1.8-5.2-1.8c-3.5,0-4.3,3.9-1.1,5.5c3.1,1.5,5.8,3.7,8,6.3c1.7,2.2,5.2,3.4,6.9,4.2c0.3,0.2,0.6,0.4,0.8,0.7l2.3,3.9
	c2.7,4.4,8.4,5.7,12.7,3.1c4.4-2.7,5.7-8.4,3.1-12.7c-0.4-0.7-0.9-1.3-1.4-1.8L307.2,95.9z"/>
<path class="st3" d="M308.4,97.1l-1-1c0.7,5.5-3.2,10.4-8.6,11.1c-2.2,0.3-4.3-0.2-6.2-1.2l1.5,2.5c2.6,4.4,8.2,5.9,12.7,3.3
	c4.4-2.6,5.9-8.2,3.3-12.7C309.6,98.4,309,97.7,308.4,97.1z"/>
<path d="M284.3,93.2c-0.1,0-0.1,0-0.1-0.1l-1.9-3.4c0-0.1,0-0.2,0.1-0.2s0.2,0,0.2,0.1l0,0l1.9,3.5c0.1,0.1,0.1,0.2,0,0.2
	L284.3,93.2L284.3,93.2z"/>
<path d="M287.5,85.8c-0.1,0-0.1,0-0.1-0.1l-1.9-3.4c-0.1-0.1-0.1-0.1,0-0.2l0,0c0.1-0.1,0.1-0.1,0.2,0l1.9,3.4
	C287.7,85.6,287.7,85.6,287.5,85.8L287.5,85.8z"/>
<path d="M293.8,85.8c-0.1,0-0.1,0-0.1-0.1l-2-3.3c0-0.1,0-0.2,0.1-0.2s0.2,0,0.2,0l0,0l2,3.3C294,85.7,294,85.8,293.8,85.8
	C293.9,85.8,293.8,85.8,293.8,85.8z"/>
<path d="M298.9,86.7c-0.1,0-0.1,0-0.1-0.1l-1.9-3.5c-0.1-0.1-0.1-0.1,0-0.2c0.1,0,0.2,0,0.2,0.1l1.9,3.4
	C299,86.5,299,86.6,298.9,86.7C298.9,86.6,298.9,86.6,298.9,86.7z"/>
<path d="M302,113.1c-0.7,0-1.5-0.1-2.2-0.3c-2.5-0.6-4.6-2.1-5.9-4.3l-2.4-3.9c-0.2-0.3-0.4-0.5-0.7-0.6c-0.3-0.1-0.6-0.3-1-0.5
	c-1.8-0.8-4.5-2-6-3.8c-2.2-2.6-4.9-4.8-8-6.3c-1.5-0.6-2.3-2.1-2.1-3.6c0.4-1.4,1.7-2.3,3.2-2.2c1.7,0,3.3,0.5,4.8,1.4
	c-0.9-1.6-3.5-6.1-4.1-7.4c-1.9-3.5-2.5-5.5-2-6.8c0.3-0.7,0.9-1.3,1.6-1.6c1.1-0.5,2.1-0.1,3.3,1.1s2.7,3.5,5,7.5
	c1.7-1.7,4.5-1.7,6.1,0c0,0,0,0,0.1,0.1c1.7-1.1,3.9-0.8,5.2,0.7c0.7-0.4,1.6-0.6,2.4-0.4c1.3,0.4,2.4,1.3,3,2.5
	c1.8,3.3,3.3,6.7,4.5,10.2c0.1,0.2,0.2,0.5,0.4,0.7l1.2,1.2c3.7,3.6,3.9,9.6,0.2,13.3C307,112.1,304.5,113.1,302,113.1L302,113.1z
	 M277.1,88c-1.3-0.1-2.5,0.7-2.9,2c-0.2,1.4,0.6,2.8,1.9,3.3c3.1,1.5,5.8,3.7,8,6.4c1.4,1.8,4,2.9,5.8,3.7l1,0.5
	c0.3,0.2,0.6,0.4,0.8,0.8l2.3,3.9c2.8,4.1,8.5,5.2,12.7,2.4c4.1-2.8,5.2-8.5,2.4-12.7c-0.2-0.4-0.5-0.7-0.8-1l-1.2-1.2
	c-0.2-0.2-0.4-0.5-0.5-0.8c-1.2-3.5-2.6-7-4.4-10.2c-0.6-1.1-1.6-2-2.8-2.3c-0.8-0.1-1.6,0-2.3,0.5c-0.1,0.1-0.1,0.1-0.2,0l0,0
	c-1.2-1.5-3.4-1.8-5-0.7c-0.1,0-0.1,0-0.2,0c-2.4-2.3-4.6-1.3-6-0.1h-0.1c0,0-0.1,0-0.1-0.1c-4.4-7.5-6.1-9.5-8-8.7
	c-0.7,0.2-1.2,0.7-1.5,1.4c-0.4,1.2,0.2,3.1,2,6.5c0.9,1.6,4.5,7.9,4.5,8s0,0.1,0,0.2c-0.1,0.1-0.1,0.1-0.2,0
	C280.8,88.6,279,88,277.1,88z"/>
<path class="st0" d="M70.4,112.6v41.1c0,2.8,2.2,5,5,5h33.8"/>
<polygon class="st2" points="105.9,162.7 105.2,162 108.8,158.6 105.2,155.2 105.9,154.5 110.3,158.6 "/>
<path class="st0" d="M237.1,169.2h26.7c2.8,0,5-2.2,5-5v-43.6"/>
<polygon class="st2" points="273,123.9 272.2,124.6 268.9,121 265.5,124.6 264.8,123.9 268.9,119.5 "/>
<path class="st0" d="M344.8,48.7h27.5c2.8,0,5,2.2,5,5v32.2"/>
<polygon class="st2" points="373.2,82.6 374,81.9 377.3,85.5 380.7,81.9 381.4,82.6 377.3,87 "/>
<path class="st3" d="M336.3,132.1c-0.1,0-0.2-0.1-0.2-0.2v-6.4c0-0.1,0-0.1,0.1-0.2c0,0,0.1-0.1,0.2-0.1h2.8c0.5,0,1,0.1,1.4,0.2
	s0.7,0.4,0.9,0.8c0.2,0.4,0.4,0.8,0.3,1.3c0,0.4-0.1,0.9-0.3,1.2c-0.2,0.3-0.6,0.6-0.9,0.7c-0.5,0.2-0.9,0.3-1.4,0.2H338v2.1
	c0,0.1,0,0.1-0.1,0.2c0,0-0.1,0.1-0.2,0.1L336.3,132.1L336.3,132.1z M337.9,128.4h1.1c0.2,0,0.5-0.1,0.7-0.2
	c0.2-0.2,0.3-0.4,0.2-0.7c0-0.2-0.1-0.5-0.2-0.6c-0.2-0.2-0.4-0.3-0.7-0.2h-1.1V128.4z"/>
<path class="st3" d="M343,132.1c-0.1,0-0.2-0.1-0.2-0.2v-6.4c0-0.1,0-0.1,0.1-0.2c0,0,0.1-0.1,0.2-0.1h2.7c0.7,0,1.4,0.2,2,0.6
	c0.5,0.4,0.8,1,0.7,1.7c0,0.4-0.1,0.8-0.3,1.2c-0.2,0.3-0.5,0.6-0.9,0.7l1.4,2.4v0.1c0,0.1,0,0.1-0.1,0.1l-0.1,0.1H347
	c-0.1,0-0.2,0-0.3-0.1c-0.1-0.1-0.1-0.1-0.1-0.2l-1.1-2.2h-1v2.2c0,0.1,0,0.1-0.1,0.2c0,0-0.1,0.1-0.2,0.1L343,132.1L343,132.1z
	 M344.5,128.3h1.1c0.3,0,0.5-0.1,0.7-0.2c0.2-0.2,0.2-0.4,0.2-0.6s-0.1-0.5-0.2-0.6c-0.2-0.2-0.4-0.3-0.7-0.2h-1.1V128.3z"/>
<path class="st3" d="M352.3,132.2c-0.5,0-1.1-0.1-1.6-0.3c-0.4-0.2-0.8-0.5-1-0.9c-0.3-0.5-0.4-1-0.4-1.5c0-0.3,0-0.6,0-0.8
	s0-0.6,0-0.9c0-0.5,0.2-1,0.4-1.5c0.2-0.4,0.6-0.7,1-0.9c1-0.4,2.1-0.4,3.1,0c0.4,0.2,0.8,0.5,1,0.9c0.3,0.4,0.4,1,0.4,1.5
	c0,0.3,0,0.6,0,0.9s0,0.6,0,0.8c0,0.5-0.1,1-0.4,1.5c-0.2,0.4-0.6,0.7-1,0.9C353.4,132.2,352.8,132.3,352.3,132.2z M352.3,130.8
	c0.3,0,0.6-0.1,0.9-0.3c0.2-0.3,0.4-0.6,0.4-1c0-0.3,0-0.6,0-0.8s0-0.5,0-0.8s-0.1-0.5-0.2-0.8c-0.1-0.2-0.2-0.3-0.4-0.4
	c-0.4-0.2-0.8-0.2-1.2,0c-0.2,0.1-0.3,0.2-0.4,0.4c-0.1,0.2-0.2,0.5-0.2,0.8s0,0.5,0,0.8s0,0.5,0,0.8c0,0.4,0.1,0.7,0.4,1
	C351.7,130.7,352,130.8,352.3,130.8z"/>
<path class="st3" d="M356.7,132.1c-0.1,0-0.1,0-0.2-0.1c0,0-0.1-0.1-0.1-0.2v-6.4c0-0.1,0-0.1,0.1-0.2c0.1,0,0.1-0.1,0.2-0.1h2.5
	c0.6,0,1.1,0.1,1.6,0.3c0.4,0.2,0.8,0.5,1,0.9c0.3,0.4,0.4,0.9,0.4,1.5c0,0.3,0,0.5,0,0.8s0,0.5,0,0.7c0,0.5-0.1,1-0.4,1.5
	c-0.2,0.4-0.6,0.7-1,0.9c-0.5,0.2-1.1,0.3-1.6,0.3h-2.5V132.1z M358.2,130.7h1c0.2,0,0.5,0,0.7-0.1s0.3-0.2,0.4-0.4s0.2-0.5,0.1-0.8
	c0-0.2,0-0.4,0-0.5v-0.4c0-0.1,0-0.3,0-0.5c0-0.4-0.1-0.7-0.4-1c-0.3-0.2-0.6-0.3-1-0.3h-1L358.2,130.7z"/>
<path class="st3" d="M366.4,132.2c-0.5,0-1.1-0.1-1.5-0.3s-0.8-0.5-1-0.9c-0.3-0.5-0.4-1-0.4-1.5v-4c0-0.1,0.1-0.2,0.2-0.2
	c0,0,0,0,0.1,0h1.3c0.1,0,0.1,0,0.2,0.1c0,0,0.1,0.1,0.1,0.2v4c0,0.4,0.1,0.7,0.3,1c0.5,0.4,1.2,0.4,1.7,0c0.2-0.3,0.3-0.6,0.3-1v-4
	c0-0.1,0-0.1,0.1-0.2c0,0,0.1-0.1,0.2-0.1h1.2c0.1,0,0.1,0,0.2,0.1c0,0,0.1,0.1,0.1,0.2v4c0,0.5-0.1,1.1-0.4,1.5
	c-0.2,0.4-0.6,0.7-1,0.9C367.4,132.2,366.9,132.3,366.4,132.2z"/>
<path class="st3" d="M373.4,132.2c-0.5,0-1.1-0.1-1.6-0.3c-0.4-0.2-0.8-0.5-1-0.9c-0.3-0.4-0.4-0.9-0.4-1.5c0-0.3,0-0.6,0-0.9
	s0-0.6,0-0.9c0-0.5,0.1-1,0.4-1.4c0.2-0.4,0.6-0.7,1-0.9c0.5-0.2,1-0.3,1.6-0.3c0.4,0,0.8,0,1.2,0.2c0.4,0.1,0.7,0.3,1,0.5
	s0.5,0.5,0.6,0.8c0.2,0.3,0.2,0.7,0.2,1c0,0.1,0,0.1,0,0.2l-0.1,0.1H375c-0.1,0-0.1,0-0.2-0.1s-0.1-0.1-0.1-0.2
	c-0.1-0.3-0.2-0.5-0.5-0.7c-0.2-0.1-0.5-0.2-0.8-0.2s-0.6,0.1-0.9,0.3c-0.2,0.3-0.4,0.6-0.4,1c0,0.5,0,1.1,0,1.6
	c0,0.4,0.1,0.7,0.4,1c0.2,0.2,0.5,0.3,0.9,0.3c0.3,0,0.5-0.1,0.8-0.2c0.2-0.2,0.4-0.4,0.4-0.7c0-0.1,0.1-0.2,0.1-0.2
	c0.1,0,0.1,0,0.2,0h1.3c0.1,0,0.1,0,0.1,0.1c0,0,0.1,0.1,0,0.1c0,0.3-0.1,0.7-0.2,1c-0.2,0.3-0.4,0.5-0.6,0.8
	c-0.3,0.2-0.6,0.4-1,0.5C374.2,132.3,373.8,132.3,373.4,132.2z"/>
<path class="st3" d="M379.2,132.1c-0.1,0-0.2-0.1-0.2-0.2l0,0v-5.1h-1.7c-0.1,0-0.1,0-0.2-0.1c0,0-0.1-0.1-0.1-0.2v-1
	c0-0.1,0-0.1,0.1-0.2c0.1,0,0.1-0.1,0.2-0.1h5.3c0.1,0,0.1,0,0.2,0.1c0,0,0.1,0.1,0.1,0.2v1c0,0.1,0,0.1-0.1,0.2
	c0,0.1-0.1,0.1-0.2,0.1h-1.7v5.1c0,0.1-0.1,0.2-0.2,0.2l0,0H379.2z"/>
<path class="st3" d="M383.9,132.1c-0.1,0-0.1,0-0.2-0.1c0,0-0.1-0.1-0.1-0.2v-6.4c0-0.1,0-0.1,0.1-0.2c0.1,0,0.1-0.1,0.2-0.1h1.3
	c0.1,0,0.1,0,0.2,0.1c0,0.1,0.1,0.1,0.1,0.2v6.4c0,0.1-0.1,0.2-0.2,0.2l0,0h-1.4V132.1z"/>
<path class="st3" d="M389.6,132.2c-0.5,0-1.1-0.1-1.6-0.3c-0.4-0.2-0.8-0.5-1-0.9c-0.3-0.5-0.4-1-0.4-1.5c0-0.3,0-0.6,0-0.8
	s0-0.6,0-0.9c0-0.5,0.2-1,0.4-1.5c0.2-0.4,0.6-0.7,1-0.9c0.5-0.2,1-0.3,1.6-0.3c0.5,0,1.1,0.1,1.5,0.3c0.4,0.2,0.8,0.5,1,0.9
	c0.3,0.4,0.4,1,0.4,1.5c0,0.3,0,0.6,0,0.9s0,0.6,0,0.8c0,0.5-0.2,1-0.4,1.5c-0.2,0.4-0.6,0.7-1,0.9
	C390.8,132.2,390.2,132.3,389.6,132.2z M389.6,130.8c0.3,0,0.6-0.1,0.8-0.3c0.2-0.3,0.4-0.6,0.4-1c0-0.3,0-0.6,0-0.8s0-0.5,0-0.8
	s-0.1-0.5-0.2-0.8c-0.1-0.2-0.2-0.3-0.4-0.4c-0.2-0.1-0.4-0.1-0.6-0.1s-0.4,0-0.6,0.1s-0.3,0.2-0.4,0.4c-0.1,0.2-0.2,0.5-0.2,0.8
	s0,0.5,0,0.8s0,0.5,0,0.8c0,0.4,0.1,0.7,0.4,1C389,130.7,389.3,130.9,389.6,130.8z"/>
<path class="st3" d="M394.1,132.1c-0.1,0-0.2-0.1-0.2-0.2l0,0v-6.4c0-0.1,0-0.1,0.1-0.2c0.1,0,0.1-0.1,0.2-0.1h1
	c0.1,0,0.2,0,0.2,0.1l0.1,0.1l2.4,3.8v-3.7c0-0.1,0.1-0.2,0.2-0.2c0,0,0,0,0.1,0h1.2c0.1,0,0.1,0,0.2,0.1c0,0,0.1,0.1,0.1,0.2v6.4
	c0,0.1,0,0.1-0.1,0.2c0,0-0.1,0.1-0.2,0.1h-1c-0.1,0-0.2,0-0.2-0.1l-0.1-0.1l-2.4-3.6v3.6c0,0.1-0.1,0.2-0.2,0.2L394.1,132.1z"/>
<path class="st3" d="M405.2,132.2c-0.5,0-0.9-0.1-1.4-0.2c-0.3-0.1-0.6-0.4-0.9-0.7c-0.2-0.2-0.3-0.5-0.3-0.9c0,0,0-0.1,0.1-0.1
	l0.1-0.1h0.2c0.1,0,0.1,0,0.1,0.1l0.1,0.1c0,0.2,0.1,0.4,0.2,0.6c0.2,0.2,0.4,0.4,0.6,0.4c0.3,0.1,0.7,0.2,1,0.2
	c0.5,0,1-0.1,1.4-0.4c0.3-0.2,0.5-0.6,0.5-0.9c0-0.2-0.1-0.5-0.2-0.6c-0.2-0.2-0.4-0.3-0.7-0.4c-0.3-0.1-0.7-0.3-1.2-0.4
	c-0.4-0.1-0.8-0.3-1.1-0.5c-0.3-0.1-0.5-0.3-0.7-0.6c-0.1-0.3-0.2-0.6-0.2-0.9s0.1-0.6,0.3-0.9c0.2-0.3,0.5-0.5,0.8-0.6
	c0.4-0.2,0.8-0.2,1.2-0.2c0.3,0,0.7,0,1,0.2c0.3,0.1,0.5,0.2,0.7,0.4c0.2,0.2,0.3,0.3,0.4,0.6c0.1,0.2,0.1,0.4,0.2,0.6v0.1
	c0,0-0.1,0.1-0.2,0.1H407h-0.1c-0.1,0-0.1-0.1-0.1-0.2c0-0.3-0.2-0.6-0.5-0.8c-0.4-0.2-0.8-0.3-1.2-0.3c-0.4,0-0.8,0.1-1.2,0.3
	c-0.3,0.2-0.5,0.5-0.5,0.9c0,0.2,0.1,0.5,0.2,0.7c0.2,0.2,0.4,0.3,0.6,0.4c0.3,0.1,0.7,0.3,1.1,0.4c0.4,0.1,0.8,0.3,1.2,0.5
	c0.3,0.1,0.5,0.3,0.7,0.6s0.2,0.6,0.2,0.9c0,0.4-0.1,0.7-0.3,1c-0.2,0.3-0.5,0.5-0.8,0.6C406.1,132.2,405.7,132.3,405.2,132.2z"/>
<path class="st3" d="M410.8,132.1c-0.1,0-0.2-0.1-0.2-0.2v-6.1h-1.9c-0.1,0-0.1,0-0.2-0.1c0,0-0.1-0.1-0.1-0.2v-0.2
	c0-0.1,0-0.1,0.1-0.2c0.1,0,0.1,0,0.2,0h4.5c0.1,0,0.2,0.1,0.2,0.2c0,0,0,0,0,0.1v0.2c0,0.1,0,0.1,0,0.2c-0.1,0-0.1,0.1-0.2,0.1
	h-1.9v6.1c0,0.1,0,0.1-0.1,0.1c0,0-0.1,0.1-0.2,0.1L410.8,132.1z"/>
<path class="st3" d="M413.3,132.1c-0.1,0-0.2-0.1-0.2-0.2v-0.1l2.5-6.4c0-0.1,0.1-0.1,0.1-0.2c0.1,0,0.1,0,0.2,0h0.3
	c0.1,0,0.1,0,0.2,0c0,0,0.1,0.1,0.1,0.2l2.5,6.4v0.1c0,0,0,0.1-0.1,0.1l-0.1,0.1h-0.2c-0.1,0-0.1,0-0.1-0.1c0,0,0-0.1-0.1-0.1
	l-0.6-1.6h-3.4l-0.6,1.6c0,0,0,0.1-0.1,0.1l-0.1,0.1L413.3,132.1L413.3,132.1z M414.5,129.8h3L416,126L414.5,129.8z"/>
<path class="st3" d="M422.4,132.2c-0.5,0-1-0.1-1.4-0.3s-0.7-0.5-0.9-0.9c-0.2-0.4-0.3-0.9-0.3-1.4c0-0.3,0-0.6,0-0.9s0-0.6,0-0.9
	c0-0.5,0.1-0.9,0.3-1.4c0.2-0.4,0.5-0.7,0.9-0.9c0.8-0.4,1.7-0.4,2.6-0.1c0.3,0.1,0.6,0.3,0.8,0.5c0.2,0.2,0.3,0.4,0.5,0.6
	c0.1,0.2,0.1,0.3,0.2,0.5c0,0.1,0,0.1,0,0.1s-0.1,0.1-0.2,0.1h-0.2h-0.1c0,0-0.1-0.1-0.1-0.2c-0.1-0.2-0.2-0.4-0.3-0.6
	c-0.2-0.2-0.4-0.4-0.6-0.5c-0.3-0.1-0.7-0.2-1-0.2c-0.5,0-1,0.1-1.4,0.5s-0.6,1-0.6,1.6s0,1.2,0,1.8c0,0.6,0.2,1.2,0.6,1.6
	c0.4,0.3,0.9,0.5,1.4,0.5c0.3,0,0.7-0.1,1-0.2c0.3-0.1,0.6-0.4,0.7-0.7c0.2-0.4,0.3-0.8,0.3-1.2v-0.5h-1.7c-0.1,0-0.1,0-0.2-0.1
	c0,0-0.1-0.1,0-0.2v-0.1c0-0.1,0-0.1,0-0.2c0,0,0.1-0.1,0.2-0.1h2.1c0.1,0,0.2,0.1,0.2,0.2l0,0v0.9c0,0.5-0.1,1-0.3,1.4
	c-0.2,0.4-0.5,0.7-0.9,0.9C423.3,132.2,422.9,132.3,422.4,132.2z"/>
<path class="st3" d="M426.8,132.1c-0.1,0-0.1,0-0.2-0.1v-0.1v-6.4c0-0.1,0-0.1,0-0.2c0.1,0,0.1,0,0.2,0h3.8c0.1,0,0.1,0,0.2,0
	c0,0,0.1,0.1,0.1,0.2v0.2c0,0.1,0,0.1-0.1,0.2c0,0-0.1,0.1-0.2,0.1h-3.4v2.5h3.2c0.1,0,0.1,0,0.2,0.1c0,0,0.1,0.1,0.1,0.2v0.1
	c0,0.1,0,0.1-0.1,0.2c-0.1,0-0.1,0.1-0.2,0.1h-3.2v2.6h3.5c0.1,0,0.1,0,0.2,0.1c0,0,0.1,0.1,0.1,0.2v0.1c0,0.1,0,0.1-0.1,0.1
	c0,0-0.1,0.1-0.2,0.1h-3.9V132.1z"/>
</svg>
