<svg id="Layer_1" data-name="Layer 1" xmlns="http://www.w3.org/2000/svg" viewBox="0 0 122.16 95.14"><defs><style>.cls-1{fill:#f8dc8c;}.cls-2{fill:#9a1c21;}.cls-3{fill:#fff;}.cls-4{fill:#fc1a3d;}</style></defs><path class="cls-1" d="M101,10.29a8.25,8.25,0,1,1-7-9.38A8.25,8.25,0,0,1,101,10.29Z"/><circle class="cls-1" cx="80.51" cy="53.9" r="38.72" transform="translate(6.41 116.33) rotate(-73.91)"/><path class="cls-2" d="M57.21,9.59C38.87,15.42,39.05,29.55,33,35L55.39,52.73c2.83-3.46,10.75-13.9,15-18.78,7.94-9,15.17-12.51,20.68-6.17L104,24.09S89.77-.77,57.21,9.59Z"/><path d="M55.19,53,32.78,35.26a.28.28,0,0,1-.11-.23.28.28,0,0,1,.1-.24c1.88-1.7,3.15-4.25,4.62-7.2,3.16-6.36,7.09-14.28,19.72-18.3A47.13,47.13,0,0,1,78.3,7.17,36.79,36.79,0,0,1,93,12.69a37.3,37.3,0,0,1,11.29,11.25.36.36,0,0,1,0,.27.31.31,0,0,1-.21.18L91.19,28.08a.34.34,0,0,1-.33-.1,8,8,0,0,0-6.12-3.12c-3.93,0-8.67,3.13-14.08,9.3C67.84,37.38,63.45,43,59.93,47.48c-1.79,2.29-3.34,4.27-4.3,5.45a.32.32,0,0,1-.24.11A.31.31,0,0,1,55.19,53ZM84.75,24.23a8.58,8.58,0,0,1,6.45,3.19l12.32-3.51A37.34,37.34,0,0,0,92.64,13.22C85.74,8.76,74,4.57,57.3,9.89,44.92,13.83,41.05,21.61,38,27.86c-1.43,2.87-2.67,5.37-4.49,7.14L55.34,52.29c1-1.19,2.43-3.06,4.1-5.2C63,42.59,67.35,37,70.19,33.75c5.54-6.32,10.43-9.52,14.55-9.52Z"/><circle cx="51.1" cy="24.92" r="3.73" transform="translate(-4.36 12.41) rotate(-13.28)"/><path class="cls-3" d="M91.74,31a6.93,6.93,0,1,1,10.33-9.22s2.9,3.23,3.72,4.43c2.15,3.13,4,8.49,4.87,12.9s2.22,8.34-3.57,11.46-6.29-2.06-5.59-3.14,2.8-1.68,2.8-3.61a18.32,18.32,0,0,0-.09-2s-2,3.37-4.8,1.13c.07.19.13.38.21.57.88,2.25,1.71,5.11-1.2,5.84S94.22,45.56,93,42c-1.18-3.38-2-6.48-1-10.1a.92.92,0,0,0-.22-.91Z"/><path d="M21.19,84H57.65l2.2,8.63H19.06C20.17,85,21.19,84,21.19,84Z"/><path d="M18.83,92.84a.33.33,0,0,1-.08-.25c1.1-7.48,2.11-8.69,2.22-8.81a.31.31,0,0,1,.22-.09H57.65a.32.32,0,0,1,.3.23l2.2,8.64a.3.3,0,0,1,0,.27.33.33,0,0,1-.25.12H19.06A.3.3,0,0,1,18.83,92.84ZM57.4,84.31h-36c-.24.4-1,2.09-1.93,8h40Z"/><path class="cls-2" d="M10.29,46.39C3,59.48-7,86.12,13.48,93c10.74,3.6,20.19-2.43,26.77-9H57l.15-30a18.45,18.45,0,0,0-10.8-16.94l-.48-.22-2.84-1-9.58-1.69C27.22,33.38,16.79,34.78,10.29,46.39Z"/><path d="M19.94,94.38c8.32,0,15.48-5.14,20.43-10.07H57a.31.31,0,0,0,.31-.31l.15-30a18.78,18.78,0,0,0-11-17.23L46,36.56a.3.3,0,0,0-.4.16.31.31,0,0,0,.16.41l.48.21A18.15,18.15,0,0,1,56.86,54l-.15,29.69H40.25a.28.28,0,0,0-.22.09c-6.09,6.08-15.61,12.56-26.45,8.92C8.31,90.93,4.73,87.7,3,83.09c-3.86-10,1.4-25.45,7.61-36.55,7-12.53,18.33-12.65,22.87-12.12a.31.31,0,1,0,.07-.62c-4.66-.54-16.28-.42-23.48,12.44A81.68,81.68,0,0,0,2.6,64.1C.52,71.86.44,78.33,2.37,83.31c1.85,4.8,5.55,8.15,11,10A20.36,20.36,0,0,0,19.94,94.38Z"/><path class="cls-4" d="M63.74,69.54v5.7s4.45,0,4.47,0a12.16,12.16,0,0,0,1.29,3.08l-3.16,3.17,4,4,3.15-3.15a11.75,11.75,0,0,0,3.11,1.32v4.42h5.7V83.79a11.42,11.42,0,0,0,3.24-1.28l3,3,4-4-3-3a11.65,11.65,0,0,0,1.43-3.31h4.12v-5.7H91.15a11.87,11.87,0,0,0-1.39-3.39l2.87-2.87-4-4-2.89,2.88a11.92,11.92,0,0,0-3.38-1.36V56.65h-5.7v4.2a12.08,12.08,0,0,0-3.25,1.41l-3-3-4,4,3.08,3.09a12.46,12.46,0,0,0-1.28,3.17Zm10.73,6.28a6.09,6.09,0,0,1,8.43-8.44A4.28,4.28,0,0,1,84.5,69a6.1,6.1,0,0,1-8.44,8.44A4.33,4.33,0,0,1,74.47,75.82Z"/><path d="M35,19.49a9.46,9.46,0,1,0,12.55-4.63A9.46,9.46,0,0,0,35,19.49Z"/><path class="cls-3" d="M35.83,28.83c3.36,1.77,6.17.28,6.46-2.49,0,0,4.23-8.24,7.89-7,2.23,1.12,3.1,3.8,2.47,6.77A61.25,61.25,0,0,1,51,33.49c-.86,2.52-2,5.37-8,2.31l-1.89,4.1L33,35Z"/><path d="M42.17,39.13a.31.31,0,0,0,.3-.22l.77-2.66c2.38,1.16,4.17,1.47,5.48.94,1.56-.63,2.14-2.34,2.57-3.6a44.3,44.3,0,0,0,1.43-6.17c.09-.52.17-1,.24-1.27.68-3.23-.33-6-2.64-7.11a.31.31,0,0,0-.42.13.3.3,0,0,0,.14.42c2,1,2.93,3.49,2.31,6.43-.07.31-.15.77-.24,1.29a44.93,44.93,0,0,1-1.41,6.08c-.5,1.48-1,2.74-2.21,3.22s-2.93.13-5.3-1.09a.34.34,0,0,0-.26,0,.32.32,0,0,0-.18.2l-.88,3a.32.32,0,0,0,.22.39Z"/><path d="M33,35.33a.31.31,0,0,0,.28-.18L36.12,29a.31.31,0,0,0-.16-.41.3.3,0,0,0-.41.15L32.7,34.89a.3.3,0,0,0,.15.41A.28.28,0,0,0,33,35.33Z"/><path d="M43.05,36.11a.33.33,0,0,0,.28-.16.32.32,0,0,0-.13-.43l-2.1-1.11a.31.31,0,0,0-.42.13.3.3,0,0,0,.13.42l2.09,1.12A.4.4,0,0,0,43.05,36.11Z"/><path d="M46.09,26.83a.63.63,0,1,0,.83-.31A.62.62,0,0,0,46.09,26.83Z"/><path d="M50.83,27.75a.63.63,0,1,0,.83-.31A.63.63,0,0,0,50.83,27.75Z"/><path d="M40.76,34.63s-1,3.63,1.41,4.39l.88-3.22Z"/><path d="M8.61,76.55a.31.31,0,0,0,.31-.28c0-.32.83-7.89,8.69-9.28,8.29-1.47,13.73-2.44,22.32-7.1a.31.31,0,1,0-.3-.54c-8.5,4.61-13.9,5.56-22.06,7-8.4,1.49-9.26,9.77-9.27,9.85a.31.31,0,0,0,.28.34Z"/><path d="M24.2,65.64a.32.32,0,0,0,.3-.24l3.42-14.31a.31.31,0,0,0-.61-.14l-3.42,14.3a.32.32,0,0,0,.23.38Z"/><path d="M41,44.93h.22c4.81-.33,5-7.68,5-8a.3.3,0,0,0-.3-.32.31.31,0,0,0-.32.3c0,.08-.19,7.09-4.43,7.38S28,34.05,27.9,34a.32.32,0,0,0-.44,0,.31.31,0,0,0,0,.44C27.78,34.78,36.24,44.93,41,44.93Z"/><path d="M40.25,84.31a.31.31,0,0,0,.22-.09s1-1.11,8-11.65a.31.31,0,0,0-.09-.44.32.32,0,0,0-.43.09C41,82.72,40,83.78,40,83.79a.31.31,0,0,0,0,.44A.3.3,0,0,0,40.25,84.31Z"/><path d="M60.62,47.19,53.1,64.28a2.66,2.66,0,1,1-4.75-2.39l9.47-16.38Z"/><path class="cls-4" d="M66.76,12.59a15.21,15.21,0,0,1,4-3.09,5.16,5.16,0,0,1,4.68-.26l2.79,1.35a5.21,5.21,0,0,1,2.63,3.78A15.13,15.13,0,0,1,81,19.45a44.64,44.64,0,0,1-4.18,13,44.53,44.53,0,0,1-7.58,11.35,15,15,0,0,1-4,3.09,5.16,5.16,0,0,1-4.68.26l-.16-.08-2.55-1.23A5.18,5.18,0,0,1,55.08,42,14.82,14.82,0,0,1,55,36.94a44.25,44.25,0,0,1,4.18-13A44.85,44.85,0,0,1,66.76,12.59Z"/><path class="cls-3" d="M64.27,26.4c-4.37,9.05-5.54,17.53-2.62,18.94s8.83-4.78,13.2-13.83S80.4,14,77.47,12.57,68.64,17.35,64.27,26.4Z"/><path d="M61.51,45.62c-3.12-1.51-2-10,2.48-19.36s10.49-15.48,13.62-14,2,10-2.48,19.36c-4,8.39-9.29,14.2-12.58,14.2A2.43,2.43,0,0,1,61.51,45.62Zm3-19.08c-4.21,8.72-5.48,17.21-2.76,18.52a1.9,1.9,0,0,0,.79.17c3,0,8.15-5.91,12-13.85,4.22-8.73,5.48-17.21,2.77-18.52a1.77,1.77,0,0,0-.8-.18C73.59,12.68,68.39,18.59,64.55,26.54Z"/><path d="M66.44,27.45c-2.57,5.33-3.26,10.33-1.54,11.16s5.21-2.81,7.78-8.15S76,20.13,74.23,19.3,69,22.12,66.44,27.45Z"/><path class="cls-3" d="M40.39,59.27l5.92-3s4.46-6.51,8.52-5.55c0,0-1.53,2.56.34,3.22s3.34-2.42,3.34-2.42,3.63,3,1.86,5.86c0,0,1.81,4.08-1.14,5.77,0,0,1.4,3.58-2,4.88a2.65,2.65,0,0,1-1.61,2.81c-.55.27-6.65,1.64-6.65,1.64l-.12.09a7.89,7.89,0,1,1-8.43-13.26Z"/><path d="M41.29,74a8.2,8.2,0,0,1-1-15l5.85-3c.51-.73,4.76-6.55,8.8-5.61a.35.35,0,0,1,.22.19.31.31,0,0,1,0,.28A3.18,3.18,0,0,0,54.62,53a1,1,0,0,0,.66.6c1.58.56,2.94-2.23,2.95-2.26a.3.3,0,0,1,.22-.17.3.3,0,0,1,.26.06s3.7,3.11,2,6.12c.29.77,1.42,4.21-1.12,5.88a4.71,4.71,0,0,1-.09,3.1,3.61,3.61,0,0,1-2,1.85,3,3,0,0,1-1.8,2.89c-.55.27-5.77,1.45-6.65,1.65l-.07,0a8.16,8.16,0,0,1-5,1.71A8.27,8.27,0,0,1,41.29,74ZM55.07,54.2a1.6,1.6,0,0,1-1-1,3.28,3.28,0,0,1,.32-2.31c-3.71-.39-7.75,5.43-7.8,5.49a.27.27,0,0,1-.11.1l-5.92,3a7.58,7.58,0,1,0,8.1,12.74l.12-.09a.34.34,0,0,1,.12-.06c2.35-.53,6.21-1.43,6.58-1.62a2.35,2.35,0,0,0,1.45-2.47.31.31,0,0,1,.19-.35,3.12,3.12,0,0,0,1.85-1.61,4.25,4.25,0,0,0,0-2.87.3.3,0,0,1,.13-.38c2.67-1.53,1.08-5.22,1-5.38a.28.28,0,0,1,0-.29C61.42,55,59.38,52.75,58.6,52,58.11,52.84,56.78,54.8,55.07,54.2Z"/><path d="M56,64.72a.27.27,0,0,0,.12,0l3.22-1.29a.33.33,0,0,0,.18-.41.31.31,0,0,0-.41-.17l-3.23,1.3a.31.31,0,0,0-.17.4A.32.32,0,0,0,56,64.72Z"/><path d="M56.06,68.82a.31.31,0,0,0,.13,0l1.14-.52a.31.31,0,0,0,.16-.41.33.33,0,0,0-.42-.15l-1.14.52a.31.31,0,0,0-.16.41A.33.33,0,0,0,56.06,68.82Z"/><path d="M54.83,60.2a.31.31,0,0,0,.13,0l5.54-2.55a.3.3,0,0,0,.15-.41.31.31,0,0,0-.41-.16L54.7,59.6a.31.31,0,0,0-.15.41A.3.3,0,0,0,54.83,60.2Z"/><path d="M92.87,48.17,91.63,50.5s1.82,1,1.82,1A5.74,5.74,0,0,0,93.31,53l-2,.61.78,2.53,2-.61a5.21,5.21,0,0,0,1,1.22l-1,1.82,2.33,1.24.95-1.78a5.49,5.49,0,0,0,1.61.18l.58,1.9,2.53-.77-.57-1.86a5.41,5.41,0,0,0,1.31-1l1.69.9L105.77,55l-1.67-.89a5.4,5.4,0,0,0,.17-1.69l1.8-.55-.77-2.53-1.81.55a5.58,5.58,0,0,0-1.09-1.29l.9-1.69L101,45.7l-.91,1.72a5.38,5.38,0,0,0-1.64-.13l-.58-1.9-2.53.78.59,1.93a5.91,5.91,0,0,0-1.22,1l-1.8-1Zm3,4.91a2.82,2.82,0,0,1,5.29-1.62,2,2,0,0,1,.31,1,2.83,2.83,0,0,1-5.3,1.62A2,2,0,0,1,95.9,53.08Z"/><path d="M80.11,47.1a.31.31,0,0,0,.22-.09l4.33-4.33a.31.31,0,0,0-.44-.44l-4.33,4.32a.33.33,0,0,0,0,.45A.31.31,0,0,0,80.11,47.1Z"/><path d="M84.44,47.1a.31.31,0,0,0,.22-.09.33.33,0,0,0,0-.45l-4.33-4.32a.31.31,0,0,0-.44.44L84.22,47A.31.31,0,0,0,84.44,47.1Z"/><path d="M101.82,51a3.57,3.57,0,0,1-.58-3.75,4.94,4.94,0,0,1,1.16-1.11c.78-.6,1.59-1.22,1.59-2.33s0-3.28-1-4.13a1.82,1.82,0,0,0-1.49-.39,2.38,2.38,0,0,0-1.89.93c-.39.65-.3,1.71.26,3.14.65,1.66,1.23,3.54.54,4.87a2.79,2.79,0,0,1-2,1.39,2.54,2.54,0,0,1-.7.09c-2.49,0-3.73-3.59-4.83-6.79-.1-.28-.19-.55-.28-.82-1.15-3.27-2.1-6.53-1-10.29a.63.63,0,0,0-.15-.6,7.24,7.24,0,1,1,10.79-9.64c.16.17,2.92,3.26,3.73,4.45,2.29,3.34,4.12,8.94,4.92,13l.21,1c.83,4,1.61,7.78-3.93,10.78a7.17,7.17,0,0,1-3.32,1A2.75,2.75,0,0,1,101.82,51ZM93.21,20.66A6.62,6.62,0,0,0,92,30.8a1.23,1.23,0,0,1,.29,1.2c-1,3.59-.1,6.74,1,9.92.1.27.19.54.29.82,1.11,3.23,2.38,6.9,4.79,6.3A2.21,2.21,0,0,0,99.9,48c.57-1.12,0-2.92-.57-4.36-.65-1.65-.72-2.85-.21-3.69a2.92,2.92,0,0,1,2.35-1.23,2.44,2.44,0,0,1,2,.54c1.16,1,1.16,3.27,1.16,4.6a3.63,3.63,0,0,1-1.83,2.83,4.74,4.74,0,0,0-1,1,3.06,3.06,0,0,0,.52,3c.9,1,2.51.87,4.67-.29,5.12-2.77,4.42-6.17,3.61-10.1l-.21-1c-.79-4-2.58-9.52-4.82-12.79-.8-1.16-3.66-4.36-3.69-4.4a6.64,6.64,0,0,0-8.63-1.33Z"/><path d="M101.33,44a2.83,2.83,0,0,0,.5,0,4.44,4.44,0,0,0,2.64-2,.3.3,0,0,0-.1-.42.32.32,0,0,0-.43.1,3.91,3.91,0,0,1-2.23,1.71,2.59,2.59,0,0,1-2.1-.66.31.31,0,0,0-.44.05.3.3,0,0,0,0,.43A3.35,3.35,0,0,0,101.33,44Z"/><path d="M101.5,41.81a.33.33,0,0,0,.31-.37L101.4,39a.31.31,0,0,0-.36-.25.32.32,0,0,0-.26.36l.41,2.43A.32.32,0,0,0,101.5,41.81Z"/><path d="M47.26,19.86a4.14,4.14,0,1,0,4.14-4.14A4.14,4.14,0,0,0,47.26,19.86Z"/><path d="M47.58,19.19A4.45,4.45,0,1,1,52,23.64,4.46,4.46,0,0,1,47.58,19.19Zm.63,0A3.83,3.83,0,1,0,52,15.37,3.83,3.83,0,0,0,48.21,19.19Z"/><path d="M40,21.66a4,4,0,1,0,4-4A4,4,0,0,0,40,21.66Z"/><path class="cls-3" d="M39.1,25.91a2.81,2.81,0,1,0,3.73-1.37A2.81,2.81,0,0,0,39.1,25.91Z"/><path d="M41.91,28.08a.33.33,0,0,0,.31-.37L41.89,26a.31.31,0,0,0-.61.11l.33,1.74A.32.32,0,0,0,41.91,28.08Z"/><path class="cls-4" d="M53.78,26.35a.31.31,0,0,0,.3-.25.32.32,0,0,0-.25-.37L47,24.43a.31.31,0,0,0-.37.24.32.32,0,0,0,.25.37l6.88,1.3Z"/><path class="cls-4" d="M45.39,30.89a3.3,3.3,0,1,1,.79.1A3.06,3.06,0,0,1,45.39,30.89Zm-.61-5.54A2.71,2.71,0,0,0,43.55,27a2.72,2.72,0,0,0,2,3.27,2.72,2.72,0,0,0,3.27-2,2.68,2.68,0,0,0-.32-2A2.63,2.63,0,0,0,46.82,25a2.34,2.34,0,0,0-.64-.08A2.69,2.69,0,0,0,44.78,25.35Z"/><path class="cls-4" d="M52.26,32.2a3.31,3.31,0,1,1,.8.1A3.73,3.73,0,0,1,52.26,32.2Zm-1.83-3.88a2.73,2.73,0,0,0,.31,2.05,2.71,2.71,0,0,0,4.94-.76,2.7,2.7,0,0,0-2-3.27,2.8,2.8,0,0,0-.64-.08A2.71,2.71,0,0,0,50.43,28.32Z"/><path d="M49.54,31.71a.31.31,0,0,0,.31-.27l.57-4.38A.31.31,0,1,0,49.8,27l-.57,4.38a.31.31,0,0,0,.27.35Z"/><path d="M49.88,32.86a.31.31,0,0,0,.31-.27.3.3,0,0,0-.26-.35L48.56,32a.31.31,0,1,0-.09.61l1.36.21Z"/></svg>