<svg id="Layer_1" data-name="Layer 1" xmlns="http://www.w3.org/2000/svg" viewBox="0 0 104.84 95.14"><defs><style>.cls-1{fill:#f8dc8c;}.cls-2{fill:#fff;}.cls-3{fill:#fc1a3d;}.cls-4{fill:#9a1c21;}</style></defs><path class="cls-1" d="M86.38,17.21a6.09,6.09,0,1,1-6.08-6.09A6.09,6.09,0,0,1,86.38,17.21Z"/><path class="cls-1" d="M46.58,2.58A28.47,28.47,0,0,1,58.39,7.67c10.8,8,12.78,24.88-.87,31C50.58,41.76,42,43.5,39.82,52,38,59.38,30.72,63,23.48,63.39,0,64.56-.4,33.6,9.33,19.28A40.38,40.38,0,0,1,29.71,4,33.73,33.73,0,0,1,46.58,2.58Z"/><rect class="cls-2" x="34.76" y="19.58" width="67.96" height="60.77" transform="translate(137.47 99.92) rotate(-180)"/><path d="M34.53,80.35V19.58a.23.23,0,0,1,.23-.23h67.95a.23.23,0,0,1,.23.23V80.35a.23.23,0,0,1-.23.23H34.76A.23.23,0,0,1,34.53,80.35Zm68-60.54H35V80.12h67.49Z"/><path class="cls-2" d="M31.26,67.73,27.75,93.28h-14c-.29,0-.48-.16-.48-.41,0-3.68,5.24-3.45,5.24-3.45l3.89-22.26Z"/><path class="cls-2" d="M35,67.73l3.51,25.55H52.6c.29,0,.48-.16.48-.41,0-3.68-5.24-3.45-5.24-3.45L44,67.16Z"/><path class="cls-3" d="M37.14,82.65h9.47a.23.23,0,0,0,0-.46H37.14a.23.23,0,0,0,0,.46Z"/><path class="cls-3" d="M19.84,82.65h9.4a.23.23,0,0,0,0-.46h-9.4a.23.23,0,1,0,0,.46Z"/><path class="cls-4" d="M27.75,93.28h-14c-.29,0-.48-.16-.48-.41,0-3.68,5.24-3.45,5.24-3.45l0-.16h9.82Z"/><path d="M13,92.87a3.09,3.09,0,0,1,.93-2.31c1.33-1.27,3.64-1.37,4.35-1.37l3.86-22.07a.22.22,0,0,1,.24-.19l8.9.57a.21.21,0,0,1,.16.08.24.24,0,0,1,.05.18L28,93.31a.22.22,0,0,1-.23.2H13.69A.64.64,0,0,1,13,92.87ZM31,67.94l-8.45-.54L18.69,89.46a.24.24,0,0,1-.24.19s-2.81-.1-4.21,1.24a2.64,2.64,0,0,0-.79,2c0,.16.15.18.25.18H27.55Z"/><path class="cls-4" d="M38.55,93.28H52.6c.29,0,.48-.16.48-.41,0-3.68-5.24-3.45-5.24-3.45l0-.16H38Z"/><path d="M52.6,93.51H38.55a.22.22,0,0,1-.23-.2l-3.5-25.55a.24.24,0,0,1,0-.18A.21.21,0,0,1,35,67.5l8.9-.57a.22.22,0,0,1,.24.19L48,89.19c.71,0,3,.1,4.35,1.37a3.09,3.09,0,0,1,.93,2.31.64.64,0,0,1-.7.64Zm-4.75-3.86a.24.24,0,0,1-.24-.19L43.76,67.4l-8.45.54,3.44,25.11H52.61c.09,0,.24,0,.24-.18a2.64,2.64,0,0,0-.79-2c-1.21-1.16-3.46-1.24-4.06-1.24Z"/><path d="M85.74,80.58a.23.23,0,0,0,.23-.23V19.58a.23.23,0,0,0-.46,0V80.35A.23.23,0,0,0,85.74,80.58Z"/><path d="M92.12,27.52,95.57,27,99,26.49l-.52,3.44L98,33.37,96.3,31.7l-4.23,4.23-2.51-2.5L93.8,29.2Z"/><path class="cls-3" d="M90.75,49a3.54,3.54,0,0,0,7.07,0c0-2-3.53-6.74-3.53-6.74S90.75,47.06,90.75,49Z"/><path class="cls-2" d="M92.85,49a1.44,1.44,0,1,0,1.44-1.44A1.44,1.44,0,0,0,92.85,49Z"/><rect class="cls-3" x="90.92" y="53.29" width="6.74" height="2.54" transform="translate(188.57 109.12) rotate(-180)"/><path d="M92.48,70.37V64.1a.23.23,0,0,1,.23-.23H99a.23.23,0,0,1,.23.23v6.27a.23.23,0,0,1-.23.23H92.71A.23.23,0,0,1,92.48,70.37Zm6.27-6H92.94v5.81h5.81Z"/><path class="cls-3" d="M89.57,70.37a3.14,3.14,0,1,0,3.14-3.13A3.15,3.15,0,0,0,89.57,70.37Z"/><path d="M78.06,32.46a2.24,2.24,0,1,0,2.24-2.24A2.24,2.24,0,0,0,78.06,32.46Z"/><path d="M47.56,13a.2.2,0,0,0,.16-.07l3.19-3.19a.23.23,0,0,0-.32-.32L47.4,12.56a.22.22,0,0,0,0,.32A.2.2,0,0,0,47.56,13Z"/><path d="M50.75,13a.2.2,0,0,0,.16-.07.22.22,0,0,0,0-.32L47.72,9.37a.23.23,0,0,0-.32.32l3.19,3.19A.2.2,0,0,0,50.75,13Z"/><path d="M12.16,28.63a3.1,3.1,0,1,1,3.1,3.09A3.1,3.1,0,0,1,12.16,28.63Zm.46,0A2.64,2.64,0,1,0,15.26,26,2.64,2.64,0,0,0,12.62,28.63Z"/><path d="M37.27,27.14a4.43,4.43,0,1,1-4.2-4.64A4.43,4.43,0,0,1,37.27,27.14Z"/><path d="M34.11,20.48a4.43,4.43,0,1,1-4.21-4.65A4.43,4.43,0,0,1,34.11,20.48Z"/><path d="M29.82,24.42a4.67,4.67,0,0,1-4.43-4.88,4.68,4.68,0,0,1,4.89-4.43A4.67,4.67,0,0,1,34.7,20a4.67,4.67,0,0,1-4.65,4.43Zm-2.59-7.76a4.2,4.2,0,1,0,5.93.29,4.23,4.23,0,0,0-2.91-1.38H30A4.15,4.15,0,0,0,27.23,16.66Z"/><path d="M31.81,32a3.39,3.39,0,1,1-3.22-3.56A3.4,3.4,0,0,1,31.81,32Z"/><path d="M37.73,32a3.39,3.39,0,1,1-3.22-3.56A3.39,3.39,0,0,1,37.73,32Z"/><polygon class="cls-2" points="20.45 72.85 24.5 53.77 41.14 53.77 45.43 72.85 20.45 72.85"/><path d="M20.27,73a.25.25,0,0,1-.05-.19l4.05-19.08a.25.25,0,0,1,.23-.18H41.14a.23.23,0,0,1,.22.18l4.3,19.08a.22.22,0,0,1,0,.19.21.21,0,0,1-.18.09h-25A.21.21,0,0,1,20.27,73ZM41,54H24.68L20.73,72.62H45.14Z"/><path class="cls-4" d="M21.38,37.84a9.46,9.46,0,0,1,8.37-4.75l5.1-.06c6.38.45,8.36,3.11,8.49,8.68v-.08l2.16-2.72,6.33,2.14s2.93,16.3-9.41,18.68l-1.29-6H31.35l2,5.27L27.72,63.9c-4.37-5.22-7.77-7.48-8.6-13.65C18.35,44.56,19.51,40.78,21.38,37.84Z"/><path class="cls-2" d="M29.75,33.09l1.6,0c1.69-1.44.13-4.79.13-4.79,2.88-.2,4.67-3.64,5.13-2.94a1.89,1.89,0,0,1,.35.91c.29,2.84.67,5.9-2,5.76l0,1a17.53,17.53,0,0,1,2.39.32c-.09.08-4.24,3.24-10.2.12A13,13,0,0,1,29.75,33.09Z"/><path d="M27.72,64.13a.3.3,0,0,0,.15,0l5.67-4.87a.22.22,0,0,0,.07-.25l-1.92-5H41l1.25,5.78a.24.24,0,0,0,.27.18c5.15-1,8.44-4.6,9.52-10.42A27.14,27.14,0,0,0,52.07,41a.24.24,0,0,0-.16-.18l-6.33-2.14a.22.22,0,0,0-.25.08L43.54,41c-.14-2.62-.75-4.44-1.91-5.7C40.28,33.84,38.16,33,35,32.8a.24.24,0,0,0-.25.22.23.23,0,0,0,.21.24c5.85.44,8.07,2.73,8.2,8.46a.23.23,0,0,0,.46,0l2-2.55,6,2a26.19,26.19,0,0,1-.1,8.25c-1,5.61-4,9-8.93,10l-1.24-5.74a.23.23,0,0,0-.22-.18H31.35a.26.26,0,0,0-.19.1.22.22,0,0,0,0,.21l2,5.12-5.38,4.61c-.9-1.07-1.74-2-2.56-2.9-3-3.32-5.19-5.71-5.83-10.46-.67-4.94,0-8.83,2.23-12.26a9,9,0,0,1,5.55-4.26.24.24,0,0,0,.16-.28.23.23,0,0,0-.28-.17,9.41,9.41,0,0,0-5.82,4.46c-2.25,3.53-3,7.52-2.3,12.57.66,4.89,2.88,7.33,5.95,10.71.86.95,1.75,1.92,2.7,3.06a.21.21,0,0,0,.16.08Z"/><path class="cls-2" d="M31.35,54a.23.23,0,0,0,.23-.27c0-.16-.74-4-3-5.69-2.09-1.5-.44-7.36-.42-7.42a.23.23,0,0,0-.16-.28.22.22,0,0,0-.28.16c-.08.25-1.75,6.23.59,7.92,2.14,1.53,2.84,5.35,2.85,5.39A.22.22,0,0,0,31.35,54Z"/><path class="cls-2" d="M41,48a.17.17,0,0,0,.1,0,4.77,4.77,0,0,0,.46-8.36.24.24,0,0,0-.32.08.22.22,0,0,0,.07.31,4.31,4.31,0,0,1-.41,7.56.23.23,0,0,0-.11.3A.24.24,0,0,0,41,48Z"/><path class="cls-2" d="M41.42,40a.22.22,0,0,0,.22-.19L42,37.77a.23.23,0,1,0-.45-.07l-.34,2.06a.23.23,0,0,0,.19.27Z"/><path class="cls-2" d="M41,54a.23.23,0,0,0,.23-.23v-6a.23.23,0,0,0-.23-.23.24.24,0,0,0-.23.23v6A.22.22,0,0,0,41,54Z"/><path class="cls-3" d="M22.24,82.8a2.61,2.61,0,0,0,2.27-.65l38.36-35.7-3.54-3.8L21,78.35A2.59,2.59,0,0,0,20.84,82,2.56,2.56,0,0,0,22.24,82.8Z"/><path class="cls-2" d="M55.46,38.48A8.29,8.29,0,1,0,66.75,50.62c3.35-3.12,7.34-18.16,7.34-18.16S58.81,35.36,55.46,38.48Z"/><path d="M60.8,53.06a8.52,8.52,0,0,1-5.5-14.75c3.36-3.12,18.12-6,18.75-6.08a.23.23,0,0,1,.21.07.23.23,0,0,1,.06.22c-.17.62-4,15.14-7.42,18.27a8.46,8.46,0,0,1-5.79,2.28ZM55.61,38.65a8.06,8.06,0,0,0,11,11.8c3-2.77,6.55-15.4,7.18-17.69C71.44,33.22,58.59,35.88,55.61,38.65Z"/><path d="M61,48.14a3.77,3.77,0,1,1,.13,0Zm-2-5.88a3.13,3.13,0,1,0,4.26,4.58,3.12,3.12,0,0,0,.16-4.42A3.12,3.12,0,0,0,59,42.26Z"/><path d="M63.56,42.49a.25.25,0,0,0,.16-.06l10.53-9.8a.24.24,0,0,0,0-.33.22.22,0,0,0-.32,0L63.4,42.09a.25.25,0,0,0,0,.33A.23.23,0,0,0,63.56,42.49Z"/><path d="M34.93,33.26a.23.23,0,0,0,.23-.23v-.78a2.09,2.09,0,0,0,1.51-.6c1-1,.75-3.15.54-5.21l0-.21a5.67,5.67,0,0,0-.6-1.67.23.23,0,1,0-.39.25,5.73,5.73,0,0,1,.54,1.46l0,.21c.2,2,.4,4-.42,4.85a1.7,1.7,0,0,1-1.4.45.24.24,0,0,0-.24.23v1A.23.23,0,0,0,34.93,33.26Z"/><path d="M34.21,27.62a.27.27,0,0,0,.25.27.25.25,0,0,0,.27-.25.26.26,0,0,0-.24-.27A.27.27,0,0,0,34.21,27.62Z"/><path d="M36.31,27.72a.27.27,0,0,0,.25.28.27.27,0,0,0,.27-.25.25.25,0,0,0-.24-.27A.26.26,0,0,0,36.31,27.72Z"/><path class="cls-2" d="M30.85,28A1.12,1.12,0,1,0,32,26.89,1.12,1.12,0,0,0,30.85,28Z"/><path d="M32.16,28.44a.27.27,0,0,0,.12,0,.23.23,0,0,0,.07-.32L32,27.5a.23.23,0,0,0-.32-.07.25.25,0,0,0-.07.32l.38.59A.23.23,0,0,0,32.16,28.44Z"/><path d="M35.88,29.3a.24.24,0,0,0,.23-.24L36,27.29a.23.23,0,0,0-.25-.21.22.22,0,0,0-.21.24l.12,1.77A.23.23,0,0,0,35.88,29.3Z"/><path d="M36,30.06a1,1,0,0,0,.65-.45.23.23,0,0,0-.07-.32.24.24,0,0,0-.31.07.57.57,0,0,1-.3.24.23.23,0,0,0,0,.46Z"/><path d="M34.88,33.1a.86.86,0,0,1-1,0c-.49-.38-.56-1.51-.56-1.51l1.64.39Z"/><path d="M34.93,32.24a.23.23,0,0,0,.23-.21.24.24,0,0,0-.22-.25,4.9,4.9,0,0,1-1.44-.3.23.23,0,0,0-.3.12.23.23,0,0,0,.12.3,5,5,0,0,0,1.6.34Z"/><path d="M55.63,66.11H80.3a.23.23,0,0,0,.23-.23V32.46a.23.23,0,0,0-.23-.23H55.63a.23.23,0,0,0,0,.46H80.07v33H55.63a.23.23,0,1,0,0,.46Z"/><path d="M78.06,65.88a2.24,2.24,0,1,0,2.24-2.24A2.24,2.24,0,0,0,78.06,65.88Z"/><path class="cls-1" d="M53.39,65.88a2.24,2.24,0,1,0,2.24-2.24A2.24,2.24,0,0,0,53.39,65.88Z"/><path d="M14.82,93.51h48.8a.23.23,0,0,0,.23-.23.23.23,0,0,0-.23-.23H14.82a.23.23,0,0,0-.23.23A.23.23,0,0,0,14.82,93.51Z"/><path class="cls-1" d="M53.69,31.34a2.24,2.24,0,1,0,3.06-.81A2.23,2.23,0,0,0,53.69,31.34Z"/><path class="cls-2" d="M45.78,38.52l.41-.79s.25-3.29,1.17-4a10.83,10.83,0,0,1,2.07-1.27A5.1,5.1,0,0,1,51.88,30c1.64-.62,3.18-.42,3.4.6s-2,1.39-2.63,2.13-.51.94-.51.94a1.56,1.56,0,0,1,1.39,1.53,5.7,5.7,0,0,1,2.1-.85A1.26,1.26,0,0,1,57.2,35.7c0,.92-2,1.41-2.66,2.41s-1.41,2.6-2.82,2.81l-.28.53a3.19,3.19,0,1,1-5.66-2.93Z"/><path d="M47.44,43.19a3.42,3.42,0,0,1-1.86-4.78l.38-.74c0-.52.32-3.39,1.25-4.15a12,12,0,0,1,2-1.27A5.24,5.24,0,0,1,51.8,29.8a3.83,3.83,0,0,1,3-.11,1.29,1.29,0,0,1,.67.88c.17.81-.75,1.26-1.56,1.65a4.24,4.24,0,0,0-1.12.67,2.46,2.46,0,0,0-.43.6,1.76,1.76,0,0,1,1.33,1.34,5.29,5.29,0,0,1,1.88-.69,1.68,1.68,0,0,1,1.36.35,1.51,1.51,0,0,1,.47,1.21c0,.64-.68,1-1.39,1.49a4.29,4.29,0,0,0-1.31,1.05c-.11.16-.22.34-.33.53-.59.94-1.31,2.11-2.53,2.36l-.23.43a3.4,3.4,0,0,1-4.2,1.63Zm8.22-8.6a5.44,5.44,0,0,0-2,.81.23.23,0,0,1-.23,0,.21.21,0,0,1-.12-.19,1.34,1.34,0,0,0-1.19-1.31.19.19,0,0,1-.16-.09c-.12-.16-.13-.51.52-1.24a4.54,4.54,0,0,1,1.26-.78c.83-.39,1.4-.71,1.31-1.14a.86.86,0,0,0-.44-.57,3.47,3.47,0,0,0-2.64.14,4.88,4.88,0,0,0-2.33,2.29.22.22,0,0,1-.11.12,10.62,10.62,0,0,0-2,1.24c-.69.56-1,3-1.08,3.87a.32.32,0,0,1,0,.09l-.4.78a3,3,0,0,0,5.25,2.73l.27-.54a.26.26,0,0,1,.18-.12c1.07-.15,1.73-1.22,2.31-2.16.12-.2.24-.38.35-.55A4.61,4.61,0,0,1,55.8,36.8c.6-.37,1.16-.72,1.17-1.11a1.06,1.06,0,0,0-.32-.86,1.08,1.08,0,0,0-.75-.25Z"/><path d="M48.36,34.2a.24.24,0,0,0,.19-.1l1.07-1.54a.23.23,0,1,0-.37-.26l-1.08,1.54a.24.24,0,0,0,.06.32A.33.33,0,0,0,48.36,34.2Z"/><path d="M51.64,36.52a.24.24,0,0,0,.2-.11l.75-1.24a.23.23,0,0,0-.07-.32.24.24,0,0,0-.32.08l-.75,1.24a.22.22,0,0,0,.07.31A.19.19,0,0,0,51.64,36.52Z"/><path d="M52.06,36.65c.91,0,1.64-1.27,1.67-1.33a.23.23,0,0,0-.39-.23s-.82,1.39-1.52,1a.29.29,0,0,1-.16-.21c-.16-.56.44-1.72.68-2.12a.22.22,0,0,0-.08-.31.22.22,0,0,0-.31.07c-.1.17-1,1.64-.74,2.48a.8.8,0,0,0,.41.5A.92.92,0,0,0,52.06,36.65Z"/><path class="cls-3" d="M29.05,24.87l.1,0,4.68-2.05a.24.24,0,0,0,.12-.31.24.24,0,0,0-.31-.11L29,24.43a.23.23,0,0,0,.09.44Z"/><path class="cls-2" d="M28.63,58a3.7,3.7,0,0,1,4.89,1.27L35,61.64a3.42,3.42,0,0,1,3.32.53s-1.6,2.16-.28,3.44a4,4,0,0,0,3.1,1s.06,1.69-2.06,1.92A2.08,2.08,0,0,1,36.6,70s-.3.78-1.66.68-2.69,0-4.61-2.88c-.87-1.28-2-3-3-4.54A3.69,3.69,0,0,1,28.63,58Z"/><path d="M34.92,70.9l-.23,0c-1.31-.09-2.67-.18-4.55-3-.92-1.36-2.15-3.22-3-4.54a4,4,0,0,1-.53-3.12,3.94,3.94,0,0,1,7.14-1.15l1.42,2.25A3.64,3.64,0,0,1,38.5,62a.22.22,0,0,1,0,.32s-1.46,2-.3,3.14a3.85,3.85,0,0,0,2.91,1,.24.24,0,0,1,.18,0,.21.21,0,0,1,.08.17,2.2,2.2,0,0,1-2.11,2.13,2.32,2.32,0,0,1-2.57,1.47,1.77,1.77,0,0,1-1.55.68Zm1.71-1.14c1.93.21,2.26-1.2,2.27-1.26a.23.23,0,0,1,.2-.18,1.81,1.81,0,0,0,1.83-1.44,4.15,4.15,0,0,1-3-1.1c-1.22-1.19-.25-3,.12-3.56a3.14,3.14,0,0,0-2.9-.37.25.25,0,0,1-.29-.09l-1.52-2.4a3.47,3.47,0,0,0-6.3,1,3.42,3.42,0,0,0,.47,2.75c.87,1.32,2.1,3.18,3,4.55,1.75,2.59,2.94,2.67,4.21,2.75l.23,0c1.15.09,1.42-.52,1.43-.54a.22.22,0,0,1,.21-.14Z"/><path d="M39.12,68.78a.23.23,0,0,0,.23-.18.23.23,0,0,0-.18-.28,11.91,11.91,0,0,1-2-.81.24.24,0,0,0-.31.1.23.23,0,0,0,.1.31,12,12,0,0,0,2.13.85Z"/><path d="M36.6,70.22a.24.24,0,0,0,.23-.19.23.23,0,0,0-.18-.27,6.65,6.65,0,0,1-1.91-1.22.23.23,0,0,0-.32,0,.23.23,0,0,0,0,.33,7.19,7.19,0,0,0,2.11,1.32Z"/><path d="M34.07,70.83a.23.23,0,0,0,0-.46c-.54-.11-1.4-1.13-1.69-1.51a.23.23,0,0,0-.33,0,.23.23,0,0,0,0,.32c.12.16,1.17,1.52,2,1.69Z"/></svg>