<svg id="Layer_1" data-name="Layer 1" xmlns="http://www.w3.org/2000/svg" viewBox="0 0 100 100"><defs><style>.cls-1{fill:#f9c3dc;}.cls-2{fill:none;stroke:#51a0a8;stroke-miterlimit:10;stroke-width:4.45px;}.cls-3{fill:#51a0a8;}</style></defs><path class="cls-1" d="M46.3,26.6A23.35,23.35,0,1,1,22.9,50h0A23.49,23.49,0,0,1,46.3,26.6m0-21.5A44.9,44.9,0,1,0,91.1,50,44.9,44.9,0,0,0,46.3,5.1Z"/><path class="cls-2" d="M68.2,60.8H18.6V24.1c0-1.8,1.8-3.2,3.9-3.2H87.3c2.2,0,3.9,1.4,3.9,3.2v3.2"/><path class="cls-3" d="M93.7,34V74.5H75.2V34H93.7M96,29.1H72.9a2.65,2.65,0,0,0-2.6,2.6h0V76.9a2.65,2.65,0,0,0,2.6,2.6H96a2.65,2.65,0,0,0,2.6-2.6h0V31.7A2.65,2.65,0,0,0,96,29.1Z"/><rect class="cls-3" x="9.4" y="63.9" width="58.7" height="6.2"/></svg>