<?xml version="1.0" encoding="utf-8"?>
<!-- Generator: Adobe Illustrator 26.0.1, SVG Export Plug-In . SVG Version: 6.00 Build 0)  -->
<svg version="1.1" id="Layer_1" xmlns="http://www.w3.org/2000/svg" xmlns:xlink="http://www.w3.org/1999/xlink" x="0px" y="0px"
	 viewBox="0 0 100 100" style="enable-background:new 0 0 100 100;" xml:space="preserve">
<style type="text/css">
	.st0{fill:#F8DC8C;}
	.st1{fill:none;stroke:#FC1A3D;stroke-width:4.45;stroke-miterlimit:10;}
	.st2{fill:#FC1A3D;}
</style>
<path class="st0" d="M91.1,50c0,24.8-20.2,44.9-44.9,44.9S1.4,74.8,1.4,50S21.5,5.1,46.3,5.1C71,5.2,91.1,25.2,91.1,50z"/>
<path class="st1" d="M68.2,60.8H18.6V24.1c0-1.8,1.8-3.2,3.9-3.2h64.8c2.2,0,3.9,1.4,3.9,3.2v3.2"/>
<path class="st2" d="M93.7,34v40.5H75.2V34H93.7 M96,29.1H72.9c-1.4,0-2.6,1.2-2.6,2.6l0,0v45.2c0,1.4,1.2,2.6,2.6,2.6l0,0H96
	c1.4,0,2.6-1.2,2.6-2.6l0,0V31.7C98.6,30.3,97.4,29.1,96,29.1L96,29.1z"/>
<rect x="9.4" y="63.9" class="st2" width="58.7" height="6.2"/>
</svg>
