<?xml version="1.0" encoding="utf-8"?>
<!-- Generator: Adobe Illustrator 26.0.1, SVG Export Plug-In . SVG Version: 6.00 Build 0)  -->
<svg version="1.1" id="Layer_1" xmlns="http://www.w3.org/2000/svg" xmlns:xlink="http://www.w3.org/1999/xlink" x="0px" y="0px"
	 viewBox="0 0 100 100" style="enable-background:new 0 0 100 100;" xml:space="preserve">
<style type="text/css">
	.st0{fill:#F9C3DC;}
	.st1{fill:none;stroke:#1A6071;stroke-width:4.45;stroke-miterlimit:10;}
	.st2{fill:#1A6071;}
</style>
<path class="st0" d="M46.3,26.6c12.9,0,23.4,10.5,23.4,23.4S59.2,73.3,46.3,73.3S22.9,62.9,22.9,50l0,0
	C22.9,37.1,33.4,26.7,46.3,26.6 M46.3,5.1C21.5,5.1,1.4,25.2,1.4,50s20.1,44.9,44.8,44.9S91.1,74.8,91.1,50S71,5.2,46.3,5.1
	C46.3,5.1,46.3,5.1,46.3,5.1z"/>
<path class="st1" d="M68.2,60.8H18.6V24.1c0-1.8,1.8-3.2,3.9-3.2h64.8c2.2,0,3.9,1.4,3.9,3.2v3.2"/>
<path class="st2" d="M93.7,34v40.5H75.2V34H93.7 M96,29.1H72.9c-1.4,0-2.6,1.2-2.6,2.6c0,0,0,0,0,0v45.2c0,1.4,1.2,2.6,2.6,2.6l0,0
	H96c1.4,0,2.6-1.2,2.6-2.6c0,0,0,0,0,0V31.7C98.6,30.3,97.4,29.1,96,29.1C96,29.1,96,29.1,96,29.1z"/>
<rect x="9.4" y="63.9" class="st2" width="58.7" height="6.2"/>
</svg>
