<svg id="Layer_1" data-name="Layer 1" xmlns="http://www.w3.org/2000/svg" viewBox="0 0 100 100"><defs><style>.cls-1,.cls-2{fill:none;stroke-miterlimit:10;}.cls-1{stroke:#a3c9a8;stroke-linecap:round;stroke-width:5px;}.cls-2{stroke:#ba727b;stroke-width:4.45px;}.cls-3{fill:#ba727b;}</style></defs><path class="cls-1" d="M4.1,61.1c8.4.2,8.3,4.2,16.7,4.3s8.5-3.8,16.8-3.7,8.3,4.2,16.7,4.3,8.5-3.8,16.8-3.7,8.3,4.2,16.7,4.3"/><path class="cls-1" d="M4.1,46.1c8.4.2,8.3,4.2,16.7,4.3s8.5-3.8,16.8-3.7,8.3,4.2,16.7,4.3,8.5-3.8,16.8-3.7,8.3,4.2,16.7,4.3"/><path class="cls-1" d="M4.1,31.1c8.4.2,8.3,4.2,16.7,4.3s8.5-3.8,16.8-3.7,8.3,4.2,16.7,4.3,8.5-3.8,16.8-3.7,8.3,4.2,16.7,4.3"/><path class="cls-1" d="M4.1,16.1c8.4.2,8.3,4.2,16.7,4.3s8.5-3.8,16.8-3.7,8.3,4.2,16.7,4.3,8.5-3.8,16.8-3.7,8.3,4.2,16.7,4.3"/><path class="cls-2" d="M68.2,74.8H18.6V38.1c0-1.8,1.8-3.2,3.9-3.2H87.3c2.2,0,3.9,1.4,3.9,3.2v3.2"/><path class="cls-3" d="M93.7,48V88.5H75.2V48H93.7M96,43.1H72.9a2.65,2.65,0,0,0-2.6,2.6h0V90.9a2.65,2.65,0,0,0,2.6,2.6H96a2.65,2.65,0,0,0,2.6-2.6h0V45.7A2.65,2.65,0,0,0,96,43.1Z"/><rect class="cls-3" x="9.4" y="77.9" width="58.7" height="6.2"/></svg>