<?xml version="1.0" encoding="utf-8"?>
<!-- Generator: Adobe Illustrator 26.0.1, SVG Export Plug-In . SVG Version: 6.00 Build 0)  -->
<svg version="1.1" id="Layer_1" xmlns="http://www.w3.org/2000/svg" xmlns:xlink="http://www.w3.org/1999/xlink" x="0px" y="0px"
	 viewBox="0 0 100 100" style="enable-background:new 0 0 100 100;" xml:space="preserve">
<style type="text/css">
	.st0{fill:#F8DC8C;}
	.st1{fill:none;stroke:#FC1A3D;stroke-width:4.45;stroke-miterlimit:10;}
	.st2{fill:#FC1A3D;}
</style>
<path class="st0" d="M91.1,50c0,24.8-20.2,44.9-44.9,44.9S1.4,74.8,1.4,50S21.5,5.1,46.3,5.1C71,5.2,91.1,25.2,91.1,50z"/>
<path class="st1" d="M68.2,60.8H18.6V24.1c0-1.8,1.8-3.2,3.9-3.2h64.8c2.2,0,3.9,1.4,3.9,3.2v3.2"/>
<path class="st2" d="M93.7,34v40.5H75.2V34H93.7 M96,29.1H72.9c-1.4,0-2.6,1.2-2.6,2.6l0,0v45.2c0,1.4,1.2,2.6,2.6,2.6l0,0H96
	c1.4,0,2.6-1.2,2.6-2.6l0,0V31.7C98.6,30.3,97.4,29.1,96,29.1L96,29.1z"/>
<rect x="9.4" y="63.9" class="st2" width="58.7" height="6.2"/>
<path class="st2" d="M66.3,80.5v5.7c0,0,4.5,0,4.5,0c0.3,1.1,0.7,2.1,1.3,3.1l-3.2,3.2l4,4l3.2-3.2c1,0.6,2,1,3.1,1.3v4.4h5.7v-4.3
	c1.1-0.3,2.2-0.7,3.2-1.3l3,3l4-4l-3-3c0.6-1,1.1-2.1,1.4-3.3h4.1v-5.7h-3.9c-0.3-1.2-0.8-2.3-1.4-3.4l2.9-2.9l-4-4l-2.9,2.9
	c-1.1-0.6-2.2-1.1-3.4-1.4v-4.1h-5.7v4.2c-1.1,0.3-2.2,0.8-3.2,1.4l-3-3l-4,4l3.1,3.1c-0.6,1-1,2.1-1.3,3.2L66.3,80.5z M77,86.8
	c-1.9-2.8-1.1-6.6,1.7-8.4c2-1.3,4.7-1.3,6.7,0c0.7,0.4,1.2,0.9,1.6,1.6c1.8,2.8,1,6.6-1.8,8.4c-2,1.3-4.6,1.3-6.7,0
	C78,88,77.4,87.5,77,86.8z"/>
</svg>
