<svg id="Layer_1" data-name="Layer 1" xmlns="http://www.w3.org/2000/svg" viewBox="0 0 202.98 136.03"><defs><style>.cls-1{fill:#a3c9a8;}.cls-2{fill:#fff;}.cls-3{fill:#2e86ab;}.cls-4{fill:#ccc;}.cls-5{fill:#3a3a3a;}.cls-6{fill:#1a1a1a;}</style></defs><path class="cls-1" d="M94.27,97.52l11.87,18.75a4.62,4.62,0,0,1-3.91,7.1h-32a4.62,4.62,0,0,1-3.91-2.15L52.8,99.93a4.63,4.63,0,0,1,3.91-7.1H88.76A4.64,4.64,0,0,1,92.67,95l1.6,2.54Z"/><path class="cls-2" d="M76.69,98.68s1.25-2.06,3.62-.31l13.36,12s1.26,1.78-1.33,2H74.68s-3.82.19-2.9-2.61Z"/><path class="cls-2" d="M155.33,48.6l28.93,45.7a11.26,11.26,0,0,1-9.52,17.29H96.65a11.25,11.25,0,0,1-9.52-5.24L54.3,54.48a11.26,11.26,0,0,1,9.52-17.29H141.9a11.26,11.26,0,0,1,9.53,5.24l3.9,6.17Z"/><path class="cls-1" d="M131.89,75.3l-5.21-8.22L126,66a2.27,2.27,0,0,0-1.92-1.06H110a2.27,2.27,0,0,0-1.92,3.5l5.9,9.33a2.28,2.28,0,0,0,1.93,1.06h14a2.28,2.28,0,0,0,1.93-3.5Z"/><path class="cls-2" d="M164.64,51.46a4.76,4.76,0,0,1,2.66,0c1.48.41,2,1.41,2.09,2.92s-1.17,3.5-4.15,2.77c0,0-4.57.62-5.73,2.86a11.09,11.09,0,0,0-1.16,2.6s-.87,3.4.41,5.09c0,0-5.17.72-6,2.61,0,0-2.91-1-3.95-1.27s-2.38-1.85-3.37-2.92-2.85-2.73-2.87-3.31.16-1.48.84-1.65,2-.09,3.5,1.61,2.39,2.15,2.44,1.83-1.95-2.68-3.76-4.11-4.49-3.52-4.88-4,.18-1.73.74-2,1.43-.46,3,.67,2.77,2.11,2.77,2.11a4,4,0,0,1,4.44-.33,2.29,2.29,0,0,1,2.23-.21l.16-.89s-2.17-1.95-2.08-2.69,3.64-3.25,3.64-3.25l.75-5.58a11.57,11.57,0,0,0,4.2,5.34C163.56,51.66,164.64,51.46,164.64,51.46Z"/><path class="cls-2" d="M108.58,74a2.82,2.82,0,0,0-1.18,3.12s-1.77,1-1,4a15.62,15.62,0,0,0,3.88,7.39c2,2,5.08,3.62,5.28,4.33a32.57,32.57,0,0,1,4.14-3.63,29.69,29.69,0,0,1,4.49-2.82s-3.88-6.21-4.6-7.9-1.88-4.12-3.58-3.67-1.39,2.27-.88,3.64,2,4.06.43,4.36S113,80.24,113,80.24s-.57-.23-1.78-2.33a28.26,28.26,0,0,0-2.63-3.75Z"/><path class="cls-1" d="M158,39.6c2.76-2.63,6.52-1.72,8.56-.91s3.59,1.43,4.44,2.52a32.15,32.15,0,0,1,4.83,2A5.34,5.34,0,0,1,178.08,49a14.29,14.29,0,0,1-2.21,5.13s-.82,1.6.31,2.37a9.21,9.21,0,0,1,4.48,7.73c.2,4.88-3,7.54-6.43,7.65s-7.6-1.08-7.85-1.73c0,0-4.48,2-7.25-1.58s0-8.88,1.68-9.75a7.67,7.67,0,0,1,3.44-.82,7.25,7.25,0,0,0,1.58-2.56c.32-.91-.56-2.62-1.75-3.17a5.51,5.51,0,0,0-1.79-.43s-3.85-.94-5.84-6.08A6.18,6.18,0,0,1,158,39.6Z"/><path class="cls-3" d="M177.85,70.64s2,1.81,3.24,6.21c0,0,5,8.76,6.81,14s5,12.52,2.15,17.45a8.24,8.24,0,0,1-9,4.17,42.26,42.26,0,0,0-.11,7.69c.33,4,1.27,10,1.27,10H142.6s.93-4.15,1.19-5.83.59-4.54.59-4.54-3.39,2.19-10.5-1.21-13.57-13.55-15-16.14-4.3-8.37-4.3-8.37,6.53-7.07,12.54-9l11.15,12.39s3-6.63,5.2-11.55,5.19-12.19,8.42-14.72,4.54-3.17,6.92-3.46c0,0,1.35,2.6,3.67,3a6.88,6.88,0,0,0,3.95-.52s3.69,1.91,6.78,1.78A9.23,9.23,0,0,0,177.85,70.64Z"/><path class="cls-3" d="M133.08,12.12l5.2,8.22a2,2,0,0,1-1.71,3.11h-14a2,2,0,0,1-1.71-.94l-5.91-9.33a2,2,0,0,1,1.72-3.11h14a2.06,2.06,0,0,1,1.72.94l.7,1.11Z"/><path class="cls-1" d="M75.58,34.77,89.42,56.63a5.4,5.4,0,0,1-4.55,8.28H47.51A5.4,5.4,0,0,1,43,62.4L27.25,37.58a5.38,5.38,0,0,1,4.55-8.27H69.16a5.37,5.37,0,0,1,4.55,2.51l1.87,3Z"/><path class="cls-4" d="M140.58,56.3s-.88,1.4,1.06,2.29l1.1-.35S140.43,56.57,140.58,56.3Z"/><path class="cls-3" d="M31.31,32.89H81.08l-3.27-4.95a5.87,5.87,0,0,0-3.09-1.66c-2.29-.61-38.66,0-38.66,0A5.34,5.34,0,0,0,31.31,32.89Z"/><path class="cls-5" d="M75.19,30.49c-.6.51-1.67.22-2.38-.64a1.79,1.79,0,0,1-.19-2.46A1.79,1.79,0,0,1,75,28,1.79,1.79,0,0,1,75.19,30.49Z"/><path class="cls-2" d="M69.56,30.49c-.6.51-1.67.22-2.38-.64a1.8,1.8,0,0,1-.2-2.46,1.8,1.8,0,0,1,2.39.64A1.79,1.79,0,0,1,69.56,30.49Z"/><path class="cls-2" d="M64.07,30.49c-.61.51-1.68.22-2.39-.64a1.79,1.79,0,0,1-.19-2.46,1.79,1.79,0,0,1,2.38.64A1.8,1.8,0,0,1,64.07,30.49Z"/><path class="cls-1" d="M9.83,56.62c-1.53,1.28-4.23.55-6-1.62s-2-5-.48-6.24,4.24-.54,6,1.63S11.37,55.35,9.83,56.62Z"/><path class="cls-2" d="M158,39.6a6.18,6.18,0,0,0-1.59,6.14c2,5.14,5.84,6.08,5.84,6.08a5,5,0,0,1,.72.09,8.36,8.36,0,0,1-3.27-8.58,6.24,6.24,0,0,1,5-5.22A7.06,7.06,0,0,0,158,39.6Z"/><path class="cls-2" d="M163.07,70.69c-6.56-3.88-1.91-11.19.51-12.68a7.48,7.48,0,0,0-2.77.79c-1.66.87-4.44,6.13-1.68,9.75A5.24,5.24,0,0,0,163.07,70.69Z"/><path class="cls-1" d="M131.43,117.13s6.71,5.18,12.95,2.66c0,0,3.87-1.58,5.16-3.09a9,9,0,0,0-8.79-5.27C134.08,111.61,132.32,115.13,131.43,117.13Z"/><path class="cls-6" d="M140.61,120.69c-10.14,0-20.64-13.43-26.34-26.5a20.21,20.21,0,0,1,5.62-5.44,37.27,37.27,0,0,1,7-4c.43.2,13.47,13.31,17.49,21.36a.28.28,0,0,1-.51.25c-3.76-7.53-15.57-19.6-16.95-21a41.43,41.43,0,0,0-6.76,3.89,26.4,26.4,0,0,0-5.35,4.89c5.92,13.5,16.93,27.31,27.19,25.92,10.91-1.49,15.52-15.61,20.43-33.91a.29.29,0,0,1,.35-.2.28.28,0,0,1,.2.35c-5,18.5-9.65,32.78-20.9,34.32A11.19,11.19,0,0,1,140.61,120.69Z"/><path class="cls-6" d="M138.37,98c-.26-.09-.32-.26-.26-.4,1.23-2.73,2.36-5.42,3.46-8,5-11.9,9-21.29,16.91-22a.29.29,0,0,1,.31.26.28.28,0,0,1-.26.31c-7.62.67-11.51,9.93-16.44,21.65-1.09,2.6-2.23,5.3-3.46,8A.28.28,0,0,1,138.37,98Z"/><path class="cls-6" d="M124.23,86.47c-.24-.12-.61-.58-2.44-3.27a22.3,22.3,0,0,1-1.8-3.12c-.22-.48-.42-1-.61-1.46a19.23,19.23,0,0,0-.93-2.07c-.11-.2-.23-.4-.36-.59a2.54,2.54,0,0,0-.75-.8,1.37,1.37,0,0,0-1.19-.09,1.61,1.61,0,0,0-1,1,3.79,3.79,0,0,0,.29,2.22c.13.39.29.77.45,1.15s.36.86.51,1.32a1.68,1.68,0,0,1-.8,2.51c-1.2.57-2-1-2.56-2.08-.11-.23-.22-.43-.31-.58a.28.28,0,0,1,.48-.3c.1.16.21.38.34.62.56,1.09,1.16,2.13,1.8,1.83,1-.5.79-1.12.58-1.63s-.4-1.06-.57-1.48-.32-.77-.46-1.17a4.26,4.26,0,0,1-.29-2.58A2.16,2.16,0,0,1,116,74.54a1.88,1.88,0,0,1,1.69.14,3.11,3.11,0,0,1,.93,1c.13.21.26.42.38.64a17.53,17.53,0,0,1,1,2.13c.19.48.39,1,.61,1.43a21.13,21.13,0,0,0,1.75,3c1.8,2.64,2.18,3.11,2.19,3.13a.29.29,0,0,1,0,.4A.3.3,0,0,1,124.23,86.47Z"/><path class="cls-6" d="M107.73,78a2.86,2.86,0,0,1-.52-2.62,1.79,1.79,0,0,1,1.29-1.5.28.28,0,1,1,.17.54c-.43.13-.74.36-.91,1.09a3.15,3.15,0,0,0,.22,2.07.29.29,0,0,1-.12.39A.31.31,0,0,1,107.73,78Z"/><path class="cls-6" d="M111.29,84.08a34.17,34.17,0,0,1-3.82-6.23.29.29,0,0,1,.14-.38.29.29,0,0,1,.38.14,37.08,37.08,0,0,0,3.52,6,.28.28,0,0,1-.05.4A.27.27,0,0,1,111.29,84.08Z"/><path class="cls-6" d="M115.6,93.12a8.58,8.58,0,0,0-1.85-1.34,11.28,11.28,0,0,1-2.83-2.18,21,21,0,0,1-4.9-9c-.66-2.94,1.42-3.6,1.44-3.6a.29.29,0,0,1,.36.19.28.28,0,0,1-.19.35c-.07,0-1.6.53-1.06,2.94a20.35,20.35,0,0,0,4.76,8.74,10.77,10.77,0,0,0,2.7,2.09,6.38,6.38,0,0,1,1.78,1.35.29.29,0,0,1-.21.48Z"/><path class="cls-6" d="M162.79,58.43a3.28,3.28,0,0,1-1.19-.21A3.38,3.38,0,0,1,160,57a.27.27,0,0,1,.07-.39.29.29,0,0,1,.4.07,2.81,2.81,0,1,0,3.31-4.22,2.76,2.76,0,0,0-2.7.4.29.29,0,0,1-.35-.46,3.38,3.38,0,1,1,2,6.06Z"/><path class="cls-6" d="M163,56.92a23,23,0,0,1-1.73-2.17c.15-.45,2.71-1.19,2.71-1.19a.3.3,0,0,1,.35.2.27.27,0,0,1-.19.35l-2.17.63,1.26,1.73a.28.28,0,0,1-.06.4A.26.26,0,0,1,163,56.92Z"/><path class="cls-6" d="M158.09,63.05a4.36,4.36,0,0,1-3.54-1.84c-1.25-2-.24-4.76-.19-4.88L156.63,47a.28.28,0,1,1,.55.14L154.9,56.5c0,.06-1,2.67.13,4.41a3.79,3.79,0,0,0,3.09,1.57.29.29,0,0,1,.25.31A.28.28,0,0,1,158.09,63.05Z"/><path class="cls-6" d="M154.27,55.1c-1-.23-1.36-.91-1.18-1.56l1.41-5a1.23,1.23,0,0,1,1.51-.84.95.95,0,0,1,.73,1.3.27.27,0,0,1-.35.19.29.29,0,0,1-.2-.35.51.51,0,0,0,0-.39.53.53,0,0,0-.33-.21.67.67,0,0,0-.81.46l-1.42,5a.67.67,0,0,0,.46.81.63.63,0,0,0,.5-.06.64.64,0,0,0,.31-.39.29.29,0,0,1,.55.15,1.23,1.23,0,0,1-.58.74A1.28,1.28,0,0,1,154.27,55.1Z"/><path class="cls-6" d="M142.6,130.44c-.24-.06-.32-.22-.27-.37a77.89,77.89,0,0,0,1.77-10,.28.28,0,0,1,.31-.26.28.28,0,0,1,.25.32,77.54,77.54,0,0,1-1.79,10.13A.28.28,0,0,1,142.6,130.44Z"/><path class="cls-6" d="M182.76,113a4.27,4.27,0,0,1-2-.41.27.27,0,0,1-.11-.38.28.28,0,0,1,.38-.12c.15.08,3.64,1.83,8.34-3.47,4.27-4.83-1.94-20.08-8.57-31.67a.3.3,0,0,1,.11-.39.29.29,0,0,1,.39.11c2.43,4.26,14.26,25.81,8.49,32.32C186.92,112.33,184.39,113,182.76,113Z"/><path class="cls-6" d="M182.23,130.44a.28.28,0,0,1-.28-.22,72.7,72.7,0,0,1-1.09-20.55c2.28-22.3,1.35-34.25-3-38.75a.28.28,0,0,1,0-.4.3.3,0,0,1,.41,0c4.57,4.7,5.53,16.42,3.2,39.21a71.74,71.74,0,0,0,1.08,20.37.3.3,0,0,1-.22.34Z"/><path class="cls-6" d="M155,48.31c-.24-.14-3.65-5.53-3.65-5.53a10.91,10.91,0,0,0-9.26-5.1H128.45a.28.28,0,0,1,0-.56h13.61a11.47,11.47,0,0,1,9.74,5.36l3.41,5.39a.27.27,0,0,1-.09.39A.25.25,0,0,1,155,48.31Z"/><path class="cls-6" d="M113,37.68H87.07a.28.28,0,0,1,0-.56H113a.28.28,0,0,1,0,.56Z"/><path class="cls-6" d="M125.45,111.88H96.94a11.44,11.44,0,0,1-9.73-5.36L61,65.09a.27.27,0,0,1,.09-.39.29.29,0,0,1,.39.09l26.22,41.43a10.87,10.87,0,0,0,9.25,5.09h28.51a.29.29,0,0,1,0,.57Z"/><path class="cls-6" d="M89.63,62.17H52.27a5.65,5.65,0,0,1-4.79-2.64L31.77,34.71A5.68,5.68,0,0,1,36.57,26H73.92a5.66,5.66,0,0,1,4.8,2.64l1.87,2.95L94.43,53.46a5.68,5.68,0,0,1-4.8,8.71ZM36.57,26.57a5.1,5.1,0,0,0-4.32,7.84L48,59.22a5.07,5.07,0,0,0,4.31,2.38H89.63A5.11,5.11,0,0,0,94,53.76L78.24,28.94a5.09,5.09,0,0,0-4.32-2.37Z"/><path class="cls-6" d="M56.2,102.38c-.24-.13-3.64-5.51-3.64-5.51a4.89,4.89,0,0,1,4.13-7.5H76.87a.29.29,0,0,1,0,.57H56.69A4.32,4.32,0,0,0,53,96.57l3.4,5.37a.29.29,0,0,1-.09.39A.3.3,0,0,1,56.2,102.38Z"/><path class="cls-6" d="M102,120.35H70.11A4.85,4.85,0,0,1,66,118.07l-2.79-4.4a.27.27,0,0,1,.09-.39.28.28,0,0,1,.39.09l2.79,4.4a4.29,4.29,0,0,0,3.65,2H102a4.32,4.32,0,0,0,3.65-6.63l-.89-1.4a.3.3,0,0,1,.09-.4.29.29,0,0,1,.39.09l.89,1.41a4.89,4.89,0,0,1-4.13,7.5Z"/><path class="cls-6" d="M131.49,26.57H117.44a2.3,2.3,0,0,1-2-1.08l-5.91-9.33a2.31,2.31,0,0,1,2-3.54h14a2.32,2.32,0,0,1,2,1.07l.7,1.11,5.2,8.22a2.32,2.32,0,0,1-1.95,3.55Zm-20-13.39a1.75,1.75,0,0,0-1.48,2.68L116,25.19a1.72,1.72,0,0,0,1.47.81h14.05a1.75,1.75,0,0,0,1.53-.9,1.71,1.71,0,0,0-.06-1.77L127.06,14a1.76,1.76,0,0,0-1.48-.81Z"/><path class="cls-6" d="M131.49,26.57H117.44a2.3,2.3,0,0,1-2-1.08l-5.91-9.33a2.31,2.31,0,0,1,2-3.54h14a2.32,2.32,0,0,1,2,1.07l.7,1.11,5.2,8.22a2.32,2.32,0,0,1-1.95,3.55Zm-20-13.39a1.75,1.75,0,0,0-1.48,2.68L116,25.19a1.72,1.72,0,0,0,1.47.81h14.05a1.75,1.75,0,0,0,1.53-.9,1.71,1.71,0,0,0-.06-1.77L127.06,14a1.76,1.76,0,0,0-1.48-.81Z"/><path class="cls-6" d="M116,80.72h-2.15a2.29,2.29,0,0,1-2-1.07L106,70.32a2.32,2.32,0,0,1,2-3.55h14a2.28,2.28,0,0,1,2,1.08l.7,1.11a.27.27,0,0,1-.09.39.28.28,0,0,1-.39-.09l-.7-1.11a1.72,1.72,0,0,0-1.47-.81H108a1.72,1.72,0,0,0-1.52.9,1.68,1.68,0,0,0,0,1.77l5.91,9.34a1.75,1.75,0,0,0,1.47.81H116a.28.28,0,0,1,0,.56Z"/><path class="cls-6" d="M127.9,80.72h-7.28a.28.28,0,0,1,0-.56h7.28a1.75,1.75,0,0,0,1.48-2.68l-5.21-8.22a.28.28,0,0,1,.48-.3l5.21,8.22a2.3,2.3,0,0,1,.07,2.35A2.27,2.27,0,0,1,127.9,80.72Z"/><path class="cls-6" d="M143,58.75H121.74a3.91,3.91,0,0,1-3.3-1.81l-2.72-4.73a3.9,3.9,0,0,1,3.3-6h25.12a3.88,3.88,0,0,1,3.3,1.82l2.73,4.72a3.87,3.87,0,0,1,.25,3.7.29.29,0,0,1-.38.14.3.3,0,0,1-.14-.38,3.29,3.29,0,0,0-.22-3.16L147,48.33a3.31,3.31,0,0,0-2.81-1.54H119a3.34,3.34,0,0,0-2.82,5.12l2.73,4.73a3.31,3.31,0,0,0,2.81,1.54H143a.28.28,0,0,1,.28.29A.27.27,0,0,1,143,58.75Z"/><path class="cls-6" d="M152.65,70.56c-.14,0-.53-.2-2.2-.64a9,9,0,0,1-5.15-3.53l-.38-.45c-.3-.34-.66-.67-1-1-.86-.8-1.67-1.55-1.66-2.45a1.83,1.83,0,0,1,.72-1.36,1.72,1.72,0,0,1,1.2-.42c1.32.08,2.75,1.53,3.3,2.15a12.07,12.07,0,0,0,1.29,1.3c-.47-.61-1.44-1.58-2.14-2.29l-.61-.61a31.9,31.9,0,0,0-3-2.46,21.58,21.58,0,0,1-2.33-1.87,1.71,1.71,0,0,1,.05-2,1.88,1.88,0,0,1,2-1c1.39.33,3.14,1.86,4.09,2.68l.36.31a2.54,2.54,0,0,1,1.4-.75,4,4,0,0,1,3,.39,2.26,2.26,0,0,1,1.58-.33,7.67,7.67,0,0,1,1.36.42.28.28,0,0,1,.15.37.29.29,0,0,1-.37.15,7.72,7.72,0,0,0-1.24-.38,1.77,1.77,0,0,0-1.31.34.29.29,0,0,1-.38,0s-.75-.7-2.65-.38a1.92,1.92,0,0,0-1.08.57c-.15.14-.37.35-.62.18-.09-.06-.28-.22-.54-.44-.84-.74-2.59-2.26-3.85-2.56a1.31,1.31,0,0,0-1.4.71,1.2,1.2,0,0,0-.1,1.3,22,22,0,0,0,2.24,1.79,31.57,31.57,0,0,1,3.11,2.52l.61.61c1.57,1.58,2.53,2.57,2.59,3.1a.39.39,0,0,1-.21.45c-.14.07-.56.26-2.36-1.78a5.16,5.16,0,0,0-2.9-2,1,1,0,0,0-.79.27,1.35,1.35,0,0,0-.54.94c0,.65.72,1.32,1.49,2,.36.34.73.69,1,1l.39.46a8.51,8.51,0,0,0,4.85,3.34,16.31,16.31,0,0,1,2.19.65.28.28,0,0,1,.13.38A.29.29,0,0,1,152.65,70.56Z"/><path class="cls-6" d="M150.83,61.11a27.1,27.1,0,0,0-3.9-3.58.29.29,0,0,1-.05-.4.28.28,0,0,1,.4-.05,22.42,22.42,0,0,1,3.79,3.59.29.29,0,0,1-.08.39A.25.25,0,0,1,150.83,61.11Z"/><path class="cls-6" d="M154.16,59.55a29.54,29.54,0,0,0-2.83-2.35.3.3,0,0,1-.06-.4.28.28,0,0,1,.4-.06,20.66,20.66,0,0,1,2.7,2.33.28.28,0,0,1,0,.4A.32.32,0,0,1,154.16,59.55Z"/><path class="cls-6" d="M198.91,130.44h-139a.28.28,0,0,1,0-.56h139a.28.28,0,0,1,0,.56Z"/><path class="cls-6" d="M143.15,49.93h-21a.29.29,0,0,1,0-.57h21a.29.29,0,0,1,0,.57Z"/><path class="cls-6" d="M145.26,53.77h-21a.29.29,0,0,1,0-.57h21a.29.29,0,1,1,0,.57Z"/><path class="cls-6" d="M94.35,73.05h-21a.29.29,0,0,1,0-.57h21a.29.29,0,0,1,0,.57Z"/><path class="cls-6" d="M96.46,76.89h-21a.27.27,0,0,1-.28-.28.28.28,0,0,1,.28-.29h21a.29.29,0,0,1,.29.29A.28.28,0,0,1,96.46,76.89Z"/><path class="cls-6" d="M104.49,89.94h-21a.29.29,0,0,1,0-.57h21a.29.29,0,0,1,0,.57Z"/><path class="cls-6" d="M106.61,93.78h-21a.29.29,0,0,1,0-.57h21a.29.29,0,0,1,0,.57Z"/><path class="cls-6" d="M77.81,33.18H36.05a.29.29,0,0,1,0-.57H77.81a.29.29,0,0,1,0,.57Z"/><path class="cls-6" d="M82.38,40.52h-18a.29.29,0,1,1,0-.57h18a.29.29,0,0,1,0,.57Z"/><path class="cls-6" d="M86.19,46.38h-18a.29.29,0,0,1,0-.57h18a.29.29,0,0,1,0,.57Z"/><path class="cls-6" d="M89.79,52.25h-18a.29.29,0,1,1,0-.57h18a.29.29,0,1,1,0,.57Z"/><path class="cls-6" d="M164,71.05a7,7,0,0,1-1.24-.11c-2.47-.41-5.07-2.37-4.95-6.63a7.5,7.5,0,0,1,3.94-6.42.29.29,0,1,1,.24.52,6.78,6.78,0,0,0-3.61,5.91c-.14,4.91,3.39,5.88,4.47,6.06,3.28.56,4.51-1.34,4.56-1.42a.29.29,0,0,1,.39-.09.28.28,0,0,1,.1.39A4.5,4.5,0,0,1,164,71.05Z"/><path class="cls-6" d="M173.06,72.39a9.51,9.51,0,0,1-6.42-2.14.28.28,0,1,1,.4-.4,8.92,8.92,0,0,0,6.2,2,7.44,7.44,0,0,0,5.26-1.88,8.43,8.43,0,0,0,1.78-6.14,9.21,9.21,0,0,0-1-3.88,7.15,7.15,0,0,0-2-2.13,14,14,0,0,1-1.37-1.21,2.14,2.14,0,0,1-.68-1.28,4.23,4.23,0,0,1,.65-1.94c.17-.31.39-.74.39-.74a16,16,0,0,0,.81-1.73,8.88,8.88,0,0,0,.56-4.8c-.6-3.33-6.72-4.7-6.78-4.72-3-2.65-8.17-4.18-11.7-2.24-3.37,1.86-2.52,5.78-2.48,5.95s0,4.25,6.26,6.62a.28.28,0,0,1,.17.36.29.29,0,0,1-.37.17c-6.64-2.52-6.62-6.91-6.62-7.09,0,0-1-4.45,2.77-6.51s9.08-.49,12.16,2.21c.76.17,6.52,1.61,7.15,5.15a9.48,9.48,0,0,1-.59,5.1,17.21,17.21,0,0,1-.83,1.79l-.22.42a4.54,4.54,0,0,0-.76,2,1.63,1.63,0,0,0,.52.92,13.2,13.2,0,0,0,1.32,1.16,7.46,7.46,0,0,1,2.15,2.31,9.81,9.81,0,0,1,1,4.12c.07,1.6-.08,4.58-1.94,6.55a8,8,0,0,1-5.67,2.06Z"/><path class="cls-1" d="M75.19,30.49c-.6.51-1.67.22-2.38-.64a1.79,1.79,0,0,1-.19-2.46A1.79,1.79,0,0,1,75,28,1.79,1.79,0,0,1,75.19,30.49Z"/><path class="cls-6" d="M68.83,31A2.65,2.65,0,0,1,67,30a2.08,2.08,0,0,1-.16-2.86c.74-.61,2-.31,2.79.68a2.77,2.77,0,0,1,.65,1.52,1.5,1.5,0,0,1-.5,1.34A1.38,1.38,0,0,1,68.83,31Zm-1.12-3.59a.81.81,0,0,0-.55.18c-.47.39-.36,1.34.23,2.06a2.08,2.08,0,0,0,1.33.78.87.87,0,0,0,.66-.18,1,1,0,0,0,.3-.85,2.18,2.18,0,0,0-.53-1.21A2,2,0,0,0,67.71,27.43Z"/><path class="cls-6" d="M113.55,56.76a2.54,2.54,0,0,1-1.87-1,2.74,2.74,0,0,1-.66-1.53,1.43,1.43,0,0,1,1.91-1.58,2.9,2.9,0,0,1,2,2.44,1.5,1.5,0,0,1-.5,1.34A1.39,1.39,0,0,1,113.55,56.76Zm-1.12-3.59a.87.87,0,0,0-.55.18,1,1,0,0,0-.29.86,2.24,2.24,0,0,0,.52,1.2c.6.73,1.52,1,2,.61a1,1,0,0,0,.29-.86,2.17,2.17,0,0,0-.52-1.21,2.14,2.14,0,0,0-1.09-.73A1.1,1.1,0,0,0,112.43,53.17Z"/><path class="cls-6" d="M34.11,53.44a1.82,1.82,0,0,1-.5-.07,2.72,2.72,0,0,1-1.37-.92,2.08,2.08,0,0,1-.16-2.86c.74-.62,2-.32,2.79.68a2.77,2.77,0,0,1,.65,1.52,1.51,1.51,0,0,1-.5,1.34A1.38,1.38,0,0,1,34.11,53.44ZM33,49.84a.82.82,0,0,0-.54.18c-.48.4-.38,1.34.22,2.07a2.27,2.27,0,0,0,1.09.74.89.89,0,0,0,1.2-1,2.26,2.26,0,0,0-.53-1.2A2,2,0,0,0,33,49.84Z"/><path class="cls-6" d="M8,57.53a6,6,0,0,1-4.41-2.35A6.52,6.52,0,0,1,2,51.57a3.4,3.4,0,0,1,1.11-3A3.42,3.42,0,0,1,6.3,48a6.54,6.54,0,0,1,3.27,2.2c1.9,2.29,2.1,5.26.44,6.63A3.08,3.08,0,0,1,8,57.53ZM5.16,48.42A2.57,2.57,0,0,0,3.49,49a2.91,2.91,0,0,0-.91,2.54A6.09,6.09,0,0,0,4,54.82c1.7,2,4.23,2.76,5.64,1.59s1.18-3.79-.52-5.84a6,6,0,0,0-3-2A4.08,4.08,0,0,0,5.16,48.42Z"/><path class="cls-6" d="M89.24,12.67a6,6,0,0,1-4.42-2.35c-1.9-2.29-2.1-5.26-.45-6.63s4.54-.63,6.44,1.66,2.1,5.26.45,6.63A3.1,3.1,0,0,1,89.24,12.67ZM86.41,3.56a2.58,2.58,0,0,0-1.68.56c-1.41,1.17-1.17,3.79.53,5.84s4.23,2.75,5.64,1.59,1.17-3.79-.53-5.84A5.46,5.46,0,0,0,86.41,3.56Z"/><path class="cls-6" d="M53.91,111.22a2.87,2.87,0,0,1-2.53-2.52,1.52,1.52,0,0,1,.5-1.34,2.08,2.08,0,0,1,2.79.68,2.64,2.64,0,0,1,.65,1.86,1.43,1.43,0,0,1-.5,1A1.38,1.38,0,0,1,53.91,111.22Zm-1.12-3.6a.81.81,0,0,0-.55.18,1,1,0,0,0-.29.85,2.24,2.24,0,0,0,.52,1.21,2.05,2.05,0,0,0,1.33.78.9.9,0,0,0,.66-.17.89.89,0,0,0,.29-.62,2.05,2.05,0,0,0-.52-1.45A2,2,0,0,0,52.79,107.62Z"/><path class="cls-6" d="M103.07,78a2.56,2.56,0,0,1-1.87-1,2.77,2.77,0,0,1-.65-1.53,1.51,1.51,0,0,1,.5-1.34c.73-.61,2-.31,2.78.68a2.78,2.78,0,0,1,.66,1.53,1.53,1.53,0,0,1-.5,1.33A1.4,1.4,0,0,1,103.07,78ZM102,74.43a.87.87,0,0,0-.55.18,1,1,0,0,0-.3.86,2.18,2.18,0,0,0,.53,1.2c.6.73,1.51,1,2,.61a1,1,0,0,0,.3-.86,2.24,2.24,0,0,0-.52-1.21A2.06,2.06,0,0,0,102,74.43Z"/><path class="cls-6" d="M63.34,31a2.2,2.2,0,0,1-.5-.06A2.79,2.79,0,0,1,61.46,30a2.64,2.64,0,0,1-.65-1.86,1.43,1.43,0,0,1,.5-1,1.5,1.5,0,0,1,1.4-.24,2.71,2.71,0,0,1,1.38.92,2.65,2.65,0,0,1,.66,1.86,1.43,1.43,0,0,1-.5,1A1.39,1.39,0,0,1,63.34,31Zm-1.12-3.6a.83.83,0,0,0-.55.19.91.91,0,0,0-.3.61,2.11,2.11,0,0,0,.53,1.45,2.22,2.22,0,0,0,1.09.74,1,1,0,0,0,.89-.14.87.87,0,0,0,.3-.61,2.1,2.1,0,0,0-.52-1.45,2.27,2.27,0,0,0-1.09-.74A1.48,1.48,0,0,0,62.22,27.42Z"/><path class="cls-6" d="M100.53,73.75a11.91,11.91,0,0,1-1.84-3,.28.28,0,0,1,.14-.37.29.29,0,0,1,.38.14,18.17,18.17,0,0,0,1.56,2.81.29.29,0,0,1-.08.4A.3.3,0,0,1,100.53,73.75Zm-2.67-5.94A10.67,10.67,0,0,1,97,64.33a.3.3,0,0,1,.26-.31.28.28,0,0,1,.31.26,19.1,19.1,0,0,0,.54,3.17.29.29,0,0,1-.21.35Zm-.47-6.48a.28.28,0,0,1-.28-.34,5.49,5.49,0,0,1,1.7-2.91.28.28,0,1,1,.39.41,4.89,4.89,0,0,0-1.53,2.62A.29.29,0,0,1,97.39,61.33Zm4.38-4.47c-.32-.32-.25-.48-.11-.54a18.65,18.65,0,0,1,3.18-1,.28.28,0,0,1,.34.21.29.29,0,0,1-.22.34,17.5,17.5,0,0,0-3.08,1Zm6.36-1.47a.28.28,0,0,1-.28-.25.29.29,0,0,1,.25-.32c1.51-.15,2.69-.17,3.13-.17s.46.13.46.29a.29.29,0,0,1-.29.28,32.44,32.44,0,0,0-3.24.17Z"/><path class="cls-6" d="M30.46,52.25H27.19a.29.29,0,0,1,0-.57h3.27a.29.29,0,0,1,0,.57Zm-6.54,0H20.66a.29.29,0,1,1,0-.57h3.26a.29.29,0,1,1,0,.57Zm-6.53,0H14.12a.29.29,0,0,1,0-.57h3.27a.29.29,0,0,1,0,.57Zm-6.54,0c-.45,0-.58-.13-.58-.29a.29.29,0,0,1,.28-.28c.46,0,.58.13.58.28A.28.28,0,0,1,10.85,52.25Z"/><path class="cls-6" d="M50,109.42H46.78a.29.29,0,0,1-.29-.29.28.28,0,0,1,.29-.28H50a.28.28,0,0,1,.29.28A.29.29,0,0,1,50,109.42Zm-6.53,0H41a.28.28,0,0,1-.28-.29.27.27,0,0,1,.28-.28h2.54a.27.27,0,0,1,.28.28A.28.28,0,0,1,43.51,109.42Z"/><path class="cls-6" d="M41,109.42a15,15,0,0,1-1.32-1.85.27.27,0,0,1,.09-.39.29.29,0,0,1,.39.09L41.21,109a.28.28,0,0,1-.09.39A.27.27,0,0,1,41,109.42Zm-2.83-4.48a33,33,0,0,1-2-2.89.28.28,0,0,1,.48-.3l1.75,2.76a.27.27,0,0,1-.09.39A.26.26,0,0,1,38.14,104.94Zm-3.49-5.52a33,33,0,0,1-2-2.89.27.27,0,0,1,.09-.39.28.28,0,0,1,.39.09L34.89,99a.29.29,0,0,1-.09.39A.28.28,0,0,1,34.65,99.42Zm-3.5-5.52a33,33,0,0,1-2-2.89.3.3,0,0,1,.09-.4.29.29,0,0,1,.39.09l1.75,2.76a.3.3,0,0,1-.09.4A.42.42,0,0,1,31.15,93.9Zm-3.5-5.52a34.39,34.39,0,0,1-2-2.9.27.27,0,0,1,.09-.39.29.29,0,0,1,.39.09l1.74,2.76a.28.28,0,0,1-.08.39A.3.3,0,0,1,27.65,88.38Zm-3.49-5.53a33,33,0,0,1-2-2.89.29.29,0,0,1,.09-.39.28.28,0,0,1,.39.09l1.75,2.76a.29.29,0,0,1-.09.39A.28.28,0,0,1,24.16,82.85Zm-3.5-5.52a32.79,32.79,0,0,1-2-2.89.29.29,0,0,1,.08-.4.3.3,0,0,1,.4.09l1.74,2.76a.29.29,0,0,1-.08.4A.29.29,0,0,1,20.66,77.33Zm-3.49-5.52a34.67,34.67,0,0,1-2-2.9.27.27,0,0,1,.09-.39.29.29,0,0,1,.39.09l1.75,2.76a.29.29,0,0,1-.09.39A.3.3,0,0,1,17.17,71.81Zm-3.5-5.53a33,33,0,0,1-2-2.89.29.29,0,0,1,.09-.39.28.28,0,0,1,.39.09l1.75,2.76a.28.28,0,0,1-.09.39A.26.26,0,0,1,13.67,66.28Zm-3.49-5.52a33,33,0,0,1-2-2.89.27.27,0,0,1,.09-.39.28.28,0,0,1,.39.08l1.75,2.77a.29.29,0,0,1-.09.39A.28.28,0,0,1,10.18,60.76Z"/><path class="cls-6" d="M73,109a3.79,3.79,0,0,1-2.81-1,2.07,2.07,0,0,1-.19-2L74.9,94.83a2.58,2.58,0,0,1,1.62-1.15A3.09,3.09,0,0,1,79,94.4l2.81,2.53a.27.27,0,0,1,0,.4.29.29,0,0,1-.4,0l-2.79-2.51a2.53,2.53,0,0,0-2-.6,2,2,0,0,0-1.22.85l-4.9,11.08a1.51,1.51,0,0,0,.12,1.43,3.36,3.36,0,0,0,2.5.79H89.38a.29.29,0,1,1,0,.57H73Z"/><path class="cls-6" d="M59.65,55.22c-.24-.13-12.2-19-12.2-19a.28.28,0,1,1,.48-.3l12,18.89a.28.28,0,0,1-.09.4A.37.37,0,0,1,59.65,55.22Z"/><path class="cls-6" d="M107.66,20.29c-6.19,0-11.81-2.72-16.77-8.12a.28.28,0,0,1,0-.4.28.28,0,0,1,.4,0c6,6.48,12.88,9,20.6,7.51a.29.29,0,0,1,.11.56A23.59,23.59,0,0,1,107.66,20.29Z"/><path class="cls-6" d="M154.54,33.14a4,4,0,0,1-2.89-1.52,4.27,4.27,0,0,1-1-2.35,2.14,2.14,0,0,1,2.85-2.37,4.28,4.28,0,0,1,2.12,1.43c1.25,1.49,1.37,3.45.28,4.35A2,2,0,0,1,154.54,33.14Zm-1.8-5.78a1.5,1.5,0,0,0-1,.34,1.73,1.73,0,0,0-.54,1.52,3.71,3.71,0,0,0,.88,2c1,1.26,2.58,1.7,3.43,1s.7-2.3-.34-3.56a3.74,3.74,0,0,0-1.84-1.24A2.18,2.18,0,0,0,152.74,27.36Z"/><path class="cls-6" d="M151.67,27.38c-6.23-6.76-12.94-9.26-20.73-7.75a.3.3,0,0,1-.34-.22.29.29,0,0,1,.23-.33c8-1.56,14.89,1,21,7.82a.29.29,0,0,1,0,.4A.31.31,0,0,1,151.67,27.38Z"/><path class="cls-6" d="M131.59,117.16c-.25-.08-.32-.25-.26-.39,1.46-3.54,5-5.73,9.29-5.73a9.84,9.84,0,0,1,9.2,5.55.28.28,0,1,1-.51.24,9.29,9.29,0,0,0-8.69-5.23c-4,0-7.4,2.06-8.77,5.38A.28.28,0,0,1,131.59,117.16Z"/></svg>