<?xml version="1.0" encoding="utf-8"?>
<!-- Generator: Adobe Illustrator 26.0.1, SVG Export Plug-In . SVG Version: 6.00 Build 0)  -->
<svg version="1.1" id="Layer_1" xmlns="http://www.w3.org/2000/svg" xmlns:xlink="http://www.w3.org/1999/xlink" x="0px" y="0px"
	 viewBox="0 0 100 100" style="enable-background:new 0 0 100 100;" xml:space="preserve">
<style type="text/css">
	.st0{fill:none;stroke:#A3C9A8;stroke-width:5;stroke-linecap:round;stroke-miterlimit:10;}
	.st1{fill:#875053;}
</style>
<g>
	<g>
		<path class="st0" d="M4.1,61.1c8.4,0.2,8.3,4.2,16.7,4.3c8.4,0.2,8.5-3.8,16.8-3.7c8.4,0.2,8.3,4.2,16.7,4.3
			c8.4,0.2,8.5-3.8,16.8-3.7s8.3,4.2,16.7,4.3"/>
	</g>
	<g>
		<path class="st0" d="M4.1,46.1c8.4,0.2,8.3,4.2,16.7,4.3c8.4,0.2,8.5-3.8,16.8-3.7c8.4,0.2,8.3,4.2,16.7,4.3
			c8.4,0.2,8.5-3.8,16.8-3.7s8.3,4.2,16.7,4.3"/>
	</g>
	<g>
		<path class="st0" d="M4.1,31.1c8.4,0.2,8.3,4.2,16.7,4.3c8.4,0.2,8.5-3.8,16.8-3.7c8.4,0.2,8.3,4.2,16.7,4.3
			c8.4,0.2,8.5-3.8,16.8-3.7s8.3,4.2,16.7,4.3"/>
	</g>
	<g>
		<path class="st0" d="M4.1,16.1c8.4,0.2,8.3,4.2,16.7,4.3c8.4,0.2,8.5-3.8,16.8-3.7c8.4,0.2,8.3,4.2,16.7,4.3
			c8.4,0.2,8.5-3.8,16.8-3.7c8.4,0.2,8.3,4.2,16.7,4.3"/>
	</g>
</g>
<path class="st1" d="M63.4,24.2c9.5,0,19.1,0,28.6,0c1.3,0,2.6,0.2,3.9,0.6c2.6,0.9,4,3.7,3.2,6.3c0,0,0,0,0,0
	c-0.4,1.2-0.9,2.3-1.6,3.3c-7.1,10.4-14.2,20.8-21.3,31.1c-0.4,0.6-0.6,1.3-0.6,2c0,8.8,0,17.7,0,26.5c0,0.8-0.1,1.6-0.3,2.3
	c-0.5,1.9-2.5,3.1-4.4,2.6c-0.2-0.1-0.4-0.1-0.6-0.2c-0.7-0.3-1.4-0.7-2-1.2c-4.9-3.6-9.7-7.2-14.5-10.7c-1.7-1.2-2.7-3.1-2.7-5.2
	c0-4.6,0-9.1,0.1-13.7c0-1-0.3-2-0.9-2.8c-7-10.2-14-20.5-21-30.8c-0.5-0.8-1-1.6-1.3-2.5c-1.2-2.7,0-5.9,2.7-7.1
	c0.5-0.2,1-0.4,1.5-0.4c0.8-0.2,1.6-0.2,2.3-0.2C44.1,24.2,53.7,24.2,63.4,24.2z M71.5,95c0-0.5,0.1-0.8,0.1-1.2
	c0-8.9,0-17.7,0-26.6c0-1.3,0.4-2.6,1.2-3.7C79.8,53.1,87,42.7,94.1,32.2c0.4-0.6,0.7-1.2,1-1.9c0.3-0.6,0.1-1.4-0.5-1.7
	c-0.1-0.1-0.3-0.1-0.4-0.1c-0.6-0.2-1.2-0.3-1.8-0.3c-19.3,0-38.7,0-58,0c-0.6,0-1.2,0.1-1.8,0.3c-0.7,0.1-1.2,0.7-1.1,1.4
	c0,0.2,0.1,0.3,0.1,0.5c0.2,0.7,0.6,1.3,1,1.9C39.6,42.7,46.8,53.2,54,63.7c0.7,1,1.1,2.2,1.1,3.4c0,4.8,0,9.6,0,14.4
	c-0.1,0.9,0.4,1.8,1.2,2.3c4.7,3.4,9.4,6.9,14.1,10.4L71.5,95z"/>
</svg>
