<?xml version="1.0" encoding="utf-8"?>
<!-- Generator: Adobe Illustrator 26.0.1, SVG Export Plug-In . SVG Version: 6.00 Build 0)  -->
<svg version="1.1" id="Layer_1" xmlns="http://www.w3.org/2000/svg" xmlns:xlink="http://www.w3.org/1999/xlink" x="0px" y="0px"
	 viewBox="0 0 1000 301.4" style="enable-background:new 0 0 1000 301.4;" xml:space="preserve">
<style type="text/css">
	.st0{fill:#31C3E9;}
	.st1{fill:#F9A342;}
	.st2{fill:#F05E6B;}
	.st3{fill:#606161;}
	.st4{fill:none;stroke:#FFFFFF;stroke-width:2.1733;stroke-linecap:round;stroke-miterlimit:10;}
	.st5{fill:#E2CFBF;}
	.st6{fill:none;stroke:#21BACC;stroke-width:0.128;stroke-miterlimit:10;}
	.st7{fill:none;stroke:#21BACC;stroke-width:0.1273;stroke-miterlimit:10;}
	.st8{fill:none;}
	.st9{fill:none;stroke:#25BBCC;stroke-width:0.2017;stroke-miterlimit:10;}
	.st10{fill:none;stroke:#25BBCC;stroke-width:0.2017;stroke-miterlimit:9.9997;}
	.st11{opacity:0.5;}
	.st12{fill:#41416C;}
	.st13{opacity:0.5;fill:#EE3767;stroke:#EE3767;stroke-width:0.1345;stroke-miterlimit:10;enable-background:new    ;}
	.st14{opacity:0.5;fill:#41416C;enable-background:new    ;}
	.st15{opacity:0.5;fill:#EE3767;enable-background:new    ;}
	.st16{fill:#231F20;}
</style>
<g>
	<g>
		<g>
			<path class="st0" d="M601.7,91.7c-1.5-5.5-3.7-10.7-6.6-15.5c-2.8-4.8-6.2-9.2-10.1-13.1c-3.9-4-8.3-7.4-13.1-10.2
				s-10-5-15.5-6.6C550.7,44.8,545,44,539,44h-1.8v26h1.8c5.4,0,10.4,1,15.2,3.1c4.7,2,8.9,4.8,12.4,8.4c3.5,3.5,6.3,7.7,8.3,12.4
				c2,4.7,3,9.8,3,15.1c0,5.4-1,10.4-3,15.2c-2,4.7-4.8,8.9-8.3,12.4s-7.7,6.3-12.4,8.3s-9.8,3-15.2,3h-13v-29.7h-26.2V174H539
				c6,0,11.7-0.8,17.3-2.3c5.5-1.5,10.7-3.7,15.5-6.6c4.8-2.8,9.2-6.2,13.1-10.2c3.9-4,7.3-8.3,10.1-13.1s5-10,6.6-15.5
				c1.5-5.5,2.3-11.3,2.3-17.3C604,103,603.2,97.3,601.7,91.7z"/>
		</g>
	</g>
	<g>
		<g>
			<path class="st1" d="M449.7,148c-5.4,0-10.4-1-15.2-3c-4.7-2-8.9-4.8-12.4-8.3s-6.3-7.7-8.3-12.4c-2-4.8-3-9.8-3-15.2
				c0-5.4,1-10.4,3-15.1s4.8-8.8,8.3-12.4c3.5-3.5,7.7-6.3,12.4-8.4c4.7-2.1,9.8-3.1,15.2-3.1h1.8V44h-1.8c-6,0-11.7,0.8-17.3,2.3
				c-5.5,1.5-10.7,3.7-15.5,6.6c-4.8,2.8-9.2,6.2-13.1,10.2s-7.3,8.3-10.1,13.1c-2.8,4.8-5,10-6.6,15.5c-1.5,5.5-2.3,11.3-2.3,17.3
				s0.8,11.7,2.3,17.3c1.5,5.5,3.7,10.7,6.6,15.5c2.8,4.8,6.2,9.2,10.1,13.1c3.9,4,8.3,7.4,13.1,10.2c4.8,2.8,10,5,15.5,6.6
				c5.5,1.5,11.3,2.3,17.3,2.3h39.1v-26L449.7,148L449.7,148z"/>
		</g>
	</g>
	<polygon class="st2" points="526.2,44 526.2,106.7 499.9,106.7 499.9,69.8 462.7,69.8 462.7,44 	"/>
	<g>
		<g>
			<path class="st3" d="M391.9,225c-1.3,1.1-2.7,1.9-4.2,2.5c-1.6,0.6-3.2,0.9-4.8,0.9c-1.3,0-2.5-0.2-3.7-0.5s-2.3-0.8-3.3-1.4
				c-1-0.6-2-1.3-2.8-2.2c-0.9-0.9-1.6-1.8-2.2-2.8s-1.1-2.1-1.4-3.3s-0.5-2.4-0.5-3.7s0.2-2.5,0.5-3.7s0.8-2.3,1.4-3.3
				s1.3-2,2.2-2.8s1.8-1.6,2.8-2.2c1-0.6,2.1-1.1,3.3-1.4c1.2-0.3,2.4-0.5,3.7-0.5c1.7,0,3.3,0.3,4.8,0.9c1.6,0.6,3,1.4,4.2,2.5
				l-2.9,4.7c-0.8-0.9-1.7-1.5-2.8-2c-1.1-0.5-2.2-0.7-3.4-0.7c-1.2,0-2.3,0.2-3.4,0.7s-2,1.1-2.7,1.8c-0.8,0.8-1.4,1.7-1.8,2.7
				s-0.7,2.2-0.7,3.3c0,1.2,0.2,2.3,0.7,3.3s1.1,1.9,1.8,2.7s1.7,1.4,2.7,1.8c1,0.5,2.2,0.7,3.4,0.7c1.2,0,2.3-0.2,3.4-0.7
				s2-1.1,2.8-2L391.9,225z"/>
			<path class="st3" d="M403.4,227.8H398v-27h10.8c1,0,1.9,0.1,2.9,0.4c0.9,0.3,1.8,0.6,2.6,1.1c0.8,0.5,1.5,1,2.2,1.7
				s1.2,1.4,1.7,2.2s0.8,1.7,1.1,2.6c0.3,0.9,0.4,1.9,0.4,2.9c0,0.9-0.1,1.8-0.3,2.7c-0.2,0.9-0.6,1.7-1,2.5s-1,1.5-1.6,2.2
				s-1.3,1.2-2.1,1.7l3,7.1H412l-2.4-5.4h-6v5.3H403.4z M403.4,206.2V217h5.4c0.7,0,1.4-0.1,2.1-0.4c0.7-0.3,1.2-0.7,1.7-1.2
				s0.9-1.1,1.2-1.7c0.3-0.7,0.4-1.4,0.4-2.1c0-0.7-0.1-1.4-0.4-2.1c-0.3-0.7-0.7-1.2-1.2-1.7s-1.1-0.9-1.7-1.2
				c-0.7-0.3-1.3-0.4-2.1-0.4L403.4,206.2L403.4,206.2z"/>
			<path class="st3" d="M452.8,227.8h-5.4v-19.3c0-0.4-0.1-0.7-0.2-1.1c-0.1-0.3-0.3-0.6-0.6-0.9c-0.2-0.2-0.5-0.4-0.9-0.6
				c-0.3-0.1-0.7-0.2-1.1-0.2s-0.7,0.1-1.1,0.2c-0.3,0.1-0.6,0.3-0.9,0.6c-0.2,0.2-0.4,0.5-0.6,0.9c-0.1,0.3-0.2,0.7-0.2,1.1v19.3
				h-5.4v-19.3c0-0.4-0.1-0.7-0.2-1.1c-0.1-0.3-0.3-0.6-0.6-0.9c-0.2-0.2-0.5-0.4-0.9-0.6c-0.3-0.1-0.7-0.2-1.1-0.2
				s-0.7,0.1-1.1,0.2c-0.3,0.1-0.6,0.3-0.9,0.6c-0.2,0.2-0.4,0.5-0.6,0.9c-0.1,0.3-0.2,0.7-0.2,1.1v19.3h-5.4v-19.3
				c0-1.1,0.2-2.2,0.6-3.2s1-1.8,1.7-2.6s1.6-1.3,2.6-1.7s2-0.6,3.2-0.6c1,0,2,0.2,2.9,0.5c0.9,0.4,1.8,0.9,2.5,1.6
				c0.7-0.7,1.6-1.2,2.5-1.6s1.9-0.5,2.9-0.5c1.1,0,2.2,0.2,3.2,0.6c1,0.4,1.8,1,2.6,1.7s1.3,1.6,1.7,2.6s0.6,2,0.6,3.2v19.3H452.8z
				"/>
			<path class="st3" d="M482.1,225c-1.3,1.1-2.7,1.9-4.2,2.5c-1.6,0.6-3.2,0.9-4.8,0.9c-1.3,0-2.5-0.2-3.7-0.5s-2.3-0.8-3.3-1.4
				c-1-0.6-2-1.3-2.8-2.2c-0.9-0.9-1.6-1.8-2.2-2.8s-1.1-2.1-1.4-3.3s-0.5-2.4-0.5-3.7s0.2-2.5,0.5-3.7s0.8-2.3,1.4-3.3
				s1.3-2,2.2-2.8s1.8-1.6,2.8-2.2c1-0.6,2.1-1.1,3.3-1.4c1.2-0.3,2.4-0.5,3.7-0.5c1.7,0,3.3,0.3,4.8,0.9c1.6,0.6,3,1.4,4.2,2.5
				l-2.9,4.7c-0.8-0.9-1.7-1.5-2.8-2c-1.1-0.5-2.2-0.7-3.4-0.7c-1.2,0-2.3,0.2-3.4,0.7s-2,1.1-2.7,1.8c-0.8,0.8-1.4,1.7-1.8,2.7
				s-0.7,2.2-0.7,3.3c0,1.2,0.2,2.3,0.7,3.3s1.1,1.9,1.8,2.7s1.7,1.4,2.7,1.8c1,0.5,2.2,0.7,3.4,0.7c1.2,0,2.3-0.2,3.4-0.7
				s2-1.1,2.8-2L482.1,225z"/>
			<path class="st3" d="M523.5,214.3c0,1.2-0.2,2.4-0.5,3.6s-0.8,2.2-1.4,3.2s-1.3,1.9-2.1,2.7s-1.7,1.5-2.7,2.1s-2.1,1-3.2,1.4
				c-1.1,0.3-2.3,0.5-3.6,0.5h-8.1v-27h8.1c1.2,0,2.4,0.2,3.6,0.5s2.2,0.8,3.2,1.4c1,0.6,1.9,1.3,2.7,2.1s1.5,1.7,2.1,2.7
				s1,2.1,1.4,3.2C523.4,211.9,523.5,213.1,523.5,214.3z M518.1,214.3c0-1.1-0.2-2.2-0.6-3.1c-0.4-1-1-1.8-1.7-2.6s-1.6-1.3-2.6-1.7
				s-2-0.6-3.2-0.6h-2.7v16.2h2.7c1.1,0,2.2-0.2,3.2-0.6s1.8-1,2.6-1.7s1.3-1.6,1.7-2.6C517.9,216.5,518.1,215.4,518.1,214.3z"/>
			<path class="st3" d="M528.5,208.9c0-1.1,0.2-2.2,0.6-3.1c0.4-1,1-1.8,1.7-2.6s1.6-1.3,2.6-1.7s2-0.6,3.1-0.6H549v5.4h-12.4
				c-0.4,0-0.7,0.1-1.1,0.2c-0.3,0.1-0.6,0.3-0.9,0.6c-0.2,0.2-0.4,0.5-0.6,0.9c-0.1,0.3-0.2,0.7-0.2,1.1c0,0.4,0.1,0.7,0.2,1.1
				c0.1,0.3,0.3,0.6,0.6,0.9s0.5,0.4,0.9,0.6c0.3,0.1,0.7,0.2,1.1,0.2h5.4c1.1,0,2.2,0.2,3.2,0.6c1,0.4,1.8,1,2.6,1.7
				s1.3,1.6,1.7,2.6s0.6,2,0.6,3.2s-0.2,2.2-0.6,3.1c-0.4,1-1,1.8-1.7,2.6s-1.6,1.3-2.6,1.7s-2,0.6-3.2,0.6h-12v-5.4h12
				c0.4,0,0.7-0.1,1.1-0.2s0.6-0.3,0.9-0.6c0.2-0.2,0.4-0.5,0.6-0.9c0.1-0.3,0.2-0.7,0.2-1.1c0-0.4-0.1-0.7-0.2-1.1
				c-0.1-0.3-0.3-0.6-0.6-0.9c-0.2-0.2-0.5-0.4-0.9-0.6c-0.3-0.1-0.7-0.2-1.1-0.2h-5.4c-1.1,0-2.2-0.2-3.1-0.6s-1.8-1-2.6-1.7
				s-1.3-1.6-1.7-2.6C528.7,211.1,528.5,210,528.5,208.9z"/>
			<path class="st3" d="M578,225.1c-1.3,1.1-2.7,1.9-4.2,2.5s-3.2,0.9-4.8,0.9c-1.3,0-2.5-0.2-3.7-0.5s-2.3-0.8-3.3-1.4
				c-1-0.6-2-1.3-2.8-2.2c-0.9-0.8-1.6-1.8-2.2-2.8c-0.6-1-1.1-2.2-1.4-3.3c-0.3-1.2-0.5-2.4-0.5-3.7s0.2-2.5,0.5-3.7
				s0.8-2.3,1.4-3.3c0.6-1,1.3-2,2.2-2.8s1.8-1.6,2.8-2.2s2.1-1.1,3.3-1.4c1.2-0.3,2.4-0.5,3.7-0.5c1.7,0,3.3,0.3,4.8,0.9
				s2.9,1.4,4.2,2.5l-2.8,4.7c-0.8-0.8-1.8-1.5-2.8-1.9c-1.1-0.5-2.2-0.7-3.4-0.7s-2.3,0.2-3.3,0.7s-1.9,1.1-2.7,1.8
				c-0.8,0.8-1.4,1.7-1.8,2.7s-0.7,2.1-0.7,3.3s0.2,2.3,0.7,3.4s1.1,2,1.8,2.7c0.8,0.8,1.7,1.4,2.7,1.8c1,0.5,2.1,0.7,3.3,0.7
				c0.7,0,1.3-0.1,2-0.2s1.2-0.4,1.8-0.7v-7.7h5.2V225.1z"/>
			<path class="st3" d="M606.7,227.8h-5.8L590.5,210v17.8h-5.4v-27h5.8l10.4,17.8v-17.8h5.4V227.8z"/>
		</g>
	</g>
	<g>
		<path class="st3" d="M412.5,240.6c1.9,0,3.3,0.6,4.5,1.7s1.7,2.6,1.7,4.4v1.9c0,1.8-0.6,3.3-1.7,4.4s-2.6,1.7-4.5,1.7h-5.9v-1.2
			l1.6-0.3V242l-1.6-0.3v-1.2h1.6h4.3V240.6z M410.1,242.1v11.2h2.4c1.3,0,2.3-0.4,3.1-1.3c0.8-0.9,1.1-2,1.1-3.3v-2
			c0-1.3-0.4-2.4-1.1-3.3c-0.8-0.9-1.8-1.3-3.1-1.3L410.1,242.1L410.1,242.1z"/>
		<path class="st3" d="M425.4,255c-1.5,0-2.6-0.5-3.5-1.5s-1.3-2.2-1.3-3.8v-0.4c0-1.5,0.4-2.7,1.3-3.7s2-1.5,3.2-1.5
			c1.4,0,2.5,0.4,3.2,1.3c0.7,0.9,1.1,2,1.1,3.4v1.2h-6.8l0,0c0,1,0.3,1.8,0.8,2.5s1.2,1,2.1,1c0.6,0,1.2-0.1,1.7-0.3
			s0.9-0.4,1.3-0.8l0.8,1.2c-0.4,0.4-0.9,0.7-1.5,0.9S426.3,255,425.4,255z M425.1,245.6c-0.6,0-1.2,0.3-1.6,0.8
			c-0.5,0.5-0.7,1.2-0.8,2l0,0h4.9v-0.3c0-0.8-0.2-1.4-0.6-1.9C426.5,245.8,425.9,245.6,425.1,245.6z"/>
		<path class="st3" d="M439.4,247.6H438l-0.3-1.3c-0.2-0.2-0.5-0.4-0.9-0.5s-0.8-0.2-1.2-0.2c-0.7,0-1.2,0.1-1.5,0.4
			c-0.3,0.3-0.5,0.7-0.5,1.1c0,0.4,0.1,0.7,0.4,1c0.3,0.2,0.9,0.5,1.8,0.6c1.3,0.3,2.3,0.7,3,1.2s1,1.1,1,2s-0.4,1.7-1.1,2.3
			c-0.8,0.6-1.7,0.9-3,0.9c-0.8,0-1.5-0.1-2.2-0.3c-0.6-0.2-1.2-0.5-1.7-0.8v-2.4h1.4l0.4,1.4c0.2,0.2,0.5,0.3,0.9,0.4
			c0.4,0.1,0.8,0.1,1.2,0.1c0.7,0,1.2-0.1,1.6-0.4s0.6-0.6,0.6-1.1c0-0.4-0.2-0.8-0.5-1c-0.3-0.3-0.9-0.5-1.8-0.7
			c-1.3-0.3-2.2-0.7-2.9-1.1c-0.6-0.5-1-1.1-1-1.9c0-0.9,0.4-1.6,1.1-2.2c0.7-0.6,1.7-0.9,2.8-0.9c0.8,0,1.5,0.1,2.2,0.3
			c0.6,0.2,1.2,0.5,1.6,0.9V247.6z"/>
		<path class="st3" d="M441.5,253.6l1.6-0.3v-7.5l-1.6-0.3v-1.2h3.5v9l1.6,0.3v1.2h-5.1V253.6z M445,241.6h-1.9v-2h1.9V241.6z"/>
		<path class="st3" d="M448,249.7c0-1.7,0.4-3.1,1.1-4.1s1.8-1.6,3.1-1.6c0.7,0,1.2,0.1,1.7,0.4s0.9,0.6,1.3,1.1l0.2-1.3h1.6v10.4
			c0,1.4-0.4,2.4-1.1,3.2c-0.8,0.8-1.8,1.2-3.2,1.2c-0.5,0-1.1-0.1-1.6-0.2s-1.1-0.3-1.6-0.6l0.5-1.5c0.4,0.2,0.8,0.3,1.3,0.5
			c0.5,0.1,1,0.2,1.4,0.2c0.9,0,1.5-0.2,1.9-0.7s0.6-1.2,0.6-2.1v-1c-0.3,0.4-0.8,0.8-1.2,1c-0.5,0.2-1,0.3-1.7,0.3
			c-1.3,0-2.3-0.5-3-1.4s-1.1-2.2-1.1-3.7v-0.1H448z M450,249.9c0,1.1,0.2,1.9,0.7,2.6c0.4,0.6,1.1,1,2,1c0.6,0,1.1-0.1,1.5-0.4
			c0.4-0.3,0.7-0.6,1-1.1v-4.9c-0.2-0.4-0.6-0.8-1-1.1s-0.9-0.4-1.4-0.4c-0.9,0-1.6,0.4-2.1,1.1c-0.5,0.8-0.7,1.8-0.7,3V249.9z"/>
		<path class="st3" d="M459,253.6l1.6-0.3v-7.5l-1.6-0.3v-1.2h3.3l0.1,1.6c0.4-0.6,0.8-1,1.3-1.3s1.1-0.5,1.8-0.5c1.1,0,2,0.3,2.6,1
			s0.9,1.7,0.9,3.1v5.2l1.6,0.3v1.2h-5.1v-1.2l1.6-0.3v-5.1c0-0.9-0.2-1.6-0.6-2s-0.9-0.6-1.7-0.6c-0.6,0-1,0.1-1.5,0.4
			c-0.4,0.3-0.8,0.6-1,1.1v6.2l1.6,0.3v1.2H459V253.6z"/>
		<path class="st3" d="M480.2,247.6h-1.4l-0.3-1.3c-0.2-0.2-0.5-0.4-0.9-0.5s-0.8-0.2-1.2-0.2c-0.7,0-1.2,0.1-1.5,0.4
			c-0.3,0.3-0.5,0.7-0.5,1.1c0,0.4,0.1,0.7,0.4,1c0.3,0.2,0.9,0.5,1.8,0.6c1.3,0.3,2.3,0.7,3,1.2s1,1.1,1,2s-0.4,1.7-1.1,2.3
			c-0.8,0.6-1.7,0.9-3,0.9c-0.8,0-1.5-0.1-2.2-0.3c-0.6-0.2-1.2-0.5-1.7-0.8v-2.4h1.4l0.4,1.4c0.2,0.2,0.5,0.3,0.9,0.4
			c0.4,0.1,0.8,0.1,1.2,0.1c0.7,0,1.2-0.1,1.6-0.4s0.6-0.6,0.6-1.1c0-0.4-0.2-0.8-0.5-1c-0.3-0.3-0.9-0.5-1.8-0.7
			c-1.3-0.3-2.2-0.7-2.9-1.1c-0.6-0.5-1-1.1-1-1.9c0-0.9,0.4-1.6,1.1-2.2c0.7-0.6,1.7-0.9,2.8-0.9c0.8,0,1.5,0.1,2.2,0.3
			c0.6,0.2,1.2,0.5,1.6,0.9V247.6z"/>
		<path class="st3" d="M490.6,241.7v2.5h2v1.4h-2v6.4c0,0.5,0.1,0.8,0.3,1c0.2,0.2,0.5,0.3,0.8,0.3c0.2,0,0.4,0,0.6,0
			s0.4-0.1,0.5-0.1l0.3,1.3c-0.2,0.1-0.4,0.2-0.8,0.3s-0.7,0.1-1.1,0.1c-0.8,0-1.4-0.2-1.9-0.7s-0.7-1.2-0.7-2.2v-6.4h-1.7v-1.4h1.7
			v-2.5L490.6,241.7L490.6,241.7z"/>
		<path class="st3" d="M494.3,253.6l1.6-0.3v-12.2l-1.6-0.3v-1.2h3.5v6.1c0.4-0.5,0.8-0.9,1.3-1.2s1.1-0.4,1.8-0.4
			c1.1,0,2,0.3,2.6,1s0.9,1.7,0.9,3.1v5.1l1.6,0.3v1.2h-5v-1.2l1.6-0.3v-5.1c0-0.9-0.2-1.5-0.6-1.9s-0.9-0.6-1.7-0.6
			c-0.5,0-1,0.1-1.4,0.4c-0.4,0.2-0.8,0.6-1.1,1v6.3l1.6,0.3v1.2h-5.1V253.6z"/>
		<path class="st3" d="M514.4,254.8c-0.1-0.3-0.1-0.5-0.1-0.8c0-0.2-0.1-0.5-0.1-0.7c-0.4,0.5-0.8,0.9-1.4,1.2
			c-0.6,0.3-1.1,0.5-1.8,0.5c-1.1,0-1.9-0.3-2.5-0.8s-0.9-1.3-0.9-2.3s0.4-1.8,1.2-2.3c0.8-0.5,1.9-0.8,3.3-0.8h2v-1.2
			c0-0.6-0.2-1.1-0.6-1.5s-0.9-0.5-1.6-0.5c-0.5,0-0.9,0.1-1.3,0.2c-0.4,0.1-0.7,0.3-0.9,0.5l-0.2,1.1H508v-2
			c0.5-0.4,1.1-0.7,1.7-0.9c0.7-0.2,1.4-0.3,2.2-0.3c1.2,0,2.2,0.3,2.9,0.9c0.7,0.6,1.1,1.5,1.1,2.6v5.1c0,0.1,0,0.3,0,0.4
			c0,0.1,0,0.3,0,0.4l0.8,0.1v1.2L514.4,254.8L514.4,254.8z M511.3,253.4c0.6,0,1.2-0.2,1.7-0.5s0.9-0.7,1.1-1.1v-1.7h-2
			c-0.8,0-1.4,0.2-1.9,0.5s-0.7,0.8-0.7,1.3s0.1,0.8,0.4,1.1C510.3,253.3,510.7,253.4,511.3,253.4z"/>
		<path class="st3" d="M521.8,241.7v2.5h2v1.4h-2v6.4c0,0.5,0.1,0.8,0.3,1s0.5,0.3,0.8,0.3c0.2,0,0.4,0,0.6,0s0.4-0.1,0.5-0.1
			l0.3,1.3c-0.2,0.1-0.4,0.2-0.8,0.3c-0.4,0.1-0.7,0.1-1.1,0.1c-0.8,0-1.4-0.2-1.9-0.7s-0.7-1.2-0.7-2.2v-6.4h-1.7v-1.4h1.7v-2.5
			L521.8,241.7L521.8,241.7z"/>
		<path class="st3" d="M535.5,253.5c0.6,0,1.2-0.2,1.7-0.6c0.5-0.4,0.7-0.9,0.7-1.4h1.7v0.1c0,0.9-0.4,1.7-1.2,2.4s-1.8,1.1-2.9,1.1
			c-1.5,0-2.7-0.5-3.5-1.5s-1.2-2.3-1.2-3.8v-0.4c0-1.5,0.4-2.8,1.2-3.8s2-1.5,3.5-1.5c0.8,0,1.6,0.1,2.3,0.4
			c0.7,0.3,1.2,0.7,1.7,1.1l0.1,2.3H538l-0.4-1.7c-0.2-0.2-0.5-0.4-0.9-0.5s-0.8-0.2-1.2-0.2c-1,0-1.7,0.4-2.2,1.1
			c-0.4,0.7-0.6,1.6-0.6,2.7v0.4c0,1.1,0.2,2,0.6,2.7S534.5,253.5,535.5,253.5z"/>
		<path class="st3" d="M541.2,240.8v-1.2h3.5v13.7l1.6,0.3v1.2h-5.1v-1.2l1.6-0.3v-12.2L541.2,240.8z"/>
		<path class="st3" d="M547.8,253.6l1.6-0.3v-7.5l-1.6-0.3v-1.2h3.5v9l1.6,0.3v1.2h-5.1V253.6z M551.3,241.6h-1.9v-2h1.9V241.6z"/>
		<path class="st3" d="M559.1,253.5c0.6,0,1.2-0.2,1.7-0.6c0.5-0.4,0.7-0.9,0.7-1.4h1.7v0.1c0,0.9-0.4,1.7-1.2,2.4s-1.8,1.1-2.9,1.1
			c-1.5,0-2.7-0.5-3.5-1.5s-1.2-2.3-1.2-3.8v-0.4c0-1.5,0.4-2.8,1.2-3.8s2-1.5,3.5-1.5c0.8,0,1.6,0.1,2.3,0.4
			c0.7,0.3,1.2,0.7,1.7,1.1l0.1,2.3h-1.5l-0.4-1.7c-0.2-0.2-0.5-0.4-0.9-0.5s-0.8-0.2-1.2-0.2c-1,0-1.7,0.4-2.2,1.1
			c-0.4,0.7-0.6,1.6-0.6,2.7v0.4c0,1.1,0.2,2,0.6,2.7S558,253.5,559.1,253.5z"/>
		<path class="st3" d="M564.8,240.8v-1.2h3.5v8.8h1.2l2.3-2.8l-1-0.1v-1.2h4.4v1.2l-1.3,0.3l-2.8,3.3l3.4,4.3l1.2,0.2v1.2h-4.4v-1.2
			l1-0.1l-2.8-3.5h-1.3v3.4l1.6,0.3v1.2h-5.1v-1.2l1.6-0.3v-12.2L564.8,240.8z"/>
	</g>
	<g id="click_5_">
		<line class="st4" x1="510.9" y1="58.7" x2="503.5" y2="66.2"/>
		<line class="st4" x1="510.8" y1="89" x2="503.4" y2="81.5"/>
		<line class="st4" x1="517.1" y1="73.9" x2="506.6" y2="73.9"/>
		<line class="st4" x1="480.8" y1="58.5" x2="488.2" y2="66"/>
		<line class="st4" x1="495.9" y1="52.3" x2="495.9" y2="63"/>
	</g>
	<path class="st5" d="M488.7,80.9v25c-12.5-2.7-22.4-12.5-25.1-25H488.7z"/>
	<line class="st6" x1="526" y1="295.8" x2="526" y2="6.7"/>
	<line class="st6" x1="537.1" y1="6.7" x2="537.1" y2="295.8"/>
	<line class="st6" x1="343.6" y1="107.2" x2="635" y2="107.2"/>
	<line class="st6" x1="635" y1="118.3" x2="343.6" y2="118.3"/>
	<line class="st6" x1="635" y1="80.9" x2="343.6" y2="80.9"/>
	<line class="st6" x1="343.6" y1="69.8" x2="635" y2="69.8"/>
	<line class="st6" x1="343.6" y1="228.6" x2="635" y2="228.6"/>
	<line class="st6" x1="635" y1="239.7" x2="343.6" y2="239.7"/>
	<line class="st6" x1="343.6" y1="173.8" x2="635" y2="173.8"/>
	<line class="st6" x1="635" y1="200" x2="343.6" y2="200"/>
	<line class="st6" x1="343.6" y1="255.1" x2="635" y2="255.1"/>
	<line class="st6" x1="635" y1="266.2" x2="343.6" y2="266.2"/>
	<line class="st6" x1="488.8" y1="295.8" x2="488.8" y2="6.7"/>
	<line class="st6" x1="499.9" y1="6.7" x2="499.9" y2="295.8"/>
	<line class="st6" x1="451.5" y1="295.8" x2="451.5" y2="6.7"/>
	<line class="st6" x1="462.6" y1="6.7" x2="462.6" y2="295.8"/>
	<line class="st6" x1="557.9" y1="11.9" x2="345.2" y2="224.6"/>
	<line class="st6" x1="343.6" y1="43.8" x2="635" y2="43.8"/>
	<line class="st6" x1="343.6" y1="148" x2="635" y2="148"/>
	<circle class="st6" cx="495.7" cy="73.8" r="9.9"/>
	<circle class="st6" cx="495.7" cy="73.8" r="22.8"/>
	
		<ellipse transform="matrix(0.2298 -0.9732 0.9732 0.2298 309.9857 539.2838)" class="st6" cx="495.7" cy="73.8" rx="32.9" ry="32.9"/>
	<circle class="st6" cx="449.9" cy="108.9" r="38.9"/>
	<circle class="st6" cx="449.9" cy="108.9" r="65.2"/>
	<circle class="st6" cx="538.7" cy="108.9" r="65.2"/>
	
		<ellipse transform="matrix(0.2298 -0.9732 0.9732 0.2298 308.9453 608.1692)" class="st6" cx="538.7" cy="108.9" rx="38.9" ry="38.9"/>
	<rect x="462.6" y="75.5" class="st6" width="37.1" height="5.4"/>
	<rect x="488.9" y="70" class="st6" width="5.4" height="37.1"/>
	<rect x="370" y="43.9" class="st7" width="239.6" height="211.1"/>
</g>
<g>
	<g id="Layer_1_00000107557535901621003090000012721879940526260658_">
		<rect x="694.9" y="-24.4" class="st8" width="284.3" height="350.2"/>
		<g id="Mask_Group_1">
			<g id="Personal_LogoGrid-13">
				<g id="Golden_Ratio">
					<line id="Line_3" class="st9" x1="880.3" y1="8.9" x2="880.3" y2="292.7"/>
					<line id="Line_4" class="st9" x1="869.1" y1="292.7" x2="869.1" y2="8.9"/>
					<line id="Line_5" class="st9" x1="695.2" y1="107.5" x2="979" y2="107.5"/>
					<line id="Line_6" class="st9" x1="979" y1="118.7" x2="695.2" y2="118.7"/>
					<line id="Line_7" class="st9" x1="695.1" y1="227.3" x2="979.1" y2="227.3"/>
					<line id="Line_8" class="st9" x1="979.1" y1="236.4" x2="695.1" y2="236.4"/>
					<line id="Line_9" class="st9" x1="842.7" y1="8.9" x2="842.7" y2="292.7"/>
					<line id="Line_10" class="st9" x1="831.5" y1="292.7" x2="831.5" y2="8.9"/>
					<line id="Line_11" class="st9" x1="805.1" y1="8.9" x2="805.1" y2="292.7"/>
					<line id="Line_12" class="st9" x1="793.9" y1="292.7" x2="793.9" y2="8.9"/>
					<line id="Line_13" class="st9" x1="869.1" y1="43.5" x2="737.4" y2="175.2"/>
					<line id="Line_14" class="st9" x1="793.9" y1="43.5" x2="925.5" y2="175.2"/>
					<line id="Line_15" class="st9" x1="979" y1="175.1" x2="695.1" y2="175.1"/>
					<line id="Line_16" class="st9" x1="695.1" y1="148.6" x2="979" y2="148.6"/>
					<circle id="Ellipse_1" class="st9" cx="838.5" cy="73.8" r="10"/>
					<circle id="Ellipse_2" class="st9" cx="838.5" cy="73.8" r="23"/>
					<circle id="Ellipse_3" class="st9" cx="838.5" cy="73.8" r="33.2"/>
					<circle id="Ellipse_4" class="st9" cx="792.3" cy="109.2" r="39.2"/>
					<circle id="Ellipse_5" class="st9" cx="792.3" cy="109.2" r="65.8"/>
					<circle id="Ellipse_6" class="st9" cx="881.9" cy="109.2" r="65.8"/>
					
						<ellipse id="Ellipse_7" transform="matrix(0.1091 -0.994 0.994 0.1091 677.0967 973.8942)" class="st10" cx="881.9" cy="109.2" rx="39.2" ry="39.2"/>
					<rect id="Rectangle_14" x="716.4" y="43.6" class="st9" width="241.6" height="215.4"/>
					<line id="Line_17" class="st9" x1="694.9" y1="199.3" x2="979.1" y2="199.3"/>
					<line id="Line_18" class="st9" x1="694.9" y1="254.4" x2="979.1" y2="254.4"/>
					<line id="Line_19" class="st9" x1="695.1" y1="69.9" x2="979" y2="69.9"/>
				</g>
			</g>
		</g>
	</g>
	<g id="Layer_3">
		<g id="Group_30" class="st11">
			<path id="Path_42" class="st12" d="M945.5,91.8c-1.6-5.5-3.8-10.8-6.7-15.7c-2.8-4.9-6.3-9.4-10.2-13.4
				c-12.3-12.2-28.9-19.1-46.3-19h-1.8v26.2h1.8c5.3,0,10.4,1.1,15.3,3.2c9.4,4,17,11.5,21,20.9c4,9.8,4,20.7,0,30.5
				c-3.9,9.5-11.5,17-21,20.9c-4.8,2.1-10,3.1-15.3,3.1h-13.1v-29.9h-26.4v56.1h39.5c11.6,0,23-3.1,33.1-8.9
				C940.9,150.7,953.3,120.4,945.5,91.8z"/>
		</g>
		<g id="Group_31" class="st11">
			<path id="Path_43" class="st12" d="M792.2,148.5c-5.2,0.1-10.5-1-15.3-3.1c-9.5-3.9-17-11.4-21-20.9c-4-9.8-4-20.7,0-30.5
				c4-9.4,11.5-16.9,21-20.9c4.8-2.1,10-3.2,15.3-3.2h1.8V43.6h-1.8c-5.9,0-11.7,0.8-17.4,2.4c-10.9,3-20.9,8.9-28.9,16.9
				c-4,4-7.4,8.6-10.2,13.4c-18.2,31.2-7.7,71.3,23.5,89.6c10,5.9,21.5,8.9,33.1,8.9h39.5v-26.2L792.2,148.5z"/>
		</g>
		<g id="Group_33" class="st11">
			<path id="Path_45" class="st12" d="M740.7,224.1c-3.5,3.1-8.3,4.2-12.8,3.1c-1.2-0.3-2.3-0.8-3.4-1.4c-1-0.6-2-1.4-2.8-2.2
				c-0.9-0.9-1.6-2-2.2-3.1c-0.6-1.1-1.1-2.2-1.4-3.4c-0.7-2.4-0.8-5-0.2-7.4c1-3.6,3.4-6.7,6.7-8.4c1-0.7,2.2-1.2,3.4-1.5
				c1.1-0.3,2.2-0.5,3.4-0.5c3.4,0,6.6,1.2,9.1,3.4l-2.4,4.8c-2.5-2.6-6.3-3.4-9.6-2c-1,0.4-2,1.1-2.8,1.8c-0.8,0.8-1.4,1.7-1.8,2.8
				c-1.9,4.4,0.2,9.4,4.6,11.3l0,0c1.1,0.5,2.2,0.7,3.4,0.7c1.2,0.1,2.4-0.2,3.4-0.7c1.1-0.5,2-1.1,2.8-2L740.7,224.1z"/>
			<path id="Path_46" class="st12" d="M752.2,227.2h-5.4v-26.9h10.8c1.9-0.1,3.9,0.5,5.5,1.5c0.8,0.4,1.5,1,2.2,1.7s1.3,1.4,1.7,2.2
				c0.5,0.8,0.8,1.7,1.1,2.6c0.5,1.8,0.5,3.8,0,5.6c-0.3,0.9-0.6,1.7-1,2.5c-0.9,1.6-2.2,3-3.8,4l3.1,6.9h-5.8l-2.5-5.8H752
				L752.2,227.2L752.2,227.2z M752.2,205.4v10.9h5.4c0.7,0,1.4-0.1,2.1-0.4c1.3-0.5,2.4-1.6,2.9-2.9c0.6-1.3,0.6-2.9,0-4.2
				c-0.5-1.3-1.6-2.4-2.9-2.9c-0.6-0.3-1.4-0.5-2.1-0.5L752.2,205.4z"/>
			<path id="Path_47" class="st12" d="M802.1,227.2h-5.4v-19.7c0.1-0.4,0.1-0.7,0-1.1c-0.1-0.3-0.3-0.6-0.6-0.9
				c-0.3-0.2-0.6-0.4-0.9-0.5c-1.4-0.6-3,0.1-3.6,1.4c-0.1,0.4-0.1,0.7,0,1.1v19.7h-5.4v-19.7c0.1-0.4,0.1-0.7,0-1.1
				c-0.3-0.6-0.8-1.1-1.4-1.4c-0.7-0.3-1.5-0.3-2.2,0c-0.6,0.3-1.1,0.8-1.4,1.4c-0.1,0.4-0.1,0.7,0,1.1v19.7h-5.4v-19.7
				c0-1.1,0.2-2.2,0.6-3.2c0.8-2,2.4-3.6,4.4-4.4c2.9-1.2,6.3-0.6,8.6,1.5c2.2-1.7,5.2-2.1,7.8-1.1c2,0.8,3.5,2.4,4.3,4.4
				c0.5,1,0.7,2.1,0.7,3.2L802.1,227.2L802.1,227.2z"/>
			<path id="Path_48" class="st12" d="M831.5,224.1c-2.5,2.2-5.7,3.4-9.1,3.4c-1.2,0.1-2.5,0-3.7-0.3s-2.3-0.8-3.3-1.4
				c-1.1-0.6-2-1.4-2.9-2.2s-1.6-1.8-2.2-2.8c-0.6-1.1-1.1-2.2-1.4-3.4c-0.7-2.4-0.7-5,0-7.5c1-3.6,3.4-6.6,6.7-8.4
				c1-0.7,2.1-1.2,3.3-1.5s2.5-0.5,3.8-0.5c1.7,0,3.3,0.3,4.8,0.9c1.6,0.5,3,1.4,4.2,2.5l-2.9,4.8c-0.8-0.9-1.7-1.6-2.8-2
				c-1.1-0.5-2.2-0.7-3.4-0.7c-2.3,0-4.5,0.9-6.1,2.5c-0.8,0.8-1.4,1.7-1.9,2.8c-0.9,2.2-0.9,4.6,0,6.7c0.9,2.1,2.6,3.7,4.6,4.6
				c1,0.5,2.2,0.7,3.4,0.7s2.3-0.2,3.4-0.7c1.1-0.5,2-1.1,2.8-2L831.5,224.1z"/>
			<path id="Path_49" class="st12" d="M873.2,213.4c0,2.4-0.6,4.7-1.9,6.7c-0.6,1-1.3,1.9-2.1,2.8c-2.5,2.6-6,4-9.6,4h-8.2V200h8.2
				c1.2,0,2.5,0.1,3.6,0.5c2.3,0.6,4.3,1.8,6,3.5c0.8,0.8,1.5,1.7,2.1,2.8c0.6,1,1.1,2.1,1.4,3.2C873,211,873.2,212.2,873.2,213.4z
				 M867.8,213.4c0-1.1-0.2-2.2-0.6-3.2c-0.4-1-1-1.8-1.7-2.6s-1.6-1.4-2.6-1.7c-1-0.4-2.1-0.6-3.2-0.7H857v16.3h2.7
				c1.1,0,2.2-0.2,3.2-0.7c2-0.8,3.5-2.3,4.4-4.3C867.6,215.5,867.8,214.4,867.8,213.4z"/>
			<path id="Path_50" class="st12" d="M878.2,207.9c0-1.1,0.2-2.2,0.6-3.2c0.9-1.9,2.4-3.5,4.4-4.4c1-0.4,2.1-0.6,3.2-0.6h12.4v5.4
				h-12.4c-0.4-0.1-0.7-0.1-1.1,0c-1,0.5-1.6,1.5-1.6,2.6c-0.1,0.4-0.1,0.7,0,1.1c0.3,0.6,0.8,1.1,1.4,1.4c0.4,0.1,0.7,0.1,1.1,0
				h5.4c1.1,0,2.2,0.2,3.2,0.7c2,0.8,3.5,2.4,4.4,4.3c0.8,2,0.8,4.3,0,6.3c-0.4,1-1,1.9-1.7,2.6c-1.5,1.5-3.6,2.4-5.8,2.4h-12.1
				v-5.4h12.1c0.4,0.1,0.7,0.1,1.1,0c1.4-0.6,2-2.2,1.4-3.6c-0.3-0.6-0.8-1.1-1.4-1.4c-0.4-0.1-0.7-0.1-1.1,0h-5.4
				c-1.1,0-2.2-0.2-3.2-0.6c-1.9-0.9-3.5-2.4-4.4-4.4C878.3,210.1,878.1,209,878.2,207.9z"/>
			<path id="Path_51" class="st12" d="M928,224.2c-2.5,2.2-5.7,3.3-9,3.3c-1.3,0-2.5-0.1-3.8-0.5c-1.2-0.3-2.3-0.8-3.4-1.4
				c-2.1-1.3-3.8-3-5-5.1c-0.6-1.1-1.1-2.2-1.4-3.4c-0.3-1.2-0.5-2.5-0.5-3.8c0-1.2,0.1-2.5,0.5-3.7c0.3-1.2,0.8-2.3,1.4-3.4
				c0.6-1,1.4-2,2.2-2.8c0.9-0.8,1.8-1.6,2.8-2.2c1.1-0.6,2.2-1.1,3.4-1.4c1.2-0.3,2.5-0.5,3.8-0.5c3.3,0,6.5,1.2,9,3.4l-2.8,4.7
				c-0.8-0.8-1.8-1.5-2.8-2c-2.1-0.9-4.6-0.9-6.7,0c-1,0.4-2,1-2.8,1.8s-1.4,1.7-1.9,2.8c-0.4,1-0.7,2.2-0.7,3.3
				c0,1.2,0.2,2.3,0.7,3.4c0.9,2,2.6,3.7,4.6,4.6c1,0.5,2.2,0.7,3.3,0.7c0.7,0.1,1.3,0.1,2,0c0.6-0.1,1.3-0.4,1.8-0.7v-7.6h5.2v10.5
				H928z"/>
			<path id="Path_52" class="st12" d="M956.9,227.2H951L940.5,209v18.2h-5.4v-26.9h5.8l10.5,17.9v-18.4h5.4v26.9L956.9,227.2z"/>
		</g>
		<path id="Path_68" class="st13" d="M921.6,238.4v-2h4.8v10.2h0.7l1.9-2.7h-1.1v-2h6.1v2l-1.5,0.3l-2.2,3l3.1,4.6h1.3v2.2H929v-2
			h0.7l-1.9-3.1h-1.4v2.8l1.4,0.3v2h-6.3v-2l1.6-0.3v-13L921.6,238.4z"/>
		<path id="Path_67" class="st13" d="M915.4,251.8c0.5,0.1,1-0.1,1.4-0.5c0.3-0.4,0.5-0.9,0.5-1.4h3c0,1.2-0.5,2.4-1.4,3.2
			c-1,0.8-2.3,1.3-3.6,1.2c-1.6,0.1-3.2-0.5-4.2-1.7c-1-1.3-1.5-2.8-1.5-4.4l0,0c0-1.6,0.5-3.2,1.5-4.4c1.1-1.2,2.7-1.8,4.3-1.7
			c0.9,0,1.8,0.1,2.7,0.5c0.7,0.3,1.4,0.7,2,1.2v3.3h-2.7l-0.5-2l-0.6-0.3h-0.9c-0.8-0.1-1.5,0.3-2,1c-0.4,0.8-0.6,1.7-0.6,2.6l0,0
			c0,0.9,0.2,1.8,0.5,2.7C913.9,251.5,914.7,251.9,915.4,251.8z"/>
		<path id="Path_66" class="st13" d="M902.1,252.1l1.5-0.3v-7.6l-1.7-0.3v-2h5.1v10l1.5,0.3v2h-6.7L902.1,252.1z M907,238.6h-3.4
			v-2.5h3.4V238.6z"/>
		<path id="Path_65" class="st13" d="M894.5,238.4v-2h5v15.3l1.6,0.3v2h-6.7v-2l1.5-0.3v-13L894.5,238.4z"/>
		<path id="Path_53" class="st14" d="M744.4,254.1c-0.9,0.1-1.8-0.2-2.6-0.7s-1.3-1.2-1.7-2.1c-0.4-1-0.6-2-0.5-3.1l0,0
			c0-1.2,0.2-2.3,0.5-3.4c0.3-0.9,0.9-1.7,1.7-2.4c0.7-0.5,1.6-0.8,2.6-0.8c0.7,0,1.3,0.1,2,0.4c0.5,0.3,1,0.7,1.4,1.1v-5l-1.9-0.3
			v-1.4h4.1v15.9h1.8v1.7H748v-1.5c-0.4,0.5-0.9,1-1.4,1.3C745.9,254.1,745.1,254.2,744.4,254.1z M744.8,252.5
			c0.6,0.1,1.2-0.1,1.7-0.5c0.5-0.3,0.9-0.8,1.1-1.3v-5.6c-0.3-0.5-0.7-0.9-1.1-1.2c-0.5-0.3-1.1-0.5-1.7-0.5
			c-0.7,0-1.3,0.2-1.8,0.6c-0.5,0.5-0.8,1-1,1.7c-0.2,0.8-0.3,1.6-0.3,2.5l0,0c-0.1,1,0.2,2.1,0.7,3c0.5,0.8,1.4,1.2,2.4,1.1
			L744.8,252.5z"/>
		<path id="Path_54" class="st14" d="M758.9,254.1c-2.1,0.1-4-1-4.9-2.9c-0.5-1-0.7-2.1-0.7-3.2v-0.5c0-1.1,0.2-2.2,0.7-3.2
			c0.5-0.9,1.1-1.6,2-2.2c0.7-0.5,1.6-0.8,2.6-0.8s2,0.2,2.8,0.7c0.7,0.5,1.3,1.2,1.7,2c0.4,0.9,0.6,1.9,0.5,2.9v1.3h-8
			c0,0.7,0.1,1.4,0.5,2.1c0.2,0.6,0.6,1.1,1.1,1.5s1.2,0.5,1.8,0.5c0.6,0.1,1.3,0.1,2,0c0.6-0.2,1.1-0.5,1.5-0.9l0.9,1.5
			c-0.5,0.5-1.1,0.8-1.7,1.1C760.6,254.1,759.8,254.2,758.9,254.1z M755.7,246.7h5.6l0,0c0-0.5-0.1-1.1-0.3-1.5
			c-0.2-0.5-0.5-0.9-0.9-1.1c-0.5-0.4-1.2-0.6-1.8-0.7c-0.5,0-1,0.2-1.3,0.5c-0.4,0.3-0.8,0.7-1,1.1c-0.2,0.5-0.4,1.1-0.5,1.7H755.7
			z"/>
		<path id="Path_55" class="st14" d="M770.3,254.1c-0.8,0.1-1.5,0.1-2.3,0c-0.8-0.2-1.5-0.5-2.3-0.8v-2.9h1.7l0.4,1.7h1.2
			c0.4,0.1,0.9,0.1,1.3,0c0.7,0.1,1.4-0.1,2-0.5c0.4-0.3,0.6-0.8,0.6-1.3s-0.2-0.9-0.6-1.2c-0.6-0.5-1.4-0.8-2.2-0.9
			c-1.2-0.2-2.3-0.7-3.2-1.3c-1.2-1-1.4-2.8-0.5-4c0.4-0.6,0.9-1,1.5-1.3c0.8-0.3,1.6-0.5,2.4-0.5c0.8-0.1,1.6-0.1,2.4,0
			c0.6,0.2,1.2,0.5,1.7,0.8v2.8h-1.7v-1.6c-0.3-0.2-0.6-0.4-0.9-0.5c-0.4-0.1-0.9-0.1-1.3,0c-0.6-0.1-1.2,0.1-1.7,0.5
			c-0.4,0.3-0.7,0.7-0.7,1.2c-0.1,0.2-0.1,0.5,0,0.7c0.2,0.3,0.4,0.5,0.7,0.6l1.5,0.5c1.3,0.2,2.5,0.8,3.6,1.5c0.7,0.6,1,1.4,1,2.3
			c0,1-0.4,2-1.1,2.6C772.9,253.6,771.6,254.1,770.3,254.1z"/>
		<path id="Path_56" class="st14" d="M776.9,254.1v-1.5h1.8v-8.7h-1.8v-1.4h4V253h1.8v1.1H776.9z M778.4,238.8v-2.4h2.4v2.4H778.4z"
			/>
		<path id="Path_57" class="st14" d="M789.6,259c-0.6,0.1-1.3,0.1-1.9,0c-0.6-0.2-1.2-0.4-1.8-0.7l0.6-1.7c0.5,0.2,1,0.4,1.5,0.5
			h1.6c0.8,0.1,1.6-0.2,2.2-0.8c0.5-0.7,0.7-1.6,0.7-2.4v-1.1c-0.4,0.5-0.9,0.9-1.4,1.1c-1.4,0.8-3.1,0.8-4.5,0
			c-0.8-0.5-1.4-1.2-1.7-2.1c-0.4-1-0.6-2-0.6-3l0,0c0-1.2,0.2-2.3,0.6-3.4c0.3-0.9,0.9-1.8,1.7-2.4c0.7-0.5,1.6-0.8,2.6-0.8
			c0.7,0,1.4,0.1,2,0.5c0.6,0.3,1.1,0.7,1.5,1.3v-1.5h1.9v11.6c0,1-0.2,1.9-0.6,2.8c-0.4,0.7-0.9,1.4-1.7,1.7
			C791.4,259,790.5,259.1,789.6,259z M789.6,252.3c0.6,0.1,1.2-0.1,1.7-0.5c0.5-0.3,0.9-0.7,1.1-1.3v-5.6c-0.3-0.5-0.7-0.9-1.1-1.2
			c-0.5-0.3-1-0.5-1.6-0.5c-0.7,0-1.3,0.2-1.8,0.6c-0.5,0.4-0.8,1-1,1.7c-0.3,0.8-0.4,1.6-0.4,2.5l0,0c0,1.1,0.3,2.1,0.8,3
			c0.5,0.7,1.4,1.2,2.4,1.1v0.2H789.6z M794.3,243.5l-0.9-1.9h2.8v1.5L794.3,243.5z"/>
		<path id="Path_58" class="st14" d="M797.4,254.1v-1.5h1.9v-8.7h-1.9v-1.4h3.8v1.8c0.4-0.7,0.9-1.2,1.5-1.5
			c0.6-0.4,1.4-0.5,2.1-0.5c1.1-0.1,2.2,0.3,3,1.1c0.8,1,1.2,2.3,1.1,3.6v6h1.8v1.1h-5.5v-1.4h1.8v-6c0.1-0.8-0.1-1.6-0.6-2.3
			c-0.5-0.5-1.2-0.7-2-0.7c-0.6,0-1.2,0.2-1.7,0.5s-0.9,0.8-1.1,1.3v7.2h1.8v1.4L797.4,254.1L797.4,254.1z"/>
		<path id="Path_59" class="st14" d="M817.5,254.1c-1.6,0.1-3.2-0.3-4.6-1v-2.9h1.7l0.4,1.7h1.2c0.4,0.1,0.9,0.1,1.3,0
			c0.7,0.1,1.4-0.1,2-0.5c0.4-0.3,0.6-0.8,0.6-1.3s-0.2-0.9-0.6-1.2c-0.6-0.5-1.4-0.8-2.2-0.9c-1.2-0.2-2.3-0.7-3.3-1.3
			c-0.7-0.6-1.1-1.4-1-2.3c0-0.6,0.2-1.2,0.5-1.7c0.4-0.6,1-1,1.6-1.3c0.8-0.3,1.6-0.5,2.4-0.5c0.8-0.1,1.6-0.1,2.4,0
			c0.6,0.2,1.2,0.5,1.7,0.8v2.8h-1.7l-0.4-1.6c-1.2-0.7-2.7-0.7-3.8,0c-0.4,0.3-0.7,0.7-0.7,1.2c-0.1,0.2-0.1,0.5,0,0.7
			c0.2,0.3,0.4,0.5,0.7,0.6l1.5,0.5c1.3,0.2,2.5,0.8,3.6,1.5c0.7,0.6,1,1.4,1,2.3c0,1-0.4,2-1.1,2.6
			C820,253.4,818.8,254,817.5,254.1z"/>
		<path id="Path_60" class="st14" d="M834.2,254.1c-0.8,0-1.6-0.3-2.2-0.8c-0.6-0.7-0.9-1.6-0.8-2.6v-7.3h-1.9v-1.7h1.9v-2.9h2.3
			v2.9h2.6v1.7h-2.6v7.5c-0.1,0.5,0.1,0.9,0.3,1.3c0.2,0.3,0.6,0.4,0.9,0.4h0.9h0.7l0.3,1.5h-1.2L834.2,254.1L834.2,254.1z"/>
		<path id="Path_61" class="st14" d="M837.9,254.1v-1.5h1.8v-14.5l-1.8-0.3v-1.4h4v7.1c0.4-0.6,0.9-1.1,1.5-1.3
			c0.6-0.3,1.4-0.5,2.1-0.5c1.1,0,2.2,0.4,3,1.2c0.8,1,1.2,2.3,1.1,3.6v5.9h1.9v1.7h-5.9v-1.4h1.8v-6c0.1-0.8-0.2-1.6-0.7-2.2
			c-0.5-0.5-1.2-0.8-1.9-0.7c-0.6,0-1.2,0.1-1.7,0.5c-0.5,0.3-1,0.7-1.3,1.1v7.3h1.9v1.4L837.9,254.1L837.9,254.1z"/>
		<path id="Path_62" class="st14" d="M857,254.1c-1,0.1-2.1-0.3-2.9-0.9c-0.7-0.7-1.1-1.6-1-2.6c0-0.7,0.2-1.4,0.7-2
			s1.1-1.1,1.8-1.3c0.9-0.4,1.9-0.5,2.9-0.5h2.2v-1.2c0-0.7-0.2-1.3-0.7-1.7s-1.2-0.6-1.9-0.6c-0.4-0.1-0.9-0.1-1.3,0
			c-0.4,0.1-0.8,0.3-1.1,0.5v1.7H854v-2.8c0.6-0.4,1.3-0.8,2-1c0.8-0.1,1.6-0.1,2.4,0c1.3-0.1,2.5,0.3,3.5,1.1
			c0.9,0.8,1.3,1.9,1.3,3v6.7c0,0.2,0,0.3,0,0.5h1.1v1.3h-3.2v-0.9c0,0,0-0.5,0-0.7c-0.5,0.7-1.2,1.3-2,1.7
			C858.4,254.3,857.7,254.3,857,254.1z M857,252.2c0.7,0.1,1.4-0.1,2-0.5c0.6-0.3,1.1-0.7,1.3-1.3v-2.2h-2c-0.8-0.1-1.7,0.2-2.3,0.7
			c-0.5,0.4-0.8,1-0.8,1.7c0,0.5,0.2,0.9,0.5,1.2c0.4,0.3,1,0.5,1.5,0.4L857,252.2L857,252.2z"/>
		<path id="Path_63" class="st14" d="M870.2,254.1c-0.8,0-1.6-0.3-2.2-0.8c-0.6-0.7-0.9-1.6-0.8-2.6v-7.3h-1.9v-1.7h1.9v-2.9h2.3
			v2.9h2.6v1.7h-2.6v7.5c-0.1,0.5,0.1,0.9,0.3,1.3c0.2,0.3,0.6,0.4,0.9,0.4h0.9h0.7l0.1,1.5h-1.2L870.2,254.1L870.2,254.1z"/>
		<path id="Path_64" class="st13" d="M893.2,243.1h-2.5l-0.3-2.2c-0.3-0.4-0.8-0.6-1.2-0.8c-0.6-0.1-1.2-0.1-1.7,0
			c-1.3-0.1-2.6,0.5-3.4,1.5c-0.8,1.2-1.2,2.6-1.1,4.1v0.5c-0.1,1.5,0.3,2.9,1.1,4.1c0.8,1,2,1.6,3.3,1.6c0.6,0.1,1.2,0.1,1.7,0
			s0.9-0.4,1.3-0.7l0.3-2.2h2.4v3.3c-0.7,0.8-1.5,1.4-2.5,1.8c-1.1,0.5-2.3,0.7-3.5,0.7c-2.1,0.1-4.1-0.8-5.4-2.3
			c-1.4-1.6-2.2-3.8-2.1-5.9v-0.5c-0.1-2.1,0.7-4.2,2.1-5.9c1.4-1.5,3.4-2.4,5.4-2.4c1.2,0,2.4,0.2,3.5,0.7c1,0.4,1.8,1,2.6,1.8v3.2
			L893.2,243.1z"/>
		<path id="Path_44" class="st15" d="M869.2,43.7v74.8h-26.4V69.9H794V43.7H869.2z"/>
	</g>
</g>
<g>
	<path class="st16" d="M65,239.5c1.8,0,3.3,0.6,4.4,1.7c1.1,1.1,1.7,2.6,1.7,4.4v1.9c0,1.8-0.6,3.3-1.7,4.4
		c-1.1,1.1-2.6,1.7-4.4,1.7h-5.9v-1.2l1.6-0.3V241l-1.6-0.3v-1.2h1.6H65z M62.6,241v11.1H65c1.3,0,2.3-0.4,3.1-1.3
		c0.8-0.9,1.1-2,1.1-3.3v-1.9c0-1.3-0.4-2.4-1.1-3.3c-0.8-0.9-1.8-1.3-3.1-1.3H62.6z"/>
	<path class="st16" d="M77.8,253.8c-1.5,0-2.6-0.5-3.5-1.5s-1.3-2.2-1.3-3.8v-0.4c0-1.5,0.4-2.7,1.3-3.7s1.9-1.5,3.2-1.5
		c1.4,0,2.5,0.4,3.2,1.3s1.1,2,1.1,3.4v1.2H75l0,0c0,1,0.3,1.8,0.8,2.5c0.5,0.6,1.2,1,2.1,1c0.6,0,1.2-0.1,1.7-0.3s0.9-0.4,1.3-0.8
		l0.7,1.2c-0.4,0.4-0.9,0.7-1.5,0.9C79.4,253.7,78.7,253.8,77.8,253.8z M77.5,244.4c-0.6,0-1.2,0.3-1.6,0.8s-0.7,1.2-0.8,2l0,0h4.8
		v-0.3c0-0.7-0.2-1.4-0.6-1.9S78.3,244.4,77.5,244.4z"/>
	<path class="st16" d="M91.7,246.4h-1.4l-0.3-1.3c-0.2-0.2-0.5-0.4-0.9-0.5s-0.8-0.2-1.2-0.2c-0.7,0-1.2,0.1-1.5,0.4
		s-0.5,0.7-0.5,1.1c0,0.4,0.1,0.7,0.4,1c0.3,0.2,0.9,0.5,1.8,0.6c1.3,0.3,2.3,0.7,3,1.2c0.6,0.5,1,1.1,1,2s-0.4,1.7-1.1,2.3
		c-0.8,0.6-1.7,0.9-3,0.9c-0.8,0-1.5-0.1-2.1-0.3s-1.2-0.5-1.7-0.8v-2.4h1.4l0.4,1.4c0.2,0.2,0.5,0.3,0.9,0.4
		c0.4,0.1,0.8,0.1,1.2,0.1c0.7,0,1.2-0.1,1.6-0.4c0.4-0.3,0.6-0.6,0.6-1.1c0-0.4-0.2-0.8-0.5-1c-0.3-0.3-0.9-0.5-1.8-0.7
		c-1.3-0.3-2.2-0.7-2.9-1.1c-0.6-0.5-1-1.1-1-1.9c0-0.9,0.4-1.6,1.1-2.2s1.7-0.9,2.8-0.9c0.8,0,1.5,0.1,2.1,0.3s1.2,0.5,1.6,0.9
		V246.4z"/>
	<path class="st16" d="M93.8,252.4l1.6-0.3v-7.5l-1.6-0.3v-1.2h3.5v9l1.6,0.3v1.2h-5.1V252.4z M97.3,240.4h-1.9v-1.9h1.9V240.4z"/>
	<path class="st16" d="M100.3,248.5c0-1.7,0.4-3,1.1-4.1s1.8-1.5,3.1-1.5c0.7,0,1.2,0.1,1.7,0.4c0.5,0.3,0.9,0.6,1.2,1.1l0.2-1.3
		h1.6v10.3c0,1.4-0.4,2.4-1.1,3.2c-0.8,0.8-1.8,1.2-3.2,1.2c-0.5,0-1-0.1-1.6-0.2s-1.1-0.3-1.5-0.6l0.5-1.5c0.4,0.2,0.8,0.3,1.3,0.5
		c0.5,0.1,1,0.2,1.4,0.2c0.9,0,1.5-0.2,1.9-0.7c0.4-0.5,0.6-1.2,0.6-2v-1c-0.3,0.4-0.8,0.8-1.2,1c-0.5,0.2-1,0.3-1.6,0.3
		c-1.3,0-2.3-0.5-3-1.4s-1.1-2.1-1.1-3.7v-0.2H100.3z M102.3,248.8c0,1.1,0.2,1.9,0.7,2.5c0.4,0.6,1.1,1,2,1c0.6,0,1.1-0.1,1.4-0.4
		s0.7-0.6,1-1.1V246c-0.2-0.4-0.6-0.8-1-1.1s-0.9-0.4-1.4-0.4c-0.9,0-1.6,0.4-2,1.1c-0.5,0.8-0.7,1.7-0.7,2.9V248.8z"/>
	<path class="st16" d="M111.3,252.4l1.6-0.3v-7.5l-1.6-0.3v-1.2h3.3l0.1,1.6c0.3-0.6,0.8-1,1.3-1.3s1.1-0.5,1.8-0.5
		c1.1,0,2,0.3,2.6,1s0.9,1.7,0.9,3.1v5.1l1.6,0.3v1.2h-5.1v-1.2l1.6-0.3V247c0-0.9-0.2-1.6-0.5-2c-0.4-0.4-0.9-0.6-1.7-0.6
		c-0.5,0-1,0.1-1.5,0.4s-0.8,0.6-1,1.1v6.2l1.6,0.3v1.2h-5.1L111.3,252.4L111.3,252.4z"/>
	<path class="st16" d="M132.4,246.4H131l-0.3-1.3c-0.2-0.2-0.5-0.4-0.9-0.5s-0.8-0.2-1.2-0.2c-0.7,0-1.2,0.1-1.5,0.4
		s-0.5,0.7-0.5,1.1c0,0.4,0.1,0.7,0.4,1c0.3,0.2,0.9,0.5,1.8,0.6c1.3,0.3,2.3,0.7,3,1.2c0.6,0.5,1,1.1,1,2s-0.4,1.7-1.1,2.3
		c-0.8,0.6-1.7,0.9-3,0.9c-0.8,0-1.5-0.1-2.1-0.3s-1.2-0.5-1.7-0.8v-2.4h1.4l0.4,1.4c0.2,0.2,0.5,0.3,0.9,0.4
		c0.4,0.1,0.8,0.1,1.2,0.1c0.7,0,1.2-0.1,1.6-0.4c0.4-0.3,0.6-0.6,0.6-1.1c0-0.4-0.2-0.8-0.5-1c-0.3-0.3-0.9-0.5-1.8-0.7
		c-1.3-0.3-2.2-0.7-2.9-1.1c-0.6-0.5-1-1.1-1-1.9c0-0.9,0.4-1.6,1.1-2.2s1.7-0.9,2.8-0.9c0.8,0,1.5,0.1,2.1,0.3s1.2,0.5,1.6,0.9
		L132.4,246.4z"/>
	<path class="st16" d="M142.7,240.6v2.5h2v1.4h-2v6.4c0,0.5,0.1,0.8,0.3,1s0.5,0.3,0.8,0.3c0.2,0,0.4,0,0.6,0c0.2,0,0.4-0.1,0.5-0.1
		l0.3,1.3c-0.2,0.1-0.4,0.2-0.8,0.3s-0.7,0.1-1,0.1c-0.8,0-1.4-0.2-1.8-0.7c-0.5-0.5-0.7-1.2-0.7-2.2v-6.4h-1.7v-1.4h1.7v-2.5
		L142.7,240.6L142.7,240.6z"/>
	<path class="st16" d="M146.4,252.4l1.6-0.3V240l-1.6-0.3v-1.2h3.5v6c0.4-0.5,0.8-0.9,1.3-1.2s1.1-0.4,1.7-0.4c1.1,0,2,0.3,2.6,1
		s0.9,1.7,0.9,3.1v5.1l1.6,0.3v1.2h-5v-1.2l1.6-0.3V247c0-0.9-0.2-1.5-0.6-1.9c-0.4-0.4-0.9-0.6-1.7-0.6c-0.5,0-1,0.1-1.4,0.4
		c-0.4,0.2-0.8,0.6-1.1,1v6.2l1.6,0.3v1.2h-5.1L146.4,252.4L146.4,252.4z"/>
	<path class="st16" d="M166.3,253.6c-0.1-0.3-0.1-0.5-0.1-0.8c0-0.2-0.1-0.5-0.1-0.7c-0.4,0.5-0.8,0.9-1.4,1.2
		c-0.6,0.3-1.1,0.5-1.8,0.5c-1.1,0-1.9-0.3-2.5-0.8s-0.9-1.3-0.9-2.3s0.4-1.8,1.2-2.3s1.9-0.8,3.3-0.8h2v-1.2c0-0.6-0.2-1.1-0.6-1.5
		s-0.9-0.5-1.6-0.5c-0.5,0-0.9,0.1-1.3,0.2s-0.7,0.3-0.9,0.5l-0.2,1.1h-1.5v-2c0.5-0.4,1.1-0.7,1.7-0.9c0.7-0.2,1.4-0.3,2.2-0.3
		c1.2,0,2.2,0.3,2.9,0.9c0.7,0.6,1.1,1.5,1.1,2.6v5c0,0.1,0,0.3,0,0.4c0,0.1,0,0.3,0,0.4l0.8,0.1v1.2L166.3,253.6L166.3,253.6z
		 M163.2,252.2c0.6,0,1.2-0.2,1.7-0.5s0.9-0.7,1.1-1.1v-1.7h-2c-0.8,0-1.4,0.2-1.9,0.5c-0.5,0.4-0.7,0.8-0.7,1.3s0.1,0.8,0.4,1.1
		C162.2,252.1,162.6,252.2,163.2,252.2z"/>
	<path class="st16" d="M173.7,240.6v2.5h2v1.4h-2v6.4c0,0.5,0.1,0.8,0.3,1s0.5,0.3,0.8,0.3c0.2,0,0.4,0,0.6,0c0.2,0,0.4-0.1,0.5-0.1
		l0.3,1.3c-0.2,0.1-0.4,0.2-0.8,0.3s-0.7,0.1-1,0.1c-0.8,0-1.4-0.2-1.8-0.7c-0.5-0.5-0.7-1.2-0.7-2.2v-6.4h-1.7v-1.4h1.7v-2.5
		L173.7,240.6L173.7,240.6z"/>
	<path class="st16" d="M187.3,252.3c0.6,0,1.2-0.2,1.7-0.6c0.5-0.4,0.7-0.9,0.7-1.4h1.7v0.1c0,0.9-0.4,1.7-1.2,2.4s-1.8,1.1-2.9,1.1
		c-1.5,0-2.7-0.5-3.5-1.5s-1.2-2.2-1.2-3.8v-0.4c0-1.5,0.4-2.7,1.2-3.7s2-1.5,3.5-1.5c0.8,0,1.6,0.1,2.3,0.4
		c0.7,0.3,1.2,0.7,1.7,1.1l0.1,2.3h-1.5l-0.4-1.6c-0.2-0.2-0.5-0.4-0.9-0.5s-0.8-0.2-1.2-0.2c-1,0-1.7,0.4-2.1,1.1
		c-0.4,0.7-0.6,1.6-0.6,2.7v0.4c0,1.1,0.2,2,0.6,2.7C185.6,251.9,186.3,252.3,187.3,252.3z"/>
	<path class="st16" d="M193,239.7v-1.2h3.5v13.6l1.6,0.3v1.2H193v-1.2l1.6-0.3V240L193,239.7z"/>
	<path class="st16" d="M199.5,252.4l1.6-0.3v-7.5l-1.6-0.3v-1.2h3.5v9l1.6,0.3v1.2h-5.1V252.4z M203,240.4h-1.9v-1.9h1.9V240.4z"/>
	<path class="st16" d="M210.7,252.3c0.6,0,1.2-0.2,1.7-0.6c0.5-0.4,0.7-0.9,0.7-1.4h1.7v0.1c0,0.9-0.4,1.7-1.2,2.4s-1.8,1.1-2.9,1.1
		c-1.5,0-2.7-0.5-3.5-1.5s-1.2-2.2-1.2-3.8v-0.4c0-1.5,0.4-2.7,1.2-3.7s2-1.5,3.5-1.5c0.8,0,1.6,0.1,2.3,0.4
		c0.7,0.3,1.2,0.7,1.7,1.1l0.1,2.3h-1.5l-0.4-1.6c-0.2-0.2-0.5-0.4-0.9-0.5s-0.8-0.2-1.2-0.2c-1,0-1.7,0.4-2.1,1.1
		c-0.4,0.7-0.6,1.6-0.6,2.7v0.4c0,1.1,0.2,2,0.6,2.7C209,251.9,209.7,252.3,210.7,252.3z"/>
	<path class="st16" d="M216.5,239.7v-1.2h3.5v8.8h1.2l2.2-2.8l-1-0.1v-1.2h4.4v1.2l-1.3,0.3l-2.8,3.3l3.4,4.3l1.2,0.2v1.2H223v-1.2
		l1-0.1l-2.8-3.5H220v3.3l1.6,0.3v1.2h-5.1v-1.2l1.6-0.3V240L216.5,239.7z"/>
</g>
<g>
	<g>
		<path class="st0" d="M253.3,91.4c-1.5-5.5-3.7-10.6-6.5-15.4s-6.2-9.1-10.1-13.1c-3.9-3.9-8.3-7.3-13.1-10.1s-9.9-5-15.5-6.5
			c-5.5-1.5-11.2-2.3-17.2-2.3h-1.7v25.9h1.7c5.3,0,10.4,1,15.1,3.1c4.7,2,8.8,4.8,12.4,8.3c3.5,3.5,6.3,7.6,8.3,12.3
			c2,4.7,3,9.7,3,15.1c0,5.3-1,10.4-3,15.1s-4.8,8.8-8.3,12.3s-7.6,6.3-12.4,8.3c-4.7,2-9.7,3-15.1,3H178v-29.5h-26v55.4h39
			c6,0,11.7-0.8,17.2-2.3s10.7-3.7,15.5-6.5s9.2-6.2,13.1-10.1c3.9-3.9,7.3-8.3,10.1-13.1s5-9.9,6.5-15.4c1.5-5.5,2.3-11.2,2.3-17.2
			C255.6,102.7,254.8,96.9,253.3,91.4z"/>
	</g>
</g>
<g>
	<g>
		<path class="st1" d="M102.1,147.4c-5.3,0-10.4-1-15.1-3s-8.8-4.8-12.4-8.3c-3.5-3.5-6.3-7.6-8.3-12.3s-3-9.7-3-15.1
			c0-5.3,1-10.4,3-15.1s4.8-8.8,8.3-12.3S82.2,75,87,73c4.7-2,9.7-3.1,15.1-3.1h1.7V44h-1.7c-6,0-11.7,0.8-17.2,2.3
			c-5.5,1.5-10.7,3.7-15.5,6.5c-4.7,2.9-9,6.2-12.9,10.2c-3.9,3.9-7.3,8.3-10.1,13.1c-2.8,4.8-5,9.9-6.5,15.4s-2.3,11.2-2.3,17.2
			c0,5.9,0.8,11.7,2.3,17.2s3.7,10.6,6.5,15.4c2.8,4.8,6.2,9.1,10.1,13.1c3.9,3.9,8.3,7.3,13.1,10.1c4.8,2.8,9.9,5,15.5,6.5
			c5.5,1.5,11.2,2.3,17.2,2.3h38.9v-25.9L102.1,147.4L102.1,147.4z"/>
	</g>
</g>
<polygon class="st2" points="178.2,44 178.2,106.4 152.1,106.4 152.1,69.7 115.1,69.7 115.1,44 "/>
<path class="st5" d="M148.1,73.6v32.7h-0.2c-18.1,0-32.7-14.6-32.7-32.7C115.2,73.6,148.1,73.6,148.1,73.6z"/>
<g>
	<g>
		<path class="st16" d="M44.5,224c-1.2,1.1-2.6,1.9-4.2,2.5c-1.5,0.6-3.2,0.9-4.8,0.9c-1.3,0-2.5-0.2-3.7-0.5s-2.3-0.8-3.3-1.4
			s-2-1.3-2.8-2.2c-0.8-0.8-1.6-1.8-2.2-2.8s-1.1-2.1-1.4-3.3s-0.5-2.4-0.5-3.7s0.2-2.5,0.5-3.7s0.8-2.3,1.4-3.3s1.3-2,2.2-2.8
			c0.8-0.8,1.8-1.6,2.8-2.2s2.1-1.1,3.3-1.4c1.2-0.3,2.4-0.5,3.7-0.5c1.7,0,3.3,0.3,4.8,0.9c1.5,0.6,2.9,1.4,4.2,2.5l-2.8,4.7
			c-0.8-0.8-1.7-1.5-2.8-2s-2.2-0.7-3.4-0.7s-2.3,0.2-3.3,0.7c-1,0.4-1.9,1.1-2.7,1.8c-0.8,0.8-1.4,1.7-1.8,2.7s-0.7,2.2-0.7,3.3
			c0,1.2,0.2,2.3,0.7,3.3c0.4,1,1.1,1.9,1.8,2.7c0.8,0.8,1.7,1.4,2.7,1.8c1,0.4,2.1,0.7,3.3,0.7s2.3-0.2,3.4-0.7
			c1.1-0.5,2-1.1,2.8-2L44.5,224z"/>
		<path class="st16" d="M55.9,226.8h-5.4v-26.9h10.7c1,0,1.9,0.1,2.8,0.4c0.9,0.3,1.8,0.6,2.6,1.1c0.8,0.5,1.5,1,2.2,1.7
			s1.2,1.4,1.7,2.2s0.8,1.7,1.1,2.6c0.3,0.9,0.4,1.9,0.4,2.8c0,0.9-0.1,1.8-0.3,2.7c-0.2,0.9-0.6,1.7-1,2.5s-1,1.5-1.6,2.2
			s-1.3,1.2-2.1,1.7l3,7h-5.7l-2.3-5.4h-6L55.9,226.8L55.9,226.8z M55.9,205.3V216h5.4c0.7,0,1.4-0.1,2.1-0.4
			c0.6-0.3,1.2-0.7,1.7-1.2s0.9-1.1,1.2-1.7s0.4-1.4,0.4-2.1s-0.1-1.4-0.4-2.1s-0.7-1.2-1.2-1.7s-1.1-0.9-1.7-1.2
			c-0.6-0.3-1.3-0.4-2.1-0.4L55.9,205.3L55.9,205.3z"/>
		<path class="st16" d="M105.1,226.8h-5.4v-19.2c0-0.4-0.1-0.7-0.2-1s-0.3-0.6-0.6-0.9c-0.2-0.2-0.5-0.4-0.9-0.6
			c-0.3-0.1-0.7-0.2-1-0.2c-0.4,0-0.7,0.1-1,0.2c-0.3,0.1-0.6,0.3-0.9,0.6c-0.2,0.2-0.4,0.5-0.6,0.9c-0.1,0.3-0.2,0.7-0.2,1v19.2H89
			v-19.2c0-0.4-0.1-0.7-0.2-1s-0.3-0.6-0.6-0.9s-0.5-0.4-0.9-0.6c-0.3-0.1-0.7-0.2-1-0.2s-0.7,0.1-1,0.2c-0.3,0.1-0.6,0.3-0.9,0.6
			s-0.4,0.5-0.6,0.9c-0.1,0.3-0.2,0.7-0.2,1v19.2h-5.4v-19.2c0-1.1,0.2-2.2,0.6-3.1c0.4-1,1-1.8,1.7-2.6c0.7-0.7,1.6-1.3,2.6-1.7
			s2-0.6,3.1-0.6c1,0,2,0.2,2.9,0.5c0.9,0.4,1.8,0.9,2.5,1.5c0.7-0.7,1.6-1.2,2.5-1.5c0.9-0.4,1.9-0.5,2.9-0.5
			c1.1,0,2.2,0.2,3.1,0.6c1,0.4,1.8,1,2.6,1.7s1.3,1.6,1.7,2.6c0.4,1,0.6,2,0.6,3.1v19.2H105.1z"/>
		<path class="st16" d="M134.2,224c-1.2,1.1-2.6,1.9-4.2,2.5c-1.5,0.6-3.2,0.9-4.8,0.9c-1.3,0-2.5-0.2-3.7-0.5s-2.3-0.8-3.3-1.4
			s-2-1.3-2.8-2.2c-0.8-0.8-1.6-1.8-2.2-2.8s-1.1-2.1-1.4-3.3s-0.5-2.4-0.5-3.7s0.2-2.5,0.5-3.7s0.8-2.3,1.4-3.3s1.3-2,2.2-2.8
			c0.8-0.8,1.8-1.6,2.8-2.2s2.1-1.1,3.3-1.4s2.4-0.5,3.7-0.5c1.7,0,3.3,0.3,4.8,0.9c1.5,0.6,2.9,1.4,4.2,2.5l-2.8,4.7
			c-0.8-0.8-1.7-1.5-2.8-2c-1.1-0.5-2.2-0.7-3.4-0.7c-1.2,0-2.3,0.2-3.3,0.7s-1.9,1.1-2.7,1.8c-0.8,0.8-1.4,1.7-1.8,2.7
			s-0.7,2.2-0.7,3.3c0,1.2,0.2,2.3,0.7,3.3c0.4,1,1.1,1.9,1.8,2.7c0.8,0.8,1.7,1.4,2.7,1.8s2.1,0.7,3.3,0.7c1.2,0,2.3-0.2,3.4-0.7
			c1.1-0.5,2-1.1,2.8-2L134.2,224z"/>
		<path class="st16" d="M175.4,213.3c0,1.2-0.2,2.4-0.5,3.6c-0.3,1.1-0.8,2.2-1.4,3.2c-0.6,1-1.3,1.9-2.1,2.7s-1.7,1.5-2.7,2.1
			s-2.1,1-3.2,1.4c-1.1,0.3-2.3,0.5-3.6,0.5h-8.1v-26.9h8.1c1.2,0,2.4,0.2,3.6,0.5c1.1,0.3,2.2,0.8,3.2,1.4c1,0.6,1.9,1.3,2.7,2.1
			s1.5,1.7,2.1,2.7s1,2.1,1.4,3.2S175.4,212.1,175.4,213.3z M170.1,213.3c0-1.1-0.2-2.2-0.6-3.1s-1-1.8-1.7-2.6
			c-0.7-0.7-1.6-1.3-2.6-1.7s-2-0.6-3.1-0.6h-2.7v16.1h2.7c1.1,0,2.2-0.2,3.1-0.6c1-0.4,1.8-1,2.6-1.7c0.7-0.7,1.3-1.6,1.7-2.6
			C169.8,215.5,170.1,214.4,170.1,213.3z"/>
		<path class="st16" d="M180.3,208c0-1.1,0.2-2.2,0.6-3.1c0.4-1,1-1.8,1.7-2.6c0.7-0.7,1.6-1.3,2.6-1.7s2-0.6,3.1-0.6h12.3v5.4
			h-12.3c-0.4,0-0.7,0.1-1,0.2c-0.3,0.1-0.6,0.3-0.9,0.6c-0.2,0.2-0.4,0.5-0.6,0.9c-0.1,0.3-0.2,0.7-0.2,1c0,0.4,0.1,0.7,0.2,1.1
			c0.1,0.3,0.3,0.6,0.6,0.9s0.5,0.4,0.9,0.6c0.3,0.1,0.7,0.2,1,0.2h5.4c1.1,0,2.2,0.2,3.1,0.6c1,0.4,1.8,1,2.6,1.7
			c0.7,0.7,1.3,1.6,1.7,2.6s0.6,2,0.6,3.1s-0.2,2.2-0.6,3.1s-1,1.8-1.7,2.6c-0.7,0.7-1.6,1.3-2.6,1.7s-2,0.6-3.1,0.6h-11.9v-5.4
			h11.9c0.4,0,0.7-0.1,1-0.2c0.3-0.1,0.6-0.3,0.9-0.6c0.2-0.2,0.4-0.5,0.6-0.9c0.1-0.3,0.2-0.7,0.2-1c0-0.4-0.1-0.7-0.2-1
			c-0.1-0.3-0.3-0.6-0.6-0.9c-0.2-0.2-0.5-0.4-0.9-0.6c-0.3-0.1-0.7-0.2-1-0.2h-5.4c-1.1,0-2.2-0.2-3.1-0.6c-1-0.4-1.8-1-2.6-1.7
			s-1.3-1.6-1.7-2.6C180.5,210.1,180.3,209.1,180.3,208z"/>
		<path class="st16" d="M229.6,224c-1.2,1.1-2.6,1.9-4.2,2.4c-1.5,0.6-3.1,0.9-4.8,0.9c-1.3,0-2.5-0.2-3.7-0.5s-2.3-0.8-3.3-1.4
			s-2-1.3-2.8-2.2s-1.6-1.8-2.2-2.8c-0.6-1-1.1-2.1-1.4-3.3c-0.3-1.2-0.5-2.4-0.5-3.7s0.2-2.5,0.5-3.7s0.8-2.3,1.4-3.3
			c0.6-1,1.3-2,2.2-2.8c0.8-0.8,1.8-1.6,2.8-2.2c1-0.6,2.1-1.1,3.3-1.4c1.2-0.3,2.4-0.5,3.7-0.5c1.7,0,3.3,0.3,4.8,0.9
			c1.5,0.6,2.9,1.4,4.2,2.4l-2.8,4.7c-0.8-0.8-1.7-1.5-2.8-1.9c-1.1-0.5-2.2-0.7-3.4-0.7s-2.3,0.2-3.3,0.7c-1,0.4-1.9,1.1-2.7,1.8
			c-0.8,0.8-1.4,1.7-1.8,2.7c-0.4,1-0.7,2.1-0.7,3.3s0.2,2.3,0.7,3.3c0.4,1,1.1,1.9,1.8,2.7c0.8,0.8,1.7,1.4,2.7,1.8
			c1,0.4,2.1,0.7,3.3,0.7c0.7,0,1.3-0.1,2-0.2s1.2-0.4,1.8-0.7v-7.6h5.2V224z"/>
		<path class="st16" d="M258.1,226.8h-5.7L242,209.1v17.7h-5.4v-26.9h5.7l10.4,17.7v-17.7h5.4V226.8z"/>
	</g>
</g>
</svg>
