<svg id="Layer_1" data-name="Layer 1" xmlns="http://www.w3.org/2000/svg" viewBox="0 0 100 100"><defs><style>.cls-1{fill:#f9c3dc;}.cls-2{fill:#1a6071;}</style></defs><path class="cls-1" d="M46.3,26.6A23.35,23.35,0,1,1,22.9,50h0A23.49,23.49,0,0,1,46.3,26.6m0-21.5a44.9,44.9,0,1,0,44.8,45V50A44.9,44.9,0,0,0,46.3,5.1Z"/><path class="cls-2" d="M63.36,24.21c9.53,0,19.06,0,28.59,0a11.57,11.57,0,0,1,3.88.64A5,5,0,0,1,99,31.19a12,12,0,0,1-1.62,3.33Q86.78,50.1,76.11,65.63a3.28,3.28,0,0,0-.61,2q0,13.25,0,26.48a8.21,8.21,0,0,1-.3,2.32,3.61,3.61,0,0,1-5,2.39,9.78,9.78,0,0,1-2-1.21C63.32,94,58.5,90.44,53.65,86.89A6,6,0,0,1,51,81.68c0-4.55,0-9.1.06-13.65a4.47,4.47,0,0,0-.86-2.78q-10.53-15.37-21-30.78A12.22,12.22,0,0,1,27.9,32a5.37,5.37,0,0,1,4.2-7.54,11.52,11.52,0,0,1,2.34-.22Q48.9,24.19,63.36,24.21ZM71.47,95c0-.47.06-.82.06-1.16q0-13.29,0-26.57a6.38,6.38,0,0,1,1.15-3.73q10.72-15.65,21.4-31.31a8.84,8.84,0,0,0,1-1.93,1.25,1.25,0,0,0-.91-1.84,5.93,5.93,0,0,0-1.82-.3q-29,0-58,0a6.25,6.25,0,0,0-1.83.29,1.25,1.25,0,0,0-1,1.82,8,8,0,0,0,.95,1.87Q43.22,47.95,54,63.7a5.8,5.8,0,0,1,1.06,3.42c0,4.8,0,9.59,0,14.38a2.56,2.56,0,0,0,1.17,2.32c4.73,3.44,9.43,6.92,14.14,10.39Z"/></svg>