<svg id="Layer_1" data-name="Layer 1" xmlns="http://www.w3.org/2000/svg" viewBox="0 0 100 100"><defs><style>.cls-1{fill:#f9c3dc;}.cls-2{fill:#51a0a8;stroke:#51a0a8;stroke-miterlimit:10;stroke-width:2px;}</style></defs><path class="cls-1" d="M46.3,26.6A23.35,23.35,0,1,1,22.9,50h0A23.49,23.49,0,0,1,46.3,26.6m0-21.5a44.9,44.9,0,1,0,44.8,45V50A44.9,44.9,0,0,0,46.3,5.1Z"/><path class="cls-2" d="M62.28,23.25H90.87a11.61,11.61,0,0,1,3.88.64,5,5,0,0,1,3.18,6.32v0a11.82,11.82,0,0,1-1.62,3.33Q85.71,49.15,75,64.67a3.35,3.35,0,0,0-.61,2V93.15a8.21,8.21,0,0,1-.3,2.32,3.61,3.61,0,0,1-4.39,2.61,3.42,3.42,0,0,1-.61-.22,9.52,9.52,0,0,1-2-1.21c-4.88-3.61-9.7-7.17-14.55-10.72a6,6,0,0,1-2.65-5.21c0-4.55,0-9.1.06-13.65a4.43,4.43,0,0,0-.86-2.78q-10.53-15.36-21-30.78A12.65,12.65,0,0,1,26.82,31,5.39,5.39,0,0,1,31,23.5a12.28,12.28,0,0,1,2.34-.22Q47.82,23.24,62.28,23.25ZM70.39,94c0-.47.06-.82.06-1.16V66.31a6.47,6.47,0,0,1,1.15-3.73Q82.33,46.94,93,31.27a8.22,8.22,0,0,0,1-1.93,1.24,1.24,0,0,0-.49-1.7,1.48,1.48,0,0,0-.42-.14,6.19,6.19,0,0,0-1.82-.3h-58a6.72,6.72,0,0,0-1.83.29,1.25,1.25,0,0,0-1.13,1.36,1.22,1.22,0,0,0,.13.46,8.44,8.44,0,0,0,.95,1.87Q42.15,47,52.92,62.74A5.75,5.75,0,0,1,54,66.16V80.54a2.56,2.56,0,0,0,1.17,2.32c4.73,3.44,9.43,6.92,14.14,10.39Z"/></svg>