<svg id="Layer_1" data-name="Layer 1" xmlns="http://www.w3.org/2000/svg" viewBox="0 0 156.56 105.29"><defs><style>.cls-1{fill:#a3c9a8;}.cls-2{fill:#2e86ab;}.cls-3{fill:#fff;}.cls-4{fill:#ccc;}.cls-5{fill:#1a1a1a;}</style></defs><rect class="cls-1" x="41.69" y="2.07" width="49.69" height="32.8" rx="8.52" transform="translate(133.06 36.94) rotate(-180)"/><path class="cls-2" d="M55.94,60.31a3.15,3.15,0,0,1-.69-2.59c.26-1.62.48-2.83,2.2-3.35S61,53.69,61.66,52a11,11,0,0,0-.18-3.18C61.13,46.54,60,40.45,60,40.45a4.77,4.77,0,0,1,2.83-4.4,15.83,15.83,0,0,1,5.79-1.46,38.89,38.89,0,0,1,6.29.76c1.82.55,2,3.14,2,4.2s0,2.22,0,2.22l-9.4,6.72a6.25,6.25,0,0,1,2.44,4c.59,2.86-.07,5.63-1.83,6.73s-5.91,1.5-9-.55Z"/><path class="cls-2" d="M86,98.54l-15.67.17s2.66-3.35,2.93-5.4C73.26,93.31,85.06,98.4,86,98.54Z"/><polygon class="cls-3" points="135.26 63.73 132.54 62.29 94.35 62.29 92.14 63.17 90.78 64.93 81.97 91.19 81.6 93.24 81.82 94.94 82.98 96.89 84.25 97.94 85.64 98.53 88.05 98.53 125.49 98.74 135.26 63.73"/><path class="cls-2" d="M22.23,95.18c0,3.64,4,4,4,4l.16,1.65a11.14,11.14,0,0,0,4.4.58,11.2,11.2,0,0,0,4.4-.58V90.79S34.6,90,31,90s-4.68.67-4.68.67v.46C24.5,91.45,22.23,91.53,22.23,95.18Zm1.37-.76c.11-2.2,2.66-1.86,2.66-1.86v5.23S23.46,97,23.6,94.42Z"/><path class="cls-2" d="M18.31,31H46.23A5.08,5.08,0,0,1,51.29,36V54.73L45.2,48.64H18.31a5.07,5.07,0,0,1-5.06-5.06V36A5.07,5.07,0,0,1,18.31,31Z"/><polygon class="cls-1" points="118.3 41.63 120.85 34.43 135.26 34.43 131.66 44.61 117.46 44.61 118.3 41.63"/><path class="cls-2" d="M89.48,98.71h35.79a5.45,5.45,0,0,0,5.19-3.59L139,70.61a5.27,5.27,0,0,0-5.19-6.88H98a5.44,5.44,0,0,0-5.19,3.59L84.29,91.83A5.27,5.27,0,0,0,89.48,98.71Z"/><path class="cls-1" d="M73.06,56.73s6.91,1,9.92,4.89a69.19,69.19,0,0,1,5.6,9.1L82.05,90.94s-.7-1.57-1.23-1.65a4,4,0,0,0-2.76.63,4.24,4.24,0,0,0-3.86.49,7.6,7.6,0,0,0-4.13.78C68.12,92.26,66.41,93,66.41,93s-.19,3.9,2.44,5.61l-25.13.1s-1.94-4.08-1.66-7.53,1.38-9.87,2.83-12.92,3-7.2,5-10.2a43.51,43.51,0,0,1,5.55-7.25l3.45-2.15S62.72,60.5,65.63,60s3.08-1.24,3.08-1.24,2.1,3.08,3.38,2.89S73.06,56.73,73.06,56.73Z"/><path class="cls-3" d="M30.84,90.63c2,0,3.55.33,3.55.73l-3.55.2-3.55-.2C27.29,91,28.88,90.63,30.84,90.63Z"/><path class="cls-3" d="M75.72,37.85s.88,3,1,3.74.14,4.83.27,6.11S76.5,53.39,73.38,53l-.32,3.71s.33,4.84-1,4.93-3.38-2.89-3.38-2.89a5.61,5.61,0,0,0,1.48-4.23,7.46,7.46,0,0,0-3-6s1-2.48.23-4c0,0,3.36-.55,4.93-2A10.21,10.21,0,0,0,75.72,37.85Z"/><path class="cls-3" d="M66.29,93.07a26,26,0,0,1,4.46-2.19,6.86,6.86,0,0,1,3.17-.47,13.82,13.82,0,0,1,2.4-.73A3.27,3.27,0,0,1,78,90a3,3,0,0,1,1.81-.7,2.34,2.34,0,0,1,2.29,1.64,7.22,7.22,0,0,0-.45,2.74c.17,1,.83,3.58,2.66,4.26,0,0-1.08,1.35-2.68-.08,0,0-1.08,1.07-3.83.85,0,0-2.27.19-3-.58A14.44,14.44,0,0,1,73,95.66a3.78,3.78,0,0,1-3.82,3.08A4,4,0,0,1,67.1,96.5,7.82,7.82,0,0,1,66.29,93.07Z"/><path class="cls-3" d="M112.44,81c-1.09,1.89-1,4,.28,4.72s3.13-.24,4.22-2.12,1-4-.28-4.72S113.53,79.07,112.44,81Z"/><polygon class="cls-1" points="116.59 45.83 97.42 45.83 92.64 59.34 111.75 59.34 116.59 45.83"/><path class="cls-3" d="M43,37.69a2.31,2.31,0,1,0,2.31-2.31A2.31,2.31,0,0,0,43,37.69Z"/><circle class="cls-3" cx="34.3" cy="37.69" r="2.31"/><circle class="cls-3" cx="22.81" cy="37.69" r="2.31"/><polygon class="cls-3" points="69.11 24.82 62.39 13.31 61.34 12.31 60.56 12.19 59.61 12.78 52.38 25.02 52.11 26.12 52.77 27.22 53.51 27.54 68.36 27.43 69.11 26.99 69.48 26.12 69.11 24.82"/><path class="cls-2" d="M75.19,52.59s2,2.62.3,4.61l-2.43-.47L73.38,53A3.72,3.72,0,0,0,75.19,52.59Z"/><path class="cls-4" d="M62.19,46c0,2.16,1.23,3.91,2.75,3.91S67.69,48.2,67.69,46s-1.23-3.91-2.75-3.91S62.19,43.88,62.19,46Z"/><path class="cls-3" d="M62.47,46.14c0,2.11.87,3.81,1.94,3.81s2-1.7,2-3.81-.87-3.8-2-3.8S62.47,44,62.47,46.14Z"/><path class="cls-1" d="M65.73,42.09S66,38.32,68,36.7a8.44,8.44,0,0,1,4.78-1.86,2.63,2.63,0,0,0-1.88-.59,7.24,7.24,0,0,0-4.39,1.58c-1.4,1.08-2.34,3.61-2.12,6.1Z"/><path class="cls-2" d="M66.41,93s4.33-2.5,6.06-2.55l1.45,0s3.17-1.3,3.83-.68a7.43,7.43,0,0,0-6.25-2.68C67.48,87.37,66.4,92.45,66.41,93Z"/><path class="cls-5" d="M128.06,32.29a.22.22,0,0,1-.14-.28,13,13,0,0,0,.61-2.38.21.21,0,0,1,.25-.18.21.21,0,0,1,.18.24,8,8,0,0,1-.83,2.61Zm.65-5.12a14.34,14.34,0,0,0-.26-2.45.22.22,0,0,1,.17-.26.24.24,0,0,1,.26.18,14.17,14.17,0,0,1,.26,2.52.22.22,0,0,1-.43,0Zm-1-4.82a12.47,12.47,0,0,0-.71-1.53c-.12-.23-.25-.45-.38-.67a.21.21,0,0,1,.06-.3.22.22,0,0,1,.3.07c.15.23.28.46.4.69a12.78,12.78,0,0,1,.74,1.59c0,.11,0,.23-.2.29A.23.23,0,0,1,127.76,22.35Zm-17.91-1.46a.21.21,0,0,1,.12-.28.22.22,0,0,1,.28.13,1.18,1.18,0,0,0,1.07.86,1.59,1.59,0,0,0,.66-.16.22.22,0,0,1,.29.11.23.23,0,0,1-.11.29,2,2,0,0,1-.84.19A1.56,1.56,0,0,1,109.85,20.89Zm4-.7a.22.22,0,0,1,0-.31,6.38,6.38,0,0,0,1-2.19.22.22,0,0,1,.27-.15.22.22,0,0,1,.15.26,5.77,5.77,0,0,1-1.25,2.43A.25.25,0,0,1,113.81,20.19Zm-3.73-1.62a.22.22,0,0,1-.12-.29,4.12,4.12,0,0,1,1-1.53q.28-.26.57-.48a.22.22,0,1,1,.27.34,6,6,0,0,0-.54.46,6.8,6.8,0,0,0-1.14,1.51Zm15.08-.36a12.13,12.13,0,0,0-1.86-1.59.22.22,0,0,1-.06-.31.21.21,0,0,1,.3,0,12,12,0,0,1,1.93,1.65c.09.09.08.23-.15.37A.2.2,0,0,1,125.16,18.21ZM115,15.07a7.83,7.83,0,0,0-1.07.34.22.22,0,0,1-.16-.4,9.89,9.89,0,0,1,1.2-.39,11,11,0,0,0-.29-1.78.23.23,0,0,1,.16-.26.22.22,0,0,1,.27.16,12.14,12.14,0,0,1,.29,1.79,7.93,7.93,0,0,1,.85-.14.22.22,0,0,1,0,.43c-.29,0-.58.08-.87.14,0,.1,0,.2,0,.3a.22.22,0,0,1-.22.22C115.13,15.48,115,15.39,115,15.07Zm6.11.38a11.73,11.73,0,0,0-1.27-.41,9.31,9.31,0,0,0-1.1-.21.2.2,0,0,1-.18-.24.22.22,0,0,1,.24-.19,10.62,10.62,0,0,1,1.15.22,11.27,11.27,0,0,1,1.32.43c.11,0,.16.17-.08.42Zm-7.28-4.9a7.16,7.16,0,0,0-1.44-2c-.09-.08-.07-.19,0-.28a.26.26,0,0,1,.33,0,7.33,7.33,0,0,1,1.48,2c0,.1,0,.23-.2.31A.23.23,0,0,1,113.86,10.55ZM110.52,7a21,21,0,0,0-2.06-1.37.22.22,0,0,1,.21-.38,20.82,20.82,0,0,1,2.11,1.4c.1.08.12.21-.13.4A.21.21,0,0,1,110.52,7ZM94.09,5.47a.22.22,0,0,1,.08-.3,14.56,14.56,0,0,1,2.28-1.11.22.22,0,0,1,.28.13.21.21,0,0,1-.12.28,16.3,16.3,0,0,0-2.33,1.11A.21.21,0,0,1,94.09,5.47Zm12.14-.9a13.84,13.84,0,0,0-2.36-.71.22.22,0,0,1-.17-.25.22.22,0,0,1,.26-.17,13.73,13.73,0,0,1,2.43.72c.12,0,.17.17-.08.42Zm-7.5-.94a.2.2,0,0,1,.17-.25,14.11,14.11,0,0,1,2.53-.22.22.22,0,0,1,.22.22c0,.12-.08.21-.37.22a13.48,13.48,0,0,0-2.34.21A.21.21,0,0,1,98.73,3.63Z"/><path class="cls-3" d="M66.53,43.19c5.27,0,7.33-7.32,7.52-8,.3.06.58.12.81.19,1.82.55,2,3.14,2,4.2s0,2.22,0,2.22L69,47.42C66.35,45.88,62.63,43.21,66.53,43.19Z"/><path class="cls-3" d="M68,55.09a7.87,7.87,0,0,0-1.42-5.9,28.14,28.14,0,0,1-1.28-3.86c.08-.24,4,.12,6.11.34l-4,2.82a6.25,6.25,0,0,1,2.44,4c.59,2.86-.07,5.63-1.83,6.73a8.49,8.49,0,0,1-5.35.8A5.91,5.91,0,0,0,68,55.09Z"/><path class="cls-3" d="M73.81,53a2.7,2.7,0,0,0,1.38-.41s2,2.62.3,4.61l-1.4-.27A3.93,3.93,0,0,0,73.81,53Z"/><path class="cls-5" d="M31.41,85.73c-2.38-.07-3.36-1.23-3.76-2.19A5.72,5.72,0,0,1,28.81,78s.84-.94,0-3.32a4.78,4.78,0,0,1,.32-4.09,4.1,4.1,0,0,1,3.15-1.76,4,4,0,0,1,3.53,1.3,4.46,4.46,0,0,1,1,3.93,6.47,6.47,0,0,0,0,4.19,6.9,6.9,0,0,1-1,5.64,5.07,5.07,0,0,1-4.28,1.9Zm1-16.52a3.69,3.69,0,0,0-2.83,1.56,4.35,4.35,0,0,0-.27,3.72c.87,2.62-.09,3.71-.13,3.76a5.27,5.27,0,0,0-1.09,5.12,3.43,3.43,0,0,0,3.38,1.93,4.75,4.75,0,0,0,4.18-1.73,6.46,6.46,0,0,0,.91-5.24c-.58-1.91-.44-2.59,0-4.66a4,4,0,0,0-1-3.3,3.52,3.52,0,0,0-2.69-1.18A3.77,3.77,0,0,0,32.37,69.21Z"/><path class="cls-5" d="M36.4,64c0-1.42.76-2.53,1.73-2.53s1.73,1.11,1.73,2.53-.76,2.54-1.73,2.54S36.4,65.4,36.4,64Zm.43,0c0,1.14.6,2.1,1.3,2.1s1.3-1,1.3-2.1-.6-2.1-1.3-2.1S36.83,62.84,36.83,64Z"/><path class="cls-5" d="M26.31,98a.23.23,0,0,0,.22-.17.22.22,0,0,0-.17-.26,3.27,3.27,0,0,1-2.54-2.86,1.71,1.71,0,0,1,.46-1.41,2.89,2.89,0,0,1,2-.54.24.24,0,0,0,.24-.19.22.22,0,0,0-.2-.24A3.24,3.24,0,0,0,24,93a2.11,2.11,0,0,0-.59,1.75A3.74,3.74,0,0,0,26.27,98Z"/><path class="cls-5" d="M26.22,99.42a.21.21,0,0,0,.21-.2.2.2,0,0,0-.19-.23c-.17,0-4-.45-3.78-4.2a3.56,3.56,0,0,1,1.17-2.63,3.75,3.75,0,0,1,2.6-.74.22.22,0,0,0,.24-.2.22.22,0,0,0-.19-.24,4.26,4.26,0,0,0-2.93.84A4,4,0,0,0,22,94.75c-.3,4.18,4.13,4.67,4.18,4.67Z"/><path class="cls-5" d="M26.1,100.73a.23.23,0,0,1,.21-.24.19.19,0,0,1,.21.19c.17.22,1.78.53,4.26.53s4-.3,4.19-.51a.21.21,0,0,1,.21-.19.22.22,0,0,1,.22.22c0,.87-3.85.92-4.62.92S26.1,101.6,26.1,100.73Z"/><path class="cls-5" d="M35.18,101a.22.22,0,0,0,.22-.22V90.79a.21.21,0,0,0-.22-.21.21.21,0,0,0-.21.21v9.94A.21.21,0,0,0,35.18,101Z"/><path class="cls-5" d="M26.31,101a.22.22,0,0,0,.22-.22v-10a.22.22,0,1,0-.43,0v10A.21.21,0,0,0,26.31,101Z"/><path class="cls-5" d="M26.1,90.79c0-1,4.46-1.05,4.65-1.05s4.65,0,4.65,1.05-4.46,1.06-4.65,1.06S26.1,91.84,26.1,90.79Zm4.65-.62c-2.6,0-4.11.41-4.22.6.11.23,1.62.64,4.22.64s4-.39,4.21-.62C34.78,90.56,33.28,90.17,30.75,90.17Z"/><path class="cls-5" d="M56.11,60.52c.25-.21.22-.34.11-.4-.85-.5-.82-1.78-.73-2.5A3.59,3.59,0,0,1,57,54.86a4.5,4.5,0,0,1,.62-.32,10.44,10.44,0,0,1,1.23-.37,5.25,5.25,0,0,0,2.39-1.08A2.73,2.73,0,0,0,62,50.64c-.85-6.3-1.7-9.83-1.79-10.21a4.85,4.85,0,0,1,2.27-3.91,13.11,13.11,0,0,1,6.72-1.71.21.21,0,0,0,.21-.22.21.21,0,0,0-.21-.21,13.47,13.47,0,0,0-7,1.77,5.31,5.31,0,0,0-2.47,4.29c0,.1.91,3.64,1.8,10.25a2.32,2.32,0,0,1-.6,2.08,5,5,0,0,1-2.21,1,9.45,9.45,0,0,0-1.28.39,4.44,4.44,0,0,0-.69.35,4,4,0,0,0-1.7,3.07c-.18,1.43.16,2.47,1,2.93Z"/><path class="cls-5" d="M76.78,41.52a.21.21,0,0,0,.21-.2C77.66,35.49,74.5,35,74.37,35a7.88,7.88,0,0,0-1.17-.29.21.21,0,0,0-.26.17.23.23,0,0,0,.18.26,6.51,6.51,0,0,1,1.14.28c.16,0,2.92.51,2.3,5.91a.23.23,0,0,0,.19.24Z"/><path class="cls-5" d="M48.62,94.47c7.1-6.13,22.73-7.13,22.89-7.14a.23.23,0,0,0,.21-.23.26.26,0,0,0-.23-.21c-.16,0-15.94,1-23,7.2a.22.22,0,0,0,0,.31A.2.2,0,0,0,48.62,94.47Z"/><path class="cls-5" d="M43.57,98.76c.21-.08.25-.21.2-.32-4.54-8.77,2.36-24,6.64-30.85a43.75,43.75,0,0,1,3.72-5.26,15.84,15.84,0,0,1,4.93-3.48.21.21,0,0,0,.09-.29.22.22,0,0,0-.29-.1A16.48,16.48,0,0,0,53.8,62,45.21,45.21,0,0,0,50,67.36c-4.64,7.42-11.27,22.35-6.66,31.28A.24.24,0,0,0,43.57,98.76Z"/><path class="cls-5" d="M88.58,70.94c.19-.06.24-.19.2-.3l-.24-.57c-3.34-7.71-7.79-12-13.62-13.22l-1.82-.33L73,57l1.81.33c5.75,1.17,10,5.29,13.3,13l.24.57A.21.21,0,0,0,88.58,70.94Z"/><path class="cls-5" d="M73.39,53.24a4.23,4.23,0,0,0,1.29-.18A2.91,2.91,0,0,0,76.58,51a15.52,15.52,0,0,0,.49-5.16c0-1.15,0-2-.07-3l0-1.41c0-.23-.17-.3-.29-.26a.22.22,0,0,0-.14.28l0,1.4c0,.91.06,1.81.07,2.72a16.19,16.19,0,0,1-.46,5.25,2.54,2.54,0,0,1-1.62,1.8,4.57,4.57,0,0,1-1.76.13c-.71-.07-1.76-.19-2.49-.34a.22.22,0,1,0-.09.43,25.5,25.5,0,0,0,2.55.34Z"/><path class="cls-5" d="M67.46,44.7c5.84-1.07,7.63-4.65,8.16-6.36.21.85.55,2.13.9,3.14a.21.21,0,0,0,.27.14.22.22,0,0,0,.14-.28c-.56-1.62-1.1-4-1.1-4a.26.26,0,0,0-.23-.17.22.22,0,0,0-.2.2c0,.23-.63,5.54-8,6.9a.22.22,0,0,0-.18.25A.21.21,0,0,0,67.46,44.7Z"/><path class="cls-5" d="M71.26,43.84c.17,0,.29,0,.34.68s-.13.82-.28.81-.32-.22-.31-.72S71,43.88,71.26,43.84Z"/><path class="cls-5" d="M76.09,43.56c.17,0,.29,0,.36.66s-.1.83-.26.83-.32-.22-.33-.71S75.86,43.6,76.09,43.56Z"/><path class="cls-5" d="M76.72,42.3c.25-.16.24-.3.15-.38a1.69,1.69,0,0,0-1.67-.28.22.22,0,1,0,.11.42,1.25,1.25,0,0,1,1.27.19A.19.19,0,0,0,76.72,42.3Z"/><path class="cls-5" d="M72,61.88c1.52-.53,1.33-4.39,1.28-5.16l.19-3.64a.21.21,0,0,0-.2-.22.22.22,0,0,0-.23.2l-.19,3.66c.11,1.69,0,4.42-.73,4.7S69.77,60,68.76,58.69a.22.22,0,0,0-.35.27C68.82,59.48,70.8,61.88,72,61.88Z"/><path class="cls-5" d="M75.57,57.22c1.83-2.42-.32-4.7-.34-4.72a.22.22,0,0,0-.31,0,.2.2,0,0,0,0,.3c.07.09,1.92,2,.48,4.07a.22.22,0,0,0,0,.31A.28.28,0,0,0,75.57,57.22Z"/><path class="cls-5" d="M64.81,60.31a6.16,6.16,0,0,0,3.11-.74c1.52-.89,2.36-2.56,2.51-5a7.7,7.7,0,0,0-3.07-6.28.22.22,0,1,0-.26.35A7.25,7.25,0,0,1,70,54.58c-.14,2.25-.92,3.8-2.3,4.61-3.18,1.87-8.59-.7-8.65-.73a.23.23,0,0,0-.29.1.22.22,0,0,0,.1.29A15.75,15.75,0,0,0,64.81,60.31Z"/><path class="cls-5" d="M57.46,89.94a.22.22,0,0,0,.22-.23c-.75-7.55,3.46-20.08,3.5-20.21a.21.21,0,0,0-.13-.27.22.22,0,0,0-.28.13c0,.13-4.28,12.76-3.52,20.39A.21.21,0,0,0,57.46,89.94Z"/><path class="cls-5" d="M73.22,49.74a2.64,2.64,0,0,0,.65-.1.21.21,0,0,0,.15-.27.22.22,0,0,0-.26-.15,1.36,1.36,0,0,1-1.19-.11A1.58,1.58,0,0,1,72,48.05a.21.21,0,0,0-.24-.2.23.23,0,0,0-.2.24,2.1,2.1,0,0,0,.76,1.38A1.54,1.54,0,0,0,73.22,49.74Z"/><path class="cls-5" d="M53.32,37.91H60.8A.21.21,0,0,0,61,37.7a.22.22,0,0,0-.22-.22H53.32a.21.21,0,0,0-.21.22A.21.21,0,0,0,53.32,37.91Z"/><path class="cls-5" d="M76.87,37.91h3.34a9.09,9.09,0,0,0,9.08-9.08V13.76a9.09,9.09,0,0,0-9.08-9.09H48.26a9.1,9.1,0,0,0-9.09,9.09V28.83a.21.21,0,0,0,.22.21.21.21,0,0,0,.21-.21V13.76a8.67,8.67,0,0,1,8.66-8.65H80.21a8.66,8.66,0,0,1,8.65,8.65V28.83a8.66,8.66,0,0,1-8.65,8.65H76.87a.22.22,0,0,0-.22.22A.21.21,0,0,0,76.87,37.91Z"/><path class="cls-5" d="M55.54,28.28a2.09,2.09,0,0,1,.2-2.14l6.72-11.51a1.9,1.9,0,0,1,3.55,0l6.72,11.51a2.13,2.13,0,0,1,.2,2.14,2.12,2.12,0,0,1-2,.9H57.48A2.11,2.11,0,0,1,55.54,28.28Zm7.29-13.43L56.11,26.36a1.68,1.68,0,0,0-.19,1.7,1.7,1.7,0,0,0,1.56.69H71a1.73,1.73,0,0,0,1.57-.69,1.71,1.71,0,0,0-.2-1.7L65.64,14.85a1.48,1.48,0,0,0-2.81,0Z"/><path class="cls-5" d="M111.87,84c-1.34-.78-1.5-3-.36-5a5.33,5.33,0,0,1,2.15-2.12,2.47,2.47,0,0,1,2.37-.08c1.35.78,1.51,3,.36,5a4.45,4.45,0,0,1-3.49,2.46A2,2,0,0,1,111.87,84Zm2-6.75a4.91,4.91,0,0,0-2,1.95c-1,1.78-.94,3.76.2,4.42s2.9-.26,3.92-2,.94-3.76-.19-4.42A1.64,1.64,0,0,0,115,77,2.52,2.52,0,0,0,113.86,77.29Z"/><path class="cls-5" d="M9,98.93H24.54a.22.22,0,0,0,0-.44H9a.22.22,0,0,0,0,.44Z"/><path class="cls-5" d="M35.18,98.93H152.82a.22.22,0,0,0,0-.44H35.18a.22.22,0,0,0,0,.44Z"/><path class="cls-5" d="M87.05,98.93a.22.22,0,0,0,0-.44,5.24,5.24,0,0,1-5-6.9L90.55,66a5.26,5.26,0,0,1,5-3.6h35.79a5,5,0,0,1,1.16.13.22.22,0,0,0,.1-.43,5.92,5.92,0,0,0-1.26-.13H95.54a5.67,5.67,0,0,0-5.4,3.89L81.65,91.45a5.69,5.69,0,0,0,5.4,7.48Z"/><path class="cls-5" d="M84.78,96.55a5.23,5.23,0,0,1-.69-4.79l8.48-24.52A5.68,5.68,0,0,1,98,63.51h35.79a5.76,5.76,0,0,1,4.7,2.38,5.23,5.23,0,0,1,.7,4.79l-8.49,24.51a5.65,5.65,0,0,1-5.4,3.74H89.48A5.78,5.78,0,0,1,84.78,96.55ZM98,64a5.24,5.24,0,0,0-5,3.44L84.5,91.9a4.76,4.76,0,0,0,.64,4.39,5.31,5.31,0,0,0,4.34,2.2h35.79a5.23,5.23,0,0,0,5-3.44l8.49-24.51a4.81,4.81,0,0,0-.65-4.4A5.32,5.32,0,0,0,133.76,64Z"/><path class="cls-5" d="M76.56,98.93a1.81,1.81,0,0,0,1.66-.66c.52-.86-.2-2.24-.77-3.35-.12-.23-.23-.44-.32-.63s-.19-.43-.29-.69c-.6-1.54-1.5-3.88-4.69-3.33a23.68,23.68,0,0,0-5.87,2.55.22.22,0,0,0,0,.31.21.21,0,0,0,.3.05,23.57,23.57,0,0,1,5.71-2.48c2.82-.49,3.62,1.56,4.2,3.06.1.26.2.51.3.72s.2.41.32.64c.5,1,1.18,2.28.79,2.92q-.28.45-1.29.45c-2.91,0-3.4-3.64-3.4-3.68a.22.22,0,0,0-.44,0C72.72,95.32,73.48,98.93,76.56,98.93Z"/><path class="cls-5" d="M79.14,98.93c1.75-.12,2.35-.73,2.55-1.23a1.82,1.82,0,0,0-.46-1.86,9,9,0,0,1-1-2.16,12.58,12.58,0,0,0-1.87-3.62c-1.44-1.57-4.4.09-4.52.16a.21.21,0,0,0-.08.3.22.22,0,0,0,.29.08s2.78-1.56,4-.25a12.14,12.14,0,0,1,1.78,3.49,8.88,8.88,0,0,0,1.1,2.29,1.44,1.44,0,0,1,.39,1.41c-.22.55-1,.88-2.16.95a.22.22,0,0,0,0,.44Z"/><path class="cls-5" d="M68.87,98.93c4.13-.2,4.42-3.38,4.42-3.41a.21.21,0,0,0-.2-.23.23.23,0,0,0-.24.2c0,.11-.26,2.83-3.78,3a3,3,0,0,1-.61,0,.23.23,0,0,0-.25.19.22.22,0,0,0,.19.24A3.59,3.59,0,0,0,68.87,98.93Z"/><path class="cls-5" d="M69,98.93c.24-.2.22-.34.12-.4a6.1,6.1,0,0,1-2.57-6.08,5.92,5.92,0,0,1,6.63-5.11,7.35,7.35,0,0,1,4.41,2.54.23.23,0,0,0,.31,0,.22.22,0,0,0,0-.31,7.77,7.77,0,0,0-4.67-2.67,6.36,6.36,0,0,0-7.12,5.47,6.53,6.53,0,0,0,2.76,6.51A.17.17,0,0,0,69,98.93Z"/><path class="cls-5" d="M82,91.25c.17,0,.24-.16.21-.27a3,3,0,0,0-1.45-1.87c-1.33-.56-2.85.67-2.92.72a.22.22,0,0,0,.28.34s1.39-1.12,2.47-.66a2.67,2.67,0,0,1,1.2,1.58A.21.21,0,0,0,82,91.25Z"/><path class="cls-5" d="M83.11,98.69a2.71,2.71,0,0,0,1.32-.37.22.22,0,0,0-.22-.38,2,2,0,0,1-2.59-.37.21.21,0,0,0-.3,0,.22.22,0,0,0,0,.31A2.57,2.57,0,0,0,83.11,98.69Z"/><path class="cls-5" d="M64.48,50.17H65c1.61,0,2.91-1.86,2.91-4.13S66.6,41.91,65,41.91h-.37a.22.22,0,0,0-.22.22.21.21,0,0,0,.22.21H65c1.37,0,2.48,1.66,2.48,3.7S66.36,49.73,65,49.73h-.51a.22.22,0,0,0,0,.44Z"/><path class="cls-5" d="M62.07,46c0-2.32,1-4.13,2.34-4.13s2.34,1.81,2.34,4.13-1,4.13-2.34,4.13S62.07,48.35,62.07,46Zm.43,0c0,2,.88,3.69,1.91,3.69S66.31,48,66.31,46s-.87-3.7-1.9-3.7S62.5,44,62.5,46Z"/><path class="cls-5" d="M76.86,49.51A4.06,4.06,0,0,0,78.23,46,4.37,4.37,0,0,0,77,42.68a.22.22,0,1,0-.29.32,4,4,0,0,1,1.07,3,3.9,3.9,0,0,1-1.07,3.09.22.22,0,0,0,0,.31A.2.2,0,0,0,76.86,49.51Z"/><path class="cls-5" d="M65.73,42.3a.22.22,0,0,0,.22-.22,6.32,6.32,0,0,1,1.59-4.74,8.54,8.54,0,0,1,5.37-2.29c.06-.44-1.46-1.57-3.64-.68-.48.07-5.48.88-5.25,7.73a.22.22,0,0,0,.22.2.22.22,0,0,0,.22-.22c-.23-6.75,4.83-7.27,4.88-7.28a3.79,3.79,0,0,1,2.8-.11A8.42,8.42,0,0,0,67.22,37a6.73,6.73,0,0,0-1.7,5.06A.21.21,0,0,0,65.73,42.3Z"/><path class="cls-5" d="M81.12,89.82C85,76.34,82.09,68,82.06,68a.22.22,0,1,0-.41.15c0,.08,2.9,8.26-.74,21.44a.22.22,0,0,0,.15.27Z"/><path class="cls-5" d="M135.68,64.27c.24-.21.21-.34.1-.4l-3.14-1.77a.21.21,0,0,0-.29.08.23.23,0,0,0,.08.3l3.14,1.76A.2.2,0,0,0,135.68,64.27Z"/><path class="cls-5" d="M18.39,55.88a1,1,0,1,1,.95-1A.95.95,0,0,1,18.39,55.88Z"/><path class="cls-5" d="M11,55.93a1,1,0,1,1,1-1A1,1,0,0,1,11,55.93Z"/><path class="cls-5" d="M3.66,55.86a.93.93,0,1,1,0-1.85.93.93,0,0,1,0,1.85Z"/><path class="cls-5" d="M18.39,63.29a1,1,0,1,1,1-1A1,1,0,0,1,18.39,63.29Z"/><path class="cls-5" d="M11,63.34a1,1,0,0,1,0-2.09,1,1,0,1,1,0,2.09Z"/><path class="cls-5" d="M3.66,63.27a1,1,0,1,1,1-1A1,1,0,0,1,3.66,63.27Z"/><path class="cls-5" d="M18.39,70.59a.93.93,0,1,1,.92-.93A.93.93,0,0,1,18.39,70.59Z"/><path class="cls-5" d="M11,70.64a1,1,0,1,1,1-1A1,1,0,0,1,11,70.64Z"/><path class="cls-5" d="M3.66,70.57a.91.91,0,1,1,.91-.91A.91.91,0,0,1,3.66,70.57Z"/><path class="cls-5" d="M53.17,53l-6-6H20.34a5.28,5.28,0,0,1-5.27-5.28V34.11a5.28,5.28,0,0,1,5.27-5.28H48.26a5.29,5.29,0,0,1,5.28,5.28s0,18.72-.22,18.93A.22.22,0,0,1,53.17,53ZM20.34,29.27a4.84,4.84,0,0,0-4.84,4.84v7.57a4.84,4.84,0,0,0,4.84,4.84s26.9,0,27.05.06l5.72,5.72V34.11a4.85,4.85,0,0,0-4.85-4.84Z"/><path class="cls-5" d="M31.78,37.69a2.53,2.53,0,1,1,2.52,2.53A2.52,2.52,0,0,1,31.78,37.69Zm.43,0A2.1,2.1,0,1,0,34.3,35.6,2.09,2.09,0,0,0,32.21,37.69Z"/><path class="cls-5" d="M42.83,37.69a2.53,2.53,0,1,1,2.52,2.53A2.52,2.52,0,0,1,42.83,37.69Zm.43,0a2.09,2.09,0,1,0,2.09-2.09A2.09,2.09,0,0,0,43.26,37.69Z"/><path class="cls-5" d="M20.29,37.69a2.53,2.53,0,1,1,2.52,2.53A2.52,2.52,0,0,1,20.29,37.69Zm.43,0a2.1,2.1,0,1,0,2.09-2.09A2.09,2.09,0,0,0,20.72,37.69Z"/><path class="cls-5" d="M95.08,56.92H114.2a.22.22,0,0,0,.22-.22.21.21,0,0,0-.22-.21H95.39L100,43.41h19a.22.22,0,0,0,.22-.22A.21.21,0,0,0,119,43H99.86c-.2.14-5,13.65-5,13.65C95,56.89,95,56.92,95.08,56.92Z"/><path class="cls-5" d="M114.2,56.92c.2-.14,5-13.65,5-13.65a.22.22,0,1,0-.41-.15L114,56.63a.22.22,0,0,0,.14.28Z"/><path class="cls-5" d="M118,46.25h10.92a.22.22,0,0,0,0-.44H118a.22.22,0,0,0,0,.44Z"/><path class="cls-5" d="M115.48,43.41c.21-.14,2.76-7.35,2.76-7.35h14.3a.22.22,0,0,0,.22-.22.21.21,0,0,0-.22-.21H118.08c-.2.14-2.8,7.49-2.8,7.49a.22.22,0,0,0,.13.28Z"/><path class="cls-5" d="M128.89,46.25c.21-.15,3.81-10.33,3.81-10.33a.22.22,0,0,0-.41-.15L128.69,46a.22.22,0,0,0,.13.28Z"/><path class="cls-5" d="M101.49,48.79h12.13a.21.21,0,0,0,.22-.21.22.22,0,0,0-.22-.22H101.49a.22.22,0,0,0-.22.22A.21.21,0,0,0,101.49,48.79Z"/><path class="cls-5" d="M100.5,51.54h12.12a.22.22,0,1,0,0-.43H100.5a.22.22,0,1,0,0,.43Z"/><path class="cls-5" d="M121.52,59.08a.2.2,0,0,1,0-.3,18.1,18.1,0,0,0,1.87-1.62.21.21,0,0,1,.31,0,.23.23,0,0,1,0,.31,14.35,14.35,0,0,1-2,1.7A.2.2,0,0,1,121.52,59.08Zm3.57-3.49a.2.2,0,0,1,0-.3,20,20,0,0,0,1.34-2.08.21.21,0,0,1,.29-.08.21.21,0,0,1,.09.29,11.8,11.8,0,0,1-1.55,2.22A.21.21,0,0,1,125.09,55.59Zm2.47-4.34a.21.21,0,0,1-.13-.28c.18-.46.35-.93.49-1.4a.22.22,0,1,1,.42.12,6.14,6.14,0,0,1-.7,1.58Z"/><path class="cls-5" d="M74.81,48.11a1.36,1.36,0,0,0,1-.46,1.21,1.21,0,0,0,.24-1.2.66.66,0,0,0-.81-.5,6.54,6.54,0,0,1-.43-2.41.22.22,0,0,0-.23-.2.21.21,0,0,0-.2.23,16.38,16.38,0,0,0,.3,2.52.5.5,0,0,0,.62.3c.21,0,.26,0,.33.19a.76.76,0,0,1-.15.78.9.9,0,0,1-.85.3.22.22,0,0,0-.07.43Z"/></svg>