<?xml version="1.0" encoding="utf-8"?>
<!-- Generator: Adobe Illustrator 26.0.1, SVG Export Plug-In . SVG Version: 6.00 Build 0)  -->
<svg version="1.1" id="Layer_1" xmlns="http://www.w3.org/2000/svg" xmlns:xlink="http://www.w3.org/1999/xlink" x="0px" y="0px"
	 viewBox="0 0 100 100" style="enable-background:new 0 0 100 100;" xml:space="preserve">
<style type="text/css">
	.st0{fill:none;stroke:#A3C9A8;stroke-width:5;stroke-linecap:round;stroke-miterlimit:10;}
	.st1{fill:#BA727B;}
</style>
<g>
	<g>
		<path class="st0" d="M4.1,61.1c8.4,0.2,8.3,4.2,16.7,4.3c8.4,0.2,8.5-3.8,16.8-3.7c8.4,0.2,8.3,4.2,16.7,4.3
			c8.4,0.2,8.5-3.8,16.8-3.7s8.3,4.2,16.7,4.3"/>
	</g>
	<g>
		<path class="st0" d="M4.1,46.1c8.4,0.2,8.3,4.2,16.7,4.3c8.4,0.2,8.5-3.8,16.8-3.7c8.4,0.2,8.3,4.2,16.7,4.3
			c8.4,0.2,8.5-3.8,16.8-3.7s8.3,4.2,16.7,4.3"/>
	</g>
	<g>
		<path class="st0" d="M4.1,31.1c8.4,0.2,8.3,4.2,16.7,4.3c8.4,0.2,8.5-3.8,16.8-3.7c8.4,0.2,8.3,4.2,16.7,4.3
			c8.4,0.2,8.5-3.8,16.8-3.7s8.3,4.2,16.7,4.3"/>
	</g>
	<g>
		<path class="st0" d="M4.1,16.1c8.4,0.2,8.3,4.2,16.7,4.3c8.4,0.2,8.5-3.8,16.8-3.7c8.4,0.2,8.3,4.2,16.7,4.3
			c8.4,0.2,8.5-3.8,16.8-3.7c8.4,0.2,8.3,4.2,16.7,4.3"/>
	</g>
</g>
<path class="st1" d="M95.1,22.9c-1.3-0.5-2.7-0.7-4.1-0.7c0,0-0.1,0-0.1,0H62.3c-9.6,0-19.3,0-28.9,0c-0.8,0-1.7,0.1-2.5,0.2
	c-0.6,0.1-1.1,0.2-1.7,0.5c-3.2,1.4-4.7,5.2-3.3,8.4c0.4,1,0.8,1.9,1.4,2.7c6.9,10.2,14,20.6,21,30.8c0.5,0.6,0.7,1.4,0.7,2.2
	c-0.1,4.6-0.1,9.2-0.1,13.6c-0.1,2.4,1.1,4.7,3.1,6.1c4.8,3.5,9.7,7.1,14.5,10.7c0.7,0.5,1.4,1,2.2,1.3c0.2,0.1,0.3,0.1,0.5,0.2
	l0.3,0.1c0,0,0,0,0,0l0.1,0c0.3,0.1,0.7,0.1,1,0.1c0.8,0,1.6-0.2,2.3-0.7c1.1-0.6,1.8-1.6,2.1-2.8c0.2-0.8,0.3-1.7,0.3-2.6V66.6
	c0-0.5,0.1-1,0.4-1.4C83,54.9,90.1,44.4,97.1,34.1c0.7-1.1,1.3-2.2,1.7-3.5l0-0.2C99.9,27.4,98.2,24,95.1,22.9z M53.7,62.2
	c-7.2-10.5-14.4-21-21.5-31.6c-0.3-0.5-0.6-1.1-0.8-1.6l-0.1-0.2c0-0.1,0-0.1,0.1-0.2c0,0,0.1-0.1,0.2-0.1l0.2,0
	c0.5-0.2,1-0.2,1.5-0.2h58c0.5,0,1,0.1,1.5,0.3l0.1,0c0,0,0.1,0,0.1,0c0.1,0,0.1,0.1,0.1,0.1c0,0,0,0.1,0,0.2L93.1,29
	c-0.2,0.6-0.5,1.2-0.9,1.7C85.1,41.2,77.9,51.6,70.8,62c-0.9,1.3-1.3,2.8-1.3,4.3v25.8l-2.7-2c-3.6-2.7-7.3-5.4-11-8.1
	c-0.5-0.3-0.8-0.8-0.7-1.5V66.2C55,64.7,54.6,63.3,53.7,62.2z"/>
<path class="st0" d="M-293.5-383.5c8.4,0.2,8.3,4.2,16.7,4.3c8.4,0.1,8.5-3.8,16.8-3.7s8.3,4.2,16.7,4.3c8.4,0.1,8.5-3.8,16.8-3.7
	c8.3,0.1,8.3,4.2,16.7,4.3"/>
</svg>
