<svg id="Layer_1" data-name="Layer 1" xmlns="http://www.w3.org/2000/svg" viewBox="0 0 585 439.8"><defs><style>.cls-1{fill:#00b2ac;}.cls-1,.cls-2,.cls-3,.cls-4,.cls-5{fill-rule:evenodd;}.cls-2{fill:#fff;}.cls-3{fill:#00160a;}.cls-4{fill:#f282b4;}.cls-5{fill:#e7eaee;}</style></defs><path class="cls-1" d="M43.26,391.94c45.27,49.28,220.33,21,335.6,21,49.73,0,216.61,24.92,147.7-146.24C300.61-294.55-100.18,235.8,43.26,391.94Z"/><path class="cls-2" d="M243.56,395.9a1.53,1.53,0,0,0,.55-.61c.31-.84-.9-1.39-1.79-1.37-1.29,0-2.94.9-2.55,2.13a1.62,1.62,0,0,0,1.84.91A4.61,4.61,0,0,0,243.56,395.9Zm3.84-14.63a10.54,10.54,0,0,1,2.78,1.25,14.13,14.13,0,0,1,3.72,4.33,13.77,13.77,0,0,1,1.87,3.66,9.74,9.74,0,0,1,.07,4.43,16.88,16.88,0,0,1-21,13.24,5.78,5.78,0,0,1-2.42-1.15,6.52,6.52,0,0,1-1.29-1.86,23.45,23.45,0,0,1-2.92-11.45,14.15,14.15,0,0,1,4.88-10.51c3.89-3.14,9.49-3.44,14.26-1.94"/><path class="cls-2" d="M453.2,164.78a4.48,4.48,0,0,0-4.36,3.89c-.08.87.29,2,1.15,2.07a2.06,2.06,0,0,0,1.66-.9,16.25,16.25,0,0,0,2.34-3.41c.22-.41.41-.94.13-1.31A1.14,1.14,0,0,0,453.2,164.78Zm-.93-9.53a18.52,18.52,0,0,1,7.89,5.34c1.82,2.08,3.2,4.79,2.82,7.52A10.2,10.2,0,0,1,462,171c-1.59,3.49-4.35,6.83-8.13,7.51a12.07,12.07,0,0,1-5.93-.72,25.42,25.42,0,0,1-6.23-3.12,6.27,6.27,0,0,1-2.48-2.68,6.67,6.67,0,0,1-.31-2.52,18.64,18.64,0,0,1,.9-6.22,17.73,17.73,0,0,1,4.68-6.4,8.49,8.49,0,0,1,2.59-1.87A7.42,7.42,0,0,1,452.27,155.25Z"/><path class="cls-2" d="M453.2,3.29a135.14,135.14,0,0,1,28.95,45.23,5.21,5.21,0,0,1,.45,3.59c-3.27,9-9.59,16.4-15.78,23.65L455,89.66c-3.78,4.42-7.55,8.85-11.46,13.16-19.88,22-43.37,41.14-70.58,53a6,6,0,0,1-3.23.72,2.09,2.09,0,0,1-1.85-2.33c3.36-12.53,6.74-25.62,4.05-38.31-.66-3.06-1.38-6.91,1.16-8.75,20.54-14.91,35.34-36.21,49.52-57.23,3.56-5.29,7.12-10.59,10.27-16.12a130.85,130.85,0,0,0,12.8-31.33c.4-1.5,2.3-2.18,3.8-1.78a8.54,8.54,0,0,1,3.77,2.65"/><path class="cls-2" d="M61.69,53.58a143.63,143.63,0,0,0,16.62,52.79c5.51,10.09,12.21,19.47,18.9,28.82,4.65,6.51,9.62,13.29,16.88,16.65,1.93.89,1.66,3.68,1.14,5.74a103.47,103.47,0,0,0-3.09,27.32,6.34,6.34,0,0,1-.3,2.57c-1.16,2.71-5.13,2.26-7.86,1.15C87.08,181.76,74.1,168,62,154.33c-15.74-17.7-31.24-36.17-40.54-58a10.32,10.32,0,0,1-1.14-4.64,10.35,10.35,0,0,1,1.8-4.53A104.24,104.24,0,0,1,56,53a6.67,6.67,0,0,1,3.15-1.25A2.37,2.37,0,0,1,61.69,53.58Z"/><path class="cls-2" d="M450.74,377.27c1.45-2.46,3.26-5.18,6.09-5.65,1.11-.18,1.7-1.39,2.08-2.46a67.59,67.59,0,0,0,1.27-41.06c-1.1-3.82.25-7.86,1.59-11.6l10.38-28.95c-2-3.43-7.21-3.33-9.89-6.25-3.44-3.75-.84-9.72,1.86-14.05l47.3-75.76c1.93-3.09,6.17-4.06,9.73-3.23s6.58,3.06,9.51,5.24l34.5,25.77c6.17,4.61,13,10.5,12.63,18.19-.2,4.26-2.64,8-5,11.6l-27.35,41.2c-5.13,7.74-3.71,17.9-5.27,27.06-2.45,14.46-12.37,26.34-21.55,37.78s-18.38,24.22-18.9,38.88a63.64,63.64,0,0,1-22.28,45.82c3.87-9.41-20.62-5.65-48.65-16.8C433.41,406.68,442.12,391.88,450.74,377.27Z"/><path class="cls-2" d="M143,418.19c-1.75-1.43-2.3-3.84-2.61-6.09-3.57-25.94,11.76-51.56,9-77.61-1.41-13.43-7.58-25.95-15.34-37-5.36-7.61-5.66-17.8-3.66-26.9s6-17.62,8.75-26.53c12.1-39.64-2.62-82-17.18-120.77,29-14,62.86-11.31,95-9.41s66.7,2,93.49-15.91c3.67,38.83-4.43,77.69-12.47,115.85l122.52-11.94a5.11,5.11,0,0,1,3.42.46c1.3.89,1.5,2.7,1.58,4.27q2.85,60.57,3.47,121.21a2.92,2.92,0,0,1-3.14,3.71L254.2,350.69c-4.94.55-12-.74-11.7-5.74a365.42,365.42,0,0,0-2.25-66.79,121.49,121.49,0,0,0-44.88,6.8c-3.26,1.14-7.18,4.23-5.42,7.21,11.63,19.76-2.8,49.46,13,66,5.43,5.71,5.05,14.68,4,22.49A264.69,264.69,0,0,1,195.23,430C197.87,411.58,144.62,428.07,143,418.19Z"/><path class="cls-3" d="M246.4,381.27a10.54,10.54,0,0,1,2.78,1.25,14.13,14.13,0,0,1,3.72,4.33,13.77,13.77,0,0,1,1.87,3.66,9.74,9.74,0,0,1,.07,4.43,16.88,16.88,0,0,1-21,13.24,5.78,5.78,0,0,1-2.42-1.15,6.52,6.52,0,0,1-1.29-1.86,23.45,23.45,0,0,1-2.92-11.45,14.15,14.15,0,0,1,4.88-10.51c3.89-3.14,9.49-3.44,14.26-1.94M240.93,405a9.18,9.18,0,0,0,6-4,16,16,0,0,0,2.46-6.9c.2-1.4.22-3-.77-4a5.05,5.05,0,0,0-2.23-1.11c-3-.91-6.49-1.68-9.21-.06-2,1.19-3.08,3.38-4.08,5.45A7.46,7.46,0,0,0,240.93,405Z"/><path class="cls-4" d="M357.74,271.79a2.39,2.39,0,0,1,.45-1.46,2.44,2.44,0,0,1,1.35-.64,139.71,139.71,0,0,1,38.94-3.43c1.67.09,3.81.65,3.92,2.31l1.89,28.58a1.45,1.45,0,0,1-1.3,1.91,102.42,102.42,0,0,1-41.75,2,2,2,0,0,1-1-.35,2,2,0,0,1-.55-1.17A92.61,92.61,0,0,1,357.74,271.79Zm3,15.8A38.87,38.87,0,0,0,363,298.14c1.22.18,2.44.43,3.66.64,10.53,1.78,21.3,0,31.84-1.81a3,3,0,0,0,2-.89,3.12,3.12,0,0,0,.33-2.24q-.56-4.93-1.09-9.85a1,1,0,0,0-1.14-1c-7.49-.5-15,.06-22.47.62l-12.41.92a3.39,3.39,0,0,0-2.63,1A3.21,3.21,0,0,0,360.74,287.59Zm.12-13.73a13.22,13.22,0,0,0-.34,6.52,2,2,0,0,0,.48,1.06,2.07,2.07,0,0,0,1.68.24A145.67,145.67,0,0,1,384,280.14c1,0,1.31-1.35,1.3-2.35,0-1.47,0-2.94-.05-4.41a2.62,2.62,0,0,0-3.52-3.06l-7.08.54c-1.12.09-4.12.86-5.49.95L361.94,273a1.43,1.43,0,0,0-.73.26A1.29,1.29,0,0,0,360.86,273.86Zm31.57,6.4a24.3,24.3,0,0,0,5.58-.56,2.23,2.23,0,0,0,1.2-.53,2.39,2.39,0,0,0,.42-1.86c-.09-1.89-.19-3.79-.29-5.69a1.83,1.83,0,0,0-2.35-2.17l-6.25.43a1.94,1.94,0,0,0-.95.23,1.91,1.91,0,0,0-.59,1.63,46.7,46.7,0,0,0,.24,6,3.24,3.24,0,0,0,.51,1.65A3.1,3.1,0,0,0,392.43,280.26Z"/><path class="cls-5" d="M390.33,230.16a8.65,8.65,0,0,1,12,9c1.7-.92,3.86-1.83,5.46-.72,1.79,1.25,1.38,3.94,1.11,6.11a20.77,20.77,0,0,0,1.74,11.18c.67,1.44,1.24,3.61-.23,4.19a2.62,2.62,0,0,1-.79.14l-51.69,4.17a1.82,1.82,0,0,1-1.36-.25,1.85,1.85,0,0,1-.43-1.35q-.24-6.08-.49-12.15a5.08,5.08,0,0,1,.55-3.16c1-1.49,3.14-1.48,4.92-1.77s3.85-1.78,3.16-3.45c-.76-1.86,1.84-3.21,3.82-3.51s4.62-1.49,4-3.4c-.66-2.1,2.22-3.4,4.39-3.68a9.78,9.78,0,0,1,4.6.12c1.45.53,2.68,2,2.36,3.54-.38,1.73,1.73,3.34,3.39,2.73a3.23,3.23,0,0,0,1.49-4.44C387.68,232.2,389,230.73,390.33,230.16Zm8.9,26.71a8.37,8.37,0,0,1-.66-4,168.73,168.73,0,0,0-1.17-19.07A1.21,1.21,0,0,0,397,233a1.18,1.18,0,0,0-.81-.11c-1.34.12-2.94.42-3.47,1.66a3.78,3.78,0,0,0-.17,1.71q.51,9.58,1,19.16a2,2,0,0,0,.6,1.61,1.87,1.87,0,0,0,.93.24A15.13,15.13,0,0,0,399.23,256.87ZM376.05,247c-.16,1.07-.4,2.12-.46,3.2a19.85,19.85,0,0,0,.65,5.35,2.07,2.07,0,0,0,2.77,1.24,3.41,3.41,0,0,0,1.89-2.71,11.09,11.09,0,0,0-.21-3.44,76,76,0,0,1-.92-13.56,2,2,0,1,0-4,.4A25.42,25.42,0,0,1,376.05,247Zm11.33-6.11c-.67-.88-2.21-.42-2.73.56a5.46,5.46,0,0,0-.24,3.26,40.34,40.34,0,0,1,.1,8.65,3.83,3.83,0,0,0,.3,2.49c.72,1.09,2.3,1.08,3.6.95a1.33,1.33,0,0,0,1.09-.48,1.3,1.3,0,0,0,.07-.83l-1.8-13.4A2.47,2.47,0,0,0,387.38,240.93Zm14.93,1.91a4.48,4.48,0,0,0-.66,2.45,47.82,47.82,0,0,0,.63,8.77c.15,1.14.67,2.61,1.83,2.54s1.47-1.65,1.44-2.82l-.21-9.31a2.63,2.63,0,0,0-.78-2.21A1.74,1.74,0,0,0,402.31,242.84ZM367,242.11s.52,4,.69,6.11c.23,2.59.52,5.18.86,7.75a1.65,1.65,0,0,0,.4,1,2.56,2.56,0,0,0,2.66-.41,3.34,3.34,0,0,0,.29-1.91q-.13-3.1-.28-6.2c-.1-2.22-.63-7-.63-7M360.3,256.77A2.52,2.52,0,0,0,361,258a1.85,1.85,0,0,0,2.5-.52,5.24,5.24,0,0,0,.81-2.69,8,8,0,0,0-.1-3.47,2.73,2.73,0,0,0-2.58-2,2.64,2.64,0,0,0-2.14,2.11,6.74,6.74,0,0,0,.22,3.18C359.88,255.38,360.07,256.08,360.3,256.77Z"/><path class="cls-4" d="M430.14,91a17,17,0,0,1-5.05,5.49c-2.15,1.29-5.13,1.55-7.06,0-2.13-1.77-2.26-5-2.1-7.71a14.1,14.1,0,0,1,.46-3.16,13.19,13.19,0,0,1,2.89-4.68,16.11,16.11,0,0,1,5.11-4.3,6.86,6.86,0,0,1,6.44.07c2.28,1.42,3.12,4.45,2.69,7.1A18.91,18.91,0,0,1,430.14,91m-4.42,2.21a28.8,28.8,0,0,0,4.46-6.23,10.09,10.09,0,0,0,1.44-4.8,4.41,4.41,0,0,0-2.49-4.07c-2-.82-4.28.49-6,1.87A12.77,12.77,0,0,0,420,83.37a15.54,15.54,0,0,0-1.13,2.73,12.58,12.58,0,0,0-1,5.48c.23,1.86,1.56,3.72,3.42,3.91S424.54,94.43,425.72,93.17Z"/><path class="cls-4" d="M71.8,114.56a27.24,27.24,0,0,1,5.29,7.6c1.33,2.82,0,6.45-2.6,8.18a9.46,9.46,0,0,1-8.95.43,15.82,15.82,0,0,1-6.73-6.29,13.86,13.86,0,0,1-2.31-6.58,6.91,6.91,0,0,1,9.41-7.23,14.57,14.57,0,0,1,5.89,3.89m-8.5-1.34c-1.89-.19-3.56,1.54-3.89,3.4A8.48,8.48,0,0,0,60.72,122c2,3.6,5.57,6.79,9.67,6.59,2.11-.1,4.42-1.57,4.39-3.68a5.63,5.63,0,0,0-.92-2.55,26.89,26.89,0,0,0-4.21-5.91A10.87,10.87,0,0,0,63.3,113.22Z"/><path class="cls-3" d="M236.57,392.45a8.1,8.1,0,0,1,5.3-1.77,5.4,5.4,0,0,1,4.56,2.94,5.48,5.48,0,0,1-1,5.71,8.58,8.58,0,0,1-5.35,2.68c-1.38.19-3,0-3.78-1.15a4.24,4.24,0,0,1-.52-1.93c-.14-1.2-.27-2.39-.4-3.59a3.53,3.53,0,0,1,.06-1.52,3.06,3.06,0,0,1,1.13-1.37m6,3.45a1.53,1.53,0,0,0,.55-.61c.31-.83-.9-1.39-1.79-1.37-1.29,0-2.94.9-2.55,2.13a1.62,1.62,0,0,0,1.84.91,4.61,4.61,0,0,0,1.95-1.06Z"/><path class="cls-3" d="M451,9.13a127.64,127.64,0,0,1,27.2,42.65,5,5,0,0,1,.42,3.4c-3.07,8.43-9,15.46-14.82,22.3L452.64,90.59c-3.55,4.17-7.1,8.34-10.77,12.4-18.68,20.7-40.75,38.81-66.31,49.94a5.65,5.65,0,0,1-3,.68,2,2,0,0,1-1.74-2.2c3.16-11.81,6.34-24.16,3.81-36.12-.62-2.89-1.3-6.52,1.09-8.26,19.3-14.06,33.2-34.15,46.52-54,3.35-5,6.69-10,9.65-15.21a123.24,123.24,0,0,0,12-29.54c.37-1.41,2.16-2.05,3.57-1.68A8.11,8.11,0,0,1,451,9.13Zm-8.25,15.16c-1.2-.49-2.31.85-2.92,2l-2,3.72c-12.22,23-24.63,46.26-43.25,64.34-1.76,1.71-3.73,3.77-3.4,6.2a20.15,20.15,0,0,1-10,19.81c-3.13,1.71-3.09,6.14-2.64,9.68.19,1.42.72,3.2,2.15,3.32a16.28,16.28,0,0,1,10.9,5.59c.86,1,2.49.38,3.61-.33C423.37,120.9,445,94.74,466.15,69c.73-.89,1.5-2,1.12-3.09a37.9,37.9,0,0,1,1.4-28.21,84.26,84.26,0,0,0-8.56-13.6A22.5,22.5,0,0,1,442.74,24.29Zm-66.82,124c1.11.58,2.45,0,3.56-.56a69.08,69.08,0,0,0,8.42-5.17,2.17,2.17,0,0,0,.67-2.36,4.23,4.23,0,0,0-1.57-2,8.23,8.23,0,0,0-7.74-1.11,3,3,0,0,0-1.25.8,3.58,3.58,0,0,0-.64,1.63Q376.44,143.82,375.92,148.26ZM455,18.23a23.43,23.43,0,0,0-8.44-9.17c-1.24,1.1-1.49,2.76-1.73,4.46a11.34,11.34,0,0,1-.84,3.37,10.56,10.56,0,0,1-.56,1h0a5.29,5.29,0,0,0-.87,1.9c-.19,1.06.71,2.39,1.73,2a4.76,4.76,0,0,1,2.56.09,10.86,10.86,0,0,0,1.39.22C451,22.28,453.17,20.17,455,18.23ZM470.2,40.66c-2.05,4.08-1.73,8.9-1.35,13.45l.53,6.52c.06.72.45,1.69,1.14,1.49a11,11,0,0,1,2.07-3.19,12.56,12.56,0,0,0,1.9-2.76c1.56-3.44-.17-7.41-1.89-10.78Zm-91.79,72.42a2.6,2.6,0,0,0,2.69,2.2,4.29,4.29,0,0,0,3.18-1.9,12.87,12.87,0,0,0,1.55-3.49l1.32-4c.37-1.12.39-2.83-.78-3a1.77,1.77,0,0,0-1.17.42,14.65,14.65,0,0,0-3.2,3.59l-2.53,3.58A4.22,4.22,0,0,0,378.41,113.08ZM76.31,102.37A143.63,143.63,0,0,1,59.69,49.58a2.37,2.37,0,0,0-2.51-1.83A6.67,6.67,0,0,0,54,49,104.24,104.24,0,0,0,20.1,83.2a10.35,10.35,0,0,0-1.8,4.53,10.32,10.32,0,0,0,1.14,4.64c9.3,21.79,24.8,40.26,40.54,58,12.12,13.63,25.1,27.43,42,34.29,2.73,1.11,6.7,1.56,7.86-1.15a6.37,6.37,0,0,0,.3-2.54v0a103.47,103.47,0,0,1,3.09-27.32c.52-2.06.79-4.85-1.14-5.74-7.26-3.36-12.23-10.14-16.88-16.65C88.52,121.84,81.82,112.46,76.31,102.37ZM92,173.59a3.57,3.57,0,0,1-2.83-1c-15.38-11.27-27.3-26.52-39-41.57L29.51,104.48c3.48-2.22,3.93-7,4-11.18.1-5.38.17-10.91-1.77-15.93-.43-1.11.13-2.35.74-3.38A34.54,34.54,0,0,1,42.87,62.83a3.26,3.26,0,0,1,1.33-.63c1.3-.18,2.29,1.08,3,2.19,2.73,4.39,6.49,9.35,11.65,9,2-.13,3.06,2.18,3.63,4.06C69.6,100.87,83,122,98.67,140.8c2,2.45,2.55,5.74,3.06,9,.56,3.64,1.12,7.25,3.78,9.59,2.28,2,1.86,5.59,1.25,8.56a2.23,2.23,0,0,1-2,2.23ZM55.56,68a27.11,27.11,0,0,1-7.14-7.38,3.35,3.35,0,0,1-.73-2.07,3.31,3.31,0,0,1,1.29-2,20.73,20.73,0,0,1,5-3.3c.66-.31,1.52-.57,2.07-.08a2.05,2.05,0,0,1,.51,1.16l2.6,13c.16.78-.65,1.47-1.44,1.49A3.72,3.72,0,0,1,55.56,68ZM29.76,93.17c-.05,2.45-.24,5.2-2.08,6.83-.38,0-.64-.38-.79-.74-1.32-3.13-2.66-6.34-2.87-9.74s.93-7.07,3.7-9c.38-.26.93-.48,1.26-.16a1,1,0,0,1,.24.49,30.28,30.28,0,0,1,.63,8.56Zm74.88,81.55a2,2,0,0,1,.51,1.6l.13,6.3a59.4,59.4,0,0,1-7.4-4.87c-.44-.34-.93-.9-.66-1.39a1.13,1.13,0,0,1,.68-.45,28.79,28.79,0,0,1,5.15-1.38A1.93,1.93,0,0,1,104.64,174.72Zm.15-24.82a1.24,1.24,0,0,1,.15-.83c.44-.6,1.41,0,1.82.58a5.91,5.91,0,0,1,.57,5.22A7.44,7.44,0,0,1,104.79,149.9Zm385.08-47.85c2.58-3.25,7.27-3.72,11.42-3.62a7.38,7.38,0,0,1,2.84.48c2.45,1.11,3,4.32,3.05,7a26.33,26.33,0,0,1-.53,7.31,10.78,10.78,0,0,1-3.8,6.12,7,7,0,0,1-3,1.32,9.82,9.82,0,0,1-5-.75,24.75,24.75,0,0,1-6-3.21,3.75,3.75,0,0,1-1.84-2.63,27.77,27.77,0,0,1,.85-7.59A11.49,11.49,0,0,1,489.87,102.05Zm6.68,16.16c3.31,1,6.83-1.61,8.08-4.82s.79-6.8.1-10.18c-.26-1.29-1.64-2-2.92-2.36a13.29,13.29,0,0,0-6.08-.21,5,5,0,0,0-2.71,1.28,6.17,6.17,0,0,0-.91,1.39L490.17,107a10.76,10.76,0,0,0-.88,2,6.56,6.56,0,0,0,1.66,6A11.88,11.88,0,0,0,496.55,118.21Zm-44.28,37a18.52,18.52,0,0,1,7.89,5.34c1.82,2.08,3.2,4.79,2.82,7.52A10.3,10.3,0,0,1,462,171c-1.59,3.49-4.35,6.83-8.13,7.51a12.07,12.07,0,0,1-5.93-.72,25.42,25.42,0,0,1-6.23-3.12,6.27,6.27,0,0,1-2.48-2.68,6.67,6.67,0,0,1-.31-2.52,18.64,18.64,0,0,1,.9-6.22,17.73,17.73,0,0,1,4.68-6.4,8.49,8.49,0,0,1,2.59-1.87A7.42,7.42,0,0,1,452.27,155.25Zm3.1,18.35a10.36,10.36,0,0,0,3.12-8.38,8.49,8.49,0,0,0-5.32-7,6.27,6.27,0,0,0-3.78-.22,7.24,7.24,0,0,0-1.87.87,10.32,10.32,0,0,0-2.25,15.49,5.88,5.88,0,0,0,5.15,1.8A8.65,8.65,0,0,0,455.37,173.6ZM178.48,137.18c-.1-1.45-2-1.83-3.48-1.78q-11.4.33-22.74,1.7c-1.24.15-1.34,2.15-.35,2.91s2.38.61,3.62.44ZM154.18,147c.07-.74,1-1,1.75-1.1l44.77-5.07a4.37,4.37,0,0,1,2.41.19,1.49,1.49,0,0,1,.72,2,2.2,2.2,0,0,1-1.62.64l-45.8,4.44C155.45,148.18,154.1,147.9,154.18,147Zm100.39,7.54c-2.51.55-5.08-.35-7.48-1.25q-11.65-4.35-23.22-9c-3.11-1.24-6.52.62-9.32,2.45A257.37,257.37,0,0,0,191.21,164c-1.91,1.59-4.85.48-6.78-1.1-.41-.33-.81-.68-1.22-1-1.5-1.33-3-2.67-5-3-3-.42-5.62,1.84-7.78,3.94l-14,13.56c-1.88,1.82-3.85,4.74-2.18,6.76,1.1,1.32,3.13,1.26,4.84,1.06,9-1,17.87-2.49,26.77-4h0c14.72-2.4,29.44-4.81,44.32-5.32,3.3-.12,6.6-.14,9.91-.16h0l6.2-.06c9.32-.16,18.64-.79,27.9-1.88a1.58,1.58,0,0,0,1.19-.53,1.55,1.55,0,0,0,.08-1l-3.92-26.69c-.2-1.36-.55-2.92-1.79-3.51s-2.73.17-3.76,1.1a25.59,25.59,0,0,0-4.06,5.29C260,150.68,258,153.73,254.57,154.49Zm-63.7,14.61A314.53,314.53,0,0,1,217,149.77c1.86-1.23,4.11-2.48,6.19-1.68l21.93,8.53c3.66,1.42,7.67,2.86,11.43,1.72,4.36-1.33,7-5.67,9.18-9.67.42-.78,1.67-.69,2.29,0a4.31,4.31,0,0,1,.89,2.46l1.61,11.12a11.88,11.88,0,0,1,0,5.14,4.1,4.1,0,0,1-3.67,3.13,418,418,0,0,0-84.29,6.93l-2.57.49h0c-6.63,1.25-13.29,2.51-20,2.53,3.26-4.61,7.38-8.53,11.48-12.41,2.25-2.13,5.06-4.43,8.08-3.73a9.35,9.35,0,0,1,4.12,2.71h0c.4.37.8.75,1.21,1.09C186.55,169.51,189.16,170.5,190.87,169.1Zm362.22,77.63a3.63,3.63,0,0,1-2.34-.15c-5.17-1.62-9.36-5.25-13.48-8.82l-1.67-1.44A135.59,135.59,0,0,0,513.51,221a5.56,5.56,0,0,1-2.12-1.68,1.84,1.84,0,0,1,.28-2.46,13.94,13.94,0,0,0,6-10.78,2.19,2.19,0,0,1,2.45-1.8,6.44,6.44,0,0,1,3,1.42L559,231.15a3.47,3.47,0,0,1,1.62,1.91,3.34,3.34,0,0,1-.44,2,81.7,81.7,0,0,1-5.31,9.89A3.94,3.94,0,0,1,553.09,246.73Zm-35.86-30.19c-.43.75-.79,1.82-.11,2.34l29.26,22c1.6,1.21,4.09,2.34,5.35.78a65.12,65.12,0,0,0,4-5.59,1.89,1.89,0,0,0-.46-3.09,288.11,288.11,0,0,0-34-23.7ZM502.67,230c.47-.81,1-1.69,2-1.89a3.31,3.31,0,0,1,2.06.46,34.42,34.42,0,0,1,9.49,6.82,2.64,2.64,0,0,1,.45,2.65,7.69,7.69,0,0,1-1.49,2.38,9,9,0,0,1-3.38,3,5.75,5.75,0,0,1-4.73-.46,12.24,12.24,0,0,1-3.61-3.27c-1.33-1.67-2.52-3.67-2.31-5.79A9.66,9.66,0,0,1,502.67,230Zm6.16,9.34c2.21.87,3.63.18,3.69-1.27,0-.92-.76-1.62-1.49-2.18l-2.2-1.69a4.19,4.19,0,0,0-2.45-1.14c-.92,0-1.85,1-1.47,1.79A8.21,8.21,0,0,0,508.83,239.35Zm-8.75,17.89a3.82,3.82,0,0,0,1.73.6,1.43,1.43,0,0,0,1.44-.93,10,10,0,0,1,2.19-3.7c.1-.13.2-.25.29-.38a7.37,7.37,0,0,0,2-4.28c0-1.61-1.3-3.32-2.89-3.1a4.29,4.29,0,0,1-3.32-1.52l-.43-.43a6.88,6.88,0,0,0-2.55-1.86c-1.2-.39-2.84.23-2.93,1.49-.19,2.54-2.3,4.45-4.26,6.08-.59.48-.06,1.42.49,1.95A39,39,0,0,0,500.08,257.24Zm.39-4.83-3.85-2.61a2.07,2.07,0,0,1,0-3.09,3.37,3.37,0,0,1,3.35-.45,9.67,9.67,0,0,1,2.94,2,2,2,0,0,1,.4,2.16,5.63,5.63,0,0,1-1.36,1.89.9.9,0,0,1-1.45.15Zm30.55.17,1.89-4c.57-1.22,1.13-2.74.35-3.85a4.09,4.09,0,0,0-1.06-.92l-6.85-4.62a4.53,4.53,0,0,0-2.43-1,4.18,4.18,0,0,0-2.69,1.52,35.36,35.36,0,0,0-3.15,3.55c-.73.95-1.34,2.52-.33,3.18l10.49,6.88c.83.54,1.88,1.1,2.75.63A2.76,2.76,0,0,0,531,252.58Zm-2.32-2.84a2.69,2.69,0,0,1-1.34-.14,15.46,15.46,0,0,1-6.93-4.37,1.64,1.64,0,0,1,.52-2.36,3,3,0,0,1,2.66,0,10.76,10.76,0,0,1,1.55.87c.27.18.55.35.83.52s.62.33.94.49a6.8,6.8,0,0,1,2.42,1.68C530.18,247.48,530,249.44,528.7,249.74Zm3.54,4.47c1.21-.28,1.58-1.52,2-2.8a5.17,5.17,0,0,1,1.47-2.77c1.41-1.06,3.4-.17,4.92.73l4.83,2.88a7.41,7.41,0,0,1,2.12,1.63,2.49,2.49,0,0,1,.43,2.52,3.53,3.53,0,0,1-1.23,1.26,4.31,4.31,0,0,0-1.09,1,4.72,4.72,0,0,0-.64,1.8,3.4,3.4,0,0,1-.94,2.09c-1.11.91-2.77.18-4-.57l-6.81-4.16a4.14,4.14,0,0,1-1.75-1.61A1.44,1.44,0,0,1,532.24,254.21Zm8.92,4.14a7.42,7.42,0,0,0,2.51-1.76c.55-.51-.18-1.35-.83-1.72l-4.17-2.35c-.44-.24-1-.47-1.38-.1a3.66,3.66,0,0,0,3.87,5.93Zm-47.85-.15a9.06,9.06,0,0,1-2.65-1.05,3.92,3.92,0,0,0-4.07.1,11.59,11.59,0,0,0-3.07,3,5.56,5.56,0,0,0-1.2,2,1.89,1.89,0,0,0,.73,2.09l7.28,4.06a2.64,2.64,0,0,0,1.78.48,2.6,2.6,0,0,0,1.4-1.18l1.88-2.58c1-1.43,2.13-3.26,1.36-4.86C496.14,259,494.75,258.6,493.31,258.2Zm-2.3,6.67a1.63,1.63,0,0,1-1.12-.26l-5-2.52a4.82,4.82,0,0,1,4.41-1.71A14.24,14.24,0,0,1,494,262l-2.27,2.36A1.77,1.77,0,0,1,491,264.87ZM456.68,164a4.47,4.47,0,0,1,0,4,8.14,8.14,0,0,1-3.41,4.22,5.21,5.21,0,0,1-5.26.07,3.88,3.88,0,0,1-1.51-4.81,7,7,0,0,1,.72-1.05,6.28,6.28,0,0,0,.7-1,6.11,6.11,0,0,0,.32-.74,4.56,4.56,0,0,1,.51-1c.79-1.12,2.35-1.34,3.73-1.32C454.06,162.41,455.83,162.73,456.68,164Zm-3.48.74a4.48,4.48,0,0,0-4.36,3.89c-.08.87.29,2,1.15,2.07a2.06,2.06,0,0,0,1.66-.9,16.25,16.25,0,0,0,2.34-3.41c.22-.41.41-.94.13-1.31A1.14,1.14,0,0,0,453.2,164.78Zm51.1-55.72a4.91,4.91,0,0,0-3.38-4.37c-2.41-.63-4.75,1.07-6.67,2.67a4.09,4.09,0,0,0-1.4,1.67c-.41,1.19.33,2.44,1,3.46a11,11,0,0,0,2.92,3.12,4.16,4.16,0,0,0,4.08.4,5,5,0,0,0,1.58-1.49A8.25,8.25,0,0,0,504.3,109.06Zm-5.36,5a2.81,2.81,0,0,1-2.27-.77,3.54,3.54,0,0,1-.94-3.42,3.64,3.64,0,0,1,6.22-1.53c0,.26-.06.53-.08.79h0a11.28,11.28,0,0,1-.5,2.65A3.35,3.35,0,0,1,498.94,114.07Zm-65,305.16c4.45-15.75,12.86-30,21.18-44.14,1.4-2.38,3.15-5,5.88-5.46,1.07-.18,1.64-1.35,2-2.37a65.25,65.25,0,0,0,1.22-39.65c-1.06-3.68.25-7.59,1.54-11.2l10-28c-1-1.8-3-2.59-5-3.39a11.78,11.78,0,0,1-4.53-2.64c-3.33-3.62-.82-9.39,1.79-13.56l45.67-73.15c1.87-3,6-3.92,9.39-3.12s6.36,2.95,9.18,5.06l33.31,24.88c6,4.45,12.54,10.14,12.2,17.57-.19,4.11-2.55,7.76-4.82,11.19l-26.4,39.79c-3.41,5.14-3.83,11.39-4.24,17.68h0a83.74,83.74,0,0,1-.85,8.44c-2.27,13.43-11.22,24.55-19.79,35.21l-.53.66-.49.61c-8.87,11.05-17.75,23.38-18.25,37.54a61.43,61.43,0,0,1-21.51,44.24l11.23-27.25c2.67-6.48,5.14-14.54.67-19.94-2-2.44-5.08-3.74-8-4.94l-17.45-7.16a10.3,10.3,0,0,0-3.74-1c-4.05,0-6.46,4.37-8.11,8.07A171.61,171.61,0,0,1,433.94,419.23Zm57.36-37c3,1.1,7.2,1.78,8.62-1.08,6.86-13.83,13.91-27.92,24.83-38.84C531,336,534.9,327.63,537.09,319s2.8-17.56,3.4-26.44c-2.65,1-2.88,4.54-2.86,7.36a53,53,0,0,1-3.2,18.28,4.86,4.86,0,0,1-2.24,3.06c-1.19.51-3-.52-2.55-1.76A74.82,74.82,0,0,0,533,289.94c-.27-3.08-.84-6.38-3-8.57a99,99,0,0,1,0,14.61c-.86,8.4-3.86,16.4-6.85,24.29a4.37,4.37,0,0,1-1.84,2.62c-1,.48-2.51-.28-2.25-1.34l4.47-18.47c2.45-10.15,4.87-21.07,1.06-30.8-1.91-.13-2.36,2.61-2.19,4.52,1.17,13.09-2.45,26.09-6,38.74-.42,1.47-1.9,3.32-3,2.3a2.2,2.2,0,0,1-.48-1.85A52.74,52.74,0,0,1,515,305.07c.32-1.11.64-2.23.93-3.35A83.52,83.52,0,0,0,518,270c-2.36,3-3.36,6.86-4.31,10.58l-5.6,22.07c-2.54,10-5.78,20.94-14.56,26.3a3.23,3.23,0,0,1-2.31.64c-1-.24-1.55-1.26-2-2.2a56.53,56.53,0,0,1-1.92-40.47c.26-.8-.55-1.63-1.38-1.7a3.7,3.7,0,0,0-2.31.88c-7.19,5.07-9.95,14.27-12.24,22.77l-3,11.31a18.55,18.55,0,0,0,.23,12.69l.46,1.75a52.81,52.81,0,0,1-3.67,35.4c-.78,1.61,1.27,3.07,2.94,3.69Zm11.37-107.91c-1.2-.83-2.49-1.77-2.86-3.18-.57-2.16,1.49-4.33,3.71-4.62s4.38.78,6.21,2.05c2.59,1.79,5.86-.94,7.8-3.42-2.61-1.56-5.11-4-5.21-7s3.6-5.94,6.06-4.15a13.31,13.31,0,0,0,3.25,1.54c1.71.63,3.4,1.25,4.34,2.75a5.5,5.5,0,0,1-.4,5.7,16,16,0,0,1-4.4,4.08,14.13,14.13,0,0,1,6.57,2.41l2.11-6.16a3.15,3.15,0,0,1,.72-1.32,2.87,2.87,0,0,1,2.78-.15,13.2,13.2,0,0,1,6.43,4,6.92,6.92,0,0,1,1.16,7.17c-1.12,2.29-4.29,3.52-6.44,2.13a12.55,12.55,0,0,1-1.34-1.05c-1.2-1-2.4-2-3.55-1.23a17.89,17.89,0,0,1,6.63,11.29q16.66-25.38,33-51c1-1.63,1.88-4.2.19-5.14-7.22-4-13.6-9.36-20-14.71-8-6.76-16-13.49-25.69-17.44a3.08,3.08,0,0,0-1.91-.33,3.22,3.22,0,0,0-1.57,1.31A564.65,564.65,0,0,0,472.13,272c-2,3.62.66,7.93,3.18,11.19,1.25,1.63,3.68,3.35,5.05,1.82a6.74,6.74,0,0,1,7-2.18c2.44.86,4,4,2.63,6.27-1,1.61.92,3.4,2.57,4.3q4.94,2.7,10.1,4.93a1.83,1.83,0,0,0,1.5.18,1.87,1.87,0,0,0,.76-1.23l3.81-13.12c.63-2.15,1-4.95-.8-6.23Zm68.19-36.77c-.51-.17-1,.33-1.27.78l-28.54,42.72a9.88,9.88,0,0,0-1.78,3.71,3.35,3.35,0,0,0,1.52,3.56c2.06,1,4.21-1.11,5.53-3l26.52-37.58c2-2.79.3-6.61-1.39-9.58A1.21,1.21,0,0,0,570.86,237.55ZM490.5,294.6a1.33,1.33,0,0,0-1.67.31,3.83,3.83,0,0,0-.76,1.69,15.63,15.63,0,0,0-.34,9l2.73,14.86a3.31,3.31,0,0,0,.69,1.74,1.13,1.13,0,0,0,1.66,0c4.05-5.92,8.15-11.95,10.27-18.8.26-.85.34-2.05-.5-2.36A51.1,51.1,0,0,1,490.5,294.6ZM522.06,258a8.71,8.71,0,0,0-5.06-2.34c-1.72-.17-2.71,2.24-1.92,3.78s2.51,2.29,4.11,2.94c1.13.45,2.5.88,3.49.16C524.09,261.46,523.33,259.15,522.06,258Zm-11.27,17.21a1.78,1.78,0,0,0,.48-1.88c-.59-2.51-3.35-3.79-5.82-4.53-1-.29-2.15-.49-2.83.25a1.89,1.89,0,0,0,.05,2.31,5.35,5.35,0,0,0,2,1.49l3.82,2.06C509.2,275.26,510.12,275.64,510.79,275.16Zm21.76-9.06a3.58,3.58,0,0,0,0,3.83,6.57,6.57,0,0,0,3.08,2.54,2.27,2.27,0,0,0,1.34.27,1.64,1.64,0,0,0,1-.66,3.28,3.28,0,0,0-.56-4,9.52,9.52,0,0,0-3.84-2.12.89.89,0,0,0-.73,0l-.06.05A.77.77,0,0,0,532.55,266.1Zm-383.5,98.26c.52-3.91,1.27-8.22,4.34-10.69,2.45-2,5.82-2.29,9-2.35a86.34,86.34,0,0,1,30.38,4.91c3.07,1.09,6.29,2.53,8,5.32,1.83,3,1.38,6.85.88,10.34l-7.81,54.25a258.6,258.6,0,0,0,11.52-48.39c1.07-7.68,1.44-16.48-3.92-22.08-8.36-8.74-8.14-21.19-7.9-33.85.2-10.92.4-22-4.91-31-1.74-2.94,2.13-6,5.34-7.09a120.58,120.58,0,0,1,44.28-6.67,356.6,356.6,0,0,1,2.22,65.57c-.28,4.91,6.67,6.17,11.55,5.63L421.33,329.5a3.76,3.76,0,0,0,2.36-.83,3.82,3.82,0,0,0,.73-2.81q-.6-59.52-3.43-119c-.07-1.55-.27-3.32-1.55-4.19a5.06,5.06,0,0,0-3.38-.46L295.17,213.94c7.95-37.45,15.93-75.61,12.31-113.73-26.43,17.62-60.52,17.49-92.23,15.62l-4-.23c-30.51-1.83-62.33-3.73-89.77,9.47,14.37,38.08,28.9,79.65,17,118.56-1.06,3.44-2.32,6.82-3.57,10.2a120.08,120.08,0,0,0-5.07,15.84c-2,8.94-1.68,18.95,3.61,26.42,7.66,10.81,13.75,23.11,15.13,36.29,1.32,12.51-1.62,24.91-4.56,37.3-3.07,12.95-6.14,25.88-4.34,38.9.3,2.2.85,4.57,2.58,6Zm12-157.17c3.2.12,4.47,4.14,4.88,7.32l3.25,25.16c-6.33-3.28-15.24,2.29-15.06,9.42-5.34-10.29-6.15-22.1-6.95-33.78-.17-2.54-.35-5.08-.57-7.59-2.35-26.88-10.45-52.87-18.5-78.62-1.15-3.68,3.81-6.06,7.61-6.62,25-3.66,50.26-3.15,75.56-2.65,11.46.23,22.93.46,34.37.3,20.33-.28,41.85-2.2,58.34-14.1,3.71,24.72-1.33,49.65-6.31,74.27-.67,3.33-1.34,6.65-2,10-5.45,27.84-9.15,57.52,1.27,83.9.43,1.11-1.06,1.95-2.23,2.2a81.25,81.25,0,0,1-26.12,1.13c-3.73-.44-7.42-1.15-11.11-1.85-2.78-.53-5.56-1.06-8.35-1.48a108.22,108.22,0,0,0-62.24,9.29,3.39,3.39,0,0,1-2.5-.09c-3.89-1.34-6.66-4.94-8-8.82s-1.58-8.06-1.77-12.17l-.77-17.26c0-.62.13-1.46.75-1.48q50.49-1.57,100.77-6.8a76,76,0,0,1-.41-24c.72-5-4-9.62-9-10.29s-10,1.61-14.2,4.49c-1.56,1.08-3.07,2.26-4.57,3.43a58,58,0,0,1-7.81,5.44c-1.83,1-4,1.79-6,1-2.35-1-3.14-3.78-3.85-6.27,0-.16-.08-.32-.13-.47-.91-3.22-2.43-6.42-5.09-8.44s-6.68-2.52-9.31-.46c-2.24,1.77-3,4.83-3.33,7.66,0,.25-.07.51-.1.76-.33,2.61-.68,5.3-2.23,7.39-1.71,2.29-5.52,3.27-7.39,1.11-3.7-4.27-10.2-5.16-15.65-3.66s-10.11,5-14.63,8.35a14.64,14.64,0,0,1-.57-14.49l0-.07c.45-.84,1-1.8.57-2.66a2.43,2.43,0,0,0-1.33-1.08A7.89,7.89,0,0,0,161,207.19Zm96.37,72.15c1.79.36,4,1.16,4.11,3,1.05,17.41,14.89,33.05,31.89,36.9s35.86-3.94,45.78-18.28,10.69-34.27,2.56-49.7C333,234.7,311.83,225.92,294,231.44a22.79,22.79,0,0,1,.27-11.13,3.38,3.38,0,0,1,1-1.81,3.64,3.64,0,0,1,1.92-.61l50.33-6.06a118.8,118.8,0,0,1,13.32-1.1A314.91,314.91,0,0,0,417.9,205q4.39,58.9,4.13,118c0,1.86-.58,4.35-2.45,4.4-31.68.92-63.1,5.09-94.54,9.26-21.12,2.8-42.25,5.6-63.47,7.42a79.4,79.4,0,0,1-14.21.31,2.22,2.22,0,0,1-2.62-2.48l-2.83-63c0-.81,0-1.79.72-2.2a2.25,2.25,0,0,1,1.58-.07Zm-86.67-14.58c-.5,3.27-1.06,6.95,1.08,9.43,8,9.23,16.3,19.09,18.42,31.11,1,5.62.57,11.4.15,17.15-.54,7.25-1.07,14.47,1.24,21.27l.18.53a8.47,8.47,0,0,1,.72,3.71c-.16,1.46-1.41,2.92-2.85,2.67L173,347.75c-5.54-1-11.38-1.89-16.64.09a2.4,2.4,0,0,1-2.73-1.23,6.64,6.64,0,0,1-.66-3.15c-.06-1.31-.1-2.63-.15-3.95-.27-8.32-.54-16.8-4.39-24.09L136.1,292.17c-1.81-3.43-3.67-7-3.79-10.9a25.69,25.69,0,0,1,1.31-7.64l6.13-22.07c1.29-4.65,2.65-9.44,5.71-13.18a45.8,45.8,0,0,1,1.89,42.1c-.58,1.22,1.19,2.48,2.45,2s1.9-1.87,2.35-3.14c1.78-5.12,2.4-10.51,3-15.91a92.45,92.45,0,0,1,2.13-13c.69-2.6,1.68-5.25,3.68-7s5.28-2.39,7.38-.72c1.61,1.28,2.13,3.47,2.43,5.5a54,54,0,0,1,0,16.2Zm28.84-43.58c2.46,1.88,4.87,3.73,7.83,3.39,3.75-.44,6.09-4.3,7.19-7.93.24-.79.45-1.6.66-2.41.76-2.9,1.53-5.83,3.52-8a2.34,2.34,0,0,1,2.23-1,2.57,2.57,0,0,1,1.36,1.49c.44.89.85,1.78,1.27,2.68a37.09,37.09,0,0,0,4,7.27c2.29,3,5.87,5.32,9.62,4.91,3.34-.36,6-2.73,8.5-5,.53-.48,1.05-.95,1.57-1.4a35.87,35.87,0,0,1,22.23-8.61c-1.09,2.73-.36,5.71.35,8.63.18.71.35,1.41.49,2.1a27.59,27.59,0,0,1-1.63,16.42l-54.11,4.16c-12.64,1-25.3,1.95-38,1.51a6.5,6.5,0,0,1-2.36-.39,4.73,4.73,0,0,1-2.51-3.56c-.68-3.32.86-6.78,3.18-9.25s5.35-4.14,8.32-5.76,6.54-3.43,10-2.71C195.65,218.18,197.62,219.69,199.57,221.18ZM302,300c-8.2-.16-15.3-6.85-17.74-14.68a3.93,3.93,0,0,1,2-4.23,11.31,11.31,0,0,1,4.81-1.27l12-1.35a81.72,81.72,0,0,1-7.69-22.6,4.47,4.47,0,0,1,0-2.15c.4-1.21,1.7-1.84,2.91-2.25a23.68,23.68,0,0,1,25.46,37.94A32.43,32.43,0,0,1,313,297.19,24.65,24.65,0,0,1,302,300Zm38.9-42.2A59.48,59.48,0,0,1,343,272.72a76.29,76.29,0,0,0-9.9-.85c-.64-8.46-6.27-16.1-13.67-20.24s-16.34-5-24.7-3.63a32.8,32.8,0,0,0-.51-3.68c-.57-3.28-1.15-6.56,1-8.89a8.88,8.88,0,0,1,5.11-2.32,35.61,35.61,0,0,1,40.61,24.69Zm-60.12,26.66c0,.16,0,.31,0,.46a6.79,6.79,0,0,0,1,3.3c.14.29.29.57.42.85.63,1.35.93,3.12-.12,4.18a47.2,47.2,0,0,0-6.64,8.45,1.78,1.78,0,0,1-2.37.37,5.14,5.14,0,0,1-1.68-2c-2.8-4.87-5.66-10-6-15.58-.05-.7,0-1.54.65-1.87a1.94,1.94,0,0,1,.9-.15l12.5,0a1.86,1.86,0,0,1,.88.15C281,282.9,280.88,283.71,280.82,284.46Z"/></svg>