<svg id="Layer_1" data-name="Layer 1" xmlns="http://www.w3.org/2000/svg" viewBox="0 0 24 24"><defs><style>.cls-1{fill:none;stroke:#fc1a3d;stroke-miterlimit:10;stroke-width:1.06px;}</style></defs><path class="cls-1" d="M18.85,3.76H15.26a.57.57,0,0,1-.56-.32A3,3,0,0,0,12,1.72a2.93,2.93,0,0,0-2.7,1.69.58.58,0,0,1-.58.35c-1.25,0-2.49,0-3.73,0A2.1,2.1,0,0,0,2.79,5.85V20a2.07,2.07,0,0,0,2,2.17H19A2.07,2.07,0,0,0,21.21,20V6.11A2.23,2.23,0,0,0,18.85,3.76Zm-6.93.13a.93.93,0,0,1,1,.9v.08a1,1,0,0,1-1,1,1,1,0,0,1,0-2Z"/><line class="cls-1" x1="5.38" y1="9.46" x2="19.14" y2="9.46"/><line class="cls-1" x1="5.38" y1="14" x2="19.14" y2="14"/><line class="cls-1" x1="5.38" y1="18.55" x2="19.14" y2="18.55"/></svg>