<svg id="Layer_1" data-name="Layer 1" xmlns="http://www.w3.org/2000/svg" viewBox="0 0 112.08 95.14"><defs><style>.cls-1{fill:#f8dc8c;}.cls-2{fill:#fff;}.cls-3{fill:#9a1c21;}.cls-4{fill:#fc1a3d;}</style></defs><path class="cls-1" d="M78.82,9c-6.27-4.82-15-7.34-22.79-5.6a24.58,24.58,0,0,0-12,6.66c-3.08,3.12-4.27,7.87-8.54,9.86-3.57,1.66-7.67.84-11.45.9a17.38,17.38,0,0,0-10,3.08C.61,33.54,7.06,54,18.37,62.32c9.23,6.79,22.1,7.23,33.11,6.78,1.45,0,2.9-.14,4.36-.24A39.3,39.3,0,0,0,70.49,65.2,32.41,32.41,0,0,0,85.65,48.73C91,36.17,90.78,18.21,78.82,9Z"/><circle class="cls-1" cx="28.39" cy="10.91" r="6.88" transform="translate(5.16 30.54) rotate(-61.23)"/><path class="cls-2" d="M73.54,82.62H31.48l-2.11,7.43H75.8C74.57,83.72,73.54,82.62,73.54,82.62Z"/><path d="M29.37,90.31H29.3a.26.26,0,0,1-.18-.32l2.11-7.43a.26.26,0,0,1,.25-.19H73.54a.26.26,0,0,1,.19.08s1.09,1.23,2.33,7.56a.28.28,0,0,1-.21.31.25.25,0,0,1-.3-.21c-1-5.23-1.91-6.86-2.14-7.22H31.68l-2.06,7.24A.25.25,0,0,1,29.37,90.31Z"/><path class="cls-3" d="M28.21,45.57C32,43,35.88,37.69,47.87,37.69l9,0c11.55,0,15.08,2.16,22.36-9.46,3.83-6.11,14.82-5.05,18,.66,0,0,4.43,28.66-11.63,34a19.78,19.78,0,0,1-14.34-.78l2.33,20.49H31.48C6.76,88.19-.06,64.79,28.21,45.57Z"/><path class="cls-2" d="M41.56,38.27c2.09,3.18,5.53,6.56,11.49,6.56,7.33,0,8.64-5,8.87-7-1.51,0-3.18-.11-5.08-.11,0,.05-.05,0-.05,0H47.87A31.63,31.63,0,0,0,41.56,38.27Z"/><path d="M24.49,83.71a20.38,20.38,0,0,1-6.55-1,12,12,0,0,1-7.41-6.51c-1.73-4-1.19-9,1.52-14.27,3-5.78,8.55-11.52,16-16.59l.15.22-.15-.22c.68-.46,1.37-1,2.1-1.61,3.3-2.66,7.81-6.31,17.71-6.31l9,0c1.68,0,3.2,0,4.55.1,8.09.26,11.44.37,17.59-9.44,1.73-2.76,5.11-4.35,9-4.24,4.11.11,7.79,2,9.38,4.91a.16.16,0,0,1,0,.09A64.39,64.39,0,0,1,97.65,44a32.26,32.26,0,0,1-3.28,11.53,15.29,15.29,0,0,1-8.74,7.68,20.38,20.38,0,0,1-14.11-.6l2.28,20a.24.24,0,0,1-.06.2.25.25,0,0,1-.2.09h-42A32.43,32.43,0,0,1,24.49,83.71Zm3.86-37.93C12.1,56.83,7.93,68.92,11,76c2.67,6.16,10.49,8.6,20.41,6.37H73.25L71,62.16a.25.25,0,0,1,.12-.24.25.25,0,0,1,.26,0,19.71,19.71,0,0,0,14.14.77C93.63,60,96.32,51,97.13,43.89A63.07,63.07,0,0,0,96.93,29c-1.51-2.69-5-4.5-8.92-4.6-3.74-.11-7,1.39-8.59,4-6.31,10.06-10,9.94-18.05,9.68C60,38,58.51,38,56.84,38l-9,0c-9.71,0-14.15,3.58-17.38,6.19-.74.6-1.44,1.17-2.14,1.64Z"/><rect class="cls-2" x="59.62" y="51.82" width="23.19" height="24.51" transform="translate(142.43 128.15) rotate(180)"/><path d="M82.81,76.59H59.62a.25.25,0,0,1-.26-.26V51.82a.26.26,0,0,1,.26-.26H82.81a.26.26,0,0,1,.26.26V76.33A.26.26,0,0,1,82.81,76.59Zm-22.93-.52H82.55v-24H59.88Z"/><rect class="cls-2" x="66.81" y="40.78" width="23.19" height="25.07" transform="translate(156.81 106.64) rotate(180)"/><path d="M90,66.11H66.81a.26.26,0,0,1-.26-.26V40.78a.26.26,0,0,1,.26-.26H90a.26.26,0,0,1,.26.26V65.85A.25.25,0,0,1,90,66.11Zm-22.93-.52H89.74V41H67.07Z"/><rect class="cls-2" x="78.77" y="33.73" width="23.64" height="28.41" transform="translate(181.18 95.86) rotate(180)"/><path d="M102.41,62.39H78.77a.26.26,0,0,1-.26-.26V33.73a.26.26,0,0,1,.26-.26h23.64a.26.26,0,0,1,.26.26v28.4A.26.26,0,0,1,102.41,62.39ZM79,61.87h23.12V34H79Z"/><polygon class="cls-4" points="82.47 61.4 82.47 53.97 104.61 53.97 104.61 92.88 54.04 92.88 54.04 61.4 82.47 61.4"/><path d="M104.61,93.14H54a.26.26,0,0,1-.26-.26V61.4a.25.25,0,0,1,.26-.26H82.21V54a.25.25,0,0,1,.26-.26h22.14a.25.25,0,0,1,.26.26V92.88A.26.26,0,0,1,104.61,93.14ZM54.3,92.62h50.05V54.23H82.73V61.4a.26.26,0,0,1-.26.26H54.3Z"/><polygon class="cls-2" points="51.71 62.74 30.72 71.01 23.49 52.72 28.11 42.08 41.52 36.88 51.71 62.74"/><path d="M30.72,71.27a.25.25,0,0,1-.24-.17L23.25,52.82a.23.23,0,0,1,0-.2L27.88,42a.27.27,0,0,1,.14-.14l13.41-5.2a.25.25,0,0,1,.33.14L52,62.65a.25.25,0,0,1-.15.33l-21,8.27ZM23.77,52.73l7.1,17.94,20.5-8.07-10-25.38L28.31,42.29Z"/><path d="M23.49,53a.24.24,0,0,1-.19-.08.26.26,0,0,1-.05-.28L27.88,42a.28.28,0,0,1,.24-.16.29.29,0,0,1,.24.17l3,7.63a.27.27,0,0,1-.14.34l-7.64,3A.15.15,0,0,1,23.49,53ZM28.1,42.76,24,52.25l6.8-2.68Z"/><path class="cls-2" d="M102.48,36.12c-.78-1.33-1.79-2.49-2.61-3.79A15.65,15.65,0,0,0,97,28.77c-1.3-1.13-3.17-1.25-4.81-1.46a18,18,0,0,0-6.42.2,9.54,9.54,0,0,0-5.38,3.93,12.22,12.22,0,0,0-1.2,2.36h6.29c0,6.65.57,9.8,2.75,9.86,1.7,0,1.47-1.2,1.47-1.2a2.29,2.29,0,0,0,2.36,1.89c1.3,0,1.89-1.09,2.33-2.49.19,1.13.82,2,1.79,2.06,2.5.18,2.23-1.67,2.36-5.57C100.48,40.48,103.84,38.42,102.48,36.12Z"/><path d="M92.13,44.61a2.57,2.57,0,0,1-2.37-1.28l-.07.09a1.78,1.78,0,0,1-1.46.5c-2.47-.07-3-3.66-3-9.86-1,0-4.55,0-6,0A.24.24,0,0,1,79,34a.29.29,0,0,1,0-.24,13,13,0,0,1,1.24-2.42,9.7,9.7,0,0,1,5.53-4,18.24,18.24,0,0,1,6.51-.21l.47.06a8.11,8.11,0,0,1,4.48,1.46,15.48,15.48,0,0,1,2.91,3.62c.36.58.78,1.14,1.18,1.69s1,1.37,1.44,2.11a2.19,2.19,0,0,1-.6,3,2.76,2.76,0,0,1-3.31,0c0,.22,0,.44,0,.65,0,2.09-.08,3.48-.83,4.16a2.24,2.24,0,0,1-1.78.45,2.14,2.14,0,0,1-1.8-1.46C94,43.75,93.31,44.61,92.13,44.61ZM90,42.44a2,2,0,0,0,2.11,1.65c.94,0,1.54-.64,2.08-2.31a.24.24,0,0,1,.26-.18.27.27,0,0,1,.24.22c.17,1.07.77,1.78,1.54,1.84a1.81,1.81,0,0,0,1.4-.31c.59-.54.61-1.83.66-3.8,0-.38,0-.78,0-1.21a.27.27,0,0,1,.17-.24.25.25,0,0,1,.28.07,2.26,2.26,0,0,0,3.06.38,1.67,1.67,0,0,0,.46-2.3,24.17,24.17,0,0,0-1.41-2.06c-.41-.55-.83-1.13-1.2-1.72A15.24,15.24,0,0,0,96.84,29a7.56,7.56,0,0,0-4.2-1.33l-.47-.06a17.7,17.7,0,0,0-6.33.2,9.2,9.2,0,0,0-5.23,3.82,11,11,0,0,0-1,1.95h4.93c1.09,0,1.09,0,1.17.08a.24.24,0,0,1,.07.18c0,7,.68,9.55,2.49,9.6a1.32,1.32,0,0,0,1.05-.32.73.73,0,0,0,.16-.58.26.26,0,0,1,.22-.3.25.25,0,0,1,.29.21Z"/><path d="M94.4,42.12a.26.26,0,0,1-.26-.26l.07-8.33a.26.26,0,0,1,.26-.26.26.26,0,0,1,.26.26l-.07,8.33A.26.26,0,0,1,94.4,42.12Z"/><path d="M89.71,42.72a.26.26,0,0,1-.26-.26c0-2.57-.14-8.58-.1-8.78a.25.25,0,0,1,.3-.21.26.26,0,0,1,.21.29c0,.29,0,5.35.11,8.69a.27.27,0,0,1-.26.27Z"/><path d="M98.55,38.61a.26.26,0,0,1-.26-.26l-.1-5.28a.25.25,0,0,1,.25-.27.27.27,0,0,1,.27.26l.1,5.28a.27.27,0,0,1-.25.27Z"/><path d="M71.06,17.43A3.39,3.39,0,1,1,74.45,14,3.39,3.39,0,0,1,71.06,17.43Zm0-6.26A2.87,2.87,0,1,0,73.93,14,2.88,2.88,0,0,0,71.06,11.17Z"/><path class="cls-2" d="M101.12,60.75a3.49,3.49,0,1,1-3.49-3.49A3.48,3.48,0,0,1,101.12,60.75Z"/><path class="cls-2" d="M16.51,65.78a.25.25,0,0,1-.22-.12.26.26,0,0,1,.08-.36c.28-.17,6.81-4.18,11-5.25a.26.26,0,0,1,.13.51c-4.15,1-10.83,5.14-10.89,5.18A.25.25,0,0,1,16.51,65.78Z"/><path class="cls-2" d="M31.59,82.88a.27.27,0,0,1-.19-.08.26.26,0,0,1,0-.37,26,26,0,0,0,6.52-12.54.26.26,0,0,1,.31-.2.27.27,0,0,1,.2.31,26.61,26.61,0,0,1-6.68,12.81A.23.23,0,0,1,31.59,82.88Z"/><path class="cls-2" d="M50.7,57.57a1.42,1.42,0,0,0-2.15-.78s2.42-1.48,1.39-2.87-3.17-.49-3.17-.49a1.78,1.78,0,0,0,.48-2.86c-1-1.28-2.51-.46-3.93.17a54.5,54.5,0,0,0-5.11,3.17s1-5.7-1.51-5.7S32.77,55.13,31.48,57a20.8,20.8,0,0,1-4,3.31,7.13,7.13,0,1,0,8.43,11.5,22.88,22.88,0,0,0,3.34-2.92c1.56-2,8.73-4.27,9.8-6.29s-1.17-2.1-1.17-2.1S51.32,59.24,50.7,57.57Z"/><path d="M31.54,73.55a7.42,7.42,0,0,1-1.24-.11,7.28,7.28,0,0,1-4.93-3.23,7.37,7.37,0,0,1,1.95-10.12c2.73-1.9,3.65-2.81,3.95-3.24a17.59,17.59,0,0,0,1.31-3C33.64,51.1,34.84,48,36.7,48a1.55,1.55,0,0,1,1.22.56c.94,1.12.76,3.69.62,4.86a44.73,44.73,0,0,1,4.67-2.87l.29-.13c1.38-.62,2.94-1.32,4,0a2.3,2.3,0,0,1,.5,1.93,2.09,2.09,0,0,1-.24.58,2.43,2.43,0,0,1,2.42.85,1.43,1.43,0,0,1,.29,1.17,2.8,2.8,0,0,1-.83,1.35,1.59,1.59,0,0,1,.35.08,1.7,1.7,0,0,1,1,1.11,1.46,1.46,0,0,1-.06,1.12,4.65,4.65,0,0,1-2.2,1.82,1.53,1.53,0,0,1,.74.6,1.75,1.75,0,0,1-.16,1.7c-.6,1.14-2.83,2.26-5.18,3.45-1.94,1-4,2-4.64,2.88a23,23,0,0,1-3.39,3A7.44,7.44,0,0,1,31.54,73.55ZM36.7,48.47c-1.5,0-2.68,3.11-3.64,5.6a17.11,17.11,0,0,1-1.37,3.08,19.55,19.55,0,0,1-4.07,3.37,6.84,6.84,0,0,0-1.82,9.39,6.86,6.86,0,0,0,9.94,1.69A21.13,21.13,0,0,0,39,68.72c.77-1,2.73-2,4.82-3s4.42-2.23,5-3.22a1.28,1.28,0,0,0,.17-1.2c-.28-.48-1.12-.52-1.12-.52a.27.27,0,0,1-.25-.22.26.26,0,0,1,.17-.29s2.14-.79,2.64-1.86a.93.93,0,0,0,0-.73,1.22,1.22,0,0,0-.68-.8,1.51,1.51,0,0,0-1.09.15.27.27,0,0,1-.36-.09.27.27,0,0,1,.09-.36s1.32-.81,1.5-1.71a.94.94,0,0,0-.19-.77c-.91-1.21-2.84-.42-2.86-.41a.26.26,0,0,1-.22-.48,1.47,1.47,0,0,0,.81-1,1.85,1.85,0,0,0-.42-1.5c-.71-.95-1.78-.57-3.33.13l-.29.13a53.58,53.58,0,0,0-5.07,3.15.24.24,0,0,1-.28,0,.25.25,0,0,1-.12-.26s.63-3.76-.43-5A1,1,0,0,0,36.7,48.47Z"/><path d="M38.54,57.83a.27.27,0,0,1-.12-.5L47.13,53a.26.26,0,0,1,.23.47l-8.7,4.38A.27.27,0,0,1,38.54,57.83Z"/><path d="M35.28,55.91a.28.28,0,0,1-.23-.13.27.27,0,0,1,.1-.36l2.9-1.7a.27.27,0,0,1,.36.09.26.26,0,0,1-.1.36l-2.9,1.7A.22.22,0,0,1,35.28,55.91Z"/><path d="M40.68,60.76a.25.25,0,0,1-.23-.15.26.26,0,0,1,.12-.35l9-4.23a.24.24,0,0,1,.34.12.26.26,0,0,1-.12.35l-9,4.23A.2.2,0,0,1,40.68,60.76Z"/><path d="M42.36,63.83a.28.28,0,0,1-.23-.13.27.27,0,0,1,.1-.36l5.51-3.07a.26.26,0,1,1,.25.45l-5.5,3.08A.31.31,0,0,1,42.36,63.83Z"/><circle cx="52.74" cy="26.66" r="8.31" transform="translate(-4.7 12.77) rotate(-13.22)"/><path class="cls-2" d="M47.37,32.73c2.29-.73,2.73-2.2,3.21-4.15a19.32,19.32,0,0,0,.85-4.67c0-.42,8.67-.61,8.71.2a34.83,34.83,0,0,1,.31,6.29c-.31,3.89-.12,6.32-4.25,6.32L56.15,40l-9,0Z"/><path d="M56.15,39.16a.26.26,0,0,1-.26-.26l0-2.18a.26.26,0,0,1,.26-.26c3.55,0,3.68-1.83,3.92-5.16,0-.3.05-.61.07-.92a30,30,0,0,0-.25-5.73l-.06-.52a.27.27,0,0,1,.25-.28.26.26,0,0,1,.27.25c0,.07,0,.25.06.48a31.13,31.13,0,0,1,.25,5.84c0,.31-.05.62-.07.91-.24,3.33-.4,5.56-4.19,5.65l0,1.93A.26.26,0,0,1,56.15,39.16Z"/><path d="M47.17,38.81a.26.26,0,0,1-.26-.26l.2-5.83a.27.27,0,0,1,.27-.25.26.26,0,0,1,.25.27l-.2,5.82A.26.26,0,0,1,47.17,38.81Z"/><path d="M56.2,37a9.75,9.75,0,0,1-3.57-.7.26.26,0,0,1-.13-.34.26.26,0,0,1,.35-.13,9.83,9.83,0,0,0,3.36.65.27.27,0,0,1,.25.27A.26.26,0,0,1,56.2,37Z"/><path d="M56.17,38.55a1.64,1.64,0,0,1-1.59.85c-1.21,0-2-3.41-2-3.41l3.62.73Z"/><path class="cls-2" d="M47.86,29.24a2.2,2.2,0,1,0,2.2-2.2A2.21,2.21,0,0,0,47.86,29.24Z"/><path d="M50.47,29.89a.29.29,0,0,1-.22-.11l-.8-1.12a.27.27,0,0,1,.06-.37.27.27,0,0,1,.36.06l.81,1.13a.27.27,0,0,1-.06.36A.23.23,0,0,1,50.47,29.89Z"/><path d="M57.29,32.64h-.08a1.86,1.86,0,0,1-1.07-1.11.26.26,0,0,1,.16-.33.26.26,0,0,1,.33.16,1.37,1.37,0,0,0,.74.78.27.27,0,0,1,.17.33A.27.27,0,0,1,57.29,32.64Z"/><path d="M55.27,28.31a.53.53,0,0,1-.57.48.54.54,0,0,1-.48-.58.53.53,0,0,1,1.05.1Z"/><path d="M59.34,28.31a.54.54,0,0,1-.58.48.53.53,0,1,1,.58-.48Z"/><path class="cls-4" d="M54.48,26.26a.26.26,0,0,1,0-.52l5.83,0a.26.26,0,0,1,.26.26.25.25,0,0,1-.26.26l-5.83,0Z"/><path class="cls-4" d="M54.35,31.29h-.14a2.65,2.65,0,1,1,.14,0ZM52.1,28.4a2.25,2.25,0,0,0,4.5.23,2.26,2.26,0,0,0-2.14-2.37A2.26,2.26,0,0,0,52.1,28.4Z"/><path class="cls-4" d="M60.19,31.27h-.14a2.77,2.77,0,1,1,.28-5.54,2.74,2.74,0,0,1,1.92.91,2.77,2.77,0,0,1-2.06,4.63Zm-2.25-2.89a2.25,2.25,0,1,0,4.5.23,2.25,2.25,0,1,0-4.5-.23Z"/><path d="M57.9,31.24a.26.26,0,0,1-.26-.23l-.41-3.48a.26.26,0,0,1,.23-.29.25.25,0,0,1,.28.23l.41,3.47a.25.25,0,0,1-.22.29Z"/><path d="M51.53,25.86A2.44,2.44,0,1,1,54,23.42,2.45,2.45,0,0,1,51.53,25.86Z"/><path d="M56.11,25a2.7,2.7,0,1,1,2.7-2.7A2.7,2.7,0,0,1,56.11,25Z"/><path d="M52,22.16a2.71,2.71,0,1,1,2.71-2.7A2.71,2.71,0,0,1,52,22.16Z"/><path d="M59.62,25a3.08,3.08,0,1,1,3.08-3.08A3.09,3.09,0,0,1,59.62,25Z"/><path d="M56.2,22.56a3,3,0,1,1,3-3A3,3,0,0,1,56.2,22.56Z"/><path d="M56.39,21.58a3.23,3.23,0,1,1,3.23-3.23A3.24,3.24,0,0,1,56.39,21.58Zm0-5.94a2.71,2.71,0,1,0,2.71,2.71A2.71,2.71,0,0,0,56.39,15.64Z"/><path d="M20.12,37a.27.27,0,0,1-.19-.08l-3.6-3.61a.24.24,0,0,1,0-.36.25.25,0,0,1,.36,0l3.61,3.6a.27.27,0,0,1,0,.37A.27.27,0,0,1,20.12,37Z"/><path d="M16.51,37a.27.27,0,0,1-.18-.45l3.6-3.6a.27.27,0,0,1,.37,0,.25.25,0,0,1,0,.36L16.69,37A.25.25,0,0,1,16.51,37Z"/></svg>