<svg id="Layer_1" data-name="Layer 1" xmlns="http://www.w3.org/2000/svg" viewBox="0 0 24 24"><defs><style>.cls-1{fill:#a3c9a8;}</style></defs><path class="cls-1" d="M23.58,12A11.58,11.58,0,1,1,12,.42,11.58,11.58,0,0,1,23.58,12ZM1.86,12A10.14,10.14,0,1,0,11.94,1.87,10.16,10.16,0,0,0,1.86,12Z"/><path class="cls-1" d="M15.52,18c-.09,0-.25-.1-.4-.18-.93-.49-1.86-1-2.81-1.47a.83.83,0,0,0-.62,0c-.93.47-1.84,1-2.78,1.44a2.58,2.58,0,0,1-.8.13A2.85,2.85,0,0,1,8,17.1c.14-1,.35-2,.49-3.05a.85.85,0,0,0-.21-.63c-.74-.77-1.53-1.5-2.28-2.27-.15-.16-.31-.45-.25-.62s.35-.32.56-.36c1-.18,2.09-.32,3.14-.46a.72.72,0,0,0,.62-.44c.45-.95.91-1.88,1.4-2.81A.88.88,0,0,1,12,6c.16,0,.4.25.5.45.5.93.94,1.9,1.44,2.83a.83.83,0,0,0,.54.39c1.05.19,2.12.31,3.18.49.21,0,.51.19.56.36s-.09.46-.24.61c-.74.76-1.5,1.5-2.26,2.23a.69.69,0,0,0-.25.72c.2,1.07.38,2.15.55,3.23C16.11,17.77,16,18,15.52,18ZM12,7.46c-.42.85-.82,1.59-1.16,2.35a1.15,1.15,0,0,1-1.06.79c-.85.08-1.68.24-2.61.38l.35.39L9.21,13a.82.82,0,0,1,.28.82c-.15.76-.27,1.54-.4,2.31,0,.16,0,.31-.06.48h.16c.79-.41,1.58-.81,2.36-1.23a.82.82,0,0,1,.9,0c.59.33,1.2.63,1.79.94.22.12.45.22.76.37-.11-.66-.21-1.22-.29-1.78-.29-1.94-.53-1.26.88-2.67L16.83,11c-.88-.13-1.68-.28-2.48-.34a1.28,1.28,0,0,1-1.21-.87C12.82,9,12.42,8.3,12,7.46Z"/></svg>