<?xml version="1.0" encoding="utf-8"?>
<!-- Generator: Adobe Illustrator 26.0.1, SVG Export Plug-In . SVG Version: 6.00 Build 0)  -->
<svg version="1.1" id="Layer_1" xmlns="http://www.w3.org/2000/svg" xmlns:xlink="http://www.w3.org/1999/xlink" x="0px" y="0px"
	 viewBox="0 0 200 200" style="enable-background:new 0 0 200 200;" xml:space="preserve">
<style type="text/css">
	.st0{fill:#D02727;}
</style>
<g>
	<g>
		<path class="st0" d="M120.1,198c-43,0-78-35-78-78s35-78,78-78c15.6,0,30.7,4.6,43.6,13.3l-4.7,7c-11.5-7.8-24.9-11.9-38.9-11.9
			c-38.4,0-69.6,31.2-69.6,69.6s31.2,69.6,69.6,69.6s69.6-31.2,69.6-69.6c0-9.4-1.8-18.5-5.5-27.1l-0.2-0.6
			c-1.1-2.6-1.1-2.6-2.7-5.2l7.2-4.4c1.9,3,2,3.3,3.2,6.3l0.2,0.6c4.1,9.6,6.1,19.8,6.1,30.4C198,163.1,163.1,198,120.1,198z"/>
		<g>
			<path class="st0" d="M101.5,136.8c0.9,0,1.4,0.1,1.7,0.4c0.3,0.3,0.4,0.8,0.4,1.7v1.9c2.4,0.7,4.9,1.2,7.4,1.5
				c2.5,0.3,5.1,0.4,8,0.4c3.1,0,5.7-0.5,7.8-1.4c2.1-1,3.2-2.6,3.2-5c0-0.7-0.2-1.4-0.6-2c-0.4-0.6-1.2-1.2-2.2-1.7
				c-1-0.5-2.4-1-4.1-1.5c-1.7-0.5-3.9-1-6.6-1.6c-4.8-1.1-8.9-2.2-12.5-3.5c-3.5-1.3-6.5-2.8-8.8-4.8c-2.3-1.9-4.1-4.3-5.2-7
				c-1.2-2.7-1.7-6.1-1.7-10.1c0-3.7,0.7-7.1,2.2-10.1c1.5-3,3.6-5.6,6.3-7.8c2.7-2.2,6-3.8,9.8-5c3.8-1.2,8.1-1.7,12.8-1.7
				c5.8,0,10.8,0.5,15.1,1.5c4.3,1,7.9,2.5,10.9,4.4c0.8,0.5,1.3,0.9,1.6,1.2c0.3,0.3,0.4,0.8,0.4,1.7v11.6c0,0.9-0.1,1.4-0.4,1.7
				c-0.3,0.3-0.8,0.4-1.7,0.4h-9.9c-0.9,0-1.4-0.1-1.7-0.4c-0.3-0.3-0.4-0.8-0.4-1.7v-1.4c-1.7-0.5-3.5-0.9-5.4-1.2
				c-1.9-0.3-3.9-0.4-5.9-0.4c-1.6,0-3.1,0.1-4.5,0.3c-1.4,0.2-2.7,0.6-3.7,1c-1.1,0.5-1.9,1.1-2.5,1.8c-0.6,0.8-0.9,1.7-0.9,2.7
				c0,0.8,0.2,1.5,0.6,2c0.4,0.6,1.1,1.1,2.1,1.6c1,0.5,2.3,1,4,1.5c1.7,0.5,3.8,1,6.3,1.6c5,1.2,9.3,2.5,12.9,3.9
				c3.7,1.4,6.6,3.1,9,5.1c2.3,2,4,4.3,5.2,7c1.1,2.7,1.7,5.9,1.7,9.7c0,4.2-0.8,7.9-2.3,11.1c-1.6,3.2-3.8,5.8-6.6,7.9
				c-2.8,2.1-6.3,3.7-10.3,4.8c-4,1.1-8.5,1.6-13.4,1.6c-2.7,0-5.4-0.2-8.1-0.5c-2.7-0.4-5.2-0.9-7.7-1.5c-2.4-0.7-4.7-1.4-6.7-2.2
				c-2.1-0.8-3.8-1.7-5.4-2.7c-0.8-0.5-1.3-0.9-1.6-1.2c-0.3-0.4-0.4-1-0.4-1.8v-11.6c0-0.9,0.1-1.4,0.4-1.7
				c0.3-0.3,0.8-0.4,1.7-0.4H101.5z"/>
		</g>
		<g>
			<path class="st0" d="M193.6,76.5h-15.7v15.7h-10.3V76.5h-15.7V66.2h15.7V50.5h10.3v15.7h15.7V76.5z"/>
		</g>
	</g>
	<g>
		<path class="st0" d="M10,162.6c-0.8-2-0.8-3.9,0-5.7L9.6,157c-0.8,0.3-1.3,0.1-1.6-0.5c-0.3-0.7,0-1.2,0.9-1.6l0.2-0.1
			c0,0,0.4-0.1,1-0.3c0.6-0.2,1.3-0.4,2.1-0.7c0.1,0,0.4-0.2,1-0.4l1.2-0.6c0.1-0.1,0.2-0.1,0.4-0.2c1-0.4,1.6-0.2,1.9,0.6
			c0.3,0.8,0.1,1.4-0.8,1.7l-0.2,0.1l-0.9,0.3c-0.3,0.1-0.5,0.2-0.7,0.2c-1.2,0.5-2,1.3-2.4,2.4c-0.4,1.1-0.3,2.4,0.3,3.9
			c0.5,1.3,1.3,2.3,2.2,2.8c1,0.5,2,0.6,3.1,0.2c1.3-0.5,2-1.5,2.2-2.9c0.1-0.8-0.1-2.1-0.4-3.8c-0.6-2.6-0.7-4.5-0.3-5.7
			c0.5-1.8,1.7-3,3.5-3.7c1.9-0.7,3.8-0.7,5.5,0.3c1.8,0.9,3.1,2.5,3.9,4.7c0.9,2.3,0.9,4.6,0,6.7c0.1,0,0.2-0.1,0.3-0.1
			c0.1,0,0.2-0.1,0.2-0.1c0.3-0.2,0.5-0.3,0.6-0.4c0.8-0.3,1.3-0.1,1.6,0.7c0.3,0.8,0,1.4-0.8,1.7c-0.1,0-0.2,0-0.3,0l-1.7,0.5
			c-0.8,0.2-1.4,0.4-1.6,0.5c-0.4,0.2-1,0.5-1.8,0.9c-0.8,0.4-1.4,0.7-1.8,0.9c-0.9,0.4-1.5,0.1-1.8-0.6c-0.3-0.8,0-1.4,0.9-1.7
			l0.6-0.2c0.2-0.1,0.4-0.2,0.7-0.3c1.6-0.6,2.6-1.6,3.1-2.9c0.5-1.3,0.5-2.9-0.2-4.5c-0.6-1.6-1.5-2.7-2.6-3.3
			c-1.1-0.6-2.3-0.7-3.6-0.2c-2,0.8-2.7,2.5-2.2,5.1l0.4,1.9c0.4,1.9,0.5,3.4,0.5,4.5c0,1-0.4,2-1,2.8c-0.6,0.8-1.5,1.5-2.5,1.9
			c-1.8,0.7-3.5,0.6-5.2-0.3C12,166.2,10.8,164.7,10,162.6z"/>
		<path class="st0" d="M25.7,130.2c0.3,1.8-0.3,3-1.8,3.7c1.8,0.8,2.9,2.4,3.4,4.8c0.3,1.8,0.1,3.3-0.6,4.5
			c-0.7,1.2-1.8,1.9-3.2,2.2c-1.8,0.3-3.3-0.2-4.4-1.6c-0.4-0.5-0.7-1-0.9-1.4c-0.2-0.4-0.4-1.2-0.8-2.5c-0.5-1.8-1-2.9-1.4-3.4
			c-0.4-0.5-1.1-0.7-2.1-0.5c-0.9,0.2-1.5,0.6-1.9,1.3c-0.4,0.7-0.5,1.6-0.3,2.7c0.2,1,0.6,1.9,1.3,2.6c0.3,0.3,0.5,0.4,0.8,0.4
			c0.1,0,0.2-0.1,0.3-0.4c0.2-0.3,0.5-0.6,1-0.6c0.4-0.1,0.8,0,1.2,0.3c0.3,0.3,0.5,0.6,0.6,1.1c0.1,0.6,0,1.1-0.3,1.5
			c-0.3,0.4-0.8,0.7-1.3,0.8c-1.2,0.2-2.4-0.2-3.5-1.3c-1.1-1.1-1.8-2.4-2.1-4.2c-0.7-4,0.9-6.3,4.7-6.9l6.6-1.1
			c1-0.2,1.7-0.3,1.8-0.4c0.7-0.3,1.1-0.7,1-1.3c-0.1-0.8-0.9-1-2.3-0.8l-1.6,0.3c-0.7,0.1-1.1-0.2-1.2-0.8
			c-0.1-0.7,0.3-1.2,1.4-1.3l0.2,0l1.9-0.3C24.1,127.1,25.3,128,25.7,130.2z M19.8,134.9l-2.3,0.4c0.5,0.4,0.9,0.9,1.2,1.4
			c0.3,0.5,0.6,1.4,1,2.8c0.7,2.4,1.8,3.5,3.4,3.2c0.8-0.1,1.4-0.6,1.8-1.2c0.4-0.7,0.5-1.5,0.3-2.6c-0.3-1.5-0.8-2.5-1.8-3.2
			C22.4,135,21.2,134.7,19.8,134.9z"/>
		<path class="st0" d="M5.2,117.3c-0.3,0-0.6-0.1-0.8-0.3c-0.3,0.4-0.5,0.9-0.5,1.7c0,1,0.3,1.7,1,2.2c0.6,0.5,1.5,0.8,2.6,0.8
			l0.6,0c0.3,0,0.4-0.2,0.4-0.4l-0.1-2.6c0-0.7,0.4-1.1,1.2-1.1c0.8,0,1.2,0.3,1.2,1.1l0.1,2.5c0,0.4,0.2,0.6,0.6,0.6l9.3-0.2
			c0.8,0,1.3,0,1.4-0.1c0.6-0.1,0.9-0.4,0.9-0.8c0-0.1-0.1-0.4-0.2-0.8c-0.1-0.3-0.1-0.5-0.1-0.7c0-0.8,0.3-1.1,1.1-1.2
			c0.8,0,1.2,0.4,1.2,1.3c0,0.4,0,0.9-0.1,1.7c-0.1,0.8-0.1,1.3-0.1,1.7c0,0.7,0.1,1.3,0.1,1.8c0.1,0.9,0.2,1.4,0.2,1.7
			c0,1-0.4,1.4-1.1,1.5c-0.3,0-0.5-0.1-0.8-0.3c-0.2-0.2-0.3-0.5-0.4-0.8c0-0.2,0-0.5,0.1-0.7c0.1-0.3,0.1-0.5,0.1-0.7
			c0-0.4-0.3-0.7-0.8-0.8c-0.5-0.1-1.8-0.1-3.9-0.1l-7,0.2c-0.4,0-0.6,0.2-0.6,0.6l0,1.6c0,0.8-0.4,1.2-1.2,1.2
			c-0.8,0-1.2-0.4-1.2-1.2l0-1.9c0-0.3-0.2-0.4-0.4-0.4l-0.6,0c-1.7,0-3.1-0.4-4-1.3c-1-0.9-1.4-2.2-1.5-3.9c0-1.4,0.2-2.5,0.8-3.4
			c0.5-0.9,1.3-1.3,2.2-1.3c0.5,0,0.9,0.1,1.2,0.4c0.3,0.3,0.5,0.7,0.5,1.2c0,0.4-0.1,0.8-0.4,1.1C6,117.1,5.6,117.3,5.2,117.3z"/>
		<path class="st0" d="M16.7,100.7c0.8,0.1,1.3,0.2,1.5,0.3c0.2,0.1,0.2,0.5,0.2,1l-1.2,10.5c0,0.3,0,0.5,0.1,0.6
			c0.1,0.1,0.2,0.2,0.4,0.2c1.6,0.2,3.1-0.2,4.3-1c1.2-0.9,1.9-2,2.1-3.5c0.1-1-0.1-1.9-0.5-2.7c-0.4-0.9-1-1.5-1.8-1.8l-0.9-0.4
			c-0.5-0.2-0.7-0.6-0.7-1.2c0.1-0.8,0.6-1.2,1.4-1.1c1.4,0.2,2.6,1,3.6,2.6c0.9,1.6,1.3,3.3,1.1,5.1c-0.3,2.3-1.2,4.1-2.9,5.2
			c-1.7,1.2-3.9,1.6-6.5,1.3c-2.7-0.3-4.8-1.3-6.3-2.9c-1.5-1.6-2.1-3.6-1.9-6c0.2-2.1,1.1-3.7,2.7-4.9
			C12.7,100.9,14.6,100.4,16.7,100.7z M14.5,112.6c0.3,0,0.5-0.2,0.5-0.7l0.9-7.9c0.1-0.5-0.1-0.7-0.4-0.7c-1.2-0.1-2.2,0.2-3.2,1
			c-1,0.8-1.5,1.8-1.6,3c-0.1,1.2,0.2,2.4,1,3.5C12.5,111.8,13.4,112.4,14.5,112.6z"/>
		<path class="st0" d="M24.9,90.1l-2-0.6c-0.9-0.3-1.2-0.8-1-1.5c0.2-0.7,0.8-1,1.8-0.7c2.3,0.6,3.9,1.4,4.6,2.2
			c1,1.1,1.3,2.6,0.8,4.5c-0.5,1.7-1.3,2.8-2.6,3.2c-0.9,0.3-2.4,0.2-4.3-0.3l-7.7-2.1c-0.4-0.1-0.7,0-0.8,0.4l-0.3,1
			c-0.1,0.3-0.3,0.6-0.6,0.8c-0.3,0.2-0.6,0.2-0.9,0.1c-0.3-0.1-0.5-0.3-0.7-0.6c-0.2-0.3-0.2-0.6-0.1-0.8l0.3-1.2
			c0.1-0.4-0.1-0.6-0.5-0.7l-3.3-0.9c-0.8-0.2-1.1-0.7-0.9-1.6c0.2-0.8,0.7-1,1.5-0.8l3.4,0.9c0.3,0.1,0.5-0.1,0.6-0.4l0.9-3.5
			c0.2-0.8,0.7-1.1,1.5-0.9c0.8,0.2,1.1,0.8,0.8,1.6l-1,3.5c-0.1,0.3,0.1,0.5,0.5,0.6l7.9,2.1c2.2,0.6,3.6,0.2,4-1.3
			C27.4,91.7,26.7,90.7,24.9,90.1z"/>
		<path class="st0" d="M20,77.8l11.8,1.2l-8.3-8.3c-0.2-0.2-0.4-0.4-0.6-0.5c-0.3-0.2-0.6,0-0.8,0.5c-0.1,0.2-0.2,0.4-0.2,0.6
			c-0.1,0.3-0.2,0.6-0.2,0.7c-0.3,0.7-0.8,0.8-1.4,0.6c-0.7-0.3-0.8-0.9-0.4-1.8c0.1-0.1,0.2-0.3,0.3-0.6l0.7-1
			c0.2-0.3,0.3-0.6,0.5-0.9c0.2-0.3,0.3-0.9,0.6-1.6s0.4-1.2,0.6-1.6c0.4-0.9,0.9-1.1,1.6-0.8c0.7,0.3,0.8,0.8,0.5,1.4
			c-0.1,0.2-0.2,0.3-0.3,0.4c-0.2,0.2-0.3,0.4-0.3,0.5c-0.2,0.4,0.2,1,1,1.9l8.4,8.8c1.9,2,3.1,3.6,3.8,4.8c1.1,2.2,1.2,4.3,0.3,6.3
			c-0.6,1.2-1.4,2.1-2.4,2.7c-1,0.5-2,0.6-2.8,0.2c-0.6-0.3-1-0.7-1.3-1.2c-0.2-0.5-0.2-1.1,0.1-1.7c0.2-0.5,0.5-0.8,0.9-1
			c0.4-0.2,0.8-0.2,1.2,0c0.6,0.3,0.9,0.8,0.8,1.4c0.6-0.1,1.1-0.6,1.5-1.4c0.5-1.1,0.5-2.2,0.1-3.4c-0.4-1.2-1.1-2.1-2.1-2.5
			c-0.5-0.2-1.6-0.4-3.2-0.5l-9.9-0.5l-1.1-0.1c-1.1-0.1-1.7,0.1-1.9,0.6c-0.1,0.1-0.1,0.3-0.2,0.7c-0.1,0.3-0.2,0.6-0.2,0.7
			c-0.3,0.7-0.8,0.9-1.5,0.6c-0.7-0.3-0.8-0.9-0.4-1.9c0.1-0.3,0.3-0.5,0.4-0.7l0.7-1.1c0,0,0-0.1,0.1-0.2c0.1-0.1,0.1-0.2,0.2-0.3
			c0.3-0.7,0.6-1.5,0.9-2.4c0.2-0.7,0.4-1.1,0.5-1.3c0.4-0.8,0.9-1.1,1.6-0.8c0.7,0.3,0.8,0.8,0.5,1.6c-0.1,0.1-0.2,0.3-0.3,0.5
			c-0.2,0.2-0.3,0.4-0.3,0.5c-0.1,0.3-0.1,0.5,0.2,0.6C19.5,77.8,19.7,77.8,20,77.8z"/>
		<path class="st0" d="M37.4,55.5l-2.1-1.8l-4-3.5c-1.2-1.1-2.2-1.2-3-0.3c-0.2,0.2-0.3,0.4-0.4,0.6c-0.2,0.3-0.3,0.6-0.5,0.7
			c-0.2,0.2-0.4,0.3-0.7,0.3c-0.3,0-0.6-0.1-0.8-0.3c-0.6-0.5-0.6-1.1,0-1.8c0.1-0.1,0.2-0.2,0.4-0.4l1.7-1.6c0.6-0.6,1.3-1.3,2-2.1
			c0.4-0.4,1.2-1.4,2.4-2.9l2.4-3c0.3-0.4,0.7-0.9,1.1-1.4c0.2-0.3,0.4-0.5,0.6-0.8c0.8-0.9,1.5-1,2.3-0.3c0.3,0.3,0.7,0.7,1.3,1.3
			c0.5,0.6,1,1.1,1.3,1.3c0.3,0.2,0.6,0.5,1,0.8c0.4,0.3,0.8,0.6,1.1,0.9c0.7,0.6,0.8,1.2,0.2,1.8c-0.5,0.6-1.2,0.6-2-0.1
			c-0.2-0.2-0.6-0.5-1-1c-0.5-0.4-0.8-0.8-1-1c-0.9-0.8-1.7-1-2.3-0.7c-0.7,0.3-1.8,1.4-3.4,3.3c-1.4,1.6-2,2.6-1.9,3.1
			c0.1,0.4,0.8,1.1,2.1,2.3l1.9,1.6c0.5,0.4,0.8,0.6,1,0.6c0.2,0,0.6-0.3,1.1-0.9l0.7-0.8c0.9-1.1,1-2,0.2-2.7
			c-0.2-0.2-0.5-0.4-0.8-0.6c-0.4-0.2-0.6-0.4-0.8-0.6c-0.6-0.6-0.7-1.1-0.2-1.7c0.5-0.6,1.1-0.5,1.8,0.1c0.1,0.1,0.3,0.3,0.6,0.6
			l1.2,1.4c0.5,0.6,1,1,1.3,1.3c0.7,0.6,1.6,1.3,2.8,2c0.4,0.2,0.8,0.5,1.1,0.8c0.7,0.6,0.7,1.1,0.2,1.8c-0.5,0.6-1.1,0.5-1.8-0.1
			c-0.2-0.1-0.4-0.4-0.7-0.7c-0.3-0.3-0.6-0.5-0.7-0.7c-0.5-0.4-1-0.6-1.4-0.4c-0.3,0.1-0.7,0.4-1.2,1l-0.7,0.8
			c-0.5,0.6-0.8,1-0.7,1.3c0,0.2,0.3,0.6,0.9,1.1l3,2.6c0.8,0.7,1.4,1,1.8,1.1c0.4,0.1,0.8-0.1,1.3-0.6c0.1-0.1,0.3-0.3,0.5-0.6
			c0.2-0.3,0.4-0.4,0.5-0.6c0.7-0.8,1.3-0.9,1.9-0.4c0.2,0.2,0.4,0.5,0.4,0.8c0,0.3-0.1,0.6-0.3,0.9c-0.2,0.3-0.6,0.6-1.1,1.1
			c-0.8,0.6-1.5,1.4-2.4,2.4c-0.5,0.6-1,1.3-1.5,2.1l-0.6,1c0,0.1-0.1,0.1-0.1,0.2C43.1,63.9,43,64,43,64c-0.6,0.7-1.3,0.8-1.9,0.3
			c-0.5-0.5-0.6-1-0.1-1.5c0.1-0.1,0.3-0.3,0.6-0.6c0.2-0.1,0.4-0.3,0.5-0.5c0.4-0.5,0.5-0.9,0.4-1.3c-0.1-0.4-0.5-0.9-1.2-1.6
			L37.4,55.5z"/>
		<path class="st0" d="M46.9,33.4c-0.4,0.3-0.8,0.5-1.4,0.4c-0.5,0-0.9-0.3-1.3-0.6c-0.3-0.4-0.5-0.8-0.4-1.3
			c0.1-0.5,0.3-0.9,0.7-1.3c0.4-0.3,0.8-0.5,1.3-0.4c0.5,0,0.9,0.2,1.3,0.6c0.3,0.4,0.5,0.8,0.4,1.4C47.5,32.6,47.3,33,46.9,33.4z
			 M53.8,38.9l2.8,3.3c0.7,0.8,1.1,1.3,1.3,1.5c0.7,0.7,1.3,0.9,1.6,0.6c0.1-0.1,0.3-0.3,0.5-0.7c0.1-0.1,0.2-0.2,0.3-0.4
			c0.6-0.5,1.2-0.5,1.7,0c0.2,0.2,0.3,0.5,0.2,0.9c-0.1,0.3-0.3,0.7-0.6,0.9c-0.3,0.2-0.7,0.5-1.3,0.9c-0.6,0.4-1.1,0.7-1.3,0.9
			c-0.4,0.4-0.9,0.8-1.4,1.3c-0.6,0.6-1,1.1-1.2,1.2c-0.7,0.6-1.3,0.6-1.7,0c-0.5-0.6-0.4-1.1,0.2-1.6c0.1-0.1,0.4-0.3,0.7-0.4
			c0.3-0.2,0.5-0.3,0.7-0.4c0.4-0.3,0.2-1.1-0.6-2.3c-0.1-0.1-0.7-0.8-1.9-2.2l-1.8-2.1c-1.2-1.4-1.8-2.1-1.9-2.2
			c-1-1-1.7-1.3-2.1-1c-0.1,0.1-0.3,0.3-0.5,0.6c-0.2,0.3-0.4,0.5-0.5,0.6c-0.6,0.5-1.2,0.5-1.6,0c-0.5-0.6-0.4-1.2,0.4-1.8
			c0.3-0.3,0.6-0.5,0.7-0.6c0.6-0.4,1-0.6,1.1-0.8c0.1-0.1,0.3-0.3,0.6-0.6c0.2-0.3,0.4-0.5,0.6-0.6c0.5-0.4,1-0.3,1.6,0.4
			c0.1,0.1,0.1,0.2,0.2,0.3c0.1,0.1,0.2,0.3,0.2,0.3c0.1,0.1,0.5,0.7,1.3,1.6C52.6,37.5,53.2,38.2,53.8,38.9z"/>
		<path class="st0" d="M59,27.6l0.5,0.8c0.1-2,1-3.5,2.6-4.5c1.3-0.8,2.6-1.1,3.9-0.9c1.3,0.2,2.3,0.9,3,2.1
			c0.5,0.8,0.7,1.6,0.7,2.4c-0.1,0.8-0.5,1.4-1.1,1.8c-0.4,0.3-0.9,0.4-1.3,0.3s-0.8-0.3-1.1-0.7c-0.2-0.3-0.2-0.6-0.2-1
			c0.1-0.4,0.3-0.7,0.6-0.9c0.1,0,0.2-0.1,0.4-0.1c0-0.3-0.1-0.5-0.2-0.7c-0.3-0.5-0.9-0.8-1.6-0.9c-0.7-0.1-1.4,0.1-2.1,0.6
			c-1.5,0.9-2,2.2-1.7,3.8c0.2,1,0.8,2.3,1.9,3.9l1.2,1.8c0.8,1.3,1.3,1.9,1.4,2.1c0.8,1,1.4,1.4,1.9,1c0.2-0.2,0.5-0.3,0.7-0.6
			c0.2-0.2,0.3-0.3,0.5-0.4c0.6-0.4,1.1-0.3,1.5,0.3c0.4,0.6,0.2,1.2-0.5,1.7l-0.1,0.1c-0.3,0.2-0.7,0.4-1.3,0.7
			c-0.6,0.3-1.1,0.5-1.3,0.7c-0.7,0.5-1.3,0.9-1.7,1.2l-1.5,1.1c-0.8,0.5-1.4,0.4-1.8-0.2c-0.4-0.6-0.2-1.1,0.5-1.6
			c0.2-0.1,0.3-0.2,0.4-0.2l0.5-0.2c0.2-0.1,0.4-0.1,0.4-0.2c0.5-0.3,0.5-0.9-0.1-1.8l-0.9-1.4l-4.1-6.3c-0.8-1.1-1.4-1.4-1.9-1.1
			c-0.1,0.1-0.3,0.3-0.6,0.5s-0.4,0.4-0.6,0.5c-0.6,0.4-1.1,0.3-1.5-0.3c-0.4-0.7-0.2-1.2,0.6-1.7c0.2-0.1,0.5-0.3,0.9-0.5
			c0.4-0.2,0.7-0.3,0.9-0.5c0.1-0.1,0.4-0.3,0.7-0.5c0.1-0.1,0.3-0.3,0.5-0.4C58.3,27,58.7,27.1,59,27.6z"/>
		<path class="st0" d="M75.9,16.8c1.4-0.6,2.6-0.7,3.9-0.4l-0.1-0.1c-0.3-0.8-0.2-1.3,0.5-1.5c0.7-0.3,1.1-0.1,1.4,0.5
			c0.1,0.1,0.2,0.4,0.3,0.9c0.1,0.4,0.2,0.9,0.4,1.3c0.1,0.2,0.3,0.6,0.5,1c0.3,0.4,0.4,0.8,0.5,1c0.3,0.8,0.2,1.3-0.5,1.6
			c-0.6,0.3-1.1,0.1-1.4-0.6l-0.4-1c-0.3-0.6-0.9-1-1.7-1.1c-0.9-0.1-1.8,0-2.7,0.4c-0.9,0.4-1.6,1-2,1.7c-0.4,0.7-0.5,1.5-0.2,2.2
			c0.6,1.3,1.8,1.7,3.7,1.2l1.9-0.5c3.7-1,6-0.3,7,2.1c0.6,1.5,0.6,2.9-0.1,4.3c-0.7,1.4-2,2.5-3.8,3.2c-1.7,0.7-3.3,0.9-5,0.4
			c0.1,0.2,0.2,0.4,0.2,0.6c0.3,0.7,0.1,1.2-0.6,1.5c-0.8,0.3-1.3,0.1-1.7-0.8c0.1,0.1-0.1-0.4-0.5-1.7c-0.1-0.3-0.2-0.6-0.3-0.9
			c-0.2-0.5-0.4-0.9-0.7-1.3c-0.3-0.4-0.4-0.7-0.6-1c-0.3-0.7-0.1-1.2,0.5-1.5c0.4-0.2,0.7-0.2,0.9,0c0.2,0.2,0.5,0.7,0.9,1.5
			c0.4,0.9,1.2,1.4,2.3,1.5c1.1,0.2,2.4,0,3.8-0.6c1-0.4,1.7-1,2.1-1.8c0.4-0.8,0.5-1.6,0.2-2.3c-0.6-1.4-2-1.7-4.3-1
			c-2.2,0.7-4,0.9-5.3,0.8c-1.4-0.1-2.4-0.9-3-2.4c-0.6-1.4-0.6-2.8,0.1-4.2C73,18.6,74.2,17.6,75.9,16.8z"/>
		<path class="st0" d="M98.4,22.7l-0.5-2.1c-0.2-0.9,0.1-1.4,0.8-1.6c0.7-0.2,1.3,0.2,1.5,1.2c0.6,2.3,0.7,4,0.4,5.1
			c-0.5,1.5-1.6,2.4-3.5,2.9c-1.7,0.4-3.1,0.2-4.1-0.7c-0.7-0.7-1.4-1.9-1.9-3.8l-2-7.7c-0.1-0.4-0.4-0.6-0.8-0.5l-1.1,0.3
			c-0.3,0.1-0.7,0.1-1-0.1c-0.3-0.2-0.5-0.4-0.6-0.7c-0.1-0.3,0-0.6,0.1-0.9c0.2-0.3,0.4-0.5,0.7-0.6l1.3-0.3
			c0.4-0.1,0.5-0.3,0.4-0.8l-0.9-3.3c-0.2-0.8,0.1-1.3,0.9-1.5c0.8-0.2,1.3,0.1,1.5,0.9l0.9,3.4c0.1,0.3,0.3,0.4,0.7,0.3l3.5-0.9
			c0.8-0.2,1.3,0.1,1.5,0.8c0.2,0.8-0.1,1.3-1,1.5l-3.5,0.9c-0.3,0.1-0.4,0.3-0.3,0.8l2.1,7.9c0.6,2.2,1.6,3.2,3.1,2.8
			C98.2,25.6,98.8,24.5,98.4,22.7z"/>
		<path class="st0" d="M119.9,2.1c2.5,0,4.5,0.9,6.1,2.7l0-0.4c0-0.1,0-0.2,0-0.4c0-0.1-0.1-0.2-0.1-0.2c-0.1-0.5-0.1-0.7-0.1-0.7
			c0-0.8,0.3-1.2,1-1.2c0.7,0,1.1,0.4,1.1,1.4c0,0.2,0,0.7,0,1.6c-0.1,1.1-0.2,1.9-0.2,2.3c0,0.6,0.1,1.2,0.1,1.8l0.2,1.3l0,0.3
			c0,1-0.4,1.5-1.2,1.5c-0.9,0-1.3-0.5-1.3-1.4l0-1.2c0-1.6-0.5-2.9-1.6-3.8s-2.4-1.4-4.1-1.4c-2.2,0-3.9,0.9-5.1,2.6
			c-1.2,1.7-1.8,4-1.7,7c0,3,0.7,5.4,2,7.1c1.3,1.7,3.1,2.5,5.4,2.5c1.2,0,2.3-0.3,3.3-1c1-0.6,1.7-1.4,2-2.4
			c0.3-0.6,0.4-1.5,0.4-2.6c0-1,0.4-1.5,1.2-1.5c0.9,0,1.4,0.5,1.4,1.5c0,2.4-0.7,4.3-2.4,5.8c-1.6,1.5-3.7,2.3-6.3,2.4
			c-3,0-5.4-1-7.2-3c-1.8-2.1-2.8-4.9-2.8-8.4c-0.1-3.6,0.8-6.5,2.6-8.8C114.5,3.3,116.9,2.1,119.9,2.1z"/>
		<path class="st0" d="M137.8,27.2c-2.3-0.4-4-1.6-5-3.4c-1.1-1.8-1.3-4.1-0.8-6.7c0.5-2.7,1.6-4.6,3.3-5.9c1.7-1.3,3.7-1.7,6-1.3
			c2.4,0.5,4.1,1.6,5.2,3.4c1.1,1.8,1.4,4,0.8,6.7c-0.5,2.7-1.6,4.6-3.3,6C142.2,27.2,140.2,27.6,137.8,27.2z M140.9,12
			c-1.5-0.3-2.8,0-3.9,0.9c-1.1,0.9-1.8,2.3-2.3,4.3l-0.1,0.4c-0.4,2-0.3,3.7,0.4,5.1c0.6,1.3,1.7,2.1,3.3,2.4c1.6,0.3,2.9,0,4.1-1
			c1.1-1,1.9-2.5,2.3-4.6C145.5,15.1,144.2,12.6,140.9,12z"/>
		<path class="st0" d="M150.3,30.5c-0.5-0.2-0.9-0.5-1.2-1c-0.2-0.5-0.3-1-0.1-1.6c0.2-0.5,0.5-0.9,1-1.2c0.5-0.3,1-0.3,1.6-0.1
			c0.5,0.2,0.9,0.5,1.2,1c0.2,0.5,0.3,1,0.1,1.6c-0.2,0.5-0.5,0.9-1,1.2C151.4,30.6,150.8,30.6,150.3,30.5z"/>
	</g>
</g>
</svg>
