<svg id="Layer_1" data-name="Layer 1" xmlns="http://www.w3.org/2000/svg" viewBox="0 0 100 100"><defs><style>.cls-1{fill:none;stroke:#a3c9a8;stroke-linecap:round;stroke-miterlimit:10;stroke-width:5px;}.cls-2{fill:#ba727b;}</style></defs><path class="cls-1" d="M4.1,61.1c8.4.2,8.3,4.2,16.7,4.3s8.5-3.8,16.8-3.7,8.3,4.2,16.7,4.3,8.5-3.8,16.8-3.7,8.3,4.2,16.7,4.3"/><path class="cls-1" d="M4.1,46.1c8.4.2,8.3,4.2,16.7,4.3s8.5-3.8,16.8-3.7,8.3,4.2,16.7,4.3,8.5-3.8,16.8-3.7,8.3,4.2,16.7,4.3"/><path class="cls-1" d="M4.1,31.1c8.4.2,8.3,4.2,16.7,4.3s8.5-3.8,16.8-3.7,8.3,4.2,16.7,4.3,8.5-3.8,16.8-3.7,8.3,4.2,16.7,4.3"/><path class="cls-1" d="M4.1,16.1c8.4.2,8.3,4.2,16.7,4.3s8.5-3.8,16.8-3.7,8.3,4.2,16.7,4.3,8.5-3.8,16.8-3.7,8.3,4.2,16.7,4.3"/><path class="cls-2" d="M63.44,81.27h-49A12.15,12.15,0,0,1,2.35,69.19V37.29A12.16,12.16,0,0,1,14.43,25.21H68.67a12.16,12.16,0,0,1,10.5,6.14l-4.34,2.46a7.15,7.15,0,0,0-6.17-3.6H14.44A7.14,7.14,0,0,0,7.35,37.3V69.18a7.14,7.14,0,0,0,7.1,7.09h49Z"/><path class="cls-2" d="M90,98.86H74.65A8.86,8.86,0,0,1,65.8,90V44.07a8.86,8.86,0,0,1,8.85-8.85H90a8.86,8.86,0,0,1,8.85,8.85V90A8.86,8.86,0,0,1,90,98.86ZM74.65,40.22a3.86,3.86,0,0,0-3.85,3.85V90a3.86,3.86,0,0,0,3.85,3.85H90A3.86,3.86,0,0,0,93.87,90V44.07A3.86,3.86,0,0,0,90,40.22Z"/></svg>