<svg id="Layer_1" data-name="Layer 1" xmlns="http://www.w3.org/2000/svg" viewBox="0 0 75 81.31"><defs><style>.cls-1{fill:#fc1a3d;}</style></defs><path class="cls-1" d="M7.82,58C-4.32,38.48-3.6,6.79,22.18.8c5.2-1.21,12.23.41,16.88,3.37,5.42,3.47,7.37,9.35,10.84,14.68C55,26.63,64.43,26.26,69.47,34.28,73.7,41,76.08,50,74.06,57.66,70.7,70.43,61.75,80.22,49.19,80.89c-5.65.3-13.46-2.71-18.62-4.34C22.42,74,12.53,65.52,7.82,58Z"/><path class="cls-1" d="M72.67,6a5.7,5.7,0,1,1-7.81-2A5.68,5.68,0,0,1,72.67,6Z"/></svg>