<svg id="Layer_1" data-name="Layer 1" xmlns="http://www.w3.org/2000/svg" viewBox="0 0 75 60.79"><defs><style>.cls-1{fill:#fc1a3d;}</style></defs><path class="cls-1" d="M65.56,6C59.9,1.62,52-.66,45,.91a22.15,22.15,0,0,0-10.85,6c-2.79,2.82-3.87,7.11-7.72,8.91-3.23,1.5-6.93.76-10.35.81a15.65,15.65,0,0,0-9,2.78C-5.1,28.13.73,46.64,10.94,54.14c8.35,6.13,20,6.52,29.92,6.13,1.32-.06,2.63-.13,3.94-.22A35.69,35.69,0,0,0,58,56.74a29.25,29.25,0,0,0,13.7-14.89C76.58,30.51,76.37,14.28,65.56,6Z"/><circle class="cls-1" cx="20" cy="7.69" r="6.22" transform="translate(3.63 21.52) rotate(-61.23)"/></svg>