<svg id="Layer_1" data-name="Layer 1" xmlns="http://www.w3.org/2000/svg" viewBox="0 0 539.29 120.59"><defs><style>.cls-1{fill:#f9c3dc;}</style></defs><path class="cls-1" d="M165.2,98.4a6.9,6.9,0,1,1-6.89,6.91h0a6.9,6.9,0,0,1,6.89-6.9m0-4a10.9,10.9,0,1,0,10.9,10.9h0a10.9,10.9,0,0,0-10.88-10.9Z"/><path class="cls-1" d="M135.2,98.4a6.9,6.9,0,1,1-6.89,6.91h0a6.9,6.9,0,0,1,6.89-6.9m0-4a10.9,10.9,0,1,0,10.9,10.9h0a10.9,10.9,0,0,0-10.88-10.9Z"/><path class="cls-1" d="M105.2,98.4a6.9,6.9,0,1,1-6.89,6.91h0a6.9,6.9,0,0,1,6.89-6.9m0-4a10.9,10.9,0,1,0,10.9,10.9,10.9,10.9,0,0,0-10.9-10.9Z"/><path class="cls-1" d="M75.2,98.4a6.9,6.9,0,1,1-6.89,6.91h0a6.9,6.9,0,0,1,6.89-6.9m0-4a10.9,10.9,0,1,0,10.9,10.9A10.9,10.9,0,0,0,75.2,94.4Z"/><path class="cls-1" d="M45.2,98.4a6.9,6.9,0,1,1-6.89,6.91h0a6.9,6.9,0,0,1,6.89-6.9m0-4a10.9,10.9,0,1,0,10.9,10.9A10.9,10.9,0,0,0,45.2,94.4Z"/><path class="cls-1" d="M15.2,98.4a6.9,6.9,0,1,1-6.89,6.91h0a6.9,6.9,0,0,1,6.89-6.9m0-4a10.9,10.9,0,1,0,10.9,10.9A10.9,10.9,0,0,0,15.2,94.4Z"/><path class="cls-1" d="M165.2,68.4a6.9,6.9,0,1,1-6.89,6.91h0a6.9,6.9,0,0,1,6.89-6.9m0-4a10.9,10.9,0,1,0,10.9,10.9h0a10.9,10.9,0,0,0-10.88-10.9Z"/><path class="cls-1" d="M135.2,68.4a6.9,6.9,0,1,1-6.89,6.91h0a6.9,6.9,0,0,1,6.89-6.9m0-4a10.9,10.9,0,1,0,10.9,10.9h0a10.9,10.9,0,0,0-10.88-10.9Z"/><path class="cls-1" d="M105.2,68.4a6.9,6.9,0,1,1-6.89,6.91h0a6.9,6.9,0,0,1,6.89-6.9m0-4a10.9,10.9,0,1,0,10.9,10.9,10.9,10.9,0,0,0-10.9-10.9Z"/><path class="cls-1" d="M75.2,68.4a6.9,6.9,0,1,1-6.89,6.91h0a6.9,6.9,0,0,1,6.89-6.9m0-4A10.9,10.9,0,1,0,86.1,75.3,10.9,10.9,0,0,0,75.2,64.4Z"/><path class="cls-1" d="M45.2,68.4a6.9,6.9,0,1,1-6.89,6.91h0a6.9,6.9,0,0,1,6.89-6.9m0-4A10.9,10.9,0,1,0,56.1,75.3,10.9,10.9,0,0,0,45.2,64.4Z"/><path class="cls-1" d="M15.2,68.4a6.9,6.9,0,1,1-6.89,6.91h0a6.9,6.9,0,0,1,6.89-6.9m0-4A10.9,10.9,0,1,0,26.1,75.3,10.9,10.9,0,0,0,15.2,64.4Z"/><path class="cls-1" d="M165.2,38.4a6.9,6.9,0,1,1-6.89,6.91h0a6.9,6.9,0,0,1,6.89-6.9m0-4a10.9,10.9,0,1,0,10.9,10.9h0a10.9,10.9,0,0,0-10.88-10.9Z"/><path class="cls-1" d="M135.2,38.4a6.9,6.9,0,1,1-6.89,6.91h0a6.9,6.9,0,0,1,6.89-6.9m0-4a10.9,10.9,0,1,0,10.9,10.9h0a10.9,10.9,0,0,0-10.88-10.9Z"/><path class="cls-1" d="M105.2,38.4a6.9,6.9,0,1,1-6.89,6.91h0a6.9,6.9,0,0,1,6.89-6.9m0-4a10.9,10.9,0,1,0,10.9,10.9,10.9,10.9,0,0,0-10.9-10.9Z"/><path class="cls-1" d="M75.2,38.4a6.9,6.9,0,1,1-6.89,6.91h0a6.9,6.9,0,0,1,6.89-6.9m0-4A10.9,10.9,0,1,0,86.1,45.3,10.9,10.9,0,0,0,75.2,34.4Z"/><path class="cls-1" d="M45.2,38.4a6.9,6.9,0,1,1-6.89,6.91h0a6.9,6.9,0,0,1,6.89-6.9m0-4A10.9,10.9,0,1,0,56.1,45.3h0A10.9,10.9,0,0,0,45.22,34.4Z"/><path class="cls-1" d="M15.2,38.4a6.9,6.9,0,1,1-6.89,6.91h0a6.9,6.9,0,0,1,6.89-6.9m0-4A10.9,10.9,0,1,0,26.1,45.3,10.9,10.9,0,0,0,15.2,34.4Z"/><path class="cls-1" d="M165.2,8.4a6.9,6.9,0,1,1-6.89,6.91h0a6.9,6.9,0,0,1,6.89-6.9m0-4a10.9,10.9,0,1,0,10.9,10.9h0A10.9,10.9,0,0,0,165.22,4.4Z"/><path class="cls-1" d="M135.2,8.4a6.9,6.9,0,1,1-6.89,6.91h0a6.9,6.9,0,0,1,6.89-6.9m0-4a10.9,10.9,0,1,0,10.9,10.9h0A10.9,10.9,0,0,0,135.22,4.4Z"/><path class="cls-1" d="M105.2,8.4a6.9,6.9,0,1,1-6.89,6.91h0a6.9,6.9,0,0,1,6.89-6.9m0-4a10.9,10.9,0,1,0,10.9,10.9A10.9,10.9,0,0,0,105.2,4.4Z"/><path class="cls-1" d="M75.2,8.4a6.9,6.9,0,1,1-6.89,6.91h0A6.9,6.9,0,0,1,75.2,8.4m0-4A10.9,10.9,0,1,0,86.1,15.3,10.9,10.9,0,0,0,75.2,4.4Z"/><path class="cls-1" d="M45.2,8.4a6.9,6.9,0,1,1-6.89,6.91h0A6.9,6.9,0,0,1,45.2,8.4m0-4A10.9,10.9,0,1,0,56.1,15.3h0A10.9,10.9,0,0,0,45.22,4.4Z"/><path class="cls-1" d="M15.2,8.4a6.9,6.9,0,1,1-6.89,6.91h0A6.9,6.9,0,0,1,15.2,8.4m0-4A10.9,10.9,0,1,0,26.1,15.3,10.9,10.9,0,0,0,15.2,4.4Z"/><path class="cls-1" d="M344.64,98.4a6.9,6.9,0,1,1-6.89,6.91h0a6.9,6.9,0,0,1,6.89-6.9m0-4a10.9,10.9,0,1,0,10.9,10.9h0A10.9,10.9,0,0,0,344.64,94.4Z"/><path class="cls-1" d="M314.64,98.4a6.9,6.9,0,1,1-6.89,6.91h0a6.9,6.9,0,0,1,6.89-6.9m0-4a10.9,10.9,0,1,0,10.9,10.9h0A10.9,10.9,0,0,0,314.64,94.4Z"/><path class="cls-1" d="M284.64,98.4a6.9,6.9,0,1,1-6.89,6.91h0a6.9,6.9,0,0,1,6.89-6.9m0-4a10.9,10.9,0,1,0,10.9,10.9h0A10.9,10.9,0,0,0,284.64,94.4Z"/><path class="cls-1" d="M254.64,98.4a6.9,6.9,0,1,1-6.89,6.91h0a6.9,6.9,0,0,1,6.89-6.9m0-4a10.9,10.9,0,1,0,10.9,10.9,10.9,10.9,0,0,0-10.9-10.9Z"/><path class="cls-1" d="M224.64,98.4a6.9,6.9,0,1,1-6.89,6.91h0a6.9,6.9,0,0,1,6.89-6.9m0-4a10.9,10.9,0,1,0,10.9,10.9h0A10.9,10.9,0,0,0,224.64,94.4Z"/><path class="cls-1" d="M194.64,98.4a6.9,6.9,0,1,1-6.89,6.91h0a6.9,6.9,0,0,1,6.89-6.9m0-4a10.9,10.9,0,1,0,10.9,10.9h0A10.9,10.9,0,0,0,194.64,94.4Z"/><path class="cls-1" d="M344.64,68.4a6.9,6.9,0,1,1-6.89,6.91h0a6.9,6.9,0,0,1,6.89-6.9m0-4a10.9,10.9,0,1,0,10.9,10.9h0A10.9,10.9,0,0,0,344.64,64.4Z"/><path class="cls-1" d="M314.64,68.4a6.9,6.9,0,1,1-6.89,6.91h0a6.9,6.9,0,0,1,6.89-6.9m0-4a10.9,10.9,0,1,0,10.9,10.9h0A10.9,10.9,0,0,0,314.64,64.4Z"/><path class="cls-1" d="M284.64,68.4a6.9,6.9,0,1,1-6.89,6.91h0a6.9,6.9,0,0,1,6.89-6.9m0-4a10.9,10.9,0,1,0,10.9,10.9h0A10.9,10.9,0,0,0,284.64,64.4Z"/><path class="cls-1" d="M254.64,68.4a6.9,6.9,0,1,1-6.89,6.91h0a6.9,6.9,0,0,1,6.89-6.9m0-4a10.9,10.9,0,1,0,10.9,10.9,10.9,10.9,0,0,0-10.9-10.9Z"/><path class="cls-1" d="M224.64,68.4a6.9,6.9,0,1,1-6.89,6.91h0a6.9,6.9,0,0,1,6.89-6.9m0-4a10.9,10.9,0,1,0,10.9,10.9h0A10.9,10.9,0,0,0,224.64,64.4Z"/><path class="cls-1" d="M194.64,68.4a6.9,6.9,0,1,1-6.89,6.91h0a6.9,6.9,0,0,1,6.89-6.9m0-4a10.9,10.9,0,1,0,10.9,10.9h0A10.9,10.9,0,0,0,194.64,64.4Z"/><path class="cls-1" d="M344.64,38.4a6.9,6.9,0,1,1-6.89,6.91h0a6.9,6.9,0,0,1,6.89-6.9m0-4a10.9,10.9,0,1,0,10.9,10.9h0A10.9,10.9,0,0,0,344.64,34.4Z"/><path class="cls-1" d="M314.64,38.4a6.9,6.9,0,1,1-6.89,6.91h0a6.9,6.9,0,0,1,6.89-6.9m0-4a10.9,10.9,0,1,0,10.9,10.9h0A10.9,10.9,0,0,0,314.64,34.4Z"/><path class="cls-1" d="M284.64,38.4a6.9,6.9,0,1,1-6.89,6.91h0a6.9,6.9,0,0,1,6.89-6.9m0-4a10.9,10.9,0,1,0,10.9,10.9h0A10.9,10.9,0,0,0,284.64,34.4Z"/><path class="cls-1" d="M254.64,38.4a6.9,6.9,0,1,1-6.89,6.91h0a6.9,6.9,0,0,1,6.89-6.9m0-4a10.9,10.9,0,1,0,10.9,10.9,10.9,10.9,0,0,0-10.9-10.9Z"/><path class="cls-1" d="M224.64,38.4a6.9,6.9,0,1,1-6.89,6.91h0a6.9,6.9,0,0,1,6.89-6.9m0-4a10.9,10.9,0,1,0,10.9,10.9h0A10.9,10.9,0,0,0,224.64,34.4Z"/><path class="cls-1" d="M194.64,38.4a6.9,6.9,0,1,1-6.89,6.91h0a6.9,6.9,0,0,1,6.89-6.9m0-4a10.9,10.9,0,1,0,10.9,10.9h0A10.9,10.9,0,0,0,194.64,34.4Z"/><path class="cls-1" d="M344.64,8.4a6.9,6.9,0,1,1-6.89,6.91h0a6.9,6.9,0,0,1,6.89-6.9m0-4a10.9,10.9,0,1,0,10.9,10.9h0A10.9,10.9,0,0,0,344.64,4.4Z"/><path class="cls-1" d="M314.64,8.4a6.9,6.9,0,1,1-6.89,6.91h0a6.9,6.9,0,0,1,6.89-6.9m0-4a10.9,10.9,0,1,0,10.9,10.9h0A10.9,10.9,0,0,0,314.64,4.4Z"/><path class="cls-1" d="M284.64,8.4a6.9,6.9,0,1,1-6.89,6.91h0a6.9,6.9,0,0,1,6.89-6.9m0-4a10.9,10.9,0,1,0,10.9,10.9h0A10.9,10.9,0,0,0,284.64,4.4Z"/><path class="cls-1" d="M254.64,8.4a6.9,6.9,0,1,1-6.89,6.91h0a6.9,6.9,0,0,1,6.89-6.9m0-4a10.9,10.9,0,1,0,10.9,10.9,10.9,10.9,0,0,0-10.9-10.9Z"/><path class="cls-1" d="M224.64,8.4a6.9,6.9,0,1,1-6.89,6.91h0a6.9,6.9,0,0,1,6.89-6.9m0-4a10.9,10.9,0,1,0,10.9,10.9h0A10.9,10.9,0,0,0,224.64,4.4Z"/><path class="cls-1" d="M194.64,8.4a6.9,6.9,0,1,1-6.89,6.91h0a6.9,6.9,0,0,1,6.89-6.9m0-4a10.9,10.9,0,1,0,10.9,10.9h0A10.9,10.9,0,0,0,194.64,4.4Z"/><path class="cls-1" d="M524.09,98.4a6.9,6.9,0,1,1-6.9,6.9,6.9,6.9,0,0,1,6.9-6.9h0m0-4A10.9,10.9,0,1,0,535,105.3a10.9,10.9,0,0,0-10.91-10.9Z"/><path class="cls-1" d="M494.09,98.4a6.9,6.9,0,1,1-6.9,6.9h0a6.9,6.9,0,0,1,6.9-6.9m0-4A10.9,10.9,0,1,0,505,105.3a10.9,10.9,0,0,0-10.91-10.9Z"/><path class="cls-1" d="M464.09,98.4a6.9,6.9,0,1,1-6.9,6.9h0a6.9,6.9,0,0,1,6.9-6.9m0-4A10.9,10.9,0,1,0,475,105.3a10.9,10.9,0,0,0-10.91-10.9Z"/><path class="cls-1" d="M434.09,98.4a6.9,6.9,0,1,1-6.9,6.9h0a6.9,6.9,0,0,1,6.9-6.9m0-4A10.9,10.9,0,1,0,445,105.3a10.9,10.9,0,0,0-10.91-10.9Z"/><path class="cls-1" d="M404.09,98.4a6.9,6.9,0,1,1-6.9,6.9h0a6.9,6.9,0,0,1,6.9-6.9m0-4A10.9,10.9,0,1,0,415,105.3a10.9,10.9,0,0,0-10.91-10.9Z"/><path class="cls-1" d="M374.09,98.4a6.9,6.9,0,1,1-6.9,6.9h0a6.9,6.9,0,0,1,6.9-6.9m0-4A10.9,10.9,0,1,0,385,105.3a10.9,10.9,0,0,0-10.91-10.9Z"/><path class="cls-1" d="M524.09,68.4a6.9,6.9,0,1,1-6.9,6.9,6.9,6.9,0,0,1,6.9-6.9h0m0-4A10.9,10.9,0,1,0,535,75.3a10.9,10.9,0,0,0-10.91-10.9Z"/><path class="cls-1" d="M494.09,68.4a6.9,6.9,0,1,1-6.9,6.9h0a6.9,6.9,0,0,1,6.9-6.9m0-4A10.9,10.9,0,1,0,505,75.3a10.9,10.9,0,0,0-10.91-10.9Z"/><path class="cls-1" d="M464.09,68.4a6.9,6.9,0,1,1-6.9,6.9h0a6.9,6.9,0,0,1,6.9-6.9m0-4A10.9,10.9,0,1,0,475,75.3a10.9,10.9,0,0,0-10.91-10.9Z"/><path class="cls-1" d="M434.09,68.4a6.9,6.9,0,1,1-6.9,6.9h0a6.9,6.9,0,0,1,6.9-6.9m0-4A10.9,10.9,0,1,0,445,75.3a10.9,10.9,0,0,0-10.91-10.9Z"/><path class="cls-1" d="M404.09,68.4a6.9,6.9,0,1,1-6.9,6.9h0a6.9,6.9,0,0,1,6.9-6.9m0-4A10.9,10.9,0,1,0,415,75.3a10.9,10.9,0,0,0-10.91-10.9Z"/><path class="cls-1" d="M374.09,68.4a6.9,6.9,0,1,1-6.9,6.9h0a6.9,6.9,0,0,1,6.9-6.9m0-4A10.9,10.9,0,1,0,385,75.3a10.9,10.9,0,0,0-10.91-10.9Z"/><path class="cls-1" d="M524.09,38.4a6.9,6.9,0,1,1-6.9,6.9,6.9,6.9,0,0,1,6.9-6.9h0m0-4A10.9,10.9,0,1,0,535,45.3a10.9,10.9,0,0,0-10.91-10.9Z"/><path class="cls-1" d="M494.09,38.4a6.9,6.9,0,1,1-6.9,6.9h0a6.9,6.9,0,0,1,6.9-6.9m0-4A10.9,10.9,0,1,0,505,45.3a10.9,10.9,0,0,0-10.91-10.9Z"/><path class="cls-1" d="M464.09,38.4a6.9,6.9,0,1,1-6.9,6.9h0a6.9,6.9,0,0,1,6.9-6.9m0-4A10.9,10.9,0,1,0,475,45.3a10.9,10.9,0,0,0-10.91-10.9Z"/><path class="cls-1" d="M434.09,38.4a6.9,6.9,0,1,1-6.9,6.9h0a6.9,6.9,0,0,1,6.9-6.9m0-4A10.9,10.9,0,1,0,445,45.3a10.9,10.9,0,0,0-10.91-10.9Z"/><path class="cls-1" d="M404.09,38.4a6.9,6.9,0,1,1-6.9,6.9h0a6.9,6.9,0,0,1,6.9-6.9m0-4A10.9,10.9,0,1,0,415,45.3a10.9,10.9,0,0,0-10.91-10.9Z"/><path class="cls-1" d="M374.09,38.4a6.9,6.9,0,1,1-6.9,6.9h0a6.9,6.9,0,0,1,6.9-6.9m0-4A10.9,10.9,0,1,0,385,45.3a10.9,10.9,0,0,0-10.91-10.9Z"/><path class="cls-1" d="M524.09,8.4a6.9,6.9,0,1,1-6.9,6.9,6.9,6.9,0,0,1,6.9-6.9h0m0-4A10.9,10.9,0,1,0,535,15.3,10.9,10.9,0,0,0,524.09,4.4Z"/><path class="cls-1" d="M494.09,8.4a6.9,6.9,0,1,1-6.9,6.9h0a6.9,6.9,0,0,1,6.9-6.9m0-4A10.9,10.9,0,1,0,505,15.3,10.9,10.9,0,0,0,494.09,4.4Z"/><path class="cls-1" d="M464.09,8.4a6.9,6.9,0,1,1-6.9,6.9h0a6.9,6.9,0,0,1,6.9-6.9m0-4A10.9,10.9,0,1,0,475,15.3,10.9,10.9,0,0,0,464.09,4.4Z"/><path class="cls-1" d="M434.09,8.4a6.9,6.9,0,1,1-6.9,6.9h0a6.9,6.9,0,0,1,6.9-6.9m0-4A10.9,10.9,0,1,0,445,15.3,10.9,10.9,0,0,0,434.09,4.4Z"/><path class="cls-1" d="M404.09,8.4a6.9,6.9,0,1,1-6.9,6.9h0a6.9,6.9,0,0,1,6.9-6.9m0-4A10.9,10.9,0,1,0,415,15.3,10.9,10.9,0,0,0,404.09,4.4Z"/><path class="cls-1" d="M374.09,8.4a6.9,6.9,0,1,1-6.9,6.9h0a6.9,6.9,0,0,1,6.9-6.9m0-4A10.9,10.9,0,1,0,385,15.3,10.9,10.9,0,0,0,374.09,4.4Z"/></svg>