<svg id="Layer_1" data-name="Layer 1" xmlns="http://www.w3.org/2000/svg" viewBox="0 0 100 100"><defs><style>.cls-1{fill:#f9c3dc;}.cls-2{fill:#1a6071;}</style></defs><path class="cls-1" d="M46.3,26.6A23.35,23.35,0,1,1,22.9,50h0A23.49,23.49,0,0,1,46.3,26.6m0-21.5a44.9,44.9,0,1,0,44.8,45V50A44.9,44.9,0,0,0,46.3,5.1Z"/><path class="cls-2" d="M57,50c9,.27,17,3.54,24.36,8.35A72,72,0,0,1,97.3,72.48c.62.74.94,1.33.17,2.22-8.77,10.19-19,18.2-32.34,21.44-10.16,2.47-19.67.24-28.7-4.59A64.2,64.2,0,0,1,17.51,76.3c-2.12-2.5-2.18-2.7,0-5.14C26,61.5,36,54.22,48.7,51.19,51.4,50.54,54.23,50.38,57,50ZM38.51,73.65A18.45,18.45,0,1,0,57,55.19,18.5,18.5,0,0,0,38.51,73.65Z"/><path class="cls-2" d="M56.88,84.05A10.38,10.38,0,1,1,67.34,73.71,10.44,10.44,0,0,1,56.88,84.05Z"/></svg>