<svg id="Layer_1" data-name="Layer 1" xmlns="http://www.w3.org/2000/svg" viewBox="0 0 100 100"><defs><style>.cls-1{fill:#f9c3dc;}.cls-2{fill:#51a0a8;}</style></defs><path class="cls-1" d="M46.3,26.6A23.35,23.35,0,1,1,22.9,50h0A23.49,23.49,0,0,1,46.3,26.6m0-21.5a44.9,44.9,0,1,0,44.8,45V50A44.9,44.9,0,0,0,46.3,5.1Z"/><path class="cls-2" d="M54.56,49.23c9.55.29,18,3.76,25.85,8.86a76.67,76.67,0,0,1,16.91,15c.65.79,1,1.41.18,2.36-9.31,10.81-20.16,19.3-34.31,22.74-10.78,2.62-20.87.26-30.45-4.87A67.88,67.88,0,0,1,12.67,77.13c-2.25-2.65-2.31-2.86,0-5.45,9-10.25,19.61-18,33.09-21.18C48.62,49.81,51.62,49.64,54.56,49.23ZM35,74.32A19.57,19.57,0,1,0,54.56,54.74,19.56,19.56,0,0,0,35,74.32Z"/><path class="cls-2" d="M54.44,85.36a11,11,0,1,1,11.09-11A11,11,0,0,1,54.44,85.36Z"/></svg>