<?xml version="1.0" encoding="utf-8"?>
<!-- Generator: Adobe Illustrator 26.0.1, SVG Export Plug-In . SVG Version: 6.00 Build 0)  -->
<svg version="1.1" id="Layer_1" xmlns="http://www.w3.org/2000/svg" xmlns:xlink="http://www.w3.org/1999/xlink" x="0px" y="0px"
	 viewBox="0 0 100 100" style="enable-background:new 0 0 100 100;" xml:space="preserve">
<style type="text/css">
	.st0{fill:none;stroke:#A3C9A8;stroke-width:5;stroke-linecap:round;stroke-miterlimit:10;}
	.st1{fill:#BA727B;}
</style>
<g>
	<g>
		<path class="st0" d="M4.1,61.1c8.4,0.2,8.3,4.2,16.7,4.3c8.4,0.2,8.5-3.8,16.8-3.7c8.4,0.2,8.3,4.2,16.7,4.3
			c8.4,0.2,8.5-3.8,16.8-3.7s8.3,4.2,16.7,4.3"/>
	</g>
	<g>
		<path class="st0" d="M4.1,46.1c8.4,0.2,8.3,4.2,16.7,4.3c8.4,0.2,8.5-3.8,16.8-3.7c8.4,0.2,8.3,4.2,16.7,4.3
			c8.4,0.2,8.5-3.8,16.8-3.7s8.3,4.2,16.7,4.3"/>
	</g>
	<g>
		<path class="st0" d="M4.1,31.1c8.4,0.2,8.3,4.2,16.7,4.3c8.4,0.2,8.5-3.8,16.8-3.7c8.4,0.2,8.3,4.2,16.7,4.3
			c8.4,0.2,8.5-3.8,16.8-3.7s8.3,4.2,16.7,4.3"/>
	</g>
	<g>
		<path class="st0" d="M4.1,16.1c8.4,0.2,8.3,4.2,16.7,4.3c8.4,0.2,8.5-3.8,16.8-3.7c8.4,0.2,8.3,4.2,16.7,4.3
			c8.4,0.2,8.5-3.8,16.8-3.7c8.4,0.2,8.3,4.2,16.7,4.3"/>
	</g>
</g>
<path class="st1" d="M54.6,49.2c9.5,0.3,18,3.8,25.9,8.9c6.3,4.1,12,9.2,16.9,15c0.7,0.8,1,1.4,0.2,2.4
	c-9.3,10.8-20.2,19.3-34.3,22.7c-10.8,2.6-20.9,0.3-30.5-4.9c-7.7-4.1-14.5-9.6-20.1-16.2c-2.2-2.7-2.3-2.9,0-5.4
	c9-10.2,19.6-18,33.1-21.2C48.6,49.8,51.6,49.6,54.6,49.2z M35,74.3c0,10.8,8.8,19.6,19.6,19.6s19.6-8.8,19.6-19.6
	s-8.8-19.6-19.6-19.6C43.8,54.7,35,63.5,35,74.3C35,74.3,35,74.3,35,74.3z"/>
<path class="st1" d="M54.4,85.4c-6.1,0-11-5-10.9-11.1c0-6.1,5-11,11.1-10.9c6,0,10.9,5,10.9,11C65.5,80.4,60.6,85.4,54.4,85.4
	C54.5,85.4,54.5,85.4,54.4,85.4z"/>
</svg>
