<?xml version="1.0" encoding="utf-8"?>
<!-- Generator: Adobe Illustrator 26.0.1, SVG Export Plug-In . SVG Version: 6.00 Build 0)  -->
<svg version="1.1" id="Layer_1" xmlns="http://www.w3.org/2000/svg" xmlns:xlink="http://www.w3.org/1999/xlink" x="0px" y="0px"
	 viewBox="0 0 100 100" style="enable-background:new 0 0 100 100;" xml:space="preserve">
<style type="text/css">
	.st0{fill:none;stroke:#A3C9A8;stroke-width:5;stroke-linecap:round;stroke-miterlimit:10;}
	.st1{fill:#BA727B;}
</style>
<g>
	<g>
		<path class="st0" d="M4.1,61.1c8.4,0.2,8.3,4.2,16.7,4.3c8.4,0.2,8.5-3.8,16.8-3.7c8.4,0.2,8.3,4.2,16.7,4.3
			c8.4,0.2,8.5-3.8,16.8-3.7s8.3,4.2,16.7,4.3"/>
	</g>
	<g>
		<path class="st0" d="M4.1,46.1c8.4,0.2,8.3,4.2,16.7,4.3c8.4,0.2,8.5-3.8,16.8-3.7c8.4,0.2,8.3,4.2,16.7,4.3
			c8.4,0.2,8.5-3.8,16.8-3.7s8.3,4.2,16.7,4.3"/>
	</g>
	<g>
		<path class="st0" d="M4.1,31.1c8.4,0.2,8.3,4.2,16.7,4.3c8.4,0.2,8.5-3.8,16.8-3.7c8.4,0.2,8.3,4.2,16.7,4.3
			c8.4,0.2,8.5-3.8,16.8-3.7s8.3,4.2,16.7,4.3"/>
	</g>
	<g>
		<path class="st0" d="M4.1,16.1c8.4,0.2,8.3,4.2,16.7,4.3c8.4,0.2,8.5-3.8,16.8-3.7c8.4,0.2,8.3,4.2,16.7,4.3
			c8.4,0.2,8.5-3.8,16.8-3.7c8.4,0.2,8.3,4.2,16.7,4.3"/>
	</g>
</g>
<path class="st1" d="M88.4,98.7l-53.9,0c-5.4-0.3-9.5-4.9-9.3-10.2V34.9c0-2.7,1.1-5.2,3-7.1c1.9-1.9,4.4-2.9,7.1-2.8
	c3.1-0.1,6.3,0,9.4,0c1.6,0,3.1,0,4.7,0l0.2,0c0.1,0,0.1,0,0.2-0.1l0.1-0.2c2.7-4.9,6.8-7.4,12-7.4c5.3,0,9.5,2.6,12.2,7.6L74,25
	c0,0,0,0,0.1,0.1l0.2,0h13.5c0.4,0,0.7,0,1.1,0c2.8,0.2,5.3,1.4,7.2,3.5c1.8,2.1,2.8,4.7,2.7,7.5v52.2
	C98.8,94.6,94.7,98.7,88.4,98.7z M34.7,94.7h53.7c4.1,0,6.4-2.3,6.4-6.5l0-52.4c0.1-1.7-0.5-3.4-1.6-4.7c-1.1-1.3-2.7-2-4.5-2.1
	c-0.2,0-0.5,0-0.7,0l-0.1,0H74.4c-1.7,0.1-3.2-0.8-4-2.3c-1.9-3.6-4.8-5.4-8.6-5.4c-3.7,0-6.4,1.7-8.4,5.3c-0.7,1.6-2.3,2.5-4.1,2.4
	c-1.5,0-3.1,0-4.6,0c-3.1,0-6.2,0-9.3,0c-1.7,0-3.2,0.6-4.3,1.7c-1.1,1.1-1.8,2.6-1.8,4.2l0,53.7C29,91.8,31.5,94.5,34.7,94.7z
	 M61.7,37c-3.2,0-5.8-2.6-5.8-5.7c0-3.2,2.5-5.7,5.7-5.7c3-0.2,5.6,2.2,5.8,5.2l0,0.5C67.4,34.3,64.9,36.9,61.7,37L61.7,37z
	 M61.7,29.5c-1,0-1.8,0.8-1.8,1.8s0.8,1.8,1.8,1.8c0.9,0,1.7-0.8,1.7-1.8v-0.3c0-0.8-0.7-1.4-1.6-1.4L61.7,29.5z"/>
<path class="st1" d="M79.3,45.9l5.2,5.2L54.3,81L39.5,66.3l5.1-4.8L54,71L79.3,45.9z"/>
</svg>
