<svg id="Layer_1" data-name="Layer 1" xmlns="http://www.w3.org/2000/svg" viewBox="0 0 100 100"><defs><style>.cls-1{fill:#f9c3dc;}.cls-2{fill:none;stroke:#51a0a8;stroke-miterlimit:10;stroke-width:4px;}.cls-3{fill:#51a0a8;}</style></defs><path class="cls-1" d="M46.3,26.6A23.35,23.35,0,1,1,22.9,50h0A23.43,23.43,0,0,1,46.3,26.6m0-21.5a44.9,44.9,0,1,0,44.8,45V50A44.88,44.88,0,0,0,46.3,5.1Z"/><path class="cls-2" d="M87.9,27H74.3a2.09,2.09,0,0,1-2.1-1.2c-2.2-4.1-5.7-6.5-10.4-6.5s-8,2.4-10.2,6.4A2.16,2.16,0,0,1,49.4,27c-4.7,0-9.4-.1-14.1,0a8,8,0,0,0-8.1,7.9V88.5a7.82,7.82,0,0,0,7.4,8.2H88.4c5.2,0,8.4-3.2,8.4-8.5V35.9A8.45,8.45,0,0,0,87.9,27Zm-26.2.5a3.5,3.5,0,0,1,3.7,3.4v.3A3.78,3.78,0,0,1,61.7,35a3.75,3.75,0,0,1,0-7.5Z"/><path class="cls-3" d="M79.3,45.9l5.2,5.2L54.3,81,39.5,66.3l5.1-4.8L54,71Z"/></svg>