<?xml version="1.0" encoding="utf-8"?>
<!-- Generator: Adobe Illustrator 26.0.1, SVG Export Plug-In . SVG Version: 6.00 Build 0)  -->
<svg version="1.1" id="Layer_1" xmlns="http://www.w3.org/2000/svg" xmlns:xlink="http://www.w3.org/1999/xlink" x="0px" y="0px"
	 viewBox="0 0 100 100" style="enable-background:new 0 0 100 100;" xml:space="preserve">
<style type="text/css">
	.st0{fill:none;stroke:#A3C9A8;stroke-width:5;stroke-linecap:round;stroke-miterlimit:10;}
	.st1{fill:none;stroke:#875053;stroke-width:4;stroke-miterlimit:10;}
	.st2{fill:#875053;}
</style>
<g>
	<g>
		<path class="st0" d="M4.1,61.1c8.4,0.2,8.3,4.2,16.7,4.3c8.4,0.2,8.5-3.8,16.8-3.7c8.4,0.2,8.3,4.2,16.7,4.3
			c8.4,0.2,8.5-3.8,16.8-3.7s8.3,4.2,16.7,4.3"/>
	</g>
	<g>
		<path class="st0" d="M4.1,46.1c8.4,0.2,8.3,4.2,16.7,4.3c8.4,0.2,8.5-3.8,16.8-3.7c8.4,0.2,8.3,4.2,16.7,4.3
			c8.4,0.2,8.5-3.8,16.8-3.7s8.3,4.2,16.7,4.3"/>
	</g>
	<g>
		<path class="st0" d="M4.1,31.1c8.4,0.2,8.3,4.2,16.7,4.3c8.4,0.2,8.5-3.8,16.8-3.7c8.4,0.2,8.3,4.2,16.7,4.3
			c8.4,0.2,8.5-3.8,16.8-3.7s8.3,4.2,16.7,4.3"/>
	</g>
	<g>
		<path class="st0" d="M4.1,16.1c8.4,0.2,8.3,4.2,16.7,4.3c8.4,0.2,8.5-3.8,16.8-3.7c8.4,0.2,8.3,4.2,16.7,4.3
			c8.4,0.2,8.5-3.8,16.8-3.7c8.4,0.2,8.3,4.2,16.7,4.3"/>
	</g>
</g>
<path class="st1" d="M87.7,26.7c-4.5,0-9,0-13.6,0c-0.9,0.1-1.7-0.4-2.1-1.2c-2.2-4.1-5.7-6.5-10.4-6.5s-8,2.4-10.2,6.4
	c-0.4,0.9-1.3,1.4-2.2,1.3c-4.7,0-9.4-0.1-14.1,0c-4.4-0.1-8.1,3.5-8.1,7.9c0,0.1,0,0.2,0,0.4c0,17.7,0,35.4,0,53.2
	c-0.2,4.3,3.1,8,7.4,8.2c0.3,0,0.5,0,0.8,0c8.9,0,17.8,0,26.7,0c8.8,0,17.5,0,26.3,0c5.2,0,8.4-3.2,8.4-8.5c0-17.4,0-34.9,0-52.3
	C96.6,30.3,93,26.7,87.7,26.7z M61.5,27.2c2-0.1,3.6,1.4,3.7,3.4c0,0.1,0,0.2,0,0.3c0,2.1-1.6,3.7-3.7,3.8c-2.1,0-3.7-1.7-3.7-3.7
	C57.7,28.8,59.4,27.2,61.5,27.2C61.5,27.2,61.5,27.2,61.5,27.2z"/>
<path class="st2" d="M79,45.5l5.2,5.2L54,80.7L39.2,66l5.1-4.8l9.4,9.5L79,45.5z"/>
</svg>
