<?xml version="1.0" encoding="utf-8"?>
<!-- Generator: Adobe Illustrator 26.0.1, SVG Export Plug-In . SVG Version: 6.00 Build 0)  -->
<svg version="1.1" id="Layer_1" xmlns="http://www.w3.org/2000/svg" xmlns:xlink="http://www.w3.org/1999/xlink" x="0px" y="0px"
	 viewBox="0 0 100 100" style="enable-background:new 0 0 100 100;" xml:space="preserve">
<style type="text/css">
	.st0{fill:#F9C3DC;}
	.st1{fill:none;stroke:#1A6071;stroke-width:4;stroke-miterlimit:10;}
	.st2{fill:#1A6071;}
</style>
<path class="st0" d="M46.3,26.6c12.9,0,23.3,10.5,23.3,23.4S59.1,73.3,46.2,73.3c-12.9,0-23.3-10.4-23.3-23.3l0,0
	C22.9,37.1,33.4,26.6,46.3,26.6 M46.3,5.1C21.5,5,1.4,25.1,1.3,49.9c-0.1,24.8,20,44.9,44.8,45c24.8,0.1,44.9-20,45-44.8V50
	C91.1,25.2,71.1,5.2,46.3,5.1z"/>
<path class="st1" d="M87.9,27c-4.5,0-9,0-13.6,0c-0.9,0.1-1.7-0.4-2.1-1.2c-2.2-4.1-5.7-6.5-10.4-6.5s-8,2.4-10.2,6.4
	c-0.4,0.9-1.3,1.4-2.2,1.3c-4.7,0-9.4-0.1-14.1,0c-4.4-0.1-8.1,3.5-8.1,7.9c0,0.1,0,0.2,0,0.4c0,17.7,0,35.4,0,53.2
	c-0.2,4.3,3.1,8,7.4,8.2c0.3,0,0.5,0,0.8,0c8.9,0,17.8,0,26.7,0c8.8,0,17.5,0,26.3,0c5.2,0,8.4-3.2,8.4-8.5c0-17.4,0-34.9,0-52.3
	C96.8,30.6,93.2,27,87.9,27z M61.7,27.5c2-0.1,3.6,1.4,3.7,3.4c0,0.1,0,0.2,0,0.3c0,2.1-1.6,3.7-3.7,3.8c-2.1,0-3.7-1.7-3.7-3.7
	C58,29.2,59.6,27.5,61.7,27.5C61.7,27.5,61.7,27.5,61.7,27.5z"/>
<path class="st2" d="M79.3,45.9l5.2,5.2L54.3,81L39.5,66.3l5.1-4.8l9.4,9.5L79.3,45.9z"/>
</svg>
