<svg id="Layer_1" data-name="Layer 1" xmlns="http://www.w3.org/2000/svg" viewBox="0 0 100 100"><defs><style>.cls-1{fill:#f9c3dc;}.cls-2{fill:#1a6071;stroke:#1a6071;stroke-miterlimit:10;stroke-width:0.12px;}</style></defs><path class="cls-1" d="M46.3,26.6A23.35,23.35,0,1,1,22.9,50h0A23.49,23.49,0,0,1,46.3,26.6m0-21.5a44.9,44.9,0,1,0,44.8,45V50A44.9,44.9,0,0,0,46.3,5.1Z"/><path class="cls-2" d="M51.88,60.12v-.87q0-15.48,0-30.95a7.1,7.1,0,0,1,3-6.08,6.48,6.48,0,0,1,8.09.52A7.89,7.89,0,0,1,65.88,29c0,4.75,0,9.51,0,14.26,0,.24,0,.48,0,.75,4.06-1.91,7.14-.6,9.62,2.76.41-.29.78-.6,1.19-.84a6.32,6.32,0,0,1,7.82.82c.79.76,1.44,1.65,2.2,2.52l.2-.12a6.7,6.7,0,0,1,8.86.93,7.84,7.84,0,0,1,2.32,5.74c0,8.69,0,17.37,0,26.06a17.28,17.28,0,0,1-4.92,12.5,15.3,15.3,0,0,1-11.44,4.78c-5.63,0-11.25,0-16.88,0a15.76,15.76,0,0,1-11.6-5.1,25.84,25.84,0,0,1-4.2-6.4Q43.46,76.82,37.81,66L35,60.67a5.18,5.18,0,0,1-.3-.63A1.22,1.22,0,0,1,35,58.62,25.77,25.77,0,0,1,38.49,56a9,9,0,0,1,11,1.66c.68.69,1.29,1.47,1.93,2.2l.33.37Zm3.24-13.6h0V63.73c0,.4,0,.8,0,1.21a1.36,1.36,0,0,1-2.3.86,11.51,11.51,0,0,1-.83-.88c-1.32-1.59-2.63-3.2-4-4.77a5.89,5.89,0,0,0-5.46-2.07,7,7,0,0,0-4.08,2.16.51.51,0,0,0,0,.47c.31.65.65,1.28,1,1.91q4.08,7.86,8.18,15.71c2,3.78,3.88,7.6,6,11.34a11.85,11.85,0,0,0,9.13,6.14,21.46,21.46,0,0,0,3.11.12c5.15,0,10.29,0,15.44,0a12.39,12.39,0,0,0,6.31-1.53A13.81,13.81,0,0,0,94.8,82.14c.17-7.84.06-15.69.06-23.54,0-1.32,0-2.64,0-4A3.38,3.38,0,0,0,93.3,51.7a3.71,3.71,0,0,0-4.18.12,4.32,4.32,0,0,0-1.89,3.8c0,1.1,0,2.21,0,3.31a1.23,1.23,0,0,1-.8,1.16A1.35,1.35,0,0,1,85,59.9a2.47,2.47,0,0,1-1-2.16c.06-2,0-4.08,0-6.11a3.38,3.38,0,0,0-2.4-3.31,3.9,3.9,0,0,0-4.83,3.3,12.17,12.17,0,0,0-.1,1.71c0,2,0,3.89,0,5.83a1.35,1.35,0,0,1-2,1.25,2.18,2.18,0,0,1-1.26-2c0-2.7,0-5.4,0-8.11A4.66,4.66,0,0,0,72.83,48a3.67,3.67,0,0,0-5.06-1,4.19,4.19,0,0,0-1.9,3.78c0,3,0,6,0,8.95a3.94,3.94,0,0,1,0,.69,1.36,1.36,0,0,1-1.74,1,2.35,2.35,0,0,1-1.46-2q0-7.74,0-15.48,0-6.36,0-12.72c0-1.17.05-2.34,0-3.5a3.37,3.37,0,0,0-2.19-3.18,3.56,3.56,0,0,0-3.88.83,4.33,4.33,0,0,0-1.41,3.29Z"/><path class="cls-2" d="M71.64,27.36v.46a1.31,1.31,0,0,1-.83,1.24,1.36,1.36,0,0,1-1.48-.27,2.62,2.62,0,0,1-1-2,9,9,0,0,0-8.74-8.74,9.78,9.78,0,0,0-10.27,8.29,14,14,0,0,0-.12,1.44,1.34,1.34,0,0,1-.85,1.28,1.49,1.49,0,0,1-1.58-.36,2.26,2.26,0,0,1-.8-2.11,12.61,12.61,0,0,1,20.51-9,13.26,13.26,0,0,1,4.73,7.13c.21.85.3,1.74.45,2.61Z"/></svg>