<svg id="Layer_1" data-name="Layer 1" xmlns="http://www.w3.org/2000/svg" viewBox="0 0 24 24"><defs><style>.cls-1{fill:#00b2ac;}</style></defs><path class="cls-1" d="M8.08,12.85V4.24A1.91,1.91,0,0,1,8.9,2.59a1.76,1.76,0,0,1,2.19.14,2.1,2.1,0,0,1,.78,1.7V8.49a1.93,1.93,0,0,1,2.61.75A3.19,3.19,0,0,1,14.8,9a1.71,1.71,0,0,1,2.12.22c.21.21.39.45.59.68l.06,0a1.81,1.81,0,0,1,2.4.25,2.15,2.15,0,0,1,.63,1.56v7a4.65,4.65,0,0,1-1.34,3.39,4.09,4.09,0,0,1-3.09,1.29H11.6A4.24,4.24,0,0,1,8.46,22a6.83,6.83,0,0,1-1.14-1.73c-1-2-2-3.91-3.05-5.87L3.51,13c0-.05,0-.11-.08-.17a.32.32,0,0,1,.08-.38,6.52,6.52,0,0,1,1-.71,2.43,2.43,0,0,1,3,.45c.18.18.35.39.52.59l.09.1ZM9,9.17H9v5a.36.36,0,0,1-.4.33.37.37,0,0,1-.22-.1l-.23-.24c-.35-.43-.71-.87-1.08-1.29a1.58,1.58,0,0,0-1.48-.56,1.88,1.88,0,0,0-1.1.58.15.15,0,0,0,0,.13,5.12,5.12,0,0,0,.27.52q1.1,2.13,2.21,4.25c.54,1,1.05,2.06,1.63,3.07A3.21,3.21,0,0,0,11,22.52a5.9,5.9,0,0,0,.84,0h4.18a3.39,3.39,0,0,0,1.71-.42,3.75,3.75,0,0,0,1.95-3.32c0-2.12,0-4.24,0-6.37V11.36a.9.9,0,0,0-.42-.79,1,1,0,0,0-1.13,0,1.15,1.15,0,0,0-.51,1v.9a.33.33,0,0,1-.22.31.37.37,0,0,1-.39-.05.68.68,0,0,1-.27-.58c0-.54,0-1.11,0-1.66a.91.91,0,0,0-.65-.89,1,1,0,0,0-1.28.76l0,.13a2.36,2.36,0,0,0,0,.46v1.58a.37.37,0,0,1-.35.38.34.34,0,0,1-.2,0,.6.6,0,0,1-.34-.54v-2.2a1.21,1.21,0,0,0-.15-.62,1,1,0,0,0-1.37-.27,1.13,1.13,0,0,0-.52,1v2.43a.54.54,0,0,1,0,.18.36.36,0,0,1-.44.28h0a.62.62,0,0,1-.39-.54V5c0-.32,0-.64,0-1a.92.92,0,0,0-.6-.86,1,1,0,0,0-1.05.22A1.16,1.16,0,0,0,9,4.33Z"/><path class="cls-1" d="M13.43,4v.13a.33.33,0,0,1-.22.33.37.37,0,0,1-.4-.07.68.68,0,0,1-.27-.54,2.45,2.45,0,0,0-2.37-2.37A2.65,2.65,0,0,0,7.39,3.7a2.56,2.56,0,0,0,0,.39.36.36,0,0,1-.23.35.39.39,0,0,1-.43-.1.61.61,0,0,1-.22-.57A3.41,3.41,0,0,1,12,1.34a3.54,3.54,0,0,1,1.28,1.93c0,.23.08.47.12.7Z"/></svg>