<svg id="Layer_1" data-name="Layer 1" xmlns="http://www.w3.org/2000/svg" viewBox="0 0 100 100"><defs><style>.cls-1{fill:#f9c3dc;}.cls-2,.cls-3{fill:#51a0a8;stroke:#51a0a8;stroke-miterlimit:10;}.cls-2{stroke-width:2px;}.cls-3{stroke-width:2.11px;}</style></defs><path class="cls-1" d="M46.3,26.6A23.35,23.35,0,1,1,22.9,50h0A23.49,23.49,0,0,1,46.3,26.6m0-21.5a44.9,44.9,0,1,0,44.8,45V50A44.9,44.9,0,0,0,46.3,5.1Z"/><path class="cls-2" d="M51.88,59.15V27.33a7.08,7.08,0,0,1,3-6.08,6.47,6.47,0,0,1,8.09.52A7.89,7.89,0,0,1,65.88,28V43c4.06-1.91,7.14-.6,9.62,2.76.41-.29.78-.6,1.19-.84a6.32,6.32,0,0,1,7.82.82c.79.76,1.44,1.65,2.2,2.52l.2-.12a6.68,6.68,0,0,1,8.86.93,7.81,7.81,0,0,1,2.32,5.74V80.91a17.3,17.3,0,0,1-4.92,12.5,15.33,15.33,0,0,1-11.44,4.78H64.85a15.78,15.78,0,0,1-11.6-5.1,25.84,25.84,0,0,1-4.2-6.4Q43.46,75.85,37.81,65L35,59.7q-.16-.31-.3-.63a1.22,1.22,0,0,1,.3-1.42A25.44,25.44,0,0,1,38.49,55a9,9,0,0,1,11,1.66c.68.69,1.29,1.47,1.93,2.2l.33.37Zm3.24-13.6h0V64a1.37,1.37,0,0,1-2.3.86c-.29-.28-.57-.58-.83-.88-1.32-1.59-2.63-3.2-4-4.77a5.87,5.87,0,0,0-5.46-2.07,7,7,0,0,0-4.08,2.16.49.49,0,0,0,0,.47c.31.65.65,1.28,1,1.91q4.08,7.86,8.18,15.71c2,3.78,3.88,7.6,6,11.34a11.86,11.86,0,0,0,9.13,6.14,23,23,0,0,0,3.11.12H81.31a12.41,12.41,0,0,0,6.31-1.53A13.82,13.82,0,0,0,94.8,81.17c.17-7.84.06-15.69.06-23.54v-4a3.37,3.37,0,0,0-1.56-2.9,3.69,3.69,0,0,0-4.18.12,4.32,4.32,0,0,0-1.89,3.8V58a1.25,1.25,0,0,1-.8,1.16A1.38,1.38,0,0,1,85,58.93a2.47,2.47,0,0,1-1-2.16c.06-2,0-4.08,0-6.11a3.38,3.38,0,0,0-2.4-3.31,3.9,3.9,0,0,0-4.74,2.82,4,4,0,0,0-.09.48,12.17,12.17,0,0,0-.1,1.71v5.83a1.34,1.34,0,0,1-1.28,1.41,1.29,1.29,0,0,1-.72-.16,2.18,2.18,0,0,1-1.26-2V49.33a4.6,4.6,0,0,0-.58-2.3,3.66,3.66,0,0,0-5.06-1,4.18,4.18,0,0,0-1.9,3.78v8.95a4,4,0,0,1,0,.69,1.36,1.36,0,0,1-1.62,1l-.12,0a2.35,2.35,0,0,1-1.46-2V30.25c0-1.17,0-2.34,0-3.5a3.35,3.35,0,0,0-2.19-3.18,3.55,3.55,0,0,0-3.88.83,4.32,4.32,0,0,0-1.41,3.29Z"/><path class="cls-3" d="M72.6,24.79v.46a1.32,1.32,0,0,1-.92,1.24A1.64,1.64,0,0,1,70,26.22a2.53,2.53,0,0,1-1.12-2c-.15-4.77-4.43-8.6-9.75-8.74-5.64-.31-10.6,3.28-11.45,8.29a11.69,11.69,0,0,0-.14,1.44,1.34,1.34,0,0,1-1,1.28,1.81,1.81,0,0,1-1.76-.36A2.12,2.12,0,0,1,44,24c.5-6.95,7.18-12.22,14.94-11.78A15.08,15.08,0,0,1,66.85,15a13.26,13.26,0,0,1,5.27,7.13c.24.85.34,1.74.51,2.61Z"/></svg>