<?xml version="1.0" encoding="utf-8"?>
<!-- Generator: Adobe Illustrator 26.0.1, SVG Export Plug-In . SVG Version: 6.00 Build 0)  -->
<svg version="1.1" id="Layer_1" xmlns="http://www.w3.org/2000/svg" xmlns:xlink="http://www.w3.org/1999/xlink" x="0px" y="0px"
	 viewBox="0 0 100 100" style="enable-background:new 0 0 100 100;" xml:space="preserve">
<style type="text/css">
	.st0{fill:none;stroke:#A3C9A8;stroke-width:5;stroke-linecap:round;stroke-miterlimit:10;}
	.st1{fill:#BA727B;}
</style>
<g>
	<g>
		<path class="st0" d="M4.1,61.1c8.4,0.2,8.3,4.2,16.7,4.3c8.4,0.2,8.5-3.8,16.8-3.7c8.4,0.2,8.3,4.2,16.7,4.3
			c8.4,0.2,8.5-3.8,16.8-3.7s8.3,4.2,16.7,4.3"/>
	</g>
	<g>
		<path class="st0" d="M4.1,46.1c8.4,0.2,8.3,4.2,16.7,4.3c8.4,0.2,8.5-3.8,16.8-3.7c8.4,0.2,8.3,4.2,16.7,4.3
			c8.4,0.2,8.5-3.8,16.8-3.7s8.3,4.2,16.7,4.3"/>
	</g>
	<g>
		<path class="st0" d="M4.1,31.1c8.4,0.2,8.3,4.2,16.7,4.3c8.4,0.2,8.5-3.8,16.8-3.7c8.4,0.2,8.3,4.2,16.7,4.3
			c8.4,0.2,8.5-3.8,16.8-3.7s8.3,4.2,16.7,4.3"/>
	</g>
	<g>
		<path class="st0" d="M4.1,16.1c8.4,0.2,8.3,4.2,16.7,4.3c8.4,0.2,8.5-3.8,16.8-3.7c8.4,0.2,8.3,4.2,16.7,4.3
			c8.4,0.2,8.5-3.8,16.8-3.7c8.4,0.2,8.3,4.2,16.7,4.3"/>
	</g>
</g>
<g>
	<path class="st1" d="M96.5,48.4c-2.5-2.7-6.5-3.3-9.6-1.5c-0.1-0.1-0.1-0.1-0.2-0.2c-0.5-0.6-1-1.2-1.5-1.7c-2.4-2.4-6.2-2.8-9-1
		c-0.2,0.1-0.3,0.2-0.5,0.3c-2.5-3-5.5-3.9-8.8-2.9V28c0-2.7-1.2-5.3-3.2-7c-2.6-2.3-6.5-2.6-9.3-0.6c-2.3,1.6-3.5,4.2-3.4,6.9v29.4
		c-0.2-0.2-0.4-0.5-0.7-0.7C47,52.6,42,51.8,38,54.2c-1.3,0.8-2.5,1.7-3.6,2.7c-0.7,0.7-1,1.7-0.6,2.6c0.1,0.2,0.2,0.5,0.3,0.7
		l2.8,5.3c3.8,7.2,7.5,14.5,11.2,21.6c1.1,2.4,2.6,4.7,4.4,6.7c3.2,3.4,7.7,5.4,12.3,5.4h16.9c0.1,0,0.2,0,0.3,0
		c4.5,0,8.8-1.8,11.8-5.1c3.4-3.5,5.3-8.3,5.2-13.2V54.8C99.1,52.4,98.2,50.1,96.5,48.4z M47.2,59.9c1.1,1.2,2.1,2.5,3.1,3.7
		l0.9,1.1c0.3,0.3,0.6,0.6,0.9,1c0.4,0.4,0.9,0.6,1.4,0.6c0.6,0.1,1.2-0.1,1.7-0.5s0.8-1,0.9-1.6l0-18.6l0.1-17.9
		c0-1,0.4-1.9,1.1-2.6c0.7-0.8,1.8-1,2.8-0.6c0.9,0.3,1.5,1.2,1.5,2.2l0,31.8c0.1,1.3,0.9,2.4,2.1,2.9l0.2,0.1h0.2
		c1.2,0.2,2.4-0.6,2.7-1.8l0-0.2c0-0.3,0-0.6,0-0.8l0-9c-0.1-1.1,0.5-2.2,1.5-2.9c1.2-0.8,2.9-0.5,3.6,0.7c0.3,0.5,0.5,1.2,0.5,1.8
		v8.1c0,1.2,0.7,2.4,1.8,2.9c0.4,0.2,0.8,0.3,1.3,0.3c1.3-0.1,2.3-1.2,2.2-2.4v-5.8c0-0.5,0-1.1,0.1-1.6c0-0.1,0-0.2,0.1-0.4
		c0.2-0.8,0.7-1.4,1.3-1.8c0.7-0.4,1.4-0.5,2.2-0.3c1,0.3,1.7,1.3,1.7,2.4c0,0.7,0,1.4,0,2c0,1.3,0,2.7,0,4c-0.1,1.2,0.4,2.3,1.3,3
		c0.7,0.6,1.6,0.7,2.4,0.4c0.9-0.3,1.4-1.2,1.4-2.1l0-3.4c-0.1-1.2,0.5-2.3,1.5-2.9c0.9-0.7,2.1-0.7,3.1-0.1
		c0.7,0.4,1.1,1.2,1.1,2.1v4c0,2.2,0,4.4,0,6.6c0,5.5,0,11.3-0.1,16.9c0.1,4.8-2.5,9.1-6.7,11.4c-1.8,1-3.8,1.5-5.8,1.4H65.8
		c-1,0-2,0-3-0.1c-3.5-0.4-6.7-2.5-8.4-5.6c-1.4-2.5-2.7-5-4-7.5c-0.7-1.3-1.3-2.5-2-3.8c-2.7-5.2-5.5-10.5-8.2-15.7
		c-0.3-0.5-0.5-1-0.8-1.5c0.9-0.8,2-1.3,3.2-1.5C44.4,57.9,46.1,58.5,47.2,59.9z"/>
	<path class="st1" d="M44.1,26.9c0.8,0.7,1.8,0.9,2.7,0.6c1-0.3,1.8-1.2,1.8-2.3c0-0.4,0.1-0.9,0.1-1.3c0.8-4.5,5.2-7.7,10.4-7.4
		c4.8,0.1,8.6,3.5,8.7,7.7c0,1.1,0.6,2.2,1.5,2.8c0.5,0.4,1.1,0.6,1.7,0.6c0.3,0,0.6-0.1,0.9-0.2c1-0.3,1.6-1.2,1.7-2.2v-0.2
		l0.1-0.1l-0.1-0.4c-0.1-0.3-0.1-0.6-0.1-0.8c-0.1-0.6-0.2-1.2-0.4-1.9c-1-3.1-3-5.9-5.7-7.7c-2.5-1.8-5.4-2.8-8.5-3
		c-8.3-0.5-15.5,5.2-16,12.7C42.7,25,43.2,26.2,44.1,26.9z"/>
</g>
</svg>
