<?xml version="1.0" encoding="utf-8"?>
<!-- Generator: Adobe Illustrator 26.0.1, SVG Export Plug-In . SVG Version: 6.00 Build 0)  -->
<svg version="1.1" id="Layer_1" xmlns="http://www.w3.org/2000/svg" xmlns:xlink="http://www.w3.org/1999/xlink" x="0px" y="0px"
	 viewBox="0 0 639.1 289.8" style="enable-background:new 0 0 639.1 289.8;" xml:space="preserve">
<style type="text/css">
	.st0{fill:#FFE5EE;}
	.st1{fill:none;stroke:#313159;stroke-miterlimit:10;}
	.st2{fill:none;stroke:#FC0053;stroke-miterlimit:10;}
	.st3{fill:#F7ADCB;stroke:#FC0053;stroke-miterlimit:10;}
</style>
<rect x="287.9" y="8" class="st0" width="115.3" height="275.2"/>
<g>
	<path d="M205.9,26l-2.3-11.6c0-0.1,0-0.1,0-0.2c0-0.1,0-0.2,0.1-0.3c0.1-0.1,0.2-0.1,0.3-0.1h0.9c0.3,0,0.4,0.1,0.4,0.3l1.8,9.3
		l1.9-6.4c0.1-0.3,0.3-0.4,0.6-0.4h0.7c0.2,0,0.3,0,0.4,0.1c0.1,0.1,0.2,0.2,0.2,0.3l2,6.4l1.8-9.3c0-0.2,0.2-0.3,0.5-0.3h0.9
		c0.1,0,0.2,0,0.3,0.1c0.1,0.1,0.1,0.2,0.1,0.3l0,0.2L214,26c-0.1,0.3-0.3,0.5-0.6,0.5h-0.7c-0.3,0-0.5-0.1-0.6-0.5l-2.2-6.9
		l-2.2,6.9c-0.1,0.3-0.3,0.5-0.6,0.5h-0.7C206.1,26.5,205.9,26.3,205.9,26z"/>
	<path d="M218.9,25.5c-0.7-0.8-1.1-1.8-1.2-3.1l0-0.6l0-0.6c0.1-1.3,0.5-2.3,1.2-3.1c0.7-0.8,1.7-1.2,2.9-1.2c1.3,0,2.4,0.4,3.1,1.3
		s1.1,2,1.1,3.4v0.3c0,0.1,0,0.2-0.1,0.3s-0.2,0.1-0.3,0.1h-6.2v0.2c0,0.8,0.3,1.4,0.7,2c0.4,0.5,1,0.8,1.7,0.8c0.6,0,1-0.1,1.4-0.3
		s0.6-0.5,0.8-0.7c0.1-0.1,0.2-0.2,0.2-0.3c0.1,0,0.2,0,0.3,0h0.9c0.1,0,0.2,0,0.3,0.1c0.1,0.1,0.1,0.1,0.1,0.3c0,0.3-0.2,0.6-0.5,1
		c-0.3,0.4-0.8,0.7-1.4,1c-0.6,0.3-1.3,0.4-2,0.4C220.6,26.7,219.6,26.3,218.9,25.5z M224.3,21.1L224.3,21.1c0-0.9-0.2-1.6-0.7-2.1
		c-0.5-0.5-1.1-0.8-1.8-0.8c-0.8,0-1.4,0.3-1.8,0.8c-0.4,0.5-0.7,1.2-0.7,2v0.1H224.3z"/>
	<path d="M229,25.5c-0.7-0.8-1.1-1.8-1.2-3.1l0-0.6l0-0.6c0.1-1.3,0.5-2.3,1.2-3.1c0.7-0.8,1.7-1.2,2.9-1.2c1.3,0,2.4,0.4,3.1,1.3
		s1.1,2,1.1,3.4v0.3c0,0.1,0,0.2-0.1,0.3s-0.2,0.1-0.3,0.1h-6.2v0.2c0,0.8,0.3,1.4,0.7,2c0.4,0.5,1,0.8,1.7,0.8c0.6,0,1-0.1,1.4-0.3
		s0.6-0.5,0.8-0.7c0.1-0.1,0.2-0.2,0.2-0.3c0.1,0,0.2,0,0.3,0h0.9c0.1,0,0.2,0,0.3,0.1c0.1,0.1,0.1,0.1,0.1,0.3c0,0.3-0.2,0.6-0.5,1
		c-0.3,0.4-0.8,0.7-1.4,1c-0.6,0.3-1.3,0.4-2,0.4C230.7,26.7,229.7,26.3,229,25.5z M234.4,21.1L234.4,21.1c0-0.9-0.2-1.6-0.7-2.1
		c-0.5-0.5-1.1-0.8-1.8-0.8c-0.8,0-1.4,0.3-1.8,0.8c-0.4,0.5-0.7,1.2-0.7,2v0.1H234.4z"/>
	<path d="M238.4,26.4c-0.1-0.1-0.1-0.2-0.1-0.3v-12c0-0.1,0-0.2,0.1-0.3c0.1-0.1,0.2-0.1,0.3-0.1h0.8c0.1,0,0.2,0,0.3,0.1
		c0.1,0.1,0.1,0.2,0.1,0.3v6.3l3.5-3c0,0,0.1-0.1,0.2-0.1c0.1-0.1,0.2-0.1,0.2-0.1c0.1,0,0.2,0,0.3,0h1c0.1,0,0.2,0,0.3,0.1
		c0.1,0.1,0.1,0.2,0.1,0.3c0,0.1-0.1,0.2-0.2,0.3l-4.2,3.5l4.6,4.5c0.1,0.1,0.2,0.2,0.2,0.3c0,0.1,0,0.2-0.1,0.3
		c-0.1,0.1-0.2,0.1-0.3,0.1h-0.9c-0.2,0-0.3,0-0.4-0.1c-0.1,0-0.2-0.1-0.3-0.3l-4-3.8v3.7c0,0.1,0,0.2-0.1,0.3
		c-0.1,0.1-0.2,0.1-0.3,0.1h-0.8C238.6,26.5,238.5,26.4,238.4,26.4z"/>
	<path d="M255.1,26.4c-0.1-0.1-0.1-0.2-0.1-0.3V16l-3,2.3c-0.1,0.1-0.2,0.1-0.3,0.1c-0.1,0-0.2-0.1-0.3-0.2l-0.5-0.6
		c-0.1-0.1-0.1-0.2-0.1-0.3c0-0.1,0.1-0.3,0.2-0.3l3.9-3c0.1-0.1,0.3-0.1,0.5-0.1h0.9c0.1,0,0.2,0,0.3,0.1c0.1,0.1,0.1,0.2,0.1,0.3
		v11.8c0,0.1,0,0.2-0.1,0.3c-0.1,0.1-0.2,0.1-0.3,0.1h-1C255.3,26.5,255.2,26.4,255.1,26.4z"/>
</g>
<g>
	<path d="M319.6,26l-2.3-11.6c0-0.1,0-0.1,0-0.2c0-0.1,0-0.2,0.1-0.3c0.1-0.1,0.2-0.1,0.3-0.1h0.9c0.3,0,0.4,0.1,0.4,0.3l1.8,9.3
		l1.9-6.4c0.1-0.3,0.3-0.4,0.6-0.4h0.7c0.2,0,0.3,0,0.4,0.1c0.1,0.1,0.2,0.2,0.2,0.3l2,6.4l1.8-9.3c0-0.2,0.2-0.3,0.5-0.3h0.9
		c0.1,0,0.2,0,0.3,0.1c0.1,0.1,0.1,0.2,0.1,0.3l0,0.2L327.7,26c-0.1,0.3-0.3,0.5-0.6,0.5h-0.7c-0.3,0-0.5-0.1-0.6-0.5l-2.2-6.9
		l-2.2,6.9c-0.1,0.3-0.3,0.5-0.6,0.5h-0.7C319.8,26.5,319.7,26.3,319.6,26z"/>
	<path d="M332.6,25.5c-0.7-0.8-1.1-1.8-1.2-3.1l0-0.6l0-0.6c0.1-1.3,0.5-2.3,1.2-3.1c0.7-0.8,1.7-1.2,2.9-1.2c1.3,0,2.4,0.4,3.1,1.3
		s1.1,2,1.1,3.4v0.3c0,0.1,0,0.2-0.1,0.3s-0.2,0.1-0.3,0.1h-6.2v0.2c0,0.8,0.3,1.4,0.7,2c0.4,0.5,1,0.8,1.7,0.8c0.6,0,1-0.1,1.4-0.3
		s0.6-0.5,0.8-0.7c0.1-0.1,0.2-0.2,0.2-0.3c0.1,0,0.2,0,0.3,0h0.9c0.1,0,0.2,0,0.3,0.1c0.1,0.1,0.1,0.1,0.1,0.3c0,0.3-0.2,0.6-0.5,1
		c-0.3,0.4-0.8,0.7-1.4,1c-0.6,0.3-1.3,0.4-2,0.4C334.3,26.7,333.4,26.3,332.6,25.5z M338,21.1L338,21.1c0-0.9-0.2-1.6-0.7-2.1
		c-0.5-0.5-1.1-0.8-1.8-0.8c-0.8,0-1.4,0.3-1.8,0.8c-0.4,0.5-0.7,1.2-0.7,2v0.1H338z"/>
	<path d="M342.7,25.5c-0.7-0.8-1.1-1.8-1.2-3.1l0-0.6l0-0.6c0.1-1.3,0.5-2.3,1.2-3.1c0.7-0.8,1.7-1.2,2.9-1.2c1.3,0,2.4,0.4,3.1,1.3
		s1.1,2,1.1,3.4v0.3c0,0.1,0,0.2-0.1,0.3s-0.2,0.1-0.3,0.1h-6.2v0.2c0,0.8,0.3,1.4,0.7,2c0.4,0.5,1,0.8,1.7,0.8c0.6,0,1-0.1,1.4-0.3
		s0.6-0.5,0.8-0.7c0.1-0.1,0.2-0.2,0.2-0.3c0.1,0,0.2,0,0.3,0h0.9c0.1,0,0.2,0,0.3,0.1c0.1,0.1,0.1,0.1,0.1,0.3c0,0.3-0.2,0.6-0.5,1
		c-0.3,0.4-0.8,0.7-1.4,1c-0.6,0.3-1.3,0.4-2,0.4C344.4,26.7,343.4,26.3,342.7,25.5z M348.1,21.1L348.1,21.1c0-0.9-0.2-1.6-0.7-2.1
		c-0.5-0.5-1.1-0.8-1.8-0.8c-0.8,0-1.4,0.3-1.8,0.8c-0.4,0.5-0.7,1.2-0.7,2v0.1H348.1z"/>
	<path d="M352.1,26.4c-0.1-0.1-0.1-0.2-0.1-0.3v-12c0-0.1,0-0.2,0.1-0.3c0.1-0.1,0.2-0.1,0.3-0.1h0.8c0.1,0,0.2,0,0.3,0.1
		c0.1,0.1,0.1,0.2,0.1,0.3v6.3l3.5-3c0,0,0.1-0.1,0.2-0.1c0.1-0.1,0.2-0.1,0.2-0.1c0.1,0,0.2,0,0.3,0h1c0.1,0,0.2,0,0.3,0.1
		c0.1,0.1,0.1,0.2,0.1,0.3c0,0.1-0.1,0.2-0.2,0.3l-4.2,3.5l4.6,4.5c0.1,0.1,0.2,0.2,0.2,0.3c0,0.1,0,0.2-0.1,0.3
		c-0.1,0.1-0.2,0.1-0.3,0.1h-0.9c-0.2,0-0.3,0-0.4-0.1c-0.1,0-0.2-0.1-0.3-0.3l-4-3.8v3.7c0,0.1,0,0.2-0.1,0.3
		c-0.1,0.1-0.2,0.1-0.3,0.1h-0.8C352.3,26.5,352.2,26.4,352.1,26.4z"/>
	<path d="M365.2,26.4c-0.1-0.1-0.1-0.2-0.1-0.3v-0.6c0-0.3,0.1-0.5,0.5-0.8l3.8-3.8c0.9-0.8,1.6-1.4,1.9-1.9c0.3-0.5,0.5-1,0.5-1.5
		c0-0.7-0.2-1.2-0.6-1.6c-0.4-0.4-1-0.6-1.7-0.6c-0.7,0-1.3,0.2-1.7,0.6c-0.4,0.4-0.7,1-0.8,1.6c0,0.1-0.1,0.2-0.2,0.3
		c-0.1,0.1-0.2,0.1-0.3,0.1h-0.9c-0.1,0-0.2,0-0.3-0.1c-0.1-0.1-0.1-0.1-0.1-0.2c0-0.6,0.2-1.3,0.5-1.9c0.3-0.6,0.8-1.1,1.4-1.5
		c0.6-0.4,1.4-0.6,2.3-0.6c1.4,0,2.4,0.4,3.1,1.1c0.7,0.7,1,1.6,1,2.7c0,0.8-0.2,1.4-0.6,2s-1,1.3-1.8,2l-3.5,3.5h5.6
		c0.1,0,0.2,0,0.3,0.1c0.1,0.1,0.1,0.2,0.1,0.3v0.7c0,0.1,0,0.2-0.1,0.3c-0.1,0.1-0.2,0.1-0.3,0.1h-7.9
		C365.4,26.5,365.3,26.4,365.2,26.4z"/>
</g>
<g>
	<path d="M435,26l-2.3-11.6c0-0.1,0-0.1,0-0.2c0-0.1,0-0.2,0.1-0.3c0.1-0.1,0.2-0.1,0.3-0.1h0.9c0.3,0,0.4,0.1,0.4,0.3l1.8,9.3
		l1.9-6.4c0.1-0.3,0.3-0.4,0.6-0.4h0.7c0.2,0,0.3,0,0.4,0.1c0.1,0.1,0.2,0.2,0.2,0.3l2,6.4l1.8-9.3c0-0.2,0.2-0.3,0.5-0.3h0.9
		c0.1,0,0.2,0,0.3,0.1c0.1,0.1,0.1,0.2,0.1,0.3l0,0.2L443.1,26c-0.1,0.3-0.3,0.5-0.6,0.5h-0.7c-0.3,0-0.5-0.1-0.6-0.5l-2.2-6.9
		l-2.2,6.9c-0.1,0.3-0.3,0.5-0.6,0.5h-0.7C435.2,26.5,435,26.3,435,26z"/>
	<path d="M448,25.5c-0.7-0.8-1.1-1.8-1.2-3.1l0-0.6l0-0.6c0.1-1.3,0.5-2.3,1.2-3.1c0.7-0.8,1.7-1.2,2.9-1.2c1.3,0,2.4,0.4,3.1,1.3
		s1.1,2,1.1,3.4v0.3c0,0.1,0,0.2-0.1,0.3s-0.2,0.1-0.3,0.1h-6.2v0.2c0,0.8,0.3,1.4,0.7,2c0.4,0.5,1,0.8,1.7,0.8c0.6,0,1-0.1,1.4-0.3
		s0.6-0.5,0.8-0.7c0.1-0.1,0.2-0.2,0.2-0.3c0.1,0,0.2,0,0.3,0h0.9c0.1,0,0.2,0,0.3,0.1c0.1,0.1,0.1,0.1,0.1,0.3c0,0.3-0.2,0.6-0.5,1
		c-0.3,0.4-0.8,0.7-1.4,1c-0.6,0.3-1.3,0.4-2,0.4C449.7,26.7,448.7,26.3,448,25.5z M453.4,21.1L453.4,21.1c0-0.9-0.2-1.6-0.7-2.1
		c-0.5-0.5-1.1-0.8-1.8-0.8c-0.8,0-1.4,0.3-1.8,0.8c-0.4,0.5-0.7,1.2-0.7,2v0.1H453.4z"/>
	<path d="M458.1,25.5c-0.7-0.8-1.1-1.8-1.2-3.1l0-0.6l0-0.6c0.1-1.3,0.5-2.3,1.2-3.1c0.7-0.8,1.7-1.2,2.9-1.2c1.3,0,2.4,0.4,3.1,1.3
		s1.1,2,1.1,3.4v0.3c0,0.1,0,0.2-0.1,0.3s-0.2,0.1-0.3,0.1h-6.2v0.2c0,0.8,0.3,1.4,0.7,2c0.4,0.5,1,0.8,1.7,0.8c0.6,0,1-0.1,1.4-0.3
		s0.6-0.5,0.8-0.7c0.1-0.1,0.2-0.2,0.2-0.3c0.1,0,0.2,0,0.3,0h0.9c0.1,0,0.2,0,0.3,0.1c0.1,0.1,0.1,0.1,0.1,0.3c0,0.3-0.2,0.6-0.5,1
		c-0.3,0.4-0.8,0.7-1.4,1c-0.6,0.3-1.3,0.4-2,0.4C459.8,26.7,458.8,26.3,458.1,25.5z M463.5,21.1L463.5,21.1c0-0.9-0.2-1.6-0.7-2.1
		c-0.5-0.5-1.1-0.8-1.8-0.8c-0.8,0-1.4,0.3-1.8,0.8c-0.4,0.5-0.7,1.2-0.7,2v0.1H463.5z"/>
	<path d="M467.5,26.4c-0.1-0.1-0.1-0.2-0.1-0.3v-12c0-0.1,0-0.2,0.1-0.3c0.1-0.1,0.2-0.1,0.3-0.1h0.8c0.1,0,0.2,0,0.3,0.1
		c0.1,0.1,0.1,0.2,0.1,0.3v6.3l3.5-3c0,0,0.1-0.1,0.2-0.1c0.1-0.1,0.2-0.1,0.2-0.1c0.1,0,0.2,0,0.3,0h1c0.1,0,0.2,0,0.3,0.1
		c0.1,0.1,0.1,0.2,0.1,0.3c0,0.1-0.1,0.2-0.2,0.3l-4.2,3.5l4.6,4.5c0.1,0.1,0.2,0.2,0.2,0.3c0,0.1,0,0.2-0.1,0.3
		c-0.1,0.1-0.2,0.1-0.3,0.1h-0.9c-0.2,0-0.3,0-0.4-0.1c-0.1,0-0.2-0.1-0.3-0.3l-4-3.8v3.7c0,0.1,0,0.2-0.1,0.3
		c-0.1,0.1-0.2,0.1-0.3,0.1h-0.8C467.7,26.5,467.6,26.4,467.5,26.4z"/>
	<path d="M482.5,26.2c-0.7-0.3-1.2-0.7-1.6-1.2c-0.4-0.5-0.5-1-0.6-1.5c0-0.1,0-0.2,0.1-0.3c0.1-0.1,0.2-0.1,0.3-0.1h0.9
		c0.3,0,0.4,0.1,0.5,0.4c0.2,0.6,0.5,1,1,1.3c0.5,0.2,1.1,0.4,1.8,0.4c0.9,0,1.5-0.2,2-0.6c0.5-0.4,0.8-1,0.8-1.7
		c0-1.5-0.9-2.2-2.6-2.2h-1.7c-0.1,0-0.2,0-0.3-0.1s-0.1-0.2-0.1-0.3v-0.5c0-0.2,0.1-0.3,0.2-0.5l3.5-3.8h-5.3c-0.1,0-0.2,0-0.3-0.1
		s-0.1-0.2-0.1-0.3v-0.7c0-0.1,0-0.2,0.1-0.3c0.1-0.1,0.2-0.1,0.3-0.1h7.2c0.1,0,0.2,0,0.3,0.1s0.1,0.2,0.1,0.3V15
		c0,0.1-0.1,0.3-0.2,0.4l-3.5,3.9l0.3,0c1.2,0,2.2,0.4,2.9,1c0.7,0.6,1.1,1.5,1.1,2.6c0,0.8-0.2,1.5-0.6,2c-0.4,0.6-0.9,1-1.6,1.3
		c-0.7,0.3-1.5,0.5-2.4,0.5C484,26.7,483.2,26.5,482.5,26.2z"/>
</g>
<rect x="518.8" y="8" class="st0" width="115.3" height="275.2"/>
<g>
	<path d="M550.1,26l-2.3-11.6c0-0.1,0-0.1,0-0.2c0-0.1,0-0.2,0.1-0.3c0.1-0.1,0.2-0.1,0.3-0.1h0.9c0.3,0,0.4,0.1,0.4,0.3l1.8,9.3
		l1.9-6.4c0.1-0.3,0.3-0.4,0.6-0.4h0.7c0.2,0,0.3,0,0.4,0.1c0.1,0.1,0.2,0.2,0.2,0.3l2,6.4l1.8-9.3c0-0.2,0.2-0.3,0.5-0.3h0.9
		c0.1,0,0.2,0,0.3,0.1c0.1,0.1,0.1,0.2,0.1,0.3l0,0.2L558.3,26c-0.1,0.3-0.3,0.5-0.6,0.5H557c-0.3,0-0.5-0.1-0.6-0.5l-2.2-6.9
		L552,26c-0.1,0.3-0.3,0.5-0.6,0.5h-0.7C550.4,26.5,550.2,26.3,550.1,26z"/>
	<path d="M563.2,25.5c-0.7-0.8-1.1-1.8-1.2-3.1l0-0.6l0-0.6c0.1-1.3,0.5-2.3,1.2-3.1c0.7-0.8,1.7-1.2,2.9-1.2c1.3,0,2.4,0.4,3.1,1.3
		c0.7,0.8,1.1,2,1.1,3.4v0.3c0,0.1,0,0.2-0.1,0.3s-0.2,0.1-0.3,0.1h-6.2v0.2c0,0.8,0.3,1.4,0.7,2c0.4,0.5,1,0.8,1.7,0.8
		c0.6,0,1-0.1,1.4-0.3c0.4-0.2,0.6-0.5,0.8-0.7c0.1-0.1,0.2-0.2,0.2-0.3c0.1,0,0.2,0,0.3,0h0.9c0.1,0,0.2,0,0.3,0.1s0.1,0.1,0.1,0.3
		c0,0.3-0.2,0.6-0.5,1c-0.3,0.4-0.8,0.7-1.4,1c-0.6,0.3-1.3,0.4-2,0.4C564.9,26.7,563.9,26.3,563.2,25.5z M568.6,21.1L568.6,21.1
		c0-0.9-0.2-1.6-0.7-2.1c-0.5-0.5-1.1-0.8-1.8-0.8s-1.4,0.3-1.8,0.8s-0.7,1.2-0.7,2v0.1H568.6z"/>
	<path d="M573.2,25.5c-0.7-0.8-1.1-1.8-1.2-3.1l0-0.6l0-0.6c0.1-1.3,0.5-2.3,1.2-3.1c0.7-0.8,1.7-1.2,2.9-1.2c1.3,0,2.4,0.4,3.1,1.3
		c0.7,0.8,1.1,2,1.1,3.4v0.3c0,0.1,0,0.2-0.1,0.3s-0.2,0.1-0.3,0.1h-6.2v0.2c0,0.8,0.3,1.4,0.7,2c0.4,0.5,1,0.8,1.7,0.8
		c0.6,0,1-0.1,1.4-0.3c0.4-0.2,0.6-0.5,0.8-0.7c0.1-0.1,0.2-0.2,0.2-0.3c0.1,0,0.2,0,0.3,0h0.9c0.1,0,0.2,0,0.3,0.1s0.1,0.1,0.1,0.3
		c0,0.3-0.2,0.6-0.5,1c-0.3,0.4-0.8,0.7-1.4,1c-0.6,0.3-1.3,0.4-2,0.4C575,26.7,574,26.3,573.2,25.5z M578.7,21.1L578.7,21.1
		c0-0.9-0.2-1.6-0.7-2.1c-0.5-0.5-1.1-0.8-1.8-0.8s-1.4,0.3-1.8,0.8s-0.7,1.2-0.7,2v0.1H578.7z"/>
	<path d="M582.7,26.4c-0.1-0.1-0.1-0.2-0.1-0.3v-12c0-0.1,0-0.2,0.1-0.3c0.1-0.1,0.2-0.1,0.3-0.1h0.8c0.1,0,0.2,0,0.3,0.1
		c0.1,0.1,0.1,0.2,0.1,0.3v6.3l3.5-3c0,0,0.1-0.1,0.2-0.1c0.1-0.1,0.2-0.1,0.2-0.1c0.1,0,0.2,0,0.3,0h1c0.1,0,0.2,0,0.3,0.1
		c0.1,0.1,0.1,0.2,0.1,0.3c0,0.1-0.1,0.2-0.2,0.3l-4.2,3.5l4.6,4.5c0.1,0.1,0.2,0.2,0.2,0.3c0,0.1,0,0.2-0.1,0.3
		c-0.1,0.1-0.2,0.1-0.3,0.1H589c-0.2,0-0.3,0-0.4-0.1c-0.1,0-0.2-0.1-0.3-0.3l-4-3.8v3.7c0,0.1,0,0.2-0.1,0.3
		c-0.1,0.1-0.2,0.1-0.3,0.1H583C582.8,26.5,582.7,26.4,582.7,26.4z"/>
	<path d="M601.6,26.4c-0.1-0.1-0.1-0.2-0.1-0.3v-2.6h-5.8c-0.1,0-0.2,0-0.3-0.1c-0.1-0.1-0.1-0.2-0.1-0.3v-0.7
		c0-0.2,0.1-0.4,0.2-0.5l5.4-7.6c0.1-0.1,0.2-0.2,0.3-0.2s0.3-0.1,0.4-0.1h1.3c0.1,0,0.2,0,0.3,0.1c0.1,0.1,0.1,0.2,0.1,0.3v7.6h1.6
		c0.1,0,0.2,0,0.3,0.1c0.1,0.1,0.1,0.2,0.1,0.3v0.7c0,0.1,0,0.2-0.1,0.3c-0.1,0.1-0.2,0.1-0.3,0.1h-1.6v2.6c0,0.1,0,0.2-0.1,0.3
		c-0.1,0.1-0.2,0.1-0.3,0.1h-0.9C601.8,26.5,601.7,26.4,601.6,26.4z M601.5,21.9v-6.2l-4.3,6.2H601.5z"/>
</g>
<g>
	<path d="M77.5,56.7c-0.1-0.1-0.1-0.2-0.1-0.3V44.7c0-0.1,0-0.2,0.1-0.3c0.1-0.1,0.2-0.1,0.3-0.1h4.4c1.4,0,2.5,0.3,3.2,1
		c0.8,0.6,1.2,1.6,1.2,2.8c0,0.9-0.2,1.7-0.7,2.2c-0.4,0.6-1.1,1-1.9,1.2l2.8,4.8c0,0.1,0.1,0.1,0.1,0.2c0,0.1,0,0.2-0.1,0.3
		c-0.1,0.1-0.2,0.1-0.3,0.1h-0.9c-0.2,0-0.3,0-0.4-0.1c-0.1-0.1-0.2-0.2-0.3-0.4l-2.6-4.6h-3.1v4.6c0,0.1,0,0.2-0.1,0.3
		c-0.1,0.1-0.2,0.1-0.3,0.1h-0.9C77.7,56.9,77.6,56.8,77.5,56.7z M82.1,50.3c1.8,0,2.7-0.8,2.7-2.2s-0.9-2.2-2.7-2.2h-3v4.5H82.1z"
		/>
	<path d="M89.6,55.9c-0.7-0.8-1.1-1.8-1.2-3.1l0-0.6l0-0.6c0.1-1.3,0.5-2.3,1.2-3.1c0.7-0.8,1.7-1.2,2.9-1.2c1.3,0,2.4,0.4,3.1,1.3
		s1.1,2,1.1,3.4v0.3c0,0.1,0,0.2-0.1,0.3s-0.2,0.1-0.3,0.1h-6.2v0.2c0,0.8,0.3,1.4,0.7,2c0.4,0.5,1,0.8,1.7,0.8c0.6,0,1-0.1,1.4-0.3
		s0.6-0.5,0.8-0.7c0.1-0.1,0.2-0.2,0.2-0.3c0.1,0,0.2,0,0.3,0h0.9c0.1,0,0.2,0,0.3,0.1c0.1,0.1,0.1,0.1,0.1,0.3c0,0.3-0.2,0.6-0.5,1
		c-0.3,0.4-0.8,0.7-1.4,1c-0.6,0.3-1.3,0.4-2,0.4C91.3,57,90.3,56.7,89.6,55.9z M95,51.5L95,51.5c0-0.9-0.2-1.6-0.7-2.1
		c-0.5-0.5-1.1-0.8-1.8-0.8c-0.8,0-1.4,0.3-1.8,0.8c-0.4,0.5-0.7,1.2-0.7,2v0.1H95z"/>
	<path d="M100,56.6c-0.6-0.3-1-0.6-1.3-0.9c-0.3-0.3-0.4-0.6-0.4-0.9c0-0.1,0-0.2,0.1-0.3c0.1-0.1,0.2-0.1,0.3-0.1h0.8
		c0.1,0,0.2,0.1,0.3,0.2c0.3,0.3,0.6,0.6,0.9,0.8c0.3,0.2,0.8,0.3,1.3,0.3c0.6,0,1.1-0.1,1.5-0.4s0.6-0.6,0.6-1
		c0-0.3-0.1-0.5-0.2-0.7s-0.4-0.3-0.8-0.5c-0.4-0.1-1-0.3-1.7-0.5c-1-0.2-1.8-0.6-2.2-1s-0.7-1-0.7-1.7c0-0.5,0.1-0.9,0.4-1.3
		s0.7-0.8,1.2-1c0.5-0.3,1.1-0.4,1.9-0.4c0.8,0,1.4,0.1,2,0.4s0.9,0.5,1.2,0.9s0.4,0.6,0.4,0.9c0,0.1,0,0.2-0.1,0.3
		s-0.2,0.1-0.3,0.1h-0.8c-0.1,0-0.3-0.1-0.4-0.2c-0.2-0.2-0.4-0.4-0.5-0.5c-0.1-0.1-0.3-0.2-0.6-0.3c-0.3-0.1-0.6-0.1-1-0.1
		c-0.6,0-1,0.1-1.3,0.4s-0.5,0.6-0.5,1c0,0.3,0.1,0.5,0.2,0.6s0.4,0.3,0.8,0.5s0.9,0.3,1.6,0.4c1.1,0.2,1.9,0.6,2.4,1s0.7,1,0.7,1.7
		c0,0.5-0.1,1-0.4,1.4c-0.3,0.4-0.7,0.8-1.3,1c-0.6,0.2-1.3,0.4-2.1,0.4C101.3,57,100.6,56.9,100,56.6z"/>
	<path d="M108.9,55.9c-0.7-0.8-1.1-1.8-1.2-3.1l0-0.6l0-0.6c0.1-1.3,0.5-2.3,1.2-3.1c0.7-0.8,1.7-1.2,2.9-1.2c1.3,0,2.4,0.4,3.1,1.3
		s1.1,2,1.1,3.4v0.3c0,0.1,0,0.2-0.1,0.3s-0.2,0.1-0.3,0.1h-6.2v0.2c0,0.8,0.3,1.4,0.7,2c0.4,0.5,1,0.8,1.7,0.8c0.6,0,1-0.1,1.4-0.3
		s0.6-0.5,0.8-0.7c0.1-0.1,0.2-0.2,0.2-0.3c0.1,0,0.2,0,0.3,0h0.9c0.1,0,0.2,0,0.3,0.1c0.1,0.1,0.1,0.1,0.1,0.3c0,0.3-0.2,0.6-0.5,1
		c-0.3,0.4-0.8,0.7-1.4,1c-0.6,0.3-1.3,0.4-2,0.4C110.6,57,109.6,56.7,108.9,55.9z M114.3,51.5L114.3,51.5c0-0.9-0.2-1.6-0.7-2.1
		c-0.5-0.5-1.1-0.8-1.8-0.8c-0.8,0-1.4,0.3-1.8,0.8c-0.4,0.5-0.7,1.2-0.7,2v0.1H114.3z"/>
	<path d="M119.1,56.7c-0.5-0.2-0.9-0.6-1.2-1s-0.4-0.9-0.4-1.4c0-0.8,0.3-1.4,1-2c0.7-0.5,1.5-0.8,2.7-1l2.7-0.4v-0.5
		c0-1.2-0.7-1.8-2.1-1.8c-0.5,0-1,0.1-1.3,0.3c-0.3,0.2-0.6,0.5-0.8,0.8c0,0.1-0.1,0.2-0.1,0.2c-0.1,0-0.1,0.1-0.2,0.1h-0.8
		c-0.1,0-0.2,0-0.3-0.1c-0.1-0.1-0.1-0.2-0.1-0.3c0-0.3,0.1-0.6,0.4-1c0.3-0.4,0.7-0.7,1.2-1c0.5-0.3,1.2-0.4,2-0.4
		c1.3,0,2.3,0.3,2.9,0.9c0.6,0.6,0.9,1.4,0.9,2.3v5.8c0,0.1,0,0.2-0.1,0.3c-0.1,0.1-0.2,0.1-0.3,0.1h-0.8c-0.1,0-0.2,0-0.3-0.1
		c-0.1-0.1-0.1-0.2-0.1-0.3v-0.8c-0.3,0.4-0.6,0.7-1.2,1c-0.5,0.3-1.1,0.4-1.9,0.4C120.2,57,119.6,56.9,119.1,56.7z M123.1,54.9
		c0.5-0.5,0.7-1.2,0.7-2.2v-0.5l-2.1,0.3c-0.9,0.1-1.5,0.3-1.9,0.6c-0.4,0.3-0.6,0.6-0.6,1.1c0,0.5,0.2,0.8,0.6,1.1
		c0.4,0.3,0.9,0.4,1.4,0.4C121.9,55.7,122.6,55.4,123.1,54.9z"/>
	<path d="M128.2,56.7c-0.1-0.1-0.1-0.2-0.1-0.3v-8.5c0-0.1,0-0.2,0.1-0.3c0.1-0.1,0.2-0.1,0.3-0.1h0.8c0.1,0,0.2,0,0.3,0.1
		s0.1,0.2,0.1,0.3v0.8c0.5-0.8,1.3-1.2,2.5-1.2h0.7c0.1,0,0.2,0,0.3,0.1c0.1,0.1,0.1,0.2,0.1,0.3v0.7c0,0.1,0,0.2-0.1,0.3
		c-0.1,0.1-0.2,0.1-0.3,0.1h-1.1c-0.6,0-1.2,0.2-1.5,0.6c-0.4,0.4-0.6,0.9-0.6,1.5v5.3c0,0.1,0,0.2-0.1,0.3
		c-0.1,0.1-0.2,0.1-0.3,0.1h-0.9C128.4,56.9,128.3,56.8,128.2,56.7z"/>
	<path d="M135.5,55.9c-0.7-0.7-1.1-1.7-1.2-3.1l0-0.7l0-0.7c0-1.3,0.4-2.3,1.2-3.1c0.7-0.7,1.7-1.1,3-1.1c0.9,0,1.6,0.2,2.2,0.5
		c0.6,0.3,1,0.7,1.3,1.2s0.5,0.9,0.5,1.4c0,0.1,0,0.2-0.1,0.3c-0.1,0.1-0.2,0.1-0.3,0.1h-0.9c-0.1,0-0.2,0-0.3-0.1
		c-0.1,0-0.1-0.1-0.2-0.3c-0.2-0.6-0.5-1-0.9-1.2c-0.4-0.2-0.8-0.4-1.4-0.4c-0.7,0-1.3,0.2-1.8,0.7s-0.7,1.2-0.7,2.1l0,0.6l0,0.6
		c0,1,0.3,1.7,0.7,2.1c0.4,0.5,1,0.7,1.8,0.7c0.6,0,1-0.1,1.4-0.4c0.4-0.2,0.7-0.7,0.9-1.2c0.1-0.1,0.1-0.2,0.2-0.3
		c0.1-0.1,0.1-0.1,0.3-0.1h0.9c0.1,0,0.2,0,0.3,0.1s0.1,0.2,0.1,0.3c0,0.4-0.2,0.9-0.5,1.4c-0.3,0.5-0.7,0.8-1.3,1.2
		c-0.6,0.3-1.3,0.5-2.2,0.5C137.3,57,136.3,56.7,135.5,55.9z"/>
	<path d="M144.8,56.7c-0.1-0.1-0.1-0.2-0.1-0.3v-12c0-0.1,0-0.2,0.1-0.3c0.1-0.1,0.2-0.1,0.3-0.1h0.9c0.1,0,0.2,0,0.3,0.1
		c0.1,0.1,0.1,0.2,0.1,0.3v4.2c0.3-0.4,0.8-0.8,1.2-1c0.5-0.2,1.1-0.4,1.7-0.4c1.2,0,2,0.4,2.7,1.1c0.6,0.7,1,1.7,1,2.9v5.1
		c0,0.1,0,0.2-0.1,0.3c-0.1,0.1-0.2,0.1-0.3,0.1h-0.9c-0.1,0-0.2,0-0.3-0.1c-0.1-0.1-0.1-0.2-0.1-0.3v-5c0-0.9-0.2-1.5-0.6-2
		c-0.4-0.5-1-0.7-1.8-0.7c-0.8,0-1.4,0.2-1.8,0.7c-0.4,0.5-0.7,1.1-0.7,2v5c0,0.1,0,0.2-0.1,0.3c-0.1,0.1-0.2,0.1-0.3,0.1h-0.9
		C145,56.9,144.9,56.8,144.8,56.7z"/>
</g>
<g>
	<path d="M6.5,89.8c-0.8-0.9-1.3-2.1-1.3-3.6c0-0.3,0-0.9,0-1.6c0-0.7,0-1.3,0-1.6c0.1-1.5,0.5-2.7,1.4-3.6c0.8-0.9,2.1-1.3,3.7-1.3
		c1.1,0,2,0.2,2.7,0.6s1.3,0.9,1.7,1.5c0.4,0.6,0.6,1.3,0.6,2v0c0,0.1,0,0.2-0.1,0.2s-0.2,0.1-0.3,0.1h-1c-0.2,0-0.4-0.1-0.4-0.4
		c-0.2-0.9-0.6-1.5-1.1-1.9c-0.5-0.4-1.2-0.5-2.1-0.5c-2.1,0-3.1,1.1-3.2,3.4c0,0.3,0,0.8,0,1.5s0,1.2,0,1.5
		c0.1,2.3,1.1,3.4,3.2,3.4c0.9,0,1.6-0.2,2.1-0.5s0.9-1,1.1-1.9c0-0.2,0.1-0.3,0.2-0.3c0.1-0.1,0.2-0.1,0.3-0.1h1
		c0.1,0,0.2,0,0.3,0.1s0.1,0.2,0.1,0.3c0,0.7-0.2,1.4-0.6,2c-0.4,0.6-0.9,1.1-1.7,1.5c-0.7,0.4-1.6,0.6-2.7,0.6
		C8.6,91.1,7.4,90.6,6.5,89.8z"/>
	<path d="M18.2,89.9c-0.7-0.7-1.1-1.7-1.2-3l0-0.8l0-0.8c0-1.2,0.4-2.2,1.2-3s1.8-1.1,3.1-1.1c1.3,0,2.3,0.4,3.1,1.1s1.1,1.7,1.2,3
		c0,0.1,0,0.4,0,0.8c0,0.4,0,0.6,0,0.8c0,1.2-0.4,2.2-1.2,3c-0.7,0.7-1.7,1.1-3.1,1.1C19.9,91.1,18.9,90.7,18.2,89.9z M23,88.9
		c0.4-0.5,0.7-1.2,0.7-2.1c0-0.1,0-0.3,0-0.7c0-0.3,0-0.6,0-0.7c0-0.9-0.3-1.6-0.7-2.1c-0.4-0.5-1-0.7-1.8-0.7s-1.4,0.2-1.8,0.7
		c-0.4,0.5-0.7,1.2-0.7,2.1l0,0.7l0,0.7c0,0.9,0.3,1.6,0.7,2.1c0.4,0.5,1,0.7,1.8,0.7S22.6,89.4,23,88.9z"/>
	<path d="M27.9,90.8c-0.1-0.1-0.1-0.2-0.1-0.3v-8.5c0-0.1,0-0.2,0.1-0.3c0.1-0.1,0.2-0.1,0.3-0.1H29c0.1,0,0.2,0,0.3,0.1
		c0.1,0.1,0.1,0.2,0.1,0.3v0.8c0.3-0.4,0.8-0.8,1.2-1c0.5-0.2,1.1-0.4,1.8-0.4c1.2,0,2,0.4,2.7,1.1c0.6,0.7,1,1.7,1,2.9v5.1
		c0,0.1,0,0.2-0.1,0.3c-0.1,0.1-0.2,0.1-0.3,0.1h-0.9c-0.1,0-0.2,0-0.3-0.1c-0.1-0.1-0.1-0.2-0.1-0.3v-5c0-0.9-0.2-1.5-0.6-2
		c-0.4-0.5-1-0.7-1.8-0.7c-0.8,0-1.4,0.2-1.8,0.7c-0.4,0.5-0.7,1.1-0.7,2v5c0,0.1,0,0.2-0.1,0.3c-0.1,0.1-0.2,0.1-0.3,0.1h-0.9
		C28,90.9,27.9,90.8,27.9,90.8z"/>
	<path d="M39.4,90c-0.7-0.7-1.1-1.7-1.2-3.1l0-0.7l0-0.7c0-1.3,0.4-2.3,1.2-3.1c0.7-0.7,1.7-1.1,3-1.1c0.9,0,1.6,0.2,2.2,0.5
		c0.6,0.3,1,0.7,1.3,1.2s0.5,0.9,0.5,1.4c0,0.1,0,0.2-0.1,0.3c-0.1,0.1-0.2,0.1-0.3,0.1h-0.9c-0.1,0-0.2,0-0.3-0.1
		c-0.1,0-0.1-0.1-0.2-0.3c-0.2-0.6-0.5-1-0.9-1.2c-0.4-0.2-0.8-0.4-1.4-0.4c-0.7,0-1.3,0.2-1.8,0.7S40,84.6,40,85.6l0,0.6l0,0.6
		c0,1,0.3,1.7,0.7,2.1c0.4,0.5,1,0.7,1.8,0.7c0.6,0,1-0.1,1.4-0.4c0.4-0.2,0.7-0.7,0.9-1.2c0.1-0.1,0.1-0.2,0.2-0.3
		c0.1-0.1,0.1-0.1,0.3-0.1H46c0.1,0,0.2,0,0.3,0.1s0.1,0.2,0.1,0.3c0,0.4-0.2,0.9-0.5,1.4c-0.3,0.5-0.7,0.8-1.3,1.2
		c-0.6,0.3-1.3,0.5-2.2,0.5C41.2,91.1,40.2,90.7,39.4,90z"/>
	<path d="M49.4,89.9c-0.7-0.8-1.1-1.8-1.2-3.1l0-0.6l0-0.6c0.1-1.3,0.5-2.3,1.2-3.1c0.7-0.8,1.7-1.2,2.9-1.2c1.3,0,2.4,0.4,3.1,1.3
		s1.1,2,1.1,3.4v0.3c0,0.1,0,0.2-0.1,0.3s-0.2,0.1-0.3,0.1h-6.2v0.2c0,0.8,0.3,1.4,0.7,2c0.4,0.5,1,0.8,1.7,0.8c0.6,0,1-0.1,1.4-0.3
		s0.6-0.5,0.8-0.7c0.1-0.1,0.2-0.2,0.2-0.3c0.1,0,0.2,0,0.3,0h0.9c0.1,0,0.2,0,0.3,0.1c0.1,0.1,0.1,0.1,0.1,0.3c0,0.3-0.2,0.6-0.5,1
		c-0.3,0.4-0.8,0.7-1.4,1c-0.6,0.3-1.3,0.4-2,0.4C51.1,91.1,50.1,90.7,49.4,89.9z M54.8,85.5L54.8,85.5c0-0.9-0.2-1.6-0.7-2.1
		c-0.5-0.5-1.1-0.8-1.8-0.8c-0.8,0-1.4,0.3-1.8,0.8c-0.4,0.5-0.7,1.2-0.7,2v0.1H54.8z"/>
	<path d="M58.8,94.2c-0.1-0.1-0.1-0.2-0.1-0.3v-12c0-0.1,0-0.2,0.1-0.3c0.1-0.1,0.2-0.1,0.3-0.1h0.8c0.1,0,0.2,0,0.3,0.1
		c0.1,0.1,0.1,0.2,0.1,0.3v0.8c0.7-0.9,1.7-1.4,3-1.4c1.3,0,2.2,0.4,2.8,1.2s1,1.8,1,3.1c0,0.1,0,0.3,0,0.6c0,0.3,0,0.5,0,0.6
		c0,1.2-0.4,2.3-1,3.1c-0.6,0.8-1.6,1.2-2.8,1.2c-1.2,0-2.2-0.5-2.9-1.4v4.2c0,0.1,0,0.2-0.1,0.3c-0.1,0.1-0.2,0.1-0.3,0.1h-0.9
		C59,94.3,58.9,94.3,58.8,94.2z M64.8,88.8c0.4-0.5,0.6-1.2,0.6-2.1c0-0.1,0-0.3,0-0.5c0-2.3-0.8-3.4-2.5-3.4
		c-0.8,0-1.4,0.3-1.9,0.8c-0.4,0.5-0.6,1.2-0.7,2l0,0.7l0,0.7c0,0.7,0.3,1.3,0.7,1.9c0.4,0.5,1,0.8,1.9,0.8
		C63.8,89.6,64.4,89.3,64.8,88.8z"/>
	<path d="M70.1,87.7V83h-1.4c-0.1,0-0.2,0-0.3-0.1c-0.1-0.1-0.1-0.2-0.1-0.3v-0.6c0-0.1,0-0.2,0.1-0.3c0.1-0.1,0.2-0.1,0.3-0.1h1.4
		v-3c0-0.1,0-0.2,0.1-0.3c0.1-0.1,0.2-0.1,0.3-0.1h0.8c0.1,0,0.2,0,0.3,0.1c0.1,0.1,0.1,0.2,0.1,0.3v3H74c0.1,0,0.2,0,0.3,0.1
		c0.1,0.1,0.1,0.2,0.1,0.3v0.6c0,0.1,0,0.2-0.1,0.3C74.2,82.9,74.1,83,74,83h-2.2v4.6c0,0.6,0.1,1.1,0.3,1.4c0.2,0.3,0.5,0.5,1,0.5
		h1.1c0.1,0,0.2,0,0.3,0.1s0.1,0.2,0.1,0.3v0.6c0,0.1,0,0.2-0.1,0.3c-0.1,0.1-0.2,0.1-0.3,0.1H73C71.1,90.9,70.1,89.8,70.1,87.7z"/>
	<path d="M82.4,90.6c-0.6-0.3-1.1-0.7-1.5-1.3c-0.3-0.5-0.5-1.2-0.5-1.8c0-0.8,0.2-1.4,0.7-1.9c0.4-0.5,1.1-1,1.9-1.5
		c-0.6-0.6-1-1.1-1.2-1.6c-0.2-0.5-0.4-0.9-0.4-1.4c0-0.5,0.1-1,0.4-1.5c0.3-0.5,0.7-0.8,1.2-1.1c0.5-0.3,1.1-0.4,1.8-0.4
		c0.6,0,1.2,0.1,1.7,0.4c0.5,0.3,0.9,0.6,1.2,1.1c0.3,0.5,0.4,1,0.4,1.5c0,0.7-0.2,1.3-0.7,1.8c-0.5,0.5-1.1,1-2,1.5l3.1,3
		c0.5-0.8,0.8-1.7,1-2.7c0-0.1,0.1-0.2,0.1-0.3s0.2-0.1,0.3-0.1h0.8c0.1,0,0.2,0,0.3,0.1c0.1,0.1,0.1,0.2,0.1,0.3
		c0,0.5-0.1,1.1-0.4,1.8c-0.3,0.7-0.6,1.3-1.1,2l1.8,1.8c0.1,0.1,0.2,0.2,0.2,0.3c0,0.2-0.1,0.3-0.4,0.3h-1c-0.2,0-0.4-0.1-0.5-0.2
		l-1.2-1.2c-1,1-2.3,1.5-3.9,1.5C83.8,91.1,83,90.9,82.4,90.6z M86,89.3c0.5-0.2,0.9-0.5,1.3-0.9L84,85.1c-0.6,0.3-1.1,0.7-1.4,1.1
		c-0.3,0.4-0.5,0.8-0.5,1.3c0,0.7,0.2,1.2,0.7,1.6c0.5,0.4,1.1,0.6,1.8,0.6C85.1,89.6,85.6,89.5,86,89.3z M86,82.2
		c0.4-0.3,0.5-0.7,0.5-1.2c0-0.5-0.2-0.8-0.5-1.1c-0.3-0.3-0.8-0.4-1.2-0.4c-0.5,0-0.9,0.1-1.2,0.4c-0.3,0.3-0.5,0.7-0.5,1.2
		c0,0.3,0.1,0.6,0.3,1c0.2,0.3,0.5,0.7,1.1,1.3C85.1,82.9,85.6,82.6,86,82.2z"/>
	<path d="M99.3,90.6c-0.7-0.3-1.3-0.7-1.7-1.2c-0.4-0.5-0.6-1.1-0.6-1.6c0-0.1,0-0.2,0.1-0.3c0.1-0.1,0.2-0.1,0.3-0.1h0.9
		c0.2,0,0.4,0.1,0.5,0.4c0.1,0.5,0.4,0.9,0.9,1.3c0.5,0.4,1.2,0.5,2.2,0.5c1,0,1.7-0.2,2.2-0.5c0.5-0.4,0.8-0.8,0.8-1.5
		c0-0.4-0.1-0.7-0.4-1s-0.6-0.5-1.1-0.7s-1.2-0.4-2.2-0.7c-0.9-0.3-1.7-0.5-2.2-0.8c-0.6-0.3-1-0.7-1.2-1.1c-0.3-0.4-0.4-1-0.4-1.7
		c0-0.6,0.2-1.2,0.5-1.7c0.4-0.5,0.9-0.9,1.5-1.2c0.7-0.3,1.4-0.4,2.4-0.4c0.9,0,1.7,0.2,2.4,0.5c0.7,0.3,1.2,0.7,1.5,1.3
		c0.3,0.5,0.5,1,0.6,1.5c0,0.1,0,0.2-0.1,0.3s-0.2,0.1-0.3,0.1h-1c-0.3,0-0.4-0.1-0.5-0.3c-0.1-0.5-0.4-0.9-0.8-1.3
		s-1.1-0.5-1.9-0.5c-0.8,0-1.5,0.2-1.9,0.5c-0.5,0.3-0.7,0.8-0.7,1.4c0,0.4,0.1,0.7,0.3,1c0.2,0.3,0.6,0.5,1,0.7
		c0.5,0.2,1.1,0.4,2,0.7c1,0.3,1.8,0.6,2.4,0.9c0.6,0.3,1,0.7,1.3,1.1c0.3,0.4,0.4,1,0.4,1.7c0,1.1-0.4,2-1.3,2.6
		c-0.9,0.6-2,1-3.5,1C100.9,91.1,100.1,90.9,99.3,90.6z"/>
	<path d="M109,90.8c-0.1-0.1-0.1-0.2-0.1-0.3v-12c0-0.1,0-0.2,0.1-0.3c0.1-0.1,0.2-0.1,0.3-0.1h0.8c0.1,0,0.2,0,0.3,0.1
		c0.1,0.1,0.1,0.2,0.1,0.3v6.3l3.5-3c0,0,0.1-0.1,0.2-0.1c0.1-0.1,0.2-0.1,0.2-0.1c0.1,0,0.2,0,0.3,0h1c0.1,0,0.2,0,0.3,0.1
		c0.1,0.1,0.1,0.2,0.1,0.3c0,0.1-0.1,0.2-0.2,0.3l-4.2,3.5l4.6,4.5c0.1,0.1,0.2,0.2,0.2,0.3c0,0.1,0,0.2-0.1,0.3
		c-0.1,0.1-0.2,0.1-0.3,0.1h-0.9c-0.2,0-0.3,0-0.4-0.1c-0.1,0-0.2-0.1-0.3-0.3l-4-3.8v3.7c0,0.1,0,0.2-0.1,0.3
		c-0.1,0.1-0.2,0.1-0.3,0.1h-0.8C109.2,90.9,109.1,90.8,109,90.8z"/>
	<path d="M118.5,89.9c-0.7-0.8-1.1-1.8-1.2-3.1l0-0.6l0-0.6c0.1-1.3,0.5-2.3,1.2-3.1c0.7-0.8,1.7-1.2,2.9-1.2c1.3,0,2.4,0.4,3.1,1.3
		s1.1,2,1.1,3.4v0.3c0,0.1,0,0.2-0.1,0.3s-0.2,0.1-0.3,0.1H119v0.2c0,0.8,0.3,1.4,0.7,2c0.4,0.5,1,0.8,1.7,0.8c0.6,0,1-0.1,1.4-0.3
		c0.4-0.2,0.6-0.5,0.8-0.7c0.1-0.1,0.2-0.2,0.2-0.3c0.1,0,0.2,0,0.3,0h0.9c0.1,0,0.2,0,0.3,0.1s0.1,0.1,0.1,0.3c0,0.3-0.2,0.6-0.5,1
		c-0.3,0.4-0.8,0.7-1.4,1s-1.3,0.4-2,0.4C120.2,91.1,119.2,90.7,118.5,89.9z M123.9,85.5L123.9,85.5c0-0.9-0.2-1.6-0.7-2.1
		c-0.4-0.5-1.1-0.8-1.8-0.8c-0.8,0-1.4,0.3-1.8,0.8c-0.4,0.5-0.7,1.2-0.7,2v0.1H123.9z"/>
	<path d="M128.5,87.7V83h-1.4c-0.1,0-0.2,0-0.3-0.1c-0.1-0.1-0.1-0.2-0.1-0.3v-0.6c0-0.1,0-0.2,0.1-0.3c0.1-0.1,0.2-0.1,0.3-0.1h1.4
		v-3c0-0.1,0-0.2,0.1-0.3c0.1-0.1,0.2-0.1,0.3-0.1h0.8c0.1,0,0.2,0,0.3,0.1c0.1,0.1,0.1,0.2,0.1,0.3v3h2.2c0.1,0,0.2,0,0.3,0.1
		c0.1,0.1,0.1,0.2,0.1,0.3v0.6c0,0.1,0,0.2-0.1,0.3c-0.1,0.1-0.2,0.1-0.3,0.1h-2.2v4.6c0,0.6,0.1,1.1,0.3,1.4s0.5,0.5,1,0.5h1.1
		c0.1,0,0.2,0,0.3,0.1c0.1,0.1,0.1,0.2,0.1,0.3v0.6c0,0.1,0,0.2-0.1,0.3c-0.1,0.1-0.2,0.1-0.3,0.1h-1.2
		C129.5,90.9,128.5,89.8,128.5,87.7z"/>
	<path d="M135.5,90c-0.7-0.7-1.1-1.7-1.2-3.1l0-0.7l0-0.7c0-1.3,0.4-2.3,1.2-3.1c0.7-0.7,1.7-1.1,3-1.1c0.9,0,1.6,0.2,2.2,0.5
		c0.6,0.3,1,0.7,1.3,1.2c0.3,0.5,0.5,0.9,0.5,1.4c0,0.1,0,0.2-0.1,0.3c-0.1,0.1-0.2,0.1-0.3,0.1h-0.9c-0.1,0-0.2,0-0.3-0.1
		c-0.1,0-0.1-0.1-0.2-0.3c-0.2-0.6-0.5-1-0.9-1.2c-0.4-0.2-0.8-0.4-1.4-0.4c-0.7,0-1.3,0.2-1.8,0.7c-0.4,0.5-0.7,1.2-0.7,2.1l0,0.6
		l0,0.6c0,1,0.3,1.7,0.7,2.1c0.4,0.5,1,0.7,1.8,0.7c0.6,0,1-0.1,1.4-0.4s0.7-0.7,0.9-1.2c0.1-0.1,0.1-0.2,0.2-0.3
		c0.1-0.1,0.1-0.1,0.3-0.1h0.9c0.1,0,0.2,0,0.3,0.1s0.1,0.2,0.1,0.3c0,0.4-0.2,0.9-0.5,1.4c-0.3,0.5-0.7,0.8-1.3,1.2
		c-0.6,0.3-1.3,0.5-2.2,0.5C137.3,91.1,136.3,90.7,135.5,90z"/>
	<path d="M144.8,90.8c-0.1-0.1-0.1-0.2-0.1-0.3v-12c0-0.1,0-0.2,0.1-0.3c0.1-0.1,0.2-0.1,0.3-0.1h0.9c0.1,0,0.2,0,0.3,0.1
		c0.1,0.1,0.1,0.2,0.1,0.3v4.2c0.3-0.4,0.8-0.8,1.2-1s1-0.4,1.7-0.4c1.2,0,2,0.4,2.7,1.1c0.6,0.7,1,1.7,1,2.9v5.1
		c0,0.1,0,0.2-0.1,0.3c-0.1,0.1-0.2,0.1-0.3,0.1h-0.9c-0.1,0-0.2,0-0.3-0.1c-0.1-0.1-0.1-0.2-0.1-0.3v-5c0-0.9-0.2-1.5-0.6-2
		c-0.4-0.5-1-0.7-1.8-0.7c-0.8,0-1.4,0.2-1.8,0.7c-0.5,0.5-0.7,1.1-0.7,2v5c0,0.1,0,0.2-0.1,0.3c-0.1,0.1-0.2,0.1-0.3,0.1h-0.9
		C145,90.9,144.9,90.8,144.8,90.8z"/>
</g>
<g>
	<path d="M72.5,126.2c-0.1-0.1-0.1-0.2-0.1-0.3v-11.8c0-0.1,0-0.2,0.1-0.3c0.1-0.1,0.2-0.1,0.3-0.1h4.6c1.4,0,2.4,0.3,3.2,1
		s1.2,1.6,1.2,2.9s-0.4,2.2-1.2,2.9c-0.8,0.7-1.8,1-3.2,1h-3.2v4.5c0,0.1,0,0.2-0.1,0.3c-0.1,0.1-0.2,0.1-0.3,0.1h-1
		C72.7,126.3,72.6,126.2,72.5,126.2z M77.3,119.9c0.9,0,1.5-0.2,2-0.6c0.4-0.4,0.7-1,0.7-1.7s-0.2-1.3-0.7-1.7s-1.1-0.6-2-0.6h-3.1
		v4.7H77.3z"/>
	<path d="M83.8,126.2c-0.1-0.1-0.1-0.2-0.1-0.3v-8.5c0-0.1,0-0.2,0.1-0.3c0.1-0.1,0.2-0.1,0.3-0.1h0.8c0.1,0,0.2,0,0.3,0.1
		s0.1,0.2,0.1,0.3v0.8c0.5-0.8,1.3-1.2,2.5-1.2h0.7c0.1,0,0.2,0,0.3,0.1c0.1,0.1,0.1,0.2,0.1,0.3v0.7c0,0.1,0,0.2-0.1,0.3
		c-0.1,0.1-0.2,0.1-0.3,0.1h-1.1c-0.6,0-1.2,0.2-1.5,0.6c-0.4,0.4-0.6,0.9-0.6,1.5v5.3c0,0.1,0,0.2-0.1,0.3
		c-0.1,0.1-0.2,0.1-0.3,0.1h-0.9C84,126.3,83.9,126.2,83.8,126.2z"/>
	<path d="M91.1,125.4c-0.7-0.7-1.1-1.7-1.2-3l0-0.8l0-0.8c0-1.2,0.4-2.2,1.2-3s1.8-1.1,3.1-1.1c1.3,0,2.3,0.4,3.1,1.1s1.1,1.7,1.2,3
		c0,0.1,0,0.4,0,0.8c0,0.4,0,0.6,0,0.8c0,1.2-0.4,2.2-1.2,3c-0.7,0.7-1.7,1.1-3.1,1.1C92.9,126.5,91.8,126.1,91.1,125.4z M96,124.4
		c0.4-0.5,0.7-1.2,0.7-2.1c0-0.1,0-0.3,0-0.7c0-0.3,0-0.6,0-0.7c0-0.9-0.3-1.6-0.7-2.1c-0.4-0.5-1-0.7-1.8-0.7s-1.4,0.2-1.8,0.7
		c-0.4,0.5-0.7,1.2-0.7,2.1l0,0.7l0,0.7c0,0.9,0.3,1.6,0.7,2.1c0.4,0.5,1,0.7,1.8,0.7S95.5,124.8,96,124.4z"/>
	<path d="M101.4,123.1v-4.8H100c-0.1,0-0.2,0-0.3-0.1c-0.1-0.1-0.1-0.2-0.1-0.3v-0.6c0-0.1,0-0.2,0.1-0.3c0.1-0.1,0.2-0.1,0.3-0.1
		h1.4v-3c0-0.1,0-0.2,0.1-0.3c0.1-0.1,0.2-0.1,0.3-0.1h0.8c0.1,0,0.2,0,0.3,0.1c0.1,0.1,0.1,0.2,0.1,0.3v3h2.2c0.1,0,0.2,0,0.3,0.1
		c0.1,0.1,0.1,0.2,0.1,0.3v0.6c0,0.1,0,0.2-0.1,0.3c-0.1,0.1-0.2,0.1-0.3,0.1h-2.2v4.6c0,0.6,0.1,1.1,0.3,1.4c0.2,0.3,0.5,0.5,1,0.5
		h1.1c0.1,0,0.2,0,0.3,0.1s0.1,0.2,0.1,0.3v0.6c0,0.1,0,0.2-0.1,0.3c-0.1,0.1-0.2,0.1-0.3,0.1h-1.2
		C102.4,126.3,101.4,125.2,101.4,123.1z"/>
	<path d="M108.4,125.4c-0.7-0.7-1.1-1.7-1.2-3l0-0.8l0-0.8c0-1.2,0.4-2.2,1.2-3s1.8-1.1,3.1-1.1c1.3,0,2.3,0.4,3.1,1.1
		s1.1,1.7,1.2,3c0,0.1,0,0.4,0,0.8c0,0.4,0,0.6,0,0.8c0,1.2-0.4,2.2-1.2,3c-0.7,0.7-1.7,1.1-3.1,1.1
		C110.2,126.5,109.1,126.1,108.4,125.4z M113.3,124.4c0.4-0.5,0.7-1.2,0.7-2.1c0-0.1,0-0.3,0-0.7c0-0.3,0-0.6,0-0.7
		c0-0.9-0.3-1.6-0.7-2.1c-0.4-0.5-1-0.7-1.8-0.7s-1.4,0.2-1.8,0.7c-0.4,0.5-0.7,1.2-0.7,2.1l0,0.7l0,0.7c0,0.9,0.3,1.6,0.7,2.1
		c0.4,0.5,1,0.7,1.8,0.7S112.8,124.8,113.3,124.4z"/>
	<path d="M118.7,123.1v-4.8h-1.4c-0.1,0-0.2,0-0.3-0.1c-0.1-0.1-0.1-0.2-0.1-0.3v-0.6c0-0.1,0-0.2,0.1-0.3c0.1-0.1,0.2-0.1,0.3-0.1
		h1.4v-3c0-0.1,0-0.2,0.1-0.3c0.1-0.1,0.2-0.1,0.3-0.1h0.8c0.1,0,0.2,0,0.3,0.1c0.1,0.1,0.1,0.2,0.1,0.3v3h2.2c0.1,0,0.2,0,0.3,0.1
		c0.1,0.1,0.1,0.2,0.1,0.3v0.6c0,0.1,0,0.2-0.1,0.3c-0.1,0.1-0.2,0.1-0.3,0.1h-2.2v4.6c0,0.6,0.1,1.1,0.3,1.4c0.2,0.3,0.5,0.5,1,0.5
		h1.1c0.1,0,0.2,0,0.3,0.1c0.1,0.1,0.1,0.2,0.1,0.3v0.6c0,0.1,0,0.2-0.1,0.3c-0.1,0.1-0.2,0.1-0.3,0.1h-1.2
		C119.6,126.3,118.7,125.2,118.7,123.1z"/>
	<path d="M126.3,129.6c-0.1-0.1-0.1-0.2-0.1-0.3c0-0.1,0-0.2,0.1-0.3l1.4-3.3l-3.4-8.1c-0.1-0.2-0.1-0.3-0.1-0.3
		c0-0.1,0-0.2,0.1-0.3c0.1-0.1,0.2-0.1,0.3-0.1h0.9c0.2,0,0.3,0.1,0.4,0.3l2.7,6.6l2.8-6.6c0.1-0.2,0.2-0.3,0.5-0.3h0.8
		c0.1,0,0.2,0,0.3,0.1c0.1,0.1,0.1,0.2,0.1,0.3c0,0,0,0.1-0.1,0.3l-5.1,11.8c-0.1,0.2-0.2,0.3-0.4,0.3h-0.8
		C126.5,129.7,126.4,129.7,126.3,129.6z"/>
	<path d="M135,129.6c-0.1-0.1-0.1-0.2-0.1-0.3v-12c0-0.1,0-0.2,0.1-0.3c0.1-0.1,0.2-0.1,0.3-0.1h0.8c0.1,0,0.2,0,0.3,0.1
		c0.1,0.1,0.1,0.2,0.1,0.3v0.8c0.7-0.9,1.7-1.4,3-1.4c1.3,0,2.2,0.4,2.8,1.2s1,1.8,1,3.1c0,0.1,0,0.3,0,0.6c0,0.3,0,0.5,0,0.6
		c0,1.2-0.4,2.3-1,3.1c-0.6,0.8-1.6,1.2-2.8,1.2s-2.2-0.5-2.9-1.4v4.2c0,0.1,0,0.2-0.1,0.3c-0.1,0.1-0.2,0.1-0.3,0.1h-0.9
		C135.2,129.7,135.1,129.7,135,129.6z M141,124.2c0.4-0.5,0.6-1.2,0.6-2.1c0-0.1,0-0.3,0-0.5c0-2.3-0.8-3.4-2.5-3.4
		c-0.8,0-1.4,0.3-1.9,0.8c-0.4,0.5-0.6,1.2-0.7,2l0,0.7l0,0.7c0,0.7,0.3,1.3,0.7,1.9c0.4,0.5,1.1,0.8,1.9,0.8
		C140,125,140.6,124.7,141,124.2z"/>
	<path d="M146.4,125.3c-0.7-0.8-1.1-1.8-1.2-3.1l0-0.6l0-0.6c0.1-1.3,0.5-2.3,1.2-3.1c0.7-0.8,1.7-1.2,2.9-1.2
		c1.3,0,2.4,0.4,3.1,1.3c0.7,0.8,1.1,2,1.1,3.4v0.3c0,0.1,0,0.2-0.1,0.3s-0.2,0.1-0.3,0.1h-6.2v0.2c0,0.8,0.3,1.4,0.7,2
		c0.4,0.5,1,0.8,1.7,0.8c0.6,0,1-0.1,1.4-0.3c0.4-0.2,0.6-0.5,0.8-0.7c0.1-0.1,0.2-0.2,0.2-0.3c0.1,0,0.2,0,0.3,0h0.9
		c0.1,0,0.2,0,0.3,0.1c0.1,0.1,0.1,0.1,0.1,0.3c0,0.3-0.2,0.6-0.5,1c-0.3,0.4-0.8,0.7-1.4,1s-1.3,0.4-2,0.4
		C148.1,126.5,147.1,126.1,146.4,125.3z M151.8,120.9L151.8,120.9c0-0.9-0.2-1.6-0.7-2.1s-1.1-0.8-1.8-0.8c-0.8,0-1.4,0.3-1.8,0.8
		c-0.4,0.5-0.7,1.2-0.7,2v0.1H151.8z"/>
</g>
<g>
	<path d="M75.1,161.6c-0.1-0.1-0.1-0.2-0.1-0.3v-11.8c0-0.1,0-0.2,0.1-0.3c0.1-0.1,0.2-0.1,0.3-0.1h7.3c0.1,0,0.2,0,0.3,0.1
		c0.1,0.1,0.1,0.2,0.1,0.3v0.7c0,0.1,0,0.2-0.1,0.3c-0.1,0.1-0.2,0.1-0.3,0.1h-6v4.2h5.7c0.1,0,0.2,0,0.3,0.1
		c0.1,0.1,0.1,0.2,0.1,0.3v0.7c0,0.1,0,0.2-0.1,0.3c-0.1,0.1-0.2,0.1-0.3,0.1h-5.7v4.9c0,0.1,0,0.2-0.1,0.3
		c-0.1,0.1-0.2,0.1-0.3,0.1h-0.9C75.3,161.7,75.2,161.7,75.1,161.6z"/>
	<path d="M85.9,160.7c-0.7-0.8-1.1-1.8-1.2-3.1l0-0.6l0-0.6c0.1-1.3,0.5-2.3,1.2-3.1c0.7-0.8,1.7-1.2,2.9-1.2c1.3,0,2.4,0.4,3.1,1.3
		s1.1,2,1.1,3.4v0.3c0,0.1,0,0.2-0.1,0.3s-0.2,0.1-0.3,0.1h-6.2v0.2c0,0.8,0.3,1.4,0.7,2c0.4,0.5,1,0.8,1.7,0.8c0.6,0,1-0.1,1.4-0.3
		s0.6-0.5,0.8-0.7c0.1-0.1,0.2-0.2,0.2-0.3c0.1,0,0.2,0,0.3,0h0.9c0.1,0,0.2,0,0.3,0.1c0.1,0.1,0.1,0.1,0.1,0.3c0,0.3-0.2,0.6-0.5,1
		c-0.3,0.4-0.8,0.7-1.4,1c-0.6,0.3-1.3,0.4-2,0.4C87.6,161.9,86.6,161.5,85.9,160.7z M91.3,156.3L91.3,156.3c0-0.9-0.2-1.6-0.7-2.1
		c-0.5-0.5-1.1-0.8-1.8-0.8c-0.8,0-1.4,0.3-1.8,0.8c-0.4,0.5-0.7,1.2-0.7,2v0.1H91.3z"/>
	<path d="M96,160.7c-0.7-0.8-1.1-1.8-1.2-3.1l0-0.6l0-0.6c0.1-1.3,0.5-2.3,1.2-3.1c0.7-0.8,1.7-1.2,2.9-1.2c1.3,0,2.4,0.4,3.1,1.3
		s1.1,2,1.1,3.4v0.3c0,0.1,0,0.2-0.1,0.3s-0.2,0.1-0.3,0.1h-6.2v0.2c0,0.8,0.3,1.4,0.7,2c0.4,0.5,1,0.8,1.7,0.8c0.6,0,1-0.1,1.4-0.3
		s0.6-0.5,0.8-0.7c0.1-0.1,0.2-0.2,0.2-0.3c0.1,0,0.2,0,0.3,0h0.9c0.1,0,0.2,0,0.3,0.1c0.1,0.1,0.1,0.1,0.1,0.3c0,0.3-0.2,0.6-0.5,1
		c-0.3,0.4-0.8,0.7-1.4,1c-0.6,0.3-1.3,0.4-2,0.4C97.7,161.9,96.7,161.5,96,160.7z M101.4,156.3L101.4,156.3c0-0.9-0.2-1.6-0.7-2.1
		c-0.5-0.5-1.1-0.8-1.8-0.8c-0.8,0-1.4,0.3-1.8,0.8c-0.4,0.5-0.7,1.2-0.7,2v0.1H101.4z"/>
	<path d="M105.9,160.7c-0.6-0.8-1-1.8-1-3.1l0-0.5l0-0.5c0-1.2,0.4-2.3,1-3.1c0.6-0.8,1.6-1.2,2.8-1.2c1.2,0,2.2,0.4,2.9,1.3v-4.1
		c0-0.1,0-0.2,0.1-0.3c0.1-0.1,0.2-0.1,0.3-0.1h0.9c0.1,0,0.2,0,0.3,0.1c0.1,0.1,0.1,0.2,0.1,0.3v12c0,0.1,0,0.2-0.1,0.3
		c-0.1,0.1-0.2,0.1-0.3,0.1h-0.8c-0.1,0-0.2,0-0.3-0.1c-0.1-0.1-0.1-0.2-0.1-0.3v-0.8c-0.7,0.9-1.7,1.4-3,1.4
		C107.4,161.9,106.5,161.5,105.9,160.7z M110.9,159.6c0.4-0.5,0.6-1.2,0.7-2c0-0.1,0-0.4,0-0.7c0-0.3,0-0.6,0-0.7
		c0-0.7-0.3-1.3-0.7-1.9c-0.4-0.5-1.1-0.8-1.9-0.8c-0.9,0-1.5,0.3-1.9,0.8c-0.4,0.5-0.6,1.2-0.6,2.1l0,0.5c0,2.3,0.8,3.4,2.5,3.4
		C109.9,160.4,110.5,160.2,110.9,159.6z"/>
	<path d="M117.6,160.5v0.8c0,0.1,0,0.2-0.1,0.3c-0.1,0.1-0.2,0.1-0.3,0.1h-0.8c-0.1,0-0.2,0-0.3-0.1c-0.1-0.1-0.1-0.2-0.1-0.3v-12
		c0-0.1,0-0.2,0.1-0.3c0.1-0.1,0.2-0.1,0.3-0.1h0.9c0.1,0,0.2,0,0.3,0.1c0.1,0.1,0.1,0.2,0.1,0.3v4.1c0.7-0.9,1.7-1.3,2.9-1.3
		c1.2,0,2.2,0.4,2.8,1.2c0.6,0.8,1,1.9,1,3.1c0,0.1,0,0.3,0,0.5c0,0.2,0,0.4,0,0.5c0,1.2-0.4,2.3-1,3.1c-0.6,0.8-1.6,1.2-2.8,1.2
		C119.3,161.9,118.3,161.4,117.6,160.5z M122.1,159.6c0.4-0.5,0.6-1.2,0.6-2.1c0-0.1,0-0.3,0-0.5c0-2.3-0.8-3.4-2.5-3.4
		c-0.8,0-1.4,0.3-1.9,0.8c-0.4,0.5-0.7,1.1-0.7,1.9l0,0.7l0,0.7c0,0.8,0.3,1.4,0.7,2c0.4,0.5,1,0.8,1.9,0.8
		C121.1,160.4,121.7,160.2,122.1,159.6z"/>
	<path d="M127.7,161.5c-0.5-0.2-0.9-0.6-1.2-1c-0.3-0.4-0.4-0.9-0.4-1.4c0-0.8,0.3-1.4,1-2c0.7-0.5,1.5-0.8,2.7-1l2.7-0.4v-0.5
		c0-1.2-0.7-1.8-2.1-1.8c-0.5,0-1,0.1-1.3,0.3c-0.3,0.2-0.6,0.5-0.8,0.8c0,0.1-0.1,0.2-0.1,0.2c-0.1,0-0.1,0.1-0.2,0.1H127
		c-0.1,0-0.2,0-0.3-0.1s-0.1-0.2-0.1-0.3c0-0.3,0.1-0.6,0.4-1c0.3-0.4,0.7-0.7,1.2-1c0.5-0.3,1.2-0.4,2-0.4c1.3,0,2.3,0.3,2.9,0.9
		c0.6,0.6,0.9,1.4,0.9,2.3v5.8c0,0.1,0,0.2-0.1,0.3c-0.1,0.1-0.2,0.1-0.3,0.1h-0.8c-0.1,0-0.2,0-0.3-0.1c-0.1-0.1-0.1-0.2-0.1-0.3
		v-0.8c-0.3,0.4-0.6,0.7-1.2,1c-0.5,0.3-1.1,0.4-1.9,0.4C128.7,161.9,128.2,161.8,127.7,161.5z M131.6,159.8
		c0.5-0.5,0.7-1.2,0.7-2.2v-0.5l-2.1,0.3c-0.9,0.1-1.5,0.3-1.9,0.6c-0.4,0.3-0.6,0.6-0.6,1.1c0,0.5,0.2,0.8,0.6,1.1
		c0.4,0.3,0.9,0.4,1.4,0.4C130.4,160.5,131.1,160.3,131.6,159.8z"/>
	<path d="M137.4,160.8c-0.7-0.7-1.1-1.7-1.2-3.1l0-0.7l0-0.7c0-1.3,0.4-2.3,1.2-3.1c0.7-0.7,1.7-1.1,3-1.1c0.9,0,1.6,0.2,2.2,0.5
		c0.6,0.3,1,0.7,1.3,1.2c0.3,0.5,0.5,0.9,0.5,1.4c0,0.1,0,0.2-0.1,0.3c-0.1,0.1-0.2,0.1-0.3,0.1h-0.9c-0.1,0-0.2,0-0.3-0.1
		c-0.1,0-0.1-0.1-0.2-0.3c-0.2-0.6-0.5-1-0.9-1.2c-0.4-0.2-0.8-0.4-1.4-0.4c-0.7,0-1.3,0.2-1.8,0.7c-0.4,0.5-0.7,1.2-0.7,2.1l0,0.6
		l0,0.6c0,1,0.3,1.7,0.7,2.1c0.4,0.5,1,0.7,1.8,0.7c0.6,0,1-0.1,1.4-0.4s0.7-0.7,0.9-1.2c0.1-0.1,0.1-0.2,0.2-0.3
		c0.1-0.1,0.1-0.1,0.3-0.1h0.9c0.1,0,0.2,0,0.3,0.1s0.1,0.2,0.1,0.3c0,0.4-0.2,0.9-0.5,1.4c-0.3,0.5-0.7,0.8-1.3,1.2
		c-0.6,0.3-1.3,0.5-2.2,0.5C139.1,161.9,138.1,161.5,137.4,160.8z"/>
	<path d="M146.7,161.6c-0.1-0.1-0.1-0.2-0.1-0.3v-12c0-0.1,0-0.2,0.1-0.3c0.1-0.1,0.2-0.1,0.3-0.1h0.8c0.1,0,0.2,0,0.3,0.1
		c0.1,0.1,0.1,0.2,0.1,0.3v6.3l3.5-3c0,0,0.1-0.1,0.2-0.1c0.1-0.1,0.2-0.1,0.2-0.1c0.1,0,0.2,0,0.3,0h1c0.1,0,0.2,0,0.3,0.1
		c0.1,0.1,0.1,0.2,0.1,0.3c0,0.1-0.1,0.2-0.2,0.3l-4.2,3.5l4.6,4.5c0.1,0.1,0.2,0.2,0.2,0.3c0,0.1,0,0.2-0.1,0.3
		c-0.1,0.1-0.2,0.1-0.3,0.1H153c-0.2,0-0.3,0-0.4-0.1c-0.1,0-0.2-0.1-0.3-0.3l-4-3.8v3.7c0,0.1,0,0.2-0.1,0.3
		c-0.1,0.1-0.2,0.1-0.3,0.1H147C146.9,161.7,146.8,161.7,146.7,161.6z"/>
</g>
<g>
	<path d="M59.6,197c-0.1-0.1-0.1-0.2-0.1-0.3v-11.8c0-0.1,0-0.2,0.1-0.3c0.1-0.1,0.2-0.1,0.3-0.1h4.4c1.4,0,2.5,0.3,3.2,1
		c0.8,0.6,1.2,1.6,1.2,2.8c0,0.9-0.2,1.7-0.7,2.2c-0.4,0.6-1.1,1-1.9,1.2l2.8,4.8c0,0.1,0.1,0.1,0.1,0.2c0,0.1,0,0.2-0.1,0.3
		c-0.1,0.1-0.2,0.1-0.3,0.1h-0.9c-0.2,0-0.3,0-0.4-0.1c-0.1-0.1-0.2-0.2-0.3-0.4l-2.6-4.6h-3.1v4.6c0,0.1,0,0.2-0.1,0.3
		c-0.1,0.1-0.2,0.1-0.3,0.1h-0.9C59.7,197.1,59.6,197.1,59.6,197z M64.2,190.5c1.8,0,2.7-0.8,2.7-2.2S66,186,64.2,186h-3v4.5H64.2z"
		/>
	<path d="M71.7,196.2c-0.7-0.8-1.1-1.8-1.2-3.1l0-0.6l0-0.6c0.1-1.3,0.5-2.3,1.2-3.1c0.7-0.8,1.7-1.2,2.9-1.2c1.3,0,2.4,0.4,3.1,1.3
		s1.1,2,1.1,3.4v0.3c0,0.1,0,0.2-0.1,0.3s-0.2,0.1-0.3,0.1h-6.2v0.2c0,0.8,0.3,1.4,0.7,2c0.4,0.5,1,0.8,1.7,0.8c0.6,0,1-0.1,1.4-0.3
		s0.6-0.5,0.8-0.7c0.1-0.1,0.2-0.2,0.2-0.3c0.1,0,0.2,0,0.3,0h0.9c0.1,0,0.2,0,0.3,0.1c0.1,0.1,0.1,0.1,0.1,0.3c0,0.3-0.2,0.6-0.5,1
		c-0.3,0.4-0.8,0.7-1.4,1c-0.6,0.3-1.3,0.4-2,0.4C73.4,197.3,72.4,196.9,71.7,196.2z M77.1,191.8L77.1,191.8c0-0.9-0.2-1.6-0.7-2.1
		c-0.5-0.5-1.1-0.8-1.8-0.8c-0.8,0-1.4,0.3-1.8,0.8c-0.4,0.5-0.7,1.2-0.7,2v0.1H77.1z"/>
	<path d="M81.9,197c-0.1-0.1-0.1-0.2-0.1-0.3v-7.5h-1.5c-0.1,0-0.2,0-0.3-0.1c-0.1-0.1-0.1-0.2-0.1-0.3v-0.6c0-0.1,0-0.2,0.1-0.3
		c0.1-0.1,0.2-0.1,0.3-0.1h1.5v-0.9c0-2,1-3.1,3.1-3.1h2.8c0.1,0,0.2,0,0.3,0.1c0.1,0.1,0.1,0.2,0.1,0.3v0.6c0,0.1,0,0.2-0.1,0.3
		c-0.1,0.1-0.2,0.1-0.3,0.1H85c-0.5,0-0.9,0.1-1.1,0.4c-0.2,0.3-0.3,0.7-0.3,1.3v0.8h4.2c0.1,0,0.2,0,0.3,0.1
		c0.1,0.1,0.1,0.2,0.1,0.3v8.5c0,0.1,0,0.2-0.1,0.3c-0.1,0.1-0.2,0.1-0.3,0.1h-0.8c-0.1,0-0.2,0-0.3-0.1c-0.1-0.1-0.1-0.2-0.1-0.3
		v-7.5h-3v7.5c0,0.1,0,0.2-0.1,0.3c-0.1,0.1-0.2,0.1-0.3,0.1h-0.8C82.1,197.1,82,197.1,81.9,197z"/>
	<path d="M90.9,197c-0.1-0.1-0.1-0.2-0.1-0.3v-8.5c0-0.1,0-0.2,0.1-0.3c0.1-0.1,0.2-0.1,0.3-0.1H92c0.1,0,0.2,0,0.3,0.1
		c0.1,0.1,0.1,0.2,0.1,0.3v0.8c0.3-0.4,0.8-0.8,1.2-1c0.5-0.2,1.1-0.4,1.8-0.4c1.2,0,2,0.4,2.7,1.1c0.6,0.7,1,1.7,1,2.9v5.1
		c0,0.1,0,0.2-0.1,0.3c-0.1,0.1-0.2,0.1-0.3,0.1h-0.9c-0.1,0-0.2,0-0.3-0.1c-0.1-0.1-0.1-0.2-0.1-0.3v-5c0-0.9-0.2-1.5-0.6-2
		c-0.4-0.5-1-0.7-1.8-0.7c-0.8,0-1.4,0.2-1.8,0.7c-0.4,0.5-0.7,1.1-0.7,2v5c0,0.1,0,0.2-0.1,0.3c-0.1,0.1-0.2,0.1-0.3,0.1h-0.9
		C91.1,197.1,91,197.1,90.9,197z"/>
	<path d="M102.5,196.2c-0.7-0.8-1.1-1.8-1.2-3.1l0-0.6l0-0.6c0.1-1.3,0.5-2.3,1.2-3.1c0.7-0.8,1.7-1.2,2.9-1.2
		c1.3,0,2.4,0.4,3.1,1.3s1.1,2,1.1,3.4v0.3c0,0.1,0,0.2-0.1,0.3s-0.2,0.1-0.3,0.1H103v0.2c0,0.8,0.3,1.4,0.7,2
		c0.4,0.5,1,0.8,1.7,0.8c0.6,0,1-0.1,1.4-0.3s0.6-0.5,0.8-0.7c0.1-0.1,0.2-0.2,0.2-0.3c0.1,0,0.2,0,0.3,0h0.9c0.1,0,0.2,0,0.3,0.1
		c0.1,0.1,0.1,0.1,0.1,0.3c0,0.3-0.2,0.6-0.5,1c-0.3,0.4-0.8,0.7-1.4,1c-0.6,0.3-1.3,0.4-2,0.4C104.2,197.3,103.2,196.9,102.5,196.2
		z M107.9,191.8L107.9,191.8c0-0.9-0.2-1.6-0.7-2.1c-0.5-0.5-1.1-0.8-1.8-0.8c-0.8,0-1.4,0.3-1.8,0.8c-0.4,0.5-0.7,1.2-0.7,2v0.1
		H107.9z"/>
	<path d="M111.9,197c-0.1-0.1-0.1-0.2-0.1-0.3v-8.5c0-0.1,0-0.2,0.1-0.3c0.1-0.1,0.2-0.1,0.3-0.1h0.8c0.1,0,0.2,0,0.3,0.1
		c0.1,0.1,0.1,0.2,0.1,0.3v0.6c0.6-0.8,1.5-1.2,2.6-1.2c1.3,0,2.3,0.6,2.8,1.7c0.3-0.5,0.7-0.9,1.2-1.2s1.1-0.5,1.8-0.5
		c1,0,1.8,0.3,2.4,1c0.6,0.7,0.9,1.6,0.9,2.9v5.2c0,0.1,0,0.2-0.1,0.3c-0.1,0.1-0.2,0.1-0.3,0.1h-0.8c-0.1,0-0.2,0-0.3-0.1
		c-0.1-0.1-0.1-0.2-0.1-0.3v-5c0-0.9-0.2-1.6-0.6-2c-0.4-0.4-0.9-0.6-1.5-0.6c-0.6,0-1.1,0.2-1.5,0.6c-0.4,0.4-0.6,1.1-0.6,2v5
		c0,0.1,0,0.2-0.1,0.3c-0.1,0.1-0.2,0.1-0.3,0.1h-0.8c-0.1,0-0.2,0-0.3-0.1c-0.1-0.1-0.1-0.2-0.1-0.3v-5c0-0.9-0.2-1.6-0.6-2
		c-0.4-0.4-0.9-0.6-1.5-0.6c-0.6,0-1.1,0.2-1.5,0.6c-0.4,0.4-0.6,1.1-0.6,2v5.1c0,0.1,0,0.2-0.1,0.3c-0.1,0.1-0.2,0.1-0.3,0.1h-0.9
		C112.1,197.1,112,197.1,111.9,197z"/>
	<path d="M128.5,196.2c-0.7-0.8-1.1-1.8-1.2-3.1l0-0.6l0-0.6c0.1-1.3,0.5-2.3,1.2-3.1c0.7-0.8,1.7-1.2,2.9-1.2
		c1.3,0,2.4,0.4,3.1,1.3c0.7,0.8,1.1,2,1.1,3.4v0.3c0,0.1,0,0.2-0.1,0.3s-0.2,0.1-0.3,0.1H129v0.2c0,0.8,0.3,1.4,0.7,2
		c0.4,0.5,1,0.8,1.7,0.8c0.6,0,1-0.1,1.4-0.3c0.4-0.2,0.6-0.5,0.8-0.7c0.1-0.1,0.2-0.2,0.2-0.3c0.1,0,0.2,0,0.3,0h0.9
		c0.1,0,0.2,0,0.3,0.1c0.1,0.1,0.1,0.1,0.1,0.3c0,0.3-0.2,0.6-0.5,1c-0.3,0.4-0.8,0.7-1.4,1s-1.3,0.4-2,0.4
		C130.3,197.3,129.3,196.9,128.5,196.2z M134,191.8L134,191.8c0-0.9-0.2-1.6-0.7-2.1s-1.1-0.8-1.8-0.8c-0.8,0-1.4,0.3-1.8,0.8
		c-0.4,0.5-0.7,1.2-0.7,2v0.1H134z"/>
	<path d="M138,197c-0.1-0.1-0.1-0.2-0.1-0.3v-8.5c0-0.1,0-0.2,0.1-0.3c0.1-0.1,0.2-0.1,0.3-0.1h0.8c0.1,0,0.2,0,0.3,0.1
		c0.1,0.1,0.1,0.2,0.1,0.3v0.8c0.3-0.4,0.8-0.8,1.2-1c0.5-0.2,1.1-0.4,1.8-0.4c1.2,0,2,0.4,2.7,1.1c0.6,0.7,1,1.7,1,2.9v5.1
		c0,0.1,0,0.2-0.1,0.3c-0.1,0.1-0.2,0.1-0.3,0.1h-0.9c-0.1,0-0.2,0-0.3-0.1c-0.1-0.1-0.1-0.2-0.1-0.3v-5c0-0.9-0.2-1.5-0.6-2
		c-0.4-0.5-1-0.7-1.8-0.7c-0.8,0-1.4,0.2-1.8,0.7c-0.4,0.5-0.7,1.1-0.7,2v5c0,0.1,0,0.2-0.1,0.3c-0.1,0.1-0.2,0.1-0.3,0.1h-0.9
		C138.1,197.1,138,197.1,138,197z"/>
	<path d="M149.4,193.9v-4.8H148c-0.1,0-0.2,0-0.3-0.1c-0.1-0.1-0.1-0.2-0.1-0.3v-0.6c0-0.1,0-0.2,0.1-0.3c0.1-0.1,0.2-0.1,0.3-0.1
		h1.4v-3c0-0.1,0-0.2,0.1-0.3c0.1-0.1,0.2-0.1,0.3-0.1h0.8c0.1,0,0.2,0,0.3,0.1c0.1,0.1,0.1,0.2,0.1,0.3v3h2.2c0.1,0,0.2,0,0.3,0.1
		c0.1,0.1,0.1,0.2,0.1,0.3v0.6c0,0.1,0,0.2-0.1,0.3c-0.1,0.1-0.2,0.1-0.3,0.1h-2.2v4.6c0,0.6,0.1,1.1,0.3,1.4s0.5,0.5,1,0.5h1.1
		c0.1,0,0.2,0,0.3,0.1c0.1,0.1,0.1,0.2,0.1,0.3v0.6c0,0.1,0,0.2-0.1,0.3c-0.1,0.1-0.2,0.1-0.3,0.1h-1.2
		C150.4,197.1,149.4,196.1,149.4,193.9z"/>
</g>
<g>
	<path d="M53.8,232.4c-0.1-0.1-0.1-0.2-0.1-0.3v-11.8c0-0.1,0-0.2,0.1-0.3c0.1-0.1,0.2-0.1,0.3-0.1h7.3c0.1,0,0.2,0,0.3,0.1
		c0.1,0.1,0.1,0.2,0.1,0.3v0.7c0,0.1,0,0.2-0.1,0.3c-0.1,0.1-0.2,0.1-0.3,0.1h-6v4.2h5.7c0.1,0,0.2,0,0.3,0.1s0.1,0.2,0.1,0.3v0.7
		c0,0.1,0,0.2-0.1,0.3s-0.2,0.1-0.3,0.1h-5.7v4.9c0,0.1,0,0.2-0.1,0.3c-0.1,0.1-0.2,0.1-0.3,0.1h-0.9
		C54,232.5,53.9,232.5,53.8,232.4z"/>
	<path d="M64,221.3c-0.1-0.1-0.1-0.2-0.1-0.3v-1c0-0.1,0-0.2,0.1-0.3c0.1-0.1,0.2-0.1,0.3-0.1h1.1c0.1,0,0.2,0,0.3,0.1
		s0.1,0.2,0.1,0.3v1c0,0.1,0,0.2-0.1,0.3s-0.2,0.1-0.3,0.1h-1.1C64.2,221.4,64.1,221.4,64,221.3z M64.1,232.4
		c-0.1-0.1-0.1-0.2-0.1-0.3v-8.5c0-0.1,0-0.2,0.1-0.3c0.1-0.1,0.2-0.1,0.3-0.1h0.9c0.1,0,0.2,0,0.3,0.1c0.1,0.1,0.1,0.2,0.1,0.3v8.5
		c0,0.1,0,0.2-0.1,0.3c-0.1,0.1-0.2,0.1-0.3,0.1h-0.9C64.3,232.5,64.2,232.5,64.1,232.4z"/>
	<path d="M68.5,232.4c-0.1-0.1-0.1-0.2-0.1-0.3v-8.5c0-0.1,0-0.2,0.1-0.3c0.1-0.1,0.2-0.1,0.3-0.1h0.8c0.1,0,0.2,0,0.3,0.1
		c0.1,0.1,0.1,0.2,0.1,0.3v0.8c0.3-0.4,0.8-0.8,1.2-1s1.1-0.4,1.8-0.4c1.2,0,2,0.4,2.7,1.1c0.6,0.7,1,1.7,1,2.9v5.1
		c0,0.1,0,0.2-0.1,0.3c-0.1,0.1-0.2,0.1-0.3,0.1h-0.9c-0.1,0-0.2,0-0.3-0.1c-0.1-0.1-0.1-0.2-0.1-0.3v-5c0-0.9-0.2-1.5-0.6-2
		s-1-0.7-1.8-0.7c-0.8,0-1.4,0.2-1.8,0.7c-0.4,0.5-0.7,1.1-0.7,2v5c0,0.1,0,0.2-0.1,0.3c-0.1,0.1-0.2,0.1-0.3,0.1h-0.9
		C68.7,232.5,68.6,232.5,68.5,232.4z"/>
	<path d="M80.2,232.4c-0.5-0.2-0.9-0.6-1.2-1s-0.4-0.9-0.4-1.4c0-0.8,0.3-1.4,1-2c0.7-0.5,1.5-0.8,2.7-1l2.7-0.4v-0.5
		c0-1.2-0.7-1.8-2.1-1.8c-0.5,0-1,0.1-1.3,0.3s-0.6,0.5-0.8,0.8c0,0.1-0.1,0.2-0.1,0.2c-0.1,0-0.1,0.1-0.2,0.1h-0.8
		c-0.1,0-0.2,0-0.3-0.1c-0.1-0.1-0.1-0.2-0.1-0.3c0-0.3,0.1-0.6,0.4-1c0.3-0.4,0.7-0.7,1.2-1s1.2-0.4,2-0.4c1.3,0,2.3,0.3,2.9,0.9
		s0.9,1.4,0.9,2.3v5.8c0,0.1,0,0.2-0.1,0.3c-0.1,0.1-0.2,0.1-0.3,0.1h-0.8c-0.1,0-0.2,0-0.3-0.1c-0.1-0.1-0.1-0.2-0.1-0.3v-0.8
		c-0.3,0.4-0.6,0.7-1.2,1c-0.5,0.3-1.1,0.4-1.9,0.4C81.3,232.7,80.7,232.6,80.2,232.4z M84.2,230.6c0.5-0.5,0.7-1.2,0.7-2.2v-0.5
		l-2.1,0.3c-0.9,0.1-1.5,0.3-1.9,0.6c-0.4,0.3-0.6,0.6-0.6,1.1c0,0.5,0.2,0.8,0.6,1.1s0.9,0.4,1.4,0.4
		C83,231.4,83.7,231.1,84.2,230.6z"/>
	<path d="M89.3,232.4c-0.1-0.1-0.1-0.2-0.1-0.3v-12c0-0.1,0-0.2,0.1-0.3c0.1-0.1,0.2-0.1,0.3-0.1h0.8c0.1,0,0.2,0,0.3,0.1
		c0.1,0.1,0.1,0.2,0.1,0.3v12c0,0.1,0,0.2-0.1,0.3c-0.1,0.1-0.2,0.1-0.3,0.1h-0.8C89.5,232.5,89.4,232.5,89.3,232.4z"/>
	<path d="M98.3,232.4c-0.1-0.1-0.1-0.2-0.1-0.3v-11.8c0-0.1,0-0.2,0.1-0.3c0.1-0.1,0.2-0.1,0.3-0.1h4.1c1.8,0,3.1,0.4,3.9,1.2
		c0.8,0.8,1.2,2,1.3,3.7c0,0.3,0,0.8,0,1.4s0,1.1,0,1.4c0,1.1-0.2,2.1-0.6,2.8c-0.3,0.7-0.9,1.2-1.6,1.6c-0.7,0.3-1.7,0.5-2.9,0.5
		h-4.2C98.5,232.5,98.4,232.5,98.3,232.4z M102.7,231c0.8,0,1.5-0.1,2-0.3c0.5-0.2,0.8-0.6,1.1-1.1c0.2-0.5,0.3-1.2,0.4-2
		c0-0.7,0-1.2,0-1.3c0-0.2,0-0.6,0-1.3c0-1.2-0.3-2.1-0.8-2.6c-0.5-0.5-1.4-0.8-2.6-0.8H100v9.5H102.7z"/>
	<path d="M111.2,231.6c-0.7-0.8-1.1-1.8-1.2-3.1l0-0.6l0-0.6c0.1-1.3,0.5-2.3,1.2-3.1c0.7-0.8,1.7-1.2,2.9-1.2
		c1.3,0,2.4,0.4,3.1,1.3c0.7,0.8,1.1,2,1.1,3.4v0.3c0,0.1,0,0.2-0.1,0.3s-0.2,0.1-0.3,0.1h-6.2v0.2c0,0.8,0.3,1.4,0.7,2
		s1,0.8,1.7,0.8c0.6,0,1-0.1,1.4-0.3c0.4-0.2,0.6-0.5,0.8-0.7c0.1-0.1,0.2-0.2,0.2-0.3c0.1,0,0.2,0,0.3,0h0.9c0.1,0,0.2,0,0.3,0.1
		c0.1,0.1,0.1,0.1,0.1,0.3c0,0.3-0.2,0.6-0.5,1s-0.8,0.7-1.4,1c-0.6,0.3-1.3,0.4-2,0.4C112.9,232.7,111.9,232.3,111.2,231.6z
		 M116.6,227.2L116.6,227.2c0-0.9-0.2-1.6-0.7-2.1c-0.5-0.5-1.1-0.8-1.8-0.8c-0.8,0-1.4,0.3-1.8,0.8c-0.4,0.5-0.7,1.2-0.7,2v0.1
		H116.6z"/>
	<path d="M121.6,232.3c-0.6-0.3-1-0.6-1.3-0.9c-0.3-0.3-0.4-0.6-0.4-0.9c0-0.1,0-0.2,0.1-0.3c0.1-0.1,0.2-0.1,0.3-0.1h0.8
		c0.1,0,0.2,0.1,0.3,0.2c0.3,0.3,0.6,0.6,0.9,0.8c0.3,0.2,0.8,0.3,1.3,0.3c0.6,0,1.1-0.1,1.5-0.4c0.4-0.2,0.6-0.6,0.6-1
		c0-0.3-0.1-0.5-0.2-0.7c-0.2-0.2-0.4-0.3-0.8-0.5c-0.4-0.1-1-0.3-1.7-0.5c-1-0.2-1.8-0.6-2.2-1c-0.4-0.4-0.7-1-0.7-1.7
		c0-0.5,0.1-0.9,0.4-1.3s0.7-0.8,1.2-1c0.5-0.3,1.2-0.4,1.9-0.4c0.8,0,1.4,0.1,2,0.4c0.5,0.3,0.9,0.5,1.2,0.9s0.4,0.6,0.4,0.9
		c0,0.1,0,0.2-0.1,0.3c-0.1,0.1-0.2,0.1-0.3,0.1h-0.8c-0.1,0-0.3-0.1-0.4-0.2c-0.2-0.2-0.4-0.4-0.5-0.5c-0.1-0.1-0.3-0.2-0.6-0.3
		c-0.3-0.1-0.6-0.1-1-0.1c-0.6,0-1,0.1-1.3,0.4c-0.3,0.2-0.5,0.6-0.5,1c0,0.3,0.1,0.5,0.2,0.6c0.1,0.2,0.4,0.3,0.8,0.5
		c0.4,0.1,0.9,0.3,1.6,0.4c1.1,0.2,1.9,0.6,2.4,1c0.5,0.5,0.7,1,0.7,1.7c0,0.5-0.2,1-0.5,1.4c-0.3,0.4-0.7,0.8-1.3,1
		s-1.3,0.4-2.1,0.4C122.9,232.7,122.2,232.6,121.6,232.3z"/>
	<path d="M129.6,221.3c-0.1-0.1-0.1-0.2-0.1-0.3v-1c0-0.1,0-0.2,0.1-0.3s0.2-0.1,0.3-0.1h1.1c0.1,0,0.2,0,0.3,0.1s0.1,0.2,0.1,0.3v1
		c0,0.1,0,0.2-0.1,0.3s-0.2,0.1-0.3,0.1h-1.1C129.8,221.4,129.7,221.4,129.6,221.3z M129.8,232.4c-0.1-0.1-0.1-0.2-0.1-0.3v-8.5
		c0-0.1,0-0.2,0.1-0.3c0.1-0.1,0.2-0.1,0.3-0.1h0.9c0.1,0,0.2,0,0.3,0.1c0.1,0.1,0.1,0.2,0.1,0.3v8.5c0,0.1,0,0.2-0.1,0.3
		c-0.1,0.1-0.2,0.1-0.3,0.1h-0.9C129.9,232.5,129.8,232.5,129.8,232.4z"/>
	<path d="M135.5,236c-0.6-0.3-1-0.7-1.3-1.1s-0.4-0.8-0.4-1.1c0-0.1,0-0.2,0.1-0.3s0.2-0.1,0.3-0.1h0.9c0.1,0,0.2,0,0.3,0.1
		c0.1,0.1,0.1,0.2,0.2,0.3c0.1,0.4,0.4,0.7,0.7,1c0.3,0.3,0.8,0.4,1.5,0.4c0.9,0,1.5-0.2,2-0.6s0.6-1,0.6-2v-1.2
		c-0.3,0.4-0.7,0.7-1.2,0.9c-0.5,0.2-1.1,0.4-1.7,0.4c-1.3,0-2.2-0.4-2.9-1.2c-0.6-0.8-1-1.8-1-3.1l0-0.5l0-0.5c0-1.2,0.4-2.3,1-3.1
		s1.6-1.2,2.8-1.2c1.3,0,2.2,0.5,3,1.4v-0.8c0-0.1,0-0.2,0.1-0.3s0.2-0.1,0.3-0.1h0.8c0.1,0,0.2,0,0.3,0.1s0.1,0.2,0.1,0.3v8.7
		c0,2.8-1.4,4.2-4.2,4.2C136.9,236.5,136.1,236.3,135.5,236z M139.7,230.4c0.4-0.5,0.6-1.2,0.7-1.9c0-0.1,0-0.3,0-0.6
		c0-0.3,0-0.5,0-0.6c0-0.7-0.3-1.4-0.7-1.9s-1-0.8-1.9-0.8c-0.9,0-1.5,0.3-1.9,0.8c-0.4,0.5-0.6,1.2-0.6,2.1l0,0.5l0,0.5
		c0,0.9,0.2,1.5,0.6,2.1c0.4,0.5,1,0.8,1.9,0.8C138.6,231.2,139.2,230.9,139.7,230.4z"/>
	<path d="M144.9,232.4c-0.1-0.1-0.1-0.2-0.1-0.3v-8.5c0-0.1,0-0.2,0.1-0.3c0.1-0.1,0.2-0.1,0.3-0.1h0.8c0.1,0,0.2,0,0.3,0.1
		c0.1,0.1,0.1,0.2,0.1,0.3v0.8c0.3-0.4,0.8-0.8,1.2-1c0.5-0.2,1.1-0.4,1.8-0.4c1.2,0,2,0.4,2.7,1.1c0.6,0.7,1,1.7,1,2.9v5.1
		c0,0.1,0,0.2-0.1,0.3c-0.1,0.1-0.2,0.1-0.3,0.1h-0.9c-0.1,0-0.2,0-0.3-0.1c-0.1-0.1-0.1-0.2-0.1-0.3v-5c0-0.9-0.2-1.5-0.6-2
		s-1-0.7-1.8-0.7c-0.8,0-1.4,0.2-1.8,0.7c-0.4,0.5-0.7,1.1-0.7,2v5c0,0.1,0,0.2-0.1,0.3c-0.1,0.1-0.2,0.1-0.3,0.1h-0.9
		C145,232.5,144.9,232.5,144.9,232.4z"/>
</g>
<g>
	<path d="M81.4,267.8c-0.1-0.1-0.1-0.2-0.1-0.3v-11.8c0-0.1,0-0.2,0.1-0.3c0.1-0.1,0.2-0.1,0.3-0.1h0.9c0.2,0,0.3,0.1,0.5,0.3
		l3.8,7.3l3.8-7.3c0-0.1,0.1-0.1,0.2-0.2c0.1-0.1,0.2-0.1,0.3-0.1h0.9c0.1,0,0.2,0,0.3,0.1s0.1,0.2,0.1,0.3v11.8
		c0,0.1,0,0.2-0.1,0.3c-0.1,0.1-0.2,0.1-0.3,0.1h-0.9c-0.1,0-0.2,0-0.3-0.1s-0.1-0.2-0.1-0.3v-8.9l-3,5.9c-0.1,0.3-0.3,0.4-0.6,0.4
		h-0.6c-0.3,0-0.5-0.1-0.6-0.4l-3-5.9v8.9c0,0.1,0,0.2-0.1,0.3c-0.1,0.1-0.2,0.1-0.3,0.1h-0.9C81.6,267.9,81.5,267.9,81.4,267.8z"/>
	<path d="M96.1,267c-0.7-0.7-1.1-1.7-1.2-3l0-0.8l0-0.8c0-1.2,0.4-2.2,1.2-3s1.8-1.1,3.1-1.1c1.3,0,2.3,0.4,3.1,1.1s1.1,1.7,1.2,3
		c0,0.1,0,0.4,0,0.8c0,0.4,0,0.6,0,0.8c0,1.2-0.4,2.2-1.2,3c-0.7,0.7-1.7,1.1-3.1,1.1C97.9,268.1,96.9,267.8,96.1,267z M101,266
		c0.4-0.5,0.7-1.2,0.7-2.1c0-0.1,0-0.3,0-0.7c0-0.3,0-0.6,0-0.7c0-0.9-0.3-1.6-0.7-2.1c-0.4-0.5-1-0.7-1.8-0.7s-1.4,0.2-1.8,0.7
		c-0.4,0.5-0.7,1.2-0.7,2.1l0,0.7l0,0.7c0,0.9,0.3,1.6,0.7,2.1c0.4,0.5,1,0.7,1.8,0.7S100.6,266.5,101,266z"/>
	<path d="M106.5,267c-0.7-0.7-1.1-1.7-1.2-3.1l0-0.7l0-0.7c0-1.3,0.4-2.3,1.2-3.1c0.7-0.7,1.7-1.1,3-1.1c0.9,0,1.6,0.2,2.2,0.5
		c0.6,0.3,1,0.7,1.3,1.2s0.5,0.9,0.5,1.4c0,0.1,0,0.2-0.1,0.3c-0.1,0.1-0.2,0.1-0.3,0.1h-0.9c-0.1,0-0.2,0-0.3-0.1
		c-0.1,0-0.1-0.1-0.2-0.3c-0.2-0.6-0.5-1-0.9-1.2c-0.4-0.2-0.8-0.4-1.4-0.4c-0.7,0-1.3,0.2-1.8,0.7s-0.7,1.2-0.7,2.1l0,0.6l0,0.6
		c0,1,0.3,1.7,0.7,2.1c0.4,0.5,1,0.7,1.8,0.7c0.6,0,1-0.1,1.4-0.4c0.4-0.2,0.7-0.7,0.9-1.2c0.1-0.1,0.1-0.2,0.2-0.3
		c0.1-0.1,0.1-0.1,0.3-0.1h0.9c0.1,0,0.2,0,0.3,0.1s0.1,0.2,0.1,0.3c0,0.4-0.2,0.9-0.5,1.4s-0.7,0.8-1.3,1.2
		c-0.6,0.3-1.3,0.5-2.2,0.5C108.2,268.1,107.2,267.8,106.5,267z"/>
	<path d="M115.8,267.8c-0.1-0.1-0.1-0.2-0.1-0.3v-12c0-0.1,0-0.2,0.1-0.3s0.2-0.1,0.3-0.1h0.8c0.1,0,0.2,0,0.3,0.1
		c0.1,0.1,0.1,0.2,0.1,0.3v6.3l3.5-3c0,0,0.1-0.1,0.2-0.1c0.1-0.1,0.2-0.1,0.2-0.1s0.2,0,0.3,0h1c0.1,0,0.2,0,0.3,0.1
		c0.1,0.1,0.1,0.2,0.1,0.3c0,0.1-0.1,0.2-0.2,0.3l-4.2,3.5l4.6,4.5c0.1,0.1,0.2,0.2,0.2,0.3c0,0.1,0,0.2-0.1,0.3s-0.2,0.1-0.3,0.1
		h-0.9c-0.2,0-0.3,0-0.4-0.1c-0.1,0-0.2-0.1-0.3-0.3l-4-3.8v3.7c0,0.1,0,0.2-0.1,0.3c-0.1,0.1-0.2,0.1-0.3,0.1h-0.8
		C116,267.9,115.9,267.9,115.8,267.8z"/>
	<path d="M125.8,267c-0.6-0.7-0.9-1.7-0.9-2.9V259c0-0.1,0-0.2,0.1-0.3c0.1-0.1,0.2-0.1,0.3-0.1h0.9c0.1,0,0.2,0,0.3,0.1
		s0.1,0.2,0.1,0.3v5c0,1.8,0.8,2.7,2.3,2.7c0.8,0,1.4-0.2,1.8-0.7c0.4-0.5,0.7-1.1,0.7-2v-5c0-0.1,0-0.2,0.1-0.3s0.2-0.1,0.3-0.1
		h0.9c0.1,0,0.2,0,0.3,0.1s0.1,0.2,0.1,0.3v8.5c0,0.1,0,0.2-0.1,0.3s-0.2,0.1-0.3,0.1h-0.8c-0.1,0-0.2,0-0.3-0.1s-0.1-0.2-0.1-0.3
		v-0.8c-0.3,0.5-0.7,0.8-1.2,1c-0.5,0.2-1.1,0.4-1.8,0.4C127.3,268.1,126.4,267.8,125.8,267z"/>
	<path d="M135.9,271.3c-0.1-0.1-0.1-0.2-0.1-0.3v-12c0-0.1,0-0.2,0.1-0.3s0.2-0.1,0.3-0.1h0.8c0.1,0,0.2,0,0.3,0.1s0.1,0.2,0.1,0.3
		v0.8c0.7-0.9,1.7-1.4,3-1.4c1.3,0,2.2,0.4,2.8,1.2s1,1.8,1,3.1c0,0.1,0,0.3,0,0.6c0,0.3,0,0.5,0,0.6c0,1.2-0.4,2.3-1,3.1
		c-0.6,0.8-1.6,1.2-2.8,1.2s-2.2-0.5-2.9-1.3v4.2c0,0.1,0,0.2-0.1,0.3c-0.1,0.1-0.2,0.1-0.3,0.1h-0.9
		C136.1,271.4,136,271.3,135.9,271.3z M141.9,265.9c0.4-0.5,0.6-1.2,0.6-2.1c0-0.1,0-0.3,0-0.5c0-2.3-0.8-3.4-2.5-3.4
		c-0.8,0-1.4,0.3-1.9,0.8c-0.4,0.5-0.6,1.2-0.7,2l0,0.7l0,0.7c0,0.7,0.3,1.3,0.7,1.9c0.4,0.5,1.1,0.8,1.9,0.8
		C140.9,266.7,141.5,266.4,141.9,265.9z"/>
	<path d="M147.6,267.7c-0.6-0.3-1-0.6-1.3-0.9c-0.3-0.3-0.4-0.6-0.4-0.9c0-0.1,0-0.2,0.1-0.3c0.1-0.1,0.2-0.1,0.3-0.1h0.8
		c0.1,0,0.2,0.1,0.3,0.2c0.3,0.3,0.6,0.6,0.9,0.8c0.3,0.2,0.8,0.3,1.3,0.3c0.6,0,1.1-0.1,1.5-0.4c0.4-0.2,0.6-0.6,0.6-1
		c0-0.3-0.1-0.5-0.2-0.7c-0.2-0.2-0.4-0.3-0.8-0.5c-0.4-0.1-1-0.3-1.7-0.5c-1-0.2-1.8-0.6-2.2-1c-0.4-0.4-0.7-1-0.7-1.7
		c0-0.5,0.1-0.9,0.4-1.3c0.3-0.4,0.7-0.8,1.2-1c0.5-0.3,1.1-0.4,1.9-0.4c0.8,0,1.4,0.1,2,0.4s0.9,0.5,1.2,0.9
		c0.3,0.3,0.4,0.6,0.4,0.9c0,0.1,0,0.2-0.1,0.3c-0.1,0.1-0.2,0.1-0.3,0.1h-0.8c-0.1,0-0.3-0.1-0.4-0.2c-0.2-0.2-0.4-0.4-0.5-0.5
		s-0.3-0.2-0.6-0.3s-0.6-0.1-1-0.1c-0.6,0-1,0.1-1.3,0.4c-0.3,0.2-0.5,0.6-0.5,1c0,0.3,0.1,0.5,0.2,0.6s0.4,0.3,0.8,0.5
		c0.4,0.1,0.9,0.3,1.6,0.5c1.1,0.2,1.9,0.6,2.4,1s0.7,1,0.7,1.7c0,0.5-0.2,1-0.5,1.4s-0.7,0.8-1.3,1c-0.6,0.2-1.3,0.4-2.1,0.4
		C148.9,268.1,148.2,268,147.6,267.7z"/>
</g>
<g>
	<g>
		<line class="st1" x1="3" y1="244.2" x2="172.9" y2="244.2"/>
	</g>
	<g>
		<line class="st1" x1="3" y1="209.2" x2="172.9" y2="209.2"/>
	</g>
	<g>
		<line class="st1" x1="3" y1="174.2" x2="172.9" y2="174.2"/>
	</g>
	<g>
		<line class="st1" x1="3" y1="139.2" x2="172.9" y2="139.2"/>
	</g>
	<g>
		<line class="st1" x1="3" y1="104.2" x2="172.9" y2="104.2"/>
	</g>
	<g>
		<line class="st1" x1="3" y1="69.2" x2="172.9" y2="69.2"/>
	</g>
	<g>
		<line class="st1" x1="3" y1="34.2" x2="172.9" y2="34.2"/>
	</g>
</g>
<line class="st1" x1="172.4" y1="282.6" x2="172.4" y2="8.5"/>
<line class="st1" x1="172.9" y1="34.2" x2="633.3" y2="34.2"/>
<g>
	<g>
		<line class="st2" x1="172.9" y1="262.8" x2="633.3" y2="262.8"/>
	</g>
	<g>
		<line class="st2" x1="172.9" y1="227.8" x2="633.3" y2="227.8"/>
	</g>
	<g>
		<line class="st2" x1="172.9" y1="192.8" x2="633.3" y2="192.8"/>
	</g>
	<g>
		<line class="st2" x1="172.9" y1="157.8" x2="633.3" y2="157.8"/>
	</g>
	<g>
		<line class="st2" x1="172.9" y1="122.8" x2="633.3" y2="122.8"/>
	</g>
	<g>
		<line class="st2" x1="172.9" y1="87.8" x2="633.3" y2="87.8"/>
	</g>
	<g>
		<line class="st2" x1="172.9" y1="52.8" x2="633.3" y2="52.8"/>
	</g>
</g>
<rect x="523.3" y="251.6" class="st3" width="106.4" height="22.2"/>
<rect x="523.3" y="216.6" class="st3" width="106.4" height="22.2"/>
<rect x="408.4" y="181.6" class="st3" width="220.8" height="22.2"/>
<rect x="407.8" y="146.6" class="st3" width="106.4" height="22.2"/>
<rect x="291.9" y="111.6" class="st3" width="222.5" height="22.2"/>
<rect x="232.5" y="76.6" class="st3" width="156" height="22.2"/>
<rect x="177.5" y="41.6" class="st3" width="106.4" height="22.2"/>
</svg>
