<?xml version="1.0" encoding="utf-8"?>
<!-- Generator: Adobe Illustrator 26.0.1, SVG Export Plug-In . SVG Version: 6.00 Build 0)  -->
<svg version="1.1" id="Layer_1" xmlns="http://www.w3.org/2000/svg" xmlns:xlink="http://www.w3.org/1999/xlink" x="0px" y="0px"
	 viewBox="0 0 24 24" style="enable-background:new 0 0 24 24;" xml:space="preserve">
<style type="text/css">
	.st0{fill:#A3C9A8;}
</style>
<path class="st0" d="M4.8,20.6l0.3,2.8l2.1-2l3.5-9.7c-0.8-0.2-1.6-0.6-2.2-1.2L4.8,20.6z"/>
<path class="st0" d="M15.5,10.6c-0.6,0.6-1.4,1-2.2,1.2l3.5,9.7l2.1,2l0.3-2.8L15.5,10.6z"/>
<path class="st0" d="M15.8,6.9c0-1.6-1-3-2.5-3.6V0.6h-2.5v2.8c-2,0.7-3,2.9-2.3,4.9s2.9,3,4.9,2.3C14.8,10,15.8,8.5,15.8,6.9z
	 M12,8.2c-0.7,0-1.3-0.6-1.3-1.3s0.6-1.3,1.3-1.3s1.3,0.6,1.3,1.3S12.7,8.2,12,8.2C12,8.2,12,8.2,12,8.2z"/>
</svg>
