<svg id="Layer_1" data-name="Layer 1" xmlns="http://www.w3.org/2000/svg" viewBox="0 0 24 24"><defs><style>.cls-1{fill:none;}.cls-2{fill:#00b2ac;}</style></defs><rect class="cls-1" width="24" height="24"/><path class="cls-2" d="M4.83,20.62l.31,2.83,2.06-2,3.53-9.67a4.94,4.94,0,0,1-2.25-1.24Z"/><path class="cls-2" d="M15.52,10.58a5,5,0,0,1-2.25,1.24l3.52,9.67,2.06,2,.33-2.83Z"/><path class="cls-2" d="M15.81,6.91a3.81,3.81,0,0,0-2.54-3.58V.55H10.73V3.33a3.81,3.81,0,1,0,5.08,3.58ZM12,8.18a1.27,1.27,0,1,1,1.27-1.27A1.27,1.27,0,0,1,12,8.18Z"/></svg>