<svg id="Layer_1" data-name="Layer 1" xmlns="http://www.w3.org/2000/svg" viewBox="0 0 24 24"><defs><style>.cls-1{fill:#a3c9a8;}</style></defs><path class="cls-1" d="M1.67,4.08C.54,3.91.79,3.9.76,3c0-.56,0-1.13,0-1.7,0-.35.16-.51.51-.51.74,0,1.48,0,2.22,0,.42,0,.42,0,.59.91H19.93c.16-1.11.15-.89,1.1-.91.57,0,1.13,0,1.7,0,.36,0,.52.15.51.51,0,.74,0,1.47,0,2.21s-.55.45-.91.59V19.92c.91.16.91.16.91,1.11,0,.56,0,1.13,0,1.7,0,.35-.15.52-.51.51H20.52c-.69,0-.46-.55-.59-.91H4.08c-.17.91-.17.91-1.11.91H1.27c-.36,0-.51-.15-.51-.51,0-.74,0-1.47,0-2.21s.55-.46.91-.59ZM20.93,19.92V4c-.78.15-1.06-.23-1-.92H4c.18.82-.28,1-.92.94V19.94c.82.1.82.1,1,1H19.93C20.06,20.07,20.06,20.07,20.93,19.92Z"/><path class="cls-1" d="M10.64,16.43V7.62H8.25v.74a.48.48,0,0,1-.55.56H6.06a.46.46,0,0,1-.52-.52v-3c0-.39.19-.54.56-.54H17.89c.4,0,.58.17.58.57,0,1,0,2,0,3,0,.38-.17.56-.55.56s-1,0-1.47,0-.75-.17-.7-.69c0-.2,0-.41,0-.64H13.38v8.82h.76c.41,0,.58.18.58.58s0,1.06,0,1.59c0,.34-.15.54-.51.54H9.79c-.36,0-.51-.2-.5-.54,0-.49,0-1,0-1.47s.18-.75.69-.71C10.18,16.44,10.38,16.43,10.64,16.43Z"/></svg>