<svg id="Layer_1" data-name="Layer 1" xmlns="http://www.w3.org/2000/svg" viewBox="0 0 165.46 105.29"><defs><style>.cls-1{fill:#fff;}.cls-2{fill:#a3c9a8;}.cls-3{fill:#2e86ab;}.cls-4{fill:#1a1a1a;}</style></defs><rect class="cls-1" x="76.71" y="47.17" width="14.65" height="12.14" rx="2.3"/><rect class="cls-1" x="34.43" y="21.63" width="99.2" height="63.21" rx="4.6"/><rect class="cls-2" x="95.46" y="4.64" width="20.21" height="14.18" rx="2.37"/><path class="cls-1" d="M95.54,43.21l-.07.72s-.58,0-.68.81-.28,2.08-.28,2.08-1.64.5-1.53.91A12.9,12.9,0,0,0,94,49.5c.22.15-1,4.11,3.56,4.45a5.56,5.56,0,0,1,4.18-3.84s2.21,1,2.87-.92a2.22,2.22,0,0,0-1.53-3,7.66,7.66,0,0,0-1.72.38,2.55,2.55,0,0,1-2.22-2.27,13,13,0,0,1-.28-3.89A3.15,3.15,0,0,0,98.34,42a9,9,0,0,0,.06,1.65Z"/><path class="cls-1" d="M95.31,40a22.93,22.93,0,0,0-3.1-3.3c-1-.59-2-.81-2.49.2,0,0-.9-.59-1.5-.26a1.48,1.48,0,0,0-.7,1A1.78,1.78,0,0,0,86,38c-.48.6.08,1.58.8,2.63s2.46,3.39,2.92,3.85,1.78,2,.93,2.62S89,47.07,88.1,47a1.34,1.34,0,0,0-1.48,1c-.16.54.78,1.29,2.06,1.56a12,12,0,0,1,2.83,1.12l2.35-1.82,2.84-3.65L95.63,43.1,94.51,43S94.61,40.7,95.31,40Z"/><path class="cls-1" d="M76.41,55.76a35.14,35.14,0,0,0,1-3.55c.17-1.06.83-2.67-.61-2.84s-1.4,1.52-1.56,1.92-.43,1.14-1.25,1-1.19-1.44-1.63-3a41.73,41.73,0,0,0-1.54-4.44c-.36-.75-.6-1.51-1.61-1.4a.91.91,0,0,0-.93,1s-.84-.32-1.29-.06-.52,1.42-.52,1.42a1,1,0,0,0-1,0c-.62.27-.55,1.57-.47,2.15a29.86,29.86,0,0,0,.7,3.34c.4,1.38,1.8,5.39,2.57,6.29a7.94,7.94,0,0,1,3.49-1.73A21.55,21.55,0,0,1,76.41,55.76Z"/><rect class="cls-2" x="4" y="57.98" width="41.39" height="27.25" rx="4.03"/><path class="cls-3" d="M47.44,54.66H15.22a4.59,4.59,0,0,0-4.58,4.58v2.22H52V59.24A4.59,4.59,0,0,0,47.44,54.66Z"/><path class="cls-2" d="M98.39,57.36a9.18,9.18,0,0,0-6.7,5.4c-2.11,4.79-3.35,9.67-5.87,9.42S83.29,71,81.93,66.87s-3.25-9.94-3.25-9.94-1.5-1.78-6.37-1.16-5.14,3.08-5.14,3.08S69,69.9,70.5,73.49c0,0,2.67,8.35,7.67,10.5s7.61,1.62,11,.9v1s-.69,14.89-.6,15.75l25.27,0s-1.68-9.47-1.74-13.52A84.3,84.3,0,0,1,112.92,77a2.68,2.68,0,0,1-2.45-2c-.72-2.41,0-4.78,0-6.39s.47-5.22-1.77-6.44-3.62-.64-6-1.67S98.48,58,98.39,57.36Z"/><path class="cls-2" d="M93.66,49.08s-2.52,1.4-2.91,3.75l3.76,7.28,3.69-2.7A5.45,5.45,0,0,1,97.6,54a4.06,4.06,0,0,1-3.13-1.64,2.93,2.93,0,0,1-.17-2.83Z"/><path class="cls-2" d="M42.56,21.13,36.82,32.79s1,4.65,2.45,6.14h6.78s2.2-3.32,2.3-6.14Zm0,12.52a1.83,1.83,0,1,1,1.83-1.83A1.83,1.83,0,0,1,42.56,33.65Z"/><rect class="cls-3" x="38.61" y="39.96" width="8.02" height="2.48" rx="1.09"/><path class="cls-2" d="M28,22.24A2.24,2.24,0,1,1,25.78,20,2.23,2.23,0,0,1,28,22.24Z"/><path class="cls-2" d="M61.77,22.24A2.24,2.24,0,1,1,59.53,20,2.24,2.24,0,0,1,61.77,22.24Z"/><path class="cls-3" d="M101.78,50.11a5.81,5.81,0,0,0-3.87,3c-1,2.45,0,3.65,1.21,5.06a8.72,8.72,0,0,0,4.21,2.5c1.18.33,5.17.49,6.17,2.07a9.76,9.76,0,0,1,1,5.82c-.16,2-.63,4-.18,5.56s.92,3,5.6,3.07S121.06,72.15,121,71a21.18,21.18,0,0,0-2.51-9.16c-2.2-4-4.41-4.38-6-5.18s-4.38-2.65-4.6-4.77a8.28,8.28,0,0,1,.53-3.28,28.53,28.53,0,0,0,1-3.62s.15-3.61-1.27-4.58A10.92,10.92,0,0,0,105,39a15.86,15.86,0,0,0-4.66-1.13c-2,0-3,.12-4,1A5.25,5.25,0,0,0,94.51,43l3.79.66s-.35-2.43.6-3.23c0,0-.55,5.62,2.39,6.06l.29.09A1.51,1.51,0,0,1,103,46.2c.86.19,2.29,1,1.85,2.57A2.18,2.18,0,0,1,101.78,50.11Z"/><path class="cls-1" d="M99.61,45.29l-.17,1.41L101,47a2.09,2.09,0,0,1,2.23-.81,2.41,2.41,0,0,1,1.61,1.29l1.66.11.17-1.4Z"/><polygon class="cls-1" points="106.69 46.17 107.24 46.22 107.06 47.77 106.55 47.65 106.69 46.17"/><circle class="cls-1" cx="38.57" cy="57.89" r="1.23" transform="matrix(0.11, -0.99, 0.99, 0.11, -23.19, 89.92)"/><path class="cls-1" d="M44,57.89a1.17,1.17,0,0,1-2.34,0,1.17,1.17,0,0,1,2.34,0Z"/><path class="cls-1" d="M48.32,57.89a1.17,1.17,0,0,1-2.34,0,1.17,1.17,0,0,1,2.34,0Z"/><path class="cls-3" d="M147,70.92a30.78,30.78,0,0,0-12.86-13.39S133.51,65,147,70.92Z"/><path class="cls-2" d="M149.23,62.79a41.16,41.16,0,0,0,9.08-6.07c3.63-3.46,3.6-7,3.6-7s-3,.88-7.53,5.61-5.13,7.35-5.13,7.35Z"/><path class="cls-2" d="M147.76,62.64a18.41,18.41,0,0,0-1.09-7.29,10.14,10.14,0,0,0-4-4.55,19.56,19.56,0,0,0,1.94,7A18.38,18.38,0,0,0,147.76,62.64Z"/><path class="cls-2" d="M149.8,69.59a32.07,32.07,0,0,0,9.29-3.42c4-2.42,4.79-5.45,4.79-5.45a25,25,0,0,0-8.31,3.89A31.53,31.53,0,0,0,149.8,69.59Z"/><path class="cls-3" d="M147.61,82.64s3.41-6.14,6.66-8.8a46.87,46.87,0,0,1,6.06-4.25s.44,3.66-4.48,8A23.83,23.83,0,0,1,147.61,82.64Z"/><path class="cls-2" d="M147.58,92.53s5.51-2.5,8.47-5.41a14.62,14.62,0,0,0,4.17-6.67,4.52,4.52,0,0,0,0-1.3,30.8,30.8,0,0,0-8,6.54C148.47,90,147.58,92.53,147.58,92.53Z"/><path class="cls-2" d="M145,87.32A30.52,30.52,0,0,1,139,79.39c-2.31-4.86-.81-8.29-.81-8.29a18.93,18.93,0,0,1,4.7,7.28A40.93,40.93,0,0,1,145,87.32Z"/><path class="cls-3" d="M141.8,87.57s-6.7-2.92-9-5.76-4-4.77-3.86-7.45c0,0,2.94.93,6.93,5A33.24,33.24,0,0,1,141.8,87.57Z"/><path class="cls-3" d="M141.18,97.48a32.45,32.45,0,0,0-3.43-8.2c-2.2-3.42-5.46-5.83-7.92-6.23a22.1,22.1,0,0,0,4.95,8.55,71.06,71.06,0,0,0,6.4,6Z"/><path class="cls-1" d="M104.94,11a.86.86,0,0,0-1.62,0l-3.43,5.87c-.44.77-.08,1.39.8,1.39h6.89c.88,0,1.24-.62.79-1.39Z"/><rect class="cls-2" x="113.5" y="46.4" width="6.8" height="6.8"/><path class="cls-3" d="M102.06,69.25S99.28,85,88.86,89.49l.3-4.6a19.93,19.93,0,0,0,9-6.93C101.82,72.82,102.06,69.25,102.06,69.25Z"/><path class="cls-1" d="M96.7,43.38c.4-6.05,6-5.08,6.25-5a11.32,11.32,0,0,0-2.58-.43c-2,0-3,.12-4,1A5.25,5.25,0,0,0,94.51,43l1.95.34Z"/><path class="cls-1" d="M99.23,54.16a5.21,5.21,0,0,1,4.1-3.82,2.21,2.21,0,0,1-1.55-.23,5.81,5.81,0,0,0-3.87,3c-1,2.45,0,3.65,1.21,5.06a8.72,8.72,0,0,0,4.21,2.5,11.17,11.17,0,0,0,1.18.22C102.35,60.13,98.25,58.33,99.23,54.16Z"/><path class="cls-3" d="M91.17,84.1a15.82,15.82,0,0,1-7.27,1.4A15.56,15.56,0,0,1,78.17,84s1-4.07,6.5-4.11S91.17,84.1,91.17,84.1Z"/><path class="cls-4" d="M107.11,47.88l-.66-.07a.2.2,0,0,1-.17-.21.17.17,0,0,1,.21-.17l.46,0,.12-1.06-.45-.05a.19.19,0,0,1-.17-.21.18.18,0,0,1,.21-.17l.64.08a5.32,5.32,0,0,1,0,1.65C107.2,47.87,107.16,47.88,107.11,47.88Z"/><path class="cls-4" d="M106.47,47.81l-1.79-.21a.2.2,0,0,1-.17-.21.18.18,0,0,1,.22-.17l1.57.19.13-1.06-6.8-.87-1.27.46,1,.65,1.77.21a.19.19,0,0,1,0,.38L99.27,47c-.08,0-1.44-.92-1.44-.92,0-.34,1.72-.94,1.72-.94s7.12.88,7.12.88a.2.2,0,0,1,.16.21l-.17,1.44C106.56,47.79,106.51,47.81,106.47,47.81Z"/><path class="cls-4" d="M107.58,18.45h-6.89a1,1,0,0,1-1-1.67l3.43-5.87a1.16,1.16,0,0,1,1-.67,1.17,1.17,0,0,1,1,.67l3.43,5.87a1.14,1.14,0,0,1,.1,1.17A1.16,1.16,0,0,1,107.58,18.45Zm-3.45-7.83a.79.79,0,0,0-.64.48L100.06,17a.66.66,0,0,0,.63,1.1h6.89a.81.81,0,0,0,.73-.31.81.81,0,0,0-.1-.79l-3.43-5.87A.81.81,0,0,0,104.13,10.62Z"/><path class="cls-4" d="M123.28,101.83H21.57a.19.19,0,0,1,0-.38H123.28a.19.19,0,0,1,0,.38Z"/><path class="cls-4" d="M154.59,101.83H136.14a.19.19,0,0,1,0-.38h18.45a.19.19,0,0,1,0,.38Z"/><path class="cls-4" d="M97.92,44.93a1.45,1.45,0,0,0-1.58-.64.19.19,0,0,1-.24-.12.19.19,0,0,1,.12-.24,1.6,1.6,0,0,1,1.86.71.19.19,0,0,1-.06.26A.19.19,0,0,1,97.92,44.93Z"/><path class="cls-4" d="M96.69,45.39c-.15,0-.26,0-.37.56s0,.73.17.74.3-.17.34-.6S96.88,45.45,96.69,45.39Z"/><path class="cls-4" d="M102.8,50.52a2.3,2.3,0,0,1-1.3-.41.19.19,0,0,1,0-.27.2.2,0,0,1,.27-.05,1.8,1.8,0,0,0,1.07.35,1.89,1.89,0,0,0,1.9-1.88,1.89,1.89,0,0,0-1.88-1.9,1.9,1.9,0,0,0-1.61.88.19.19,0,1,1-.32-.2A2.25,2.25,0,0,1,102.8,46a2.23,2.23,0,0,1,1.61.67,2.27,2.27,0,0,1-1.61,3.87Z"/><path class="cls-4" d="M103.32,49.38c-.11,0-1.54-1-1.54-1,0-.31,1.43-1.38,1.43-1.38a.19.19,0,0,1,.23.31l-1.22.91,1.2.79a.2.2,0,0,1,.06.27A.21.21,0,0,1,103.32,49.38Z"/><path class="cls-4" d="M88.56,101.58a.18.18,0,0,1-.19-.19c-.05-3.62.58-16,.6-16.55a.18.18,0,0,1,.2-.18.18.18,0,0,1,.18.2c0,.52-.65,12.92-.6,16.53a.19.19,0,0,1-.19.19Z"/><path class="cls-4" d="M94,59.63c-1.3-2.21-2.2-4.08-3.33-6.45l-.13-.26c0-.19.15-2.29,3.11-4A.19.19,0,0,1,94,49a.18.18,0,0,1-.07.26C91.34,50.72,91,52.5,91,52.8c1.23,2.58,2.13,4.45,3.26,6.55a.2.2,0,0,1-.08.26Z"/><path class="cls-4" d="M113.83,101.62a60.88,60.88,0,0,1-1.94-17c.06-.8.14-1.68.22-2.61.17-1.75.34-3.57.34-5.11a.19.19,0,0,1,.19-.19.18.18,0,0,1,.19.19c0,1.56-.17,3.38-.34,5.14-.08.93-.16,1.81-.22,2.6-.47,7.12,1.73,16.67,1.75,16.77a.2.2,0,0,1-.14.23Z"/><path class="cls-4" d="M84.6,85.66q-.78,0-1.59-.06l-.57-.06a12.62,12.62,0,0,1-7.38-3.63c-3-3.11-4.55-7.4-5.62-11.19A103.89,103.89,0,0,1,67,59c0-.34,1.39-3,6.11-3.47,4.24-.38,5.66,1.22,5.72,1.29s4.08,12.43,4.08,12.43a3.83,3.83,0,0,0,1.52,2.44,2.43,2.43,0,0,0,2.8-.3,6.57,6.57,0,0,0,1.67-2.65c.21-.5.41-1,.61-1.51a48.38,48.38,0,0,1,2.19-4.89,9.83,9.83,0,0,1,4.47-4.53,7.29,7.29,0,0,1,2.19-.63.19.19,0,0,1,.22.17.19.19,0,0,1-.16.21,7.27,7.27,0,0,0-2.1.6A9.54,9.54,0,0,0,92,62.52a45.47,45.47,0,0,0-2.16,4.84c-.21.51-.41,1-.62,1.52a7,7,0,0,1-1.77,2.8,2.84,2.84,0,0,1-3.24.34,4.22,4.22,0,0,1-1.7-2.66l-1.4-4.31-2.63-8c-.19-.19-1.62-1.46-5.37-1.13-4.13.37-5.57,2.62-5.77,3a102.9,102.9,0,0,0,2.44,11.73c1.06,3.75,2.54,8,5.53,11a12.14,12.14,0,0,0,7.15,3.52l.55.06q.79.06,1.56.06c14,0,17.35-16.37,17.38-16.54a.18.18,0,0,1,.23-.15.19.19,0,0,1,.15.22C102.32,69,98.87,85.66,84.6,85.66Z"/><path class="cls-4" d="M97.6,54.14A3.51,3.51,0,0,1,94,49.61c-.31-.29-1.26-1.25-1.25-1.89s1.26-1.08,1.84-1.31a7.25,7.25,0,0,0,.65-2.71l.07-.52a.19.19,0,0,1,.22-.16.19.19,0,0,1,.16.21l-.07.51c0,.42-.27,2.54-.81,3a4.17,4.17,0,0,0-1.68,1c0,.41.74,1.25,1.22,1.68a4.61,4.61,0,0,0,.4,3,3.64,3.64,0,0,0,2.83,1.4.19.19,0,0,1,.17.21A.19.19,0,0,1,97.6,54.14Z"/><path class="cls-4" d="M134.86,25.9a.83.83,0,1,0-.83-.83A.83.83,0,0,0,134.86,25.9Z"/><path class="cls-4" d="M141.32,25.94a.88.88,0,1,0-.87-.87A.87.87,0,0,0,141.32,25.94Z"/><path class="cls-4" d="M147.78,25.88a.81.81,0,1,0-.81-.81A.81.81,0,0,0,147.78,25.88Z"/><path class="cls-4" d="M134.86,32.41a.88.88,0,1,0-.87-.88A.88.88,0,0,0,134.86,32.41Z"/><path class="cls-4" d="M141.32,32.45a.92.92,0,1,0-.92-.92A.92.92,0,0,0,141.32,32.45Z"/><path class="cls-4" d="M147.78,32.38a.85.85,0,1,0,0-1.7.85.85,0,1,0,0,1.7Z"/><path class="cls-4" d="M134.86,38.8a.81.81,0,1,0-.81-.81A.81.81,0,0,0,134.86,38.8Z"/><path class="cls-4" d="M141.32,38.85a.86.86,0,0,0,.85-.86.85.85,0,1,0-1.7,0A.86.86,0,0,0,141.32,38.85Z"/><path class="cls-4" d="M147.78,38.79a.8.8,0,0,0,.8-.8.79.79,0,0,0-.8-.79A.79.79,0,0,0,147,38,.79.79,0,0,0,147.78,38.79Z"/><path class="cls-4" d="M26.64,52.92a.19.19,0,0,1-.19-.19V30.46a4.78,4.78,0,0,1,4.77-4.77h8a.19.19,0,0,1,.2.19.2.2,0,0,1-.2.19h-8a4.4,4.4,0,0,0-4.39,4.39V52.73A.18.18,0,0,1,26.64,52.92Z"/><path class="cls-4" d="M88.78,89.13H31.22a4.75,4.75,0,0,1-4.77-4.48.2.2,0,0,1,.19-.19.19.19,0,0,1,.19.19,4.37,4.37,0,0,0,4.39,4.1H88.78a.2.2,0,0,1,.19.19A.19.19,0,0,1,88.78,89.13Z"/><path class="cls-4" d="M121.22,89.13h-4.71a.19.19,0,0,1-.19-.19.2.2,0,0,1,.19-.19h4.71a4.4,4.4,0,0,0,4.39-4.39V63.67a.19.19,0,0,1,.19-.19.2.2,0,0,1,.19.19V84.36A4.78,4.78,0,0,1,121.22,89.13Z"/><path class="cls-4" d="M125.8,40.61a.19.19,0,0,1-.19-.2V30.46a4.4,4.4,0,0,0-4.39-4.39H46a.2.2,0,0,1-.19-.19.19.19,0,0,1,.19-.19h75.23A4.78,4.78,0,0,1,126,30.46v9.95A.2.2,0,0,1,125.8,40.61Z"/><path class="cls-4" d="M48,82.1H14.67a4.23,4.23,0,0,1-4.22-4.23V58.69a4.22,4.22,0,0,1,4.22-4.22H48a4.22,4.22,0,0,1,4.22,4.22V77.87A4.23,4.23,0,0,1,48,82.1ZM14.67,54.85a3.85,3.85,0,0,0-3.84,3.84V77.87a3.85,3.85,0,0,0,3.84,3.85H48a3.85,3.85,0,0,0,3.84-3.85V58.69A3.85,3.85,0,0,0,48,54.85Z"/><path class="cls-4" d="M109.94,21.55H96.67a2.73,2.73,0,0,1-2.73-2.72v-9a2.73,2.73,0,0,1,2.73-2.72h15a2.72,2.72,0,0,1,2.72,2.72v7.38a.19.19,0,0,1-.19.2.2.2,0,0,1-.19-.2V9.86a2.34,2.34,0,0,0-2.34-2.34h-15a2.34,2.34,0,0,0-2.34,2.34v9a2.34,2.34,0,0,0,2.34,2.34h13.27a.19.19,0,0,1,.19.19A.18.18,0,0,1,109.94,21.55Z"/><path class="cls-4" d="M141.8,87.76C128,81.43,128.7,74.44,128.73,74.14c8.69,4.07,13.19,13.26,13.24,13.35C141.92,87.73,141.86,87.76,141.8,87.76ZM129.1,74.47c0,1.36.8,7.39,12.35,12.85C140.57,85.66,136.33,78.22,129.1,74.47Z"/><path class="cls-4" d="M147.58,92.72c-.32-.4,4.81-9.81,12.65-13.74.31.44,1,7.4-12.57,13.72A.11.11,0,0,1,147.58,92.72Zm12.55-13.26C153.4,83,148.74,90.53,147.74,92.24,159.29,86.79,160.1,80.81,160.13,79.46Z"/><path class="cls-4" d="M141.18,97.67a2.83,2.83,0,0,1-.49-.31c-2.06-1.52-8.93-7.06-11-14.26.29-.22,8.35,1.12,11.71,14.33C141.25,97.66,141.21,97.67,141.18,97.67ZM130.11,83.31c2.22,7,9.19,12.54,10.75,13.7C137.87,86,131.57,83.7,130.11,83.31Z"/><path class="cls-4" d="M145,87.51c-10.28-10-7-16.33-6.85-16.6,6,5.92,7,14.63,7.17,16.31C145,87.5,145,87.51,145,87.51Zm-6.62-16.17c-.48,1.25-2,7.07,6.54,15.63C144.66,84.81,143.54,76.92,138.34,71.34Z"/><path class="cls-4" d="M147,71.11c-.08,0-.49-.2-.49-.2-13.21-6.29-12.6-13.11-12.56-13.4,8.6,4,13,12.95,13.22,13.32C147.08,71.09,147,71.11,147,71.11ZM134.3,57.84c0,1.36.93,7.26,12.26,12.68C145.52,68.58,141.36,61.5,134.3,57.84Z"/><path class="cls-4" d="M147.76,62.83c-.2-.13-5.2-6.28-5.29-12,.48-.1,5.76,2,5.57,11.74C147.87,62.81,147.82,62.83,147.76,62.83Zm-4.9-11.72c.22,4.79,3.82,9.82,4.8,11.1C147.72,54.22,143.91,51.66,142.86,51.11Z"/><path class="cls-4" d="M149.23,63a.89.89,0,0,1-.13-.62c1.16-2.19,5.44-9.4,12.71-13,.31.44.93,7.35-12.5,13.66Zm.24-.53c11.32-5.4,12.2-11.3,12.24-12.66C154.74,53.41,150.6,60.34,149.47,62.45Z"/><path class="cls-4" d="M147.69,83c.19-1.27,4.64-9.68,12.59-13.67.31.44.93,7.34-12.51,13.65A.11.11,0,0,1,147.69,83Zm12.49-13.19c-7.06,3.66-11.26,10.83-12.26,12.68C159.28,77,160.14,71.13,160.18,69.78Z"/><path class="cls-4" d="M149.76,69.81c-.2-.48,6.47-7.45,14.08-9.27.19.47-.94,6.47-13.94,9.23ZM163.61,61c-6.42,1.66-12.11,7-13.51,8.34C160.94,67,163.2,62.22,163.61,61Z"/><path class="cls-4" d="M144.6,101.83a.19.19,0,0,1-.19-.21L149,62.77a.2.2,0,0,1,.21-.17.21.21,0,0,1,.17.22l-4.63,38.84A.19.19,0,0,1,144.6,101.83Z"/><path class="cls-4" d="M142.45,101.83c-.2-.18-.85-14.25-.85-14.25a.21.21,0,0,1,.19-.2.22.22,0,0,1,.2.18l.65,14.07a.19.19,0,0,1-.19.2Z"/><path class="cls-4" d="M141.31,101.81a.19.19,0,0,1-.19-.18L141,97.49a.18.18,0,0,1,.18-.2.2.2,0,0,1,.2.18l.13,4.15a.19.19,0,0,1-.18.19Z"/><path class="cls-4" d="M146.93,101.81a.19.19,0,0,1-.19-.2l.44-9.11a.18.18,0,0,1,.2-.18.19.19,0,0,1,.19.2l-.45,9.11A.19.19,0,0,1,146.93,101.81Z"/><path class="cls-4" d="M145.81,90.32a27.74,27.74,0,0,1-1-3.28.2.2,0,0,1,.14-.23.19.19,0,0,1,.23.14l.77,3.13a.18.18,0,0,1-.14.23Z"/><path class="cls-4" d="M146.62,84.85c-.18-.06-.21-.18-.17-.27l1-1.93a.18.18,0,0,1,.25-.09.19.19,0,0,1,.09.25l-1,1.94A.19.19,0,0,1,146.62,84.85Z"/><path class="cls-4" d="M147.48,77c-.19-.18-.69-6-.69-6a.19.19,0,0,1,.17-.2.19.19,0,0,1,.21.17l.5,5.84a.18.18,0,0,1-.17.2Z"/><path class="cls-4" d="M148.61,67.43c-.19-.16-1-4.75-1-4.75a.2.2,0,0,1,.16-.23.19.19,0,0,1,.22.16l.85,4.59a.19.19,0,0,1-.16.22Z"/><path class="cls-4" d="M147.93,73.82c-.17,0-.21-.17-.17-.26l1.75-4.07a.19.19,0,0,1,.35.15l-1.75,4.07A.19.19,0,0,1,147.93,73.82Z"/><path class="cls-4" d="M48.26,61.65H13.45a.19.19,0,0,1-.19-.19.18.18,0,0,1,.19-.19H48.26a.18.18,0,0,1,.19.19A.19.19,0,0,1,48.26,61.65Z"/><path class="cls-4" d="M47.15,59.19a1.3,1.3,0,1,1,1.3-1.3A1.3,1.3,0,0,1,47.15,59.19Zm0-2.21a.92.92,0,1,0,.92.91A.91.91,0,0,0,47.15,57Z"/><path class="cls-4" d="M42.86,59.19a1.3,1.3,0,1,1,1.3-1.3A1.3,1.3,0,0,1,42.86,59.19Zm0-2.21a.92.92,0,1,0,.92.91A.92.92,0,0,0,42.86,57Z"/><path class="cls-4" d="M38.57,59.19a1.3,1.3,0,1,1,1.3-1.3A1.3,1.3,0,0,1,38.57,59.19Zm0-2.21a.92.92,0,1,0,.92.91A.92.92,0,0,0,38.57,57Z"/><path class="cls-4" d="M39.27,39.12a16.73,16.73,0,0,1-2.64-6.29c0-.12,5.75-11.79,5.75-11.79a.19.19,0,0,1,.26-.09.19.19,0,0,1,.08.26L37,32.82a17.22,17.22,0,0,0,2.4,6,.2.2,0,0,1,0,.27A.17.17,0,0,1,39.27,39.12Z"/><path class="cls-4" d="M46.1,39.05c-.2-.1-.22-.22-.16-.3a16,16,0,0,0,2.21-5.93L42.38,21.21a.2.2,0,0,1,.09-.26.18.18,0,0,1,.25.09l5.8,11.67A15.66,15.66,0,0,1,46.26,39,.21.21,0,0,1,46.1,39.05Z"/><path class="cls-4" d="M46.05,39.12H39.27a.19.19,0,0,1-.19-.19.18.18,0,0,1,.19-.19h6.78a.19.19,0,0,1,.19.19A.2.2,0,0,1,46.05,39.12Z"/><path class="cls-4" d="M45.46,42.64H39.7a1.29,1.29,0,0,1-1.28-1.29v-.29a1.29,1.29,0,0,1,1.28-1.29h5.76a1.29,1.29,0,0,1,1.28,1.29v.29A1.29,1.29,0,0,1,45.46,42.64ZM39.7,40.15a.91.91,0,0,0-.9.91v.29a.91.91,0,0,0,.9.91h5.76a.91.91,0,0,0,.9-.91v-.29a.91.91,0,0,0-.9-.91Z"/><path class="cls-4" d="M42.56,33.84a2,2,0,1,1,2-2A2,2,0,0,1,42.56,33.84Zm0-3.66a1.64,1.64,0,1,0,1.64,1.64A1.64,1.64,0,0,0,42.56,30.18Z"/><path class="cls-4" d="M42.56,30a.19.19,0,0,1-.19-.19V21.36a.19.19,0,0,1,.19-.19.2.2,0,0,1,.19.19v8.49A.2.2,0,0,1,42.56,30Z"/><path class="cls-4" d="M44.05,23.61h-.3a.19.19,0,0,1-.19-.19.18.18,0,0,1,.19-.19h.3a.79.79,0,0,0,.79-.79V19.8a.78.78,0,0,0-.79-.78h-3a.78.78,0,0,0-.78.78v2.64a.79.79,0,0,0,.78.79h.37a.19.19,0,0,1,.2.19.2.2,0,0,1-.2.19h-.37a1.16,1.16,0,0,1-1.16-1.17V19.8a1.17,1.17,0,0,1,1.16-1.17h3a1.17,1.17,0,0,1,1.17,1.17v2.64A1.17,1.17,0,0,1,44.05,23.61Z"/><path class="cls-4" d="M25.89,20.6a.2.2,0,0,1-.19-.22c.69-5.48,4.27-9.47,8.51-9.47,3.44,0,6.55,2.68,7.92,6.81A.19.19,0,0,1,42,18a.18.18,0,0,1-.24-.12c-1.32-4-4.28-6.55-7.56-6.55-4.05,0-7.47,3.85-8.13,9.14A.19.19,0,0,1,25.89,20.6Z"/><path class="cls-4" d="M51.09,33.57a7.08,7.08,0,0,1-1.83-.25.2.2,0,0,1-.13-.24.19.19,0,0,1,.24-.13,6.27,6.27,0,0,0,1.72.24c4.07,0,7.5-3.87,8.14-9.2a.2.2,0,0,1,.22-.17.19.19,0,0,1,.16.22C58.94,29.56,55.36,33.57,51.09,33.57Z"/><path class="cls-4" d="M25.78,24a1.77,1.77,0,1,1,1.76-1.77A1.77,1.77,0,0,1,25.78,24Zm0-3.16a1.39,1.39,0,1,0,1.38,1.39A1.39,1.39,0,0,0,25.78,20.85Z"/><path class="cls-4" d="M59.53,24a1.77,1.77,0,1,1,1.77-1.77A1.77,1.77,0,0,1,59.53,24Zm0-3.16a1.39,1.39,0,1,0,1.39,1.39A1.4,1.4,0,0,0,59.53,20.85Z"/><path class="cls-4" d="M76.48,55.85c-.18-.07-.22-.18-.17-.28a13.18,13.18,0,0,0,.53-2c.13-.59.26-1.16.36-1.46a3.53,3.53,0,0,0,.32-2,.84.84,0,0,0-.41-.52.89.89,0,0,0-.84.1,1.85,1.85,0,0,0-.62.73,3.34,3.34,0,0,0-.17.51c-.14.56-.35,1.33-1,1.49-1,.23-1.68-.55-2.14-2.31-.14-.53-.32-1.23-.53-1.93a24.3,24.3,0,0,0-1.41-3.72,2,2,0,0,0-.56-.84.78.78,0,0,0-.49-.14.83.83,0,0,0-.65.34,1.52,1.52,0,0,0-.17,1.24c.23.94,2.21,6.55,2.23,6.61a.19.19,0,0,1-.12.24.18.18,0,0,1-.24-.11c-.09-.24-2-5.69-2.24-6.65a1.93,1.93,0,0,1,.23-1.55,1.23,1.23,0,0,1,.93-.5,1.13,1.13,0,0,1,.75.21,2,2,0,0,1,.61.86,23.65,23.65,0,0,1,1.49,3.9c.22.71.4,1.41.54,1.94q.6,2.3,1.68,2c.44-.11.6-.72.73-1.21a3.21,3.21,0,0,1,.2-.6,2.4,2.4,0,0,1,.76-.88,1.26,1.26,0,0,1,1.21-.11,1.2,1.2,0,0,1,.6.76,3.67,3.67,0,0,1-.31,2.16c-.11.31-.23.86-.36,1.45a12.66,12.66,0,0,1-.56,2.09A.2.2,0,0,1,76.48,55.85Z"/><path class="cls-4" d="M68.64,52.92c-2.63-6-2.55-7.52-2.27-8.19a1,1,0,0,1,.59-.59,1.27,1.27,0,0,1,1.47.2.19.19,0,0,1-.29.25.91.91,0,0,0-1-.1.68.68,0,0,0-.39.39c-.39.95.29,3.49,2.1,7.78a.2.2,0,0,1-.11.25Z"/><path class="cls-4" d="M68.23,57.78c-2.07-2.73-3.91-10.4-3.4-11.52a1.18,1.18,0,0,1,.72-.7,1.24,1.24,0,0,1,1,.14.19.19,0,0,1,.07.26.19.19,0,0,1-.26.06,1,1,0,0,0-.68-.1.86.86,0,0,0-.49.5c-.42.92,1.29,8.4,3.21,11a.2.2,0,0,1,0,.27A.25.25,0,0,1,68.23,57.78Z"/><path class="cls-4" d="M91.76,50.93A9.29,9.29,0,0,1,90,50.29c-.49-.2-.94-.39-1.23-.47a3.83,3.83,0,0,1-2-1,1.2,1.2,0,0,1-.29-.93,1.25,1.25,0,0,1,.78-.94,2.36,2.36,0,0,1,1.14-.13A3.19,3.19,0,0,1,89,47c.48.17,1.08.39,1.42.08.54-.5.29-1.35-.74-2.53-.53-.61-.93-1.09-1.31-1.54A24.62,24.62,0,0,1,86,39.73a2.31,2.31,0,0,1-.43-1.11,1.16,1.16,0,0,1,.25-.74,1.25,1.25,0,0,1,.93-.49,1.94,1.94,0,0,1,1.42.69c.66.74,4,5.87,4.09,6.09a.19.19,0,0,1-.06.26.18.18,0,0,1-.26-.06s-3.42-5.32-4.06-6a1.64,1.64,0,0,0-1.12-.56.84.84,0,0,0-.64.35.71.71,0,0,0-.17.48,1.84,1.84,0,0,0,.31.82,24.39,24.39,0,0,0,2.35,3.38c.37.45.77.92,1.3,1.53,1.2,1.37,1.43,2.4.7,3.06-.5.46-1.25.2-1.8,0a2.65,2.65,0,0,0-.51-.15,2,2,0,0,0-1,.11.84.84,0,0,0-.55.63.81.81,0,0,0,.2.63,3.41,3.41,0,0,0,1.77.84,11.46,11.46,0,0,1,1.31.49,9.38,9.38,0,0,0,1.69.61.19.19,0,0,1,0,.38Z"/><path class="cls-4" d="M94.13,42.89c-2.67-4-4.38-6-5.37-6.17a.67.67,0,0,0-.55.11c-.61.4-.5.89-.49.91a.2.2,0,0,1-.14.23.19.19,0,0,1-.23-.13A1.24,1.24,0,0,1,88,36.51a1,1,0,0,1,.84-.16c.7.15,2,.95,5.46,6.25a.19.19,0,0,1-.06.26A.2.2,0,0,1,94.13,42.89Z"/><path class="cls-4" d="M95.31,40.15c-2.11-2.61-3.8-3.73-4.41-3.83a.84.84,0,0,0-.69.12,1,1,0,0,0-.3.61c-.31.18-.39.09-.38,0a1.29,1.29,0,0,1,.44-.89,1.21,1.21,0,0,1,1-.2c.69.12,2.47,1.26,4.5,3.91a.18.18,0,0,1,0,.26A.15.15,0,0,1,95.31,40.15Z"/><path class="cls-4" d="M93,37.52a.19.19,0,0,1-.19-.19v-.66a4.4,4.4,0,0,0-4.39-4.39H82.67a.19.19,0,0,1-.19-.19.2.2,0,0,1,.19-.19H88.4a4.78,4.78,0,0,1,4.77,4.77v.66A.18.18,0,0,1,93,37.52Z"/><path class="cls-4" d="M64.92,48H63.44a4.79,4.79,0,0,1-4.78-4.78V36.67a4.78,4.78,0,0,1,4.78-4.77H73.92a.19.19,0,0,1,.19.19.18.18,0,0,1-.19.19H63.44a4.4,4.4,0,0,0-4.39,4.39v6.58a4.4,4.4,0,0,0,4.39,4.39h1.48a.19.19,0,0,1,.19.19A.19.19,0,0,1,64.92,48Z"/><path class="cls-4" d="M86.53,48H71.88a.2.2,0,0,1-.19-.2.2.2,0,0,1,.19-.19H86.53a.19.19,0,0,1,.19.19A.19.19,0,0,1,86.53,48Z"/><path class="cls-4" d="M115.25,77.43a10.62,10.62,0,0,1-1.55-.12c-4.11-.61-3.84-3.51-3.53-6.87a20.63,20.63,0,0,0,0-5.33c-.5-3-2.21-3.27-4.57-3.7a11.59,11.59,0,0,1-6.39-2.8c-2.37-2.2-2.12-4.23-1.49-5.55.93-1.93,3.18-3.28,4.18-3.13a.19.19,0,1,1-.06.37c-.76-.12-2.87,1.05-3.77,2.93-.58,1.2-.8,3.06,1.4,5.1a11.08,11.08,0,0,0,6.2,2.7c2.32.43,4.33.79,4.88,4a21,21,0,0,1,0,5.43c-.32,3.42-.55,5.89,3.21,6.45a6.15,6.15,0,0,0,5.2-1.12A6.37,6.37,0,0,0,120.82,71c-.06-3.28-1.72-10.83-6.5-13.21-5.36-2.65-7.07-4.5-6.52-7a.19.19,0,0,1,.23-.15.2.2,0,0,1,.15.23c-.51,2.34,1.15,4.07,6.31,6.63,5.34,2.65,6.67,10.88,6.71,13.55a6.76,6.76,0,0,1-2,5.14A5.78,5.78,0,0,1,115.25,77.43Z"/><path class="cls-4" d="M107.94,51.29a.2.2,0,0,1-.19-.21,36.27,36.27,0,0,1,1.43-5.85,5.24,5.24,0,0,0-.82-4.27,5.52,5.52,0,0,0-3.52-1.81c-.64-.27-4.86-1.55-6.72-.95a4.88,4.88,0,0,0-3.42,4.63l3.46.63c-.08-.71-.21-2.6.65-3.22.3.2,0,3.12.88,4.87a.19.19,0,0,1-.08.26.18.18,0,0,1-.25-.08A9.15,9.15,0,0,1,98.69,41a5.93,5.93,0,0,0-.11,2.62c-.22.22-4.1-.48-4.1-.48A4.93,4.93,0,0,1,98,37.84c2-.64,6.19.63,6.9.93a5.83,5.83,0,0,1,3.76,1.95,5.51,5.51,0,0,1,1,4.39,37.25,37.25,0,0,0-1.48,6A.19.19,0,0,1,107.94,51.29Z"/><path class="cls-4" d="M94.88,50.76a2.06,2.06,0,0,1-.84-.18.19.19,0,1,1,.17-.35A1.37,1.37,0,0,0,95.79,50a.19.19,0,1,1,.29.25A1.55,1.55,0,0,1,94.88,50.76Z"/><path class="cls-4" d="M99.37,47a.19.19,0,0,1-.18-.22l.23-1.5a.2.2,0,0,1,.22-.16.18.18,0,0,1,.16.22l-.24,1.49A.19.19,0,0,1,99.37,47Z"/><path class="cls-4" d="M20.66,79.35a.2.2,0,0,1-.19-.19V61.46a.19.19,0,0,1,.19-.19.18.18,0,0,1,.19.19v17.7A.19.19,0,0,1,20.66,79.35Z"/><path class="cls-4" d="M84.2,37.84H80.35a.19.19,0,0,1-.19-.19.18.18,0,0,1,.19-.19H84.2a.18.18,0,0,1,.19.19A.19.19,0,0,1,84.2,37.84Z"/><path class="cls-4" d="M77.17,37.84H67.55a.19.19,0,0,1-.19-.19.18.18,0,0,1,.19-.19h9.62a.19.19,0,0,1,.19.19A.2.2,0,0,1,77.17,37.84Z"/><path class="cls-4" d="M78.32,42.47H67.55a.19.19,0,0,1-.19-.19.18.18,0,0,1,.19-.19H78.32a.18.18,0,0,1,.19.19A.19.19,0,0,1,78.32,42.47Z"/><path class="cls-4" d="M71.61,76.52H62.13a.19.19,0,0,1-.2-.19V66.57a.2.2,0,0,1,.2-.19h6.52a.2.2,0,0,1,.19.19.19.19,0,0,1-.19.19H62.32v9.38h9.29a.2.2,0,0,1,.2.19A.19.19,0,0,1,71.61,76.52Z"/><path class="cls-4" d="M118.21,38.81h-6.79a.2.2,0,0,1-.2-.19v-6.8a.19.19,0,0,1,.2-.19h6.79a.18.18,0,0,1,.19.19v6.8A.19.19,0,0,1,118.21,38.81Zm-6.6-.38H118V32h-6.41Z"/><path class="cls-4" d="M118.21,51.84h-6.79a.2.2,0,0,1-.2-.19v-6.8a.19.19,0,0,1,.2-.19h6.79a.18.18,0,0,1,.19.19v6.8A.19.19,0,0,1,118.21,51.84Zm-6.6-.38H118V45h-6.41Z"/><path class="cls-4" d="M91.17,84.29a6.81,6.81,0,0,0-6.57-4.22c-2.94,0-5.55,1.62-6.34,3.94a.19.19,0,1,1-.36-.12c.84-2.47,3.6-4.2,6.7-4.2s6,1.79,6.75,4.36a.19.19,0,0,1-.12.24Z"/></svg>