<?xml version="1.0" encoding="utf-8"?>
<!-- Generator: Adobe Illustrator 26.0.1, SVG Export Plug-In . SVG Version: 6.00 Build 0)  -->
<svg version="1.1" id="Layer_1" xmlns="http://www.w3.org/2000/svg" xmlns:xlink="http://www.w3.org/1999/xlink" x="0px" y="0px"
	 viewBox="0 0 1615.2 571.7" style="enable-background:new 0 0 1615.2 571.7;" xml:space="preserve">
<style type="text/css">
	.st0{fill:#00B2AC;}
	.st1{fill:#F9C3DC;}
	.st2{enable-background:new    ;}
	.st3{fill:none;stroke:#1A6071;stroke-width:3;stroke-miterlimit:10;}
	.st4{fill:#1A6071;}
	.st5{fill:none;stroke:#F282B4;stroke-width:3;stroke-miterlimit:10;stroke-dasharray:10.99,10.99;}
	.st6{fill:#F282B4;}
	.st7{fill:none;stroke:#F282B4;stroke-width:3;stroke-miterlimit:10;}
	.st8{fill:none;stroke:#F282B4;stroke-width:3;stroke-miterlimit:10;stroke-dasharray:7.17,7.17;}
	.st9{fill:none;stroke:#F282B4;stroke-width:3;stroke-miterlimit:10;stroke-dasharray:8.27,8.27;}
	.st10{fill:none;stroke:#F282B4;stroke-width:3;stroke-miterlimit:10;stroke-dasharray:7.98,7.98;}
	.st11{fill:none;stroke:#1A6071;stroke-width:3.52;stroke-miterlimit:10;}
</style>
<path class="st0" d="M1252,90.7h159.3c2.8,0,5,2.2,5,5v44.9c0,2.8-2.2,5-5,5H1252c-2.8,0-5-2.2-5-5V95.7
	C1247,92.9,1249.2,90.7,1252,90.7z"/>
<path class="st0" d="M806.2,88.2h90.9c2.8,0,5,2.2,5,5v44.9c0,2.8-2.2,5-5,5h-90.9c-2.8,0-5-2.2-5-5V93.2
	C801.2,90.5,803.4,88.2,806.2,88.2z"/>
<path class="st0" d="M291,88.2h159.3c2.8,0,5,2.2,5,5v44.9c0,2.8-2.2,5-5,5H291c-2.8,0-5-2.2-5-5V93.2C286,90.5,288.2,88.2,291,88.2
	z"/>
<path class="st0" d="M1335.7,487.9h246.2c2.8,0,5,2.2,5,5v44.9c0,2.8-2.2,5-5,5h-246.2c-2.8,0-5-2.2-5-5v-44.9
	C1330.7,490.2,1332.9,487.9,1335.7,487.9z"/>
<circle class="st1" cx="113.1" cy="116.2" r="90.3"/>
<g class="st2">
	<path d="M63,121.8c-1.1-1.1-1.7-2.7-1.8-5c0-0.5,0-1.2,0-2c0-0.9,0-1.6,0-2c0.1-2.2,0.7-3.8,1.9-4.9s2.8-1.7,4.8-1.7
		c2,0,3.6,0.6,4.8,1.7c1.2,1.1,1.8,2.8,1.9,4.9c0,0.9,0,1.6,0,2c0,0.4,0,1.1,0,2c-0.1,2.2-0.7,3.9-1.8,5c-1.1,1.1-2.8,1.6-4.8,1.6
		C65.7,123.4,64.1,122.9,63,121.8z M70.9,120.2c0.8-0.8,1.2-1.9,1.2-3.5c0-1,0-1.6,0-1.9c0-0.4,0-1,0-1.9c-0.1-1.6-0.5-2.8-1.2-3.5
		c-0.8-0.8-1.8-1.2-3-1.2c-1.3,0-2.3,0.4-3,1.2c-0.8,0.8-1.2,1.9-1.2,3.5c0,0.5,0,1.1,0,1.9c0,0.8,0,1.4,0,1.9
		c0.1,1.6,0.5,2.8,1.2,3.5c0.8,0.8,1.8,1.2,3,1.2C69.1,121.4,70.1,121,70.9,120.2z"/>
	<path d="M77.9,127.6c-0.1-0.1-0.2-0.2-0.2-0.4v-15.9c0-0.2,0.1-0.3,0.2-0.4c0.1-0.1,0.2-0.2,0.4-0.2h1.1c0.2,0,0.3,0.1,0.4,0.2
		c0.1,0.1,0.2,0.2,0.2,0.4v1.1c0.9-1.2,2.2-1.8,3.9-1.8c1.7,0,2.9,0.5,3.8,1.6c0.8,1.1,1.3,2.4,1.4,4.1c0,0.2,0,0.4,0,0.8
		c0,0.4,0,0.6,0,0.8c-0.1,1.6-0.5,3-1.4,4.1c-0.8,1.1-2.1,1.6-3.8,1.6s-3-0.6-3.9-1.8v5.6c0,0.2,0,0.3-0.1,0.4
		c-0.1,0.1-0.2,0.2-0.4,0.2h-1.2C78.1,127.7,78,127.7,77.9,127.6z M85.9,120.4c0.5-0.7,0.8-1.6,0.9-2.8c0-0.2,0-0.4,0-0.7
		c0-3-1.1-4.5-3.4-4.5c-1.1,0-1.9,0.4-2.5,1.1c-0.6,0.7-0.9,1.6-0.9,2.6l0,0.9l0,0.9c0,0.9,0.3,1.8,0.9,2.5c0.6,0.7,1.4,1.1,2.5,1.1
		C84.5,121.5,85.4,121.1,85.9,120.4z"/>
	<path d="M93.1,121.9c-1-1-1.5-2.4-1.6-4.2l0-0.8l0-0.8c0.1-1.7,0.7-3.1,1.6-4.1c1-1,2.3-1.5,3.9-1.5c1.8,0,3.2,0.6,4.1,1.7
		c1,1.1,1.5,2.7,1.5,4.6v0.4c0,0.2-0.1,0.3-0.2,0.4c-0.1,0.1-0.2,0.2-0.4,0.2h-8.3v0.2c0,1,0.4,1.9,0.9,2.7c0.6,0.7,1.4,1.1,2.3,1.1
		c0.7,0,1.3-0.1,1.8-0.4c0.5-0.3,0.8-0.6,1-0.9c0.1-0.2,0.3-0.3,0.3-0.3c0.1,0,0.2-0.1,0.4-0.1h1.2c0.1,0,0.3,0,0.4,0.1
		c0.1,0.1,0.1,0.2,0.1,0.3c0,0.4-0.2,0.8-0.7,1.3s-1.1,0.9-1.8,1.3c-0.8,0.4-1.7,0.5-2.7,0.5C95.4,123.4,94.1,122.9,93.1,121.9z
		 M100.3,116L100.3,116c0-1.2-0.3-2.1-0.9-2.8c-0.6-0.7-1.4-1-2.4-1c-1,0-1.8,0.3-2.4,1s-0.9,1.6-0.9,2.7v0.1H100.3z"/>
	<path d="M105.6,123c-0.1-0.1-0.2-0.2-0.2-0.4v-11.4c0-0.2,0.1-0.3,0.2-0.4c0.1-0.1,0.2-0.2,0.4-0.2h1.1c0.2,0,0.3,0.1,0.4,0.2
		c0.1,0.1,0.2,0.2,0.2,0.4v1.1c0.5-0.6,1-1,1.6-1.4c0.6-0.3,1.4-0.5,2.4-0.5c1.5,0,2.7,0.5,3.6,1.5c0.9,1,1.3,2.3,1.3,3.9v6.8
		c0,0.2-0.1,0.3-0.2,0.4c-0.1,0.1-0.2,0.2-0.4,0.2h-1.2c-0.2,0-0.3-0.1-0.4-0.2c-0.1-0.1-0.2-0.2-0.2-0.4V116c0-1.1-0.3-2-0.8-2.6
		s-1.3-0.9-2.4-0.9c-1,0-1.8,0.3-2.4,0.9c-0.6,0.6-0.9,1.5-0.9,2.6v6.6c0,0.2-0.1,0.3-0.2,0.4c-0.1,0.1-0.2,0.2-0.4,0.2H106
		C105.9,123.2,105.7,123.1,105.6,123z"/>
	<path d="M127.2,122.9c-0.7-0.3-1.2-0.8-1.6-1.3c-0.4-0.6-0.6-1.2-0.6-1.8c0-1.1,0.4-1.9,1.3-2.6c0.9-0.7,2.1-1.1,3.5-1.3l3.6-0.5
		v-0.7c0-1.6-0.9-2.4-2.8-2.4c-0.7,0-1.3,0.1-1.7,0.4c-0.4,0.3-0.8,0.6-1,1c0,0.1-0.1,0.2-0.2,0.3c-0.1,0.1-0.2,0.1-0.3,0.1h-1
		c-0.1,0-0.3-0.1-0.4-0.2c-0.1-0.1-0.2-0.2-0.2-0.4c0-0.4,0.2-0.8,0.5-1.3c0.3-0.5,0.9-0.9,1.6-1.3c0.7-0.4,1.6-0.5,2.7-0.5
		c1.8,0,3.1,0.4,3.9,1.3s1.2,1.9,1.2,3.1v7.8c0,0.2-0.1,0.3-0.2,0.4c-0.1,0.1-0.2,0.2-0.4,0.2H134c-0.2,0-0.3-0.1-0.4-0.2
		c-0.1-0.1-0.2-0.2-0.2-0.4v-1c-0.4,0.5-0.9,0.9-1.5,1.3s-1.5,0.5-2.6,0.5C128.6,123.4,127.9,123.3,127.2,122.9z M132.4,120.6
		c0.7-0.7,1-1.7,1-2.9V117l-2.8,0.4c-1.1,0.2-2,0.4-2.6,0.8c-0.6,0.4-0.9,0.9-0.9,1.4c0,0.6,0.3,1.1,0.8,1.5
		c0.5,0.3,1.2,0.5,1.9,0.5C130.9,121.6,131.8,121.3,132.4,120.6z"/>
	<path d="M139.3,127.6c-0.1-0.1-0.2-0.2-0.2-0.4v-15.9c0-0.2,0.1-0.3,0.2-0.4c0.1-0.1,0.2-0.2,0.4-0.2h1.1c0.2,0,0.3,0.1,0.4,0.2
		c0.1,0.1,0.2,0.2,0.2,0.4v1.1c0.9-1.2,2.2-1.8,3.9-1.8c1.7,0,2.9,0.5,3.8,1.6c0.8,1.1,1.3,2.4,1.4,4.1c0,0.2,0,0.4,0,0.8
		c0,0.4,0,0.6,0,0.8c-0.1,1.6-0.5,3-1.4,4.1c-0.8,1.1-2.1,1.6-3.8,1.6c-1.7,0-3-0.6-3.9-1.8v5.6c0,0.2,0,0.3-0.1,0.4
		c-0.1,0.1-0.2,0.2-0.4,0.2h-1.2C139.6,127.7,139.4,127.7,139.3,127.6z M147.3,120.4c0.5-0.7,0.8-1.6,0.9-2.8c0-0.2,0-0.4,0-0.7
		c0-3-1.1-4.5-3.4-4.5c-1.1,0-1.9,0.4-2.5,1.1c-0.6,0.7-0.9,1.6-0.9,2.6l0,0.9l0,0.9c0,0.9,0.3,1.8,0.9,2.5s1.4,1.1,2.5,1.1
		C145.9,121.5,146.8,121.1,147.3,120.4z"/>
	<path d="M153.6,127.6c-0.1-0.1-0.2-0.2-0.2-0.4v-15.9c0-0.2,0.1-0.3,0.2-0.4c0.1-0.1,0.2-0.2,0.4-0.2h1.1c0.2,0,0.3,0.1,0.4,0.2
		c0.1,0.1,0.2,0.2,0.2,0.4v1.1c0.9-1.2,2.2-1.8,3.9-1.8c1.7,0,2.9,0.5,3.8,1.6c0.8,1.1,1.3,2.4,1.4,4.1c0,0.2,0,0.4,0,0.8
		c0,0.4,0,0.6,0,0.8c-0.1,1.6-0.5,3-1.4,4.1c-0.8,1.1-2.1,1.6-3.8,1.6c-1.7,0-3-0.6-3.9-1.8v5.6c0,0.2,0,0.3-0.1,0.4
		c-0.1,0.1-0.2,0.2-0.4,0.2H154C153.9,127.7,153.7,127.7,153.6,127.6z M161.6,120.4c0.5-0.7,0.8-1.6,0.9-2.8c0-0.2,0-0.4,0-0.7
		c0-3-1.1-4.5-3.4-4.5c-1.1,0-1.9,0.4-2.5,1.1c-0.6,0.7-0.9,1.6-0.9,2.6l0,0.9l0,0.9c0,0.9,0.3,1.8,0.9,2.5s1.4,1.1,2.5,1.1
		C160.2,121.5,161.1,121.1,161.6,120.4z"/>
</g>
<circle class="st1" cx="628.2" cy="116.2" r="90.3"/>
<g class="st2">
	<path d="M555.2,123c-0.1-0.1-0.2-0.2-0.2-0.4V107c0-0.2,0.1-0.3,0.2-0.4c0.1-0.1,0.2-0.2,0.4-0.2h6.6c1.7,0,3,0.4,3.9,1.2
		c0.9,0.8,1.3,1.9,1.3,3.2c0,0.9-0.2,1.6-0.6,2.2c-0.4,0.6-0.9,1-1.5,1.3c0.7,0.3,1.2,0.9,1.7,1.6c0.5,0.7,0.7,1.5,0.7,2.4
		c0,0.9-0.2,1.7-0.6,2.4c-0.4,0.7-1,1.3-1.8,1.8c-0.8,0.4-1.8,0.6-2.9,0.6h-6.8C555.5,123.2,555.3,123.1,555.2,123z M561.9,113.5
		c1,0,1.8-0.2,2.3-0.7s0.8-1.1,0.8-1.9c0-0.8-0.3-1.4-0.8-1.9c-0.5-0.4-1.3-0.6-2.3-0.6h-4.4v5.2H561.9z M562.1,121.2
		c1,0,1.8-0.3,2.4-0.8s0.9-1.2,0.9-2.1c0-0.9-0.3-1.6-0.9-2.1s-1.4-0.8-2.4-0.8h-4.7v5.8H562.1z"/>
	<path d="M572.1,122.9c-0.7-0.3-1.2-0.8-1.6-1.3c-0.4-0.6-0.6-1.2-0.6-1.8c0-1.1,0.4-1.9,1.3-2.6c0.9-0.7,2.1-1.1,3.5-1.3l3.6-0.5
		v-0.7c0-1.6-0.9-2.4-2.8-2.4c-0.7,0-1.3,0.1-1.7,0.4c-0.4,0.3-0.8,0.6-1,1c0,0.1-0.1,0.2-0.2,0.3c-0.1,0.1-0.2,0.1-0.3,0.1h-1
		c-0.1,0-0.3-0.1-0.4-0.2c-0.1-0.1-0.2-0.2-0.2-0.4c0-0.4,0.2-0.8,0.5-1.3c0.3-0.5,0.9-0.9,1.6-1.3c0.7-0.4,1.6-0.5,2.7-0.5
		c1.8,0,3.1,0.4,3.9,1.3c0.8,0.8,1.2,1.9,1.2,3.1v7.8c0,0.2-0.1,0.3-0.2,0.4c-0.1,0.1-0.2,0.2-0.4,0.2h-1.1c-0.2,0-0.3-0.1-0.4-0.2
		c-0.1-0.1-0.2-0.2-0.2-0.4v-1c-0.4,0.5-0.9,0.9-1.5,1.3c-0.7,0.4-1.5,0.5-2.6,0.5C573.5,123.4,572.8,123.3,572.1,122.9z
		 M577.3,120.6c0.7-0.7,1-1.7,1-2.9V117l-2.8,0.4c-1.1,0.2-2,0.4-2.6,0.8c-0.6,0.4-0.9,0.9-0.9,1.4c0,0.6,0.3,1.1,0.8,1.5
		c0.5,0.3,1.2,0.5,1.9,0.5C575.8,121.6,576.7,121.3,577.3,120.6z"/>
</g>
<g class="st2">
	<path d="M584.2,123c-0.1-0.1-0.2-0.2-0.2-0.4v-15.9c0-0.2,0.1-0.3,0.2-0.4c0.1-0.1,0.2-0.2,0.4-0.2h1.1c0.2,0,0.3,0.1,0.4,0.2
		c0.1,0.1,0.2,0.2,0.2,0.4v8.4l4.7-3.9c0,0,0.1-0.1,0.2-0.2c0.1-0.1,0.2-0.1,0.3-0.2c0.1,0,0.2,0,0.4,0h1.3c0.1,0,0.3,0,0.4,0.1
		c0.1,0.1,0.1,0.2,0.1,0.4c0,0.2-0.1,0.3-0.3,0.5l-5.5,4.6l6.1,6c0.2,0.2,0.3,0.3,0.3,0.4c0,0.1,0,0.3-0.1,0.4
		c-0.1,0.1-0.2,0.1-0.4,0.1h-1.2c-0.2,0-0.4,0-0.5-0.1c-0.1,0-0.3-0.2-0.4-0.3l-5.4-5.1v5c0,0.2-0.1,0.3-0.2,0.4
		c-0.1,0.1-0.2,0.2-0.4,0.2h-1.1C584.5,123.2,584.3,123.1,584.2,123z"/>
</g>
<g class="st2">
	<path d="M596.9,121.9c-1-1-1.5-2.4-1.6-4.2l0-0.8l0-0.8c0.1-1.7,0.7-3.1,1.6-4.1c1-1,2.3-1.5,3.9-1.5c1.8,0,3.2,0.6,4.1,1.7
		c1,1.1,1.5,2.7,1.5,4.6v0.4c0,0.2-0.1,0.3-0.2,0.4c-0.1,0.1-0.2,0.2-0.4,0.2h-8.3v0.2c0,1,0.4,1.9,0.9,2.7c0.6,0.7,1.4,1.1,2.3,1.1
		c0.7,0,1.3-0.1,1.8-0.4c0.5-0.3,0.8-0.6,1-0.9c0.1-0.2,0.3-0.3,0.3-0.3c0.1,0,0.2-0.1,0.4-0.1h1.2c0.1,0,0.3,0,0.4,0.1
		c0.1,0.1,0.1,0.2,0.1,0.3c0,0.4-0.2,0.8-0.7,1.3s-1.1,0.9-1.8,1.3c-0.8,0.4-1.7,0.5-2.7,0.5C599.2,123.4,597.9,122.9,596.9,121.9z
		 M604.1,116L604.1,116c0-1.2-0.3-2.1-0.9-2.8c-0.6-0.7-1.4-1-2.4-1c-1,0-1.8,0.3-2.4,1s-0.9,1.6-0.9,2.7v0.1H604.1z"/>
	<path d="M609.5,123c-0.1-0.1-0.2-0.2-0.2-0.4v-11.4c0-0.2,0.1-0.3,0.2-0.4c0.1-0.1,0.2-0.2,0.4-0.2h1.1c0.2,0,0.3,0.1,0.4,0.2
		c0.1,0.1,0.2,0.2,0.2,0.4v1.1c0.7-1.1,1.8-1.6,3.4-1.6h0.9c0.2,0,0.3,0.1,0.4,0.2c0.1,0.1,0.2,0.2,0.2,0.4v1c0,0.2-0.1,0.3-0.2,0.4
		c-0.1,0.1-0.2,0.1-0.4,0.1h-1.4c-0.9,0-1.5,0.3-2,0.8c-0.5,0.5-0.7,1.2-0.7,2.1v7.1c0,0.2-0.1,0.3-0.2,0.4
		c-0.1,0.1-0.2,0.2-0.4,0.2h-1.2C609.7,123.2,609.6,123.1,609.5,123z"/>
</g>
<g class="st2">
	<path d="M620.3,127.6c-0.1-0.1-0.1-0.2-0.1-0.3c0-0.1,0-0.3,0.1-0.4l1.8-4.4l-4.6-10.8c-0.1-0.2-0.1-0.3-0.1-0.4
		c0-0.1,0-0.3,0.1-0.4c0.1-0.1,0.2-0.1,0.4-0.1h1.2c0.3,0,0.4,0.1,0.6,0.4l3.6,8.7l3.7-8.7c0.1-0.3,0.3-0.4,0.6-0.4h1.1
		c0.1,0,0.3,0,0.4,0.1s0.1,0.2,0.1,0.3c0,0,0,0.2-0.1,0.4l-6.8,15.7c-0.1,0.3-0.3,0.4-0.6,0.4h-1.1
		C620.5,127.7,620.4,127.7,620.3,127.6z"/>
</g>
<g class="st2">
	<path d="M637.1,123c-0.1-0.1-0.2-0.2-0.2-0.4v-11.4c0-0.2,0.1-0.3,0.2-0.4c0.1-0.1,0.2-0.2,0.4-0.2h1.1c0.2,0,0.3,0.1,0.4,0.2
		c0.1,0.1,0.2,0.2,0.2,0.4v0.8c0.8-1.1,2-1.6,3.5-1.6c1.8,0,3,0.7,3.8,2.2c0.4-0.7,0.9-1.2,1.6-1.6c0.7-0.4,1.5-0.6,2.4-0.6
		c1.3,0,2.4,0.4,3.2,1.3c0.8,0.9,1.2,2.2,1.2,3.9v6.9c0,0.2-0.1,0.3-0.2,0.4c-0.1,0.1-0.2,0.2-0.4,0.2h-1.1c-0.2,0-0.3-0.1-0.4-0.2
		c-0.1-0.1-0.2-0.2-0.2-0.4v-6.7c0-1.2-0.3-2.1-0.8-2.7s-1.2-0.8-2.1-0.8c-0.8,0-1.4,0.3-1.9,0.8s-0.8,1.4-0.8,2.7v6.7
		c0,0.2-0.1,0.3-0.2,0.4c-0.1,0.1-0.2,0.2-0.4,0.2h-1.1c-0.2,0-0.3-0.1-0.4-0.2c-0.1-0.1-0.2-0.2-0.2-0.4v-6.7
		c0-1.2-0.3-2.1-0.8-2.7s-1.2-0.8-2-0.8c-0.8,0-1.4,0.3-1.9,0.8c-0.5,0.6-0.8,1.4-0.8,2.7v6.7c0,0.2-0.1,0.3-0.2,0.4
		c-0.1,0.1-0.2,0.2-0.4,0.2h-1.2C637.3,123.2,637.2,123.1,637.1,123z"/>
	<path d="M659.3,121.9c-1-1-1.5-2.4-1.6-4.2l0-0.8l0-0.8c0.1-1.7,0.7-3.1,1.6-4.1c1-1,2.3-1.5,3.9-1.5c1.8,0,3.2,0.6,4.1,1.7
		c1,1.1,1.5,2.7,1.5,4.6v0.4c0,0.2-0.1,0.3-0.2,0.4c-0.1,0.1-0.2,0.2-0.4,0.2H660v0.2c0,1,0.4,1.9,0.9,2.7c0.6,0.7,1.4,1.1,2.3,1.1
		c0.7,0,1.3-0.1,1.8-0.4c0.5-0.3,0.8-0.6,1-0.9c0.1-0.2,0.3-0.3,0.3-0.3c0.1,0,0.2-0.1,0.4-0.1h1.2c0.1,0,0.3,0,0.4,0.1
		c0.1,0.1,0.1,0.2,0.1,0.3c0,0.4-0.2,0.8-0.7,1.3s-1.1,0.9-1.8,1.3c-0.8,0.4-1.7,0.5-2.7,0.5C661.6,123.4,660.3,122.9,659.3,121.9z
		 M666.5,116L666.5,116c0-1.2-0.3-2.1-0.9-2.8c-0.6-0.7-1.4-1-2.4-1c-1,0-1.8,0.3-2.4,1s-0.9,1.6-0.9,2.7v0.1H666.5z"/>
	<path d="M671.9,123c-0.1-0.1-0.2-0.2-0.2-0.4v-11.4c0-0.2,0.1-0.3,0.2-0.4c0.1-0.1,0.2-0.2,0.4-0.2h1.1c0.2,0,0.3,0.1,0.4,0.2
		c0.1,0.1,0.2,0.2,0.2,0.4v1.1c0.5-0.6,1-1,1.6-1.4c0.6-0.3,1.4-0.5,2.4-0.5c1.5,0,2.7,0.5,3.6,1.5c0.9,1,1.3,2.3,1.3,3.9v6.8
		c0,0.2-0.1,0.3-0.2,0.4c-0.1,0.1-0.2,0.2-0.4,0.2h-1.2c-0.2,0-0.3-0.1-0.4-0.2c-0.1-0.1-0.2-0.2-0.2-0.4V116c0-1.1-0.3-2-0.8-2.6
		c-0.6-0.6-1.3-0.9-2.4-0.9c-1,0-1.8,0.3-2.4,0.9c-0.6,0.6-0.9,1.5-0.9,2.6v6.6c0,0.2-0.1,0.3-0.2,0.4c-0.1,0.1-0.2,0.2-0.4,0.2
		h-1.2C672.1,123.2,672,123.1,671.9,123z"/>
	<path d="M687.4,122c-0.8-1-1.2-2.3-1.2-3.9v-6.8c0-0.2,0.1-0.3,0.2-0.4c0.1-0.1,0.2-0.2,0.4-0.2h1.2c0.2,0,0.3,0.1,0.4,0.2
		c0.1,0.1,0.2,0.2,0.2,0.4v6.6c0,2.4,1,3.6,3.1,3.6c1,0,1.8-0.3,2.4-0.9c0.6-0.6,0.9-1.5,0.9-2.6v-6.6c0-0.2,0.1-0.3,0.2-0.4
		c0.1-0.1,0.2-0.2,0.4-0.2h1.2c0.2,0,0.3,0.1,0.4,0.2c0.1,0.1,0.1,0.2,0.1,0.4v11.4c0,0.2,0,0.3-0.1,0.4c-0.1,0.1-0.2,0.2-0.4,0.2
		h-1.1c-0.2,0-0.3-0.1-0.4-0.2c-0.1-0.1-0.2-0.2-0.2-0.4v-1.1c-0.4,0.6-1,1.1-1.6,1.4c-0.6,0.3-1.4,0.5-2.4,0.5
		C689.4,123.4,688.2,122.9,687.4,122z"/>
</g>
<g class="st2">
	<path d="M1067.4,305.3c-0.1-0.1-0.2-0.2-0.2-0.4v-5.7l-5.8-9.8c0,0,0-0.1,0-0.1c0-0.1,0-0.1,0-0.2c0-0.1,0-0.2,0.1-0.3
		c0.1-0.1,0.2-0.1,0.3-0.1h1.2c0.3,0,0.5,0.1,0.6,0.4l4.7,7.8l4.7-7.8c0.2-0.3,0.4-0.4,0.6-0.4h1.2c0.1,0,0.3,0,0.4,0.1
		c0.1,0.1,0.1,0.2,0.1,0.3c0,0.1,0,0.2-0.1,0.3l-5.8,9.8v5.7c0,0.2-0.1,0.3-0.2,0.4c-0.1,0.1-0.2,0.2-0.4,0.2h-1.2
		C1067.6,305.4,1067.5,305.4,1067.4,305.3z"/>
</g>
<g class="st2">
	<path d="M1441.4,444.2c-0.1-0.1-0.2-0.2-0.2-0.4v-5.7l-5.8-9.8c0,0,0-0.1,0-0.1c0-0.1,0-0.1,0-0.2c0-0.1,0-0.2,0.1-0.3
		c0.1-0.1,0.2-0.1,0.3-0.1h1.2c0.3,0,0.5,0.1,0.6,0.4l4.7,7.8l4.7-7.8c0.2-0.3,0.4-0.4,0.6-0.4h1.2c0.1,0,0.3,0,0.4,0.1
		c0.1,0.1,0.1,0.2,0.1,0.3c0,0.1,0,0.2-0.1,0.3l-5.8,9.8v5.7c0,0.2-0.1,0.3-0.2,0.4c-0.1,0.1-0.2,0.2-0.4,0.2h-1.2
		C1441.6,444.3,1441.5,444.3,1441.4,444.2z"/>
</g>
<g class="st2">
	<path d="M1553.2,305.3c-0.1-0.1-0.2-0.2-0.2-0.4v-15.7c0-0.2,0.1-0.3,0.2-0.4c0.1-0.1,0.2-0.2,0.4-0.2h1.1c0.3,0,0.5,0.1,0.6,0.3
		l8,12.2v-12c0-0.2,0.1-0.3,0.2-0.4c0.1-0.1,0.2-0.2,0.4-0.2h1.2c0.2,0,0.3,0.1,0.4,0.2c0.1,0.1,0.2,0.2,0.2,0.4v15.6
		c0,0.2-0.1,0.3-0.2,0.4c-0.1,0.1-0.2,0.2-0.4,0.2h-1.2c-0.2,0-0.4-0.1-0.6-0.3l-7.9-12.1v11.9c0,0.2-0.1,0.3-0.2,0.4
		c-0.1,0.1-0.2,0.2-0.4,0.2h-1.2C1553.4,305.4,1553.3,305.4,1553.2,305.3z"/>
</g>
<g class="st2">
	<path d="M1300.8,305.3c-0.1-0.1-0.2-0.2-0.2-0.4v-15.7c0-0.2,0.1-0.3,0.2-0.4c0.1-0.1,0.2-0.2,0.4-0.2h1.1c0.3,0,0.5,0.1,0.6,0.3
		l8,12.2v-12c0-0.2,0.1-0.3,0.2-0.4c0.1-0.1,0.2-0.2,0.4-0.2h1.2c0.2,0,0.3,0.1,0.4,0.2c0.1,0.1,0.2,0.2,0.2,0.4v15.6
		c0,0.2-0.1,0.3-0.2,0.4c-0.1,0.1-0.2,0.2-0.4,0.2h-1.2c-0.2,0-0.4-0.1-0.6-0.3l-7.9-12.1v11.9c0,0.2-0.1,0.3-0.2,0.4
		c-0.1,0.1-0.2,0.2-0.4,0.2h-1.2C1301.1,305.4,1300.9,305.4,1300.8,305.3z"/>
</g>
<g class="st2">
	<path d="M312.5,122.5c-0.1-0.1-0.2-0.2-0.2-0.4v-15.7c0-0.2,0.1-0.3,0.2-0.4c0.1-0.1,0.2-0.2,0.4-0.2h1.2c0.2,0,0.3,0.1,0.4,0.2
		c0.1,0.1,0.2,0.2,0.2,0.4v6.6h8.3v-6.6c0-0.2,0.1-0.3,0.2-0.4c0.1-0.1,0.2-0.2,0.4-0.2h1.2c0.2,0,0.3,0.1,0.4,0.2
		c0.1,0.1,0.2,0.2,0.2,0.4v15.7c0,0.2-0.1,0.3-0.2,0.4c-0.1,0.1-0.2,0.2-0.4,0.2h-1.2c-0.2,0-0.3-0.1-0.4-0.2
		c-0.1-0.1-0.2-0.2-0.2-0.4v-6.9h-8.3v6.9c0,0.2-0.1,0.3-0.2,0.4c-0.1,0.1-0.2,0.2-0.4,0.2h-1.2
		C312.7,122.7,312.6,122.6,312.5,122.5z"/>
	<path d="M330.1,121.4c-1-1-1.5-2.3-1.5-4l0-1l0-1c0.1-1.6,0.6-2.9,1.6-3.9c1-1,2.3-1.5,4.1-1.5c1.7,0,3.1,0.5,4.1,1.5
		s1.5,2.3,1.6,3.9c0,0.2,0,0.5,0,1c0,0.5,0,0.9,0,1c-0.1,1.6-0.6,3-1.5,4c-1,1-2.3,1.5-4.1,1.5C332.5,122.9,331.1,122.4,330.1,121.4
		z M336.6,120.1c0.6-0.6,0.9-1.6,0.9-2.8c0-0.2,0-0.5,0-0.9c0-0.4,0-0.8,0-0.9c0-1.2-0.4-2.1-0.9-2.8c-0.6-0.6-1.4-1-2.4-1
		c-1,0-1.8,0.3-2.4,1c-0.6,0.6-0.9,1.6-0.9,2.8l0,0.9l0,0.9c0,1.2,0.3,2.1,0.9,2.8c0.6,0.6,1.4,1,2.4,1
		C335.2,121.1,336,120.8,336.6,120.1z"/>
	<path d="M343.1,122.5c-0.1-0.1-0.2-0.2-0.2-0.4v-11.4c0-0.2,0.1-0.3,0.2-0.4c0.1-0.1,0.2-0.2,0.4-0.2h1.1c0.2,0,0.3,0.1,0.4,0.2
		c0.1,0.1,0.2,0.2,0.2,0.4v0.8c0.8-1.1,2-1.6,3.5-1.6c1.8,0,3,0.7,3.8,2.2c0.4-0.7,0.9-1.2,1.6-1.6c0.7-0.4,1.5-0.6,2.4-0.6
		c1.3,0,2.4,0.4,3.2,1.3c0.8,0.9,1.2,2.2,1.2,3.9v6.9c0,0.2-0.1,0.3-0.2,0.4c-0.1,0.1-0.2,0.2-0.4,0.2h-1.1c-0.2,0-0.3-0.1-0.4-0.2
		c-0.1-0.1-0.2-0.2-0.2-0.4v-6.7c0-1.2-0.3-2.1-0.8-2.7s-1.2-0.8-2.1-0.8c-0.8,0-1.4,0.3-1.9,0.8s-0.8,1.4-0.8,2.7v6.7
		c0,0.2-0.1,0.3-0.2,0.4c-0.1,0.1-0.2,0.2-0.4,0.2h-1.1c-0.2,0-0.3-0.1-0.4-0.2c-0.1-0.1-0.2-0.2-0.2-0.4v-6.7
		c0-1.2-0.3-2.1-0.8-2.7s-1.2-0.8-2-0.8c-0.8,0-1.4,0.3-1.9,0.8c-0.5,0.6-0.8,1.4-0.8,2.7v6.7c0,0.2-0.1,0.3-0.2,0.4
		c-0.1,0.1-0.2,0.2-0.4,0.2h-1.2C343.3,122.7,343.2,122.6,343.1,122.5z"/>
	<path d="M365.3,121.4c-1-1-1.5-2.4-1.6-4.2l0-0.8l0-0.8c0.1-1.7,0.7-3.1,1.6-4.1c1-1,2.3-1.5,3.9-1.5c1.8,0,3.2,0.6,4.1,1.7
		c1,1.1,1.5,2.7,1.5,4.6v0.4c0,0.2-0.1,0.3-0.2,0.4c-0.1,0.1-0.2,0.2-0.4,0.2h-8.3v0.2c0,1,0.4,1.9,0.9,2.7c0.6,0.7,1.4,1.1,2.3,1.1
		c0.7,0,1.3-0.1,1.8-0.4c0.5-0.3,0.8-0.6,1-0.9c0.1-0.2,0.3-0.3,0.3-0.3s0.2-0.1,0.4-0.1h1.2c0.1,0,0.3,0,0.4,0.1
		c0.1,0.1,0.1,0.2,0.1,0.3c0,0.4-0.2,0.8-0.7,1.3s-1.1,0.9-1.8,1.3c-0.8,0.4-1.7,0.5-2.7,0.5C367.6,122.9,366.3,122.4,365.3,121.4z
		 M372.5,115.5L372.5,115.5c0-1.2-0.3-2.1-0.9-2.8c-0.6-0.7-1.4-1-2.4-1s-1.8,0.3-2.4,1c-0.6,0.7-0.9,1.6-0.9,2.7v0.1H372.5z"/>
	<path d="M377.9,127.1c-0.1-0.1-0.2-0.2-0.2-0.4v-15.9c0-0.2,0.1-0.3,0.2-0.4c0.1-0.1,0.2-0.2,0.4-0.2h1.1c0.2,0,0.3,0.1,0.4,0.2
		c0.1,0.1,0.2,0.2,0.2,0.4v1.1c0.9-1.2,2.2-1.8,3.9-1.8c1.7,0,2.9,0.5,3.8,1.6c0.8,1.1,1.3,2.4,1.4,4.1c0,0.2,0,0.4,0,0.8
		c0,0.4,0,0.6,0,0.8c-0.1,1.6-0.5,3-1.4,4.1c-0.8,1.1-2.1,1.6-3.8,1.6c-1.7,0-3-0.6-3.9-1.8v5.6c0,0.2,0,0.3-0.1,0.4
		c-0.1,0.1-0.2,0.2-0.4,0.2h-1.2C378.1,127.2,378,127.2,377.9,127.1z M385.8,119.9c0.5-0.7,0.8-1.6,0.9-2.8c0-0.2,0-0.4,0-0.7
		c0-3-1.1-4.5-3.4-4.5c-1.1,0-1.9,0.4-2.5,1.1c-0.6,0.7-0.9,1.6-0.9,2.6l0,0.9l0,0.9c0,0.9,0.3,1.8,0.9,2.5s1.4,1.1,2.5,1.1
		C384.5,121,385.3,120.6,385.8,119.9z"/>
	<path d="M393.3,122.4c-0.7-0.3-1.2-0.8-1.6-1.3c-0.4-0.6-0.6-1.2-0.6-1.8c0-1.1,0.4-1.9,1.3-2.6c0.9-0.7,2.1-1.1,3.5-1.3l3.6-0.5
		v-0.7c0-1.6-0.9-2.4-2.8-2.4c-0.7,0-1.3,0.1-1.7,0.4c-0.4,0.3-0.8,0.6-1,1c0,0.1-0.1,0.2-0.2,0.3c-0.1,0.1-0.2,0.1-0.3,0.1h-1
		c-0.1,0-0.3-0.1-0.4-0.2c-0.1-0.1-0.2-0.2-0.2-0.4c0-0.4,0.2-0.8,0.5-1.3c0.3-0.5,0.9-0.9,1.6-1.3c0.7-0.4,1.6-0.5,2.7-0.5
		c1.8,0,3.1,0.4,3.9,1.3s1.2,1.9,1.2,3.1v7.8c0,0.2-0.1,0.3-0.2,0.4c-0.1,0.1-0.2,0.2-0.4,0.2h-1.1c-0.2,0-0.3-0.1-0.4-0.2
		c-0.1-0.1-0.2-0.2-0.2-0.4v-1c-0.4,0.5-0.9,0.9-1.5,1.3s-1.5,0.5-2.6,0.5C394.7,122.9,393.9,122.8,393.3,122.4z M398.5,120.1
		c0.7-0.7,1-1.7,1-2.9v-0.7l-2.8,0.4c-1.1,0.2-2,0.4-2.6,0.8c-0.6,0.4-0.9,0.9-0.9,1.4c0,0.6,0.3,1.1,0.8,1.5
		c0.5,0.3,1.2,0.5,1.9,0.5C397,121.1,397.9,120.8,398.5,120.1z"/>
	<path d="M407.2,127.3c-0.8-0.4-1.4-0.9-1.7-1.5c-0.3-0.6-0.5-1.1-0.6-1.5c0-0.2,0-0.3,0.2-0.4c0.1-0.1,0.3-0.2,0.4-0.2h1.2
		c0.1,0,0.3,0,0.4,0.1c0.1,0.1,0.2,0.2,0.2,0.4c0.2,0.5,0.5,1,0.9,1.3s1.1,0.6,2.1,0.6c1.2,0,2.1-0.3,2.6-0.8
		c0.6-0.5,0.8-1.4,0.8-2.7v-1.6c-0.4,0.5-0.9,0.9-1.6,1.3c-0.6,0.3-1.4,0.5-2.3,0.5c-1.7,0-3-0.5-3.8-1.6c-0.8-1.1-1.3-2.5-1.3-4.1
		l0-0.7l0-0.6c0-1.6,0.5-3,1.3-4.1c0.8-1.1,2.1-1.6,3.8-1.6c1.7,0,3,0.6,3.9,1.8v-1c0-0.2,0.1-0.3,0.2-0.4c0.1-0.1,0.2-0.2,0.4-0.2
		h1.1c0.2,0,0.3,0.1,0.4,0.2c0.1,0.1,0.2,0.2,0.2,0.4v11.6c0,3.7-1.9,5.5-5.6,5.5C409,128,408,127.7,407.2,127.3z M412.8,119.8
		c0.6-0.7,0.9-1.6,0.9-2.6c0-0.1,0-0.4,0-0.8c0-0.4,0-0.7,0-0.8c0-1-0.3-1.8-0.9-2.6c-0.6-0.7-1.4-1.1-2.5-1.1c-1.1,0-2,0.4-2.5,1.1
		c-0.5,0.7-0.8,1.6-0.8,2.8l0,0.6l0,0.6c0,1.1,0.3,2.1,0.8,2.8c0.5,0.7,1.3,1.1,2.5,1.1C411.4,120.9,412.2,120.5,412.8,119.8z"/>
	<path d="M420.6,121.4c-1-1-1.5-2.4-1.6-4.2l0-0.8l0-0.8c0.1-1.7,0.7-3.1,1.6-4.1c1-1,2.3-1.5,3.9-1.5c1.8,0,3.2,0.6,4.1,1.7
		c1,1.1,1.5,2.7,1.5,4.6v0.4c0,0.2-0.1,0.3-0.2,0.4c-0.1,0.1-0.2,0.2-0.4,0.2h-8.3v0.2c0,1,0.4,1.9,0.9,2.7c0.6,0.7,1.4,1.1,2.3,1.1
		c0.7,0,1.3-0.1,1.8-0.4c0.5-0.3,0.8-0.6,1-0.9c0.1-0.2,0.3-0.3,0.3-0.3s0.2-0.1,0.4-0.1h1.2c0.1,0,0.3,0,0.4,0.1
		c0.1,0.1,0.1,0.2,0.1,0.3c0,0.4-0.2,0.8-0.7,1.3s-1.1,0.9-1.8,1.3c-0.8,0.4-1.7,0.5-2.7,0.5C422.9,122.9,421.6,122.4,420.6,121.4z
		 M427.8,115.5L427.8,115.5c0-1.2-0.3-2.1-0.9-2.8c-0.6-0.7-1.4-1-2.4-1s-1.8,0.3-2.4,1c-0.6,0.7-0.9,1.6-0.9,2.7v0.1H427.8z"/>
</g>
<line class="st3" x1="207.6" y1="116.2" x2="271" y2="116.2"/>
<polygon class="st4" points="268.8,123.7 281.8,116.2 268.8,108.7 "/>
<line class="st3" x1="459.5" y1="116.2" x2="522.9" y2="116.2"/>
<polygon class="st4" points="520.8,123.7 533.7,116.2 520.8,108.7 "/>
<g class="st2">
	<path d="M1354,521c-1.1-1.1-1.7-2.7-1.8-5c0-0.5,0-1.2,0-2c0-0.9,0-1.6,0-2c0.1-2.2,0.7-3.8,1.9-4.9c1.2-1.1,2.8-1.7,4.8-1.7
		c2,0,3.6,0.6,4.8,1.7c1.2,1.1,1.8,2.8,1.9,4.9c0,0.9,0,1.6,0,2c0,0.4,0,1.1,0,2c-0.1,2.2-0.7,3.9-1.8,5c-1.1,1.1-2.8,1.6-4.8,1.6
		C1356.8,522.6,1355.2,522.1,1354,521z M1361.9,519.4c0.8-0.8,1.2-1.9,1.2-3.5c0-1,0-1.6,0-1.9c0-0.4,0-1,0-1.9
		c-0.1-1.6-0.5-2.8-1.2-3.5c-0.8-0.8-1.8-1.2-3-1.2c-1.3,0-2.3,0.4-3,1.2c-0.8,0.8-1.2,1.9-1.2,3.5c0,0.5,0,1.1,0,1.9
		c0,0.8,0,1.4,0,1.9c0.1,1.6,0.5,2.8,1.2,3.5c0.8,0.8,1.8,1.2,3,1.2C1360.2,520.6,1361.2,520.2,1361.9,519.4z"/>
</g>
<g class="st2">
	<path d="M1368.9,522.2c-0.1-0.1-0.2-0.2-0.2-0.4v-11.4c0-0.2,0.1-0.3,0.2-0.4c0.1-0.1,0.2-0.2,0.4-0.2h1.1c0.2,0,0.3,0.1,0.4,0.2
		c0.1,0.1,0.2,0.2,0.2,0.4v1.1c0.7-1.1,1.8-1.6,3.4-1.6h0.9c0.2,0,0.3,0.1,0.4,0.2c0.1,0.1,0.2,0.2,0.2,0.4v1c0,0.2-0.1,0.3-0.2,0.4
		c-0.1,0.1-0.2,0.1-0.4,0.1h-1.4c-0.9,0-1.5,0.3-2,0.8s-0.7,1.2-0.7,2.1v7.1c0,0.2-0.1,0.3-0.2,0.4c-0.1,0.1-0.2,0.2-0.4,0.2h-1.2
		C1369.2,522.4,1369,522.3,1368.9,522.2z"/>
</g>
<g class="st2">
	<path d="M1378.4,521c-0.8-1.1-1.3-2.5-1.3-4.1l0-0.7l0-0.7c0-1.6,0.5-3,1.3-4.1c0.8-1.1,2.1-1.6,3.8-1.6c1.6,0,2.9,0.6,3.9,1.8
		v-5.5c0-0.2,0.1-0.3,0.2-0.4c0.1-0.1,0.2-0.2,0.4-0.2h1.2c0.2,0,0.3,0.1,0.4,0.2c0.1,0.1,0.2,0.2,0.2,0.4v15.9
		c0,0.2-0.1,0.3-0.2,0.4c-0.1,0.1-0.2,0.2-0.4,0.2h-1.1c-0.2,0-0.3-0.1-0.4-0.2c-0.1-0.1-0.2-0.2-0.2-0.4v-1c-0.9,1.2-2.2,1.8-4,1.8
		C1380.5,522.6,1379.3,522.1,1378.4,521z M1385.2,519.6c0.6-0.7,0.9-1.6,0.9-2.6c0-0.2,0-0.5,0-0.9c0-0.4,0-0.8,0-0.9
		c0-0.9-0.3-1.8-0.9-2.5s-1.4-1.1-2.5-1.1c-1.1,0-2,0.4-2.5,1.1c-0.5,0.7-0.8,1.6-0.9,2.8l0,0.7c0,3,1.1,4.5,3.4,4.5
		C1383.8,520.7,1384.6,520.3,1385.2,519.6z"/>
	<path d="M1393,521.1c-1-1-1.5-2.4-1.6-4.2l0-0.8l0-0.8c0.1-1.7,0.7-3.1,1.6-4.1c1-1,2.3-1.5,3.9-1.5c1.8,0,3.2,0.6,4.1,1.7
		s1.5,2.7,1.5,4.6v0.4c0,0.2-0.1,0.3-0.2,0.4c-0.1,0.1-0.2,0.2-0.4,0.2h-8.3v0.2c0,1,0.4,1.9,0.9,2.7c0.6,0.7,1.4,1.1,2.3,1.1
		c0.7,0,1.3-0.1,1.8-0.4c0.5-0.3,0.8-0.6,1-0.9c0.1-0.2,0.3-0.3,0.3-0.3c0.1,0,0.2-0.1,0.4-0.1h1.2c0.1,0,0.3,0,0.4,0.1
		c0.1,0.1,0.1,0.2,0.1,0.3c0,0.4-0.2,0.8-0.7,1.3c-0.4,0.5-1.1,0.9-1.8,1.3c-0.8,0.4-1.7,0.5-2.7,0.5
		C1395.3,522.6,1393.9,522.1,1393,521.1z M1400.2,515.2L1400.2,515.2c0-1.2-0.3-2.1-0.9-2.8s-1.4-1-2.4-1s-1.8,0.3-2.4,1
		s-0.9,1.6-0.9,2.7v0.1H1400.2z"/>
</g>
<g class="st2">
	<path d="M1405.5,522.2c-0.1-0.1-0.2-0.2-0.2-0.4v-11.4c0-0.2,0.1-0.3,0.2-0.4c0.1-0.1,0.2-0.2,0.4-0.2h1.1c0.2,0,0.3,0.1,0.4,0.2
		c0.1,0.1,0.2,0.2,0.2,0.4v1.1c0.7-1.1,1.8-1.6,3.4-1.6h0.9c0.2,0,0.3,0.1,0.4,0.2c0.1,0.1,0.2,0.2,0.2,0.4v1c0,0.2-0.1,0.3-0.2,0.4
		c-0.1,0.1-0.2,0.1-0.4,0.1h-1.4c-0.9,0-1.5,0.3-2,0.8c-0.5,0.5-0.7,1.2-0.7,2.1v7.1c0,0.2-0.1,0.3-0.2,0.4
		c-0.1,0.1-0.2,0.2-0.4,0.2h-1.2C1405.7,522.4,1405.6,522.3,1405.5,522.2z"/>
</g>
<g class="st2">
	<path d="M1420.8,521.2c-1-1-1.5-2.3-1.5-4.1l0-1l0-1c0.1-1.7,0.6-3.1,1.5-4.1c1-1,2.3-1.5,4-1.5c1.2,0,2.1,0.2,2.9,0.6
		c0.8,0.4,1.4,0.9,1.8,1.5c0.4,0.6,0.6,1.2,0.6,1.8c0,0.2,0,0.3-0.1,0.4c-0.1,0.1-0.2,0.1-0.4,0.1h-1.2c-0.2,0-0.3,0-0.4-0.1
		c-0.1-0.1-0.2-0.2-0.2-0.4c-0.3-0.8-0.7-1.3-1.2-1.6c-0.5-0.3-1.1-0.5-1.9-0.5c-1,0-1.8,0.3-2.4,0.9c-0.6,0.6-0.9,1.6-0.9,2.8
		l0,0.9l0,0.8c0,1.3,0.4,2.2,0.9,2.8c0.6,0.6,1.4,0.9,2.4,0.9c0.8,0,1.4-0.2,1.9-0.5c0.5-0.3,0.9-0.9,1.2-1.6
		c0.1-0.2,0.2-0.3,0.2-0.4c0.1-0.1,0.2-0.1,0.4-0.1h1.2c0.2,0,0.3,0.1,0.4,0.2c0.1,0.1,0.2,0.2,0.1,0.4c0,0.6-0.2,1.2-0.6,1.8
		c-0.4,0.6-1,1.1-1.8,1.5s-1.8,0.6-2.9,0.6C1423.1,522.6,1421.8,522.2,1420.8,521.2z"/>
	<path d="M1434.1,521.2c-1-1-1.5-2.3-1.5-4l0-1l0-1c0.1-1.6,0.6-2.9,1.6-3.9c1-1,2.3-1.5,4.1-1.5c1.7,0,3.1,0.5,4.1,1.5
		c1,1,1.5,2.3,1.6,3.9c0,0.2,0,0.5,0,1c0,0.5,0,0.9,0,1c-0.1,1.6-0.6,3-1.5,4c-1,1-2.3,1.5-4.1,1.5
		C1436.4,522.6,1435,522.1,1434.1,521.2z M1440.6,519.8c0.6-0.6,0.9-1.6,0.9-2.8c0-0.2,0-0.5,0-0.9c0-0.4,0-0.8,0-0.9
		c0-1.2-0.4-2.1-0.9-2.8c-0.6-0.6-1.4-1-2.4-1c-1,0-1.8,0.3-2.4,1c-0.6,0.6-0.9,1.6-0.9,2.8l0,0.9l0,0.9c0,1.2,0.3,2.1,0.9,2.8
		c0.6,0.6,1.4,1,2.4,1C1439.2,520.8,1440,520.5,1440.6,519.8z"/>
</g>
<g class="st2">
	<path d="M1447,522.2c-0.1-0.1-0.2-0.2-0.2-0.4v-11.4c0-0.2,0.1-0.3,0.2-0.4c0.1-0.1,0.2-0.2,0.4-0.2h1.1c0.2,0,0.3,0.1,0.4,0.2
		c0.1,0.1,0.2,0.2,0.2,0.4v1.1c0.5-0.6,1-1,1.6-1.4c0.6-0.3,1.4-0.5,2.4-0.5c1.5,0,2.7,0.5,3.6,1.5c0.9,1,1.3,2.3,1.3,3.9v6.8
		c0,0.2-0.1,0.3-0.2,0.4c-0.1,0.1-0.2,0.2-0.4,0.2h-1.2c-0.2,0-0.3-0.1-0.4-0.2c-0.1-0.1-0.2-0.2-0.2-0.4v-6.6c0-1.1-0.3-2-0.8-2.6
		c-0.6-0.6-1.3-0.9-2.4-0.9c-1,0-1.8,0.3-2.4,0.9c-0.6,0.6-0.9,1.5-0.9,2.6v6.6c0,0.2-0.1,0.3-0.2,0.4c-0.1,0.1-0.2,0.2-0.4,0.2
		h-1.2C1447.2,522.4,1447.1,522.3,1447,522.2z"/>
</g>
<g class="st2">
	<path d="M1462.6,522.2c-0.1-0.1-0.2-0.2-0.2-0.4v-10h-2c-0.2,0-0.3-0.1-0.4-0.2c-0.1-0.1-0.2-0.2-0.2-0.4v-0.8
		c0-0.2,0.1-0.3,0.2-0.4c0.1-0.1,0.2-0.2,0.4-0.2h2v-1.2c0-2.7,1.4-4.1,4.1-4.1h3.7c0.2,0,0.3,0.1,0.4,0.2c0.1,0.1,0.2,0.2,0.2,0.4
		v0.8c0,0.2-0.1,0.3-0.2,0.4c-0.1,0.1-0.2,0.2-0.4,0.2h-3.6c-0.7,0-1.2,0.2-1.5,0.6c-0.3,0.4-0.4,0.9-0.4,1.7v1.1h5.6
		c0.2,0,0.3,0.1,0.4,0.2c0.1,0.1,0.2,0.2,0.2,0.4v11.4c0,0.2-0.1,0.3-0.2,0.4c-0.1,0.1-0.2,0.2-0.4,0.2h-1.1c-0.2,0-0.3-0.1-0.4-0.2
		c-0.1-0.1-0.2-0.2-0.2-0.4v-10h-3.9v10c0,0.2-0.1,0.3-0.2,0.4c-0.1,0.1-0.2,0.2-0.4,0.2h-1.1
		C1462.8,522.4,1462.7,522.3,1462.6,522.2z"/>
	<path d="M1474.5,522.2c-0.1-0.1-0.2-0.2-0.2-0.4v-11.4c0-0.2,0.1-0.3,0.2-0.4c0.1-0.1,0.2-0.2,0.4-0.2h1.1c0.2,0,0.3,0.1,0.4,0.2
		c0.1,0.1,0.2,0.2,0.2,0.4v1.1c0.7-1.1,1.8-1.6,3.4-1.6h0.9c0.2,0,0.3,0.1,0.4,0.2c0.1,0.1,0.2,0.2,0.2,0.4v1c0,0.2-0.1,0.3-0.2,0.4
		c-0.1,0.1-0.2,0.1-0.4,0.1h-1.4c-0.9,0-1.5,0.3-2,0.8c-0.5,0.5-0.7,1.2-0.7,2.1v7.1c0,0.2-0.1,0.3-0.2,0.4
		c-0.1,0.1-0.2,0.2-0.4,0.2h-1.2C1474.8,522.4,1474.6,522.3,1474.5,522.2z"/>
	<path d="M1483.6,522.2c-0.1-0.1-0.2-0.2-0.2-0.4v-11.4c0-0.2,0.1-0.3,0.2-0.4c0.1-0.1,0.2-0.2,0.4-0.2h1.1c0.2,0,0.3,0.1,0.4,0.2
		c0.1,0.1,0.2,0.2,0.2,0.4v0.8c0.8-1.1,2-1.6,3.5-1.6c1.8,0,3,0.7,3.8,2.2c0.4-0.7,0.9-1.2,1.6-1.6c0.7-0.4,1.5-0.6,2.4-0.6
		c1.3,0,2.4,0.4,3.2,1.3c0.8,0.9,1.2,2.2,1.2,3.9v6.9c0,0.2-0.1,0.3-0.2,0.4c-0.1,0.1-0.2,0.2-0.4,0.2h-1.1c-0.2,0-0.3-0.1-0.4-0.2
		c-0.1-0.1-0.2-0.2-0.2-0.4v-6.7c0-1.2-0.3-2.1-0.8-2.7c-0.5-0.5-1.2-0.8-2.1-0.8c-0.8,0-1.4,0.3-1.9,0.8s-0.8,1.4-0.8,2.7v6.7
		c0,0.2-0.1,0.3-0.2,0.4c-0.1,0.1-0.2,0.2-0.4,0.2h-1.1c-0.2,0-0.3-0.1-0.4-0.2c-0.1-0.1-0.2-0.2-0.2-0.4v-6.7
		c0-1.2-0.3-2.1-0.8-2.7s-1.2-0.8-2-0.8c-0.8,0-1.4,0.3-1.9,0.8s-0.8,1.4-0.8,2.7v6.7c0,0.2-0.1,0.3-0.2,0.4
		c-0.1,0.1-0.2,0.2-0.4,0.2h-1.2C1483.9,522.4,1483.7,522.3,1483.6,522.2z"/>
</g>
<g class="st2">
	<path d="M1506.1,522.2c-0.7-0.3-1.2-0.8-1.6-1.3c-0.4-0.6-0.6-1.2-0.6-1.8c0-1.1,0.4-1.9,1.3-2.6c0.9-0.7,2.1-1.1,3.5-1.3l3.6-0.5
		v-0.7c0-1.6-0.9-2.4-2.8-2.4c-0.7,0-1.3,0.1-1.7,0.4c-0.4,0.3-0.8,0.6-1,1c0,0.1-0.1,0.2-0.2,0.3c-0.1,0.1-0.2,0.1-0.3,0.1h-1
		c-0.1,0-0.3-0.1-0.4-0.2c-0.1-0.1-0.2-0.2-0.2-0.4c0-0.4,0.2-0.8,0.5-1.3c0.3-0.5,0.9-0.9,1.6-1.3c0.7-0.4,1.6-0.5,2.7-0.5
		c1.8,0,3.1,0.4,3.9,1.3c0.8,0.8,1.2,1.9,1.2,3.1v7.8c0,0.2-0.1,0.3-0.2,0.4c-0.1,0.1-0.2,0.2-0.4,0.2h-1.1c-0.2,0-0.3-0.1-0.4-0.2
		c-0.1-0.1-0.2-0.2-0.2-0.4v-1c-0.4,0.5-0.9,0.9-1.5,1.3c-0.7,0.4-1.5,0.5-2.6,0.5C1507.5,522.6,1506.8,522.5,1506.1,522.2z
		 M1511.4,519.8c0.7-0.7,1-1.7,1-2.9v-0.7l-2.8,0.4c-1.1,0.2-2,0.4-2.6,0.8c-0.6,0.4-0.9,0.9-0.9,1.4c0,0.6,0.3,1.1,0.8,1.5
		c0.5,0.3,1.2,0.5,1.9,0.5C1509.8,520.8,1510.7,520.5,1511.4,519.8z"/>
</g>
<g class="st2">
	<path d="M1519,518.2v-6.3h-1.9c-0.2,0-0.3-0.1-0.4-0.2c-0.1-0.1-0.2-0.2-0.2-0.4v-0.8c0-0.2,0.1-0.3,0.2-0.4
		c0.1-0.1,0.2-0.2,0.4-0.2h1.9v-4c0-0.2,0.1-0.3,0.2-0.4c0.1-0.1,0.2-0.2,0.4-0.2h1.1c0.2,0,0.3,0.1,0.4,0.2
		c0.1,0.1,0.2,0.2,0.2,0.4v4h3c0.2,0,0.3,0.1,0.4,0.2c0.1,0.1,0.2,0.2,0.2,0.4v0.8c0,0.2-0.1,0.3-0.2,0.4c-0.1,0.1-0.2,0.2-0.4,0.2
		h-3v6.2c0,0.8,0.1,1.4,0.4,1.8s0.7,0.6,1.3,0.6h1.5c0.2,0,0.3,0.1,0.4,0.2c0.1,0.1,0.2,0.2,0.2,0.4v0.9c0,0.2-0.1,0.3-0.2,0.4
		c-0.1,0.1-0.2,0.2-0.4,0.2h-1.7C1520.3,522.4,1519,521,1519,518.2z"/>
	<path d="M1527.3,507.4c-0.1-0.1-0.2-0.2-0.2-0.4v-1.3c0-0.2,0.1-0.3,0.2-0.4c0.1-0.1,0.2-0.2,0.4-0.2h1.5c0.2,0,0.3,0.1,0.4,0.2
		c0.1,0.1,0.2,0.2,0.2,0.4v1.3c0,0.2-0.1,0.3-0.2,0.4c-0.1,0.1-0.2,0.2-0.4,0.2h-1.5C1527.5,507.6,1527.4,507.5,1527.3,507.4z
		 M1527.5,522.2c-0.1-0.1-0.2-0.2-0.2-0.4v-11.4c0-0.2,0.1-0.3,0.2-0.4c0.1-0.1,0.2-0.2,0.4-0.2h1.2c0.2,0,0.3,0.1,0.4,0.2
		c0.1,0.1,0.2,0.2,0.2,0.4v11.4c0,0.2-0.1,0.3-0.2,0.4c-0.1,0.1-0.2,0.2-0.4,0.2h-1.2C1527.7,522.4,1527.6,522.3,1527.5,522.2z"/>
	<path d="M1534.2,521.2c-1-1-1.5-2.3-1.5-4l0-1l0-1c0.1-1.6,0.6-2.9,1.6-3.9c1-1,2.3-1.5,4.1-1.5c1.7,0,3.1,0.5,4.1,1.5
		c1,1,1.5,2.3,1.6,3.9c0,0.2,0,0.5,0,1c0,0.5,0,0.9,0,1c-0.1,1.6-0.6,3-1.5,4c-1,1-2.3,1.5-4.1,1.5
		C1536.5,522.6,1535.1,522.1,1534.2,521.2z M1540.6,519.8c0.6-0.6,0.9-1.6,0.9-2.8c0-0.2,0-0.5,0-0.9c0-0.4,0-0.8,0-0.9
		c0-1.2-0.4-2.1-0.9-2.8c-0.6-0.6-1.4-1-2.4-1c-1,0-1.8,0.3-2.4,1c-0.6,0.6-0.9,1.6-0.9,2.8l0,0.9l0,0.9c0,1.2,0.3,2.1,0.9,2.8
		c0.6,0.6,1.4,1,2.4,1C1539.3,520.8,1540.1,520.5,1540.6,519.8z"/>
	<path d="M1547.1,522.2c-0.1-0.1-0.2-0.2-0.2-0.4v-11.4c0-0.2,0.1-0.3,0.2-0.4c0.1-0.1,0.2-0.2,0.4-0.2h1.1c0.2,0,0.3,0.1,0.4,0.2
		c0.1,0.1,0.2,0.2,0.2,0.4v1.1c0.5-0.6,1-1,1.6-1.4c0.6-0.3,1.4-0.5,2.4-0.5c1.5,0,2.7,0.5,3.6,1.5c0.9,1,1.3,2.3,1.3,3.9v6.8
		c0,0.2-0.1,0.3-0.2,0.4c-0.1,0.1-0.2,0.2-0.4,0.2h-1.2c-0.2,0-0.3-0.1-0.4-0.2c-0.1-0.1-0.2-0.2-0.2-0.4v-6.6c0-1.1-0.3-2-0.8-2.6
		s-1.3-0.9-2.4-0.9c-1,0-1.8,0.3-2.4,0.9c-0.6,0.6-0.9,1.5-0.9,2.6v6.6c0,0.2-0.1,0.3-0.2,0.4c-0.1,0.1-0.2,0.2-0.4,0.2h-1.2
		C1547.3,522.4,1547.2,522.3,1547.1,522.2z"/>
</g>
<g class="st2">
	<path d="M1281.3,123.7c-1.1-1.2-1.7-2.7-1.8-4.8c0-0.4,0-1.1,0-2.1c0-1,0-1.7,0-2.2c0.1-2,0.7-3.6,1.8-4.8c1.1-1.2,2.7-1.7,4.9-1.7
		c1.4,0,2.6,0.3,3.6,0.8s1.7,1.2,2.3,2c0.5,0.8,0.8,1.7,0.8,2.6v0c0,0.1-0.1,0.2-0.2,0.3c-0.1,0.1-0.2,0.1-0.3,0.1h-1.3
		c-0.3,0-0.5-0.2-0.6-0.6c-0.3-1.2-0.8-2-1.5-2.5c-0.7-0.5-1.6-0.7-2.8-0.7c-2.8,0-4.2,1.5-4.3,4.6c0,0.4,0,1.1,0,2s0,1.6,0,2
		c0.1,3.1,1.5,4.6,4.3,4.6c1.2,0,2.1-0.2,2.8-0.7c0.7-0.5,1.2-1.3,1.5-2.5c0-0.2,0.1-0.4,0.2-0.4s0.2-0.1,0.4-0.1h1.3
		c0.1,0,0.3,0,0.4,0.1c0.1,0.1,0.1,0.2,0.1,0.3c0,0.9-0.3,1.8-0.8,2.6c-0.5,0.8-1.3,1.5-2.3,2s-2.2,0.8-3.6,0.8
		C1284.1,125.4,1282.4,124.8,1281.3,123.7z"/>
	<path d="M1297.1,124.9c-0.7-0.3-1.2-0.8-1.6-1.3c-0.4-0.6-0.6-1.2-0.6-1.8c0-1.1,0.4-1.9,1.3-2.6c0.9-0.7,2.1-1.1,3.5-1.3l3.6-0.5
		v-0.7c0-1.6-0.9-2.4-2.8-2.4c-0.7,0-1.3,0.1-1.7,0.4c-0.4,0.3-0.8,0.6-1,1c0,0.1-0.1,0.2-0.2,0.3c-0.1,0.1-0.2,0.1-0.3,0.1h-1
		c-0.1,0-0.3-0.1-0.4-0.2c-0.1-0.1-0.2-0.2-0.2-0.4c0-0.4,0.2-0.8,0.5-1.3c0.3-0.5,0.9-0.9,1.6-1.3c0.7-0.4,1.6-0.5,2.7-0.5
		c1.8,0,3.1,0.4,3.9,1.3c0.8,0.8,1.2,1.9,1.2,3.1v7.8c0,0.2-0.1,0.3-0.2,0.4c-0.1,0.1-0.2,0.2-0.4,0.2h-1.1c-0.2,0-0.3-0.1-0.4-0.2
		c-0.1-0.1-0.2-0.2-0.2-0.4v-1c-0.4,0.5-0.9,0.9-1.5,1.3s-1.5,0.5-2.6,0.5C1298.5,125.4,1297.8,125.2,1297.1,124.9z M1302.4,122.6
		c0.7-0.7,1-1.7,1-2.9v-0.7l-2.8,0.4c-1.1,0.2-2,0.4-2.6,0.8c-0.6,0.4-0.9,0.9-0.9,1.4c0,0.6,0.3,1.1,0.8,1.5
		c0.5,0.3,1.2,0.5,1.9,0.5C1300.8,123.6,1301.7,123.2,1302.4,122.6z"/>
	<path d="M1309.2,125c-0.1-0.1-0.2-0.2-0.2-0.4v-11.4c0-0.2,0.1-0.3,0.2-0.4c0.1-0.1,0.2-0.2,0.4-0.2h1.1c0.2,0,0.3,0.1,0.4,0.2
		c0.1,0.1,0.2,0.2,0.2,0.4v1.1c0.7-1.1,1.8-1.6,3.4-1.6h0.9c0.2,0,0.3,0.1,0.4,0.2c0.1,0.1,0.2,0.2,0.2,0.4v1c0,0.2-0.1,0.3-0.2,0.4
		c-0.1,0.1-0.2,0.1-0.4,0.1h-1.4c-0.9,0-1.5,0.3-2,0.8s-0.7,1.2-0.7,2.1v7.1c0,0.2-0.1,0.3-0.2,0.4c-0.1,0.1-0.2,0.2-0.4,0.2h-1.2
		C1309.5,125.1,1309.3,125.1,1309.2,125z"/>
	<path d="M1319.3,120.9v-6.3h-1.9c-0.2,0-0.3-0.1-0.4-0.2s-0.2-0.2-0.2-0.4v-0.8c0-0.2,0.1-0.3,0.2-0.4c0.1-0.1,0.2-0.2,0.4-0.2h1.9
		v-4c0-0.2,0.1-0.3,0.2-0.4c0.1-0.1,0.2-0.2,0.4-0.2h1.1c0.2,0,0.3,0.1,0.4,0.2c0.1,0.1,0.2,0.2,0.2,0.4v4h3c0.2,0,0.3,0.1,0.4,0.2
		c0.1,0.1,0.2,0.2,0.2,0.4v0.8c0,0.2-0.1,0.3-0.2,0.4s-0.2,0.2-0.4,0.2h-3v6.2c0,0.8,0.1,1.4,0.4,1.8s0.7,0.6,1.3,0.6h1.5
		c0.2,0,0.3,0.1,0.4,0.2c0.1,0.1,0.2,0.2,0.2,0.4v0.9c0,0.2-0.1,0.3-0.2,0.4c-0.1,0.1-0.2,0.2-0.4,0.2h-1.7
		C1320.5,125.1,1319.3,123.7,1319.3,120.9z"/>
	<path d="M1333.6,129.5c-0.1-0.1-0.2-0.2-0.2-0.4v-15.9c0-0.2,0.1-0.3,0.2-0.4c0.1-0.1,0.2-0.2,0.4-0.2h1.1c0.2,0,0.3,0.1,0.4,0.2
		c0.1,0.1,0.2,0.2,0.2,0.4v1.1c0.9-1.2,2.2-1.8,3.9-1.8c1.7,0,2.9,0.5,3.8,1.6c0.8,1.1,1.3,2.4,1.4,4.1c0,0.2,0,0.4,0,0.8
		c0,0.4,0,0.6,0,0.8c-0.1,1.6-0.5,3-1.4,4.1c-0.8,1.1-2.1,1.6-3.8,1.6s-3-0.6-3.9-1.8v5.6c0,0.2,0,0.3-0.1,0.4
		c-0.1,0.1-0.2,0.2-0.4,0.2h-1.2C1333.9,129.7,1333.7,129.6,1333.6,129.5z M1341.6,122.4c0.5-0.7,0.8-1.6,0.9-2.8c0-0.2,0-0.4,0-0.7
		c0-3-1.1-4.5-3.4-4.5c-1.1,0-1.9,0.4-2.5,1.1c-0.6,0.7-0.9,1.6-0.9,2.6l0,0.9l0,0.9c0,0.9,0.3,1.8,0.9,2.5s1.4,1.1,2.5,1.1
		C1340.3,123.4,1341.1,123.1,1341.6,122.4z"/>
	<path d="M1349.1,124.9c-0.7-0.3-1.2-0.8-1.6-1.3s-0.6-1.2-0.6-1.8c0-1.1,0.4-1.9,1.3-2.6c0.9-0.7,2.1-1.1,3.5-1.3l3.6-0.5v-0.7
		c0-1.6-0.9-2.4-2.8-2.4c-0.7,0-1.3,0.1-1.7,0.4c-0.4,0.3-0.8,0.6-1,1c0,0.1-0.1,0.2-0.2,0.3c-0.1,0.1-0.2,0.1-0.3,0.1h-1
		c-0.1,0-0.3-0.1-0.4-0.2c-0.1-0.1-0.2-0.2-0.2-0.4c0-0.4,0.2-0.8,0.5-1.3c0.3-0.5,0.9-0.9,1.6-1.3c0.7-0.4,1.6-0.5,2.7-0.5
		c1.8,0,3.1,0.4,3.9,1.3c0.8,0.8,1.2,1.9,1.2,3.1v7.8c0,0.2-0.1,0.3-0.2,0.4c-0.1,0.1-0.2,0.2-0.4,0.2h-1.1c-0.2,0-0.3-0.1-0.4-0.2
		c-0.1-0.1-0.2-0.2-0.2-0.4v-1c-0.4,0.5-0.9,0.9-1.5,1.3s-1.5,0.5-2.6,0.5C1350.5,125.4,1349.7,125.2,1349.1,124.9z M1354.3,122.6
		c0.7-0.7,1-1.7,1-2.9v-0.7l-2.8,0.4c-1.1,0.2-2,0.4-2.6,0.8c-0.6,0.4-0.9,0.9-0.9,1.4c0,0.6,0.3,1.1,0.8,1.5
		c0.5,0.3,1.2,0.5,1.9,0.5C1352.8,123.6,1353.6,123.2,1354.3,122.6z"/>
	<path d="M1362.9,129.8c-0.8-0.4-1.4-0.9-1.7-1.5c-0.3-0.6-0.5-1.1-0.6-1.5c0-0.2,0-0.3,0.2-0.4c0.1-0.1,0.3-0.2,0.4-0.2h1.2
		c0.1,0,0.3,0,0.4,0.1c0.1,0.1,0.2,0.2,0.2,0.4c0.2,0.5,0.5,1,0.9,1.3c0.4,0.4,1.1,0.6,2.1,0.6c1.2,0,2.1-0.3,2.6-0.8
		c0.6-0.5,0.8-1.4,0.8-2.7v-1.6c-0.4,0.5-0.9,0.9-1.6,1.3c-0.6,0.3-1.4,0.5-2.3,0.5c-1.7,0-3-0.5-3.8-1.6c-0.8-1.1-1.3-2.5-1.3-4.1
		l0-0.7l0-0.6c0-1.6,0.5-3,1.3-4.1c0.8-1.1,2.1-1.6,3.8-1.6s3,0.6,3.9,1.8v-1c0-0.2,0.1-0.3,0.2-0.4c0.1-0.1,0.2-0.2,0.4-0.2h1.1
		c0.2,0,0.3,0.1,0.4,0.2c0.1,0.1,0.2,0.2,0.2,0.4v11.6c0,3.7-1.9,5.5-5.6,5.5C1364.8,130.4,1363.7,130.2,1362.9,129.8z
		 M1368.5,122.2c0.6-0.7,0.9-1.6,0.9-2.6c0-0.1,0-0.4,0-0.8c0-0.4,0-0.7,0-0.8c0-1-0.3-1.8-0.9-2.6c-0.6-0.7-1.4-1.1-2.5-1.1
		c-1.1,0-2,0.4-2.5,1.1s-0.8,1.6-0.8,2.8l0,0.6l0,0.6c0,1.1,0.3,2.1,0.8,2.8s1.3,1.1,2.5,1.1C1367.2,123.3,1368,123,1368.5,122.2z"
		/>
	<path d="M1376.4,123.9c-1-1-1.5-2.4-1.6-4.2l0-0.8l0-0.8c0.1-1.7,0.7-3.1,1.6-4.1c1-1,2.3-1.5,3.9-1.5c1.8,0,3.2,0.6,4.1,1.7
		s1.5,2.7,1.5,4.6v0.4c0,0.2-0.1,0.3-0.2,0.4c-0.1,0.1-0.2,0.2-0.4,0.2h-8.3v0.2c0,1,0.4,1.9,0.9,2.7c0.6,0.7,1.4,1.1,2.3,1.1
		c0.7,0,1.3-0.1,1.8-0.4c0.5-0.3,0.8-0.6,1-0.9c0.1-0.2,0.3-0.3,0.3-0.3s0.2-0.1,0.4-0.1h1.2c0.1,0,0.3,0,0.4,0.1
		c0.1,0.1,0.1,0.2,0.1,0.3c0,0.4-0.2,0.8-0.7,1.3c-0.4,0.5-1.1,0.9-1.8,1.3c-0.8,0.4-1.7,0.5-2.7,0.5
		C1378.7,125.4,1377.4,124.9,1376.4,123.9z M1383.6,118L1383.6,118c0-1.2-0.3-2.1-0.9-2.8c-0.6-0.7-1.4-1-2.4-1s-1.8,0.3-2.4,1
		s-0.9,1.6-0.9,2.7v0.1H1383.6z"/>
</g>
<g class="st2">
	<path d="M1420.1,310.9c-1.1-1.2-1.7-2.7-1.8-4.8c0-0.4,0-1.1,0-2.1c0-1,0-1.7,0-2.2c0.1-2,0.7-3.6,1.8-4.8c1.1-1.2,2.7-1.7,4.9-1.7
		c1.4,0,2.6,0.3,3.6,0.8s1.7,1.2,2.3,2c0.5,0.8,0.8,1.7,0.8,2.6v0c0,0.1-0.1,0.2-0.2,0.3c-0.1,0.1-0.2,0.1-0.3,0.1h-1.3
		c-0.3,0-0.5-0.2-0.6-0.6c-0.3-1.2-0.8-2-1.5-2.5s-1.6-0.7-2.8-0.7c-2.8,0-4.2,1.5-4.3,4.6c0,0.4,0,1.1,0,2s0,1.6,0,2
		c0.1,3.1,1.5,4.6,4.3,4.6c1.2,0,2.1-0.2,2.8-0.7c0.7-0.5,1.2-1.3,1.5-2.5c0-0.2,0.1-0.4,0.2-0.4c0.1-0.1,0.2-0.1,0.4-0.1h1.3
		c0.1,0,0.3,0,0.4,0.1c0.1,0.1,0.1,0.2,0.1,0.3c0,0.9-0.3,1.8-0.8,2.6c-0.5,0.8-1.3,1.5-2.3,2s-2.2,0.8-3.6,0.8
		C1422.8,312.6,1421.2,312,1420.1,310.9z"/>
	<path d="M1435.6,311.1c-1-1-1.5-2.3-1.5-4l0-1l0-1c0.1-1.6,0.6-2.9,1.6-3.9c1-1,2.3-1.5,4.1-1.5c1.7,0,3.1,0.5,4.1,1.5
		c1,1,1.5,2.3,1.6,3.9c0,0.2,0,0.5,0,1c0,0.5,0,0.9,0,1c-0.1,1.6-0.6,3-1.5,4c-1,1-2.3,1.5-4.1,1.5
		C1438,312.6,1436.6,312.1,1435.6,311.1z M1442.1,309.8c0.6-0.6,0.9-1.6,0.9-2.8c0-0.2,0-0.5,0-0.9c0-0.4,0-0.8,0-0.9
		c0-1.2-0.4-2.1-0.9-2.8c-0.6-0.6-1.4-1-2.4-1c-1,0-1.8,0.3-2.4,1c-0.6,0.6-0.9,1.6-0.9,2.8l0,0.9l0,0.9c0,1.2,0.3,2.1,0.9,2.8
		c0.6,0.6,1.4,1,2.4,1C1440.7,310.8,1441.5,310.4,1442.1,309.8z"/>
</g>
<g class="st2">
	<path d="M1448.5,312.2c-0.1-0.1-0.2-0.2-0.2-0.4v-11.4c0-0.2,0.1-0.3,0.2-0.4c0.1-0.1,0.2-0.2,0.4-0.2h1.1c0.2,0,0.3,0.1,0.4,0.2
		c0.1,0.1,0.2,0.2,0.2,0.4v1.1c0.5-0.6,1-1,1.6-1.4c0.6-0.3,1.4-0.5,2.4-0.5c1.5,0,2.7,0.5,3.6,1.5c0.9,1,1.3,2.3,1.3,3.9v6.8
		c0,0.2-0.1,0.3-0.2,0.4c-0.1,0.1-0.2,0.2-0.4,0.2h-1.2c-0.2,0-0.3-0.1-0.4-0.2c-0.1-0.1-0.2-0.2-0.2-0.4v-6.6c0-1.1-0.3-2-0.8-2.6
		c-0.6-0.6-1.3-0.9-2.4-0.9c-1,0-1.8,0.3-2.4,0.9c-0.6,0.6-0.9,1.5-0.9,2.6v6.6c0,0.2-0.1,0.3-0.2,0.4c-0.1,0.1-0.2,0.2-0.4,0.2
		h-1.2C1448.8,312.4,1448.6,312.3,1448.5,312.2z"/>
</g>
<g class="st2">
	<path d="M1464.1,312.2c-0.1-0.1-0.2-0.2-0.2-0.4v-10h-2c-0.2,0-0.3-0.1-0.4-0.2c-0.1-0.1-0.2-0.2-0.2-0.4v-0.8
		c0-0.2,0.1-0.3,0.2-0.4c0.1-0.1,0.2-0.2,0.4-0.2h2v-1.2c0-2.7,1.4-4.1,4.1-4.1h3.7c0.2,0,0.3,0.1,0.4,0.2c0.1,0.1,0.2,0.2,0.2,0.4
		v0.8c0,0.2-0.1,0.3-0.2,0.4c-0.1,0.1-0.2,0.2-0.4,0.2h-3.6c-0.7,0-1.2,0.2-1.5,0.6c-0.3,0.4-0.4,0.9-0.4,1.7v1.1h5.6
		c0.2,0,0.3,0.1,0.4,0.2c0.1,0.1,0.2,0.2,0.2,0.4v11.4c0,0.2-0.1,0.3-0.2,0.4c-0.1,0.1-0.2,0.2-0.4,0.2h-1.1c-0.2,0-0.3-0.1-0.4-0.2
		c-0.1-0.1-0.2-0.2-0.2-0.4v-10h-3.9v10c0,0.2-0.1,0.3-0.2,0.4c-0.1,0.1-0.2,0.2-0.4,0.2h-1.1
		C1464.4,312.4,1464.2,312.3,1464.1,312.2z"/>
	<path d="M1476.1,312.2c-0.1-0.1-0.2-0.2-0.2-0.4v-11.4c0-0.2,0.1-0.3,0.2-0.4c0.1-0.1,0.2-0.2,0.4-0.2h1.1c0.2,0,0.3,0.1,0.4,0.2
		c0.1,0.1,0.2,0.2,0.2,0.4v1.1c0.7-1.1,1.8-1.6,3.4-1.6h0.9c0.2,0,0.3,0.1,0.4,0.2c0.1,0.1,0.2,0.2,0.2,0.4v1c0,0.2-0.1,0.3-0.2,0.4
		c-0.1,0.1-0.2,0.1-0.4,0.1h-1.4c-0.9,0-1.5,0.3-2,0.8c-0.5,0.5-0.7,1.2-0.7,2.1v7.1c0,0.2-0.1,0.3-0.2,0.4
		c-0.1,0.1-0.2,0.2-0.4,0.2h-1.2C1476.3,312.4,1476.2,312.3,1476.1,312.2z"/>
	<path d="M1485.2,312.2c-0.1-0.1-0.2-0.2-0.2-0.4v-11.4c0-0.2,0.1-0.3,0.2-0.4c0.1-0.1,0.2-0.2,0.4-0.2h1.1c0.2,0,0.3,0.1,0.4,0.2
		c0.1,0.1,0.2,0.2,0.2,0.4v0.8c0.8-1.1,2-1.6,3.5-1.6c1.8,0,3,0.7,3.8,2.2c0.4-0.7,0.9-1.2,1.6-1.6c0.7-0.4,1.5-0.6,2.4-0.6
		c1.3,0,2.4,0.4,3.2,1.3c0.8,0.9,1.2,2.2,1.2,3.9v6.9c0,0.2-0.1,0.3-0.2,0.4c-0.1,0.1-0.2,0.2-0.4,0.2h-1.1c-0.2,0-0.3-0.1-0.4-0.2
		c-0.1-0.1-0.2-0.2-0.2-0.4v-6.7c0-1.2-0.3-2.1-0.8-2.7c-0.5-0.5-1.2-0.8-2.1-0.8c-0.8,0-1.4,0.3-1.9,0.8s-0.8,1.4-0.8,2.7v6.7
		c0,0.2-0.1,0.3-0.2,0.4c-0.1,0.1-0.2,0.2-0.4,0.2h-1.1c-0.2,0-0.3-0.1-0.4-0.2c-0.1-0.1-0.2-0.2-0.2-0.4v-6.7
		c0-1.2-0.3-2.1-0.8-2.7s-1.2-0.8-2-0.8c-0.8,0-1.4,0.3-1.9,0.8s-0.8,1.4-0.8,2.7v6.7c0,0.2-0.1,0.3-0.2,0.4
		c-0.1,0.1-0.2,0.2-0.4,0.2h-1.2C1485.4,312.4,1485.3,312.3,1485.2,312.2z"/>
</g>
<g class="st2">
	<path d="M1433.3,339.8c-1.1-1.1-1.7-2.7-1.8-5c0-0.5,0-1.2,0-2c0-0.9,0-1.6,0-2c0.1-2.2,0.7-3.8,1.9-4.9c1.2-1.1,2.8-1.7,4.8-1.7
		c2,0,3.6,0.6,4.8,1.7s1.8,2.8,1.9,4.9c0,0.9,0,1.6,0,2c0,0.4,0,1.1,0,2c-0.1,2.2-0.7,3.9-1.8,5c-1.1,1.1-2.8,1.6-4.8,1.6
		C1436.1,341.4,1434.4,340.9,1433.3,339.8z M1441.2,338.2c0.8-0.8,1.2-1.9,1.2-3.5c0-1,0-1.6,0-1.9c0-0.4,0-1,0-1.9
		c-0.1-1.6-0.5-2.8-1.2-3.5c-0.8-0.8-1.8-1.2-3-1.2c-1.3,0-2.3,0.4-3,1.2c-0.8,0.8-1.2,1.9-1.2,3.5c0,0.5,0,1.1,0,1.9
		c0,0.8,0,1.4,0,1.9c0.1,1.6,0.5,2.8,1.2,3.5c0.8,0.8,1.8,1.2,3,1.2S1440.4,339,1441.2,338.2z"/>
</g>
<g class="st2">
	<path d="M1448.2,341c-0.1-0.1-0.2-0.2-0.2-0.4v-11.4c0-0.2,0.1-0.3,0.2-0.4c0.1-0.1,0.2-0.2,0.4-0.2h1.1c0.2,0,0.3,0.1,0.4,0.2
		c0.1,0.1,0.2,0.2,0.2,0.4v1.1c0.7-1.1,1.8-1.6,3.4-1.6h0.9c0.2,0,0.3,0.1,0.4,0.2c0.1,0.1,0.2,0.2,0.2,0.4v1c0,0.2-0.1,0.3-0.2,0.4
		c-0.1,0.1-0.2,0.1-0.4,0.1h-1.4c-0.9,0-1.5,0.3-2,0.8s-0.7,1.2-0.7,2.1v7.1c0,0.2-0.1,0.3-0.2,0.4c-0.1,0.1-0.2,0.2-0.4,0.2h-1.2
		C1448.4,341.2,1448.3,341.1,1448.2,341z"/>
</g>
<g class="st2">
	<path d="M1457.7,339.8c-0.8-1.1-1.3-2.5-1.3-4.1l0-0.7l0-0.7c0-1.6,0.5-3,1.3-4.1c0.8-1.1,2.1-1.6,3.8-1.6c1.6,0,2.9,0.6,3.9,1.8
		v-5.5c0-0.2,0.1-0.3,0.2-0.4c0.1-0.1,0.2-0.2,0.4-0.2h1.2c0.2,0,0.3,0.1,0.4,0.2c0.1,0.1,0.2,0.2,0.2,0.4v15.9
		c0,0.2-0.1,0.3-0.2,0.4c-0.1,0.1-0.2,0.2-0.4,0.2h-1.1c-0.2,0-0.3-0.1-0.4-0.2c-0.1-0.1-0.2-0.2-0.2-0.4v-1c-0.9,1.2-2.2,1.8-4,1.8
		C1459.8,341.4,1458.5,340.9,1457.7,339.8z M1464.4,338.4c0.6-0.7,0.9-1.6,0.9-2.6c0-0.2,0-0.5,0-0.9c0-0.4,0-0.8,0-0.9
		c0-0.9-0.3-1.8-0.9-2.5s-1.4-1.1-2.5-1.1c-1.1,0-2,0.4-2.5,1.1c-0.5,0.7-0.8,1.6-0.9,2.8l0,0.7c0,3,1.1,4.5,3.4,4.5
		C1463.1,339.5,1463.9,339.1,1464.4,338.4z"/>
	<path d="M1472.2,339.9c-1-1-1.5-2.4-1.6-4.2l0-0.8l0-0.8c0.1-1.7,0.7-3.1,1.6-4.1c1-1,2.3-1.5,3.9-1.5c1.8,0,3.2,0.6,4.1,1.7
		s1.5,2.7,1.5,4.6v0.4c0,0.2-0.1,0.3-0.2,0.4c-0.1,0.1-0.2,0.2-0.4,0.2h-8.3v0.2c0,1,0.4,1.9,0.9,2.7c0.6,0.7,1.4,1.1,2.3,1.1
		c0.7,0,1.3-0.1,1.8-0.4c0.5-0.3,0.8-0.6,1-0.9c0.1-0.2,0.3-0.3,0.3-0.3c0.1,0,0.2-0.1,0.4-0.1h1.2c0.1,0,0.3,0,0.4,0.1
		c0.1,0.1,0.1,0.2,0.1,0.3c0,0.4-0.2,0.8-0.7,1.3c-0.4,0.5-1.1,0.9-1.8,1.3c-0.8,0.4-1.7,0.5-2.7,0.5
		C1474.5,341.4,1473.2,340.9,1472.2,339.9z M1479.5,334L1479.5,334c0-1.2-0.3-2.1-0.9-2.8s-1.4-1-2.4-1s-1.8,0.3-2.4,1
		s-0.9,1.6-0.9,2.7v0.1H1479.5z"/>
</g>
<g class="st2">
	<path d="M1484.8,341c-0.1-0.1-0.2-0.2-0.2-0.4v-11.4c0-0.2,0.1-0.3,0.2-0.4c0.1-0.1,0.2-0.2,0.4-0.2h1.1c0.2,0,0.3,0.1,0.4,0.2
		c0.1,0.1,0.2,0.2,0.2,0.4v1.1c0.7-1.1,1.8-1.6,3.4-1.6h0.9c0.2,0,0.3,0.1,0.4,0.2c0.1,0.1,0.2,0.2,0.2,0.4v1c0,0.2-0.1,0.3-0.2,0.4
		c-0.1,0.1-0.2,0.1-0.4,0.1h-1.4c-0.9,0-1.5,0.3-2,0.8s-0.7,1.2-0.7,2.1v7.1c0,0.2-0.1,0.3-0.2,0.4c-0.1,0.1-0.2,0.2-0.4,0.2h-1.2
		C1485,341.2,1484.9,341.1,1484.8,341z"/>
</g>
<g class="st2">
	<path d="M827.1,107.7c-0.1-0.1-0.2-0.2-0.2-0.4V106c0-0.2,0.1-0.3,0.2-0.4c0.1-0.1,0.2-0.2,0.4-0.2h1.5c0.2,0,0.3,0.1,0.4,0.2
		c0.1,0.1,0.2,0.2,0.2,0.4v1.3c0,0.2-0.1,0.3-0.2,0.4c-0.1,0.1-0.2,0.2-0.4,0.2h-1.5C827.4,107.9,827.2,107.8,827.1,107.7z
		 M827.3,122.5c-0.1-0.1-0.2-0.2-0.2-0.4v-11.4c0-0.2,0.1-0.3,0.2-0.4c0.1-0.1,0.2-0.2,0.4-0.2h1.2c0.2,0,0.3,0.1,0.4,0.2
		c0.1,0.1,0.2,0.2,0.2,0.4v11.4c0,0.2-0.1,0.3-0.2,0.4c-0.1,0.1-0.2,0.2-0.4,0.2h-1.2C827.6,122.7,827.4,122.6,827.3,122.5z"/>
	<path d="M834.1,118.5v-6.3h-1.9c-0.2,0-0.3-0.1-0.4-0.2c-0.1-0.1-0.2-0.2-0.2-0.4v-0.8c0-0.2,0.1-0.3,0.2-0.4
		c0.1-0.1,0.2-0.2,0.4-0.2h1.9v-4c0-0.2,0.1-0.3,0.2-0.4c0.1-0.1,0.2-0.2,0.4-0.2h1.1c0.2,0,0.3,0.1,0.4,0.2
		c0.1,0.1,0.2,0.2,0.2,0.4v4h3c0.2,0,0.3,0.1,0.4,0.2c0.1,0.1,0.2,0.2,0.2,0.4v0.8c0,0.2-0.1,0.3-0.2,0.4c-0.1,0.1-0.2,0.2-0.4,0.2
		h-3v6.2c0,0.8,0.1,1.4,0.4,1.8s0.7,0.6,1.3,0.6h1.5c0.2,0,0.3,0.1,0.4,0.2c0.1,0.1,0.2,0.2,0.2,0.4v0.9c0,0.2-0.1,0.3-0.2,0.4
		c-0.1,0.1-0.2,0.2-0.4,0.2h-1.7C835.3,122.7,834.1,121.3,834.1,118.5z"/>
	<path d="M843.4,121.4c-1-1-1.5-2.4-1.6-4.2l0-0.8l0-0.8c0.1-1.7,0.7-3.1,1.6-4.1c1-1,2.3-1.5,3.9-1.5c1.8,0,3.2,0.6,4.1,1.7
		s1.5,2.7,1.5,4.6v0.4c0,0.2-0.1,0.3-0.2,0.4c-0.1,0.1-0.2,0.2-0.4,0.2h-8.3v0.2c0,1,0.4,1.9,0.9,2.7c0.6,0.7,1.4,1.1,2.3,1.1
		c0.7,0,1.3-0.1,1.8-0.4c0.5-0.3,0.8-0.6,1-0.9c0.1-0.2,0.3-0.3,0.3-0.3c0.1,0,0.2-0.1,0.4-0.1h1.2c0.1,0,0.3,0,0.4,0.1
		c0.1,0.1,0.1,0.2,0.1,0.3c0,0.4-0.2,0.8-0.7,1.3c-0.4,0.5-1.1,0.9-1.8,1.3c-0.8,0.4-1.7,0.5-2.7,0.5
		C845.7,122.9,844.4,122.4,843.4,121.4z M850.6,115.5L850.6,115.5c0-1.2-0.3-2.1-0.9-2.8s-1.4-1-2.4-1s-1.8,0.3-2.4,1
		s-0.9,1.6-0.9,2.7v0.1H850.6z"/>
	<path d="M856,122.5c-0.1-0.1-0.2-0.2-0.2-0.4v-11.4c0-0.2,0.1-0.3,0.2-0.4c0.1-0.1,0.2-0.2,0.4-0.2h1.1c0.2,0,0.3,0.1,0.4,0.2
		c0.1,0.1,0.2,0.2,0.2,0.4v0.8c0.8-1.1,2-1.6,3.5-1.6c1.8,0,3,0.7,3.8,2.2c0.4-0.7,0.9-1.2,1.6-1.6c0.7-0.4,1.5-0.6,2.4-0.6
		c1.3,0,2.4,0.4,3.2,1.3c0.8,0.9,1.2,2.2,1.2,3.9v6.9c0,0.2-0.1,0.3-0.2,0.4c-0.1,0.1-0.2,0.2-0.4,0.2H872c-0.2,0-0.3-0.1-0.4-0.2
		c-0.1-0.1-0.2-0.2-0.2-0.4v-6.7c0-1.2-0.3-2.1-0.8-2.7c-0.5-0.5-1.2-0.8-2.1-0.8c-0.8,0-1.4,0.3-1.9,0.8s-0.8,1.4-0.8,2.7v6.7
		c0,0.2-0.1,0.3-0.2,0.4c-0.1,0.1-0.2,0.2-0.4,0.2h-1.1c-0.2,0-0.3-0.1-0.4-0.2c-0.1-0.1-0.2-0.2-0.2-0.4v-6.7
		c0-1.2-0.3-2.1-0.8-2.7s-1.2-0.8-2-0.8c-0.8,0-1.4,0.3-1.9,0.8s-0.8,1.4-0.8,2.7v6.7c0,0.2-0.1,0.3-0.2,0.4
		c-0.1,0.1-0.2,0.2-0.4,0.2h-1.2C856.2,122.7,856.1,122.6,856,122.5z"/>
</g>
<line class="st3" x1="722.8" y1="116.2" x2="786.2" y2="116.2"/>
<polygon class="st4" points="784,123.7 797,116.2 784,108.7 "/>
<ellipse transform="matrix(0.7071 -0.7071 0.7071 0.7071 232.7032 794.1952)" class="st1" cx="1075" cy="116.2" rx="90.3" ry="90.3"/>
<g class="st2">
	<path d="M1013.6,123c-0.1-0.1-0.1-0.2-0.1-0.3c0-0.1,0-0.2,0-0.3l6-15.5c0.1-0.4,0.4-0.5,0.8-0.5h1.6c0.4,0,0.6,0.2,0.8,0.5
		l5.9,15.5l0,0.3c0,0.1,0,0.2-0.1,0.3c-0.1,0.1-0.2,0.1-0.3,0.1h-1.2c-0.2,0-0.3,0-0.4-0.1s-0.2-0.2-0.2-0.3l-1.3-3.4h-7.9l-1.3,3.4
		c0,0.1-0.1,0.2-0.2,0.3s-0.2,0.1-0.4,0.1h-1.2C1013.8,123.2,1013.7,123.1,1013.6,123z M1024.2,117.3l-3.2-8.5l-3.2,8.5H1024.2z"/>
</g>
<g class="st2">
	<path d="M1031.5,121.8c-0.8-1.1-1.3-2.5-1.3-4.1l0-0.7l0-0.7c0-1.6,0.5-3,1.3-4.1c0.8-1.1,2.1-1.6,3.8-1.6c1.6,0,2.9,0.6,3.9,1.8
		v-5.5c0-0.2,0.1-0.3,0.2-0.4c0.1-0.1,0.2-0.2,0.4-0.2h1.2c0.2,0,0.3,0.1,0.4,0.2c0.1,0.1,0.2,0.2,0.2,0.4v15.9
		c0,0.2-0.1,0.3-0.2,0.4c-0.1,0.1-0.2,0.2-0.4,0.2h-1.1c-0.2,0-0.3-0.1-0.4-0.2c-0.1-0.1-0.2-0.2-0.2-0.4v-1c-0.9,1.2-2.2,1.8-4,1.8
		C1033.6,123.4,1032.3,122.9,1031.5,121.8z M1038.2,120.4c0.6-0.7,0.9-1.6,0.9-2.6c0-0.2,0-0.5,0-0.9c0-0.4,0-0.8,0-0.9
		c0-0.9-0.3-1.8-0.9-2.5s-1.4-1.1-2.5-1.1c-1.1,0-2,0.4-2.5,1.1c-0.5,0.7-0.8,1.6-0.9,2.8l0,0.7c0,3,1.1,4.5,3.4,4.5
		C1036.9,121.5,1037.7,121.1,1038.2,120.4z"/>
	<path d="M1045.8,121.8c-0.8-1.1-1.3-2.5-1.3-4.1l0-0.7l0-0.7c0-1.6,0.5-3,1.3-4.1c0.8-1.1,2.1-1.6,3.8-1.6c1.6,0,2.9,0.6,3.9,1.8
		v-5.5c0-0.2,0.1-0.3,0.2-0.4c0.1-0.1,0.2-0.2,0.4-0.2h1.2c0.2,0,0.3,0.1,0.4,0.2c0.1,0.1,0.2,0.2,0.2,0.4v15.9
		c0,0.2-0.1,0.3-0.2,0.4c-0.1,0.1-0.2,0.2-0.4,0.2h-1.1c-0.2,0-0.3-0.1-0.4-0.2c-0.1-0.1-0.2-0.2-0.2-0.4v-1c-0.9,1.2-2.2,1.8-4,1.8
		C1047.9,123.4,1046.6,122.9,1045.8,121.8z M1052.5,120.4c0.6-0.7,0.9-1.6,0.9-2.6c0-0.2,0-0.5,0-0.9c0-0.4,0-0.8,0-0.9
		c0-0.9-0.3-1.8-0.9-2.5s-1.4-1.1-2.5-1.1c-1.1,0-2,0.4-2.5,1.1c-0.5,0.7-0.8,1.6-0.9,2.8l0,0.7c0,3,1.1,4.5,3.4,4.5
		C1051.1,121.5,1052,121.1,1052.5,120.4z"/>
</g>
<g class="st2">
	<path d="M1065.7,119v-6.3h-1.9c-0.2,0-0.3-0.1-0.4-0.2c-0.1-0.1-0.2-0.2-0.2-0.4v-0.8c0-0.2,0.1-0.3,0.2-0.4
		c0.1-0.1,0.2-0.2,0.4-0.2h1.9v-4c0-0.2,0.1-0.3,0.2-0.4c0.1-0.1,0.2-0.2,0.4-0.2h1.1c0.2,0,0.3,0.1,0.4,0.2
		c0.1,0.1,0.2,0.2,0.2,0.4v4h3c0.2,0,0.3,0.1,0.4,0.2c0.1,0.1,0.2,0.2,0.2,0.4v0.8c0,0.2-0.1,0.3-0.2,0.4c-0.1,0.1-0.2,0.2-0.4,0.2
		h-3v6.2c0,0.8,0.1,1.4,0.4,1.8s0.7,0.6,1.3,0.6h1.5c0.2,0,0.3,0.1,0.4,0.2c0.1,0.1,0.2,0.2,0.2,0.4v0.9c0,0.2-0.1,0.3-0.2,0.4
		c-0.1,0.1-0.2,0.2-0.4,0.2h-1.7C1067,123.2,1065.7,121.8,1065.7,119z"/>
	<path d="M1075,121.9c-1-1-1.5-2.3-1.5-4l0-1l0-1c0.1-1.6,0.6-2.9,1.6-3.9c1-1,2.3-1.5,4.1-1.5c1.7,0,3.1,0.5,4.1,1.5
		c1,1,1.5,2.3,1.6,3.9c0,0.2,0,0.5,0,1c0,0.5,0,0.9,0,1c-0.1,1.6-0.6,3-1.5,4c-1,1-2.3,1.5-4.1,1.5
		C1077.4,123.4,1076,122.9,1075,121.9z M1081.5,120.6c0.6-0.6,0.9-1.6,0.9-2.8c0-0.2,0-0.5,0-0.9c0-0.4,0-0.8,0-0.9
		c0-1.2-0.4-2.1-0.9-2.8c-0.6-0.6-1.4-1-2.4-1c-1,0-1.8,0.3-2.4,1c-0.6,0.6-0.9,1.6-0.9,2.8l0,0.9l0,0.9c0,1.2,0.3,2.1,0.9,2.8
		c0.6,0.6,1.4,1,2.4,1C1080.1,121.6,1080.9,121.3,1081.5,120.6z"/>
	<path d="M1094.7,122c-1-1-1.5-2.3-1.5-4.1l0-1l0-1c0.1-1.7,0.6-3.1,1.5-4.1c1-1,2.3-1.5,4-1.5c1.2,0,2.1,0.2,2.9,0.6
		c0.8,0.4,1.4,0.9,1.8,1.5c0.4,0.6,0.6,1.2,0.6,1.8c0,0.2,0,0.3-0.1,0.4c-0.1,0.1-0.2,0.1-0.4,0.1h-1.2c-0.2,0-0.3,0-0.4-0.1
		c-0.1-0.1-0.2-0.2-0.2-0.4c-0.3-0.8-0.7-1.3-1.2-1.6c-0.5-0.3-1.1-0.5-1.9-0.5c-1,0-1.8,0.3-2.4,0.9c-0.6,0.6-0.9,1.6-0.9,2.8
		l0,0.9l0,0.8c0,1.3,0.4,2.2,0.9,2.8c0.6,0.6,1.4,0.9,2.4,0.9c0.8,0,1.4-0.2,1.9-0.5c0.5-0.3,0.9-0.9,1.2-1.6
		c0.1-0.2,0.2-0.3,0.2-0.4c0.1-0.1,0.2-0.1,0.4-0.1h1.2c0.2,0,0.3,0.1,0.4,0.2c0.1,0.1,0.2,0.2,0.1,0.4c0,0.6-0.2,1.2-0.6,1.8
		c-0.4,0.6-1,1.1-1.8,1.5s-1.8,0.6-2.9,0.6C1097,123.4,1095.6,122.9,1094.7,122z"/>
	<path d="M1108.2,122.9c-0.7-0.3-1.2-0.8-1.6-1.3c-0.4-0.6-0.6-1.2-0.6-1.8c0-1.1,0.4-1.9,1.3-2.6c0.9-0.7,2.1-1.1,3.5-1.3l3.6-0.5
		v-0.7c0-1.6-0.9-2.4-2.8-2.4c-0.7,0-1.3,0.1-1.7,0.4c-0.4,0.3-0.8,0.6-1,1c0,0.1-0.1,0.2-0.2,0.3c-0.1,0.1-0.2,0.1-0.3,0.1h-1
		c-0.1,0-0.3-0.1-0.4-0.2c-0.1-0.1-0.2-0.2-0.2-0.4c0-0.4,0.2-0.8,0.5-1.3c0.3-0.5,0.9-0.9,1.6-1.3c0.7-0.4,1.6-0.5,2.7-0.5
		c1.8,0,3.1,0.4,3.9,1.3s1.2,1.9,1.2,3.1v7.8c0,0.2-0.1,0.3-0.2,0.4c-0.1,0.1-0.2,0.2-0.4,0.2h-1.1c-0.2,0-0.3-0.1-0.4-0.2
		c-0.1-0.1-0.2-0.2-0.2-0.4v-1c-0.4,0.5-0.9,0.9-1.5,1.3s-1.5,0.5-2.6,0.5C1109.6,123.4,1108.9,123.3,1108.2,122.9z M1113.4,120.6
		c0.7-0.7,1-1.7,1-2.9V117l-2.8,0.4c-1.1,0.2-2,0.4-2.6,0.8c-0.6,0.4-0.9,0.9-0.9,1.4c0,0.6,0.3,1.1,0.8,1.5
		c0.5,0.3,1.2,0.5,1.9,0.5C1111.9,121.6,1112.8,121.3,1113.4,120.6z"/>
	<path d="M1120.3,123c-0.1-0.1-0.2-0.2-0.2-0.4v-11.4c0-0.2,0.1-0.3,0.2-0.4c0.1-0.1,0.2-0.2,0.4-0.2h1.1c0.2,0,0.3,0.1,0.4,0.2
		c0.1,0.1,0.2,0.2,0.2,0.4v1.1c0.7-1.1,1.8-1.6,3.4-1.6h0.9c0.2,0,0.3,0.1,0.4,0.2c0.1,0.1,0.2,0.2,0.2,0.4v1c0,0.2-0.1,0.3-0.2,0.4
		c-0.1,0.1-0.2,0.1-0.4,0.1h-1.4c-0.9,0-1.5,0.3-2,0.8c-0.5,0.5-0.7,1.2-0.7,2.1v7.1c0,0.2-0.1,0.3-0.2,0.4
		c-0.1,0.1-0.2,0.2-0.4,0.2h-1.2C1120.5,123.2,1120.4,123.1,1120.3,123z"/>
	<path d="M1130.4,119v-6.3h-1.9c-0.2,0-0.3-0.1-0.4-0.2c-0.1-0.1-0.2-0.2-0.2-0.4v-0.8c0-0.2,0.1-0.3,0.2-0.4
		c0.1-0.1,0.2-0.2,0.4-0.2h1.9v-4c0-0.2,0.1-0.3,0.2-0.4c0.1-0.1,0.2-0.2,0.4-0.2h1.1c0.2,0,0.3,0.1,0.4,0.2
		c0.1,0.1,0.2,0.2,0.2,0.4v4h3c0.2,0,0.3,0.1,0.4,0.2c0.1,0.1,0.2,0.2,0.2,0.4v0.8c0,0.2-0.1,0.3-0.2,0.4c-0.1,0.1-0.2,0.2-0.4,0.2
		h-3v6.2c0,0.8,0.1,1.4,0.4,1.8c0.3,0.4,0.7,0.6,1.3,0.6h1.5c0.2,0,0.3,0.1,0.4,0.2c0.1,0.1,0.2,0.2,0.2,0.4v0.9
		c0,0.2-0.1,0.3-0.2,0.4c-0.1,0.1-0.2,0.2-0.4,0.2h-1.7C1131.6,123.2,1130.4,121.8,1130.4,119z"/>
</g>
<line class="st3" x1="1169.6" y1="116.2" x2="1233" y2="116.2"/>
<polygon class="st4" points="1230.8,123.7 1243.7,116.2 1230.8,108.7 "/>
<line class="st5" x1="1298.6" y1="316.8" x2="1362" y2="316.8"/>
<polygon class="st6" points="1359.8,324.3 1372.7,316.8 1359.8,309.3 "/>
<line class="st3" x1="1460.7" y1="407.2" x2="1460.7" y2="470.6"/>
<polygon class="st4" points="1453.2,468.4 1460.7,481.4 1468.2,468.4 "/>
<line class="st3" x1="906.3" y1="116.2" x2="969.7" y2="116.2"/>
<polygon class="st4" points="967.5,123.7 980.5,116.2 967.5,108.7 "/>
<path class="st1" d="M1460.7,237.9c0.5,0,1,0.2,1.4,0.6l76.9,76.8c0.8,0.8,0.8,2,0,2.8c0,0,0,0,0,0l-76.9,76.8c-0.8,0.8-2,0.8-2.8,0
	c0,0,0,0,0,0l-76.8-76.9c-0.8-0.8-0.8-2,0-2.8c0,0,0,0,0,0l76.8-76.8C1459.7,238.1,1460.2,237.9,1460.7,237.9 M1460.7,234.9
	c-1.3,0-2.6,0.5-3.5,1.5l-76.8,76.8c-2,2-2,5.1,0,7.1l76.8,76.9c2,2,5.1,2,7.1,0l76.8-76.9c2-2,2-5.1,0-7.1l-76.8-76.8
	C1463.3,235.4,1462,234.9,1460.7,234.9L1460.7,234.9z"/>
<g class="st2">
	<path d="M1189,312.2c-0.1-0.1-0.1-0.2-0.1-0.3c0-0.1,0-0.2,0-0.3l6-15.5c0.1-0.4,0.4-0.5,0.8-0.5h1.6c0.4,0,0.6,0.2,0.8,0.5
		l5.9,15.5l0,0.3c0,0.1,0,0.2-0.1,0.3c-0.1,0.1-0.2,0.1-0.3,0.1h-1.2c-0.2,0-0.3,0-0.4-0.1c-0.1-0.1-0.2-0.2-0.2-0.3l-1.3-3.4h-7.9
		l-1.3,3.4c0,0.1-0.1,0.2-0.2,0.3c-0.1,0.1-0.2,0.1-0.4,0.1h-1.2C1189.2,312.4,1189.1,312.3,1189,312.2z M1199.6,306.5l-3.2-8.5
		l-3.2,8.5H1199.6z"/>
</g>
<g class="st2">
	<path d="M1206.9,311c-0.8-1.1-1.3-2.5-1.3-4.1l0-0.7l0-0.7c0-1.6,0.5-3,1.3-4.1c0.8-1.1,2.1-1.6,3.8-1.6c1.6,0,2.9,0.6,3.9,1.8
		v-5.5c0-0.2,0.1-0.3,0.2-0.4c0.1-0.1,0.2-0.2,0.4-0.2h1.2c0.2,0,0.3,0.1,0.4,0.2c0.1,0.1,0.2,0.2,0.2,0.4v15.9
		c0,0.2-0.1,0.3-0.2,0.4c-0.1,0.1-0.2,0.2-0.4,0.2h-1.1c-0.2,0-0.3-0.1-0.4-0.2c-0.1-0.1-0.2-0.2-0.2-0.4v-1c-0.9,1.2-2.2,1.8-4,1.8
		C1209,312.6,1207.7,312.1,1206.9,311z M1213.6,309.6c0.6-0.7,0.9-1.6,0.9-2.6c0-0.2,0-0.5,0-0.9c0-0.4,0-0.8,0-0.9
		c0-0.9-0.3-1.8-0.9-2.5s-1.4-1.1-2.5-1.1c-1.1,0-2,0.4-2.5,1.1c-0.5,0.7-0.8,1.6-0.9,2.8l0,0.7c0,3,1.1,4.5,3.4,4.5
		C1212.2,310.7,1213.1,310.3,1213.6,309.6z"/>
	<path d="M1221.1,311c-0.8-1.1-1.3-2.5-1.3-4.1l0-0.7l0-0.7c0-1.6,0.5-3,1.3-4.1c0.8-1.1,2.1-1.6,3.8-1.6c1.6,0,2.9,0.6,3.9,1.8
		v-5.5c0-0.2,0.1-0.3,0.2-0.4c0.1-0.1,0.2-0.2,0.4-0.2h1.2c0.2,0,0.3,0.1,0.4,0.2c0.1,0.1,0.2,0.2,0.2,0.4v15.9
		c0,0.2-0.1,0.3-0.2,0.4c-0.1,0.1-0.2,0.2-0.4,0.2h-1.1c-0.2,0-0.3-0.1-0.4-0.2c-0.1-0.1-0.2-0.2-0.2-0.4v-1c-0.9,1.2-2.2,1.8-4,1.8
		C1223.3,312.6,1222,312.1,1221.1,311z M1227.9,309.6c0.6-0.7,0.9-1.6,0.9-2.6c0-0.2,0-0.5,0-0.9c0-0.4,0-0.8,0-0.9
		c0-0.9-0.3-1.8-0.9-2.5s-1.4-1.1-2.5-1.1c-1.1,0-2,0.4-2.5,1.1c-0.5,0.7-0.8,1.6-0.9,2.8l0,0.7c0,3,1.1,4.5,3.4,4.5
		C1226.5,310.7,1227.4,310.3,1227.9,309.6z"/>
</g>
<g class="st2">
	<path d="M1183.8,341c-0.1-0.1-0.2-0.2-0.2-0.4v-11.4c0-0.2,0.1-0.3,0.2-0.4c0.1-0.1,0.2-0.2,0.4-0.2h1.1c0.2,0,0.3,0.1,0.4,0.2
		c0.1,0.1,0.2,0.2,0.2,0.4v0.8c0.8-1.1,2-1.6,3.5-1.6c1.8,0,3,0.7,3.8,2.2c0.4-0.7,0.9-1.2,1.6-1.6c0.7-0.4,1.5-0.6,2.4-0.6
		c1.3,0,2.4,0.4,3.2,1.3c0.8,0.9,1.2,2.2,1.2,3.9v6.9c0,0.2-0.1,0.3-0.2,0.4c-0.1,0.1-0.2,0.2-0.4,0.2h-1.1c-0.2,0-0.3-0.1-0.4-0.2
		c-0.1-0.1-0.2-0.2-0.2-0.4v-6.7c0-1.2-0.3-2.1-0.8-2.7c-0.5-0.5-1.2-0.8-2.1-0.8c-0.8,0-1.4,0.3-1.9,0.8s-0.8,1.4-0.8,2.7v6.7
		c0,0.2-0.1,0.3-0.2,0.4c-0.1,0.1-0.2,0.2-0.4,0.2h-1.1c-0.2,0-0.3-0.1-0.4-0.2c-0.1-0.1-0.2-0.2-0.2-0.4v-6.7
		c0-1.2-0.3-2.1-0.8-2.7s-1.2-0.8-2-0.8c-0.8,0-1.4,0.3-1.9,0.8c-0.5,0.6-0.8,1.4-0.8,2.7v6.7c0,0.2-0.1,0.3-0.2,0.4
		c-0.1,0.1-0.2,0.2-0.4,0.2h-1.2C1184.1,341.2,1183.9,341.1,1183.8,341z"/>
	<path d="M1206,339.9c-1-1-1.5-2.3-1.5-4l0-1l0-1c0.1-1.6,0.6-2.9,1.6-3.9c1-1,2.3-1.5,4.1-1.5c1.7,0,3.1,0.5,4.1,1.5
		c1,1,1.5,2.3,1.6,3.9c0,0.2,0,0.5,0,1c0,0.5,0,0.9,0,1c-0.1,1.6-0.6,3-1.5,4c-1,1-2.3,1.5-4.1,1.5
		C1208.4,341.4,1207,340.9,1206,339.9z M1212.5,338.6c0.6-0.6,0.9-1.6,0.9-2.8c0-0.2,0-0.5,0-0.9c0-0.4,0-0.8,0-0.9
		c0-1.2-0.4-2.1-0.9-2.8c-0.6-0.6-1.4-1-2.4-1c-1,0-1.8,0.3-2.4,1c-0.6,0.6-0.9,1.6-0.9,2.8l0,0.9l0,0.9c0,1.2,0.3,2.1,0.9,2.8
		c0.6,0.6,1.4,1,2.4,1C1211.1,339.6,1211.9,339.2,1212.5,338.6z"/>
</g>
<g class="st2">
	<path d="M1218.9,341c-0.1-0.1-0.2-0.2-0.2-0.4v-11.4c0-0.2,0.1-0.3,0.2-0.4c0.1-0.1,0.2-0.2,0.4-0.2h1.1c0.2,0,0.3,0.1,0.4,0.2
		c0.1,0.1,0.2,0.2,0.2,0.4v1.1c0.7-1.1,1.8-1.6,3.4-1.6h0.9c0.2,0,0.3,0.1,0.4,0.2c0.1,0.1,0.2,0.2,0.2,0.4v1c0,0.2-0.1,0.3-0.2,0.4
		c-0.1,0.1-0.2,0.1-0.4,0.1h-1.4c-0.9,0-1.5,0.3-2,0.8s-0.7,1.2-0.7,2.1v7.1c0,0.2-0.1,0.3-0.2,0.4c-0.1,0.1-0.2,0.2-0.4,0.2h-1.2
		C1219.2,341.2,1219,341.1,1218.9,341z"/>
</g>
<g class="st2">
	<path d="M1228.7,339.9c-1-1-1.5-2.4-1.6-4.2l0-0.8l0-0.8c0.1-1.7,0.7-3.1,1.6-4.1c1-1,2.3-1.5,3.9-1.5c1.8,0,3.2,0.6,4.1,1.7
		s1.5,2.7,1.5,4.6v0.4c0,0.2-0.1,0.3-0.2,0.4c-0.1,0.1-0.2,0.2-0.4,0.2h-8.3v0.2c0,1,0.4,1.9,0.9,2.7c0.6,0.7,1.4,1.1,2.3,1.1
		c0.7,0,1.3-0.1,1.8-0.4c0.5-0.3,0.8-0.6,1-0.9c0.1-0.2,0.3-0.3,0.3-0.3c0.1,0,0.2-0.1,0.4-0.1h1.2c0.1,0,0.3,0,0.4,0.1
		c0.1,0.1,0.1,0.2,0.1,0.3c0,0.4-0.2,0.8-0.7,1.3c-0.4,0.5-1.1,0.9-1.8,1.3c-0.8,0.4-1.7,0.5-2.7,0.5
		C1231,341.4,1229.7,340.9,1228.7,339.9z M1235.9,334L1235.9,334c0-1.2-0.3-2.1-0.9-2.8s-1.4-1-2.4-1s-1.8,0.3-2.4,1
		s-0.9,1.6-0.9,2.7v0.1H1235.9z"/>
</g>
<path class="st1" d="M1210.6,237.9c0.5,0,1,0.2,1.4,0.6l76.8,76.8c0.8,0.8,0.8,2,0,2.8c0,0,0,0,0,0L1212,395c-0.8,0.8-2,0.8-2.8,0
	c0,0,0,0,0,0l-76.8-76.9c-0.8-0.8-0.8-2,0-2.8c0,0,0,0,0,0l76.8-76.8C1209.5,238.1,1210.1,237.9,1210.6,237.9 M1210.6,234.9
	c-1.3,0-2.6,0.5-3.5,1.5l-76.8,76.8c-2,2-2,5.1,0,7.1l76.8,76.9c2,2,5.1,2,7.1,0l76.9-76.8c2-2,2-5.1,0-7.1l-76.8-76.8
	C1213.2,235.5,1211.9,234.9,1210.6,234.9L1210.6,234.9z"/>
<line class="st7" x1="1546.6" y1="316.8" x2="1550.8" y2="316.8"/>
<line class="st8" x1="1557.9" y1="316.8" x2="1568.7" y2="316.8"/>
<polyline class="st7" points="1572.3,316.8 1576.4,316.8 1576.4,312.6 "/>
<line class="st9" x1="1576.4" y1="304.3" x2="1576.4" y2="126.4"/>
<polyline class="st7" points="1576.4,122.3 1576.4,118.2 1572.3,118.2 "/>
<line class="st10" x1="1564.3" y1="118.2" x2="1440.6" y2="118.2"/>
<line class="st7" x1="1436.6" y1="118.2" x2="1432.5" y2="118.2"/>
<polygon class="st6" points="1434.7,110.7 1421.7,118.2 1434.7,125.6 "/>
<polyline class="st11" points="1122.1,317.3 850.6,320.5 850.6,161.1 "/>
<polygon class="st4" points="859.4,163.7 850.6,148.5 841.9,163.7 "/>
<polyline class="st3" points="1210.6,214.4 1210.6,187.1 1458.8,187.1 1458.8,217.9 "/>
<polygon class="st4" points="1218.1,212.2 1210.6,225.2 1203.1,212.2 "/>
<polygon class="st4" points="1451.3,215.7 1458.8,228.7 1466.3,215.7 "/>
<line class="st3" x1="1330.7" y1="187.1" x2="1330.7" y2="148.5"/>
</svg>
