<?xml version="1.0" encoding="utf-8"?>
<!-- Generator: Adobe Illustrator 26.0.1, SVG Export Plug-In . SVG Version: 6.00 Build 0)  -->
<svg version="1.1" id="Layer_1" xmlns="http://www.w3.org/2000/svg" xmlns:xlink="http://www.w3.org/1999/xlink" x="0px" y="0px"
	 viewBox="0 0 24 24" style="enable-background:new 0 0 24 24;" xml:space="preserve">
<style type="text/css">
	.st0{fill:#A3C9A8;}
</style>
<path class="st0" d="M5,16.4c-0.2,0.4-0.2,0.8-0.1,1.1c-1.6-0.4-3-1.3-4.1-2.6c-0.3-0.2-0.3-0.6-0.2-0.9c0.5-1.4,1.9-2.4,3.4-2.4
	c1.3,0,2.7,0,4,0c0.4,0.8,1,1.5,1.8,1.9H9.1C7.2,13.6,5.6,14.7,5,16.4z"/>
<path class="st0" d="M7.7,9.8c0,0.3,0,0.6,0.1,0.9C5.8,11.1,3.9,9.9,3.5,8C3.5,7.7,3.4,7.4,3.4,7.2l0,0c0-2,1.7-3.6,3.6-3.5
	c1.4,0,2.7,0.9,3.3,2.2C8.7,6.5,7.7,8.1,7.7,9.8L7.7,9.8z"/>
<path class="st0" d="M23.1,15c-1.1,1.2-2.5,2-4,2.4c0.1-0.4,0-0.8-0.1-1.1c-0.7-1.6-2.2-2.7-4-2.7h-0.8c0.8-0.4,1.4-1.1,1.8-1.9
	c1.3,0,2.7,0,4,0c1.5,0,2.8,0.9,3.4,2.3C23.5,14.3,23.4,14.7,23.1,15z"/>
<path class="st0" d="M20.6,7.2c0,2-1.6,3.5-3.6,3.5c-0.2,0-0.5,0-0.7-0.1c0.1-0.3,0.1-0.5,0.1-0.8c0-1.8-1-3.4-2.7-4.1
	c0.8-1.8,2.9-2.7,4.7-1.9C19.7,4.4,20.6,5.8,20.6,7.2z"/>
<path class="st0" d="M18.2,17.6L18.2,17.6L17.9,18l-0.3,0.3c-0.2,0.2-0.4,0.4-0.7,0.5L16.5,19c-0.1,0.1-0.3,0.1-0.4,0.2
	c-0.1,0.1-0.3,0.1-0.4,0.2c-0.2,0.1-0.4,0.2-0.6,0.3l-0.2,0.1l0,0L14.3,20c-0.9,0.2-1.8,0.3-2.7,0.3l0,0c-2.1-0.1-4.1-1.1-5.6-2.7
	l-0.1-0.1c-0.3-0.2-0.3-0.6-0.2-0.9c0.5-1.4,1.9-2.4,3.4-2.4h1.5h2.8c0.5,0,1,0,1.5,0c1.5,0,2.8,0.9,3.4,2.3
	C18.6,17,18.5,17.4,18.2,17.6z"/>
<path class="st0" d="M15.6,9.8c0,0.2,0,0.4-0.1,0.6l0,0c0,0.1,0,0.2,0,0.2l-0.1,0.2c-0.1,0.3-0.2,0.6-0.4,0.8L15,11.8l-0.2,0.3
	c-0.4,0.4-0.8,0.8-1.4,1c-0.1,0.1-0.3,0.1-0.4,0.2l0,0c-0.3,0.1-0.6,0.1-0.9,0.1l0,0c-2,0-3.6-1.5-3.7-3.5c0,0,0,0,0-0.1l0,0
	c0-0.1,0-0.2,0-0.4c0-0.2,0-0.3,0.1-0.5c0-0.1,0.1-0.2,0.1-0.3s0.1-0.2,0.1-0.3C8.8,8.1,8.9,8,9,7.9C9.3,7.4,9.7,7,10.2,6.7
	c0.1-0.1,0.2-0.1,0.3-0.2h0.1C11,6.4,11.5,6.2,12,6.2l0,0c0.5,0,1,0.1,1.4,0.3C14.8,7.1,15.6,8.4,15.6,9.8z"/>
</svg>
