<svg id="Layer_1" data-name="Layer 1" xmlns="http://www.w3.org/2000/svg" viewBox="0 0 24 24"><defs><style>.cls-1{fill:#00b2ac;}</style></defs><path class="cls-1" d="M5,16.43a1.55,1.55,0,0,0-.06,1.12A8.38,8.38,0,0,1,.85,15a.79.79,0,0,1-.18-.94,3.68,3.68,0,0,1,3.41-2.37c1.34,0,2.67,0,4,0a4.33,4.33,0,0,0,1.77,1.9h-.8A4.41,4.41,0,0,0,5,16.43Z"/><path class="cls-1" d="M7.66,9.8a4.12,4.12,0,0,0,.09.86,3.55,3.55,0,0,1-4.31-3.5v0a3.58,3.58,0,0,1,6.89-1.31,4.37,4.37,0,0,0-2.67,4Z"/><path class="cls-1" d="M23.15,15a8,8,0,0,1-4,2.43A1.56,1.56,0,0,0,19,16.33a4.34,4.34,0,0,0-4-2.73l-.84,0a4.34,4.34,0,0,0,1.78-1.89c1.34,0,2.69,0,4,0A3.6,3.6,0,0,1,23.31,14,.82.82,0,0,1,23.15,15Z"/><path class="cls-1" d="M20.58,7.2A3.59,3.59,0,0,1,17,10.74a4.65,4.65,0,0,1-.74-.08,3.7,3.7,0,0,0,.09-.8A4.33,4.33,0,0,0,13.7,5.8a3.58,3.58,0,0,1,6.88,1.4Z"/><path class="cls-1" d="M18.17,17.64l0,0-.3.32-.31.3c-.21.19-.44.37-.67.54l-.36.25c-.12.09-.26.15-.38.23a3.55,3.55,0,0,1-.39.2c-.2.1-.41.19-.62.27l-.21.09h0l-.66.21a10.47,10.47,0,0,1-2.73.33h0a7.89,7.89,0,0,1-5.56-2.68l-.06-.06a.81.81,0,0,1-.18-.94,3.68,3.68,0,0,1,3.41-2.37l1.52,0h2.82c.51,0,1,0,1.52,0a3.6,3.6,0,0,1,3.38,2.31A.82.82,0,0,1,18.17,17.64Z"/><path class="cls-1" d="M15.58,9.84a3.66,3.66,0,0,1-.05.57h0a1.85,1.85,0,0,1,0,.23l-.06.21a3.21,3.21,0,0,1-.39.84l-.08.13-.2.27a3.6,3.6,0,0,1-1.37,1,2.69,2.69,0,0,1-.45.16h0a3.8,3.8,0,0,1-.89.11h0A3.58,3.58,0,0,1,8.43,9.79v0a2.19,2.19,0,0,1,0-.36,4.34,4.34,0,0,1,.09-.52c0-.11.07-.23.11-.34s.09-.21.14-.31A1.46,1.46,0,0,1,9,7.92a3.5,3.5,0,0,1,1.2-1.19,2.19,2.19,0,0,1,.3-.16l.06,0A3.62,3.62,0,0,1,12,6.22h0a3.48,3.48,0,0,1,1.45.32A3.58,3.58,0,0,1,15.58,9.84Z"/></svg>