<svg id="Layer_1" data-name="Layer 1" xmlns="http://www.w3.org/2000/svg" viewBox="0 0 97.4 97.1"><defs><style>.cls-1{fill:none;stroke:#a3c9a8;stroke-linecap:round;stroke-miterlimit:10;stroke-width:5px;}.cls-2{fill:#ba727b;}</style></defs><path class="cls-1" d="M4.1,61.1c8.4.2,8.3,4.2,16.7,4.3s8.5-3.8,16.8-3.7,8.3,4.2,16.7,4.3,8.5-3.8,16.8-3.7,8.3,4.2,16.7,4.3"/><path class="cls-1" d="M4.1,46.1c8.4.2,8.3,4.2,16.7,4.3s8.5-3.8,16.8-3.7,8.3,4.2,16.7,4.3,8.5-3.8,16.8-3.7,8.3,4.2,16.7,4.3"/><path class="cls-1" d="M4.1,31.1c8.4.2,8.3,4.2,16.7,4.3s8.5-3.8,16.8-3.7,8.3,4.2,16.7,4.3,8.5-3.8,16.8-3.7,8.3,4.2,16.7,4.3"/><path class="cls-1" d="M4.1,16.1c8.4.2,8.3,4.2,16.7,4.3s8.5-3.8,16.8-3.7,8.3,4.2,16.7,4.3,8.5-3.8,16.8-3.7,8.3,4.2,16.7,4.3"/><path class="cls-2" d="M39.69,61.17a1.62,1.62,0,0,1-.35-2,7.25,7.25,0,0,1,6.76-4.65c3.9-.07,7.87,0,11.73,0a7.39,7.39,0,0,1,6.84,4.8,1.62,1.62,0,0,1-.35,1.89A16.12,16.12,0,0,1,53,66.72,16.8,16.8,0,0,1,39.69,61.17Z"/><path class="cls-2" d="M59.08,45.4v.08a7.2,7.2,0,0,1-14.39,0,7.22,7.22,0,0,1,14.43-.08Z"/><path class="cls-2" d="M82.65,94.27c-6-3.92-11.83-8-17.87-11.72a11,11,0,0,0-5.46-1.65c-15-.13-30-.07-44.94-.08-4,0-6.61-2.46-6.62-6.4V30.84a5.93,5.93,0,0,1,5.58-6.26,4.45,4.45,0,0,1,.73,0H89.82c3.86,0,6.35,2.35,6.37,6.18q.07,21.88,0,43.77c0,3.91-2.56,6.25-6.5,6.29H84.58V95.45C83.73,94.93,83.17,94.62,82.65,94.27ZM78.5,80.69a6,6,0,0,1,6.15-5.85H90V30.69H13.94V74.83H59.5a14.41,14.41,0,0,1,8.64,2.61c3.27,2.26,6.61,4.39,10.35,6.86C78.49,82.77,78.42,81.72,78.5,80.69Z"/></svg>