<?xml version="1.0" encoding="utf-8"?>
<!-- Generator: Adobe Illustrator 26.0.1, SVG Export Plug-In . SVG Version: 6.00 Build 0)  -->
<svg version="1.1" id="Layer_1" xmlns="http://www.w3.org/2000/svg" xmlns:xlink="http://www.w3.org/1999/xlink" x="0px" y="0px"
	 viewBox="0 0 43.3 43.2" style="enable-background:new 0 0 43.3 43.2;" xml:space="preserve">
<style type="text/css">
	.st0{fill:none;stroke:#313159;stroke-width:1.06;}
	.st1{fill:#313159;stroke:#313159;stroke-width:1.06;}
	.st2{fill:none;stroke:#313159;stroke-width:1.06;stroke-miterlimit:10;}
	.st3{fill:none;stroke:#41416C;stroke-width:1.06;stroke-miterlimit:10;}
	.st4{fill:#FC0053;stroke:#FC0053;stroke-width:1.06;stroke-miterlimit:10;}
</style>
<g id="Layer_3">
	<g id="UX">
		<g id="UX-2">
			<g id="Group_41">
				<g id="Group_40">
					<path id="Path_79" class="st0" d="M22,27.7h-5c-0.3,0-0.3,0-0.3-0.3c0-1,0-2.1,0-3.1c0.1-1.3,1.1-2.3,2.4-2.2
						c1.9,0,3.9,0,5.8,0c1.3,0,2.3,1,2.4,2.2c0,1.1,0,2.1,0,3.2c0,0.2-0.1,0.2-0.2,0.2H22z"/>
					<path id="Path_80" class="st1" d="M22,20.6c-1.4-0.1-2.5-1.3-2.5-2.8c0.1-1.4,1.3-2.5,2.8-2.5c1.4,0.1,2.5,1.2,2.5,2.6l0,0
						C24.8,19.5,23.6,20.6,22,20.6C22.1,20.6,22.1,20.6,22,20.6L22,20.6z"/>
				</g>
				<path id="Path_81" class="st2" d="M14,12.8c5.2-4.1,12.7-3.5,17.2,1.3c4.1,4.5,3.8,11.6-0.7,15.7c-0.2,0.2-0.4,0.4-0.7,0.6
					c-5.2,4.1-12.7,3.5-17.2-1.3c-1.9-2.1-2.9-4.7-2.9-7.5c0-2.1,0.6-4.1,1.7-5.9"/>
				<path id="Path_82" class="st3" d="M4.2,24.5C2.6,15.1,9.4,6.2,19.3,4.7c0.9-0.1,1.9-0.2,2.9-0.2c2.6,0,5.2,0.5,7.7,1.6"/>
				<path id="Path_83" class="st3" d="M12.8,36.3c-3.6-2-6.3-5.1-7.8-8.9"/>
				<path id="Path_84" class="st3" d="M33.1,35.2c-5,3.6-11.3,4.5-17.1,2.6"/>
				<path id="Path_85" class="st2" d="M32.7,7.8c7.7,5.1,9.8,15.5,4.7,23.2c-0.2,0.4-0.5,0.7-0.8,1.1c-0.4,0.5-0.8,1-1.3,1.5"/>
				<ellipse id="Ellipse_11" class="st4" cx="31.2" cy="6.8" rx="1.6" ry="1.5"/>
				<ellipse id="Ellipse_12" class="st4" cx="4.8" cy="25.8" rx="1.6" ry="1.5"/>
				<ellipse id="Ellipse_13" class="st4" cx="34.3" cy="34" rx="1.6" ry="1.5"/>
				<rect id="Rectangle_25" x="11.3" y="12.7" class="st4" width="3.1" height="2.9"/>
				<rect id="Rectangle_26" x="12.9" y="35.5" class="st4" width="3.1" height="2.9"/>
			</g>
		</g>
	</g>
</g>
</svg>
