<svg id="Layer_1" data-name="Layer 1" xmlns="http://www.w3.org/2000/svg" viewBox="0 0 624.48 536.31"><defs><style>.cls-1{fill:#f282b4;}.cls-2{fill:#fff;}.cls-3,.cls-5{fill:#00160a;}.cls-4{fill:#e7eaee;}.cls-5{fill-rule:evenodd;}</style></defs><path class="cls-1" d="M547.19,411.64c3.42-3.85,5.58-6.78,8.37-10.18a50,50,0,0,0,4.14-5q5.47-8.79,10.64-17.77A139.49,139.49,0,0,0,582.5,349.9a97.12,97.12,0,0,0,2.17-10.76c.79-4.31,1.55-8.63,2.24-13a53.76,53.76,0,0,0,.87-7.47c.23-14,.33-27.95.5-41.93,0-1.43.4-2.86.41-4.29a49.65,49.65,0,0,0-2.15-15.67c-2-6.43-3.41-13.07-5.52-19.46-1.81-5.5-4.12-10.84-6.45-16.14-3.54-8.1-7-16.24-11-24.1-4.3-8.41-8.9-16.7-13.92-24.7-3.55-5.65-7.94-10.8-12.12-16-5.83-7.33-13.14-13-20.83-18.23-5.51-3.76-10.7-8-16.26-11.65a105.52,105.52,0,0,0-21.6-11.11c-3.81-1.4-7.3-3.63-11-5.28-8-3.55-16.05-7-24.14-10.4a115.9,115.9,0,0,0-14.36-5.33C420.06,91.92,412,86.68,402.88,84c-6.66-2-13.33-3.89-20-5.72-3.84-1-7.74-1.92-11.63-2.79l-.19,0c-5.34-1.2-10.68-2.41-16-3.44q-10.1-1.94-20.24-3.57a51.45,51.45,0,0,0-7.65-.47c-10.38,0-20.76,0-31.14,0-8.1,0-16,1.21-24,2.53-7.73,1.28-15,3.91-22.38,6.09-8.55,2.5-16.15,6.93-23.8,11.2-3.47,1.93-6.39,4.84-9.49,7.4s-6.3,5.15-9.24,8c-2,1.88-3.52,4.25-5.44,6.22-4.58,4.7-9.29,9.27-13.89,13.94s-9.47,9.4-13.88,14.39a67.25,67.25,0,0,1-24.27,17.18c-6,2.57-12.06,4.78-18.07,7.22-3.71,1.5-7.33,3.22-11,4.69-6.49,2.55-13.06,4.88-19.53,7.49a91.12,91.12,0,0,0-19.61,10.54A68.24,68.24,0,0,0,65,201.93c-3.73,5.48-7.21,11.16-10.42,17-3,5.5-4.65,11.58-5.77,17.77A92.1,92.1,0,0,0,47,258.31c.36,6.19,1.43,12.34,1.67,18.53.3,7.63,4,14,6.84,20.72,2.34,5.6,5.09,11.05,7.9,16.44s5.53,10.46,8.74,15.41c2.72,4.18,6,8,9.12,11.92,3.69,4.75,7.27,9.59,11.12,14.2,5.53,6.64,11.14,13.24,17,19.63q10.8,11.88,22,23.36c4.16,4.27,8.76,8.11,13,12.26,1.86,1.82,3.26,4.12,5.14,5.9a104.53,104.53,0,0,0,8.29,7c5.82,4.46,11.66,8.9,17.64,13.13,3.77,2.65,7.78,5,11.75,7.3.38,1.46,73.65,50.5,215.65,26C449.71,462,506.84,457.13,547.19,411.64Z"/><path class="cls-1" d="M597.88,353.2c-2.9,6.49-6,12.91-8.93,19.37-.63,1.38-1.17,2.81-1.81,4.18a4.23,4.23,0,0,1-3.81,2.69c-2.13,0-2.72-1.63-1.78-4.39,2.15-6.28,4.41-12.52,6.48-18.82,2.77-8.42,5.43-16.88,8.07-25.34,1-3.25,2-6.54,2.66-9.87.78-3.67,1.23-7.41,1.84-11.12s1.3-7.26,1.76-10.91c.57-4.58,1-9.18,1.35-13.78.53-7,1-14.11,1.32-21.17.13-2.92-.28-5.85-.4-8.78-.17-4.42-.28-8.84-.46-13.25a51.67,51.67,0,0,0-.46-5.42q-1.5-10.11-3.12-20.21c-.87-5.45-1.46-11-2.8-16.33-1.82-7.32-4.36-14.47-6.35-21.76a69.56,69.56,0,0,1-2-10.82,3.47,3.47,0,0,1,2.94-4.07c1.68-.36,5.59,1.3,6.84,3.2,1.84,2.82,3.77,5.59,5.47,8.49a64.22,64.22,0,0,1,7.49,21.31c.79,4.42,1.16,8.92,1.85,13.36,1,6.3,2.33,12.55,3,18.88.56,5,.37,10.07.54,15.11a218.15,218.15,0,0,1-1.37,28.57c-.26,2.61-.78,5.2-1.17,7.8-.8,5.27-1.66,10.53-2.37,15.81-.42,3.07-.41,6.21-1,9.25-1,5.66-2.56,11.23-3.48,16.91a89.94,89.94,0,0,1-6.33,20.69C600.59,346.4,599.37,349.86,597.88,353.2Z"/><path class="cls-1" d="M66.73,102.35c-3.55-2.93-7.24-5.73-9.83-9.64a43.38,43.38,0,0,1-6.66-15.6,36.26,36.26,0,0,1-.85-8.79,76.5,76.5,0,0,1,1.72-10.69c1.27-6.4,2.22-12.91,4.11-19.13,3.45-11.36,10.32-20.15,22.29-23.1,8.36-2.06,16.89-4.28,25.69-3.08,4.56.62,9.2,1.09,13.58,2.39a69.44,69.44,0,0,1,20.61,10.22c5.39,3.85,10.54,8,13.41,14.25a56,56,0,0,1,4.68,14.19,119.28,119.28,0,0,1,1.72,12,33.4,33.4,0,0,1-.84,8.12,78.37,78.37,0,0,1-6.51,20.37c-3,6-6.56,11.55-12,15.56a87.51,87.51,0,0,1-9.21,5.87c-4.82,2.69-10.26,1.13-15.38,1.63-4.14.4-8.5-.75-12.67-1.65-5.85-1.26-11.62-2.93-17.65-4.42C77,108.63,71.46,106.27,66.73,102.35Z"/><path class="cls-1" d="M49,173.87c-3.31,5.78-4.82,12.24-6.27,18.67a141.53,141.53,0,0,0-3.07,16.39,147.54,147.54,0,0,0-.48,17.72,83.28,83.28,0,0,0,1.29,10.64c.62,4.13,1.47,8.23,2,12.36a97.38,97.38,0,0,1,1,10.76c.07,2.47-2.36,4.28-4.85,4.43-3.17.18-7-3.12-8.08-5.68a60,60,0,0,1-4.85-24.39c0-9.88.38-19.77.88-29.64a159,159,0,0,1,1.77-15.83c1.23-8,4.67-15.3,9.07-22a116.21,116.21,0,0,1,18.33-21.52A12.22,12.22,0,0,1,60.39,143c1.61-.47,3.83-.59,4.6,1.52a5.54,5.54,0,0,1-.1,4,38,38,0,0,1-4,5.46C56.84,160.7,52.77,167.21,49,173.87Z"/><path class="cls-1" d="M545,115.6c-2.79-2.51-5.77-4.81-8.58-7.29a29.25,29.25,0,0,1-4.49-4.62,4,4,0,0,1-.13-3.35c.22-.48,2-.56,2.92-.39,4.39.77,7.88,3.33,11.52,5.73A141.44,141.44,0,0,1,565,120.85a121.23,121.23,0,0,1,14.86,17.6c2.15,3,4.11,6.19,4.34,10.05.09,1.67.34,3.63-1.43,4.51s-3.38,0-4.55-1.52c-4-5.06-7.93-10.17-12-15.2-1.62-2-3.42-3.94-5.25-6C555.6,125.3,550.33,120.4,545,115.6Z"/><path d="M85.43,425.69c-1-3.78-2.28-7.52-3-11.36a77.48,77.48,0,0,0-7-20.79c-1.74-3.47-3.43-7-5-10.54-3.3-7.56-6.39-15.21-9.77-22.73-1.86-4.11-4.16-8-6.18-12-.24-.46.05-1.19.1-1.8.7.25,1.71.29,2,.79a26.79,26.79,0,0,1,1.63,3.51c2.17,4.42,4.52,8.75,6.53,13.23,4.91,10.95,9.66,22,14.47,32.95a45.91,45.91,0,0,1,2.61,6.21c2.24,8.16,4.29,16.38,6.42,24.57,1.25,4.79,2.67,9.54,3.74,14.37.35,1.58.82,1.51,1.69.7a27.49,27.49,0,0,0,4.44-4.59c2.13-3.21,1.7-7.14,2.26-10.75.43-2.76,0-5.65.11-8.47,0-1.59.3-3.18.41-4.77a11.56,11.56,0,0,0,0-2.63c-.36-2.19-.92-4.36-1.25-6.55-.79-5.3-1.22-10.66-2.29-15.89-1.77-8.68-5.19-16.86-8.9-24.84-2.06-4.41-5.11-8.39-7.91-12.43a70,70,0,0,0-5.72-6.92c-3.68-4.06-6.73-8.93-12.67-10.22a5,5,0,0,1-1.66-.8c-4-2.71-8.52-3.59-13.18-4a24.39,24.39,0,0,0-16.12,3.86c-4.62,3.07-9,6.26-12.28,10.74a87.07,87.07,0,0,0-4.57,7.61c-3.38,5.89-6,11.94-2.76,18.75,1.17,2.48,2.18,5.45,4.18,7,5,4,9.3,2.11,13-2.52,2.12-2.67,3.52-5.91,5.4-8.79,1.21-1.86,2.31-4,4.89-4.37a3.62,3.62,0,0,1,1.28.37c-.2.43-.28,1.08-.61,1.27-2.22,1.24-3.39,3.26-4.52,5.41a36.92,36.92,0,0,1-7.63,10.35,9.92,9.92,0,0,1-10.79,1.63,11.64,11.64,0,0,1-5.31-5.62c-1.66-3.17-3.87-6.25-3.79-9.9a28,28,0,0,1,2.91-11.37c2.72-5.8,5.32-11.62,10.32-15.83,3.11-2.61,6.54-4.83,9.82-7.24,3.85-2.81,8-4.51,12.92-4.05,1.35.12,2.7.2,4,.45a83.48,83.48,0,0,1,8.93,2c2.13.66,4,2.29,6.12,2.79A11.22,11.22,0,0,1,69,335.71c.75.85.88.49,1.09-.48,1.25-6,2.71-12,3.91-18.06,1-5.14,1.78-10.33,2.69-15.49.86-4.87,1.57-9.79,2.72-14.59.85-3.58,2.7-6.93,3.36-10.52a24.45,24.45,0,0,1,4.66-10.26c2.55-3.46,6.32-4.59,10.33-4.94a17.39,17.39,0,0,1,6.8.29c5.21,1.71,8.3,6.06,10.52,10.68a114.35,114.35,0,0,1,5.48,15,67.88,67.88,0,0,1,3.09,26.27c-.53,6.86-.64,13.76-.93,20.65a9.88,9.88,0,0,1,0,1.54c-.86,4.58-1.66,9.18-2.66,13.73-1.34,6.06-2.59,12.16-4.36,18.11-1.56,5.28-3.88,10.34-5.68,15.56s-3.88,10.47-7.65,14.77a3.2,3.2,0,0,0-.4,2.24c.19,1.8.81,3.59.81,5.39,0,9.54.51,19.11-.86,28.61a8.47,8.47,0,0,1-1,3.55,47.15,47.15,0,0,1-5.64,6.93A4.58,4.58,0,0,0,94,449.22a33.59,33.59,0,0,0,1.52,4.68c1.45,4.26,3,8.5,4.34,12.8.58,1.84.7,3.83,1.18,5.72.13.51.8.89,1.23,1.33,0-.49.11-1,.11-1.47,0-.65,0-1.31-.07-2-.13-1.93-.37-3.86-.42-5.79-.07-3,0-6,0-8.93-.06-2.45-.22-4.9-.45-7.34-.2-2.17-.68-4.32-.79-6.5,0-.67.74-1.39,1.14-2.08.48.47,1.3.89,1.39,1.42.42,2.66.74,5.35.91,8,.14,2.35,0,4.71,0,7.07a3.57,3.57,0,0,0,.49,1.17c.27-.38.72-.72.78-1.13a34.42,34.42,0,0,1,.52-4.23c1.8-6.1,3.71-12.17,5.65-18.23a4.55,4.55,0,0,0-.88-4.8,15.61,15.61,0,0,1-3.33-7.59,34.54,34.54,0,0,1,1.91-15.73c3.72-9.61,7.65-19.1,13.53-27.56,2.82-4.05,5.83-8.23,11.37-9.55a17.6,17.6,0,0,1,12.51,1.71c2.89,1.48,5.18,4.11,4.68,7.58s-3.75,4.91-6.24,6.81c-.24.18-.87-.14-1.32-.23a3.84,3.84,0,0,1,.51-1.08c.85-.92,1.85-1.71,2.63-2.69,2.27-2.87,3-4.73-.2-7.42-4-3.33-8.63-3.86-13.47-2.3-3.93,1.26-6.08,4.64-8.32,7.72a84.13,84.13,0,0,0-9,16c-2.63,6-5.24,11.89-6.22,18.47-.8,5.32-.32,10.19,2.64,14.73a5.44,5.44,0,0,0,.74.78c.3-.3.77-.54.89-.9.43-1.3.69-2.66,1.13-4,1.87-5.42,3.42-10.91,6.32-16,3.25-5.68,5.83-11.74,8.74-17.61a10.47,10.47,0,0,1,1.47-1.82,17.29,17.29,0,0,1,.69,2.33c.06.34-.23.77-.42,1.13q-4.18,8.11-8.39,16.22c-3.43,6.58-5.56,13.64-7.83,20.65-.41,1.3.15,1.65,1.35,1.73,6.38.43,10.29-3.43,12.69-8.62A8.31,8.31,0,0,1,131,420.2a5.49,5.49,0,0,1,.28,2.18,13.42,13.42,0,0,1-8.15,9.06c-2.13.81-4.24,1.79-6.66.75-1.25-.53-2.2.3-2.62,1.49-.94,2.71-1.72,5.48-2.71,8.18-3,8.07-4.52,16.48-6.16,24.88a4.28,4.28,0,0,0,.18,1.24,7.56,7.56,0,0,0,1.12-.8,2.87,2.87,0,0,0,.45-.91c2.07-4.84,4.29-9.59,7.94-13.53,1.54-1.68,2.82-3.61,4.41-5.24q7.19-7.33,14.53-14.52a3.23,3.23,0,0,0,.81-3.49,38.91,38.91,0,0,1-1.48-7.76,42.64,42.64,0,0,1,.85-9.36c.78-4,1.36-8.2,3.18-11.71,3.33-6.41,6.77-12.8,12.68-17.58,5.28-4.27,9.87-9.39,14.76-14.14a5.14,5.14,0,0,1,1-.92,16.61,16.61,0,0,1,2-.74c-.24.7-.28,1.6-.74,2.08-3.07,3.19-6.23,6.29-9.36,9.42-1.93,1.93-3.66,4.12-5.83,5.74-5.84,4.37-9.28,10.47-12.28,16.82a53.94,53.94,0,0,0-3,9.6,38.32,38.32,0,0,0-1,13.48,20.34,20.34,0,0,0,2.19,6.37,4.71,4.71,0,0,0,2.44,2.19c3.25,1.17,6.49,2.45,10.14,1.42,4.05-1.15,8.14-2.1,10.48-6.13,3.08-5.29,6-10.68,9.29-15.83a45.29,45.29,0,0,1,7.05-8.77,50.52,50.52,0,0,1,16.7-9.81c5.78-2.21,11.54-3.46,17.66-1.55a24.77,24.77,0,0,0,14.91-.19c5.42-1.73,10.88-3.63,15.59-7.25a14.4,14.4,0,0,0-3.53-24.8,43,43,0,0,0-19.34-4c-4.37.15-8.76.06-13.09.51s-8.7.68-12.75,2.84a92.48,92.48,0,0,1-10.39,4.27,5.28,5.28,0,0,1-1.86,0c.39-.49.67-1.19,1.18-1.44,2.26-1.1,4.72-1.86,6.88-3.12,7-4.08,14.84-4.65,22.61-5.21,4.62-.34,9.29-.07,13.94-.05a6.27,6.27,0,0,1,1.88.25c3.39,1.06,6.74,2.28,10.15,3.25,4,1.14,6.82,3.93,9.23,7a14.16,14.16,0,0,1,2.87,10.88c-.62,5.41-3,9.47-7.4,12.2-5.82,3.65-11.9,6.8-19,7.67a28.16,28.16,0,0,1-11-.38c-4-1.09-8.09-2-12-.92a51.08,51.08,0,0,0-23.29,13.07,52.54,52.54,0,0,0-7.06,9.66c-2.16,3.48-3.69,7.35-5.88,10.81-1.44,2.29-3.22,4.71-5.46,6.08-6.23,3.82-12.91,4.68-19.73,1.2-1.17-.6-2.42-1-3.62.12-1.53,1.43-3.2,2.73-4.64,4.25q-5.87,6.15-11.58,12.46a34.4,34.4,0,0,0-4.41,5.69c-2.9,5.05-5.56,10.23-8.25,15.39a10,10,0,0,0-.65,2.6c-.19,1,.06,1.43,1.24,1.36,3.54-.23,7.1-.39,10.65-.46,4.06-.07,8.12,0,12.17,0,2.08,0,2.94,1,2.46,3-.43,1.86-1.24,3.64-1.6,5.52-.45,2.34-1.66,3.35-4,3-1.51-.26-2.09.66-2.32,1.86-.63,3.29-1.2,6.59-1.78,9.89-1,5.91-2.13,11.82-3.07,17.75a4,4,0,0,1-4.18,3.62c-8.92.19-17.85.12-26.77,0-1.76,0-3.58-.49-4-2.62-.8-3.81-1.53-7.64-2.22-11.47-.92-5.09-1.68-10.2-2.72-15.26-.37-1.8,0-4.28-2.84-4.75-.26,0-.53-.64-.63-1-.65-2.39-1.3-4.78-1.83-7.2-.09-.42.29-1.31.61-1.39a19.62,19.62,0,0,1,4.93-.9c5.69,0,11.39.24,17.08.41a18.36,18.36,0,0,0,2.3.25c.44,0,1.17-.59,1.17-.91a10.94,10.94,0,0,0-.55-2.4c-2.27-9.4-6.42-18.22-8.39-27.75-1.29-6.21-3.55-12.22-5.49-18.44C85.48,426.61,85.55,426.13,85.43,425.69ZM121.3,322.32c.13-5.75,0-11.5.06-17.25a53.87,53.87,0,0,0-2.76-17,107.78,107.78,0,0,0-4.88-13.89c-2.36-5.1-6-9.33-11.68-11-1-.29-2.23.16-3.33.4-2.42.53-5.13.64-7.17,1.86-3.57,2.13-5.43,5.84-6.47,9.8-2,7.66-3.94,15.35-5.72,23.06-.71,3.07-.9,6.26-1.39,9.39-.55,3.45-1.08,6.91-1.79,10.32-1.09,5.28-2.33,10.53-3.52,15.79a8.26,8.26,0,0,1-.56,2.2c-.74,1.35-.26,2.25.72,3.21a94.07,94.07,0,0,1,7.58,7.63c4.76,5.79,9.19,11.82,11.76,19,1.84,5.13,4.11,10.12,5.72,15.32,1.39,4.47,2.09,9.16,3.12,13.75a7.53,7.53,0,0,0,.55,1.32,5.26,5.26,0,0,0,.77-1c3.11-7.49,6.54-14.87,9.19-22.51a185.9,185.9,0,0,0,6.19-22.2c1.4-6.52,1.88-13.25,2.76-19.89C120.75,327.53,121.24,324.93,121.3,322.32Zm-39.15,174a10.09,10.09,0,0,0,.08,1.35c.78,4.39,1.56,8.78,2.38,13.17a55.36,55.36,0,0,0,1.4,6.28A2.52,2.52,0,0,0,88,518.4q13.49.12,27,0c2.92,0,2.43-2.63,2.81-4.27,1.2-5.28,2.13-10.62,3.15-15.94.62-3.22,1.22-6.44,1.71-9.67.05-.29-.77-1-1.22-1-1.54-.13-3.09,0-4.64-.06-3.77-.12-7.54-.38-11.31-.41-7.62-.07-15.24.07-22.85-.07-2.17,0-2.61.54-2,2.51.46,1.45.48,3,1,4.45.15.43-.15,3.12,1.88,1.14.27-.26,1-.08,1.49-.08,6,0,11.94,0,17.91,0A6,6,0,0,1,105,496a6.38,6.38,0,0,1-2,.78c-6.34.06-12.68,0-19,0A10.89,10.89,0,0,1,82.15,496.35Zm38.07-11.07c2,0,4,.28,6,.42a1.86,1.86,0,0,0,2.23-1.76,33.4,33.4,0,0,1,1.29-4.32c.45-1.35.25-2-1.43-1.91-6.58.36-13.16.68-19.75.88-2.29.07-4.59-.38-6.89-.38s-4.45.41-6.67.38c-5.54-.06-11.08-.26-16.62-.42-1.44,0-2.64-.05-1.79,2a13,13,0,0,1,.48,2.9c.23,1.38.7,2.23,2.46,2.21,8.55-.09,17.1,0,25.64,0C110.49,485.26,115.36,485.22,120.22,485.28Z"/><path d="M79.26,441.84c2.8,1.53,5.82,2.67,8.71,4.06.45.22.71.86,1.06,1.3-.55.12-1.19.48-1.63.31-6.72-2.59-13.13-5.39-18.3-10.93a50.73,50.73,0,0,1-10.69-18.43c-3.48-9.92-5.6-20.16-7.86-30.37a82.78,82.78,0,0,0-6.65-20,5.18,5.18,0,0,1-.26-1.5c.65.19,1.63.17,1.89.6a26.7,26.7,0,0,1,2.32,4.78c1.55,4.3,3.23,8.59,4.38,13,1.38,5.3,2.17,10.75,3.41,16.09.94,4.08,2.07,8.12,3.32,12.11,1.78,5.67,3.27,11.52,6.68,16.47,2,2.89,4.66,5.31,7.13,8.06A67.56,67.56,0,0,0,79.26,441.84Z"/><path d="M140.17,429a7,7,0,0,1-1.79,1.4,5.58,5.58,0,0,1,.07-2.21,67.71,67.71,0,0,1,3.72-6.86,131.4,131.4,0,0,1,21-24.9,46.79,46.79,0,0,1,6.56-5c4-2.61,8.06-5.07,12.1-7.58,1.41-.86,2.83-1.7,4.28-2.47.31-.16.79,0,1.19,0a3.35,3.35,0,0,1-.27,1.18,4.51,4.51,0,0,1-1.24,1.26c-2.62,1.64-5.25,3.28-7.93,4.84-5.52,3.22-11.12,6.42-15.46,11.15-5.17,5.63-9.95,11.62-15,17.57C144.89,421.37,142.57,425.2,140.17,429Z"/><path d="M18.35,372.86c-.16.43-1,.59-1.58.87-.05-.57-.31-1.24-.11-1.71,1.71-4.15,3.52-8.27,5.26-12.41a7.2,7.2,0,0,0,.24-1.63c-.5.09-1.12,0-1.49.3-1.09.8-2.08,1.75-3.13,2.62a8.48,8.48,0,0,1-1.08.67c0-.56-.29-1.21-.09-1.65a6.27,6.27,0,0,1,5.19-3.78A3.08,3.08,0,0,0,24.38,354c2.69-6.35,6.48-11.84,12.09-15.92.85-.62,1.62-2.43,3.07-1a6.13,6.13,0,0,1-1.78,2.55c-3.14,2.38-6.2,4.84-8,8.43-2.46,4.86-4.77,9.8-7.06,14.75-.21.44.07,1.16.25,1.7.91,2.79,1.9,5.56,2.75,8.36.1.33-.49.88-.76,1.33A4.77,4.77,0,0,1,24,373c-.75-2.27-1.42-4.57-2.12-6.86-.57-1.85-.86-.43-1.34.22C19.76,368.58,19.15,370.76,18.35,372.86Z"/><path d="M198.86,379.56c2.53-.71,5.22-.87,7.81-1.42a90.53,90.53,0,0,1,20.9-1.7c.74,0,1.46.83,2.2,1.27a8.26,8.26,0,0,1-2.15.86c-5,.36-10.05.65-15.08.91a41,41,0,0,0-14.86,3c-.57.25-1.47-.23-2.32-.48C196.44,381.11,197.54,379.93,198.86,379.56Z"/><path d="M76.79,434.79c-3-2-6.1-3.73-9.1-5.67a7.59,7.59,0,0,1-1.48-1.81,6.68,6.68,0,0,1,2.4.19,68.1,68.1,0,0,1,7.49,4.25c3.07,2.1,6,4.46,8.86,6.8.48.39.56,1.28.82,1.94l-1.84-.37a1.58,1.58,0,0,1-.55-.11C81.12,438.18,79.06,436.33,76.79,434.79Z"/><path d="M62.67,414.35c-.6-.25-1-1-1.48-1.49.75-.1,1.65-.52,2.24-.26,5,2.2,9.95,4.47,14.85,6.87a15.81,15.81,0,0,1,3.63,2.83c.28.27.08,1.06.1,1.61a6,6,0,0,1-1.37-.4c-4.74-2.63-9.46-5.3-14.29-8.06C65,415,63.8,414.82,62.67,414.35Z"/><path d="M181.43,394.47c-4.25,1.26-8.42,2.79-12.64,4.13a6,6,0,0,1-2.1-.1c.5-.58.89-1.44,1.53-1.71a68,68,0,0,1,9.14-3.51,59.77,59.77,0,0,1,9.37-1.36c1.25-.12,2.11.44.55,1.73A37.66,37.66,0,0,0,181.43,394.47Z"/><path d="M58.94,396.14a4.57,4.57,0,0,1,1.17-.26,4.12,4.12,0,0,1,1.61.36q7.43,4,14.79,8.05a2.66,2.66,0,0,1,1,1.13,5.18,5.18,0,0,1,.22,1.5,5.24,5.24,0,0,1-1.62-.32c-5.31-3-10.58-6.12-16-9.3Z"/><path d="M95.77,407c-2.69,3.92-6.59,7.08-7.65,12-.05.23-.5.37-.76.55-.18-.29-.49-.57-.52-.88a6.46,6.46,0,0,1,1.29-5c2.72-3.42,5.4-6.88,8.12-10.3a6.93,6.93,0,0,1,1.31-1,6.65,6.65,0,0,1,.25,2c-.07.41-.67.73-1.14,1.21S96.05,406.64,95.77,407Z"/><path d="M113.85,403.37a8.28,8.28,0,0,1,.59-2.16,11.58,11.58,0,0,1,1.52,1.94c.23.48,0,1.15.08,1.73a33.26,33.26,0,0,1,.38,3.57c-.06,2.87-.21,5.74-.43,8.61,0,.48-.63.92-1,1.37-.26-.53-.73-1.06-.74-1.6-.07-3.08,0-6.16,0-9.46C114.11,405.89,113.86,404.63,113.85,403.37Z"/><path d="M78.41,367c.26-.31,1.24,0,1.89,0-.2.42-.38.85-.61,1.25C79,369.5,78,370.66,77.59,372c-.79,2.95-1.23,6-1.85,9a9.8,9.8,0,0,1-.58,1.53A7.93,7.93,0,0,1,74,381.35a1.91,1.91,0,0,1,0-1.09c.43-3,.88-6,1.43-9.07C76.47,369.7,77.33,368.25,78.41,367Z"/><path d="M93.9,427.78c1-2.3,2-4.63,3.14-6.88.25-.48,1.08-.68,1.64-1,0,.61.27,1.3,0,1.8q-2.55,6-5.27,12a6.77,6.77,0,0,1-1.23,1.47,7.06,7.06,0,0,1-.41-2.38,13.69,13.69,0,0,1,1.3-3.14C93.46,428.92,93.65,428.34,93.9,427.78Z"/><path d="M83.33,402.88c.79-4.45,2.13-8.69,5.8-11.7.4-.34,1.19-.2,1.79-.29-.15.52-.14,1.19-.48,1.51a16.53,16.53,0,0,0-4.52,7.87A37.72,37.72,0,0,1,84.27,405C83.87,404.25,83.22,403.5,83.33,402.88Z"/><path d="M158,388.13c.06,2.89,0,5.78,0,8.67,0,.72-.16,1.44-.24,2.16-.65-.52-1.86-1-1.87-1.55-.11-3.6,0-7.2.15-10.79,0-.63.85-1.22,1.42-1.71A17.78,17.78,0,0,1,158,388.13Z"/><path d="M162.82,414.47c.39.17.67.61,1,.92-.44.28-.88.78-1.32.78-1.05,0-2.12-.48-3.13-.35-2.62.34-5.21.92-7.82,1.37a5.08,5.08,0,0,1-1.22-.08,3.43,3.43,0,0,1,.35-1.21c1.28-1.56,3.13-1.71,5.18-1.89A8.85,8.85,0,0,1,162.82,414.47Z"/><path d="M145.29,399c0-.48.77-.91,1.18-1.36.18.45.54.92.51,1.35a18.85,18.85,0,0,0,1.52,8.41,9.79,9.79,0,0,1,.25,3.48c0,.29-.37.57-.57.86a4.14,4.14,0,0,1-.71-.89c-.77-2-1.5-3.94-2.23-6.13C145.24,402.66,145.15,400.82,145.29,399Z"/><path d="M60.29,383.45a6.81,6.81,0,0,1-1.35-.79c.47-.32.91-.83,1.43-.93,2.42-.46,4.29,1,6.17,2.11a21.56,21.56,0,0,1,3.55,3.09c.18.17,0,.68.06,1a3.42,3.42,0,0,1-.93-.21c-1.6-1-3.17-2-4.86-3.07C62.93,384.21,61.59,383.87,60.29,383.45Z"/><path d="M129.56,417a3.73,3.73,0,0,1-1.58,1.41c-2.26,1.09-4.57,2.09-6.87,3.11-.23.1-.67.19-.74.09s-.32-.7-.19-.86a5.64,5.64,0,0,1,1.51-1.53c2.14-1.2,4.34-2.3,6.73-3.44C130,415.37,130,416.27,129.56,417Z"/><path d="M120.49,394.29a4.78,4.78,0,0,1,.59-1.49c.41.38,1.11.72,1.17,1.15a54.44,54.44,0,0,1,.57,6.36,5.52,5.52,0,0,1-.77,2.51c-.16.32-.83.39-1.27.57a3.77,3.77,0,0,1-.31-1.12c.11-1.92.28-3.83.43-6A11.37,11.37,0,0,1,120.49,394.29Z"/><path d="M32.37,356.24c-.1,1.58-.25,3.16-.46,4.73,0,.29-.42.54-.65.8-.21-.28-.6-.54-.62-.83-.19-3-.34-6.05-.44-9.07,0-.36.36-.72.56-1.08a4,4,0,0,1,.91.81,14.37,14.37,0,0,1,.6,1.44A19.38,19.38,0,0,1,32.37,356.24Z"/><path d="M130.94,399.46c.36-.21,1.14.27,1.73.43-.24.51-.36,1.19-.76,1.49a28.31,28.31,0,0,1-3,1.72c-1.11.63-1.16.07-.94-1A14.46,14.46,0,0,1,130.94,399.46Z"/><path d="M95.19,335.18a94.24,94.24,0,0,0,3.2-19.28c.28-5.82,1.09-11.61,1.73-17.4a10.08,10.08,0,0,1,.81-2.22,8.18,8.18,0,0,1,.9,2.33c.38,7.79-.75,15.48-1.78,23.15-.63,4.68-1.58,9.34-2.66,13.94-.8,3.38-2.06,6.66-3.09,10a4.15,4.15,0,0,0,0,1.22c.36-.19.84-.28,1.07-.58.73-.92,1.32-2,2.09-2.87.26-.31.88-.31,1.35-.45,0,.56.24,1.27,0,1.64a22.25,22.25,0,0,1-3.44,4.3c-1.61,1.39-3.39,2.43-3.75,4.85-.1.67-1.25,1.19-1.91,1.78-.18-1-.36-2-.52-3,0,0,.12-.09.14-.15.94-2.42,1.88-4.83,2.82-7.46C93.16,341.56,94.35,338.41,95.19,335.18Z"/><path d="M89.85,345.57c.11.58-.62,1.32-1,2a7.2,7.2,0,0,1-1.15-1.8c-1.41-5.53-2.76-11.06-4.1-16.6a9.14,9.14,0,0,1,0-1.89,7.61,7.61,0,0,1,1.76,1,3.81,3.81,0,0,1,.59,1.5c.6,1.74,1.18,3.48,1.77,5.44C88.44,338.82,89.25,342.18,89.85,345.57Z"/><path d="M108.05,314.68a19.36,19.36,0,0,1,1.23-1.91c.18.88.39,1.75.53,2.64,0,.14-.26.32-.35.5-1.72,3.63-3.36,7.29-5.17,10.86a17.21,17.21,0,0,1-2.48,3.37c-.26.29-.89.25-1.35.36,0-.5-.27-1.1-.07-1.48a41.5,41.5,0,0,1,2.25-3.64C104.51,321.74,106.26,318.2,108.05,314.68Z"/><path d="M89.14,315.14a6.69,6.69,0,0,1,.46-2.38c.55.57,1.33,1.06,1.59,1.75a17.58,17.58,0,0,1,1.15,4.38c.4,3.33,1.94,6.55,1.1,10a8.61,8.61,0,0,1-.64,1.47,6,6,0,0,1-1.08-1.71c-.39-2-.62-4-.92-6.26C90.23,319.83,89.58,317.51,89.14,315.14Z"/><path d="M97.4,309.81c0,.35-.53.72-.81,1.08-.31-.27-.79-.48-.89-.8q-1.36-4.3-2.58-8.65a4.8,4.8,0,0,1,.13-1.62c.55.27,1.35.38,1.61.82.76,1.28,1.29,2.69,2,4.16A42.55,42.55,0,0,1,97.4,309.81Z"/><path d="M106.24,513a6.2,6.2,0,0,1-1.52.59c-1,.09-1.91,0-2.87,0-4.65,0-9.29,0-13.93,0-.67,0-1.32-.69-2-1.06a21,21,0,0,1,2-1.09,2.84,2.84,0,0,1,1.09,0c5.25.15,10.5.3,15.85.55C105.39,512.35,105.81,512.66,106.24,513Z"/><path d="M116.91,502.11a5.29,5.29,0,0,1,1.67.73c-.66.34-1.33,1-2,1-2.5,0-5-.2-7.49-.44-.37,0-.69-.69-.93-1.17C111.16,502.08,114,502,116.91,502.11Z"/><path class="cls-2" d="M409.2,259.45,374.7,309h-31l4.5,10.5h94.5l38.5-60Z"/><path class="cls-3" d="M287.33,348.59c-3.44,0-6.89-.27-10.34-.44-5.7-.28-11.4-.62-17.1-.88-7-.33-14.09-.59-21.14-.91-6-.28-12-.56-18-.91-4.07-.23-8.12-.59-12.18-.88-6.31-.45-12.62-.87-18.93-1.36-3-.23-6.05-.42-9-.91q-9.93-1.64-19.8-3.58c-3.44-.68-6.89-1.48-7.48-6-.18-1.39-1.21-2.64-1.63-4-.91-2.91-1.25-4.13,2.17-5.57a72.08,72.08,0,0,1,11.93-3.63c4.41-1,8.91-1.63,13.39-2.31,5.36-.81,10.73-1.56,16.11-2.2,3.59-.43,7.22-.58,10.82-.93,5.88-.56,11.75-1.25,17.63-1.76,3.29-.28,6.6-.31,9.9-.47,5.55-.29,11.1-.61,16.65-.89,6.3-.32,12.6-.63,18.9-.89,4.79-.2,9.58-.3,14.37-.46,4.2-.14,8.39-.33,12.58-.44q9.21-.27,18.41-.45c3.74-.06,7.47,0,11.2,0,15.32-.14,30.64-.35,46-.38a4.34,4.34,0,0,0,3.85-2.07q7.94-11.36,15.7-22.84c5.44-8,10.75-16.16,16.23-24.17a3.85,3.85,0,0,1,2.86-1.53c5.57.47,11,1.55,16.75.92,6.16-.67,12.41-.44,18.62-.56,9.65-.17,19.29-.3,28.94-.46.48,0,.95-.29,1.43-.29a18,18,0,0,1,3.89.08c2,.42,2.44,1.31,1.35,3.14-2.45,4.07-5,8.08-7.58,12.09-3.57,5.62-7.14,11.24-10.76,16.83-4,6.25-8.14,12.46-12.2,18.7a8.72,8.72,0,0,0-.61,1.39,5.15,5.15,0,0,0,1.36.48c4.05.18,8.09.32,12.14.46s8.09.28,12.13.46c2,.09,3.91.25,5.86.45,5.73.58,11.45,1.27,17.19,1.75,3.58.31,7.19.26,10.78.5,2.87.19,5.74.51,8.59.9,3.87.52,7.71,1.25,11.59,1.74,2.45.31,5,0,7.41.55,5.31,1.32,10.56,2.93,15.77,4.63a5.61,5.61,0,0,1,4.08,5.13c.18,2.72-.38,5.36-3,6.74a61.31,61.31,0,0,1-9.09,4c-7.64,2.61-15.7,3-23.63,4-4.87.62-9.78,1-14.67,1.36-2.64.22-3.1.63-2.93,3.33.09,1.51.43,3,.41,4.52-.08,5.17-.42,10.33-.39,15.5.06,12.93.32,25.86.4,38.79s0,25.89,0,38.83q0,28.57,0,57.13a4.87,4.87,0,0,0,.49,2.46c.47.71,1.42,1.59,2.1,1.55a2.91,2.91,0,0,0,2.23-1.6A61.19,61.19,0,0,0,510,494c.06-3.72-.37-7.44-.36-11.17s.38-7.54.38-11.31-.37-7.4-.38-11.09c0-2.95.39-5.91.38-8.86,0-3.92-.38-7.84-.38-11.76,0-3.67.39-7.34.38-11,0-4.74-.34-9.48-.39-14.22,0-2.55.39-5.11.39-7.66,0-2.73-.4-5.45-.38-8.18,0-3.62.37-7.24.38-10.87,0-3-.41-6.05-.39-9.07,0-5.87.36-11.73.39-17.59,0-4-.29-8-.4-12.07a15.77,15.77,0,0,1,.18-2.83,9,9,0,0,1,.59-1.85c.05-.11.3-.15.46-.22a6.73,6.73,0,0,1,.52,1.79c0,6.45,0,12.9.05,19.34,0,3.6.33,7.2.41,10.8s0,7.36,0,11.05c0,6.32.05,12.65,0,19,0,3.18-.42,6.35-.4,9.52.07,9.28.29,18.55.42,27.82.05,3.76.06,7.52,0,11.28s-.38,7.34-.4,11c0,2.53.34,5.06.4,7.59.07,3.23.06,6.47,0,9.71-.11,6.51-.3,13-.43,19.53-.05,2.7-1.77,4.58-4.27,4.57-3,0-4.66-1.66-4.7-4.59-.14-9.37-.31-18.74-.44-28.12-.17-11.81-.34-23.62-.43-35.43,0-3.07.42-6.15.39-9.22,0-5.77-.34-11.53-.38-17.29,0-3.15.41-6.3.39-9.45-.09-13.18-.29-26.36-.41-39.54q-.09-9.18,0-18.37c0-1.23-.22-1.69-1.53-1.57-4.13.36-8.27.61-12.4.92-5.71.44-11.42.95-17.14,1.33-5.47.37-10.95.63-16.43.91-6.22.31-12.44.65-18.67.88-6.06.22-12.12.32-18.18.46q-9.54.24-19.08.45c-8.75.17-17.5.36-26.25.43-9.44.08-18.87,0-28.53,0C324.56,348.9,305.94,348.77,287.33,348.59ZM154.7,325.65c-.9.49-1.86,1.14.28,2.06,5.86,2.52,12,3.69,18.2,4.75,5.66,1,11.34,1.89,17,2.67,3.51.47,7.06.68,10.6.91,5.4.35,10.81.59,16.21.92,4.21.26,8.42.6,12.63.89,6.68.45,13.36.92,20,1.33,3.22.21,6.45.34,9.67.45,5.09.18,10.18.34,15.28.45,3,.06,5.93-.07,8.89,0,8.24.26,16.48.73,24.72.86,16.07.25,32.14.34,48.21.47,5.67,0,11.35.05,17,0,10.69-.11,21.38-.21,32.07-.46,5.71-.14,11.4-.58,17.11-.87,3.07-.16,6.14-.36,9.22-.44,7.11-.18,14.22-.19,21.32-.49,6.69-.29,13.37-.86,20.06-1.31l12.4-.9c6.16-.45,12.33-.79,18.48-1.37,6.72-.63,13.45-1.28,20.13-2.27,5-.74,9.89-2.06,14.84-3.07,3.18-.65,6.39-1.13,9.55-1.84a13,13,0,0,0,3.42-1.47,12,12,0,0,0,1.89-1.62c-.67-.6-1.25-1.5-2-1.76-2.71-.88-5.47-1.64-8.25-2.26-4-.88-8-1.63-12-2.37-2.51-.47-5-.93-7.56-1.22-5.79-.66-11.6-1.24-17.4-1.8-3.68-.35-7.37-.68-11.06-.89-6.44-.36-12.89-.62-19.34-.91-4-.17-7.95-.2-11.91-.47-4.83-.34-9.64-1-14.46-1.23a4.33,4.33,0,0,0-3,1.62,49.83,49.83,0,0,0-3.21,5.14,4,4,0,0,1-.72.7c-.2-.36-.59-.73-.57-1.09a3.59,3.59,0,0,1,.48-1.8c7.21-11.13,14.47-22.23,21.67-33.37,4.6-7.12,9.11-14.29,13.65-21.46.62-1,1.14-2,1.71-3l-3.12.31h-.45c-9.12.15-18.25.28-27.37.46-6.14.11-12.27.27-18.41.44-4.49.13-9,.36-13.48.42a44.19,44.19,0,0,1-6.08-.45,3,3,0,0,0-3,1.47c-4.26,6.21-8.42,12.49-12.71,18.69-7,10.17-14.15,20.28-21.19,30.44-1.4,2-2.68,4.11-3.95,6.21-.18.29,0,.81,0,1.22.32-.15.75-.22.94-.47q2.73-3.78,5.4-7.61l20.12-29.08q6.27-9.06,12.57-18.09c.31-.44,1-.64,1.44-1,0,.62.15,1.39-.15,1.84Q404.36,273,398,282.07c-3.56,5.11-7.17,10.18-10.73,15.28q-6.62,9.47-13.18,19a10.78,10.78,0,0,0-.72,1.49,8.25,8.25,0,0,0,1.6.32h61.61a3.92,3.92,0,0,1,1.33,0,20.81,20.81,0,0,1,2.22,1.1,6.68,6.68,0,0,1-2.23,1.06c-2.43.14-4.88.05-7.32.05-9.78,0-19.57.06-29.35,0-9.57-.08-19.14-.32-28.71-.42-6.15-.07-12.3,0-18.45,0a8.64,8.64,0,0,1-2.19-.64c.73-.37,1.46-1.08,2.19-1.07,4.12,0,8.24.26,12.36.36.36,0,.73-.38,1.08-.61a1.65,1.65,0,0,0,.47-.48c.76-1.32,1.51-2.66,2.26-4-1.24.06-2.48.17-3.72.17q-6.15,0-12.32,0a5.89,5.89,0,0,1-1.62-.39c-.54-.16-1.08-.37-1.61-.56a6.3,6.3,0,0,1,2-.78c5.83-.07,11.65,0,17.48-.07a4.87,4.87,0,0,0,1.55-.57c-.54-.25-1.08-.71-1.63-.71-13.44,0-26.88-.09-40.32,0-7.64,0-15.27.27-22.9.44q-9.2.19-18.41.45c-4.71.12-9.43.25-14.15.45q-9.33.39-18.67.9c-7.29.4-14.57.83-21.85,1.35-5.12.36-10.23.9-15.35,1.32-4.2.33-8.43.48-12.62.93-6,.63-11.93,1.5-17.9,2.2-3.22.37-6.49.46-9.7.94-4.53.69-9,1.59-13.54,2.47-1.28.25-2.53.71-3.79,1.08A44.56,44.56,0,0,0,154.7,325.65ZM495,341.44c2-.18,4.06-.28,6.08-.46,5.05-.43,10.11-.72,15.12-1.39s10.17-1.75,15.25-2.64,10.33-1.68,15.45-2.74a28.59,28.59,0,0,0,5.79-2.23,3.2,3.2,0,0,0,1.15-1.41c.11-.21-.05-.65-.22-.89s-.51,0-.77.11c-7.57,2.16-15,4.7-23.05,5-6.5.26-13,1.41-19.46,2.14-4.22.47-8.44,1-12.66,1.33-5.86.51-11.73.94-17.59,1.35q-7.2.51-14.42.9c-3.89.2-7.79.29-11.68.46-6.3.28-12.65.22-18.89,1-11,1.34-22,.54-33,.81-6.88.17-13.76.37-20.65.44q-25,.29-50,.46c-1.37,0-2.74,0-4.11,0-14.8-.14-29.6-.22-44.4-.47-7.57-.13-15.14-.53-22.7-.88-4.88-.23-9.76-.62-14.64-.88-3.82-.2-7.64-.28-11.46-.46-5.71-.28-11.42-.48-17.11-.92-6-.47-12.05-1.15-18.07-1.77-5.73-.58-11.49-1-17.17-1.84-8.2-1.3-16.57-1.83-24.47-4.73a4.43,4.43,0,0,0-1.65.06,9.61,9.61,0,0,0,.6,1.52c1.24,2,3.5,1.76,5.33,2.24A93.92,93.92,0,0,0,180,338.85c7.05.43,14,1.76,21.07,2.55,4.12.46,8.27.58,12.4.94,6.32.55,12.64,1.19,19,1.78.3,0,.6,0,.9,0l13.92.45,30.32.9c5.24.15,10.48.32,15.72.44,7.41.17,14.82.38,22.22.44q36.54.28,73.07.43c6.81,0,13.62-.25,20.43-.43,3.67-.09,7.34-.29,11-.44,7.65-.3,15.29-.57,22.93-.9q8.9-.39,17.78-.9c4.58-.25,9.16-.59,13.74-.88C481.6,342.63,488.3,342,495,341.44Z"/><path class="cls-2" d="M502.2,302c13.5-3,11.5,6.91,11.5,10.5s-5.2,7-11,7-11-3.41-11-7S490.2,301.45,502.2,302Z"/><path d="M486.41,309.93c-1.83-1.83-2.52-4.2-1.36-5.66,1.37-1.73,2.94-.66,4.56-.11.73.25,1.83-.31,2.66-.71a31.07,31.07,0,0,1,2.82-1.74,25,25,0,0,1,13.82-.86c2.46.53,5.05,1.64,5.68,4.38a28.38,28.38,0,0,1,.81,8.88,6.65,6.65,0,0,1-3.59,4.86c-3.7,2.08-7.7,1.63-11.66,1.76a9.75,9.75,0,0,1-9.15-5.24c-1.14-2.18-1.88-4.17-4.33-5.3Zm26.31-3.65c-.11-.36-1.62-.49-2.44-.4-3.85.45-7.67,1.09-11.51,1.51-1.17.12-2.43-.51-3.56-.32a3.53,3.53,0,0,0-2.31,1.64,6.69,6.69,0,0,0,4.52,9.25c4.57,1,9.36,1.42,13.61-1.3,1-.67,1.55-2.15,2.31-3.26C514.42,310.63,513.38,308.43,512.72,306.28ZM497.85,303l-3.54,1.29a20.83,20.83,0,0,0,3.4.44c3.57-.07,7.13-.24,10.69-.44.33,0,.64-.45,1-.69-.29-.2-.57-.58-.85-.58-3.33,0-6.66,0-10,0A3,3,0,0,0,497.85,303ZM487,307.81a6,6,0,0,0,1.35,1.41l1.53,1.52c0-1.14.49-2.5,0-3.34s-1.89-1.18-2.89-1.74A3.7,3.7,0,0,0,487,307.81Z"/><path d="M489.4,326c-.74,0-1.44-.7-2.16-1.07a9.24,9.24,0,0,1,2.64-1c1.33-.08,2.67.32,4,.37,2.13.07,4.33-.29,6.39.09a32.88,32.88,0,0,0,12.31-.45,5.19,5.19,0,0,0,1.19-.52c-.42-.29-.84-.59-1.28-.87s-.62-.35-.93-.52c.27-.32.48-.76.82-.94,1.54-.8,3.26-.07,4.07,1.7.93,2-1.08,2.37-2,2.69a45.94,45.94,0,0,1-6.89,1.49C501.38,326.61,495.39,326.35,489.4,326Z"/><path class="cls-3" d="M310.79,520.65c-2.93.38-5.88.52-8.81.94-4.63.66-9.22,1.61-13.86,2.18-5,.61-10.07,1.19-15.12,1.32-8,.2-15.91.52-23.88,1.2-7.78.66-15.71-.37-23.58-.7-6.44-.26-12.89-.54-19.34-.91-3.31-.18-6.64-.41-9.92-.91-6.09-.92-12.18-1.86-18.19-3.16-5.74-1.24-11.28-3.31-15.28-7.88-2.74-3.13-4.11-6.7-1.07-11,3.48-4.89,8.88-6.69,14-8.79a34.74,34.74,0,0,1,8.23-1.74c3.5-.48,7-.73,10.56-1,.29,0,.83.7.9,1.14a1.32,1.32,0,0,1-.81,1c-3.84.51-7.68,1.08-11.54,1.35-6.28.45-11.81,3-16.82,6.41-4.36,3-6,7.22-1.2,11.64a25.82,25.82,0,0,0,8.79,5.16,85.68,85.68,0,0,0,13.67,3.21c5.48,1,11,1.68,16.54,2.25,4.71.49,9.46.66,14.19.93,5.7.33,11.4.94,17.1.83,9.67-.18,19.34-.86,29-1.25,3.5-.14,7,.2,10.52-.07,5.37-.41,10.71-1.14,16.07-1.74,2.56-.29,5.13-.53,7.69-.91,4.7-.7,9.37-1.57,14.08-2.2,4.28-.57,8.58-1,12.88-1.35,6.38-.52,12.77-.92,19.16-1.37,4.43-.3,8.86-.63,13.29-.88,5.85-.34,11.7-.86,17.55-.86,14.65,0,29.3.25,43.95.4,2.19,0,4.38-.05,6.57,0,4.52.12,9,.48,13.55.4,12.8-.22,25.59.51,38.4-.72,6.66-.64,13.45.29,20.18.28,7.93,0,15.86-.27,23.79-.42a2.5,2.5,0,0,0,.67,0c4.6-1.33,9.22-2.59,13.77-4.06a4.25,4.25,0,0,0,3.18-4.32,5,5,0,0,0-3.43-5,65,65,0,0,0-9-2.69,21.26,21.26,0,0,0-5.63-.45c-2.2.09-4.38.57-6.57.84-.81.09-1.85.15-1.38-1.14.22-.61,1-1.45,1.5-1.47,3.53-.13,7.07-.1,10.61-.05.83,0,1.66.4,2.5.41a21.39,21.39,0,0,1,9.44,2.65c4,2,5.85,7,3.64,10.06a9.71,9.71,0,0,1-6.56,4.07c-5.24.91-10.35,2.78-15.61,3.26-6.4.59-12.88.08-19.33.16-7.26.08-14.51.26-21.77.44-4.27.1-8.53.32-12.8.43-2.72.06-5.43.06-8.15,0-4-.1-8.08-.36-12.13-.42q-20.18-.27-40.36-.45c-7.57-.06-15.14-.12-22.7,0-6.53.13-13,.58-19.57.85-4.49.19-9,.29-13.48.46-3,.12-6,.22-9,.46-6.7.55-13.4,1.18-20.32,1.78C316.54,519.77,313.68,520.28,310.79,520.65Z"/><path class="cls-3" d="M196.45,475.3c0-4.14.41-8.29.39-12.43-.08-14.06-.31-28.11-.4-42.16,0-3,.39-6,.39-9s-.37-6-.39-9c-.06-8.14,0-16.28,0-24.41,0-1.21.41-2.42.39-3.63,0-2-.4-4-.38-5.94,0-2.8.39-5.6.38-8.4,0-3.52-.27-7.05-.41-10.57,0-.52.19-1.15,0-1.55-.81-1.42,0-2.14,1.14-2.23,1.5-.13,1.14,1.23,1.12,2.1-.12,5.17-.37,10.33-.4,15.5,0,3.35.33,6.7.4,10.05.19,8,.37,16,.44,24,0,3-.4,6-.39,9,0,3.38.36,6.75.38,10.12,0,2.41-.4,4.81-.39,7.21q.16,34.52.42,69c0,2.91,0,5.82,0,8.73a5.39,5.39,0,0,0,0,1.56c.33,1.09.88,1.88,2.31,1.73s1.24-1.16,1.25-2.08V476q0-39.09,0-78.19c0-1.5.41-3,.39-4.51,0-2-.37-4-.39-5.94-.06-5.11-.08-10.21,0-15.31,0-3.5.36-7,.41-10.5.07-4.88,0-9.76,0-14.64,0-.33.31-.65.48-1,.43.3,1,.51,1.24.92s.05,1,.05,1.54v47c0,14.29,0,28.57,0,42.86,0,3-.37,6-.41,9-.07,5.45,0,10.9,0,16.35v1.57c0,4.61.06,9.22,0,13.82-.06,3.82-.4,7.64-.39,11.46,0,4.6.31,9.19.39,13.79a3.34,3.34,0,0,1-3.5,3.48c-2.38.05-4.09-1.44-4.1-3.59v-4.48C196.71,491.36,196.49,483.33,196.45,475.3Z"/><path class="cls-3" d="M333.19,495.93c-5.14.77-10.46.47-15.7.51-2.7,0-5.4-.29-8.1-.41-7.11-.31-14.23-.66-21.35-.88s-14.06-.3-21.09-.48c-2.11-.06-4.21-.39-6.31-.42a140.33,140.33,0,0,1-16.49-1.18c-8-1-16.15-.78-24.24-1.08-4-.15-8.09-.28-12.13-.47a1.47,1.47,0,0,1-1-.63c-.58-1.05-.72-1.75,1-1.62,7,.53,14,1,20.94,1.37,3.3.2,6.6.26,9.89.47,6.39.41,12.77,1,19.16,1.3,8.83.42,17.67.59,26.5.94,5.55.22,11.1.78,16.65.83,7,.06,13.91-.35,20.87-.36,6.42,0,12.8-1,19.16-1.18,14.7-.48,29.43.16,44.15.23,11.33.05,22.65,0,33.94,1.29,6.18.7,12.44.7,18.66,1,4.56.19,9.13.31,13.7.46.37,0,.75,0,1.12,0,8.19.59,16.37,1.3,24.57,1.75,4.54.24,9.1.05,13.66,0a12.66,12.66,0,0,0,1.91-.25c2.16-.35,4.32-.79,6.49-1,.48-.06,1,.52,1.54.81-.43.46-.81,1.23-1.31,1.32a62.64,62.64,0,0,1-9.29,1.34c-6.86.2-13.73.06-20.6.06a13.71,13.71,0,0,1-1.57,0c-7-.73-14-1.6-21-2.19-4.55-.38-9.13-.31-13.7-.49q-10.33-.42-20.68-.9c-5.63-.27-11.25-.65-16.88-.87s-11.07-.32-16.83-.47C363.45,495.18,348.29,493.64,333.19,495.93Z"/><path class="cls-2" d="M362.7,216h-14V110.45l15.5-.5Z"/><path class="cls-3" d="M364.4,204.57c-.07,2.8-.54,5.63-.32,8.4s-.67,4.38-3.46,4.32c-3.23-.07-6.46-.17-9.67-.48-1.16-.12-2.67-.07-2.68-2.23,0-9.25-.28-18.49-.39-27.74-.06-5.4,0-10.8,0-16.2V125.09c0-4.33-.07-8.66,0-13,.07-3.13,1.35-3.75,3.5-3.7,3.81.09,7.62.1,11.42,0,1.69,0,2.13.52,2.12,2.15-.07,9.06,0,18.12-.05,27.18,0,2.77-.4,5.55-.41,8.32,0,17.4,0,34.79,0,52.19a25.32,25.32,0,0,1-.43,3A29.37,29.37,0,0,1,364.4,204.57Zm-1.31-85c.07-2.18,0-4.38,0-6.56.05-1.68-.64-2.41-2.34-2.38-3,.06-6,0-8.95,0-2.15,0-2.57.56-2.18,2.71a18.63,18.63,0,0,1,.44,3.39q0,18.36,0,36.72v57.16c0,3.93,0,4,3.85,4.41,2.1.23,4.21.27,6.31.47,1.6.16,2-.53,2-2.05-.09-4.65,0-9.3,0-13.95,0-2.49,0-5,0-7.47q.23-24,.44-47.95c0-5.4,0-10.79,0-16.19C362.81,124.84,363,122.22,363.09,119.59Z"/><path class="cls-2" d="M400.7,216h-14l1.5-86h12.5Z"/><path class="cls-3" d="M402,131q.15,5.55,0,11.12c-.06,3.22-.38,6.44-.41,9.67q-.27,31.77-.43,63.55c0,1.57-.49,2-2,2-3.36-.1-6.72,0-10.08,0-2.22,0-3.18-1-3.14-3.13.13-7.1.37-14.2.42-21.3.07-11.72,0-23.44,0-35.16,0-1.13.42-2.26.4-3.39-.07-3-.41-6-.39-9.07,0-5,.28-10,.4-15,0-1.49.75-2.14,2.19-2.07,3.07.15,6.14.28,9.21.46.77.05,1.52.29,2.51.44C401.34,129.69,402,130.34,402,131Zm-2.19,11.26c0-3.16,0-6.33,0-9.49,0-1.35-.28-2-1.83-2-2.55,0-5.11-.23-7.66-.42-1.36-.1-1.77.47-1.76,1.81.06,5.15.08,10.3,0,15.45-.06,4-.41,8-.4,12,0,4.74.41,9.49.39,14.23-.06,11.51-.26,23-.44,34.54,0,1.5-.31,3-.42,4.52s.58,2.13,2.06,2.18c2.78.09,5.56.32,8.33.38.41,0,.89-.53,1.23-.91.15-.17,0-.57,0-.87.15-13.11.33-26.22.44-39.32.06-7.12,0-14.24,0-21.36Z"/><path class="cls-2" d="M437.7,216h-14l1.5-61h12.5Z"/><path class="cls-3" d="M423.62,163.94c0-2.77.36-5.54.4-8.31,0-1.83.79-2.46,2.54-2.42,3.13.08,6.27,0,9.4,0,2.63,0,2.89.25,2.87,2.92q-.21,23.33-.44,46.66c0,3.93-.07,7.86,0,11.78,0,1.7-1,2.2-2.23,2.23-3.51.1-7,.15-10.52,0-1.17-.06-2.83-.16-2.56-2.33a48.81,48.81,0,0,0,.05-5c.13-7.62.29-15.24.44-23.09C423.6,178.76,423.56,171.35,423.62,163.94Zm1.75,29.84q-.11,9.32-.46,18.62c-.07,1.77.47,2.3,2.24,2.27,2.62,0,5.25.37,7.88.35,1.35,0,1.59-1.16,1.58-2.4,0-6.74-.07-13.49,0-20.23q.15-17.31.47-34.6c0-1.9-.53-2.42-2.38-2.37-2.24.07-4.5-.26-6.75-.39-1.47-.08-2.13.68-2.12,2.13,0,3.31.06,6.62,0,9.93-.05,2.33-.28,4.65-.43,7C425.39,180.94,425.45,187.36,425.37,193.78Z"/><path class="cls-2" d="M516.73,203.94c9-.38,17.95-.21,26.91-.61a34.52,34.52,0,0,0,9-2,6.17,6.17,0,0,0,4.55-5.39c.08-.69.89-1.29,1.37-1.93.42.62,1.29,1.32,1.19,1.84a9.93,9.93,0,0,1-6.82,8c-5.88,2.06-12.06,1.69-18.12,2.15-6.7.5-13.47.2-20.18.6a60.33,60.33,0,0,0-11.34,1.79c-5,1.27-8.94,4-10.5,9.35-1,3.51-.39,7,.35,10.32,2.3,10.3,7.25,19.45,13.05,28.19a21.39,21.39,0,0,1,2.93,6.16A53.37,53.37,0,0,1,510.9,280c-.27,3.88-.93,7.84-3.53,11a6.6,6.6,0,0,1-1.56,1,5.65,5.65,0,0,1,.26-1.73,22.36,22.36,0,0,0,2.63-12.11c-.29-4.08-1.24-8.15-1.19-12.21,0-3.65-1.61-6.36-3.34-9.19-1.39-2.27-2.9-4.46-4.1-6.82-3.85-7.59-8.06-15-9.4-23.66-.9-5.76-.05-11,4-15.34,2.65-2.91,6.32-4.06,10.07-5.4C508.86,205.06,512.78,204.11,516.73,203.94Z"/><path class="cls-2" d="M556,223.49c-6.4-.69-12.75-1.92-19.09-3.06-5.48-1-11-2-16.49-.8a17.79,17.79,0,0,0-6.36,3c-3.33,2.46-3.87,6.39-3.94,10.16a52.27,52.27,0,0,0,.9,10.81,58.55,58.55,0,0,0,3.18,10.76c2.31,5.77,4.55,11.49,3.9,17.87-.24,2.27-.52,4.54-.9,6.8a39.4,39.4,0,0,1-6.39,16.16c-.26.36-.82.52-1.25.77a6.72,6.72,0,0,1-.38-1.61,2.14,2.14,0,0,1,.5-1.12c4.29-5.93,5.38-12.87,6.13-19.85a29.62,29.62,0,0,0-1.94-13.95c-3.48-9-6.29-18.26-5.59-28.13.31-4.36,1.83-8.24,5.61-10.84,4.74-3.25,10-4,15.59-3.11l19.08,3.14c3.71.6,7.4,1.47,11.13,1.71,3.54.23,7.4.83,10.1-2.56.51-.64.76-1.51,1.31-2.12.32-.35,1-.39,1.5-.57a4,4,0,0,1,.27,1.39c-.48,2.47-2.07,4-4.47,4.95C564.23,223.44,560.09,223.92,556,223.49Z"/><rect class="cls-2" x="461.7" y="171.95" width="14" height="44"/><path class="cls-3" d="M476.49,214.65c0,1.59-.7,2.24-2.27,2.23-3.66,0-7.31,0-11,0-2.4,0-2.9-.47-2.9-2.9,0-13.58,0-27.17,0-40.76,0-1.77.62-2.55,2.44-2.51,3.21.07,6.42,0,9.63,0,3.39,0,4.53,1.12,4.53,4.49,0,5.3,0,10.6,0,16.12C476.77,199.25,476.6,207,476.49,214.65Zm-6.34,0a8.37,8.37,0,0,1,1.12,0c3.41.37,3.41.37,3.41-3.07,0-5.68-.05-11.35,0-17,.05-3.57.39-7.15.4-10.72,0-3.18-.22-6.36-.47-9.52a1.87,1.87,0,0,0-1.25-1.28c-3-.26-6-.35-9-.51-1.57-.08-2.26.64-2.26,2.22,0,8.66,0,17.33,0,26,0,2.85.34,5.7.39,8.55,0,1.28-.39,2.57-.36,3.85,0,.51.69,1,1.06,1.51C465.7,214.77,467.92,214.7,470.15,214.62Z"/><path class="cls-1" d="M435.09,295.33c.61,2.13,1.33,4.22,1.92,6.36.09.34-.29.8-.45,1.21a5.82,5.82,0,0,1-1-.8q-4.14-5.43-8.23-10.91a10.35,10.35,0,0,1-.61-1.08,5.77,5.77,0,0,1,1.3-.63,3.68,3.68,0,0,1,1.55,0c1,.24,1.42.16.9-1-1-2.18-2.05-4.37-3-6.59a6.27,6.27,0,0,1-.16-1.81c.57.23,1.32.3,1.66.71,2.53,3,5.1,6,7.41,9.24.77,1.08.25,2.33-1.62,2.54A8.21,8.21,0,0,0,435.09,295.33Z"/><path class="cls-3" d="M431.65,274a35,35,0,0,1,2.8,3.74c.29.45.14,1.19.19,1.79a5.47,5.47,0,0,1-1.37-.82q-4.45-5-8.81-10.16a3.47,3.47,0,0,1-.41-1.16,7.66,7.66,0,0,1,1.68-.23C427.78,269.51,429.75,271.73,431.65,274Z"/><path class="cls-3" d="M442,300a5.72,5.72,0,0,1-.52-1.7c.62.13,1.51,0,1.8.42,1.48,1.89,2.82,3.89,4.16,5.88.81,1.22.22,1.5-1.08,1.15C444.8,303.71,443.34,301.86,442,300Z"/><path class="cls-2" d="M335.2,378s9.5-22,13.5-45.5-8-29.5-8-29.5l-54.5-8,14.5-8.5-35-9.5-2-25.5-11.5-30-4.5-9,4.5-22s7.52.8,11-3c5.5-6,9-21.5,9-21.5l-6.5-18-39.5,5,2,43-12.5,13s-18.07,26.57-23.5,46c-6.53,23.33-2,56-2,67s7,32.5,7,32.5l7.5,4.5,13.5,51,10,26.5,12,25.5,6.5,1.5h9.5l7-3.5,5.5-6-1.5-26.5-3.5-28-9-54.5h37.5l4.5,24.5,12.5,8.5-4,16.5,13,8.5,8.5-22.5Z"/><path class="cls-4" d="M226.9,363.9c2.43.27,5.87-1.57,5.8-3.45-.08-2.16-5.8-2.69-10-4.5-8.09-3.5-20-7-20.75-16-.82-1.74-10.25-43-6.75-60.5.69-3.47,1.23-20-2.5-22s-4,84.92,4.53,95.68c3.07,3.69,7.29,4.67,12,7.32S221.13,363.25,226.9,363.9Z"/><path class="cls-4" d="M248.12,449.14c-.46-1.15-1-2.29-1.47-3.42a55.43,55.43,0,0,0-6.09-9.68,74.67,74.67,0,0,0-7.21-8.85,28.38,28.38,0,0,1-6.32-9.45,12.13,12.13,0,0,0-4.86-5.92c-.56-.39-2-1.47-2.3-.43s.17,2.45.38,3.48c.42,2.09,1.09,4.09,1.66,6.13s1.55,3.79,2,5.77c.49,2.2,1.61,4.19,2.19,6.35a15.06,15.06,0,0,0,1.07,3.09c.5,1,.73,2.07,1.24,3l.07.12a42.83,42.83,0,0,1,2.91,5.78,66.5,66.5,0,0,0,7.29,13.48,15.74,15.74,0,0,0,2.75,3c.51.44.7.75,1.38.9s1.1.21,1.64.36a8.56,8.56,0,0,0,6.09-1c-.14-3.29-.28-6.33-1.47-9.41C248.65,451.35,248.54,450.2,248.12,449.14Z"/><path class="cls-2" d="M292.7,401.45c-4.29,5.46,6.05,19.34,15.5,27.5,10.05,8.68,26.8,24.5,32,15.5,6.12-10.6-8.6-23.1-17.5-31.5S298.2,394.45,292.7,401.45Z"/><path class="cls-5" d="M271.38,144.37l.41,0a2.67,2.67,0,0,1,0-.4,2.31,2.31,0,0,0-.09-.84c-.88-2.27-2.78-3.53-4.64-4.76-.42-.28-.84-.56-1.24-.85a25.37,25.37,0,0,0-3.69-2c-.78-.38-1.57-.77-2.33-1.19a2.44,2.44,0,0,1-.74-.89c-.1-.16-.2-.32-.31-.47a3.5,3.5,0,0,0,.45-.07,2.73,2.73,0,0,1,.94,0c.69.12,1.37.26,2.06.41,1.1.23,2.2.46,3.31.59a3.11,3.11,0,0,0,1.49-.36,7.23,7.23,0,0,1,.68-.26c-.16-.17-.31-.36-.47-.55a2.65,2.65,0,0,0-1.09-1l-.86-.29h0a43.65,43.65,0,0,0-6.91-2,53.71,53.71,0,0,0-8.51-.47,8.5,8.5,0,0,0-2.35.49c-.44.13-.87.26-1.3.35a3.51,3.51,0,0,1-1.44.06c-11.14-2.5-21,0-29.08,8.19a40,40,0,0,0-10.47,19.26c-1,4.46,0,8.72,1,13h0c.09.38.18.76.26,1.14a38.44,38.44,0,0,0,9.73,18.24c2.74,2.88,6,5.21,10.23,5.48.37,0,1,.41,1,.62a2.69,2.69,0,0,1-.53,1.52,32.71,32.71,0,0,1-5.84,5.38c-1.05.82-2.1,1.64-3.1,2.53a47.42,47.42,0,0,0-8.64,10.05c-3.58,5.67-6.73,11.63-9.87,17.58l-.94,1.78c-3.48,6.6-5.37,13.78-6.65,21.09a143.54,143.54,0,0,0-1.79,15.48c-.33,5.21-.5,10.42-.68,15.64h0q-.12,3.82-.27,7.64c0,1.06-.11,2.12-.19,3.18-.12,1.76-.24,3.52-.22,5.28.06,6.43.14,12.86.46,19.28a141.39,141.39,0,0,0,1.37,14.53,59.38,59.38,0,0,0,2,8c.22.7.43,1.41.64,2.11.44,1.52,1,3,1.57,4.48h0c.16.4.31.8.46,1.2,1.18,3.15,3.88,4.3,6.59,5.45l1,.42c.92.4,1.51.73,1.22,2.31a11.74,11.74,0,0,0,.56,4.77c.11.44.23.88.32,1.31,1.25,5.55,2.52,11.11,3.89,16.63,1,3.94,2,7.86,3.23,11.73.92,2.93,1.94,5.84,3,8.74h0q.92,2.63,1.82,5.26c.59,1.76,1.16,3.54,1.73,5.31v0c1.09,3.38,2.17,6.77,3.45,10.08,2.92,7.56,6,15.08,9.32,22.47a102.55,102.55,0,0,0,7.12,13c1.7,2.67,4.51,3.93,7.8,4.28a34.93,34.93,0,0,0,12.2-1c4.69-1.15,8.74-3.67,10.33-8.57a14.12,14.12,0,0,0,.33-4.93c0-.68-.06-1.36-.06-2,0-1.46,0-2.91,0-4.37,0-2.15,0-4.3,0-6.45a62.06,62.06,0,0,0-1.75-16.4,16.8,16.8,0,0,1-.36-3.49c0-.8-.06-1.61-.16-2.39-.69-5.48-1.42-11-2.23-16.43-.47-3.22-1.06-6.43-1.65-9.64l-.13-.66c-.4-2.19-.83-4.37-1.26-6.55-.24-1.22-.48-2.44-.71-3.66l-.87-4.42v0h0c-.72-3.6-1.43-7.19-2-10.8s-1.06-6.94-1.54-10.42h0l-.72-5.1c-.29-2,1.31-1.47,2-1.22,2.89,1.11,5.84,1,8.79.86,1.27-.05,2.54-.1,3.81-.05,2.52.09,5.05.07,7.58.05h0c1.86,0,3.71,0,5.57,0,2.55,0,5.09.25,7.63.47a1.16,1.16,0,0,1,.76.86c-.19,3.66.74,7.11,1.66,10.55a50.46,50.46,0,0,1,1.51,6.85c.57,4.5,3.66,6.71,7.21,8.6a5.18,5.18,0,0,0,.63.26,2.15,2.15,0,0,1,1,.56,4.28,4.28,0,0,0,2.1,1.21c1.18.41,2.33.81,2.33,2.37a12.53,12.53,0,0,1-.91,4c-.19.56-.38,1.12-.54,1.68-.27,1-.56,2-.84,2.95h0c-.7,2.44-1.4,4.88-2,7.34a2.44,2.44,0,0,0,.84,2c2.07,1.35,4.16,2.65,6.26,3.94h0c1.76,1.09,3.52,2.18,5.26,3.3,1.44.92,2.23.72,2.82-.9s1.23-3.26,1.86-4.88c.56-1.41,1.11-2.83,1.64-4.25q.92-2.48,1.8-5,1-2.71,2-5.41a2.77,2.77,0,0,1,2.75-1.95l.79,0c2.42-.14,4.95-.28,6.5-2.78l.26-.39a2.55,2.55,0,0,0,.63-1.46c-.34-2.7.71-5,1.75-7.23.35-.74.69-1.49,1-2.25.68-1.74,1.39-3.48,2.09-5.21,1.23-3,2.46-6,3.54-9.11a27.8,27.8,0,0,0,1.08-5c.13-.83.26-1.67.42-2.49l.75-3.63c.44-2.11.88-4.22,1.26-6.35.46-2.53.87-5.09,1.09-7.65.27-3.16.39-6.34.45-9.51a15.82,15.82,0,0,0-1.47-8,17.41,17.41,0,0,0-12-9.07c-1.38-.31-2.75-.66-4.12-1h0c-2-.52-4-1-6-1.43-3.21-.65-6.44-1.16-9.68-1.67l-2.43-.38-2.16-.35c-3.2-.52-6.39-1-9.6-1.42a33.6,33.6,0,0,0-5.31,0l-.71,0c-.22,0-.42.32-.62.62a3.13,3.13,0,0,1-.28.4,3.65,3.65,0,0,1,.3.27,1.5,1.5,0,0,0,.67.44l6.53.87h0c3.47.45,6.93.9,10.39,1.43l1.81.28h0c7.83,1.21,15.66,2.41,23.18,5.1,5.06,1.81,8.24,5.94,9,11.59,1.07,8.43-.72,16.44-2.52,24.48h0l-.51,2.32c-.26,1.17-.46,2.36-.66,3.55a38.69,38.69,0,0,1-1.38,6.2c-1.35,4-2.92,7.92-4.49,11.84-.67,1.68-1.35,3.37-2,5.05s-1.14,1.77-2.89.7a55,55,0,0,0-11.23-5.2,34.78,34.78,0,0,0-6.31-1.29c-1.29-.19-2.58-.37-3.85-.64-4.19-.88-8.28-.23-12.4.47-1.61.28-2.75-.12-3.14-2-.25-1.14-.54-2.29-.82-3.43-.88-3.5-1.76-7-1.48-10.72a50.64,50.64,0,0,0,0-6.16,3.92,3.92,0,0,0-.48-1.42c-.1-.21-.2-.43-.29-.64l-.34.51-.85,1.28a.76.76,0,0,0-.08.11.73.73,0,0,0-.15.25,12.45,12.45,0,0,0-.23,1.26c-.14,1-.28,1.89-.7,2.05a11.28,11.28,0,0,1-4.05.39l-.93,0a6.84,6.84,0,0,1-1.42-.2,7.19,7.19,0,0,0-1.3-.21c-1.27-.05-2.54-.12-3.82-.19a95.22,95.22,0,0,0-10.27-.18,52.55,52.55,0,0,1-10.21-.72h0l-2-.27c-1.56-.2-2.24-1.12-2.61-2.61-.53-2.16-1.25-4.28-2-6.38a4.67,4.67,0,0,0-1.07-1.53l0,0a1.57,1.57,0,0,0-.62-.35l-.31-.13a2.68,2.68,0,0,1-.1.35,1.49,1.49,0,0,0-.1.73c.3,1.21.62,2.42.93,3.63.49,1.84,1,3.68,1.39,5.54a25.26,25.26,0,0,1,.41,3h0c.05.56.1,1.12.17,1.68.17,1.3.33,2.59.49,3.89.39,3.2.78,6.39,1.33,9.56.9,5.21,1.91,10.4,2.92,15.59.35,1.83.71,3.67,1.06,5.5q.75,3.89,1.51,7.75h0c1.16,5.9,2.31,11.79,3.35,17.7a31.68,31.68,0,0,1,.34,4.88c0,1.24.05,2.49.19,3.72.38,3.6.87,7.19,1.36,10.78h0l.48,3.54a2.88,2.88,0,0,0,.17.64,3.12,3.12,0,0,1,.18.79q.11,4.2.2,8.42h0c.08,3.51.16,7,.26,10.54.19,6.43-5.28,10.13-10.45,10.86l-1.43.2a50.65,50.65,0,0,1-6.23.66c-4.21.11-7.82-1.07-10-5.19-5.9-10.95-11.68-21.94-15.21-34-.71-2.42-1.65-4.77-2.6-7.12-.84-2.1-1.69-4.2-2.36-6.35-2.78-8.85-5.48-17.73-7.87-26.69-1.21-4.52-2.18-9.11-3.14-13.7-.46-2.17-.91-4.34-1.39-6.51a2.82,2.82,0,0,0-.31-.69c0-.08-.09-.16-.13-.25l-.59-1.14h0l-.26-.48.7.1a4.12,4.12,0,0,1,1.42.36c5,2.79,10.52,4.09,16,5.38l.9.21a10,10,0,0,0,9.46-2.88,3.64,3.64,0,0,0,.9-2.5c-.21-6.49-.47-13-.87-19.47-.14-2.36-.35-4.71-.56-7.07-.3-3.32-.59-6.63-.7-10-.17-5.49-.12-11-.08-16.47h0c0-1.6,0-3.2,0-4.79,0-2.47,1-3.51,3.45-3.49,7.67,0,15.05-1.68,22.45-3.41l.64-.16a32.51,32.51,0,0,1,4.52-.6c1.12-.1,2.25-.2,3.35-.38a30.59,30.59,0,0,1,9.5.4,33.75,33.75,0,0,0,8.51.54c1.21-.13,2.43-.18,3.64-.24s2.66-.13,4-.29a2.85,2.85,0,0,0,1.38-.81,7,7,0,0,1,.62-.49,5.28,5.28,0,0,1-.62-.33,2.71,2.71,0,0,0-1.34-.52c-1.42,0-2.83.11-4.25.2a53.67,53.67,0,0,1-7.39.11,62.23,62.23,0,0,1-9.11-1.65h0l-2.43-.55c-.47-.11-1-.91-1.13-1.48a50,50,0,0,1-.92-5c-.16-1.13,1.67-3.73,2.78-3.77,2.28-.09,4.56-.06,6.85,0h0l1.7,0a1.52,1.52,0,0,1,.77.29c2.61,1.73,5.57,2.14,8.53,2.56l2.12.31c1.88.32,3.73.81,5.58,1.31h0l.52.14a1.68,1.68,0,0,1,.72.55l.31.31-.34.13a2.4,2.4,0,0,1-.75.23l-4.1.32h0c-2.53.2-5.05.39-7.57.63a3,3,0,0,0-1.26.6,6,6,0,0,1-.57.36c.15.13.3.29.45.45a2,2,0,0,0,1,.75,14.77,14.77,0,0,0,3.64,0c1.24-.1,2.48-.25,3.72-.39h0c1.61-.18,3.22-.37,4.83-.47,3.55-.24,7.1-.45,10.66-.66h0c3.93-.23,7.85-.46,11.77-.73,5.25-.36,10.5-.85,15.74-1.35,4.06-.39,8.12-.81,12.16-1.39,1.23-.17,2.84-.92,2.26-2.48a3.66,3.66,0,0,0-2.89-1.87c-2.58.13-5.15.45-7.72.78-1.26.16-2.52.32-3.78.46s-2.7.26-4,.38h0c-1.8.16-3.6.32-5.39.54-2.07.26-4.14.56-6.21.86-2.22.32-4.44.64-6.67.91-3.24.39-6.5.71-9.75,1l-3.53.35h-.05c-.69.07-1.09.11-.85-1,.1-.47-1.26-1.62-2.12-1.86-1.48-.42-3-.72-4.51-1-1-.2-2.06-.4-3.08-.64L287,281a29.91,29.91,0,0,1-5.4-1.57,15.88,15.88,0,0,0-7.82-1.09,11.2,11.2,0,0,1-4.9-1.27h0c-.58-.24-1.16-.48-1.73-.69-.24-.09-.38-.93-.32-1.39,1-8.09-.95-15.81-3-23.48-1.48-5.52-3.23-11-5.12-16.35A13.64,13.64,0,0,0,256.8,232c-.45-.64-.91-1.29-1.29-2a11.56,11.56,0,0,1-1.19-3.1c-.39-1.74-.64-3.51-.86-5.28a2,2,0,0,1,.22-.94c.06-.14.11-.29.16-.43l.31.14a2.75,2.75,0,0,1,.63.35c3.67,3.26,7.55,6.18,12.47,7.14,3.5.68,6.8.61,8.32-2.53.95-1.95.17-3.74-.91-5.2-2.18-3-4.53-5.83-6.88-8.68h0l-.85-1c-3.58-4.34-7.16-8.7-8.43-14.39a13.77,13.77,0,0,1-.11-4.44c.06-.49.9-1.07,1.51-1.31a14.35,14.35,0,0,0,9.14-9.75q1.26-4.35,2.16-8.78c.07-.35-.26-.77-.59-1.2-.15-.2-.3-.4-.42-.58-.12.15-.26.3-.4.45a2.83,2.83,0,0,0-.73,1c-.36,1.21-.65,2.46-.93,3.71a25.78,25.78,0,0,1-2.32,7.09c-3.63,6.46-9.47,8.05-16.77,5.57a42,42,0,0,1-4.27-1.81c-1-.45-1.94-.9-2.94-1.3a1.88,1.88,0,0,0-1.11.08c-.19.05-.38.1-.55.13.09.13.18.28.27.43a2.72,2.72,0,0,0,.66.83,28.4,28.4,0,0,0,10.4,4.58c.28.06.68,1.06.53,1.37A64.72,64.72,0,0,0,246.24,212a2.08,2.08,0,0,1-.36.77,4,4,0,0,0-.2.35l-.31-.24a6.53,6.53,0,0,1-.64-.54l-2.63-2.73v0c-3.76-3.89-7.52-7.79-11.2-11.77a3.24,3.24,0,0,1-.36-2.69c.58-1.74,1.23-3.46,1.88-5.18h0a82.22,82.22,0,0,0,3.22-9.78c.38-1.59-1.34-3.92-2.6-5.64l-.12-.15a10,10,0,0,1-2.35-6.06c0-1.48.43-2.83,1.54-3.11a4.89,4.89,0,0,1,3.69.83,11.18,11.18,0,0,1,2.23,2.66c.27.4.54.81.83,1.19.14.19.27.38.4.58h0a6.31,6.31,0,0,0,.73,1,2.65,2.65,0,0,0,.82.48c.13.06.27.12.39.19.07-.14.15-.28.23-.42h0a1.93,1.93,0,0,0,.34-.91c0-.64-.11-1.27-.19-1.91a15.65,15.65,0,0,1-.2-2.64c.43-10,5.67-14.51,13.51-17a23,23,0,0,1,4.92-.77c.62-.06,1.23-.11,1.84-.18,1.63-.18,2.39.71,3,2.23,1.36,3.64,2.86,7.23,4.47,10.75a5.62,5.62,0,0,0,1.25,1.57,8,8,0,0,1,1,1.11,5,5,0,0,1,.6,1.44h0c.07.23.14.45.23.68q-.33.1-.66.24a4.93,4.93,0,0,1-1.51.41,5.71,5.71,0,0,1-1.35-.19,7.53,7.53,0,0,0-1.14-.19,1.36,1.36,0,0,0-.74.35,2.33,2.33,0,0,1-.35.23l.21.26h0a3.42,3.42,0,0,0,.47.53c.95.87,5,1.24,6,.58a3.55,3.55,0,0,0,.17-5.49c-2.7-2.13-3.77-5.09-4.83-8a27.45,27.45,0,0,0-2.22-5.05.84.84,0,0,1,0-.6l.18,0a1.33,1.33,0,0,1,.88,0c.55.33,1.1.68,1.64,1s1.37.91,2.09,1.3a7.54,7.54,0,0,0,1.66.56c.26.06.52.12.77.2,0-.26,0-.53,0-.81a3.49,3.49,0,0,0-.19-1.64c-1.83-3.58-5.08-5.67-8.33-7.72-1.26-.79-.78-1.12.4-1.25,1.81,1.23,3.5,2.37,5.22,3.44A1.65,1.65,0,0,0,271.38,144.37Zm-48.65,59.95,0,0c.51-.47,1.07-.93,1.62-1.38a15.48,15.48,0,0,0,3.41-3.45c.83-1.31,1.15-.93,1.58-.39l.27.32c1,1.09,2.05,2.19,3.07,3.3,2.19,2.38,4.38,4.76,6.74,7a83.18,83.18,0,0,0,9.32,7.16c2.23,1.54,3.22,3,2.83,5.57a2.51,2.51,0,0,1-.67,1.14c-1.33-.58-1.76.29-2.15,1.09-.09.17-.17.35-.26.5a14.18,14.18,0,0,0-1.86,7.58,2.94,2.94,0,0,1-.57,1.42,7,7,0,0,0-.36.65c-.08-.14-.16-.28-.23-.42-.19-.34-.37-.68-.58-1a2.11,2.11,0,0,0-.32-.35,2.72,2.72,0,0,1-.29-.3l-3-4.08c-1.92-2.61-3.83-5.22-5.78-7.8-1.7-2.27-3.49-4.48-5.27-6.7l-.34-.42a1.21,1.21,0,0,0-.59-.29l-.31-.1c0,.11-.05.22-.07.33a1.53,1.53,0,0,0-.08.72,3.59,3.59,0,0,0,.6,1.1l2.89,4.07c3.65,5.13,7.3,10.26,11,15.32a3.92,3.92,0,0,0,3.15,1.26c.75-.12,1.58-1.51,1.87-2.48a21.6,21.6,0,0,0,.57-3,24.56,24.56,0,0,1,.42-2.45,5.08,5.08,0,0,1,.82-1.58c.15-.24.31-.47.44-.71l.44.7c.31.5.63,1,.94,1.51l.52.86c.93,1.51,1.85,3,2.75,4.53.2.34.42.67.64,1h0a10.33,10.33,0,0,1,1.4,2.64c.34,1.1.68,2.2,1,3.3v0c1.56,5,3.13,10.06,4.29,15.18,1.05,4.64,1.66,9.38,2.28,14.12.13,1.07.27,2.15.42,3.23.1.78-.55,2.34-1,2.38-1.26.14-1.22-.68-1.19-1.5a3.46,3.46,0,0,0,0-.72c-.18-1.45-.33-2.91-.49-4.37h0a97,97,0,0,0-1.39-10,74.38,74.38,0,0,0-2.81-9.24q-.55-1.55-1.08-3.09a3.4,3.4,0,0,0-.79-1.1,4,4,0,0,1-.44-.48c-.05.2-.1.39-.16.58-.15.55-.3,1.1-.41,1.66,0,.08.07.17.16.27a.83.83,0,0,1,.17.26c2.9,8.06,5.11,16.25,5.06,25,0,2.05-.21,2.57-2.56,2.53-7.67-.16-15.36,0-23,.42a19,19,0,0,0-5,1.22c-.86.28-1.72.57-2.58.79-.2.06-.76-.34-.74-.47.09-.68.23-1.35.36-2a28.45,28.45,0,0,0,.47-3c.26-3.28.48-6.56.7-9.85s.43-6.43.68-9.64c.39-5-.34-9.95-1.06-14.86-.13-.87-.26-1.74-.38-2.61a37.26,37.26,0,0,0-2.65-9c-2.2-5.29-6.62-5.58-11.06-4-.52.19-.88.82-1.25,1.44a8.38,8.38,0,0,1-.52.83c.27,0,.54,0,.81,0a15.22,15.22,0,0,0,1.79-.06c.52-.07,1-.18,1.57-.3a8.86,8.86,0,0,1,2.68-.32c3,.28,4.29,2.62,5.09,5.13a23.91,23.91,0,0,1,.81,4.16h0c.05.43.11.86.17,1.29.17,1.09.34,2.17.52,3.26.47,2.95.95,5.9,1.16,8.87a42.6,42.6,0,0,1-.18,6.28c-.07,1-.15,2-.19,3-.06,1.26-.1,2.51-.15,3.77h0c-.09,2.43-.17,4.87-.33,7.3a20.32,20.32,0,0,1-.4,2.56,20.08,20.08,0,0,0-.38,2.28c-.26,2.7-.39,5.42-.5,8.13a1.34,1.34,0,0,0,.59,1.05c.23.11.73-.23,1.05-.45a5.27,5.27,0,0,0,.56-.51,2,2,0,0,1,.95-.68c1.05-.15,2.1-.32,3.16-.49a95.08,95.08,0,0,1,10.61-1.28c6.53-.3,13.09-.16,19.63,0a13.53,13.53,0,0,1,4.78,1.33c1.52.64,1.48.88.17,1.76a5.1,5.1,0,0,0-2.17,5.21,13.31,13.31,0,0,0,.64,2.52,16,16,0,0,1,.58,2.13c.2,1.14.29,2.26-1.62,2.38a64.09,64.09,0,0,0-6.43.89h0L255,294c-1.54.24-3.07.5-4.61.75-3.13.52-6.27,1-9.42,1.47-1.66.23-3.34.3-5,.37h0c-.79,0-1.58.06-2.37.11-1.41.09-2.82.21-4.23.32a98.17,98.17,0,0,1-10,.47,16.93,16.93,0,0,1-7.81-2c-3.56-2-4.9-5.82-5.41-9.77-.16-1.34-.21-2.69-.26-4s-.09-2.6-.25-3.88c-.18-1.55-.45-3.1-.72-4.65a57.48,57.48,0,0,1-.95-7.23c-.14-3.45,0-6.92.17-10.38.08-1.59.15-3.17.19-4.76,0-.24,0-.48,0-.72h0a16.85,16.85,0,0,0-.07-3.1,2.52,2.52,0,0,0-.77-1.14,5.21,5.21,0,0,1-.45-.5c-.1.18-.22.35-.34.53h0a2.76,2.76,0,0,0-.58,1.16,58.76,58.76,0,0,0-.46,6.35c-.08,7.73-.07,15.44,1.26,23.11a45.76,45.76,0,0,1,.48,5.38,43.61,43.61,0,0,0,.55,5.72c.71,3.72,2,7.48,5.51,9.55,5.48,3.28,11.55,3.86,17.72,2.82,2.81-.47,3.9.35,3.5,3.11a67.79,67.79,0,0,0-.87,8.64c-.06,2.82.12,5.65.3,8.48h0c0,.57.07,1.13.11,1.7.1,1.82.24,3.63.38,5.45.18,2.41.37,4.83.48,7.25q.54,11.42.89,22.84c.11,3.73-.37,4.44-3.93,5.54a8.77,8.77,0,0,1-3.85,0l-2.4-.38a32.07,32.07,0,0,1-13.72-4.41h0a42.67,42.67,0,0,0-5.78-2.7,8.26,8.26,0,0,1-5.4-5.82c-.44-1.69-.94-3.36-1.44-5-1.32-4.41-2.64-8.81-2.82-13.53-.12-3.12-.45-6.23-.79-9.34-.37-3.48-.75-6.95-.82-10.43-.09-4.57.17-9.16.42-13.74h0c.14-2.51.28-5,.36-7.52s.13-5.12.17-7.67h0c.06-4,.13-8,.36-12a58.64,58.64,0,0,1,1.2-8.07h0c.14-.76.29-1.51.43-2.27.71-3.89,1.45-7.78,2.35-11.64.13-.55.25-1.11.37-1.67a32.82,32.82,0,0,1,2.24-7.37c1.45-3,3.07-5.83,4.69-8.71h0c1.76-3.14,3.53-6.28,5.08-9.53a62,62,0,0,1,7.6-11.36l.72-.92c1.58-2,2.56-2,4.12.05a56.07,56.07,0,0,1,4.71,7,75.5,75.5,0,0,1,3.24,6.94h0l.67,1.56a43.5,43.5,0,0,1,4,17.7c0,3.92-.16,7.85-.47,11.76-.14,1.74-.42,3.47-.7,5.2-.19,1.16-.39,2.33-.53,3.5a46.39,46.39,0,0,0-.45,6.11c0,.42.38.84.75,1.26.17.19.34.38.48.57.09-.15.21-.3.33-.46a2.33,2.33,0,0,0,.57-1c.23-1.52.41-3.06.59-4.59h0c.11-1,.22-1.94.34-2.91.2-1.49.42-3,.64-4.46h0c.44-3,.88-6,1.1-9a46.55,46.55,0,0,0-5.31-26c-1.82-5.66-5.12-10.47-8.74-15C221.28,205.65,221.89,205.1,222.73,204.32Zm105.44,165.4c.25.17.6.58.54.75-1.49,4.25-3,8.48-4.57,12.71l-.21.59c-.54,1.47-1.11,1.58-2.42.51a22.94,22.94,0,0,0-5.37-3.15c-.39-.17-1,.16-1.59.49a8.84,8.84,0,0,1-.81.41l.44.37c.36.3.71.6,1.09.86a2.27,2.27,0,0,0,.52.25,2.21,2.21,0,0,1,.42.18c.56.32,1.16.62,1.76.91a11.82,11.82,0,0,1,4,2.66c.46.56-.1,2-.63,3.41-.2.52-.4,1-.54,1.49-.85,2.79-1.72,5.58-2.71,8.32,0,.06,0,.13-.07.21-.21.65-.55,1.69-1.65.8-.92-.74-1.82-1.53-2.72-2.31a53.52,53.52,0,0,0-5.11-4.09,3.27,3.27,0,0,1-1.45-4c.58-2.25,1.26-4.46,1.95-6.67l.54-1.74.5-1.62c1.48-4.85,3-9.69,4.53-14.51.18-.55,1-.88,1.74-1.09l.37.08C320.71,366.39,324.72,367.28,328.17,369.72Zm-19.93,5.08-1.26-.66c-3.45-1.78-6.9-3.56-9.09-7.06h0c-.42-.67-.83-1.33.51-1.43l4.29-.35c2.3-.19,4.6-.39,6.9-.52s2.89.74,2.21,3c-.2.65-.42,1.29-.64,1.95-.35,1-.72,2.13-1.07,3.4-.35.11-.41.55-.48,1C309.51,374.75,309.41,375.41,308.24,374.8Zm22.4,3.93-.79,0c-1.28,0-1.72-.46-1.19-1.93a18.61,18.61,0,0,0,.8-3.83q.07-.65.18-1.29a1.21,1.21,0,0,0-.15-.62c0-.1-.08-.2-.11-.3a2.57,2.57,0,0,0,.39,0,1.47,1.47,0,0,1,.8.08c1.31.79,2.57,1.66,4.07,2.73,1.34,1.37.84,2.52-.2,3.88S332,378.79,330.64,378.73Z"/><path class="cls-3" d="M274.82,515.76c2-.13,4.07-.21,6.1-.29,6.5-.25,13-.5,19.34-2.37,1.72-.51,3.46-1,5.19-1.46h0c2.54-.7,5.08-1.39,7.58-2.19,3.49-1.12,4.3-4.89,1.72-8.05-2.45-3-6-4.16-9.5-5.3L305,496c-.28-.09-.64.12-1,.33-.17.09-.34.19-.5.26a4.78,4.78,0,0,1,.34.42,2.83,2.83,0,0,0,.82.8c1.59.83,3.2,1.6,4.81,2.38h0l1.49.72H311c.05,0,.09,0,.11,0a13.29,13.29,0,0,0,1,.93c1.08.91,2.18,1.84,1.87,3.39-.39,2-2.33,2.42-4.07,2.82l-.24.06-5.2,1.24h0c-4.77,1.15-9.54,2.3-14.36,3.19a74.18,74.18,0,0,1-10.66.89l-1.67.06c-3.86.15-7.73.08-11.6,0H265a22.42,22.42,0,0,1-5.88-.56c-.83-.24-1.46-1.16-2.09-2.09a14.05,14.05,0,0,0-.87-1.19,3.53,3.53,0,0,0,.34-.24,1.31,1.31,0,0,1,.73-.37c1.17,0,2.33.11,3.49.18h0c1.82.12,3.63.23,5.45.21,7-.06,14-.24,21-.43,2.77-.08,5.53-.25,8.29-.45,4.56-.33,8.43-4.85,7.93-8.29s-1.9-6.3-6.13-6.13c-1.54.06-4.18,2.8-4.11,4.32.05,1.06.6,1.15,1.35.63a5.1,5.1,0,0,0,.67-.56,6.63,6.63,0,0,1,.66-.55c.21-.15.45-.34.7-.54.66-.53,1.36-1.08,1.67-.92a4.77,4.77,0,0,1,2.44,2.65,5.79,5.79,0,0,1-5.48,7.1c-9.46.44-18.93.7-28.4.91a73.4,73.4,0,0,1-8.51-.45,3.13,3.13,0,0,1-3.1-2.31c-1-3.16-2.26-6.26-3.55-9.32a8.62,8.62,0,0,0-1.29-1.92c-.23-.28-.46-.56-.66-.84-1.07.85-.6,1.63-.16,2.37a4.29,4.29,0,0,1,.39.77c1.87,5.75,3.79,11.48,5.8,17.17.68,1.94,2.31,2.67,4.3,2.69,1.68,0,3.36.14,5.16.33l1.38.05C269.32,515.83,272.08,515.93,274.82,515.76Z"/><path class="cls-3" d="M322.67,408.68h0c-.8-.6-1.56-1.18-2.3-1.8a1.09,1.09,0,0,1-.22-1,1.18,1.18,0,0,1,1-.33,3.41,3.41,0,0,1,1.52.62l.26.22c6.53,5.5,13,11,18,18.12,3.13,4.48,4.64,8.93,2.56,14.18a21.75,21.75,0,0,1-1.06,2.17,20.68,20.68,0,0,0-1.13,2.32c-1.28,3.4-4.41,5.54-7.66,4.52a44,44,0,0,1-18.52-10.84c-1.21-1.23-2.37-2.5-3.54-3.78-1.57-1.72-3.14-3.45-4.84-5.05a115.38,115.38,0,0,1-13.53-16,9,9,0,0,1-1.9-6.85,1.76,1.76,0,0,1,.48-.81,3.27,3.27,0,0,0,.28-.37l.35.3a1.69,1.69,0,0,1,.61.68,7.52,7.52,0,0,1,.26,1.27,4.44,4.44,0,0,0,.5,1.79c.58.9,1.16,1.81,1.73,2.73a67.94,67.94,0,0,0,6.35,9c5.11,5.73,10.56,11.19,16.2,16.39a40.54,40.54,0,0,0,14.73,9.15c2.21.71,5.46.23,6-1.18l.11-.29h0c.77-2.06,1.55-4.17.75-6.53a36.71,36.71,0,0,0-5-9.87c-4.11-5.71-9.21-10.34-14.5-14.84-2.52-2.15-4.89-4.48-7.22-6.83a2.36,2.36,0,0,1-.39-1.39c0-.25,0-.5-.1-.72l.56.19a2.85,2.85,0,0,1,1.11.52l4.45,4h0v0c5.29,4.8,10.58,9.61,15.7,14.59a32.93,32.93,0,0,1,4.74,6.51l.8,1.29a10,10,0,0,1,1,2.58,16,16,0,0,0,.48,1.53,2,2,0,0,0,.51.67c.09.1.19.2.27.3.06-.12.14-.24.21-.36a1.23,1.23,0,0,0,.29-.76c-.07-.43-.12-.88-.17-1.33a8.82,8.82,0,0,0-.92-3.6,66.75,66.75,0,0,0-6.92-9.71c-2.25-2.53-4.73-4.85-7.25-7.2-1.11-1-2.23-2.09-3.34-3.17C323.57,409.36,323.12,409,322.67,408.68Z"/><path class="cls-5" d="M256.71,495.84c3.4.4,6.87.45,9.71-2.35,1.54-1.53,5.21-.12,6.19,2.09a5.79,5.79,0,0,0,.76,1.16l.39.52c.06-.19.13-.37.2-.55.14-.41.29-.81.41-1.22l.1-.31c.4-1.3.81-2.59,1.17-3.89.65-2.29-2.8-6.13-5.13-5.68-.37.07-1,.52-1,.65a2.73,2.73,0,0,0,.75,1.25c.33.3.67.58,1,.85a15.21,15.21,0,0,1,1.4,1.25c.11.13-.42,1.28-.74,1.32-1.73.24-4.2-1.66-4.24-3.34-.12-4.51-1.32-8.77-2.52-13h0c-.34-1.18-.67-2.35-1-3.54-.19-.75-.33-1.52-.46-2.29a24.77,24.77,0,0,0-.58-2.69,2.82,2.82,0,0,0-.93-1.14c-.18-.17-.36-.33-.52-.5a6.16,6.16,0,0,1-.36.73,2.75,2.75,0,0,0-.49,1.55,24.27,24.27,0,0,0,.69,2.86,25.91,25.91,0,0,1,.69,2.83,2.43,2.43,0,0,1-1.08,1.92c-3,1.81-6.26,2.44-9.54.87a4.91,4.91,0,0,1-2.18-2.48,6.42,6.42,0,0,1-.32-2,7,7,0,0,0-.27-1.84c-.23-.7-1.17-1.66-1.76-1.64-.8,0-.68.56-.56,1.15a3.91,3.91,0,0,1,.1.58,34.34,34.34,0,0,0,2.29,10.78c1.19,4.54,2.37,8.85,3.58,13.15C253.1,495,255.11,495.66,256.71,495.84Zm9.05-5c-.7,1.75-5.1,3.65-7.29,3.31a6,6,0,0,1-5.09-4.95c-.51-2.16-1.08-4.3-1.66-6.45-.28-1-.55-2.05-.82-3.08-.08-.31-.15-.63-.21-.95,0-.15-.06-.3-.1-.45a5.52,5.52,0,0,0,.54-.16,1.82,1.82,0,0,1,1.09-.15c3.12,1.16,6,.13,8.87-.89,1.64-.59,2.31-.31,2.59,1.39.55,3.36,1.18,6.7,2,10.28,0,.22.06.45.09.68A2.73,2.73,0,0,1,265.76,490.84Z"/><path class="cls-3" d="M230.74,409.72a12.92,12.92,0,0,1,.93,1.29c.61.91,1.18,1.78,1.83,1.84,3.75.33,7.58.43,11.12-1.51a2.85,2.85,0,0,1,1.61-.11,7.36,7.36,0,0,0,.8.06c-.12.2-.23.41-.34.62a3.37,3.37,0,0,1-.87,1.22,6,6,0,0,1-2.61,1.17c-2.22.31-4.45.52-6.68.73h0l-2.29.21a3.75,3.75,0,0,1-4-2.28c-2.37-4.93-4.65-9.89-6.93-14.87a1.28,1.28,0,0,1,.21-1,.87.87,0,0,1,.86-.05l.33.26a4.34,4.34,0,0,1,1.36,1.45c.9,2,1.75,4.05,2.62,6.11h0Q229.68,407.25,230.74,409.72Z"/><path class="cls-3" d="M342.55,326.9a2.82,2.82,0,0,0,.1-1.07,9,9,0,0,0-.49-1.49l-.24-.62c-.16.22-.34.43-.52.65a3.56,3.56,0,0,0-.91,1.45c-.81,3.64-1.58,7.27-2.35,10.91-.87,4.09-1.74,8.17-2.65,12.25a7.53,7.53,0,0,1-.92,2,10,10,0,0,0-.78,1.53,3.29,3.29,0,0,0-.07,1.41c0,.22,0,.45,0,.67.19-.11.41-.21.63-.31.47-.21.94-.42,1.09-.77,1.3-3.06,2.58-6.14,3.58-9.31a44.15,44.15,0,0,0,1.07-4.54c.2-1,.4-2,.65-3,.64-3.2,1.16-6.28,1.68-9.37C342.48,327.18,342.52,327,342.55,326.9Z"/><path class="cls-3" d="M240.26,394.13h0a37.58,37.58,0,0,1-5.25.77c-4.15.2-8.32.11-12.49,0h0l-.92,0a2,2,0,0,1-1.13-.67,4.93,4.93,0,0,0-.52-.43c.24-.08.48-.18.73-.29a4.22,4.22,0,0,1,1.58-.44c1.48,0,3,0,4.46.05h0c2.27,0,4.55.09,6.81,0,2-.11,4-.41,6-.71h0c1.31-.2,2.63-.39,3.95-.54a2.64,2.64,0,0,1,1.29.38,4.72,4.72,0,0,0,.61.27,20.82,20.82,0,0,1-2.22,1.11C242.15,393.76,241.2,393.94,240.26,394.13Z"/><path class="cls-3" d="M279.94,307.54c-.29.06-.53.42-.77.79a4.48,4.48,0,0,1-.33.48,4.37,4.37,0,0,1,.46.18,2.55,2.55,0,0,0,1,.28q10.59-.18,21.19-.46a2.28,2.28,0,0,0,1-.41,3.67,3.67,0,0,1,.47-.26c-.11-.11-.22-.23-.32-.35a3.58,3.58,0,0,0-.78-.73,2.52,2.52,0,0,0-1.36-.46c-3.63.09-7.26.21-10.89.32h0L286,307h-1.33l-1.19.1A31.19,31.19,0,0,0,279.94,307.54Z"/><path class="cls-3" d="M262.77,442.3c.05.84.1,1.65.15,2.46.13,1.87.24,3.67.23,5.46a2.49,2.49,0,0,1-.78,1.37,6.88,6.88,0,0,0-.5.63c-.1-.16-.21-.33-.33-.49a1.91,1.91,0,0,1-.51-1,102.49,102.49,0,0,0-2.23-21.82,3,3,0,0,1,.28-1.52,6.67,6.67,0,0,0,.23-.72,7.1,7.1,0,0,0,.61.62,2.89,2.89,0,0,1,1,1.39c.61,3.76,1.08,7.54,1.58,11.46h0Q262.64,441.19,262.77,442.3Z"/><path class="cls-3" d="M213.63,370a2.1,2.1,0,0,0-.75-.84,3.82,3.82,0,0,1-.42-.37,5.21,5.21,0,0,1-.39.45c-.3.32-.61.64-.58.94.2,2.2.54,4.39.91,6.57.54,3.21,1.08,6.42,1.75,9.61a8.63,8.63,0,0,0,1.23,3c1.48-.35,1.23-1.51,1-2.48a5.89,5.89,0,0,1-.12-.64c-.28-2.34-.69-4.67-1.1-7h0c-.21-1.16-.42-2.33-.61-3.49a6.17,6.17,0,0,1,0-.87,7.67,7.67,0,0,0-.07-1c-.15-.61-.26-1.2-.36-1.77C214,371.39,213.82,370.69,213.63,370Z"/><path class="cls-3" d="M308.2,401.1h0c.83.62,1.61,1.21,2.34,1.86.1.09-.09.5-.29.92-.09.19-.18.38-.24.54l-.56-.19a4.43,4.43,0,0,1-1.15-.51,15.05,15.05,0,0,0-12.45-2.49,6.57,6.57,0,0,1-2.12,0,8.47,8.47,0,0,0-1-.1c.3-.22.58-.48.87-.74a5.15,5.15,0,0,1,1.95-1.29c3.88-1,7.76-1,11.52,1.17C307.46,400.55,307.83,400.83,308.2,401.1Z"/><path class="cls-3" d="M255.21,174.92a14.85,14.85,0,0,0-2.78-.85c-.34,0-.77.3-1.12.59h0l-.11.09a1.34,1.34,0,0,0,.46.86l.22.09c3.25,1.27,6.51,2.55,9.82,3.67.35.12.83-.17,1.31-.45.22-.13.45-.26.66-.36a5.86,5.86,0,0,1-.54-.47,4,4,0,0,0-1.21-.88c-1.13-.41-2.27-.79-3.43-1.17-1-.32-2-.64-3-1l-.29-.11h0Z"/><path class="cls-3" d="M278.84,496.39a16.35,16.35,0,0,1-.51,1.95c-.09.24-1.37.41-1.53.19-1-1.44.43-7.76,2-8.56a2.62,2.62,0,0,1,2.19.44c.26.19.05,1.33-.21,1.92a11.41,11.41,0,0,1-1.19,2c-.15.21-.3.42-.45.65C279,495.44,278.94,495.92,278.84,496.39Z"/><path class="cls-3" d="M287.24,493.52a3.5,3.5,0,0,0,.21-1.14c0-.18,0-.36,0-.54a4,4,0,0,1-.65-.11,1.92,1.92,0,0,0-1.28,0c-1.85,1.17-3.5,5.38-3.1,7.16a2.52,2.52,0,0,0,.82,1.1c.16.15.33.31.47.47l.42-.46a4.89,4.89,0,0,0,.89-1.1,4.57,4.57,0,0,0,.39-1.47q0-.27.09-.57c.3-.66.62-1.25.92-1.82S287,494,287.24,493.52Z"/><path class="cls-3" d="M288.91,497.06h0a10.85,10.85,0,0,1,1.12-2.55c.88-1.27,2-2.36,3.73-1.31.93.56.83.66.11,1.41l0,0a26.38,26.38,0,0,0-2.55,3.3l-.29.41c-.39.56-.72,1.16-1.06,1.77l-.45.8c-.28-1-.56-2-.84-3.15C288.75,497.52,288.83,497.29,288.91,497.06Z"/><path class="cls-3" d="M246.3,405.62a1.17,1.17,0,0,0,1,.55c.45-.15,1.14-.7,1.1-1-.15-.95-.36-1.9-.56-2.84-.26-1.19-.52-2.39-.67-3.6s-.28-2.16-1.63-2.43h0c-.07,1.13-.14,2.25-.21,3.6l.06.36C245.69,402.19,245.94,403.91,246.3,405.62Z"/><path class="cls-3" d="M259.51,155.91c-.74.75-1.43,1.46-2.15,2.14a5.82,5.82,0,0,1-.84.64l-.4.27c0-.21-.11-.45-.18-.69-.15-.51-.31-1-.12-1.24a48.6,48.6,0,0,1,4.7-4.6c.22-.19.68-.09,1.13,0,.21,0,.42.08.61.1-.09.16-.17.33-.25.49-.21.39-.41.78-.65,1.14a2.27,2.27,0,0,1-.53.48l-.4.32Z"/><path class="cls-3" d="M263.24,156.59c-1.41.14-1.37,1.55-.92,2.76,0,0,0,.07,0,.11a.2.2,0,0,0,0,.11c.34,1.43.76,3.09,2.62,2.66,1.42-.33,1.1-1.42.8-2.5-.07-.23-.14-.47-.19-.7a12.73,12.73,0,0,1-.81-1C264.2,157.25,263.69,156.55,263.24,156.59Z"/><path class="cls-3" d="M250.61,170.08c0-.13,0-.27,0-.4a4.15,4.15,0,0,1,.55-2.11,1.87,1.87,0,0,1,1.86-.3,5.36,5.36,0,0,1,1.59,2.36c.11.29-.71,1-1.21,1.39-1.15.87-1.88.08-2.69-.79l0,0Z"/><path class="cls-3" d="M237,177.25a5,5,0,0,0,1.37.77c.21.07.51-.15.81-.38.14-.1.27-.2.4-.28a13.93,13.93,0,0,0-1.79-2,8.14,8.14,0,0,0-1.33,1.5C236.62,177,236.8,177.12,237,177.25Z"/></svg>