<svg id="Layer_1" data-name="Layer 1" xmlns="http://www.w3.org/2000/svg" xmlns:xlink="http://www.w3.org/1999/xlink" viewBox="0 0 39.1 38.3"><defs><style>.cls-1{fill:none;}.cls-2{clip-path:url(#clip-path);}.cls-3{fill:#fff;}</style><clipPath id="clip-path"><rect class="cls-1" width="39.1" height="38.3"/></clipPath></defs><g id="Group_26" data-name="Group 26"><g id="Group_26-2" data-name="Group 26-2"><g class="cls-2"><g id="Group_25" data-name="Group 25"><path id="Path_41" data-name="Path 41" class="cls-3" d="M15.9,0V7.3a11.29,11.29,0,0,0-4.4,4,18.73,18.73,0,0,0-2.3,5.2,20.65,20.65,0,0,0-.8,6h7.5V38.3H0V28.5C0,22.5.6,18,1.7,14.9A26.07,26.07,0,0,1,6.9,6.3a24.86,24.86,0,0,1,9-6.3M39.1,0V7.3a11.29,11.29,0,0,0-4.4,4,19.49,19.49,0,0,0-2.3,5.1,24.73,24.73,0,0,0-.8,6h7.5V38.3H23.3V28.5c0-5.9.6-10.4,1.7-13.5a26.07,26.07,0,0,1,5.2-8.6A23.61,23.61,0,0,1,39.1,0"/></g></g></g></g></svg>