<?xml version="1.0" encoding="utf-8"?>
<!-- Generator: Adobe Illustrator 26.0.1, SVG Export Plug-In . SVG Version: 6.00 Build 0)  -->
<svg version="1.1" id="Layer_1" xmlns="http://www.w3.org/2000/svg" xmlns:xlink="http://www.w3.org/1999/xlink" x="0px" y="0px"
	 viewBox="0 0 100 100" style="enable-background:new 0 0 100 100;" xml:space="preserve">
<style type="text/css">
	.st0{fill:none;stroke:#A3C9A8;stroke-width:5;stroke-linecap:round;stroke-miterlimit:10;}
	.st1{fill:none;stroke:#875053;stroke-width:4;stroke-miterlimit:10;}
	.st2{fill:#1A6071;stroke:#875053;stroke-width:0.5;stroke-miterlimit:10;}
	.st3{fill:none;stroke:#875053;stroke-width:1.61;stroke-linecap:round;stroke-miterlimit:10;}
</style>
<g>
	<g>
		<path class="st0" d="M4.1,61.1c8.4,0.2,8.3,4.2,16.7,4.3c8.4,0.2,8.5-3.8,16.8-3.7c8.4,0.2,8.3,4.2,16.7,4.3
			c8.4,0.2,8.5-3.8,16.8-3.7s8.3,4.2,16.7,4.3"/>
	</g>
	<g>
		<path class="st0" d="M4.1,46.1c8.4,0.2,8.3,4.2,16.7,4.3c8.4,0.2,8.5-3.8,16.8-3.7c8.4,0.2,8.3,4.2,16.7,4.3
			c8.4,0.2,8.5-3.8,16.8-3.7s8.3,4.2,16.7,4.3"/>
	</g>
	<g>
		<path class="st0" d="M4.1,31.1c8.4,0.2,8.3,4.2,16.7,4.3c8.4,0.2,8.5-3.8,16.8-3.7c8.4,0.2,8.3,4.2,16.7,4.3
			c8.4,0.2,8.5-3.8,16.8-3.7s8.3,4.2,16.7,4.3"/>
	</g>
	<g>
		<path class="st0" d="M4.1,16.1c8.4,0.2,8.3,4.2,16.7,4.3c8.4,0.2,8.5-3.8,16.8-3.7c8.4,0.2,8.3,4.2,16.7,4.3
			c8.4,0.2,8.5-3.8,16.8-3.7c8.4,0.2,8.3,4.2,16.7,4.3"/>
	</g>
</g>
<path class="st1" d="M50.1,12.7h38.9c2.6,0,4.8,2.1,4.8,4.8v73.3c0,2.6-2.1,4.8-4.8,4.8H50.1c-2.6,0-4.8-2.1-4.8-4.8V17.5
	C45.3,14.9,47.5,12.7,50.1,12.7z"/>
<path class="st2" d="M52.9,20.3h33.4V44H52.9V20.3z M70.2,32.1l15.3,10.8V21.4L70.2,32.1z M53.6,43L69,32.1L53.6,21.3V43z
	 M54.5,43.3h30.1c-0.1-0.2-0.2-0.2-0.2-0.3c-4.7-3.3-9.4-6.6-14.1-9.9c-0.6-0.4-0.9-0.3-1.4,0.1c-3.5,2.5-7.1,5-10.6,7.5L54.5,43.3z
	 M84.7,21.1H54.5c5,3.5,9.8,6.9,14.6,10.2c0.3,0.2,0.8,0.2,1.1,0C75,27.9,79.7,24.6,84.7,21.1L84.7,21.1z"/>
<path class="st2" d="M68.4,66.5H53.6v-16h14.8V66.5z M67.2,51.3H54.7L61,58L67.2,51.3z M67.7,51.8l-6.2,6.7c2.1,2.2,4.1,4.4,6.2,6.7
	V51.8z M54.8,65.8h12.3L61,59.1L54.8,65.8z M60.5,58.6L54.3,52v13.2L60.5,58.6z"/>
<path class="st2" d="M86.5,66.6H71.7v-16h14.8V66.6z M85.3,51.3H72.8l6.2,6.8L85.3,51.3z M85.8,51.9l-6.2,6.7l6.2,6.7V51.9z
	 M72.9,65.8h12.3l-6.2-6.7L72.9,65.8z M78.6,58.6L72.5,52v13.2L78.6,58.6z"/>
<line class="st3" x1="53.6" y1="73.1" x2="67.7" y2="73.1"/>
<line class="st3" x1="53.6" y1="76.5" x2="64.6" y2="76.5"/>
<line class="st3" x1="71.7" y1="73.1" x2="85.8" y2="73.1"/>
<line class="st3" x1="53.6" y1="69.8" x2="67.7" y2="69.8"/>
<line class="st3" x1="71.7" y1="69.8" x2="85.8" y2="69.8"/>
<line class="st3" x1="71.7" y1="76.5" x2="82.7" y2="76.5"/>
</svg>
