<svg id="Layer_1" data-name="Layer 1" xmlns="http://www.w3.org/2000/svg" viewBox="0 0 100 100"><defs><style>.cls-1{fill:#f9c3dc;}.cls-2,.cls-4{fill:none;}.cls-2,.cls-3,.cls-4{stroke:#51a0a8;stroke-miterlimit:10;}.cls-2{stroke-width:3.22px;}.cls-3{fill:#51a0a8;stroke-width:0.5px;}.cls-4{stroke-linecap:round;stroke-width:1.61px;}</style></defs><path class="cls-1" d="M46.3,26.6A23.35,23.35,0,1,1,22.9,50h0A23.49,23.49,0,0,1,46.3,26.6m0-21.5a44.9,44.9,0,1,0,44.8,45V50A44.9,44.9,0,0,0,46.3,5.1Z"/><rect class="cls-2" x="45.35" y="12.71" width="48.49" height="82.82" rx="4.78"/><path class="cls-3" d="M52.92,20.28H86.28V44H52.92ZM70.24,32.14,85.55,42.92V21.36ZM53.59,43,69,32.14,53.59,21.33Zm.89.3H84.54c-.13-.17-.16-.25-.22-.29-4.69-3.31-9.38-6.6-14.06-9.93-.57-.41-.94-.26-1.44.1q-5.29,3.75-10.6,7.46ZM84.71,21.1H54.49c5,3.51,9.76,6.89,14.56,10.22a1.21,1.21,0,0,0,1.11,0c4.84-3.39,9.57-6.76,14.55-10.27Z"/><path class="cls-3" d="M68.37,66.54H53.59v-16H68.37ZM67.2,51.27H54.72L61,58Zm.48.57-6.22,6.73c2.07,2.22,4.07,4.39,6.22,6.71ZM54.8,65.76H67.12L61,59.11Zm5.66-7.2L54.34,52V65.17Z"/><path class="cls-3" d="M86.5,66.56H71.72v-16H86.5ZM85.32,51.3H72.85l6.23,6.75Zm.49.57-6.23,6.72,6.23,6.71ZM72.92,65.79H85.25l-6.17-6.65Zm5.66-7.2L72.47,52V65.2Z"/><line class="cls-4" x1="53.59" y1="73.07" x2="67.68" y2="73.07"/><line class="cls-4" x1="53.59" y1="76.52" x2="64.57" y2="76.52"/><line class="cls-4" x1="71.72" y1="73.07" x2="85.81" y2="73.07"/><line class="cls-4" x1="53.59" y1="69.82" x2="67.68" y2="69.82"/><line class="cls-4" x1="71.72" y1="69.82" x2="85.81" y2="69.82"/><line class="cls-4" x1="71.72" y1="76.52" x2="82.7" y2="76.52"/></svg>