<svg id="Layer_1" data-name="Layer 1" xmlns="http://www.w3.org/2000/svg" viewBox="0 0 100 100"><defs><style>.cls-1{fill:none;stroke:#a3c9a8;stroke-linecap:round;stroke-miterlimit:10;stroke-width:5px;}.cls-2{fill:#ba727b;}</style></defs><path class="cls-1" d="M4.1,61.1c8.4.2,8.3,4.2,16.7,4.3s8.5-3.8,16.8-3.7,8.3,4.2,16.7,4.3,8.5-3.8,16.8-3.7,8.3,4.2,16.7,4.3"/><path class="cls-1" d="M4.1,46.1c8.4.2,8.3,4.2,16.7,4.3s8.5-3.8,16.8-3.7,8.3,4.2,16.7,4.3,8.5-3.8,16.8-3.7,8.3,4.2,16.7,4.3"/><path class="cls-1" d="M4.1,31.1c8.4.2,8.3,4.2,16.7,4.3s8.5-3.8,16.8-3.7,8.3,4.2,16.7,4.3,8.5-3.8,16.8-3.7,8.3,4.2,16.7,4.3"/><path class="cls-1" d="M4.1,16.1c8.4.2,8.3,4.2,16.7,4.3s8.5-3.8,16.8-3.7,8.3,4.2,16.7,4.3,8.5-3.8,16.8-3.7,8.3,4.2,16.7,4.3"/><path class="cls-2" d="M89,97.6H50.1a6.81,6.81,0,0,1-6.8-6.8V17.5a6.89,6.89,0,0,1,6.8-6.8H89a6.81,6.81,0,0,1,6.8,6.8V90.8A6.81,6.81,0,0,1,89,97.6ZM50.1,14.7a2.88,2.88,0,0,0-2.8,2.8V90.8a2.81,2.81,0,0,0,2.8,2.8H89a2.81,2.81,0,0,0,2.8-2.8V17.5A2.81,2.81,0,0,0,89,14.7Z"/><path class="cls-2" d="M86.55,20.05H52.65v24.2h33.9ZM53.85,42.52V21.78L68.57,32.1ZM70.06,31.09a.8.8,0,0,1-.82,0c-3.41-2.34-6.77-4.7-10.32-7.19l-3.63-2.55H83.91C79.82,24.21,75,27.56,70.06,31.09Zm14,12H55.31l3.14-2.15c1.74-1.25,3.52-2.5,5.29-3.75l5.32-3.75c.45-.37.62-.41,1.1-.1ZM70.63,32.1,85.25,21.88V42.42Z"/><path class="cls-2" d="M53.35,66.75h15.3V50.25H53.35Zm1.93-15.2H66.63L61,57.63ZM61,59.47l5.53,6.08H55.37Zm6.45-7V64.56l-.12-.14c-1.87-2-3.63-4-5.49-5.92ZM60.16,58.6l-5.61,6V52.63Z"/><path class="cls-2" d="M71.45,50.35v16.5h15.3V50.35ZM79,57.73l-5.63-6.18H84.73Zm5.63,7.82H73.47L79,59.47ZM78.26,58.6l-5.51,6V52.64Zm1.68,0,5.61-6.06V64.66Z"/><path class="cls-2" d="M67.7,73.9H53.6a.81.81,0,0,1-.81-.8.82.82,0,0,1,.81-.81H67.7a.81.81,0,0,1,.8.81A.8.8,0,0,1,67.7,73.9Z"/><path class="cls-2" d="M64.6,77.3h-11a.8.8,0,1,1,0-1.6h11a.8.8,0,0,1,0,1.6Z"/><path class="cls-2" d="M85.8,73.9H71.7a.8.8,0,0,1-.8-.8.81.81,0,0,1,.8-.81H85.8a.81.81,0,0,1,.8.81A.8.8,0,0,1,85.8,73.9Z"/><path class="cls-2" d="M67.7,70.6H53.6a.8.8,0,1,1,0-1.6H67.7a.8.8,0,0,1,0,1.6Z"/><path class="cls-2" d="M85.8,70.6H71.7a.8.8,0,0,1,0-1.6H85.8a.8.8,0,0,1,0,1.6Z"/><path class="cls-2" d="M82.7,77.3h-11a.8.8,0,0,1,0-1.6h11a.8.8,0,0,1,0,1.6Z"/></svg>